<svg id="Layer_1" enable-background="new 0 0 75 75" viewBox="0 0 75 75" xmlns="http://www.w3.org/2000/svg"><g id="Afraid" fill="rgb(0,0,0)"><path d="m11.4780798 22.0027142c.6245422 1.2382469 1.8475866 2.0939388 3.1551514 2.3780518-.0166197.1163387-.0199766.0641899.1053467.7875977-1.1178007-.0124702-2.3230247 1.2907391-2.2407227 2.6889648.059989 1.0614262.8900146 2.0097656 1.9638672 2.0097656.6170654 0 1.2191162-.3088379 1.53479-.8183594 1.7685556 3.5932598 4.9086924 6.2733135 8.4788828 7.1874981 4.2917404 1.1003304 9.0891495-.4584389 11.9316406-3.8740234 1.5274658-1.841795 2.2064209-3.7392559 2.4055176-5.7626934 1.3953171-.1844807 2.3826447-1.3051147 2.3933105-2.5200195.006115-.9702606-.6443825-1.881464-1.7061768-1.9586182 1.4562988-1.1912842 1.9643555-3.1027832 2.1784668-5.1281738.1599121-1.500001-.1501465-3.1199961-1.1800537-4.2199717-1.0400391-1.1300049-2.7301025-1.4500732-4.0799561-.710083-.2800293-1.8099365-1.6201172-3.6699219-3.2301025-4.5l-1.9200439-1.0998535c-2.1096287-1.1266189-5.4508743-1.7772274-7.1899414-.2700195-.8000488.6899414-1.0600586 1.8999023-.5600586 2.8299561-1.6699219-.6400146-3.2600098-1.0599365-5.0599365-.7600098-4.5227928.7738256-7.6265917 5.2009354-5.9200449 8.3699961-1.4799804 1.2900389-1.9399414 3.6099852-1.0599365 5.369995zm3.904541 6.6280517c-.2285156.4072266-.8203125.6010742-1.2900391.4199219-.4667969-.1791992-.8154297-.6875-.8466797-1.2368164-.0635929-1.1108246 1.0042686-2.0516281 1.6488037-1.8643799.1975098.8619385.4702148 1.6959229.8168945 2.494873-.1318358-.0003662-.2604979.0631104-.3289794.1864014zm24.6435557-3.4667969c-.2952881.3466797-.7143555.581543-1.1610107.6741943.0386963-.9405518-.0144043-1.9107666-.1240234-2.9150391.0898438.0367432.1934814.0394287.289917-.0008545 1.024227-.4438342 2.0130843 1.0411607.9951171 2.2416993zm-17.9281006-7.1412353c.4599609.0799561.8699951.3399658 1.3100586.4300537 1.627758.3364468 3.4233475.2825832 4.9899902-.1501465 1.3999023-.3999023 1.5-1.0499268 2.25-2.0698242 1.240715.9076767 2.4474831 2.0251141 4.0899658 1.7299805.3825111-.0528278.8844986-.3838005 1.2299805-.2800293.7109375.1691895 1.3829346 1.15979 1.7797852 1.8913574-.1414795.0733643-.2285156.2275391-.1992188.3925781.8007813 4.6123047 1.1826172 8.4179688-1.71875 11.9165039-2.6611328 3.197752-7.1484375 4.6533184-11.1689453 3.6264629-4.5677853-1.1700325-8.5472889-5.4694748-9.2781992-11.0446758 1.2257357.0806255 1.6688814-.2738972 2.5753183-.9622803.8800049-.7000732 1.6400146-1.5100098 2.2700195-2.4400635 1.6699715-2.504959 1.0123139-3.1912135 1.8699952-3.0399169zm-7.4699717-2.2200937c1.4299326-2.3898926 3.8000498-4.1699219 6.500001-4.8598633.4827042-.1449881.6713753.5994654.1899414.7199707-2.5100098.6499023-4.7199707 2.3000488-6.0500498 4.5200205-.2535381.4345092-.8998985.0453376-.6398926-.3801279z"/><path d="m20.6394577 43.630764c-.9063721 5.6856689-2.5629883 11.2259521-4.9141855 16.4819336-.9136305-.1878395-1.7117615.0380402-2.5506592.097168-1.0517578.074707-2.0839844.2587891-3.0683594.5483398-2.5028615.7372704-2.3542447 2.6253853-1.0400391 3.4023476.6678009.3929672 1.5743532.4472656 2.3984375.4472656 1.6103516 0 3.2138672-.347168 4.6796885-1.0170937 2.0761166-.9491043 1.7778435-2.5950432.2987061-3.2480469 2.3598633-5.2935791 4.024292-10.8708496 4.9366455-16.59375.0795784-.4903411-.663292-.6054649-.7402344-.118164zm-4.8076181 19.277832c-1.5820313.7241211-3.3349609 1.0449219-5.0761719.925293-.4287109-.0292969-.9189453-.0898438-1.3085938-.3193359-.2988281-.1772461-.5878906-.5239258-.5585938-.9003906.0900326-1.1749191 3.1666565-1.5730133 4.3388672-1.65625.8177452-.057682 1.4835587-.2454758 2.2418213-.1240234.0334101.3167915.4172897.4722595.647706.1864014.343628.1488036 1.1187097 1.2472724-.285035 1.8883055z"/><path d="m62.4275436 65.2718811c1.0423622-.522316 1.1198997-1.7288589.2021484-2.4375038-.4632797-.3571091-.8758469-.4258652-1.9628906-.800293-1.2478027-.4311523-2.6588135-.9143066-3.9442139-.5465088-.7802734-1.5252686-1.5556641-3.0596924-2.3292236-4.5931396-.7753258-1.3860397-1.6936646-4.0480995-3.8632813-4.2744141-1.317749-.1520996-2.4320068.736084-3.1958008 1.4863281-.1820183-2.7352028-1.3391457-4.3347893-5.8665771-12.3979492.7248535-.2055664 1.4453125-.4257813 2.1571045-.6689453.4638672-.1586914.9101563-.328125 1.2802734-.6489258.920433-.8022575.8946609-2.0894852-.796875-2.7822266-1.2509766-.5112305-2.5673828-.8183594-3.9140625-.9125977-.4914627-.0380707-.5504532.7126656-.0527344.7480469 1.2675781.0888672 2.5068359.3779297 3.6826172.8588867 1.1245384.4604874 1.1313858 1.0494576.5888672 1.5219727-.5072632.4406166-2.5202904.9840584-3.3253174 1.2084961-.8327827-1.0948334-3.5533142-8.6773224-7.7694092-4.6459961-.2744141.2626953-.5341797.5107422-.8652344.6625977-1.1240234.5161133-2.6328125.3745117-3.7353516.2709961-2.1699219-.2041016-4.5556641-.1757813-5.7685547 1.5717773-.8203125 1.1796875-.7226563 2.6967773-.5185547 4.0258789.7724609 5.0200195 2.7431641 9.7504883 4.6494141 14.3256836.6171875 1.4838867 1.3867188 3.3310547 2.8476563 4.4990234 1.4859962 1.189312 3.4726524 1.5282059 5.34375 1.3388672 2.5115433-.2546272 6.8992081-1.990757 8.6138916-2.9987793 1.294529 2.0081329 2.5335579 3.9054184 4.0070801 6.1672401-.9855423.3888168-1.3677559 1.3644333-1.0828857 2.0581055.6692848 1.6218109 5.3921814 1.7004547 6.7011719.8271484.9131966-.6099319.8442383-1.7517853-.0986328-2.3066406-.4705276-.2767792-.8576164-.2906189-1.9023438-.5092773-.914917-.1918945-1.921875-.4033203-2.8552246-.2739258-1.382679-2.1221466-2.7301369-4.1833649-4.1358643-6.3653603 1.6418114-1.1294518 2.6441917-2.5567055 2.8105469-4.5266113.4190636-.3241196 1.6646614-1.9546165 3.1199951-1.788208 1.6920128.1765633 2.5401154 2.533947 3.2753906 3.8666992.7735596 1.5343018 1.5489502 3.0700684 2.3299561 4.5966797-.5041504.3935547-.8364258 1.0236816-.6639404 1.6630859.1962891.7202187.890625 1.0869179 1.3945313 1.2998085 1.1992188.5068359 2.5009766.769043 3.8007813.769043.5941887.0000001 1.327259-.0317992 1.8417968-.2890624zm-11.0722656 1.7817383c1.0102997.2126923 1.3376541.2228622 1.6757813.421875.5736427.3375168.6162529 1.0416794-.6962891 1.3037109-1.2773438.2563477-2.6181641.2075195-3.8740234-.1455078-.5371094-.1508789-.8505859-.3510742-.9580078-.6108398-.1533203-.3730469.1728516-.8569336.5664063-1.0415039.9316405-.4199219 2.1826171-.1586914 3.2861327.0722656zm-11.1083984-6.1386757c-1.8526459.6958542-3.7877579 1.4218636-5.7668457 1.4650879 4.3515739-5.6245766 4.6588364-6.3628769 5.552002-6.4963379 1.4327621-.2137985 2.5015678 2.3136444 3.4433594 3.5703125-.9868165.5771484-2.1063233 1.0390625-3.2285157 1.4609375zm3.8605957-1.8657227c-1.1726723-1.6964264-2.2759399-4.1796227-4.1848145-3.9077148-.8730469.1303711-1.4804688.8388672-1.9824219 1.4936523-4.304657 5.6309242-4.3009033 5.5782013-4.3535156 5.7094727-3.3832321-.3034058-4.5415993-2.3332901-5.8154297-5.3886719-1.8876953-4.5336914-3.8408203-9.222168-4.5986328-14.1518555-.4942055-3.2163162.4793415-4.8193359 3.9287109-4.8193359 1.8171101 0 3.9097424.5515213 5.6640625-.253418.8093491-.3710251 1.1309814-.9950447 1.7597656-1.3706055 2.9015007-1.7519875 4.7076149 3.1814575 5.8118896 4.8696289-1.5355225.3979492-3.0915527.7174072-4.6584473.9389648-.4277344-1.4125977-3.5462646-1.7775879-3.6895752-1.793457-3.9638309-.4471245-4.2328606 4.0578651-.0966797 3.925293 1.5445557-.0533447 3.3482666-.3452148 3.7498779-1.366333 1.708252-.2354736 3.4036865-.5877686 5.0749512-1.0291748 4.5198441 8.0270233 5.0803909 8.873642 5.5765381 10.5947266.8442003 2.9249497.0131647 5.0252457-2.1862791 6.5488281zm-9.1262207-16.546875c-.0068359.5727539-1.2294922.984375-3.1142578 1.0488281-.6591797.0214844-1.1289063-.0561523-1.5-.2475586-1.2867832-.6608734-.85326-2.4427567 1.5400391-2.1826172 1.2617187.1401368 3.0830077.7124024 3.0742187 1.3813477zm21.133789 20.7934571c-.1181641-.4379883.3085938-.9301758.7705078-1.0786133 1.0644531-.328125 2.3769531.1245117 3.5361328.5258789 1.0780525.3703384 1.413208.4250908 1.75.6850586.4642792.3584518.4852943.8901634-.0800781 1.1728554-1.2086029.6043014-5.6585388-.1296311-5.9765625-1.3051796z"/><path d="m26.6804733 31.7572308c.7738171-3.3276291 4.6142387-4.9243546 7.5195313-3.1235352.4203491.261837.8169327-.3763199.3945313-.6376953-1.5488281-.9604492-3.5576172-1.1245117-5.2441406-.4233398-1.6845703.699707-2.9873047 2.2382813-3.4003906 4.0146484-.1125375.4841442.6190242.6523876.7304686.1699219z"/><path d="m31.3699265 22.6566448c.226368-.6726971 1.0749474-.8930569 1.6015625-.421875.3693466.3319435.869545-.2286167.5-.5595703-.9337158-.8314934-2.4151878-.4381866-2.8125.7421875-.1585541.4686661.5524387.710352.7109375.2392578z"/><path d="m22.6619186 25.7728558c.1271935-.8986988 1.0623035-1.4686985 1.9277344-1.1425781.1923828.0732422.4091797-.0249023.4824219-.21875.3510876-.9292126-2.8281975-1.0644779-3.1523438 1.2568359-.070095.4906616.6729889.5965671.7421875.1044922z"/><path d="m62.870903 29.0213909c.364006-.1885433.2043877-.7564793-.2275391-.7036133-6.4584122.9394226-6.2707672.9548111-6.4404297.859375-.2604179-.1431446-.2098198-.4266624-1.2783203-6.3486328-.0659828-.3714066-.6070938-.4385052-.7275391-.0458984l-1.796875 5.78125c-.1469879.4724598.5694084.6975689.7167969.2226563l1.3388672-4.3085938.7480469 4.2109375c.1965485 1.1055946.6954803 1.3729019 1.6044922 1.2397461l4.1611328-.6079102c-1.4316406 1.0395508-2.65625 2.3852539-3.5351563 3.9057598-.1414833.2423935.0274925.5520554.3095703.5625 2.4394531.097168 4.8476563.5073242 7.1767578 1.2216797-1.90625.3754883-3.7402344 1.0268555-5.46875 1.9428711-.2941589.1567421-.2526855.5923309.0664063.6904297 1.7519531.5322266 3.390625 1.4267578 4.7880859 2.6083984-2.3134766-.0302734-4.6552734-.4448242-6.8271484-1.2133789-.4647331-.1647873-.7193031.5404282-.25.7070313 2.5874252.9155998 5.2820854 1.3348274 8.0507813 1.246582.3288498-.0118217.4854736-.4124794.2490234-.6435547-1.40625-1.3691406-3.0966797-2.4404297-4.9316406-3.1303711 1.875-.8867188 3.8681641-1.4589844 5.9375-1.7026367.3910294-.0466576.4535828-.589962.0849609-.7246094-2.6455078-.9692383-5.4042969-1.5463867-8.2099609-1.7192383 1.1064453-1.6933574 2.671875-3.1181621 4.4609375-4.0507793z"/><path d="m51.136528 33.7308617-1.5429688 2.2265625c-.2840347.4130325.3395119.825737.6171875.4277344l1.5429688-2.2275391c.2819061-.4087639-.3353805-.835495-.6171875-.4267578z"/><path d="m52.0105515 38.4886742 1.3964844-.7167969c.4421349-.2281227.0935135-.8961449-.34375-.6669922l-1.3945313.7167969c-.4404412.2248802-.0984535.8949814.3417969.6669922z"/></g></svg>