<svg id="Layer_1" height="512" viewBox="0 0 512 512" width="512" xmlns="http://www.w3.org/2000/svg"><g><path d="m256 108.5c-81.3 0-147.5 66.2-147.5 147.5s66.2 147.5 147.5 147.5 147.5-66.2 147.5-147.5-66.2-147.5-147.5-147.5zm0 278.6c-72.3 0-131.1-58.8-131.1-131.1s58.8-131.1 131.1-131.1 131.1 58.8 131.1 131.1-58.8 131.1-131.1 131.1z"/><path d="m247.8 2h16.4v81.9h-16.4z"/><path d="m247.8 427.9h16.4v82.1h-16.4z"/><path d="m197.7 93.9-18.8-45.4-15.1 6.3 18.8 45.4z"/><path d="m314.2 417.9 18.9 45.6 15.1-6.3-18.9-45.6z"/><path d="m413.1 172.6h49.2v16.4h-49.2z" transform="matrix(-.924 .383 -.383 -.924 911.201 180.217)"/><path d="m49.7 323h49.4v16.4h-49.4z" transform="matrix(.924 -.383 .383 .924 -121.1 53.7)"/><path d="m49.7 172.6h49.2v16.4h-49.2z" transform="matrix(.924 .383 -.383 .924 74.839 -14.684)"/><path d="m412.9 323h49.4v16.4h-49.4z" transform="matrix(-.924 -.383 .383 -.924 715.075 804.688)"/><path d="m348.2 54.8-15.1-6.3-18.8 45.4 15.1 6.3z"/><path d="m163.8 457.2 15.1 6.3 18.9-45.6-15.1-6.3z"/><path d="m398.4 64.4h16.4v81.9h-16.4z" transform="matrix(.707 .707 -.707 .707 193.605 -256.675)"/><path d="m97.2 365.5h16.4v82.1h-16.4z" transform="matrix(-.707 -.707 .707 -.707 -107.496 768.607)"/><path d="m428.1 247.8h81.9v16.4h-81.9z"/><path d="m2 247.8h82.1v16.4h-82.1z"/><path d="m365.7 398.4h81.9v16.4h-81.9z" transform="matrix(-.707 -.707 .707 -.707 406.594 981.707)"/><path d="m64.4 97.2h82.1v16.4h-82.1z" transform="matrix(.707 .707 -.707 .707 105.44 -43.673)"/></g></svg>