<svg id="Layer_1" enable-background="new 0 0 75 75" viewBox="0 0 75 75" xmlns="http://www.w3.org/2000/svg"><g id="Announcement" fill="rgb(0,0,0)"><path d="m59.6829834 56.3846474c.1403122-.1487846.1825562-.0380516-.359375-3.8583984-.6972198-4.8937683-.4625854-4.7853699-.7250977-5.4609375-.5279274-1.3554573-2.1868172-1.0808601-3.5336914-.8417969-4.7918129.8196106-8.5319214-.0333405-8.7207031-.0498047-3.8975525-.7051353-4.3211861.352932-4.2763672 2.9208984.0048828.2783203.0097656.5380859-.0068359.75-.0384941.4945984.7081871.5533218.7480469.0585938.0180664-.2324219.0136719-.5166016.0087891-.8212891-.038723-2.2071915.1138687-2.7644882 3.3925781-2.1708984l.4404297.078125c7.1850357 1.1931763 10.6321526-1.2340431 11.2485352.3476563.0966797.2480469.1196289.5429688.1420898.8271484.1250496 1.5960503.9331322 7.4743118.9487305 7.5791016l-9.0200195-.2128906c-.2135925-.8762817-.1314392-.8900566-.2941284-1.0551758l-.3308716-2.690918c-.0593147-.4884644-.8051071-.4029541-.7441406.0917969l.3113403 2.5319824c-1.2886314.0590286-4.2728691.0395699-6.4690552.2971191.0076828-.104187.0214577-.2974129.2602539-3.4394531.0359268-.4913826-.7111931-.5563698-.7480469-.0546875l-.144043 1.9072266c-.1627655 2.125351-.2054901 2.1280556-.0322266 2.2900391.2929306.2738647.1673279-.1183395 5.3286133-.203125.9195557-.0161133 1.5056763-.0270996 1.8963013-.050293.0543137.2020226-.0316238.4163666.2394409.5644531.0437279.1009827.0136147.5452614.4125977.5541992l4.8640137.114502c-.3698082.2234039-.114357.0285835.2036133 10.5947304-.7598305-.1995392-2.2540665-.1493378-2.9128418.2780762-.8099937.5263977-.8422737 1.5703812.0097656 2.1083984.6103859.3887939 2.0535583.5097656 2.7641602.5097656 1.842144 0 1.9581947-1.7185135.9033813-2.5336914-.4961472-11.103981-.240448-10.747261-.5947876-10.9484901 4.5617065.0611304 4.5703239.2208708 4.7895507-.011963zm-4.3833008 12.5527382c-.3275833.3604355-1.9209213.116478-2.3974609.0244141-1.3584023-.2573853-1.2383614-1.1353302.0546875-1.2890625.9248657-.0867081 2.0611076-.1786499 2.3994141.6962891.0805663.2089843.0576171.4423827-.0566407.5683593z"/><path d="m64.7391357 13.075079c-2.5731811-8.469544-13.3400383-10.7396803-19.0859375-4.0507813-.9242935-.1882868-1.7924843.3900423-2.1728516 1.1660156-.532814 1.0901794-.3090668 2.6905146.819458 3.6125488-.5321312 2.7129745-1.2971039 5.669281-.0386963 7.9714355 1.902626 3.4840546 6.8507805 4.9373684 12.0861206 1.7487793.07164 1.2200851.3353806 2.6890488 1.4002075 3.2785645.7809525.438921 1.8457108.2688522 2.4150391-.4921875 1.3440018 2.5083504 4.5257034 1.6493187 4.9360352-.4023438.1818619-.9332752-.2036591-1.8098373-.5668945-2.7734375-.3740234-1.0058594-.1113281-1.8466797.1928711-2.8193359.7848206-2.5040874.6914978-4.9819202.0146484-7.2392577zm-19.8198242 8.3398437c-1.1199226-2.0505409-.4041138-4.7447872.0647583-7.189209 1.2194595.5307045 2.5292091.1518211 3.5709839-.7131348 1.0248489 1.6744232 3.0730629 2.1288605 4.581543.7431641.1613274 1.1576939.8585052 2.2982502 2.09021 2.6147461.2676048.732687.6784973 1.1747456.8302002 1.7270508.0771484.3037109.0478516.734375-.2900391.9521484-.2362862.1533241-.2270851.5004787.0166016.640625.3469238.1984863.4711304 1.7438965.519043 2.4824219l-.0263672.0175781c-4.9785615 3.2302151-9.6419869 1.8646813-11.3569337-1.2753906zm19.4511719-2.7021484c-.2620773 1.559742-1.2024841 2.9068604-.543457 4.6777344.3258057.8649502.6751251 1.6569481.5356445 2.3710938-.1892014.943821-1.3131905 1.5345116-2.2294922 1.2900391-.7758789-.1982422-1.4135742-.9492188-1.5644531-1.8359375.0989227-1.0765209-.7836914-.9177494-.7836914-.4306641 0 .2506809.0184326.3137112.03125.4150391-.0644188.9206619-1.0137177 1.3319321-1.7045898.9462891-1.5669746-.8673286-.6439018-4.7721977-1.6074219-6.2617188.8486137-1.0434208-.08284-2.2482395-.4423828-2.9465332.6713867-.0546875 1.328125-.3581543 1.8041992-.9128418.3215065-.3750916-.2434998-.8656902-.5693359-.4882813-.6191406.7226563-1.6538086.8876953-2.409668.3837891-.7768555-.5166016-1.2045898-1.7216797-.9731445-2.7431641.0974312-.4305048-.5055771-.6457157-.7011719-.25-.9855232 1.9777088-3.3710365 1.7926311-4.2036133-.1669922-.1006126-.2374477-.4150391-.3118019-.6098633-.1191406-1.4720993 1.4675131-3.150219 1.3249989-3.9829102.2177734-.4941406-.65625-.6044922-1.6396484-.262207-2.3388672.3032722-.6199875 1.0683403-1.0076008 1.6416016-.6552734.3024368.1887083.6892815-.1208143.5314941-.4711914 5.414772-6.116004 15.3154106-3.9307742 17.6936035 3.8979492.5278321 1.7597656.6489258 3.6347656.3496094 5.4208984z"/><path d="m25.5099487 15.059454c-.7197266-.0695801-1.473938 1.2773438-1.6759033 3.0185547-.203064 1.7509766.2335205 3.1972656.9661865 3.220459.7216797.0227051 1.4539185-1.3481445 1.6442261-3.0529785.189209-1.6950684-.2254028-3.1171876-.9345093-3.1860352z"/><path d="m37.3278198 23.5687313c1.7282715 1.7856445 3.7279663 3.3071289 5.9533081 4.5151367.027771.0151367.0577393.0146484.086853.0222168-.1917152.7648544-.9634018 6.2112064-1.0899658 7.1003399-.5522118 3.7643623-1.0966949 5.9652519-.0065918 7.6994629 1.0074463 1.6152344 3.1613159 2.2568359 5.1637573 2.4902344 3.0733948.3604088 9.8299751.2498474 10.6715698-2.7167969.3095093-1.1064453-.2756958-2.2302246-.7669067-3.2792969-3.2203941-6.8921738-.7979546-10.3803654-2.8492432-12.0061016-1.4452019-1.1623363-3.1701431-.035574-6.8608398-1.3823242-2.152874-.7864475-3.3808632-.116869-3.9931641 1.2683105.0639038.0075684.1269531.0256348.1821289.0666504 2.453125 1.8671875 5.4985352 3.0058594 8.574707 3.2050781.206543.0136719.3632813.1914063.3496094.3984375-.0126953.1982422-.1777344.3505859-.3735352.3505859-.0083008 0-.0166016 0-.0249023-.0009766-3.1333618-.2033691-6.2307129-1.3425293-8.762207-3.203125.3397446-.1210384.3166466-.5299778.0571289-.6708984-2.0884399-1.1342773-3.9660645-2.5561523-5.6035767-4.2138672.1806641-.2717285.1846313-.6882324.0910645-1.2224121.4476318.0078125.8855591.0332031 1.3096924.0827637.8769531 1.8510742 2.1815796 3.5065918 3.7750854 4.7900391.3875809.3111572.8562317-.2732258.4707031-.5839844-1.3688965-1.1025391-2.4953003-2.5043945-3.3151245-4.0617676.8866959.1729374.9853096.2531738 1.1129761.2531738.1279297 0 .25-.0654297.3193359-.1787109.7880859-1.2792969.8408203-2.8867188.1342773-4.0957031-.2910347-.500658-1.1283455.2439899-4.4849854-.6884766.5950317-.9574318.3101616-2.1192894-.3929443-2.5234375-.9855232-.5731182-2.2846794.4164276-2.604126 1.3574219-2.5579224-1.2995605-4.7731934-3.2597656-6.2664795-5.5791016-.0452271-.0700684-.1119385-.1137695-.1842651-.1408691-.897974-1.5158796-2.2436256-1.9209547-3.5828247-.9060059-3.6366882 2.7567739-4.8956242 13.6596928-1.9414063 16.8984375.8705654.9542904 2.0434742 1.1019115 3.2196655.1237793.3854389-.1985874 3.4878445-3.3257732 8.9366455-4.4152832.3132324.3427734.7165527.6311035 1.1986694.8422852l.1503906-.34375-.1274414.3535156c.4458736.1966477.9842075.4153138 1.4729617.3950196zm9.1334839 14.4750958c.9643555 1.5703125 2.9345703 2.5322266 4.8681641 2.4287109.2021484-.0253906.3842773.1435547.3969727.3515625.012207.2070313-.1455078.3847656-.3520508.3964844-2.1027184.1384506-4.4038696-.9153709-5.5517578-2.7841797-.2595597-.4232445.3794975-.815197.6386718-.3925781zm-9.78125-22.4121075c.0004883.0009766.0004883.0009766.0009766.0009766.4479294.2585716.5079308 1.3338776-.1474609 1.8037109-.5031929.3638992-1.3640251.1420956-1.4121704-.5302734-.0004272-.0158691-.0048218-.0307617-.0072021-.0461426-.0020752-.1936035.076355-.407959.2221069-.6062012.2954406-.4035301.9086799-.8699598 1.3437499-.6220703zm-2.2745972 1.527832c.2065163 1.0133495 1.4224319 1.5389233 2.4266357.9555664 1.5266724.4697266 3.0636597.6994629 4.5574341.6523438.4194336.8710938.3837891 1.9580078-.0922852 2.8876953-1.036377-.270752-2.1551514-.4033203-3.3395386-.4179688-.0125961-.0469017.045639.1695614-.1228638-.4570313-1.0596695-3.8029232-4.901001-1.7869091-3.6434937.8730469-2.4100952.5229492-4.7750854 1.5332031-6.876709 2.9394531.8383179-1.6000977 1.4771729-3.7583008 1.7365112-6.1630859.2255249-2.0905762.1324463-4.0046387-.2105713-5.5471191 1.5101931 1.7634277 3.4279178 3.2424317 5.5648806 4.2770996zm-10.267395 9.4926758c-.3935547.0078125-.7670898-.171875-1.1069336-.5439453-2.6470966-2.9025745-1.4435978-13.3082724 1.840332-15.7958984.4199219-.3183594.8276367-.4462891 1.2075195-.390625 1.4897461.2314453 2.7392578 3.671875 2.2260742 8.4277344-.4799804 4.4521484-2.3881835 8.2539062-4.1669921 8.3027343zm11.6118164-7.2216797c.75494 0 1.1600838.8240051 1.3623047 1.5507813.0207787.1000214.4743233 1.5395699.3037109 1.8173828-.0014648.0019531-.1645508.1699219-1.2592773-.3115234l-.0234375-.0107422c-.0004883 0-.0004883 0-.0004883 0-2.0790443-.9089013-1.6371536-3.0458985-.3828125-3.0458985z"/><path d="m41.5516357 68.7459793c1.1469116 0 1.6025238-1.0389252 1.1252441-2.0041504l4.0656738-9.0739784c.2032547-.4558525-.4839935-.7562065-.6845703-.3066406l-3.9194946 8.7478065c-.8592644-.6371155-2.6736259-.7749481-3.3881226-.4616699-.8905869.390419-1.0943031 1.4193192-.3339844 2.0976563.5992357.532402 2.4626581 1.0009765 3.135254 1.0009765zm-2.5004882-2.4111328c.276741-.1216812.6058197-.0965881.7724609-.0947266 1.4516602.0644531 2.1333008.3896484 2.2788086 1.0878906.1308899.6244507-.335968.7367249-.9614258.625-.6870575-.1236725-2.5133171-.5206833-2.4423828-1.2158203.0161133-.1552734.1577148-.3173828.3525391-.4023437z"/><path d="m18.2733154 10.9315243c-.5336914-1.7363281-1.4121094-3.4052739-2.5405273-4.8251958-.2110634-.2638288-.6221371-.1366034-.6650391.1835938-.1630859 1.2089844-.0908203 2.4472661.2075195 3.6289067-2.7761669-1.5680656-2.8506451-2.7195745-3.4238281-2.3925786-.1508789.0869141-.222168.2646484-.1733398.4316406.5117188 1.7333989 1.2592773 3.3798833 2.2260742 4.9033208-1.2470703.0449219-2.5229492-.2285156-3.6430664-.7734375-.3743572-.1866236-.7284384.3016844-.4296875.6015625 2.4470625 2.4579525 2.9537287 2.9142027 2.96875 3.0205078.0176792.1262789-.5068731.5730972-2.8457031 3.0878906-.2700148.2866821.0300303.7422047.3964844.6113281l3.7919922-1.3271484c.4699583-.1644859.2170553-.8740501-.2480469-.7070313l-2.3369141.8173828c2.6786861-2.836256 2.6582279-2.1626587-.0112305-4.8427734 1 .2539063 2.0488281.328125 3.0644531.2128906.1303711-.015625.2436523-.0976563.2983398-.2167969.2236776-.487298-.7531776-.8560104-2.03125-4.1835938.8657227.7304688 1.8208008 1.3466797 2.8525391 1.8388672.3079128.1452827.625761-.1558437.5146484-.4648438-.361328-1.0117186-.5336913-2.0898436-.5107421-3.1630863.7890625 1.157227 1.4121094 2.4472661 1.8217773 3.7792974.1467057.4779787.8622704.2517958.7167969-.2207031z"/><path d="m17.3470459 16.7196102c.1006947 0 1.9097729-.0569096 1.809082-.0576172.4451008-.0146961.5302124-.6863966-.0244141-.75l-1.7963867.0576172c-.2070313.0068359-.3696289.1796875-.3632813.3867188.0063478.203125.1728517.3632812.3750001.3632812z"/><path d="m19.6009521 14.1326962-.9331055-.4589844c-.4489079-.2197781-.7747707.4551659-.3320313.671875.9275227.4433708.9450436.4990234 1.0991211.4990234.138672 0 .5202047-.5371437.1660157-.711914z"/><path d="m60.6243896 11.8826962c1.0830078 1.9140625 1.5478516 4.1708984 1.3095703 6.3564453-.0552254.4958611.6927452.5708447.7451172.0820313.2558594-2.3408203-.2421875-4.7587891-1.4023438-6.8076172-.2434195-.4330083-.8971518-.0619097-.6523437.3691406z"/><path d="m47.7669678 14.840704c-.7070313-.1943359-1.4916992.2060547-1.7509766.8925781-.1744881.4637375.526741.7290859.7021484.2636719.1186523-.3164063.5234375-.5205078.8505859-.4335938.3256836.0898438.5698242.4736328.5112305.8066406-.0852203.4879646.6528702.6184292.7392578.1289063.1259766-.7216797-.3466796-1.4658203-1.052246-1.6582031z"/><path d="m50.4100342 16.6366024c-.4201355.2614174-.0289536.8977451.3955078.6367188.6023521-.3736401 1.3506241.2325916 1.1103516.9003906-.1673279.4680538.5383835.7198277.7060547.2539063.2133789-.59375.0200195-1.2851563-.4692383-1.6806641-.4897461-.397461-1.2080079-.444336-1.7426758-.1103516z"/><path d="m47.0063477 18.7750301c-.6700439.4851074-.5147095 1.8056641.0090332 2.3293457.3278809.328125.8861694.4423828 1.2698975.1821289 1.1222724-.7617855-.1398927-3.3363819-1.2789307-2.5114746z"/></g></svg>