<svg id="Layer_1" height="512" viewBox="0 0 512 512" width="512" xmlns="http://www.w3.org/2000/svg"><g><path d="m481.8 214.9c.4-4.2.6-8 .6-11.7 0-70.3-57.2-127.5-127.5-127.5-37.6 0-72.5 16.2-96.8 44.7-13.1-5.3-32.7-11.4-54.6-7-5.5-38.9-38.4-68.1-78.6-68.1-43.9 0-79.5 35.7-79.5 79.6 0 38.3 27.7 70.9 64.5 78-.1.4-.2.9-.3 1.3h-11.6c-34.9 0-63.3 28.4-63.3 63.3 0 34 27 61.9 60.7 63.2 14.8 24.8 41.3 40 70.4 40 13.9 0 27.4-3.5 39.5-10.1 18.3 17.2 41.8 26.5 67.1 26.5 25.2 0 48.8-9.4 67.1-26.5 12.1 6.7 25.6 10.1 39.5 10.1 29.1 0 55.6-15.2 70.4-40 33.7-1.3 60.7-29.2 60.7-63.2-.1-21.2-10.8-40.9-28.3-52.6zm-420.1-90c0-34.8 28.3-63.2 63.2-63.2 32.2 0 58.6 23.7 62.6 54.9-34.3 9.8-62.2 36.5-73.6 70.4-29.7-5.2-52.2-31.3-52.2-62.1zm385 189.4h-7.3s-14.8 40-60.5 40c-21.7 0-42-14.8-42-14.8s-22.7 31.1-64.5 31.1c-41.6 0-64.5-31.1-64.5-31.1s-18.1 14.8-42 14.8c-44.6 0-60.5-40-60.5-40h-7.4c-25.8 0-46.9-21-46.9-46.9 0-25.8 21-46.9 46.9-46.9h26.3l.7-7.5c4.3-48.1 44-84.3 92.3-84.3 28.3 0 45.7 11.9 45.7 11.9s30.7-48.6 92-48.6 111.1 49.8 111.1 111.1c0 11.8-1.9 20.4-1.9 20.4s29.4 10.5 29.4 43.8c0 26-21 47-46.9 47z"/><path d="m346.1 108.5v16.4c49.7 0 90.1 40.4 90.1 90.1h16.4c0-58.7-47.7-106.5-106.5-106.5z"/><path d="m116.7 2h16.4v31.7h-16.4z"/><path d="m76.3 23.3h19.8v16.4h-19.8z" transform="matrix(.383 .924 -.924 .383 82.324 -60.21)"/><path d="m33.4 41h31.7v16.4h-31.7z" transform="matrix(.707 .707 -.707 .707 49.218 -20.387)"/><path d="m43.8 82.4-18.3-7.5-6.3 15.1 18.3 7.6z"/><path d="m155.4 21.6h16.4v19.8h-16.4z" transform="matrix(.924 .383 -.383 .924 24.52 -60.226)"/><path d="m2 116.7h31.7v16.4h-31.7z"/><path d="m21.6 155.4h19.8v16.4h-19.8z" transform="matrix(.924 -.383 .383 .924 -60.198 24.505)"/><path d="m208.4 78h19.8v16.4h-19.8z" transform="matrix(-.924 .383 -.383 -.924 452.99 82.329)"/><path d="m192.4 33.4h16.4v31.7h-16.4z" transform="matrix(.707 .707 -.707 .707 93.557 -127.433)"/><path d="m41 184.7h16.4v31.7h-16.4z" transform="matrix(.707 .707 -.707 .707 156.256 23.952)"/><path d="m251.9 408.6s-41 39.9-41 60.4c0 22.6 18.4 41 41 41s41-18.4 41-41c0-20.6-41-60.4-41-60.4zm0 85c-13.6 0-24.6-11-24.6-24.6 0-8.6 13-25.4 24.6-37.6 11.6 12.1 24.6 29 24.6 37.6 0 13.6-11 24.6-24.6 24.6z"/><path d="m424 384s-41 39.9-41 60.4c0 22.6 18.4 41 41 41s41-18.4 41-41c-.1-20.5-41-60.4-41-60.4zm0 85c-13.6 0-24.6-11-24.6-24.6 0-8.6 13-25.4 24.6-37.6 11.6 12.1 24.6 29 24.6 37.6-.1 13.6-11.1 24.6-24.6 24.6z"/><path d="m88 384s-41 39.9-41 60.4c0 22.6 18.4 41 41 41s41-18.4 41-41c0-20.5-41-60.4-41-60.4zm0 85c-13.6 0-24.6-11-24.6-24.6 0-8.6 13-25.4 24.6-37.6 11.6 12.1 24.6 29 24.6 37.6 0 13.6-11 24.6-24.6 24.6z"/></g></svg>