<svg id="Layer_1" enable-background="new 0 0 75 75" viewBox="0 0 75 75" xmlns="http://www.w3.org/2000/svg"><g id="Art_Equipment" fill="rgb(0,0,0)"><path d="m60.389946 16.7541084-3.8398438-2.5302744c-.1777611-.1164646-.4156227-.0633831-.5263672.1191406l-5.2637939 8.6931162-.3109131-4.265625c.0362549-.2556152.0570068-.5212402.0534668-.8049316 1.0712318-.5112667 1.9807549-1.9652634 1.7419434-3.5454111-.2743988-1.83356-2.1308289-3.3163033-2.3408203-4.9599609-.0263672-.2056541-.2660828-.3864899-.5264893-.2739258-.0985107.0256348-.1918945.0732422-.2498779.1518555-1.3578072 1.8639355-2.7429886 3.790288-3.0058594 6.1669922-.1210365 1.1513968.1659966 2.2264433 1.203125 2.5854502-.125145.4760303-.1223488.9111958.1748047 1.3366699v2.4519043c-1.1730843-.3994389-1.8926582-1.1065598-2.8544922-.6396484-.3964844.1923828-.6923828.5517578-.8105469.9863281l-2.4525146 8.9848633c-2.8609619.7509766-5.8963623.8110352-8.7828369.168457-.4896812-.1047707-.64464.6256256-.1640625.7324219 2.8108521.6252937 5.7600136.6291313 8.7224121-.0786133l-1.5427246 5.6518555c-.1728516.6308594.2158203 1.3261719.9033203 1.6181641 7.1507416 2.991497 6.8810959 3.0371094 7.4716797 3.0371094.4775391 0 .9169922-.2177734 1.1474609-.6074219l8.1445313-13.7890625c.4783669-.8115902.1460152-1.841877-.7431641-2.2197266l-.9874268-.4199219 4.9522705-8.0400391c.1064453-.171875.0566407-.397461-.1132812-.5097657zm-9.2802735-.4589843c-.5616951.9785061-1.1951103 1.0598259-1.2952881 1.1137695-.0187912.0105686-.1057053.0869522-.1115723.0942383-.0077705.0098534-.0585213.1013393-.0666504.1291504-.0026855.0090332-.0010986.019043-.0030518.0283203-.0006104.0024414-.0003662.005127-.0008545.0075684-.4825439.137207-1.0227051.0864258-1.4552002-.1689453-.0856018-.0509529-.2758675-.0865269-.3740234-.1035156-.0155029.0004883-.0269775.012207-.0421143.0148926-.797863-.1341858-.9183731-1.0192223-.8338623-1.819581.2127304-1.932148 1.2864647-3.61026 2.4007568-5.1628418.4910738 1.2972401 3.078808 3.6271323 1.7818605 5.8669442zm-2.9794921 2.7636718c-.182148-.195158-.1482658-.5250645-.0800781-.7832031.5253906.2324219 1.1328125.2832031 1.6923828.1494141-.0128784.1617489-.07547.6635761-.1640625.7880859-.1324348.1866093-.5260086.1205807-.75.0878906-.3007813-.0458984-.5615235-.0957031-.6982422-.2421875zm.1191406.8867188c.2664795.0740547.8186913.1773415 1.1650391.1328125.1346436-.0166016.2547607-.064209.3693848-.1176758l.2174072 2.9824219-1.7518311-.7451172zm8.3857422 7.6171875-8.1445313 13.7890625c-.1367188.2324219-.5195313.3056641-.8505859.1660156l-6.8291016-2.9052734s0 0 0-.0009766c-.3320313-.140625-.5449219-.4677734-.4736328-.7294922 4.4491501-15.9378948 4.0373611-15.6776066 4.6347656-15.9677734.605648-.2918148.4685478.0052261 11.2734375 4.4990234.4684258.1990299.6402855.7249432.3896485 1.1494141zm-1.7818604-2.5556641-3.5073242-1.4919434 5.1173096-8.4504404 3.2109375 2.1162119z"/><path d="m49.343071 17.1193428c.625-.4550781 1.0751953-1.1181641 1.2685547-1.8671885.1241188-.4824257-.6024857-.6650839-.7265625-.1875-.1474609.5722656-.5058594 1.1005869-.9833984 1.4492197-.4013673.2916909.042427.8988343.4414062.6054688z"/><path d="m28.8676052 18.4543037c.4282227.177002.9189453-.0266113 1.0959473-.454834s-.0266113-.9187012-.454834-1.0959473c-.4282227-.177002-.9188232.0266113-1.0958252.454834-.177124.4282227.0264893.9189454.4547119 1.0959473z"/><path d="m22.108572 19.0175362c.4282227.177002.9189453-.0266113 1.0959473-.454834s-.0266113-.9189453-.454834-1.0959473-.9188232.0266113-1.0959473.454834c-.1770019.4282227.0266113.9189453.454834 1.0959473z"/><path d="m33.0621872 49.2460518c-.1033936-.541748-.0517578-1.1376953-.697998-.6501465-1.1632099.855957-3.1794453 1.1052246-4.652956 1.3435059-3.9889221.6149597-7.7313042.4083595-11.2318115-.4440918-.3306255 1.9146156-.5306406 4.3262596-.49121 6.1757813.0301313 1.0341263.1807795 1.5252342 1.5510244 1.9716797 2.0291748.6501465 4.2652588.8234863 6.3979492.4768066.3359375-1.7009277.6719971-3.4128418 1.0209961-5.1140137.7973404 4.343956.7349987 4.2932053 1.0211182 4.5615234.2713623.2817383.7237549.3574219 1.1502686.4008789 1.6802979.184082 3.3994141.0866699 5.0278339-.2817383.4523926-.1083984.9306641-.2492676 1.1503906-.5852051.1420898-.1950684.1679688-.4333496.1938477-.6608887.1422119-1.6035156.1292725-3.2070313-.0517578-4.8105469-.0903321-.8017577-.2197267-1.5927733-.3876954-2.3835448z"/><path d="m21.3837185 65.3161163-.1343994-6.4565392c-.0093937-.497879-.759346-.4797707-.75.015625l.130249 6.2587852c-1.4162941-.0308228-2.8745823.5174484-3.989624 1.5605469-1.2985144 1.2172165-.8062029 2.7695313 1.5722656 2.7695313 1.5582924 0 3.6521778-.9600677 3.9667969-2.4414063.1015625-.4804688.0039063-.9394531-.2744141-1.2910156-.1376953-.1743163-.3179932-.3137206-.520874-.4155273zm-3.9342041 3.3237305c-2.1656256-.4244614.7357388-2.8003006 3.1884766-2.7568359.2734375.0058594.5273438.1230469.6777344.3134766.7553214.9494018-1.3932153 2.9266433-3.866211 2.4433593z"/><path d="m27.9717312 65.5695343-.3835449-6.8828087c-.0273685-.5274734-.7749405-.4318848-.7480469.0410156l.3974609 7.1328087c-1.9208889 1.3845367.8353138 4.6025009 4.2978516 3.9257813 1.4549999-.2898178 1.8543835-1.5649261.6630878-2.6816406-1.2430057-1.1689759-3.0527191-1.7107544-4.2268085-1.5351563zm3.4182129 3.4804688c-2.7123623.5347977-4.9986439-1.912117-3.6092529-2.6435547.7101612-.3227997 2.0750942.0828094 2.7596436.4365234 1.3681773.7049179 2.3587474 1.9052048.8496093 2.2070313z"/><path d="m19.8977566 11.0216856c-1.1592407.2387877-1.9767609 1.2997885-1.9052734 2.4824219.0117188.1992188.1767578.3525391.3740234.3525391.0068359 0 .0146484 0 .0224609-.0009766.2060547-.0117188.3642578-.1894531.3515625-.3964844-.0470581-.8122807.513607-1.5398321 1.3076172-1.703125.203125-.0419922.3339844-.2402344.2919922-.4423828-.0410156-.2021484-.2382813-.3359375-.4423828-.2919922z"/><path d="m22.6252956 22.1955147c2.2046299 1.7048454 5.3956528 1.2016315 6.9765625-1.0615234.2830925-.4070911-.3305168-.8380928-.6152344-.4296875-1.3435745 1.9232388-4.0450001 2.336071-5.9023438.8974609-.3920802-.3052139-.8512858.2901821-.4589843.59375z"/><path d="m24.9965115 45.9198799c.5393066 0 .9765625-.4133301.9765625-.9228516 0-.5097656-.4372559-.9228516-.9765625-.9228516-.5394287 0-.9768066.4130859-.9768066.9228516-.0000001.5095215.4373778.9228516.9768066.9228516z"/><ellipse cx="19.881" cy="44.572" rx=".977" ry=".923"/><path d="m30.5682888 44.8048897c0-.5097656-.4372559-.9228516-.9768066-.9228516-.5393066 0-.9765625.4130859-.9765625.9228516s.4372559.9228516.9765625.9228516c.5395507-.0000001.9768066-.413086.9768066-.9228516z"/><path d="m37.9036179 40.9728584c-1.1877556-.0687561-2.5169411.351738-2.8438721.5812988-.3974609-.111084-.7873535-.2441406-1.1767578-.3786621-.0662842-.442627-.1298828-.8864746-.2098389-1.3217773-.0905037-.4826775-.8276901-.3550224-.7382813.1367188.0551758.2954102.0959473.5986328.1428223.8984375-4.3814716-1.7180176-8.1500263-4.8930664-10.5402851-8.9716797-.1044922-.1796875-.3349609-.2392578-.5126953-.1337891-.1787109.1044922-.2392578.3339844-.1337891.5126953 2.5493164 4.3503418 6.6104736 7.7133789 11.3232441 9.4511719.5042915 3.5423431-.0593796 5.2392883-4.0722675 5.9970703-2.9921875.5576172-11.0556641 1.1162109-12.40625-2.9550781-.2607422-.7978516-.1425781-1.6757813.0244141-2.6572266.7792969-4.3974609 1.9423828-8.7392578 3.4570313-12.9072266.5888672-1.6318359 1.1816406-2.4492188 2.5888672-2.0615234 1.9696045.5279446 4.04245.6341953 6.2207031.7919922 1.0930119.0886993 1.4612331.2537041 1.8144531 1.6875.5722656 2.3193359 1.0761719 4.6269531 1.4980488 6.859375.0913048.5021896.8284111.3401604.7363281-.1386719-.4238281-2.2460938-.9306641-4.5683594-1.5058613-6.9003906-.4304924-1.7429123-1.0462227-2.1396751-2.4902344-2.2558594-2.1978149-.1589031-4.1864128-.2600555-6.078125-.7685547-2.3417969-.6396484-3.0898438 1.4248047-3.4892578 2.53125-1.5292969 4.2070313-2.7041016 8.5917969-3.4912109 13.0332031-.1845694 1.0839844-.312499 2.0585938.0029297 3.0205078 1.4162483 4.2666664 8.9074612 4.2715034 13.2558594 3.4570313 4.2091427-.7941208 5.2457256-2.7858963 4.729372-6.4775391.2889404.09375.5744629.1972656.8676758.2788086.0869141.1911621.2349854.3688965.3668213.519043.8485947 1.0233688 2.1094093 1.5800781 3.2460938 1.5800781 2.5533255.0000001 2.4508666-3.2342414-.5859376-3.4082031zm1.5341796 2.2910157c-.4233551.6233978-2.5017967.5562019-3.8095703-1.1689453 1.0308762-.3838387 2.786171-.6549873 3.5888672.0947266.28125.2617187.4365235.7558593.2207031 1.0742187z"/><path d="m45.0051804 27.5880928c-.0234489.0649261-.7466393 2.066473-.8035889 2.223877-.1335449.3696289-.0515137.7788086.1992188 1.0812988 1.3587646 1.640625 3.484375 2.6176758 5.5949707 2.4672852.407959-.0290527.7730713-.2751465.9389648-.6489258.2468262-.5559082.4875488-1.1079102.7298584-1.6606445.2875977-.65625-.128418-1.4135742-.8394775-1.5004883-1.0595474-.1302738-2.0846939-.5033989-3.0070801-1.0581055-1.5948944-.958992-1.8769226-1.7927856-2.3048096-1.7475586-.3455811.0480957-.4100342.5720215-.5080566.8432617z"/><path d="m40.4963913 46.9005928c.6533203 2.1855469.6054688 4.578125-.1337891 6.7382813-.1617851.4689369.5504875.7118034.7089844.2421875.7900391-2.3056641.8408203-4.8613281.1435547-7.1953125-.1411247-.475113-.8615608-.2604142-.71875.2148437z"/><path d="m43.9563522 48.2209053c-.2265472-.4437523-.892807-.1008492-.6679688.3417969l1.6210938 3.1787109c.2267494.4434967.8919449.1011086.6679688-.3398438z"/><path d="m49.4417038 48.3468819c-1.5224609-.4726563-2.9355469-1.3037109-4.0878906-2.4033203-.3573265-.3409805-.8776817.199234-.5175781.5429688 1.7528305 1.6724625 4.1257324 2.59375 4.4941406 2.59375.4289856-.0000001.5195617-.6060792.1113281-.7333985z"/><path d="m55.8254929 18.1203194c1.2891808.8410339 1.3238106.9511719 1.5302734.9511719.3683891 0 .5162811-.4787483.2089844-.6865234l-1.3212891-.8876953c-.4113922-.2758199-.83004.3444289-.4179687.6230468z"/><path d="m56.8909225 20.2043037-1.8623047-1.2353516c-.4146004-.2748203-.8267784.3521881-.4140625.625 1.9255638 1.2507687 1.866642 1.2978516 2.0693359 1.2978516.3678666 0 .517418-.4823303.2070313-.6875z"/><path d="m55.1096725 21.5861397-1.1269531-.7148438c-.4154701-.2675896-.8230896.3672009-.4023438.6328125 1.1393394.7000446 1.1342468.7734375 1.328125.7734375.3738328 0 .5172044-.4919014.2011719-.6914062z"/><path d="m17.801199 21.3288155c2.4146118 6.3408718 11.6092167 6.642355 14.812624.4489746.0001221.0007324-.0003662.001709-.0002441.0026855.0195313.1933594.1826172.3369141.3730469.3369141 1.6696434 0 2.781517-2.0238934 1.4963379-3.0466309 2.420475-1.9148159 2.2018089-5.3712568-.1584473-7.0568857.7376556-.5622368.9986153-1.6581573.6982422-2.3935547-.180954-.4653063-.8790894-.1857786-.6972656.2734375.1324692.3733234.0612717.8726082-.1923828 1.2431641-.4464722.6548223-.9276466.2891607-1 .7753906-.0244141.1640625.0625.3242188.2128906.3945313 1.3085938.609375 2.1933594 2.1015625 2.1035156 3.5449219-.0826416 1.2092295-.8172607 2.3232431-1.8594971 2.927247-.0380859.0024414-.0750732-.0107422-.1131592-.0043945-.0540771.0083008-.1026611.0288086-.1456299.0566406-.0618973-.4090405-.3365479-1.3708687-.5737305-1.875-.122654-.2612209-.5231819-.9283123-.5690918-.9943857-.9862518-1.41539-3.6962261-3.5163269-5.1119404-2.5290527-.6772175.4828501-.59795 1.4107943-1.7919922 2.2138672.2128906-.8828125.2275391-1.8251953.0371094-2.7275391-.1016769-.4702625-.7052689-.3447714-.7402344.0439453-.0722656.7910156-.7578125 1.3779297-1.3720703 1.6621094-1.6442413.7393923-4.1612415.3415422-5.4647217 2.0410166-.5402966.7013874-.5186787 1.2739105-.5439453 1.3759766-.0456543-.0517578-.1025391-.0908203-.1696777-.1103516-1.1720314-1.0066853-2.6337214-3.2528992-1.3450918-3.9892588.408761-.2351274.5799017.0937529.8388662-.1757813.0966797-.1005859.1289063-.2451172.0859375-.3769531-1.3523951-4.0953588 2.3198586-6.6525507 4.4130859-4.9042969.1963882.1653795.4962311.0853701.5888672-.1513672.3671875-.9345703 1.0947266-1.7050781 1.9960938-2.1152344 2.149065-.9692769 4.3407173.225585 4.1845703 1.3769531-.0397987.2827816.242094.5041695.5068359.4003906 1.4228516-.5537109 3.0859375-.4697266 4.4433613.2246094.4406166.2261992.7837296-.4423013.3417969-.6679688-1.3945332-.7119141-3.0654316-.859375-4.5693378-.4208984-.5127792-2.4429107-5.5589962-3.085197-7.4072266.5009766-2.7585239-1.5978341-6.4005518 1.2659473-5.3544912 5.4912109-.6001053.1208-1.0968037.6343527-1.2548828 1.2324219-.3255482 1.3104134.7712412 2.9232054 1.7425528 3.8625498-1.383176 1.0636635-.4222203 3.2844601 1.5593261 3.1096192zm15.1473407.0405273c-.0594482.0058594-.1119385.0283203-.1593018.0581055.2497559-.5478516.4316406-1.1196289.546875-1.7041016.1525879-.0578613.3046875-.1166992.4489746-.1916504.84861.2223263.6601487 1.6835232-.8365478 1.8376465zm-14.3369159-4.5410156c1.5824013-1.393012 4.4334621-.4975014 6.0888672-2.3955088-.0263672.6220703-.1582031 1.2363281-.3935547 1.8007822-.1246967.2988415.1662121.6014385.4677734.4980469 2.0288544-.6932144 2.2847977-2.3649826 2.7333984-2.6865244.734375-.5058594 2.6142578.7490234 3.4199219 1.5673828 1.0592079 1.0576506 1.6238041 2.5282393 1.7144794 3.7956553-.1845703 1.0871582-.6391602 2.1381836-1.3189716 3.0441895-1.3652344 1.8310547-3.6259766 3.0029297-5.8984375 3.0595703-2.1806641.0302734-4.4052734-.8925781-5.7900391-2.453125-.7666016-.8691406-1.3681641-2.2871094-1.6464844-3.8564453.0058594-.0048828.0107422-.0107422.0166016-.015625.1201172-.1152344.1484375-.296875.0712891-.4443359-.3408203-.6474611.0205078-1.4677736.5351563-1.9140626zm-1.4127198 2.1699219c.081665.550293.2023926 1.0859375.3551025 1.597168-1.2437134-.0352249-1.6026459-1.4450741-.7316895-1.8728027.1240236.0954589.2476808.1909179.376587.2756347z"/></g></svg>