<svg id="Layer_1" enable-background="new 0 0 75 75" viewBox="0 0 75 75" xmlns="http://www.w3.org/2000/svg"><g id="Art_Student" fill="rgb(0,0,0)"><path d="m45.4557114 38.3681946c-1.7085762-.842205-3.3214874.8764458-5.5899658.9899902-3.0882874.0792618-6.3236542-2.1902618-8.0668964-2.0576172.3441181-.4182129.6572285-.8701172.9343891-1.3527832 4.5639038-3.3229485 5.0809135-8.3542747 2.6661987-11.2680664-1.4545898-1.7568359-3.9726582-2.4140625-5.9335957-1.6152344-.4916992-1.6445313-2.3085938-2.6435547-3.9536133-2.6796875-1.8120117-.0234375-3.5126953.8076172-4.9658203 1.6044922-1.1201172.6162109-2.284668 1.3027344-3.1274414 2.3330078-.769043.9404297-1.5454092 2.7851563-.862793 3.9394531.2713623.4589844.7610474.6333008 1.2907715.6787109-.6948509 3.1770935.056675 7.1989479 2.3289185 9.4711914.0130615.1879883.159729.3417969.3519897.3500977.0096436.0002441.0192871.0002441.0289307.0004883 2.001667 1.6932945 5.0310459 2.1873474 7.6121826 1.1967773.2112427-.0805664.4178467-.1733398.6221924-.2712402-.192688.2683105-.3829956.5344238-.5754395.7805176-.9129066 1.0953789-2.0700455 1.4400063-2.3399658 3.2399902-.1666241 1.1289825.0772324 2.42939.7926025 3.5507813-1.4550438.7810822-3.0020676 1.2614555-4.7750854 1.3903809-.2914429-.5585938-.8060913-1.0366211-1.4435425-1.3447266l-3.6712646-5.1755371c.7934513-.7747383.9506264-2.1792107-.4542236-3.7727051-2.0649042-2.3267136-5.0284214-3.3364182-7.8984365-4.3027344-.1435547-.046875-.3061523-.0039063-.4057617.1132813-.0991216.1162109-.117188.2822266-.0449224.4179688 1.0751538 2.0221977.1232858 4.8290863 1.2495122 7.0585938.9302874 1.8524857 3.0904341 2.7483444 4.5710449 2.3884277l2.0648804 3.4282227c-.3934937.1931152-.7587891.4714355-.9904175.8903809-.5009766.9052734-.1459961 1.9404297.3120117 2.9248047.3427734.7353516.7094727 1.4238281 1.4184561 1.7646484.7956104.3830719 1.6900845.1469269 2.4946289-.2248535l1.2514648 2.0803223c.3513012.5664902.9554977.8798828 1.5874023.8798828.8026199 0 1.225811-.4732361 1.6298828-.6953125.904068-.6033783 1.1256428-1.7926979.5273438-2.6386719l-1.9362183-2.7265625c.00177-.1115723-.0199585-.2233887-.0361938-.3356934 1.8937092-.1625977 3.4618168-.6825638 4.9440918-1.4807129l-.3497925-.5751953c1.7210083 2.6186523 5.1929932 2.3413086 7.6525288 2.7250977 3.1300049.4799805 6.3200073.8198242 9.4799805.6398926.7199707-.0500488 1.4799805-.130127 2.0999756-.6000977.6900024-.5197754 1.1300049-1.4599609 1.3400269-2.4399414.2814713-1.379097.3233337-4.9816017-.0599976-6.5998535-.2800294-1.1601564-.8900148-2.2402345-1.7700196-2.6801759zm-35.5611582 2.9384765c-.9067039-1.7939453-.2717857-4.2210274-.925293-6.2773438 2.4745598.8441849 5.0166025 1.8239899 6.793457 3.8242188.8437052.9572449 1.3142347 2.1531944.2910147 2.9111328-.1691923.1246338-.1903496.3703156-.0834951.5205078l.0671377.0947266c-.3457632.6101074-.9073477 1.0822754-1.5678701 1.3173828l-.182373-.3027344c-.1064453-.177002-.3361206-.234375-.5120239-.1289063-.022522.0070801-.046814.0092773-.0675659.0205078-.995762.3269159-2.9832155-.3264617-3.8129884-1.9794921zm5.5496216 4.0087891c.5251245.1186714.9089365-.2253685 1.2877798-.5898438.1951904-.1877441.3896484-.3920898.5291138-.6206055l2.0247192 2.8544922c-.8685665-.1211624-1.8584137.0059624-2.7072754.2392578zm.4176635 5.6435547c-.3740234-.8046875-.6738281-1.6328125-.3354492-2.2451172.4514923-.8177986 2.2386885-1.0546875 3.0634756-1.0546875 2.0878143 0 3.6554699 1.7036133 2.3349609 3.1298828-.4628906.5-1.1035156.8251953-1.7231445 1.140625-1.9841823 1.0102234-2.5917568.6338158-3.3398428-.9707031zm7.794921 2.7373047c-.1323757.7112427-.7897549.899601-1.0839844 1.1367188-.2705078.1738281-.5878906.2304688-.8911133.1640625-.7622871-.1708145-.7833347-.8085976-1.9129028-2.5170898.8877544-.456707 1.6997643-.9451256 2.1390381-1.8188477 1.3217449 2.0113258 1.8886203 2.2759322 1.7489624 3.0351562zm-6.4550782-25.8154297c-.4716797-.7988281.1606445-2.3037109.7978516-3.0839844.7578125-.9257813 1.8520508-1.5693359 2.9077148-2.1494141 1.3676758-.7509766 2.980957-1.5683594 4.5883789-1.5126953 1.4541016.0322266 3.1411133 1.0039063 3.3300781 2.5185547.0319233.2595043.320734.4120255.5532227.28125 1.703125-.9404297 4.095705-.4033203 5.4433613 1.2236328 2.1300964 2.5715599 1.697834 7.1098557-2.5322876 10.1867676-.0281372.0151367-.053772.0322266-.0775146.0544434-.0852661-.3422852-.2509785-.6730957-.4873676-.9599609-.4382229-.5308952-.9897423-.5376244-1.3037109-.7929688-.2088585-.1701012-.3173923-.671093-.6982422-1.0039063-.0063477-.0058594-.5913086-.3896484-1.0976563-.5371094.1708984-1.7636719-.6708984-3.6035156-2.144043-4.5976563-.1645508-.1113281-.3842773-.0761719-.5053711.0800781-.8662109 1.1064453-2.4228516 1.6298828-3.7832031 1.3398438.4396076-.5331402.7990761-1.2964516.6054688-1.9521484-.0004883-.0009766-.0009766-.0019531-.0009766-.0029297-.1131077-.3813915-.6658154-.3434868-.7294922.046875-.3642578.3251953-2.3120117.9755859-2.7133789 1.0478516-.5896626.1036187-1.8476982.3275833-2.1528321-.1865234zm2.1350708 8.027832c1.1260986.5717773 2.4767456.6677246 3.6627808.2368164-.2468224 1.0621567-1.1416035 1.7919655-2.1547852 1.8544922-.0680542-.0637207-.1456299-.1166992-.2104492-.1835938-.5149536-.527832-.9472656-1.1665038-1.2975464-1.9077148zm2.269104 2.6906739c1.4975338-.4767342 2.2392292-1.8088455 2.2047119-3.072998-.0039063-.1308594-.0751953-.25-.1889648-.3144531-.112793-.0644531-.2514648-.0654297-.3671875-.0029297-1.1621094.6386719-2.6503906.6171875-3.7915039-.0585938-.1334839-.0800781-.2963867-.0668945-.4141235.0205078-.2000122-.5405273-.3726807-1.1140137-.4960327-1.7456055.6865826.3108482 1.1916237-.3938599.9624634-1.0925293-.1624146-.4956055-.6286621-.7875977-1.0413818-.6523438-.0435181.0144043-.0742798.0478516-.112915.0700684-.0425415-.9777832.0408936-1.9375.2523804-2.8200684.3338013-.0314941.652832-.0852051.909668-.1315918.019043-.0029297 1.4667969-.390625 2.4272461-.8564453-.1066151.232048-.4375515.636446-.5693359.7373047-.1181641-.0185547-.2832031.0791016-.347168.21875-.0859375.1865234-.0053711.4072266.1806641.4951172.0053711.0029297.0102539.0048828.015625.0068359 1.7016602.7578125 3.8266602.2900391 5.0996094-1.0732422 1.1816406.9550781 1.7910156 2.5859375 1.4946289 4.0810547-.0615463.3084717.2652683.5563049.5493164.4013672.2348633.0634766.7490234.3222656.8554688.3964844.1487522.1299133.2083187.3070183.4047241.6362305-.081583.7565422-.7909832 1.0626259-1.3353882.8393555-.4531212-.1896782-.7474041.5028152-.2851563.6933594.8135586.3346558 1.863121.0001183 2.2489014-.9472656.3616104.1815262.6677742.2258301.8839111.4882813.2734375.3320313.4116211.7412109.3779297 1.1201172-.0089111.0996094.0333252.1879883.0949097.2626953-2.560242 3.6244582-6.9280684 4.3439673-10.0130008 2.300537zm11.6798726 4.388916c-1.6500263 1.8999023-3.7399921 3.4299316-6.0599995 4.4099121-.4651051.1862717-.7386303-.4878006-.289978-.6999512 2.2099609-.9301758 4.2099609-2.3798828 5.7799702-4.1999512.1300049-.1601563.3699951-.170166.5300293-.0400391.1499633.1398926.1699828.3698731.039978.5300294z"/><path d="m58.4419174 44.6435852c-.436779-.8526917-.7605286-1.0271378-1.277832-1.1328125.1931305-.373188.2007484-1.0018425-.1381836-1.1533203-3.0690689-1.3587799-5.9665909-5.3039894-9.8886719-4.3769531-.2168236.0511398-.3419991.2813187-.2666016.4912109.3269196.9149742.6004028 1.8474007.9291992 2.7539063.9620209 2.6517487 1.0830498 5.7572327.2368164 8.5439453-.0736351.2440453.1089554.4803314.3525391.484375 5.4904671.0857811 5.0951881.0979576 6.3554688.09375.5864258-.0039063 1.1958008-.0087891 1.7744141.046875.8290024.0792427 1.5924225-.0409622 2.1269531-.6845703.6035156-.7255859.5439453-1.7822266.3896484-2.8144531-.1074219-.7207032-.2285156-1.5371094-.59375-2.2519532zm-3.2368164 4.9521484c-2.7197304 0-2.552578-.0326729-6.315918-.0839844.4697266-1.78125.5854492-3.7021484.3339844-5.5869141-.206028-1.5474243-.4804497-2.2977028-1.5009766-5.2880859 3.3167648-.4328117 5.8522568 2.9331665 8.8286133 4.328125 0 .1539688-.0971489.3361053-.2791748.4018555-.9536133-.2524414-1.8535156-.6520996-2.6744385-1.190918-.4121132-.2747421-.8275452.3548203-.4111328.6269531 1.4398766.9458504 2.5972595 1.1796608 2.9577637 1.3046875.0169067.0058594.0262451.0229492.0441895.0263672 1.0173988.1833954 1.120842-.0575333 1.5859375.8515625.3095703.6044922.4165039 1.3242188.5195313 2.0205078.4857024 3.2417069-1.0624047 2.5898438-3.088379 2.5898438z"/><path d="m21.4027309 31.6765442c-.4127197.1352539-.6156006.6467285-.453125 1.142334.1624146.4953613.6286621.7873535 1.0413818.6520996s.6156006-.6467285.453186-1.1420898c-.1624755-.4956055-.628723-.7875977-1.0414428-.6523438z"/><path d="m57.9184799 43.452179c.9423828.2265625 1.8017578.4140625 2.6875.4140625 2.5644646 0 4.0694504-1.495121 4.1424561-4.0983887.7441406.4649277 2.3107224 1.2884979 3.1436768.9978027.3945313-.1367188.659668-.4394531.746582-.8544922.1171875-.5605469-.1191406-1.2646484-.5629883-1.6738281-1.1964645-1.1061783-3.0955963-1.7913742-4.1240234-1.5097656-.9437866.2606544-1.4203606 1.3803596-.0126953 2.4804688.0204468.0161133.0424805.0292969.0630493.0454102.0176773 1.0572853-.102993 2.189991-.9033813 2.9916992-1.2494812 1.2689857-3.3180237.8825188-5.0053711.4785156-.1982422-.0537109-.402832.0751953-.4521484.2763672-.04834.2021484.0756835.4042968.2773436.4521484zm9.6484375-4.6640625c.3451538.3181915.548317 1.1061058.0800781 1.2685547-.2236328.0761719-.5400391-.0136719-.7919922-.1015625-.8862305-.3066406-1.7119141-.7558594-2.4536133-1.3369141-1.9034003-1.4980927 1.0890046-1.7507935 3.1655274.1699219z"/><path d="m66.3458481 46.1064758c-2.3027954-.1374512-4.604126-.0410156-6.8468018.3007813-.4910545.0750046-.376133.817482.1132813.7421875 2.2147217-.3381348 4.4889526-.4316406 6.7648926-.2910156.132019 1.2423134.7080688 3.8925781 2.0593262 3.8925781.8130646 0 1.4428558-.9235725 1.440918-1.7246094-.0019531-1.1904297-.3554688-2.3691406-.9951172-3.3193359-1.0431596-1.5423432-2.4499742-1.029995-2.5364991.399414zm1.9056396 3.84375c-.6893082-.36763-1.7484436-4.4267578-.7597656-4.4267578.3225861 0 .5876083.3351822.7685547.6025391.5493164.8164063.8652344 1.8740234.8671875 2.9023438.000679.4721488-.4378891 1.1527824-.8759766.9218749z"/><path d="m33.1347885 30.6504211c.0019531.2060547.1694336.3710938.375.3710938h.0039063c.2070313-.0019531.3730469-.171875.3710938-.3789063-.0209961-2.0576172-1.0678711-4.0878906-2.7319355-5.2988281-.40378-.2887497-.8418255.3155727-.4414063.6074219 1.4760761 1.0732422 2.404787 2.8740234 2.4233417 4.6992187z"/><path d="m14.2612524 42.2705383c.4927607 0 .4981098-.7430267.0053711-.75-.7993164-.0117188-1.6074219-.3134766-2.2167969-.8300781-.3798952-.3209038-.8621054.2528267-.484375.5722656.7504883.6357422 1.7060547.9941406 2.6904297 1.0078125z"/><path d="m25.0200405 43.9433899c.4523582-.0170708.516922-.6901283-.0273438-.75-1.6855469.0625-3.324707.5800781-4.7402344 1.4970703-.3131161.2022972-.1685715.6894531.2041016.6894531.0698243 0 1.739647-1.3315391 4.5634766-1.4365234z"/><path d="m9.0542212 26.8662415c-.6342773-1.9560547-1.7753911-3.71875-3.2998052-5.1005859-.3678069-.3326645-.871213.2220879-.5039063.5566406 1.4282227 1.2929688 2.496582 2.9443359 3.0898442 4.7744141.1535741.4723128.8662768.2408313.7138673-.2304688z"/><path d="m7.157248 20.6181946 2.6352544 4.5380859c.2464733.4269905.898468.0550251.6484375-.3769531l-2.6352544-4.5380859c-.2447791-.424593-.899158-.0562153-.6484375.3769531z"/><path d="m11.8359594 19.2431946c-.1987305-.0644531-.4082031.0439453-.4726563.2402344-.4365234 1.3466797-.4697266 2.8388672-.09375 4.2011719.1324387.4790363.8547859.2778549.7226563-.1992188-.3374023-1.2226563-.3071289-2.5615234.0849609-3.7695313.0634766-.1972656-.0444335-.4091797-.2412109-.4726562z"/></g></svg>