<svg id="Layer_1" height="512" viewBox="0 0 512 512" width="512" xmlns="http://www.w3.org/2000/svg"><g><path d="m256 51.2c-112.9 0-204.8 91.9-204.8 204.8s91.9 204.8 204.8 204.8 204.8-91.9 204.8-204.8-91.9-204.8-204.8-204.8zm0 393.3c-103.9 0-188.5-84.5-188.5-188.5 0-103.9 84.5-188.5 188.5-188.5 103.9 0 188.5 84.5 188.5 188.5 0 103.9-84.6 188.5-188.5 188.5z"/><path d="m247.8 2h16.4v32.8h-16.4z"/><path d="m247.8 477.2h16.4v32.8h-16.4z"/><path d="m178.9 48.5-12.5-30.3-15.2 6.3 12.6 30.3z"/><path d="m330.5 467.3h32.8v16.4h-32.8z" transform="matrix(-.383 -.924 .924 -.383 40.375 978.028)"/><path d="m71.6 79.8h32.8v16.4h-32.8z" transform="matrix(.707 .707 -.707 .707 87.982 -36.443)"/><path d="m407.6 415.8h32.8v16.4h-32.8z" transform="matrix(-.707 -.707 .707 -.707 424.018 1023.669)"/><path d="m20.1 156.9h32.8v16.4h-32.8z" transform="matrix(.924 .383 -.383 .924 65.948 -1.393)"/><path d="m459.1 338.7h32.8v16.4h-32.8z" transform="matrix(-.924 -.383 .383 -.924 782.071 849.44)"/><path d="m360.8 24.5-15.2-6.3-12.5 30.3 15.1 6.3z"/><path d="m156.9 459.1h16.4v32.8h-16.4z" transform="matrix(-.924 -.383 .383 -.924 135.528 978.018)"/><path d="m415.8 71.6h16.4v32.8h-16.4z" transform="matrix(.707 .707 -.707 .707 186.405 -274.057)"/><path d="m79.8 407.6h16.4v32.8h-16.4z" transform="matrix(-.707 -.707 .707 -.707 -149.619 786.065)"/><path d="m467.3 148.7h16.4v32.8h-16.4z" transform="matrix(.383 .924 -.924 .383 445.985 -337.425)"/><path d="m28.3 330.5h16.4v32.8h-16.4z" transform="matrix(-.383 -.924 .924 -.383 -270.071 513.429)"/><path d="m2 247.8h32.8v16.4h-32.8z"/><path d="m477.2 247.8h32.8v16.4h-32.8z"/></g></svg>