<svg id="Layer_1" enable-background="new 0 0 75 75" viewBox="0 0 75 75" xmlns="http://www.w3.org/2000/svg"><g id="Artist_Kid" fill="rgb(0,0,0)"><path d="m30.6840611 28.60009c1.7868671.3674717 1.6684208.4970703 1.8896465.4970703.1978416 0 .3612862-.1537247.3740234-.3496094.0042725-.0643311.0303955-.1248779.0522461-.1861572 2.5284424 2.7631645 6.322773 2.9954758 9.223999 1.4831543.0146484.03479.020752.0684204.038208.1033936.0869141.1635742.3291016.6201172 1.8271484.6201172 3.5360909 0 5.6210899-2.0306988 6.1103516-4.4355469.3398438-1.5493164.0019531-3.1230469-.3740234-4.605957-.3134766-1.1870117-.5976563-2.159668-.8955078-3.0620117-.1570969-.4724712-.8669014-.2348557-.7128906.2353516.2929688.887207.5742188 1.8461914.8828125 3.0146484.6673584 2.6352253.9195557 5.020298-1.1796875 6.8706055-.9873047.9023438-2.2519531 1.1518555-3.1464844 1.203125-1.3925781.109375-1.8134766-.1240234-1.8457031-.1835938-.0230713-.046936-.0343018-.0957642-.0509033-.144043 3.092617-2.0249863 3.9635086-5.932518 2.4620361-9.0229492-.2157745-.4443111-.8922119-.1197033-.6738281.3276367 1.1611328 2.3920898.7197266 5.2700195-1.0986328 7.1616211-1.8710938 1.9472656-5.1669922 2.6337891-7.671875 1.5961914-1.9775391-.8188477-3.5292969-2.6938477-4.0498028-4.8935547-.4521484-1.9042969-.2226563-4.0424805.6826153-6.3549805.1319237-.3383751-.2497749-.6610527-.5651836-.4344482.3397198-.3065186.616087-.6744995.7819805-1.0836182 1.481308.9234524 3.3404007.4658356 4.2675781-.8916016 1.4885902 1.7128105 3.9104309 2.1293964 5.8623047 1.0556641.5514641 2.0763531 2.3705177 3.4243164 2.7832031 3.4243164.3829384 0 .5194435-.5106335.1855469-.7011719-1.2382813-.7036133-2.1347656-2-2.3398438-3.3833008-.0421791-.279459-.3635635-.4114342-.5898438-.2495117-1.8764648 1.3464336-4.4228859.8057785-5.640625-1.0390625-.1655769-.2526131-.5434494-.2131424-.6591797.0625-.6235466 1.5017967-2.6042137 1.9534569-3.8251953.815918-.2227211-.2066622-.5807228-.0774603-.6269531.2177734-.1044922.6875-.6240215 1.328125-1.3232403 1.6308594-.4566174.1988869-.1535149.8868122.2988281.6884766.2816162-.1222534.5318604-.296936.7612305-.493042-.02771.0314941-.0533447.0656738-.0698242.1068115-1.3050346 3.3375187-1.4515858 6.8775749.6517315 9.7277832-.0671387.0932617-.1237793.1934204-.168335.298584-2.5122871-.8222027-5.910368-.2636032-5.0996075-5.7382813.0419025-.1824493.5062504-3.641407 2.2402344-7.347168 1.8261776-3.8665075 3.0622425-4.0764027 2.4833984-4.565918-.1572266-.1333008-.3945313-.1147461-.5283203.043457-2.6428776 3.1195917-4.2453156 7.6392136-4.9355469 11.7475586-.2167969 1.4697266-.3125 3.144043.6269531 4.4140625.9169923 1.2714845 2.2734376 1.5498049 3.5849611 1.8188478z"/><path d="m47.463356 8.4821091c-.5215988-.4987707-1.8584747-.5309801-2.5860596-.4125366-.2386284-.648283-.9260101-1.1332355-1.6975098-.9094234-.0495605-.010376-.0963135-.03302-.1464844-.0380249-.1000443 0-.6202812-1.8928432-2.1099854-1.8099976-.6378784.0503049-1.2759476.8524671-1.5570068 1.4265137-2.7704659-.0926275-5.2375069 1.0571628-7.2203369 3.0704341-.3454876.3524923.1821213.879406.5351563.5263672 1.7729836-1.8008442 3.9397087-2.8658495 6.4564209-2.8485713-.1425514 1.2306695.7383232 2.2613769 2.9919434 1.8256221.2862129 1.0316687 1.2573128 1.4440975 2.020752.9796753.0985718.8511925.5567513 1.7439327 1.3909912 1.9265747 2.3135719 4.6972446 1.961277 5.6856537 2.6574707 5.4370117.1953125-.0688477.2978516-.2832031.2285156-.4785156-.6509666-1.8457823-1.4518204-3.7389765-2.0621338-4.9851685 1.5832825-.4542074 1.9732323-2.9023657 1.0982666-3.7099609zm-4.4013672 1.0481567c-.6613579-.6794615-.0196037-2.0653782.7861328-1.5922847.9091454.5185972.0601273 2.4385419-.7861328 1.5922847z"/><path d="m29.5893345 47.4155197c.5302582 2.9371033 2.4371929 4.7216797 5.7539043 4.7216797 2.4496841 0 6.5097122-1.1036682 8.8378906-1.9057617 3.3387222-1.1526222 3.7654305-2.8321686 2.5341797-5.9506836-4.6053543-11.4356194-4.4979515-12.4744072-5.9589844-12.8745117-.6033058-.1653709-1.197216.0376377-1.8066406.2133789-4.3187218 1.1636581-6.1491737-3.4542294-7.3232403.8388672-.9765625 3.5615234-1.6650391 7.2382813-2.0449219 10.9277344-.1259765 1.2304687-.2402343 2.6582031.0078126 4.0292968zm.7382812-3.9526367c.3759766-3.6484375 1.0556641-7.2841797 2.0214825-10.8061523.15625-.5703125.3505859-1.168457.6103516-1.284668.7214737-.3197441 2.821743 1.8835144 6.1855469.9711914.929409-.2698669 1.130764-.2909317 1.4140625-.2133789.9466629.2593269.9320831 1.1045113 5.4589844 12.4262695 1.0872459 2.7581215.812664 3.967289-2.0810547 4.9663086-1.9589844.675293-3.9863281 1.2094727-6.0234375 1.5883789-1.8769531.347168-4.2392578.5849609-5.8603516-.6870117-.8701153-.6811523-1.48242-1.7973633-1.725584-3.1420898-.2304688-1.2749024-.1259766-2.5854493-.0000001-3.8188477z"/><path d="m47.2211685 50.9877853c-.0683594-.246582-.1386719-.5014648-.3691406-.5957031-.2207031-.090332-.4375.027832-.703125.1699219l-.4892578.2080078c-1.737587.7397652-3.3653069 1.7902374-6.7207031 2.184082-3.677269.4312019-6.7012596-.5342026-6.1679688-.4008789-.6015625-.1533203-1.350584-.3447266-2.0009747.0092773-1.1497211.6272697-.9674759 2.2480431-.9150391 3.4794922.0693359 1.6865234.140625 3.4311523.2705078 5.1557617.0117188.1572266.1210938.2905273.2734375.3330078 2.7321262.7634468 5.6585064.7822876 8.475584-.0161133.1494141-.0424805.2568359-.1723633.2705078-.3271484.1141891-1.268383.0596161-2.7809944-.3632813-4.1025391.2333984-.1308594.8056641-.2041016 1.1464844-.1782227.108345.0650063.2133141.6085892.2958984.8369141.6129036 1.7467346.7544632 2.3857346 1.2646484 2.8178711 1.1162224.9401131 2.8168411.0469704 4.1162109-.5800781.9832153-.4498672 3.023674-1.57547 3.6103516-2.1044922.4775391-.4306641.2177734-.9951172.0615234-1.3325195-.1513478-.3313369.020859.0754738-2.0556638-5.5566406zm1.4921875 6.3320313c-.2757111.2487297-.6924286.4863625-1.09375.7285156-1.3047447.8131142-2.2735901 1.218338-2.7099609 1.4335938-.8945313.4331055-2.2470703 1.0859375-2.9365234.5068359-.3229179-.2734032-.4071236-.711956-1.0419922-2.4936523-.1536942-.4383163-.237854-1.2812805-.9443359-1.3349609-.3984375-.0283203-1.1484375.0332031-1.5712891.2705078-.652916.364151-.2069435 1.2416954-.1503906 1.5668945.1669922.9462891.21875 1.9086914.1533203 2.8642578-2.4785156.6572266-5.0820313.6616211-7.5644512.0151367-.1354427-1.8956146-.2075615-3.8446159-.2861328-5.7524414-.0292969-.6699219-.0029297-1.5961914.5615234-1.9038086.9178104-.5027199 2.957674 1.0549736 7.897459.4785156 2.5123444-.2956886 4.0688057-.9237595 5.7832031-1.7216797 1.3119659-.6119118 1.4847603-.6505814 1.6982422-.7573242.0276451.1002083 1.9604378 5.3629799 2.0878906 5.6386719.1445313.3139648.1699219.4135742.1171875.4609375z"/><path d="m48.1928482 67.7983322c1.5244522 0 4.5719604-1.049942 3.9716797-2.4257813-.4433594-1.0107422-1.9716797-.4750977-2.7060547-.2182617-.1016731.0330811-.781105.2555923-.9893799.3347778l-2.0174561-5.3440552c-.1713448-.4607811-.8778076-.202858-.7011719.2646484l2.0379639 5.3983154c-1.2773437.7462923-.8610916 1.9903566.404419 1.9903566zm1.1533203-1.815918.3603516-.1201172c2.0131187-.7062759 2.0549088-.1389923 1.3974609.2875977-1.3489761.8800125-3.3035049 1.094368-3.3388672.7348633-.0195312-.1767578.2392578-.4770508 1.5810547-.9023438z"/><path d="m57.7475357 27.13134c.137928.5804367.4700661 1.0913944.7119141 1.5668945-3.1915894 4.9638824-9.5116158 6.7704201-14.7890625 4.40625-.4519539-.2034988-.7594032.4815254-.3066406.6845703 5.5329247 2.4784279 12.2803001.6490097 15.7109375-4.6616211.8847656-.2705078 1.6064453-.7246094 2.09375-1.3188477.6347656-.7734375.8476563-1.7822266.5556641-2.6328125-.3369141-.9838867-1.3496094-1.6157227-2.3076172-1.4389648-1.1713601.2162133-2.1078301 1.5236874-1.6689454 3.3945313zm3.2675781-1.7124023c.3267021.952095-.2030334 2.2777863-1.9042969 2.9052734-.239418-.464138-.5252495-.9113045-.6328125-1.3652344-.3391342-1.437048.317028-2.3445244 1.0751953-2.4848633.0595704-.0107421 1.2539902.3381043 1.4619141.9448243z"/><path d="m16.2768345 21.5859299c0 .4946289.75.4963303.75-.0009766-.0039063-3.1762695-.8867188-6.284668-2.5517578-8.9887695-.26227-.421505-.89814-.0283737-.6386719.3935547 1.5927734 2.5859375 2.4365234 5.5585937 2.4404297 8.5961914z"/><path d="m11.9975376 17.1083908c-.7304688 1.4946289-.7734375 3.2983398-.1142578 4.8251953.1973238.4557247.8858805.1579494.6894531-.296875-.5742188-1.3286133-.5371094-2.8984375.0986328-4.1992188.2168713-.4442348-.4540252-.7768897-.6738281-.3291015z"/><ellipse cx="42.126" cy="21.054" rx=".949" ry="1.273"/><path d="m35.9439468 22.3266525c.5239258 0 .9487305-.5700073.9487305-1.2731323s-.4248047-1.2731323-.9487305-1.2731323-.9484863.5700073-.9484863 1.2731323.4245606 1.2731323.9484863 1.2731323z"/><path d="m34.5805435 25.0707932c.591259 1.461565 2.1092529 2.5660572 3.8681641 2.5385742 1.6552734-.0415039 3.1923828-1.1625977 3.7382813-2.7260742.1613464-.4688339-.5431557-.7153587-.7089844-.2470703-.4375 1.2553711-1.7197266 2.1899414-3.0478516 2.2231445-1.3359375.0336914-2.65625-.8374023-3.1542969-2.0698242-.1875419-.4606495-.8818435-.17692-.6953125.28125z"/><path d="m37.5287857 10.6132736c-2.2060547.4628906-4.2226563 1.7807617-5.5332012 3.6162109-.2930832.4077177.3303509.831461.6093731.4355469 1.203125-1.6835938 3.0537109-2.8930664 5.078125-3.3173828.4799003-.1008472.3391838-.8321399-.1542969-.734375z"/><path d="m35.2592545 69.5195236c.8294182.3411331 3.3334885.1497345 4.0537109-.3779297.7515068-.551506.64785-1.5768585-.2578125-1.9306641-.5677872-.2223282-1.1197472-.1228943-1.7655029-.1765137l-.5645752-4.5783691c-.0619316-.5002213-.80439-.3959923-.7441406.0917969l.5452881 4.4210205c-1.1468315-.0741501-2.3514061.679039-2.0306396 1.7567139v.0009766c.1035155.3461914.3828124.6352539.7636718.7929687zm1.1142578-1.8115234c.171875.0053711.3427734.0249023.5136719.0444336 1.0456009.117363 2.0923424-.0636368 2.1748047.4311523.1308289.7293549-2.8960304.8990784-3.515625.6425781-.1669922-.0688477-.2939453-.1894531-.3320313-.3144531-.1502114-.5030365.682724-.8203583 1.1591797-.8037109z"/><path d="m65.119606 14.5556564c-.1865234-.0830078-.4111328.0009766-.4941406.190918-1.171875 2.6503906-2.7978516 5.0405273-4.8310547 7.1035156-.3548164.3595829.192112.8742828.5332031.5263672 2.0986328-2.1279297 3.7753906-4.5927734 4.9833984-7.3261719.0839844-.1894531-.0019531-.4111328-.1914062-.4946289z"/><path d="m12.409647 41.134758c.5063858.9860039 1.4961901 1.698452 2.6490479 1.4542236 2.4640198 12.9575844 6.2019863 20.3862953 7.6849365 24.2044678.4052734 1.0444336.9091797 2.34375 2.2402344 2.4326172 1.5280857.1066132 1.6088505-1.7788925 1.5986328-3.2929688-.0092373-1.0623245 1.1305866-12.5411224-1.8547363-27.1350708.2249756-.4909668.2897949-.9275513.1878662-1.2792358 2.2714844-1.0245361 4.3123779-2.442688 6.0574951-4.2458496.3457031-.3586388-.1971493-.8773537-.5390625-.5214844-1.7159424 1.7733154-3.7271729 3.1651611-5.9709473 4.1547241-.0500488-.0322266-.0999756-.0645752-.1539307-.0928955-.9493504-4.4602394-2.6733494-9.7345486-2.7032471-9.8381958-.1115971-.3072701-.2386894-.651844-.2597656-.8696289-.0207386-.2187881-.228281-.3715496-.4345703-.3334961l-.1813965.0307617c.8957043-2.207922.7497978-5.987463-1.3146973-9.5478516-1.7339153-2.992691-4.2617702-5.2158699-5.5615234-6.6689453-.4765625-.5429688-.9912109-1.0297852-1.4755859-.8979492-.8258295.2165012-.4309063 1.5820141-.4375 2.0732422-.2186651 4.0453081-2.9204512 7.7398453-2.1445313 11.8056641.3658495 1.9129372 1.5725937 3.7622356 3.4837646 4.8429565.0535774.7842674.1679335 5.1015625.9228516 10.1069946-2.2130794.16988-2.9152069 1.438099-1.7933349 3.61792zm11.7060547-3.565918c.4478245.3310661-.5430927 2.2902374-1.9140625 2.8110352-.6103516.2324219-1.4707031.1748047-1.9316406-.3852539-.3925781-.4750977-.4003906-1.265625-.0195313-1.8388672.9000854-1.3489189 3.1976585-1.0795212 3.8652344-.5869141zm-2.6269531 3.6933594c1.0910587 0 1.9848785-.6402092 2.6568604-1.5084839 2.7578545 14.0875893 1.6713219 24.2383423 1.6868896 26.1842651.0052719.8846359.0372772 2.6069183-.7939453 2.5400391-.796875-.0532227-1.1640625-.8442383-1.5957031-1.9560547-.951889-2.4676666-5.1382065-10.7701073-7.6719971-24.1984253 1.0008545-.5457649 1.5494404-1.5582275 1.4864502-2.4934692-.0712891-1.0810547-.9970703-2.0620117-2.1523438-2.2817383v-.0004883c-.0435791-.0081787-.0958252-.0109253-.1428223-.0170898-.1193161-.7850342-.0956364-.6729622-.1094971-.7749634.112915-.0299644 3.4874439-1.689537 8.3182373-1.527832.0614014.2554321.2840576 1.199585.3077393 1.3024292-4.952568-1.0265084-5.5291366 4.7318115-1.9898681 4.7318115zm-5.9954834-11.6901245c1.2600098.3200073 2.6401367.0599976 3.710083-.6799927.4034863-.284729.8346462.3242722.4300537.6099854-1.2303658.8708057-2.8554306 1.1571617-4.3200684.8000488-.4963179-.1242313-.2999239-.8500042.1799317-.7300415zm.8901367 3.210022c1.1699219.1300049 2.3999023-.1799927 3.3798828-.8300171.1700439-.1099854.4000244-.0700073.5200195.1000366.1101074.1799927.0700684.4099731-.1099854.5199585-1.0808296.7318687-2.4373798 1.1034584-3.8699951.960022-.5030851-.0719529-.421072-.7936249.0800782-.75zm-5.850708-10.355835c-.4524298-2.3702641.435339-4.8470802 1.2021484-7.1601563 1.4354401-4.494813.7762585-4.9624519.8789063-5.8183594.3041964.1693172.5368567.524766 1.8027344 1.8203125 3.0536289 3.1168089 5.8770065 6.4846725 6.0576172 10.8632813.049139 1.3412495-.0468273 2.6422653-.661499 3.8269043-1.9099102.301981-4.8278103.8180447-5.7961426.9823608-.1433105-.0697021-.2888184-.1334839-.4281006-.2140503-1.5378037-.861288-2.7100058-2.4950465-3.0556641-4.3002929zm2.2207031 16.4301758c.35182-.5045204 1.5856676-.6877556 2.2109375-.5717773.8173828.1557617 1.4960938.8564453 1.5449219 1.5952148.0390625.5908203-.2998047 1.2348633-.8632813 1.6411133-.9732647.7008858-2.0093937.3596497-2.5703125-.7290039-.4443359-.8652344-.5654297-1.5883789-.3222656-1.9355469z"/><path d="m37.4722672 36.6195602c.6848145 0 1.2398682-.5550537 1.2398682-1.2398071 0-.6846924-.5550537-1.2398071-1.2398682-1.2398071-.6846924 0-1.2397461.5551147-1.2397461 1.2398071 0 .6847534.5550537 1.2398071 1.2397461 1.2398071z"/><path d="m37.772316 37.41436c-.6846924 0-1.2397461.5550537-1.2397461 1.2398071 0 .6846924.5550537 1.2398071 1.2397461 1.2398071.6848145 0 1.2398682-.5551147 1.2398682-1.2398071-.0000001-.6847533-.5550538-1.2398071-1.2398682-1.2398071z"/></g></svg>