<svg id="Layer_1" height="512" viewBox="0 0 512 512" width="512" xmlns="http://www.w3.org/2000/svg"><g><path d="m459 150.6c-12.4-36-44.7-61.8-82.5-66.1-23.2-44.9-70-73.6-120.5-73.6-43 0-83.5 20.5-109.1 55.1-45.1 4.1-82 38.8-89 83.3-32.3 7.4-55.9 36.5-55.9 70.1 0 39.7 32.3 71.9 71.9 71.9h26.5c16.9 17.4 40.2 27.3 64.5 27.3s47.6-9.9 64.5-27.3h208.6c39.7 0 71.9-32.3 71.9-71.9.1-32-20.6-59.6-50.9-68.8zm-20.9 124.3h-215.8s-20.3 27.3-57.3 27.3c-35.3 0-57.3-27.3-57.3-27.3h-33.8c-30.6 0-55.5-24.9-55.5-55.5 0-27.6 20.6-51.2 48-55l6.5-.9.6-6.5c3.7-40.7 37.4-72.9 78.3-74.9l4-.2 2.3-3.3c22.3-32.1 59-51.3 98-51.3 45.8 0 88.1 26.9 107.8 68.4l2.1 4.4 4.8.3c34.6 2.2 64.3 26.1 74.1 59.3l1.3 4.6 4.7 1.1c25.3 5.9 42.9 28.1 42.9 54-.2 30.6-25.1 55.5-55.7 55.5z"/><path d="m92.1 158.3h16.4c0-22.5 18.3-40.9 40.9-40.9v-16.4c-31.6.1-57.3 25.8-57.3 57.3z"/><path d="m77.9 393c-12.1 21.7-4.7 50 17.3 61.3 29.5 15.2 53.4-3.1 61.3-17.3 10.9-19.5-3.4-86.4-3.4-86.4s-64.2 22.9-75.2 42.4zm64.4 36c-5.1 9.1-20.1 21.1-39 11-14-7.4-18.8-25.2-11-39 5-9 29.2-21 48.9-28.7 3.8 20.8 6.1 47.8 1.1 56.7z"/><path d="m217.5 434c-12.1 21.7-4.7 50 17.3 61.3 29.5 15.2 53.4-3.1 61.3-17.3 10.9-19.5-3.4-86.4-3.4-86.4s-64.3 22.9-75.2 42.4zm64.4 36c-5.1 9.1-20.1 21.1-39 11-14-7.4-18.8-25.2-11-39 5-9 29.2-21 48.9-28.7 3.7 20.8 6.1 47.7 1.1 56.7z"/><path d="m357.1 393c-12.1 21.7-4.7 50 17.3 61.3 29.5 15.2 53.4-3.1 61.3-17.3 10.9-19.5-3.4-86.4-3.4-86.4s-64.3 22.9-75.2 42.4zm64.3 36c-5.1 9.1-20.1 21.1-39 11-14-7.4-18.8-25.2-11-39 5-9 29.2-21 48.9-28.7 3.8 20.8 6.2 47.8 1.1 56.7z"/></g></svg>