<svg id="Layer_1" enable-background="new 0 0 75 75" viewBox="0 0 75 75" xmlns="http://www.w3.org/2000/svg"><g id="Baby_Bed" fill="rgb(0,0,0)"><path d="m42.6200562 18.8955345c-.4589233 0-.8309326.3719482-.8309326.8308105 0 .4589844.3720093.8310547.8309326.8310547s.8309326-.3720703.8309326-.8310547c0-.4588622-.3720093-.8308105-.8309326-.8308105z"/><path d="m35.6557617 19.7263451c0-.4588623-.3720093-.8308105-.8309326-.8308105s-.8309937.3719482-.8309937.8308105c0 .4589844.3720703.8310547.8309937.8310547s.8309326-.3720704.8309326-.8310547z"/><path d="m42.1490479 23.0525169c-1.0102539.6899414-2.2441406 1.0288086-3.4594727.9492188-1.2211914-.0776367-2.3974609-.5673828-3.3115234-1.3789063-.1132813-.1010742-.2739258-.1210938-.4111328-.0581055-.1357422.0654297-.2197266.2055664-.2124023.3564453.065918 1.3793945.7983398 2.6450195 1.9106445 3.3022461.6289063.3720703 1.3496094.5595703 2.0703125.5595703.6123047 0 1.2250977-.1352539 1.7827148-.4082031 1.2456055-.6103516 2.0527344-1.690918 2.2143555-2.965332.0185547-.1464844-.050293-.2905273-.1762695-.3671875-.1264649-.078125-.2851563-.0737304-.4072266.0102539zm-1.9609375 2.6484375c-.9746094.4770508-2.2075195.4282227-3.1411133-.1230469-.6552734-.387207-1.1469727-1.0405273-1.3862305-1.8046875.890625.5683594 1.9208984.9091797 2.980957.9765625 1.0791016.0688477 2.1533203-.1455078 3.1176758-.609375-.2929687.6586915-.8310547 1.1982422-1.571289 1.5605469z"/><path d="m12.0958271 61.557888c5.6315327 3.406208 9.8409348 5.8536873 16.7836914 7.3569374 11.989069 2.5946884 24.0937214-.232605 33.3959961-6.7871132.1001701-.0707054.1582756-.111721.0581055-.0410156.6980362-.4894142 1.3843613-.9749069 1.5991211-1.8037109.2560883-.985611-.3757019-1.8553391-1.2851563-1.8945313-.6837692-.0474968-.7129936.3157501-3.3911133 1.9321289-.0965729-34.2553864.207428-32.5137405-.2230225-32.7062988 2.0526009-1.8909531.7028694-5.296875-2.0641479-5.296875-1.6878052 0-3.0560913 1.3681641-3.0560913 3.0560303 0 .8891602.3859863 1.6824951.9920654 2.2408447-.1309204.0585938-.2230225.1888428-.2230225.3415527v4.8095703h-5.7647095c.4070244-2.1797276-.6374245-2.5250473-2.6415405-1.6176758-.5056763.2288818-.9168091.5600586-1.2286987.9438477-1.374157-2.4611797-2.6402168-1.3664761-7.3552856-.8652344-1.9460983.1268005-2.624958-.0651016-3.8242188-.449707-1.0032692-.2519703-1.811348-.174036-2.5209332.6097412-.571167-.6274414-1.2852783-1.1473389-2.1328735-1.4754639-.4824219-.1879883-1.4868164-.5795898-1.9150391.2993164-.3564529.730587.0216999 1.7918549.2999878 2.5551758h-6.2985229v-4.3320313c0-.2070313-.1679688-.375-.375-.375h-.5023193c.9605103-.5151367 1.6236572-1.519043 1.6236572-2.6882324 0-1.6800537-1.3700562-3.0500488-3.0500488-3.0500488-1.6900024 0-3.0599976 1.3699951-3.0599976 3.0500488 0 1.1691895.663269 2.1730957 1.6270142 2.6882324h-.4552002c-.0996094 0-.1953125.0395508-.265625.1103516-.0703125.0703125-.1098633.1660156-.109375.265625l.0385742 13.9892578c.0004883.2070313.168457.3740234.375.3740234h.0009766c.2070313-.0004883.3745117-.1689453.3740234-.3759766l-.0375995-13.6132811h3.065918v33.855957l-2.980957-1.4677734-.0473633-17.0253906c-.0004883-.2070313-.168457-.3740234-.375-.3740234-.0004883 0-.0004883 0-.0009766 0-.2070313.0004883-.3745117.1689453-.3740234.3759766l.0460815 16.6188965c-.9066772-.5201416-1.7932739-1.0742188-2.6564331-1.6618652-2.2330189-1.520157-4.5822106.9079474-2.065918 2.4277342zm5.9608765-37.2077636c.2000122-.0700684.4100342.0400391.4700317.2399902.1900024.5800781.6099854 1.0700684 1.1499634 1.3599854.1800537.0999756.25.3299561.1500244.5100098-.0700073.1300049-.2000122.2000732-.3300171.2000732-.0599976 0-.1199951-.0200195-.1799927-.0500488-.7000122-.3701172-1.25-1.0300293-1.5-1.7900391-.0599975-.1999512.0499878-.4099121.2399903-.4699707zm39.1055278-.4611817c.1044922-.1787109.3344727-.2387695.5131836-.1342773.675293.3959961 1.0683594 1.2128906.9560547 1.9873047-.0708656.4934883-.813446.3820591-.7421875-.1074219.0688477-.4726563-.1806641-.9912109-.5927734-1.2324219-.1787109-.1049805-.2387695-.3344726-.1342774-.5131836zm.5409546 4.4418945h.8032837v32.4284668c-1.6410751.9441071-.9427605.496788-3.0742188 1.5646973v-33.9931641h.8031616c.5269357.1304074.9330255.1323414 1.4677735 0zm-3.020935 27.8009034h-2.8049927c.0323944-.1607323.0042076 1.2019348.0144653-19.2364502h2.7905273v19.2364502zm-8.3602906 0c.2129936-.2003136.0778809-.3053017.1195679-2.2550049 1.3318367-.1073494 2.6471329-.3568687 3.4677734-1.4453125 1.3516769-1.8487701.0797653-4.5627594-.9741211-8.0620117-1.7207756-5.5489464-1.5770798-5.1326294-2.3074341-7.4741211h4.5139771c.0102386 20.3984756-.0178337 19.0761757.0144653 19.2364502zm1.4896851 2.3172607c.0097656.206543-.1499023.3823242-.3569336.3920898-.0058594.0004883-.0117188.0004883-.0180664.0004883-.1987305 0-.3647461-.15625-.3740234-.3574219l-.0634766-1.3291016c-.0102539-.206543.1494141-.3828125.3564453-.3925781.1923828-.0126953.3823242.1499023.3925781.3564453zm-23.1171245-2.3172607c.2058983-.2108459.0639553.899334.1073608-19.2364502h4.5800781v.852417c-.4268188 2.2089844-.7529907 4.4223633-.9589844 6.59729-.046793.4936714.6999092.5642548.7470703.0703125.0606689-.6409912.1314087-1.2854004.2119141-1.9320068v9.0477295c-.7825966-1.8835373-.4062634-4.3895531-.3706055-5.4580078.030283-.4926834-.7173176-.5449867-.7490234-.0458984-.0271549 1.1820374-.6385193 4.8637238 1.1196289 6.9626465.0117207 3.2594452-.0218544 3.0021591.022522 3.1419678h-4.7099609zm3.0751342 1.8719482c.012207.206543-.1455078.3842773-.3525391.3964844-.0073242.0004883-.0151367.0004883-.0224609.0004883-.1967773 0-.3623047-.1538086-.3740234-.3530273l-.0751953-1.2651367c-.0290604-.491684.7171879-.5460358.7490234-.0449219zm18.6718731-19.1879883c.7228737 2.38237 1.3653603 4.4447975 1.7763672 5.7729492 1.5056877 4.9868011 3.1340485 8.1236382-1.7763672 8.536377zm-.75 14.3656006c-1.5477905.0743408-3.0985107.1539307-4.6469727.230835v-16.5168457h4.6469727zm-5.3969726.2681885c-1.5690918.0783691-3.1363525.154541-4.7080078.2338867v-16.7880859h4.7080078zm-5.4580078.2714844c-1.6835022.0561066-3.4829903.21315-4.7045879-1.0310059.1237221-16.1151161-.2054176-13.9266548.1829834-15.7946777h4.5216045zm-4.704588-.0375977c1.402668.9665718 3.108614.8374176 4.7045879.7884521.0546684 1.2061653-.1263847 1.4645081.175293 1.6599121h-4.9024029c.0444203-.1399459.010891.0640488.022522-2.4483642zm5.454588.7509766c1.5709839-.0793457 3.1391602-.1555176 4.7080078-.2338867.0107231 1.8251991-.0239983 1.79562.026001 1.9312744h-4.9093018c.3027725-.1961098.1205368-.4607621.175293-1.6973877zm5.4580078-.2712403c1.5484009-.0769043 3.0979614-.1563721 4.6469727-.2307129.0409241 1.8651161-.0928078 1.9996033.1195679 2.1993408h-4.7925415c.0498046-.1351241.0149115-.0431976.0260009-1.9686279zm7.1230468-22.6872558c.0893555.0942383.1972656.4321289-.0864258 1.6362305-.3617477 1.5273857-1.5447731 2.0416336-2.3056641 1.5961914-.4633789-.2719727-.6821289-.9467773-.4980469-1.5361328.433056-1.388464 2.6951867-1.9025612 2.8901368-1.6962891zm-15.3481445-.0722656c1.1811981-.1060047 1.4521294.8041611 4.9365234.5698242 5.0900764-.5309181 5.6821899-1.5396271 6.7868042.7919922h-12.2736206c-.126606-.2934418-.2330856-.4734612-.4428082-.7856445.2834454-.3499757.6078473-.5458985.9931012-.5761719zm-4.8461895-.8652344c.09375-.1923828.3393555-.1743164 1.0253906.0932617 2.4350986.9431515 3.4429951 3.5773277 2.4169922 4.3774414-.3530273.2744141-.875.2299805-1.2363281.0644531-1.4642391-.6746406-2.5383816-3.8541145-2.2060547-4.5351562zm-6.6713867 2.9770508h6.5987549c.1663818.3366699.3518066.6633301.567749.9707031v.0004883c1.8587017 2.6437187 4.522131 1.3792801 4.043211-.9711914h11.9591064c-.100235 2.5448914 3.3795738 3.0150566 4.2714844 0h5.9395752v2.6298828h-33.3798809zm2.75 3.3798828c.043396 20.1314621-.0983372 19.0258102.1073608 19.2364502h-2.8588257v-19.2364502zm-2.7514649 22.6154785h33.3818341v3.1977539c-10.381443 4.6248741-22.2729454 5.0107689-33.3818359.3022461v-3.5zm-.5945434 4.065918.0540161.0266113c1.4008007.4396858 7.7845612 3.5804787 17.2207012 3.510746 11.8448677-.094841 19.7214813-5.1690102 21.0639648-5.7041054.0820313-.0395508.1344604-.1105957.1697388-.1906738 2.6581306-1.5608215 3.0059776-2.0793076 3.4000854-2.0817871.4650459.0203285.7186356.471077.5927734.9570313-.1607933.6185341-.8354301 1.049408-1.3632813 1.4199219-9.1212616 6.4266853-21.0108147 9.2207451-32.8051758 6.666996-6.7748814-1.466217-11.0092812-3.9116898-16.5551758-7.2651405-.5769796-.3493004-.9901075-.8354683-.5263672-1.2602539.1235352-.112793.2978516-.1943359.503418-.2358398 1.3056881-.2611391 2.0155403 1.4593199 8.2453024 4.156494z"/><path d="m49.2979736 12.1540794c-.7975578-.7633457-1.1581421-.7115097-2.0175781-.9052734.0488281-.7148438.0810547-1.4482422-.034668-2.1796875-.5866852-3.7431731-4.4960251-4.2008514-7.1860352-1.4624023-.7119141-.7612305-1.5166016-1.578125-2.503418-2.0488281-1.277832-.6069336-2.840332-.5668945-4.0786133.1049805-2.324482 1.2495461-2.821167 4.195859-2.0039043 5.2583008-.484375.1616211-.8916016.4580078-1.2133789.8828125-.2988625.3957596.2963696.8470259.5976563.453125.262207-.3461914.6020508-.5712891.9819336-.6640625.0820313-.0131836.2343731-.0375977.3422832-.1464844.3818359-.3364258.0224609-.8046875-.0957031-.9584961-.0234375-.0307617-.0454102-.0576172-.0493164-.0595703-.5126171-1.1744308.1194038-3.2039132 1.796875-4.105957 1.0332031-.5595703 2.3359375-.5932617 3.3994141-.0874023.987606.4711132 1.7943573 1.3632336 2.5507813 2.1762695.0708008.0761719.1704102.1196289.2744141.1196289.1015625-.027832.2084961-.0454102.2797852-.125 2.2745857-2.5466347 5.6549988-2.4811354 6.1660156.7797852.1191406.7490234.0615234 1.5419922.0053711 2.3354492 0 .3320313.1430664.3623047 1.0756836.5600586 1.8337975.3912096 2.4186974 2.4699755 1.4824219 3.4863281-.2773438.3066406-.7001953.4863281-1.1308594.4726563-.4057007-.0186405-.5447807.548193-.1660156.7172852 1.2257767.5454826 1.8053055 2.0760956 1.0493164 3.3701172-.2392578-.1923828-.5356445-.296875-.8154297-.2788086-.0967903-.1020393-.4776344-.5393925-.5424805-.5976563-1.2409554-1.1168613-1.9491386-1.0081844-2.5019531-2.315918-.0477219-.1179218-.3078384-.6774521-.3515625-.9692383.2117043-.2857971-.0569-.6862316-.4067383-.5839844-1.7651482.5171566-3.6393433-.428236-4.1801758-1.9589844-.2246094-.6328125-.4018555-1.1323242-.8457031-1.1323242-.0004883 0-.0004883 0-.0004883 0-.4964218.0225286-.9815254 1.0568066-1.2475586 1.3012695-1.8463326 1.7166824-4.0225372.8956013-6.2153301 1.8564453-.6411133.2880859-1.159668.7060547-1.5043945 1.1992188-.3357697-1.0292749-.2038021-2.1973867.0869141-3.2373047.1333542-.4784374-.5880947-.6795483-.7226563-.2021484-.3050995 1.0941906-.3563995 2.0236225-.258728 2.8034668-2.2369156.5251923-2.3557358 3.6606827-.0749512 4.2949219-.0170898 2.7175293 1.1201172 5.2907715 3.2853374 7.1296387 3.143364 2.6585464 7.9223938 2.9663334 11.3657227.7587891 1.8260498-1.1791992 3.1757813-3.0270996 3.8592529-5.1265869 1.2771149.0933971 2.1132469-1.213377 1.5324707-2.3155518.9248543-1.2636433.8472328-3.0122337-.4000244-4.1501465 1.6979026-.7441227 1.8191184-3.1350901.4160155-4.4487307zm-19.8296489 4.586792c.0836525.2822857.0347958.242527.239563.6264648-.2299194.7233887-.3619385 1.4490967-.4246826 2.1702881-1.3947793-.548149-1.1956177-2.4609908.1851196-2.7967529zm14.0156841 10.8238526c-3.1269531 2.0048828-7.6303711 1.7045898-10.4746094-.7001953-2.0022564-1.7006836-3.050169-4.0864258-3.0211773-6.6049805.1202774-.1411438.1214542-.3104362.019165-.4539795.0401001-.6339111.1566162-1.2723389.3366089-1.9105225.4050713-.1923809.1188335-1.0626507 1.6732159-1.7614746 2.0195236-.8842869 4.3655701-.0834866 6.418457-1.9887695.1766624-.1609745.4311218-.5716419.7075195-.9287109.1166153.27917.2785339.7950411.3686523.9428711.8576279 1.5019093 2.6034851 2.3549576 4.3833008 2.0610352.0839653.3872166.4865036 1.267374.5371094 1.3681641.5950737 1.2260132 1.7985878 1.3937664 2.7236328 2.4370117.1431885.1618652.2433472.2709961.331543.3596191-.1212158 2.8718261-1.6751708 5.6762695-4.0034179 7.1799316zm4.4815063-5.2452393c.1270142-.5264893.2070313-1.0648193.2462158-1.6105957.7878037.354311.6338082 1.5044174-.2462158 1.6105957z"/><path d="m43.9825439 10.6242943c-.0053711.2070313.1577148.3793945.3647461.3852539h.0102539c.2026367 0 .3691406-.1611328.375-.3647461.0703506-2.650929-3.3194847-3.4077816-3.2553711-2.4033203.0131836.2075195.199707.375.3979492.3500977 1.1836892-.066475 2.1380883.8868312 2.1074219 2.0327148z"/><path d="m23.7735615 11.7156029 3.4038086 1.7421875c.0546875.027832.1132813.0410156.1704102.0410156.3942757 0 .5196857-.5306768.1713867-.7089844l-3.4038086-1.7421875c-.4442864-.2244806-.7822552.442482-.3417969.6679688z"/><path d="m24.6051044 10.0827904c2.3318367 1.4651499 2.2399864 1.4882813 2.4375 1.4882813.3733101 0 .5181637-.4896564.2021484-.690918l-2.2353516-1.4291992c-.4195479-.2664529-.8215903.3641605-.4042968.6318359z"/><path d="m29.1636982 11.7497826c.3790169 0 .5188217-.5013695.1933594-.6962891-.9838867-.5908203-1.7675781-1.4995117-2.2070313-2.559082-.0791016-.190918-.2978516-.28125-.4897461-.2026367-.1914063.0791016-.2822266.2983398-.2026367.4897461.7360554 1.776884 2.3466473 2.9682617 2.7060547 2.9682617z"/></g></svg>