<svg id="Layer_1" enable-background="new 0 0 75 75" viewBox="0 0 75 75" xmlns="http://www.w3.org/2000/svg"><g id="Baby_Drinking" fill="rgb(0,0,0)"><path d="m29.7742996 24.6732121c-.364006-.102726-.6365166.336134-.3793945.6152344 1.9921417 2.1519871 5.1099281 1.4766293 5.8461914-.7548828.4072762-1.2328815-.099678-1.5751572-.5644531-1.3964844-.3642693.1449642-.3272438.4177074-1.065918.9199219-1.1761475.8043956-2.5968971.9749297-3.8364258.6162109zm4.756836-.3808594c-.0004883.0019531-.0014648.0039063-.0019531.0058594-.421463 1.2766342-1.9533691 1.94627-3.434082 1.3017578 1.3071021-.0141697 2.5129661-.4992142 3.4360351-1.3076172z"/><path d="m34.4315262 67.9486008c.3530273.3779297.8549805.4941406 1.2998047.5585938 1.2818031.1845779 2.6242676.090065 3.878418-.2753906 1.4602051-.4261475 1.434761-1.7410049-.0043945-2.234375-1.176281-.4049606-3.2733765-.7453003-4.3550415-.3433838-.0748901-3.8582764-.1425171-7.7008057-.2089233-11.5618896-.003418-.2060547-.1582031-.3271484-.3813477-.3681641-.2070313.0039063-.3720703.1748047-.3686523.3818359.0689087 4.0087891.1386108 7.9968262.2169189 12.0062256-.6319085.592987-.5887948 1.2902221-.0767823 1.8365478zm1.4448242-1.6845703c1.107502-.0956802 2.3298683.0441132 3.4853516.4423828h.0004883c2.74757.9455948-5.1998444 1.9000473-4.5429688.2109375.1191406-.3115235.6132812-.616211 1.0571289-.6533203z"/><path d="m23.6961746 69.0394211c.3530273.3779297.8549805.4941406 1.2998047.5585938 1.2818031.1845779 2.6242657.090065 3.878418-.2753906 1.4619465-.4263992 1.4326763-1.7417221-.0043945-2.234375-1.1691399-.402504-3.2671947-.7442245-4.3479004-.3466797l-.220459-12.3398438c-.0039063-.2050781-.1708984-.3681641-.375-.3681641-.0019531 0-.0043945 0-.0068359 0-.2070313.0039063-.371582.1748047-.3681641.3818359.2856445 13.0949936.1095543 12.4689407.3520508 12.6810303-.7623196.5997238-.7553845 1.3584137-.2075196 1.9429932zm1.4448242-1.6845703c1.107502-.0956802 2.3298683.0441132 3.4853516.4423828h.0004883c2.751545.9469604-5.1911488 1.8977737-4.5429688.2109375.1196289-.3105469.6137696-.616211 1.0571289-.6533203z"/><path d="m36.5067215 20.7347355.0019531.0029297c.2722015.4009418.9014816-.009903.6181641-.4248047-.1767578-.2597656-.359375-.5283203-.621582-.7480469-.3300781-.2773438-.7314453-.4082031-1.0947266-.3623047-.5869141.0751953-.9755859.5732422-1.2075195.8710938-.1274414.1630859-.0986328.3984375.0644531.5263672.7462768.568592.8871879-1.8528214 2.2392578.1347656z"/><path d="m28.8812332 20.3861027c.2837448-.7580948 1.2919025-.9225216 1.8037109-.3027344.1313477.1601563.3676758.1826172.527832.0507813.5527916-.4550419-.643013-1.3305454-1.6411133-1.1601563-.6240234.1054688-1.1708984.5566406-1.3925781 1.1484375-.1747169.4666939.5292702.7266884.7021485.2636719z"/><path d="m15.5663538 19.7390079c-.0100098-2.2700195.5700064-3.8800058 1.70996-5.7800303.2800293 1.0400391.5599976 2.0699472.8400269 3.1099863-.2299805-.8399658 1.2199707-2.2399912 2.4799805-2.7399912-.6942749 1.2727213-.9585609 3.2025061-.4500122 5.0800791.0418091.1394043.2944336.6535645.4251709.9987793-1.9109383.3391933-2.4152355 2.6837425-1.0325317 3.8981934.5912228.5187988 1.4877529.7575092 2.4072266.4382324 3.9634762 7.8811665 15.3765182 6.2090912 16.8527222-2.5546875.1003723-.0210896 1.057251.0354595 1.7542114-.7624512.515625-.5908203.6435547-1.4716797.3110352-2.1416016-.3327026-.673584-1.098999-1.057373-1.8059082-.9404297.7446671-4.6855354-4.4821739-9.2861338-9.421875-9.2861338-1.8500366-.0400391-3.7300415.4899902-5.3600464 1.4500732-3.3292656-6.8055563-9.1658468-6.4820008-11.3299551-1.6199951-.7300415 1.6499023-.8900146 3.5100098-.7800293 5.3199463.5100098-.789917 1.0300293-1.5899658 1.5499878-2.3800049-.7099612 2.7399905.0200193 5.8400891 1.8500364 7.9100353zm5.3837881.6397706c-.0314331-.0004883-.0628052-.0042725-.0941772-.0032959.0334473-.0551758.0646973-.1114502.100647-.164917-.0027466.0560302-.0047608.1120605-.0064698.1682129zm-1.3491821 1.6489257c.2116699-.5400391.7930908-.9030762 1.3602295-.8901367.0597534 1.0004883.2915649 1.986084.6710205 2.9152832-1.3953819.4162865-2.4829121-.877943-2.03125-2.0251465zm20.5913086-2.4091796c.3751564.7558575-.1910553 1.7544479-1.3005981 1.8100586.0538902-.5513115.1229782-1.0280933.043457-2.3143311.0487061.0054932.0995483.0015869.1502075-.0133057.399414-.1191406.9091797.1171875 1.1069336.5175782zm-11.3459473-7.2495127.4100342-1.4000244c.1445789-.4821262.8563862-.2448149.7199707.210083l-.4099731 1.3999023c-.0642815.2184029-.3053837.3148928-.4700317.2600098-.2000123-.0600586-.3099977-.2700195-.2500001-.4699707zm-4.1400146 5.8200693c.8600464-1.8200684 1.7300415-3.6301279 2.6100464-5.4500742-.5180779 1.9350529.2320232 3.8588228.539978 4.0899668.1199951.0700684.2700195.0400391.4099731.0100098 4.0035019-.7424908 3.9127083-.704916 4.0100098-.8299561.1332893-.1332083.1118202-.0649786.0914917-3.6168222.1876831.0456543.3746948.0900879.559021.1472168.4520264.7338867.7002563 1.6245117.9295044 2.489502 1.4735909.1461763 2.8550682.6389503 3.8895874 1.7073984.7966042 2.3105125.7325439 6.2277641-1.0443726 8.8255615-2.015625 2.9472656-6.2363281 4.2617188-9.6040039 3.0009766-3.541563-1.330204-5.9787254-5.3673782-5.2919922-9.2677002.3617554-.2301025.9407349-.4251709 1.1408081-.6861572.25-.3400879.0199585-1.3800049.0099487-1.7900391-.005127-.1591797-.0020142-.3242188-.0012817-.4871826.1464233-.2371826.3046265-.4686289.4744263-.6939707.458435.8276376.8933716 1.6712655 1.2768555 2.5512704zm-1.6751709-3.2709971c-.0414429.0512695-.0771484.1057129-.1174316.1577148-.0035877-.036253-.017395-.2891722-.017395-.4067383.1020144.1696082.0430697.0930654.1348266.2490235zm-6.8347779-6.8291015c1.2642479-1.3285975 3.3764248-1.1988153 4.4699707.2099609.3133125.4098063-.3160076.8514013-.5900269.460083-.8336887-1.0689588-2.4145107-1.1392798-3.3299561-.1600342-.1400146.1500244-.3800049.1600342-.5300293.0100098-.1499633-.1400146-.159973-.3699951-.0199584-.5200195z"/><path d="m42.4307327 37.9551926c.0044556.0087891.0038452.0175781.008606.0266113.4165039.7792969 1.4707031 1.3408203 2.2734375 1.5322266.0926514.0222168.1854858.019043.2785645.0334473l7.6149902 10.1169434c1.1892967 1.5810165 3.4456253 1.8962936 5.0151367.7041016l3.8212891-2.8710938c1.574707-1.1943359 1.8901367-3.4482422.7036133-5.0244141l-6.5474243-8.6970215c.4099121-.5015869.5962524-.9945068.562561-1.4943848-.0576172-.85742-.8198242-1.5976543-1.7734375-1.7216778-.3840332-.0498047-.7941895.0180664-1.210144.1489258-.8522339-.7568359-1.9855347-1.0432129-3.0540161-.8372803l.3485718-.2635498c.4490356-.3359375.5397949-.9729004.2037354-1.421875-.6849442-.8485775-.6824455-1.0340958-1.0738525-1.2261963-.0180054-.0333252-.015625-.0736084-.0443726-.1011963-.6216202-.5972977-1.6867065-.2613888-2.4404297.1464844-.9945183-.9569912-2.7575417-1.9354725-4.2338867-1.5644531-.2034912-.2097168-.40979-.4177246-.6479492-.5957031-.5245361-.3798389-.7197418-.3028851-.8198242-.3310547-1.0352707-.0277004-1.6052628 1.3747692-.5239258 2.3798828.083374.0710449.1642456.112793.2459106.1704102-.1728516.5021973-.2029419 1.1003418-.0828247 1.8295898.1064453.6474609.378418 1.2324219.6499023 1.7978516-.5483398.6435547-.8173828 1.5195293-.7255859 2.3955059.0124512.1196289.088623.2043457.1837158.2634277.0166626.0783691.0565186.1501465.0925903.2243652l-2.5604858.2504883c-.4844589.0458145-.4334793.7865562.0722656.7460938 2.8738136-.3021355 2.7718124-.2244949 2.9378662-.3378906l.338623.4481201c.3360596.4490967.9729004.5397949 1.4219971.2036133l.3533936-.2655029c-.1730957.3397217-.2905884.7058105-.3496704 1.0880127-.3994141.3311768-.9891357.8829346-1.1292114 1.4976807-1.2106323.1098633-2.4259644.1364746-3.6383057.0865479-.4816284-2.262085-.9890747-4.5169678-1.5274658-6.7459698-.0664101-.2699356-.4019966-.3817616-.6147461-.1914063-.3549805.1513672-2.2250977.5996094-2.503418.6523438-3.194458.6189709-6.7344456.352314-9.9223633-.9228516-.566679-.235321-1.1804218-.533329-1.8647461.0166016-1.0123253.8582458-1.1238422 2.2971859-2.8588867 8.9140606-.0306149.1004448-.6698627 2.5034485-.6738281 2.640625-.0053711.2070313.1577148.3798828.3647461.3857422.1933594-.0087891.3793945-.1582031.3852539-.3642578.0032597-.1158447.5966797-2.273037.6499023-2.4746094 1.6382751-6.2349243 1.8097191-7.8431587 2.6103516-8.5234356.4768944-.3848057.5214043.0200596 2.8613281.6972656 2.8697701.8145275 5.8942204.8913364 8.5898438.3671875 1.2041016-.2294922 1.9228516-.4238281 2.3520508-.5859375.4827271 2.0144024.9347534 4.0512676 1.3710327 6.0922832-4.2276611-.2927246-8.3809814-1.5302734-12.0370483-3.6450195-.4317627-.2473869-.804266.4010353-.3759766.6484375 3.8199463 2.2097168 8.1675415 3.4956055 12.5855103 3.767334.4796143 2.2780762.9290161 4.5644531 1.3441772 6.8449707.5895844 3.1656342.466053 5.3850479-2.5668945 6.8447266-1.0664063.5175781-2.2397461.7636719-3.6733398.9755859-3.7592773.5576172-7.5820313.6113281-11.3608398.1679688-2.8071728-.3233376-4.0057335-1.2633438-3.6538086-4.7734375.1811523-1.6777344.5522461-3.3261719.8554688-4.5751953.1164742-.479866-.610424-.6642647-.7285156-.1777344-.3085938 1.2714844-.6870117 2.9511719-.8730469 4.6757813-.3843536 3.8407402 1.014679 5.2173615 4.3129883 5.5947266 3.8376122.4521294 7.7269249.3967361 11.5571289-.1699219 1.5024414-.2216797 2.7387695-.484375 3.8901367-1.0429688 3.3512344-1.6127281 3.6345825-4.1340981 2.9785156-7.6552734-.4054565-2.2264404-.848938-4.4586182-1.3157959-6.684082.6436536.0222776 1.5556676.0931318 3.5708615-.0905764zm12.9827271-5.6228028c.0288086.4277344-.2407227.8896484-.8232422 1.4121094-.5390625.4833984-.980957.6845703-1.3657227.6445313-1.1293869-.1219864-1.622242-2.0494995-.2856445-2.7978497 1.4252434-.7223587 2.4263535.0250072 2.4746094.741209zm-3.0118408-1.295042c-.2344093.1328087-.4235268.2009773-.4627686.4229736-1.2393723 1.4523029-.2315826 3.6845684 1.390625 3.6845684.7211304 0 1.3283691-.4575195 1.7403564-.8240967l6.4769287 8.6033936c.9389648 1.2470703.6889648 3.0302734-.5556641 3.9746094l-3.8212891 2.8710938c-1.2444572.9432335-3.0260849.6917191-3.9638672-.5566406l-7.2608643-9.6464844c2.0141258-.2851372 2.9261246-2.3025398 2.069458-3.7128906-.6181679-1.0184975-2.0954208-1.52742-3.5797119-.7866211.5232697-1.1490364 1.1975479-1.215271 4.6778564-3.9594707.9720461-.7373048 2.303345-.7421876 3.2889407-.0704347zm-11.0013428-5.7733154c.2581635-.0021439.6310463.4068127.7312012.498291-.2546387.1638184-.4709473.3795166-.6508789.6335449-.0296021-.0229492-.0592041-.0361328-.0891113-.0615234-.5354424-.4977703-.3355523-1.0703125.008789-1.0703125zm.4033203 6.8642559c.2804108-1.0929089.9016914-1.0859528.6884766-1.5302715-.2945709-.6116009-.5944977-1.2041302-.6967773-1.8251953-.3072662-1.8666763.681118-2.7603893 1.8798828-2.6708984.9083138.033905 1.6514816.5154324 2.3535156.9746094.6990433.4579506.8334045.963131 1.2285156.7138672.258667-.1602783.526123-.2752686.7909546-.3654785zm2.3344727 4.0029297c.918644-.731266 1.8353806-.6878433 1.7353516-.6679688.625.0029297 1.2138672.3085938 1.5004883.7792969.3618164.5966797.2202148 1.4824219-.3217773 2.0166016-.5200195.5117188-1.3701172.7148438-2.1640625.5263672-.6848183-.1644783-1.7373085-.7679672-1.8197021-1.2558594-.0002441-.0030518.0011597-.0057373.0008545-.0087891-.0001831-.0015869-.0011597-.0026855-.0013428-.0041504-.0321657-.241333.1630247-.661499 1.0701903-1.385498z"/><path d="m48.7166824 15.0667658c-.2070313.0068359-.3696289.1796875-.3632813.3867188.078125 2.4746103-.7670898 5.0009775-2.3178711 6.9287119-.3138161.3916798.2804947.8485603.5839844.4707031 1.6621094-2.0664063 2.5673828-4.7714844 2.4838867-7.4228525-.0068359-.2070313-.1704101-.3457032-.3867187-.3632813z"/><path d="m51.3900223 18.0765324c-.3349609 1.7470703-1.3544922 3.3476563-2.7973633 4.390625-.4013634.2893543.0357513.898325.4394531.6074219 1.5957031-1.1533203 2.7236328-2.9238281 3.0942383-4.8574219.0931549-.4844075-.6430054-.6344147-.7363281-.140625z"/><path d="m50.7630692 24.5882511c1.2875977-.6162109 2.8525391-.6757813 4.1845703-.1640625.1933594.0761719.4101563-.0205078.4848633-.2148438.0742188-.1933594-.0219727-.4101563-.215332-.484375-1.5209961-.5849609-3.3071289-.5166016-4.7773438.1875-.4450646.2114926-.1259346.8940736.3232422.6757813z"/><path d="m52.0192337 42.6817551-.3624878 2.2525635c-.0469971.2919922.2406006.5147705.4866943.3768311l1.8981323-1.0634766c.274128-.1536598.3337631.0701065 2.2103882 1.0634766.2460938.1379395.5336914-.0848389.4866943-.3768311l-.3625488-2.2525635c-.0529404-.329792.2002869-.3540955 1.6321411-1.9117432.1990967-.2067871.0892334-.5671387-.1859131-.6097412l-1.6001587-.2478027c-.3471832-.081749-.6505356-.0083923-.7745972-.2763672l-.9490967-2.0494385c-.1230469-.2657471-.4785156-.2657471-.6015625 0-.9835625 2.0061417-.8949623 2.1977081-1.2016602 2.2449951l-2.1222534.3286133c-.2750854.0426025-.3849487.4029541-.1858521.6097412 1.402611 1.5258331 1.6859171 1.5774727 1.6320803 1.9117432z"/></g></svg>