<svg id="Layer_1" height="512" viewBox="0 0 512 512" width="512" xmlns="http://www.w3.org/2000/svg"><g><path d="m83.9 384s-41 39.9-41 60.5c0 22.6 18.4 41 41 41s41-18.4 41-41c0-20.6-41-60.5-41-60.5zm0 85c-13.6 0-24.6-11-24.6-24.6 0-8.6 13-25.4 24.6-37.6 11.6 12.1 24.6 29 24.6 37.6 0 13.6-11 24.6-24.6 24.6z"/><path d="m256 384s-41 39.9-41 60.5c0 22.6 18.4 41 41 41s41-18.4 41-41c0-20.6-41-60.5-41-60.5zm0 85c-13.6 0-24.6-11-24.6-24.6 0-8.6 13-25.4 24.6-37.6 11.6 12.1 24.6 29 24.6 37.6 0 13.6-11 24.6-24.6 24.6z"/><path d="m428.1 384s-41 39.9-41 60.5c0 22.6 18.4 41 41 41s41-18.4 41-41c-.1-20.6-41-60.5-41-60.5zm0 85c-13.6 0-24.6-11-24.6-24.6 0-8.6 13-25.4 24.6-37.6 11.6 12.1 24.6 29 24.6 37.6-.1 13.6-11.1 24.6-24.6 24.6z"/><path d="m75.5 182.3h16.4c0-31.8 25.8-57.6 57.6-57.6v-16.4c-40.8 0-74 33.2-74 74z"/><path d="m451.5 193.9c-1.8-34.9-28.2-63.9-62.5-69.1-18-58.1-71.9-98.2-133-98.2-41.3 0-79.8 18-106.4 49.6-3-.3-5.7-.4-8.3-.4-54.2 0-98.3 44.1-98.3 98.3 0 8.6 1.2 17.1 3.4 25.5-27.2 13.9-44.4 41.8-44.4 72.8 0 45.2 36.8 81.9 81.9 81.9h344.1c45.2 0 81.9-36.8 81.9-81.9.1-36.3-24.1-68.3-58.4-78.5zm-23.4 144h-344.2c-36.1 0-65.5-29.4-65.5-65.6 0-26.8 16.1-50.7 41-60.8l7.3-2.9s-7.4-16.8-7.4-34.6c0-45.2 36.8-81.9 81.9-81.9 9.1 0 15.4 1.4 15.4 1.4s31.3-50.5 99.4-50.5c55.6 0 104.4 37.6 118.7 91.4l1.5 5.7 5.8.4c29.8 2.1 53.2 27.2 53.2 57.1l-.4 9.2 6.8 1.4c30.2 6.3 52.1 33.3 52.1 64.1-.1 36.2-29.5 65.6-65.6 65.6z"/></g></svg>