<svg id="Layer_1" enable-background="new 0 0 75 75" viewBox="0 0 75 75" xmlns="http://www.w3.org/2000/svg"><g id="Baby_Toy" fill="rgb(0,0,0)"><path d="m33.392662 55.7810059c-.1999512.4899902.2600098 1.7199707.2399902 2.2700195-.1071205 3.7810402-4.1122913 9.4582291 4.1899414 10.8898926 5.114315.8653336 8.4284859.5365753 10.0407715.5291748.0001221.0006104-.0002441.0009766-.0001221.0015869.0146484.1972656.1787109.3476563.3740234.3476563.5553474-.0517654 1.0988693-.0749435 2.0078125-.2363281.2572403-.0457611.4057541-.3487015.236084-.5871582l1.6915283-.3349609c1.369873-.5499268 2.619873-1.5200195 3.2299805-2.8598633.8000488-1.7399902.4299316-3.7600098.0500488-5.630127-.380127-1.8199463-.8400879-3.7900391-2.2900391-4.9499512-1.5100098-1.1999512-3.6201172-1.1599121-5.5500488-1.0600586-2.8347168.144043-5.6712646.2805176-8.5131836.4228516l1.0148926-10.0211182c.1757813-.0584717.3205566-.2042236.4822998-.3712158.9570313-.9853516 1.4833984-2.3222656 1.4433594-3.6689453-.0804253-2.6196175-2.5842972-2.935936-3.1796875-1.1601563-.4017563 1.1940346.2448082 4.4080086.53479 4.8586426l-1.0533446 10.4005127c-1.335514.0671615-4.4298401-.0686264-4.9490967 1.1595459zm6.6746827-16.7507325c.2552414-.090847.6414223.0278053.8828125.3408203.5552826.7172394.5886192 2.6909447-.9667969 4.3759766-.0687408-.1553764-.4492683-1.767086-.5019531-3.1640625-.0243492-.5914078.025032-1.3597603.5859375-1.5527344zm6.9152832 25.3806153c.4545403-.2151566.7701035.4806747.3199463.6700439-3.8404846 1.8044586-8.6187973 1.1981735-11.8598633-1.3299561-.3986282-.3047676.0512886-.888195.4599609-.6000977 3.0799561 2.4101564 7.5400391 2.9101564 11.0799561 1.2600099z"/><path d="m53.0966415 54.1152344c-.069912.489399.6753082.5974007.7421875.1035156.6043701-4.3457031 3.4049072-8.2371826 7.3167725-10.2158203.3480644.359726.7975044.5070267 1.3551025.3955078 2.4743958-.5040436 1.7108994-5.5749016-.1230469-5.8398438-.5998573-.087822-1.3051224.2599144-1.6923828 1.328125-.262085.7189941-.3985596 2.3791504.0633545 3.4814453-4.0974121 2.0972901-7.0270996 6.1834717-7.6619873 10.7470704zm8.303711-13.9716797c0-.0009766 0-.0009766 0-.0009766.3563309-.9865036 1.0732918-1.219471 1.5449219-.1132813.3606567.8491898.570343 2.1978531.1699219 2.9960938-.3667717.7314034-1.1181107.8216171-1.4580078.4238281-.5947266-.6904296-.5214845-2.5830078-.256836-3.305664z"/><path d="m56.9433212 61.1679688c-.0821457.4905357.6570892.6108932.7402344.125.6905327-4.1030121 3.7056847-7.5451889 7.9119873-8.6617432.3461227.2627563.7636566.3277893 1.1876221.2388916 2.4967422-.5039711 1.6831818-5.5773735-.1201172-5.8388672-1.9346085-.2676506-2.3674316 3.3458633-1.5744629 4.9587402-4.3434601 1.2893753-7.4238892 4.9037896-8.1452637 9.1779786zm8.7304688-12.5517579c0-.0009766 0-.0009766 0-.0009766.1483765-.410778.4485855-.9066391.8808594-.8417969.716362.1044693 1.4175034 2.5613556.8339844 3.7246094-.2617569.5219803-.7515869.7391548-1.1376953.6313477-.0216522-.2309456-.2130203-.3436279-.3966064-.3305664-.5036622-.763916-.432129-2.4958496-.1805421-3.1826172z"/><path d="m12.0439091 15.5458984c3.8393517 3.4330997 3.9023256 3.6549511 4.7835693 3.520752l.0924072 8.3786621c-2.8222055.2022686-4.7753906 2.5561237-4.7753906 5.1240234 0 5.1009483 6.7335739 7.1111908 9.4980469 2.7763672.269165-.4166222-.3658829-.8226814-.6308594-.4042969-2.3732414 3.7081871-8.1171875 1.9751968-8.1171875-2.3720703 0-1.5507813.8330078-3.0058594 2.1757813-3.7978516 2.8762531-1.705389 6.6328125.4253349 6.6328125 3.7978516v.0556641c0 .4596024.75.4759026.75-.0556641 0-2.6878891-2.0839291-4.9257526-4.7830811-5.1252441-.0011578-.104744-.0970612-8.7798557-.0959473-8.6791992 2.8017578-1.6502686 5.8959961-2.8874512 9.1123047-3.6772461l.1054688 6.753418c-.9855957.1838379-1.7329102 1.0452881-1.7329102 2.0844727 0 1.1728516.9509277 2.1236572 2.1237793 2.1236572s2.1237793-.9508057 2.1237793-2.1236572c0-1.0500488-.7634277-1.9162598-1.7644043-2.0876465l-.1082764-6.9260254c2.5587158-.5698242 5.1834698-.8547363 7.7916241-.8410645l.0549316 8.0266113c-.2177734.0471191-.4154053.1740723-.5196533.3859863l-1.2128906 2.4160156-2.6406231.3837891c-.6502209.0949993-.9089108.8916759-.4384766 1.3515625l1.9228497 1.8994141-.45117 2.6298828c-.1117515.6452007.5676136 1.1415939 1.1494122.8359375l2.4003906-1.2421875c2.4110374 1.234436 2.3916969 1.3339844 2.7314453 1.3339844.471489 0 .8670998-.4264374.7802734-.9277344l-.4384766-2.6669922 1.9121094-1.8632813c.46772-.4571838.2101555-1.2555332-.4404297-1.3505859l-1.9912109-.2900391-.6816406-.1171875-1.1806641-2.3925781c-.0406494-.0827637-.0986328-.1486816-.1634521-.2062988.0040283-.0227051.0131836-.043457.0130615-.0671387l-.0557861-8.1315918c2.1962891.0601606 4.4272461.3243198 7.2011719.9707031l-.0180664 5.2885742c-.8143311.1794434-1.4245605.9031982-1.4245605 1.7714844 0 1.0031738.8131104 1.8164063 1.8161621 1.8164063 1.0031738 0 1.8164063-.8132324 1.8164063-1.8164063 0-.8803711-.626709-1.6136475-1.4580078-1.7801514l.0175781-5.1026611c2.8391113.717041 5.8054199 1.7814941 9.0268555 3.2227783-.0885963.1703491-.0258713-.4130745-.0457764 9.0106201-2.6622314.1960449-4.7753906 2.401123-4.7753906 5.1125488 0 2.8398438 2.3105469 5.1494141 5.1503906 5.1494141s5.1494141-2.3095703 5.1494141-5.1494141c0-2.7114258-2.1121826-4.9165039-4.7744141-5.1125488v-8.6962891c.0880127.0405273.1722412.0754395.2607422.1164551.4648438.2167969 1.0419922.1611328 1.4365234-.1386719l3.8222656-2.9023438c.6261024-.4741955.5705299-1.3541298-.1289063-1.7529297-2.727539-1.5546873-5.7265625-2.8359373-8.9130859-3.8066404-.1962891-.0625-.4072266.0507813-.4677734.2490234s.0507813.4072266.2490234.4677734c3.1337891.9550781 6.0810547 2.2138672 8.7607422 3.7421875.2269707.1282864.2479897.3515759.046875.5029297l-3.8222656 2.9023438c-.1767578.1328125-.4492188.15625-.6669922.0566406-5.6630859-2.6259766-10.5205078-4.1074219-15.2871094-4.6621094-7.5205059-.8769531-15.5341778.8417969-21.9833966 4.7119141-.2050781.1230469-.4882813.1279297-.6738281.0068359-.4376669-.2839622-.5503206-.4116592-3.7460938-3.2705078-.1848431-.1625729-.1239319-.3740215.0898438-.4873047 6.2303467-3.3288574 13.1173096-5.232666 20.0225811-5.6035156.2522316.1891737.7816277-.1032724 4.821167.0185547.0367432.0025635.0760498-.0058594.1140137-.0083008 3.2880859.1601563 6.5228271.6027832 9.6340332 1.355957.2001953.0527344.4042969-.0751953.4521484-.2763672.0488281-.2011719-.0742188-.4033203-.2763672-.4521484-2.9871826-.723877-6.0865479-1.1691895-9.2373047-1.3540039.4192352-1.6696901-1.1347237-2.9985352-2.8925781-2.9985352-1.3785782 0-2.7149925.8212934-2.9453125 2.1337891-.0466614.2139478-.0947571.4065757-.0507813.6191406.0153809.0780029.0476074.1557617.0714111.2336426-6.9499493.4088135-13.8166485 2.3310547-20.0665264 5.6696777-.6939725.371336-.79572 1.2117472-.236328 1.7089844zm24.6455059 9.6621094c.1162109.234375.3388672.3964844.5976563.4335938l2.6640625.4560547-1.9101563 1.8613281c-.1875.1826172-.2734375.4453125-.2285156.7021484l.3896484 2.6748047c-2.3903999-1.2234344-2.5781326-1.5138798-3.0996094-1.2421875l-2.4238281 1.1972656.4511719-2.6298828c.0449219-.2568359-.0410156-.5195313-.2275391-.7011719l-1.8876934-1.9345703 2.6396465-.3837891c.2587891-.0371094.4824219-.1992188.5976563-.4335938l1.2578125-2.3925781zm20.9921875 7.3642578c0 2.4257813-1.9736328 4.3994141-4.3994141 4.3994141-2.4267578 0-4.4003906-1.9736328-4.4003906-4.3994141 0-2.4267578 1.9736328-4.4003906 4.4003906-4.4003906 2.4257813 0 4.3994141 1.9736328 4.3994141 4.4003906zm-24.6435547-24.9970703.0263672-.1298828c.1688347-.9578805 1.2202911-1.5146484 2.2070313-1.5146484 1.3138885 0 2.5366974.9293175 2.1395264 2.2171631-1.2125626-.0541372-1.8167419-.124548-4.2944336-.019165-.1388169-.3867107-.1202012-.3690544-.0784913-.5534669z"/><path d="m16.2376347 31.1774902c0-.4243164-.3439941-.7684326-.7685547-.7684326-.4243164 0-.7684326.3441162-.7684326.7684326 0 .4245605.3441162.7685547.7684326.7685547.4245605 0 .7685547-.3439941.7685547-.7685547z"/><circle cx="19.128" cy="31.32" r=".768"/><path d="m19.2333622 34.640625c.4131088-.278553-.0136337-.9020119-.4199219-.6210938-.9554253.6446495-2.2061691.4796257-2.9716797-.2998047-.3479681-.3549728-.8826485.173233-.5351563.5253906 1.0382062 1.0562821 2.6888352 1.2294503 3.9267579.3955079z"/><circle cx="55.111" cy="31.32" r=".768"/><path d="m52.526329 31.7460938c.4960136 0 .496315-.75 0-.75h-1.5c-.4960136 0-.4963112.75 0 .75z"/><path d="m51.64254 33.5859375c-.3228493-.3766594-.891716.1090279-.5703125.4863281.9756813 1.1466751 2.7057762 1.3845901 3.9599609.4580078.4010887-.295536-.0490189-.8983765-.4453125-.6035156-.9110565.6731262-2.2008514.5324135-2.9443359-.3408203z"/><path d="m34.283165 40.1689453c-.0584412-.9396706-.3072243-2.7669716-.8417969-3.5351563-1.0694008-1.5301781-3.3865013-.5323372-2.7275372 2.0039063.3486347 1.3422966 1.2753849 2.521698 2.6029034 3.2183838l2.1177979 11.4837646c.0894165.4865227.8274078.3534622.7382813-.1367188l-2.0968018-11.3703613c.4307479-.4049796.2304115-1.2777442.2071533-1.6638183zm-2.8466778-2.9423828c.1308594-.3320313.4394531-.5742188.7275372-.5742188.0087891 0 .0175781 0 .0253906.0009766.5943718.0280609.8542023.7548637.9990234 1.3251953.3262749 1.3033524.4250488 2.9539795.3945313 3.1728516-1.8368397-1.0204697-2.4947987-3.0322456-2.1464825-3.9248047z"/><path d="m18.0360966 14.53125c-.4312172.2424135-.0611935.8961992.3691406.6523438 6.6875-3.7792969 15.1992168-4.7460938 22.7763653-2.5849609.1962891.0566406.40625-.0576172.4628906-.2578125.0566406-.1992188-.0585938-.40625-.2578125-.4628906-7.7607422-2.2138673-16.4921856-1.2236329-23.350584 2.6533202z"/><path d="m20.4781132 54.6003418c.8205566-.0668945 1.4538574-.5146484 1.4143066-1.0001221s-.7368164-.8248291-1.5576172-.7579346c-.8206787.0667725-1.4538574.5145264-1.4143066 1 .0395508.4855958.7368164.8249512 1.5576172.7580567z"/><path d="m20.9638309 64.6396484c.0195313-.2060547-.1318359-.3886719-.3378906-.4082031-.203125-.0146484-.3896484.1318359-.4082031.3378906-.1430397 1.5082245 1.3301983 2.6661835 2.7626953 2.1757813 1.3401546-.4588318 1.7055092-2.0657501.7832031-2.9082031-.367712-.3325806-.8719902.2190704-.5058594.5546875.5062199.4600067.2777843 1.3699722-.5195313 1.6445313-.4238281.1416016-.9189453.0585938-1.2675781-.2158203-.3496093-.2753907-.5478515-.7382813-.5068359-1.1806642z"/><path d="m6.7489867 60.8613281c-.1425781.1503906-.1367188.3876953.0126953.5302734.0732422.0693359.1660156.1035156.2587891.1035156.0986328 0 .1982422-.0390625.2714844-.1162109.8981938-.942749 2.1751714-1.510376 3.4812016-1.6223145-.1882992 1.205822-.1182756 1.7362251-.0760498 2.2001953-.9481153.6655579-1.4371681 1.5039024-2.0447998 2.5715332-.2447643.4312515.4054718.8022537.6523438.3710938.4852266-.8534241.8700495-1.5187759 1.4993896-2.0744629.220459 1.1386719.6723633 2.2124023 1.2921143 3.1635742-.4094238.4145508-.9085693.7387695-1.4614258.9050293-.4735994.1423111-.2611485.8608398.2167969.71875.6419678-.1933594 1.2178955-.5496826 1.6964111-1.0075684 2.4272184 3.0997086 5.8419342 3.5996094 9.7196045 2.9343262 3.3349609-.5703125 5.8642578-1.8095703 7.515625-3.6806641 3.1347637-3.5537109 2.4248028-9.1259766-.0732422-12.4609375-3.3247566-4.4330063-14.8610115-4.1628647-18.2833252 4.0529785-.9471483-.1387291-1.6433802-.8511391-1.8690186-1.6437988-.0566406-.1992188-.265625-.3154297-.4628906-.2578125-.1992187.0556642-.3144531.263672-.2578125.4628908.2900324 1.0252342 1.1399908 1.9086456 2.3088379 2.1517334-.09021.2716064-.1561279.5482178-.2225342.824585-1.5587158.0745849-3.0849614.7303466-4.1741948 1.8732909zm19.3427739-8.9912109c.2920246 1.1564865-.1218586 2.4115906-1.1357422 3.1630859.0205078-1.2869873-.3574219-2.5605469-1.0432129-3.6513672.6379395.0697021 1.4017334.2089844 2.1777344.4637451.0015869.0081788-.0008545.0162354.0012207.0245362zm-3.0952148-.552002c.008667.0157471.0118408.0332031.0229492.0480957.9199219 1.2177734 1.3349609 2.7841797 1.140625 4.296875-.0368767.2806625.2474861.509449.5224609.3916016 1.456377-.6378288 2.4142761-2.1503067 2.2105713-3.8955078.8531189.3844681 1.6490936.9288216 2.2161865 1.6875 2.3183594 3.0947266 2.9941387 8.2480469.1113281 11.515625-1.5351563 1.7402344-3.9169922 2.8964844-7.0800781 3.4375-2.4667969.4238281-4.4511719.2988281-6.0742188-.3710938-1.197876-.494873-2.2254639-1.3446045-3.0186768-2.3945313.4139404-.560791.7036133-1.2133789.8028564-1.9121094.0692768-.4849396-.6728668-.6074486-.7421875-.1054688-.0682373.4797363-.2495117.9411621-.5115967 1.3533936-.5554199-.9117432-.935791-1.9373779-1.0983887-3.0196533.2475586-.1234131.4990234-.2131348.7476807-.2438965.4910765-.0605125.4033957-.8065987-.0917969-.7441406-.2696533.0334473-.5169678.1081543-.7496338.2019043-.0292969-.6049805.0219727-1.2144775.1252441-1.8192139.3339844.0185547.6663818.0574951.989624.1417236.4837523.1203499.6663513-.6010399.1875-.7265625-.3336182-.0864258-.6734619-.1318359-1.0144043-.1586914.0688477-.265625.1436768-.5290527.2362061-.7893066.4633789-.0230713.923584-.1342773 1.3338623-.3635254.4356222-.2425346.0636148-.8969994-.3652344-.6542969-.2022705.1118164-.4260254.178833-.6549072.2248535 1.8923781-4.1252783 6.2281726-6.2572592 10.7540286-6.1010741z"/></g></svg>