<svg id="Layer_1" height="512" viewBox="0 0 512 512" width="512" xmlns="http://www.w3.org/2000/svg"><path d="m264.2 18.6v-16.6h-16.4v16.6c-132.5 4.3-238.9 113.4-238.9 246.9 0 36.7 5.9 58.5 5.9 58.5s29.9-60.3 82-60.3c49.9 0 79.7 58.4 79.7 58.4s27-57.8 71.5-57.8v196.5c0 18.1-14.7 32.8-32.8 32.8s-32.8-14.7-32.8-32.8v-24.6h-16.4v24.6c0 27.1 22.1 49.2 49.2 49.2s49.2-22.1 49.2-49.2v-196.5c43.2 0 71.5 57.8 71.5 57.8s28.9-58.4 79.7-58.4c51.4 0 82 60.3 82 60.3s5.9-21.2 5.9-58.5c-.4-133.5-106.8-242.6-239.3-246.9zm-100.3 245.4 1.2 11.5c-18-17.7-42.3-28.2-68.4-28.2-27.1 0-52.8 11.4-71.1 30.8-.2-4.2-.4-8.5-.4-12.7 0-120.6 93.1-219.9 211.1-229.9-54.8 62.9-81.1 145-72.4 228.5zm83.9-16.1c-25.7 2.1-49 14.2-65.6 33.4l-2-18.9c-8.2-78.5 16.4-155.7 67.6-214.8zm82.2 14.5-1.8 16.9c-16.5-18.1-39.2-29.3-64-31.4v-198.3c50 58.9 73.9 135.1 65.8 212.8zm156.4 15.8c-18.3-19.4-44-30.8-71.1-30.8s-52.3 11.2-70.4 30.1l1.4-13.5c8.7-83.7-17.7-165.8-72.6-228.5 119 9.1 213 108.7 213 230 .1 4.2-.1 8.4-.3 12.7z"/></svg>