<svg id="Layer_1" height="512" viewBox="0 0 512 512" width="512" xmlns="http://www.w3.org/2000/svg"><g><path d="m362.6 5.2s-47.2 53.8-84.4 108c-40.4-55.2-87.8-108.9-87.8-108.9s-188.4 213.5-188.4 315c0 103.9 84.5 188.4 188.4 188.4 74.6 0 139.1-43.5 169.7-106.5.8 0 1.7.1 2.5.1 81.3 0 147.4-66.6 147.4-148.4 0-79.5-147.4-247.7-147.4-247.7zm-172.2 486.1c-94.9 0-172.1-77.2-172.1-172.1 0-85.1 140.7-253.7 172.1-290.2 31.3 36.5 172.1 205 172.1 290.2 0 94.9-77.2 172.1-172.1 172.1zm176.7-106.6c7.6-20.4 11.7-42.4 11.7-65.4 0-51.6-45.1-128-90.5-191.9 29-42.9 61.1-81.7 74.2-97.2 26.7 31.4 131 158.4 131 222.8.1 71.2-56.2 129.3-126.4 131.7z"/><path d="m59.3 319.5h-16.4c0 81.3 66.2 147.5 147.5 147.5v-16.4c-72.3 0-131.1-58.8-131.1-131.1z"/></g></svg>