<svg id="Layer_1" enable-background="new 0 0 75 75" viewBox="0 0 75 75" xmlns="http://www.w3.org/2000/svg"><g id="Ball_Game" fill="rgb(0,0,0)"><path d="m50.4717674 54.3899422c.9699707-1.0200195.8000488-2.6400146.5100098-4.0200195-1.1899414-5.6700439-3.4299316-11.1199951-6.5599365-16-2.7779655-4.3499298-3.8810272.2817764-10.1199951-.9400635-.9145622-.1790619-2.1401024-1.2089653-2.6201153.8200684-.6821346 2.9121704-1.3668079 9.8633423-1.0299072 16.2800293.1878662 3.4648819 1.2266026 4.4329109 4.4400616 4.7600098 4.1098633.4199219 8.2600098.4599609 12.3798828.1298828 1.0800781-.0898439 2.2499999-.2399903 2.9999999-1.0299073zm-5.6699218-4.5999756c-1.3682823.7316017-2.9845009 1.0113907-4.6400146.6799316-.4874574-.0975532-.326191-.8434982.1500243-.7299804 1.3798828.2800293 2.8898926.0500488 4.1298828-.6099854.1800537-.0999756.4101563-.0299072.5100098.1500244.1000977.1799317.0300293.4099121-.1499023.5100098z"/><path d="m39.1106834 20.9189949c-.6096191-.0565186-1.1635742.5428467-1.2373047 1.3387451s.3605957 1.4869385.9702148 1.543457c.6096191.0563965 1.1635742-.5429688 1.2373047-1.3388672s-.3605956-1.4868163-.9702148-1.5433349z"/><path d="m35.0889549 21.1237068c.0737305-.7958984-.3605957-1.4869385-.9702148-1.543457s-1.1635742.5429688-1.2373047 1.3387451c-.0737305.7958984.3605957 1.4869385.9702148 1.543335.6096192.0566406 1.1635743-.5428467 1.2373047-1.3386231z"/><path d="m37.0690575 26.2538338c-.3261719.4462891-.9384766.6835938-1.4804688.5976563-.5439453-.0947266-1.0351563-.5302734-1.1933594-1.0605469-.1437607-.4760628-.8610916-.2588596-.71875.2148438.5322456 1.7828045 2.8993454 2.1935577 3.9980469.6914063.2936821-.4017564-.3134117-.8428918-.6054687-.4433595z"/><path d="m37.5055809 56.6737556-4.1556396 8.4382286c-1.3655128-.549057-4.6318245-1.0850601-4.9674053.3391113-.0888672.3818359.0800781.8388672.4521484 1.2207031.8796101.9025345 3.6077404 1.8935547 4.88867 1.8935547 1.8898621 0 2.191227-2.0103607.3001709-3.125l4.1539307-8.4345665c.2198981-.4468116-.4556085-.7738608-.6718751-.3320312zm-2.96875 10.4619103c.3797836 1.7793579-5.6633911-.488327-5.4238262-1.5136719.1207733-.5196915 2.6757088-.4265594 4.2349834.3178711.0031738.0015869.0048828.0046387.0081787.0063477.0028076.0012207.0057373.0007324.0084229.0019531.604248.291626 1.0653076.6831055 1.1722412 1.1875z"/><path d="m48.7809715 69.8798065c3.7627068 0 4.3093948-2.0990143 2.0771484-2.9482422-.7644043-.2919922-1.5922852-.4475098-2.4429932-.4641113l-2.3187256-9.6257286c-.116436-.489521-.8446121-.302536-.7285156.1757813l2.2830811 9.4775352c-1.0153618.0806656-2.6448746.2605896-2.7967529 1.2714844-.2296982 1.5375213 2.3731957 2.1132812 3.9267578 2.1132812zm-.6705322-2.6591797c.0041504 0 .0070801.0039063.0113525.0039063.007019 0 .0928459-.0117188.1474609-.0117188 2.0629044 0 4.378273 1.0483322 2.3837891 1.6484375-3.6253433 1.090622-7.8958969-1.5194702-2.5426025-1.640625z"/><path d="m56.0124168 18.5321541c.4052734-1.4257813-1.0966797-1.9003906-1.9941406-2.1845703-1.4994087-.4798117-2.8267174-1.1202202-4.0175781-1.9179697-.4140625-1.6464844-.890625-3.4931641-1.7587891-5.0986328-.2346077-.4320526-.897049-.0811863-.6601563.3574219.4729004.873291.8208008 1.8363037 1.112915 2.8017578-2.4597168.6420898-5.081543.6542969-7.5435791.0209961-2.3797607-.6123047-4.5977783-1.826416-6.4095459-3.4858398 3.4602509-3.9243469 8.37714-3.8654757 11.1019287-1.5439448.3056641.2695313.6005859.577148.8994141.9374995.3161964.3812943.8946342-.0963631.578125-.4785151-2.3957481-2.884974-6.1285782-3.4077001-9.1738281-2.2412109-2.4677734.9482422-4.5869141 3.0107417-5.8417969 5.6787105-2.3076153.1425781-4.5771465.78125-6.5800762 1.8515625-.7061768.3782959-1.1245117.9616699-1.2376709 1.6845703-1.322876 1.3946276-.8805332 2.790204.1669922 3.1564951-4.7391605 6.9961185-1.5286465 16.2491684 6.0462646 19.0710449.4752178.1728058.7189236-.5331078.2617188-.703125-7.2298794-2.6948967-10.2450447-11.6482716-5.5014648-18.2316895.1623287.0063725.0066128.0169697.3399658.0036621.9720993 1.0265408 2.0439758 1.5142155 3.8747559 1.3789063-.1254883.6657715-.1540527 1.3696289-.0882568 2.2543945.770113 12.0700531 15.2998829 11.270462 17.123045 3.8503418 1.7163391.1843987 2.5477257-1.9397907 1.2241211-2.9747314 1.3336182-.0438232 2.6580811-.3201904 3.8842773-.8443604.1503906-.0644533 3.7021484-1.5947267 4.1933593-3.3427736zm-29.9960918-3.7724619c1.8060532-.5550957 3.8153667 1.5795355 1.4599609 2.3876963-.8613281.2939453-2.6142578.5800781-2.9462891-.0595703-.4438228-.8516598.6239911-2.0672646 1.4863282-2.328126zm19.5869122 11.8300791c-2.2665062 4.8007374-12.5573387 6.1610222-14.8994122-2.5341797-.3519821-1.3466339-.5604191-3.1743717-.2419434-4.557373 2.2821903-.3586159 4.5515308-1.1514339 7.7858868-.0148926 2.828701.9915886 4.5258064 2.6558132 7.7838135 3.1289063.1911621 1.2260741.2429199 2.5498046-.4283447 3.977539zm1.2435302-1.6311035c.0839844-.6606445.0650635-1.2913818.0007324-1.8847656.0292969.008667.0576172.0205078.0897217.0217285.3427734.0117188.6806641.2392578.8212891.5517578.2721672.6067009-.1628914 1.3414077-.9117432 1.3112793zm-1.5111084-3.2243653c-2.4299469-.5552216-4.4372902-2.1177959-6.8398438-2.9580078-5.6307449-1.9821091-8.9857979 1.5570259-11.7217999-.6804199 4.6560993-.8946323 2.0105095-4.853549-.8989258-4.067872 1.1405296-.7916861 3.9380722-1.7826786 6.6939678-1.9128418.1416016-.0068359.2666016-.0927734.3242188-.2216797.0518799-.1157227.1142578-.2235107.1694336-.336792 4.6732178 3.2788086 10.7608643 4.553834 16.3342285 3.3226318.0231934.0291748.0316162.0688477.0627441.090332 3.6616135 2.501853 6.198822 2.0671301 5.8310547 3.3583994-.2910156 1.0361328-2.4648438 2.3027344-3.7666016 2.8574219-1.9335936.8271484-4.1318357 1.0214844-6.1884764.5488281z"/><path d="m18.59445 69.153244c4.1152344 0 7.4638672-3.3291016 7.4638672-7.4208946s-3.3486328-7.4208984-7.4638672-7.4208984-7.4638681 3.3291016-7.4638681 7.4208984 3.3486328 7.4208946 7.4638681 7.4208946zm4.2486572-2.2606201c-.0184898-3.2491951-4.0541725-5.0953484-4.4703369-5.5089073-.9394531-.6425781-1.9755859-1.4443359-2.5439463-2.5117188-.4716797-.8857422-.6376953-2.2509766.1113281-3.1552734.0350342-.0424805.0576172-.0905762.0711679-.1403809.7956543-.3308105 1.6679688-.5148926 2.5831299-.5148926 6.2393285.0000001 9.1453706 7.8443986 4.2486573 11.831173zm-8.0102548-10.6827354c-.3280029 1.0170898-.1176758 2.1651611.3338623 3.0136719 1.2999659 2.4423599 3.9571371 3.1261292 5.7314463 5.0185509.9091797.9716797 1.3339844 2.1064453 1.1640625 3.1123047-.0045166.0266113.0013428.0517578.0025635.0776367-4.4586754 2.6905518-10.1842051-.5149307-10.1842051-5.6997032 0-2.2946778 1.1721191-4.3216554 2.9522705-5.522461z"/><path d="m60.6139793 31.7557869c.9602852.3502197 2.3562584-.430872 3.25-.9169922.5400429-.2910156 1.1933632-.7177734 1.4560585-1.4375.3193359-.8769531-.1152344-1.9414063-.9892578-2.421875-.7568398-.4199219-1.7470741-.3837891-2.5830116.0859375-1.470665.8276463-2.3282852 2.8879089-1.8828125 3.9765625.0352783.0860596.0994873.1477051.1497803.2215576-3.4509277 3.2491455-8.4473877 4.7572021-13.114624 3.9337158-.4905396-.0856133-.6179123.6520576-.1308594.7382813 4.910305.8687439 10.1855392-.7218208 13.8244629-4.1921387.0076904.0029297.0123291.0095215.0202636.0124512zm1.5009766-4.0361328c.6025391-.3398438 1.3320313-.3730469 1.8544922-.0839844.5400429.296875.8359413.9882813.6455116 1.5087891-.1757813.4824219-.6835976.8056641-1.1064491 1.0341797-1.4101982.7606754-2.6551971 1.3043537-2.9492188.5791016-.2793464-.6828538.3677979-2.3694859 1.5556641-3.038086z"/><path d="m51.6755028 17.6005135c-1.5742188 1.7978516-4.3378906 2.4882813-6.5761719 1.6503906-.4619637-.1776791-.7292404.5280437-.2636719.7011719 2.5845222.9717522 5.6216316.1767998 7.4042969-1.8574219.3273659-.3717938-.2368774-.8685131-.5644531-.4941406z"/><path d="m12.8034334 46.2626228c.3972235.2935982.8461781-.3050117.4492188-.6015625l-1.8408203-1.3730469c3.594656.5950546 3.0848389.9225998 3.7705078-2.5605469.3339844.9072266.8271494 1.7597656 1.4501963 2.4892578.176609.2087173.5265198.163681.6337891-.1044922.5029297-1.2617188 1.1455078-2.4560547 1.9160156-3.5654297-.1083984 1.0566406-.0839844 2.1220703.0742188 3.1826172.0497475.3330994.4788399.4313583.6728516.1669922.5966797-.8115234 1.3427734-1.5126953 2.1875-2.0634766-.4931641 1.2304688-1.1640625 2.3740234-2.0019531 3.4101563-.3104782.3851776.2705879.8565979.5839844.4707031 1.1054688-1.3681641 1.9365234-2.9140625 2.4697266-4.5947266.100914-.3156242-.2301712-.5947838-.5234375-.4492188-1.0361328.5117188-1.9716797 1.2216797-2.7451172 2.0771484-.0898438-1.1875-.0019531-2.3769531.2626953-3.5458984.0861835-.3845139-.4034634-.6231003-.6552734-.3222656-1.0947266 1.3242188-1.9970703 2.7880859-2.6884766 4.359375-.6865234-.9628906-1.1464853-2.1025391-1.3115244-3.2685547-.0558357-.3972969-.6514568-.4585342-.7392578-.0195313l-.7363281 3.7373047c-.0458374.2495613-.0292883.2681351-.3779297.2109375l-3.6416016-.6025391c-.3943367-.0553474-.5954866.4399719-.2861328.6708984z"/><path d="m16.2048016 47.6405525c-.2909441-.402668-.8975267.0370483-.6074228.4394531.9400167 1.2192497.9715853 1.5478516 1.3095713 1.5478516.3010216 0 .484724-.3436432.3037109-.5947266z"/><path d="m17.9967937 47.5780525.1347656.9863281c.0666828.4950027.8103542.3920593.7421875-.1015625l-.1328125-.984375c-.0651664-.4864158-.8100738-.3948822-.7441406.0996094z"/></g></svg>