<svg id="Layer_1" height="512" viewBox="0 0 512 512" width="512" xmlns="http://www.w3.org/2000/svg"><g><path d="m264.2 322v-229.9h-16.4v229.9c-36.8 4.1-65.5 35.4-65.5 73.3 0 40.7 33.1 73.7 73.7 73.7s73.7-33.1 73.7-73.7c0-37.9-28.7-69.2-65.5-73.3zm-8.2 130.6c-31.6 0-57.4-25.7-57.4-57.4 0-31.6 25.7-57.4 57.4-57.4s57.4 25.7 57.4 57.4-25.8 57.4-57.4 57.4z"/><path d="m305.2 291.7v-19.3h41v-16.4h-41v-32.8h24.6v-16.4h-24.6v-32.8h41v-16.4h-41v-32.8h24.6v-16.4h-24.6v-32.7h41v-16.3h-41v-8.2c0-27.1-22.1-49.2-49.2-49.2s-49.2 22.1-49.2 49.2v240.5c-40 19-65.5 59.1-65.5 103.6 0 63.3 51.5 114.7 114.7 114.7s114.7-51.5 114.7-114.7c0-44.6-25.5-84.7-65.5-103.6zm-49.2 201.9c-54.2 0-98.3-44.1-98.3-98.3 0-69.6 65.5-92.9 65.5-92.9v-251.2c0-18.1 14.7-32.8 32.8-32.8s32.8 14.7 32.8 32.8v251.3s65.5 22.8 65.5 92.9c0 54.1-44.1 98.2-98.3 98.2z"/></g></svg>