<svg id="Layer_1" enable-background="new 0 0 75 75" viewBox="0 0 75 75" xmlns="http://www.w3.org/2000/svg"><g id="Ball_Injury" fill="rgb(0,0,0)"><path d="m31.0354748 46.8864288c-.6400528 1.7779274-.9602776 4.0348396.3701172 5.3652344.9257832.9375 2.2812519 1.0595703 3.5908222 1.1054688 9.6745605.2360725 10.2064247.6003036 11.2363281-.0214844.8925781-.5283203 1.2060547-1.5976563 1.3945313-2.5712891.96875-4.8017578 1.0791016-9.6845703.3271484-14.5136719-.2960358-1.8795242-1.0654755-3.9432983-2.9726563-4.0273438-.4160156-.0253906-.7851563.0605469-1.1542969.1455078-3.2315407.72472-4.9522514-1.933609-7.0224609-1.0927734-1.0380859.4189453-1.5029297 1.5419922-1.8515625 2.6933594-.5839844 1.9335938-1.1708984 3.8642578-1.7578125 5.7939453l-1.720705 5.6660156c-.1424503.4740601.5733128.6929932.7187519.2167969l1.71875-5.6640625c2.5405655-8.343359 2.0809517-9.0388947 6.0302734-7.3535156 1.0488281.4443359 2.1328125.6533203 3.1669922.6181641.8541603-.0438042 1.6258278-.4959412 2.3701172-.1474609.8613281.3359375 1.4453125 1.4355469 1.734375 3.2675781.7373047 4.7402344.6289063 9.5341797-.3222656 14.2519531-.1572266.8125-.4042969 1.6943359-1.0429688 2.0722656-.6208153.3755341-.6316566.2581329-10.8271484-.0839844-1.1756859-.0406418-2.696701-.1585236-3.3076191-1.1708984-.8709908-1.2315788-.4031506-2.8850441.0302734-4.3125.1045228-.2787246-.5832538-.7372322-.7089843-.2373047z"/><path d="m44.8841095 21.5896759c-.6816406 0-1.2342529.5526123-1.2342529 1.2342529s.5526123 1.2341309 1.2342529 1.2341309c.6815186 0 1.2342529-.5524902 1.2342529-1.2341309s-.5527343-1.2342529-1.2342529-1.2342529z"/><path d="m41.8587189 24.5163116c-.2080078-.0927734-.6298828-.1689453-1.1113281.3701172-.6063156.6803894-.8862419 2.7880783-.0683594 3.4423828.4805145.3838596 1.2119408.2005749 1.5917969-.2832031.7422714-.9505882.4789772-3.1315326-.4121094-3.5292969zm.0966797 2.1201172c-.052639.4699898-.1448975 1.0922279-.6259766 1.1464844-.6239319.0676556-.4421463-1.9274158-.0224609-2.3974609.0895424-.1002655.142437-.1563644.2431641-.1855469.1855468.0400391.4628905.9199219.4052734 1.4365234z"/><path d="m16.992506 27.7467804c-1.4205875-2.4696007-4.0441275-2.4052296-4.9628897-.8525391-.8999805 1.5212669.2239304 3.751915 2.9296875 3.9765625.6412506.0530586 1.8856478.1302395 2.4591055-.1705322 4.2429848 3.7871208 10.232729 5.4717598 15.8006611 4.416626.4907646-.0915794.3448715-.8325806-.1386719-.7363281-5.383791 1.0172119-11.1915302-.6322021-15.2535419-4.3078613.0332031-.3769532-.1030273-1.0548096-.8343506-2.3259278zm-1.9707021 2.3759766c-.8662109-.0712891-1.5947266-.3916016-2.0507813-.9013672-.4960938-.5546875-.6230469-1.3916016-.2949219-1.9462891.6131601-1.0376549 2.5297194-1.133112 3.6660147.8447266.4732666.8221436.6873779 1.4169922.7381592 1.7133789-.0140381.0112305-.0341797.0075684-.0467529.0209961-.0600586.0637207-.0789795.145752-.0864258.2264404-.243042.067749-.8131104.1348877-1.925292.0421143z"/><path d="m62.6350861 24.6618195c-.0048828.0039063-.0097656.0087891-.0146484.0126953-.7451172.7460938-1.1591797 1.6582031-1.1972656 2.6396484-.0106201.2819824-.0162354.723999.1162109 1.092041-.3248978.3027458-4.3134384 6.1166763-12.1865234 7.0065918-.4789391.0544777-.4272041.782608.0839844.7460938 4.9176025-.5565186 9.6192627-3.2456055 12.6014404-7.1954346.5458832.1879272 1.2044106-.3162441 1.4942627-.4471436 1.0311203-.4741516 2.1525879-1.0338707 2.5087891-2.2226563.1992188-.6650391.0458984-1.3867188-.3925781-1.8388672-.6735994-.6940574-1.9330408-.7716082-3.013672.2070314zm2.6875 1.4160156c-.3313217 1.107439-1.7668114 1.5576611-2.3740234 1.9013672-.1494141.0830078-.5332031.2998047-.6572266.2822266-.0449219-.0351563-.1464844-.1953125-.1181641-.9179688.0748062-1.9715595 2.0293427-3.2984524 2.9365234-2.3671875.2490235.2568359.3339844.6992187.2128907 1.1015625z"/><path d="m26.4163342 65.2594757c-1.4900494.1422882-1.851284 1.3880692-1.0976563 2.2089844.6716843.7395782 2.7808189 1.2568359 3.5527344 1.2568359.3183594 0 .7324219-.0712891 1.0068359-.4101563.5308838-.6604004.088501-1.286499-.3465576-1.7149658l5.7459736-12.493042c.2063332-.4501839-.473938-.7629166-.6816406-.3125l-5.6514912 12.2877197c-.6879883-.6062011-1.6005859-.9095458-2.5281982-.8228759zm2.8779296 2.5849609c-.3239422.4032745-2.2515774-.2443542-2.7431641-.4570313-2.2435608-.9678116.3253479-2.1981812 1.9414063-.7109375.0576172.0527344.125.1103516.1992188.1738281.6289062.5380861.7753906.779297.602539.9941407z"/><path d="m39.1663361 67.1872101c-1.3290329.6723785-1.2231216 1.9599762-.2138672 2.4589844.8224678.402298 2.5157127.1992798 3.4013672-.0195313.2363281-.0585938.9560547-.2363281 1.1503906-.8613281.2198486-.6987305-.2307129-1.1063232-.7198486-1.3597412-.0002441-.0299072-.0039063-.0577393-.0106201-.0845947l-.9746094-12.9384766c-.0391388-.5161362-.7843704-.4246254-.7480469.0566406l.9533691 12.6502686-.1174316-.0418701c-.881836-.3427735-1.8740235-.2900391-2.7207031.1396484zm.1171875 1.7861328c-1.1337967-.5640793.6835251-1.8626404 2.3330078-1.2265625.0722656.0283203.15625.0576172.2470703.0888672 2.8846817.9963302-1.6791954 1.576683-2.5800781 1.1376953z"/><path d="m32.0194855 28.5630646c1.6291504 0 3.1245117-.5744629 4.2924805-1.5303955 3.0535965 5.1527481 9.1867981 5.0541496 12.6053467.9396973.8773193-1.0551758 1.520874-2.3371582 1.9121094-3.737915.0671387.0610352.1557617.0982666.2519531.0982666.0097656 0 .0205078 0 .0302734-.0009766 2.8033066-.2297802 2.9569626-3.5590096.866333-3.7567139.1434135-.7882423.0729218-2.5467796-.6551514-4.5170898 2.2737007.4199715 3.5670471.7259521 4.8708496.7259521 3.1870804 0 5.3650932-2.3236294 5.7861328-4.8085938.0391197-.2327709-.1397629-.4515104-.4111328-.4355469-.6640625.0732422-1.3271484.1503906-1.9941406.2285156 1.6796875-1.5791016 2.7724609-3.8271489 2.9287109-6.1298833.0262604-.3829761-.4801025-.5559058-.6894531-.2285156-.6816406 1.0566406-1.9716797 1.7714844-3.5390625 1.9609375-.4876823.0577822-.4107246.8005109.0898438.7441411 1.2695313-.1533208 2.3867188-.6191411 3.2158203-1.3212895-.4619141 2.0771489-1.7236328 3.9960942-3.4628906 5.1894536-.1425781.0976563-.2001953.2802734-.1386719.4414063.1292419.3460388.1524467.2597618 3.1494141-.0810547-.5 1.7529297-2.0175781 3.21875-3.7734375 3.5820313-1.6613007.3381062-3.4027786-.1561165-6.3726807-.6947021-.8359032-1.8343668-1.9635544-3.327445-4.2587891-4.2720947.0211182-.4313965.0852051-.7937012.2174072-1.0390625.5283203-.9902344 1.6669922-1.6240234 2.5566406-1.8867188 2.341114-.7000551 4.8855743.0937386 7.3535156.1533203h.0087891c.4904404 0 .4995155-.7384267.0087891-.7500005-2.4478683-.0588565-5.0820084-.8700972-7.5849609-.1220703-1.3398438.3955078-2.4628906 1.2382817-3.0039063 2.250977-.1624756.3023682-.2623291.6745605-.3033447 1.1276855-4.411087-1.3444529-9.1032982.8113461-10.3571777 5.4729004-4.4913292-2.8257332-10.359621.4169827-10.359621 5.6772461-.0000001 3.710083 3.040039 6.7200928 6.7600116 6.7200928zm16.3216552-1.0701905c-3.1706581 3.8134041-8.7539406 3.8193493-11.4678955-.9805908 1.1743164-1.2058105 1.901123-2.8443604 1.9053955-4.6530762.4872055.2572136.9104004.3151054 1.3496094.2371826.2041016-.0361328.3398438-.2304688.3037109-.4345703-.0361328-.203125-.2236328-.3408203-.4345703-.3037109-.3564453.0634766-.7431641-.0253906-1.0361328-.2363281-.0699463-.050415-.1517334-.0671387-.2320557-.0643311-.1052246-.890625-.3850098-1.7286377-.8068848-2.479126.9681206-.557291 1.7327576-1.2345772 2.1746826-1.7895508.1099739.6920395.5177422 1.1844673 1.1044922 1.4511719 0 .0009766.0009766.0009766.0009766.0009766 1.2496872.5642242 2.5122414-.1335545 3.4472656-1.1591797.6345673 1.2025471-.0308533 2.0736141-.1357422 2.4707031-.05933.2209454.0942039.4442005.3212891.46875.805191.0906601 1.5393791-.5175076 1.9052734-1.2314453 1.4935112 2.1784363 2.7640724 1.3895397 3.7528076 1.6259766.1398927 2.6813965-.6330565 5.2495117-2.1522216 7.0771484zm3.8271485-4.3271484c-.4811096.3949203-1.0209198.3917828-1.1844482.4375.1520996-.694458.2424316-1.4123535.2679443-2.1448975 1.2232399-.6397838 1.9513626.857689.9165039 1.7073975zm-2.491211-8.8164062c.9890594 1.6199274 1.6214752 3.5725899 1.6083984 5.5996094-.1202126-.095623-.1821022-.1134892-.2835693-.1590576-.8210297-.3480453-1.3689156-.0735264-2.0386963-.1885986-1.0697327-.1786346-1.5965767-1.2873573-1.9980469-1.7763672-.1064453-.1289063-.2851563-.1738281-.4384766-.1074219-.479496.2077808-.2406273.8388081-1.0048828 1.3730469.3038025-.8756676.1528053-2.0152969-.5439453-2.8652344-.1526642-.1840324-.4321404-.1803646-.5800781 0-.7564735.9211464-1.8011131 1.8198586-2.8857422 1.3330078-1.1995621-.5477448-.352951-1.8821745-.9521484-2.1142578-.5668678-.2146006-.6248627.7931767-2.2597656 2-.2523193.1862793-.5230713.3381348-.7929688.4912109-.3537598-.4892578-.7684326-.9317627-1.2386475-1.3110352 1.5587808-6.7505274 10.4129296-7.1907511 13.4085694-2.2749023zm-18.0374774 1.0236816c.119873.1700439.0599365.4100342-.1101074.5200195-.869873.5600586-1.0998535 1.7600098-.9299316 2.6400146.1899414 1.0599365.8599854 2.0300293 1.4899921 2.8299561.1898994.3883476 3.6265602 3.5830708 2.1500244 6.4799805-.0699463.130127-.2000732.2000732-.3299561.2000732-.0600586 0-.1201172-.0100098-.1700439-.039917-.1900635-.0900879-.2600098-.3200684-.1700439-.5 1.2254105-2.3632183-1.8462391-5.24263-2.0699482-5.6801758-.6900635-.869873-1.4200439-1.9299316-1.6400146-3.1499023-.4174539-2.3064403 1.328184-3.9973554 1.7800292-3.3000488z"/><path d="m49.2561798 10.6764679c-.3882713.3022461.0673103.8962784.4628906.5898438 1.6416016-1.2841797 3.8496094-1.8505859 5.9072266-1.5195313.4867973.0803452.6111755-.6605721.1191406-.7402344-2.258789-.3671875-4.6855469.2587891-6.4892578 1.6699219z"/><path d="m37.2874298 36.5788116c.0492401-.4947701-.696701-.5701218-.7460938-.0761719-.2421608 2.3692055-.3294754 2.6155624-.0507813 3.0214844.3183594.46875.9306641.4775391 1.2246094.4814453 2.0441513.0315895 2.5429306.1249847 2.9794922-.2646484.4045868-.3644753.3788528-.7110329.5361328-2.5566406.0419388-.491642-.7054749-.5615501-.7480469-.0625-.3444519 2.6604652.4870377 2.1108437-2.7558594 2.1337891-.2412109-.0039063-.5283203-.0244141-.6171875-.1542969-.0995635-.1444359-.0342711-.4443321.1777345-2.522461z"/><path d="m23.1458263 18.6588898c-5.1640625.3974609-10.1845694 2.4599609-14.1357412 5.8066406-.3789434.3204651.1061697.8926888.484375.5722656 3.8320313-3.2451172 8.7011709-5.2451172 13.7080069-5.6308594.5065212-.0382289.4262676-.802185-.0566407-.7480468z"/><path d="m24.2132092 25.0661163c-2.0839844.3623047-4.0517578 1.3876953-5.5419922 2.8867188-.3499832.3523178.1805096.8800373.53125.5292969 1.3818359-1.390625 3.2070313-2.3408203 5.1396484-2.6777344.4849453-.0835324.3654022-.8210488-.1289062-.7382813z"/><path d="m35.907547 12.1745148.3681641-3.9785156c.0351639-.3802309-.4634361-.567699-.6816406-.2470708l-1.5478516 2.2402349-1.944336-4.8310553c-.1451187-.3627939-.6859779-.2875352-.7216816.1074219l-.4443359 5.1308599-4.7792969-2.2529297c-.1621094-.078125-.3525391-.0292969-.4599609.1132813-.1064453.1416016-.0996094.3388672.0175781.4726563 4.1638813 4.6912851 3.9674225 4.7167969 4.2910156 4.7167969.3204937 0 .4941368-.3798895.2822266-.6220703l-2.8291016-3.2382813c3.7392807 1.6985607 3.6841011 1.878788 3.9912109 1.7041016.3218536-.1860256.135828-.353302.5429688-4.3964849 1.6922817 4.0143104 1.5227985 4.2090507 1.92383 4.2548833.3995209.0242949.3514977-.2705946 1.4814453-1.7958984l-.2363281 2.5537109c-.0458908.4841193.7000161.5776462.7460938.0683593z"/></g></svg>