<svg id="Layer_1" height="512" viewBox="0 0 512 512" width="512" xmlns="http://www.w3.org/2000/svg"><g><path d="m89.6 331.5h-16.2c0 71.6 58.2 129.8 129.8 129.8v-16.2c-62.6 0-113.6-51-113.6-113.6z"/><path d="m487.3 250.2c0-73.8-138.1-248.2-138.1-248.2s-41.6 52.4-75 104.2c-33.2-48.3-71.1-96.1-71.1-96.1s-178.4 225.6-178.4 321.4c0 98.4 80.1 178.5 178.5 178.5 79.5 0 146.9-52.2 170-124.1 65.4-11.5 114.1-68.8 114.1-135.7zm-284.1 243.6c-89.5 0-162.3-72.8-162.3-162.3 0-80.1 131.6-255.3 162.3-295.1 30.7 39.8 162.3 215 162.3 295.1 0 89.5-72.8 162.3-162.3 162.3zm174.6-125.3c2.5-11.9 3.9-24.3 3.9-37 0-53.3-51-141.3-97.5-210.6 25.6-40.4 53-76.9 65-92.6 25.9 33.7 121.8 162.7 121.8 222 .1 56.4-39.2 105.2-93.2 118.2z"/></g></svg>