<svg id="Layer_1" enable-background="new 0 0 75 75" viewBox="0 0 75 75" xmlns="http://www.w3.org/2000/svg"><g id="Ballet_Dancing" fill="rgb(0,0,0)"><path d="m23.7629566 32.9988556c.511755.0365562.5549355-.6984444.0761719-.7460938-7.9419985-.8000125-13.9108419-7.9049263-13.0740967-16.0524883.8023682-.0048828 1.7094727-.6020517 2.3651123-1.1418467 2.3218307-1.9103022 1.5294609-4.7699108-.4091797-5.1201172-2.3800192-.4331408-4.29035 3.1455631-3.2285156 5.4160156.1489258.3179932.3426514.5090332.5355225.6335449-.9494782 8.4935542 5.2318697 16.1531173 13.7349853 17.0109855zm-12.984375-21.4658194c1.9947996-2.4345131 4.5618391.7314625 1.875 2.9462891-.8476563.6982422-1.6142578 1.0556641-2.0507813.9570313-.750142-.1687813-1.058916-2.3976746.1757813-3.9033204z"/><path d="m62.3899117 31.2039356c-1.1516609-1.5721951-4.4547844-1.217638-4.9951172.359375-.0252686.0732422-.0179443.1448975-.0280762.2177734h-16.7219238c-.2070313 0-.375.1679688-.375.3749981 0 .2070313.1679688.375.375.375 4.2226868-.0010376 12.6680603-.0032997 16.8907471-.0046387.5615883.8343315 2.814167 1.4409676 3.8250732 1.2595215.4960937-.0917968 1.7506752-1.5989532 1.0292969-2.5820293zm-1.1660157 1.8437481c-.328125.0625-.6787109.0068359-.9472656-.046875-5.1131783-1.0214291.1876564-3.1550541 1.5087891-1.3535137.227539.3095703.2189788 1.2575169-.5615235 1.4003887z"/><path d="m37.6887398 17.6804981c-.0167236-.0002747.2262115.0037403-2.3310547-.0380859-.4921188 0-.4986038.7407017-.0058594.75.0167198.0002728-.2262154-.0037422 2.3310547.0380859.492115 0 .4986-.7407036.0058594-.75z"/><path d="m28.3840504 17.8709278h-2.4013672c-.4960136 0-.4963131.75 0 .75h2.4013672c.4960136 0 .496315-.75 0-.75z"/><path d="m36.7639351 20.1658497c-.1894531-.078125-.4101563.0058594-.4931641.1962891-1.3018608 3.0182381-5.5438175 3.2705441-7.1611347.359375-.2404842-.4300976-.8974495-.0703297-.65625.3652344.8189926 1.4718533 2.5101013 2.5086193 4.3857441 2.4335938 1.765625-.0898438 3.421875-1.2392578 4.1210938-2.8613281.0820312-.1904298-.0058594-.411133-.1962891-.4931642z"/><path d="m17.7346363 46.9969025c.4635868.193161.7426548-.5001488.2910156-.6914063-4.6443253-1.9594498-7.4216461-6.7512169-6.8652344-11.71875.0224609-.2060547-.1259766-.3916016-.3310547-.4150391-.2109375-.0107422-.3916016.1259766-.4150391.3310547-.5931195 5.3199234 2.3894054 10.4128762 7.3203126 12.4941407z"/><path d="m15.5881519 34.8240509c-.2089844 3.4941406 1.1054688 7.0957031 3.5136719 9.6337891.343298.3613663.8858414-.1583595.5449219-.515625-2.2695313-2.390625-3.5068359-5.7822266-3.3105469-9.0732422.0290432-.4736099-.7155657-.5721092-.7480469-.0449219z"/><path d="m52.2580757 49.6834259c-.2021484.0458984-.3291016.2460938-.2841797.4482422.0444069.1987228.2409668.328598.4482422.2841797 5.9095802-1.3217163 9.7728539-6.9377136 9.0332031-12.8427734-.0623932-.501545-.8042946-.3943977-.7441406.09375.3330078 2.6621094-.3613281 5.4482422-1.9042969 7.6416016-1.5429687 2.1943358-3.9296875 3.7890624-6.5488281 4.3749999z"/><path d="m65.4963531 38.9070587c-.2128906-.0302734-.3994141.1025391-.4335938.3066406-1.0976524 6.4394531-5.4306602 12.2119141-11.3066368 15.0644531-.4476852.216774-.113102.8944435.328125.6738281 6.0898438-2.9560547 10.5800743-8.9384766 11.7187462-15.6113281.0341798-.2050781-.102539-.3984374-.3066406-.4335937z"/><path d="m43.871357 48.0554962c-1.4473801-.8741875-1.3017731-.8593559-1.4980469-.8554688.0618706-1.4666023-.5177383-3.5584412-.8599854-5.1447754-.3599854-1.8300781-.6300049-3.6800537-.9799805-5.4799805-.2600098-1.3701172-.3699951-2.7700195-.7299805-4.1201172-.2600098-1.0100079-.3400879-1.959959-1.3400879-2.5599346-.7863846-.439642-1.5344391-.5683975-2.5499268-.6700439-6.5868797-.7768192-7.1932373-.9486446-8.1099873-.5999756-1.2800293.5-1.8500977 1.9400635-2.2199707 3.2600098-.8400879 3.0299053-1.3200684 6.1600323-1.4001465 9.3099346-.002264.1006966-.0756264 4.5973549-.0733643 4.6983643-.1745663-.0295143-.1961136.0318184-.2961426.0623779-.2452984 0-.0732861-.0130081-3.0449219 2.4677734-.9059334.7700462-2.8932133 1.8446121-3.5126953 2.9667969-.922966 1.6661072.3826447 3.80159 2.8857422 3.5927734.8388672-.0683594 1.6308594-.3847656 2.3486328-.7089844.7832031 1.9628906 3.0839844 3.1923828 5.1533203 2.671875.7064915-.1766205 1.4035778-.5492554 2.0523682-.6633301l.9963379 8.0861816c-1.7900505-.0161896-3.7145672 4.1108932-2.1854248 5.2480469 1.1507607.8507767 3.1847019-.4760742 3.3690186-2.7479248.6170292 2.6267242 2.1203136 2.5476761 2.8223896 1.3201904.4609375-.8056641.6035156-1.7753906.390625-2.6611328-.1010742-.4248047-.5550537-1.3654785-1.1962891-1.8215332l1.7015381-5.8662109c1.1784668-.2373047 2.2714844-.9263916 2.916626-1.9460449 1.9315186 1.65588 4.8856735 1.3945045 6.4667969-.7080078.2646484.2265625.609375.3701172 1.0019531.4091797 2.0539207.1976585 3.026638-2.0845146 1.9384766-4.0419922-.8886717-1.5947265-2.4941405-2.5624999-4.0468748-3.4980468zm-11.8580323-16.9403057c.3900146-.2299805.8800049-.0999756 1.1099854.289917.2200928.3901367.0899658.8901348-.2999268 1.1101055-.3901367.2299805-.8801289.0899658-1.1101093-.3000488-.2199707-.3798809-.0899658-.8798809.3000507-1.0999737zm-.1300068 3.8399639c.3800068-.2199707.8800068-.0899658 1.0999775.3000488.2299805.3900146.1000977.8800049-.2900391 1.1099854-.3898926.2200928-.8898945.0899658-1.1098652-.2999268-.2299804-.3901367-.0900878-.8901367.2999268-1.1101074zm-2.2736816 34.1315918c-1.5023937.4494858-.9704494-2.2860794.3291016-3.5566406 0 0 0 0 .0009766-.0009766.1803303-.1767197.6705971-.5572357.8525391-.4003906.109375.0957031.2646484.4472656.3398438 1.1240234.1608942 1.4259644-.781973 2.6169434-1.5224611 2.8339844zm4.7509785-3.3847656c.1679688.703125.0537109 1.4736328-.3125 2.1142578-.3278885.5756226-.6815758.6081543-1.0107422.0332031-.5019531-.875-.8505859-2.5498047-.1982422-3.4179688.09869-.1315842.2364388-.2686005.3974609-.2314453.4570313.0947266 1.0175782 1.0566407 1.1240235 1.5019532zm-1.1743164-2.2541504c-.9013176-.0125771-1.3815403 1.1173248-1.439333 2.0179443-.0643311-.2471924-.1425781-.460083-.2406006-.6234131l-1.0533447-8.5490723c1.4418621.2798958 2.1928043 1.6788063 4.3330097 1.6398926zm12.8676758-8.5983887c-.2099609-.0214844-.5888672-.109375-.7763672-.4677734-.1288033-.2457123-.5016251-.2895775-.6572266-.0126953-1.2341995 2.1561813-4.2348251 2.5074577-5.9267578.6611328-.1953316-.2157707-.5139427-.1279984-.6171875.0957031-.7685547 1.6669922-3.0058594 2.5244141-4.6923828 1.796875-.9707298-.4212074-2.2424221-1.5764008-3.4062519-1.4199219-.0054932.0006104-.0096436.0040283-.0148926.0048828-.9626064.0464096-1.6945419.5094681-2.501709.7119141-1.8085938.4472656-3.8935547-.7675781-4.3876953-2.5585938-.0616589-.2240295-.3076153-.336338-.5185547-.2412109-.7949219.3671875-1.6162109.7460938-2.4736328.8154297-1.8527431.1547394-2.820137-1.3039665-2.1689453-2.4824219.3408203-.6171875 1.3779297-1.3408203 2.2109375-1.9228516 1.5011654-1.0477219.761858-.5763206 3.8535156-3.1455078.0585938-.015625.1083984-.0361328.1464844-.0517578l-.0742188-.3730469c.3903675.8416328-.0850372 2.9774055 3.5742188 3.8555908 3.6300049.8800049 7.3599873 1.0499268 11.0300312.539917 1.8153801-.2456055 3.2363968-.92659 3.6241455-2.7093506 1.7920227 1.1734047 3.9789696 2.1650505 4.9854736 3.9730225.7429924 1.3332902.3004647 3.053753-1.2089843 2.9306641z"/><path d="m20.9133472 8.4031534c.2095318-.4469986-.4692383-.7677026-.6796875-.3164063-.3820705.8557529-.7413979 1.8656683-1.5068359 2.4775391-.5400391.4384766-1.4482422.6259766-1.9785156.1679688-.3069458-.2694054-.7723827.0900927-.5761719.4599609 1.1266327 2.1101036 3.6298103 3.2531967 6.1043701 2.4429932-.2592773.8616943-.411499 1.6993408-.4313965 2.4510508-.0009766.0002441-.0019531 0-.0030518.0004883-.8408203.3222656-1.3740234 1.2685547-1.2128906 2.1533203.1621094.8857422.9941406 1.5830078 1.8935547 1.5878906.0598793-.0091038.0090714.0077877.105957-.0209961 1.0130615 2.4172363 2.8201904 4.6047363 4.972168 5.8891602 5.6801968 3.4013958 12.8556995.6211567 14.6754169-4.7182617 1.4604301.5050488 2.9442215-1.078371 2.0189209-2.5395508-.3878212-.6146336-1.0555687-.8594513-1.3189697-.782959.1013412-.5468788.2017021-1.0663128.0449219-2.480958 2.5816612 3.0424643 7.364666 2.0733099 8.6676025-1.526123.096344-.2685385-.1281776-.5509529-.4296875-.4951172-1.0361328.2197266-2.0507813-.4394531-2.6533203-1.125-1.4923439-1.6983643-1.8410492-4.3752527-4.0927734-5.530273-.8994141-.4599609-2.0068359-.4951172-3.0380859-.0888672-.9290771.3632813-1.6444092 1.0383301-2.0343018 1.8609614-1.7149658-1.3137202-4.0733643-2.0311275-6.7655029-1.9908442-1.9954853.0137939-3.8419209.4538574-5.4343281 1.2392578-.8891258-2.6214781-4.271862-3.1789136-5.927002-1.2333984l.5703125.4863281c1.3178616-1.5228629 4.0151443-1.0921187 4.6616211 1.1119385-1.7048645 1.0109935-2.9662132 2.2949853-3.9484863 4.8160396-1.8226109.8783636-3.8395615.4222546-5.1174316-.9553223.6552734.0048828 1.2587891-.2226563 1.7177734-.5957031.9060383-.7245961 1.2819958-1.7777282 1.7158203-2.7451173zm.9470215 8.5391855c.0398979.7004642.242548 1.4228306.4727783 2.09729-.4658203-.0910644-1.3615894-1.4371604-.4727783-2.09729zm6.1252442 8.1102295c-3.4328804-2.0488834-5.4973965-6.2775879-5.3707275-8.6181641.5505371-.534791 1.1066895-.8925791 1.7388916-1.0996103.6158562-.2025623 1.2249985-.2229395 1.1240234-.2109375.3977985 0 1.0556278.0868301 1.1513672.0888672.5062065-.0342026.2614021-.7475395 1.8681641-3.2460938.0966721 1.4822865.1918316 1.8192482.2021484 2.3505859.0078125.4726563.0175781 1.0087891.3457031 1.2519531.2453918.1826487.6711273.1283951.8486328.1445313 1.7242336.1807222 1.584444.1497297 1.9111328.2060547 1.1336956.1879854 1.3244114-.2001257 1.8193378-1.2724609.3675346 1.4333868.8142014 1.3871603 2.3837891 1.2402344.7125969-.0705538.4902763-.0361977 3.390625-.2011719.5800781.5068369.9941406 1.2099619 1.1445313 1.9501963.0244141.1220703.1083984.2236328.2246094.2714844.3689308.1482029.5224075-.3898888 1.178833-.0200195.3861923 6.7187233-7.8263436 10.8400745-13.9610615 7.1645507zm15.6757831-6.2138672c.5873833.9303303-.4672127 1.7108383-1.175415 1.4219971.1455078-.604126.2265625-1.2286377.229248-1.8719482.0544319-.0164948.0469971.0067348.1430664-.0789795.1800194.1338234.4991913.0494766.8031006.5289306zm.5097657-11.672852c2.7444534 1.4062276 2.7384949 6.6231704 6.5654297 6.7773433-1.6096115 2.9825163-5.7131348 3.0296564-7.4580078.3232422-.0943604-.145752-.2701416-.1962891-.4266357-.1478271-.4145203-1.9901915-1.3880043-3.9888763-2.8322754-5.3400879.58292-1.5628753 2.6742362-2.3715888 4.1514892-1.6126705zm-11.4892579-.1367187c4.7975426-.0931835 8.2618484 2.2418656 9.3857422 6.9697261.3038864 1.2818575.3337593 2.7292051.2333984 3.2109385-.3749428-.2006264-.781868-.2417755-1.1367188-.1591797-.2529297-.7939453-.7402344-1.5058603-1.4023438-2.0390635-.2056465-.1617718-.0932236-.0567465-3.2128906.0791016-1.9899826.1073036-1.9379158.3587217-2.1689453-.5195313-.101429-.3851767-.292141-1.0774088-.6914063-1.0917969-.1230469-.0019531-.2128906.0400391-.2861328.1191406-.2480469.2666016-.3925781.5849609-.53125.8935547-.4407349.9703903-.3946228.7269373-1.2451191.6435547-.4738197-.042367-2.1696339-.2596512-2.1044922-.1386719-.0858669-.1422186-.0618172-.7725153-.0849609-1.0068359-.2641869-2.7101345-.208231-2.6174841-.3242188-3.0332031-.0537109-.1894531-.2470703-.3037109-.4375-.265625-.3515625.0732422-.5615234.4433594-.7148438.7138672-.2593994.4443369-.9002571 1.3421917-1.5898438 3.0117188-.4189453-.0615234-.9199219-.0458984-.9277344-.0419922-.9882202.049736-1.9490013.382309-2.8056641 1.0400391.1380177-1.0779533.5464001-2.3002825.9804688-3.2216797 1.6318172-3.5582334 5.2111533-5.1373612 9.0644553-5.1640621z"/><path d="m34.0237007 9.4568644c1.0771484.5488281 1.9541016 1.4541016 2.4677734 2.5478516.2130089.4486132.8906059.1316023.6796875-.3183594-.5849609-1.2441406-1.5820313-2.2734375-2.8076172-2.8974609-.1845703-.0966797-.4101563-.0205078-.5039063.1640625s-.0205077.4101562.1640626.5039062z"/><path d="m42.3059273 9.0281534c1.0595703.5927734 1.9404297 1.5175781 2.4794922 2.6044922.2187424.440753.892334.1116304.671875-.3339844-.6064453-1.2197266-1.5947266-2.2587891-2.7841797-2.9248047-.4356385-.2401895-.7985459.4118052-.3671875.6542969z"/></g></svg>