<svg id="Layer_1" height="512" viewBox="0 0 512 512" width="512" xmlns="http://www.w3.org/2000/svg"><g><path d="m264.2 355v-156.4h-16.4v156.4c-27.7 4-49.2 27.9-49.2 56.7 0 31.6 25.7 57.4 57.4 57.4 31.6 0 57.4-25.7 57.4-57.4 0-28.9-21.5-52.7-49.2-56.7zm-8.2 97.6c-22.6 0-41-18.4-41-41s18.4-41 41-41 41 18.4 41 41c0 22.7-18.4 41-41 41z"/><path d="m297 322.4v-279.4c0-22.6-18.4-41-41-41s-41 18.4-41 41v279.4c-35 16-57.4 50.5-57.4 89.3 0 54.2 44.1 98.3 98.3 98.3s98.3-44.1 98.3-98.3c.1-38.9-22.2-73.3-57.2-89.3zm-41 171.2c-45.2 0-81.9-36.8-81.9-81.9 0-61 57.4-78.3 57.4-78.3v-290.4c0-13.6 11-24.6 24.6-24.6s24.6 11 24.6 24.6v290.4s57.4 17.3 57.4 78.3c-.2 45.2-36.9 81.9-82.1 81.9z"/><path d="m313.4 26.6h41v16.4h-41z"/><path d="m313.4 59.4h24.6v16.4h-24.6z"/><path d="m313.4 92.1h41v16.4h-41z"/><path d="m313.4 124.9h24.6v16.4h-24.6z"/><path d="m313.4 157.7h41v16.4h-41z"/><path d="m313.4 190.5h24.6v16.4h-24.6z"/><path d="m313.4 223.2h41v16.4h-41z"/><path d="m313.4 256h24.6v16.4h-24.6z"/><path d="m313.4 288.8h41v16.4h-41z"/></g></svg>