<svg id="Layer_1" enable-background="new 0 0 75 75" viewBox="0 0 75 75" xmlns="http://www.w3.org/2000/svg"><g id="Banana_Slip" fill="rgb(0,0,0)"><path d="m14.0113182 17.2502041c-.4167461 1.0317764.1185951 2.3828716 1.6098633 2.9755859.0454102.0175781.0922852.0263672.1381836.0263672.0010986 0 .0019531-.0009766.0030518-.0009766.7455482 3.8912067 3.3843689 6.3066139 6.0672607 6.7685547 2.5257778.4457245 5.57901-.7938061 7.3853149-3.7258301 2.0955982.2552567 2.9837494-1.0628986 2.5710449-2.2316895.0833988-.1706772 1.6218834-4.1166534 1.9523315-5.4731445.1175308-.4794235-.6089096-.6632557-.7285156-.1777344-.2604218 1.0665512-1.1037502 3.2668972-1.7506104 4.9406738-.282896-.2108459-.2712173-.1429443-.7894287-.4211426.011076-.0275879.1052723-.3783379.1100464-.4057617.2301044-1.3260803-.643383-2.235651-1.5245972-3.1147461-2.146471-2.0793152-2.255415-2.5072231-3.2910156-2.3359375-1.7289906.2861214-2.2532349-1.3082495-2.5507813-2.9892578-.0827179-.4776707-.7984123-.368824-.7416992.1103516.0532227.4423828.1137695.9443359-.0053711 1.3525391-.2585716.8207407-1.0585766 1.0030079-1.5175781.1933594-.034668-.0771484-.0864258-.2763672-.144043-.4833984-.2006836-.7255859-.2685547-.9716797-.6264648-.9716797-.0004883 0-.0014648 0-.0024414 0-.4444618.0328131-.6958122.9126453-.9306641 1.2910156-.9747715 1.4150896-2.2566414 2.1369457-3.8574219 2.6484375.6690025-1.639596.1968212-3.3829765.7304688-4.8730469.2504883-.71875.9033203-1.5009766 1.7436523-1.5175781.1113281-.0019531.2158203-.0537109.2851563-.140625 1.7314453-2.1591797 4.7231445-3.2324219 7.4545898-2.6660156 2.2186928.4370341 2.8716412 1.9077334 2.4501953 2.8486328-.1272926.2845354.1308193.5916348.4262695.5185547 1.8848591-.4304094 4.2015076.7498713 4.668457 3.0878906.0405273.203125.2382813.3291016.4414063.2949219.203125-.0410156.3344727-.2382813.2939453-.4414063-.4978485-2.4921837-2.7685757-3.9474831-4.9785156-3.7646484.4263344-3.7628598-7.2986393-5.1689458-11.2353516-.4765625-1.1142578.1142578-1.9306641 1.0712891-2.2568359 2.0068359-.6536093 1.8252563.0269012 4.1362686-1.1157227 5.5185547-.2185497.2642937.0544329.7009354.4306641.5888672.3514404-.1030273.6884766-.2070313 1.0203247-.3168945-.0214844.1047363-.0458984.2080078-.0638428.3144531-.5093563-.1259079-1.3626926.2731857-1.6713255 1.0424805zm1.5600586-.3115235c.0048218.0004883.0096436-.0019531.0145264-.001709-.0714045.7943153-.0967112 1.2814541.0463867 2.4648438-1.5380831-.820385-1.0894528-2.5509033-.0609131-2.4631348zm14.053833 5.6401368c.2860718-.5695801.5109863-1.1867676.6949463-1.8278809.0342407 0 .0679321.0063477.1018677.0114746.170105.0922852.338501.184082.5068359.277832.5280037.5975609.1170139 1.6049977-1.3036499 1.5385743zm-9.5216064-10.0434571c.0874023.3154297.1313477.4599609.1835938.5585938.6316051 1.125782 2.0366726 1.2828588 2.7216797.0771484.5267735 1.1656246 1.5410709 1.8664455 2.878418 1.6435547.2875977-.0478516.3969727-.0673828.7436523.2626953 2.1644287 2.1394196 2.7354774 2.6115341 3.0546875 3.2841797.2080078.4384766.2807617 1.0722656-.0258789 1.5-.0892277.1242046-.1022377.3019428.0116577.4475098.0030518.0039063.0032349.0095215.0064087.0134277-1.1581993 4.4146748-4.7592068 6.4773388-7.7202148 5.9589844-2.1894531-.3779297-4.1757813-2.2099609-5.0595703-4.6669922-.6211891-1.7438011-.8466568-4.0942268-.3417969-6.0136719 1.4630469-.5991821 2.8511752-1.6730518 3.5473632-3.0654297z"/><path d="m18.823391 18.3207607c.0014038.5744629.3751221 1.0393066.8347168 1.0383301.4596558-.0012207.8310547-.4677734.8296509-1.0424805-.0014038-.5744629-.3751221-1.0393066-.8347168-1.0380859-.4595948.0009766-.8310547.4677734-.8296509 1.0422363z"/><path d="m25.1728783 20.1330166c.4595947-.0012207.8310547-.4677734.8296509-1.0424805-.0014038-.5742188-.3751221-1.0390625-.8347778-1.0380859-.4595947.0012207-.8309937.4677734-.8295898 1.0422363s.3751219 1.0393066.8347167 1.0383301z"/><path d="m9.5235252 30.8253994c.8249607.6097527 2.9269218 1.7948399 3.8734741 1.161377 2.48421 1.810091 5.8798332 2.5156803 9.0552368 1.4694843.0078125-.0026855.0130615-.0087891.0205688-.0117188.4422607 1.2319336 1.1680908 2.3537598 1.9127197 3.4375 2.0784912 3.0258789 4.3214111 6.0327148 7.1829834 8.3720703 2.6001091 2.1294441 4.2742233 3.5570374 7.7340698.3964844 1.0634155-.9667969 2.1558228-2.0786133 2.9292603-3.2966309 1.9511108-3.003994.149044-4.4470634.0096436-5.510498-.9236832-1.4644661-4.6363716-5.2321281-6.274231-6.5256367-3.5895119-2.8348351-7.7482376-4.0373631-11.9877319-2.2236328-1.0247803.4448242-1.5081787.9089355-1.7885742 2.0205078-.1994629.8251953-.1707764 1.7080078.0241089 2.5407734.2279949-.2005272 2.6172028-.5429688 4.5316162-3.08008.2978897-.3964043.8982944.0555248.5986328.4511719-1.1641235 1.5441895-2.8213501 2.6875019-4.6741333 3.2353535.1427879-.2971725-.1387863-.6218948-.4542847-.5185547-2.9530869.9759026-6.1334801.3121643-8.4558105-1.4199238.0547485-.9274902-1.0880127-2.3825684-1.5925293-2.9746094-2.6468944-3.1135311-5.7170162.1847553-2.6450195 2.4765625zm18.6977539 4.4335957c1.2441406-.7792969 1.9819336-2.3408203 1.7949219-3.7978535-.0629826-.4898643.6794834-.5918083.7441406-.0957031.2265625 1.7646503-.6337891 3.5849628-2.140625 4.5283222-.0620117.0390625-.1308594.0576172-.1987305.0576172-.125 0-.2470703-.0625-.3183594-.1757813-.1098632-.1757812-.0566405-.4072265.1186524-.5166015zm-17.8383789-7.3642598c1.0395479.3491173 2.5436802 2.5354786 2.6020508 3.3237305-.038147.0515137-.057251.109375-.0657959.1689453-.5751696.2376633-3.3094883-.9504642-3.8214111-2.1645508-.3991547-.9473915.3536453-1.639801 1.2851562-1.328125z"/><path d="m12.1685448 22.8078213c-2.6588736-3.1276226-5.7097192.1881809-2.6450195 2.4765625.0224609.0166016 1.9067383 1.3496094 3.1948242 1.3496094.0756836 0 .1431274-.017334.2142334-.0270996 1.770874 2.8308105 4.9202271 4.810791 8.2467041 5.0964355.0112305.0009766.0219727.0009766.0327148.0009766.4745846 0 .5063038-.7062893.0317383-.7490234-3.0814819-.2636719-5.9998169-2.0905762-7.6522217-4.704834.6389008-.8643418-.722168-2.6200295-1.4229736-3.442627zm-3.0708008.875c-.4043713-.9597721.3694458-1.6377945 1.2851563-1.3291016.9878521.3317547 2.3212423 2.2540798 2.5576782 3.0874023-.2793303-.0475636-.4700069.1855755-.4273071.4277344-.8709498-.1354065-2.9651728-1.121006-3.4155274-2.1860351z"/><path d="m18.2027245 17.0480556 1.5556641-1.1572266c.3989677-.294838-.0501614-.8976278-.4472656-.6015625l-1.5556641 1.1572266c-.3979054.2940522.048294.8986073.4472656.6015625z"/><path d="m26.4141502 17.7082119c.3430672 0 .5091572-.4296665.2460938-.6582031l-.8320313-.7236328c-.3725243-.3243427-.8675041.2403488-.4921875.5664063.7769757.6395015.8353501.8154296 1.078125.8154296z"/><path d="m57.3057518 61.2521591c-.8960228-.4946251-.9835777-.8869705-1.3154297-.84375-.6607628.0777359-.6147079 1.9459572-.8901367 2.6035156-1.4512749 3.350502-5.0731812 3.3020477-7.137207 5.6621094-.1113281-.9023438.3051758-1.8447266.8081055-2.5039063 1.4788399-1.9168243 4.5179825-3.159935 4.9536133-5.8505859.066555-.4083443-.4811249-.5994301-.6918945-.2529297-.2915039.4873047-.7382813.8984375-1.3652344 1.2587891l.0004883.0009766c-1.147419.6693268-2.5490646.948349-8.5136719 2.6669922.5250816-1.533699 2.1281357-2.5094566 3.6611328-3.0546875 1.0518379.3721199 2.6003876-.4842453 3.40802-1.1381836.1036072-.0645943 2.3814278-.8126907 3.4498901-2.7407227.182045-.3338432.2439766-.8426819.2891235-1.1501465.151001.1262207.3500366.2033691.5800781.1894531.229187-.013916.5596313-.0090332.8520508-.0671387-.0088692.6614685-.0925446 1.2386398.0790405 1.8208008.3500977 1.2324219 1.6279297 1.8710938 2.7060547 2.0566406 1.5635223.2742043 2.6660385-.0969849 4.3476563.5605469.464695.1818352.7318954-.518158.2734375-.6992188-1.8218575-.7120323-3.0178566-.344883-4.4926758-.5996094-.8544922-.1484375-1.8579102-.6259766-2.1137695-1.5273438-.3050728-1.0305328.4468842-2.3570633-.7695313-3.4628906-.365078-.3271484-1.0404587-.4348488-1.4873047-.1308594-.8019676.5453682-.6284027 2.1115379-.9213867 2.6484375-.3462524.6245117-.8995972 1.1828613-1.6070557 1.6481934.5575676-1.575161-.5172806-2.6831932-1.8560181-2.0668945-5.0808144-.6964912-8.8597717-4.7113914-9.4163208-9.6213379-.0229492-.2060547-.2109375-.3427734-.4145508-.3310547-.2060547.0234375-.3540039.2099609-.3305664.4150391.5573425 4.9222794 4.1698189 9.0908508 9.2791748 10.1484375-.8695793.7098999-3.4909859 2.0351639-2.5449829 3.5161133-.1705322.0683594-.34552.1286621-.5100708.2036133-1.9145508.8935547-3.1333008 2.3046875-3.3432617 3.8701172-.0170898.125.0307617.2509766.1264648.3339844.2389793.2062225-.1925659.1965637 6.9790039-1.8144531.9312019-.2673721 1.9806137-.6021461 2.8076172-1.109375-1.0895576 1.4129906-2.8234901 2.2876434-4.0097656 3.8222656-.7641602 1.0019531-1.3491211 2.5654297-.7006836 3.9462891.0581055.125.1801758.2070313.3173828.2148438.0073242.0009766.0146484.0009766.0219727.0009766.1289063 0 .25-.0664063.3183594-.1767578 1.6879196-2.7197571 5.9556656-2.4575729 7.6572266-6.3925781.240284-.5728683.2484398-1.3351898.3920898-1.9072266 2.2346954 1.7669678 4.3552246 1.3161278 6.7182617 1.7109375 1.0419922.1796875 2.4375038.6318359 3.1689491 1.7636719.2180557.3396912.7571106.1349335.684082-.2695313-.2239456-1.2390175-.8706284-2.4177513-1.6679688-3.2529297-.3469925-.3575745-.8828583.1612206-.5419922.5195313.4043198.4208221.7786179 1.0037918.9946289 1.4375-.8056641-.5371094-1.7441444-.8046875-2.5117226-.9375-2.1193159-.3534929-3.9774969-.0429765-5.7207029-1.1181642zm-10.09375-2.3378906h.0004883c.7598839-.7200546 1.3582764-.9643555 2.0327148-1.5195313.3465614-.2846069.6272774-.5302734 1.0498047-.5302734.7174492 0 .6054993 1.1531868.1850586 1.65625-1.0909119 1.3074188-2.7028427 1.8530159-3.2792969 1.7539063-.5720749-.0953484-.7898903-.6028557.0112305-1.3603516z"/><path d="m56.0591698 48.1701279c1.7765503 0 2.0824966-3.1377029 1.6000977-4.8681641-.3961868-1.4208641-2.2468643-2.2627296-2.9512329-.7241211-.2971458-.1513748-.076088-.0549164-6.3632202 2.4331055-1.8398399.7433662-2.8862038.9630623-5.3100586-1.8056641-.1367188-.15625-.3735352-.171875-.5292969-.0351563s-.1713867.3730469-.0351563.5292969c2.6472588 3.0230408 4.0342903 2.8635178 6.1557617 2.0068359l5.9068604-2.3903809c-.0090523.3592873.0623322.8714485.0540771 1.1306152-.0462112 1.4914056-.0335197 3.723633 1.472168 3.723633zm-.7309571-5.163086c.1606445-.4765625.3974609-.5068359.5004883-.5068359.0087891 0 .0161133 0 .0229492.0009766.4169922.0107422.9443359.4980469 1.0849609 1.0019531.4572678 1.637146-.0046539 3.2690315-.4165039 3.6962891-.159668.1669922-.378418.2519531-.5527344.2099609-.8417168-.1985626-.5931091-2.7559204-.6586914-3.5283203-.0273437-.3203125-.0561523-.6513672.0195313-.8740235z"/><path d="m28.8291893 10.6750088c1.1679688 1.1884766 1.9082031 2.8232422 2.0307617 4.4853516.0371037.4996576.7844906.4414101.7480469-.0546875-.1357422-1.8369141-.9536133-3.6425781-2.2436523-4.9560547-.3459092-.3540612-.8835965.1710844-.5351563.5253906z"/><path d="m53.9844627 58.047081c-.5936012 0-.5871086.3713379 0 .3713379.2451783 0 .5937233-.3713379 0-.3713379z"/><path d="m62.6084862 61.437706c.5867691 0 .5937233-.371582 0-.371582-.5867691 0-.5937195.371582 0 .371582z"/><path d="m54.2571678 61.1296005c.5867691 0 .5937233-.371582 0-.371582-.5867691 0-.5937195.371582 0 .371582z"/><path d="m32.8955956 56.4259872c-.0844727.1894531 0 .4111328.1894531.4960938 2.674572 1.194313 5.8759575 1.4624825 8.7963867.6396484.465416-.1323242.2894821-.8451538-.2041016-.7226563-2.7021484.7626953-5.722168.5449219-8.2866211-.6025391-.1870117-.0820311-.4111328.0009767-.4951171.1894532z"/><path d="m33.0103416 60.2785263c1.840992.4912758 3.931057.3282394 5.7270508-.5351563.4436493-.2136955.1279602-.8890343-.3251953-.6757813-1.5966797.7685547-3.4956055.9472656-5.2075195.4863281-.4867859-.1214064-.6687737.5970079-.194336.7246095z"/><path d="m34.0103416 64.8361435 2.8955078-1.7792969c.4243355-.260952.0260696-.9007645-.3925781-.6386719l-2.8955078 1.7792969c-.4249306.2605896-.0259056.8998032.3925781.6386719z"/><path d="m19.7466698 22.7062588c-.0883789.1630859-.019043.3857422.1293945.4970703.0004883.0009766.0268555.0205078.0273438.0205078.2255764.1705132.5351677-.0084496.5625-.2607422.49193-.7545891 1.4952679-.9143028 2.1884766-.4150391.4003315.2900944.8415813-.3180599.4375-.609375-1.1362878-.8146572-2.7005311-.4197807-3.3452149.7675782z"/></g></svg>