<svg id="Layer_1" enable-background="new 0 0 75 75" viewBox="0 0 75 75" xmlns="http://www.w3.org/2000/svg"><g id="Basketball_Game" fill="rgb(0,0,0)"><path d="m27.0326214 59.1724205c.8101521.6741447 1.9715843.6887321 3.0390625.6542969 2.1568394-.0702858 3.2371311-.6469307 3.0165997-2.8115234-.1435547-1.3789063-.3613281-2.7617188-.6484375-4.1103516-.3639297-1.7146301-.92029-2.1525154-2.4716778-2.6025391-10.4374886-3.0385094-9.2463303-2.6487503-10.0205078-2.9326172-3.0709457-1.1407127-3.4502926-.3965683-3.3544922 1.7148438.0438004.958168-.088171 3.2259026.6835938 6.5263672.6031799 2.5936775 1.9209747 2.1053276 5.7060547 3.2666016.7319851.1867714 1.4975948-.2546577 1.59375-.9736328l.5458984-4.0488281c1.5641898 2.2092933.3577194 4.0315093 1.9101562 5.3173827zm-2.5400391-6.2607422c-.7430038 4.8731728-.5182247 4.9472351-.8408203 5.1640625-.1347656.0908203-.3173828.1191406-.4794922.0751953-4.1148911-1.2045593-4.7055492-.7341461-5.1650391-2.7099609-.7348595-3.1438332-.6212826-5.3514099-.6650391-6.390625-.0214844-.4619141-.0449219-.984375.0859375-1.3105469.2188759-.5281563 2.3524532.3921471 2.8193359.5283203 10.6003571 3.0701408 10.3191643 2.9157829 10.7753906 3.3037109.4140625.3535156.5595703.90625.6826172 1.4892578.2822266 1.3222656.4960918 2.6787109.6367168 4.03125.1346092 1.3003769-.075161 1.914257-2.2939434 1.984375-5.1897221.1692886-1.6233101-3.0087585-4.9150391-6.3769531-.2176416-.2235221-.5982835-.0971832-.6406248.2119141z"/><path d="m20.0082073 58.5962486c-.1972656-.0097656-.3798828.1572266-.3857422.3642578l-.2185059 7.6132851c-1.5811958.9518814-1.6809654 2.8642426.1472168 3.1689453 1.1770458.1923828 2.4109478.1886826 3.6923828-.0556641 1.6199493-.3074799 1.8544178-2.0719757.3720703-2.8339844-.8739014-.453125-2.2408447-.826416-3.4527588-.565918l.2095947-7.3051796c.0058595-.2070311-.1572264-.3798827-.3642577-.3857421zm3.7119141 9.2714882c.0908203.1337891.1582031.3613281.1054688.5703125-.0253906.0976563-.1005859.3945313-.7226563.5126953-1.1494141.2197266-2.3037109.2382813-3.4296875.0517578-.2373047-.0390625-.5576172-.1650391-.6796875-.390625-.2570419-.4800186.4591141-1.2957993.9658203-1.4882813.3203125-.1220703.6777344-.1748047 1.0449219-.1748047.8732452.0000001 2.3707466.4176103 2.7158203.9189454z"/><path d="m36.2651634 19.1299419c.4278564.1489258.9550781-.2492676 1.1777344-.8891602s.0563965-1.2792969-.3713379-1.4282227c-.4277344-.1486816-.9550781.2492676-1.1777344.8891602s-.0563965 1.279297.3713379 1.4282227z"/><path d="m42.2315941 18.6084576c-.4278564-.1489258-.9550781.2490234-1.1777344.888916s-.0563965 1.2792969.3713379 1.4282227c.4278564.1486816.9550781-.2492676 1.1777344-.8891602.2227783-.6398926.0563965-1.2792969-.3713379-1.4279785z"/><path d="m39.5052757 22.0181255c-1.0878868.757637-2.6059456.0335388-2.703125-1.2880859-.0259705-.341959-.4604073-.4721394-.6699219-.2021484-.4277344.5507813-.9121094 1.2939453-.8583984 2.171875.0767212 1.2738152 1.0340652 2.4072266 2.3730469 2.4072266 1.487999 0 2.1273041-1.2409401 2.4394531-2.703125.03125-.1503906-.03125-.3056641-.1601563-.390625-.1279296-.0859376-.2958984-.0830079-.4208984.0048827zm-3.2216797-.3710937c.5177917 1.0961266 1.701992 1.6475677 2.8720703 1.3417969-.9447898 2.8095111-4.0247039.8084411-2.8720703-1.3417969z"/><path d="m14.3480501 31.5288677c1.2460938-.3544922 2.6572275-.0878906 3.6894541.6914043.3913651.2949448.8499393-.2993584.4511719-.5996075-1.2148438-.9160156-2.8789072-1.2255859-4.343751-.8144531-.4750004.1350499-.2780285.8530179.203125.7226563z"/><path d="m19.1966839 29.6333599-3.0078125-2.609375c-.3761368-.3244171-.8660269.2416344-.4921885.5664063l3.0078135 2.609375c.3726101.3215694.8697548-.2383957.4921875-.5664063z"/><path d="m47.0257835 11.6802349c-.1015625-1.7177734-.9472656-3.3554688-2.296875-4.4257813-2.7513504-2.1818466-5.5320969-.9528918-6.2871094-.9501953-.8584861-.0311908-1.5277938-.5553083-2.3808593-.8808593-2.7388191-1.0382714-5.8408108.685894-6.2675762 3.7558594-.0126953.0878906-.0234375.1552734-.0332031.2021484-2.080452.2496538-3.5470219 1.5147562-4.1376953 3.1123047-.6708984 1.8125-.0908203 4.0410156 1.3798828 5.296875.0006104.0004883.0015869.0004883.0020752.0009766.9858189 7.8855419 11.4692287 12.4034367 17.343626 6.0527344 1.3575439-1.4216309 2.1898193-3.0827637 2.3878174-4.722168.6637192.0269794 1.4825058-.2419052 1.7322998-.4057617 2.413124-1.5756265 1.7727699-5.981701-1.4423829-7.0361329zm-4.0029296 12.4003906c-5.654808 4.8410931-14.6606331.3435726-15.3045635-6.6328125.0128174-.015625.0185547-.0354004.0327148-.0498047.2309189 1.2766457 1.5871143 1.6210594 2.4388428 1.1074219.4230556-.2533703.0422688-.8975887-.3867188-.6425781-.3564453.2167969-.8847656.1289063-1.1542969-.1923828-.2675781-.3203125-.2617188-.8554688.0126953-1.1689453.2744141-.3144531.8027344-.3896484 1.1582031-.1679688.3532448.2295094.7644691-.2250824.4814453-.5556641.5268345-.0986357.6784096-.4752464.9355469-.7548828.2762661-.3002281.0438995-.0275984 2.522459-2.3046875.8339806 1.9546375 3.3379288 2.5408497 4.9287109.9570313.4932861 1.1360493 1.9213219 1.7293024 2.9746094.8515625.0166016.4296875.0703125.9443359.6181641 1.3984375.4814453.3984375 1.1386719.5322266 1.7363281.3974609-.0361328.5039063-.0097656 1.046875.2441406 1.5419922.2997322.5856495.9781418.9893494 1.6591797.8837891.0301514.0500488.0599365.0690918.092041.1020508-.1790236 2.0241222-1.4392852 3.9028167-2.9895018 5.2299804zm6.086914-7.6044922c-.1640625.6943359-.546875 1.2832031-1.0527344 1.6132813-.2880859.1894531-1.3144531.390625-1.4707031.2558594.1021004-.3345356-.2721443-.6140366-.5634766-.4228516-.3670387.2387714-.8953247-.0110435-1.09375-.3994141-.2607422-.5078125-.1699219-1.1923828-.0976563-1.7431641.0405197-.3198967-.3133698-.5406141-.5820313-.359375-.4394531.2978516-1.0800781.2666016-1.4902344-.0732422-.3291016-.2724609-.3378906-.5380859-.3505859-.9394531-.0149918-.43643-.0282402-1.0461569-.4199219-1.1044922-.1435547-.0302734-.2783203.0351563-.3603516.1484375-.4628906.6328125-.8369141.8320313-1.3408203.7148438-.6025391-.1416016-1.0585938-.7607422-1.0175781-1.3789063.0265503-.4026775-.5222931-.5632153-.7089844-.1943359-.4277344.8466797-1.4111328 1.3662109-2.3505859 1.2216797-.9316406-.1376953-1.7304688-.9121094-1.8974609-1.8417969-.0531807-.2935734-.4096146-.4068155-.6230469-.2099609-2.9198055 2.6872559-2.6934891 2.4126129-3.0058575 2.7539063-.3628864.3962126-.3290768.5340967-.5927734.5419922-.4725323.0277958-1.3486748-.2265587-2.1171875.7646484-.1806641.2324219-.3105469.4960938-.3837891.7724609-.1582031.078125-.3007813.1865234-.4189453.3173828-1.0019531-1.0898438-1.3603516-2.7695313-.8457031-4.1601563.4912109-1.328125 1.7822266-2.3691406 3.2119141-2.5888672l.2236328-.0292969c1.0126266-.1155815.5408611-.6994381 1.0712891-1.90625.8664017-1.9901538 3.0810528-2.8156509 4.9628887-2.1044922.820507.3124228 1.6381035.9296875 2.6367188.9296875.133503-.0162101.2119141.0394392 1.0429688-.1689453.1000061-.000577 2.5367355-.8307672 4.7871094.9570313 1.2304688.9746094 2.0048828 2.5566406 2.0234375 4.1269531.0019531.1708984.1191406.3193359.2851563.3603516 1.7382812.4277344 2.9482421 2.4042969 2.5390624 4.1464844z"/><path d="m47.7746849 38.2661705c-2.0911865-2.4929199-4.9443359-4.2810059-8.0799561-5.0351563-.06604-.0180664-.1295166-.0107422-.1898193.0063477.2051506-2.1767273-.5762405-3.0206509-2.0328369-3.8120098-.1010132-.0560799-5.7831192-3.2137413-6.2832012-3.5214844-2.127285-1.3033791-3.3740826-1.4651051-4.9199219.828125-2.3994141 3.4560547-4.4335938 7.1328106-6.046875 10.9267559-.1933498.4542542.4943638.7513123.6894531.2929688 1.59375-3.7460938 3.6035156-7.3779278 5.9755859-10.7958965.2880859-.4267578.6035156-.8662109 1.0078125-1.1445313 1.1187954-.8012829 2.234211.1786785 3.4902344.8828125 5.7773914 3.1989727 5.6457195 3.1475754 5.76367 3.2119141 1.3520355.7302113 1.930603 1.3771057 1.4990234 3.8632793-.505249 2.796875-1.2764893 5.5507813-2.2808838 8.1962891-.2578125-.0402832-.4923096-.0437012-.6896973.0065918-.0546875-.0532227-.1210938-.0952148-.2022705-.1071777-5.6652584-.8402901-9.2677612-6.6332588-7.428709-12.1191387.1560917-.4682789-.5523415-.7140694-.7109375-.2382813-1.9188766 5.7264233 1.656002 11.9782619 7.7878399 13.0493145-.1239014.4748535.0731201 1.072998.3563232 1.6074219-1.8042374 4.2702065-3.2327576 4.6412392-6.7320538 3.4360352-2.0605469-.7001953-4.1318359-1.4003906-6.1894531-2.0888672-1.7034035-.5838242-3.4104481-.7635193-3.3759766-2.6513672.0115604-.861908.4594555-2.0230026.9306641-3.1494141.0800781-.1914063-.0097656-.4111328-.2001953-.4912109-.1914063-.078125-.4101563.0087891-.4912109.2001953-.5428047 1.2966995-.9768848 2.4524651-.9892578 3.4287109-.0390625 2.1689453 1.6630859 2.6875 3.1660156 3.1455078.2412109.0732422.4824219.1464844.7197266.2275391 7.1663742 2.3989868 7.7407684 2.7324219 9.1259766 2.7324219 2.3829975 0 3.5396862-1.8265076 4.5162334-4.0107422 2.433548 3.4637222 5.813324.5156822 3.7728271-1.4951172-.4960594-.4876709-1.1105194-.7004738-1.5400391-.8847656-.3636475-.1523438-.7364502-.2983398-1.0948486-.4140625 1.1208954-2.968914 1.9456444-6.1316109 2.3179932-8.4375.3608704.2167969 4.3203354.6989059 7.7935791 4.8447266-.6198196.9319.0381088 2.1738358 1.1190186 2.4882813 1.0151596.2981033 2.9583206.0371056 4.0166016-.2080078.2412109-.0556641.8037109-.1855469 1.0419922-.6621094.9313354-1.8519594-3.7275963-3.0364877-5.6124268-2.1083986zm-8.5682373 5.9160156c1.2549896 1.2382545-.6751747 2.8164215-2.3330078.9335938-.5361328-.609375-1.2333984-1.9111328-1.0410156-2.2089844.2791061-.1810379 1.7779312.4252205 2.0712891.5478516.3864249.1647453.9168891.3478012 1.3027343.727539zm12.9707031-3.8759765c-.9104691.2106819-2.7855949.4709549-3.6376953.21875-.8490334-.2464943-1.2315254-1.4310112-.2011719-1.6816406 1.2566719-.3039818 2.7976418-.1019745 3.8457031.4755859 0 0 0 .0009766.0009766.0009766.1582031.0869141.3554688.2070313.4677734.3691406.255581.3681564-.0501708.5181198-.4755859.6171875z"/><path d="m51.0003929 68.2290649c3.0810547-1.3046875 5.4746094-4.1357422 6.2480469-7.3906288.0478516-.2021484-.0771484-.4042969-.2783203-.4521484-.2050781-.0488281-.4042969.0771484-.4521484.2783203-.7177734 3.0273438-2.9443359 5.6611366-5.8105469 6.8730507-.4531174.1928635-.170414.8805389.2929687.6914062z"/><path d="m57.3412132 67.7232056c2.3652344-1.9785156 3.7802734-5.0009804 3.7861328-8.0849648 0-.2070313-.1669922-.3759766-.3740234-.3759766-.0009766 0-.0009766 0-.0009766 0-.2070313 0-.375.1669922-.375.3740234-.0058594 2.8652344-1.3203125 5.6738319-3.5166016 7.510746-.3838996.3226624.1090813.8900224.4804688.576172z"/><path d="m41.5794945 51.4448814c.1582031.9335938 1.0234375 1.7255859 1.9677734 1.8007813 2.5809784.2253265 3.2788086-3.0355453 9.9090576-6.6508789-1.2996826-.8222656-2.8354492-1.3051758-4.4871826-1.3051758-3.8035889 0-7.0142822 2.5258789-8.0548096 5.9904785.2067681-.2684326.6139718-.1408768.6651612.1647949z"/><path d="m40.6648216 54.9878502c.0217285-.0004883.0407715-.0078125.0640869-.0039063 5.6132813.4267578 11.3486328-1.3671875 15.7314453-4.9042969.022583-.0180664.0489502-.0263672.0740967-.0385742-.5715332-1.1787109-1.4069824-2.2019043-2.43396-2.994873-.0323486.045166-.0721436.0854492-.1245117.1135254-6.4774704 3.4810143-7.5006218 7.0800285-10.4882813 6.8339844-1.291626-.1035156-2.4300537-1.1450195-2.6481934-2.4228516-.3418311 1.3069611-.3369978 2.3608704-.1746825 3.4169922z"/><path d="m48.0619164 58.1685143c2.4533806-1.1477661 5.3968086 1.2086372 7.3515625-.2089844.2652817-.1923637.631855.0242996.5894775.3510742 1.4517632-2.2112732 1.804451-4.995121.8304443-7.5751953-4.3598976 3.4803009-10.1315269 5.4062233-16.0186768 5.0019531.7030029 2.8242188 2.8254395 5.0847168 5.572998 5.9702148-.3215331-1.3706054.3916017-2.9379882 1.6741945-3.5390624z"/><path d="m47.1754417 61.9187584c3.3723488.7329674 6.7040024-.6427917 8.6265869-3.3215332-2.3205414 1.6137733-5.2920303-.7513657-7.4217529.2509766-1.0390625.4863281-1.5966797 1.8115234-1.2177734 2.8945313.0206299.0588378.0213623.118164.0129394.1760253z"/><path d="m39.0189476 8.3999615c-.4813728-.1249723-.669529.5986643-.1914063.7246094 1.8574219.4882813 3.5185547 1.7841797 4.4443359 3.4658203.2349663.4324741.8950539.0699072.65625-.3613281-1.0224608-1.8583985-2.8574218-3.2900391-4.9091796-3.8291016z"/><path d="m28.214262 69.6470337c1.1738605.1921997 2.4143238.1886597 3.6923828-.0546875 1.6126652-.3060913 1.8609867-2.0685959.3720684-2.8339844-.7066631-.3654785-1.734251-.6767578-2.7432842-.6469727l.1759033-5.4340858c.0068359-.2070313-.15625-.3798828-.3632813-.3867188-.1875-.0039063-.3798828.15625-.3867188.3632813l-.1798096 5.5500526c-2.0745066.4773789-2.7567748 3.0846863-.5672606 3.4431153zm.4072266-2.6191406c1.2780876-.4870758 3.3907909.2036972 3.7617168.7460938.2621994.3834229.1775551.9308319-.6171856 1.0820313-1.1523438.21875-2.3066406.2363281-3.4306641.0507813-.2363281-.0390625-.5556641-.1640625-.6777344-.3896484-.2588004-.4801867.4600697-1.2972567.9638673-1.489258z"/></g></svg>