<svg id="Layer_1" height="512" viewBox="0 0 512 512" width="512" xmlns="http://www.w3.org/2000/svg"><g><path d="m378 322.7-11.6-11.6-31 30.9h-47.1c-.8-3.2-2-6.1-3.7-8.9l33.3-33.3h43.7v-16.4h-27.4l20.3-20.3-11.6-11.6-20.3 20.3v-27.4h-16.4v43.7l-33.3 33.3c-2.7-1.6-5.7-2.9-8.9-3.7v-47l30.9-30.9-11.6-11.6-19.3 19.3v-28.7h-16.4v28.7l-19.3-19.3-11.6 11.6 30.9 30.9v47.2c-3.1.8-6.1 2.1-8.8 3.7l-33.4-33.4v-43.7h-16.4v27.4l-20.3-20.3-11.6 11.6 20.3 20.3h-27.4v16.4h44l33.5 33.5c-1.6 2.7-2.8 5.6-3.5 8.7h-47.5l-30.9-30.9-11.6 11.5 19.3 19.3h-28.7v16.4h28.7l-19.3 19.4 11.6 11.6 30.9-30.9h47.6c.8 3 2 5.9 3.6 8.5l-33.7 33.6h-43.7v16.4h27.4l-20.3 20.3 11.6 11.6 20.3-20.3v27.4h16.4v-43.7l33.7-33.7c2.6 1.6 5.4 2.7 8.4 3.5v47.7l-30.9 30.9 11.6 11.6 19.3-19.3v28.7h16.4v-28.7l19.3 19.3 11.6-11.6-30.9-30.9v-47.6c3.1-.8 5.9-2 8.6-3.5l33.6 33.6v43.7h16.4v-27.4l20.3 20.3 11.6-11.6-20.3-20.3h27.4v-16.4h-43.8l-33.5-33.5c1.6-2.7 2.9-5.6 3.7-8.7h47.3l30.9 30.9 11.6-11.6-19.3-19.3h28.7v-16.4h-28.7zm-121.8 44.1c-9.3 0-16.8-7.6-16.8-16.8 0-9.3 7.6-16.8 16.8-16.8 9.3 0 16.8 7.6 16.8 16.8s-7.5 16.8-16.8 16.8z"/><path d="m313.4 71.4v16.4c45.2 0 81.9 36.8 81.9 81.9h16.4c0-54.2-44.1-98.3-98.3-98.3z"/><path d="m452.4 177.2c.1-2.5.2-5 .2-7.5 0-76.8-62.5-139.3-139.3-139.3-37.6 0-73.7 15.4-100 42.5-36.9-7.6-73.1 14.6-84.6 48.7-4-.7-8.1-1-12.1-1-37.7 0-69 28.4-73.2 65.4-26 17.5-41.4 46.4-41.4 77.9 0 107.2 106.5 94.2 106.5 94.2v-16.4s-90.1 10.9-90.1-77.8c0-27.2 13.9-52 37.2-66.3l3.7-2.2.2-4.3c1.7-30.4 26.8-54.2 57.2-54.2 12.2 0 24.1 4.6 24.1 4.6l1.8-8.5c6.7-31.1 38.9-52.1 71.3-43.1l4.9 1.3 3.4-3.8c23.3-25.9 56.6-40.7 91.2-40.7 67.8 0 122.9 55.1 122.9 122.9 0 3.9-1.2 18.6-1.2 18.6l6.1 2.1c31.4 10.8 52.5 40.4 52.5 73.5 0 86.3-90.1 77.8-90.1 77.8v16.4s106.5 9.4 106.5-94.2c-.1-37.9-23-72-57.7-86.6z"/></g></svg>