<svg id="Layer_1" height="512" viewBox="0 0 512 512" width="512" xmlns="http://www.w3.org/2000/svg"><path d="m510 247.8h-37.6l18.8-18.8-11.6-11.6-30.4 30.4h-42.4l35.2-35.2-11.5-11.6-46.8 46.8h-46.2c-1.6-16.5-8.2-31.5-18.1-43.6l32.7-32.7h66.1v-16.4h-49.7l30-30h43v-16.4h-26.6l26.6-26.6-11.6-11.6-26.6 26.6v-26.5h-16.4v43l-30 30v-49.8h-16.4v66.1l-32.7 32.7c-12.1-9.9-27.2-16.5-43.6-18.1v-46.2l46.8-46.8-11.6-11.6-35.2 35.2v-42.4l30.4-30.4-11.6-11.5-18.8 18.8v-37.6h-16.4v37.6l-18.8-18.8-11.6 11.6 30.4 30.4v42.4l-35.2-35.2-11.6 11.5 46.8 46.8v46.2c-16.5 1.6-31.5 8.2-43.6 18.1l-32.7-32.7v-66.1h-16.4v49.7l-30-30v-43h-16.4v26.6l-26.5-26.5-11.6 11.6 26.6 26.6h-26.6v16.4h43l30 30h-49.8v16.4h66.1l32.7 32.7c-9.9 12.1-16.5 27.2-18.1 43.6h-46.2l-46.8-46.9-11.6 11.6 35.2 35.2h-42.4l-30.4-30.4-11.5 11.6 18.8 18.8h-37.6v16.4h37.6l-18.8 18.8 11.6 11.6 30.4-30.4h42.4l-35.2 35.2 11.5 11.6 46.8-46.8h46.2c1.6 16.5 8.2 31.5 18.1 43.6l-32.7 32.7h-66.1v16.4h49.7l-30 30h-43v16.4h26.6l-26.6 26.6 11.6 11.6 26.6-26.6v26.6h16.4v-43l30-30v49.7h16.4v-66.1l32.7-32.7c12.1 9.9 27.2 16.5 43.6 18.1v46.2l-46.8 46.8 11.6 11.6 35.2-35.2v42.4l-30.4 30.4 11.6 11.6 18.8-18.8v37.5h16.4v-37.6l18.8 18.8 11.6-11.6-30.4-30.4v-42.4l35.2 35.2 11.6-11.6-46.8-46.8v-46.2c16.5-1.6 31.5-8.2 43.6-18.1l32.7 32.7v66.1h16.4v-49.7l30 30v43h16.4v-26.6l26.6 26.6 11.6-11.6-26.6-26.6h26.6v-16.4h-43l-30-30h49.7v-16.4h-66.1l-32.7-32.7c9.9-12.1 16.5-27.2 18.1-43.6h46.2l46.8 46.8 11.6-11.6-35.2-35.2h42.4l30.4 30.4 11.6-11.6-18.8-18.8h37.5zm-254 73.7c-36.1 0-65.5-29.4-65.5-65.5s29.4-65.5 65.5-65.5 65.5 29.4 65.5 65.5-29.4 65.5-65.5 65.5z"/></svg>