<svg id="Layer_1" enable-background="new 0 0 75 75" viewBox="0 0 75 75" xmlns="http://www.w3.org/2000/svg"><g id="Bathing" fill="rgb(0,0,0)"><path d="m38.0176811 20.4254627c-.4166107-1.7962494-1.3622589-3.4423199-2.6669922-4.5957031-.0818405-.0735502-.5796661-.3931503-.6230469-.4560547-.0684662-.1341925.0195313-.7237215.0195313-.9638672 0-1.2005377.0715714-1.3188639-.1572266-1.4707031-.1064453-.0712891-.2421875-.0830078-.3603516-.03125-3.5495625 1.5796089-4.8886871.8001471-7.0686054 1.956543.2266846-.8461914.0093994-1.8200684-.6188965-2.4370117-.9373932-.9225502-2.618475-.9661722-3.5439453.109375-.5087891.5869141-.8105469 1.4570313-.5869141 2.2060547-.4862194.0249338-1.0972385-.0287828-1.6972656.1835938-1.8141575.6364756-2.1429482 2.550806-.9433594 3.4140625-.2822266.2255859-.5507813.4775391-.7744141.7792969-1.0132504 1.3681126-.4064255 2.9179688.8127441 3.1201172.3234692 3.8007622 3.0302792 7.7284164 7.2067871 9.3603516.1002216.039217.2135162.035778.3240967-.0292969 3.4495926 2.3081264 8.1846638 1.0903225 9.8673115-1.7744141 1.3666115-2.3773937.173214-6.0777531-.5782471-8.9707031.3547363.0405273.7033691.0664063 1.0303955.0595703.2345545-.0040437.4128267-.223406.3583986-.4599611zm-18.4179706-.8603515c.3046875-.4121094.7490234-.7363281 1.1777344-1.0332031.3002911-.2088985.1531467-.6835938-.2138672-.6835938-.0019531 0-.0029297 0-.0048828 0-.2470703 0-.4238281-.1640625-.5078125-.2626953-.6123772-.7213879.0178719-1.6378012.9121094-1.9521484.6279907-.2200651 1.3838387-.0558586 2.1015625-.2158203.2646446-.0599585.3836842-.3755274.2158203-.59375-.3730469-.4882813-.1484375-1.296875.2841797-1.7958984 0-.0009766.0009766-.0009766.0009766-.0019531.6376247-.7386332 1.8189507-.6855745 2.4511719-.0634766.5498047.5400391.6601563 1.4746094.2509766 2.1279297-.1635532.2633848.0481167.6114054.3496094.5732422.6334362-.0710402 1.3844471.6226025 1.40625 1.4550781.0253906.8837891-.6044922 1.6582031-1.203125 2.0878906-.5044651.364336-1.8314228.556879-2.1650391 1.3183594-.3341217.7627659.1406727 1.322382-.4287109 1.765625-.8258591.6399155-2.310751.2536125-2.9306641-1.4453125-.1155758-.9181862-.9541512-.5919418-.8203125-.1064453.0234375.0869141.0498047.171875.078125.2558594-.0029297.0859375-.0351563.1640625-.0556641.203125-.4419748.8839491-1.9610521-.1967546-.8984376-1.6328126zm14.6074237 11.8632812c-2.2167778 1.0058193-5.065731.818552-7.1625996-1.0292969-.3612061-.7666016-.322998-1.6960449.1147461-2.3886719.1352062-.2151012.0218792-.5068417-.2333984-.5654297-.6179447-.1427746-.8353577-.846611-.4941406-1.2988281.046875-.0625.0732422-.1376953.0751953-.2158203.0764637-2.8973694.3130016-3.268095.3466797-3.53125.2976398-.0297642-.3304443-.0523891 2.6826172.3818359.3599072.0469437.5692215-.374958.3271484-.6298828-.3427734-.359375-.6181641-.7802734-.8105469-1.2324219 1.8299503 1.0727291 3.9904003 1.493454 6.071291 1.203125.1494141-.0205078.2714844-.1289063.3105469-.2744141.1267471-.4721413-.5162048-.4099846-1.2216797-1.6533203.5135498.2209473 1.052124.3808594 1.6048584.4980469.1761971.5815945.1951065.7429466.4230957 1.642334-.6435547.0808105-1.248291.4152832-1.6373291.9377441-.3004189.4021358.3144951.8376732.6015625.4472656.2833252-.3791504.7518311-.6313477 1.2244873-.6616211.9769898 3.7606966 1.3003464 6.7978899-2.2225342 8.3706056zm-.5458984-12.3515625c-.1328125-.0800781-.2988281-.0683594-.4199219.0273438-.1210938.0947266-.1728516.2529297-.1298828.4003906.2099609.7197266.5878906 1.390625 1.0917969 1.9492188-1.3183594.0527344-2.6328144-.1875-3.8593769-.7167969-1.7944031-.7938385-1.7046967-1.2701931-2.1230469-1.0185547-.1318359.078125-.203125.2294922-.1787109.3808594.0996094.6347656.3359375 1.2539063.6835938 1.8056641l-.8710938-.1259766c-.2909126-.0425739-.6806183-.1827354-1.0410156-.1308594-.1387711.0469971-.5488949-.0922508-.6728516.5019531-.0284767.2094173-.3080387.8520527-.3808594 3.6503906-.4536476.7247925-.2573433 1.7308083.5576172 2.2011719-.3291016.7490234-.359375 1.6337891-.0830078 2.4179688-3.3770981-1.7749615-5.4573154-5.1869774-5.6837158-8.2800293.1469727-.0705566.2844238-.1640625.3985596-.2883301.9902802 1.6268864 2.7568321 1.7933655 3.7363281 1.03125.6201172-.4804688.6025391-1.0410156.5898438-1.4492188-.0197773-.6583118-.030489-.7455635 1.0917969-1.1894531.3378906-.1337891.6572266-.2597656.890625-.4277344 1.6203442-1.1654816 2.1248436-3.2855167.6080322-4.472168 1.6973438-.7380486 2.9507599-.2523251 6.1322041-1.5249023-.0033989.6928978.006691.5882244-.0195313.8662109-.0322266.3632813-.0683594.7734375.0947266 1.0546875.1760101.3234367.6074257.4967155.7802734.6513672 1.0924683.9667892 1.8914795 2.2985592 2.3105469 3.7353516-1.1772691-.0619621-2.4014016-.4051762-3.5029298-1.0498047z"/><path d="m33.218853 23.7653065c-.7041016.0380859-1.376955.3984375-1.79883.9648438-.2978001.3986301.3085747.8457279.6015644.4472656.2861328-.3828125.7607422-.6376953 1.2382813-.6640625.5256461-.0272751.4190292-.8222485-.0410157-.7480469z"/><path d="m35.6827202 25.5348377c-.541687-.051836-1.1984863.5142365-1.5117188.6904297-1.3230324.7994289-1.6339531.7906342-1.671875 1.1210938-.0146484.1191406.0302734.2382813.1181641.3193359.6728249.618454 1.3773499 1.1748047 2.2910156 1.1748047.546875 0 1.1269531-.2011719 1.4697266-.7089844.2890625-.4277344.3994141-1.3964844.109375-2.0058594-.1679688-.3505859-.453125-.5605468-.8046875-.5908203zm.0742187 2.1767578c-.2548828.3779297-.8232422.4482422-1.2470703.3232422-.359375-.1044922-.6875-.3242188-.9951172-.578125l1.0253906-.5791016c.6238899-.3480663 1.0583267-.8696022 1.2705078-.4287109.1757813.3701172.0908204 1.0488281-.0537109 1.2626953z"/><path d="m40.2051811 11.3746815c2.6474609-1.7851563 5.703125-3.0527344 8.8369141-3.6650395.4930115-.0971804.3351402-.8386278-.1445313-.7363281-3.2304688.6318359-6.3818359 1.938477-9.1123047 3.7802739-.4137344.2773885.014309.8976478.4199219.6210937z"/><path d="m49.2891655 12.2272205c-2.6689453.6142578-5.15625 1.90625-7.1943359 3.7373047-.3679428.3327866.1313438.8891373.5019531.5585938 1.9433594-1.7470703 4.3154297-2.9794922 6.8603516-3.5654297.483818-.1098528.3156242-.8462591-.1679688-.7304688z"/><path d="m52.2891655 18.5358143c-3.1884766.6630859-6.1298828 2.375-8.2822266 4.8193359-.3281937.3727341.2342873.8674927.5625.4960938 2.0458984-2.3242188 4.8417969-3.9501953 7.8720703-4.5810547.4797554-.0991802.3411408-.8282585-.1523437-.734375z"/><path d="m41.375103 33.4108124c-.4229126.2631454-.025795.8988762.3945313.6386719 3.072876-1.8974609 5.6833496-4.5458965 7.5740967-7.6645489 1.0890083-.0497341 2.1288948-1.4092522 2.7628174-2.3081055.1494141-.2119141.6025391-.8564453.3828125-1.5117188-.5016937-1.493763-3.147831-.9493332-3.9599609 1.0419922-.1816406.4433594-.4101563 1.8261719.1269531 2.4599609.0001221.0002441.0006104.0002441.0007324.0004883-1.8250733 2.9853516-4.3327638 5.522461-7.2819825 7.3432599zm7.8476562-9.5205059c.7415886-1.8139954 3.4476738-1.9153633 2.2705078-.2451172-1.0527344 1.4931641-1.6914063 1.9013672-2.0429688 1.9794922-.0740967.0185547-.1170654.0141602-.149292.0046387-.0075684-.0031738-.0148926-.0053711-.0224609-.0078125-.0222168-.0119629-.0394287-.0266113-.0499268-.0388184-.251953-.2988281-.158203-1.3183594-.0058593-1.6923828z"/><path d="m68.6189957 44.4513397c3.0255356-16.5918312-2.6535568-27.7819729-10.6887169-33.0593262-.3254318-2.5251389-2.6480408-4.3248506-4.9262695-4.3366704-.0675049-.0126953-.135376.0180664-.1976318.0610352l-.1068115-.4672852c-.0919189-.4018555-.4923096-.6533203-.894165-.5615234l-.0686035.0158691c-.4020996.0917969-.6534424.4921875-.5615234.894043l2.394043 10.4753418c.0917969.4018555.4921875.6533203.894165.5615234l.0686035-.015625c.4019775-.092041.6534424-.4921875.5615234-.8942871l-.1072998-.4694824c.0300293-.0058594.0611572-.0068359.0889893-.0195313 1.6483154-.7583008 2.7512207-2.5004883 2.8817139-4.300293 7.5933113 5.2866802 12.8457222 15.9944839 9.921505 32.0004883-1.5760498-.0107422-3.1524658-.0402832-4.7286339-.0656738 2.6567802-2.1166649-.5408325-6.2006073-3.9075928-4.1765137-.1726265-2.576355-3.7298203-3.257061-5.8222656-.2226563-.7242355-1.6194649-3.3818703-2.0982323-5.2705078.2666016-.831665 1.0415039-1.2862549 2.3388672-1.3132324 3.6689453-.9554443-.0375977-1.9110107-.0742188-2.8665771-.1142578-.5933838-1.828125-1.1782227-3.6572266-1.7625732-5.4853516-.5804863-1.8598938-1.6847305-5.4643097-3.5351563-5.9677734-.5820313-.1621094-1.1289063-.0107422-1.5693359.1103516-4.7840004 1.5039864-7.151495 1.1526299-8.0489521 4.6489258-3.9676514-.4506836-7.8081055-2.1477051-10.765625-4.8139648.0436592-.7980347-.5199165-1.8488483-.8260498-2.5058575-.3320313-.6845703-.8232422-1.5244141-1.671874-1.9541016-.8408203-.4267578-2.1103516-.2636719-2.5869141.6533203-.7926359 1.528429.9839287 3.073328 2.4775391 3.928709l.1972656.1162109c.6891584.4130135 1.4800844.8868484 2.0692129.4584961 3.0349121 2.6738281 6.9296875 4.3850098 10.9581299 4.8583984-.0228271.1582031-.0396729.3193359-.0529785.4836426-1.6708336-1.3042793-4.1015167-.6303062-4.8044434 1.4338379-1.7983112-1.2132339-4.0849667-.6850243-5.2412109.9599609-1.6766548-.5952492-3.5484076.0374527-4.482543 1.6813965-2.4129639-.1079102-4.8256836-.2111816-7.2381592-.3041992-.8214111-.0280762-1.5125732.614502-1.5429688 1.4321289-.0148926.3942871-.0297852.7883301-.0445557 1.182373-.0302734.8190918.6096191 1.5441895 1.4289551 1.6279297.6743164.0651855 1.348877.1279297 2.0234375.1918945 4.0437269 8.3077354 4.2815952 8.8074226 4.9876709 10.4902344 2.2585211 5.3756256 3.8913908 7.5502396 9.6020498 8.0830078l-.012085 3.0258789c-.0019531.4924316.3839111.8918457.8759766.8937988l2.5026855.0100098c.4923096.0019531.8916016-.3942871.8935547-.8867188l.0112305-2.7866211c8.751543.4470825 12.9743671.2194748 20.6406269-.2050781v2.4780273c0 .4921875.3978271.8901367.8901367.8901367h2.5026855c.4920654 0 .8795166-.3979492.8795166-.8901367v-3.0205078c.0239258.0048828.0421143.0244141.0671387.0244141.0214844 0 .0439453-.0019531.0654297-.0058594 4.849823-.8621407 8.1268349-2.9483681 10.8232422-7.7695313 1.5493355-2.8445244 3.186779-7.8625603 3.1804161-8.1186523.3519287-.0166016.7041016-.0280762 1.0560303-.0461426.8197021-.0458984 1.5081787-.7524414 1.5397949-1.5734863.0147705-.3959961.0296631-.7915039.0444336-1.1867676.0235593-.6252434-.3435061-1.1594231-.8824465-1.3830559zm-13.4382286-28.722166-1.7070313-7.891602c1.7392578.2246099 3.3046875 1.6123052 3.6787109 3.3349614.3720704 1.7226562-.4804687 3.6328124-1.9716796 4.5566406zm-41.2822276 13.9814453c-.3462925-.7631264.0165768-1.4658203.9082031-1.4658203 1.0548611 0 1.5963221 1.0459766 2.0419912 1.8837891.4506836.9018555.6221924 1.4255371.664917 1.7429199-.0301514.0175781-.0673828.0146484-.0926514.0412598-.1000977.1054668-.1004639.2456036-.0552979.3740215-.5473669-.0705224-2.9650553-1.482195-3.467162-2.57617zm34.8369151 10.8955059c1.7894592-2.2413864 4.1580162-1.3277626 4.1298828.1962891-.1757813.3359375-.3359375.6787109-.4892578 1.0175781-.1635551.36026.2753029.6957664.5820313.4423828.3681641-.3076172.5839844-.7587891.6396484-1.2402344.3486328-.6416016.7597656-1.2412109 1.3056641-1.6953125.7255859-.6054688 1.9326172-1.0039063 2.8652344-.4511719.5931778.3525925.892971 1.2393036.6386719 1.8789063-.1660156.1699219-.3193359.3554688-.4570313.5546875-.2350197.3402176.175354.7528877.5195313.5234375.2421875-.1650391.4335938-.3857422.5654297-.6445313 2.5365334-2.4233665 5.6871605.6446609 3.7421875 2.4248047-.8652496.7949066-1.3745193.1153259-1.6094971.6293945-4.5273438-.0888672-9.0554199-.2336426-13.5839844-.4082031.0219726-1.1564941.4304198-2.3261719 1.1514892-3.2280273zm-2.1259766 4.2783203 1.6054688 1.5253906c.2463646.2335701.0763321.6464844-.2578125.6464844-.265213 0-.2224922-.1193428-1.8632813-1.6289063-.3603973-.3416709.1578407-.8843803.515625-.5429687zm-14.2861328-7.7822266c-.8359394.0544434-1.6746845.0290527-2.5118427-.0317383.5407467-1.9349709 1.5548897-2.3688126 3.3497334-2.8588867 4.6588898-1.2818375 4.8128166-1.3919716 5.3125-1.2490234 1.4676399.3983612 2.5549049 4.0252647 3.0185547 5.4726563.5567627 1.7399902 1.1148682 3.480957 1.6785889 5.2216797-4.2756348-.182373-8.5512695-.3833008-12.8269062-.5922852-.5195999-1.7923279-.9648819-3.4224281-.6889648-5.2509766.9024124.0711861 1.5942535.1084099 2.7152119.0366211.2070313-.0126953.3642578-.1914063.3505859-.3974609-.0126955-.2080078-.1972658-.375-.3974611-.350586zm-13.5263691 4.3203125c.1757813.0820313.3876953.0166016.4833984-.1542969.9795132-1.7146721 3.3332996-2.0380211 4.7392578-.671875.2215271.2152596.602541.0853424.6347656-.2304688.0908203-.8798828.7412109-1.6845703 1.5820313-1.9580078.84375-.2705078 1.8417969 0 2.4306641.6582031.0443115.0498047.1004639.0795898.1594238.0998535.0356922 1.3372726.3484554 2.5444183.7271729 3.8603516-4.7868652-.2346191-9.5734863-.472168-14.3591299-.6889648.9362688-1.2333602 2.4412088-1.4553565 3.602416-.9147949zm4.1132812 4.75c-.2831478 0-.2091808-.110321-2.2724609-2.1162109-.3499699-.3523178.1800213-.8824768.53125-.53125l2.0068359 2.0068359c.2331295.2346955.0704098.640625-.265625.640625zm25.5423603 18.0493164v.0437012c-.0412712-.0061646-12.6413193 1.0229263-24.7780781-.0500488-.0432129-.0083008-.0876465-.0117188-.1306152-.0202637v.0075684c-5.4573994-.5040321-6.7557869-2.496067-8.874877-7.5302734-.7882166-1.8787956-3.9030333-8.260685-4.8240967-10.1594238 18.704834 1.7561035 37.4868164 2.9814453 56.1892052 2.1638184-.4247818 1.4573784-1.7994385 5.3729324-3.0496788 7.6694336-2.6285706 4.6965218-5.7795448 6.5816689-10.2595215 7.3862305v-.0341799c-1.4031972.2722168-2.8482656.4082032-4.2723379.5234375z"/></g></svg>