<svg id="Layer_1" enable-background="new 0 0 75 75" viewBox="0 0 75 75" xmlns="http://www.w3.org/2000/svg"><g id="Bear_Toy" fill="rgb(0,0,0)"><path d="m43.776104 69.3318329c.9462891-.0976563 1.8823242-.2993164 2.78125-.5996094.1948242-.0649414.6513672-.2172852.8076172-.6455078.1201172-.3305664.0068359-.7285156-.2827148-.9902344-.222168-.2021484-.4975586-.2949219-.737793-.3583984l-.0004883-.0004883c-.9095459-.239624-1.9041748-.2529907-2.6986694-.0490723l-.2759399-5.5129395c-.0259705-.5005341-.7734642-.4551697-.7490234.0371094l.289978 5.7938843c-1.4499017.9037552-1.0528909 2.5193634.8657836 2.3252564zm-.3867798-1.7428589c.0563354-.0147095.1062622-.0397339.1487427-.076416 1.2245865-.5552216 4.0867729.0724792 2.7819824.5082397-.5510063.1838837-3.2343979.9452515-3.5058594.3549805-.1360321-.2922211.2955704-.6287308.5751343-.7868042z"/><path d="m51.8605766 68.4665985c.8302383 0 2.7810707-.2923508 3.355957-.7104492.7130737-.5145645.6266937-1.6357269-.7739258-1.8662109-.9951363-.0869598-1.7300797-.0452652-2.3425293.069458l-1.189209-5.647583c-.1038589-.4854546-.8360443-.3306694-.734375.1542969l1.2012939 5.7050171c-.2718506.1090088-.5172119.2426758-.6827393.4307251-.5726278.6491241-.2584608 1.864746 1.1655275 1.864746zm2.9072266-1.6958008c.1734543.113533.1825867.2520218.0087891.378418-.3790436.2739487-3.3832283.9311829-3.5751953.2836914-.2311135-.7810745 2.9705505-1.0536728 3.5664062-.6621094z"/><circle cx="49.231" cy="25.202" r="1.147"/><path d="m40.1568413 26.3489838c.6334229 0 1.1469116-.5134888 1.1469116-1.1468506 0-.6334229-.5134888-1.1468506-1.1469116-1.1468506-.6333618 0-1.1468506.5134277-1.1468506 1.1468506 0 .6333618.5134888 1.1468506 1.1468506 1.1468506z"/><path d="m51.5368462 29.9060516c.3249969-.372757-.2380638-.8674889-.5654297-.4921875-3.4536972 3.9680557-9.6104164 4.0009232-13.1210938.1499023-.3322868-.3659763-.8896103.1370564-.5546875.5048828 3.7988053 4.16848 10.4649124 4.1769982 14.241211-.1625976z"/><path d="m57.4123344 43.3464813c-.1157227.809082-.5927734 1.5600586-1.2768555 2.0083008-.4184456.2734642-.0011253.8965073.4111328.6269531.8613281-.5644531 1.4628906-1.5097656 1.6079102-2.5297852.0695153-.4866256-.6722412-.6045951-.7421875-.1054687z"/><path d="m60.0368462 44.7878876c-.1005363.0339775-.1595268.0148621-.2509766.1152344l-1.5009766.7631836c-.4416847.2255173-.1036263.8926773.3398438.6689453l1.6655273-.847168c.1689453-.0859375.2470703-.2841797.1826172-.4619141-.0644531-.1782226-.2509765-.2827148-.4360351-.2382812z"/><path d="m57.3971977 47.8245087c.5883789.1435547 1.0878906.6572266 1.215332 1.2490234.105217.4869728.8373451.326313.7333984-.1572266-.1884766-.8764648-.9003906-1.6079102-1.7709961-1.8203125-.4868583-.1127204-.6561812.6123887-.1777343.7285157z"/><path d="m17.5344048 32.4324188c-1.425293.1245117-2.7045908 1.2729492-2.9750986 2.6723633-.2705078 1.4077148.4858398 2.9536133 1.7573252 3.5952148.6699219.3427734 1.4833984.472168 2.4199219.3818359.0612068 2.4799004 1.6530743 4.494278 3.8188477 5.2539063-4.7975845 3.4442978-6.4580269 9.2094612-5.7138672 11.4985352.6752415 2.0257263 2.9611111 2.5436668 4.3505859.6499023.5247974-.7327995.7809372-1.6732826 1.0668945-2.6254883-.1938534 4.3697701 1.3652954 5.8777351 3.9384766 6.6308594-.0893993.6406822-.3322868 3.2232094-.3652344 4.8925781-.0102539.9614258.0175781 1.9765625.4682617 2.8881836 1.0102558 2.0699997 3.5961323 2.2276688 4.5722656-.0483398.5642872-1.3346481.3011818-3.6352234.0541992-5.0205078-.2876282-1.6476746-.5604668-2.1850739-.6645508-2.5058594.7972984.0795174 1.6065979-.1184311 2.4116211-.6708984.3465424 1.8581696 1.3569641 5.7428513 2.762207 7.0092773 1.5559273 1.4040451 3.7156143.7178192 3.9931641-1.409668.2695351-2.0702286-1.5989952-5.5644989-3.1928711-7.3383789-.133419-.1498184-.6362801-.5659828-.7285156-.6660156.0093117-.1591644 1.777771-2.7202454-.5734863-6.9856567.0910645-.2301636.1408691-.4735718.1659546-.7211304.6608276-.1992188 1.3203125-.4011841 1.9768066-.6273193-.299202 2.8206253-1.0399208 6.0862503.5900269 8.3099976 1.4599609 1.9799805 4.2599487 2.3499756 6.7299805 2.2999878 2.3399658-.0599976 4.6699829-.3599854 6.9500122-.8900146 3.6366692-.8345718 4.4085464-2.4532242 3.6699829-6.2199707-.8441315-4.1083336-1.7550621-7.2643661-2.8900146-11.2600098.5599976-.6300049 1-1.3500366 1.2600098-2.1699829.15308-.484787-.568882-.6905556-.710022-.2200317-.1299438.4199829-.3199463.7999878-.5499878 1.1600342.3438301 0 .4884453.3959961.2700195.6299438-1.6689911 1.6699181-3.4297371 2.7053604-5.5599976 3.8200073-3.0300293 1.6000366-6.1699829 3.0700073-9.3400269 4.3600464-.0499878.0199585-.0999756.0299683-.1499634.0299683-.0900269 0-.1799927-.039978-.2399902-.0999756-.0400391-.0300293-.0800171-.0800171-.1000366-.1300049-.0599976-.1500244-.0200195-.3099976.0800171-.4100342-.7798462.2733765-1.567749.512207-2.3553467.7492065-.2799454-.0692139-.367794-.112709-.789978-.2181396-.5298462-.7698975-1.1173706-1.5333862-1.7913818-2.3156128 2.2207642-.1566772 4.3321533-1.3552856 5.6098022-3.1744995-.1975708 1.6287231-.3842773 3.2598877-.5731201 4.8890381.0100098 0 .0100098-.0099487.0200195-.0099487 3.1500244-1.2900391 6.2700195-2.7400513 9.2799683-4.3300171 1.7700195-.9299927 3.7800293-2.0599976 5.3200073-3.6300049-.3599854-1.2200317-.7299805-2.4700317-2.0799561-2.9500122-1.5016632-.5440788-5.2537575.5151787-8.7300415.5700073-1.25.0200195-2.4499512-.289978-2.6900024 1.2999878-.0396729.2706299-.0690918.5440063-.1071167.8151245-.7878799-.9019928-1.7895699-.4645004-2.755127.2532349-1.4596329 1.0740776-4.149004 2.5276642-5.2041016 2.6694336 1.992363-1.5822029 2.8601074-4.0906334 2.6035156-6.1972656 1.6947594.2017593 3.3335609-1.436924 2.2972412-3.7897339.9737129.9482536 1.7226067 1.4237823 2.6553955 1.8878784 6.2583275 2.9594765 13.7106667 1.2195358 17.3186035-5.3071899.7884216.4623814 1.7554474.4354801 2.4802246-.0106812 1.4455376-.889164 1.5884171-3.0646801.0002441-4.0706787.2652588-.1723633.5393066-.5216675.869873-1.1226807 1.7157135-2.7711887.9446716-6.379385-.4667969-7.6523438-.0825195-.0737305-.2358398-.2119141-.2602539-.2788086.0092773-.0498047.1694336-.1762695.2460938-.2368164 1.2011337-.9437466 1.6655998-2.6470766 1.2519531-4.0249014-.4833984-1.6469727-2.0712891-2.9550781-3.9516602-3.2553711-1.371582-.2138672-2.8837891.0668945-4.3217773.796875.1974297-4.4065046-6.151207-7.3109245-11.4296875-1.3911133-1.4716797-1.3071294-3.7958984-1.6997075-5.6889648-.9213872-.4615097.1895485-.1694832.8845401.2851563.6933599 1.7509766-.7202153 3.918457-.2866216 5.1538086 1.0297852.1467781.1576157.4111977.1610842.5595703-.0146484 3.059227-3.6132421 6.4205666-3.9730659 8.5014648-2.7402349 1.3935547.8339844 2.1547852 2.532227 1.7705078 3.9501958-.0889435.3257618.2687912.5968437.5595703.4169922 3.5771065-2.2181616 7.0880051-.9247646 7.8427734 1.6489258.3291016 1.0948486-.028862 2.4588509-.9975586 3.2231445-.237793.1875-.6362305.5024405-.5068359 1.0195303.0664063.2666016.2885742.4658203.4838867.6420898 1.2196732 1.0943661 1.8249626 4.2845135.3212891 6.7167969-.3061523.5566406-.4892578.7680664-.5791016.847168-.0039063-.0048828-.0083008-.0092773-.0117188-.0136719-.2761078-.3172264-.4122849-.2917233-.6743164-.3603516-.0574722-.0673771-.6258202-1.4642792-.7109375-1.7402344-.278717-.8963013-.9666634-1.9210377-1.5307617-2.6650391-1.9134941-2.425478-4.7091942-2.2735138-6.8276367-.6586914l-.2373047.1801758c-.4326172.3344727-.8398438.6572266-1.2661133.5986328-1.0722771-.1249371-1.3342438-2.2627029-3.2979126-2.1223145-1.2357216.0881863-1.9883423.9278507-2.914978 1.7165527-1.4637299 1.2171574-3.8923645 2.023222-5.5351563 1.0083008-1.0646706-.6634197-1.696228.4279423-2.4462891.6616211-.9233398.2861328-1.9199219.1845703-2.6655273-.2729492-1.3071289-.7861328-1.9018555-2.6416016-1.2993164-4.0493164.6088867-1.4033194 2.3681641-2.2456045 3.8359375-1.8378897.3264809.092823.6013184-.2709389.4169922-.5615234-1.0878906-1.7231445-.7895508-4.2382813.6796875-5.7260742.3485565-.3532381-.1842346-.8798275-.5332031-.5273438-1.5180664 1.5371094-1.9560547 4.0234375-1.1386719 5.9658203-1.6254883-.0878906-3.2915039.8740234-3.949707 2.3901358-.7553711 1.7651367-.0366211 4.003418 1.5986328 4.9873047 1.0100899.6187611 2.3522148.6881218 3.3731079.3050537-.0064697.0249634-.010437.0501709-.0167847.0751343-2.0057526.209444-3.1711769 2.3545017-2.2840576 4.1422729.5425262 1.0920525 1.852726 1.7055168 2.3460083 1.5313721.3444824 1.2744141.899292 2.4777832 1.6376953 3.5435791-1.4033127-.7715225-2.9447975-.1245117-3.8005981 1.2590332-2.6311417-2.3275471-7.0403709-2.2404556-9.3789063 1.140625-.6621091-.9902343-1.8730466-1.6132812-3.0732419-1.5102539zm16.324707 17.3442383c.1038589.0821228.1858101.0705872.496582.1513672-.2669296 1.7587204-2.447588 2.0545311-2.921875 1.1689453-.1650391-.3076172-.0693359-.7573242.222168-1.0458984.5639992-.5589829 1.4412308-.4755173 2.203125-.2744141zm21.6119385-20.7406616c.4703369-.9752808.8170776-2.0070801 1.0385742-3.0690918.043335.0321655.0923462.0574341.1488037.0685425.6396484.1269531 1.1879883.684082 1.3032227 1.3256836.2405548 1.3337154-1.2056389 2.4618263-2.4906006 1.6748657zm-23.559021-5.9085083c-.2595215 1.462019-.2130966 2.7178993.0736084 4.140625-.6360474-.1243286-2.3339177-3.6011982-.0736084-4.140625zm1.1379394-1.4268189c.1117897-.0729046.2445679-.1517391.3692017-.197937.3364143-.1376247.2087097-.0043564.8681641.296875 1.9736328.8603516 4.4726563-.078125 5.9628906-1.3178711.7273178-.6196651 2.0182991-2.0268211 3.2045898-1.4130859.8007088.4137421 1.2206154 1.847332 2.4379883 1.9897461.7294922.0869141 1.3037109-.3569336 1.8120117-.7495117l.2299805-.1748047c.9458008-.7216797 2.1020508-1.0878906 3.1669922-1.0244141 1.7919731.1229992 3.0182915 1.8292427 3.8320313 3.4580078.1742325.3387852.2654839.9831314.9990234 2.4526367-1.1532211 8.284687-9.7358208 13.137989-17.8081055 9.3198242-4.5545426-2.2772712-6.7392731-7.733118-5.0747681-12.6394653zm-12.8231811 13.1277466c.1164627.3083496.5290394.3135185.6767578.0522461 1.773201-3.1253395 5.3352718-3.7238655 8.140625-1.8862305.498148.3437424.946619 1.0171013 1.3076172.5957031.2948151-.3449059.4091988-.7835999 1.0351563-1.2207031 2.4296913-1.7541485 4.6175308 2.5637932 2.4472656 3.6489258-.8411522.4082794-1.2132454-.0588303-1.4853516.081543-.4145508.1381836-.3056641.6333008-.253418.8730469.046875.3662109.0561523.7412109.027832 1.1142578-.1508293 1.9607811-1.2482376 3.8734398-3.0742188 4.9345703-.2599888.1505203-.2447662.5350113.0283203.6630859.574707.2724609 1.2583008.2626953 2.0341797-.0288086 4.37463-1.6763992 5.2911949-3.5274391 6.2646484-3.175293.3212891.109375.5029297.5004883.5161133.8227539.0073242.3574219-.1079102.734375-.3735352 1.222168-1.1977539 2.1845703-3.6831055 3.5673828-6.1728516 3.4458008-.1464844-.0092773-.2924805.0771484-.3574219.2138672-.1889133.3991318.196043.35252 1.9094238 2.6897583-.1031075.0170593-1.086319-.0323677-1.7692871.6427612-.5273438.5219727-.6767578 1.3349609-.355957 1.9335938.5820179 1.0854416 2.5481529 1.2816238 3.699646-.0662842.7964211 1.5950394 1.2099037 3.3535614.7163696 5.0809326-.0239258.0771484-.0805664.1870117-.1401367.3076172-.7072945 1.4383316-.0763817.980072 1.3374023 2.8857422 1.3922043 1.8751411 3.5516052 6.2517471 1.4106445 7.2373047-.6293945.2963867-1.402832-.0097656-1.8583984-.4194336-1.6282845-1.4691162-2.621563-7.1655045-2.6519775-7.2821045-.0841637-.3715363-.5791969-.3946114-.7076416-.0488892-.1408424.1421547-.5686989.4554253-.9919434.6220093-.7463951.3013763-1.3140392.1599617-1.4140625.1591797-.5755882-.0996208-.7996864.2413139-.715332.6396484.0713654.4254875.9252739 2.2723083.9956055 5.2631836.0258789.6601563.0136719 1.4257813-.2700195 2.0976563-.2797852.652832-.8232422 1.1220703-1.3837891 1.1958008-.7724609.1015625-1.5009766-.5185547-1.8251953-1.184082-.3779297-.7646484-.4008789-1.6791992-.3916016-2.5463867.0318203-1.6302299.1975594-3.2149391.3486328-4.7358398.128788-.9639626-.4653168-.7626801-1.4526367-1.2050781-.5688477-.2495117-1.0327148-.5771484-1.3798828-.9746094-2.1132545-2.3981667-.5814419-7.6661835-.4208984-9.2827148.0734444-.4578896-.5955791-.614418-.7294922-.1665039-1.7992058 6.0297661-1.9526577 6.4426956-2.362793 7.015625-1.0052509 1.3717499-2.5398827 1.0292816-3.03125-.4448242-.6874905-2.1125412 1.1056728-7.9331818 6.0942383-11.0966797.2877655-.1832199.2014885-.6246758-.1333008-.6860352-2.3789177-.4335327-4.1629429-2.6031189-4.0229492-5.140625.01367-.2439651-.2068424-.4295807-.4335938-.390625-.9658203.152832-1.7729492.0673828-2.4018555-.2543945-.9853525-.4970703-1.5703135-1.6943359-1.3608408-2.7841797.2060547-1.0644531 1.2177744-1.9726563 2.3037119-2.0673828 1.1064456-.0991213 2.2353518.6127928 2.6274417 1.6489256z"/><path d="m26.5716972 39.7390594c.3634644.2102051.7822266.4278564 1.1835938.3045044.2536621-.0779419.4486694-.2809448.6063843-.4943848.2269897-.3071899.5301514-.9754639.0905762-1.2452393-.1777344-.1090698-.3995361-.1132202-.6072388-.0946655-.3717041.0332031-.7375488.1293335-1.0780029.2819214-.2354736.1055298-.6046143.3023071-.6746826.5778198-.036438.1434937.0248413.2977295.1227417.4087524.0979003.1110841.2284545.187195.3566283.2612916z"/><path d="m27.9225883 36.0689545c.3001099 0 .543396-.2432861.543396-.543396s-.2432861-.543396-.543396-.543396-.543457.2432861-.543457.543396.2433472.543396.543457.543396z"/><circle cx="23.665" cy="36.508" r=".543"/><path d="m28.3791313 40.5500946c-.4331055.3354492-1.0639648.4189453-1.5698242.2094727-.190918-.0786133-.4106445.0107422-.4897461.2026367-.0795898.1914063.0112305.4106445.2026367.4897461.2797852.1162109.5805664.1728516.8808594.1728516.7274914 0 1.9159222-.4709129 1.5024414-1.0073242-.1269531-.163086-.3618164-.1933595-.5263672-.0673829z"/><path d="m17.7502251 34.2844696c.378418.215332.6542969.5585938.7568359.9423828.2400665.8907166-.500845 1.6337585-1.2231445 1.4174805-.4770813-.1407967-.6903172.5750008-.2158203.71875.6442051.1922073 1.3527927-.0459137 1.7802734-.5444336 1.3917141-1.6192055-.7618217-3.8803482-1.2382813-3.0454102-.102539.1801758-.040039.4091797.1401368.5112305z"/><path d="m33.1247368 34.7952118c-.0776367-.1923828-.2983398-.2836914-.4887695-.2055664-.4457092.1787338-.872345-.2948608-.6567383-.7148438.2266998-.4405479-.4403801-.7854309-.6669922-.3427734-.2373047.4624023-.1582031 1.0527344.1933594 1.4355469.6277923.6848678 1.8651924.4304619 1.6191406-.1723633z"/><path d="m38.4655571 17.2297821c-.0600586-1.1337891.5610352-2.2753897 1.5458984-2.8408194.4315147-.2480936.0532532-.8982792-.3735352-.6503906-1.2241211.7026367-1.9960938 2.1220703-1.9213867 3.531249.0268136.4985333.7748757.4582368.7490235-.040039z"/><path d="m53.4933891 14.8699198c.0579376.492487.8025513.406559.7451172-.0869141-.1430664-1.21875-.8876953-2.362793-1.9443359-2.9858398-.4244995-.2556238-.8092918.3938322-.3808594.6455078.8583984.5068359 1.4638672 1.4370117 1.5800781 2.4272461z"/><path d="m30.0461235 56.5242157c.4794331.1514015.6911583-.5705528.2226563-.7163086-2.6530151-.8229218-4.1338234-3.6820946-3.2714844-6.3271484.0644531-.1967773-.043457-.4086914-.2402344-.4726563-.1953125-.0639648-.4082031.043457-.4726563.2402344-.9934787 3.0438042.6998997 6.3259087 3.7617188 7.2758789z"/></g></svg>