<svg id="Layer_1" height="512" viewBox="0 0 512 512" width="512" xmlns="http://www.w3.org/2000/svg"><g><path d="m247.8 2h16.4v49.2h-16.4z"/><path d="m168.1 41.3h31.9v16.4h-31.9z" transform="matrix(.383 .924 -.924 .383 159.311 -139.443)"/><path d="m92.3 76h49.2v16.4h-49.2z" transform="matrix(.707 .707 -.707 .707 93.775 -58.026)"/><path d="m67.9 143.4h30.3v16.4h-30.3z" transform="matrix(.924 .383 -.383 .924 64.342 -20.237)"/><path d="m34.8 215h49.2v16.4h-49.2z"/><path d="m428 215h49.2v16.4h-49.2z"/><path d="m413.7 142.9h32.7v16.4h-32.7z" transform="matrix(-.924 .383 -.383 -.924 885.2 126.162)"/><path d="m386.8 59.6h16.4v49.2h-16.4z" transform="matrix(.707 .707 -.707 .707 175.221 -254.672)"/><path d="m319.7 33.6h16.4v31.9h-16.4z" transform="matrix(.924 .383 -.383 .924 43.935 -121.763)"/><path d="m383.6 297c13-22.3 19.9-47.5 19.9-73.7 0-81.3-66.2-147.5-147.5-147.5s-147.5 66.2-147.5 147.5c0 26.3 6.9 51.4 19.9 73.7h-126.4v16.4h508v-16.4zm-235.9 0c-14.9-21.7-22.7-47.1-22.7-73.7 0-72.3 58.8-131.1 131.1-131.1s131.1 58.8 131.1 131.1c0 26.6-7.8 52-22.7 73.7z"/><path d="m42.9 346.1h426.1v16.4h-426.1z"/><path d="m83.9 395.3h344.1v16.4h-344.1z"/><path d="m124.9 444.5h262.2v16.4h-262.2z"/><path d="m165.8 493.6h180.3v16.4h-180.3z"/></g></svg>