<svg id="Layer_1" enable-background="new 0 0 75 75" viewBox="0 0 75 75" xmlns="http://www.w3.org/2000/svg"><g id="Birthday_Boy" fill="rgb(0,0,0)"><path d="m32.8089981 55.1344948c1.0899658-.8100586.539978-2.9501953.4400024-4.1101074-.0081825-.0932732-.9177017-10.5064964-.9200439-10.6000977-.0299683-1-.5399761-1.9399414-1.380003-2.4099121-1.5874577-.8661804-3.3176422.4236336-5.0199585.1599121-1.1134663-.1617928-2.5399284-1.1927795-3.5800171-.3400879-.8499756.670166-.7199707 1.9101563-.9299927 2.9001465-1.0716953 5.2818565-1.3644772 7.406147-2.2200317 12.4299316-.1699829.9799805-.2399902 2.2099609.5100098 2.75.5944729.4459.6390953.2917252 11.9899902-.4799805.3900128-.0300292.7900372-.0600585 1.1100445-.2998046zm-7.0800152-10.8300781c-.3689079.3352394-.7784252.2453232-2.2299805.1298828-.5800171-.0400391-.7800293-.3198242-.8500366-.5400391-.0532627-.1997185-.0419025-.1277809.1400146-2.2199707.0100098-.1999512.2000122-.3598633.4000244-.3400879.2099609.0200195.3599854.2001953.3399658.4101563l-.1499634 1.8398438c0 .0200195-.0100098.0600586-.0100098.0800781.0100098-.0100098.0700073.0100098.1799927.0200195 1.0762043.0802917 1.5679092.1562119 1.6799927.0600586.131958-.1173782.10676-.6044044.1500244-1.9599609.0236206-.4753342.7739601-.4762344.75.0300293.0000001-.0000001.0383169 2.1047477-.4000243 2.4899902z"/><path d="m32.9764786 39.3512917c-.4510117.1999321-.1529732.884922.3046875.6855469 3.8344727-1.7055664 6.9959106-5.2265625 8.5686035-9.4685078.7453728.2142124 1.7921143-1.52384 2.1916504-2.1916504.4580078-.7646484.6787109-1.4238281.6953125-2.0742188.0180664-.7451172-.3061523-1.6611328-1.0703125-2.0253906-.8842773-.4189453-1.8847656.1298828-2.34375.90625-.3789063.6386719-.5234375 1.4873047-.4301758 2.5244141l.3735352-.0341797-.3710938.0625c.0996704 1.126709.2318115 1.8041992.3920288 2.2192383-1.4547729 4.215578-4.5502319 7.724123-8.3104858 9.395998zm8.9912109-13.7851582c.2216797-.375.6450195-.6835938 1.0537109-.6835938.6348572 0 .9808235.7604218.965332 1.4013672-.0126953.515625-.199707 1.0585938-.5888672 1.7080078-.6589966 1.1013184-1.1468506 1.652832-1.3648682 1.8046875-.0008545-.0019531-.0026245-.0031738-.00354-.0048828-.266407-.5301952-.3745689-2.0513382-.3898926-2.1513672 0 0 0 0 0-.0009766-.0791014-.8759765.0312501-1.5732421.3281251-2.0732421z"/><path d="m22.586832 56.957737-1.0126343 7.9965782c-1.6852245.3190918-3.5284309 2.0335617-3.6953735 3.2426758-.1287727.9344635.6336803 1.7674103 2.203125 1.4042969 1.1328125-.2636719 2.1396484-.8720703 2.8344727-1.7138672 1.1799564-1.4265137.5155621-2.7475891-.5846558-2.9453125l.9992065-7.8906212c.0612832-.4856377-.6807193-.5963402-.7441406-.09375zm-.2485351 10.4521446c-1.4399281 1.7428818-4.6591339 2.1938324-3.4643555.2978516.0004883 0 .0004883 0 .0004883-.0009766.4111328-.6533203 1.0234375-1.2060547 1.7709961-1.5996094.5868416-.3091812 1.4949341-.6998444 1.9516602-.2167969.4109039.4293061.1211223 1.0594025-.2587891 1.5195313z"/><path d="m35.0023575 68.783905c.8460617-1.0720062-.6630135-2.3265381-1.8652344-2.9746094-.0004883 0-.0004883 0-.0009766 0-.5669327-.3057632-1.3964233-.651947-1.9672832-.3525391-.0484009.0253906-.0819092.0629883-.1252441.0927734l-1.3781738-8.9394493c-.0740242-.4887924-.8173962-.3770409-.7412109.1152344l1.402832 9.0996056c-.0524349.2042236.0528889.3706894.2297363.4492188-.3137093 1.6466675 3.2800617 4.0039902 4.4455547 2.5097656zm-3.4848614-2.6630859c.5608654-.2935333 3.4604053 1.4796066 2.8950176 2.2001953-.7420845.9466629-4.0547142-1.590065-2.8950176-2.2001953z"/><ellipse cx="31.445" cy="29.365" rx=".556" ry=".768"/><path d="m27.0939121 29.9203815c.307312 0 .5564575-.34375.5564575-.7675781 0-.4240723-.2491455-.7678223-.5564575-.7678223-.307251 0-.5563965.34375-.5563965.7678223 0 .4238281.2491455.7675781.5563965.7675781z"/><path d="m18.0521641 27.9196491c-.4942589 1.119648.4331532 2.5125732 1.9138184 2.2956543 1.4229946 9.6330471 13.8337116 8.0240459 14.8989239.0742188.475708-.1494141.8966064-.4763184 1.1560059-.9001465.8005371-1.3079185-.1398506-2.8611889-1.4888916-2.7055664-.1471558-.4448242-.3457642-.873291-.5705566-1.2905273 1.9592209-.5328712 2.6875954-2.4085121 2.1419678-3.921875-.4740982-1.3078575-1.9149857-2.3642979-3.4160156-2.0224609l-5.2695296-11.0817872c1.7075291-.5428557 1.3071289-3.0554199-.4721069-3.0554199-.8659058 0-1.5678101.7019043-1.5678101 1.5678711 0 .762207.5441284 1.3959961 1.2649536 1.5373535l-5.4411621 12.7819824c-.1585693.1450195-.3101807.2966309-.4371948.4648438-1.2205639-.2295799-2.6007481.6257515-2.8105469 1.8271484-.2090073 1.1881962.7612114 2.5767746 2.3042603 2.7844238-.0957642.3029785-.1739502.6108398-.234436.9250488-.3423081-.3639984-1.565342-.1992664-1.9716797.7192383zm.6865234.3027344c.1455078-.3291016.5688477-.5273438.890625-.4130859.0999146.0354004.2039185.0253906.291626-.0180664-.0671997.5551758-.0755005 1.119873-.0379639 1.684082-.879446.1500454-1.4099216-.6522141-1.1442871-1.2529297zm16.1972027 1.1972656c.0151367-.6682129-.0558472-1.3383789-.2067261-1.9960938.9271889.0584927 1.2023278 1.3779202.2067261 1.9960938zm-6.8334332 6.6113301c-4.1079063.6174965-6.9636364-2.2005005-7.4338989-6.1699238.0320435-.0891113.03125-.1901855-.0114136-.2832031-.0057983-.0129395-.0167236-.0209961-.0237427-.032959-.090271-1.1188965.0465088-2.2409668.4113159-3.2727051.7658691-.0942383 1.5018311-.4465332 2.0186768-1.0097656.4003906.4970703 1.0273438.8339844 1.7026367.8867188.7631836.0625 1.5375977-.2509766 2.0253906-.7919922 1.3886719.6962891 3.1879883.6113281 4.4848633-.2246094.5704346.302002 1.2395.4189453 1.8981304.3798828 2.5566522 4.350399.2051927 9.7254085-5.0719585 10.5185566zm3.8811036-16.3144551c-.2276611.1210938-.4469604.2558594-.661377.4023438-.4698582-.2045574-1.117094-.5224476-1.9082031-.6953125-1.3964939-.3062-2.9726696.0039215-3.5908203 1.2695313-1.0298939-.5844707-2.2744484-.7155876-3.5084229-.1938477l4.7432861-11.1420898zm-13.2912598 3.9033203c.1431618-.8162327 1.239399-1.4631062 2.1162109-1.1728516.1635742.0537109.3422852-.0117188.434082-.1572266.7148342-1.1381149 2.4708538-1.8721085 4.2626953-.9296875.0652657.0846691.137043.2731094.1728516.3447266.0834961.1611328.277832.2695313.4521484.2216797.2022896-.0577965.3159924-.3016605.2553711-.4921875.0411739-.8182163 1.1038589-1.6623764 2.8676758-1.2783203.3369141.0742188.6943359.1904297 1.1235352.3652344.8041821.3303661.9219723.5224857 1.3491211.2324219.6079082-.4169922 1.0151348-.6669922 1.6694317-.6201172.8803635.065918 1.7111702.7853909 2.0024414 1.5927734.293457.8144531.0786133 1.7568359-.5356445 2.3457031-.8413086.8085938-2.3979492.9462891-3.3999004.3017578-.1298828-.0849609-.2998047-.0791016-.425293.0136719-1.1435547.84375-2.9287109.9130859-4.1508789.1660156-.1743164-.109375-.4038086-.0537109-.5131836.1191406-.300293.4765625-.9379883.7841797-1.5483398.7285156-.6074219-.046875-1.1743164-.4375-1.378418-.9482422-.1103439-.2779045-.5057774-.3320007-.6708984-.0527344-.4882813.8242188-1.5761719 1.3076172-2.5341797 1.1240234-.9536134-.182617-1.6918946-1.0898435-1.5488282-1.9042967z"/><path d="m30.8324375 31.3483601c-1.0148163 1.0275288-2.8268204.9201336-3.6811523-.1738281-.0922852-.1171876-.2456055-.1689454-.3891602-.131836-.3179493.0816364-.2766571.4164867-.3115234.5166016-.1166992.6943378-.2490234 1.4814472.1474609 2.1933613.9610672 1.7215614 3.3234272 1.8085136 4.3891602-.0039063.4179688-.7138672.4707031-1.4726563.4868164-2.1279316.0085239-.3345718-.3997212-.5154362-.6416016-.2724609zm-3.5791015 2.0390644c-.1972656-.3535156-.1958008-.7685547-.1391602-1.2128906 1.0102425.7539978 2.4128418.85466 3.550293.2275391-.3165932 2.1282081-2.5391255 2.5463332-3.4111328.9853515z"/><path d="m33.0248184 23.5856647c-.2101326.4507885.4686813.7661457.6796875.3183594.4350586-.9306641.2011719-2.0839844-.5698242-2.8046875-.3584595-.3398418-.8764076.2055264-.5126953.546875.5366211.5029297.7026367 1.2998047.402832 1.9394531z"/><path d="m25.8075352 15.9782429 2.6274414-2.5263672c.3565884-.3426046-.1588535-.883956-.5195313-.5410156l-2.6274414 2.5263672c-.3565902.3426055.1588383.8847637.5195313.5410156z"/><path d="m27.46525 17.8747272 1.7856445-1.6621094c.363224-.3363619-.1471157-.8879013-.5107422-.5488281l-1.7856445 1.6621094c-.3645324.337574.1515541.8837471.5107422.5488281z"/><path d="m10.2797031 26.5212116c-.675293-.4589844-1.6098633-.4736328-2.3256841-.0371094-1.5340781.932827-1.5553694 3.3150654.4379888 4.5439453.1523438.09375 1.2099609.7236328 2.1376953.7236328.081665 0 .1578979-.0197754.2368164-.0302734 1.4251709 4.6381855 5.0734863 8.3002949 9.3916016 9.376955.4966679.1103706.6516018-.6095963.1816406-.7285156-4.0952759-1.020752-7.5562744-4.5239258-8.8846436-8.9594746.6908569-.6689453.2549438-2.1394043.008667-2.9506836-.0724401-.2131576-.3262777-1.3567885-1.184082-1.9384765zm-2.6875004 1.9853516c-.0033231-1.27174 1.3366389-1.9947758 2.266602-1.3642578.6171083.417408.7892828 1.292511.887207 1.5351563.3867188 1.2744141.4453125 2.0234375.1738281 2.2255859-.5639161.4191684-3.3238634-.570055-3.3276371-2.3964844z"/><path d="m49.0923233 46.815403c.1524048-.1604004.0682983-.4401855-.142334-.4731445-1.5651894-.2854118-1.7115898-.1736336-1.8181152-.4064941l-.7266235-1.5900879c-.0942383-.2060547-.366394-.2060547-.4606323 0-.7412834 1.5321236-.6847305 1.7046356-.9199829 1.7416992-.1004562.0157585-1.7262001.2707939-1.6247559.2548828-.2106323.032959-.2947388.3127441-.142334.4731445 1.0392532 1.1455002 1.2909012 1.2229347 1.2495728 1.4829102l-.2775269 1.7475586c-.0360107.2265625.1842041.3994141.3725586.2924805 1.4458084-.7755814 1.4841499-.9433784 1.6923218-.8251953l1.4532471.8251953c.1883545.1069336.4085693-.065918.3726196-.2924805-.2347069-1.7137108-.3734856-1.8140907-.2037354-1.9929199z"/><path d="m41.4486465 44.7887917-1.2958984-.2041016-.5849609-1.2792969c-.1972656-.4335938-.8774414-.4326172-1.0737305-.0009766l-.5859375 1.2802734c-.1004524.0157661-1.3944016.2188683-1.2939453.203125-.4769936.0727234-.6752777.6757774-.3364258 1.0302734l.9545898 1.0048828-.2260742 1.4257813c-.0813904.5092163.4427261.876461.8720703.6337891l1.1523438-.6542969 1.1523438.6542969c.4276047.2425194.9524117-.1236496.8720703-.6328125l-.2265625-1.4257813.9545898-1.0048828c.3378601-.3544425.1431465-.9569625-.3344727-1.0302733zm-1.3701171 2.0917968.1884766 1.1875-.9492188-.5390625c-.4563408-.2579346-.7733727.1814728-1.5234375.5390625l.1879883-1.1865234c.079464-.4919052-.3627205-.6569366-.9848633-1.3945313.8266373-.1878853 1.3474998-.0453568 1.5600586-.5185547l.4731445-1.0341797c.4217072.7868767.4213867 1.2970848.9199219 1.3779297l1.1132813.1748047c-.6078072.7208405-1.0655213.9023514-.9853516 1.3935547z"/><path d="m51.4681778 47.7116432c-.6258049-.6342087-1.8579063 1.5873909-.5351563 2.8984375-.1130981.8314323.2914772 1.6238556.6845703 2.3369141.2375221.4309311.8966179.0728569.6572266-.3613281-.2539063-.4609375-.5390625-.9785156-.6000977-1.5136719 1.4224205.4776764 2.2586174-1.0270729 1.3291016-1.7373047-.5310669-.4063492-1.3125153-.283783-1.7705078.4375-.2645874-.5123825-.1251907-1.1774254.2319336-1.5302734.1474609-.1455079.1484375-.3828125.0029297-.5302735zm1.0375977 2.6171875c-.1137695.078125-.2626953.0888672-.3706055.078125-.1196289-.0087891-.2368164-.0419922-.347168-.09375.3921089-.8697014 1.1665459-.2888031.7177735.015625z"/><path d="m61.9022598 55.9850807c-1.0126953-.9609375-2.4140625-1.421875-3.7597656-1.2314453-.4940796.0705795-.382576.8176231.1054688.7421875 1.1118164-.1601563 2.2885742.2285156 3.1376953 1.0341797.3624382.3405418.8753585-.2036972.5166015-.5449219z"/><path d="m42.0589981 37.0700417c-.1704102-.1191406-.4042969-.0761719-.5224609.0927734-.6938477.9941406-1.0527344 2.2080078-1.0117188 3.4199219.0073242.203125.1733398.3623047.3745117.3623047h.0131836c.2070313-.0068359.3691406-.1806641.3623047-.3876953-.0361328-1.0507813.2753906-2.1035156.8769531-2.9648438.1186524-.1699219.0766602-.4033203-.0927734-.5224609z"/><path d="m60.1766739 56.6403542-6.9659424-2.2929688c-1.9432144-.7106934-1.7427979-.7049522-1.9731445-.6494141-4.8762703-1.5606842-4.6826324-1.6416779-4.9422607-1.5048828-.090332.0478516-.1567383.1308594-.1845703.2294922-3.515236 12.4769173-3.330845 11.706234-3.2958985 11.8544884.0302734.1269531.1240234.2285156.2480469.2695313 14.4429398 4.7266312 13.6646042 4.550705 13.8886719 4.4306641.2713509-.1437378-.0281143.366951 3.46875-11.8789024.0546874-.1933595-.0527344-.3945314-.2436524-.4580079zm-6.5839844-1.3486329-3.8789063 10.3476524-1.1401367-.3027344 2.9750977-10.7465782 1.4125366.4650879zm-6.8662109-2.2890625 4.1091919 1.3525391-3.0325928 10.9543419-4.1747437-1.3664513c.2695313-.9003906.9916993-3.4628906 3.0981446-10.9404297zm9.7939453 15.1650353-3.3173828-1.0908203c-.0004883 0-.0004883 0-.0009766 0l-2.8734741-.9406738 3.9868164-10.6352501 5.2855835 1.7399902z"/><path d="m63.4955215 43.8434792c-1.4944954-.901165-4.3470688-.0770454-5.8048096.5756836.5057297-1.2095795 1.1682968-3.5313568.8770752-4.7583008-.3592377-1.521492-1.9253998-1.8227882-2.788269-.6652832-.0670319-.2453575-.7203941-2.3263168-.7097778-2.8171387.1988831-.3285866-.1686516-.707531-.5019531-.5224609-.7587891.4189453-1.2807617 1.2041016-1.4121094 2.0800781l-3.2133789-.921875c-.1831055-.0527344-.3710938.0380859-.4467773.2099609-.0756836.1708984-.0126953.3720703.1474609.4707031 2.3925629 1.4636841 3.6397362 3.087883 5.1206055 5.2070313.2533951.3555641.3456688.5747871.8377075 1.5483398-4.7825623-4.6823883-4.574482-4.6949387-4.8967896-4.6918945-.3012657.0140762-.2164726.1330414-2.3588867 2.5849609-.1269531.1494141-.1176758.3710938.0214844.5097656l12.1723633 12.0839844c.1530037.1508751.4049873.14534.5498047-.0234375 2.3116646-2.7760925 2.0785789-2.3402023 2.1438599-2.614502.5134735 2.0990295-.1780853 2.6730652.3771362 2.8937988.1681404.0650864.3459473.0046959.4428711-.1289063.543457-.7539063.9106445-1.6162109 1.078125-2.5234375.7890625.4726563 1.6479492.8212891 2.5610352 1.0390625.2579575.0608177.4919815-.1552925.4589844-.4130859-.3076477-2.3910408-1.8967896-4.7417259-4.3837891-5.8447266 1.2807464-.9242895.8697661-2.591812-.2719728-3.2783201zm-6.1884765-4.7578125c.9905396.4145508.4705811 2.6213608.1806641 3.6513672-.2377548.8468475-.4684143 1.3354874-.6118164 1.7119141-.300293-.8349609-.5424805-1.7392578-.7216797-2.6962891-.1534309-.823204-.2629738-1.8307419.3188477-2.4316406.1723632-.1777345.5577048-.3490029.8339843-.2353516zm-5.5-.9560547c1.4538612.3708496 1.66185.5945663 1.9208984.3916016.0942383-.0722656.1484375-.1855469.1459961-.3046875-.0117188-.5478516.1821289-1.0732422.5205078-1.4667969.1388512.7145004.8663521 3.1614685.9336548 3.3781738-.1407928.8998299.074276 1.6788864.2558594 2.4816895-.7620621-1.2742692-2.152504-3.120575-3.7769165-4.4799805zm8.9736328 15.7890625-11.6386719-11.553711 1.6010742-1.8798828 11.6381836 11.5537109zm-2.1429443-6.6538086c.5079346.1533203.9929199.3066406 1.4696045.5922852 1.4085121.8376236 2.4922562 2.1445007 3.0164185 3.8613281zm8.6697998 5.2319336c-2.0437317-.6364326-2.1832733-1.3356361-2.628418-1.1318359-.3693466.1757355-.0828018.5052986-.5244141 1.71875-.1989479-2.2759094-1.3576965-4.3515129-3.3851929-5.6838379.6683655.116436 1.2691231.2409935 1.9725952.1342773 2.5306779.8333702 4.0877534 2.8267174 4.5654298 4.9626465zm-4.3701172-5.772461c-.4223633.1367188-.8950195.1074219-1.3408203.0556641-1.2373466-.144722-3.8566895-.8786926-4.2612305-1.2382813.0268555-.0849609.2299805-.3300781 1.527832-.7675781.1054268-.031189 1.0325661-.4404373 2.4506836-.5644531.8027344-.0742188 1.3583984.0126953 1.7944336.2763672.9378052.5649147.9824829 1.8630829-.1708984 2.2382812z"/></g></svg>