<svg id="Layer_1" height="512" viewBox="0 0 512 512" width="512" xmlns="http://www.w3.org/2000/svg"><g><path d="m305.2 54.5v16.4c54.2 0 98.3 44.1 98.3 98.3h16.4c0-63.2-51.5-114.7-114.7-114.7z"/><path d="m464.5 167.5c0-84.9-69-153.9-153.9-153.9-46.4 0-89.4 20.5-118.8 56.3-6-1.1-12-1.7-17.8-1.7-52.1 0-94.9 40.3-98.9 91.4-41 4-73.1 38.6-73.1 80.6 0 44.7 36.4 81 81 81h35.9l-14.2 36.4h46.5l-38.2 140.7 125.5-177.1h40.9c19 23.2 46.7 36.4 76.7 36.4s57.8-13.3 76.8-36.5c42.8-2.1 77.1-37.6 77.1-80.9 0-31.2-17.7-59.2-45.5-72.7zm-311.4 246.1 19.6-72.3h-44l51-131.1h39.5l-23.6 57.4h60.9zm275.7-108.7h-4.1s-19.8 36.4-68.6 36.4c-48.9 0-68.6-36.4-68.6-36.4h-37.3l38-53.7h-68.1l23.6-57.4h-75.2l-43.2 111.1h-42.3c-35.6 0-64.6-29-64.6-64.6s29-64.6 64.6-64.6h8.2v-8.2c0-45.7 37.2-82.8 82.8-82.8 13.1 0 24.3 3.5 24.3 3.5l3.2-4.2c26.3-34.3 66-54 109-54 75.8 0 137.5 61.7 137.5 137.5 0 .9-.5 10.7-.5 10.7l5.4 2.1c24.7 9.9 40.6 33.4 40.6 60 .1 35.6-28.9 64.6-64.7 64.6z"/></g></svg>