<svg id="Layer_1" enable-background="new 0 0 75 75" viewBox="0 0 75 75" xmlns="http://www.w3.org/2000/svg"><g id="Blowing_Balloon" fill="rgb(0,0,0)"><path d="m46.9968948 56.9536362c-.2011719-.0141602-.3876953.1362305-.4052734.3417969l-.8115845 9.5765381c-1.3226318.0819092-2.807373.487793-3.7631226.8497314-.7631836.2895508-.847168.7407227-.8295898.9838867.0166016.2304688.15625.6479492.9038086.8525391 1.4512711.3957138 2.991848.4201508 4.4570313.0673828.9926758-.2397461 1.375-.9951172 1.3100586-1.5952148-.0581055-.5339966-.5009766-1.0622559-1.3268433-1.1448364l.807312-9.5265503c.0175781-.2065431-.1352539-.3876954-.3417969-.4052735zm-.6245117 11.9423828c-2.1641617.5227127-4.4218483-.042923-4.4370117-.2451172-.0014648-.0195313.081543-.1274414.347168-.2280273 1.1220703-.425293 2.8242188-.8500977 4.0776367-.8154297 1.0284729.0209655.9831734 1.0544128.012207 1.2885742z"/><path d="m47.4090042 25.3711147c.3199234.3794708.8930016-.1039009.5732422-.4833984-.9910088-1.1742172-2.8902283-.9757423-3.5981445.4199219-.2244873.4419613.445015.7817497.6689453.3388672.4522056-.8917885 1.6928596-1.0607243 2.355957-.2753907z"/><path d="m55.9846878 25.6699429c.5322723-.9039841 1.843605-.8838387 2.3554688.0200195.2438622.4306526.89748.0626812.6523438-.3701172-.7925186-1.3983135-2.8244476-1.4390221-3.6542969-.0307617-.2515755.4282665.3939513.8075962.6464843.3808594z"/><path d="m62.873848 9.0073462c-.6018906-.5534811-1.8512573-.686554-2.6186523-.6611328-.7082558.0182323-.9339104.112792-1.1000977.1499023-.0442696-.0830078-.0986595-.1976213-.15625-.2734375-.3347816-.4387689-.848053-.7823396-1.4301758-.8994145-.2593231-.5788436-.40802-1.020977-1.3149414-1.6748047-1.3631592-.9866791-2.4309311-.5184708-3.3928223.9317627-1.5372314-.364502-2.9387817-.3378296-4.0544434.1082764-1.6386719.6523438-2.8935547 2.1308599-3.3012695 3.8461919-.9199219-.3173828-2.0395508-.2104492-3.1499023.3129883-.3592339.1697674-.2405396.7143555.1606445.7143555.1981201 0 1.7323227-.9148312 3.0883789-.1660156.2372208.1287155.5167198-.0226002.5522461-.2763672.2304688-1.628418 1.4067383-3.129395 2.9277344-3.7343755.9259644-.3707275 2.1031494-.3967285 3.4098511-.116394-.489994 1.2278142-.1069336 2.3316684.5540161 2.8888555.8161774.6881495 2.23489.7210751 3.2558594.4882813.4310608.7298851 1.3048515 1.0230227 1.9692383.7744141.2863655 2.1572809 1.5868187 2.955513 2.9137573 2.7037964.6626587.4672852 1.2346191.8753052 1.4890747 1.7200317.3203125 1.0771475-.0058594 2.3242178-.8115234 3.1035147-.2707672.2608604-.0267601.7153912.3364258.6367188 1.6474609-.3344727 3.4887695.7792969 3.9433594 2.3945313.4555664 1.6166992-.5371094 3.5297852-2.1245117 4.0947266-.3552742.1268063-.3213882.6428089.0483398.7207031 1.1450195.2407227 2.0395508 1.4335938 1.953125 2.6030273-.0952148 1.1904297-1.144043 2.215332-2.3378906 2.2851563-.3006058.017868-.4611778.3670368-.2724609.6069355.6557617.8305664.706543 2.0805664.1210938 2.9711914-.8545876 1.2950516-2.6713562 1.1934738-4.2397461 1.2919922-1.4230347.0888062-2.0149536-.053772-2.2644043-.1740112-.1711082-1.5669289-1.3093643-2.3033371-2.921875-2.2297363-1.5812187.0444107-3.2195015.6231041-6.1533813-.2460938.0907593-.3527832.1460571-.7114258.1664429-1.0858154 4.3985825 1.9021416 10.0589104.8222771 11.8648682-3.4227314 1.9686623-.0484619 2.8112793-2.3269444 1.864502-3.4031372-.2905273-.3294678-.7210693-.4696655-1.1171875-.4014893.0178833-.3488159.0300903-.7009277.0374756-1.0561523.0025024.000061.0049438.0015869.0074463.0015869.4014359 0 .5211067-.5506592.1547852-.7163086-1.6382523-.7485104-3.0668449-2.5195904-3.3671875-4.543457-.0417595-.2766552-.3623543-.4138088-.5898438-.2495117-2.3806229 1.7075729-5.691761 1.0993481-7.3076172-1.3461914-.1605415-.2423458-.5421104-.221014-.6591797.0629883-.8251495 1.9882469-3.4337769 2.5527649-5.0209961 1.0712891-.1025391-.0947266-.2490234-.1254883-.3789063-.0795898-.3563194.1231899-.1148224.3807945-.5996094 1.2009888-.340538.5759869-.5638199.7744999-1.1211548 1.0878296-.0917358.0516968-.1739502.1171265-.2714233.1594238-.4736328.2114258-.9741211.2900391-1.4501953.2241211-.4833488-.0727367-.5997429.6745319-.1015625.7431641.432373.059082.8811646.0228882 1.3189087-.0952148-.0341187 1.3359985.215332 2.8062744.7341919 4.2423096-1.6884842-.4790573-3.388092-.659481-5.418396-.3276367.5925903-1.0907955 1.3047562-1.0501938 1.250061-1.5167236-.0170898-.1420898-.1132813-.2617188-.2480469-.309082-1.7392578-.6132813-2.8251953-2.6342773-2.3710938-4.4150391.4384766-1.7412109 2.3623047-3.0390625 4.2963867-2.8774414.2384262.0158958.4196663-.1793556.4038086-.4003906-.081543-1.1591787.1025391-2.1674795.546875-2.9960928.2332344-.4361525-.4256516-.7938261-.6611328-.3544922-.4570313.8530273-.6762695 1.8564453-.652832 2.9887686-2.1323242.0249023-4.1699219 1.5043945-4.6601563 3.4555664-.4912109 1.9248047.5161133 4.0849609 2.2451172 5.0356445-.5239868.4639282-.8571777 1.0039673-1.0621338 1.5758057-4.7485867 1.1663246-7.5067158 5.0199566-7.6495972 8.7612934-.1099854 2.8800049 1.4099731 5.8200073 3.9400024 7.1900024 2.1859856 1.1963425 5.2810402 1.3695641 8.5032349-.2252197-.6647339 2.0400391-1.2450562 4.1095581-1.7119751 6.1922607-.7981377 3.5596161-.2381897 5.5701675 3.7363281 7.1142578 2.8798828 1.1191406 6.015625 1.7045898 9.1103516 1.7045898 1.46101 0 3.1500931-.0929871 4.0224609-1.2998047.7129059-.9851112.5682449-1.4450035 1.0285034-11.8343506 2.5468788-1.0666924 3.098259-3.8791695 1.7678833-5.4312744-.3214455-.3752136-.8930397.1106262-.5693359.4882813.7348633.8574219.6645508 2.340332-.1572266 3.3051758-.2672119.3136597-.6192627.5557861-1.0024414.7612305.1719627-3.9286842.2267685-4.9804459.2485962-5.7127686.8931503.2492676 1.9923973.1421967 2.8783569.1014404 1.4584961-.0668945 3.2734375-.1503906 4.2285156-1.5976563.6459961-.9829102.6928711-2.3037109.1665039-3.3388672 1.2915039-.3466816 2.3359375-1.5312519 2.4443359-2.8798847.0917969-1.2446289-.625-2.4707031-1.6958008-3.0717773 1.4775391-.9604492 2.277832-2.8867188 1.7924805-4.6069336-.4824219-1.7128906-2.1577148-2.9399414-3.909668-3.0014648.5703125-.925293.7490234-2.0991211.4379883-3.1450186-.2665405-.8856812-.8002319-1.394043-1.3719482-1.8237915 1.7643813-1.0868814 1.9087409-3.8248928.8514404-4.7982795zm-2.0839844 17.3271474c.1479492-.0629883.3647461.0039063.4951172.1518555.4456139.506382.1696396 1.845293-1.0148315 2.1161499.213623-.7145386.3374023-1.4664307.4065552-2.2440186.0380248-.003601.0763549-.0079956.1131591-.0239868zm-18.6645508-4.5634765c.7764854-.3957958 1.5063858-1.1546974 1.8237305-2.0327148 1.849102 1.2379322 4.3036423.6811161 5.4599609-1.1484375 1.8661728 2.249136 5.0235519 2.8053856 7.5224609 1.355957.4296494 1.7666569 1.6436653 3.3484268 3.0947266 4.2407227-.0704536 1.9526768-.0575562 4.0919895-1.2177734 5.84375-1.7126579 2.6181927-6.148735 3.9946995-10.6321411 1.984499.0266724-.1757221.0726929-.3453999.1367798-.5119038.3067665.0342216.4110336-.1769161 1.2954712-.7653809.2370682.8610687 1.2940445 1.1271706 1.3668823.5227661.0244141-.2055664-.1225586-.3920898-.328125-.4169922-.1787109-.0209961-.3452148-.2114258-.3427734-.3916016.0026054-.145853.0980949-.4415741 0-.7285156-.1012955-.3004875-.3528671-.4576855-.4545898-.5844727-.1578789-.1957684-.0957451-.4960251.1342773-.6088867.4445457-.2181873.1151772-.8924809-.3310547-.6728516-.5636444.2773914-.8224907.9735126-.4979248 1.5772095-.7659683-.1810684-1.1724014-.4579906-1.3966675-.026123-1.1043663-.5643559-1.3933258-1.6310577-4.7301636-2.8278809-.7326012-1.7610626-.9895973-3.42626-.9030762-4.809143zm-7.6700439 7.7261963c-.8400269.5900269-1.3200073 1.6799927-1.2000122 2.7000141.0299683.2000122-.1199951.3900146-.3200073.4199829h-.0499878c-.1900024 0-.3500366-.1400146-.3699951-.3299561-.1600342-1.290041.4500122-2.6600361 1.5199585-3.4000263.1700439-.1199951.4000244-.0800171.5200195.0899658.1199951.170044.0700073.4100342-.0999756.5200196zm20.6729736 25.6566181c-.5991211.8286133-1.8740234.956543-2.7807617.9804688-3.1958008.0878906-6.4819336-.4824219-9.4731445-1.6450195-3.6362228-1.4131241-3.9855728-3.085144-3.2763672-6.2509766.5195923-2.3165894 1.1720581-4.6199341 1.9379883-6.8798828 1.0414886-.623497 2.0748901-1.4081345 3.1295166-2.423584 1.6771851 1.5749512 3.5543823 2.9090576 5.6156006 3.9606934 1.9020195.9705048 3.7399483 1.5829086 5.7224121 1.0928955-.4453545 10.0389632-.3312455 10.4120711-.8752442 11.1654052zm-4.5063477-12.9262695c-1.9929199-1.0169067-3.8087769-2.3057251-5.4311523-3.8270874 1.0534401-1.1050835 1.9482117-2.326828 2.5106201-3.7328491 1.6315155.4953842 3.9050865.5579262 5.2720947.37146 1.1014442-.1636696 2.0352211-.3631287 2.7416992.4770508.2292175.2585449.2750778.6980247.4667969 1.0727539.026001.050415.0790405.0866089.1149292.1317749.0238342.6084366-.0050888.5605316-.2584229 6.4787598-1.8594283.5576056-3.6413726-.0665933-5.4165649-.9718629zm5.6040039-32.3261729c-.2905273.0727539-1.1899414.1264648-1.3706055.1176758-.6108398-.050293-1.0317383-.1884766-1.3237305-.4345703-.6832733-.5760918-.8258705-1.8637595.4013672-3.160645.6157837-.6504507 1.0823021-.7448239 1.8813477-.1679688 1.1884422.8622041.9722862 1.6732593 1.404541 1.7660527-.6389923.363308-.8840332 1.058094-.7922974 1.7753906-.0117798.0022583-.0233765-.0004272-.0350952.0029907-.0654296.0195314-.1220702.0551759-.1655273.1010743zm4.9489136 3.4694824c-1.1561852.3145447-1.8280258-.5505676-2.116394-1.7126465-.0498352-.2159462-.0087013-.7412996-.3151855-.9575806.3395538-.4271364.4780006-.9561262.4402466-1.4498901.2207718-.0272713.3375931-.0847721.4403687-.1008301.7492943-.1053429 2.2154579-.0755873 2.7421875.4091797.8069228.7435742.4844855 3.3428193-1.1912233 3.8117676z"/><path d="m60.8225784 67.5781479c-.0791016-.5302734-.5375977-.9213867-1.2910156-1.1000977-.0004883 0-.0004883 0-.0004883 0-.5263062-.1245728-2.5535278-.3144531-3.7634277.2272949l-4.0603027-9.0612793c-.2037735-.4532204-.8868294-.145813-.6845703.3066406l4.1213379 9.1974487c-.5348206.6084976-.3943405 1.5137177.3845215 1.9514771 1.2038764.6786118 5.5718917.3583222 5.2939452-1.5214843zm-5.0541992-.0063477c.7457809-.6448364 4.1924553-.6922989 4.3120117.1166992.1312904.8835526-3.3261948 1.2413177-4.1835938.7578125-.3798522-.2135391-.4295348-.614006-.1284179-.8745117z"/><path d="m14.304512 62.7236557 1.1118164 3.0532227c.084693.2303238.3622427.3187561.5639648.1811523.904541-.6179199 1.444458-.9877319 1.7719116-1.2342529.6530151.776123 1.6137695 1.2041016 2.378479 1.5374756 7.9089775 3.4492874 15.1582642-1.796196 14.7929688-8.1674805-.3684692-6.4079247-8.0993824-9.894783-14.6645508-3.0927734-.3456192.3585472.197958.8765488.5400391.5205078 3.4066525-3.5287361 7.0244617-4.0632172 9.5742188-2.9794922 2.1337891.9072266 3.6616211 3.1557617 3.8012695 5.5947266.3342476 5.8247681-6.3638515 10.6564407-13.7441406 7.4370117-.930603-.4057617-1.750061-.8140869-2.2282104-1.4857788-.3159676-.8232994-.4113197-1.0753326-.4187622-1.0949707-.4344482-2.1219482.4849243-4.1293335 1.3818359-5.4714966.2750149-.4131088-.3478603-.8294754-.6240234-.4169922-1.1540527 1.7275391-1.6978149 3.4602051-1.6213989 5.0890503l-2.2672729.0266724c-.2596456.003128-.435918.2617835-.3481447.5034179zm2.6611328.2192383c.1928329.5538902.1076736.6206932.3772583 1.1664429-.3248901.2272339-.888855.6151733-1.3870239.956604l-.765625-2.1020508z"/><path d="m42.7092972 17.3530483c1.612793-2.7202139 4.1230469-4.8510733 7.0688477-6.0004873.4627991-.1804333.1889-.8795328-.2724609-.6982422-3.1010742 1.2094727-5.7436523 3.4526367-7.4418945 6.315917-.2521287.4260502.394512.8046265.6455077.3828125z"/><path d="m35.4251175 9.5473852c.0834961.1904297.3061523.277832.4936523.1938477.9228516-.4033203 2.1469727.0283203 2.6132813.9243164.228363.4383917.8951073.095849.6650391-.3466797-1.0459672-2.0093546-4.1617775-1.6687307-3.7719727-.7714844z"/><path d="m39.445137 8.0117407-1.8774414-1.3940434c-.399826-.2954721-.8450737.3065233-.4472656.6025391l1.8774414 1.3930669c.1664085.1242027.4019852.0885363.5244141-.0771484.1235351-.1660158.0893554-.4008791-.0771485-.5244142z"/><path d="m40.0491409 6.2031465c-.206543.0166016-.3603516.1972656-.3442383.4038086.0698242.8740234.4736328 1.723145 1.1079102 2.3286138.3568878.3424206.8774338-.199523.5175781-.5429688-.5024414-.4794927-.8222656-1.1523442-.8774414-1.8452153-.0161133-.206543-.1992187-.3515626-.4038086-.3442383z"/><path d="m31.2566605 60.4834213c.8842773-.7944336 1.3212891-2.0644531 1.1132813-3.2348633-.0862999-.487484-.825058-.3581429-.7382813.1308594.1635742.9213867-.1801758 1.9208984-.8759766 2.5463867-.3708439.3321152.1378288.8859406.5009766.5576172z"/><path d="m8.2254105 35.4482651c-.3625693.1470146-.2837262.6846695.1069336.7211914 6.9267569.6359749 5.9849472.5581055 6.090332.5581055.4727659 0 .5077877-.7048264.0336914-.7485352l-4.5200195-.4155273c4.4017897-1.7863197 4.7695112-1.7932701 4.9790039-2.4824219.1504688-.4980621.053627-.5271988-1.5795898-4.9360371 1.3212891 1.190918 2.9013672 2.1137695 4.581543 2.6606445.2645416.088871.5333977-.1398602.4858398-.4199219-.4155273-2.4208984-.515625-4.8745117-.2998047-7.3139648.7680664 1.7973633 1.7919922 3.4643555 3.0546875 4.9716797.2139626.2546177.6331177.1244392.6611328-.2084961.1572266-1.8334961.6943359-3.6318359 1.5639648-5.2539063.4550781 2.28125.5375977 4.6708984.2363281 6.9667969-.0647335.4866562.6776524.5979309.7431641.0976563.3598633-2.7392578.2055664-5.487793-.4580078-8.1699219-.0787315-.317049-.5032349-.391613-.6816406-.1098633-1.0512695 1.668457-1.7504883 3.5546875-2.0444336 5.5029297-1.2641602-1.6572266-2.2436523-3.4970703-2.9169922-5.480957-.121809-.3621941-.6696243-.3295326-.7260742.0678711-.3994141 2.8012695-.3901367 5.6333008.0273438 8.4282227-1.8964844-.7333984-3.625-1.9741211-4.9160156-3.5385742-.2656965-.3217506-.7872334-.0278301-.640625.3691406 2.266201 6.1187954 2.247488 5.9629345 2.1914063 6.1489277-.0876381.2880744-.3672373.29216-5.9721681 2.5849609z"/><path d="m20.0183792 36.1953354c-.4554367-.1925049-.7485809.5001335-.2890625.6923828 2.6096516 1.0802269 2.5153065 1.0791016 2.6552734 1.0791016.4087543 0 .5202732-.5639954.1445313-.7211914z"/><path d="m24.2195511 35.0356674-.9960938-1.2207031c-.3124332-.382122-.8956394.0884209-.5810547.4746094l.9960938 1.2207031c.313446.3835564.8949947-.0892143.5810547-.4746094z"/></g></svg>