<svg id="Layer_1" height="512" viewBox="0 0 512 512" width="512" xmlns="http://www.w3.org/2000/svg"><g><path d="m460.8 140.7c0-.2 0-.3 0-.5 0-75.4-61-136.7-136-136.7-43.7 0-84.3 20.9-110 56.4-12.1-4.6-24.7-6.9-37.5-6.9-48.7 0-91.2 33.5-103.1 80.4-41.6 7-72.2 43-72.2 86.1 0 48.1 39 87.3 86.9 87.3h334.3c47.9 0 86.9-39.2 86.9-87.3-.1-34.1-19.2-64.3-49.3-78.8zm-37.7 149.5h-334.2c-38.9 0-70.5-31.8-70.5-70.9 0-36.6 27.2-66.9 63.4-70.6l6-.6 1.2-6c8.4-42.2 45.5-72.9 88.4-72.9 12.8 0 25.3 2.7 37.1 8.1l6.4 2.9 3.8-5.9c22.2-34.2 59.7-54.6 100.1-54.6 66 0 119.6 54 119.6 120.4 0 1-.5 11.1-.5 11.1l5.4 2.2c26.9 10.8 44.3 36.7 44.3 65.8 0 39.2-31.6 71-70.5 71z"/><path d="m321.5 36.2v16.4c49.7 0 90.1 40.4 90.1 90.1h16.4c.1-58.7-47.7-106.5-106.5-106.5z"/><path d="m310.2 323h-75.2l-59 98.3h43.6l-42.8 87.2 167.9-136.4h-59zm-11.7 65.5-74.2 60.3 21.5-43.9h-40.9l39.3-65.5h39.5l-24.6 49.2h39.4z"/></g></svg>