<svg id="Layer_1" height="512" viewBox="0 0 512 512" width="512" xmlns="http://www.w3.org/2000/svg"><g><path d="m312.9 231.2 74.5-54.1 74.5 54.1-28.4-87.6 74.5-54.1h-92.1l-28.5-87.5-28.4 87.6h-92.1l74.5 54.1zm4.9-125.1h53.2l16.4-50.6 16.4 50.6h53.2l-43 31.3 16.4 50.6-43-31.3-43 31.3 16.4-50.6z"/><path d="m128 146.4c0-76 38.2-132.3 38.2-132.3l-22.9 11.8c-85.9 44.1-139.2 131.5-139.2 227.9 0 141.3 114.9 256.2 256.2 256.2 96.4 0 183.8-53.4 227.9-139.3l11.8-22.9s-61.2 38.2-132.3 38.2c-132.1 0-239.7-107.5-239.7-239.6zm132.3 347.1c-132.2 0-239.7-107.5-239.7-239.7 0-81.7 40.9-156.4 108.4-200.5-11.6 29.6-17.5 60.8-17.5 93 0 141.3 114.9 256.2 256.2 256.2 32.3 0 63.5-5.9 93.1-17.5-44.1 67.5-118.8 108.5-200.5 108.5z"/></g></svg>