<svg id="Layer_1" height="512" viewBox="0 0 512 512" width="512" xmlns="http://www.w3.org/2000/svg"><g><path d="m337.9 34.8v16.4c49.7 0 90.1 40.4 90.1 90.1h16.4c.1-58.7-47.7-106.5-106.5-106.5z"/><path d="m51.2 403.5c0 27.1 22.1 49.2 49.2 49.2s49.2-22.1 49.2-49.2c0-24.8-49.2-86.8-49.2-86.8s-49.2 62-49.2 86.8zm49.1 32.8c-18.1 0-32.8-14.7-32.8-32.8 0-12.5 18.1-40.7 32.8-60.3 14.7 19.6 32.8 47.9 32.8 60.3 0 18.1-14.7 32.8-32.8 32.8z"/><path d="m387.1 460.8c0 27.1 22.1 49.2 49.2 49.2s49.2-22.1 49.2-49.2c0-24.8-49.2-86.8-49.2-86.8s-49.2 62-49.2 86.8zm49.2 32.8c-18.1 0-32.8-14.7-32.8-32.8 0-12.5 18.1-40.7 32.8-60.3 14.7 19.6 32.8 47.9 32.8 60.3-.1 18.1-14.8 32.8-32.8 32.8z"/><path d="m479.8 149.9c.5-4.6.7-8.7.7-12.7 0-74.5-61-135.2-136-135.2-40.2 0-77.6 17.3-103.6 47.7-14.1-5.7-28.8-8.7-43.9-8.7-58 0-106.2 41.5-114.9 97.7h-12.9c-37 0-67.2 30-67.2 66.8s30.1 66.8 67.2 66.8h29.2c20.1 25.7 51.2 41 83.8 41 32.7 0 63.7-15.2 83.8-41h32.1c-.7 2.9-1.2 5.7-1.2 8.2 0 27.1 22.1 49.2 49.2 49.2s49.2-22.1 49.2-49.2c0-2.5-.4-5.3-1.2-8.2h48.7c37 0 67.2-30 67.2-66.8 0-22.4-11.4-43.3-30.2-55.6zm-133.7 163.5c-18.1 0-32.8-14.7-32.8-32.8 0-12.5 18.1-40.7 32.8-60.3 14.7 19.6 32.8 47.9 32.8 60.3 0 18.1-14.7 32.8-32.8 32.8zm96.7-57.4h-54.7c-11.8-24.5-41.9-62.3-41.9-62.3s-30.2 37.8-42 62.3h-46.4s-26.1 41-75.6 41c-49.8 0-75.6-41-75.6-41h-37.4c-28 0-50.8-22.6-50.8-50.4s22.8-50.4 50.8-50.4h27.6l.7-7.5c4.7-51.4 47.4-90.2 99.5-90.2 26.8 0 48.8 12.5 48.8 12.5s33.2-51.6 98.7-51.6c66 0 119.6 53.3 119.6 118.8 0 8.8-1.9 21.5-1.9 21.5s31.4 10.7 31.4 46.9c0 27.8-22.8 50.4-50.8 50.4z"/></g></svg>