<svg id="Layer_1" enable-background="new 0 0 75 75" viewBox="0 0 75 75" xmlns="http://www.w3.org/2000/svg"><g id="Bonfire_BBQ" fill="rgb(0,0,0)"><path d="m66.1684113 8.8663502c-.5996094-.4677734-1.4145508-.6171875-2.1489258-.4482422.0366211-.2666016.0253906-.5478516-.0356445-.8339844-.9172745-4.2946377-8.7900429-1.9864573-8.1381836 1.4414063-3.6196747-2.6394377-8.0851593-2.30195-11.1157227-.2480469-1.8418503 1.2469568-2.534317 2.858017-2.9746094 3.4853516v.0009766c-.5576172.9072266-1.0356445 1.8300781-.7607422 3.1503906.0369263.1767578.1928711.3051758.3665771.310791-.7987671 2.4020996-.4573364 5.1906738.4219971 7.2546387 1.5065155 3.5108624 4.9880371 5.8603516 8.5512695 5.8603516 3.8845215 0 8.0619812-2.950037 8.4228516-7.4980469.0322266-.0300293.0682983-.0559082.0888672-.0966797.3115845-.6240234.5430908-1.2854004.710022-1.9633789 1.8302765 2.6376972 5.3290787 1.5414524 4.9877319-.9780273 2.50383.3737049 3.771492-3.1983118 1.0058594-5.1054688 1.8961411-.7763024 2.0804825-3.1867142.6186524-4.3320313zm-24.0882569 12.6938476c.6716805.6784134 1.6147766 1.0327988 2.6448975.8500977-.583313.4521484-1.3223877.6977539-2.0510254.6635742-.080143-.1640911-.2751694-.4201031-.5938721-1.5136719zm8.0965576 6.5278321c-2.8494873-.0649414-5.578125-1.7399902-7.1217041-4.2766113 1.3792114-.0908203 2.7115479-.9812012 3.2774658-2.2546387.1615639-.3651733-.2863617-.6973438-.590332-.4345703-.9931145.8747654-2.514576.754179-3.3046875-.2646484-.1264648-.1640625-.3618164-.1943359-.5263672-.0664063-.0079956.0061035-.0116577.0153809-.019043.0219727-.1210938-.5634766-.19104-1.1472168-.2183228-1.739502.9133072.6184616 1.7652359-.4768066 1.053833-1.2749023-.2720947-.3054199-.6743164-.4013672-1.0036011-.28125.1416016-1.1801758.5180664-2.3220215 1.2184448-3.2902832.5037231-.3039551 1.0314331-.6152344 1.5502319-.8979492-.0625076 1.6502037.9920692 3.5284615 2.7265625 4.2675781.4827461.203001.773983-.4644032.3505859-.6503906-.1993256-.2838898-.0695381-1.9220495.3242188-2.5058594.2414589.6782112.3392792 1.4437895.8569336 2.1542969 1.6311417 2.2360764 3.6492996 1.9823761 4.7900391 2.4111328.5209961.1962891 1.0585938.6367188 1.0849609 1.1777344.0173187.3550034.4792862.4905338.6835938.1933594.6862106-1.0025616 2.2900238-.888258 2.7383423.394043-.0153198.6989746-.1002197 1.3364258-.2612915 1.8911133-.8676757 3.1191404-4.2104491 5.4550779-7.6098632 5.4257811zm8.3691407-8.0361329c-.7584534-1.2168865-2.3078728-1.4184017-3.3666992-.6103516-.7173157-1.3586254-2.4641266-1.3433971-3.4785156-1.6259766-.9165039-.2558594-1.7485352-.8466797-2.3432617-1.6621094-.7143707-.9800463-.6665688-2.8832064-1.4125977-2.6523438-.9776993.2913837-1.2419319 1.9700899-1.2114258 2.9384766-.9913979-.785553-1.5506287-2.0755205-1.4863281-3.1757813.0151367-.2539063.0336914-.5693359-.234375-.7412109-.2729492-.1738281-.5854492-.0107422-.7026367.0527344-.7339363.3919697-1.9737625 1.0733099-2.6020508 1.6201172.1446991-.7834921.6376228-1.433465 1.1435547-2.2783203 3.4706497-5.8249021 12.2594681-5.180284 15.3222656.9453125 1.1010742 2.2021486 1.2250976 4.8798829.3720703 7.1894532zm7.7148437-8.5107421c-.284668.7011719-1.0942383 1.1728516-1.8481445 1.0888672-.4327087-.0515966-.5906334.5646486-.1787109.7216797 2.139595.8218136 2.592659 2.733078 1.7094727 3.7470703-.4584579.5345631-1.3980789.6585579-1.9013672.1767578-.0048828-.0048828-.0097656-.0097656-.0141602-.0136719-.3507462-.3403282-.8763237.1882305-.5229492.5380859.0048828.0039063.0097656.0087891.0146484.0136719.5197983.5154572.309494 1.542738-.3125 1.9580078-.926281.6313934-2.591053.2937679-3.4369507-1.6401367.3629112-2.9253654-.4889069-5.8261232-2.7249756-8.0703125-.4358215-.8629436-.7236252-1.4593105-.2457886-2.2553711.8391037-1.3934717 3.8079453-2.3572116 5.4165039-1.4853516.8782196.4884672 1.4222145 1.7839355.8217773 2.5878906-.2582245.3450518.1802673.7830191.5249023.5253906.6054688-.453125 1.5483398-.4423828 2.144043.0234375.6059571.475586.8442384 1.3710938.5541993 2.0839845z"/><path d="m43.9884186 17.9063892c-.3463745.3088379-.3470459.873291-.0014648 1.2612305.34552.3876953.9064941.4516602 1.2528687.1430664s.3470459-.873291.0015259-1.2609863c-.3455812-.3879395-.9064943-.4519043-1.2529298-.1433106z"/><path d="m18.8803253 69.2237701c.4497681-.2182617.8070679-.5351563 1.0628662-.8996582 1.7090645 1.0021286 4.5830536 1.4516983 5.6480713 1.1958008 1.1060905-.2657928 1.7116661-1.1612015 1.3466187-2.3054199 1.0115356-.0407715 2.0333252-.1486816 2.9873657-.6616211 1.0957031-.5878906 2.206543-1.9414063 2.2177734-3.6376915.0021744-.3610535-.4568806-.5148125-.6728516-.2304688-.5004883.6552734-1.2714844.9511719-1.9804688.8154297 1.7201881-1.2653999 2.1730537-3.8524971 1.3432617-5.7949219-.1415939-.3329124-.6384583-.2897301-.7124023.0722656-.2607422 1.2822266-1.1489258 2.3046875-2.1547852 2.5791016.9072266-2.1699219.8076172-4.9443359-.2983398-6.9824219-.1442204-.2620354-.5468922-.2677078-.6748047.0322266-.4684792 1.1020164-.8729382 2.0639801-1.1977539 2.8349609.050293-1.7832031.7788086-3.5488281 1.9555664-4.5429688.1933174-.1624718.1729832-.4699326-.0449219-.6054688-1.5006256-.9278717-3.4877834-.5950737-4.7060547 1.1162109-.2099018-3.1419792-1.8781071-5.4682503-3.8916016-6.4160156-.1518555-.0693359-.3344727-.0322266-.4438477.0957031-.1098633.1279297-.1210938.3125-.0273438.453125 1.2596989 1.8790703 1.4512978 4.3713074 1.1166992 5.1533203-.1147461.2666016-.3486328.4628906-.4897461.4169922-.1445313-.0419922-.3276367-.296875-.3852539-.6494141-.0605469-.3798828-.0087891-.7695313.0600586-1.2021484.0571461-.3604584-.3825092-.5764771-.6347656-.3242188-1.090332 1.0830078-1.5893555 2.9101563-1.4208984 4.6123047-.4023438-.8984375-.625-1.921875-.6196289-2.9541016.0009766-.1484375-.0859375-.2832031-.2211914-.34375-.1357412-.0615234-.2944326-.0361328-.4042959.0625-1.4337521 1.2892761-2.1709852 3.6409454-1.6054688 5.9277344-.4848633-.6582031-.8769531-1.4335938-1.1357422-2.2695313-.0816793-.260952-.4025774-.3462906-.6025391-.1728516-1.6115532 1.383049-2.123682 4.1958656-.965332 6.3447266-.9570313-.3378906-1.8745117-.9033203-2.6953125-1.6650391-.2117977-.1963043-.5640707-.0900345-.6225586.1992188-.5140667 2.5135078.305995 5.5483131 2.6780396 6.9982872-.3192854 1.2476044.015502 2.3800659 1.2438354 2.7966309.9458008.3193359 2.0820313.4804688 3.3916016.4804688 1.0472901.0000002 2.6174214-.0727766 3.5561516-.5292967zm-10.2333975-8.9433555c1.0732422.859375 2.2758789 1.4296875 3.512207 1.6601563.15625.03125.3183594-.0449219.3969727-.1865234.078125-.140625.0571289-.3164063-.0517578-.4355469-1.313405-1.4299927-1.4500055-4.0909538-.1201172-5.7382813.5522461 1.4238281 1.4384766 2.6162109 2.5361328 3.3984375.3373747.2390633.7584982-.166626.5307617-.5126953-1.1532803-1.7455063-1.170372-4.3614349.112793-6.1474609.2026367 1.7753906.9990225 3.4472656 2.1831045 4.5126953.3209286.2905235.8049145-.1149101.5649414-.4833984-.9018555-1.3828125-.9243164-3.5400391-.1879883-5.0634766.2248402 1.6488228 1.754446 1.8194122 2.3188477.5058594.487484-1.1361198.0499687-3.2838554-.4731445-4.5361328 1.7862148 1.5686684 2.5163956 4.1639481 2.2563477 6.5400391-.1040039.3818359-.171875.7509766-.2016602 1.0966797-.0392818.4575348.6165867.5611038.7353516.1308594.0883789-.3222656.1538086-.6777344.1875-1.0214844.6594677-2.1966934 2.4283447-3.0595207 3.9135742-2.4912109-1.4536133 1.5273438-2.1396484 4.0527344-1.6806641 6.3564453.0718708.3593445.5696239.4156685.7128906.0722656.0422325-.1001625 1.2716637-3.0151825 1.4575195-3.4541016.7255859 1.9248047.6118164 4.3828125-.3422852 6.140625-.1318951.2428551.0364418.5411415.3139648.5537109 1.2324219.0136719 2.4584961-.8017578 3.1176758-2.0732422.2613678 1.9609528-.7034874 3.5988312-1.9423828 4.1005859-.2813854.1146774-.3168907.4970474-.0644531.6611328.8598633.5634727 1.9335938.5419884 2.7993164.0234375-.3017578.9228477-.9853516 1.6396446-1.6616211 2.0029259-.9138794.4907227-1.9679565.5544434-3.0127563.5844727-.2749023-.3737793-.6315918-.6894531-1.0018921-.9736328-2.5504436-1.9564056-4.6871605-1.4226151-5.7549438.0432129-.4983311-.6889343-1.1437054-1.0881729-1.9476929-1.4645996-3.4698715-1.6263809-5.9801588-.4819107-6.9135733 1.6706543-1.7677001-1.1649934-2.4946574-3.4258462-2.2929687-5.4724084zm2.7895508 7.6513634c-.5577087-1.2896881 1.0537233-5.5365067 6.0991201-3.1699219.7383709.3452911 1.4774036.7894058 1.8474731 1.5041504-.2340088.5456543-.2732544 1.1018066.0096436 1.5510254-.1806641.2946777-.4702759.5522461-.8400269.7319336-1.0218468.4973755-4.299367.7169724-6.3798819.0126953-.3652342-.1230469-.6059569-.3300782-.736328-.6298828z"/><path d="m49.8744659 8.9093189c-.4996758-.0772448-.6146317.6508236-.1347656.7382813 2.5073242.4570313 4.8100586 2.1376953 6.0087891 4.3867188.2334595.4333258.8954544.0850334.6621094-.3535156-1.3046875-2.4453126-3.8090821-4.2734376-6.5361329-4.7714845z"/><path d="m59.1339264 51.7848091c.8875313-.6030579 1.593071-1.4896774 1.8362427-3.4350586.0618858-.4927483-.6834145-.5865517-.7441406-.09375-.2138977 1.7098389-.8226738 2.7907753-2.4472656 3.4130859-1.9549446.8473091-7.1638451 1.121418-8.5629883.9980469-.9726563-.0458984-1.7055664-.2099609-2.3041992-.5166016-1.1674805-.609375-2.0439453-1.9384766-2.3447266-3.5556641-.3386765-1.850666.065834-3.7468262.105957-5.6845703.0715065-3.6229401.3877945-5.5581207.5023193-6.7080078l.0411377-.0712891c.0664063-.1152344.0586548-.248291.0015869-.3581543.0256958-.2663574.0551147-.5466309.0880127-.8337402l7.407959-.3120117c.2070313-.0087891.3676758-.1835938.3588867-.390625-.0087891-.2080078-.1972656-.3554688-.3901367-.359375l-7.2752686.3066406c.6533432-4.2585793 1.8370323-3.197382 9.7991943-5.2851582 1.1814194-.2502098 1.4105225-.1192722 1.7792969.8632813 1.9038887 5.19874 2.3962479 8.826231 2.9208984 12.5351582.1533203 1.0888672.3442383 2.4433594.3969727 3.7705078.0083008.2080078.2050781.3789063.3891602.3603516.2070313-.0087891.3681641-.1826172.3598633-.3896484-.0712891-1.795723-.3862724-3.628479-.5327148-4.7919922-.4936523-4.0117188-1.4458008-7.9619141-2.8310547-11.7451191-.5059891-1.349308-1.1111145-1.6659451-2.6445313-1.3339844-7.0714798 1.6184597-6.1488686 1.3984184-6.2543945 1.4335938-2.7527313.6235161-3.6753082 1.3768349-4.145874 4.6149921l-4.7474365.2001953c-.3633347-.7754326-1.9081421-1.6679459-3.5598145-1.2375488l-9.7022095-5.5454121c.8468761-2.110096-.8286877-3.8220654-2.5678101-3.5507813.0505505-1.4842415-1.4711914-2.4210548-2.7719727-1.6806641-.57658-2.4619083-3.6181164-3.0214195-5.2140503-.8071289l-5.7166128-3.2670898c-.4271946-.2493896-.8046875.4035168-.3720703.6503906l5.7318726 3.2756348c-.4433746 1.1571903.0097284 2.3617573.7666616 2.8747559.3291016.2255859.9780273.3652344 1.5058594.2177734.2049637.5611248.6850204.8592358 1.2001953 1.1396484 1.5819759.8258018 2.1673431 1.3370953 3.0410156 1.3115234.0576172.6435547.2475586 1.3183594 1.1313477 1.6240234 1.0268726.3563576 2.2295074-.1719761 2.9110107-1.1276855l9.1868286 5.2509785c-2.0398064 1.2491417-.6426201 3.9654236 2.2922974 3.032959.6156616-.1943359 1.2478638-.4313965 1.68396-.7658691l1.0880127.6262207c.428833.2480812.8048439-.4022026.3740234-.6503906l-.9877319-.5683594c.0071411-.0175781.0143433-.0354004.0205688-.0534668l4.6089478-.1940918c-.0255165.2301331-.0558014.5166473-.1021729.9963379l-5.9534302 10.3347168c-.9578667-.5363083-3.2780418.4259224-3.7668457 2.4985352-.5770111 2.4349327 2.4790421 3.4063072 3.7675781.4394531.3417358-.7851563.6395264-1.6394043.4830933-2.2756348l5.2615967-9.1335449c-.3780212 3.5184212-.19767 4.148983-.4312134 6.9296875-.2070389 2.4751663-.3120537 4.7355995 1.2335205 6.7365723-.055542-.017334-.1143188-.0256348-.1759033-.013916-2.1772461.3818359-4.2416992 1.5761719-5.6635742 3.2792969-1.1664429 1.4077148-1.9083252 3.1508789-2.1270142 4.9465332-1.1960526-.0552635-4.300972 1.3950996-4.7870483 2.7956543-.1342773.3681641-.0800781.7490234.1469727 1.0205078.0413208.048584.102356.0751953.1526489.1137695-.3480721.5869484-.1469269 1.3689308 1.2350464 1.6928673 1.1757317.2746658 3.1086235.455246 4.1938477-.0605469.8130074-.3881378 1.2556076-1.2920952.7137451-2.0275841 2.7766457-3.5810509 5.5336685-7.1111984 8.0527344-10.3398438.8498268.3797646 1.6657753.4734993 2.5419312.5192871-3.3424759 2.090332-6.3669968 6.0534592-4.15448 9.3388672.9099731 1.3601036 2.4599609 2.2102013 4.0499878 2.5900841 1.5899658.3901367 3.2600098.3601074 4.8900146.3000488 1.8499756-.0700684 3.7199707-.1899414 5.4499512-.8100586 1.4299927-.5200195 2.8699951-1.4399376 3.6700439-2.760006.9599609-1.5700684.1199951-3.6899414-.4700317-5.2600098-.7956276-2.13422-1.5907212-4.0396765-3.6240845-5.0375975zm-35.5192261-23.0727558c-1.1068115-.381464-.2303391-1.734375-1.0273438-1.734375-.2188587 0-.4342976.2672596-1.3251953-.2177734-2.0394287-1.1145153-2.2017593-1.1774769-2.4204102-1.4345703-.1264648-.1484375-.2216797-.3779297-.1494141-.5546875 0-.0009766 0-.0009766 0-.0009766h.0004883c.1862335-.4585991-.5044689-.7467651-.6938477-.2851563-.0004883 0-.0004883 0-.0004883 0v.0009766c-.103569.2485676-.8392143.1924667-1.0864258.0224609-.4326172-.2939453-.625-.9052734-.6235352-1.3808594.0016727-.4779854.2767258-.9479866.2353516-.8476563.0021973-.0039063.0019531-.0083008.0040283-.012207.4656639-.8498592 1.5274181-1.4718113 2.4364014-1.2895508.9746094.1933594 1.7280273 1.1943359 1.6455078 2.1845703-.0333347.3911343.4824982.5577831.6899414.2324219.2954102-.4638672 1.0009766-.6367188 1.4765625-.3632813.4770508.2744141.6826172.9697266.4311523 1.4589844-.1716328.3345222.2044544.6893234.5273438.4931641.7543697-.4537392 1.8979092.0060005 2.246582.8447266.3442385.8300782-1.0214174 3.3529415-2.366699 2.8837891zm13.918457 7.1503925c-.6303711.1992188-1.1601563.2197266-1.5722656.0664063-.3959961-.1494141-.7783203-.5810547-.7050781-1.015625.0722656-.4257813.5209961-.703125.7114258-.8027344.5928841-.3134804 1.3086967-.3909073 1.9672852-.2050781h.0004883c.5751953.1630859 1.3916016.6416016 1.3110352.9921875-.04834.2089844-.3842775.5458984-1.7128908.9648437zm.2714844 13.0791016c-.2641602.6074219-.5947266 1.0214844-.9833984 1.2304688-.3730469.2011719-.9477539.2050781-1.2280273-.1357422-.2734375-.3330078-.1884766-.8544922-.1391602-1.0634766.1557617-.6591797.5703125-1.2490234 1.137207-1.6181641h.0004883c.3728409-.243824 1.3723755-.6644783 1.609375-.3369141.1254883.1728516.1586914.6464844-.3964844 1.9238282zm-1.1411133 11.5634766c1.1830826-.3110924 1.3700066 1.1177025-.9645386 2.0168457-.8434753.0209503-1.8194504.1714783-2.5404663.5861816-.0704956-.0161133-.1272583-.0366211-.15271-.065918-.3023719-.360897.9226228-1.794506 3.6577149-2.5371093zm1.0278321 4.0888633c-.8911285.425972-2.696331.2414474-3.7001953.0078125-1.0611725-.2478638-1.0206871-.6328583-.1679688-.9824181h.0009766c1.1443214-.4753647 2.5250702-.4131851 3.7592773-.2148438.3666992.0595703.5957031.2265625.6293945.4599609.0317383.2236292-.1166992.5361292-.5214843.7294885zm.4414673-1.8059044c-.3705826-.1502228-.5788841-.1384048-.9630127-.1850586 1.3229637-.8949852 1.3121529-2.0967712.6358032-2.6296387.1729736-1.7155762.8591919-3.3886719 1.9702148-4.730957 1.3095703-1.5673828 3.2114258-2.6689453 5.2172852-3.0205078.1965332-.0339355.3270874-.2167969.3037109-.4128418.2504272.277832.522583.5251465.817627.7297363-2.6900826 3.4478379-5.2767601 6.7601586-7.9816284 10.2492676zm11.4579467-6.7585449c-.8916016 1.2695313-.949707 3.0820313-.1411133 4.4072266.2574806.4217529-.385437.8094826-.640625.390625-.9584961-1.5722656-.8896484-3.7226563.1674805-5.2294922.1191406-.1689453.3530273-.2099609.5224609-.0908203.1694337.118164.2104493.352539.0917969.5224609zm11.3813477 1.6054688c-.7373047 2.3291016-2.8569336 4.1269531-5.2749023 4.4736328-.4880753.0791473-.5990067-.6718216-.1064453-.7421875 2.1391602-.3066406 4.0141602-1.8974609 4.6665039-3.9580078.1477508-.468647.865467-.2488365.7148437.2265625z"/></g></svg>