<svg id="Layer_1" height="512" viewBox="0 0 512 512" width="512" xmlns="http://www.w3.org/2000/svg"><g><path d="m151.5 445.9-11.6-11.6-15 15v-21.2h-16.4v21.2l-15-15-11.6 11.6 15 14.9h-21.2v16.4h21.2l-15 15 11.6 11.6 15-15v21.2h16.4v-21.2l15 15 11.6-11.6-15-15h21.2v-16.4h-21.2z"/><path d="m290.8 445.9-11.6-11.6-15 15v-21.2h-16.4v21.2l-15-15-11.6 11.6 15 14.9h-21.2v16.4h21.2l-15 15 11.6 11.6 15-15v21.2h16.4v-21.2l15 15 11.6-11.6-15-15h21.2v-16.4h-21.2z"/><path d="m430.1 445.9-11.6-11.6-15 15v-21.2h-16.4v21.2l-15-15-11.6 11.6 15 14.9h-21.2v16.4h21.2l-15 15 11.6 11.6 15-15v21.2h16.4v-21.2l15 15 11.6-11.6-15-15h21.2v-16.4h-21.2z"/><path d="m305.2 43v16.4c45.2 0 81.9 36.8 81.9 81.9h16.4c0-54.2-44.1-98.3-98.3-98.3z"/><path d="m444.3 147c.1-1.9.1-3.8.1-5.7.1-76.8-62.4-139.3-139.2-139.3-45.4 0-87.5 21.9-113.7 59-56.7-10.4-107.4 29.6-114.8 83.2-43.6 10.8-74.7 50-74.7 95.4 0 44.2 29.2 82.5 71.5 94.5 11.5 27 38.2 44.8 67.8 44.8 28.3 0 53.6-15.9 66-41h204.4c54.2 0 98.3-44.1 98.3-98.3 0-41.6-26.7-78.8-65.7-92.6zm-32.6 174.5h-215.2s-11.7 41-55.2 41c-43.6 0-55.4-42.2-55.4-42.2l-4.3-1c-36.6-8.7-63.1-42.2-63.1-79.6 0-71.7 73.6-81.7 73.6-81.7s5.8-82.2 82.1-82.2c13.2 0 24.8 3.7 24.8 3.7s30.3-61.1 106.3-61.1c67.8 0 122.9 55.1 122.9 122.9 0 10-1.1 17.6-1.1 17.6s66.7 13.8 66.7 80.7c-.2 45.2-36.9 81.9-82.1 81.9z"/></g></svg>