<svg id="Layer_1" enable-background="new 0 0 75 75" viewBox="0 0 75 75" xmlns="http://www.w3.org/2000/svg"><g id="Boy_Dancing" fill="rgb(0,0,0)"><path d="m21.6930962 56.2098274c-.3027344.6386719-.6796875 1.4335938-.6640625 2.277832.0174904 1.0215034.72299 2.0419922 1.7988281 2.0419922.658783 0 .7650604-.1204872 5.7109375-2.4023438.0482178-.0222778.0889893-.0540771.1221924-.0915527.1819267.3749504.3846931.6317863.5028076.8937988.2236328.4995117.4892578.96875.7890625 1.3945313.638176.9022484 1.6258373.4820404 1.4277344-.5927734-.1640625-.9067383-.4882813-1.7670898-.9619141-2.5585938-.7359333-1.2258263-1.8781433-.7304611-1.8917236.2717285-.0943604-.0402832-.203125-.0446777-.3026123.0021973-4.7983418 2.1939545-5.0137615 2.4140663-5.5488281 2.3203125-.5488281-.09375-.8867188-.7304688-.8964844-1.2924805-.0126953-.6689453.3085938-1.3461914.5917969-1.9433594.069458-.1461182.0333252-.3123779-.0736084-.4214478 1.8242416.3525276 2.5338268.5558434 3.302124.1924438 1.0698051-.5058746 1.2683487-1.6452408 2.4248047-4.5512695.1679688-.4326172.3173828-.7783203.5888672-.9692383.4101563-.2866211 1.0322266-.1157227 1.4052734.1904297.584713.4772301.7123775.8880844 2.8876953 5.3583984.0712051.1462479.2317505.2347488.4023438.2050781 1.9960938-.3520508 3.4960938-.8945313 4.7197266-1.7084961 1.399044-.931118 1.5224495-1.8606377.8212891-3.4609375-.3740234-.8530273-.7919922-1.7050781-1.2421875-2.5327148-1.6368332-3.0065689-2.8052177.3414574-8.2548828-.2670898-1.7860603-.2032928-3.5329094-.9242516-5.2460938-1.4960938-.7832966-.261097-.9156017-.1422119-1.015625-.1508789-.1000633.0618324-.3808784-.058609-.9775391.7753906-.3650265.5110359-1.4481964 1.7384949-3.109375 4.2998047-.4560547.703125-1.0048828 1.7436523-.5058594 2.6591797.4897804.8988419 1.4979191 1.010006 3.3879395 1.3762817-.0810548.0344851-.1517335.0940554-.192627.1798708zm7.7333984.9868164c.4248867.0950432 1.2304688 2.2024727 1.2304688 2.8051758-.2377758-.246582-.6368008-.9935341-.8085938-1.378418-.2697525-.6029739-.8822289-1.1797676-.421875-1.4267578zm-9.7939453-4.7939453c.9151478-1.4101181 1.8885269-2.7569313 2.9199219-4.0424805.7028904-.8846741.3371601-.9246216 2.3798828-.2119141 1.3916016.487793 2.8320313.9921875 4.3359375 1.1630859 1.8730469.2124023 3.7724609-.0195313 5.5566406-.6943359 1.2266769-.4648209 1.5640221-.4509735 2.1240234.5751953.4394531.8085938.8476563 1.6411133 1.2128906 2.4746094.6317253 1.443615.3946991 1.9069214-.5498047 2.5361328-1.0771484.7167969-2.4042969 1.2099609-4.15625 1.543457-1.96068-4.0279541-2.2023163-4.7329521-2.9628906-5.3554688-.3671875-.300293-.8779297-.5048828-1.3828125-.5048828-1.0083981 0-1.4489594.7232933-1.7851563 1.5947266-2.0499325 5.1936836-1.0430431 4.6047935-6.6669922 3.5473633-1.6627387-.3230056-2.1052989-.9603156-1.0253905-2.6254882z"/><path d="m39.7468071 61.6155891c.0400391-1.2285156-.1113281-4.2587891-2.3857422-5.8569336-.4036598-.285141-.8382912.3276863-.4316406.6132813 1.3710938.9628906 2.1435547 2.9140625 2.0673828 5.2192383-.0652466 1.9864616-.9620094 5.7809181-.8060303 6.2878456-.4906998.3964386-.9314766.9458694-.5806885 1.4729004.1455078.21875.3964844.3354492.6943359.3354492.9615898 0 3.1630478-1.3974915 3.4746094-2.3408203l.0009766-.0004883c.1835938-.5566406-.0498047-.8115234-.2050781-.9135742-.220665-.1462479-.9064484-.3283844-2.5914307.8338623.0822754-.7536621.2019043-1.5106201.331665-2.2479248.1933594-1.1059609.3935548-2.2495155.4316407-3.4028359zm-.2441406 6.1958046c.2412109-.2138672 1.1894531-.7016602 1.578125-.7436523-.1067162.3468246-1.1770592 1.4139023-2.6074219 1.8417969-.2391243.071579-.3038177.0654297-.1298828-.1464844.2612762-.3181839.777298-.6150055 1.1591797-.9516602z"/><path d="m41.0645561 34.3124275c.0334473-.324646.0391846-.6544189-.0355225-.9922485-.2226563-1.0102539-1.0009766-1.2792969-1.7529297-1.5390606l-.0976563-.0336914c-1.9589844-.6811523-4.1103516-.7084961-6.0078125-.7324219-1.2714844-.0146484-2.84375-.0356445-4.1035156.7758789-1.4367523.9252834-1.8108749 2.0714245-5.2890625 9.0712872v.0004883c-.2910156.6074219-.6064453 1.3325195-.7392578 2.1054688-.1923828 1.1171875.0439453 2.1694336.6474609 2.8876953.9685669 1.1489296 2.3032188 1.1156235 4.1845703 1.3813477 1.8956261.2771339 4.239933.6416016 5.1230469.6416016 2.1520844 0 2.9739838-1.1787643 3.8251953-3.1508789 3.8172302-8.8754578 3.8457031-8.768898 4.1010742-9.6628418 6.3904762-.105751 7.5346375-.0148048 9.0083008-.7131348 2.3839264-1.1324043 3.319397-3.7006168 3.9759521-6.2275372.0065918-.0011597.0126953-.0006714.019165-.0019531 1.0703125-.2148438 2.4121094-2.3408203 2.6044922-2.7587891.9344177-2.0294819-.9324646-3.2161217-2.4160156-1.6279297v.0004883c-.4863281.5219727-1.3535156 2.1523438-1.3115234 3.2504883.0155029.399292.1446533.7128906.3808594.9343262-.5910034 2.2619572-1.407917 4.7239704-3.5742188 5.7531719-1.290676.6111297-2.3424528.5354651-8.5426024.6382445zm-4.9339599 10.1176148c-.4550781 1.0546875-.8994141 1.9633789-1.7197266 2.4018555-1.0674782.570385-2.3883362.2546959-7.0966797-.434082-1.1553249-.1679916-2.3139458-.1473808-3.0537109-1.0249023-.4619141-.5488281-.6376953-1.3789063-.4833984-2.2773438.1181641-.6806641.3955078-1.3198242.6767578-1.9086914 3.4878654-7.0178452 3.7936516-7.9753647 5.0195313-8.765625 1.0693359-.6894512 2.5146484-.6748028 3.6875-.6562481 1.9306641.0244141 3.9267578.0498047 5.7714844.6904278l.0986328.0341797c.7451172.2573242 1.1396484.418457 1.265625.9921875.2728423 1.2307929-.2024652 1.6898574-4.1660157 10.9482421zm18.5302734-20.1826153c.2226563-.2392578.4296875-.3876953.6337891-.4550781.2099609-.0693359.4355469-.0415039.5654297.0668945.8191185.6801071-1.3819466 3.3904667-2.1660156 3.5170898-.5214196-.4808635.4459457-2.5699062.9667968-3.1289062z"/><path d="m15.8531303 23.1359768c-.4973145 3.024231 1.2938232 5.8043823 3.1807861 7.4229736 2.1884766 1.8579082 4.9072266 2.8437481 7.5351563 3.7968731.4702339.1695061.7183094-.5365944.2558594-.7050781-2.5664063-.9306641-5.2197266-1.8930645-7.3037109-3.6621075-2.1246338-1.8216553-3.239502-4.3778076-2.9348145-6.6090698 1.4066162-.2113647 1.630127-3.2196655 1.5686035-3.817688-.0488281-.4804688-.1748047-.8579102-.3828125-1.152832-.7418346-1.0560646-2.3036146-.8087921-2.5908203 1.0605469-.0820313.5283203-.1298828 2.8706055.6425781 3.6459961.0089112.0089721.0201416.0118408.0291748.0203857zm.0684815-3.552124h.0009766c.2232056-1.4579945 1.3403912-1.3553772 1.4863281.0546875.0791016.7670898-.3046875 2.9052734-.9345703 2.9990234-.0253906.0048828-.0585938.0107422-.1191406-.0507813-.4404298-.442871-.5332032-2.3583984-.4335938-3.0029296z"/><path d="m37.244976 17.2202053c0-.6937256-.3327637-1.2561035-.7434082-1.2561035s-.7434082.5623779-.7434082 1.2561035c0 .6937866.3327637 1.2561646.7434082 1.2561646s.7434082-.562378.7434082-1.2561646z"/><ellipse cx="28.024" cy="18.205" rx=".743" ry="1.256"/><path d="m36.9909477 24.6751614c.9908142-.9184628 1.4931602-1.8824291 1.5820313-2.0126953.6455078-1.0556641.9775391-1.7587891.7695313-2.2265625-.0977936-.2163963-.3658371-.2884369-.5556641-.1557617-.7743683.5357533-1.4473228 1.2275524-2.2246094 1.6870117-2.6118927 1.5478497-5.6461926 1.9394569-8.4384766 1.265625-.3141251-.0725746-.5656872.251276-.421875.534668 1.5986004 3.1493224 6.1289978 3.840866 9.2890625.9077148zm1.3388672-3.0903321c-.7257309 1.3528175-1.3100891 2.0412502-1.8486328 2.5405273-1.2324219 1.1425781-2.8017578 1.7460938-4.3242188 1.6616211-1.3134766-.0751953-2.5380859-.6982422-3.3183594-1.6450195 3.2333947.5256424 6.7783547-.2512016 9.491211-2.5571289z"/><path d="m52.9470024 15.4515285c1.3291016-.9604492 2.1787109-2.5761719 2.2177734-4.2163086.0117874-.4997578-.7361946-.5053158-.75-.0175781-.0332031 1.4106445-.7636719 2.7998047-1.9072266 3.6264648-.1679688.1210938-.2050781.3554688-.0839844.5234375.1222497.1695195.3579332.2044612.5234376.0839844z"/><path d="m54.6071587 15.9803371 3.6640625-2.2841797c.4229431-.2643385.0208168-.9004641-.3964844-.6367188l-3.6640625 2.2841797c-.4223061.26394-.019516.897543.3964844.6367188z"/><path d="m57.9274712 17.1756496c-1.4316406-.2685547-2.9638672-.1176758-4.3164063.4287109-.4520531.1833572-.1875267.8848171.28125.6953125 1.2197266-.4931641 2.6044922-.6289063 3.8964844-.3867188.4894791.0907709.6251488-.6449202.1386719-.7373046z"/><path d="m52.8649712 66.8006516c1.7695313-2.0615234 2.6523438-4.9228554 2.2509766-7.6020546-.0570488-.3730125-.5710716-.4398079-.7167969-.0898438-1.2246094 2.9116211-3.2548828 5.436039-5.8134766 7.2636757 1.6630859-2.7031288 2.3310547-5.9956093 1.8017578-9.1372108-.0302734-.1791992-.1845703-.3105469-.3662109-.3125-.0019531 0-.0029297 0-.0039063 0-.1806641 0-.3349609.128418-.3681641.3056641-.6875 3.6542969-3.3769531 6.8710976-6.8515625 8.1943398-.4636574.176796-.1949692.8778229.2675781.7011719 3.0664063-1.168457 5.5615234-3.717289 6.75-6.7695351.0058594 2.9453125-1.0429688 5.8779335-2.9609375 8.1308632-.270977.3168793.1058884.7741547.4667969.5712891 3.0380859-1.6831055 5.53125-4.248539 7.1376953-7.3164101-.0722656 2.5913086-1.34375 5.1772499-3.4023438 6.7456093-.1425781.109375-.1884766.3046875-.1083984.4658203.0810547.1606445.2646484.2436523.4375.1933594 3.2460938-.9145508 6.0996094-3.2275391 7.7255859-6.1884804-.078125 2.7519569-1.7451172 5.4506874-4.2470703 6.6376991-.4458237.2124023-.1302223.8872147.3222656.6777344 3.2138672-1.5253906 5.1767578-5.319828 4.5644531-8.8261757-.0618019-.3601456-.5708389-.4366722-.7167969-.0751953-1.1289061 2.811035-3.4130858 5.1596716-6.1689451 6.4301795z"/><path d="m25.0303764 21.9404812c1.5625458 7.4411545 10.136776 10.2520657 15.7808838 6.0037231.3961411-.3000374-.0554771-.8975601-.4511719-.5996094-3.7144814 2.7986889-8.6985149 2.2192345-11.7441406-.5249023-4.0675697-3.6602993-4.1507149-10.3397026.2528076-13.8270264.5969238.4008179 1.2617188.6659546 1.8728027.7185059 3.0949745.2661581 5.5610809.3695669 7.7167969-2.0992432 5.8819389 2.3618965 7.3699837 10.2371693 3.0970459 14.6696777-.346981.3575287.1980629.8777447.5390625.5205078 1.4451637-1.4946175 2.349369-3.4781322 2.586792-5.644104 1.8930435.398262 3.1182175-1.6653328 2.1329346-3.124939-.6583023-.9785728-2.078331-1.0732956-2.3989258-.7206421-.0576286-.1048222-1.0735893-4.4019794-5.4840088-6.3084106.7318001-1.0588789 1.6258774-3.1946764.774292-4.1518555-.479126-.5385132-1.369751-.5136108-1.9870605-.1416626s-1.0258789 1.001709-1.4127197 1.6098022c.5319824-.6868286.4106445-1.7722778-.225708-2.3636475s-1.6842041-.6501465-2.4136963-.1783447c-.7294922.4717407-1.105835 1.4096069-.9608154 2.2661743-.2645264-.7335205-.5430908-1.4903564-1.0831299-2.0527954-.5400391-.5623779-1.4182129-.8789063-2.119873-.5386963-.651123.3156738-.9616699 1.1043091-.9274902 1.8271484.0302734.638916.2783203 1.2409668.5463867 1.8253784-.2614746-.4060669-.8725586-.5709229-1.326416-.3562012-.9667511.4575548-1.2616634 2.1825504.4726563 3.767334-1.8250046 1.5072622-2.9296532 3.5400715-3.3029785 5.6516724-.6534424-.1702881-1.4208984.1405029-1.7706299.7724609-.6106073 1.1012748.0544108 2.6956408 1.8363035 2.9996951zm19.7525635-4.0177612c.5117188-.1328125 1.1152344.0927734 1.4101563.5292969.2939453.4370117.2773438 1.0844727-.0380859 1.5058594-.310791.4133911-.90979.6053467-1.4075928.4609375.0458984-.8434448-.0187988-1.6843872-.1954346-2.5142822.0714111.0280761.1497803.0404052.230957.0181884zm-20.9326172 1.3823242c.199585-.3618164.6887207-.5304565 1.0273438-.3693848-.0720215.7393799-.0592041 1.4823608.0369873 2.2201538-1.0799103-.3079796-1.3922425-1.2611446-1.0643311-1.850769z"/></g></svg>