<svg id="Layer_1" height="512" viewBox="0 0 512 512" width="512" xmlns="http://www.w3.org/2000/svg"><g><path d="m239.6 378.9c0-15.9-32.8-53.2-32.8-53.2s-32.8 37.3-32.8 53.2c0 18.1 14.7 32.8 32.8 32.8s32.8-14.7 32.8-32.8zm-32.8 16.4c-9 0-16.4-7.3-16.4-16.4 0-5.2 7.7-17.4 16.4-28.3 8.7 10.9 16.4 23.1 16.4 28.3 0 9.1-7.3 16.4-16.4 16.4z"/><path d="m337.9 378.9c0-15.9-32.8-53.2-32.8-53.2s-32.8 37.3-32.8 53.2c0 18.1 14.7 32.8 32.8 32.8s32.8-14.7 32.8-32.8zm-32.7 16.4c-9 0-16.4-7.3-16.4-16.4 0-5.2 7.7-17.4 16.4-28.3 8.7 10.9 16.4 23.1 16.4 28.3-.1 9.1-7.4 16.4-16.4 16.4z"/><path d="m370.7 378.9c0 18.1 14.7 32.8 32.8 32.8s32.8-14.7 32.8-32.8c0-15.9-32.8-53.2-32.8-53.2s-32.8 37.3-32.8 53.2zm32.8 16.4c-9 0-16.4-7.3-16.4-16.4 0-5.2 7.7-17.4 16.4-28.3 8.7 10.9 16.4 23.1 16.4 28.3 0 9.1-7.4 16.4-16.4 16.4z"/><path d="m141.3 378.9c0-15.9-32.8-53.2-32.8-53.2s-32.8 37.3-32.8 53.2c0 18.1 14.7 32.8 32.8 32.8s32.8-14.7 32.8-32.8zm-32.8 16.4c-9 0-16.4-7.3-16.4-16.4 0-5.2 7.7-17.4 16.4-28.3 8.7 10.9 16.4 23.1 16.4 28.3 0 9.1-7.3 16.4-16.4 16.4z"/><path d="m223.2 477.2c0 18.1 14.7 32.8 32.8 32.8s32.8-14.7 32.8-32.8c0-15.9-32.8-53.2-32.8-53.2s-32.8 37.3-32.8 53.2zm32.8 16.4c-9 0-16.4-7.3-16.4-16.4 0-5.2 7.7-17.4 16.4-28.3 8.7 10.9 16.4 23.1 16.4 28.3 0 9.1-7.4 16.4-16.4 16.4z"/><path d="m321.5 477.2c0 18.1 14.7 32.8 32.8 32.8s32.8-14.7 32.8-32.8c0-15.9-32.8-53.2-32.8-53.2s-32.8 37.3-32.8 53.2zm32.8 16.4c-9 0-16.4-7.3-16.4-16.4 0-5.2 7.7-17.4 16.4-28.3 8.7 10.9 16.4 23.1 16.4 28.3 0 9.1-7.3 16.4-16.4 16.4z"/><path d="m124.9 477.2c0 18.1 14.7 32.8 32.8 32.8s32.8-14.7 32.8-32.8c0-15.9-32.8-53.2-32.8-53.2s-32.8 37.3-32.8 53.2zm32.8 16.4c-9 0-16.4-7.3-16.4-16.4 0-5.2 7.7-17.4 16.4-28.3 8.7 10.9 16.4 23.1 16.4 28.3 0 9.1-7.4 16.4-16.4 16.4z"/><path d="m469 181.1c-1.1-65.3-54.9-118.1-120.8-118.1-9.9 0-19.7 1.2-29.3 3.6-28.5-40.6-74.5-64.6-124.4-64.6-83.5 0-151.5 67.6-151.5 150.6 0 9 .9 18.1 2.6 27.4-26 10.5-43.6 35.8-43.6 64.2 0 38.2 31.2 69.2 69.6 69.2h368.7c38.4 0 69.6-31.1 69.6-69.2.1-27.3-16.1-52-40.9-63.1zm-28.6 115.9h-368.8c-29.4 0-53.3-23.7-53.3-52.9 0-46.5 46.5-53 46.5-53s-5.6-14.6-5.6-38.6c0-74 60.6-134.2 135.2-134.2 83.6 0 117.3 67.3 117.3 67.3s15.6-6.3 36.4-6.3c57.6 0 104.5 46.5 104.5 103.7 0 4-.4 9.2-.4 9.2s41.3 7.9 41.3 51.8c.1 29.3-23.8 53-53.1 53z"/><path d="m354.3 100.4v16.4c31.6 0 57.4 25.7 57.4 57.3h16.4c0-40.6-33.1-73.7-73.8-73.7z"/></g></svg>