<svg id="Layer_1" enable-background="new 0 0 75 75" viewBox="0 0 75 75" xmlns="http://www.w3.org/2000/svg"><g id="Boy_Eating" fill="rgb(0,0,0)"><path d="m34.4559288 66.4048233c-1.3445816 1.221756-.9670601 2.9169922 1.7006836 2.9169922 1.6599579 0 3.8871231-.9914017 4.2304688-2.5390625.1723213-.7777252-.1686668-1.4726715-.8535156-1.807373l-.105957-6.8664551c-.0079803-.4834251-.7571068-.4907074-.75.0117188l.1029053 6.6699219c-1.6119882-.0458909-3.1700517.5620269-4.3245851 1.6142577zm4.3027344-.8642578c1.0367813.02948 1.3974609 1.2254944.0292969 2.1923828-2.0649834 1.4568253-5.6761017.9056396-3.828125-.7734375h.0004883c1.0383529-.9459381 2.4428748-1.4691467 3.7983398-1.4189453z"/><path d="m50.5042686 69.7866592c.7685547-.1425781 1.2729492-.5273438 1.4194336-1.0820313.4715843-1.7945557-3.2496719-3.6940384-5.2613525-3.3793945l-.3753662-7.340332c-.0102539-.2070313-.2026367-.3496094-.3935547-.3554688-.2070313.0107422-.3662109.1875-.3554688.3945313l.3879395 7.5869141c-2.1270828 1.455368.9101944 4.8501205 4.5783691 4.1757812zm.2060547-2.2578125.0004883.0009766c.7519493.7009964.6769447 1.3309784-.3432617 1.5185547-2.9141998.540802-5.4803581-2.0740051-3.9129028-2.8803711.0213623-.0087891.0395508-.0209961.0587158-.0336914.6465187-.276947 2.7134781.0089035 4.1969604 1.3945312z"/><path d="m40.3113976 20.0185909c.3828735.0036621.6973877-.4394531.7025757-.9897461.005188-.5505371-.3009644-.9995117-.6838379-1.0031738-.3828125-.0036621-.6973877.4396973-.7025146.9899902-.0051881.550293.3009643.9995118.6837768 1.0029297z"/><path d="m44.5623741 20.2842159c.3828735.0036621.6973877-.4394531.7025757-.9897461.005188-.5505371-.3009644-.9995117-.6837769-1.0031738-.3828735-.0036621-.6973877.4396973-.7025757.9899902s.3009644.9995118.6837769 1.0029297z"/><path d="m43.6019249 25.8862667c.9033203-.0820313 1.6601563-.9257813 1.7226563-1.9199219.0976181-1.547121-1.0635071-3.2130413-2.6318359-2.71875-.9605141.3056183-1.0365067.6438732-2.1186523.4023438-.3999023-.0908203-.8535156-.1923828-1.3066406-.0048828-1.1127396.46138-1.3696671 2.5225906.8925781 3.3359375.9145966.3247261.9448547.1824169 2.0644531.6103516.4562377.1778659.886505.3391513 1.3774413.2949218zm-4.3374023-2.5117187c-.0957031-.2119141-.1000977-.4814453-.012207-.703125.3042717-.7672901 1.2226486-.1338215 1.9609375-.1777344.6556702-.0114765 1.1909103-.3684158 1.7060547-.53125h.0004883c1.0264168-.3308163 1.7173996.9821949 1.6567383 1.9570313-.0395508.6240234-.5073242 1.1708984-1.0429688 1.2207031-.470005.0233631-.9629669-.2343731-1.390625-.3798828-.9682198-.339613-2.4415742-.4178162-2.878418-1.3857422z"/><path d="m52.482235 34.8054581c.427063.3725586.866272.7358398 1.4003296.9990234 1.0650139.5244064 2.6533012.6708984 3.1800537-.4299316l-.7200317-2.0400391c-.7506828-.4933014-1.7549553-.6757431-2.8552856-.9589844-.0738754-.4412575-.1737442-.8873253-.5240479-1.1982441-.4927292-.4154797-1.1382179-.214056-1.6672363.1611328-1.9052124-1.4128418-2.9177246-3.6867676-5.182312-4.7358398 1.8153687-1.138916 3.164978-3.0063477 3.6998901-5.0820313.0514526.0266113.1073608.0454102.1691895.0454102h.0019531c1.4057426-.0075703 2.380722-1.6813889 1.3788452-2.9221191 2.3860054-2.144331 1.8499756-5.7012329-.6845093-7.2243652.5783768-.5030947.8755798-1.4280281.5976563-2.3232422-.9640083-2.442153-4.4287758-3.120347-6.9018555-2.1748042-.6772118-2.3792453-5.8885307-2.7560124-7.4941406 1.1044917-2.8714066-1.3606048-6.4529781 1.6904926-5.0082989 6.0224609-.5917625.1598339-1.0688171.7219925-1.1796875 1.3417969-.2398186 1.380312 1.0294991 2.9547882 2.1215191 3.8320313-.5493774.3498535-.9158306.9907227-.8705425 1.6513672.0942097 1.3738346 1.7837849 2.0269623 2.1066265 1.4921875.4047241 1.1635742 1.0578613 2.2216797 1.9490356 3.0957031 1.5097046 1.489502 3.631897 2.3071289 5.7539063 2.3417969-.0214844.1459961-.0272217.2924805-.0090332.4384766-2.6677017-.0473709-3.6750031-.1669769-4.6872559.2568359-.6796875.286377-1.2600708.8374023-1.6832275 1.5512695-.1071777-.0397949-.2089844-.09375-.3197021-.1225586-1.2177734-.3144531-2.5595703.0966797-3.338377 1.0273438-.5405273.6464844-.7675781 1.5000019-.6640625 2.3027363-1.2211914-.5546875-2.7578125-.4121094-3.8022461.46875-1.2052307 1.0168839-1.7879829 3.5594025-.5994263 4.8398438-.0308113.1426048-.0188122-.0500221.3060303 2.7839355-2.5312519-.4738808-2.8285198 2.0519867-1.2251587 2.9816895.4945068.2861328 1.0321045.3835449 1.6325684.4716797l.1711426 1.4599609c-.1037827 1.1644783 5.9915333 1.9198112 7.2979717 2.0771484-.1281738.8710938-.234314 1.762207-.3048096 2.6601563-.0161133.2060547.1381836.3867188.3447266.4033203.1967773.0068359.3867188-.1386719.4033203-.3447266.0620117-.7949219.1484375-1.5869141.2568359-2.3613281 3.0668335.8479271 6.2185745.993042 9.4951172.4169922 1.3736649-.2486343 3.0787964-.511261 4.1557617-1.3935547.2071037 1.6568184.6924477 3.852047.3759766 7.7490234-.0580788.5725021-.1278801.7376175-.8959961.9521484-1.362793.3564453-2.8203125.4433594-4.2177734.2519531-.3032227-.0390625-.6040039-.1005859-.7617188-.2978516-.1585121-.1791878-.1248589-.2119064-.7631836-4.53125-.0600433-.4061356-.6615334-.4439735-.7402344-.0117188-.303833 1.6995964-.5904884 3.3655777-.8769531 5.0263672-1.7016602.2685547-3.4536133.0800781-5.0805664-.5556641-1.0191841-.4059601-1.0781517-.771183-1.0942383-1.7041016-.0068359-.6210938.0083008-1.2421875.034668-1.8632813.0087891-.2060547-.1513672-.3818359-.3583984-.390625-.1923828-.0009766-.3818359.1513672-.390625.359375-.1178932 2.7283897-.1971321 3.6053085 1.5336914 4.296875 1.803257.7033615 3.7934608.916378 5.7490234.5498047.3837624-.0704384.3069-.5418434.3896484-.8203125.1425781-.8271484.2856445-1.6552734.4296875-2.484375.2744713 1.8470535.2756844 2.2529945.5927734 2.6103516.3120117.3916016.7802734.5009766 1.2368164.5595703 1.4912109.2070313 3.0507813.1113281 4.5131836-.2714844 1.0165672-.2835541 1.3507004-.650032 1.4472656-1.6123047.3223915-3.9601402-.2188492-6.4787941-.3647461-7.7841797-.0419922-.3740234-.0854492-.7607422-.4267578-.8916016-.3388672-.1318359-.6459961.1425781-.7578125.2421875-.9177437.7949905-2.60009 1.0479813-3.8637695 1.2763672-2.4191895.4269142-4.5295258.4186134-6.5907593.1247559.7662964-.0905762.8810425-.3195801.9125366-.4909668l.1315308-.3068848c2.3413162.0460129 4.6022682-.1605644 6.8748169-.6530762 1.2011719-.2587891 2.4238281-.6279297 3.2260742-1.5722656 2.1473618-2.5130005.3744278-7.1126518-.0854492-9.8076172-.1844254-1.0527077-.2181549-2.0234718-.5072632-3.411377.4790039.2573242.9414063.5317383 1.3845825.8256836-.050644 1.2574313 1.0047263 2.201443 2.2427368 1.7207034zm-2.5014039-13.9895039c-.0045776 0-.0083618.0024414-.0128784.0026855.1184311-.7272358.1592789-1.2169685.0541992-2.1320801.0327759.0151367.0654907.03125.1032104.0366211.5063477.0722656.9350586.6025391.8999023 1.1123047-.0361327.5195313-.5239256.9775391-1.0444335.9804688zm-18.5493145-5.2958984c.0746708-.4204311.4874859-.8432064.8955059-.7587891.3076668.0563335.534523-.2409487.421875-.5117188-1.7366352-4.150034 1.8461571-6.9520483 4.1191406-5.3671875.2101631.1462879.5000572.0446911.5737305-.2001953.6007729-2.0093427 2.7109337-3.2419753 4.8154297-2.6757808.7402344.1943359 1.4692383.75 1.4306641 1.4375-.015625.2812629.2734489.4808102.5375977.3583984 2.1840057-1.0557117 4.6921768-.4347944 5.7666016.6416011.2498894.260354.4291992.5874834.5820313.9111328.2073746.675252-.1255226 1.5634775-.8027344 1.7128906-.3630447.0809212-.3990288.5855675-.0512695.7167969 2.5824966.974021 3.358345 4.4352665 1.0515747 6.3786621-.1685181-.0881348-.3483276-.1550293-.539856-.182373-.1166382-.0180664-.2227783.0229492-.3018799.0949707-.0861206-.4465332-.2023926-.8937988-.364624-1.3391113h-.0019531c-.0065918-.0185547-.0204468-.0310059-.0290527-.0490723-.0065918-.0144043-.0053101-.0292969-.0129395-.0427246h.0004883c-.3881836-.7109375-.9130859-1.3564453-1.5131836-1.8632813-.6352539-.5507813-3.2724609-2.3955078-4.5771484-1.3339844-.7637711.6418066-.4219627 1.4312649-1.6689453 2.4169922.1455078-.9189453.0859375-1.8847656-.1801758-2.7958984-.1246605-.4240885-.7304497-.3175278-.7348633.1015625-.0087891.8115234-.6889648 1.4804688-1.2670898 1.8056641-1.6380539.9100313-5.8098221.873847-5.9838867 3.9199219-.9987032-.7472992-2.3647368-2.2270546-2.1650374-3.3759765zm2.3046856 6.28125c-.5117188-.0029297-1.0092773-.4697266-1.0444336-.9785156-.0340576-.496582.352356-.9829102.8359375-1.0908203.0174561.0097656.0409546.0244141.0595093.0349121.0147095.7106934.1135864 1.4023438.2942505 2.0644531-.0446167-.019043-.093689-.0297852-.1452637-.0300293zm.6070557-1.8913575c.2529678-.2493172.0042725-.4280014.0042725-.8049316 0-.2413692.0264664-.3859615.0424805-.4953613.1091919-.4016113.3620605-.798584.699707-1.0925293 1.6732292-1.4682961 4.4937286-.8388615 5.9956055-2.8847656.0693626 1.6448097-.5078735 1.9617214-.1430664 2.2910156.1088867.0976563.2675781.1230469.4023438.0634766.9152527-.4053745 1.69841-1.1395216 2.1518555-2.2353516.1191406-.2861328.2426758-.5820313.4125977-.7255859.7094727-.5732422 2.7250977.5556641 3.6118164 1.3261719.8247108.6950474 1.1618118 1.3838768 1.3458862 1.6577148 1.4044991 3.8824463-.6167984 7.6753769-3.6744385 9.248291-.00354-.0009766-.0061646-.0026855-.0097046-.0036621-1.0279198-.2727108-2.3947792-.0727425-3.0872803.7880859-4.2327882.1154823-7.5812875-2.9463501-7.7520753-7.1325684zm.6365967 16.8855c.0141602.2070313-.1420898.3857422-.3486328.3994141-.0087891.0009766-.0170898.0009766-.0258789.0009766-.1953125 0-.3603516-.1513672-.3735352-.3496094-.059082-.8740234-.7075195-1.7001953-1.5415039-1.9658203-.4645309-.1471786-.2561493-.8581619.2275391-.7148438 1.133789.3603516 1.9819336 1.4423828 2.0620117 2.6298828zm.2577514-4.2077637c0-.5383301.4363403-.9746113.9746094-.9746113.0462646 0 .0859375.0185547.1300049.0253906.6406136.7730541.4551544 1.0513821.8035889 1.1521015-.2550354 1.1643907-1.9082032.9340745-1.9082032-.2028808zm-2.9467163-1.1525898c.3179321-.3789063.7769775-.6342773 1.2757568-.7624512 1.0464554.8483868.1390686 2.5058994-1.1328125 2.0993671-.239563-.0766602-.4279785-.2263184-.5684795-.4101563.0768433-.3349608.2025128-.6596697.4255352-.9267596zm-6.463377 10.6972676c.6549568-.3143806 2.1469002.242878 2.7231445.6533203 0 .0009766 0 .0009766.0004883.0009766.1723633.1230469.5698242.4443359.5356445.78125-.0244141.2441406-.2856445.4404297-.5307617.5087891-.4719391.1320839-1.8858852-.0680389-2.4487305-.3935547-.7936057-.4618226-.7362861-1.3284264-.2797851-1.5507813zm2.4521485 4.0439453-.1525269-1.302002c.0076904 0 .0159912.0021973.0236206.0021973 1.0236015 0 1.6197796-.6109047 1.6821289-1.2333984.1069164-1.0553131-1.0928345-1.7162323-2.0952148-2.072998l-.2808838-2.3664551c3.0831032 1.8845024 7.5364437 2.3466797 11.1358624 2.3466797.973877 0 1.9865112-.1098633 2.8201904-.5717773-.0443878.103569-3.050724 7.1178017-2.8865967 6.7348633-1.0703125.4267577-9.3530254-.817383-10.2465801-1.5371095zm20.7402324-8.5410156c.590332 2.5117188 1.3256836 5.6376953-.1430664 7.3564453-.6582031.7744141-1.7412109 1.0947266-2.8134766 1.3261719-2.0799561.4506836-4.2305908.6577148-6.3937378.6320801l2.647644-6.1779785c.0671997-.1569824.0145874-.3295898-.1107788-.4326172 1.35532-1.4955406.8999519-3.8718224-.9917603-4.7177734.2856445-.4267578.4511719-.9482422.4667969-1.4990234.0688629-2.4055958-2.5355682-3.5030365-4.2944336-2.2978535-.314209-.5991211-.7897949-1.0883789-1.3435669-1.4416504 1.1555023-1.8847656 2.6294174-1.3921089 5.9659424-1.3862305.8638 1.4274673 2.9396286 1.3887863 5.9641724 2.8132324.5428239 1.9763393.2316171 2.359148 1.0462647 5.8251972zm2.2324219-5.2626954c.2377777-.2881432.9473763-.854538 1.2211914-.6279316.3096237.2756176.4132462 1.5080891.2373047 1.8955097-.0004883.0019531-.0014648.0039063-.0024414.0058594-.1103516.2548828-.3579102.4550781-.6308594.5117188-.9874801.2078895-1.4340591-1.0138245-.8251953-1.7851563z"/><path d="m44.9935265 9.680212c1.3500977-.2880859 2.8154297.1152344 3.8242188 1.0585938.3624687.3379755.8743477-.2095957.5117188-.5488281-1.1845703-1.1054688-2.9052734-1.5849609-4.4931641-1.2421875-.2026367.0429688-.331543.2421875-.2880859.4453125s.2475585.3330078.4453124.2871093z"/><path d="m32.0613976 41.8813858-.4682598 2.8789063c-.0793324.4899864.6606884.6114159.7402325.1210938l.4682617-2.8798828c.0793494-.4900895-.6606904-.6114083-.7402344-.1201173z"/><path d="m19.9139385 26.0991573h.0170898c.9780273 0 1.9262695.5859375 2.3632813 1.4609375.2199078.4444942.893774.1094227.6708984-.3339844-.9678421-1.9407387-3.1562347-1.907114-3.0561523-1.8769531-1.8150349.011673-2.6574154 1.7703342-1.3061523 2.8378906.4406013.3482742 1.1875839.5771484 1.3266602.5771484.4312687 0 .519989-.6149006.1035156-.7353516-.34375-.0986328-.6987305-.2197266-.9648438-.4296875-.1967773-.15625-.3994141-.4257813-.3769531-.7167969.0351562-.463867.6606445-.7792967 1.2226562-.783203z"/><path d="m24.6746807 24.9233761c-2.1860352-1.1816406-3.9189453-3.2021484-4.7539063-5.5429688-.1660404-.4653778-.8733597-.2160301-.7060547.2519531.8959961 2.5126953 2.7563477 4.6816406 5.1035156 5.9511719.4383451.2342892.792162-.4241905.3564454-.6601562z"/><path d="m24.2781963 19.3823605c-.2265625 1.2099609.2807617 2.5205078 1.2631836 3.2626953.388813.296505.8504677-.2959709.4521484-.5976563-.7607422-.5751953-1.1538086-1.5908203-.9780273-2.5263672.0899487-.4820366-.6445217-.6359005-.7373047-.1386718z"/></g></svg>