<svg id="Layer_1" height="512" viewBox="0 0 512 512" width="512" xmlns="http://www.w3.org/2000/svg"><g><path d="m469 180.8c-1.1-65.2-54.9-117.9-120.8-117.9-9.9 0-19.7 1.2-29.3 3.6-28.5-40.5-74.5-64.5-124.4-64.5-83.5 0-151.5 67.4-151.5 150.3 0 8.9.9 18.1 2.6 27.4-26 10.4-43.6 35.8-43.6 64 0 38.1 31.2 69.1 69.6 69.1h94.2v-16.4h-94.2c-29.4 0-53.3-23.7-53.3-52.8 0-44.2 46.5-52.9 46.5-52.9s-5.6-20.1-5.6-38.5c0-73.9 60.6-134 135.2-134 81.6 0 117.3 67.2 117.3 67.2s17.2-6.3 36.4-6.3c57.6 0 104.5 46.4 104.5 103.5 0 .5-.4 9.2-.4 9.2s41.3 9.7 41.3 51.7c0 29.1-23.9 52.8-53.3 52.8h-102.3v16.4h102.4c38.4 0 69.6-31 69.6-69.1.1-27.1-16.1-51.7-40.9-62.8z"/><path d="m428.1 173.8c0-40.6-33.1-73.6-73.7-73.6v16.4c31.6 0 57.4 25.7 57.4 57.2z"/><path d="m337.7 231.1h-104.9l-86.5 179.9h64.6l-34.7 99 215.4-180.8h-99.6zm8.9 114.4-135.3 113.6 22.6-64.5h-61.6l70.8-147.2h68.9l-45.8 98.1z"/></g></svg>