<svg id="Layer_1" enable-background="new 0 0 75 75" viewBox="0 0 75 75" xmlns="http://www.w3.org/2000/svg"><g id="Boy_Writing" fill="rgb(0,0,0)"><path d="m32.7988052 28.7945442c-.3074989-.3864059-.8965969.0773468-.5869141.4667969 2.328846 2.9265785 5.6991959 4.4355469 9.3974609 4.4355469 6.0425491 0 11.3529778-3.9985962 12.9660645-9.1235962 2.3731308-.2291164 2.9816017-2.6171913 1.7175293-3.6386108-.3569946-.289856-.8206177-.385376-1.2524414-.3154907-.0012207-.0170288-.0037842-.0341797-.005127-.0512085.6542969-.3403931.9894409-1.0994263 1.1856079-1.8252563 1.7107124-6.1586685-1.7776794-12.3980923-6.3800049-13.3299561-2.4199829-.4800415-5.25.7999878-5.9799805 3.1599731-3.6000366-2.6799927-8.2200317-1.3099976-11.5800171 1.0300293-5.0890255 3.5354586-6.1837406 10.199131-3.9199829 15.9099731.4980469-.3382568.9720459-.7112427 1.4239502-1.109314.2962646 1.2178955.8126831 2.4510498 1.5680542 3.6416016.260807.4126453.9008865.0206394.6333008-.4013672-.7980347-1.2579346-1.3225708-2.5615234-1.5724487-3.8313599 1.2136841-1.2042236 2.2203369-2.6176147 2.9371338-4.1695557.5499878 1.6300049.5599976 3.4299927.039978 5.0599976 2.6500244-1.3300171 4.9000244-3.4299927 6.460022-5.9500122.6500244-1.039978 1.1699829-2.1499634 1.5599976-3.3200073.6799927 1.4400024.9199829 3.0900269.6799927 4.6600342 1.3200073-1.2300415 2.6500244-2.460022 3.9700317-3.7000122 1.5-1.3900146 2.1900024-2.4400024 3.4799805-.3599854.6707764 1.0767212 2.9221802 4.5316772 4.7548828 4.6831055.0072632.1062012-.0012207.2107544.0026855.3167114-.0267944.0773315-.0288696.1589966-.0022583.2383423.0290222 2.1684628-.4007645 2.7605476-.399231 2.9532471-2.6137236 8.6877365-15.1133803 12.0915413-21.0982665 4.5703735zm23.022461-7.2768554c.6771355.547987.4586563 1.9277096-1.020813 2.2545776.1821289-.7850342.2703247-1.5910645.2671509-2.4058228.2468872-.0705566.543457-.0197754.7536621.1512452zm-5.3902588-10.5149537c-.7999878-.5999756-1.7900391-.9400024-2.7900391-.960022-.4822502 0-.5013771-.7267294.0100098-.75 1.1600342.0200195 2.3099976.4100342 3.2300415 1.1100464.7597656.5764198 1.3814049 1.3468971 3.2399902 3.4500122.3196716.3687468-.2343407.8673916-.5700073.4899902-1.5111504-1.708023-2.4101677-2.7972077-3.1199951-3.3400268z"/><path d="m63.8144302 61.0596809c.4633789-.5048828.6298828-1.1630859.7602539-1.793457.4586105-2.214119.6827087-4.4919128.6655273-6.7631836-.0086746-.9742393.2661133-2.5044365-.65625-2.9116211-.9261627-.4092636-2.5663872.4953957-3.190918.6987305l-9.472168 3.0898438c-1.5497856.5046539-2.093647.9937439-2.4521484 2.8886719-.2861328 1.5161133-.5029297 3.0644531-.644043 4.6015625-.2088852 2.279808.7339859 3.0168877 3.0039063 3.0981445 1.0970879.0380287 2.2385712.0176277 3.0458984-.7368164 1.5278511-1.4278183.3342781-3.4436989 1.8813477-5.9335938l.5444336 4.5483398c.0439453.3671875.2460938.6948242.5546875.8984375.3095703.2041016.6904297.2626953 1.0454102.1577148l.5343018-.15625c-.232933.176342-.093071.1686707-.5900879 3.758358-.9633179.1046753-1.9541016.3674927-2.8182373.7640991-1.1102257.5091476-.9730377 1.4673462-.2470703 1.8134766.866066.4114685 4.402523-.1048813 4.7519531-1.2587891.1724815-.5727615-.3024254-1.1156158-.9342041-1.2890015l.4351807-3.4429283c.0258789-.2050781-.1196289-.3930664-.3251953-.4189453-.0092163-.0012207-.0177612.0024414-.0269165.0019531l2.2988892-.6723633c.5913085-.1728514 1.3271484-.3881834 1.8354491-.9423827zm-7.7128906 7.3452111c-.2976074-.1417999-.04496-.3249283.2373047-.4545898.8623047-.3955078 1.8637695-.6547852 2.8193359-.7294922.207386-.0207367.5019836.0966034.6210938.2763672.0458984.0693359-3.0447693 1.2074203-3.6777344.9077148zm2.5883789-6.2221642c-.144043.0419922-.2973633.0185547-.4213867-.0634766-.3536224-.232975-.1397629-.1984062-.8803711-5.8491211-.03965-.3236351-.443943-.4459877-.6557617-.2011719-3.2582474 3.7537766.2799568 7.3335876-4.8769531 7.1494141-2.0937042-.0741768-2.4304771-.6732788-2.2836914-2.2797852.1386719-1.5131836.3520508-3.0375977.6342773-4.53125.1206055-.6391602.2734375-1.296875.6948242-1.7006836.4437981-.4257774.130146-.2480659 10.7246094-3.7036133.5359764-.1755486 2.5643616-1.1932449 2.7885742-.5756836.1872559.5247192.0708923 1.4494171.0761719 2.081543.0172043 2.2210541-.2023926 4.4462395-.6499023 6.6049805-.4696274 2.2684632-1.1097031 1.7281418-5.1503907 3.0688477z"/><path d="m52.8471451 64.0020599c-.1987305-.0180626-.3920898.1225586-.4165039.3286133l-.3356934 2.8323364c-1.1569099-.2485962-2.2913361-.1878967-3.401123.2897339-.0004883 0-.0004883 0-.0004883 0-1.1920013.5129776-1.101181 1.509079-.3950195 1.9189453 1.0456924.604126 5.0084877.3641357 5.2070313-.9228516.0785828-.5102692-.2408981-.8264236-.6838989-1.0409546l.3543091-2.9893188c.0244139-.2055664-.1225587-.3920898-.3286134-.4165039zm-.4174805 4.5449219c-2.057354.7467651-5.0733681.29953-3.4394531-.4057617 1.0308113-.4431915 2.1722755-.4728317 3.1727295-.1905518.1136169.1039658.6379585.1418915.6011963.3839111-.0004883.0039063-.0185547.097168-.3344727.2124024z"/><path d="m37.5361099 23.2391853c-.5724487.1037598-.9106445.881958-.7554321 1.7381592s.7450562 1.4661865 1.3174438 1.3624878c.5723877-.1037598.9105835-.882019.7553711-1.7382202s-.7449951-1.4661865-1.3173828-1.3624268z"/><path d="m47.2453995 23.3494148c.0648804-.8677368-.3527832-1.6063843-.9328613-1.6497803s-1.1029663.6248779-1.1679077 1.4926147c-.0648804.8677979.3527832 1.6063843.9328613 1.6497803s1.1029663-.6248779 1.1679077-1.4926147z"/><path d="m39.1591568 28.8731575c-.1699219-.1201172-.4033203-.0795898-.5224609.0898438-.1196289.1694336-.0791016.4033203.0898438.5224609 3.1966629 2.2576084 7.6535797 1.2799625 9.6298828-2.0620117.2525864-.4268227-.3930244-.8092976-.6455078-.3818359-1.762333 2.9789848-5.7212373 3.8294963-8.5517579 1.8315429z"/><path d="m10.8808365 61.127552c-1.788229 1.1888657-1.4077215 3.3888741.53125 4.180172 1.5513382.6330185 3.6330872.0520325 5.0053711.6713867 1.4248886.6432419 2.4996529 2.6902237 4.4575195 2.4052734 1.7067394-.2436981 2.3650398-2.2260056 3.6625977-2.8505859 1.1231976-.5413742 2.705658.3187637 2.8618164 1.5576172.0538712.4289398.6866035.444519.7376709-.0059204.1021729-.018425.1462898-.0039139.2481689-.093689 4.9712715-4.4701004 5.0242043-4.2369881 4.973877-4.6113853.2684288-.3441963-.1552353.4181328 5.1917114-11.5637207.5914917-.2275391 1.513855-.6211548 1.7875366-1.2994995.0362549-.0900879.0372925-.1842651.0483398-.2774658.3430901.1101952 2.7456665.0179901 5.1409912-1.0026855.9933167 2.3630943 1.9888802 4.7996826 4.6553955 4.7996826 1.2732124 0 1.554451-.1925049 11.2558594-3.4882813.8134766-.2763672 2.3276367-.7910156 2.769043-2.140625.4763641-1.4437523-.4384155-2.9889069-1.2231445-4.277832-.4085541-.6692162.1135216.2018814-5.9868164-10.2294922-1.0307617-1.8432617-2.9501953-2.8139648-4.7802734-2.4208984-.8905792.1923599-1.6175919.7783089-2.3417969 1.1816406-5.9539223 3.3115654-6.206501 3.3577309-6.7202148 4.0673828-.6801758.9389648-.574707 2.1826172-.3818359 3.2758789.5116577 2.8963623 1.3497314 5.7580566 2.4651489 8.5413208-2.8256912 1.2055397-4.6632538.8235168-4.9606323 1.0470581-.1062012-.2146606-.2836304-.4035645-.4957275-.5737915.1911087-.5141754.4970055-.8441238.4223022-1.4755859.0016479 0 .0032959.0010376.0049438.0010376.1560402 0 .291378-.0958366.347168-.2338867 1.6655998-4.0912666 3.0678329-4.9730034-.6641846-6.4620972.7822876-.2999878 1.5997314-.475647 2.4361572-.5120239.2070313-.0087891.3676758-.1835938.3583984-.390625-.0092773-.2075195-.2016602-.3789063-.390625-.3583984-.984375.0424805-1.9467773.2543945-2.8613281.6298828-.161499.0663452-.2449951.2322388-.2218628.3977051-2.71315-.8842697-2.5509949.3376083-4.3010864 4.1740723-.0415039.0908203-.0449219.1948242-.0097656.2880859.022522.0588989.0780029.0921021.1248779.1326294-.2374878.1560059-.4425659.3543091-.5594482.6207886-6.9201012 15.6637955-6.5783272 14.7134819-6.6431885 15.1155396-.2942486.2235451-.0939236.1600685-.072998 6.0319176-.7942619-1.2365723-2.3799629-1.6771698-3.5396729-1.1201172-1.4425259.6947098-2.1271667 2.59552-3.4433594 2.7841797-1.4764137.2075272-2.604332-1.6974106-4.0429688-2.3466797-1.7009659-.7678757-3.4978266-.0578308-5.0307617-.6821289-1.3483829-.5508041-1.7088366-1.9903641-.3999023-2.860836.5097656-.3378906 1.1469727-.4858398 1.7026367-.5859375 1.9663086-.3535156 4.034668-.2993164 5.9785156.1582031.4802036.1168365.6572495-.6164703.171875-.7304688-2.0449219-.4804688-4.2182617-.5371094-6.2832031-.1660156-.6313477.1137693-1.3608399.2856443-1.984375.6992185zm32.6313476-22.2534179c-.4181747-2.3704376.1447334-2.8952141 1.5004883-3.6499023 5.6487465-3.155632 5.067852-2.7940979 5.847168-3.2797852.5097656-.3178711.9907227-.6181641 1.5161133-.7314453 1.527832-.3310547 3.0844727.4755859 3.9711914 2.0595703l5.6811523 9.7226563c.7000504 1.1956291 1.9076004 2.857769 1.4672852 4.1787109-.300293.9169922-1.34375 1.3398438-2.2978516 1.6645508-9.3092117 3.1081505-10.5373116 3.8904114-12.097168 3.2495117-1.5108604-.6210823-2.2702713-2.6826553-2.8971558-4.1774292 4.7741661-2.3676796 7.1711159-7.1945457 6.9620972-11.7922974-.022419-.5003166-.7711258-.4590492-.7490234.0341797.1952324 4.2970924-2.0343246 8.8282738-6.501709 11.0668945-1.0864868-2.7203979-1.9027099-5.5162964-2.4025879-8.3452148zm-4.1035156 8.1455078-.2683105.5987549c-.3135376-.1415405-.664856-.250061-1.0201416-.3119507l.6135864-1.3882446.3565674.1600952c.3319702.1863403.4758911.581726.3182983.9413452zm-1.3585815-1.4083252-.7268677 1.6445923c-.2566185.0048218-.5670815-.0192032-1.1636963.3113403l1.0172119-2.3480225zm-2.9127808 4.3154907c.1361237.4366798.3207664.6715088.6116333.8781738-4.7261505 10.7579308-4.6016846 10.169754-4.5229492 10.4338989l-.9998779-.4430542c.4165001-.0601425.0314407.1924782 4.9111938-10.8690185zm-6.6591797 14.3066978-.0390015-2.8308067c.0773315.0541992.1599731.1029053.2493286.1428223 3.0310974 1.3353539 2.8954887 1.3150444 3.1739502 1.3787231l-2.196106 1.9374352zm4.2844239-2.3137168-1.0296021-.4562378c.2707634-.1234665-.1171932.4046097 4.6994019-10.3500977.3967476.1014175.7508392.090889 1.1640015.0045166-5.1621285 11.5746651-4.6426965 10.5590744-4.8338013 10.8018189zm5.3897705-11.7536621c-.1346931.0303078-1.1014137.4819946-1.7475586.144043-.0040283-.0020752-.0084229-.0016479-.0125122-.00354-.0036011-.001709-.0057983-.0050659-.0094604-.0067139-.0046387-.0020752-.0095825-.0013428-.0142212-.0032349-1.0024757-.408905-.7209854-2.0734024.7622681-2.2921753.7621231-.1017838 2.1882515.2826576 2.4912109.9384766.1668891.3534164-.1584893.7142028-1.4697266 1.2231445zm.4326171-9.975586c.6620255.1868782 2.6742935.8930092 2.8955078 1.5488281.1855049.5518265-.4516869 1.5408859-1.46875 3.9301758-.1012726-.0454636-3.370224-1.5129051-3.1636353-1.420166l-1.0980835-.4929199c1.575409-3.5195313 1.3993379-3.9680481 2.834961-3.565918zm-3.430664 4.9428711c.1664772-.3796501.6048203-.5443878.9848633-.3779297.1000099.0443268.4532204.200882.3532104.1565552-6.9417076 16.2081261-6.8419018 15.3910179-6.6248779 15.7248535l-1.293457-.5731812c.0517978-.3136444-.4381905.9539948 6.5802612-14.9302978z"/><path d="m24.1308365 29.1939583c1.3719978.728651 3.0315304.7933178 4.4375.2109375.4569912-.1900234.1734943-.8820477-.2871094-.6928711-1.2163086.5043945-2.637207.4360352-3.7988281-.1801758-.1835938-.0961914-.409668-.0268555-.5068359.1552734-.097168.1831055-.0278321.4101563.1552734.506836z"/><path d="m26.2631607 33.09972 2.3691406-1.5800781c.4114494-.2739105-.0011005-.8994617-.4160156-.6240234l-2.3691406 1.5800781c-.412426.2757301.0025635.8986053.4160156.6240234z"/><path d="m27.9325943 36.0591927c.230957-1.3071289.9873047-2.4946289 2.0751953-3.2568359.403717-.2838821-.0206184-.8977737-.4306641-.6142578-1.2495117.8759766-2.1181641 2.2392578-2.3828125 3.7412109-.0865383.4876518.6528817.6199417.7382813.1298828z"/><path d="m37.2917252 41.1782722c.9370728.7160645 2.1229858 1.0997314 3.3018799 1.0681763z"/><path d="m49.4813614 36.8725471c.3895874-.1878662.5159302-.7333374.2820435-1.2183228-.2338257-.4850464-.7391968-.7260132-1.1288452-.538147-.3896484.1878052-.5159302.7332764-.2820435 1.2183228.2338257.4850465.7391968.7259522 1.1288452.538147z"/><path d="m49.9432144 39.7625618c.2338257.4850464.7392578.7260132 1.1288452.538147.3896484-.1878052.5159302-.7332764.2821045-1.2183228s-.7392578-.7260132-1.1289063-.538147c-.3895873.1878052-.5158691.7332764-.2820434 1.2183228z"/></g></svg>