<svg id="Layer_1" enable-background="new 0 0 75 75" viewBox="0 0 75 75" xmlns="http://www.w3.org/2000/svg"><g id="Braids_Girl" fill="rgb(0,0,0)"><path d="m7.3511648 66.8759537c2.3369141-1.0126953 4.1650391-3.0673828 4.9345703-5.4863281.9052734 1.7509766 1.1132813 3.8369141.546875 5.734375-.103159.3481598.3035488.6326065.5957031.3984375 2.1386719-1.7373047 3.6201162-4.2128906 4.1621084-6.90625 1.0664063 2.0742188 1.0097656 4.703125-.2177734 6.7011719-.2041683.3314972.1757736.7207565.5136719.5175781 1.890625-1.1445313 3.2939453-3.0771484 3.8447266-5.2177734.7861328 2.21875.3300781 4.8544922-1.2402344 6.6308594-.3277397.3722153.234024.8677902.5625.4960938 2.0332031-2.2998047 2.3886719-5.8955078.84375-8.5478516-.0820313-.140625-.2431641-.2109375-.4033203-.1777344-.1591797.0341797-.2773438.1660156-.2939453.328125-.1933594 1.8837891-1.1289063 3.6855469-2.5283203 4.9658203.7988281-2.3037109.453125-4.9960938-.9921875-6.9775391-.1993484-.2743759-.6368427-.1620979-.6757813.1796875-.2763672 2.5048828-1.4238272 4.8740234-3.194335 6.6533203.2998047-2.0615234-.1757813-4.2158203-1.3486328-5.9521484-.186594-.2777214-.6138973-.1876984-.6777344.1357422-.5205078 2.5615234-2.3330078 4.7978516-4.7304688 5.8369141-.4551124.1970595-.1553268.8877944.2988282.6874999z"/><path d="m48.533783 12.536109c.1865234-.0888672.265625-.3134766.1757813-.5-1.8291016-3.8164063-5.6660156-6.5136719-9.7744141-6.8720703-4.6700439-.3883934-9.6790276 2.0749817-11.2713642 7.0087891-.9119873-.2438965-1.8081055.0649414-2.3702393.8535156v.0009766c-.3779297.53125-.4785156 1.2255859-.3183594 1.8505859-1.5195179-.1550531-2.6265259 1.2432699-2.1142578 2.703126-.8700562.0555344-1.6692619.6847229-1.9111328 1.4892578-.2261963.7563477-.0323486 1.6052246.4674072 2.2963867-.5195541.1690578-1.0379257.5880756-1.1860352.6962891-.5731201-.6381836-1.6015625-1.0007324-2.4268799-.4936523-.7119141.4365234-1.1962891 1.5878906-.9960938 2.3691406.0541992.2133789.1470947.4199219.2635498.6171875-.4287109.3666992-.8764648.7980957-1.164916 1.3544922-.8157043 1.6314068.308814 3.0349159 1.5869131 2.7792969.2013073.922657 1.0285625 1.2702179 1.9326172 1.4912109.8315907.2190056 1.5323582.2818413 2.1002197-.4355469 1.1956787 2.7556152 3.671875 4.8408203 6.4144287 5.2929688.0205078.0029297.0410156.0048828.0605469.0048828.4568214 0 .5148163-.6694069.0605469-.7451172-2.7188721-.4482422-5.1685791-2.6713867-6.1246338-5.5407715.0667553-.3745003.067625-.5038204.1343994-.7131348.1177464-.4037037.2683296-.8144493.3808594-1.2460938.7872906-2.9585915 1.0232506-3.452446.8843994-4.1738281 1.9128704.4007187 3.2569218-1.3076248 2.5394287-2.7119141 1.5059624-.2782497 2.1852036-1.8020554 1.5556641-3.1015625.3134766-.0439453.625-.1503906.9121094-.3164063.0479736-.027832.0878906-.0646973.1335449-.0952148-.2585449 2.253418.0671387 4.6142578.9602051 6.668457 2.048975 4.7291412 8.7560177 7.6432266 14.1796894 3.8574219 1.1851692-.835146 3.0022736-3.1034145 3.2969971-3.5961914.2681885.4104004.6767578.7226563 1.1434326.8745117-.8571205 1.1663914-.2776947 2.7118931 1.1269531 3.0390625-.7285576 1.4197483.2956848 3.0894318 2.208374 3.0478516-.3154297.8081055-.175415 1.8967285-.0275879 2.7441406-2.2176514 1.1228027-4.6812744 1.6477051-7.1436768 1.5205078-.1875-.0361328-.3837891.1474609-.3945313.3535156-.0117188.2070313.1474609.3837891.3535156.3945313 2.4272919.1353493 4.9535599-.3580856 7.3326416-1.5219727.3715515 1.6740265 1.076725 3.1115456 2.0091553 4.2944336 1.4231262 1.8821983 3.1332054 1.0096741 3.0664063-.6269531.7584419.2823982 1.6231956-.0286102 2.0439453-.6513672.4394531-.6542969.4160156-1.5888672-.0576172-2.3779297-.3270874-.5588608-.812973-.9903488-1.3260498-1.4812012 1.5955276-1.7094955-.8337135-3.6206837-2.9215088-3.0605469-.1876221-.189209-.4522705-.4143066-.7905273-.5478516 1.2697182-1.3738899.5155792-3.2520142-.9267578-3.3879395.5008392-1.3486099-.3770523-2.6288147-1.7197266-2.7841797.5651283-1.333128-.1674538-2.9276524-1.661377-3.1318359.6819763-2.0462017.7322235-4.050087.2355957-5.9804697-.0517578-.1992188-.2539063-.3222656-.4570313-.2695313-.2001953.0517578-.3212891.2558594-.2695313.4570313.5144539 1.9937105.3669777 3.9991388-.3218994 5.828126-.6648483.1456757-1.1736679.5000458-1.5166016 1.0351563-1.635498-.6518555-3.9367676-3.8825684-4.4847412-4.9785156-.9134216-1.790802-1.3723717-4.2568235-.8144531-7.4648447.0744438-.4241209-.5140266-.6170959-.7041016-.2324219-1.4517365 2.8963203-4.339283 5.1524754-8.0087891 5.6074219-1.6038055.2304869-2.431488.0664234-3.4115009-.0402832-.1544189-.6599121-.59729-1.1899414-1.1164551-1.5114746 1.427906-4.5852809 6.0772114-6.970685 10.5094013-6.5634766 3.8496094.3349609 7.4462891 2.8662109 9.1640625 6.4482422.0908207.1884766.3134769.2666016.5000004.1757813zm-30.336916 9.6718759c.6908741-.4240532 2.1618137.1389656 1.9619141 2.40625-.0205078.2402344-.1035156.8115234-.4365234.9394531-.5765114.2098694-1.9797192-.9824104-2.1875-1.8007813-.1201173-.4697265.2265624-1.2773437.6621093-1.5449218zm3.53125 4.3955078c-.1841526.7135963-.3941612 1.101984-.4921875 1.8056641-.1650295 1.1772137-.593092 1.3178616-1.625 1.0449219-.4189453-.1025391-.8183594-.2148438-1.1015625-.4570313-.2050781-.1816406-.3759766-.5107422-.265625-.8076172.1439095-.3890018-.3562336-.6864929-.6308594-.3808594-.1357422.1513672-.3369141.1582031-.4404297.1572266-.7661018-.0474873-.9822979-.9455605-.5976563-1.7148438.2154541-.4157715.5606689-.7592773.9486084-1.0932617.5992374.6498108 1.6365013 1.4130116 2.4674072 1.0961914 1.1309185-.4348087 1.1069069-2.5415115.6490479-3.5605469l.0980225-.0722656c.8574219-.6386719 1.2265625-.8242188 1.6914063-.2373047.4824619.5978318.0148162 1.3536168-.7011719 4.2197266zm36.2021503 8.1982422c.2675781.4453125.3964844 1.1064453.0810547 1.5761719-.4090309.6067276-1.2979279.5187302-1.65625-.0253906-.2279167-.3474083-.7852058-.1131401-.6757813.3017578.0947266.3574219.1835938.6953125.1582031 1.0234375-.0632629.7876244-.8289108 1.1172829-1.7207031-.0615234-2.144619-2.7198219-2.4776917-6.5111961-1.8974609-7.3017578.1435547-.1953125.3525391-.3076172.6367188-.34375.2634277-.0344238.4979248.0712891.7357178.2612305-1.5950432 1.2390728-.6214752 4.9667015 3.0429688 3.1533203.5532302.5380553 1.0079841.9237327 1.2955321 1.4165038zm-1.1542968-2.4482422c-.3040466.4191284-1.3596954.7204285-1.7841797.7666016-1.5552444.1820755-1.8793602-2.0118847-.6123047-2.4833984 1.2028999-.4438038 3.2822914.5003299 2.3964844 1.7167968zm-6.8339844-11.1679687c.5357208.5622025.5148888 1.6009598-.0576172 2.1425781-.2915306.2759514-.001255.7569866.3798828.6269531.5839844-.1992188 1.3251953.0966797 1.6074219.6513672.2597656.5117188.1171875 1.2080078-.3066406 1.5927734-.0537109.0371094-.1054688.078125-.1533203.1240234-.3433609.3178406.0963936.8483791.4697266.5810547.0478516-.0332031.0947266-.0683594.1386719-.1064453.3105469-.1933594.7958984-.1367188 1.0849609.1474609.3212891.3173828.4160156.8710938.2304688 1.3476563-.4864578 1.2512779-2.461525 1.6918678-3.3232422.7207031-.4659996-.5208206-.3807297-1.5491028.2519531-1.8339844.4346733-.1942177.1705475-.8556232-.2783203-.6953125-.5732422.2011719-1.3066406-.1464844-1.5136719-.7128906-.2080078-.5673828.1308594-1.3076172.6972656-1.5214844.4293785-.1621609.2414093-.8094597-.2099609-.7177734-.5996094.1279297-1.2861328-.2304688-1.5244141-.7958984 0 0 0 0 0-.0009766-.6264229-1.480154 1.4521484-2.6599082 2.5068359-1.5498046zm-16.9541016-6.41504c3.183609-.3955097 5.8855095-2.0580807 7.6552734-4.515625-.1669922 2.3173828.2128906 4.4560547 1.1035156 6.2011728.4588623.918457 2.8358154 4.5070801 4.866333 5.3339844-.0338135.1608887-.045166.3291016-.036377.5031738-.3665962 1.0217819-2.3492165 3.2847366-3.3895264 4.017334-5.0075684 3.4959373-11.1791763.8012466-13.0615253-3.5419922-1.1229401-2.5835285-1.2573338-5.6684742-.6885986-7.6269541-.0028076.0065918-.0025635.0151367-.0057373.0214844.0026855-.0053711.0047607-.0175781.0075684-.0244141l-.0006103-.0002441c.0009766-.0031738.0026855-.0061035.00354-.0092773-.0010986.0029297-.0018311.0068359-.0029297.0095215l.0021973.0009766c.1366653-.5349207.0894756-.3501081.0997314-.3901367.9333592.1093959 1.7878457.2598342 3.4471455.020996zm-5.0205097 1.0742187c-.3896484.2265635-.8339844.2939463-1.2216797.1914072-.3819332-.1069422-.6475067.3946323-.3349609.6513672.5175781.4277344.6601563 1.2714844.3105469 1.84375-.3222656.5273438-1.0371094.7910156-1.6347656.6171875-.0625-.0273438-.1269531-.0507813-.1943359-.0693359-.4581432-.1169224-.6684341.5246849-.2490234.7050781.0566406.0253906.1142578.046875.171875.0654297.3583984.1796875.5839844.6601563.484375 1.0878906-.2192192.9428387-1.5222569 1.3979015-2.7050781.5605469-.6513672-.4599609-1.1777344-1.3681641-.9257813-2.2128906.2151165-.720089 1.2035866-1.2273064 1.8300781-.8037109.3942127.2689896.8174419-.3018742.4462891-.6015625-.5078125-.4101563-.6054688-1.2822266-.2011719-1.7939453.4023438-.5136728 1.2714844-.6230478 1.7919922-.2216806.3611546.2811518.8189545-.2206478.5-.5556641-1.0587769-1.1109238.133112-3.0573168 1.7480469-2.2988281 1.2350977.5787095 1.3760718 2.1441058.1835936 2.8349608z"/><path d="m42.1871033 20.1425552c.3815384-1.0789051.1851311-2.4654636-.859375-2.8339844-1.4876709-.5273762-3.0162659 1.6275997-2.5517578 3.3613281.4932022 1.8251649 2.6780395 1.5456067 3.4111328-.5273437zm-2.6025391-.9199218c.0251465-.0712891.0643311-.1289063.0947266-.1958008.1879272.6357021 1.0987549.483242 1.0987549-.1569824 0-.3006725-.2403336-.584259-.6113281-.5561523 1.0152168-.9374657 1.7857742.2377911 1.3133545 1.5788574-.4412766 1.250761-1.6679306 1.7498341-1.9794922.5830078-.0986329-.3671876-.0673829-.8242188.0839843-1.2529297z"/><path d="m36.2984314 17.7138443c.3815384-1.0789051.1851311-2.4654636-.859375-2.8339853-1.4919357-.5246191-3.0156021 1.6300783-2.5517578 3.3613291.4805832 1.7929477 2.6689415 1.5713291 3.4111328-.5273438zm-.6230469-1.5029297c.0986328.3671875.0673828.8232422-.0839844 1.2529297-.440136 1.2475376-1.6675644 1.7512131-1.9794922.5830078-.4586334-1.707386 1.6195031-3.4986639 2.0634766-1.8359375z"/><path d="m34.6436462 18.4819107c.3121338 0 .5653076-.2531738.5653076-.5654297 0-.3120117-.2531738-.5651855-.5653076-.5651855s-.5653076.2531738-.5653076.5651855c0 .3122559.2531739.5654297.5653076.5654297z"/><path d="m37.0201111 26.4120865c1.2138672-.1865234 2.2392578-1.0136719 2.9658203-2.3925781v-.0009766c.0499153-.1384563.2847061-.3659058.109375-.6289063-.0761719-.1142578-.2011719-.1689453-.3476563-.1640625-2.2333984.2050781-4.5019531-.7255859-5.9296875-2.4472656-.1671906-.1998138-.4896927-.1763153-.6181641.0595703-.6630859 1.2138672-.5742188 2.9091797.2128906 4.0302734.7944108 1.1337529 2.2407952 1.7489377 3.607422 1.5439454zm-3.3740235-4.7050781c2.4046097 2.4539871 5.3853226 2.2771034 5.4853516 2.2978516-2.1624679 3.5040397-6.5066299 1.0494708-5.4853516-2.2978516z"/><path d="m38.346283 54.0741959-.1160889 11.1704101c-2.9150467.7636414-3.2408333 3.2080765-.7374268 3.4291992.7172623.0643082 1.4470367.0712891 2.0732422.0341797.8163872-.0427017 1.6113091-.2368927 1.9462891-.9824219.5176163-1.1509094-.8237915-2.7013092-2.5307617-2.6049805l.1147461-11.0385742c.0047111-.4995078-.7452736-.5064735-.75-.0078124zm1.9951171 13.7509765c-.5803413.2215042-2.1660881.1558762-2.7822266.1025391-1.2968407-.1176834-1.2192039-.8122177-.4404297-1.3642578.5263672-.3730469 1.3525391-.7011719 2.0361328-.7011719 1.2641526 0 2.4467202 1.4883423 1.1865235 1.9628906z"/><path d="m43.7193298 10.638648c-.1308632-.4877539-.8527031-.276474-.7226563.1972656.6230469 2.2841797 2.2578125 4.2822266 4.3730469 5.343751.4421272.2250824.7778053-.448988.3359375-.6699228-1.9277343-.9677735-3.4169921-2.7890625-3.9863281-4.8710938z"/><path d="m35.4673767 7.4989996c-1.4101563.3193359-2.7480469 1.0595703-3.7666035 2.0849609-.3510666.3534079.1852016.8753462.5312519.5292969.9199219-.9267578 2.1279297-1.5947266 3.4013672-1.8818359.4774056-.108923.326931-.8357063-.1660156-.7324219z"/><path d="m22.9449139 62.6445084c.0068359.7744141.8017578 1.2109375 1.0634766 1.3544922.6715832.3669357 2.1063042 1.0625 2.8759766 1.0625 1.729538 0 1.9368172-2.1450195.4266357-3.293457l4.0821533-9.0258789c.2042427-.4530907-.4813461-.7595825-.6835938-.3085938l-4.0639648 8.9855957c-1.3724537-.4908905-3.7123738-.2359581-3.7006836 1.2253418zm3.9111328-.2802735c.3339844.2519531.7080078.8134766.7285156 1.2822266.0196018.4214325-.2811623.6917419-.7568359.6630859-.5893116-.0271988-1.9368801-.6834564-2.4589844-.96875-.4453125-.2441406-.671875-.4804688-.6738281-.7021484-.006279-.8476753 2.3485183-.8877335 3.1611328-.2744141z"/><path d="m65.2671814 13.0175543-1.7724609-.2646484-.7148438-1.6289063c-.2261848-.5105896-.9318542-.4934673-1.1914063-.0615234l-.8994141 1.5332031-1.8798828.1894531c-.5570374.0579815-.8075943.7139044-.4277344 1.1044922l1.2109375 1.2470703-.4306641 1.6845713c-.136261.5320683.4133949.9746037.9199219.7451172l1.6650391-.7734375c1.4784775.7920685 1.8167725 1.1897068 2.3125.8564453.2070313-.1376953.3193359-.3740234.2929688-.6142578l-.1416016-1.3330088-.0771484-.3505859 1.4375-1.1953125c.4311447-.3592883.2506867-1.0417052-.3037109-1.1386719zm-1.8496094 2.3300781.171875 1.609376c-2.2538071-1.2028971-1.3113213-1.1764936-3.6640625-.0947266l.4091797-1.5976572c.0556641-.2158203-.0029297-.4414063-.1611328-.6064453l-1.1113281-1.1445313c1.4503975-.216217 1.9325752-.0197906 2.2177734-.4951172l.8603516-1.4833984.6679688 1.5195313c.0878906.1982422.2695313.3398438.4882813.3779297l1.6279297.2861328c-1.0103799.9329567-1.5658838 1.0589838-1.5068361 1.6289062z"/><path d="m57.589447 8.2157965-1.3300781-.234375-.5117188-1.1640625c-.1856575-.4297209-.8097801-.4885893-1.0693359-.0595703l-.6894531 1.140625-1.3720703.1386719c-.502243.0500154-.7250519.6421795-.3847656.9931641l.8955078.921875-.3183594 1.2431641c-.121933.4748983.3643494.8790817.8261719.6738281l1.2597656-.5625c1.1376762.6047993 1.198864.7226563 1.4609375.7226563.348877 0 .6414108-.2976465.6044922-.6572266-.0107307-.1001205-.1464729-1.3667221-.1357422-1.2666016l1.0371094-.8632813c.3894805-.3200064.2272834-.9395466-.272461-1.0263672zm-1.3076172 1.3652343c-.3926964.3272457-.1284599.7625074-.0976563 1.5820313-.9098663-.4801865-1.1389389-.7436972-1.53125-.5693359l-1.0332031.4609375c.1422691-.7841072.467968-1.1951427.1132813-1.5546875l-.7265625-.7490234c.8819275-.1434221 1.3342857.0119638 1.5869141-.4023438l.5839844-.9658203c.3849487.7364244.3714523 1.2366705.8710938 1.3232422l1.0615234.1865234z"/><path d="m67.7808533 65.3222427c-2.1210938.1015625-4.2753906-.7314453-5.7753906-2.2285156-.2016869-.1995201-.5287857-.1112633-.6181641.140625-.260643.73703-.1390152 1.6360016.40625 2.3857422-2.4267578-.5527344-4.6503906-1.8945313-6.2587891-3.8134766-.181797-.2163162-.4849815-.1537743-.6074219.0458984-.6687088 1.0942497-.6660194 2.6405029.296875 3.7666016-2.8369141-.671875-5.4248047-2.2763672-7.2763672-4.5507813-.1930008-.2350616-.491909-.1463013-.6064453.0341797-1.3529701 2.1134911-.3137131 4.9555435 2.0869141 5.6982422.4714508.1529007.6955986-.5694199.2207031-.7167969-1.6505547-.5099411-2.6393776-2.3585854-1.9179688-4.1123047 2.3330078 2.6367188 5.6337891 4.3339844 9.1435547 4.6826172.4609756.0436935.5713005-.6120605.1386719-.734375-1.3171883-.3688126-2.149704-1.7819366-1.6699219-3.1962891 2.0585938 2.2265625 4.9257813 3.6337891 7.9550781 3.8867188.477684.0221176.5580368-.6386414.1132813-.7402344-.7895927-.1769257-1.3637886-.977562-1.4042969-1.7607422 1.6035156 1.3369141 3.7402344 2.0634766 5.8085938 1.9628906.2070313-.0107422.3671875-.1865234.3574219-.3925781-.0097656-.2070311-.1865234-.3574218-.3925781-.3574218z"/><path d="m43.0121765 33.491188c-.1311035-.7265625-.2623291-1.4831543-.6254883-2.1186523-.894001-1.4887981-1.9848709-1.0611591-3.3493652-1.2609863-1.4729004-.2119141-2.9558105-.4138184-4.4388428-.6154785-2.1790771-.3027344-3.5006123.0908203-4.3480244 2.2094727-1.8908691 4.737793-2.8369141 9.6086426-3.833252 14.588623-.1381836.6906738-.2769775 1.3891602-.25 2.0930176.0515137 1.3422852 1.0629883 2.9033203 2.5039063 3.0561523.7644043.0810547 1.588623-.3461914 1.8586426-1.065918.3935547 1.2150879 1.5737324 2.1333008 2.8482685 2.2158203 1.2746582.0827637 2.5634766-.6750488 3.1109619-1.8291016.0823517 1.7644081 2.0789108 3.1715431 3.8981934 2.0852051.5477295-.3271484.7989502-.7832031 1.130127-1.2854004.2108154.864502.8847656 1.5952148 1.7941895 1.7207031.9257813.1279297 1.902832-.4399414 2.2502441-1.307373.2663574-.6650391.1791992-1.4123535.0878906-2.1228027-.8457298-6.5920601-.2126084-2.6636925-2.6374512-16.3632813zm-13.8098163 14.900879c-.4934082 0-.8935547-.3999023-.8935547-.8935547 0-.4934082.4001465-.8935547.8935547-.8935547s.8935547.4001465.8935547.8935547c-.0000001.4936523-.4001465.8935547-.8935547.8935547zm4.496828.6064453c-.4935303 0-.8935547-.3999023-.8935547-.8935547 0-.4934082.4000244-.8933105.8935547-.8933105.4934082 0 .8934326.3999023.8934326.8933105 0 .4936523-.4000244.8935547-.8934326.8935547zm3.4361573-13.7114258c-1.3251953 0-2.6474609-.5820313-3.5097656-1.5996094-.3205109-.3789978.2519264-.8631706.5722656-.484375.9160156 1.0820313 2.4580078 1.5712891 3.828125 1.2246094.2041016-.0507813.4052734.0712891.4560547.2714844s-.0703125.4042969-.2714844.4550781c-.3515625.0898437-.7138672.1328125-1.0751953.1328125zm1.3116455 14.6049805c-.4935303 0-.8935547-.3999023-.8935547-.8935547 0-.4934082.4000244-.8935547.8935547-.8935547.4934082 0 .8934326.4001465.8934326.8935547 0 .4936523-.4000244.8935547-.8934326.8935547z"/></g></svg>