<svg id="Layer_1" height="512" viewBox="0 0 512 512" width="512" xmlns="http://www.w3.org/2000/svg"><g><path d="m469 181.1c-1.1-65.3-54.9-118.1-120.8-118.1-9.9 0-19.7 1.2-29.3 3.6-28.5-40.6-74.5-64.6-124.4-64.6-83.5 0-151.5 67.6-151.5 150.6 0 9 .9 18.1 2.6 27.4-26 10.5-43.6 35.8-43.6 64.2 0 38.2 31.2 69.2 69.6 69.2h94.2v-16.4h-94.2c-29.4 0-53.3-23.7-53.3-52.9 0-42.9 46.5-53 46.5-53s-5.6-17.1-5.6-38.6c0-74 60.6-134.2 135.2-134.2 86.6 0 117.3 67.3 117.3 67.3s14.8-6.3 36.4-6.3c57.6 0 104.5 46.5 104.5 103.7 0 .5-.4 9.2-.4 9.2s41.3 9.4 41.3 51.8c0 29.1-23.9 52.9-53.3 52.9h-94.2v16.4h94.2c38.4 0 69.6-31.1 69.6-69.2.2-27.2-16-51.9-40.8-63z"/><path d="m428.1 174.2c0-40.6-33.1-73.7-73.7-73.7v16.4c31.6 0 57.4 25.7 57.4 57.3z"/><path d="m149.5 403.5c0 58.7 47.8 106.5 106.5 106.5s106.5-47.8 106.5-106.5c0-56.3-106.5-202.2-106.5-202.2s-106.5 145.9-106.5 202.2zm106.5 90.1c-49.7 0-90.1-40.4-90.1-90.1 0-39.2 59.9-131.8 90.1-174.4 30.2 42.6 90.1 135.2 90.1 174.4 0 49.7-40.4 90.1-90.1 90.1z"/><path d="m206.8 403.5h-16.4c0 36.1 29.4 65.5 65.5 65.5v-16.4c-27 .1-49.1-22-49.1-49.1z"/></g></svg>