<svg id="Layer_1" enable-background="new 0 0 75 75" viewBox="0 0 75 75" xmlns="http://www.w3.org/2000/svg"><g id="Breakdancing" fill="rgb(0,0,0)"><path d="m21.4197865 37.5232239c.4664307-.2875977.6115723-.8984375.3242188-1.3647461-.2873535-.4665527-.8984375-.6115723-1.3647461-.3242188s-.6114502.8984375-.3240967 1.3647461c.2872314.4663086.8983154.6113282 1.364624.3242188z"/><path d="m18.0064564 40.7488098c-.4663086.2873535-.6115723.8984375-.3242188 1.3647461s.8984375.6115723 1.3647461.3242188.6115723-.8984375.3242188-1.3647461-.8984375-.6115723-1.3647461-.3242188z"/><path d="m5.3155389 36.7534485c.9133301.6306152 2.2028809.661377 3.1451411.0749512-.7961421 2.7922363-.488647 5.8835449.8419189 8.4643555.2683105-.2739258.3886719-.6845703.3109131-1.0598145.536377.3808594 1.0727539.7614746 1.6091309 1.142334.7253342.8739052 1.6094465 1.6170807 3.1488037 2.409668-.4686079 1.6147118.3983717 2.7207031 1.446167 2.7207031.8261223 0 1.3677044-.5849915 1.8583984-1.2128906.0708008-.090332.0892334-.2019043.0679932-.3059082.7437325.146183 1.4846916.2236481 2.2357178.1496582 6.9972496-.683773 10.9994812-8.7943039 7.2044678-14.8369141 1.565855-2.214241-.4542942-4.1948833-1.9090576-3.2038593-.3187256-.4267578-1.0264893-.9030762-1.5487061-1.2338867-2.3520508-1.4897461-5.3820801-1.9460449-8.0355225-1.048584-2.679101.9060726-5.1469202 3.148735-8.072998 2.6516113 1.0030513 1.0241718 2.5462642 1.4865742 3.9471431 1.182375-1.4831539 2.0742187-3.756835 3.5683593-6.2495108 4.1062011zm10.4034419 12.9953613c-.3115234-.0458984-.5966797-.3398438-.6933594-.7167969-.0675049-.2609863-.0355225-.5710449.0463867-.9106445.647583.2893066 1.3260498.53125 2.0118408.7114258-.3399276.4348411-.8020515 1.0000534-1.3648681.9160156zm10.5986328-5.2265625c-1.4707031 2.1425781-3.9277344 3.625-6.4101563 3.8681641-1.4940186.144043-3.3092041-.3688965-4.8612061-1.111084.1009417-1.0016518-.4413939-4.2285309-2.1567383-7.1740723.8762207.5483398 1.7524414 1.0966797 2.6286621 1.6450195-.3366699-1.6411133-.4450684-3.4714355-1.40625-4.888916 1.2268066-.1809082 2.5332031.3564453 3.27771 1.3481445.3239746-1.4099121.0904541-2.9399414-.6392822-4.1889648.9047852.2053223 1.8098145.4104004 2.7147217.6154785.6324463-.6623535.1604004-1.9802246-.7489014-2.090332 1.7287598-.1530762 3.463623-.2790527 5.1903076-.4570313 4.156437 2.3784409 5.2314912 8.3240815 2.4111329 12.4335938zm-.2275391-12.9335956h.0107422c.6806793.0118999 1.2621174.9117336.6243896 2.0390644-.4121094-.5407715-.8820801-1.0217285-1.3986816-1.442627.0678711-.0449219.125-.1071777.1522217-.1901875.0771485-.2294921.34375-.4062499.6113281-.4062499z"/><path d="m40.7326546 29.4577923c-.3813095.3138828.0881691.8931465.4765625.5800781 2.6077423-2.1405964 4.7015572-2.4747639 8.3076172 1.9648457 1.3154297 1.6259766 2.5898438 3.3710938 2.4580078 5.2597656-.1053276 1.5703125-1.8175774 3.0988655-2.984375 4.2226563-3.1533203 3.0888672-7.0507813 5.2958984-10.4550781 7.1210938-1.671875.8925781-3.1894531 1.6513672-4.8242188 1.8945313-1.8291035.2744141-3.5820332-.2490234-4.5820332-1.3544922-1.2011719-1.3349609-.640625-3.875-.0175781-5.9384766 1.5932217-5.2802315 6.4944973-8.5523529 10.7070332-12.008791.1601563-.1318359.1826172-.3681641.0517578-.5283203-.1318359-.1601563-.3681641-.1816406-.5283203-.0517578-4.3082047 3.5444431-9.2788887 6.8385334-10.9492207 12.3720722-.4365234 1.4472656-1.4580078 4.8359375.1796875 6.6582031 1.2617073 1.3941154 3.3411789 1.872303 5.2490253 1.59375 1.7539063-.2617188 3.3320313-1.0488281 5.0673828-1.9755859 8.5223885-4.5674629 10.4667854-7.1864624 10.9277344-7.5371094 1.2431641-1.1972656 2.7910156-2.6875 2.90625-4.4160156.1503906-2.1601563-1.2138672-4.0419922-2.6240234-5.7841816-3.8325958-4.7230874-6.4064598-4.4993897-9.3662109-2.0722657z"/><path d="m31.1545277 51.6452942-.5372314 12.8852539c-.4332428-.3256607-.8498993-.58321-1.4393311-.7358398-1.0419922-.2675781-2.1552734.0117188-2.8300781.7167969-1.3073254 1.3668976-.5951157 3.6992188 1.5839844 3.6992188.4501953 0 .9013672-.1044922 1.2871094-.2851563.7499542-.3529205 1.28582-.9441147 1.4824219-1.1162109.6310024-.5794144 1.0824032-1.0094147.6392822-1.6098633l.5638428-13.5229492c.0212763-.5011865-.7293683-.517254-.7500001-.0312501zm-.959961 14.6113281c-.3399086.3107758-.707056.7139511-1.2949219.9902344-.6777344.3183594-1.6650391.3242188-2.1660156-.2841797-.4238281-.515625-.3535156-1.4003906.1552734-1.9316406.3632813-.3798828.9101563-.5878906 1.4892578-.5878906.8671741 0 1.5356083.4479523 2.2008057 1.0058594.00877.1001968-.0442238.1911011.0756836.348877-.1435547.1662596-.366455.3725585-.460083.4587401z"/><path d="m31.7892933 35.3279114c.0806389.4890366.8222485.3666954.7402363-.1230469-.8298359-4.9809589 1.3277588-10.2529316 5.3771973-13.2541523.151001.0986328.3414307.154541.6062012.154541 2.4288826 0 3.7860603-1.5537224 3.7558594-3.0654297-.0224609-1.1162109-.8876953-2.1074219-1.9296875-2.2099609-1.1699219-.1181641-2.1533203.8251953-2.5126953 1.8164063-.295742.8107357-.2909813 2.2928143-.2589111 2.6223145-4.3403322 3.1518554-6.6600362 8.7624511-5.7782003 14.059328zm6.5312519-15.0380879c.0019531-.5576172.0693359-.9980469.2109375-1.3867188.2603683-.7189159.9586945-1.402729 1.7333984-1.3271484.6650391.0654297 1.2392578.7431641 1.2539063 1.4794922.0178642.9277287-.7166061 2.002697-2.3398438 2.2373047-.5866699.0883789-.7862549.0722656-.8172607.0891113-.0045166-.0507813-.019043-.0996094-.045166-.1462402-.0356064-.3104172.0040283-.7687149.0040283-.9458008z"/><path d="m51.5422249 11.7966595c-1.2695313-.8398438-2.9091797-1.1357422-4.3974609-.7939453-1.1648026.2705145-1.6005859 1.2053032-.6328125 2.0722656 1.1126709.9926758 2.6571045 1.6196289 4.2550049 1.7524414-.3515892 1.506052 1.1947823-5.1179609-3.0440674 13.0395508 0 .4960136.75.496315.75 0l-.0097656-.0341797 3.0806885-13.0305176c1.4491195-.329051 1.3034171-2.1441822-.001587-3.0056152zm-4.8125.3173828c.0136223-.4523525 2.4369316-.9880781 4.3984375.3076172.5634766.3720703.7861328.9746094.6708984 1.3203125-.1148453.3437185-.5242615.3375292-.6243896.355957-1.0888672.0673532-2.9550323-.5057774-4.1627197-1.5834961-.0712891-.0625-.2861329-.2548828-.2822266-.4003906z"/><path d="m65.8254242 22.8484173c-1.5725327-.6402359-2.4797058.6923161-1.8944054 2.1162109-2.75 3.4697266-6.5775146 6.0773926-10.8106689 7.3427753-.4756355.1429253-.2608185.8601608.2148438.71875 4.2930908-1.2836933 8.1773682-3.9047871 11.0087852-7.3898945.9394531 1.1467285 2.3626709 1.9150391 3.8398438 2.0578613 1.1942825.1151123 1.901329-.6428967 1.2568359-1.7626953-.7636719-1.3378905-2.0810547-2.4609374-3.6152344-3.0830077zm3.1054687 3.9238281c-.159256.4255981-2.6283264.1613636-4.0751953-1.6884766-.6060028-.7756882-.5016861-2.0223274.6884766-1.5400391 1.3808594.5595703 2.5634766 1.5654297 3.2460938 2.7587891v.0009766c.0468749.0820313.1904296.3320313.1406249.46875z"/><path d="m23.0607777 36.9870911c-.6130142.3028336.113472 1.5918846.0683594 2.5693359-.0447578 1.0019951-.5057735 2.1631699-1.4414063 3.0878906-.4746094.4736328-.6660156.5947266-.7363281.625-.5486984.1151962-.4454765.6676559-.0849609.7421875 1.5488434.3210297 3.1574955.3951607 4.234375-.7587891.7763672-.8320313.9658203-2.1845703.484375-3.4453125-.3652344-.9560547-1.0214844-1.7294922-1.6220703-2.3691406-.3222657-.3408203-.576172-.6113281-.9023438-.4511718zm1.4912109 5.7539062c-.6426964.6906815-1.6698818.7998238-2.6035156.6933594 1.3074493-1.215004 1.872776-2.566494 1.9306641-3.8447266.0214844-.4726563-.0761719-.9042969-.1728516-1.3212891.4580078.5136719.9140625 1.1152344 1.1777344 1.8066406.3125.8154298.3300781 1.9570313-.3320313 2.6660157z"/><path d="m16.0617542 12.3464642-4.4980469 2.5556641c-.2281437.1306648-.2573757.4506178-.0488281.6191406 1.4876709 1.1906738 2.5656738 2.8383789 3.0789795 4.6699219-1.3505135-.6576843-2.8552246.3441334-2.8552246 1.7834473 0 1.098877.890625 1.989502 1.989502 1.989502 1.4089918 0 2.3746166-1.4279003 1.8410645-2.7382813-.1576223-1.7765694-1.240428-4.2075481-3.1685791-5.9370117l4.0322266-2.2900391c.4310359-.2459718.0614546-.8957997-.3710939-.6523438z"/><path d="m21.5296497 20.7986126c0 .8486328.6877441 1.536377 1.5361328 1.536377 1.1060371 0 1.8423481-1.1326122 1.4136963-2.1374512l-.088623-5.4487305 5.046875-.2832031.0297852 2.5068359c-1.0426044-.5071793-2.2039795.2665844-2.2039795 1.3774414 0 .8483887.6877441 1.5361328 1.5361328 1.5361328 1.0651646 0 1.8288155-1.0691872 1.4277344-2.0949707-.086256-3.8264751.0453415-3.8008738-.1636963-3.9963379-.2185993-.2042189.0067368-.0733137-6.0751953.2255859-.2001953.0107422-.3564453.1787109-.3535156.3798828l.0814209 5.0117188c-1.0302678-.4849815-2.1867677.2727395-2.1867677 1.3867188z"/><path d="m22.0002308 6.9470506c-1.917841 2.7853942-2.2349243 2.8230157-2.0478516 3.1914058.1826878.3543043.5190392.14186 2.1972656.2041016l-1.6279297 4.2460938c-.175808.4641352.5226879.7304258.7011719.2675781 1.7868557-4.8243179 1.9932404-4.7924109 1.78125-5.1015625-.1919327-.2811394-.451292-.1136322-1.9853516-.1621094l1.5908203-2.2060542c.2897588-.4042607-.3153876-.8376089-.6093749-.4394532z"/><path d="m46.1252327 37.056427c.2134933.4463997.890583.124485.6777344-.3222656-.7851563-1.6435547-2.0742188-3.0683594-3.6308594-4.0107422-.1748047-.1074219-.4072266-.0517578-.5146484.1259766-.1074219.1767578-.0507813.4082031.1259766.5146484 1.4326171.8691406 2.6201171 2.1796875 3.3417968 3.6923828z"/></g></svg>