<svg id="Layer_1" height="512" viewBox="0 0 512 512" width="512" xmlns="http://www.w3.org/2000/svg"><g><path d="m133.1 485.4c0 13.6 11 24.6 24.6 24.6s24.6-11 24.6-24.6c0-10.5-24.6-47.2-24.6-47.2s-24.6 36.7-24.6 47.2zm24.6 8.2c-4.5 0-8.2-3.7-8.2-8.2.1-2.5 3.5-9.6 8.2-17.6 4.7 7.9 8.1 15.1 8.2 17.6 0 4.5-3.7 8.2-8.2 8.2z"/><path d="m231.4 485.4c0 13.6 11 24.6 24.6 24.6s24.6-11 24.6-24.6c0-10.5-24.6-47.2-24.6-47.2s-24.6 36.7-24.6 47.2zm24.6 8.2c-4.5 0-8.2-3.7-8.2-8.2.1-2.5 3.5-9.6 8.2-17.6 4.7 7.9 8.1 15.1 8.2 17.6 0 4.5-3.7 8.2-8.2 8.2z"/><path d="m329.7 485.4c0 13.6 11 24.6 24.6 24.6s24.6-11 24.6-24.6c0-10.5-24.6-47.2-24.6-47.2s-24.6 36.7-24.6 47.2zm24.6 8.2c-4.5 0-8.2-3.7-8.2-8.2.1-2.5 3.5-9.6 8.2-17.6 4.7 7.9 8.1 15.1 8.2 17.6 0 4.5-3.7 8.2-8.2 8.2z"/><path d="m206.8 372.7s-24.6 36.7-24.6 47.2c0 13.6 11 24.6 24.6 24.6s24.6-11 24.6-24.6c0-10.5-24.6-47.2-24.6-47.2zm0 55.4c-4.5 0-8.2-3.7-8.2-8.2.1-2.5 3.5-9.6 8.2-17.6 4.7 7.9 8.1 15.1 8.2 17.6 0 4.5-3.6 8.2-8.2 8.2z"/><path d="m108.5 372.7s-24.6 36.7-24.6 47.2c0 13.6 11 24.6 24.6 24.6s24.6-11 24.6-24.6c0-10.5-24.6-47.2-24.6-47.2zm0 55.4c-4.5 0-8.2-3.7-8.2-8.2.1-2.5 3.5-9.6 8.2-17.6 4.7 7.9 8.1 15.1 8.2 17.6 0 4.5-3.7 8.2-8.2 8.2z"/><path d="m305.2 372.7s-24.6 36.7-24.6 47.2c0 13.6 11 24.6 24.6 24.6s24.6-11 24.6-24.6c-.1-10.5-24.6-47.2-24.6-47.2zm0 55.4c-4.5 0-8.2-3.7-8.2-8.2.1-2.5 3.5-9.6 8.2-17.6 4.7 7.9 8.1 15.1 8.2 17.6 0 4.5-3.7 8.2-8.2 8.2z"/><path d="m378.9 419.9c0 13.6 11 24.6 24.6 24.6s24.6-11 24.6-24.6c0-10.5-24.6-47.2-24.6-47.2s-24.6 36.7-24.6 47.2zm24.6 8.2c-4.5 0-8.2-3.7-8.2-8.2.1-2.5 3.5-9.6 8.2-17.6 4.7 7.9 8.1 15.1 8.2 17.6 0 4.5-3.7 8.2-8.2 8.2z"/><path d="m305.2 51.2v16.4c38.9 0 70.5 31.6 70.5 70.5h16.3c0-48-38.9-86.9-86.8-86.9z"/><path d="m441.1 133.9c-2.1-73.1-62.3-131.9-135.9-131.9-44.4 0-85.3 21.3-110.8 57.3-11.5-5.4-24-8.2-36.7-8.2-46.5 0-84.6 36.8-86.8 82.8-40.9 12.2-68.9 49.4-68.9 92.6 0 32.1 15.7 61.7 42.2 79.8 9.3 33.3 39.3 56.2 74.1 56.2 27.7 0 53.5-15.3 67.1-39.3h227.9c53.3 0 96.7-43.4 96.7-96.7 0-43.2-28-80.4-68.9-92.6zm-27.8 172.9h-238s-14.7 39.3-56.9 39.3c-49 0-59.7-50-59.7-50s-40.2-19.2-40.2-69.6c0-68.1 69.1-79.7 69.1-79.7l-.3-8.7c0-38.9 31.6-70.5 70.5-70.5 24.7 0 42.1 13.5 42.1 13.5s31.1-62.7 105.4-62.7c66 0 119.6 53.7 119.6 120.3l-.2 8.1s69.1 11.3 69.1 79.7c-.2 44.3-36.2 80.3-80.5 80.3z"/></g></svg>