<svg id="Layer_1" height="512" viewBox="0 0 512 512" width="512" xmlns="http://www.w3.org/2000/svg"><g><path d="m337.9 35.3v16.7c49.7 0 90.1 41.1 90.1 91.6h16.4c.1-59.7-47.7-108.3-106.5-108.3z"/><path d="m479.8 152.3c.5-4.6.7-8.8.7-12.9 0-75.8-61-137.4-136-137.4-40.2 0-77.6 17.6-103.5 48.5-14.1-5.8-28.8-8.8-43.9-8.8-58 0-106.2 42.2-114.9 99.3h-13c-37.1 0-67.2 30.5-67.2 67.9s30.1 67.9 67.2 67.9h29.2c20.1 26.2 51.2 41.6 83.8 41.6s63.7-15.5 83.8-41.6h176.7c37 0 67.2-30.5 67.2-67.9.1-22.8-11.3-44-30.1-56.6zm-37 107.9h-185s-25.7 41.6-75.6 41.6c-48 0-75.6-41.6-75.6-41.6h-37.4c-28 0-50.8-23-50.8-51.2 0-65.3 78.4-51.2 78.4-51.2l.7-7.6c4.7-52.3 47.4-91.7 99.5-91.7 30.1 0 48.8 12.7 48.8 12.7s31.3-52.4 98.7-52.4c66 0 119.6 54.2 119.6 120.8 0 11.7-2 21.8-2 21.8s31.4 11.5 31.4 47.7c.1 28.1-22.7 51.1-50.7 51.1z"/><path d="m174.1 410.1c0 18.4 14.7 33.3 32.8 33.3s32.8-14.9 32.8-33.3c0-16.2-32.8-54.1-32.8-54.1s-32.8 37.9-32.8 54.1zm32.7 16.6c-9 0-16.4-7.5-16.4-16.7 0-5.3 7.7-17.7 16.4-28.7 8.7 11 16.4 23.4 16.4 28.7 0 9.3-7.3 16.7-16.4 16.7z"/><path d="m288.8 476.7c0 18.4 14.7 33.3 32.8 33.3s32.8-14.9 32.8-33.3c0-16.2-32.8-54.1-32.8-54.1s-32.8 37.9-32.8 54.1zm32.7 16.6c-9 0-16.4-7.5-16.4-16.7 0-5.3 7.7-17.7 16.4-28.7 8.7 11 16.4 23.4 16.4 28.7 0 9.3-7.3 16.7-16.4 16.7z"/><path d="m34.8 368.4c0 18.4 14.7 33.3 32.8 33.3s32.8-14.9 32.8-33.3c0-16.2-32.8-54.1-32.8-54.1s-32.8 38-32.8 54.1zm32.7 16.7c-9 0-16.4-7.5-16.4-16.7 0-5.3 7.7-17.7 16.4-28.7 8.7 11 16.4 23.4 16.4 28.7 0 9.2-7.3 16.7-16.4 16.7z"/><path d="m362.5 343.4c0 18.4 14.7 33.3 32.8 33.3s32.8-14.9 32.8-33.3c0-16.2-32.8-54.1-32.8-54.1s-32.8 38-32.8 54.1zm32.8 16.7c-9 0-16.4-7.5-16.4-16.7 0-5.3 7.7-17.7 16.4-28.7 8.7 11 16.4 23.4 16.4 28.7 0 9.2-7.4 16.7-16.4 16.7z"/></g></svg>