<svg id="Layer_1" enable-background="new 0 0 75 75" viewBox="0 0 75 75" xmlns="http://www.w3.org/2000/svg"><g id="Broken_Pot" fill="rgb(0,0,0)"><path d="m67.7482681 48.1054955c.7949219-1.703125.0527344-3.6474609-.6025391-5.3632813-.4496002-1.1761894-.9727554-2.7999077-2.1005859-5.1484375-.2158661-.4481544-.8903122-.1211624-.6757813.3242188.640625 1.3349609 1.2324219 2.7617188 1.7587891 4.2412109.6268616 1.7614937 1.7217789 3.9563904.9404297 5.6298828-.3681641.7910156-.9599609 1.4453125-1.6660156 1.8398438-1.5112724.8364601-3.40979.5480995-5.1611328.6103516-6.7014542.2075577-8.6265678 4.6531487-10.1181641 3.4589844-.4524651-.3761444-.385601-.511528-2.1933594-7.6386719-.6787224-2.679882-2.0649338-8.1057854-2.3953857-11.1374512 2.4578857-1.0505371 4.8054199-2.3554688 6.9696045-3.9143066.4043884-.2898502-.0371628-.9000969-.4375-.609375-2.0516357 1.4780273-4.274292 2.7163086-6.597168 3.7285156-.2335663-3.8610134 1.0959244-5.61866 4.2915039-7.1953125.3782272-.1883163 1.6312752-.7789974 2.270752-1.0358887.5335693.6955566 1.2901611 1.1960449 2.1439209 1.1477051.810791-.0495605 1.5048828-.5666504 2.2744141-.8295898 2.6638184 2.8654785 4.9450684 6.0400391 6.7728271 9.4501953.2316437.4354897.8962936.0836983.6601563-.3535156-1.791748-3.3449707-4.0213623-6.4602051-6.6063232-9.2924805 1.4550743-.2197742 3.5223961.0950508 4.6489258-1.1547852 1.9090309-2.1757107-2.7089806-9.1104059-4.2600098-12.1799316-2.8851738-5.6494308-5.1378899-7.9714665-11.8901367-7.2399902-2.3099365.2600098-4.6398926.3601074-6.3898926 2.1000977-1.6800537 1.6699219-2.3300781 4.3100586-1.6101074 6.5698242.0965576-.0668945.1833496-.1462402.2773438-.2165527-.3463058 1.7796288-.240551 3.6522884.0831299 5.4362793.9782333 5.3094997 8.0820389 9.3834515 12.9669189 4.0981445.1084518.6600914.2361183 1.2435322.5241699 1.8220215-5.0063057 2.0488205-7.2940063 3.917717-6.8840332 9.1923828-6.1038322 2.5021591-12.5274391 2.9192162-14.213625 2.6601563-.2524776-.7732162-1.0798874-1.6483994-2.3205566-2.057373.8383789-.2216797 2.0566406-.5515137 2.5830078-1.2880859 4.2834492-1.0864258 8.8310566-1.1931152 13.1605244-.3032227.4966888.0890274.6289711-.635437.1503906-.734375-4.2921143-.8818359-8.7907715-.8017578-13.0545673.2106934-.0826569-1.4478188-2.4481163-3.119257-4.4874268-2.5251465-1.0068359.2929688-1.7851563 1.1044922-1.9833984 2.0673828-.2167969 1.0546875.3261719 2.1669922 1.2626953 2.5859375.0078125.003418.0161133.0039063.0239258.0073242-2.7181625 1.0843849-2.1310406 4.7446289.5639648 4.7446289.4492188 0 .8779297-.09375 1.2148438-.1835938 1.0393295-.279274 2.6239758-.6573792 2.9180908-1.7548828.4450779.0515251.6941795.0413513 1.0906982.0332031 4.4981709-.0668945 8.9847431-1.0058594 13.1658955-2.6906738.3738632 3.1217117 1.6616211 8.1687012 2.3878174 11.0354004 1.799881 7.0910835 1.736866 7.4395523 2.4433594 8.0253906.5094566.4102592 1.2349625.4580803 1.8710938.2041016.5261116-.2068405.9674911-.5581398 1.4287109-.9091797 2.1269531-1.5859375 4.7255859-2.5039063 7.3164063-2.5839844 2.3809698-.086899 5.8798063.5653761 7.4833982-2.8837892zm-17.6026611-41.1420899c2.9699707 1.8200684 5.1699219 4.8000488 6.0200195 8.1801758.1192093.4768381-.5862503.67834-.7301025.1899414-.7999268-3.2001953-2.8800049-6.0100098-5.6899414-7.7299805-.4156227-.269125-.0309563-.9031071.4000244-.6401367zm-5.0633545 18.1518555c-2.2232666-.3449707-4.2015381-1.7646484-5.3284912-3.6491699l.6400146-.7492676c.5115395.1759262.8893394 1.1845703 1.7890625 1.1845703.8875465 0 1.4699783-.9988937.8945313-1.2255859-.1914063-.0751953-.4101563.0175781-.4863281.2109375-.0693359.171875-.2949219.2900391-.4726563.2587891-.2226563-.0449219-.4189453-.2636719-.6689453-.5400391-.2900391-.3203125-.7001953-.6708984-1.2285156-.6601563-.266674.012579-.3054314.2235355-.8353271.7973633-.473362-1.0437031-.5740318-1.6990128-.7036133-2.9196777.5094681.1743355.9537354-.214016.9537354-.675293 0-.5082989-.5338326-.8997383-1.0467529-.6359863-.0289307-1.2758789.1186523-2.425293.4436035-3.465332.6164551-.6142578 1.1564941-1.3032227 1.572998-2.0629883.2900391 1.1699219.1499023 2.4399414-.3800049 3.5200195 1.5439224-.3090868 2.4317322-1.2322674 3.539917-2.3100586.3400879.6801758.6900635 1.3100586 1.4001465 1.6899414.6499023.3500977 1.4299316.4401855 2 .8901367.9099121.7099609.7999268 1.6899414.8898926 2.7099609.1675415 1.7240734 2.1922073-.3233528 2.9020996 4.9831543-1.36792 1.7502442-3.5966798 2.9968262-5.8753663 2.6486817zm-19.7705097 7.5107422c.140625-.6826172.7265625-1.2841797 1.4580078-1.4970703.2158203-.0625.4433594-.0927734.6757813-.0927734 1.7836514 0 3.0964184 1.5597839 2.8076172 2.1835938-.1263409.2778587-.4595985.633625-2.3642578 1.1376953-.4814453.1289063-1.1855469.2695313-1.7421875.0205078-.6132813-.2753907-.9804688-1.0439454-.834961-1.7519532zm4.5019531 5.1416015c-.1263409.2778587-.4595985.633625-2.3642578 1.1376953-.7763672.2070313-1.3134766.2119141-1.7431641.0205078-.6132813-.2753906-.9804688-1.0439453-.8349609-1.7519531.140625-.6826172.7265625-1.2841797 1.4580078-1.4970703 1.847683-.5350761 3.8484249 1.2884255 3.484375 2.0908203z"/><path d="m52.01194 34.6670189c1.4257813 2.96875 2.2958984 6.2734375 2.5146484 9.5576172.0126953.1972656.1777344.3496094.3740234.3496094.0078125 0 .0166016 0 .0253906-.0009766.2060547-.0136719.3623047-.1923828.3486328-.3994141-.2246094-3.3779297-1.1201172-6.7783203-2.5869141-9.8310547-.215473-.4473342-.8905219-.1215972-.6757811.3242188z"/><path d="m56.1730728 68.5049057c.9343414-.5296249 1.301609-1.6313553.6318359-2.4199219-.1053467-.1240234-.2452393-.2182617-.3823242-.3144531l.2172852-11.5468712c.0039063-.2070313-.1611328-.3779297-.3681641-.3818359-.2119141.0341797-.3769531.1611328-.3818359.3681641l-.2102051 11.1708946c-4.0454941-1.4239235-7.1524734 3.2744675-3.3728027 3.5830078.8010063.0669555 2.936882.069313 3.8662109-.4589844zm-4.4394531-1.6259766c.9195938-.9479065 2.5527573-1.3263931 3.9401855-.6848145.023941.2164764.2294312.3944626.4810791.3122559.0231934.0224609.0585938.0402832.0787354.0639648.3675652.4349136.0636215 1.0022049-.4296875 1.2822266-.7686043.4358978-2.552433.4390793-3.4355469.3632813-1.1683616-.0948868-1.2943954-.6566696-.6347656-1.3369141z"/><path d="m61.6193619 69.6474838c1.0622292.0887833 2.9399109.0675888 3.8662109-.4589844.9336014-.5292053 1.3012772-1.6319199.6328125-2.4189453-.0440674-.0522461-.1099854-.0852051-.1602783-.1323242l-.6590576-14.7397423c-.0242691-.499958-.7711334-.4645805-.75.0332031l.6358643 14.2209435c-4.0809937-1.6956634-7.4256287 3.1803894-3.5655518 3.4958496zm3.6171875-2.3398437c.0097656.2011719.1757813.3583984.375.3583984h.0166016c.024292-.0012207.0452881-.0117188.0679932-.0170898.0587234 1.3409348-2.664463 1.3664246-4.0152588 1.2504883-1.1717567-.0954056-1.2926369-.6610107-.6357422-1.3359375 1.1210938-1.1545868 3.0235901-1.2778549 4.1772461-.5720215z"/><path d="m25.3898678 69.5058823c3.7515125 0 7.4669323-2.3681183 8.7392597-6.0644493.1605377-.467659-.5465164-.715065-.7089844-.2441406-1.2655258 3.6826134-5.2071114 5.9383736-8.9404316 5.5068321-3.0878906-.3671875-5.9423828-2.3525391-7.125-4.9023399l5.4755859-.5361328c.1923828-.0185547.3388672-.1796875.3388672-.3730469l.1328125-3.9404297c.3183537.1055222.7384377.3653641 1.1591797.5107422 4.0312614.835968 4.0158634 1.0204735 4.2773438.7871094.0898438-.0820313.1347656-.2021484.1201172-.3222656-.0581284-.4868279-.080307-.9963417-.1386719-1.5195313l.7568359-2.4013672c.8300991.19207 1.7752304 1.3164482 2.2392578 1.0908203l1.3251972-.6679688c.3876953.7675781.6494141 1.6025391.7783203 2.4863281.0735168.4980392.8140564.3771324.7421875-.1074219-.1601563-1.0986328-.5087891-2.1289063-1.0361328-3.0625-.0986328-.1738281-.3144531-.2421875-.4951172-.1503906l-1.4785175.7451172c-.7066383-.4065094-1.3949814-1.1152344-2.3398438-1.1152344-.1640625 0-.3085938.1064453-.3574219.2626953-1.0640182 3.4255829-.9331207 2.4377556-.7919922 4.0058594-3.6444778-.8733749-3.1198711-.59021-3.8886719-.9746094-.3603516-.1796875-.7695313-.3837891-1.2314453-.3837891-.2021484 0-.3681641.1601563-.375.3623047l-.1416016 4.0537109c-5.8134174.6237984-5.7480278.4341545-5.9316406.7285156-.0615234.0986328-.0732422.2207031-.0332031.3300781 1.2817747 3.4143869 5.2043268 5.8955042 8.9287111 5.8955042z"/><path d="m18.0734615 61.8222923c.5485592 0 1.1133671-.0664063 1.7578125-.1347656.1582031-.015625.2880859-.1289063.3271484-.2822266.0255585-.1021042 1.2711849-5.0785065 1.1953125-4.7753906l3.8779297 1.3330078c.1826172.0625.3857422-.0234375.4648438-.2021484l1.9804688-4.4570313c.5760574.3580894.3151588.320343 1.4082031-.0126953.9580078-.2910156 1.7851563-.5429688 2.0234375-1.2412109.1650391-.4833984-.0039063-1.0546875-.53125-1.7978516-3.5418129-4.9796219-12.3713512-3.575119-14.8134766-9.1503906-.0010986-.0024414-.00354-.0039063-.0047607-.0061035-.0090332-.1020508-.0356445-.1904297-.0949707-.2521973-.4150391-.4321289-1.9493408.3679199-3.427002 1.7871094-1.4775391 1.4189453-2.3388672 2.9196777-1.9238281 3.3520508.0249023.0258789.065918.0332031.0986328.0505371.020752.0297852.039917.0610352.0687256.0842285 2.1132813 1.6787109 2.3144531 4.9042969 2.2539063 7.5263672-.0615234 2.6943359-.1376953 6.046875 1.8828125 8.3173828.2168474.2465515.261631.0798607 3.4560546-.1386719zm-6.7169189-15.9165039c1.3921423-.6037903 3.2978334-2.3961792 4.0855713-3.8164063 3.1695023 5.2809486 11.2972984 4.0646248 14.5239258 8.597168 1.0600948 1.4939003.1421509 1.4607544-1.7304688 2.0849609-.3675442-.2544556-.9244728-.4902382-1.1074219-.0800781l-1.977539 4.4501954c-4.0347233-1.3449097-3.9350281-1.4515877-4.1972656-1.3261719-.0898438.0439453-.1582031.1220703-.1904297.2167969l-1.2685547 4.9365234c-.454813.0362396-4.7076321.3751183-4.4365234.3535156-3.4269133-4.1370849.4394569-11.3563957-3.701294-15.4165039z"/><path d="m16.1603756 53.7754173c-.0699673.489769.6728153.5987816.7421875.1054688.2958984-2.0703125-.0673828-4.2353516-1.0214844-6.0947266-.226635-.4415894-.8935461-.0999603-.6679688.3417969.8847657 1.7236328 1.2207032 3.7285156.9472657 5.6474609z"/><path d="m27.9777584 63.2568626c-.4130859 1.1171837-1.5751953 1.9355431-2.7646484 1.9462852-.4945068.0046692-.4908791.75.0029297.75h.0029297c1.5136719-.0126953 2.9375-1.0146484 3.4619141-2.4365196.0722656-.1943359-.0273438-.4101563-.2216797-.4814453-.1933595-.0703124-.4101563.0273438-.4814454.2216797z"/><path d="m7.1496339 32.2187767c-.368752.1377258-.2987795.6787148.0878906.7226563 2.9957891.3539467 4.3735461.5283203 4.4863276.5283203.4663773 0 .510932-.6917419.0439453-.7470703l-2.9111328-.3447266c2.8046408-1.053112 3.2010565-1.0923023 3.3876953-1.6484375.1293793-.3932095.0400085-.4774609-.9423828-3.3574219.8984375.7861328 1.9482422 1.4082031 3.0664063 1.8046875.2547941.0937634.5372334-.1192532.4960938-.4072266-.2392578-1.6503906-.2792969-3.3164063-.1201172-4.9707031.5166016 1.2089844 1.1923828 2.3398438 2.015625 3.3769531.206419.2596188.6279507.1426201.6669922-.1914063.1376953-1.2373047.5146484-2.4462891 1.0996094-3.5458984.2441406 1.5888672.2431641 3.2353516-.0058594 4.8134766-.0756454.4813843.6605778.6216812.7402344.1171875.3193359-2.0195313.2587891-4.0566406-.1806641-6.0537109-.0693455-.3173065-.4931049-.4081326-.6777344-.1279297-.7705078 1.1533203-1.3095703 2.4580078-1.5810547 3.8154297-2.0302668-2.9086094-1.6284389-4.255064-2.2753906-4.1318359-.1728516.0117188-.3154297.140625-.3447266.3115234-.3388672 2.0048828-.3925781 4.0400391-.1621094 6.0576172-1.3027344-.5742188-2.4765625-1.4824219-3.3496094-2.5996094-.2595758-.3318062-.7877617-.0470409-.6503906.3515625 1.4557438 4.2695541 1.5265789 4.400732 1.4931641 4.5009766-.0448446.1330871-.0742321.1063633-4.382812 1.7255859z"/><path d="m15.5763912 33.6806908c1.8737392.8296089 1.8323765.8535156 1.9794922.8535156.4016552 0 .520956-.5519295.1533203-.7167969l-1.8261719-.8203125c-.4552192-.2025833-.7577858.4836006-.3066406.6835938z"/><path d="m18.7365475 32.8584251c.3091869 0 .4884415-.3569298.296875-.6044922l-.7089844-.9169922c-.3022594-.3906136-.8984909.0651646-.59375.4589844.6429958.7645684.692049 1.0625 1.0058594 1.0625z"/><circle cx="41.212" cy="17.373" r=".722"/><path d="m10.7394772 66.3066635-.5351563 2.1367188c-.119523.4827881.6077757.6618652.7285156.1816406l.5332031-2.1367188c.0507813-.2001953-.0712891-.4042969-.2724609-.4541016-.2001953-.0478515-.4052734.0712891-.4541015.272461z"/><path d="m13.5480709 67.5478745-.6767578 1.2558594c-.1365471.2528229.0507021.5527344.3300781.5527344.3849754 0 .4018946-.4473648 1.0068359-1.453125.2374306-.4395982-.4291009-.7898484-.6601562-.3554688z"/></g></svg>