<svg id="Layer_1" enable-background="new 0 0 75 75" viewBox="0 0 75 75" xmlns="http://www.w3.org/2000/svg"><g id="Camping" fill="rgb(0,0,0)"><path d="m39.5442352 9.7191677c.2703247-.4145508.5556641-.7856445.9353638-.9707031.8915062-.4360628 1.9249992.1583223 2.7241211.6269531.4286308.2506208.8074493-.3964863.3798828-.6464844-1.7999229-1.056437-3.2779045-1.4229312-4.5282593.369873-.2776489-1.1804199.1089478-2.5151367 1.0316772-3.314209.3745842-.3254204-.1171379-.8924017-.4912109-.5664063-1.2846069 1.1123047-1.72229 3.0705566-1.0778198 4.6381836l-.0253296.0498047c-.9984131-1.1567383-2.5626831-1.7822266-4.0794678-1.5844727-.2055664.0263672-.3510742.2138672-.3251953.4189453.0263672.2060547.2109375.3525391.4189453.3251953 1.3447266-.1699219 2.7919922.4501953 3.5991211 1.5390625.0059814.0080566.015564.0109863.0220337.0185547-10.6070557 20.8635578 12.349823-24.2924442-23.675354 46.5693359-.1291218.226944.0262156.5429802.3242188.546875.00177 0 .0031128.0019531.0048828.0019531.0010986 0 .0020752-.0007324.0031738-.0007324.0059204 0 .0114136-.0007324.017334-.0012207l3.7355356 1.2619629c-.1958008.300293-.355835.6264648-.4298706.9812012-.2753906-.2763672-.6000977-.5126953-.9555664-.6914063-.1865234-.0927734-.4101563-.0185547-.503418.1669922-.0932617.1845703-.0185547.4101563.1665039.5029297.617836.3104401 1.1384602.8432579 1.3725586 1.5214844.1594181.4665375.8660088.2285957.7104492-.2392578-.2035751-.6212959-.1025162-1.3444138.2773438-1.8916016.6757813.2988281 1.2612305.8164063 1.6293945 1.4472656.5469017.9439087.3496819 1.747612.5085449 2.4619141-.8048096.2397461-1.6313477.4116211-2.4688721.5153809-.1398315-.6025391-.5097046-1.1520996-1.038208-1.4753418-.419733-.2629089-.8163891.3805161-.3916016.6386719.331543.2036133.5742798.5368652.6846313.9086914-.9243164.0693359-1.8532715.0712891-2.7686167-.0268555-.5086393-.0367661-.5616407.6935997-.0800781.7460976 1.5816412.1705399 3.0979776.0998459 4.6985483-.2026367-.0891724.5012207-.3401489.9775391-.72052 1.3149414-.1552734.1367188-.1694336.3740234-.0322266.5292969.138319.1547012.3745899.1689987.5292969.03125.5776367-.5109863.9369507-1.2631836.9976196-2.0324707.300293-.0722656.5962524-.1582031.8909302-.2475624.3592358.5572472.7398624.8931084.8804932 1.3210487.215332.6367188.2265625 1.3173828.0288086 1.9394531-.3583984-.0625-.6850586-.3652344-.7412109-.7255859-.0566101-.3640823-.5425529-.4266891-.7036133-.1152344-.887207 1.7128906-2.8461914 2.8115234-4.8188477 2.7421875 1.1184044-1.0351486 1.8751869-2.4015121 2.1645508-3.7773438.084137-.402977-.4576035-.6333389-.6831055-.2792969-.7314453 1.1416016-2.1083994 1.8164063-3.5214853 1.7333984.2381363-.962326.4709263-1.1841202.2504883-1.4423828-.0820313-.0966797-.2089844-.1464844-.3354492-.1289063-.8971739.1247253-1.8374796-.128418-2.5805664-.7099609.6481285-.7961807 1.6907492-1.1507912 2.5371094-1.0527382.3782644.0299873.559411-.4205856.2875977-.6572266-.3959675-.3410683-.7144346-.5638885-1.1420898-.9414063.8567324-.0801239 2.2426977.1139946 3.3198252.7294922.4100666.2343254.7897758-.3602905.4003906-.6337891-.7315083-.5100403-1.1207247-1.4242172-1.0561533-2.2753906.0512695.0048828.10254.0117188.152833.0205078.4967785.0736885.6065483-.6592636.1230469-.7402344-.1982431-.0322266-.3989267-.0488281-.6015635-.0449219-.175293.0019531-.3256836.125-.362793.2958984-.1440611.6695213-.0615759 1.4436913.2797852 2.1376953-.7620735-.2096062-2.7292099-.5108986-3.2358398.1474609-.1118164.1464844-.1010742.3525391.0258789.4863281.2828102.2984505.5649881.5355682.855957.7763672-.9686193.1832542-1.8685408.7629051-2.4038086 1.6093788-.1964169.3118362.105855.5429688.3999023.765625.7304688.5595703 1.6308594.8632813 2.5375977.8671875l-.2963867 1.0097656c-.044714.1576385.0941181.437294.3681641.4833984 1.1777344.2060547 2.4169931-.0986328 3.3979502-.7724609-.4770508.9365234-1.16504 1.7421875-2.0126963 2.3505859-.2607183.1865311-.1814098.5976791.1362305.6708984 2.2022047.4967346 4.7383699-.4680557 6.10254-2.4042969.3417969.4296875.8989258.6826172 1.456543.6279297.1347656-.015625.2548828-.1113281.3076172-.2363281.3442249-.821701.3806992-1.7862015.0742188-2.6943359-.1071777-.3232422-.3009644-.5957031-.50177-.8579102.1151123-.2065468.2352295-.3972206.3591309-.5761757 2.3188381.1342545 2.8307724 1.3434334 3.2183228.732914.1113281-.1748047.0595703-.4072304-.1152344-.5175819-.7687988-.4880371-1.6522827-.7800293-2.5579834-.9040527.5775757-.6208496 1.2498169-1.0725098 2.0474854-1.5141602 2.4739475.8279381 2.3704777.8195801 2.4885254.8195801.1827164 0 .3477936-.1309929.3805542-.3464355.2832031.0532227.5758057.0895996.8981934.0900879.1421127.9979515 1.1595783 1.9624023 2.7730103 1.9624023 1.5529022 0 7.4613304-1.6095505 9.0623779-2.0754395-.0309296.5668907-.2578773.935257.06604 1.1418457.0688477.0429688.1513672.0693359.2265625.0566406.0844727.0214844.1645508.0166016.2358398-.0068359 11.3049393.4466476 10.6196747.4474373 10.7753906.3681641l5.902832-2.9648438c.4162483-.2822418-.0041656-.9023209-.4086914-.625l-5.4613647 2.734375-6.1138306-28.6533203c-.043457-.203125-.2421875-.3242188-.4448242-.2890625-.2026367.0439453-.3320313.2431641-.2885742.4453125l6.1091296 28.6313463-9.9025879-.3891602.0957642-.7033691c.1308746-.0935097.2059479-.2639542.1212158-.4519043-.0006714-.0019531 0-.0039063-.0006714-.0058594-.0010757-.003006-.0464058-.0827446-.046814-.083252l1.2510986-9.1850586c.1569405-.1175842.2174606-.3334732.0706787-.5187988 1.5296783-11.5348244 1.6068497-11.0579185 1.4262085-11.2949219-.1492271-.1949577.9130707.0037842-13.1855469-1.7822266-.2045898-.0351563-.3916016.1113281-.4223633.3144531l-1.0074463 6.6713867c-.0627441.0444336-.1259155.0881348-.1864014.1362305-2.4409466-1.5047035-5.6050777.1240196-5.7519531 3.0136719-2.0262737.1038513-3.2069111 2.1456909-2.5444336 3.8671875.2220764.5911446.869463 1.4289665 1.276123 1.8085938-1.3322792.9266396-.6288719 2.9839363.9677734 2.9311523.3613281 1.59375 1.1449585 2.9133301 2.2072144 3.7834473l-10.8433235-3.6628417c22.7122383-44.6567192 15.2179518-29.9214764 16.7809448-32.9946289 12.0696754 1.5217152 11.3632698 1.4907608 11.5512085 1.371582l2.3652954-1.4892578c.9954491 1.9089108-4.8085938-9.2211189 17.2850952 33.1464844l-2.4140625 1.2099609c-.3162003.2113991-.1615753.6914063.2006836.6914063.0099487 0 .019104-.0080566.0290527-.0090332.0062866.0002441.0115356.005127.0178223.005127.0561523 0 .1132813-.0126953.1674805-.0400391 2.8106003-1.4493561 2.8572769-1.3316002 2.9433594-1.5966797.03125-.0957031.0224609-.2001953-.0234375-.2890625zm-16.861206 53.135252c-.2252808.0019531-.4498291.0161133-.6733398.0424805-.0765953-1.2136612-.1223183-2.045311-.965271-3.048584l3.6710815 1.2399902c-.7719116.4772949-1.4476929 1.0175782-2.0324707 1.7661133zm14.3088989-7.2932129c.6867218.230648.7684135 1.0521736.3060303 1.4538574-.239563.2094727-.6083984.2573242-.9003296.1340332.2648277-.5256881.4694328-1.0170822.5942993-1.5878906zm-.9591675 2.2492676c1.5445786.750473 3.0468407-1.1528473 1.9161987-2.4650879.5609741-.4294434.9628906-1.041748 1.1447144-1.7478027 1.0507164-.5419579.8100815-.4362564 1.4703979-.7641602.8606911.0592918 1.4684906-.0376282 1.9213257-.7592773.036438-.0090332.0724487-.010498.1088867-.0185547l-1.2177734 8.9401855c-2.6085815.7697754-5.1976929 1.4250488-7.7035522 1.939209-.7700195.1738281-1.4125977.2705078-2.0361328.1767578-.6692791-.1120415-1.3172989-.52005-1.4243164-1.2011719 2.3923034-.32135 4.5528259-2.0722198 5.8202514-4.1000976zm-13.5570679-5.793457c-.5648079-1.4656792.6681995-3.0153961 2.1791992-2.8427734.2621937.0134468.4283352-.1818237.4150391-.3964844-.0712891-1.1367188.5751953-2.3027344 1.574707-2.8369141.987793-.5380859 2.3144531-.4414063 3.2280273.2324219.399971.2941399.575901-.2816772 1.4101563-.6572266.5248013-.2614098 1.3095474-.3146133 1.8427734.0263672.6345215.4292107.4665794 1.1687202.8837891 1.3554688.242424.108696.4238205-.0344391.6020508-.0966797.6970406-.2743874 1.6378517-.1244087 2.2983398.5244141.0205078.0351563.0454102.0742188.0742188.1191406.4920731.6613579.4563026 1.6661873.1542969 2.1054688-.4585609.6576462-.2417488.9259872.3969727 1.3896484 1.183033.8603897 1.2417145 2.6930084.1074219 3.7099609-.0947266-.1220703-.2104492-.2275391-.3393555-.3085938-.024807-.0632935-.1492996-.3666267-.2001953-.4121094-1.3312225-2.3903389-4.9747009-2.0212021-5.7851563-4.3457031-.0597858-.1617699-.0413437-.8671188-.6118164-.9902344-.528471-.0940857-.7956276.4819489-.9106445.5986328-1.6454964 1.707798-4.7248535 2.1109352-5.8048706 4.6799316-.8215237-.630989-1.3444519-1.3990287-1.5149537-1.8547362zm1.2420655 2.5710449c.0397949.020752.0787354.0344238.1183472.0505371-.0358276.5319824-.0187988 1.0783691.0524292 1.6279297-.946766-.0925522-1.0869217-1.3937569-.1707764-1.6784668zm.9473877 1.9191894c-.1952477-1.1216125-.076622-1.8799171-.0664063-2.1298828l.0029297.0009766c.4101563-1.2490234 1.668457-2.0849609 2.8447266-2.7382813.8972664-.4896393 2.5150356-1.32724 3.0839844-2.1806641.576128 3.0377693 4.5987587 2.6669197 5.8701172 4.767334-.0072556.1001511.0215378.5123024-.1586914 1.2736816-.2944336 1.1855469-1.0014648 2.375-2.0444336 3.4394531-3.7159539 3.802498-8.6168633 2.7219697-9.5322266-2.4326171zm18.7631836-31.6923809-10.9038086-1.3757324 6.541687-12.8613281 6.6657104 12.786377z"/><path d="m27.9594574 67.3939743c3.9118729.5828323 6.9241829-1.1152573 8.0406494-3.5078163.2095337-.449501-.4696808-.7645798-.6796875-.3164063-.9407616 2.0153008-3.5228996 3.5856209-7.1411743 3.0903358-.136343-.5142899-1.1022072-1.0488815-1.664978-1.2075195h-.0004883c-1.8103848-.509491-3.433609.8263626-3.1933594 2.4042969.1030273.6845703.6040039 1.2558594 1.2177734 1.3896484 1.0637188.2320786 2.7827378-1.0898742 3.4212647-1.852539zm-3.258667-1.0029297c.6331978-.4263992 1.6130829-.4415436 2.5117188.2490234.097168.0751953.2314453.1865234.2490234.1630859-.1001167.0990982-.4024067.6517868-1.7587891 1.4306641-.293457.1679688-.671875.3535156-1.0048828.2802734-.7605743-.1669005-.955719-1.4749526.0029297-2.1230468z"/><path d="m57.5684662 52.2845955-4.3173828 1.9902344c-.3635674.1676559-.2450142.7158203.1567383.7158203.1564751 0-.0708771.0565872 4.4750977-2.0244141.4516715-.2088241.1320342-.8914757-.3144532-.6816406z"/><path d="m12.4571371 32.1146736c1.8574219.2714844 3.5927744 1.1699219 4.887208 2.5292969.3378696.3535347.8866329-.1563187.5429688-.5175781-1.4091797-1.4804688-3.2993174-2.4580059-5.3217783-2.7539043-.4964343-.0661908-.5951624.6703319-.1083985.7421855z"/><path d="m13.8086996 28.653738c2.3024988 2.3654633 2.2000818 2.4580078 2.4917002 2.4580078.3273087 0 .4984264-.3939495.2719727-.6328125l-2.2197275-2.3408203c-.3397256-.3605251-.8859902.1548386-.5439454.515625z"/><path d="m16.7266693 26.1771755c-.0014648 0-.003418 0-.0048828 0-.2070313.0029297-.3730469.1728516-.3701172.3798828.0209961 1.5820313.6933594 3.1113281 1.8447266 4.1953125.3590298.3347702.8751583-.2052765.5136719-.546875-.9887695-.9306641-1.590332-2.2988281-1.6083984-3.6582031-.0029298-.2050781-.169922-.3701172-.3750001-.3701172z"/><path d="m28.4949799 56.1727791c.3651123 0 .6611328-.2958984.6611328-.6611328s-.2960205-.6611328-.6611328-.6611328c-.3651733 0-.6611938.2958984-.6611938.6611328s.2960204.6611328.6611938.6611328z"/><path d="m31.5256805 56.3763924c.3651733 0 .6611938-.2961426.6611938-.661377 0-.3649902-.2960205-.6611328-.6611938-.6611328s-.6611938.2961426-.6611938.6611328c0 .3652344.2960205.661377.6611938.661377z"/><path d="m27.9927826 57.4847908c-.1123428 1.1067276-.0807781 1.6530457.296875 2.140625.8152504 1.056015 2.4788723.8647728 3.0336914-.3515625.2734375-.6005859.2407227-1.2705078-.0854492-1.7480469-.1803207-.2628746-.5765743-.1940765-.6674805.1005859-.0507412.1574745-.3666496.1527138-.5302734.140625-.5253906-.0488281-1.027832-.2382813-1.4536133-.5488281-.236721-.1698417-.5655766-.0193138-.59375.2666016zm.6938476.6669922c.5566044.272541 1.5197353.5225639 2.0703125.265625.0245781 1.1122017-1.2766647 1.5233536-1.8745117.7490234-.1923828-.2490234-.2172851-.6259765-.1958008-1.0146484z"/></g></svg>