<svg id="Layer_1" height="512" viewBox="0 0 512 512" width="512" xmlns="http://www.w3.org/2000/svg"><g><path d="m469 340.8c-.6-35.5-16.8-67.2-42-88.8 5.9-12.9 9.2-26.9 9.2-41.1 0-54.2-44.1-98.3-98.3-98.3-39.2 0-74.3 23.3-89.9 58.7-16.8-6.3-34.9-9.7-53.5-9.7-83.5 0-151.5 67.6-151.5 150.7 0 9 .9 18.2 2.6 27.4-26 10.4-43.6 35.8-43.6 64.2 0 38.2 31.2 69.3 69.6 69.3h368.7c38.4 0 69.6-31.1 69.6-69.3.1-27.3-16.1-52-40.9-63.1zm-131.1-211.8c45.2 0 81.9 36.8 81.9 81.9 0 10.7-2.2 21.2-6.2 31-18.9-12.2-41.4-19.3-65.5-19.3-9.9 0-19.7 1.2-29.3 3.6-14.5-20.8-33.8-37.2-55.8-48.3 13-29.5 42.3-48.9 74.9-48.9zm102.5 327.7h-368.8c-29.4 0-53.3-23.7-53.3-52.9 0-44.2 46.6-53 46.6-53s-5.6-15.6-5.6-38.6c0-74 60.7-134.3 135.2-134.3 82.2 0 117.2 67.4 117.2 67.4s15.4-6.3 36.4-6.3c57.6 0 104.5 46.5 104.5 103.8 0 .5-.3 9.2-.3 9.2s41.3 8.6 41.3 51.8c0 29.2-23.9 52.9-53.2 52.9z"/><path d="m329.7 38.9h16.4v49.2h-16.4z"/><path d="m209.1 98.5h49.2v16.4h-49.2z" transform="matrix(.707 .707 -.707 .707 143.829 -133.97)"/><path d="m460.8 202.7h49.2v16.4h-49.2z"/><path d="m298.5 94.3-12.6-30.3-15.1 6.2 12.5 30.3z"/><path d="m383 65.9h16.4v32.8h-16.4z" transform="matrix(.924 .383 -.383 .924 61.284 -143.5)"/><path d="m458.4 247.9h16.4v32.8h-16.4z" transform="matrix(-.383 .924 -.924 -.383 889.364 -65.686)"/><path d="m450.2 149.4h32.8v16.4h-32.8z" transform="matrix(-.924 .383 -.383 -.924 958.049 124.677)"/><path d="m434 82.1h16.4v49.2h-16.4z" transform="matrix(.707 .707 -.707 .707 204.923 -281.454)"/><path d="m83.9 309.3h16.4c0-49.7 40.4-90.1 90.1-90.1v-16.4c-58.7-.1-106.5 47.7-106.5 106.5z"/></g></svg>