<svg id="Layer_1" height="512" viewBox="0 0 512 512" width="512" xmlns="http://www.w3.org/2000/svg"><g><path d="m337.9 195.1v16.4c49.7 0 90.1 40.4 90.1 90.1h16.4c.1-58.7-47.7-106.5-106.5-106.5z"/><path d="m479.8 313.7c.5-4.6.7-8.7.7-12.7 0-74.5-61-135.2-136-135.2-40.2 0-77.6 17.3-103.6 47.7-6.9-2.8-13.9-4.9-21.1-6.3 2.9-8 4.4-16.5 4.4-25.1 0-41.2-33.6-74.8-74.8-74.8s-74.7 33.7-74.7 75c0 25.6 13.2 49.1 34.2 62.8-13.8 15.9-23.4 35.6-26.8 57.6h-12.9c-37 0-67.2 30-67.2 66.8s30.1 66.8 67.2 66.8h29.2c20.1 25.7 51.2 41 83.8 41 32.7 0 63.7-15.2 83.8-41h176.7c37 0 67.2-30 67.2-66.8.1-22.5-11.3-43.4-30.1-55.8zm-388.7-131.4c0-32.2 26.2-58.4 58.4-58.4s58.4 26.2 58.4 58.4c0 7.9-1.6 15.7-4.7 22.9-34.3 0-61.1 9.8-82.3 28-18.2-10.3-29.8-29.7-29.8-50.9zm351.7 237.6h-185s-23.2 41-75.6 41c-53 0-75.6-41-75.6-41h-37.4c-28 0-50.8-22.6-50.8-50.4s22.8-50.4 50.8-50.4h27.6l.7-7.5c4.7-51.4 47.4-90.2 99.5-90.2 14.8 0 29.2 3.3 42.8 9.7l5.9 2.8 4-5.2c22.9-29.5 57.4-46.4 94.7-46.4 66 0 119.6 53.3 119.6 118.8 0 13.4-1.9 21.5-1.9 21.5l4.9 2.7c16.3 8.9 26.5 25.9 26.5 44.2.1 27.8-22.7 50.4-50.7 50.4z"/><path d="m141.3 34.8h16.4v57.1h-16.4z"/><path d="m36.8 90h57.1v16.4h-57.1z" transform="matrix(.707 .707 -.707 .707 88.552 -17.486)"/><path d="m2 174.1h57.1v16.4h-57.1z"/><path d="m57.2 237.8h16.4v57.1h-16.4z" transform="matrix(.707 .707 -.707 .707 207.504 31.786)"/><path d="m225.4 69.6h16.4v57.1h-16.4z" transform="matrix(.707 .707 -.707 .707 137.821 -136.421)"/><path d="m88.6 73h38.1v16.4h-38.1z" transform="matrix(.383 .924 -.924 .383 141.412 -49.317)"/><path d="m69.1 140.1-35.2-14.6-6.2 15.2 35.1 14.5z"/><path d="m183.2 62.1h16.4v38.1h-16.4z" transform="matrix(.924 .383 -.383 .924 45.654 -67.078)"/><path d="m236.1 155.2 35.2-14.5-6.3-15.2-35.1 14.6z"/><path d="m40.2 205.1h16.4v38.1h-16.4z" transform="matrix(-.383 -.924 .924 -.383 -140.142 354.637)"/></g></svg>