<svg id="Layer_1" enable-background="new 0 0 75 75" viewBox="0 0 75 75" xmlns="http://www.w3.org/2000/svg"><g id="Catch_Fish" fill="rgb(0,0,0)"><path d="m33.2526932 69.3825302c.7136497.4093552 2.2118912.4941406 3.0253906.4941406.7809219 0 1.6329651-.0271072 2.1181641-.6445313.34375-.4365234.3979492-1.0957031.1376953-1.6777344-.8294067-1.8601074-3.145874-1.4550781-4.1360474-1.2824707l-.6774292-13.0612754c-.0253525-.5118752-.7742233-.4465675-.7490234.0390625l.6856079 13.2189903c-1.5286102.577446-1.6454697 2.1968537-.4043579 2.9138184zm.28125-2.0117187c.2871094-.2148438.6625977-.3027344.9921875-.3603516 1.3520508-.234375 2.8017578-.3183594 3.3232422.8486328.1455078.3271484.128418.6923828-.0429688.9101563-.4827003.6145401-3.5005875.3523788-4.1791992-.0361328-.6061821-.3525544-.6114311-.9736786-.0932617-1.3623047z"/><path d="m39.9461746 46.0805321c-.4000244-5.6599121-1.3499756-11.2700195-2.8599854-16.7299805-.1400146-.5700684-.3400269-1.170166-.8000488-1.5300293-1.5101891-1.1925278-3.6171303 1.2287445-8.972414.1047363-.0004272-.0217285.008606-.0427246.0073242-.064209 0-.737545-.5542011-1.3465843-1.2368164-1.5595703.0901489-.2348633.0967407-.4941406.0552979-.7436523 5.1866741 2.7625427 11.4455395-.4069901 13.0355244-5.6274414v-.0009766c.0436401-.1445313.0755005-.2919922.1121216-.4384766.0856285.0232792.0276146.0396347.1276245.0322266.8911133-.0908203 1.6269531-.8935547 1.6401367-1.7890625.0106201-.7216797-.4517212-1.3896484-1.0943604-1.6865234.915844-2.2670641.4469719-4.5499306-.8148193-6.4482422-1.4311523-2.1523438-3.9438477-3.8027344-6.5556641-4.3056641-2.4874134-.4996743-5.6392651.0925951-8.0751972 1.8740234-.4002934.2917595.040451.8969278.4423828.6054688 2.2667656-1.6557245 5.1990662-2.2011051 7.4882832-1.7441406 2.4238281.4677734 4.7519531 1.9941406 6.0756836 3.9853516 1.0366211 1.5605469 1.3955078 3.2851563 1.0361328 4.9970703-.0204315.1084938-.207325.5354996-.3759766.9692383-.0210571.017334-.0369873.0395508-.053772.0612793-2.071701-2.6951265-5.597187-3.3335667-6.0878296-2.9016113-.3725128.3279619-.0351372.9878778-.3652344 1.8066406-.0922852.2041016-.1855469.3710938-.2944336.5214844-.046875-1.2910156-.5903339-2.5615234-1.520998-3.4755859-.0962524-.0942383-.2359619-.130127-.3648682-.0927734-.0007324 0-.0015869-.0002441-.0023193 0-.1303711.0380859-.2299805.1425781-.2612305.2744141-.2714233 1.1540527-1.0935669 2.1704102-2.1464844 2.7192383.0336876-.4169703-.007988-1.2706537-.2597656-1.5932617-.2041016-.2441406-.4125977-.2841797-.5488281-.2646484-.4540844.0460176-.6076393.6318617-.7548828.8017578-.8526688 1.0056133-2.2904625 1.1735525-3.5045776 1.8845215-1.4511375.8511028-1.5041828 1.8311291-1.5666504 1.9311523-.1316433.5918159-.0006523 1.2351837.1752319 1.8181152-1.3768559-3.3635616-.6642151-7.1229086 1.4282227-9.8310547.3018742-.3916206-.286747-.8518543-.59375-.4589844-3.1213436 4.0402794-3.1618309 9.896574.5452881 13.763916-.9958153.2074623-1.9048424 1.4253235-1.6590576 2.4040527.1334343.845974.8427639 1.5209579 1.6665039 1.7285156-.4276085.6382217-.5107975 1.4857178-.0176392 2.182373-.1545715.5983467-2.9638824 12.7684059-3.1781616 13.7004395-.1798534 1.364624-1.6805553 5.1054649.25 7.2197266.960022 1.0600586 2.5 1.3500977 3.9400024 1.5102539 3.7600098.4199219 7.5599976.3798828 11.330019-.0800781 3.943615-.540764 4.8572617-1.9292222 4.6099854-5.5300294zm-12.9889545-13.4494629c.0445461.1006203.5330868.6510162.7588501 2.0297852.1113281.6816406.1269531 1.3935547.1196289 2.0986328-.6225586-.5751953-1.2246094-1.2041016-1.7978516-1.8759766-.4306583-.49123-.8021984-.972435-.7316895-1.5800781.2722168-.1108398.5444336-.2216797.8167114-.3325195.2781373-.1132813.5562745-.2265626.8343507-.3398438zm13.3477192-14.9086914c-.0067749.4743652-.4006348.9177246-.8626709 1.0219727.0834351-.5029297.1254883-1.0043945.1244507-1.4958496.1088867-.098877.161438-.244873.1166382-.3835449.0021973-.0251465.0159912-.0698242.0251465-.1069336.3462524.1901855.6020507.5742187.5964355.9643554zm-13.0039082-3.7265625c.0727539.3974609.0810547 1.078125.0102539 1.2011719-.0009766.0009766-.0019531.0009766-.003418.0009766-.3679485.1009235-.3742447.6308489.0158691.722168.0101318.0024414.0188599.0085449.0291748.0102539.0482178.0070801.0982666.0053711.1478271-.0068359.0004883-.0002441.0010376-.0004883.0015869-.0007324.1000061-.056983 2.2997437-.5254326 3.2503662-2.9152832.4179592.557086.4870872.8625221.5300293.9663086.384943.9333982.3926849 1.5259428.2908936 2.3845215 0 .0002441-.0001221.0004883-.0001221.0007324-.0229492.2021484.1191406.3847656.3203125.4130859.1547871.0302734.3090839-.0585938.3813496-.1914063.0319977-.0306911.3984604-.3176327.4314575-.3461914.0864487-.1005936.002121.0445175.2854614-.3491211.6973114-.9653301.5847626-1.950717.6004639-2.0644531.0004883-.0195313.0004883-.0400391.0009766-.0605469 2.0463791.1779461 4.0320282 1.3782339 5.2226563 3.1237793.0437622.9279785-.0796509 1.9035645-.3588867 2.8283691-1.1113281 3.6455078-4.7958984 6.2880859-8.555666 6.1132813-2.90625-.1191406-5.4145508-1.7314453-6.7099609-4.3134766-.6140461-1.2105465-.8759594-2.4733734-.9951172-3.7475586.5285111-2.0805941 4.0390358-1.7903357 5.1044922-3.769043zm-4.9956665 6.8261719c-.0095825-.0153809-.019165-.0317383-.0287476-.046875l.1606445-.0664063zm-.2255249 4.3779296c-.1264648-.5068359.3344727-1.1767578.8251953-1.4345703.6902332-.3488503 1.0071449.2542877 1.7680664.9306641.4322224.3926773.9595985.8778973.6816406 1.4023438-.0493164.0908203-.1137695.1494141-.1923828.171875-.4509449.1301231-.3036747.8236313.1938477.7246094.5297947-.1332893 1.2122383.2628574 1.215332.8876953.0224609.3867188-.1914063.7861328-.5200195.9716797-.36726.2078381-.1506977.7628212.2070313.7001953.7625217-.0375996 1.4243164.7782593.9680176 1.536377-.8935547.0786133-1.7832642.3361816-2.4631958.8942871-.3155518-.1401367-.5901489-.4160156-.6469116-.7353516-.0766602-.4726563.2675781-.9990234.7514648-1.1513672.453392-.1402493.2613373-.8066616-.1450195-.7304688-.8339195.0552788-1.6761894-.8192921-1.1474609-1.7744141.255909-.4621658.582756-.5252647.7729492-.6103516.4199657-.1876678.1946049-.8242512-.25-.7050781-.0795898.0214844-.1582031.0488281-.234375.0820313-.7127133.1848965-1.6483174-.317812-1.7841798-1.1601563zm8.4562988 8.1206055c-.6299438 0-1.1499634-.5200195-1.1499634-1.1499023 0-.6401367.5200195-1.1501465 1.1499634-1.1501465.6400146 0 1.1500244.5100098 1.1500244 1.1501465 0 .6298828-.5100097 1.1499023-1.1500244 1.1499023z"/><path d="m25.8640194 18.7087059c.0683594-.4277344.4921875-.796875.925293-.8056641.4257813.0009766.8710938.3408203.9575195.765625.0997162.4903698.8333893.3347511.7353516-.1484375-.159668-.7822266-.8950195-1.4013672-1.7084961-1.3671875-.7988281.0166016-1.5239258.6474609-1.6499023 1.4365234-.0783463.4911328.6625671.6084462.7402343.1191407z"/><path d="m32.2590408 18.7087059c.0683594-.4277344.4921875-.796875.925293-.8056641.4443359-.0400391.8710938.3427734.9580078.7666016.0415039.203125.2407227.3359375.4423828.2919922.765667-.1549797-.109745-1.8686523-1.4160156-1.8085938-.7988281.0166016-1.5239277.6474609-1.6499043 1.4365234-.0783462.4911328.6625691.6084462.7402363.1191407z"/><path d="m24.2082577 53.4792137-2.3861694 12.3098106c-.7221375.0761795-1.585022.1981659-2.147522.619873-.9391022.703125-.917141 1.9844818.1679688 2.6113281.7946281.4563828 2.5826206.519722 3.4990234.4853516.5488281-.0205078 1.2319336-.1113281 1.6445313-.6357422.7670097-.9740067.101244-3.072731-2.3931885-3.1159668l2.3516846-12.1320763c.0955047-.4904936-.6429673-.624359-.7363282-.142578zm.2304687 14.0165978c.1459961.3271484.1289063.6933594-.0419922.9101563-.2226563.2822266-.6958008.3359375-1.0830078.3496094-.7362251.0270157-2.458025-.0184402-3.0966797-.3847656-.5966225-.3447647-.6200962-.9671783-.0932617-1.3623047.2871094-.2148438.6625977-.3027344.9921875-.3603516 1.3515625-.2343751 2.8027344-.319336 3.3227539.8476562z"/><path d="m32.0983963 23.0016747c-.0551758-.2001953-.2592793-.3232422-.4609394-.2626953-.8217773.2207031-1.7753906-.15625-2.2148438-.8867188-.25387-.423893-.8992634-.039917-.6425781.3867188.8680344 1.4415264 3.5696163 1.6779804 3.3183613.7626953z"/><path d="m55.7458572 58.2585106c.4858398 0 1.8297462-1.5906601 1.6040039-3.4238281-.1542969-1.25-.9951172-2.3925781-2.1425781-2.9111328-.4523735-.2044487-.7606735.4803352-.3085938.6835938 1.6999321.7682381 2.3352966 3.0050049 1.0317383 4.5742188-.2477913-.5076218-.6461296-.863472-1.0175781-1.1962891-.2543945-.2265625-.4951172-.4414063-.6782227-.6914063-.4619141-.6308594-.5332031-1.5214844-.1777344-2.2158203.2247734-.4402313-.4401932-.7855492-.6679688-.3417969-.480957.9414063-.3842773 2.1474609.2407227 3.0009766.3275909.4469681.7528725.7600555 1.121582 1.1171875.3916016.3808594.5947266.7275391.6206055 1.0585938.0160638.1983832.1814996.345703.3740235.345703z"/><path d="m51.1796341 48.7770653c.3017845.6456795 1.1426735.0952797.8791504-.4711914-.005249-.0112305-1.1426735-.0952797-.8791504.4711914z"/><path d="m55.5402908 58.679409c-.4715919-.1532669-.7059135.5560379-.2353516.7128906 1.5429268.5084 3.3943176-.0537682 4.3896484-1.3691406.2969131-.3958855-.2970467-.8497009-.5986328-.453125-.7998046 1.0585938-2.2978515 1.5263672-3.555664 1.109375z"/><path d="m58.5993729 18.8034325c-.1474609-.1435547-.3847656-.1435547-.5302734.0039063-1.3131714 1.3327637-2.3967896 2.890625-3.2370605 4.6225586-1.4772301.0299358-3.3527145 1.6515255-3.4727783 2.869873-.0601807.0007324-.1206665.0107422-.1773682.0427246-6.5294151 3.5984974-12.7237282 3.1206322-12.6235352 3.109375-.4915848 0-.498539.7407417-.0078125.75 4.3879738.0977821 8.8987808-.9646931 12.9246216-3.1679688.2495918.6332245.8703232 1.4316616 1.6702881 1.7331543-.3921509 2.4443359-.3057861 4.9570313.2786255 7.3088379-2.9314537 1.9837646-3.6286354 6.103878-1.253418 8.9472656-.7246094.4362793-1.1741943 1.3588867-1.5756836 2.1904297-2.9914665 6.2010155.7668953 13.2321358 6.5770264 14.6257324-2.3626442 2.2460594-2.029007 5.6266594-.7801514 6.4592247 1.7419128 1.2148743 4.3789253-1.2951126 4.0507813-4.4086876 1.043644.8501854 2.5093994 1.3864403 3.5967407.6030235.0056458-.0033722.2553177-.1979065.2792358-.2255859.0028076-.0031738.0041504-.0075684.006897-.0107422.0305176-.0297852.0700684-.0500488.0980835-.0820313.4033203-.4628868.5229492-1.1777306.3120117-1.8662071-.5137634-1.6820374-2.6057472-2.473568-4.1854858-2.1853027.7602196-2.1317329.6630516-5.8713531-.8555298-9.0910645-1.1630859-2.4638672-3.1079102-4.5634766-5.4760742-5.9111328-.4443359-.2526855-.8676758-.3659668-1.2640381-.3447266-2.1338844-2.2426338-1.9489479-5.926445.6776123-7.9199219.3086433 1.0348663.7349091 2.1311913 1.4790039 2.9003906.7700195.7695313 1.8413086 1.0976563 2.7299805.8447266 1.1899414-.3476563 1.9458008-1.7236328 1.6499023-3.0078125-.4603729-1.9322433-2.8481216-3.1391373-5.3886719-1.9023438-.5150146-2.1914063-.5814819-4.5214844-.2189941-6.7919922.7393799-.0178223 1.4979248-.4294434 1.9616699-1.1103516.7608299-1.1138973.9454613-3.5474377-.2564087-4.1904297.7938232-1.5935059 1.8000488-3.03125 3.0147095-4.2636719.1455077-.1484372.1435546-.3857419-.0039063-.5312497zm-1.6796875 48.7871055c-.2890625-.1982422-.4838867-.5830078-.578125-1.1425781-.3471756-2.0719223 1.0459709-4.2462997 2.3814697-4.5353966.0925407.1798859.7939262.878006.8885498 2.3410606.0714951 1.1452179-.3510742 2.3282852-1.0918579 3.0656738-.147522.1298829-1.2326164.5238114-1.6000366.2712403zm5.6616211-3.5956993c-1.3257866-.2378006-2.2604485-1.378315-3.0217896-2.4580078.1619263-.1157227.3105469-.2529297.4434204-.4150391 4.049202-1.0543785 5.2233124 3.3323098 2.5783692 2.8730469zm-2.5439454-5.1064453c-.3517532 2.0300484-1.2829285 2.6354866-3.1865234 2.0019531-3.6376762-1.2091866-6.6360245-4.7395706-6.5032349-9.2382813 1.747879.4964104 3.3971863.1788406 4.6741333-.6035156.4249115-.2582359.0283203-.9008331-.3916016-.6386719-1.2506714.765625-2.8477173.9377441-4.2454224.4880371.1201172-1.1293945.4326782-2.237793.9246216-3.2565918.3227539-.6699219.682251-1.404541 1.1478882-1.7744141.3317261.6870117.4690552 1.4587402.3648071 2.21875-.0673866.487957.6750107.5979042.7431641.1015625.1193237-.8710938-.0270386-1.7561035-.388855-2.5512695 1.1536179.0904541 4.7223587 2.7302628 6.2306519 6.6455078.7864991 2.0944825 1.0119629 4.4047853.6303711 6.6069337zm-1.2763671-21.1240234c.2055664.8916016-.3227539 1.8808594-1.1289063 2.1162109-.628418.1835938-1.4111328-.0751953-1.9863281-.6503906-.6744537-.6962814-1.0966225-1.8578949-1.3540039-2.7949219 2.1342582-1.125 4.1089096-.1818352 4.4692383 1.3291016zm-3.5356446-10.397461c-.3916016.5742188-1.0932617.8886719-1.6621094.7587891-.4355469-.1015625-.7646484-.4248047-.9643555-.6787109-.6289063-.7978516-.6538086-1.1396484-.1347656-1.8242188.7331619-.9682732 1.8221359-1.4521484 2.4121094-1.4521484.6155319 0 .7758293.5221004.8105469 1.1367188.0322266.5839843-.0214844 1.415039-.4614258 2.0595702z"/><path d="m21.3454647 29.061245c-3.7463379 3.9047852-6.4383545 8.7119141-7.8213501 13.9182129-2.1551313-.4437599-4.4211082 3.8257675-2.8256226 5.2243652.6802378.5953598 1.9573183.5777206 2.9648438-.8759766.7366953-1.0636864 1.5572443-3.1336555.5474854-4.0224609 1.3389893-5.1357422 3.9852905-9.8776855 7.6756592-13.7246094.3442859-.3583374-.1987725-.8781834-.5410157-.5195312zm-9.1938476 18.6611328c-.7510433.3254166-1.4175816-.1240692-1.2041016-1.3037109.1794786-.9913406 1.210495-2.7304688 2.2324219-2.7304688.2821922 0 .5802889.1151047.690918.4082031.3044013.8088532-.6412087 3.1591683-1.7192383 3.6259766z"/><path d="m36.8928299 11.3219872c.0742188.0966797.1860352.1484375.2998047.1484375.0786133 0 .1582031-.0244141.2255859-.0761719.1655273-.125.1977539-.3603516.0732422-.5253906-1.5610352-2.0634766-3.9213867-3.4882813-6.4760761-3.9101563-.5007992-.068737-.6030674.6598768-.1220703.7402344 2.3671894.390625 4.5537128 1.7109375 5.9995136 3.6230469z"/><path d="m44.6784744 41.616909c.605957.1162109 1.1430664.6123047 1.3056641 1.2070313.1343803.4852028.8534851.2757759.7236328-.1972656-.5324249-1.9449806-3.1416512-2.3485107-3.5371094-.9335938-.1015625.3652344.0048828.7792969.2851563 1.1074219.1875687.2204247.7145615.6083984.9511719.6083984.3940315 0 .5192451-.5295029.1723633-.7080078-.3254852-.1673927-.7840691-.4542961-.6860352-.8066406.0664062-.2392578.465332-.3378906.7851562-.2773438z"/><path d="m47.6394119 41.8307762c.3810425.3122444.8607788-.2615242.4785156-.578125-1.2836914-1.0625-2.1601563-2.6171875-2.4042969-4.2646484-.0746613-.4977226-.8143463-.3771095-.7421875.109375.2714845 1.8291015 1.2436524 3.5537109 2.6679688 4.7333984z"/><path d="m49.3640213 40.0446434c.1547852-.1386719.1679688-.375.0302734-.5302734-.3969727-.4443359-.5195313-1.1425781-.2978516-1.6953125.185482-.4625359-.5138474-.7371521-.6962891-.2792969-.4978217 1.244545.416176 2.9925499.9638673 2.5048828z"/></g></svg>