<svg id="Layer_1" enable-background="new 0 0 75 75" viewBox="0 0 75 75" xmlns="http://www.w3.org/2000/svg"><g id="Catching" fill="rgb(0,0,0)"><path d="m64.6325684 17.8917542c-1.9686165-3.6000071-7.7500229-3.4686155-8.9597168-.3608398-1.4931374-.5921459-3.0610809-1.1408443-4.7312012-1.0151367-2.9433594.1855469-5.6782227 2.0566406-6.6503906 4.5498047-.046875.1201172-.0292969.2558594.0473633.359375.1500626.2033081.3576317.1431789.4655151.1340332-.9296112 1.2227802-1.4114342 2.5845661-1.4845581 3.9187012-.2779694 4.4039879 4.3293076 8.3538742 8.6870117 8.1982422 2.8083496-.0986328 5.4785767-1.9331055 6.5923462-4.425293.178936.1396046.279171.237793.4408569.237793.1152344 0 .2285156-.0527344.3017578-.1513672 1.1557007-1.5576172 1.4350586-3.7478027 1.3141479-5.3710938 2.6826286.214941 4.7331848-1.805439 4.4710083-4.4521484-.0477676-.4916477-.7953491-.4207191-.7460938.0742188.2301254 2.3360176-1.6706619 3.8914356-3.8223267 3.6259766-.3991089-2.5214844-1.7861938-4.3234863-4.1956787-5.387207.9343605-2.4572334 5.9053345-2.6929235 7.6117554.4243164.2375032.4342897.8964006.0771291.6582033-.3593752zm-12.6523438 15.0341796c-3.8581047.1435509-8.1639633-3.4157181-7.9121094-7.4042969.0829811-1.5076694.7955666-3.055748 1.8568115-4.1166992 1.0880127-.2104492 2.1417847-.5859375 3.1124268-1.121582-.248558 1.3332825-1.0700951 1.4119682-.9150391 1.890625.0444336.1376953.1650391.2373047.309082.2558594 1.4920845.1868744 2.9744415-.1437168 4.1933594-.8486328-.1181641.8183594-.4711914 1.6044922-1.0131836 2.2285156-.1040039.1201172-.121582.2929688-.0429688.4306641.078125.1386719.237793.2138672.3911133.1845703 3.6930962-.6489239 3.8602142-.7103195 4.0976563-.6572266.2685547.0605469.5019531.328125.7338867.8408203.5768242 1.2763252.401638 2.8496151 1.2493896 4.057373-.9140014 2.3847657-3.4227904 4.1674805-6.0604247 4.2600098zm7.9140625-9.1210937c.1416016 1.3974609-.0424805 3.3349609-.9438477 4.7753906-.6220703-.5585938-.7792969-1.4072266-.9584961-2.3710938-.2536316-1.3652325-.694397-3.2070313-2.0854492-3.2070313-.2806854 0-.3201981.0234375-3.1782227.5263672.4672852-.8085938.7128906-1.7470703.6884766-2.6796875-.0084572-.3023338-.3552322-.4728603-.5991211-.2910156-.8491211.6337891-1.8666992 1.0283203-2.9438477 1.1416016-.2109375.0224609-.4199219.0224609-.6328125.0322266.4199219-.6308594.6337891-1.3955078.5869141-2.1572266-.0178909-.2862606-.3370819-.4450016-.578125-.2919922-1.2050781.7783203-2.5742188 1.2841797-3.9931641 1.4794922 1.1135864-2.0745869 3.5667267-3.4523277 5.9804688-3.5087891 1.6118164-.046875 3.0356445.5234375 4.6259766 1.1601563 2.4111328.9658203 3.7675781 2.7792969 4.03125 5.3916016z"/><path d="m52.470459 27.7569885c-.6220131.1087017-1.3540344.1013412-2.0449219-.0585938-2.3554344-.5489635-2.6603584-2.1338654-3.3305664-1.8769531-.5578499.2022972-.2512436 1.2255497-.0424805 1.78125 1.1827545 3.1458817 5.0749474 3.0764999 5.9624023.6035156.117859-.3296718-.2411727-.6270484-.5444335-.4492187zm-4.8115235-.6904297c1.1019211 1.0298328 2.7226334 1.6111107 4.2714844 1.4990234-1.2035255 1.2938481-3.5122642.8603936-4.2714844-1.4990234z"/><path d="m54.685791 18.9073792c-.4301605-.243185-.7989502.4161549-.3623047.65625.7226563.3984375 1.2910156 1.0722656 1.5605469 1.8496094.1617012.4674606.8715057.2239323.7089844-.2460938-.3295899-.9501953-1.0249024-1.7744141-1.9072266-2.2597656z"/><path d="m53.276123 24.8819885c-.4417114 0-.7998657.3183594-.7998657.7111816s.3581543.7109375.7998657.7109375c.4417725 0 .7998657-.3181152.7998657-.7109375s-.3580932-.7111816-.7998657-.7111816z"/><ellipse cx="48.69" cy="24.171" rx=".8" ry=".711"/><path d="m48.5432129 67.6290588c1.1088982.4769287 2.3315086.5343323 3.4291992.2207031 1.4563103-.416481 1.3992882-1.9374313-.0900269-2.5849609-1.7154541-2.9353027-1.687561-6.8271484.0910034-9.7275391.257782-.4222488-.3780174-.8168449-.6396484-.3925781-1.8095093 2.9526367-1.9240723 6.847168-.3816528 9.939209-.6306343-.009964-1.6217041.1419067-2.4606323.5031738-1.0811119.4665299-1.1542511 1.522873.0517578 2.0419922zm.2446289-1.352539h.0004883c.7034073-.3038864 2.121933-.6300354 2.8212891-.3173828.695961.315506 1.0063705.926857.1572266 1.1699219-.9511719.2695313-2.019043.2021484-2.9277344-.1894531-.5869179-.2528993-.5252801-.4594346-.0512696-.663086z"/><path d="m42.5080566 66.7159729c1.0067863-.5147171 1.2074471-1.6334686.038208-2.2788086-.9797974-3.2651367-.2289429-7.0258789 1.9447021-9.6254883.3175125-.378212-.2541885-.8623962-.5751953-.4804688-2.2268066 2.6621094-3.0480347 6.4575195-2.2039795 9.8439941-.9244118-.0956802-2.2344551.4315033-3.0557861.9938965-.8835297.6057968-.7486038 1.3733368-.1894531 1.7509766.6174088.4144822 2.4621773.6025925 4.0415039-.2041015zm-1.0229492-1.8173828c.7425728 0 1.6441345.6587524.6821289 1.1494141-1.5237465.7770767-3.3759995.4468689-3.3979492.0957031-.0214424-.3538132 1.8253517-1.2451172 2.7158203-1.2451172z"/><path d="m16.2935181 22.0711975c1.8708115.9382668 5.0526142 1.0810852 7.6400146-.130127l.0799561-.079834c1.210022-2.3100586 1.4100342-5.119873.5400391-7.5700684-1.5321102-4.3274975-5.6454144-4.5425501-6.7700195-2.2099609-.5288925 1.0341148-.2302532 2.2377396-.1400146 3.1401367-.6565151 0-1.9760523-.5340052-3.1699829.0097656-.5800171.25-1.0599976.7202148-1.3300171 1.3000488-.5 1.0800781-.2699585 2.4099121.3900146 3.420166.9670438 1.435095 1.9622497 1.5847074 2.7600097 2.1198732zm3.7099609-8.8400879c1.5599976.9702148 2.6500244 2.630127 2.9400024 4.4401855.0300293.1999512-.1099854.3898926-.3099976.4299316h-.0599976c-.1799927 0-.3399658-.1298828-.3699951-.3200684-.25-1.5900879-1.2199707-3.0598145-2.5999756-3.9099121-.4157008-.2692727-.0307139-.9030121.3999635-.6401366z"/><path d="m31.7556152 14.6212463 1.230957 3.2636719c.2818642.7438641 1.2907143.8365993 1.7060547.1669922l1.8413086-2.9619141c.0356445-.0576172.0976563-.09375.1655273-.0966797l3.4838867-.1621094c.7913666-.0379858 1.196579-.9667845.6860352-1.5722656l-2.2475586-2.6660156c-.1323013-.1558237-.0336227-.0907841.8813477-3.5498052.2087288-.7632256-.5487099-1.4382114-1.2817383-1.1386719-3.3251381 1.3157797-3.253334 1.4072838-3.421875 1.2949219l-2.9135742-1.9169922h-.0004883c-.6647243-.4339767-1.5348721.0807562-1.4780273.8681641l.2509766 3.4775395c.0148182.2074575-.0286655.0957174-2.7998047 2.3554688-.6164894.4931917-.4027824 1.4825954.3681641 1.6748047 3.4667415.8895025 3.4585323.7725592 3.5288085.9628906zm-3.4282226-2.0517578 2.7236328-2.1796875c.2451172-.1962891.3779297-.5009766.3554688-.8154297l-.2509766-3.4785161c-.0118484-.1631055.1683731-.283124.3188477-.1865234l2.9130859 1.9169922c.2636719.1738286.5957031.204102.8852539.0869141l3.2314453-1.3134766c.1521111-.0650887.3219261.0757236.2753906.2441406l-.921875 3.3632817c-.0839844.3037109-.012207.6289063.190918.8701172l2.2475586 2.6660156c.1105347.1300421.022522.3306971-.1479492.3378906l-3.4833984.1621094c-.3139648.0146484-.6010742.1826172-.7675781.4501953-1.8835678 2.8903484-1.7680664 3.0777416-2.0361328 3.0585938-.0385742-.0039063-.1318359-.0244141-.1723633-.1328125l-1.230957-3.2626953c-.1108398-.2939453-.3598633-.5146484-.6655273-.5908203l-3.3852539-.8359375c-.1672556-.0405474-.2123548-.254139-.07959-.3603516z"/><path d="m29.833252 22.8722229c.6879177.9455204 1.7085171 1.6040459 2.1838989 1.7783203 1.4074097 4.7370605 4.2598267 9.0644531 8.0744019 12.2050781.3794746.3131332.8608665-.264122.4765625-.578125-3.6965942-3.045166-6.4621582-7.237793-7.8283081-11.8291016.2509575-.3574772.3058777-1.2326412.3097534-1.6689453.0068359-.6845703-.1538086-1.296875-.4643555-1.7705078-.6707649-1.0200348-1.773098-.9918709-1.6728516-.9628906-.7416992 0-1.4277344.5351563-1.5629883 1.2197266-.0976563.4960938.0605469 1.0214844.4833984 1.6054688.0000001-.0000001.0000001.0009765.0004884.0009765zm.2524414-1.4619141c.0664063-.3388672.4370117-.6142578.8266602-.6142578 1.3556023.103653 1.5951462 1.814497 1.2539063 3.1074219-.1466179-.1021976-1.0028038-.4773769-1.7265625-1.4726563-.2895509-.4003906-.4086915-.743164-.354004-1.0205078z"/><path d="m26.3000488 68.217926c.0732422.0751953.1704102.1132813.2680664.1132813.0947266 0 .1889648-.0351563.262207-.1064453 2.4506474-2.395134.6016426-7.2951851-3.4584961-6.4433594-.7578125.1582031-1.4311523.5068359-1.9472656.9970703-.2895508-1.5371094-1.4472656-2.921875-2.949707-3.3828125-1.5356445-.4707031-3.3110352.0556641-4.4077148 1.2167969-.8809814-3.5600815-4.8796244-5.0436592-7.8149409-3.2421875-.4238939.2606773-.0279417.899765.3925781.6386719 2.872869-1.7602043 6.6212888.1931572 6.8124995 3.5644531.0217514.3697701.5154829.4914589.7001953.1640625.7836914-1.3759766 2.5820313-2.0898438 4.0976563-1.625 1.5136719.4648438 2.6030273 2.0664063 2.4799805 3.6445313-.0310478.3992004.5066833.5639877.7016602.2119141.8543949-1.5385284 3.1862602-2.0228844 4.5854492-.9560547 1.3989849 1.0702972 1.5400715 3.4491653.2836914 4.6748047-.1479493.1445311-.150879.3828124-.0058595.5302733z"/><path d="m68.3654785 60.311676c.4252396.2495956.8058548-.4010544.3730469-.6503906-1.3735352-.7890625-3.2353516-.6044922-4.4282227.4394531-.9624023.8427734-1.4277344 2.1923828-1.2558594 3.453125-2.4384537-.9398193-4.8796692.7414398-5.0566406 3.203125-2.3364258-.7509766-5.1484375.359375-6.2602539 2.5742188-.2240448.4433975.4497147.7796402.6699219.3359375 1.0073242-2.0048828 3.7768555-2.9707031 5.8125-2.0185547.2669449.1240158.5608406-.0921707.5317383-.3769531-.1118164-1.1181641.4902344-2.2900391 1.4643555-2.8496094.9755859-.5585938 2.2895508-.4882813 3.1992188.171875.3061333.2224426.7095413-.099762.5673828-.4453125-.4824219-1.1796875-.1367188-2.6445313.8217773-3.4833984.9580078-.8388672 2.4560546-.9882813 3.5610351-.3535157z"/><path d="m26.770752 35.4952698c.1713772-.4671783-.5320148-.722538-.7041016-.2597656-.1830444.496418-.4962597 1.1344795-1.019043 1.0546875-.8531208-.1279678-.8219185-2.2952194.8237305-2.9726563.4619122-.1904068.1682835-.8845253-.2851563-.6933594-1.0297852.4238281-1.7705078 1.4541016-1.84375 2.5644531-.1259803 1.9011651 2.0809784 2.8725052 3.0283204.3066407z"/><path d="m18.8259277 35.4796448c2.2382813-.6191406 4.2392578-2.0966797 5.4892578-4.0537109.2671356-.4176178-.3645306-.8235073-.6318359-.4042969-1.1518555 1.8037109-2.9951172 3.1650391-5.0576172 3.7353516-.4802723.1315154-.2734241.8599357.2001953.7226562z"/><path d="m21.286377 29.6964417c-.53125.6064453-1.4135742.8759766-2.1928711.6699219-.4797974-.1255779-.6713314.5981903-.1914063.7246094 1.0222969.2720451 2.2197189-.0690842 2.9477539-.9003906.3279915-.3725053-.2390823-.869877-.5634765-.4941407z"/><path d="m61.2648926 17.427887c-.4541054-.1989651-.7558746.488102-.3007813.6875 1.0043945.4384766 1.6918945 1.5097656 1.6723633 2.6054688-.003418.2070313.1611328.3779297.3681641.3818359h.0068359c.2041016 0 .3710938-.1630859.375-.3681641.0244141-1.3896484-.8481445-2.75-2.121582-3.3066406z"/><path d="m41.0119019 37.811676c-.4834595 2.2067871-.873291 4.4289551-1.1461792 6.6669922-.7390747 6.5418854-1.34729 8.1393509 1.7387695 8.7329102 2.1287231.4133301 4.3119507.5927734 6.4796143.5849609.8029556 0 1.5686569-.0801086 2.2612305-.1328125 3.0578651-.2020378 3.5743217-.1486778 3.8753052-.7329102.1637573-.3039551.0780029-.5925293.031189-.9042969-2.1181755-12.00177 2.8935509-15.7122269-1.80896-16.5852051-7.4369431-1.3522491-7.2219467-1.3317146-7.8513794-1.3581543 1.7275391 1.3850098 3.6580811 2.4663086 5.7485962 3.2041016.4688187.1640854.2172279.8735504-.2490234.7070313-2.2387695-.7890625-4.3046875-1.9521484-6.140625-3.4550781-.0790405-.0646973-.1106567-.1547852-.119812-.2485352.0181885.019043.0336914.0400391.0519409.059082.3436203.3595505.8846931-.1596718.5419922-.5175781-1.6569824-1.7329102-2.9901123-3.701416-3.9890747-5.8430176.1906013-.4199486.2371712-1.0786171.2420044-1.5339355.0068359-.6865234-.1542969-1.2988281-.4648438-1.7705078-.6688232-1.0196419-1.7728882-.991787-1.6728516-.9628906-.7416992 0-1.4272461.5341797-1.5620117 1.21875-.0986328.4970703.0595703 1.0224609.4829102 1.6064453h.0004883c.7835884 1.0792046 1.9433365 1.7403622 2.3215942 1.8110352.9931641 2.1162109 2.3081665 4.0627441 3.9240112 5.7915039-1.735344.3000411-2.3238679 1.9476051-2.6948853 3.6621093zm-3.2987671-12.7265625c.1181335-.5984344.9297523-.6493187.8295898-.6132813.3852539.0009766.7949219.2470703 1.043457.625.4258003.646986.3970795 1.6382637.2279663 2.3745117-.0491791.0162125-.0075607-.0170574-.1048584.0581055-.0059204-.003418-.0130615-.0073242-.0186157-.0107422l-.1108398-.0644531c-.7313347-.4148044-2.0223389-1.577053-1.8666992-2.3691406zm6.9101562 18.6074219c.1002731-.4965935.8322067-.3312302.7353516.1484375l-.9277344 4.5878906c-.0994759.4893227-.8330383.3353539-.7353516-.1484375z"/></g></svg>