<svg id="Layer_1" height="512" viewBox="0 0 512 512" width="512" xmlns="http://www.w3.org/2000/svg"><g><path d="m256 92.1c-90.4 0-163.9 73.5-163.9 163.9s73.5 163.9 163.9 163.9 163.9-73.5 163.9-163.9-73.5-163.9-163.9-163.9zm0 311.4c-81.3 0-147.5-66.2-147.5-147.5s66.2-147.5 147.5-147.5 147.5 66.2 147.5 147.5-66.2 147.5-147.5 147.5z"/><path d="m141.3 256h16.4c0-54.2 44.1-98.3 98.3-98.3v-16.4c-63.3 0-114.7 51.4-114.7 114.7z"/><path d="m247.8 2h16.4v65.5h-16.4z"/><path d="m247.8 444.5h16.4v65.5h-16.4z"/><path d="m66.8 91.4h65.5v16.4h-65.5z" transform="matrix(.707 .707 -.707 .707 99.583 -41.243)"/><path d="m379.7 404.2h65.5v16.4h-65.5z" transform="matrix(-.707 -.707 .707 -.707 412.402 995.696)"/><path d="m2 247.8h65.5v16.4h-65.5z"/><path d="m444.5 247.8h65.5v16.4h-65.5z"/><path d="m404.2 66.8h16.4v65.5h-16.4z" transform="matrix(-.707 -.707 .707 -.707 633.654 461.609)"/><path d="m91.4 379.7h16.4v65.5h-16.4z" transform="matrix(-.707 -.707 .707 -.707 -121.644 774.479)"/></g></svg>