<svg id="Layer_1" height="512" viewBox="0 0 512 512" width="512" xmlns="http://www.w3.org/2000/svg"><g><g><path d="m436.3 452.6h-262.2c-40.7 0-73.7-33.1-73.7-73.7 0-31.6 19.9-59.3 49.3-69.5-.1-1.5-.1-2.9-.1-4.2 0-49.7 40.4-90.1 90.1-90.1 7.1 0 14.2.8 21.1 2.5 23.5-27.7 57.3-43.5 93.6-43.5 67.8 0 122.9 55.1 122.9 122.9 0 6.5-.5 13.1-1.6 19.6 21.3 13.5 34.4 36.8 34.4 62.3-.1 40.7-33.2 73.7-73.8 73.7zm-196.7-221.2c-40.7 0-73.7 33.1-73.7 73.7 0 2.8.2 5.7.6 9.1l.9 7.2-7.1 1.7c-25.7 6.3-43.6 29.2-43.6 55.6 0 31.6 25.7 57.4 57.4 57.4h262.2c31.6 0 57.4-25.7 57.4-57.4 0-21.4-11.8-40.9-30.9-50.8l-5.5-2.9 1.3-6.1c1.6-7.3 2.3-14.8 2.3-22.1 0-58.7-47.8-106.5-106.5-106.5-33.1 0-63.8 15.1-84.2 41.4l-3.5 4.5-5.4-1.7c-7-2-14.3-3.1-21.7-3.1z"/></g><g><path d="m112.5 292.8c-46.5 0-88.5-25.9-109.6-67.6-1.6-3.2-1-7 1.6-9.5 2.5-2.5 6.4-3.1 9.6-1.4 15.4 8.1 32 12.2 49.3 12.2 58.4 0 105.8-47.5 105.8-105.8 0-17.4-4.1-33.9-12.2-49.3-1.7-3.2-1.1-7 1.4-9.6 2.5-2.5 6.4-3.2 9.5-1.6 41.6 21.1 67.5 63.1 67.5 109.6 0 22-6 43.7-17.4 62.8-1 1.6-2.4 2.8-4.2 3.5-18.4 6.9-33.6 21.1-41.6 39.1-.8 1.7-2.1 3.1-3.7 4-17.5 9-36.4 13.6-56 13.6zm-81.3-54.2c20 23.8 49.4 37.8 81.3 37.8 16.1 0 31.5-3.6 46.1-10.6 9.6-19.7 26.4-35.5 46.7-43.9 9-15.9 13.7-33.9 13.7-52 0-31.9-14-61.4-37.8-81.3 2.9 10.5 4.3 21.3 4.3 32.1 0 67.4-54.8 122.2-122.2 122.2-10.8 0-21.6-1.5-32.1-4.3z"/></g><g><path d="m436.3 305.2h-16.4c0-40.7-33.1-73.7-73.7-73.7v-16.5c49.6 0 90.1 40.5 90.1 90.2z"/></g></g></svg>