<svg id="Layer_1" enable-background="new 0 0 75 75" viewBox="0 0 75 75" xmlns="http://www.w3.org/2000/svg"><g id="Catching_Bee" fill="rgb(0,0,0)"><path d="m37.4602737 49.2765121c.0376892-.4981804-.7112122-.5456772-.7480469-.0576172-.3017006 3.9567184.1135864 6.7568359 4.1533203 6.7568359.7357292 0 2.9394417-.1407585 9.730957-.4619141 1.2041092-.0667763 2.5039482-.2209053 3.2470703-1.2036133.7851563-1.0693359.4560547-2.4472656.0864258-3.6542969-2.1593704-6.9690857-2.887188-9.3133621-3.046875-10.074707-.2174034-1.0326576-.8920135-2.9696541-1.8554688-3.4023438-.5341072-.2674026-1.1179733-.1500244-1.3916016-.1362305-.5523605.0642586-1.1706543.1647034-2.0844727.3144531-3.9212532.6014175-3.8734093-.3649368-5.2407227-.2666016-1.418457.1083984-1.8642578 1.8510742-2.0107422 2.4243164-.7104492 2.8007813-1.2045898 5.6230469-1.4682617 8.3881836-.0468559.494339.7002945.5636139.7470703.0712891.2597656-2.7275391.7470703-5.5117188 1.4477539-8.2744141.5251884-2.0540581 1.2320366-2.0247192 2.3056641-1.6879883 1.9780235.6227913 3.4030037.1914635 6.6494141-.2524414.7290993-.049118 1.021904.1720924 1.4082031.8901367.7473488 1.4322433.5826187 1.7795944 1.3569336 4.2114258.9243469 3.0070763.7902184 2.5773773 1.6220703 5.2661133l.84375 2.7480469c.9006691 2.9410744.0787354 3.7355728-2.6547852 3.8896484-9.7337799.4589958-10.773262.738533-11.9355469-.0800781-1.2680664-.8979492-1.3154297-2.8535156-1.2407227-4.2475586.0195316-.3837888.0488285-.7768552.0786136-1.1606443z"/><path d="m47.0813065 28.7525864c.5424805.0722656 1.0563965-.4255371 1.1478271-1.1118164s-.274231-1.3012695-.8167725-1.3735352c-.5424805-.0722656-1.0563965.4255371-1.1478271 1.1118164s.274231 1.3012695.8167725 1.3735352z"/><path d="m40.8455276 27.7834702c.5424805.0722656 1.0563965-.425415 1.1478271-1.1116943.0914307-.6864014-.274231-1.3012695-.8167114-1.3735352-.5425415-.0722656-1.0564575.425415-1.1478882 1.1116943-.0914306.6864014.2742921 1.3012695.8167725 1.3735352z"/><path d="m47.7717972 29.3272934c-.0527344.0576172-.097168.1230469-.1396484.1889648-.2295609.3583355-1.7614021 1.1664619-3.324707 1.1157227-.1010094-.0213223-1.7745552.0258751-3.2709961-1.2832031-.2430496-.2124043-.6252785-.0379944-.6220703.2861328.0141602 1.4072266.8149414 2.7636719 2.0395508 3.4555664 2.3249664 1.3134537 5.507122.0450554 5.9589844-3.0175781.0449219-.262207.1015625-.5883789-.1245117-.777832-.1538088-.1289063-.3813478-.1147462-.5166017.0322265zm-6.4838867 1.140625c1.8453217 1.1617565 4.2448044 1.2629986 6.2636719.0478516-.9613152 3.1547393-5.3713647 3.0817451-6.2636719-.0478516z"/><path d="m67.4212112 39.4059067s0 0-.0004883 0c-.5205078.1936035-.9747314.5371094-1.3467407.9768066-.1073608-.0778809-.250061-.1014404-.3768921-.0402832-4.050293 1.8979492-9.0688477 1.5205078-12.7875977-.9614258-.4115334-.2743568-.8295593.3475456-.4160156.6240234 3.6276703 2.4213104 8.61866 3.0684242 13.0397949 1.2089844-.2552032.5489235-.3646545 1.084156.2072754 1.3496094.4674606.2161827 1.174614.2749023 1.6708984.2749023.480957 0 1.1391602-.0942383 1.6899414-.5107422 1.6265794-1.2268752.5178148-3.7385291-1.6801757-2.9218749zm-.0737304 2.6816406c-.5922852-.0131836-1.0268555-.0820313-1.2768555-.1665039-.0083008-.0673828.0805664-.2631836.1508789-.418457.284668-.6386719.8305664-1.159668 1.4609375-1.3935547 1.8864365-.6950035 2.0681458 2.0525055-.3349609 1.9785156z"/><path d="m32.6687698 29.7535629c1.4037361-1.2066135 1.6098251-3.099102 1.0083008-4.0332031-1.1733131-1.8255177-4.2815895-.4082298-3.3007813 2.6342773.1756916.5438747.4803448 1.3542461.9196777 1.7143555-.550293 4.5709229 1.3399048 9.3662109 4.888916 12.3056641.380722.3168221.8613396-.261055.4785156-.5771484-3.3518066-2.7763672-5.1392822-7.3027344-4.625061-11.6203613.2564698-.1030274.4854127-.2973634.6304322-.4235841zm-1.5786132-1.6293945c-.4814529-1.4891033.2950249-2.4624023 1.0947266-2.4624023 1.5456505 0 1.3563004 2.7017879-.3173218 3.7712402-.104229-.0499992-.1067734-.0393524-.18396-.0325928-.2036133-.2641601-.4032593-.6871338-.5934448-1.2762451z"/><path d="m49.3338699 15.8075171c-1.3996239-1.1338425-3.7298698-.9578905-5.4500122.9899912-1.5599976-1.2099619-3.7999878-1.4599619-5.5900269-.6201172-2.095295.9713058-2.7708054 2.9959106-2.0499878 4.420166-.8499756-.0700684-1.6400146.5898438-1.9199829 1.3999023-.4966354 1.4188919.3668022 3.5581322 1.6528931 4.2314453-.6190796.1503906-1.159668.5888672-1.3890381 1.1882324-.5297813 1.3826656.6153069 2.9260044 2.2290649 2.5993652 3.1882782 10.0069313 15.159256 7.970623 16.7451782-1.1763916.0029297-.0003662.0057373-.0001221.008667-.0006104 2.525013-.4135227 2.6307983-3.6108418.5227661-3.8720703.9127426-1.8964329.8424072-4.2664013-.6995239-5.6799316-.8500366-.7700195-2.1100464-1.1000977-3.1900024-.7299805.3200074-.9699706-.080017-2.1000976-.8699951-2.7500008zm-11.4900512 4.79004 1.0500488-1.7700195c.2552185-.4178085.8973618-.0651016.6499634.3798828-.9869156 1.5475464-1.0645714 2.1883354-1.5700073 1.9001465-.169983-.1000977-.2299805-.3300782-.1300049-.5100098zm-2.5559082 7.0881347c.1575317-.411499.5678101-.7192383 1.0053101-.767334.0227051.8022461.1307373 1.6019287.3231812 2.3830566-1.0019609.1511136-1.6389467-.8059196-1.3284913-1.6157226zm7.8427734 8.0664063c-2.9729843-.6871643-6.154026-4.4692669-6.0884399-9.2932129.7393799-.0432129 1.4544067-.4559326 1.9616089-1.0114746.6799927-.7600098.9000244-1.75 1.4899902-2.5599365.6500244-.8900146 1.1799927-.4500732 2.0100098.0100098.9299927.5100098 1.8599854 1.0299072 2.789978 1.539917-.3599854-.8598633-.4599609-1.829834-.2799683-2.75 1.3843231 2.1655216 3.5781441 3.6131859 5.8900146 4.130127-.5300293-.8601074-.7800293-1.8701172-.7000122-2.880127 0 .3951187 1.8173256 1.6695976 2.1602783 1.8811035 2.3051301 4.833271-2.63311 12.4536437-9.2334594 10.9335937zm10.5297852-7.7094727c.0565796-.7780762-.0013428-1.5368652-.175293-2.255249 1.4771271-.5780067 2.010685 1.7364464.175293 2.255249z"/><path d="m6.0095901 18.5899887c-.5478516.3818359-.8105469.9042969-.7060547 1.3764648.0784531.491766.535296.8813477 1.012207.8813477.5955853 0 1.1019697-.5509224.7080078-.878418-.1586914-.1328125-.3959961-.1123047-.527832.0483398-.0551758.065918-.159668.0961914-.2285156.0756836-.9435506-.3310719.8939877-1.8999653 2.8374023-1.3071289.0631104.0185547.1257324.0146484.1860352.001709.3648205 1.1174049 1.6214314 1.6472206 2.5827026 1.1096191.0282593.0919189.0464478.1877441.0847778.2753906.328125.777832 1.0698242 1.3554688 1.8500977 1.4379883.8046932.0726452 1.3311758-.2767696 2.0628052-.3686523.8996906 2.0763779 2.3134575 2.3580914 9.0026245 5.6777344.4982719.2434731 1.2425575.8968353 1.6748047.5537109.2088509-.1645355.1921654-.372488.1411133-.7998047-.1572266-1.8125-.5644531-3.6000977-1.2104492-5.3144531-.8125172-2.1550331-2.0624599-4.2346706-4.1716919-5.1848145 1.2039185-.7429209 2.5084229-2.2805185 2.4606323-3.661622-.0410767-1.1882324-.3497314-2.548584-1.5227051-3.119873-.7243042-.3608398-1.6359863-.2341309-2.0942993.3776855-.0326538.0405273-.0603638.0760498-.0898438.1115723-.362484-3.0919275-4.316432-4.2075939-5.4922485.3369141-.7387142 2.8584433-.1844168 4.6865082-.3469238 5.8430185-.6474886.2099075-1.2389936.4525604-1.8347778 1.2116699-.5958366-.8586578-1.7749653-1.1197414-2.5932007-.4152832-.8817139-.9626474-2.1923218-1.4934092-3.4296875-1.3845224-1.4270496.1502161-1.5447297 1.4115915-.7568359 1.8989267.3676758.2099609.862793.1293945 1.1240234-.1860352.3181195-.3812771-.2609735-.8624001-.5761719-.4794922-.1741543.2002773-.6593266-.3865948.2807617-.4868164 1.7536821-.1511364 2.7836657 1.1519318 2.9188843 1.2321777-.0829467.1861573-.1333007.386963-.1500244.5939943-1.0950317-.2957764-2.2807007-.1037598-3.1956177.5429687zm19.9272461 8.0839844c-1.7414284-.9896641-1.5289097-.777338-6.3339844-3.168457 0 0 0 0-.0004883 0-.8974609-.4389648-1.9150391-.9365234-2.5786133-1.7573242-1.6887016-2.0868721-.5060158-5.2841797 2.2358398-5.2841797 4.2140695-.0000001 6.2967073 5.9905357 6.6772462 10.2099609zm-6.7236328-15.3398447c-.5229931 1.8940821-2.8659821 4.5061932-4.3823242 5.812501.2039461-.9109421.1666212-1.8182297.125-2.7338877-.4081755-9.2168613 5.3432007-7.0203963 4.2573242-3.0786133zm-5.1010132 5.5517587c-.1087646.5361328-.284729.9667969-.5386353 1.265625-.2828417.3339577.143446.7974186.5.5507813.6000319-.4163628 1.4620848-1.1262836 2.4071655-2.0834961.039917.0135498.0802002.0275879.1211548.0444336-1.0913353 1.0975113-1.418314 2.5137386-1.0986328 3.8735352-.5957384.1270084-1.115159.3784409-1.6196289.3276367-.624526-.065836-1.3024206-.6489525-1.3778076-1.611084.1889038-.3361816.2723999-.7319336.2201538-1.1308594.2575303-.5103683.6997739-.9437961 1.3862305-1.2365723zm-3.9183349.5115967c.210022 0 .3800049.1700439.3800049.3699951 0 .3000488.2000122.5900879.4699707.6999512.4518585.1904392.1744862.8849506-.289978.7000732-.96307-.4029273-1.2225276-1.7700195-.5599976-1.7700195z"/><path d="m19.1814651 22.0284653c.6157227-1.0849609 1.5585938-2.0092773 2.6552734-2.6035156.4370117-.2366657.0771523-.8956909-.3574219-.6591797-1.2182617.659668-2.2661133 1.6870117-2.9501953 2.8925781-.2440623.4309025.4103509.7974644.6523438.3701172z"/><path d="m21.7742386 22.4732895c.4067383-.4555664.9169922-.8261719 1.4741211-1.0712891.4543228-.2002296.1512566-.8858967-.3017578-.6865234-.6547852.2880859-1.2539063.7231445-1.7319336 1.2578125-.3297978.3695583.2269459.8698254.5595703.5z"/><path d="m16.4910355 14.3482885c.9360352-1.1738281 1.4760742-2.6464844 1.5205078-4.1469727.013628-.4815311-.7330589-.534318-.75-.0224609-.0395508 1.3393555-.5214844 2.6542969-1.3564453 3.7016602-.3101206.3885288.2780113.8552313.5859375.4677734z"/><path d="m43.5740433 56.4391098c-.0029297 0-.0058594 0-.0083008 0-.2036133 0-.3706055.1625977-.375.3666992l-.1654053 7.5664063c-1.3297577-.2472-3.8516388.8788834-3.6636963 2.2626953.0493164.3691406.2905273.7109375.6445313.9130859.9049187.5225754 3.5963364.3192825 4.2363281-.8432617.3552361-.6461563.1742134-1.5284195-.4736938-2.0166016l.171936-7.8657227c.0043945-.2070312-.159668-.3789062-.3666992-.3833007zm.0112304 9.9038086c-.1210938.2202148-.3691406.3818359-.7802734.5097656-.6892929.2142715-1.9373436.3256073-2.425293.0454102-.3470993-.1991577-.4162331-.5539627.0742188-.9814453h.0004883c.5464325-.4772034 1.6981163-.9553299 2.4501953-.8056641.1000404.0193329.6626854.4671707.6826172.5068359.1137695.225586.1127929.5170899-.0019532.7250977z"/><path d="m52.0689163 64.3936996-1.3649902-8.2880859c-.0336914-.2045898-.2324219-.340332-.4311523-.309082-.2041016.0336914-.3427734.2265625-.309082.4311523l1.3791504 8.3741455c-.8866005.3963547-.8953667 1.2713165-.4416504 1.8602295.5284843.6830978 2.0444641 1.2081451 3.4350586.5966797.8910332-.3916855 1.0163574-1.2384186.5703125-1.8427734-.3785172-.5115433-1.4777337-1.0546112-2.8376466-.8222657zm-.1828613 1.9067383c-.30299-.1542969-.5602913-.3881454-.5258789-.7275391.0379829-.3714676 1.0351715-.4951172 1.3833008-.4951172.6072044 0 1.7337265.3516312 1.6591797.9213867-.019043.1484376-1.3292771.9038697-2.5166016.3012696z"/><path d="m23.292305 38.3551254c-3.1088867-1.4892578-5.3510742-4.4116211-5.996582-7.8183594-.0390625-.2036133-.2363281-.3374023-.4384766-.2988281-.2036133.0385742-.3374023.2348633-.2988281.4384766.6904297 3.6401367 3.0864258 6.7636719 6.409668 8.3554688.4480152.2135391.7714824-.4613228.3242187-.6767579z"/><path d="m35.1311722 47.0348129c-1.4921875-.3618164-2.8408203-1.2988281-3.7001953-2.5712891-.1157227-.171875-.3481445-.2163086-.5205078-.1005859-.1713867.1157227-.2167969.3486328-.1005859.5205078.9624023 1.425293 2.4731445 2.4746094 4.1445313 2.8798828.480255.1180955.6599883-.6112289.1767577-.7285156z"/><path d="m29.9426956 47.7447739c-.027832.2050781.1157227.3945313.3208008.4223633.0406532.0055237 2.4659729.3383789 2.5068359.3383789.4632912 0 .5108185-.684082.050293-.746582l-2.4555664-.3349609c-.203125-.0283204-.394043.1152343-.4223633.3208007z"/><path d="m32.8152542 49.9937973c-.7612305.3925781-1.3994141.9863281-1.8466797 1.7163086-.2570133.42099.3835506.8101883.6396484.3916016.3754883-.6132813.9116211-1.1113281 1.5507813-1.440918.184082-.0952148.2563477-.3212891.1616211-.5053711-.0957031-.1835938-.3198242-.2563477-.5053711-.1616211z"/></g></svg>