<svg id="Layer_1" enable-background="new 0 0 75 75" viewBox="0 0 75 75" xmlns="http://www.w3.org/2000/svg"><g id="Catching_Bird" fill="rgb(0,0,0)"><path d="m37.4092865 40.6054802c.4016953-2.1635246.2973366-4.7880669-.918457-6.6117554-1.676548-5.0454311-8.8304787-6.6180649-13.3511963-4.3662128.3002148-.7319317-.0865383-1.5016251-.9187012-1.6251831-.126709-1.2718506-1.0740967-2.4585571-2.328125-2.7857056-.75-.2000122-1.5400391-.1100464-2.3100586-.1700439-1.9199209-.1399536-3.7399893-1.2299805-4.7700186-2.8499756-.3299561-.5200195-.5799561-1.0900269-.9899902-1.5599976-.4099121-.460022-1.0300293-.8099976-1.6398926-.6699829-.960083.2199707-1.0900879 1.1499634-1.2700195 1.9400024-1.4193935 6.0163288 3.73032 10.9619503 9.380126 9.7280273l-.0155029.0430908c-.2011719.6035175-.0351563.9389668.1396484 1.1132832.1464844.1469727.3515625.2250977.5751953.2250977.109375 0 .2226563-.0185547.3359375-.0561523.0090332-.0031738.0150146-.0092773.0239258-.0126343-1.479126 2.1612549-2.1116943 4.8643188-1.3059082 7.4367676.2127686.7007446.4852295 1.4215088.9498291 1.9885864.199707-.0878296.4194336-.0964966.6357422-.0687256-.3283691.0637817-.6411133.2255249-.8582764.4899902-.9979877 1.2171974.2551346 3.1543045 2.09375 2.6090698 4.0308209 6.3889886 14.9291153 3.8805085 16.5419922-4.7975463zm-18.3242188-8.3549805c-.0761719.0253906-.1289063.015625-.1367188.0107422-.0087891-.0087891-.0390625-.109375.0351563-.3315449l.0898438-.2490234c.6989059-1.8282223 2.2983398-2.9240036 2.8798828-2.9589844.6140785 0 .7050114.5528717.2773438.918457-.9404297.7905273-1.8798828 1.5800781-2.8222656 2.3823261-.116211.0996095-.225586.1933595-.3232423.2280274zm.7563477 10.7683106c.1679935.6623878.3612995 1.1567001.6322021 1.697998-1.4575996.2289543-1.6981525-1.5998955-.6322021-1.697998zm.7017822-.3087158c.0070801-.0790405-.0058594-.1555786-.0444336-.2214966-.1662941-.8033257-.2624416-1.3003197-.2324219-1.6055298.4601974-.697979.8989487-.6540337 1.2219238-.9458008.4614258-.4168091.8273926-.9358521 1.0690918-1.508667.036377-.0778809.1713867-.5912476.2647705-1.0789185.2780762-.258667.5657959-.5054932.8641357-.7372437 1.1281738.1746216 2.3048096.0342407 3.3338623-.4490967 1.4133301-.6582642 2.0135498-1.7327881 2.8944092-2.8944702.4550781.7550659 1.2585449.9777222 2.1008301 1.0842285 1.3626709.1682129 2.7340088.3364868 4.1049805.5046997 1.5626335 3.0738487.8658524 8.7301598-3.3565674 11.7364502-4.2021598 2.9958345-10.8564242 1.8805009-12.220581-3.8841551z"/><path d="m22.9590912 59.7690544c1.7653484-.8753586 2.4015903-2.6464386 5.1855469-8.1303711.1738281-.3427734.5361328-1.0561523.1982422-1.6811523-.3876953-.715332-1.2744141-.7045898-1.9267578-.6958008-.1001606 0-.1069965 0-.0068359 0-1.6491356.009655-3.2485695-.6182175-4.1650391-1.46875-.3427734-.3164063-.7304688-.6757813-1.1835938-.7246094-1.1185627-.1200333-1.225626 1.1550903-5.2374258 3.4641113-.5541077-.8736801-1.6406326-3.0641708-1.2869873-4.0290527.2568359-.6962891 1.2158203-.9770508 1.9570303-.7963867.8554688.2075195 1.5878906.8535156 2.234375 1.4233398.3719273.3286514.8676357-.2341881.4960938-.5625-.7109375-.6274414-1.5175781-1.3383789-2.5537109-1.5893555-1.069335-.2602539-2.4238272.1435547-2.8369131 1.2661133-.4593954 1.2472.6290579 3.5232277 1.3253174 4.6352539-3.0999641 1.6587067-4.1641865 1.5580139-5.3897705 2.4990234-.8642578.6630859-1.3144531 1.6625977-1.1464844 2.5463867.2578125 1.3618164 1.6972656 1.9936523 2.7578125 2.3500977 3.045249 1.0249977 6.2333422 1.6664085 8.4874258 1.8850708l-.4630127.3668823c.5552082.7402763 1.2700787 1.7113724.9072266 2.6391602-.324543.8756828-2.316576 2.2978477-3.1937256 2.8140221-.5899906.1439819-1.2613516.3846588-1.2613516.9901733.0019531.3842773.296874.684082.8085928.8227539.707592.1929779 2.2184868.3978271 2.8945313.1044922.4082031-.1762695.6923828-.5947266.6923828-1.0166016-.0020809-.7782745-.81497-.9926071-1.5931396-1.0344238 2.605442-1.9030838 3.3482056-3.0860558 1.4179688-5.6674156.9898202.079403 1.978172.037674 2.8822019-.4104614zm-3.6972656 7.4404259c-.4437885.1941605-1.8132668.0201263-2.4003906-.1396484-.1367188-.0371094-.2167969-.0854492-.2470703-.0854492-.0058594 0-.0087891.0014648-.0117188.0043945.18013-.2563324 1.9288521-.6134491 2.7822266-.2460938.1162109.0498047.0582542.3886719-.1230469.4667969zm-2.850586-15.2998009c1.0774784 0 2.3933067.803688 2.5976563 1.8383789.2165928 1.0880585-.8348064 1.6501312-1.6865234 1.0800781-.92309-.6186866-.9356118-1.8658371-.9111329-2.918457zm-4.7919912 5.6547852c-1.4013672-.4711914-2.1201172-1.0366211-2.2607422-1.7788086-.1396484-.7387695.3798828-1.4379883.8671875-1.8120117 1.0819597-.8310738 2.1986561-.766777 5.3608398-2.4718628.0360107.0498047.0689697.1013794.105835.1506348-.0445051.1882095-.0844107 1.2450676.0655518 1.9540405.4451571 2.1157722 2.3616152 2.6756973 3.4023428 1.8056641.4921875-.4106445.7216797-1.121582.5849609-1.8105469-.3004551-1.5084991-2.1824913-2.5745201-3.4754639-2.4312744-.0048828-.0067139-.0092773-.0137939-.0144043-.0205688 5.0152092-2.9038506 4.0459995-4.1306686 5.479126-2.8064575.1669922.1547852.3271484.3007813.4736328.3999023 2.1040382 1.4184036 4.1108246 1.2530556 4.2177734 1.2685547 1.2328758-.0176125 1.6136189.1774712 1.0507813 1.2875977-3.5937881 6.9512062-3.5691624 8.6442375-8.1396484 8.0473633-2.6181641-.3398439-5.2148428-.9394533-7.7177725-1.7822267z"/><path d="m35.7927094 56.4265862c.4500732.3200073 1.0200195.4500122 1.5500488.3800049l1.0627441-3.5421143c1.4656563.5305824 2.5947533-.0393219 2.8221436-.9910278 0-.003418.0009766-.0063477.0019531-.0097656.2243233-1.0684242-.8621826-2.2149162-1.7786865-2.4356689l6.8477783-22.7127705c3.5707741-.09692 5.5442657-4.7610893 6.045166-8.2949219.4602242-3.182229-.3260078-8.2945843-3.5383301-8.1844482-5.1564293-2.7471876-11.9872589 1.9998503-19.1247559 1.6160889-1.3769855-.0763931-2.862051-.2234707-3.8857422.8920898-1.3637371 1.4976025-.0915489 2.934412 1.8164063 3.699707 1.7851563.730957 3.1416016 1.9672852 4.578125 3.2768555 3.5809517 3.1299267 7.14674 6.3783512 11.8925781 6.927063l-4.1193848 13.6689472c.0948639-.1897278.4512215-.2533531.6300049 0 .1000977.1699829.3400879.2600098.5400391.2199707.462635-.1156616.6681023.6054192.1699219.7300415-.7580528.1681671-1.4099121-.4079437-1.4099121-.7300415l-3.1386719 10.4163208c-2.5830078.4771729-5.2659912.3604126-7.7891846-.3572998-.478487-.1338348-.6804943.5865097-.2050781.7216797 2.6903286.7640533 5.1929207.8384285 7.7574463.4217529l-2.5545654 8.4775391c-.1300049.4500122.1199951.9299927.5799561 1.0599976l.4001465.1300049c.4599609.1300049.9299316-.1199951 1.0699463-.5799561l1.0999756-3.6400146c-.1002007-.0153542-.8967476.0455742-1.75-.5400391-.4008408-.2830659.0178794-.8867074.4299316-.6199952zm12.5941162-30.8709126c-1.1357651.9209881-2.6092606 1.1305714-3.8095703.2539063-2.6058922-1.8270016-1.9927177-7.5621643-.5517578-10.3999023.8801918-1.6908607 3.4559059-4.3689899 5.2070313-3.9970703 3.6104239.7897805 3.2587012 10.7244071-.8457032 14.1430663zm-15.6923829-5.9892578c-1.4208984-1.2958984-2.890625-2.6357422-4.8017578-3.4179688-.8203125-.3291016-1.7490234-.9082031-1.8955078-1.5478516-.0693359-.3037109.0458984-.6147461.3515625-.9506836.7924786-.8639307 2.1271858-.7122993 3.2939453-.6489258 6.8899384.384202 13.0745125-3.7591467 17.947876-2.0735474-1.429493.6181593-3.1794548 2.1173897-4.2320557 4.1389771-1.5902939 3.1326275-2.1409531 9.0263577.6168213 11.2037964-4.4874801-.6033534-7.8934173-3.7423629-11.2808838-6.7037963zm7.5771485 31.7539081c.1894531.2543945.2724609.5473633.2246094.7841797-.2793083 1.1308136-2.718235.5220909-2.885376-.4890747-.0012207-.015564.0029297-.0303955-.0003662-.0460815-.0006104-.0033569-.0030518-.0057373-.0037842-.0090332-.0040283-.0439453-.0136719-.0854492-.0098877-.1325684.0244141-.3007813.2695313-.59375.6279297-.7490234.8448982-.3767815 1.4875831-.1055298 2.046875.6416015z"/><path d="m43.0440521 14.0263767c.1914063.0063477.3798828-.152832.3896484-.359375.0078125-.2070313-.1533203-.3813477-.3603516-.3896484-1.6490479-.0686035-3.2945557.0489502-4.9110107.3285522-.2730713-.4338989-.565918-.8544312-.9005127-1.2411499-.316452-.3746252-.8946762.1123705-.5664063.4902344.2469482.2856445.475708.5871582.6867676.901123-1.5053711.3134766-2.9781494.7749023-4.397583 1.3790894-.3044434-.4362183-.6306152-.8569336-.9874268-1.2509155-.334919-.366538-.8884735.1358528-.5566406.5039063.3033447.3347168.5863037.6879883.8494873 1.0554199-.3562012.1654663-.7121582.3317261-1.0604248.5153809-.1835938.0961914-.2539063.3232422-.1572266.5063477.09902.1872768.3291435.2518196.5068359.1567383.366333-.1930542.7401123-.3693237 1.1154785-.5415039.6038818.9655762 1.0872803 2.0065918 1.3933105 3.1020508.1355247.4785671.855484.2744026.7226563-.2021484-.3156738-1.1275635-.8079834-2.2009277-1.4202881-3.2005005 1.4199219-.5942993 2.8942871-1.0405273 4.4003906-1.3357544 1.1462402 2.0498657 1.5836182 4.5187988 1.130249 6.8140869-.095932.4866829.6407051.6315861.7363281.1455078.4713135-2.3853149.0550537-4.9500122-1.0860596-7.1096802 1.4748538-.235901 2.9736331-.3274538 4.4727786-.2677614z"/><ellipse cx="33.437" cy="37.852" rx=".943" ry="1.414"/><path d="m29.3003998 39.6767082c.520752 0 .9429932-.6332397.9429932-1.4144287 0-.7811279-.4222412-1.4143677-.9429932-1.4143677s-.9429932.6332397-.9429932 1.4143677c0 .781189.4222412 1.4144287.9429932 1.4144287z"/><path d="m34.8364105 41.0263786c.340332-.3115845.6481934-.6515503.9078369-1.0219727.285965-.4066772-.3309326-.8366852-.6132813-.4306641-1.807045 2.5768089-5.7944279 3.6554985-10.0507813 1.4755859-.4417839-.226738-.7831364.4414597-.3417969.6679688.3653564.1869507.7338867.3469238 1.1031494.4926758.8166618 1.9567719 2.8039494 3.4150391 4.9505615 3.4150391 2.5172197 0 4.3721544-2.1553955 4.0443117-4.5986328zm-3.2210693 3.7529297c-1.5823135.3875694-3.6127415-.3822975-4.739502-2.223938 2.8670025.8269653 5.3703842.3580933 7.2598877-.9643555-.0063476.6228638-1.073574 2.8357087-2.5203857 3.1882935z"/><path d="m14.4385843 59.735363c.1574631-.473568-.5571842-.705555-.7109375-.2373047-.3896484 1.168457-1.2451172 2.1655273-2.3466797 2.7353516-1.2415771.6400146-2.6602783.7017822-3.8980718.6681519-.8017931-.2720451-1.8495975-.5222168-2.2532959.2268677-.2138672.3950195-.1015625.8779259.3173828 1.3588829.7226563.8310547 1.7099609 1.434082 2.7802739 1.6967773 1.6420507.3992691 2.1746368-1.328186.5623779-2.5588951.9315186-.0675659 1.9268799-.2568359 2.835083-.725769 1.2744142-.6582032 2.263672-1.8115235 2.7138673-3.1640626zm-5.415039 5.7167931c-.2997103.2256241-1.9221659-.3201447-2.9101567-1.4570274-.2163696-.2483597-.3755817-.5470047-.0507813-.6083984.3777471-.0726433 1.3920436.297699 1.2150879.2357788 1.5894255.5561942 2.0739016 1.58543 1.7458501 1.829647z"/><path d="m66.875473 29.280283c.195137.1182022.1444092.0859432 2.494751.9526367.3561783.1295204.6538696-.2856407.4267578-.581543l-1.6728516-2.1591797.3476563-1.137207c.1557465-.5111713.6515656-1.444685.2314453-1.7192383-.375412-.2427216-.8818512.334322-1.5927734.862793l-.612915.4561768c-1.0596237-2.2115479-3.4270935-3.056097-5.43396-2.2105713-4.3685837 1.8427372-3.9848785 10.3493557-8.4980469 9.4531269-.2467041-.0487061-.4959717-.0949707-.7165527-.0881958l-2.1799316-2.7335835c-.1491051-.1863804-.4305382-.1866856-.5800781-.0068359l-2.0927734 2.4975605c-.1922836.2292595-.0521202.5795517.2451172.6132813l4.024292.4539795c.10112.1074677-.0646935.3593369 1.4942627 1.2520752.2221451.1195831.9726219.6303635 2.1728516 1.0292969 2.2146759.7351875 4.4764671.6456718 6.6832275-.4036255.1716194.3434448.2252541 1.0460663.7269287.8621216.1933594-.0732422.2910156-.2895508.2177734-.4833984l-.2722168-.7194214c.2425537-.1398926.4771729-.2943726.7076416-.4554443.1051598.1096649-.1114006-.0613747 1.5577393.9902954.4191437.2627945.8187256-.3739929.3964844-.6367188l-1.336792-.8312988c1.6351164-1.3470842 2.8741606-3.2115156 3.2619627-5.2570821zm.9674072-3.4033203c-.1080551.3005314-.0762329.2328148-.4921875 1.5820313-.0993881.319664.1985245.4399986 1.0527344 1.6186523l-.8867188-.3266602c-.0683594-.0249023-.2763672-.1010742-.3125-.1518555-.0823898-.1961594.1693344-.6875305-.3662109-1.9633789.7400132-.5544147.7073594-.5174274 1.0048828-.758789zm-19.8232421 6.9355487 1.3496094-1.6108418 1.5449219 1.9375019zm7.149414 2.6904297c-1.1190376-.371563-2.6542282-1.2932816-3.0185547-1.6196289.0976563.0161133.1972656.0356445.2705078.050293 1.5493889.3038826 2.7013893-.3117981 3.6953125-1.5473633 1.9592628-2.432436 2.363327-6.7385693 5.2382813-7.9506855.8720703-.3681641 1.9082031-.3383789 2.7666016.078125 5.5389785 2.6821633-.5473061 13.7821102-8.9521485 10.9892597z"/><path d="m64.0899506 31.2495213c.1416016-.9609375-.3095703-1.9916992-1.0986328-2.5058594-.8027344-.5239258-1.8896484-.4799805-2.6425781.1079102-1.0868797.8458939-1.1924973 2.3205605-1.9375 3.2226582-.2636719.3193359-.7324219.6518555-1.1943359.5327148-.4840164-.1204338-.662384.606678-.1835938.7275391.7478333.1869583 1.4842377-.2111931 1.9560547-.7827148.7723732-.9363003.9880791-2.4619846 1.8203125-3.1084003.4970703-.3876953 1.2421875-.4169922 1.7714844-.0717773.5439453.3544922.8662109 1.0981445.7666016 1.7685547-.0302734.2045898.1113281.3955078.3164063.4257813.2099607.0288083.3955076-.1118167.4257811-.3164065z"/><path d="m62.2510834 29.9497166c-.2041016.0327148-.34375.2250977-.3105469.4296875.1894531 1.1850586-.2207031 2.4711933-1.046875 3.2763691-.3557014.3463402.1701698.8786011.5234375.5371094 1.0107422-.9853516 1.4951172-2.4921894 1.2636719-3.9326191-.0322266-.2036133-.2207032-.3476563-.4296875-.3105469z"/><path d="m62.6672211 27.4950047c.4768066 0 .8632813-.3864746.8632813-.8632202 0-.4766846-.3864746-.8631592-.8632813-.8631592-.4766846 0-.8631592.3864746-.8631592.8631592 0 .4767455.3864746.8632202.8631592.8632202z"/><path d="m47.9278412 12.4892673c.4960938 2.7475586.1455078 5.6665039-.9873047 8.2197266-.2018585.4541817.4840126.7555943.6855469.3037109 1.1933594-2.6884766 1.5625-5.7626953 1.0400391-8.65625-.0895463-.4913368-.8267136-.3524093-.7382813.1328125z"/><path d="m64.9600677 13.8042088c-1.5341797-.4570313-3.1181641-.699707-4.7167969-.7231445.5761719-.9287109 1.3818359-1.7285156 2.3134766-2.2895508.3619118-.2169218.1384735-.7761145-.2705078-.6884766-.1612167.0337629-3.5920982.7934589-3.6943359.7607422-.1004219-.0767946-.2846603-1.0910549-.9140625-3.6230464-.0927925-.3811202-.6357689-.3803124-.7285156-.0004883l-.8535156 3.499023c-.1170769.4823666.6116943.6590395.7285156.1777344l.4882813-2.0014648.453125 1.8666992c.1711082.7099085.5415802.9205818 1.1767578.7900391l1.8896484-.3974609c-.6376953.6113281-1.1728516 1.3325195-1.5644531 2.1162109-.0585938.1176758-.0507813.2573242.0195313.3681641.2554169.4101057.9598961-.1171761 4.0136719.5029297-.9228516.2919922-1.8066406.6953125-2.640625 1.2060547-.2842293.1754894-.2149277.6072531.109375.6845703.8935547.2124023 1.7470703.5830078 2.5136719 1.0869141-1.2158203.0117188-2.4384766-.1464844-3.5957031-.4770508-.4792137-.1382351-.6817818.5850601-.2070313.7207031 1.5726128.4495029 3.2153053.6082134 4.8828125.4492188.329277-.0320721.4597702-.443367.2089844-.6577148-.8095703-.6962891-1.7490234-1.2387695-2.7558594-1.5942383.9755859-.4960938 2.0341797-.8544922 3.1025391-1.0478516.3890913-.0711472.415489-.6172755.0410154-.7285158z"/><path d="m55.0401459 15.7602634c.3678856 0 .3606796-.3546944 1.1552734-1.5605469.2551422-.4248438-.3862-.8118811-.6425781-.3876953l-.8339844 1.3789063c-.1507873.2510805.0315476.5693359.3212891.5693359z"/><path d="m56.4551849 16.8144627.8027344-.4775391c.4264145-.2528191.0441513-.8969336-.3828125-.6445313l-.8027344.4765625c-.1777344.105957-.2363281.3359375-.1308594.5141602.1021844.1741428.3292504.2384319.5136719.1313477z"/></g></svg>