<svg id="Layer_1" height="512" viewBox="0 0 512 512" width="512" xmlns="http://www.w3.org/2000/svg"><g><g><path d="m256 510c-72.3 0-131.1-58.8-131.1-131.1 0-47 25-90.1 65.5-113.5v-197.9c.1-36.1 29.5-65.5 65.6-65.5s65.5 29.4 65.5 65.5v197.9c40.6 23.4 65.5 66.5 65.5 113.5.1 72.3-58.7 131.1-131 131.1zm0-491.6c-27.1 0-49.2 22.1-49.2 49.2v207.6l-4.4 2.3c-37.7 20-61.2 58.8-61.2 101.4 0 63.2 51.5 114.7 114.7 114.7 63.3 0 114.7-51.5 114.7-114.7 0-42.6-23.4-81.5-61.2-101.4l-4.4-2.3v-207.7c.2-27.1-21.9-49.1-49-49.1z"/></g><g><path d="m256 460.8c-45.2 0-81.9-36.8-81.9-81.9 0-45.2 36.8-81.9 81.9-81.9s81.9 36.8 81.9 81.9c0 45.2-36.7 81.9-81.9 81.9zm0-147.4c-36.1 0-65.5 29.4-65.5 65.5s29.4 65.5 65.5 65.5 65.5-29.4 65.5-65.5-29.4-65.5-65.5-65.5z"/></g><g><path d="m247.8 75.7h16.4v229.4h-16.4z"/></g><g><path d="m198.6 67.5h32.8v16.4h-32.8z"/></g><g><path d="m198.6 108.5h24.6v16.4h-24.6z"/></g><g><path d="m198.6 149.5h32.8v16.4h-32.8z"/></g><g><path d="m198.6 190.5h24.6v16.4h-24.6z"/></g><g><path d="m198.6 231.4h32.8v16.4h-32.8z"/></g></g></svg>