<svg id="Layer_1" height="512" viewBox="0 0 512 512" width="512" xmlns="http://www.w3.org/2000/svg"><g><g><path d="m337.9 452.6h-262.2c-40.6 0-73.7-33-73.7-73.7 0-31.6 19.9-59.3 49.3-69.5-.1-1.5-.1-2.9-.1-4.2 0-49.7 40.4-90.1 90.1-90.1 7.1 0 14.2.8 21.1 2.5 23.5-27.7 57.3-43.5 93.6-43.5 67.8 0 122.9 55.1 122.9 122.9 0 6.5-.5 13.1-1.6 19.6 21.3 13.5 34.4 36.8 34.4 62.3 0 40.7-33.1 73.7-73.8 73.7zm-196.6-221.2c-40.7 0-73.7 33.1-73.7 73.7 0 2.8.2 5.7.6 9.1l.9 7.2-7.1 1.7c-25.7 6.3-43.6 29.2-43.6 55.6 0 31.6 25.7 57.4 57.4 57.4h262.2c31.6 0 57.4-25.7 57.4-57.4 0-21.4-11.8-40.9-30.9-50.8l-5.5-2.9 1.3-6.1c1.6-7.3 2.3-14.8 2.3-22.1 0-58.7-47.8-106.5-106.5-106.5-33.1 0-63.8 15.1-84.2 41.4l-3.5 4.5-5.4-1.7c-7.1-2-14.3-3.1-21.7-3.1z"/></g><g><path d="m435.2 274.9h39.8v16.4h-39.8z" transform="matrix(.707 .707 -.707 .707 333.463 -238.92)"/></g><g><path d="m266.4 106h39.8v16.4h-39.8z" transform="matrix(.707 .707 -.707 .707 164.618 -168.98)"/></g><g><path d="m362.5 59.4h16.4v39.8h-16.4z"/></g><g><path d="m314.3 86.3h26.5v16.4h-26.5z" transform="matrix(.383 .924 -.924 .383 289.474 -244.306)"/></g><g><path d="m400.6 294.6h26.5v16.4h-26.5z" transform="matrix(.383 .924 -.924 .383 535.238 -195.427)"/></g><g><path d="m253.3 147.3h26.5v16.4h-26.5z" transform="matrix(.924 .383 -.383 .924 79.807 -90.173)"/></g><g><path d="m461.6 233.6h26.5v16.4h-26.5z" transform="matrix(.924 .383 -.383 .924 128.714 -163.355)"/></g><g><path d="m405.7 81.2h16.4v26.5h-16.4z" transform="matrix(.924 .383 -.383 .924 67.695 -151.244)"/></g><g><path d="m466.7 142.2h16.4v26.5h-16.4z" transform="matrix(.383 .924 -.924 .383 436.742 -342.743)"/></g><g><path d="m446.9 94.3h16.4v39.8h-16.4z" transform="matrix(.707 .707 -.707 .707 214.086 -288.382)"/></g><g><path d="m470.2 190.5h39.8v16.4h-39.8z"/></g><g><path d="m370.7 280.8c-.7 0-1.4 0-2.1-.1l-7.2-.3-1.4-6.2c-7.6-35-32.2-63.6-65.7-76.5l-5.9-2.3.7-6.3c4.8-41.4 39.9-72.6 81.6-72.6 45.3 0 82.2 36.9 82.2 82.2 0 45.2-36.9 82.1-82.2 82.1zm-64.3-95.8c33.5 15.1 58.4 44 68 79.3 34.5-1.9 62-30.7 62-65.7 0-36.3-29.5-65.8-65.8-65.8-31.2.1-57.9 22.1-64.2 52.2z"/></g></g></svg>