<svg id="Layer_1" enable-background="new 0 0 75 75" viewBox="0 0 75 75" xmlns="http://www.w3.org/2000/svg"><g id="Catching_Butterfly" fill="rgb(0,0,0)"><path d="m10.927083 37.7959671c-.0019531.0024414-.0039063.0053711-.0058594.0078125-.0800781.112793-.1376953.2158203-.1474609.2583008-.9226198 1.5727386-.0800219 3.3012848 1.8623047 3.4140625.0068359.0004883.0146484.0004883.0214844.0004883.4805079 0 .5047455-.7210159.0214844-.7495117-1.4927788-.0853844-1.9393253-1.3797722-1.1464844-2.4882813.4101563-.578125 1.0449219-1.0078125 1.6044922-1.3867188.3804588-.2562981.0475416-.8466797-.3710938-.6489258-.859004.4077873-1.4967947.723175-2.4052734.9760742-4.9076843 1.3082008-6.3123398-5.0814972-1.6464844-6.6518536 1.1520214-.3799953 2.8649693-.2185211 3.4395752.0176392.0112305.0097656.0229492.0220337.0340576.0316772l.0203857-.0187378c.0142822.0057983.0290527.0049438.0437012.0087891l-.0328369.0377808c2.1989079 1.9054317 3.7767439 4.724268 4.1790762 8.0168438-.1730957.4544678-.6603994.7892456-1.168334 1.0969238-.4941406.3266602-.9824219.6352539-1.5068359.8193359-.4671001.1646538-.2218504.8702354.2480469.7080078.7830095-.2753143 2.1039381-1.1382675 2.508666-1.4979248.0123959.4867096.0527058.4138489-.0389404 1.0570068-.072073.5163383-.2087784 1.5080528.3066406 1.5991211.1255665.022831.2595253-.0212936.3486328-.1230469.7409668-.8519897 1.1451416-2.1053467 1.2928467-3.4345093 6.9574566-1.1554909 5.58004-7.8293896 1.8702393-7.3208599 1.2487373-3.2155666-.1149216-5.6249332-1.9443359-6.2836914-2.2267742-.7981777-4.7785234.9759159-4.6776114 3.7993164-.3206215-.1898136-.5127335-.330864-.8718262-.4334106 1.0355282-2.8270435.0178919-5.7689724-1.1116943-6.5411987-1.0234737-.7004509-2.36763-.155777-2.2919922 1.0166016.0486155.7606239.7482262 1.1466122 1.0058594.7128906.1044922-.1782227.0458984-.4082031-.1328125-.5136719-.0986328-.0576172-.1201172-.1791992-.125-.246582-.0345726-.5635338.6579933-.6689816 1.1201172-.3500977.9060154.6190052 1.8066053 3.4292545.7243652 5.9589233-.3670912.1905174-.5089979.5966911-.4310303.9932251-.9667969-.1102905-1.9916992-.1699829-3.0452881.1782227-5.5219748 1.8551675-3.866303 9.923216 2.4492187 7.9799787zm3.5175781-8.2299786c-.4851227-2.4570999 1.6696768-4.3190365 3.61621-3.6181641.9775391.3515625 1.7412109 1.3979492 1.9013672 2.6040039.1367188 1.0351563-.109375 2.1958008-.7333984 3.4492168-.1687031.3385048.2191467.6881027.5380859.4829102.6523438-.4174805 1.6484375-.2558594 2.2226563.3554688 1.291748 1.3815804.6425323 4.4043694-3.3759766 5.2089844.2440414-3.3252716-1.6787376-6.774559-4.1689444-8.48242zm.0223389.9751587c1.3725586 1.1608276 2.4117422 2.7305279 2.8946524 4.4550152.4082031 1.4589844.5429688 3.859375-.1376953 5.6049805.0870132-.7630272-.0517578-1.658268-.0517578-1.9697266 0-.0576782-.0155029-.1102905-.0386963-.1585083-.8506413-6.7132511-5.3799667-8.6422977-4.8529043-9.1495953.2778625-.2570247 1.8911142.9822541 2.1864013 1.2178345z"/><path d="m59.015461 42.8472977c-4.9697266-11.1380959-4.6256027-10.5443001-5.060791-10.7860718-.8369675-.4664841-1.2722511.2913055-3.6192627 1.0734863-3.9475594 1.315918-5.6668434.472599-7.0952148 1.6255493-1.4928207 1.2294006-1.1054611 3.668705-1.2064209 8.1994629-.0662651 4.5528793-.3035851 6.5057411.7974854 7.729187.8502197.9483223 2.2743645 1.1143799 3.5476074 1.1143799 4.0383301.0101929 8.0869141-.8076782 11.7982178-2.4128418 1.0223389-.4395752 2.1469727-1.0939331 2.3309326-2.1878662.1551207-.9440994-.3217889-1.6226539-1.4925538-4.3552856z"/><path d="m46.6302071 53.0474319c-.1972656-.0522461-.4052734.0654297-.4589844.265625l-2.1134033 7.9129028c-.8020706-.5928917-1.5316467-1.0355263-2.6229248-1.2962036-1.9629707-.4687691-2.7138977.963131-2.0507813 2.1137695.6774864 1.186924 4.0233498 2.7905273 5.1396484 2.7905273 1.2953835 0 1.7310448-1.3218536 1.0732422-2.2885742-.2269287-.333252-.5559082-.6082153-.8876953-.8520508l2.1865234-8.1870117c.053711-.2001952-.0654296-.4057616-.2656249-.4589843zm-1.6533204 9.9199219c.1992188.2939453.2480469.7553711.0019531.9741211-.6774063.59198-3.3898697-.9923859-4.1357422-1.503418-.3652344-.2504883-.6425781-.4765625-.8085938-.7675781-.1621094-.2807617-.1738281-.6162109-.0302734-.815918.1503906-.2080078.4316406-.265625.6962891-.265625.845726 0 2.0290985.5656357 2.7851563 1.1489258.5075035.3912011 1.1755104.7660599 1.4912109 1.2294922z"/><path d="m62.6096992 54.6592484c-.1583252.1028442-.3087158.211792-.4602051.3198853-.1442795-.0913391.1664772-.0020752-6.0085449-.7793579l-1.1074219-2.159668c-.0947266-.1850586-.3232422-.2583008-.5048828-.1625977-.1845703.0942383-.2568359.3203125-.1630859.5043945 1.20541 2.3241615 1.1274338 2.2596626 1.2441406 2.3505859l-.0009766.0009766c.0615234.0732422.2060547.1787109.3007813.1904297l5.4373779.6731567c-1.2011719 1.0167847-2.1157227 2.2008057-2.6326904 3.4308472-.1464844.3486328-.2822266.7626953-.1777344 1.190918.1373558.5724716.7395325 1.0712891 1.5117188 1.0712891 1.569046 0 4.2831383-2.2064514 4.6337929-5.3569336.1524429-1.3867379-.7683144-2.1238251-2.0722695-1.2739258zm-1.5 5.5253906c-.4462891.2578125-.8027344.3725586-1.1259766.3535156-.2939453-.0161133-.6464844-.1953125-.71875-.4960938-.0527344-.2172852.0410156-.4873047.140625-.7231445.6279297-1.4941406 1.9111328-2.9257813 3.6123047-4.0307617.1879883-.1218948.5388222-.321228.7373047-.2143555.2333985.1259766.0278359 3.5595589-2.6455078 5.1108399z"/><path d="m56.4544258 32.9414749c-.4363976-.2347107-.7929611.4238663-.3554688.6601563l8.7484169 4.723999c.1433334.2417641.2849731.3441849.3961182.5294189.6342087 1.0153351 2.1106873 2.3647461 3.2929688 2.3647461 1.1364899 0 1.7057648-1.1178551 1.0625-2.050293-.7150574-1.0350151-2.8101807-1.5163765-4.2279053-1.413208zm12.5273476 6.6538086c.2952423.4276009.0984573.88097-.4619141.8740234-.7505875-.0162468-1.8734818-.9617767-2.3935547-1.652832-.0258484-.1491776-.1141052-.2045059-.2119141-.3393555.9913102.017788 2.6093674.4544335 3.0673829 1.1181641z"/><path d="m31.0286446 30.7359104c.2919922-1.3876953-2.6826172-3.9838867-2.7138672-4.0078125-2.7189026-2.1422653-4.890234.0349541-3.7109375 1.9975586.7172546 1.1918468 3.6254978 2.9630089 5.4134521 2.7509766 3.0200195 2.7913189 6.696167 4.8549786 10.6480713 5.9658184.4846764.1384811.6751022-.5898018.203125-.7216797-3.7242432-1.0469971-7.1929932-2.9697266-10.0762939-5.5599346.1435547-.147583.2124023-.3101807.2364502-.4249268zm-5.7822266-2.3969726c-.2099609-.3496094-.3164063-.8745117-.0820313-1.2592773.2167969-.3549805.7333984-.5546875 1.2353516-.4829102.4433594.0610352.9042969.2905273 1.4521484.7211914.7783203.6118164 2.5800781 2.609375 2.4433594 3.2636719-.0068359.0297852-.0195313.0922852-.1962891.137207-1.2988281.3393554-4.2441406-1.3681641-4.852539-2.3798828z"/><path d="m41.6536446 13.6919641c5.6874352-3.039547 12.6468163-.3428164 13.8173828 7.0424814-3.1290779-2.9852123-6.6359634-2.1160564-8.8652344-2.2768555-1.109375-.0834961-1.8710938-.4975586-2.8583984-1.034668-.8046875-.4414063-1.1542969-.0112305-1.4638672.3686523-1.8598862 2.1158981-2.0194931 2.0931778-5.5703125 4.9433594-.1314697.1113892-.2767334.2272949-.4216309.3303833-.0933838-.671814-.0426025-1.7543335.4626465-3.4607544.6435547-2.0327148 2.0371094-3.9384775 3.8222656-5.2294931.4026718-.2902966-.0394478-.8998232-.4394531-.6074219-1.9414063 1.4033203-3.3964844 3.395997-4.0996094 5.6171885-.5615234 1.8950195-.6816406 3.3657227-.3564453 4.3720703.050354.158144.2041321.2803555.4111328.2495117.0074463.0730591.0106201.1464233.0198975.2193604-.8492432.5419922-1.2305908 1.722229-.8460693 2.6551514.3304329.8054867 1.2496796 1.4377499 2.2939453 1.3113403 3.6530266 5.7118053 12.7357903 5.7542896 16.4013672 1.5143433.9625244-1.114502 1.5620117-2.5825195 1.7512207-4.2390747.0029297-.000061.0057373 0 .0085449-.0001831 2.1365509-.1251278 2.33255-3.0418491.4315186-3.3099976.1252441-.0704956.2095947-.1976929.1983643-.3442993-.1822739-2.4132862-.9124146-4.6540184-2.4095459-6.5310068 2.6896515.5710373 3.4584274-2.7467651.4769287-3.6213379 1.2068024-.8457909 1.5639076-2.1205196 1.1777344-3.0766602-.6422081-1.6339817-3.1174164-2.117825-4.9423828-.0527344-.5955772-3.3547344-6.2233353-2.0428138-4.4649658 3.2296753-1.668457.03302-3.352417.4483643-4.8885498 1.2698364-.4389536.2347356-.081341.8959094.3535155.6611329zm-5.3896485 11.3988657c.1832275.8209229.4793701 1.6166992.8692627 2.3641357-1.2051086-.1607989-1.6712074-1.4750155-.8692627-2.3641357zm17.1289063 4.1255494c-2.7544022 3.1876812-9.681366 3.9880085-13.8125.2480469-1.6103516-1.4726563-2.6396484-3.6411133-2.7783203-5.8359375.1032028-.0768528 3.0687141-2.4606609 2.9677734-2.3808594 3.565609-2.8189144 2.9872704-3.5127678 3.6435547-3.152832 1.0009766.5449219 1.8652344 1.0151367 3.1367188 1.1108398 2.3610497.171917 5.1789322-.6150112 8.0762939 1.7865601.6886825 2.7577934.6426735 6.05237-1.2335205 8.2241821zm2.3741455-4.5150147c.0355186-.9539051-.0421791-1.3627968-.0793457-1.7600098.2609863-.1003418.5957031-.0440674.7999268.1680908.5054206.5228139.1696777 1.4673653-.7205811 1.591919zm.046875-2.5402832c-.0666504.0056152-.1342773-.0016479-.1993408.0128784-.0111084-.0779419-.0274658-.1490479-.0394287-.225769.1512146.1864777.1673126.1763477.2387695.2128906zm-5.9786377-12.4715586c-.1604309.2688627-.3146706.5598841-.546875.9926758-.2201958.4036932.3483391.7733421.6269531.4072266.2695313-.3525391.4707031-.7177734.5664063-1.019043.6189804-1.0622683 1.5047989-2.0686188 2.7216797-2.1547852 2.0103111-.1379623 2.7308922 2.4074993.0078125 3.550293-.3416023.1434288-.288765.6480589.0791016.7148438.5878906.1064453 1.2548828.2275391 1.7402344.5864258.3925781.2788086.6894531.8535156.4863281 1.2963867-.1894531.4067383-.71875.5576172-1.1347656.5336914-.7706375-.0516253-1.469738-.5890303-1.6896973-.597168-1.6230927-1.3873205-3.5264969-2.0931559-5.7012939-2.2163696-.2817383-.7648315-.4143066-1.4130859-.3990479-2.008728.1166267-3.222734 4.0615539-2.9729782 3.243164-.0854493z"/><path d="m49.3478584 22.0318699c-.4459229 0-.807373.4749146-.807373 1.0606689 0 .5858154.3614502 1.06073.807373 1.06073s.807373-.4749146.807373-1.06073c.0000001-.5857544-.3614501-1.0606689-.807373-1.0606689z"/><path d="m39.2599678 23.6905613c-.442627.0543823-.7435303.5697632-.6721191 1.1512451.0715332.5814209.4881592 1.008667.9307861.9542847.4425049-.0543823.7434082-.5698242.6719971-1.1512451-.0715332-.5814209-.4881592-1.008667-.9306641-.9542847z"/><path d="m48.7942696 25.3032932c-7.3384361 1.6461277-7.1776581 1.4675541-7.3349609 1.7192383-.0537109.0859375-.0703125.1899414-.0458984.2885742.2685547 1.0830078.8779297 2.5649414 2.2587891 3.4770508 2.0668449 1.3650417 5.0194511.6557446 5.5224609-2.4785156.1337891-.8310547.2539063-1.8056641.1386719-2.7353516-.0247919-.2038612-.2828905-.3828888-.5390626-.2709961zm-.3398438 2.8872071c-.5617676 3.4881382-4.9451981 3.4359417-6.2099609-.6879883l6.3798828-1.3945313c.0292969.7070313-.0664063 1.4389649-.1699219 2.0825196z"/><path d="m43.3421211 16.3247776c.4121094-1.059083 1.3535156-1.8842783 2.4580078-2.1538095.4843521-.1175613.3005104-.8498087-.1777344-.7285156-1.3378906.3266602-2.4794922 1.3266602-2.9794922 2.6098642-.1801833.463335.5195771.7337436.6992188.2724609z"/><path d="m10.0335283 29.3223362c.4130859 0 .8271484-.0449219 1.2304688-.1357422.4874191-.1094933.3156214-.8419609-.1640625-.7314453-1.1894531.2670898-2.4804688.0737305-3.5380859-.5327148-.6332631-.3615685-1.0870528-.859581-.7763672-1.515625.338872-.7170792 1.2065935-.6223431 1.4375-.152832.0927734.1860352.3173828.2631836.5019531.1704102.6735783-.3332443-.4368734-1.6388741-1.6816406-1.206543-.8396406.2948971-1.3193345 1.3058624-1.0117188 2.1425781.171875.4692382 2.6039057 1.961914 4.0019531 1.961914z"/><path d="m18.7317696 29.8164768c.4863281-.5742188.5878906-1.4487305.25-2.175293-.2568359-.5517578-.8525391-1.175293-1.4951172-1.2998047-.9573822-.1814461-2.1845789 1.2902622-1.7314444 2.7954102.455926 1.5150051 2.1454153 1.6628151 2.9765616.6796875zm-1.4228516-2.7421875c.2232399 0 .7521534.3665562.9931641.8828125.2128906.4589844.1542969 1.0244141-.1425781 1.375-.4644146.5456104-1.4054775.5213661-1.6855469-.4111328-.2848454-.94417.4567241-1.8466797.8349609-1.8466797z"/><path d="m8.4261065 32.3540726c-1.3093324 1.3353996-.66678 3.5712891 2.0029297 3.5712891.8621178 0 1.7674074-.2108192 2.2568359-.9238281.4599609-.6679688.3857422-1.6733398-.1757813-2.3911133-1.0254392-1.3101712-2.8935938-1.4726601-4.0839843-.2563477zm2.0927734 2.8203125c-3.0436049.0611305-2.1870728-2.9823227-.0683594-2.894043 1.8724976.1038475 2.8348618 2.8469963.0683594 2.894043z"/><path d="m41.9680977 66.2070999c.4950371.0965118.6319847-.6347351.1523438-.734375-2.6689453-.5512695-4.9990234-2.5615234-5.9365234-5.121582-.1348991-.3686447-.6335907-.3011017-.7167969.0400391-.3662109 1.5048828-.1943359 3.121582.4375 4.5302734-1.2822266-1.1538086-2.2128906-2.7026367-2.5966797-4.3828125-.0793877-.3499374-.5921364-.4157906-.7207031-.0371094-.6074219 1.7895508-.3730469 3.8491211.5566406 5.4975586-1.2226563-.7089844-2.2636719-1.7182617-3.0048828-2.9316406-.1823139-.2940903-.6244621-.2083549-.6884766.1245117-.3369141 1.7504883.6357422 3.6191406 2.2626953 4.347168.4518776.2037888.7603035-.4812469.3066406-.6845703-.9589844-.4291992-1.6494141-1.387207-1.8349609-2.4213867 1.0429688 1.293457 2.4267578 2.2973633 3.9912109 2.8789063.3708839.1365814.6734276-.3193207.4052734-.6074219-1.1357422-1.2158203-1.6982422-2.9467773-1.5615234-4.6069336.7841797 1.9111328 2.2236328 3.5581055 4.03125 4.5595703.3662224.2011948.7365456-.2567902.4658203-.5722656-1.0078125-1.175293-1.5361328-2.7358398-1.4882813-4.2788086 1.2353516 2.2153319 3.4531251 3.8872069 5.9394532 4.4008788z"/><path d="m67.0804062 60.8164749c-.1450882-.287056-.5835724-.2757874-.6914063.0488281-.6191406 1.8530273-1.9257813 3.440918-3.6015663 4.4282227.5566406-1.2978516.5097656-2.8588867-.1992188-4.0898438-.16119-.2771149-.5501709-.2352524-.6689453.0371094-1.046875 2.4038086-3.0429688 4.3432617-5.4775391 5.3203125-.4582405.1837616-.1830711.8800507.2792969.6962891 2.359375-.9472656 4.3359375-2.7353516 5.5263672-4.9726563.3896484 1.2402344.1181641 2.684082-.7460938 3.6655273-.2585945.2939606.0513954.739357.4179688.597168 2.1181679-.8266602 3.8662148-2.4887695 4.8212929-4.5429688.5703125 1.9765625-.0419922 4.2729492-1.59375 5.6459961-.3722305.3289185.1244354.8899002.4960938.5615234 2.0283203-1.7939452 2.6464844-4.9731444 1.4375-7.3955077z"/><path d="m33.8655586 10.6143274c1.3730469.1333008 2.6611328.8217773 3.5341797 1.8886719.3082199.377162.8960571-.0878916.5800781-.4746094-.9980469-1.2207031-2.4716797-2.0078125-4.0419922-2.1601563-.4864692-.0618943-.5734062.6974049-.0722656.7460938z"/><path d="m38.8470039 10.2822962-2.5791016-2.5795898c-.3514709-.3514705-.8807716.1807504-.53125.5302734l2.5791016 2.5795898c.3515473.3515463.8808365-.1806888.53125-.5302734z"/><path d="m39.5608711 7.1314173c-.3925781 1.3793945-.1679688 2.9262695.6005859 4.1376953.2603264.4118862.9015961.0206709.6328125-.4013672-.65625-1.0341797-.8476563-2.3540039-.5126953-3.53125.1359253-.4780774-.5855522-.6815925-.7207031-.2050781z"/></g></svg>