<svg id="Layer_1" enable-background="new 0 0 75 75" viewBox="0 0 75 75" xmlns="http://www.w3.org/2000/svg"><g id="Catching_Pigeon" fill="rgb(0,0,0)"><path d="m22.6953259 25.9864845c.6714478-.2336426 1.098938-.7587891.954834-1.1728516-.144104-.4139404-.8052368-.5601807-1.4766846-.326416-.6714478.2336426-1.098938.7587891-.954834 1.1728516.144104.4139404.8052368.5601807 1.4766846.326416z"/><path d="m30.2434826 23.6639748c.6714478-.2336426 1.098938-.7587891.954834-1.1728516-.144165-.4140625-.8052979-.5601807-1.4766846-.326416-.6714478.2336426-1.098938.7587891-.954834 1.1728516.144104.4139404.8052368.5601806 1.4766846.326416z"/><path d="m39.2537384 35.3082619c.3417969-.8979492.1416016-2.1489258-.7851563-2.6875-.7387695-.4306641-1.7792969-.2744141-2.5292969.3779297-.7823067.6801338-1.0824623 1.6173134-1.4262695 2.4384766-.3220215.7687988-.6998291 1.6877441-.538147 2.3183594-.9015503.6320801-1.8667603 1.1618652-2.8790302 1.5817871l.0377808-.1677246c.2451172-1.0825195.3925781-1.7363281.0063477-2.1733398-.4083481-.4626732-1.1977196-.3514366-1.8212891-.265625-5.2554741.8203812-6.4959431-1.5277214-8.6254883-.7363281-1.2988281.4736328-1.8256836 1.909668-2.2485352 3.0634766-.0502663.1027412-1.3005981 3.999279-4.6518555 7.4794922-1.2257547 1.2643585-1.8264046 1.9915543-1.9389648 3.081543-.3749228 3.7492294 7.6144314 6.7983398 11.1547852 6.7983398 1.3574219 0 2.4692383-.3515625 3.3203125-1.0522461 1.7385483-1.4213486 2.0388317-3.9498253 2.8476563-7.512207.1098404-.4837646-.6236439-.6501465-.7314453-.1650391-.8509598 3.560936-1.0456924 5.8331604-2.5917969 7.097168-1.125.9257813-2.8422852 1.1245117-5.1044922.5898438-2.6864109-.6341324-8.4274578-2.896389-8.1489258-5.6801758.0981445-.9506836.8520508-1.7280273 1.5810547-2.4799805.0969057-.1236191 3.1750622-3.0073738 4.9282227-7.7905273l.0395508-.1083984c.3891602-1.0605469.8295898-2.262207 1.8037109-2.6171875.7421875-.2783203 1.6064453.0258789 2.4433594.3188477l.4458008.152832c3.5295448 1.1516151 6.3363457-.1128044 6.7363281.3222656.1438885.163002-.0365925.8978233-.3203125 2.1540527-2.8050537.9777832-5.880188 1.1687012-8.7807617.4445801-.4749622-.1233978-.6674423.6060905-.1816406.7275391 1.2558594.3134766 2.543457.4672852 3.8300781.4672852 1.6722412 0 3.3417358-.2617188 4.9355469-.7657471l-1.2387695 5.5006104c-.1090794.4855804.6232243.6458206.7314453.1640625l1.2119751-5.3808594c1.0646362.1711426 2.1414204.2641602 3.2201557.2641602 3.0401611 0 6.0814209-.6793213 8.8406372-1.9814453.6801643.7982101 3.776722 1.5223465 5.5270386.4941406.8286133-.4863281 1.4550781-1.5874023 1.0688477-2.5878906-.3076172-.7978516-1.2148438-1.3354492-2.2094727-1.2871094-1.0664215.0423088-1.9401321.6315498-2.6381836 1.0097656-.7953491.4328613-1.7583008.9611816-1.9294434 1.6271973-3.5355225 1.7028809-7.5634155 2.3186035-11.4348774 1.7641602 1.146059-.4595947 2.238039-1.0534668 3.2511005-1.7702637.9141273.3584057 4.0289039-1.0255741 4.7924194-3.0283207zm6.0537109 1.8583984c.6074219-.3540039 1.262207-.6845703 1.9355469-.7119141.6035233-.0131187 1.2668724.2563019 1.4794922.8081055.2392578.6201172-.2026367 1.3500977-.7490234 1.6713867-1.5567055.9131546-4.4706421.0071983-4.604248-.3701172-.0004883-.0062256-.0040894-.012207-.0049438-.0184326-.0052644-.3714103 1.6020926-1.1797981 1.9431761-1.3790283zm-9.9404296-1.8364258c.2524414-.6557617.5561523-1.3237305 1.0644531-1.7661133.4429092-.3849449 1.1486588-.5926781 1.6601563-.2949219.574707.3339844.6865234 1.1796875.4609375 1.7724609-.6591721 1.7298775-3.6016884 2.8421059-3.8374023 2.5849609-.2455903-.277294.5111388-1.9295767.6518554-2.2963866z"/><path d="m22.2263927 28.1598244c-.1069336.1430664-.0981445.3422852.0214844.4750977 1.4849491 1.6540928 3.015583 3.2402344 5.2524414 3.2402344 2.1820164-.001049 3.6123333-1.5361576 3.3647461-3.9370117-.0959721-.929472-.2851181-2.5638599-1.2158203-2.4604492-.2616692.0325508-.4073658.1882286-.6845703.5854492-.7910156 1.0917969-1.4672852 1.7998047-2.5849609 2.1870117-1.199707.4169922-2.5463867.3422852-3.6918945-.2041016-.1611329-.0776368-.354004-.0292969-.4614259.1137695zm4.3994141.7993164c1.6606388-.5755081 2.3647976-1.7082253 3.1088867-2.684082.1015625.1342773.2607422.5415039.387207 1.7675781.0898438.8706055-.0957031 1.6479492-.5224609 2.1875-.824707 1.043457-2.4248047 1.0883789-3.5800781.5957031-.8540039-.3652344-1.5883789-.984375-2.2475586-1.6508789.9482422.1708984 1.9375.1020508 2.8540039-.2158203z"/><path d="m11.4672375 17.6656837c-1.1654959.495079-1.4428978 1.1905174-1.8000488 1.5400391-.9795065 1.5753212-.4633284 3.5390244.8900146 4.6599121.1799927.1500244.6300049.2800293.75.4699707.2000122.2800293.1099854.1000977.0300293.4700928-.1000366.4599609-.4200439.8800049-.5100098 1.3599854-.5084 2.5701027 1.2698269 4.8243504 3.7021484 5.1330566-.0254364 1.6152039 1.8438358 2.5272522 3.1228638 1.4689941 1.1692505.826416 2.5389404 1.5002441 4.0878296 1.953125 9.0151367 2.6351929 15.0442944-3.848114 11.8422871-12.0004883 1.7410736-1.4741726.4838829-3.7881374-1.1044922-3.3554688.1636963-.3842773.286499-.7646484.2993774-.8292236.1399536-.8800049.3599854-1.8299561.2199707-2.7299795-.4176826-2.7918634-3.6548767-4.1363993-5.9199848-2.5400391-.8400269-1.7600098-2.75-2.9500732-4.710022-2.9300537-1.9599609.0300293-3.8399658 1.2800293-4.6300049 3.0600586-2.4916096-.5598049-4.1371717.3355589-4.7799683 1.5600586-.3699951.6999512-.2800293 1.3199453-.1300049 2.0499258.1511308.6459542-.0864514.1597272-1.3599852.6600342zm3.9769897 13.0454102c.5140667.6643124.940855 1.0716705 1.581543 1.5947266-1.0275192.5966529-2.2198544-.5147953-1.581543-1.5947266zm17.8402119-8.7072754c-.2763672-.59375-.5997925-1.1588135-.9587402-1.6904297.6589088-.8591766 2.0139579.4922295.9587402 1.6904297zm-2.408205-2.4482422c.0467701.2734241.953249.987093 1.8420429 3.0222168-.0331001.1636524.0225868.2777653.1479492.3691406 3.0507889 7.665781-2.5590935 13.4954376-10.9162006 11.0541992-3.6983681-1.0807076-5.9003239-3.1760807-6.90271-5.4074707.4807072-2.6800003 2.7490425-4.1859245 3.869873-6.4780273.4500122-.8999023.7000122-1.9699707.5200195-2.9699707-.0391846-.2285156-.2202148-.5626221-.2485962-.8483887.2337646-.1411133.4716187-.2734375.7149658-.3967285 3.4714967 1.4506111 7.5897409-.3439541 10.9726564 1.6550293zm-10.4390259-5.6599111c1.5599976-.8300781 3.5900269-.6199951 4.9500122.5.3890743.3405323-.115839.892108-.4799805.5800781-1.1300049-.9300537-2.8200073-1.1101074-4.1100464-.4200439-.4413185.232213-.794136-.4185944-.3599853-.6600342z"/><path d="m6.7864513 63.2076759c-.2255859.2607422-.3032227.6425781-.2084961 1.0224648.3517671 1.3954926 3.5950041 4.0629883 5.4443359 4.0629883 1.0066805 0 1.6397047-.9918289.7509766-2.2675781-.8021526-1.147644-2.0405636-1.9902802-3.2852173-2.6324501l5.6934204-7.9539795c.288702-.4048843-.3218632-.8387642-.6103516-.4365234l-5.7797852 8.074707c-.7395628-.2877198-1.5326537-.4145508-2.0048827.130371zm3.078125 1.2480507c2.4988289 1.4079819 3.4799032 3.6175232 1.6030273 2.9785156-2.3525496-.7975311-4.5834522-3.1903687-4.1142578-3.7353554h.0004883c.4125433-.4785499 2.0481158.5237237 2.5107422.7568398z"/><path d="m22.4265881 67.7433243c-.2978516.2304688-.449707.590332-.3867188.9174805.291111 1.5137711 5.3236008 1.1930695 6.4799805.2001953.7235165-.6213074.5973206-1.76651-.8647461-2.0600586-.9351807-.1879883-1.7827759-.1069336-2.6152954.0808105.063879-.257103.1954327.3081207-4.3744507-9.7688026-.2058544-.4526443-.8884487-.1383133-.6816406.3115234 4.781147 10.3963051 4.2787285 9.4496803 4.4367676 9.6159706-.2938843.0817871-.5880737.1706543-.8859863.2619629-.6061784.1835251-.8566876.2466126-1.1079102.440918zm5.0810546-.2070313c.8716526.1751785.977581.6896591-.0161133 1.0180664-2.2086887.7325821-4.6571636.271347-4.715332-.0351563-.0467606-.2454987.683279-.4105301.9780273-.5 1.2543946-.383789 2.4365235-.7475585 3.753418-.4829101z"/><path d="m68.7898712 27.3854103c-.5362473-.2737427-1.0921631-.3567581-1.5932617-.546875-2.3386307-.8885632-3.7824783-4.5232296-6.8201904-4.4221191.2458267-1.2710934.0077705-2.2362556.3656006-3.0788574.5142441-1.210453 2.1525536-1.7537365 3.0610962-3.0192871 2.6154861.2069397 2.5205002.3577938.50354-1.1721182.5551605-2.8700542-2.8297234-4.9326286-5.6290894-2.4467773-1.5907974 1.4111881-1.2955818 2.4494247-4.3731689 5.164916-.5292969.0133057-1.0066528-.5465088-1.1556396-1.1170654-.1824112-.6966991-.0849991-1.5009375-.1972656-2.2949209-.1621094-1.1474609-.7495117-2.1796875-1.2670898-3.090332-3.229126-5.6764874-3.1788521-5.8421793-3.8017578-6.023438-.5239258-.1547852-1.0825195.1459961-1.4980469.7978516-.8129883 1.2714844-1.0839844 2.8691411-.7485352 4.3383794-1.4962654.7085505-2.0002785 2.6256924-.8984375 3.9833984-.5424805.3764648-.8286133 1.0996094-.7636719 1.737792.2364655 2.3137493 3.6253967 2.9725971 3.3959961 4.9267578-.0093384.0803223.0132446.1542969.0492554.2202148-1.619873-.0635242-2.7769089-1.07094-4.3656616-1.6367188-2.3032265-.8623905-3.9346809.063282-4.3740234 1.4550781-.3319702 1.055006.1353951 2.1442623 1.6606445 2.6303711-1.5741386 1.348484-1.2423134 3.8972206.9472656 4.4892578.2792969.0756836.5595703.1088867.8344727.0991211-.6784782 1.5901775.317524 3.2673836 2.0878906 3.2734375.3964844-.0131836.7675781-.0834961 1.0961914-.2431641.2622261 2.1689568 2.8806839 2.7458725 4.1337891 1.3168945.8343506-.9469738.7979736-2.2536087 1.0927734-4.5292969 0-.0004883.0004883-.0009766.0004883-.0009766.0062294-.054512.0625-.7047119.0439453-.7563477.6443367.2101231 1.28825.491415 2.2705078.5864258 1.1638184.1143799 2.3401489-.0756836 3.3952637-.5128174-.0596161 1.1770229-.2965431 2.5225792.7897949 2.9659424-.3400002.8983669.0344086 2.0389938.9155273 2.4550781.7852173.3696861 1.7579689.0651512 2.2978516-.5927734.9311371 1.2711601 2.745388.9255486 3.1928711-.5527344 2.1421814 1.7419205 4.4603348.3890686 4.0693359-1.3964844 2.2385711.4568522 3.3305587-1.9610498 1.2817382-3.0078123zm-24.0698242-11.265625c-.0421753-.4158926.1797485-.8911123.5402832-1.0754385l1.7453613 1.3322744c.3921165.3018475.8503418-.2942677.4550781-.5957022l-1.6983643-1.2965088c-.0222168-.0780029-.0632935-.1494141-.1312256-.199585-1.0985527-.8137789-.9731064-2.5834379.4102783-3.1523438 2.057972 2.0705805 1.9827194 2.1850586 2.2698975 2.1850586.3275909 0 .5005264-.3961315.2695313-.6357422l-2.1784058-2.2550049c-.5627632-2.1965303.671524-4.5230598 1.2706909-4.3685308.2322922.0678172.1793785.1018486 3.3588867 5.6748052.5087891.894043 1.034668 1.8183594 1.1772461 2.824707.1576805 1.1126356-.2216263 3.1243391 1.3934937 3.902709-1.4128151 1.1198311-3.8757439 2.587532-5.5349731 2.84021.0136108-.0319824.0429688-.0539551.0472412-.0900879.2930908-2.4980142-3.1999855-3.1723383-3.3950195-5.0908201zm8.199707 11.1611328c-1.5485268-.1507416-1.8616142-.676754-2.480896-.5517578-.0073853-.1049805-.0543213-.206543-.1450806-.2744141-1.043457-.7797852-1.9326172-1.7919922-2.5722656-2.9272461-.2415428-.431488-.8971481-.0655651-.6533203.3681641.6904297 1.2255859 1.6503906 2.3183594 2.7763672 3.159668.0351563.026123.0773926.0266113.1170044.0389404-.1494827.3134537-.1393356.7164707-.1731567 1.0128174-.2893753 2.266304-.2789803 3.4065857-.9116211 4.125-.4672852.53125-1.3598633.6894531-1.9887695.3496094-.6391602-.340332-.9887695-1.1582031-.7954102-1.8623047.0113525-.0415039-.0058594-.0803223-.008667-.1213379.4915771-.6516113.8617554-1.3933105 1.0848389-2.1804199.0566406-.1992188-.0595703-.40625-.2587891-.4628906s-.40625.0600586-.4628906.2587891c-.2631836.9296875-.7583008 1.7880859-1.4316406 2.4814453-.0036011.0036621-.0018311.0095215-.005249.0131836-.6943359.3590641-1.5587425.2082634-2.0084229-.3305664-.5757484-.6790581-.3791046-1.8449631.3120117-2.34375.1295547-.0792561.1926003-.1175117.2459106-.2409668.5675659-.3608398 1.0695801-.8239746 1.4469604-1.3811035.2786026-.4120541-.343483-.8308735-.6210938-.4208984-.7990074 1.1815166-1.8889313 1.5000076-2.1066284 1.6201172-.2546997.0340576-.5245972.0195313-.7957153-.0537109-2.1004601-.5694904-1.5039749-3.1603451.0029297-3.543457.3910561-.0991573.3674889-.6627216-.0263672-.7324219-.7900391-.1411133-1.6616211-.3452148-2.0078125-.9863281-.1791992-.3310547-.1298828-.6767578-.0571289-.9086914.1357422-.4296875.4633789-.8183594.8588867-1.015625 1.292099-.6601257 2.8598442.1257648 4.0415039.7177734 2.201004 1.1033058 3.3219719 1.4240189 5.800293.3544922 2.270153-1.0055943 4.2632408-2.4061832 5.9736328-4.2338867 2.0036697-2.1412134 1.8479767-2.8316326 3.1064453-3.9492178 2.0991783-1.8647251 4.525444-.6415195 4.4517822 1.3861084-.3468018-.1624813-.3999062.1200733-.4677124.3707275-.1208.4482307-.4078751.5910101-.493103.6958008-.0778809.0959473-.0978394.2825928-.0396118.3916006.0531006.0996094.1515503.1326904.258728.147583-.2980957.3048096-.6518555.5786133-1.026001.8577881-1.77034 1.3195305-2.0547867 1.9271221-2.0991211 3.8261719-.013176.6236515-.0265465.9471169-.1915283 1.6140137-.224987.08284-.3325157.3626919-.1671753.5766602-.9687422 2.742067-3.5456465 4.4404599-6.4821166 4.1545407zm13.6831055 2.0083008c-.4604645-.1640339-.7197495.5104942-.2758789.6972656.5098953.2141571.5947495.9264126.3198242 1.3232422-.6021957.8703613-2.0243988.6050091-2.7597656-.1513672-.7597656-.7836914-1.3139648-1.7539063-1.6030273-2.8061523-.1306725-.4760151-.8552589-.2814503-.7236328.1992188.2399292.8718262.6442871 1.692627 1.1835938 2.4161377.0006104.0288086-.013916.055542-.0063477.0843506.2235756.8630409-.823555 1.8000259-1.6982422 1.050293-.2421875-.2080078-.3837891-.4873047-.3886719-.765625-.0080948-.4740086-.7105064-.4941006-.7485352-.0239258-.0273438.3359375-.25.6557617-.5952148.8554688-1.3225594.7651024-2.1289444-1.0159035-1.347168-1.7724609.3099022-.3008537-.0536728-.8003674-.4335938-.6025391-.0478516.0263672-.1079102.0268555-.1782227.0043945-.5456505-.173912-.4201469-.8615036-.3358154-2.6469727 1.513916-.869873 2.6427002-2.3125 3.1650391-3.9616699 2.6661873-.3607044 4.1955795 3.3785019 6.7528076 4.3508301.5316849.2010479 1.0782471.2881718 1.5185547.5136719.3574219.1826172.7041016.5371094.6738281.9165039-.0327148.4121094-.5078125.7001953-.9296875.7304688-.6075363.0469187-1.2485809-.2831594-1.5898437-.411133z"/><path d="m61.0537872 14.4088488c.3171997 0 .5743408-.2572021.5743408-.5744629 0-.3171387-.2571411-.5742188-.5743408-.5742188s-.5743408.2570801-.5743408.5742188c0 .3172607.2571411.5744629.5743408.5744629z"/><path d="m58.629715 17.4952736c.0014648-.2070313-.1655273-.3759766-.3725586-.3774414-.0009766 0-.0014648 0-.0024414 0-.2060547 0-.3735352.1660156-.375.3725586-.0107422 1.5898438-.7929688 3.1899414-2.0405273 4.1748047-.3895836.3076878.0749397.8958111.4648438.5888672 1.4438475-1.1396485 2.3129882-2.9189454 2.3256835-4.7587891z"/><path d="m5.5745373 15.206212c2.0910044 1.975173 2.0147877 2.0732412 2.2890625 2.0732412.3346338 0 .5027142-.409708.2612305-.644043l-2.027832-1.9672842c-.3553396-.3447856-.8790203.1920825-.522461.538086z"/><path d="m8.7664318 15.728673c-.5380859-.6166992-.8876953-1.4033203-.984375-2.215332-.0590544-.4874907-.8038878-.405982-.7451172.0888672.1147461.9604492.5283203 1.890625 1.1650391 2.619628.3247776.3742484.8914833-.1192475.5644531-.4931632z"/><path d="m5.3826427 17.9737892c1.710547.5597973 2.1029453 1.3222656 2.4624023 1.3222656.3486757 0 .5086536-.4382801.2412109-.6621094-.7216797-.605957-1.5761719-1.0805664-2.4702148-1.3730469-.4730167-.1549739-.703987.5587522-.2333984.7128907z"/></g></svg>