<svg id="Layer_1" height="512" viewBox="0 0 512 512" width="512" xmlns="http://www.w3.org/2000/svg"><g><g><g><path d="m444.5 317.5h-377c-36.1 0-65.5-29.5-65.5-65.6 0-30 20.8-56.2 49.4-63.5 3.4-56.2 49.8-100.4 106.3-100.4 15.1 0 30.1 3.2 43.8 9.4 26.2-46.4 74.6-75 128.3-75 81.3 0 147.5 66.2 147.5 147.5 0 8-.7 16.1-2 24.1 21.3 11.3 34.8 33.3 34.8 57.9-.1 36.1-29.5 65.6-65.6 65.6zm-286.8-213.1c-49.7 0-90.1 40.4-90.1 90.1v7.1l-7 1.6c-24 3.4-42.2 24.3-42.2 48.6 0 27.1 22.1 49.2 49.2 49.2h376.9c27.1 0 49.2-22.1 49.2-49.2 0-20.1-12-38-30.7-45.5l-6.3-2.6 1.4-6.7c1.9-9 2.8-18.1 2.8-27.1 0-72.3-58.8-131.1-131.1-131.1-50.1 0-95.1 28-117.4 73.1l-3.8 7.7-7.5-4.1c-13.3-7.2-28.3-11.1-43.4-11.1z"/></g><g><path d="m444.5 317.5h-377c-36.1 0-65.5-29.5-65.5-65.6 0-30 20.8-56.2 49.4-63.5 3.4-56.2 49.8-100.4 106.3-100.4 15.1 0 30.1 3.2 43.8 9.4 26.2-46.4 74.6-75 128.3-75 81.3 0 147.5 66.2 147.5 147.5 0 8-.7 16.1-2 24.1 21.3 11.3 34.8 33.3 34.8 57.9-.1 36.1-29.5 65.6-65.6 65.6zm-286.8-213.1c-49.7 0-90.1 40.4-90.1 90.1v7.1l-7 1.6c-24 3.4-42.2 24.3-42.2 48.6 0 27.1 22.1 49.2 49.2 49.2h376.9c27.1 0 49.2-22.1 49.2-49.2 0-20.1-12-38-30.7-45.5l-6.3-2.6 1.4-6.7c1.9-9 2.8-18.1 2.8-27.1 0-72.3-58.8-131.1-131.1-131.1-50.1 0-95.1 28-117.4 73.1l-3.8 7.7-7.5-4.1c-13.3-7.2-28.3-11.1-43.4-11.1z"/></g><g><path d="m436.3 161.8h-16.4c0-45.2-36.8-81.9-81.9-81.9v-16.4c54.1 0 98.3 44.1 98.3 98.3z"/></g></g><g><path d="m235.5 339.1h16.4v55h-16.4z" transform="matrix(.894 .447 -.447 .894 189.693 -70.287)"/></g><g><path d="m153.6 429.3h16.4v55h-16.4z" transform="matrix(.894 .447 -.447 .894 221.351 -24.127)"/></g><g><path d="m71.6 339.1h16.4v55h-16.4z" transform="matrix(.894 .447 -.447 .894 172.391 3.001)"/></g><g><path d="m399.4 339.1h16.4v55h-16.4z" transform="matrix(.894 .447 -.447 .894 206.995 -143.576)"/></g><g><path d="m317.5 429.3h16.4v55h-16.4z" transform="matrix(.894 .447 -.447 .894 238.653 -97.416)"/></g><g><path d="m157.7 399.4c-13.6 0-24.6-11-24.6-24.6s11-24.6 24.6-24.6 24.6 11 24.6 24.6-11.1 24.6-24.6 24.6zm0-32.8c-4.5 0-8.2 3.7-8.2 8.2s3.7 8.2 8.2 8.2 8.2-3.7 8.2-8.2-3.7-8.2-8.2-8.2z"/></g><g><path d="m329.7 399.4c-13.6 0-24.6-11-24.6-24.6s11-24.6 24.6-24.6 24.6 11 24.6 24.6-11 24.6-24.6 24.6zm0-32.8c-4.5 0-8.2 3.7-8.2 8.2s3.7 8.2 8.2 8.2 8.2-3.7 8.2-8.2-3.6-8.2-8.2-8.2z"/></g><g><path d="m247.8 489.5c-13.6 0-24.6-11-24.6-24.6s11-24.6 24.6-24.6 24.6 11 24.6 24.6-11 24.6-24.6 24.6zm0-32.8c-4.5 0-8.2 3.7-8.2 8.2s3.7 8.2 8.2 8.2 8.2-3.7 8.2-8.2-3.7-8.2-8.2-8.2z"/></g><g><path d="m436.3 489.5c-13.6 0-24.6-11-24.6-24.6s11-24.6 24.6-24.6 24.6 11 24.6 24.6-11.1 24.6-24.6 24.6zm0-32.8c-4.5 0-8.2 3.7-8.2 8.2s3.7 8.2 8.2 8.2 8.2-3.7 8.2-8.2-3.7-8.2-8.2-8.2z"/></g><g><path d="m75.7 489.5c-13.6 0-24.6-11-24.6-24.6s11-24.6 24.6-24.6 24.6 11 24.6 24.6-11 24.6-24.6 24.6zm0-32.8c-4.5 0-8.2 3.7-8.2 8.2s3.7 8.2 8.2 8.2 8.2-3.7 8.2-8.2-3.6-8.2-8.2-8.2z"/></g></g></svg>