<svg id="Layer_1" enable-background="new 0 0 75 75" viewBox="0 0 75 75" xmlns="http://www.w3.org/2000/svg"><g id="Catching_Rat" fill="rgb(0,0,0)"><path d="m58.5781822 49.4957008c-.4100342-5.3399658-1.2999878-10.619873-2.6500244-15.7800293-.289978-1.0998535-.7600098-2.3598633-1.9599609-2.6699219-.8600464-.2099609-1.8000488.1500244-2.6900024.3900146-2.0800171.5899658-4.5100098.5999756-6.3600464-.2999268-1.7865257-.8470631-2.8636055.0168018-3.539978 1.8999023-1.8764687 5.2237396-2.9033852 10.7971115-3.0200195 16.0400391-.1406937 4.3063049 1.6346397 5.2082024 5.7900391 4.8399658 10.6058846-.9220238 12.1172409-.8541832 13.3599854-1.7000732h.0100098c1.0445516-.6871947 1.1647451-1.4834288 1.0599973-2.7199706zm-10.8200073-10.7099609c-.5800171.2199707-1.210022-.0200195-1.4099731-.5300293-.1900024-.5200195.1199951-1.119873.6999512-1.3399658.5700073-.2199707 1.2000122.0200195 1.4000244.539917.2000121.5100097-.1099854 1.1101074-.6900025 1.3300781zm.4400024-2.9099121c-.5800171.2199707-1.210022-.0200195-1.4000244-.5400391-.1999512-.5200195.1100464-1.1101074.6900024-1.3300781.5700073-.2199707 1.2000122.0200195 1.4000244.5300293.2000123.5200195-.1099853 1.1199951-.6900024 1.3400879z"/><path d="m5.8826237 62.7457008c-.2762918 1.5899849.5067158 2.939785 2.1777344 3.2636757 1.6378212.3179169 4.6949224-.3796539 6.4187012-1.0179443-.3703003 1.0501709-1.0549316 2.0061035-1.9304199 2.692749-.2987051.2326965-.0940561.7093658.2612305.6689453l.8666992-.0693359c.0270653.151207-.0471554.4186172.1958008.5664063.1106796.0653152.2405796.0697174.3486328.0205078 1.0649414-.4833984 2.0405273-1.1992188 2.8203125-2.0712891.0065918-.0074463.0031738-.0181885.0090942-.0258789.1002808.0388184.1978149.09021.2994995.121582-.7568874 1.569931-1.4814558 1.6790543-1.2661133 2.1386719.065918.1386719.2006836.2304688.3637695.2138672.3383789-.0214844.6762695-.0390625 1.0146484-.0546875l-.0566406.2197266c-.0572739.2326126.1177349.4638672.3642578.4638672.3913021 0 2.2273788-.7130203 3.4848633-2.1621094 2.4223633.4335938 4.7954102.2421875 6.9711914-.5595703-.1619816.6006241.0173035 1.2307053.5175781 1.5224609.7226563.4316406 1.5498047-.0693359 1.9013672-.2832031 3.9410534-2.3458099 4.2938671-2.4632874 4.3930683-3.0410156.1793938-.9251938-.9919167-1.2802582-1.2353516-1.5693398-.1704102-.203125-.2075195-.5634766-.0913086-.9287109.1755829-.6074257.5008354-.9309044.6962891-1.6445313.132-.4766006-.5899277-.6808014-.7226563-.1992188-.1692009.6042786-.5110321.9996223-.6914063 1.6259766-.1948242.6123047-.1074219 1.2216797.2348633 1.6289101.245842.2912674.6038742.4429474.8081055.5791016.1713867.1210938.2827148.2753906.2636719.3730469-.0200195.1181641-.2373047.2460938-.3686523.3242188-3.7518806 2.2624359-4.3641796 2.7554779-4.8066425 2.4882813-.2815018-.1620789-.2511005-.6604996-.0585938-.9384766.3625755-.5118713.5995293-.5546341 1.071106-.8269043.6616898.219635 1.3820019.2208405 1.9904194-.0852051.4429245-.2220535.1073265-.8926239-.336916-.6699219-.5830078.2919922-1.3901367.1865234-2.0546875-.2734375-.6699219-.4658203-1.1391602-1.1972656-1.5102539-1.8525429-.2455769-.4347534-.8962574-.0603333-.6523438.3691406.9585304 1.6944618 1.6426163 2.0014915 1.7402954 2.1025429-.0132446.0087891-.0309448.0175781-.0435181.0263672-2.2384644 1.1541748-4.8022461 1.543335-7.4512939 1.1542969.4205933-.5952148.7583618-1.243042 1.0074463-1.9335938.1676044-.4632416-.5344524-.7246017-.7050781-.2539063-.6435795 1.7819061-2.0251637 3.3533096-3.8154297 4.0751953l.0102539-.0400391c.0554905-.2278061-.1123123-.4736023-.3808594-.4638672-.2216797.0097656-.4438477.0195313-.6655273.0302734.3528442-.4680176.6309814-.963501.8481445-1.463623.0048828-.0080566.0141602-.0112305.0185547-.0197754.4892578-.9638672.8037109-1.9960938.934082-3.0683632.0605679-.4892006-.6851463-.5877609-.7441406-.0898438-.1004639.823246-.3256226 1.6186562-.6577759 2.3759804-.8125-.2258301-1.5821533-.7434082-2.2363892-1.498291 1.7700195-.6258545 3.3278198-1.8913612 4.2701416-3.5114784.249485-.4286919-.3990364-.8058281-.6484375-.3769531-.9436646 1.6228027-2.5699463 2.8474121-4.3833008 3.3339882-.0134888.0036621-.0272827-.0032959-.0405273.0019531-.1582451.0629272-.1593151.0401154-.296875.1062012-1.7436209.6603928-4.6904974 1.3115005-6.1303711 1.0324707-.608912-.1177063-1.1502824-.4273911-1.4223022-.9929199 1.0969996.038826 2.0467949-.2468109 2.8353882-.7414589.4195576-.2617836.0239944-.8984947-.3984375-.6347656-.7714844.4832764-1.7158203.6918945-2.6224365.6088867-.0609298-.8922195.3325901-1.6675949.8123779-2.5102539 2.1912136-3.7970772 3.287487-3.9860954 2.8613281-4.5097656-1.5174913-1.8587456-1.2425365-3.5975037-.2905273-4.3496094.8275452-.6661224 2.2782068-.4842033 2.4472656 1.1132813.1218939 1.4124641-.1643162 1.5391655.144043 1.7617188.1118164.0810547.2592773.0917969.3842773.0322266.9829102-.4832764 2.135498-.5700684 3.1983032-.2741699-.0216064.611084-.0181274 1.2229004.0404663 1.829834.0471916.4917908.7941895.42276.7460938-.0722656-.0743408-.7763672-.0710449-1.5627441-.0074463-2.3415527.1838989-.6955566.434082-1.4053955.9078369-2.0422363 1.2952557-1.797123 3.3362083-1.8493614 4.2612305-.7285156.9805164 1.2081375.219717 3.451786.2397461 3.3515625-.3295898.9697266-.9516602 1.8564453-1.7514648 2.4960938-.3878536.3116913.0820389.8909492.46875.5859375.7610474-.6096191 1.3676147-1.4202881 1.7694092-2.3129883 4.8401279-2.8466988 10.6706486-.0948067 11.0128193 4.0112305.0410461.4949303.7879257.4324799.7470703-.0625-.0566406-.6845703-.2514038-1.3552246-.553833-1.9694824 1.1103516-1.619873 1.4916992-3.7097168 1.0137939-5.614502-.6733856-2.6858673-2.8182869-4.6367302-3.4760761-7.1699219-.34375-1.3271484-.15625-2.6357422.5014668-3.5019531.2594299-.3406448-.1685772-.7793159-.5156269-.5322266-1.6962891 1.2060547-2.4956055 3.5292969-1.8999023 5.5253906.6984062 2.3385048 3.0487347 3.9188271 3.2885761 6.1914063.1044922.984375-.3725586 2.1777344-1.3515644 2.4697266-.0088501.0025635-.0148926.0092773-.0233765.0124512-2.5586243-1.6018715-5.748497-1.6434822-8.3867798-.3972168 1.2415791-5.5461388-5.2461433-6.378273-6.8880615-.8203125-.1163101.1283417-.0948334.212162-.1040649.3125-.9868774-.2391357-2.0321045-.1911621-2.9839478.1376953.0201969-.9228325-.0617237-1.8468666-.7094727-2.5039063-.7553711-.7578125-2.097168-.7900391-2.9873047-.0732422-1.2363739.9763718-1.5832763 3.064724-.0161133 5.1621094-1.012207 1.2011719-1.9321289 2.5146484-2.7373047 3.9101563-.3457031.6064449-.7265625 1.3203121-.8745117 2.1162105zm10.4597778 3.6853066c-.5617065.5963135-1.2139282 1.1159668-1.9348755 1.5090332l-.0043945-.0820313c-.0117321-.2033539-.1802931-.3633118-.4042969-.3525391l-.1777344.0146484c.548645-.6048584.9830322-1.3146973 1.2803345-2.0715332.3839111.3977052.8008423.7246095 1.2409668.982422zm17.3488178-14.0896034c-.3699989-3.5045586-5.0063076-5.4509506-3.0136738-9.46875-.3839035 3.5404472 2.8724804 6.1488686 3.6416035 9.2158203.3990479 1.5906982.1224365 3.3220215-.7250977 4.7219238-.3571777-.5137939-.7919922-.9890137-1.3126221-1.4040527 1.0665284-.5957032 1.5278321-1.9479981 1.4097901-3.0649414z"/><path d="m12.7242985 58.9102516c.0029297.4782715.3341064.8642578.7396851.8616943.4056396-.0025635.7320557-.392334.729126-.8707275-.0029297-.4785156-.3341064-.8642578-.7396851-.8618164-.4056397.0024414-.7320557.392334-.729126.8708496z"/><path d="m26.3523502 56.553318c1.2348633.1660156 2.4272461.7880859 3.2719727 1.7041016.3328114.3590889.8888092-.1413994.5517578-.5078125-.9755859-1.0585938-2.2978516-1.7470703-3.7231445-1.9404297-.4999466-.0552826-.5854512.6771851-.100586.7441406z"/><path d="m21.8752995 52.8404274c.3157005.3830185.8944263-.0968437.5771484-.4785156-1.5323105-1.8456764-5.1190834-.4405022-4.6640625 3.3925781.0593071.4946556.8035355.4028206.7451172-.0878906-.0898438-.7539063.0024414-1.4521484.2670898-2.0175781.6778317-1.4504014 2.315403-1.7209588 3.0747071-.8085938z"/><path d="m10.1336002 52.8355446c-.1757813.7900391-.0180664 1.6298828.4316406 2.3037109.2703524.405529.9013634-.0005951.6240234-.4160156-.3320313-.4970703-.453125-1.1416016-.3232422-1.7255859.1072627-.4826813-.6242999-.6486588-.7324218-.1621094z"/><path d="m26.8381901 37.4957008 1.5899658.4100342c.4800415.1300049.9800415-.1600342 1.1000366-.6400146l2.2576294-8.753418c1.0951557 3.796875 3.7367573 7.1779785 7.1934834 9.0820313.4330826.2422333.7954788-.4180603.3623047-.65625-3.6989136-2.0372314-6.4064331-5.8551025-7.1467896-10.0115967l5.0733643-19.6707764c.1300049-.4899902-.1600342-.9799805-.6500244-1.0999756l-1.5899658-.4100342c-.4800415-.1298828-.9700317.1600342-1.0900269.6500244l-4.3569355 16.8597412c-.3170776-.0953369-.6401978-.0810547-.9573975.0546875-.8977737.3729057-1.1608086 1.3184452-1.3398438 2.1464844-.2622719 1.0718956-.001564 1.717207 1.0898438 1.9082031.1011906-.0124607.2517948-.0310059.1516724-.0186768l-2.3373413 9.0595703c-.1199952.4801027.1699829.9700929.6500244 1.0899659zm1.1816406-11.8945312c.131031-.604248.299263-1.3511543.8950195-1.6005859.1548786-.0655556.3012123-.0785847.4614258-.0263672 1.0354519.3220901 2.2696075 3.2555218-.6972656 2.6835938-.0019531-.0009766-.1743164-.03125-.1762695-.03125-.5017281-.0888463-.6895142-.1709557-.4829102-1.0253907z"/><path d="m39.350399 10.0669909c-.7314453 1.1621094-.9106445 2.7597656-.4916992 4.3818359.2721558 1.0546875.7523804 2.0203848 1.2614746 2.9506826-1.757.559597-1.3702393 3.0799618.4157715 3.159668h.0166016c.0181885 0 .0340576-.0075684.0515747-.0102539.0287476 1.1668701.220459 2.2316895.5831909 3.2075195 1.2773438 3.4208984 4.8222656 5.734375 8.4804688 5.734375 3.9330826 0 7.300209-2.7581215 8.6086426-6.2469482 1.4838448.2116222 2.4821739-.9531612 2.1888428-2.1088867.179348-.0124435.2960968-.131916.3348389-.269165.7739944-2.7445526-.1552391-5.7963209-1.4477539-7.2080069-.3271484-.3583984-.3271484-.3583984-.0439453-.8789063 1.9688721-3.6248131-1.4353905-7.3227601-4.9794922-6.094727-.4347916.1506076-1.1570549.8042946-1.3847656.8115234-.2220421.0014753-.5663757-.5612268-.8071289-.8046875-2.1575356-2.1813846-4.9367561-1.9183793-6.1889648-.2412109-.3964119.5311136-.3470421.9538527-.5571289 1.4462891-2.223202-.4757467-4.8199923.2302145-6.0405276 2.1708989zm1.1369629 7.9963369c.1837578.3090725.1364937.2814674.2345581.3752441-.0593262.4732666-.1033325.9360352-.117981 1.3795166-1.2266006-.1803817-1.0649566-1.6204853-.1165771-1.7547607zm10.5637207 10.5534668c-3.7436523.6835938-7.8530273-1.6191406-9.1611328-5.1220703-1.0697327-2.8767586-.2497749-5.7845383-.1279297-6.8341064.4878616-.6467724 1.829895-1.6819839 3.1572266-2.118041 2.6881638-.8833866 3.7815132.6318789 6.2216797.7177734.6787109.0136719 1.3208008-.1279297 1.8930664-.4404297.2581139 2.5211344 3.8948479 3.243228 4.1958008 3.4345694.3581886.1260014.6990204.6109581.8279419.9472656.5512275 4.1675929-2.6545601 8.622919-7.0066529 9.415039zm7.4641113-6.098999c.1557007-.5469971.2643433-1.1082764.3145142-1.6802979.0308228-.0028076.0618286-.0026855.09198-.0136719.293457-.109375.684082.0908203.8081055.4052734.2289123.581091-.2642479 1.3406125-1.2145997 1.2886964zm-13.2800293-13.8883047c1.0989876.2275438.8489952-1.1092787 1.3134766-1.7304692.2495117-.3339844.574707-.5986328.9414063-.7666016.8100586-.3740234 1.84375-.3349609 2.7631836.1015625 1.7039909.807898 1.7301216 2.0527997 2.7143555 2.0117192.5956612-.0183544 1.2017136-.71311 1.6069336-.8525395 2.9034767-1.0069308 5.7222443 1.9939818 4.074707 5.0283208-.3984375.7324219-.4819336 1.0507813.1494141 1.7421875.9565048 1.0445013 1.9054031 3.5417395 1.3974609 6.0146475-.3691864-.168541-.7760391-.240921-1.168457-.2128906-.1214066-.9516087-.6442337-2.0986996-1.5488281-2.4179688-.949585-.3315773-1.9791451-.6682205-2.7680664-1.2773438-.5991211-.4619131-1.1269531-1.319335-.8706055-2.1083975.1186523-.3625555-.3204384-.6478319-.605957-.3964844-1.5271378 1.362915-3.2345848.55655-5.1547852-.0263672-3.1805115-.9712849-6.7337227 1.5816135-7.3422852 3.2285147-.4707031-.8652344-.9082031-1.7607412-1.1518555-2.7060537-.8887596-3.4393702 1.1675301-6.2536335 5.6499023-5.6318359z"/><path d="m51.4369469 18.4581032c-.5065308-.1439209-1.0878906.3408203-1.298584 1.0825195s.0291138 1.4594727.5355835 1.6035156c.5065308.1437988 1.0878906-.3408203 1.298584-1.0825195s-.0291138-1.4597168-.5355835-1.6035156z"/><path d="m45.3495445 18.8663063c.2106934-.7416992-.0291138-1.4597168-.5355835-1.6035156s-1.0878906.3408203-1.298584 1.0825195.0291138 1.4595947.5355835 1.6035156c.5065308.1437989 1.0878907-.3408203 1.298584-1.0825195z"/><path d="m54.5491295 9.3365221c1.0180664.0263672 1.9873047.7890625 2.2539063 1.7734375.1290092.4795885.8536644.2826443.7236328-.1953125-.3554688-1.3134766-1.5991211-2.2919922-2.9580078-2.328125-.5376244.0426083-.4788285.7370005-.0195313.75z"/><path d="m46.4329185 66.3121109c1.6261597-1.3916702.9785995-3.2762985-.3894653-3.3657265l-.1984253-8.2387695c-.011013-.516346-.7614098-.4661102-.75.0175781l.1989746 8.2618408c-1.1189041.1623421-2.099453.7406769-2.8430176 1.5604286-1.0384216 1.141304-.6455078 2.3812943.625 2.6640625 1.1950455.2640687 2.4105797-.0900115 3.3569336-.899414zm-3.4267578-1.2607422h.0004883c.8719673-.9616699 2.0301094-1.4054413 2.9575195-1.3632851.7637901.0153923 1.0437622 1.1447029-.0185547 2.0537148-1.6139869 1.3805618-4.3796348.8949432-2.9394531-.6904297z"/><path d="m51.1462975 65.2027359c.2633286 1.3961411 1.9918365 2.4404297 3.4824219 2.4404297 2.4608269 0 2.8492737-2.1777573.2666016-3.7011757-.5200806-.3063965-1.0723877-.489624-1.6397705-.5743408l-.4827881-8.9119873c-.0284119-.5212669-.7748756-.4355011-.7490234.0410156l.477417 8.8128662c-.8572427.0302315-1.558468.8161049-1.3548585 1.8931923zm1.3823242-1.1435547c.206974-.0056.1707153.0031586.3292847.0136719.0136719.0014648.0258179.0078125.039856.0078125.0068359 0 .0136719 0 .0209961-.0009766.1037674.0313187 1.3963203.0295029 2.5839844 1.3076172h.0004883c1.4628525 1.569313-1.3084106 2.0798569-2.9311523.7255859-1.0647547-.8899841-.8084948-2.0306472-.0434572-2.0537109z"/><path d="m66.4148483 32.0787086c.5688477-.1669922 1.2133789-.3574219 1.7543945-.7421875 1.4065018-.9993839 1.2023773-2.6881695.1938477-3.2333984-.7822266-.4267578-1.8813477-.1767578-2.5722656.2333984 0 0 0 0-.0004883 0-.9831543.5845795-1.8144989 1.8959484-1.5723267 2.9429932-2.2369957 1.3519287-4.9658165 1.9498291-7.5429039 1.6243896-.4899101-.0685196-.5880775.6830826-.09375.7441406 2.7195053.3436317 5.614502-.2737007 8.0112267-1.7169189.5034714.4381142 1.1825409.3373566 1.8222656.147583zm-.2407226-3.0976562c.5175781-.3066406 1.3344727-.4882813 1.831543-.21875.5320129.2873058.6613541 1.3007145-.2709961 1.9628906-.4389648.3125-.9946289.4755859-1.53125.6347656-.4052734.1181641-.9003906.2255859-1.1362305-.0039063-.3535919-.341957-.0436554-1.6916198 1.1069336-2.3749999z"/><path d="m18.9119205 27.8628883c-.5239258-1.6591797-1.34375-3.1865234-2.4360352-4.5400391-.2068043-.2558403-.6222506-.1395836-.6640625.1884766-.1430664 1.1279297-.0693359 2.2822266.2109375 3.3828125-1.0224609-.5722656-1.9501953-1.2910156-2.765625-2.1435547-.2711973-.2844257-.7438917-.0103893-.6298828.3681641.4926758 1.6220703 1.2045898 3.1621094 2.1186523 4.5839844-1.159668.0419922-2.3481445-.2041016-3.3959961-.703125-.3831682-.1784306-.7217903.3107166-.4248047.6054688 1.2026987 1.1897392 2.7962971 2.7162476 2.8173828 2.8164063.0009766.0087891-.0014648.0625-.175293.2490234l-2.480957 2.6689453c-.2236834.238472-.0517302.6298828.2744141.6298828.1207609 0-.0605192.0367699 3.6943359-1.3037109.4695559-.1671104.2088699-.8777542-.2539063-.7050781l-2.1157227.7597656c2.432827-2.6137695 2.4211912-2.0335197-.0527344-4.4814453.9262695.21875 1.8920898.2773438 2.8261719.1601563.2790508-.0334435.4236107-.3524513.2626953-.5859375-.7602539-1.0957031-1.390625-2.2695313-1.8828125-3.5039063.8071289.6611328 1.6928711 1.21875 2.6464844 1.6640625.1376953.0634766.300293.0380859.4121094-.0634766.4060974-.3724041-.42033-.9367847-.40625-3.3115234.734375 1.0703125 1.3173828 2.2607422 1.7060547 3.4912109.1492846.472536.8642046.2471923.7148439-.2265626z"/><path d="m18.0574284 33.3589821c.1006947 0 1.8116283-.0675278 1.7109375-.0683594.4640656-.0196991.4991627-.7234116-.03125-.75l-1.6943359.0683594c-.206543.0087891-.3676758.1826172-.359375.3896484.0078124.2021485.173828.3603516.3740234.3603516z"/><path d="m20.176569 30.8609352-.8833008-.4267578c-.4436417-.213604-.7745838.4574451-.3261719.6757813.8725014.407711.899107.4638672 1.046875.4638672.3977604-.0000001.5209256-.5407429.1625977-.7128907z"/><path d="m48.8645592 22.1880836c-.3608055-.0393085-.3531876.2369194-1.6650391 1.6806641-.4768219-.7671719-.5658569-.9473534-.7548828-1.0996094-.4458008-.3535156-1.0834961-.1708984-1.4179688.203125-.2954102.3320313-.3911133.7539063-.4682617 1.0927734-.1094093.4818516.6207542.6535206.7314453.1660156.0610352-.2685547.1298828-.5722656.2963867-.7587891.1088867-.1220703.3110352-.1816406.390625-.1162109.1030617.0824509.5533409.8568134.855957 1.34375.0629883.1015625.1708984.1669922.2900391.1757813.3067436.0441723.3390388-.2245331 1.6010742-1.6328125l.7666016 1.6152344c.2118645.4496136.8905602.1263943.6777344-.3203125-1.0210571-2.0217876-.948864-2.3000946-1.3037109-2.3496094z"/></g></svg>