<svg id="Layer_1" enable-background="new 0 0 75 75" viewBox="0 0 75 75" xmlns="http://www.w3.org/2000/svg"><g id="Chalk_Drawing" fill="rgb(0,0,0)"><path d="m6.0319672 11.7220745.7119141 22.649416c.0195313.5644531.4882813.9697266 1.0576172.9926758 10.2784424-.3110962 20.7054443-.3378906 30.9937744-.0809937.4982948.4268875 1.1991081.8752785 1.8509521.920105 7.3636971 9.8711205 6.9507561 9.6506348 7.3134766 9.6506348.3045959 0 .485672-.3487892.3017578-.5976563l-6.8769531-9.3157349c.1412354-.1390991.2407227-.3388062.3121338-.5787964.7110519.0202408 1.1203995-.4631386 1.1380615-.9907227l.7119141-22.649416c.0166016-.5649414-.4414063-1.0385742-1.0205078-1.0566406-4.12146-.1244507-8.2648926-.1893311-12.4123535-.2266235-.0280762-.0509644-.0643311-.0977783-.1159668-.1322632l-4.2047119-2.7897944c.6125965-.9492393-.068409-2.2052612-1.2015381-2.2052612-.9156036 0-1.6363297.8643093-1.3741455 1.8114014l-4.7420654 3.2417598c-.0328369.0224609-.0567627.0523071-.0799561.0821533-3.7900391.0409546-7.5759277.1048584-11.3428955.2186279-.5791017.0180664-1.0371095.4921875-1.0205079 1.0571289zm33.3642578 23.0946674c-.0378418-.1401978-.1516113-.2442627-.2982178-.2681274-2.8722916-2.7475929 1.5278282-4.052021 1.9378662-.6116943.0726433.7116051-.0074539.9240685-.0107422 1.0292969-.0001221.0054321.0025635.0100098.0025635.0153809-.0249634.1460991-.0899887.4263306-.2303467.4713135-.0063477.0005493-.0125732 0-.0189209.0008545-.2902031.0661925-.989521-.3206941-1.3822021-.6370241zm-15.7977295-27.0459609c.4123936.3982234 1.0389156.5352693 1.6147461.2559199l3.612793 2.4019165c-3.0430908-.020752-6.0847168-.0182495-9.1269531.0079346zm18.9041748 3.6441646c.1640625.0048828.2988281.1352539.2939453.2836914l-.6854248 21.8066425-.4567871-.2849731c-.4235191-1.493412-1.750782-2.4894428-3.1096191-1.9539814-4.1825409-2.6020985-3.7978973-2.3953972-3.9255371-2.4273071l-1.5656738-.2910767c.0913506-.2223549.0213432-.1385651-.5541992-3.6489258-.0200195-.1500244.0299072-.2999878.1298828-.4000244l2.4699707-2.3999634c.2700195-.2700195.1201172-.7300415-.2600098-.7800293-3.4089031-.5650597-3.5626183-.3755608-3.75-.75l-1.5198975-3.0800171c-.1700439-.3399658-.6500244-.3399658-.8199463 0-1.5521889 2.9868984-1.4391937 3.2725143-1.8701172 3.3300171l-3.3999023.5c-.380127.0499878-.5300293.5100098-.2600098.7800293 2.4424286 2.4610786 2.6799049 2.3990402 2.5999756 2.7999878l-.5799561 3.3900146c-.0700684.3799438.3299561.6599731.6599121.4899902 3.0577984-1.5288982 3.1028576-1.7979126 3.4699707-1.6000366 3.0981331 1.5519943 3.0239067 1.7411957 3.4033203 1.6114502 1.5395241 2.82658.9653854 2.0151711 1.3166504 2.3685913 1.0101738.7293816 1.2459831.9229908 3.4846191 2.5759296.1469688.3354607.3170052.5996017.4763184.7843018-10.0543213-.2355957-20.2319336-.2080688-30.2711182.0949097-.0029297 0-.0058594.0004883-.0078125.0004883-.1464844 0-.2724609-.1210938-.2773438-.2670898l-.7119139-22.6484394c-.0048828-.1464844.1328125-.2792969.2939453-.2841797 11.7519531-.3554687 23.6728515-.3554687 35.4267578 0zm-12.4934082 12.0740356c-.1600342 0-.3099365-.0999756-.3599854-.25-.1799316-.5299683-.5600586-.9899902-1.0500488-1.25-.1799316-.0999756-.25-.3299561-.1499023-.5099487.0999756-.1800537.3299561-.25.5100098-.1500244.6499023.3499756 1.1599121.960022 1.3999023 1.6699829.0825195.2237663-.0822926.4899902-.3499756.4899902z"/><path d="m60.1441498 30.8760052c-.7868652-.0588989-1.4725342.53125-1.5314941 1.3181782-.0588379.7868652.53125 1.4725342 1.3182373 1.5314331.7868652.0588989 1.4725342-.531311 1.5313721-1.3181763.0589599-.7869282-.5312501-1.4725361-1.3181153-1.531435z"/><path d="m52.6972504 30.5212688c.0588379-.7868652-.5313721-1.4725342-1.3182373-1.5314331s-1.4724121.531311-1.5313721 1.3181763c-.05896.7869263.53125 1.4725342 1.3182373 1.5314331.7868652.0588989 1.4724121-.53125 1.5313721-1.3181763z"/><path d="m55.4993744 52.8589783c.2698975.1000366.7799072.2800293 1.079834.5500488.1644363-.1096268 1.8484802-.12006 4.1601563-1.3300171.0499268-.0300293.0998535-.039978.1499023-.0499878-.1355324-2.2567024-.2894211-4.5246201-.6398926-7.0200195-.0700684-.4400024-.1401367-.9000244-.4700928-1.2600098-.902935-.9531517-2.736351-.4500122-3.4699707-.4500122-4.2706909.1847191-5.8106346-2.4139175-5.9500732-1.2299805-.01231.1024704-3.2573929 15.0183334-3.289917 15.1600342-.4322739 2.0258484-.0523949 2.7342377 1.9100342 3.3699951 2.3099365.7299805 4.7099609 1.2699585 7.1398926 1.6099854 1.5300293.2099609 3.3200684.2399902 4.25-.9199829.6101074-.75.6500244-1.8099976.6600342-2.7700195.0100098-1.9700317-.0200195-3.8699951-.1099854-5.7000122-2.0692291 1.0663795-3.6766205 1.198143-4.1799316 1.3099976-.210083.3800049-.7700195.7399902-1.0500488.9100342-1.4473419.851326-2.75.0572624-2.75-.9700317-.0172006-.9451868 1.0903701-1.7470132 2.5600585-1.2100221z"/><path d="m56.4079437 62.3797913c-.0009766 0-.0019531 0-.0029297 0-.2060547 0-.3740234.1660156-.375.3725586l-.029541 4.3889771c-1.2813873-.3479919-3.4686813-.3204041-3.7126465.9835815-.0859375.4511719.1435547.9462891.5712891 1.2329102.8519402.5675964 2.4350662.3217926 3.375-.1108398.6908607-.3195038 1.0527534-1.1744308.513916-1.7381592l.0319824-4.7515869c.0009766-.2070314-.165039-.3759767-.3720703-.3774415zm-.4882812 6.1860351c-.7521095.3472214-2.0796318.5438843-2.6435547.168457-.4175186-.2783432-.376709-.7658615.4697266-.9541016.6577606-.1476364 1.4595528-.1185608 2.2493896.1339111l-.0003662.0579834c-.0006104.144043.0821533.2657471.2008057.3293457-.0544434.1009523-.1379395.2008668-.276001.2644044z"/><path d="m64.3278656 46.6180725c-1.0840912-2.2436485-4.1442871-1.9421654-3.796875-1.0625.0761719.1928711.296875.2890625.4863281.2109375.9228516-.3637695 2.15625.1860352 2.6347656 1.1777344.680603 1.4103546.173111 3.5634422-2.4199219 5.0361328-.4352303.2458458-.0572891.8980827.3691406.6523438 2.9679109-1.6814423 3.5615769-4.2848702 2.7265626-6.0146485z"/><path d="m59.0104828 36.3197327c-1.3076172.78125-2.9492188.9501953-4.3935547.4550781-1.4423828-.496582-2.6328125-1.6411133-3.1845703-3.0625-.0742188-.1923828-.2890625-.2871094-.4853516-.2138672-.1933594.074707-.2890625.2919922-.2138672.4853516.6298828 1.6245117 1.9912109 2.9326172 3.6396484 3.5.6240234.2148438 1.2802734.3203125 1.9355469.3203125 1.078125 0 2.15625-.2851563 3.0869141-.8398438.1777344-.1064453.2353516-.3364258.1298828-.5141602-.1064453-.1777343-.336914-.2348632-.5146484-.130371z"/><path d="m62.2878265 18.0780315c-.997715-2.2011223-3.5063705-3.7853861-6.3632813-3.1240234-.4868393.1128912-.3082657.8464994.1699219.7304688 2.5844879-.6052284 4.8318138.9355831 5.6054688 2.9301758.0625.1601563.2158203.2553711.3974609.2363281 1.7529297-.2275391 3.5810547.5380859 4.6445313 1.9462891 1.0537109 1.3774414 1.3037109 3.3808594.6230469 4.9853516-.0507813.1176758-.0371094.2529297.0351563.3583984 1.166748 1.7011108 1.083252 4.1603394-.1546631 5.828125-.0076904-.0014648-.0153809-.0033569-.0229492-.0047607-.3069153-.2390842-.6679993-.3395081-1.0391846-.2188721-1.2212524-1.6009789-2.4198456-3.1651421-3.6757813-4.8046875-.1113281-.1450195-.3105469-.1875-.4697266-.1054688-1.3458939.6912098-3.1810875.3032093-4.0234375-1.2231445-.1991386-.3467178-.2212563-1.4590893-.734375-1.7416992-.162075-.0878487-.3562393-.0430794-.4628906.0820313-.1621094.1328125-1.0058594.7060547-1.1259766.7670898-.4898872.1943836-.8460541.1499329-1.2138672-.0302734-2.5877342-1.2060986-6.2480202-.0815125-7.7060547 2.5336914-.6933594-.7094727-1.0097656-1.8032227-.7597656-2.7558594.3007813-1.109375 1.3125-1.9711914 2.4580078-2.0952148.1835938-.0200195.3251953-.1704102.3349609-.3544922.0087891-.184082-.1171875-.3476563-.2978516-.3857422-.9255753-.1945553-1.4799461-1.3509274-1.2353516-2.2763672.2421875-.9111328 1.140625-1.6787109 2.2285156-1.9082031.9550781-.1816406 2.0361328-.0151367 3.2099609.4956055.1669922.0727539.3710938.0117188.46875-.1479492.4394531-.7163086 1.0927734-1.3081055 1.8896484-1.7114258.444931-.2236366.1018333-.8947172-.3378906-.6689453-.8203125.4145508-1.5107422 1.0053711-2.0136719 1.7192383-3.3259048-1.3144855-5.6761932.1732788-6.1699219 2.0292969-.2572517.966753.0994873 2.0877743.8476563 2.7255859-1.0078125.4306641-1.8173828 1.3164063-2.1074219 2.3852539-.3701172 1.4091797.1992188 2.9921875 1.3828125 3.8491211.0255127.0186157.0562744.0252686.0853271.0367432-.0026855.0162964-.0026855.0350952-.0053711.0514526-1.3469086-.2244339-2.2153206 1.250349-1.5360107 2.491394.2802734.5136719.8017578.918457 1.4316406 1.1108398.0212402.0065918.0427246.0071411.064209.0097656.0457764.4493427.0897217.8970356.170166 1.3764668 1.6577644 10.0912857 14.2252426 10.665123 18.3953857 2.8252563 2.979248 1.0316505 4.7145767-2.4055443 2.671875-3.7615356 1.2790527-1.8559589 1.3759766-4.4799824.1837158-6.3762226 1.5109104-3.9574491-1.6351009-8.1387807-5.8427731-7.8090822zm-15.6141357 10.8781739c-.0582275.640564-.0759277 1.3184204-.0341797 2.050293-1.459774-.6489945-.9466972-2.3062897.0341797-2.050293zm.946167 4.1208515c-.4082031-2.4328022-.3450928-4.5199604.1807861-6.0449848.9191284-1.1744423 2.4306374-1.8818626 3.7059326-2.031189 3.0478668-.3837357 2.9356079 1.7142315 5.4886475-.2285767.1227074.3980408.2094688.9362373.3658447 1.2080688.9768715 1.7694263 3.0626793 2.334156 4.7324219 1.6538086 1.2226639 1.5958824 2.348526 3.0650139 3.5673828 4.6630878-1.1830673 10.1875001-16.2451477 11.7408449-18.0410156.7797853zm17.9664307 2.2647095c.3666992-.8347778.6225586-1.7210693.7580566-2.6417236.2374191.1205597.2890549-.0544739.668457-.0140991.1000214.0238647.2334213.0305634.4224854.1323242 1.4441833.7810821.326065 3.2117309-1.848999 2.5234985z"/><path d="m46.146225 69.0184631c1.0712318.7168579 4.2322502.2545319 4.1484375-1.2734375-.0081787-.1446533-.0587158-.2741089-.1273193-.394043l1.1859131-5.0742188c.1120872-.4822044-.61763-.6563454-.7304688-.1708984l-1.1112061 4.7545776c-.864502-.2756348-1.8236084-.3331299-2.6417236-.1515503-1.5624161.348961-1.6375961 1.6978227-.7236328 2.3095704zm3.1951904-1.427124c-.0327148.1468506.026001.2922363.1386719.37854-.3111343.5520172-2.2773743.8529892-2.9158936.4255371-.4115067-.2743378-.3877182-.7634125.4697266-.9541016 1.2101059-.271614 2.1952515.1274262 2.3074951.1500245z"/><path d="m63.6384125 21.9559612c.8632431 1.4298782.5798264 2.615675 1.2695313 2.4331055.2001953-.0546875.3173828-.2607422.2626953-.4604492-.2060547-.7563477-.4394531-1.6137695-.8896484-2.3603516-.5214844-.8637695-1.2900391-1.4545898-2.1103516-1.6206055-.2070313-.0405273-.4013672.090332-.4414063.293457-.0410156.2026367.0898438.4008789.2929688.4418945.6142578.1240235 1.2031249.588379 1.6162109 1.2729493z"/><path d="m41.1022797 47.0560608c.4590797.1967468.7462997-.4986382.2929688-.6904297l-3.4667969-1.4697266c-.1904297-.0820313-.4111328.0087891-.4921875.1987305-.0800781.190918.0087891.4111328.1992188.4916992z"/><path d="m36.2497406 47.7806702c-.2128906-.0375977-.3994141.1020508-.4335938.3051758-.0361328.2041016.1005859.3984375.3046875.434082 1.362236.2368393 2.8137512.0740891 4.0947266-.4658203.459568-.1934433.1622543-.8861732-.2910156-.6914063-1.1464844.4838867-2.453125.631836-3.6748047.4179688z"/><path d="m38.6901703 50.2860413-1.6914063.5761719c-.4696503.1600533-.2270126.8701744.2421875.7099609l1.6914063-.5761719c.4721374-.1609039.2230148-.8727837-.2421875-.7099609z"/><path d="m11.0514984 18.1566448c.0107422 0 .0214844-.0004883.0332031-.0014648.2060547-.0180664.3583984-.2001953.3408203-.4067383l-.3154297-3.5654297c-.0185547-.2050781-.1835938-.3554688-.4072266-.340332-.2060547.0180664-.3583984.2001953-.3408203.4067383l.3154297 3.5654297c.0175782.1948242.1816407.3417968.3740235.3417968z"/></g></svg>