<svg id="Layer_1" height="512" viewBox="0 0 512 512" width="512" xmlns="http://www.w3.org/2000/svg"><g><g><path d="m444.5 444.5h-377c-36.1 0-65.5-29.5-65.5-65.6 0-30 20.8-56.2 49.4-63.5 3.4-56.2 49.8-100.4 106.3-100.4 15.1 0 30.1 3.2 43.8 9.4 26.2-46.4 74.6-75 128.3-75 81.3 0 147.5 66.2 147.5 147.5 0 8-.7 16.1-2 24.1 21.3 11.3 34.8 33.3 34.8 57.9-.1 36.1-29.5 65.6-65.6 65.6zm-286.8-213.1c-49.7 0-90.1 40.4-90.1 90.1v7.1l-7 1.6c-24 3.4-42.2 24.3-42.2 48.6 0 27.1 22.1 49.2 49.2 49.2h376.9c27.1 0 49.2-22.1 49.2-49.2 0-20.1-12-38-30.7-45.5l-6.3-2.6 1.4-6.7c1.9-9 2.8-18.1 2.8-27.1 0-72.3-58.8-131.1-131.1-131.1-50.1 0-95.1 28-117.4 73.1l-3.8 7.7-7.5-4.1c-13.3-7.2-28.3-11.1-43.4-11.1z"/></g><g><g><path d="m124.9 67.5h16.4v32.8h-16.4z"/></g></g><g><g><path d="m206 101.1h16.4v32.8h-16.4z" transform="matrix(.707 .707 -.707 .707 145.846 -117.044)"/></g></g><g><g><path d="m2 190.5h32.8v16.4h-32.8z"/></g></g><g><g><path d="m35.6 109.3h32.8v16.4h-32.8z" transform="matrix(.707 .707 -.707 .707 98.344 -2.331)"/></g></g><g><path d="m444.5 444.5h-377c-36.1 0-65.5-29.5-65.5-65.6 0-30 20.8-56.2 49.4-63.5 3.4-56.2 49.8-100.4 106.3-100.4 15.1 0 30.1 3.2 43.8 9.4 26.2-46.4 74.6-75 128.3-75 81.3 0 147.5 66.2 147.5 147.5 0 8-.7 16.1-2 24.1 21.3 11.3 34.8 33.3 34.8 57.9-.1 36.1-29.5 65.6-65.6 65.6zm-286.8-213.1c-49.7 0-90.1 40.4-90.1 90.1v7.1l-7 1.6c-24 3.4-42.2 24.3-42.2 48.6 0 27.1 22.1 49.2 49.2 49.2h376.9c27.1 0 49.2-22.1 49.2-49.2 0-20.1-12-38-30.7-45.5l-6.3-2.6 1.4-6.7c1.9-9 2.8-18.1 2.8-27.1 0-72.3-58.8-131.1-131.1-131.1-50.1 0-95.1 28-117.4 73.1l-3.8 7.7-7.5-4.1c-13.3-7.2-28.3-11.1-43.4-11.1z"/></g><g><path d="m86.2 266.3-6-5.1c-18.5-15.6-29.1-38.4-29.1-62.5 0-45.2 36.8-81.9 81.9-81.9s81.9 36.8 81.9 81.9c0 13.1-3.1 25.7-9.1 37.5l-3.6 7-7.1-3.3c-12.1-5.6-24.7-8.4-37.5-8.4-25.3 0-48.8 10.3-66.1 29.1zm46.9-133.2c-36.1 0-65.5 29.4-65.5 65.5 0 16.8 6.4 32.8 17.8 44.9 28.8-26.7 71.7-35.7 109.1-21.8 2.8-7.4 4.2-15.1 4.2-23.1-.1-36.1-29.5-65.5-65.6-65.5z"/></g><g><path d="m436.3 288.8h-16.4c0-45.2-36.8-81.9-81.9-81.9v-16.4c54.2 0 98.3 44.1 98.3 98.3z"/></g></g></svg>