<svg id="Layer_1" enable-background="new 0 0 75 75" viewBox="0 0 75 75" xmlns="http://www.w3.org/2000/svg"><g id="Chef" fill="rgb(0,0,0)"><path d="m26.8800659 26.6769123c.4960938 2.2246094 1.7993164 5.043457 3.9707031 6.2836895 6.5747185 3.7449112 14.2340164-.6939011 15.0981445-8.4741192.0762062-.6337719.1665955-1.318573.1534424-1.987915l.1463623-.2532959c0-.0004883 0-.0004883 0-.0004883.8991013-1.575367 1.1153107-1.8090439 1.0982666-2.260376 4.8790321-2.3173885 6.4961166-7.2792234 3.7513428-9.6209726-.9815063-.8378906-2.4173584-.9815674-3.4672852-.4232178-.0167236-.0133057-.0374756-.0198975-.0562134-.0301514-.3411865-1.2507324-.7971191-2.2258301-2.0995483-2.9938965-2.3808594-1.4033203-5.21875-1.2939453-8.0268555.2983398-1.362793-1.9750977-4.8139648-2.4331055-6.8491211-1.8569336-2.5004387.7069912-4.7496872 2.8841953-4.2446289 5.4873047-2.7209358-.3813705-4.361969 2.6212101-2.7744141 5.38379.4841309.8439941 1.2246094 1.5980225 2.2932739 2.3605957-.1463737.2764034-.1095562.5193729-.0227661.8273926.6169033 2.1618519.6337318 2.3779297.9971313 2.5952148-.3021238 1.5642091-.3009642 3.1308595.0321657 4.6650392zm4.3422852 5.6323223c-1.9589844-1.1191387-3.1494141-3.7275372-3.6098633-5.7934551-.3191528-1.4699707-.3156738-2.9755859-.0094604-4.4779053 1.23983-.3504677 2.2883034-.7154655 3.3991089-.9224854 6.8793945-1.2801056 11.2252922 1.1312981 14.3299561 2.0605469-.6466104 9.1634884-8.3640519 12.4059468-14.1097413 9.1332989zm-6.9916992-16.4541006c-.8448772-1.4690619-.7119751-3.3558779.7749023-4.1074219.5756226-.291748 1.0736084-.2026367 1.746521-.0708008.6001587.9073486 1.3953857 1.6694336 2.3491821 2.2050781.0581055.0322266.1210938.0478516.1831055.0478516.1313477 0 .2587891-.0688477.3276367-.1914063.1010742-.1806641.0371094-.4091797-.1435547-.5107422-.9517822-.5341797-1.7663574-1.3492432-2.30896-2.296875-.6190681-2.2940712 1.4157085-4.2217712 3.6439209-4.8515625 1.8525391-.5253906 5.1879883-.0766602 6.1845703 1.8198242.0003662.0006104.0010986.0009766.0014648.001709.242981 1.3815918.0463867 2.8164063-.5908203 4.0690918-.0942383.1845703-.0205078.4101563.1640625.5039063.0541992.027832.1123047.0410156.1694336.0410156.1367188 0 .2685547-.074707.3344727-.2050781.6900024-1.3549805.9102173-2.9006348.6774902-4.3989258 1.6016846-.9206543 4.4923706-2.0327148 7.3503418-.3481445 1.7272072 1.0179863 1.6651802 2.6436033 1.9428711 3.1838379.0143433.9926758-.2253418 1.9885254-.7226563 2.848877-.2505341.4337063.4041061.8016968.6494141.375.5650024-.9775391.8370361-2.1091309.8206177-3.2373047.7810059-.5557861 2.0201416-.4869385 2.826355.2006836.8081055.6894531 1.2060547 1.9179688 1.0136719 3.1303711-.3589287 2.2577715-2.5191422 4.2615194-4.6174316 5.2531748-.2879677-.2460785-2.8740311-1.4723034-3.3781738-1.6904297l.7646484-1.3381348c.2454338-.4300938-.4050522-.8048792-.6513672-.3720713l-.8155518 1.427125c-1.6652184-.6208782-3.4853859-.8650227-5.2507935-.9700928l1.0888062-2.3217783c.0878906-.1875.0073242-.4106445-.1801758-.4985352-.1870117-.0898438-.4111328-.0068359-.4985352.1801758-.0469742.1005802-1.2949715 2.774375-1.215271 2.6037607-1.5179443-.0410156-3.086792.0498047-4.6914673.2788086-.0348434-.1402321-.0295105-.0703545-.9355469-1.4675303-.2734165-.4142332-.8989582-.0023184-.6269531.4121094l.7689209 1.1679697c-1.6605835.2473145-3.3643799.529541-4.9329224 1.3579102-1.0625609-.7355956-1.771118-1.4456786-2.2222288-2.2314462zm2.3417968 3.3583994c-.0816154-.2914867-.0881157-.2921371.1777344-.4384766 1.6375084-.8806992 3.4360199-1.1106033 5.3261719-1.3911133 2.3452148-.3525391 4.6166992-.4101563 6.7509766-.1708984 2.8540535.3191319 3.9664345.7862625 6.2607422 1.9365234 1.6364632.8203506 1.6799622.6935921 1.3740234 1.2250977-.0705299.1221695-1.2339935 2.1375332-1.159668 2.0087891-.671875-.2094727-1.3383789-.4516602-1.9853516-.6860352-5.8151093-2.1101093-10.0979538-2.304636-16.055603-.3410645-.0141602.0004883-.0288696-.003418-.0427246-.0012207-.0867348-.1018543-.5844173-1.9323234-.6463013-2.1416015z"/><path d="m30.3873901 57.3868713c-.0014648 0-.0024414 0-.003418 0-.2055664 0-.3730469.1655273-.375.371582l-.074707 8.6274414c-.6557274.0834885-1.786808.2729797-2.3017578.6831055-.8304405.6621704-.8158855 1.9536209.7666016 2.440918 1.3030529.4011307 2.6957455.4722137 4.0400391.2045898.7875977-.1567383 1.2832031-.5019531 1.4726563-1.0258789.3737411-1.0317459-.556057-2.4576416-3.2269287-2.3620605l.0740967-8.5612793c.001953-.2070312-.1645509-.3764648-.3715822-.378418zm2.5092774 10.2143555c.2338867.1835938.4140625.5454102.3100586.8325195-.0942383.2597656-.4018555.4433594-.9140625.5454102-1.2192383.2426758-2.4892578.1782227-3.6728516-.1860352-.9122448-.2810593-.9433231-.7998276-.5195313-1.1376953.469286-.3746643 2.1888046-.5942383 2.8466797-.5942383.7387696 0 1.440918.1411133 1.9497071.5400391z"/><path d="m42.3175659 69.6754456c2.4031143-.4948883 2.0065308-3.0187073-.7650757-3.3355713l-.6724243-7.7073975c-.0417099-.4889183-.7905884-.432106-.7470703.0654297l.6639404 7.6101074c-.8443604.0126343-2.6182365.2488785-3.2791748.7697754-.8475647.6687851-.834774 1.9583969.7456055 2.4296875.762207.2265625 1.5581055.3408203 2.3574219.3408203.5673828 0 1.1367187-.0576172 1.6967773-.1728515zm-3.8398437-.8867188c-1.0795059-.3221283-1.0505333-1.0981979.21875-1.4228516 1.2555046-.3218536 3.087513-.595459 4.1108398.2006836.2260742.175293.40625.5214844.2944336.8164063-.0996094.2631836-.4140625.4506836-.9355469.5581055-1.227539.2524414-2.5048828.2006836-3.6884765-.1523438z"/><path d="m17.8844604 51.4112854c1.900074-.1614876 3.1116199-2.7413635 2.350708-3.8481445.0079956-.0147705.0239868-.0219727.0301514-.0380859 1.6546021-4.3518066 4.5872803-8.2858887 8.269104-11.1408691-.8514843 1.7554054-2.6344795 8.0240936-2.9381104 14.690918-.0817318 1.7350883.0206203 3.620369 1.4199829 4.6699219.8400269.6201172 1.9500122.7299805 2.9899902.8000488 10.1154785.7441864 10.5061302.8504677 11.6600342.6300049 1.214035-.2046547 2.0803566-.8908119 2.3399658-1.4100342l.6099855-2.6199953c-.0189133-.4384346.2479515-7.1512375-1.5099487-15.4100342-.1400146-.6599121-.3000488-1.3299561-.6400146-1.9099121-.3400269-.5800781-.9000244-1.0700684-1.5700073-1.1700439-.7700195-.1199951-1.5100098.3099365-2.2299805.6099854-2.0100098.8800049-4.3800049.9599609-6.4700317.2299805-.8571968-.2889824-1.9498062-1.3724556-3.2109985.1777344-.1072292-.2589035-.390173-.2889099-.5646973-.1594238-3.9137573 2.9260254-7.0298462 7.0430908-8.7960205 11.6021729-.7575474-.2478333-2.4964409-.0371933-3.3665771.9066162-1.3617222 1.4722708-.2414362 3.5448187 1.6264646 3.38916zm20.1418458 1.4038086c.5499878-.0200195 1.0899658-.0600586 1.5999756-.1999512.3800049-.1000977.9000244-.3100586 1.25-.7399902.3099976-.3701172.4200439-.8601074.2900391-1.25-.0599976-.2000732.0499878-.4101563.25-.4700928.1900024-.0699463.3999634.039917.4699707.2399902.2000122.6300049.039978 1.3800049-.4299927 1.9500732-.3800049.4599609-.9400024.8099365-1.6300049 1-.5800171.1599121-1.2000122.1899414-1.7700195.2199707-.0099487 0-.0099487 0-.0199585 0-.2000122 0-.3600464-.1600342-.3699951-.3601074-.0100099-.2099609.1499633-.3798827.3599853-.3898925zm-8.0700074-10.3100586.1099854-2.1599121c.0100098-.210083.1799927-.380127.3900146-.3601074.210022.0100098.3699951.1900635.3599854.3901367-.0764523 2.7783432-.4218693 2.8099365.6300049 2.8099365 2.4930916-.1749763 2.6994858.2022133 2.7399902-.8499756l.0499878-1.5600586c.0240479-.5043831.773983-.4590683.75.0200195-.1079445 3.1860886.2098732 3.0535316-3.7099609 3.1400146-.9880219.0000001-1.3551789-.4812583-1.3200074-1.4300536zm-11.762268 5.3432617c.3398438-.0581055 1.2431641-.2094727 1.4487305.1611328.3339577.6032524-.4317741 2.5361252-1.8212891 2.6547852-.6030273.0449219-1.1948242-.3110352-1.3608398-.8217773-.2443028-.7533379.3228721-1.7548371 1.7333984-1.9941407z"/><path d="m40.2793579 24.2265949c-.5161133-.0014648-.9360962.5435791-.9379883 1.2174072-.0019531.6738281.414917 1.2211914.9310303 1.2226563s.9360352-.543457.9379883-1.2172852-.414917-1.2213134-.9310303-1.2227783z"/><path d="m31.5844116 24.2016926c-.5161133-.0014648-.9360962.5435791-.9379883 1.2174072-.0019531.6738281.414917 1.2211914.9310303 1.2227783.5161133.0014648.9360352-.5435791.9379883-1.2174072s-.414917-1.2213135-.9310303-1.2227783z"/><path d="m56.5906372 38.2120667-1.210083-5.1254883c-.1298828-.5327148-.6713867-.8662109-1.2099609-.7363281l-.9777222.2307129c.0107346-1.5316315-.2652893-5.175499-1.3303833-6.258543-.9434242-.9547691-2.3864594-.4376278-2.4306641 1.0786133-.0333481 1.2034893 1.267086 4.5317459 1.7684326 5.6502666l-1.6922607.3995361c-.5327148.1289063-.8632813.6723633-.7363281 1.2109375l1.3352661 5.6208496c-2.1085205-.2099609-4.0080566-.9135742-6.0842896-2.2609863-.4141693-.2703094-.8254128.3581886-.4082031.6289063 2.2660522 1.4707031 4.3390503 2.2137451 6.6754761 2.4025879l1.6819458 7.0803223c.1103516.4555664.5209961.7631836.972168.7631836.2079926 0 .2076683-.0307312 1.8811646-.4204102.0616188 1.1709137.3864746 4.5861626.9396362 5.6098633.7078629 1.3143997 2.2343025 1.1767502 2.6557617-.128418.4507294-1.3985291-.8017998-4.5044556-1.5517578-5.9682617l.9658203-.2299805c.5317383-.1289063.8623047-.6674805.7368164-1.2001953l-.9847412-4.1789551c2.4458427-.7273102 2.5394935-4.2354394-.9960938-4.1682129zm-4.6719971-5.3828125c-.5616341-1.2428265-1.7643814-4.449564-1.7368164-5.4067364.0083008-.2963867.1054688-.5576172.2592773-.6982422.2480469-.2270508.6542969-.1108398.887207.125.8631859.8768196 1.1409111 4.4784145 1.1160278 5.9084454l-.5142212.1213379c-.0048827-.0166016-.0041502-.0336915-.0114745-.0498047zm5.7260743 19.4472656c.1123047.5058594.1972656 1.0322266.0620117 1.4506836-.1020508.315918-.4145508.6015625-.7363281.5107422-.5324631-.15028-.7229958-.8939743-.8320313-1.4179688-.3154907-1.4973145-.5043335-3.0164795-.5761719-4.5192871l.5577393-.1328125c.725647 1.3852539 1.2032471 2.6625977 1.5247803 4.1086426zm.196289-5.5454102c.0322266.1352539-.0483398.2670898-.1816406.2993164l-4.6591797 1.109375c-.1357422.034668-.2661133-.0483398-.2993164-.1811523l-3.1992188-13.4692383c-.0322266-.1362305.0517578-.277832.1806641-.3095703l4.6601563-1.0996094c.140625-.0351563.277832.0517578.309082.1806641l1.1876831 5.0301514c-1.681797.354126-2.4818878 2.0959969-1.2814331 3.3604736.4841576.509346 1.296154.8821945 2.2873535.8535156zm-1.7426758-5.0488281c-2.0087814-.5123215-1.7628975-2.7250977.5693359-2.7250977 3.2228928 0 1.977356 3.3810997-.5693359 2.7250977z"/><path d="m37.6046753 28.4606037c-1.0218925 1.0609913-2.7246552.9090862-3.5654297-.237793-.2935333-.401556-.8977127.043829-.6044922.4433594 1.126049 1.5369301 3.3811646 1.6942387 4.7099609.3149414.3419076-.3558635-.1909446-.8778019-.540039-.5205078z"/></g></svg>