<svg id="Layer_1" height="512" viewBox="0 0 512 512" width="512" xmlns="http://www.w3.org/2000/svg"><g><g><g><path d="m112.4 163.7h-16.4c0-43 35-78 78-78v16.4c-33.9 0-61.6 27.6-61.6 61.6z"/></g><g><path d="m149.5 356.2c-29.5 0-56.2-15.6-70.8-41-42.7-2.7-76.7-38.4-76.7-81.7 0-36.4 23.5-67.8 57.8-78.3 4.2-55.6 50.4-100.2 106.3-102.2 23.2-30.7 59.5-48.9 98.1-48.9 39.6 0 76.3 18.9 99.5 50.8 5.2-1 10.3-1.5 15.4-1.5 45.1 0 81.8 36.7 81.8 81.8 0 7.5-1 14.8-3.1 22 31.1 12.1 52.2 42.4 52.2 76.3 0 45.2-36.8 81.9-81.9 81.9h-207.9c-14.6 25.3-41.3 40.8-70.7 40.8zm20.8-286.9c-51.2 0-93.4 41.5-94.5 92.4l-.1 6.4-6.3 1.4c-30.1 6.8-51.1 33.1-51.1 63.9 0 36 29.3 65.4 65.3 65.5h5l2.2 4.5c11.2 22.4 33.6 36.3 58.5 36.3s47.3-13.9 58.5-36.3l2.3-4.5h217.8c36.1 0 65.5-29.4 65.5-65.5 0-29.5-19.9-55.5-48.4-63.2l-8.9-2.4 3.4-8.5c3.1-7.8 4.7-15.9 4.7-24.2 0-41.6-39.3-74.5-82.3-63.1l-5.7 1.5-3.2-4.9c-19.8-30.2-53.1-48.2-89-48.2-34.6 0-67.2 17-87.2 45.4l-2.4 3.5z"/></g></g><g><g><g><path d="m67.5 368.4h16.4v66.1h-16.4z" transform="matrix(.868 .496 -.496 .868 209.15 15.314)"/></g></g><g><g><path d="m157.7 368.4h16.4v66.1h-16.4z" transform="matrix(.868 .496 -.496 .868 221.025 -29.402)"/></g></g><g><g><path d="m247.8 368.4h16.4v66.1h-16.4z" transform="matrix(.868 .496 -.496 .868 232.9 -74.117)"/></g></g><g><g><path d="m337.9 368.4h16.4v66.1h-16.4z" transform="matrix(.868 .496 -.496 .868 244.774 -118.833)"/></g></g><g><g><path d="m428.1 368.4h16.4v66.1h-16.4z" transform="matrix(.868 .496 -.496 .868 256.649 -163.548)"/></g></g></g><g><g><g><path d="m88 442.2h16.4v66.1h-16.4z" transform="matrix(.868 .496 -.496 .868 248.435 14.867)"/></g></g><g><g><path d="m178.2 442.2h16.4v66.1h-16.4z" transform="matrix(.868 .496 -.496 .868 260.309 -29.849)"/></g></g><g><g><path d="m268.3 442.2h16.4v66.1h-16.4z" transform="matrix(.868 .496 -.496 .868 272.184 -74.564)"/></g></g><g><g><path d="m358.4 442.2h16.4v66.1h-16.4z" transform="matrix(.868 .496 -.496 .868 284.058 -119.28)"/></g></g></g></g></svg>