<svg id="Layer_1" enable-background="new 0 0 75 75" viewBox="0 0 75 75" xmlns="http://www.w3.org/2000/svg"><g id="Child_Balloons" fill="rgb(0,0,0)"><path d="m18.2192001 51.5480042c.2973213 2.6818275 1.6042118 3.2695465 4.1621094 2.8115234 7.4025135-1.3598671 9.0941639-1.2420654 10.1064453-2.7597656.7119141-1.0683594.4658203-2.375.1308594-3.5117188-.1380806-.4774323-.8592949-.2645721-.71875.2109375.2851563.9716797.5048828 2.0732422-.0371094 2.8847656-.7836857 1.1769943-2.2644081 1.1004028-9.6113281 2.4375-2.4156971.4266014-3.0643253-.1680832-3.2871094-2.1572266-.3964844-3.4414063-.1230469-7.0253906.7910156-10.3632813.8122578-2.9654617 1.7524719-.5995789 6.7519531-1.6650391.9229279-.193924 2.0769978-.9727898 2.4931641-.2529297.6696739 1.1513176.9260902 2.9048958 1.3535156 4.2529297l1.1308594 3.5351563c.1487808.4672623.8656883.2475891.7148438-.2285156l-1.1308594-3.5341797c-.4293747-1.346817-.6773701-3.1269875-1.4199219-4.4013672-.7809086-1.3540764-2.4053459-.2938461-3.296875-.1044922-3.5332298.7562408-4.8370895-.3161507-6.0214844.2412109-.7695313.3564453-1.0878906 1.1904297-1.2978516 1.9599609-.939453 3.4287111-1.220703 7.1103518-.8134765 10.6445315z"/><path d="m32.7535019 53.7563782c-.5686035-.5147705-.8300781-.6295166-1.5617676-.3475342-3.2763386 1.2632523-6.907217 1.9397888-10.6257324 1.8355713-.8593979-.0221634-.7964287.2908745-.8786621.6234131-.0075684.0112305-.0040283.0300293-.0117188.0412598-1.297842 5.2251892-1.2882957 5.1683273-1.0739746 5.5690918.2780762.4943848.9281006.5776367 1.4230957.7189941 1.1324615.3493843 2.3952885.4961433 3.6292725.4616699.1732178-.0129395 1.743042-.072998 1.7655029-.2138672.5728245-4.4478149.3654251-4.709034.9560547-4.8443604l.3170166-.0789795c.8132324-.1914063 1.6363525.1911621 2.0093994.9311523.3614368.7630615.8629417 1.8000183 1.7104492 1.776123.4961853-.0139656-.0362015.007885 5.5576172-1.1025391-.338623-1.3706055-.9580078-2.6691895-1.7980957-3.8032227-.4199219-.5668943-.8952636-1.0932615-1.418457-1.5667722z"/><path d="m29.8168564 63.5353088c-.328125-.0205078-.7978516.0976563-1.2382813.8242188-.3021488.4977341-.7591705 1.4464417-.7001953 2.0263672.1205254 1.2147598 1.8255424 1.4878082 2.65979-1.0883789 1.0161877.3162689 2.0888062.5119324 3.0452881.0336914.8056641-.4179688 1.3837891-1.3134766 1.5478516-2.4003906.1308594-.9326172-.0351563-1.8808594-.1816406-2.7167969-.0826912-.4914246-.8246231-.3588181-.7382813.1289063.1435547.8203125.2910156 1.6679688.1777344 2.4804688-.1279297.8457031-.5576172 1.5341797-1.1464844 1.8398438-.762085.3792725-1.7050781.1704102-2.5688477-.1068115.0139561-.6395228-.3304786-.9790041-.8569335-1.0211184zm-.647461 2.7705079c-.239109.2419891-.5102386.3457489-.5449219.0058594-.0402107-.3994293.6573486-2.0292969 1.1162109-2.0292969.0048828 0 .0107422 0 .015625.0009766.1298828.0097656.1445313.0498047.15625.0820313.0303955.0820313.0250244.2000732.0050049.3302002-.0002441.0006104-.0008545.0010986-.0010986.0018311-.0081787.0236816-.0062256.0476074-.0093994.0715332-.1103515.5426024-.5264892 1.3225096-.7376709 1.5368651z"/><path d="m14.6527939 62.1388245c-.56392.1394234-1.56141.4858322-1.9267578.9375-.5375938.6516953-.1981382 1.6064453.9609375 1.6064453h.0117188.0009766c.3380127-.0026855 1.2298584-.2220459 1.8865967-.6179199.6597538 1.2561569 1.4871159 2.3278809 2.9259033 2.3278809 1.7351761 0 2.8172665-1.3490143 3.8095703-2.7617188.1191406-.1699219.078125-.4033203-.0908203-.5224609-.1689453-.1181641-.4042969-.078125-.5224609.0908203-.4785156.6816406-.9726563 1.3857422-1.6269531 1.8730469-.6845703.5117188-1.4785156.6923828-2.1113281.4882813-.8259277-.2653809-1.3493652-1.1179199-1.8024902-2.0072021.0362549-.0517578.0810547-.1009521.1062012-.1558838.2967031-.6457636-.2593768-1.5976068-1.621094-1.2587892zm-.9658203 1.7939453c-.2265625 0-.4160156-.0644531-.4511719-.1542969-.1496983-.3810539 1.1968756-.8131828 1.5966797-.9111328.6349735-.1576805.8212385.0876045.7597656.21875-.1884766.4111328-1.5078125.84375-1.8984375.8466797-.0019531 0-.0039062 0-.0068359 0z"/><path d="m20.9628525 33.0480042c.3687744-.0632324.5921631-.5559082.4989014-1.1003437-.0933838-.5445557-.4680176-.9348145-.8369141-.871582-.3687744.0632324-.592041.5559082-.4987793 1.1004658.0932617.5445556.4680176.9346923.836792.8714599z"/><path d="m26.8623886 32.0370178c.3688965-.0632343.5921631-.5559101.4987793-1.1005878-.0932617-.5444336-.4680176-.9345703-.836792-.8713379s-.5921631.5559082-.4989014 1.1003418c.0933838.5445556.4680176.9346943.8369141.8715839z"/><path d="m17.7486191 34.1700745c1.266798 2.7586975 3.8283386 4.3505859 6.6141357 4.3505859 3.3624496 0 6.0997677-2.733078 6.2226563-5.1445313.020874-.4459229.017334-.8520508.0079346-1.2502441.1088943-.0547028.6000843-.1903572 1.0028076-.6765156 1.0997887-1.3264313-.2113094-3.066597-1.4942627-2.3259277-.0473633-.1356201-.1020508-.2664795-.15625-.3972168 2.0610504-.7492523 2.7163658-3.4802189 1.3282471-5.0668945-.0078125-.0097656-.8212891-.6347656-1.4091797-.9189453.0234375-.5429688-.1464844-1.1044922-.4863281-1.5791016-1.1422405-1.6002274-3.3619347-1.3212032-4.3017578.2382813-.7607422-1.0869141-2.203125-1.6992188-3.5371094-1.3828125-1.3652344.3212891-2.4091797 1.5615234-2.5771484 2.9130859-1.4114113-.823946-3.4030457-.574276-4.4472656.8632813-.2926874.4003983.3137484.8428154.6054688.4414063.9763298-1.3339386 2.95788-1.2835712 3.9550781-.2783203.256321.2606659.6896858.0359325.6376953-.3193359-.1875-1.2451172.7460938-2.5957031 1.9980469-2.8896484 1.2480469-.2988281 2.6787109.5009766 3.0576172 1.6992188.1277866.3999233.6736164.3162804.7285156-.0595703.2108536-1.4344387 2.2418194-2.228138 3.2705078-.7900391.2861328.4003906.4042969.8798828.3242188 1.3134766-.0387993.2133942.1108646.4210339.3349609.4414063.2636719.1230469 1.1582031.6894531 1.28125.7998047 1.1184444 1.2793045.4663391 3.7324562-1.5195313 4.0117188-.822773.1101036-1.6634331-.2889404-2.0419922-.7314453-.0039063-.1425781-.0878906-.2763672-.2275391-.3359375-.1904297-.0820313-.4121094.0068359-.4921875.1972656-.2578125.6015625-.9570313 1.0263672-1.5957031.9638672-.6552734-.0478516-1.2568359-.5566406-1.3994141-1.1835938-.0862999-.3872433-.6439667-.3881512-.7304688 0-.1220703.53125-.3046875.9365234-.5576172 1.2333984-.2958984.3408203-.6826172.5556641-1.0625.515625-.3623047-.0126953-.7041016-.2734375-.7617188-.5810547v-.0009766c0-.0009766 0-.0009766 0-.0009766-.0880089-.4817314-.8279533-.3550968-.7382813.1357422.2597446 1.4092484-.5469208 2.6831322-2.0100098 2.7397461.0153828-.3472118-.3056259-.5541115-1.0061035-.1904297-.1029053-.0427246-.2193604-.0419922-.3208008.0092773-.9654312.5029984-2.3150406.0461426-2.7519531-.9042969-.4365282-.9496059.1016769-2.2649879 1.1132813-2.65625.2032833-.0780277.2950888-.3146839.2041016-.5087891-.2314453-.4931641-.2802734-1.0830078-.1386719-1.6601563.1175652-.4843674-.6119404-.6576424-.7285156-.1796875-.1503906.6152344-.1318359 1.2460938.0517578 1.8125-.5234375.3007813-.9472656.7919922-1.1904297 1.3916016-.8316164 2.0507565.8594971 3.8767796 2.8995361 3.6290283-.0007324.0020752-.0023193.0036621-.0030518.0057373-.4729212 1.2645091.6290647 2.6293735 2.0479738 2.3066425zm-1.0689697-2.4278584c.1422119.0412598.2822266.0900879.4298096.1087646.0539551.5361347.171875 1.0786152.3563232 1.6101093-1.0039158.0982362-1.4993592-1.0774039-.7861328-1.7188739zm13.7348632-1.9422607c.6034355-.5223751 1.4838581.8373146.1282959 1.5212402-.0452881-.5308838-.1237793-1.0255127-.236084-1.484375.0357666-.0152588.0771485-.0097656.1077881-.0368652zm-10.0703125-.421875c.8698826.4708538 2.1582794.1022015 2.7919922-1.2490234.9798603 1.2242203 2.7270241 1.1199474 3.6503906-.0019531.643549.5556412 1.5100651.8902779 2.4281006.7839355.5078125 1.1699219.7091064 2.5447998.6207275 4.428957-.0976563 1.9345703-2.1572266 3.7568359-4.0205078 4.2460938-3.6144199.9534416-7.4884129-1.7306023-7.9515381-5.7355976 1.3566399-.1727754 2.2929173-1.1760885 2.480835-2.4724122z"/><path d="m24.748497 36.6319885c1.7850838 0 2.9499264-1.8575897 1.6806641-3.4921875-.0703125-.0898438-.1777344-.1435547-.2929688-.1445313-.0898438-.0263672-.2236328.0517578-.2958984.140625-.6788216.848011-1.8262463 1.1135597-2.7851563.7158203-.2255192-.0897903-.4774323.0481415-.5146484.2900391-.1464844.959961.8801556 2.4902344 2.2080078 2.4902344zm1.3183594-2.649414c.1826172.4052734.2285156.9023438-.0966797 1.3242188-.7604237.9835281-2.42276.6455917-2.6767578-.5976563.9754124.21455 2.0036506-.0411911 2.7734375-.7265625z"/><path d="m66.8100204 18.8956585c-1.4345703-.3847656-2.890625.1152344-4.0732422.5341797-.0117188-1.2578125-.0429688-2.8007813-.8994141-4.0126953-2.2058296-3.1556711-8.1589851-2.2072115-9.5029297 4.5771484-.6862793 3.5050049.1324463 7.3095703 2.1741943 10.2666016-.9741745.3340511-1.3722382.2446136-1.4407959.6269531-.0647659.3587112.3368683.4598789.666626.7504883-3.3616562.5795002-6.8653221.8834133-8.9484863 3.2802753-.0012207-.0020752-.0012207-.0043945-.0023193-.0063477-.2365723-.421875-.7203369-.6813965-1.2601318-.7226563-.2030754-4.7534084 1.6070175-7.4167061 1.5974121-7.7993183.6982689-.0495148 1.0562134.1164074 1.229126-.2036133.179512-.339983-.1640511-.4983501-.9178467-1.739624.2959137-.2788219.0355682.0340805 1.7684326-4.6484375.0899658-.2301025.2800293-.4000244.5100098-.4400635l4.5799561-.9499512c.6000977-.1199951.75-.8900146.2600098-1.3000488l-3.7600098-3.1499023c-.1899414-.1600342-.2999268-.4000244-.289917-.6500244l.25-4.75c.0299072-.6199946-.6600342-1.0500484-1.1600342-.7301021l-2.9499512 1.8500972-.9599609.6099854c-.2000732.1199951-.460083.1400146-.6900635.0299072l-4.4300537-1.9899902c-.5699463-.2600098-1.1499023.25-.9699707.8500977l1.3400879 4.6699219c.0699463.2399902.0198975.4899902-.130127.6700439l-2.9899902 3.5200195c-.3898926.460083-.0599365 1.2000732.5600586 1.2600098l4.7399902.4200439c.2399902.0200195.4699707.1699219.5999756.3798828l2.5872803 4.1656494c-.1189957.1018887.1460152-.1966305-1.1959229 1.5328369-.0869141.1142578-.1015625.2675781-.0380859.3955078.1690636.3407288.5577164.1582508 1.2772217.2023926-1.15271 2.4208984-1.6893311 5.1313477-1.5646973 7.871706-.7019386.1958504-1.3742828.6932373-1.5559082 1.4318848-2.9381104 2.3831787-6.7783203 3.7518311-10.55896 3.7518311-.4960136 0-.4963131.75 0 .75 3.8331299 0 7.5706787-1.2841797 10.612793-3.6038818.3149948.8877106 1.0887833 1.0230293 2.0323486 1.0773926.2305679.9054871.5103226 1.8354187 1.0706787 2.5782471-2.0578537 4.0826454-1.2012596 6.5066795-2.125 8.828125-.4648438 1.1708984-1.6484375 2.3095703-2.9052734 2.1171875-.4933929-.078495-.6030083.6675606-.1132813.7421875 1.6387634.2458115 3.1144218-1.0681648 3.7158203-2.5820313.9831848-2.4789314.1250458-4.6742134 1.9863281-8.5439453 1.3384094.9850655 2.9296455.4244156 3.1142578-.9638672.2119751-1.6044731-1.9782486-2.3843498-3.2714844-.3310547-.3555412-.5915794-.5606956-1.3371582-.7198486-1.9335938.1016846-.0388184.2016602-.0876465.2930908-.1630859.3609009-.3005447.5179138-.9862289.581665-1.4534912 1.7415924-2.7277222 5.4483948-2.955555 9.6136475-3.7105713.0070801-.0013428.0123291-.0061035.0192871-.0076904.71241.4978371.8505363.7341843 1.1408691.5946045.3460808-.1622276.1734009-.5596504.2947998-1.8164082 3.9319458.8149109 8.0468063-.2364731 10.7501221-2.3095703.3951645-.3016357-.062561-.8959999-.4550781-.5957031-2.7503548 2.1058846-7.0000038 3.0644855-10.916626 1.9816895-.0324707-.0136719-.0649414-.0274658-.100708-.0317383l-.005127-.0036621c-3.5796738-4.9374237-2.8376427-11.4709492-.1542969-14.1542969 1.7749138-1.7884636 4.6969643-2.0809622 6.1025391-.0664063 1.1614761 1.6419811.4876785 4.1036053.9931641 4.4130859.2351875.1364098.4145966-.0250664.6923828-.0966797 1.1582031-.4121094 2.4716797-.8769531 3.7070313-.5449219 2.5258636.6840897 3.4666138 4.1114845 1.3378906 6.8896484-.0683594.0615234-.1142578.1484375-.1230469.2480469-.0333176.3699665.4454498.5591259.6748047.2646484 1.7147369-2.1921329 1.7053604-4.804718.6113281-6.46875-.5429686-.8046874-1.3837889-1.408203-2.3066405-1.658203zm-26.109375-2.4870606c.0899658-.1799316.3099365-.2600098.5-.1699219 1 .5100098 2.3399658.2099609 3.0300293-.670166.1300049-.1599121.3699951-.1899414.5299072-.0599365.1601563.1300049.1900635.3699951.0600586.5300293-.6099854.7700195-1.5899658 1.1900635-2.5699463 1.1900635-.6285629 0-1.8560371-.2387295-1.5500488-.8200684zm4.0878907 8.4226075c.017868.0297813.5148506.778429.5341797.8076172l-1.1591797.0068359zm1.2724609 14.3847675c.577877-.3647842 1.3426552-.17939 1.2460938.5351563-.1298752.9661484-1.2623177 1.0184517-2.0224609.3837891.2021484-.3632813.4423827-.7060548.7763671-.9189454zm-4.0556641-2.78125c-.5337486-1.1742516 1.6334572-2.0290947 2.1240234-1.1552734.1591797.2841797.0634766.7041016-.0488281 1.1103516-.0551758.1992188-.1087646.3696289-.2039795.4506836-.0080566.0031738-.015625.0063477-.0234375.0100098-.1281738.0881348-.3566895.0845947-.5889893.0715332-.4516867-.0290376-1.0692633-.071911-1.258789-.4873048zm13.2050782-4.6416035-.9335938-.6875.9464111-.2678223c.0129395.00354.026001.0063477.0389404.0097656-.0055045.1005441-.0572623 1.0461007-.0517577.9455567z"/><path d="m55.3451767 20.450346c-.7558594 2.3769531-.2900391 5.0888672 1.2158203 7.0771484.0732422.0976563.1855469.1484375.2988281.1484375.3069916 0 .4868126-.353363.2988281-.6015625-1.3613281-1.796875-1.7822266-4.2490234-1.0986328-6.3974609.1502572-.4742527-.5656089-.6975784-.7148437-.2265625z"/><path d="m5.8168569 33.3067932c.4960938.5488281 1.0615234.8330078 1.6083984 1.1083984.6817775.3426514.5644131.3185768.7154536.3383789 1.831543 4.2454834 5.4194336 7.7585449 9.7220459 9.4458008.4581337.1892281.735445-.5175972.2734375-.6972656-4.2489014-1.6669922-7.7851563-5.1877441-9.4827881-9.4274902.7599249-3.9337959-2.6714997-4.6281586-3.4107661-2.8781757-.313468.744234.0312386 1.5068302.5742188 2.1103534zm2.1191406.5263672c-.5802083-.2997742-1.104548-.5213432-1.5625-1.0283203-1.8758063-2.089941 2.2209325-2.9581928 1.5625 1.0283203z"/><path d="m55.2885361 40.990387c2.71875-2.3408203 4.9169922-5.3173828 6.3564453-8.6074219.1991386-.4545002-.4890938-.755949-.6875-.3007813-1.3945313 3.1875-3.5244141 6.0712891-6.1591797 8.3398438-.3744469.3229599.1132011.8885803.4902344.5683594z"/><path d="m52.7211533 48.396637c3.640625-3.1367188 6.9677734-6.6630859 9.8886719-10.4824219.1259766-.1640625.0947266-.3994141-.0703125-.5253906-.1621094-.1240234-.3984375-.0957031-.5253906.0703125-2.8896484 3.7773438-6.1806641 7.265625-9.7832031 10.3691406-.377102.3276062.1142348.8876991.4902343.5683594z"/><path d="m27.6791611 15.2169476c.8681641-1.7529297 2.3896484-3.2216797 4.1738281-4.0283203.4535141-.2044344.1410942-.8884249-.3085938-.6835938-1.96875.8896484-3.5800781 2.4453125-4.5371094 4.3798828-.2196559.443985.4538136.7746639.6718751.3320313z"/><path d="m28.7934189 9.5480022c-2.5605469 1.515625-4.6152344 3.8583984-5.7841797 6.5957031-.1948814.4578533.4961834.750042.6894531.2949219 1.1064453-2.5917969 3.0517578-4.8105469 5.4775391-6.2460938.4226055-.2507762.0501728-.8973006-.3828125-.6445312z"/><path d="m27.0238876 44.0909729-5.1230469.9462891c-.203125.0380859-.3378906.2333984-.3007813.4375.0341797.1806641.1914063.3066406.3691406.3066406.0224609 0 .0449219-.0019531.0683594-.0058594l5.1230469-.9462891c.203125-.0380859.3378906-.2333984.3007813-.4375-.0380859-.2031249-.2265625-.3349609-.4375-.3007812z"/><path d="m21.9750595 24.5831585c.2726822-.5474586 1.0235901-.6781864 1.4589844-.2167969.3367023.3599224.8877354-.1516781.5449219-.515625-.7758465-.8195267-2.1584225-.6362782-2.6757813.3984375-.0917969.1845703-.0166016.4101563.1689453.5029297.1869335.0917683.4095707.0164013.5029297-.1689453z"/></g></svg>