<svg id="Layer_1" height="512" viewBox="0 0 512 512" width="512" xmlns="http://www.w3.org/2000/svg"><g><g><path d="m419.9 158.9h-16.4c0-54.2-44.1-98.3-98.3-98.3v-16.4c63.2 0 114.7 51.4 114.7 114.7z"/></g><g><g><path d="m247.8 406.1h16.4v46.3h-16.4z" transform="matrix(.707 .707 -.707 .707 378.534 -55.286)"/></g><g><path d="m157.7 406.1h16.4v46.3h-16.4z" transform="matrix(.707 .707 -.707 .707 352.133 8.447)"/></g><g><path d="m67.5 406.1h16.4v46.3h-16.4z" transform="matrix(.707 .707 -.707 .707 325.733 72.18)"/></g><g><path d="m428.1 406.1h16.4v46.3h-16.4z" transform="matrix(.707 .707 -.707 .707 431.335 -182.753)"/></g><g><path d="m337.9 406.1h16.4v46.3h-16.4z" transform="matrix(.707 .707 -.707 .707 404.934 -119.02)"/></g></g><g><g><path d="m276.5 463.4h16.4v46.3h-16.4z" transform="matrix(.707 .707 -.707 .707 427.491 -58.765)"/></g><g><path d="m186.4 463.4h16.4v46.3h-16.4z" transform="matrix(.707 .707 -.707 .707 401.091 4.968)"/></g><g><path d="m96.2 463.4h16.4v46.3h-16.4z" transform="matrix(.707 .707 -.707 .707 374.69 68.701)"/></g><g><path d="m366.6 463.4h16.4v46.3h-16.4z" transform="matrix(.707 .707 -.707 .707 453.892 -122.498)"/></g></g><g><path d="m121.1 441.4 29.7-94h-45.9l55.3-147.5h74.9l-15.4 41h70.3zm7.4-110.5h44.6l-11.6 37.1 93.3-110.8h-58.8l15.4-41h-39.8z"/></g><g><path d="m356.1 347.3c-30 0-57.7-13.2-76.7-36.4h-69.9l45.2-53.7h-58.7l15.4-41h-39.8l-35.6 94.7h-53c-44.7 0-81-36.3-81-81 0-42 32.1-76.7 73.1-80.6 4.5-56.8 56.9-100.9 116.8-89.8 29.4-35.9 72.4-56.3 118.8-56.3 84.8 0 153.9 69 153.9 153.9 27.8 13.5 45.5 41.5 45.5 72.8 0 43.4-34.2 78.9-77.1 80.9-19.1 23.3-46.8 36.5-76.9 36.5zm-111.3-52.8h42.8l2.5 3.3c15.9 21.1 40 33.1 66.2 33.1s50.3-12.1 66.2-33.1l2.5-3.3h4.1c35.8 0 64.8-29 64.8-64.6 0-26.5-16-50.1-40.6-60l-5.4-2.1.4-8.1c.1-.9.1-1.7.1-2.6 0-75.8-61.7-137.5-137.5-137.5-43 0-82.7 19.7-109 54l-3.2 4.2-5.2-1.2c-6.5-1.5-13-2.3-19.2-2.3-45.7 0-82.8 37.2-82.8 82.8v8.2h-8.5c-35.6 0-64.6 29-64.6 64.6s29 64.6 64.6 64.6h41.7l35.5-94.7h74.9l-15.4 41h70.3z"/></g></g></svg>