<svg id="Layer_1" height="512" viewBox="0 0 512 512" width="512" xmlns="http://www.w3.org/2000/svg"><g><g><path d="m412.1 155.2h-16.4c0-36.1-29.6-65.5-66-65.5v-16.4c45.5 0 82.4 36.7 82.4 81.9z"/></g><g><path d="m427 328.2h-342c-45.8 0-83-37.2-83-83 0-35.1 22.5-66.6 55.3-78.2 6.4-27.4 31.3-47.6 59.8-47.6 3.6 0 7.3.4 11.1 1.2 15.2-33 48.4-54.6 85-54.6 7.1 0 14.2.8 21.2 2.4 24-28.8 58.9-45.2 96.4-45.2 69.3 0 125.8 56.4 125.8 125.8 0 6.1-.4 12.2-1.3 18.2 32.6 11.8 54.8 42.8 54.8 78-.1 45.7-37.3 83-83.1 83zm-309.9-192.4c-22.2 0-41.3 16.6-44.6 38.7l-.8 5.2-5.1 1.5c-28.4 8.1-48.3 34.5-48.3 64 0 36.7 29.9 66.6 66.6 66.6h342c36.7 0 66.6-29.9 66.6-66.6 0-30.2-20.5-56.7-49.8-64.4l-7.5-2 1.6-7.6c1.5-7.3 2.3-14.8 2.3-22.2 0-60.3-49.1-109.4-109.4-109.4-34.2 0-65.9 15.7-86.8 43.1l-3.4 4.5-5.4-1.6c-7.2-2.1-14.6-3.2-21.9-3.2-32.3 0-61.4 20.4-72.5 50.8l-2.7 7.3-7.5-2.4c-4.9-1.6-9.2-2.3-13.4-2.3z"/></g><g><path d="" fill="none" stroke="rgb(0,0,0)" stroke-miterlimit="10" stroke-width="2"/></g><g><g><path d="m51.2 361.5h16.4v46.3h-16.4z" transform="matrix(.707 .707 -.707 .707 289.36 70.682)"/></g><g><path d="m149.5 361.5h16.4v46.3h-16.4z" transform="matrix(.707 .707 -.707 .707 318.155 1.16)"/></g><g><path d="m247.8 361.5h16.4v46.3h-16.4z" transform="matrix(.707 .707 -.707 .707 346.951 -68.362)"/></g><g><path d="m346.1 361.5h16.4v46.3h-16.4z" transform="matrix(.707 .707 -.707 .707 375.746 -137.884)"/></g><g><path d="m444.5 361.5h16.4v46.3h-16.4z" transform="matrix(.707 .707 -.707 .707 404.542 -207.406)"/></g></g><g><g><path d="m100.3 443.4h16.4v46.3h-16.4z" transform="matrix(.707 .707 -.707 .707 361.692 59.918)"/></g><g><path d="m198.6 443.4h16.4v46.3h-16.4z" transform="matrix(.707 .707 -.707 .707 390.488 -9.605)"/></g><g><path d="m297 443.4h16.4v46.3h-16.4z" transform="matrix(.707 .707 -.707 .707 419.284 -79.127)"/></g><g><path d="m395.3 443.4h16.4v46.3h-16.4z" transform="matrix(.707 .707 -.707 .707 448.079 -148.649)"/></g></g></g></svg>