<svg id="Layer_1" height="512" viewBox="0 0 512 512" width="512" xmlns="http://www.w3.org/2000/svg"><g><path d="m469 116.2c-.2-63-51.6-114.2-114.7-114.2-36.1 0-69.7 16.9-91.4 45.5-15.2-23.1-41.2-37.3-69.2-37.3-25.7 0-49.7 11.7-65.3 31.6-6.7-2.2-13.6-3.3-20.7-3.3-29.2 0-54.7 19.2-62.9 46.4-24.8 5-42.8 26.6-42.8 52.2 0 29.4 24.3 53.4 54.1 53.4h28.3c4.1 36.8 35.4 65.5 73.3 65.5h278.6c40.7 0 73.7-33.1 73.7-73.7 0-28.4-15.9-53.7-41-66.1zm-412.9 57.9c-20.8 0-37.7-16.6-37.7-37 0-19.1 14.6-34.9 33.9-36.8l6-.6 1.2-5.9c4.5-22.5 24.8-38.9 48.2-38.9 7 0 13.8 1.5 20.3 4.3l6.3 2.8 3.8-5.8c12.3-18.6 33.1-29.7 55.6-29.7 16.5 0 32 6.2 44 16.7-48.2 0-82.9 27.5-93.4 66.5-32.2 5.8-56.4 32-59.9 64.4zm380.2 65.5h-278.6c-31.6 0-57.4-25.7-57.4-57.4 0-29.6 22.2-54.1 51.6-57.1l6-.6 1.2-6c6.8-34.4 37.2-59.3 72.3-59.3 10.5 0 20.7 2.2 30.4 6.6l6.4 2.9 3.8-5.7c18.3-27.9 49-44.6 82.3-44.6 54.2 0 98.3 44.1 98.3 98.3 0 .8-.5 10.2-.5 10.2l5.4 2.2c21.9 8.8 36.1 29.7 36.1 53.2 0 31.6-25.7 57.3-57.3 57.3z"/><path d="m177.5 354.3h21.1v-16.4h-21.1l14.9-14.9-11.5-11.6-15 14.9v-21.1h-16.4v21.1l-15-14.9-11.6 11.6 15 14.9h-21.2v16.4h21.2l-15 15 11.6 11.6 15-15v21.2h16.4v-21.2l15 15 11.5-11.6z"/><path d="m316.7 354.3h21.2v-16.4h-21.2l15-14.9-11.6-11.6-14.9 14.9v-21.1h-16.4v21.1l-15-14.9-11.6 11.6 15 14.9h-21.2v16.4h21.2l-15 15 11.6 11.6 15-15v21.2h16.4v-21.2l14.9 15 11.6-11.6z"/><path d="m471 323-11.6-11.6-14.9 14.9v-21.1h-16.4v21.1l-15-14.9-11.6 11.6 15 14.9h-21.2v16.4h21.2l-15 15 11.6 11.6 15-15v21.2h16.4v-21.2l14.9 15 11.6-11.6-15-15h21.2v-16.4h-21.2z"/><path d="m262.1 445.9-11.6-11.6-15 15v-21.2h-16.4v21.2l-15-15-11.5 11.6 14.9 14.9h-21.1v16.4h21.1l-14.9 15 11.5 11.6 15-15v21.2h16.4v-21.2l15 15 11.6-11.6-15-15h21.2v-16.4h-21.2z"/><path d="m401.4 445.9-11.6-11.6-15 15v-21.2h-16.4v21.2l-15-15-11.5 11.6 14.9 14.9h-21.2v16.4h21.2l-14.9 15 11.5 11.6 15-15v21.2h16.4v-21.2l15 15 11.6-11.6-15-15h21.2v-16.4h-21.2z"/><path d="m354.3 34.8v16.4c36.2 0 65.6 29.4 65.6 65.6h16.4c0-45.3-36.8-82-82-82z"/></g></svg>