<svg id="Layer_1" enable-background="new 0 0 75 75" viewBox="0 0 75 75" xmlns="http://www.w3.org/2000/svg"><g id="Collecting_Stars" fill="rgb(0,0,0)"><path d="m36.787693 17.2731495c.0177002-.4541016-.3360596-.8366699-.7902832-.8544922-.4541016-.0178223-.8366699.3361816-.8544922.7902832s.3359375.8366699.7901611.8544922.8367921-.3359375.8546143-.7902832z"/><path d="m38.8333473 18.218462c.4542236.0178223.8369141-.3361816.8546143-.7902832s-.3360596-.8366699-.7901611-.8544922c-.4542236-.0178223-.836792.3359375-.8546143.7900391-.0177002.4543457.3360596.836914.7901611.8547363z"/><path d="m40.3625221 20.0263233c-1.1445313.6113281-2.5537109.7080078-3.7666016.2597656-.1240234-.0449219-.2578125-.0214844-.3554688.0517578-.2048073-.0409603-.4268456.1258888-.4355469.3564453-.0361328.9882813.5224609 1.9716797 1.3916016 2.4462891 1.6352463.8934441 4.1122169-.0324135 3.7138672-2.8359375-.0350608-.2557449-.3132972-.3987083-.5478515-.2783203zm-.7832031 2.3476563c-1.1293716.7862263-2.7740326.1620903-3.0039063-1.3027344 1.1757813.3681641 2.4785156.3154297 3.6220703-.1425781-.0146484.5517578-.1787109 1.1416015-.618164 1.4453125z"/><path d="m50.3602028 9.5302305c-1.2683372-.4754658-1.2010078-.2534285-2.0500488-1.2299805-2.1599121-2.4899902-5.8000488-3.5800781-8.9599609-2.6699219-1.6999512.4799805-3.2099609 1.5200195-4.3200684 2.8798828-1.2281036 1.4866676-1.9656906 3.6230154-2.0400391 4.4399414.4144287-.1972656.8145752-.3198242 1.2141113-.4099121-.6353111 2.1712971-.6252899 4.5547266-.3045654 6.7751455.5351563 3.71875 3.6679688 6.9521484 7.4472656 7.6894531 4.0562515.7905464 8.7687874-2.5428829 9.4510498-7.0913086.4346848-.22052 1.4395523-1.12743 2.0922852-2.2832031 1.4699707-2.580077.3999023-6.9899892-2.5300293-8.1000966zm-8.869751 16.7382803c-3.4765625-.6777344-6.3564453-3.6474609-6.8486328-7.0605469-.3202286-2.2502575-.3232689-4.631196.3837891-6.782958 2.2822723-.1108971 3.7289886 1.2389612 6.0545654.9353027 1.3999023-.1899414 2.7199707-1 3.5-2.1801758 1.6799316 1.5 2.7299805 3.7001953 2.8200684 5.9602041.0498047-.0285645.1035156-.046875.1556396-.0693359-.110405.2947845.1390038.5554619.4238281.4953613.795639-.1707516 1.5876732.5075245 1.4306641 1.3759766-.0875626.5441456-.5972214.9605541-1.1074219.9833984-.4841995.0229492-.4671822.75.0175781.75h.0175781c.6742134-.0311909 1.2941208-.4417591 1.6047363-1.0180664.0452881.0073242.0861816.0185547.1280518.0310059-.0454102.3342285-.1027832.6623535-.1868896.9772949-.8671875 3.2490235-4.640625 6.3339844-8.3935547 5.6025391zm10.3897705-10.118164c-.0802689.4809742-.8285599.3421535-.7299805-.1501465.329834-1.6298819-.3701172-3.4499502-1.7000732-4.4399405-.3925629-.276741.0273247-.8982658.4500732-.5998535 1.579834 1.1699219 2.3798829 3.2597656 1.9799805 5.1899405z"/><path d="m52.0500221 46.225544c-.0332031-.203125-.21875-.3408203-.4306641-.3095703-.2041016.0332031-.3427734.2255859-.3095703.4306641l.25 1.4560547c.152153 1.5244331.0612106 2.9074516-1.4267578 3.4326172-1.4277534.5684586-7.2120972 1.3682938-13.1230469.4140625-2.960762-.4658813-3.6035156-1.4782639-3.6035156-3.9931641.0213127-4.7076073.9154892-7.4836006 1.7001953-11.9101563 3.7398682-.4855957 7.3822021-1.7895508 10.5185547-3.8417988.4147224-.2702675.0053139-.9000397-.4101563-.6269531-2.9771729 1.9477558-6.4244385 3.2092304-9.9705811 3.7036152 1.2939987-7.1791325.7467079-4.510622 1.227417-6.1684589.1064453-.2861328.2177734-.4921875.3349609-.6220703.319397-.3362064.3825264.047863 2.2666016.6748047 2.7426949.8965187 4.8800545.5707092 5.0742188.5742188 1.4872742-.101511 1.6326408-.1999111 2.8154297-.7558594 1.1474304-.5423527 1.0787315-.4695053 1.09375-.4882813.0481224.0802002.1537895 1.1204319.9345703 5.0048847.8383865 4.1715546.5604439 3.0246696 1.8427734 10.3535156.0845909.4910889.821003.3611717.7392578-.1269531-1.2135124-6.932476-.9976578-6.1391907-1.8466797-10.3740234-.3115234-1.5507832-.6328125-3.1533222-.8671875-4.7314472-.0273438-.1796875-.0898438-.6005859-.4746094-.8046875-.5322952-.2303696-.97789.1898937-2.6464844.9003906-.518898.2198353-1.2982292.2511597-1.9267578.2949219-1.5175781.109375-3.0361328-.0791016-4.5039063-.5585938-1.7772064-.5924015-2.2783203-1.2791996-3.0517578-.4726563-.4937897.5500793-.7820587 1.7313709-.9135742 2.4599609-.0655518-.109375-.1802979-.1855469-.3168945-.1855469-.0019531 0-.0039063 0-.0058594 0-1.0657959.0161133-2.1260986.2590332-3.1043682.684082-.0845509-1.2969246-.3118458-3.5786133-1.5987549-3.5786133h-1.7071533c.0245476-.1548367-.0110588.3581219.0942383-1.3100586.0227051-.3615723-.2590332-.6706543-.6323242-.6914063-1.6646729-.0910645-3.3311768-.1264648-4.9975586-.1166992l.8062744-.5380859c.3988361-.2679672.3362122-.8810596-.1054688-1.0517578l-1.1425781-.4423828-.28125-1.2705078c-.1104774-.4886532-.7265167-.6178417-1.0263672-.2236328l-.7861328 1.0361328-1.2236328-.0761719c-.4342709-.0510902-.7976227.4810219-.5341797.9121094l.671875 1.09375-.2637939.6711426c-.0493164.0026855-.0986328.003418-.1479492.0061035-.3724365.019043-.6558838.331543-.6323242.6914063.1055775 1.6716537.069273 1.1545067.0942383 1.3100586-1.3783493.0569878-1.9111652-.1530647-2.3909912.2568359-1.0820313.8144531-1.1210938 3.4511719-1.0019531 6.1796894.0657101 1.4506798-.0111752 3.2398529.2255859 7.0996094.0126953.2060547.1875.3779297.3974609.3505859.2060547-.0126953.3632813-.1904297.3505859-.3974609-.2283506-3.7231865-.1708555-5.8629608-.2236328-7.0849609-.0514517-1.1670837-.2530746-5.6542988.9941406-5.6542988 14.4931087.0125103 13.5031738-.0620975 13.6630859.0996094.9485416.9702053.6657104 6.0897007.6815186 7.2871113-.755249-.0212402-1.5080566-.0749512-2.2562256-.1689453-.2618408-.5307617-.9931641-1.0068359-1.7172852-1.4130859 0 0 0 0-.0009766 0-2.0766373-1.1644363-4.0496597-.4328651-4.6337891 1.0205078-.4772091 1.188076.1884766 2.7900391 1.8945313 2.7900391.9272118 0 4.0156479-.8237343 4.4659424-1.6398926.7463379.0893555 1.4975586.1398926 2.2509766.1601563.0180664 2.8044434-.0874023 5.4228516-.3360596 7.9533691-.0380859.3789063-.078125.3955078-.6132813.6132813-.4716797.1982422-.9628906.3652344-1.5029297.5107422-3.5644798.9737396-9.8941669.2776108-11.3876953-.2460938-.6418266-.2142029-.8479977-.3242149-.9482422-.4599609-.0799732-.1303902-.0939198-.2050858-.21875-2-.0420761-.5247231-.7839432-.4167442-.7480469.0566406.1636543 2.3110962-.0193834 2.5496254 1.6689453 3.1113281 1.565712.5488396 7.9217358 1.3276291 11.8300781.2617188.5712891-.1542969 1.09375-.3310547 1.6289063-.5556641.5332031-.2167969.9550781-.3886719 1.0371094-1.2177734.2506104-2.5498047.3577881-5.1865234.34021-8.0092773.7936993-.0029297 1.586668-.0556641 2.3779278-.1337891-.7323189 4.1512794-1.6494865 7.0018044-1.6732178 11.8237305 0 2.8739128.8904915 4.2100182 4.2353516 4.7353516 1.9189453.3105469 3.8515625.4658203 5.7851563.4658203 2.0207977 0 6.1416054-.3096733 7.6914063-.9072266.2985344-.0663414.9428406-.4406242 1.3193359-.9091797.7431641-.9189453.7363281-2.1347656.6152344-3.3339844zm-32.4785137-23.0820332 1.0146484.0625c.4951496.0279751.6416283-.515049 1.1123047-1.0419922.2140713.7232113.1183128 1.2344704.5761719 1.4121094l.3017578.1171875h.0009766l.6435547.2490234c-.6920509.5244312-1.0762863.5567684-1.1395264 1.0134277-.6912842.0124512-1.3823242.0339355-2.0732422.0637207l.1688232-.4287109c.1795121-.4525718-.2280235-.7355251-.6054687-1.4472656zm5.8046875 13.4062519c-.5019531.1191406-1.1367188.2246094-1.6005859-.0332031-.5019531-.2783203-.7265625-1.0117188-.4902344-1.6015625.2475986-.6137505.9535351-1.1298828 1.8867188-1.1298828 1.3951626 0 3.1512585 1.3577385 3.1279297 1.6376953-.1000252.045826-.4977151.5511818-2.9238282 1.1269531zm6.5783691-5.1098652c.9551983-.4614258 2.0142803-.7189941 3.0769024-.7348633.0870361-.0012207.1629639-.0368652.225708-.0876465-.1952553 1.2052002-.6942444 3.9121342-.7883301 4.4414082-.8383789.0900879-1.6787109.1335449-2.5203838.1362305-.0138988-.9852562.0657521-1.9266205.0061035-3.7551289z"/><path d="m24.4269772 30.7646046c-2.3740234.8427734-5.1396484.6816406-7.3974609-.4238281-.4479809-.2180634-.7740231.4565296-.3300781.6738281 2.4141941 1.1829739 5.3201408 1.398241 7.9775391.4570313.4681567-.166195.2164687-.8727799-.2500001-.7070313z"/><path d="m25.2668209 40.078083c-.0615234-.1982422-.2724609-.3046875-.4697266-.2470703-2.2080078.6865234-4.6728516.5166016-6.765625-.4648438-.4572544-.2034912-.7637634.4709015-.3183594.6796875 1.34375.6298828 2.8310547.9501953 4.3173828.9501953 1.0117188 0 2.0234375-.1484375 2.9892578-.4482422.1972657-.0615233.3085938-.2714843.2470704-.4697265z"/><path d="m22.221777 42.4919014c.0766602-.0993652.0117188-.2507324-.1099854-.2561035-.1005955-.0044518-1.03895-.0459557-.9383545-.0415039-.1354313-.0054741-.1156998-.1081123-.6298828-.918457-.0661621-.1096191-.2208252-.0925293-.2615967.0288086l-.3145752.9365234c-.0459042.1370125-.1469326.086792-1.0073242.3413086-.1176758.0317383-.1480713.1938477-.0516357.2741699l.7440186.6201172c.1113071.0928726.0332203.2128868.0073242 1.1296387-.0065918.1291504.1291504.2121582.2294922.1403809l.7744141-.5532227c.1122952-.0799179.1507492.0156212 1.0119629.3566895.1135254.0480957.2279053-.0625.1934814-.1870117-.2437-.9646301-.3243275-.9934502-.2386475-1.104248z"/><path d="m28.9139156 30.8773975c.0766602-.0993652.0115967-.2507324-.1101074-.2561035-.1005974-.0044231-1.0389519-.0456829-.9383545-.0412598-.1354008-.0061684-.111824-.1024113-.6297607-.918457-.0662842-.1098633-.2209473-.0927734-.2617188.0288086-.3210869.8902264-.2820797.9973774-.414917 1.0334473l-.9068604.2443848c-.1176758.0317383-.1481934.1936035-.0517578.2739258.6868744.599659.8083115.6092033.8011475.7531738l-.0498047.9965839c-.0064697.1291504.1292725.2121582.2296143.140625l.7744141-.5532227c.1121616-.0805092.1559963.0174904 1.0118408.3566895.1136475.0480957.2279053-.0625.1934814-.1872559-.2437534-.9646149-.3240871-.9933605-.2385254-1.10425z"/><path d="m24.3392086 18.2975636c.0834961-.1083984.0126953-.2734375-.119873-.2792969-.1005974-.0044174-1.1231804-.0493393-1.022583-.0449219-.1476822-.0068512-.1243439-.1154556-.6864014-1.0009766-.0722656-.1196289-.2406006-.1010742-.2850342.03125l-.3427734 1.0205078c-.0506783.1502895-.1669369.0966816-1.0977783.3723145-.1281738.0344238-.161377.2109375-.0563965.298584l.810791.6755371c.1177197.098444.0376282.1811657.0080566 1.2312012-.0070801.1408691.1408691.2312012.2502441.1530762l.84375-.6027832c.1226959-.0875397.1679592.0182915 1.1027832.3884277.1237793.0527344.2484131-.0678711.2109375-.2038574-.2613239-1.0339756-.3531322-1.0821705-.2600098-1.2033691z"/><path d="m40.098484 66.1483917.2269287-12.4609337c.0039063-.2070313-.1611328-.3779297-.3681641-.3818359-.0019531 0-.0048828 0-.0068359 0-.2041016 0-.3710938.1630859-.375.3681641l-.2196045 12.0634727c-1.4863129-.6335602-3.0042648-.644928-4.3321533-.1806641-.4873047.1699219-.8789063.5429688-1.0478516.9970703-.7795143 2.0879974 2.9508362 3.7238693 5.7900391 2.1416016 1.2408333-.6915512 1.2667008-1.82238.3326416-2.546875zm-4.1842041 2.2041016c-1.5619125-.5115662-1.5965958-1.7519531-.6425781-2.0888672 2.2483826-.78508 4.6787872.2531509 4.7294922 1.015625.0555687.8134918-2.1793785 1.697937-4.0869141 1.0732422z"/><path d="m47.6285133 66.6308136.2467041-12.6435509c.0039063-.2070313-.1601563-.3779297-.3681641-.3818359-.0019531 0-.0048828 0-.0068359 0-.2041016 0-.3710938.1630859-.375.3681641l-.2376709 12.1772423c-1.4977989-.6805496-3.1009331-.7105789-4.4644775-.2329102-1.6193657.5646744-1.6266823 2.7618713.65625 3.5087891 3.071228 1.0068664 6.3917465-1.1073762 4.5491943-2.7958985zm-4.3157959 2.0830078c-1.5480003-.506073-1.6075134-1.7504959-.6425781-2.0878906 2.1424637-.7467346 4.6756783.1917267 4.7304688 1.015625.0538559.819046-2.1964798 1.6953735-4.0878907 1.0722656z"/><path d="m56.0422096 40.2528877c-.1787109.1044922-.2402344.3339844-.1357422.5126953.1014862.1758118.3287964.2412567.5126953.1357422 1.0927734-.6357422 1.7597656-1.9580078 1.6220703-3.2148438-.0224609-.2060547-.2109375-.3496094-.4140625-.3320313-.2060547.0234375-.3544922.2080078-.3320313.4140625.107422.9716798-.408203 1.9931642-1.2529296 2.4843751z"/><path d="m56.4504128 43.5439034c.209919 0 .0962067-.0154381 2.6904297-1.7597656.4101448-.2812424-.0146866-.8982086-.4238281-.6191406l-2.4785156 1.6943359c-.3046418.2088966-.154255.6845703.211914.6845703z"/><path d="m59.5461159 44.421833-3.4492188.1416016c-.485817.0206223-.4703979.75.015625.75.1006966 0 3.5655174-.1394196 3.4648438-.1416016.4588623-.0194816.5097885-.7541313-.03125-.75z"/></g></svg>