<svg id="Layer_1" height="512" viewBox="0 0 512 512" width="512" xmlns="http://www.w3.org/2000/svg"><g><path d="m370.7 170v16.4c27.1 0 49.2 22.1 49.2 49.2h16.4c0-36.2-29.4-65.6-65.6-65.6z"/><path d="m468.2 248.2c.6-4.2.8-8.5.8-12.7 0-54.2-44.1-98.3-98.3-98.3-29 0-55.9 12.5-74.6 34.4-5.1-1.1-10.3-1.7-15.5-1.7-21.7 0-41.9 9.7-55.6 25.6-13.8-13.6-33.8-20.1-53.1-16.3-15-17.1-36.2-26.8-59.1-26.8-43.4 0-78.7 35.3-78.7 78.7 0 2.9.2 5.9.5 8.8-19.5 8.3-32.6 27.5-32.6 49.1 0 29.2 23.8 53 53.1 53h70.5c11.4 19.6 32.5 32.8 56.7 32.8h262.2c36.1 0 65.5-29.4 65.5-65.5 0-27.3-16.9-51.4-41.8-61.1zm-349.3 77.4h-63.8c-20.2 0-36.7-16.5-36.7-36.7 0-35 34.9-37.4 34.9-37.4s-2.9-11.7-2.9-20.3c0-34.4 28-62.3 62.3-62.3 35.2 0 52.9 29 52.9 29s32.4-9.2 49.8 11.5c-.4.7-.9 1.4-1.2 2.2-28.5-3.7-49.4 14.9-54.9 36.3-25.4 9.5-42.7 34-42.7 61.4.1 5.6.9 11.1 2.3 16.3zm325.6 32.8h-262.2c-27.1 0-49.2-22.1-49.2-49.2 0-44.1 40.7-48.7 40.7-48.7l.8-5.2c2.3-16 16.2-28 32.3-28 8.3 0 17.2 4 17.2 4l2.7-7.3c8.3-22.5 29.9-37.7 53.8-37.7 11.1 0 21.7 4 21.7 4s19.8-36.7 68.5-36.7c45.2 0 81.9 36.8 81.9 81.9 0 15.7-3.3 24.3-3.3 24.3s44.2 6.1 44.2 49.5c0 27.1-22 49.1-49.1 49.1z"/></g></svg>