<svg id="Layer_1" enable-background="new 0 0 75 75" viewBox="0 0 75 75" xmlns="http://www.w3.org/2000/svg"><g id="Colour_Pencil" fill="rgb(0,0,0)"><path d="m56.3531303 24.4233017c.1770439-.3655548-.2555008-1.2026482-.432373-1.53125-.4328537-1.1366634-.8802834-1.7012939-1.0828247-2.0258789-.6576958-1.2142086-2.0183411-2.7309265-3.546875-3.6425781-.9189453-.5517578-1.9379883-.9443359-3.0283203-1.1660156-.1972656-.046875-.4003906.0888672-.4423828.2919922-.0410156.203125.0898438.4013672.2929688.4423828 3.0999031.6314049 5.1804733 2.6127949 6.6210938 5.4013672-2.0416489-1.3763943-5.0239677-.8814507-6.8115234-2.2197266-.3385658-.2525291-.7761536.1687088-.5317383.515625.4038086.5771484.1669922 1.4335938-.2592773 1.9433594-1.0119743 1.1920567-3.115612 1.3568821-4.4238281 2.5429688-1.0766602.9628906-1.5053711 2.5771484-1.0874023 3.9560547-.539856.3540287-.7848701 1.0520725-.5214233 1.6513672.0297241.2663574.1221924.5202637.2626953.7514648-.15802.25-.2778931.5209961-.3174438.8100586-1.2630043-1.1586609-1.6615295-1.679533-2.2832031-3.4658203-.8999329-2.5202751-.6988449-5.2914524.4038086-7.5.628418-1.2886906 1.5472412-2.3036728 1.460144-2.2036133 1.2467842-1.432333 2.5654793-2.2050285 4.786438-2.3461914.4882317-.0299397.4552689-.7700386-.046875-.7480469-2.2464867.1398582-3.7154884.9153194-4.9625244 2.2368164-.7931862-1.201025-1.8742485-1.6910858-3.0828857-2.2915039-2.9221916-.9073639-6.3016148.4452076-7.3837872 1.9277344-.7909603 1.0825768-.8032455 2.7045727.4719849 3.4018555-2.0293026 1.2905178-1.1697483 3.6693802.8336792 3.4770508-.5733452 1.2608166.2853737 2.8369141 1.91992 2.8369141 1.0662537 0 2.1050301-.5942535 4.302124-1.5996094.0863571 1.8852863.8156891 4.4602909 2.1573486 5.9277344.0015869.001709.003479.003418.0050659.005127.2003784.2763672.4110718.5383301.6372681.7766113-1.2001419.0886421-2.8147888.9538078-4.822998 1.440918-.4822464.1170502-.3027878.8542976.1767578.7285156 2.8775406-.6968384 4.1614647-1.7695618 5.5975952-1.3244629 1.1712341.8818169.723999.1817093 1.9429321 1.7141113.1767578.2216797.3515625.4404297.5395508.6552734.9316521.9770966 1.8291702 1.1672668 2.0415039 2.4541016.1212158.7045898-.0297241 1.4838867-.3845215 2.1706543-.5621948-.4924316-1.0887451-1.0244141-1.5505371-1.6101074-.3071022-.3891525-.8965492.0740967-.5888672.4648438.5111694.6479492 1.0942993 1.2373047 1.7210083 1.7773438-1.5020027 1.837986-4.4705925 1.6539383-6.5994263 1.953125-1.8034897.2523613-8.7633171 1.1301727-10.2797832.1181641-1.203083-.8004875-1.2529297-2.7184067-1.2529297-4.1611328-.0107422-1.0351563-.0019531-1.9619141.2163086-2.8164063.2602539-.9414063.784668-1.6699219 1.3999023-1.9472656 1.3792191-.6041489 2.8542099.7667389 4.9389629.8222656h.0097656c.4894638 0 .5004005-.7361145.0097656-.75-1.9702168-.0535393-3.5190105-1.5249939-5.26367-.7568359-.831543.3740234-1.4941406 1.2607422-1.8193359 2.4394531-.2426758.9492188-.2529297 1.9277344-.2416992 3.0126953 0 1.7563477.1087589 3.7953262 1.5869141 4.7822266.6333008.421875 1.3525391.4970703 2.0986328.5419922 2.918581.1533318 5.8242321-.1394005 8.7016582-.5429688 2.2434006-.3144264 5.3590393-.1036453 7.0784912-2.2263184 3.5518265 2.7303238 7.2685928 2.8054962 7.1685791 2.7819824.0029907 0 .0048218-.0029297.0078125-.0031738.3451157.7522697 1.8569603 1.6462975 1.5239258 1.4260254v.0009766c1.8593483 1.2541466 3.6820107.9217262 4.5488281-.2128906.5742188-.7509766.59375-1.8398438.0454102-2.53125-.5385742-.6806641-1.4980469-.9511719-2.7749023-.7773438-.9501038.1297951-2.9822464.46558-3.3719482 1.3422852-2.4300537-.1928711-4.7937012-1.1484375-6.7269287-2.6459961.4834595-.861084.6946411-1.8681641.5383301-2.7773438-.2190552-1.3243256-1.0668221-1.8549118-1.6894531-2.3457031-.506958-.4270592-.5442734-.4816132-.9915771-1.0415039 7.1413035 2.2939755 14.1065517-2.8677295 12.5560908-10.3125003zm-23.8569946 2.1469727c-.9497566-.4748802-.8960037-1.8865852.1108398-2.2871094.4548569-.181942.1912537-.8701572-.2670898-.7011719-.4487286.1630859-.8525372.2998047-1.2495098.3076172-.3134766.0009766-.7280273-.0927734-.9389648-.3955078-.2895508-.3974609-.1020508-1.0263672.2353516-1.3779297.5719795-.5871525 1.4309597-.7731571 1.6782207-.8955078.4450417-.2225208.1097565-.8914089-.3339825-.671875-.5563297.2748909-1.2202759-.04953-1.4555664-.5380859-1.0576687-2.1755447 3.4624958-4.5070801 6.7661114-3.4902344 1.1997147.5937157 2.16325 1.033987 2.8383789 2.1621094.0040894.0063477.0073853.0136719.0114746.0205078-1.5261421 1.8481808-2.338871 3.9004726-2.4326782 6.34375-2.7641869 1.2668857-3.9843865 2.0138797-4.9625855 1.5234375zm20.9086914 17.2128906c.6655045-.5654259 2.5939064-.8779297 3.3383789-.8779297 3.3552513 0 1.4080772 4.5657349-2.1049805 2.1982422 0-.0009766-.0639648-.0429688-.0639648-.0439453-.3430405-.2290306-1.4832306-1.0087166-1.1694336-1.2763672zm-10.1948242-18.25c1.2312088-1.1177063 3.2771912-1.1815529 4.4956055-2.6181641.4033203-.4824219.6723633-1.1650391.6411133-1.828125 2.2631721 1.0319118 5.6635246.5356808 6.84375 2.6728516.1599731.2910156.2805176.4851074.3947144.6206055 1.0302544 4.4526558-1.3602409 9.1173515-6.7174683 9.9946289-2.0688477.3383789-4.8302002.0964355-6.9553223-1.369873-.024189-.1051254-.2904816-.5109291-.0222778-1.1164551 1.5474091 1.0460815 2.920948-.6217709 2.1060181-.9345703-.1938477-.0742188-.4106445.0234375-.484375.2167969-.1468735.3861847-1.0295181.4456921-1.4663086-.1386719-.5095749-.6817455.0041199-1.5909557.3452148-1.3857422.4941139.3027973.990799-.6489544.0139771-.7565918-.4345704-1.1437989-.1081544-2.539795.8053588-3.3566895z"/><path d="m15.4170361 39.7177353c.2541313.4235535.8992634.039917.6425781-.3867188-1.0081177-1.6762695-1.4263306-3.661377-1.1918335-5.604248.0366211-.0344238.0801392-.057373.1122437-.098877.3769531-.4853516.0478516-1.0439453-.1489258-1.3779297-.0703354-.102478-.6598978-1.3512363-2.0332031-2.4335938-.9730339-.7692661-1.8901186-.0800743-1.4560547 1.0800781.4245834 1.1364784 1.6335554 2.8783035 2.7520752 3.0598145-.1733399 2.0053712.2843017 4.034668 1.3231201 5.7614747zm-3.3725586-9.0839844c-.0869141-.2324219-.0668945-.3740234-.0498047-.3974609.1310005.0204678.2229061.0771675.3388672.1689453 0 0 0 0 .0004883.0009766.7128906.5615234 1.3271484 1.2861328 1.7758789 2.0947266.0736313.1254463.3560467.5669479.2773438.6679688-.1322365.1689682-.4929199-.0565948-.6572266-.1894531-.760254-.6162111-1.3427735-1.426758-1.6855469-2.3457033z"/><path d="m6.7978954 42.995079c.8496876-.3660202 2.2493095-2.21521 2.7332153-3.1489258 1.6982422 1.2521706 3.8708134 1.960598 6.0822144 1.8735352.4511414-.0191536.5134926-.6983376-.0302734-.75-2.0736694.0993652-4.1912842-.6027832-5.8184204-1.8840332.0254812-.7410278-.8114882-1.4059105-1.7489624-.7302246-.9956055.7158203-1.8706055 1.3916016-2.5014648 2.4238281-.1708984.2792969-.3505859.6191406-.3837891 1.0175781-.0790964.9550171.754826 1.5929032 1.6674804 1.1982422zm-.9204101-1.1357421c.0205078-.2421875.1513672-.484375.2763672-.6894531.5585938-.9130859 1.3383789-1.5146484 2.2998047-2.2060547.3066406-.2197266.4155273-.1347656.4873047-.0791016.1757813.1357422-.0009766.5048828-.1220703.7128906-.3884535.6687012-2.0735869 3.1419907-2.7661133 2.7158203-.1191407-.0742187-.190918-.2607422-.175293-.4541015z"/><path d="m48.7734184 27.2057724c.5620117.0012207.982605-.5266113.9393921-1.1791992-.0431519-.6525879-.5337524-1.1826172-1.0957642-1.1838379s-.982605.5266113-.9394531 1.1791992c.0432129.6525879.5338135 1.1826172 1.0958252 1.1838379z"/><path d="m52.510479 25.7565536c.5618896-.0095215.9721069-.5456543.9161987-1.1972656s-.5567627-1.171875-1.1186523-1.1621094c-.5619507.0095215-.972168.5456543-.9162598 1.1972656s.5567627 1.1718751 1.1187134 1.1621094z"/><path d="m26.0857983 34.0129013c-3.0410862-.7821655-4.8440113 3.2127075-7.7440186 3.5959473-.4057617.0539551-.7657471-.0637207-1.1004639.2294922-.6726685.5895996-.8529663 1.699707-.9837036 2.5905762-.258112 1.7585182.065094 2.9743843 1.9282227 2.7924805.0776367-.0075722 7.351759-.1452293 7.4297485-.1467285-.8938599-2.9199219-.6662598-6.2612305.6121826-8.9890137z"/><path d="m50.6079521 31.1220322c1.806591.2007313 2.8561554-2.0956116 1.9692383-2.2138672-.2060547-.03125-.394043.1171875-.4208984.3232422-.0898438.6757813-.7836914 1.2226563-1.4643555 1.1445313-.199707-.0136719-.3911133.125-.4145508.3310547s.1245117.3916015.3305664.415039z"/><path d="m42.1211357 18.5663681c-1.2949219 1.1230469-2.2353516 2.6582031-2.6479492 4.3232422-.1199379.4821091.6095276.6599789.7275391.1796875.3759766-1.515625 1.2324219-2.9140625 2.4116211-3.9365234.3764762-.3260441-.1194726-.8913842-.491211-.5664063z"/><path d="m69.4385223 33.4052353c-4.832428-.7939796-4.6224976-.865078-4.8936157-.7531738-.4933548-.2769356-.6927719-.0157204-2.8244057.3273926-.2883644-1.9182892-3.6708603-1.2804737-3.4967651.6796875-.1012688.0193558-7.1865349 1.3739014-7.3208618 1.4316406-.9455109.3359032-.7685547 1.5129204-.5524902 2.565918-.9804688-.0522461-1.9074097-.2521973-2.7541504-.6166992-.454689-.1973839-.7523918.4928093-.2958984.6894531 1.0059814.4326172 2.1092529.6574707 3.277771.6879883.2300491.5298882.6190872.9317436 1.1812134.8256836 13.7210197-2.7097015 13.0230293-2.4165115 13.3811684-2.7060547.0401611.0092773.0786743.0273438.119812.0273438.0820313 0 .1640625-.0185547.2387695-.0566406.0004883-.0009766.0009766-.0009766.0014648-.0009766.6782227-.3525391 3.1157227-1.6181641 4.0917969-2.1171875.4453811-.2324716.341629-.897648-.1538087-.9843751zm-8.7734413-.7460938c.199707.0927734.3066406.2480469.3271484.4746094.043148.4933472-.4716377.8849335-.859375 1.1806641-.1733398.1318359-.3549805.2666016-.4936523.2470703-.1918907-.0197372-.6223869-.4563065-.668457-.9677734-.0336914-.3740235 1.0556106-1.2318955 1.6943359-.9345704zm-9.0458984 5.8466797c-.1899414.0576172-.3642578-.3857422-.4248047-.5673828-.1220703-.3759766-.1791992-.8125-.2167969-1.0966797-.0572319-.3922844-.1454239-.9280396.1982422-1.0527344.0403671-.0173569 1.8126297-.3558235 1.8546143-.3637695.5133667.7905273.6768799 1.8061523.446106 2.7207031zm2.7928467-.5410156c.1611938-.9313965.003479-1.8894043-.4484863-2.7189941 1.5163231-.2977829 3.8345222-.7420959 4.4818115-.8659668.2463379.4733086.6767426.9326172 1.2148438.9326172.4003906 0 .7265625-.2490234.9272461-.4013672.4581451-.3482246.8146706-.6350937 1.0288696-1.1486816l2.4926186-.479248.1308594.0927734c.0187073.1000481.2371521 1.268261.2184448 1.1682129-8.2804718 1.5846596-7.6932487 1.4380875-7.8247108 1.5092773l-.0470581.0090332c-.488224.0913239-.3460464.837513.1396484.7363281l7.8691444-1.4946289.1104126.6123047c-.0528413.1176033.5802154-.0830002-10.293644 2.0483398zm11.0408973-2.2783203c-.019249-.1001854-.4656372-2.4241066-.4372559-2.2763672l3.6323242.6210938c-.9882812.5095214-2.4497069 1.2678222-3.1950683 1.6552734z"/><path d="m49.3727226 47.9994736c-.2647667-.2058983.0629692-.1243515-4.9932861.090332-.5064583.0218773-.6913147.6743164-.2753906.9609375 4.1048737 2.7687645 3.8670158 2.7394485 4.1740723 2.7568359.3748817.5214348.0878639.1556931 12.8059082 3.3554688.2490578.0596313.5311241.1787109.84375.1787109.8041916 0 1.1144066-.7562637 1.3349609-1.5009766.3075714-1.0218811.5856094-2.4157715-.453125-2.6708984-.0708008-.0175781-13.0205078-3.1835937-13.0200196-3.1835937-.1402587-.0332031-.2805786-.020752-.4168701.0131836zm-3.0710449 1.6467285c.2425613-.288887.308609-.5456238.2574463-.904541.8240356-.0385742 1.6518555-.0778809 2.1720581-.1025391-.0246277.1002617-.597126 2.4308167-.5617065 2.2866211zm2.6357422 1.3054199.2178345-.8435059c.2244148.0556335 8.9172478 2.2176018 7.824585 1.9196777l.0529175.0131836c.4982491.1125069.6495781-.6124268.1806641-.7285156l-7.8648071-1.953125.1590576-.6157227c-.6771889-.262146 10.2209282 2.4446678 10.3314209 2.4716797-.5429077.7875977-.8032837 1.7358398-.737915 2.690918l-10.152405-2.4824218c-.1817054-.0457649-.0325203-.2954178-.0113525-.472168zm13.5860596 2.7426758c-.3567924 1.2103958-.5806046.9033737-1.2617188.7402344l-1.2362671-.3022461c-.137085-.9433594.1422729-1.9470215.7406616-2.6901855 1.6243286.3972168 1.8529663.4528809 1.8696289.4572754.383442.1027755.0000954 1.4213027-.1123046 1.7949218z"/><path d="m46.3465996 54.0868759c-.1248779-.234375-.324707-.4140625-.5731201-.4853516-17.1799202-4.9366493-14.5156155-4.1905136-14.9780255-4.2802734-1.0271645-.0189705-1.3094521 1.1195374-1.5249023 2.1083984-.215332.9765625-.7202148 3.2626953.5170898 3.6181641.1001034.0291443 14.9405384 4.3066406 15.1220684 4.3066406.083374 0 .1659546-.0151367.24646-.0402832.2988358.2902031.0147552.1522713 5.6964111-.2800293.5100937-.0404472.6857719-.7373276.2954102-1.0634766-4.7364235-3.9118308-4.449234-3.8598594-4.8013916-3.883789zm-16.3211651-2.5976562c.4064617-1.8652077.6840839-1.4277916 1.4580078-1.2089844l1.4660625.4206543c.2175293 1.4702148-.1035156 3.0671387-.8303833 4.237793-1.4632549-.4187012-1.9556866-.5578613-2.1273785-.6037598l.0024414-.0078125c-.6069602-.1759949.0254327-2.7377243.0312501-2.8378906zm14.8618145 7.1123047c-6.0960083-1.7495117-9.7024536-2.784668-11.8430176-3.3979492.7022705-1.2114258 1.0189209-2.7368164.87677-4.223877l11.6464233 3.3425293c.0932617.0273438.203125.2109375.1630859.4375-.0187149.1009636-.3576088 1.929203-.336792 1.8168945-9.3625031-2.7188263-8.835247-2.6104736-8.9907227-2.5898438l-.0352783-.0102539c-.4847603-.132103-.6806107.5819359-.2099609.7207031l9.090271 2.6533203-.215271 1.144043c-.0338744.0461426-.0794677.0825196-.1455077.1069337zm.8799438.0471191c.019104-.0571289.0531006-.1052246.0639038-.1662598.0180779-.1010818.6584015-3.6820602.6206055-3.4707031l2.8803711 2.4147949c-.2204094.2884216-.291729.5960426-.1911621.9916992-1.2247314.0996094-2.6494751.2182617-3.3830566.2800293z"/><path d="m61.637249 45.3515244c-.472168.2939453-.7949219.7314453-.9091797 1.2304688-.1094322.4819832.6196938.6549835.7314453.1679688.0683594-.2998047.277832-.5771484.574707-.7617188 1.2926788-.8030281 2.7544594.7523346 1.9838905 2.1640625-.6173668-.2356911-1.4944801-.252346-1.9624062.2177734-.3081055.3056641-.3745117.7880859-.1542969 1.1230469.4846764.739006 1.6514549.3138428 2.319828-.3662109.5128784.4183998.6936951 1.1240349.5410156 1.6972656-.127388.4791527.5962906.6731453.7246094.1933594.2335358-.8759193-.0571747-1.8895111-.8164063-2.4931641.1855469-.3369141.2973633-.7099609.3125-1.0898438.0699618-1.7099343-1.7414854-3.0790596-3.3457067-2.0830078zm1.3222656 3.7207031c-.2011719.0742188-.3945313.0654297-.4316406.0087891-.0195313-.0292969-.0019531-.1210938.0576172-.1806641.1885719-.1894646.6387024-.179287.9023438-.1240234-.1591798.1249999-.3374024.2265624-.5283204.2958984z"/></g></svg>