<svg id="Layer_1" enable-background="new 0 0 75 75" viewBox="0 0 75 75" xmlns="http://www.w3.org/2000/svg"><g id="Coughing" fill="rgb(0,0,0)"><path d="m35.2780724 56.7615547c0-.2087059-1.1637459-6.1408691-1.5419922-7.6044922-.2698288-1.0402946-1.0247421-.8958817-2.2319355-.8671875l-.3857422.0097656c-4.1324978.0898933-7.777874.8042755-12.9853516-1.4199219-1.1185513-.4791069-1.9882679-1.4390602-2.8032227-.9150391-.9537334.6130753-.6670666 2.7708321-.6489258 3.7988281.1080742 6.73246.1368904 5.9875526.0952148 6.8134766-.0249023.4990234-.0512695 1.0146484.065918 1.4619141.1743164.6660156.6914063.7724609 1.1064453.8583984 1.1537857.239872 3.0614452.4432793 5.4560547.4160156.5556641-.0039063 1.3164063-.0078125 1.7436523-.4697266.5530663-.5950356.1740284-1.2443123.0166016-4.7958984.1696835-.3974724.8643894-.4583206 1.25-.1923828 1.0869312.7493248.7818127 2.6731224 1.7724609 3.8671875.7258911.8752441 1.9606934 1.2150879 3.6650391 1.0290527-.1320992.2144127-.0493126-.0594177.3908691 5.93433-.0841675.050293-.1773071.0932617-.2443848.1577148-.2744141.265625-.5180664.7519531-.1201172 1.5634766.7742729 1.5787735 5.2202854 1.9405823 5.395998-.0703125.050293-.5859375-.3339844-1.1435547-1.0546875-1.5283203-.4997559-.2685547-2.0889893-.6035156-3.2455463-.3945313-.488472-5.6903305-.3483486-5.5405884-.5508423-5.7370644.6832275-.1132813 1.5684204-.2800293 2.4209003-.567627 2.5375979-.8515622 2.4760744-1.1660154 2.433594-1.347656zm-1.4125977 8.7070351c.0004883.0009766.0004883.0009766.0004883.0009766.6436386.3441391.9321709.8882675.3408203 1.25-.7558823.4671173-3.2204609.2442322-3.6542988-.6425781-.2441998-.4972839-.1290436-.6902466.173645-.8261719.0308228-.0078125.0620728-.013916.0891724-.0288086.7638378-.2756196 2.4926281-.0515137 3.0501728.246582zm-3.5903339-7.5273476c-5.3786964.8874931-3.2272968-3.1824875-5.4350586-4.703125-.4404297-.3037109-1.0605469-.3789063-1.5800781-.1943359-.5863304.2102737-.8656445.7253036-.8486328.9804688.1821308 3.6542892.4076157 4.0764198.1865234 4.3095703-.2146416.2324028-.8036938.2275581-1.3950195.2314453-2.0547562.0329704-4.0449562-.1835861-5.1025391-.4023438-.4228516-.0869141-.4824219-.1220703-.5327148-.3134766-.0878906-.3359375-.0644531-.7919922-.0424805-1.234375.0439405-.8678055.0131226-.1435928-.0942383-6.8652344-.0086031-.5276718-.2309208-2.8099747.3046875-3.1542969.2130041-.1358261.7112579.2126503 1.0795898.4277344 5.0164261 2.9304619 10.819252 2.1031418 14.3188477 2.0263672 1.8861904-.0553589 1.7829838-.0636711 1.8759785.2958984.3545265 1.3698845.6088219 2.7416687 1.3598633 6.6416016.0428886.2202568.111145.4159126.1445313.6337891-.3579102.2060547-1.4443359.6220703-1.9086914.7773438-.812502.274414-1.6723653.4345703-2.3305684.5429687z"/><path d="m22.5026798 69.6863632c2.6670418 0 2.9974804-1.9832077 1.2753906-2.9042969-.4777222-.2558594-1.9471436-.5656738-3.0863037-.4104004l-.1304932-6.0153847c-.0043945-.2050781-.1713867-.3671875-.375-.3671875-.0024414 0-.0053711 0-.0083008 0-.2070313.0048828-.3710938.1757813-.3666992.3828125l.1343994 6.1955605c-.1479492.0681152-.2821655.1486816-.3887939.251709-.8470974.8184052-.141529 2.8671875 2.9458008 2.8671875zm-1.2016601-2.618164c3.0074615 0 3.5720844 1.624588 1.7421875 1.8369141-.8719234.1002655-2.5616951-.0963058-2.9321289-.8535156-.2412109-.4912109-.0844727-.6435547-.0332031-.6923828.2482108-.2400895.8792438-.2910157 1.2231445-.2910157z"/><path d="m46.7961998 12.0945644c.3299561.0898438.6799927.1499023 1.0299683.0898438.5200195-.1000977 1.0200195-.5898438.9199829-1.1098633-.1033516-.5912466-.5748062-.756115-3.4400024-2.7202148-.7299805-.5097661-1.3399658-1.0798345-2.1499634-1.5097661-4.1927986-2.2200618-9.0840263-1.9613371-12.9299946.3598633-1.9808388 1.1557422-3.6788177 3.0341067-3.7200317 5.3400884-.0100098.4099121.3300171 1.3400879.1900024 1.6699219-.1300049.3100586-.7799683.3898926-1.0700073.5900879-1.2724648.8476925-1.4960861 2.621088-.5499878 3.7600098-1.2917061 1.973259-.3743858 4.6358719 1.1099854 5.0598145.6199951.170166 1.3900146-.1298828 1.5700073-.75-.0551949 1.3473492 1.1758862 2.7140141 2.689209 2.5214844 1.7986584 2.018856 4.4064083 3.3149414 7.1115131 3.3149414 3.5273438-.0009766 7.0092773-2.125 8.5834961-5.2880859 1.0965576-2.2006836 1.3265381-4.9206543.6550293-7.5009766.2293091.112793.515564.2270508.560791.232666.2699585.0600586.6599731.1101074.8800049-.0898438.4400024-.4001465.5199585-1.0900879.3299561-1.630127-.5237312-1.4344187-2.0776825-1.7519484-2.4599609-2.4499512.2199706-.0998536.4699706.0500487.6900023.1101073zm-18.0700092 2.2900391c.2516766-.4535713.8996925-.0735779.6699829.3398438-.289978.5800781-.2000122 1.3598633.2200317 1.8598633.2105732.2259083.043829.6101074-.2800293.6101074-.4966106 0-1.2561855-1.5175963-.6099853-2.8098145zm16.7427997 8.7041016c-1.5126953 3.0390625-4.9360352 5.0351563-8.3261719 4.8613281-2.2288818-.1157227-4.3621216-1.1801758-5.9090595-2.791748.6747437-.3393555 1.2092915-.9770508 1.3524189-1.723877.1400146-.7299805-.5599976-1.9699707-.0499878-2.4799805.2699585-.2700195.7099609-.3598633 1-.6398926 1.1399078-1.1044731.7120361-2.9359646-.5100098-3.5100098-.4000244-.1899414 1.960022-2.7202148 2.210022-2.9001465.7999878-.5898438 2.539978-1.8200684 3.0799561-.4199219.1700439.4399414.2000122.9299316.460022 1.3100586.5599976.8400879 1.9299927.7199707 2.6599731.0300293.7400513-.6899414 1.0100098-1.7299805 1.2400513-2.7202148-.1189041 2.5136089 2.2044106 4.3254471 3.3751221 3.9272461.6522216 2.4294434.4457397 4.9931641-.5823365 7.057129z"/><ellipse cx="40.407" cy="19.88" rx=".679" ry="1.059"/><path d="m44.3587608 18.8206387c-.375 0-.6789551.4741211-.6789551 1.0593262 0 .5849609.3039551 1.0593262.6789551 1.0593262s.6790161-.4743652.6790161-1.0593262c0-.5852051-.3040161-1.0593262-.6790161-1.0593262z"/><path d="m41.6310997 22.8308926c-.0112305-.1992188-.1303711-.359375-.3110352-.4169922-.5219727-.1650391-1.4355469.8261719-1.4433594.8369141-.4150391.5195313-.6308594 1.15625-.6088867 1.7919922v.0009766c.0685539 1.9293022 2.3811913 1.871067 2.7016602.3535156.1054688-.5029297-.0639648-.9765625-.2133789-1.3945313-.3400688-1.0069123-.099411-.7033501-.125-1.171875zm-.3955078 2.4121093c-.1150246.543541-.7813606.6915531-1.0693359.3046875-.2297058-.3104095-.2411842-1.1550541.2939453-1.8261719.0522461-.0605469.2080078-.2001953.3686523-.328125.0196915.2208767.0463257.342926.2211914.8623047.1269531.3564454.2475586.6914063.1855469.9873047z"/><path d="m57.1242638 29.017416c-1.0365715-1.6691017-3.6542549-1.7341156-5.0141602.2216797-.2847214.4077435.3344498.8355103.6152344.4277344 1.0291824-1.47752 2.9887161-1.4990368 3.7612305-.2548828.3774414.609375.3046875 1.4638672-.1655273 1.9462891-.2946739.3025131.0617065.7874088.4414063.5947266.2875977-.1503906.690918-.0869141.9189453.1445293.2270508.2314453.2841797.6357422.1298828.921875-.1498489.2768059.0906601.6151619.4199219.5419922.449707-.1162109.9775391.1015625 1.2236328.4960938.2456055.3945313.2055664.9619141-.0932617 1.3173828-.2998047.3554688-.8510742.4931641-1.2817383.3203125-.296875-.1212997-.6031303.1688957-.4926758.4755859.1962891.5429688-.0727539 1.2226563-.5883789 1.4853516-.515625.2617188-1.2231445.078125-1.5463867-.4013672-.2092705-.3106651-.7077103-.1519279-.6855469.2314453.0522423.903492-.7442207 1.792614-1.6469727 1.8417969-.9494705.0377274-1.7920151-.7843285-1.8344727-1.6552734-.01334-.2688141-.2984962-.4397125-.5488281-.3134766-1.4123878.740097-2.8548813-.1950607-2.7172852-1.3828125.0664063-.5751953.6210938-1.0546875 1.1538086-1.0253906.2070313.0117188.3857422-.1416016.4003906-.3476563.0578918-.8143654-2.1033401-.4198341-2.2993164 1.2871094-.1819839 1.5673256 1.4498177 2.9509811 3.3476563 2.328125.5350914 1.8697472 2.8674278 2.541378 4.2387695 1.0087891.2631836-.2949219.4541016-.6376953.5610352-.9970703 1.3882027.8350639 2.9994812-.1748848 2.9790039-1.7128906 1.5726776.0562172 2.4609337-1.6164665 1.690918-2.8564453-.3115234-.4990234-.8676758-.8193359-1.4482422-.8710938.0683556-.813097-.47015-1.5399036-1.3168945-1.654295.2524413-.6748048.1943358-1.4785158-.2021485-2.1181642z"/><path d="m43.022213 27.6765957 4.5551758 6.334959c.2904587.4039536.8979759-.0355568.609375-.4375l-4.5551758-6.334959c-.2884102-.4040051-.8988381.0343609-.609375.4375z"/><path d="m49.8830528 29.8592129-4.769043-3.4873047c-.3982048-.2942734-.8441849.3126125-.4423828.6054688l4.769043 3.4873047c.3992233.2935466.8436012-.3130341.4423828-.6054688z"/><path d="m51.2634239 26.9558926-5.2670898-1.5664063c-.4747047-.1444759-.6900558.5780048-.2138672.71875 5.357048 1.5874195 5.2884712 1.5820313 5.3740234 1.5820313.429966 0 .5196839-.612381.1069336-.734375z"/><path d="m44.4538536 48.1746407h.0004883c3.202034 1.1055069 4.7919159-1.7658195 3.0541992-3.5927734-1.3841705-1.4550552-4.2203178-1.333168-5.9450684-.2871094-1.9005737-.4248047-3.722229-1.1672363-5.4019165-2.1630859l2.6178589-4.2905273c4.4933662 2.9131317 8.3723068-.0016823 7.4991455-3.3735352-.3330078-1.2529297-1.4013672-2.2890625-2.6582031-2.5781231-.4809189-.1143932-.6534309.6199741-.1679688.7304668.9931641.2285156 1.8378906 1.0488281 2.1010742 2.0380859.2563477.9921875-.0698242 2.1220703-.8100586 2.8095703-.9560547.8740234-2.5493164 1.0791016-4.0585938.5244141-.5339966-.1948242-1.0327148-.4772949-1.5147095-.7912598 2.694973-4.4062309 2.9839134-4.7774086 3.1426392-5.6345196.1508789-.7832031-.0810547-1.5820313-.5917969-2.0488281-1.1337814-1.3281441-3.9443817.3883839-9.0390625-.3867188l-.1069336-.0136719c-3.2495327-.4074154-2.5625172-.8253994-3.7075214-1.2382813-1.4228516-.4912109-2.8212891.6953125-3.8427734 1.5595703-.7089157.5992489-1.5206623 1.2093201-2.8500977 2.3935547-.369276.3285046.1257744.8902302.4990234.560545 1.3439007-1.1980114 2.1186714-1.7734299 2.8354492-2.381834 3.003355-2.5406628 3.1117611-1.2066631 4.4291992-.6796875.9952183.3857517 3.0789051.6140289 3.5751972.6513672 4.8245735.4506531 6.5964012-.7698517 7.6230469.0039063.068718.1002903.6194992.5024719.4394531 1.4404297-.1466179.7913227-.5595016 1.3171024-3.024353 5.3471661-.4168701-.3112793-.819397-.6403809-1.2078247-.9765625.0565414-.7628975-1.0358849-2.7733803-3.0231934-3.4672852-1.9162064-.6659222-2.9183197.8963127-2.0654297 2.5117188 1.0047302 1.9086647 3.4184799 2.3789291 4.6735229 1.5864258.3947144.340332.8039551.6730957 1.2305908.9885254l-2.635498 4.3195801c-3.864687-2.4956055-6.8857441-6.347168-8.1675434-10.7499981-.138237-.4779758-.8589077-.2658691-.7197266.2089844 1.3331909 4.5795879 4.4767456 8.5854473 8.4979877 11.1791973-1.7979851 2.948513-1.8480682 3.0870209-2.2172241 3.4174805-.6386719.5771484-1.6274433.6992188-2.5976582.7451172-4.0474072.1634712-7.9177799-.5717735-11.3452148-1.9755859-2.4742413-1.0229912-3.976222-2.4961357-2.8515625-4.9501953.7833862-1.6866646 4.0208206-4.8881531 5.3115234-6.0869141.3633366-.3375511-.1478405-.8872223-.5107422-.5488281-1.4368286 1.3337669-4.6482067 4.5263252-5.4814453 6.3212891-.4741211 1.0341797-.5629883 2.09375-.2509766 2.9814453.5512695 1.5986328 2.2592773 2.4648438 3.4975586 2.9765625 3.6307087 1.4863815 7.5494938 2.1845818 11.6630859 2.0322266 1.112793-.0527344 2.2543964-.203125 3.0668964-.9375.4592361-.4108963.5425529-.6129227 2.3534546-3.5795898 1.661438.9870605 3.4579468 1.730957 5.3309326 2.1831055.0620465.8448178 1.3387608 2.5237042 3.3507695 3.2216794zm-11.4501953-15.1367188c.6228714-.4295654 2.5781364.3735657 3.3950195 2.1308594.0761719.1640625.2353516.5068359.2011719.5869141-.0004883 0-.0322266.0615234-.2519531.1337891-2.5096283.8261222-4.4554444-2.0944787-3.3442383-2.8515626zm13.9614258 12.0615234c.8651581.9098816.5957489 2.3081207-.7827148 2.5419922-1.3699913.2358322-3.6575661-.9950981-4.2996826-2.6066895.0644531-.0339355.1086426-.0837402.1444092-.1491699 1.4528541-.8076362 3.8304328-.9522819 4.9379882.2138672z"/><path d="m40.81567 16.7351894c.1303558-.4748764-.5903358-.6809082-.7236328-.1972656-.143074.5211926-.8236465.7090111-1.3334961.8486328-.4170036.1141911-.33638.7353516.1010742.7353516.1015778 0 .7505264-.1744881 1.1416016-.4003906.4174805-.2421875.706543-.5927735.8144531-.9863282z"/><path d="m44.5515099 17.5310879c.4688416-.0488853.4460831-.7661591-.078125-.7460938-.3041992.0380859-.6508789-.1669922-.7734375-.4550781-.0810547-.1904297-.2998047-.2792969-.4916992-.1982422-.6394196.2681961.2167167 1.5120678 1.3432617 1.3994141z"/><path d="m54.7355919 33.6082344c.1293945-1.1591797-.5917969-2.3525372-1.6782227-2.7763653-.4629936-.1800518-.7341385.5192223-.2724609.6992188.7670898.2988281 1.296875 1.1748028 1.2055664 1.9931622-.0550423.4941978.6898537.5763282.7451172.0839843z"/><path d="m51.4977989 35.2859688c-.0993996-.4784927-.8358955-.3367615-.734375.1542969.1665001.7948151.8762627 1.4570313 1.7949219 1.4570313.5448036 0 1.3428345-.2734795 1.0625-.7578125-.1030273-.1796875-.3325195-.2382813-.5126953-.1357422-.6319237.3677444-1.459034.0102538-1.6103516-.7177735z"/></g></svg>