<svg id="Layer_1" height="512" viewBox="0 0 512 512" width="512" xmlns="http://www.w3.org/2000/svg"><g><path d="m157.6 34.9h16.4v57.1h-16.4z"/><path d="m53.2 90.1h57.1v16.4h-57.1z" transform="matrix(.707 .707 -.707 .707 93.412 -29.001)"/><path d="m18.4 174.1h57.1v16.4h-57.1z"/><path d="m241.6 69.7h16.4v57.1h-16.4z" transform="matrix(.707 .707 -.707 .707 142.65 -147.859)"/><path d="m104.9 73.1h38v16.4h-38z" transform="matrix(.383 .924 -.924 .383 151.583 -64.307)"/><path d="m85.4 140.2-35.1-14.6-6.3 15.2 35.2 14.5z"/><path d="m199.4 62.3h16.4v38h-16.4z" transform="matrix(.924 .383 -.383 .924 46.937 -73.29)"/><path d="m44 223.9 6.3 15.1 35.1-14.6-6.2-15.1z"/><path d="m305.7 173.4v16.4c49.7 0 90.1 40.4 90.1 90.1h16.4c0-58.8-47.8-106.5-106.5-106.5z"/><path d="m460.5 280.8c.1-1.4.1-2.9.1-4.4 0-83.5-67.9-151.4-151.4-151.4-27.7 0-54.6 7.8-77.9 21.8-12.9-23.8-38.1-39.3-65.6-39.3-41.2 0-74.7 33.5-74.7 74.7 0 11.7 2.9 23.1 8.2 33.5-14.7 15-25.3 34.2-29.5 55.7-40.7 16.1-67.7 55.3-67.7 99.2 0 58.7 47.7 106.4 106.4 106.4h295.1c58.7 0 106.4-47.7 106.4-106.4.1-36.4-18.7-70.4-49.4-89.8zm-294.7-156.9c22 0 42.1 12.6 52 32-10.3 7.9-19.6 17-27.6 27.2-4.3-.5-8.4-.8-12.2-.8-24 0-47.1 7.8-66.2 22.1-2.9-7-4.4-14.5-4.4-22.1 0-32.2 26.2-58.4 58.4-58.4zm237.8 336.8h-295.2c-49.7 0-90.1-40.4-90.1-90.1 0-68.1 65.9-86.8 65.9-86.8l.7-4.9c6.8-45.7 46.7-80.2 92.9-80.2 12.1 0 19.5 2 19.5 2s37.1-59.3 111.8-59.3c74.4 0 135 60.6 135 135 0 5.8-.7 13.4-.7 13.4s50.1 22.5 50.1 80.8c.1 49.7-40.3 90.1-89.9 90.1z"/></g></svg>