<svg id="Layer_1" height="512" viewBox="0 0 512 512" width="512" xmlns="http://www.w3.org/2000/svg"><g><path d="m141.3 92.1h16.4v47.6h-16.4z"/><path d="m118.8 144.2-10.9-26.4-15.1 6.3 10.9 26.3z"/><path d="m54.2 270.2-26.5 11 6.2 15.1 26.5-10.9z"/><path d="m29.7 187.7h28.5v16.4h-28.5z" transform="matrix(.924 .383 -.383 .924 78.349 -1.918)"/><path d="m185 119.9h16.4v28.5h-16.4z" transform="matrix(.924 .383 -.383 .924 66.056 -63.731)"/><path d="m53.9 303.2h16.4v47.7h-16.4z" transform="matrix(-.707 -.707 .707 -.707 -125.304 602.179)"/><path d="m2 231.4h47.7v16.4h-47.7z"/><path d="m38.2 144h47.7v16.4h-47.7z" transform="matrix(.707 .707 -.707 .707 125.799 .698)"/><path d="m477.1 284.8c.1-1.4.1-2.8.1-4.2 0-45.2-36.8-81.9-81.9-81.9-5.9 0-11.9.7-17.7 2-24.9-27.4-59.9-42.9-97-42.9-24.9 0-48.2 7-68.1 19.2-16.7-16.8-39.2-26.3-63-26.3-49.1 0-89.1 40-89.1 89.1 0 32.6 17.8 62.2 45.9 77.8-3.8 8.9-6 18.5-6 28.7 0 40.7 33.1 73.7 73.7 73.7h262.2c40.7 0 73.7-33.1 73.7-73.7.1-24.9-12.4-47.9-32.8-61.5zm-400.3-45.2c0-40.1 32.6-72.7 72.7-72.7 18.5 0 36.1 7 49.4 19.5-28 22.3-45.4 54.4-48.7 90-14.4 5-27 14.3-35.9 26.7-23-12.7-37.5-36.9-37.5-63.5zm359.5 163.9h-262.2c-31.6 0-57.4-25.7-57.4-57.4 0-49.8 49.1-57 49.1-57l.3-6.1c3-61.1 53.3-109 114.4-109 58.8 0 91.3 45.1 91.3 45.1s11.7-4.1 23.4-4.1c36.1 0 65.5 29.4 65.5 65.5 0 8-1.1 13-1.1 13s33.9 13.6 33.9 52.6c.1 31.7-25.6 57.4-57.2 57.4z"/><path d="m395.3 231.4v16.4c18.1 0 32.8 14.7 32.8 32.8h16.4c0-27.1-22.1-49.2-49.2-49.2z"/></g></svg>