<svg id="Layer_1" enable-background="new 0 0 75 75" viewBox="0 0 75 75" xmlns="http://www.w3.org/2000/svg"><g id="Crying_Boy" fill="rgb(0,0,0)"><path d="m51.521843 49.9509125c-.1136475-.3665771-.307373-1.5679932-.6586914-1.7264404-.3826904-.1726074-1.6005859.2421875-2.036377.2998047-2.7714844.3675537-5.5698242.5324707-8.3653564.4936523-1.5357666-.0212402-3.0767822-.0921631-4.6051025-.2489014-1.0514297-.0994492-1.5019836.1717072-1.4980469 1.4625244.0039063 1.4366455.0626221 2.8731689.1760254 4.3054199.0673828.8511963.1894531 1.7775879.8046875 2.369751 1.0523033 1.012722 3.9076538.9038124 5.3458252.6212158 1.7362862-.341362 2.503273-1.0604706 2.5053711-3.7731934.2598877-.3796387.883667-.3164063 1.2078857.0100098 1.030365 1.0377388-.3110428 3.2714806 2.9393311 3.2746582 1.2437744.0014648 2.4874268-.1442871 3.6972656-.4328613 1.4150085-.337822 1.8774261-.9261436 1.5198975-2.6502686-.2797853-1.3507079-.6246339-2.6878661-1.0327149-4.005371z"/><path d="m25.6683273 34.8310394c-.1737061-.9002686-1.0148926-1.786499-2.28479-2.3499756-1.25-.5556641-2.9970703-.3710938-3.7558594.8974609-.5966797 1.0019531-.3173828 2.4287109.6357422 3.2490234 1.7577991 1.5104713 4.9679585.584053 5.3885498-1.0426025 3.3664055.5634804 6.9119034-1.2980576 8.4112549-4.1849365.2288132-.4389515-.4359169-.7849846-.6660156-.3457031-1.4069825 2.7104492-4.7304688 4.3266602-7.7288819 3.7767334zm-4.9166259 1.2281494c-.6738281-.5800781-.8886719-1.6103516-.4794922-2.2958984.5322552-.893158 1.8651562-1.0142097 2.8066406-.5966797 1.1621094.515625 1.9335938 1.3710938 1.8769531 2.0800781-.0914573 1.1305695-2.7772312 2.0349045-4.2041015.8125z"/><path d="m33.5582199 20.8465424c.8440514 3.1444988 3.2696724 6.3906517 6.4532471 7.1345215 3.6571693.8354492 7.6061058-.6590748 9.2427979-4.4301758.2404099.0633907.6312828-.0092487.8713379-.0787354 2.2218819 1.7097874 5.145031 4.4171619 4.7784424 7.1817627-.3768806 2.6956596-3.5672874 3.9788017-5.6845703 2.2802734-.2145538-.173748-.5718422-.0673866-.6009521.2595215-.4331169-1.4531727-.4069023-2.1370106-1.2047119-3.6628418-1.2054329-2.2462692-2.5317841-1.1246052-6.2148438-.796875-2.6480255.1793728-2.8807793-.5502148-4.1103516-.4746094-1.4892578.1142578-1.9453125 1.8886719-2.1162109 2.5585938-.7529297 2.96875-1.2773438 5.9648438-1.5585938 8.9052734-.0465927.4938736.6989784.5669823.7460938.0722656.2783203-2.9033203.7958984-5.8613281 1.5390625-8.7929688.7399063-2.8886528 1.9034958-1.8754749 3.2041016-1.6103516 1.5626717.2853374 2.9257889.018774 4.2910156-.1738281 2.5359344-.4233551 2.9063644-.550909 3.5576172.6640625.3740234.7148438.6533203 1.4833984.8076172 2.2207031.1222572.5799942.0338821.3345871 2.3144531 7.7109375l.9394531 3.0576172c.9401016 3.0702705.1435509 3.9993248-2.8408203 4.1621094-10.4826126.4938774-11.4371758.7971497-12.6933594-.0878906-1.6139412-1.143692-1.39888-3.8149605-1.2441406-5.765625.0377007-.4971619-.7084846-.549633-.7480469-.0585938-.1755676 2.2557716-.3592186 5.07724 1.5595703 6.4365234 1.5237579 1.0736351 2.6363373.7237396 13.1640625.2246094 1.2732964-.0706215 2.6472816-.2309341 3.4326172-1.2685547 1.1499901-1.5668106.1174889-3.5752869-.8525391-6.921875-1.1071892-3.5770721-.7291832-2.368412-1.8900146-6.1340332.0166016.0202637.0289307.0428467.0501709.0598145 2.5350075 2.0371742 6.4375229.5348511 6.8964844-2.7636719.3999214-3.0221767-2.3984985-5.762331-4.789917-7.661377.8202934-.6683865.921936-1.8672333.0847168-2.5007324.0007324-.0048828.0056152-.0078125.0059814-.0126953.0946655-1.0213776.2264748-.6504345 1.3232422-2.7001953.0398979-.1001873.682354-1.1268787.7382813-2.5966797.2061844-2.8722-2.1834145-5.7614241-5.5234375-6.2685547-.245491-2.7959881-3.2820969-4.5946674-6.0507813-3.6308599-.1865234.0205078-.3193359.1796875-.3193359.3730469 0 .2509766.2841797.4384766.5175781.3525391 2.4289284-.8863163 5.1171875.8155713 5.1171875 3.2373052 0 .1923828.1455078.3535156.3369141.3730469 2.84552.2896204 5.3694839 2.7536755 5.1728516 5.5224609-.0876045 2.3214779-1.7683029 3.5841599-2 4.8271484-.1727219-.1405869-.2495956-.3879795-.3144531-.6181641-.4653435-1.6194935-.3624611-1.8088493-.6455078-1.9355469-.1025391-.0488281-.2216797-.0449219-.3222656.0048828-.140625.0732422-.3486328.046875-.5517578-.0625-.2177734-.1210938-.4023438-.3398438-.5498047-.5341797-1.3558998-1.8359385-.9598961-2.8125277-1.4472656-3.1523438-.5755272-.3755035-1.1667442.6267052-1.5400391 1-.2998047.3007813-.6044922.5498047-.9423828.7558594.1152344-1.0244141-.1943359-2.0859375-.8427734-2.8701172-.1748581-.2107277-.4789734-.1618013-.6064453.0390625-.7998047 1.2666016-1.7480469 2.0722656-2.8798828 2.4414063.5693436-.8203135 1.1205864-1.9887333.2089844-2.3583984-.3994141-.1650391-.8837891.1367188-2.7890625 2.1367188-.0735054-.2222404-.0478325-.4382563-.2578125-.5556641-.0898438-.0507813-.1982422-.0625-.2958984-.0322266-.7636719.2382813-1.3623047.6884766-1.8916016 1.4326172-.1676826-.2676163-.5156517-.9253778-.5390625-.9628906-.1814957-.2916155-.6826057-.181654-.6943359.2148438-.0144882.5393562-.010849.3770905-.0510254 1.3515625-.2322998-.0302734-.4735107 0-.689209.0878906-.6074219-1.2451172-.7666016-2.5634766-.4355469-3.6650391.4169922-1.3564453 1.6816406-2.3779297 2.9189453-2.3056641.3224754-.0243893.460083-.3018093.3525391-.5341797-.6259346-1.3386316 1.077961-2.9538798 3.6728516-2.454102.215889.045186.722271.2954345 1.0419922.0839844.2550697-.1544995.324543-.6112995.4023438-.7451172.0556641-.078125.1123047-.1396484.1787109-.1933594.3866882-.3116951-.0858116-.8961215-.4707031-.5839844-.3697433.2975979-.4178009.5363412-.53125.8388672-.1620636-.0400162-.3449211-.1094432-.4726563-.1357422-2.9910622-.5806017-4.9962883 1.2280836-4.6650391 3.000977-1.3896484.1933594-2.6875 1.3222656-3.1455078 2.8095703-.4063721 1.3538818-.1834717 2.9633789.6019287 4.4422607-1.6865657 1.2933754-.7057613 4.0056366 1.4907223 3.8363041zm16.1539307 1.3709716c.0926514-.3769531.1531982-.7652588.1953125-1.1589355.006958-.0020752.0141602-.0007324.0209961-.0032959.2773438-.1054688.6572266.0849609.7851563.3828125.1318359.3085938.0341797.7294922-.2314453.9990234-.0697021.0710449-.1722412.1069336-.2611084.1584473-.1704102-.1257324-.3352052-.2570801-.5089112-.3780518zm-15.0551758-5.428833c.1171875-.0136719.2216797-.0810547.28125-.1826172.4121094-.7011719.8535156-1.1513672 1.3955078-1.4140625.1270485.3788195.0731926.7373419.3945313.8330078.1269531.0390625.2666016.0058594.3642578-.0859375.2105064-.1958885 1.8886871-2.0312939 2.4765625-2.3955078.0068359.375-.7480469 1.5058594-1.1494141 1.9082031-.2388191.2388191-.0656395.6657581.3056641.6376953 1.6542969-.1777344 2.9980469-1.0058594 4.09375-2.5273438.8123093 1.4456758.0143547 2.3181515.5712891 2.7060547.2050781.1650391.4882813.1660156.7773438.0048828 1.0311356-.5739117 1.5164375-1.3081903 1.8457031-1.6513672.2264023 1.1697369 1.1306305 2.9827747 2.0537109 3.4941406.2685547.1435547.5332031.203125.8066406.1923828l.3251953 1.2587891.00354.0040283c-.0005074.1028442.1197357.9230156-.1594238 2.2208252-.8448486-.5454102-1.7175293-1.0396729-2.6208496-1.4644775.0854492-.2977295-.0489502-.5795898-.1861572-.8511963-.0657387-.1000309-.5782814-1.3848629-1.9970703-2.3408203-2.5765762-1.7417841-4.3425713 1.5588703-2.2265625 3.2353516.6860428.543766 1.4944839.7001953 2.3642578.7001953.6170654 0 1.0925293-.0690918 1.4538574-.203125 1.0428467.4719238 2.045166 1.0452881 3.0085449 1.682373-1.253521 3.8715153-5.0623627 5.5227661-8.6577148 4.7004395-2.9488907-.6905327-5.2032013-3.8086681-5.9383545-6.7719727.0166626-.1195145-.0107574-.1698608-.0552979-.2429199-.2298584-1.0272217-.3167725-2.0671387-.2407227-3.1013184.1525421-.2556019.0597038-.0987873.1132813-.8171387.2007561.2944033.3377495.4854853.5966797.4714357zm9.4619141 3.5283203c-.4580078-.0136719-1.1142578-.1171875-1.6416016-.5341797-.4501953-.3564453-.7060547-.9091797-.6513672-1.40625.0568314-.5204678.4998703-.9980469 1.0136719-.9980469.8964081 0 2.1516533 1.2724094 2.6689453 2.3212891l.0576172.1142578c.0546875.1083984.1376953.2714844.1572266.2783203 0 0-.0224609.0234375-.1005859.0566406-.3144532.131836-.8222657.1894532-1.5039063.1679688zm-10.9227295-2.9978027c-.0487061.9335938.0152588 1.8691406.1986084 2.7972412-1.7478009-.001049-1.9709378-2.5480289-.1986084-2.7972412z"/><path d="m36.2292404 18.9166107c.5087891-.3632813 1.2333984-.4335938 1.8056641-.1748047.4403267.2107944.7678261-.4731407.3105469-.6816406-.8173828-.3730469-1.8222656-.2773438-2.5537109.2470703-.1679688.1210938-.2070313.3544922-.0859375.5234375.1214332.1683884.3562087.20644.5234374.0859375z"/><path d="m35.1032639 69.7388763c1.1523132.1734085 3.2017517.2962112 4.2480469-.3291016 1.2659073-.7599869 1.2579613-2.3942337.1210938-2.9384766-.06604-.0316162-.1466064-.0395508-.2176514-.0634766l-.2384033-7.8037109c-.0192795-.5108719-.7637749-.4632988-.75.0234375l.2337646 7.6516113c-1.5021973-.0476074-3.4060059.8251953-3.8031006 1.0554199 0 0 0 0-.0009766 0-.2382813.1386719-.4853516.2998047-.6708984.5429688-.5178376.6715089-.3274231 1.6464311 1.078125 1.8613282zm-.4833985-1.4052734c.3539124-.4638672 2.6460609-1.3966827 3.9613037-1.3071289.1121941.1756592.3248177.237709.5169678.1075439.7178802.3043823.564373 1.214035-.1325684 1.6322021-.4375.2626953-.9931641.3222656-1.4785156.3457031-.5074921.0269547-2.8018188.0407944-2.9599609-.4433594-.0292969-.0898436.0078125-.2236327.0927734-.3349608z"/><path d="m54.2477951 68.4185638c1.592907-.8137894 1.3641586-2.478569-.6259766-2.7392578-1.853241-.2380066-4.8407555.0842896-4.5419922 1.9697266.2980118 1.9021149 3.3159485 1.7141876 5.1679688.7695312zm.0087891-1.7773437c1.6490822 1.0502548-4.1424713 2.7459488-4.4365234.890625-.2117425-1.3410339 3.6970901-1.3620987 4.4365234-.890625z"/><circle cx="41.57" cy="32.05" r="1.222"/><path d="m41.5701828 36.2155609c.6748047 0 1.2219238-.5469971 1.2219238-1.2218018 0-.6749268-.5471191-1.2219238-1.2219238-1.2219238s-1.2219238.5469971-1.2219238 1.2219238c0 .6748047.5471191 1.2218018 1.2219238 1.2218018z"/><path d="m27.5651779 39.3492279c-1.5615234 1.3085938-3.6992188 1.8984375-5.7060547 1.5771484-.4982796-.071846-.6026211.6638947-.1191406.7402344 2.207859.3554115 4.5722008-.2890053 6.3076172-1.7431641.3807468-.3196411-.1035519-.8926544-.4824219-.5742187z"/><path d="m26.9743576 42.3716888c.2231827-.4440155-.4485569-.779644-.6699219-.3369141-.5751953 1.1445313-1.4970703 2.1367188-2.5957031 2.7929688-.3255463.1949692-.1870136.6972656.1923828.6972656.3469048.0000001 2.1201878-1.2574119 3.0732422-3.1533203z"/><path d="m28.2995529 43.6197357-1.1464844 3.4794922c-.1546516.4709854.5587006.7056732.7128906.234375l1.1464844-3.4794922c.1547203-.4711914-.558485-.7069511-.7128906-.234375z"/><path d="m39.8581467 23.1021576c.7771378-1.1322269 2.5762901-1.1958656 3.3632813.0810547.2585335.417902.8981209.0281487.6386719-.3925781-.484375-.7861328-1.3574219-1.2880859-2.2802734-1.3105469-.921875.0029297-1.8193359.4384766-2.3408203 1.1982422-.2800829.4084549.337345.8337116.6191405.4238281z"/><path d="m47.2116623 11.5787201c1.21875.3037109 2.2304688 1.3769531 2.4580078 2.6103516.0921097.4868631.8272629.3526802.7382813-.1367188-.2851563-1.5371094-1.4960938-2.8232422-3.0146484-3.2021484-.4908486-.1109133-.6567536.6085834-.1816407.7285156z"/></g></svg>