<svg id="Layer_1" height="512" viewBox="0 0 512 512" width="512" xmlns="http://www.w3.org/2000/svg"><g><path d="m337.9 91.8v16.4c49.7 0 90.1 40.5 90.1 90.2h16.4c.1-58.8-47.7-106.6-106.5-106.6z"/><path d="m254.8 395.2c-13.6 0-24.6 11-24.6 24.6s11 24.6 24.6 24.6 24.6-11 24.6-24.6-11-24.6-24.6-24.6zm0 32.8c-4.5 0-8.2-3.7-8.2-8.2s3.7-8.2 8.2-8.2 8.2 3.7 8.2 8.2-3.7 8.2-8.2 8.2z"/><path d="m346.1 395.2c-13.6 0-24.6 11-24.6 24.6s11 24.6 24.6 24.6 24.6-11 24.6-24.6-11-24.6-24.6-24.6zm0 32.8c-4.5 0-8.2-3.7-8.2-8.2s3.7-8.2 8.2-8.2 8.2 3.7 8.2 8.2-3.7 8.2-8.2 8.2z"/><path d="m437.4 395.2c-13.6 0-24.6 11-24.6 24.6s11 24.6 24.6 24.6 24.6-11 24.6-24.6-11-24.6-24.6-24.6zm0 32.8c-4.5 0-8.2-3.7-8.2-8.2s3.7-8.2 8.2-8.2 8.2 3.7 8.2 8.2-3.7 8.2-8.2 8.2z"/><path d="m72.2 395.2c-13.6 0-24.6 11-24.6 24.6s11 24.6 24.6 24.6 24.6-11 24.6-24.6-11-24.6-24.6-24.6zm0 32.8c-4.5 0-8.2-3.7-8.2-8.2s3.7-8.2 8.2-8.2 8.2 3.7 8.2 8.2-3.7 8.2-8.2 8.2z"/><path d="m163.5 395.2c-13.6 0-24.6 11-24.6 24.6s11 24.6 24.6 24.6 24.6-11 24.6-24.6-11-24.6-24.6-24.6zm0 32.8c-4.5 0-8.2-3.7-8.2-8.2s3.7-8.2 8.2-8.2 8.2 3.7 8.2 8.2-3.7 8.2-8.2 8.2z"/><path d="m304 460.8c-13.6 0-24.6 11-24.6 24.6s11 24.6 24.6 24.6 24.6-11 24.6-24.6-11.1-24.6-24.6-24.6zm0 32.8c-4.5 0-8.2-3.7-8.2-8.2s3.7-8.2 8.2-8.2 8.2 3.7 8.2 8.2-3.7 8.2-8.2 8.2z"/><path d="m395.3 460.8c-13.6 0-24.6 11-24.6 24.6s11 24.6 24.6 24.6 24.6-11 24.6-24.6-11.1-24.6-24.6-24.6zm0 32.8c-4.5 0-8.2-3.7-8.2-8.2s3.7-8.2 8.2-8.2 8.2 3.7 8.2 8.2-3.7 8.2-8.2 8.2z"/><path d="m121.4 460.8c-13.6 0-24.6 11-24.6 24.6s11 24.6 24.6 24.6 24.6-11 24.6-24.6-11.1-24.6-24.6-24.6zm0 32.8c-4.5 0-8.2-3.7-8.2-8.2s3.7-8.2 8.2-8.2 8.2 3.7 8.2 8.2-3.7 8.2-8.2 8.2z"/><path d="m212.7 460.8c-13.6 0-24.6 11-24.6 24.6s11 24.6 24.6 24.6 24.6-11 24.6-24.6-11.1-24.6-24.6-24.6zm0 32.8c-4.5 0-8.2-3.7-8.2-8.2s3.7-8.2 8.2-8.2 8.2 3.7 8.2 8.2-3.7 8.2-8.2 8.2z"/><path d="m479.8 207c.5-4.6.7-8.7.7-12.7 0-74.6-61-135.3-136-135.3-40.2 0-77.6 17.3-103.6 47.8-14.1-5.7-43.1-13.8-68.5-6 1.1-5.3 1.6-10.7 1.6-16.2 0-32.1-19-61.2-48.3-74.1l-19.3-8.5s14 25.6 14 45.3c0 35.6-29 64.6-64.5 64.6-20 0-45.3-14-45.3-14l8.5 19.3c12.7 28.9 41 47.6 72.3 48.2-4.4 9.5-7.6 19.6-9.3 30.4h-12.9c-37 0-67.2 30-67.2 66.9s30.1 66.9 67.2 66.9h29.2c20.1 25.7 51.2 41 83.8 41 32.7 0 63.7-15.2 83.8-41h176.7c37 0 67.2-30 67.2-66.9.1-22.4-11.3-43.3-30.1-55.7zm-434.8-79.4c3.6.5 7.2.7 10.9.7 44.6 0 80.9-36.3 80.9-81 0-3.7-.2-7.3-.7-10.9 28.2 26.5 20.3 63 17.8 70-21.4 8.5-40 23.3-52.9 42.2-23 1.9-44-7.5-56-21zm397.8 185.6h-185s-24.1 41-75.6 41c-51.7 0-75.6-41-75.6-41h-37.4c-28 0-50.8-22.6-50.8-50.5 0-27.8 22.8-50.5 50.8-50.5h27.6l.7-7.5c4.7-51.5 47.4-90.3 99.5-90.3 24.2 0 48.8 12.5 48.8 12.5s36.9-51.6 98.7-51.6c66 0 119.6 53.3 119.6 118.9 0 13.3-1.9 21.5-1.9 21.5s31.4 13.3 31.4 47c0 27.9-22.8 50.5-50.8 50.5z"/></g></svg>