<svg id="Layer_1" enable-background="new 0 0 75 75" viewBox="0 0 75 75" xmlns="http://www.w3.org/2000/svg"><g id="Cute_Caterpillar" fill="rgb(0,0,0)"><path d="m39.0292816 23.8387661c.4897461 0 .8867798-.3547363.8867798-.7924805 0-.4375-.3970337-.7919922-.8867798-.7919922-.4898071 0-.8868408.3544922-.8868408.7919922 0 .4377442.3970337.7924805.8868408.7924805z"/><path d="m53.1769867 46.514061c0 .6091614.9005127.6104431.9005127 0 0-.6099587-.9005127-.6104431-.9005127 0z"/><path d="m69.0041351 64.9676743c.1274414 0 .2514648-.0644531.3217773-.1816406.8986816-1.4933014.0530243-3.7934113-1.7680054-4.1120605.0263672-.0524902.0615845-.095459.0844116-.1516113.1042786-.2551193-.0885315-.5347977-.3896484-.5146484-1.074707.1279297-1.9863281-.8613281-2.4970703-1.8242188-.5985565-1.1180992-.9289474-2.4360619-1.6811523-3.5449219-.8061523-1.1757813-2.3120117-2.0224609-3.628418-1.3623047-.8077812.4095802-1.2750397 1.2447548-1.7939453 1.8896484-.4287109.5361328-1.0761719 1.0380859-1.6040039.84375-.7091217-.2695313-.6841125-1.5588646-.2519531-2.2841797.5324974-.8783646 1.4621544-1.4870338 2.1538086-2.3632813 1.2646103-1.6080666 1.5091057-4.3590012.4699707-6.0336914.5846329-.15905.8615074-.5380325 1.2141113-1.0854492.2682076-.4192924-.3635292-.8218346-.6308594-.40625-.70261 1.0944481-.9186058.7378845-1.1923828.7709961-.2087822-.128334-.397789-.357048-1.1237183-.5224609.0572853-.2405128.0964546-.7415276.4850464-1.4614258.2356606-.4361496-.424305-.792141-.6601563-.3554688-.4740601.8786697-.5240746 1.5680618-.5604858 1.7270508-5.5559006-.2013779-9.1289177 6.6649437-5.2189331 12.715332-1.0178223.7253418-1.7941895 1.7895508-2.1351318 2.9726563-1.09375-1.1025391-2.8027344-1.5341797-4.2807617-1.0048828-1.5327148.5595703-2.6201172 2.1044922-2.7172852 3.7509766-2.9583244-1.1297188-5.8576965 1.3924561-5.4663086 4.4189453.0635643.4932404.807373.3960876.7441406-.0957031-.1625977-1.2548828.4125977-2.5703125 1.4301758-3.2724609 1.0273438-.703125 2.4291992-.7539063 3.4863281-.1269531.2677002.1593437.5948715-.0572891.5644531-.359375-.1523438-1.515625.8208008-3.1015625 2.2138672-3.6103516 1.3959961-.5019531 3.1166992.0947266 3.9165039 1.3583984.1885986.2969818.6483459.1923103.6894531-.1582031.1495361-1.2822266.8998413-2.5048828 1.9779663-3.2734375 1.0225716 1.3306236 1.990509 1.8970947 3.0150757 2.1894531-1.4265137.6562462-2.5260506 1.9119797-3.0931396 3.2871094-.0791016.1914063.012207.4101563.2036133.4892578.1914063.0800781.4111328-.0107422.4897461-.2041016 1.0210724-2.473896 3.5517921-3.764576 5.3491211-3.0830078 1.0043945.3808594 1.8549805 1.6445313 1.4897461 2.7666016-.1430664.4384346.4788895.6889839.6879883.2910156 2.2542343-4.2632523 5.7145767-2.3063889 5.1445313-.40625-.1249466.4764442.5913239.6703148.7236328.1972656.1867294-.6846581.7734528-1.2530479 1.5971069-1.4111328.0109253.0009766.0213623.0068359.0322876.0068359.0151978 0 .0274048-.0161133.0425415-.0180664 1.6924515-.2559776 2.5689697 1.7800713 1.8451538 2.9838867-.1069335.1777344.0312043.5683594.3208008.5683594zm-9.6440429-3.4189454c-.2374878-.9772949-.9724121-1.8789063-1.9703369-2.2587891 1.2061806-.3990669 1.6674385-.9081078 2.5128174-.9345703 1.0501518-.0158195 1.8296814.8723183 2.4000244 1.4204102-1.2243233.1011505-2.1913224.7903443-2.9425049 1.7729492zm6.3034057-.4836425c-.2740555.0266304-.563591-.0056496-.8587646-.1469727-.2612305-.3928223-.6217041-.7265625-1.0647583-.9240723-.0836182-.0375977-.1782837-.046875-.2657471-.0756836-.8693123-.8754158-2.0272408-2.3697891-3.5911865-2.3129883-.7387695.0234375-1.4008789.3730469-1.9282227.6513672-.4551544.2317963-.8734169.3509636-1.4335938.5263672-4.4880066 1.4312134-8.9207001-6.6073189-5.4042969-11.5734863.3102074.4882469.861351.7844238 1.1572266.7844238.444046 0 .5181732-.6459923.0791016-.7412109-.5240669-.1150856-.6383896-.5415649-.7479248-.654541 1.9075775-2.087925 4.7792397-2.2042351 5.7244873-1.4157715 1.2387848.999836 1.3814316 3.999752.0307617 5.7158203-.6822357.8644905-1.5918312 1.4249687-2.2075195 2.4404297-.6631088 1.1134071-.5829163 2.9142303.6318359 3.3730469.7685547.2871094 1.6860352-.1162109 2.4526367-1.0771484.5206108-.6492348.9311981-1.3774948 1.5454102-1.6894531.9311523-.4609375 2.050293.2099609 2.6723633 1.1162109.6720467.9899521 1.042778 2.3627129 1.6386719 3.4746094.5072632.9560547 1.3794556 1.9221191 2.4564819 2.1682129-.5192413.1135787-.7277145.2639198-.8869629.3608398z"/><path d="m52.076889 36.8739243c1.4702148-1.5634766 2.4921875-3.5859375 2.8769531-5.6953144.0889244-.4890671-.6483688-.620512-.7382813-.1347656-.3588867 1.9687519-1.3125 3.8574238-2.6845703 5.3164082-.3417205.3616828.2095681.8700484.5458985.5136718z"/><path d="m54.4333344 37.8358383 3.7255859-3.7734375c.3475113-.3521729-.1825066-.880394-.5332031-.5273438l-3.7265625 3.7734375c-.3492661.3539544.1887855.8750268.5341797.5273438z"/><path d="m54.127182 40.0291977c1.4663086-1.1845703 3.3896484-1.7792969 5.2631836-1.6416016.203125.0322266.3867188-.1386719.4023438-.3457031s-.1391602-.3867188-.3457031-.4023438c-2.0668945-.1513672-4.1777344.5029297-5.7915039 1.8056641-.3851128.3127594.084854.8945351.4716796.5839844z"/><path d="m5.3124247 49.0960922c0 .5581055.4523926 1.010498 1.010498 1.010498h7.8313599c.010376 2.5812988-.0022583 13.1904297-.0043335 14.982666-.9969959-.1706696-2.0998631-.175087-2.8543091.5112305-.3672981.3345413.1384439.8887177.5048828.5546875.6485844-.5890656 1.7399111-.4172287 2.5483398-.2714844.7712297.1362 2.497201.4297333 2.3442392-.3369141-.0400391-.2041016-.2441406-.3417969-.4404297-.2958984-.4337778.0866699-.8840952.0427246-1.3528452-.0332031.0019531-1.4145508.0152588-12.4233398.0045776-15.111084h6.7446909c.7152004 0 1.2716579-.7586632.8765259-1.4846191 3.6117382.6286354 4.7968445.413929 4.6445313 4.2373047-.0873127 2.6983109-.1857338 5.4191437-.2836304 8.128418-.9662476.7408905-.6720428 1.6192436.3783569 1.9291992 1.5565262.4581642 4.3402023.514328 4.3102417-1.1713867.996088.2613182 2.7245846.4127274 3.5759869-.128418.798893-.5080414.8714066-1.5257912.0898438-2.1064453-.5506859-.4110756-1.9816628-.7372475-3.0758667-.3984375.3452339-9.053421.4987297-9.3830757-.0901489-10.3857422-.7035465-1.2012482-2.1671009-1.4626541-3.4726543-1.6044922-.8061523-.0869141-1.5673828-.1689453-2.2041016-.5449219-.1787109-.1074219-.4082031-.046875-.5136719.1308594-.1054688.1787109-.0463867.4082031.1318359.5136719.7768555.4599609 1.6552734.5546875 2.5053711.6464844.1918945.0205078.3833008.0410156.5727539.0664063 1.184082.1552734 1.9692383.5498047 2.3339844 1.1708984.4601612.7849426.3232479 1.1655769-.0267334 10.354248-.156189.0939941-.3115845.1970215-.4664307.3186035-.0004883 0-.0004883 0-.0009766.0009766-.1135254.0893555-.4035034.3334961-.4980469.6928711-1.1632404-.3769989-2.0572262-.2816734-2.78302.0493164.0921631-2.5478516.18396-5.0888672.2664185-7.6357422.1839809-4.6332741-1.7041359-4.3858414-6.2228394-5.170166 2.683218-.4569855 3.6305656-.4072495 6.0303345-4.9616699 1.2747803.9121094 2.6734619 1.6328125 4.1570435 2.0991211-.0101318.0812988-.0296021.1601563-.0162964.2475586.1860332 1.2207031 2.7343731 2.0585938 2.760252 2.0664063 0 0 0 0 .0004883.0009766 3.1793175 1.0173798 4.112896-2.8460121.5605469-3.2333984-.8215942-.0905762-2.2137451-.1557617-2.9013062.2895508-.2280083-.1824074-1.8549957-.4292259-4.2226543-2.1499023 1.4554844-2.8670044 1.796896-3.9617462 2.6793213-6.0852051.2280006.3399467 3.0873241 1.4998093 5.694273 5.4401855-.7012215.9298935.8501358 2.5555 1.7596436 3.2583008.0004883.0009766.0004883.0009766.0009766.0009766 2.2006073 1.7008476 3.9878082-.2627678 2.8564453-1.8720703-.664608-.9442978-2.9515419-1.8351402-3.9263306-1.7324219-1.508667-2.3061523-3.531311-4.2485352-5.8871441-5.6259766-.0847778-.0500488-.1796875-.0600586-.2677612-.0412598 1.2915363-3.2892303.8796997-4.3432503-1.2254028-6.1784687 0 0-.0537109-.0458984-.0541992-.046875-4.8429012-4.2133999-4.4171162-3.8516254-4.7119751-4.0966797.5664063-.1977539 1.1216431-.4250488 1.6696777-.6689453 1.9623432 3.7864971 6.645483 5.2768841 10.60919 3.9482422 2.5072021-.8422852 5.1366577-3.2265625 6.5723877-5.8339844-.0006714.0107422.0008545.0214844.0001221.0322266 1.7358398-1.8061523 2.3126831-4.7678223 1.8392334-7.1660147-1.7162477-8.6928712-12.9042359-9.5322267-18.6766339-4.435547-2.787653 2.4610701-4.4683189 6.0757303-7.6296387 8.1076651-1.5668945 1.0070801-3.5227671 1.545166-5.3215342 1.0617676.8566284 2.1970215 2.8667612 3.9057617 5.1729746 4.3974609-.4763184-.0026855-.925293.3798828-.99823.8505859-.072998.4707031.2389526.9711914.6935425 1.1130371.829895.2590332 1.6466064-.498291 2.4413452-.6254883.1206055-.0192871.237854-.0375977.3571167-.0561523-3.9765625 3.6647949-7.3224497 7.9375019-9.9370127 12.7282734-.7631836 1.3974609-1.4887695 2.9160156-1.625 4.5458984-.1572266 1.8652344.5776367 3.6259766 1.871582 4.4853516.3630981.2409668.7617188.3911133 1.171875.5065918h-6.8711547c-.5581055 0-1.010498.4523926-1.010498 1.010498zm26.5718393 10.9638672c.0576172-.019043.1088867-.0493164.1504498-.092041.6282349-.2988281 1.2922974-.3266602 2.1452026-.1096191 1.039669.2681503 1.01931.8382607.5688477 1.1259766-.8359222.5321198-3.5802174.1066933-3.6025372-.2910156-.0141506-.2094117.5616531-.5361863.7380371-.6333009zm-1.0554199 1.690918c.0456028 1.1295853-3.7522774.6310272-3.7797852.1708984-.0019531-.0263672.0112305-.1259766.2426758-.3076172h.0004883c.546875-.4306641 1.0820313-.6357422 1.7143555-.6357422.5706787 0 1.7969474.1986161 1.8222656.772461zm1.8076153-16.8623047c.3526802-.371315 2.8510666-.4006577 3.6313477.1503906.6795044.4828606.5400887 1.3104324-.2407227 1.5166016-1.0499802.2775993-3.33144-1.0000839-3.4179688-1.5683594-.0087891-.0566406.0053711-.0761719.0273438-.0986328zm7.8061523-1.640625c.4806519.6841698.0909195 1.4153786-.7148438 1.3457031-1.0382538-.0969467-2.6542206-1.9264984-2.7036133-2.5559082.0159912.0021973.0302124.0119629.0463867.0119629.1449699 0 .2736168-.076252.3388672-.2324219.4605713.0336914 1.2354736.2880859 2.0546875.6904297.3266602.1621094.7333985.3916016.9785157.7402344zm-3.8087769-15.4846211c-.4567871-.4614258-.732666-1.0939941-.7966919-1.7478027.496479.7588425 1.2739716 1.1792793 2.1095581 1.2592773-.3081054.1499024-1.1236534.4349518-1.3128662.4885254zm1.6412354-11.1872558c.6643562-.2917881.9208221-.8503189 1.8266602 1.5290527.4095459 1.0754395.6306152 2.2233887.6420288 3.3747559-.0003052-.0310059.6013794-.3896484.6682129-.4472656.2279053-.1955566.4300537-.4211426.6011353-.6679688.6304703-.9101791.4261246-1.4031792.6900635-1.5705566.424614.3589211.8572083 1.7835941.9840088 2.3137207-.4796753 1.2028809-1.2692871 2.3891602-2.2194214 3.4367676-.4268951-.7478657-1.6691895-.4716759-1.6691895.3544922 0 .3349609.2345581.6179199.5636597.7338867-.5265503.4602051-1.076416.8659668-1.6414795 1.2087402-.0394897-.1816406-.203125-.3227539-.3850708-.296875-1.1932144.0844212-2.2289963-.8948612-2.2373047-2.1386719-.0022392-.4053383-.5552635-.5125198-.7167969-.1523438-.5386963 1.1916504-.3419189 2.6801758.4428101 3.7131348-3.1918869.5709209-6.7932873-.6755199-8.4705181-3.8725586 5.2023982-2.5439529 6.7369937-5.6942386 10.9212016-7.5183105zm-14.4921246.4287109c2.2167969-3.7587881 6.0737305-6.3847647 10.3159161-7.0244131.4979134-.0657625.5974312.668087.1123047.7421875-4.0219707.6064453-7.678709 3.0976563-9.7827129 6.663085-.2496491.4259739-.8988629.0484352-.6455079-.3808594zm-.9038086 5.3427735c2.706543-.703125 5.2514648-2.0654297 7.3588867-3.9365234.3716488-.3272381.8688526.2306824.4980469.5605469-2.1958008 1.9501953-4.8476563 3.3681641-7.668457 4.1025391-.2051849.0512962-.4056625-.0710697-.4570313-.2685547-.052246-.201172.0678711-.4052736.2685547-.4580079zm-11.9814462 20.8085956c.1181641-1.4082031.699707-2.7167969 1.5361328-4.2490234 2.7182617-4.9804688 6.2299814-9.4013691 10.437501-13.1396503.0682983-.0610352.1362305-.1201172.2040405-.1750488.3250122-.0612793.6499023-.1306152.9766846-.2145996.4056854.1882763.4153156.2727795 5.1810913 4.4052734l.2695313-.2626953-.246582.2822266c1.9215393 1.6772423 2.310318 2.2971134.6381836 6.2773457-.5650501 1.3469429-.9813118 2.6468315-2.4382324 5.5361328-3.0529785-2.4611816-5.2182617-6.1306152-5.7126465-10.0654316-.0609131-.4919853-.8061371-.3998775-.7441406.09375.5247803 4.1792011 2.8485718 8.0715351 6.1170654 10.6547871-.9200191 1.7547684-2.0359001 4.0352745-4.0106201 4.4047852-2.3515625.4394531-4.8823242.8525391-7.4575205.8896484-1.0566406.0195313-2.2758789-.0185547-3.2109375-.6396484-1.0693361-.7099612-1.6738283-2.2001955-1.5395509-3.7978518zm8.8980722 4.8513184c.0172729.029541.0393677.0541992.0640869.078125h-.6990967c.2123414-.0256348.4243775-.0495606.6350098-.078125z"/></g></svg>