<svg id="Layer_1" enable-background="new 0 0 75 75" viewBox="0 0 75 75" xmlns="http://www.w3.org/2000/svg"><g id="Cute_Girl" fill="rgb(0,0,0)"><path d="m58.4574699 14.1926308c-.4035378.2892427.0296516.8978424.4355469.6113281 1.3525391-.9648438 2.4130859-2.2519531 3.0683594-3.7236328.1289368-.2901087-.1398811-.5971928-.4404297-.5146484-3.3100853.8945112-5.6979599-3.1167722-8.5371094-4.6142573-3.2771912-1.719398-7.3356819-.5717478-8.8659668 1.7253418-.5539436-.6703987-1.242672-1.5453472-2.0369873-1.2053223-.5018196.2093039-.6650925.8306661-1.3323975 2.3579097-3.8173828.8100586-7.0560303 4.3027344-8.1289063 8.0703125-.5247459 1.8648376-.5097694 3.4216423-.3085938 5.1005859-2.5337982 1.1156464-1.5701599 4.8190403 1.0960693 4.6635742 2.9649048 7.5433998 13.4506378 7.3893814 16.6175537.4140625.0779419.0666027.1787262.1016178.2912598.0883789 2.6442719-.3431206 2.7559776-3.5520573.7281494-3.9003906 1.0251465-2.1518555 1.2514648-4.6811523.670166-7.0021973 2.0487251.4291515 3.9372253.1989212 5.6456299-.5837402.2080078-.0830078.3681641-.1650391.5039063-.2597656.4100113-.2834921-.0206642-.8974705-.4257813-.6171875-.0888672.0615234-.2021484.1191406-.3730469.1875-1.7376709.7938232-3.7176514.9526367-5.6043701.4595947-.4487114-1.3150835-.8131409-1.842042-1.2507324-2.4666748.6479416-.6220942.8808632-.8046846.9411621-1.0819092.0899658-.3800049-.1700439-.75-.4400635-1.0198975-.9704208-.9598761-2.3289261-1.4717684-3.491333-1.4577637-.2649727-1.2063169-1.4585686-1.5158467-2.3468018-.7392578-.0362549-.0532227-.0645752-.1120605-.1019287-.1630859-.0480957-.0678711-.102417-.1333008-.1520996-.2008057 1.152832-2.1022997 4.9404907-3.321064 8.0155029-1.7051997 2.6315765 1.3874135 4.8217926 5.066812 8.3203125 4.8027339-.6025388 1.0820313-1.4550779 2.0322266-2.4970701 2.7744141zm-25.9622802 8.5437011c.0412598.0771484.0894775.1450195.1522217.19104.0832596 1.3310089.2548981 2.17939.4932861 2.9699707-1.7257691-.1578387-2.1347981-2.3697299-.6455078-3.1610107zm8.8323974 8.8205567c-3.8525391-.1689453-6.8671875-2.7958984-7.6796875-6.6933594-.1531982-.7202148-.2454834-1.5045166-.2785645-2.3283691.0616302-.2239723.0788879-.3593178.098877-.4616699.7784424-1.9183044 3.5380974-1.6253986 5.3339844-2.9423828-.2724075.7445774-.613369.8032532-.4638672 1.1416016.0556641.1269531.1767578.2119141.3144531.2226563 2.9722557.221077 4.3464127-.9458828 5.5625-2.0087891.7949448 2.1989975 3.3806801 2.8704948 4.3232422 4.6689453.0927734.1777344.3105469.2509766.4873047.1669922.2703857-.121582.6038818-.0914307.9036865.0712891.5000878 4.1212042-3.5357055 8.4017962-8.6019287 8.1630858zm10.2910157-7.0019531c.3108749.7260075-.2132607 1.6686859-1.3265381 1.8513184.3503685-.9991627.4234619-1.6978436.4234619-2.4064941.3558349-.0324708.7510986.2008055.9030762.5551757zm-1.1748047-1.7363282c-.4130859-.2871094-.9277344-.390625-1.4003906-.2871094-1.1818848-1.8720722-3.970314-2.6985912-4.2402344-4.7773438-.0175781-.1367188-.109375-.2529297-.2373047-.3017578-.3199501-.1274986-.5037498.2183475-.8125.4414063-1.1702042 1.0250187-2.1173782 1.8701382-4.4121094 1.8769531.2587891-.5175781.4160156-1.1347656.3066406-1.6738281-.0424385-.2162304-.2632866-.3500271-.4804688-.2832031-.2952652.0934563-.4663162.4164772-.5830078.5244141-1.451622 1.3720837-4.3013077.9641361-5.5927734 3.0322266-.1542969-1.4326172-.0341797-2.9042969.3496094-4.2666016.9324951-3.2746582 3.7393799-6.4234619 7.0332031-7.3970947-.1962128.5315609-.0417099.872179.6763916.9748535 1.2317696.1698694 2.0597382.0043955 3.0981445-.2235107.0713081 1.092123.9589539 1.6502256 1.821167 1.3449707.0037842-.0014648.0072021-.0041504.0111084-.0056152.3347549.8972387 1.1198959 2.6307116 2.0695801 2.6940918.6303406.0494862 1.1439018-.5260344 1.609375-.9782715 1.958477 2.8573417 2.067276 6.4976272.7835694 9.3054198zm-3.9560547-13.2734375c.0615234.2382813.0341797.5263672-.0761719.8105469 0 .0009766-.0009766.0029297-.0009766.0039063-.3764954.9938383-1.5046272 1.07166-1.5244141-.0166016-.0553931-1.1148186 1.3203812-1.9103499 1.6015626-.7978516z"/><path d="m50.0708733 54.2414589c.7299805-.9799805.6999512-2.2999268.6199951-3.5100098-.3699951-5.2099609-1.2399902-10.3798828-2.6300049-15.4099121-1.0387497-3.8613167-3.3597488.2697144-9.7700195-1.4699707-2.119873-.5900879-2.75-.6600342-3.2800293 1.6398926-1.039917 4.5300293-2.0998535 9.0500488-3.1398926 13.5800781-.0868282.8268013-1.0749359 3.7077904.5100098 5.4399414 1.1393661 1.2547112 3.1409569 1.3343697 4.7854004 1.4750977-.1459007.0899658.2370758-.4093361-5.5095215 8.4851112-1.1374722-.5642662-2.4203434-.6489716-3.6456299-.3562012-1.6697407.4014206-2.0479717 1.7711029-1.0791016 2.7998047.7929688.8417969 1.9072266 1.3017578 3.1162109 1.3017578 2.8372383 0 3.5683784-2.3903122 2.2520752-3.3587646l5.3787842-8.3531532c.1026611-.1589355.0637207-.3623047-.0753174-.482666 2.2437744.1691895 4.4995117.1711426 6.7452393-.0023193.1632767 3.4211617.4950905 10.373806.4737549 9.9267616-.00354.0013428-.0073242.0020752-.0108643.00354-.8745651.3547134-1.2933502 1.4331894-.6777344 2.4619141.7907257 1.3251953 3.4230576 2.0964966 5.4042969.7871094 1.1894608-.7832642 1.1179619-2.1998367-.40625-2.9736328-.0009766 0-.0009766 0-.0009766 0-1.1193581-.565094-2.3566971-.7646255-3.5675049-.5006104-.5273552-10.7686272-.4478264-9.611393-.4815674-9.774662 1.7447015-.1631394 3.9557115-.2887803 4.9886476-1.7091065zm-22.5928955 12.1601601c-1.4812622-1.5738449 2.348423-2.3771896 4.3681641-.9501953.1894531.1347656.3115234.3466797.3330078.5810547.1319427 1.4305496-2.9852334 2.1904983-4.7011719.3691406zm21.6474609 2.171875c-.9072266.6005859-2.0693359.7158203-3.1865234.3154297-1.5198898-.5420456-1.6844978-1.9053726-.8457031-2.2431641 2.3309554-.9420014 5.7980346.7597961 4.0322265 1.9277344zm-7.5145264-31.8420449c.5799561 0 1.0600586.4699707 1.0600586 1.0600586 0 .5800781-.4801025 1.0600586-1.0600586 1.0600586-.5800781 0-1.0600586-.4799805-1.0600586-1.0600586 0-.5900879.4799805-1.0600586 1.0600586-1.0600586zm.1199951 12.5500489c-.5799561 0-1.0599365-.4699707-1.0599365-1.0600586 0-.5799561.4799805-1.0599365 1.0599365-1.0599365.5899658 0 1.0599365.4799805 1.0599365 1.0599365.0000001.5900879-.4699706 1.0600586-1.0599365 1.0600586z"/><path d="m52.5238762 61.0031776c.2419052 2.5066948 1.4730186 3.3200569 2.5742188 3.2353554 12.9266472-1.7537918 13.3201103-1.6962814 13.9980507-2.6093788.8182983-1.105751.7845459-5.8195152-2.3405762-9.9438477 1.0591583-.7476425.6827469-2.2841721-.4758301-2.5708008-.3730469-.0927734-.7626953-.0332031-1.0927734.1660156-.005249.0031738-.0080566.0087891-.0133057.0119629-.5881348-.6474609-.9589844-1.4631348-1.2119179-2.1931152 1.2786751-.0104446 2.2036858-.9048004 2.3316689-1.8803711.2021255-1.5629158-1.402092-3.1682472-4.0775185-2.4865723-1.4886665-2.0963135-3.711628-2.2414131-5.2030029-.9553223-3.0147705-1.7714844-5.5792236-4.378418-7.2341309-7.3774414-.1005859-.1806641-.3291016-.2480469-.5097656-.1464844-.1806641.0996094-.2470703.328125-.1464844.5097656 1.7200928 3.1166992 4.2711182 5.7260742 7.378418 7.5803223-1.9295654 2.6929703.2516441 6.9000816-2.4442139 8.463623-1.4123917.1243858-1.8213348 1.9853096-.5830078 2.6853027-.8554688 2.6302492-1.1784668 5.1567385-.9498291 7.5109865zm14.0839882-10.3203125c-.0901718.368679-.4630432.5994682-.8398438.5078125-.3620987-.0885544-.6394119-.4719658-.47229-.9162598.2016449-.0306931.3143768-.1772995.3154297-.3615723.5635071-.2987288 1.1347656.2177621.9967041.7700196zm-1.8691406-7.0419921c.5478516.3271484.8818359.9365234.8105469 1.4804688-.0810547.6191406-.6953125 1.15625-1.3994141 1.2226563-1.4875946.1415672-2.8430099-1.6376305-2.9703407-2.484375.0593834-.0449486.3375626-.1209717.4859619-.1738281.9835891-.358246 2.1434822-.6013147 3.073246-.044922zm-3.2808876-.6755372c-.2266884.0821342-.6434975.1618996-.875.4599609-.9831543-.3305664-1.9356689-.7541504-2.8520508-1.2558594 1.1556167-.7840308 2.5995674-.6232032 3.7270508.7958985zm-5.1204834 3.49292c.0062599-1.2740784.0067444-2.6624222.8150635-3.7330322 1.0625.5997314 2.1810303 1.0946045 3.3355713 1.4709473.2225342.8422852 1.0761719 1.7449951 1.1833496 1.855835.4190674.4310303.923584.7270508 1.4456787.894165l.0377197.12146c.2889404.885498.7371826 1.9560547 1.5236855 2.7893066-.0537109.1025391-.1182861.1988525-.1467285.314209-.1909866.7699623.2806625 1.5894356 1.1121826 1.7546387-1.6067657 2.2140923-4.3285637 2.8571358-7.0633583 2.9240723-.7109375.0224609-1.6376953.0078125-2.4892578-.2431641-.6665039-.1971436-1.2271729-.5338135-1.633667-.9604492 1.2674065-.2508202 1.5880661-1.8698502.5334473-2.5913086.5906981-.5625001 1.3374022-2.9391901 1.3463134-4.5966798zm-2.5175782 5.1875c.0228271-.0137939.0501709-.0098877.0739746-.020752.0357666.0109863.0687256.0314941.1066895.0314941.1255531 0 .178566-.0494919.2786865-.098999.4448853.0667343.6652374.4824829.5738525.8480225-.0897331.3669052-.4605751.5995712-.8398438.5078125-.600067-.1484375-.7182998-.9500198-.1933593-1.2675781zm.1923828 2.6269531c1.2102737 1.1713905 2.9097748 1.3720131 4.5869141 1.3271484 2.9831924-.0725594 5.9827156-.8423653 7.7099648-3.2753906 2.7121048 3.7115555 2.7869263 8.0437126 2.1845703 8.8574219-.4580994.6185265-1.1080399.6340294-13.4687538 2.3115234-1.2319336.0489235-1.6353111-1.3354187-1.7548828-2.5625-.2021485-2.0878906.0468749-4.3251953.7421874-6.6582031z"/><path d="m19.9164543 46.0773964c.0771484.0078125.1552734.0107422.234375.0107422.8134766 0 1.6630859-.3808594 2.3134766-1.0488281.1187744-.1217041 1.1412354-1.1977539 1.2321777-2.1037598 4.5041504-.7683105 8.5244141-3.7159424 10.5500488-7.7966309.0917969-.1855469.0166016-.4111328-.1689453-.5029297-.1845703-.0898438-.4111328-.0166016-.5029297.1689453-1.9490967 3.927002-5.8450928 6.7561035-10.1937256 7.4320068-.2857132-.1933975-1.4493313-.545414-1.9625244-.6273193-2.3095341-.3790169-3.7693672 1.1143761-3.5761719 2.5966797.1269532.9677735 1.0175782 1.772461 2.0742188 1.8710938zm.7958985-3.7753906c.7915802 0 1.4230537.2651749 1.9716797.4404297.0996094.0302734.2490234.0761719.2705078.1035156-.0332031.4345703-.5537109 1.1845703-1.0273438 1.6699219-.5566406.5722656-1.2802734.875-1.9414063.8154297-.7041016-.0664063-1.3183594-.6035156-1.3994141-1.2226563-.1084498-.8289681.6382676-1.8066406 2.1259767-1.8066406z"/><path d="m39.1273918 24.2072792c.0996399.491087.8342934.332943.734375-.1503906-.1532288-.748497-.8577309-1.3935547-1.7421875-1.3935547-.8154297.0175781-1.5546875.6611328-1.6826172 1.4658203-.0790176.4857292.6610031.6163521.7402344.1171875.0703125-.4414063.5097656-.8232422.9580078-.8330078.4765625-.0117188.8994141.3466797.9921875.7939453z"/><path d="m44.6771965 22.6633339c-.8144531.0175781-1.5537109.6611328-1.6826172 1.4648438-.0795403.4889355.6623917.6095428.7402344.1191406.0712891-.4423828.5097656-.8242188.9580078-.8339844.4589844.0195313.9013672.3466797.9921875.7929688.0410156.2021484.2421875.3378906.4414063.2929688.7332763-.1480657-.0166092-1.8359376-1.4492188-1.8359376z"/><path d="m43.5580559 26.3313026c-.6551247-.0308762-1.1426773.442297-1.5576172.6689453-.0009766 0-.0009766 0-.0009766 0-.7226257.3869476-1.2709999.0244102-2.1386719-.2470703-1.2515106-.3963432-1.6196594 1.0299492-.8564453 2.0732422 2.1136971 2.8924255 5.7985229 1.6820774 5.8408203-.8417969.0117188-.7529296-.477539-1.5986328-1.2871093-1.6533203zm-3.9482422 2.0517579c-.2382813-.3242188-.2880859-.8632813-.1992188-.9404297.0048828-.0029297.0205078-.0068359.0478516-.0068359.499012 0 1.6156311.9155426 2.8955078.2246094.4227066-.2232609.8220901-.6116714 1.1533203-.5810547.3544922.0234375.59375.4902344.5878906.8935547-.0294761 1.8068904-2.8002319 2.7142982-4.4853515.4101562z"/><path d="m59.9734612 59.4506874-.2399902 1.3984375c-.0310059.1813965.1593018.3195801.3220215.2340088 1.2384453-.6150055 1.2806282-.7557526 1.4626465-.6602783l1.2558594.6602783c.1628418.0855713.3530273-.0526123.3220215-.2340088l-.2398682-1.3984375c-.0123291-.0720215.0115967-.1455078.0638428-.1964111l1.0161133-.9904785c.1315956-.1282959.05896-.3520508-.1230469-.37854l-1.0588379-.1538086-.3453369-.050293c-.0723877-.010498-.1347656-.0559082-.1671143-.1213379l-.6279297-1.2724609c-.081543-.1647949-.3166504-.1647949-.3980713 0l-.6280518 1.2724609c-.0904617.1836662-.2080116.0951271-1.5712891.3254395-.1818848.0264893-.2546387.2502441-.1229248.37854.9676361.9877548 1.1143036.9842414 1.0799561 1.1868896z"/><path d="m35.7504387 15.2941933c-.7177734.6884766-1.1845703 1.6123047-1.3134766 2.5996094-.0633965.4954357.6808929.585928.7441406.0976563.1064453-.8193359.4931641-1.5849609 1.0888672-2.15625.1494141-.1435547.1542969-.3808594.0107422-.5302734-.1425781-.1484376-.3798828-.1523439-.5302734-.0107423z"/><path d="m28.0561028 28.5744667c.4274673.2493553.8032761-.4048786.3730469-.6503906-1.7695313-1.0146484-3.0615234-2.8144531-3.4570313-4.8154297-.0400391-.2021484-.2255859-.3388672-.4414063-.2949219-.203125.0400391-.3349609.2373047-.2949219.4404297.4375001 2.2109375 1.8652344 4.2001953 3.8203126 5.3203125z"/><path d="m25.1264153 29.5393105c.4257641.2512703.8099003-.39328.3808594-.6464844-1.2392578-.7294922-2.3544922-1.6416016-3.3164063-2.7119141-.1386719-.1533203-.3759766-.1660156-.5302734-.0283203-.1533203.1386719-.1660156.3759766-.0283203.5302734 1.0136718 1.1269532 2.1894531 2.0878907 3.4941406 2.8564454z"/><path d="m22.2836418 32.6037636c1.0048828-.7451172 2.3798828-1.0029297 3.5869141-.6669922.4768353.13591.6800251-.5888596.2011719-.7226563-1.4248047-.3955078-3.0478516-.0917969-4.2353516.7880859-.1660156.1230469-.2011719.3583984-.0771484.5244141.1215381.1636696.3545837.2026749.524414.0771485z"/><path d="m16.435009 63.9807167c.796875.6953163 1.1015625 1.932621.7236328 2.9404335-.1722984.4633408.5262814.7289352.7021484.2646484.7060547-1.875 2.9345703-3.0029297 4.8623047-2.4648438 1.9277344.5371094 3.2490234 2.6542969 2.8847656 4.6240234-.0371094.2041016.0976563.3994141.3007813.4375.0234375.0039063.0458984.0058594.0683594.0058594.1777344 0 .3349609-.1259766.3691406-.3066406.4316406-2.3349609-1.1357422-4.8466797-3.421875-5.4834023-1.7412109-.4833984-3.6875.1757851-4.8876953 1.4990273-.4730186-3.2949677-4.8253593-3.9241257-6.1474609-1.0595703-1.2743855-1.9115829-3.896811-2.334816-5.5576167-.3759766-.6738281.7949219-.9833984 1.7919922-.8476563 2.7353516.0684385.4932251.8123388.3836365.7421875-.1074219-.1044922-.7294922.1425781-1.5107422.6777344-2.1425781 1.5605435-1.8419571 4.0475669-.947052 4.6962886.984375-.0332031.4023438.0107422.8105469.1416016 1.1982422.1226482.3657913.6873932.3282166.7285156-.0830078.0390625-.3935547.0019531-.7929688-.1064453-1.1806641.2886848-2.0820312 2.6828527-2.6937141 4.071289-1.4853553z"/></g></svg>