<svg id="Layer_1" height="512" viewBox="0 0 512 512" width="512" xmlns="http://www.w3.org/2000/svg"><path d="m509.3 263.4c-4.3-134.6-111.3-240.6-245.1-244.8v-16.6h-16.4v16.6c-133.8 4.2-240.8 110.2-245.1 244.8l-.7 20.4 70.5-69.2 61.2 61.1 61.2-61.1 52.9 52.9v193.3c0 18.1-14.7 32.8-32.8 32.8s-32.8-14.7-32.8-32.8v-24.6h-16.4v24.6c0 27.1 22.1 49.2 49.2 49.2s49.2-22.1 49.2-49.2v-193.2l52.9-52.9 61.2 61.1 61.2-61.1 70.5 69.2zm-379.1-14.3-57.6-57.5-51.9 51c13.3-110.2 100.7-195.5 211-206.6-53.4 47.7-88.7 113.8-97.9 185.2zm117.6-4.7-52.9-52.9-46.7 46.7 1.9-14.9c9-69.7 44.3-134.3 97.8-179.6v200.7zm69.4-52.9-52.9 52.9v-200.8c55.4 46.8 92.1 113.6 101.4 185.8l1.5 12zm122.2.1-55.1 55-2.5-19.3c-9.5-73.7-46-142.1-101.4-191.3 110.2 11.1 197.6 96.4 210.9 206.5z"/></svg>