<svg id="Layer_1" height="512" viewBox="0 0 512 512" width="512" xmlns="http://www.w3.org/2000/svg"><g><path d="m449.3 212.2c7.9-11.1 12.2-24.3 12.2-38.1 0-36.5-29.7-66.1-66.1-66.1-31.7 0-58.3 22.5-64.7 52.4-22.5-12.4-48-19-74.6-19-47.8 0-91.8 21.3-121.6 58.7-5.9-.9-11.8-1.4-17.7-1.4-63.3-.1-114.8 51.4-114.8 114.7s51.5 114.7 114.7 114.7c14.9 0 29.5-2.9 43.3-8.6 27.3 21.4 61.2 33.2 96 33.2s68.7-11.7 96-33.2c13.9 5.7 28.4 8.6 43.3 8.6 63.3 0 114.7-51.5 114.7-114.7 0-43.8-24.6-81.9-60.7-101.2zm-54-87.9c27.4 0 49.7 22.3 49.7 49.7 0 11.6-3.9 22.6-11.2 31.4-12.1-4.3-25-6.8-38.6-6.8-5.9 0-11.8.5-17.7 1.4-9.3-11.7-20-21.8-31.8-30.2 2.2-25.4 23.6-45.5 49.6-45.5zm0 287.4c-26.5 0-45.9-11.3-45.9-11.3s-33.4 35.9-93.4 35.9c-56.9 0-93.4-35.9-93.4-35.9s-22.2 11.3-45.9 11.3c-54.2 0-98.3-44.1-98.3-98.3s44.1-98.4 98.3-98.4c14 0 24.6 3 24.6 3s39.6-60.3 114.7-60.3c78.5 0 114.7 60.3 114.7 60.3s11.7-3 24.6-3c54.2 0 98.3 44.1 98.3 98.3s-44.1 98.4-98.3 98.4z"/><path d="m34.8 313.4h16.4c0-36.1 29.4-65.5 65.5-65.5v-16.4c-45.2-.1-81.9 36.7-81.9 81.9z"/><path d="m387.1 59.4h16.4v32.8h-16.4z"/><path d="m456.6 88.2h16.4v32.8h-16.4z" transform="matrix(.707 .707 -.707 .707 210.066 -298.057)"/><path d="m477.2 165.9h32.8v16.4h-32.8z"/><path d="m309.4 96.3h32.8v16.4h-32.8z" transform="matrix(.707 .707 -.707 .707 169.358 -199.743)"/></g></svg>