<svg id="Layer_1" enable-background="new 0 0 75 75" viewBox="0 0 75 75" xmlns="http://www.w3.org/2000/svg"><g id="Dental_Hygiene" fill="rgb(0,0,0)"><path d="m44.866993 66.8097916c-.3203125.2539063-.5014648.6376953-.4716797 1.0019531.1148109 1.4160156 3.0148163 1.4993973 4.4052734 1.2089844 2.1481476-.4502335 1.7381439-3.075386-1.5667114-2.8427734l-.7072144-7.9296837c-.0459328-.5125198-.7904892-.4157791-.7470703.0664063l.7096558 7.9566612c-.2776489.0477295-.5483398.1048584-.7975464.1693115-.277832.0722656-.5698242.1669921-.824707.3691406zm4.2636718.4960937c.1645508.1269531.2900391.3759766.2158203.5742188-.0703125.1875-.3056641.3242188-.6992188.40625-.9790039.2050781-1.9951172.1640625-2.9370117-.1123047-.8255806-.2449799-.7489471-.767807.1699219-1.0068359 1.4829102-.3867188 2.6372071-.334961 3.2504883.1386718z"/><path d="m51.1133308 47.6012993c-.3900146-2.0300293-.6900024-4.0899658-1.0800171-6.0899658-.289978-1.5200195-.4099731-3.0699463-.8099976-4.5799561-.289978-1.1201172-.3800049-2.1800537-1.4899902-2.8400879-1.0817642-.626194-1.49263-.6159592-9.3400269-1.5200195-2.4747086-.2977371-3.9488945.0481529-4.9799805 3.7199707-1.9021168 6.8397636-1.4854527 11.3913002-1.6199951 14.710083-.1937618 3.6809578 1.2356911 4.9142685 3.8900146 5.5599365 4.039978.9700928 8.1799927 1.1601563 12.2600098.6000977 5.5471155-.7923126 4.2415658-4.7623482 3.169983-9.5600586zm-6.7299804-10.0400391-1.0900269 1.0600586c-.0599976.0600586-.0800171.1300049-.0700073.2099609l.2600098 1.5c.0299683.2000732-.1699829.3500977-.3499756.2600098l-1.3500366-.7099609c-.0700073-.0400391-.1499634-.0400391-.2199707 0l-1.3500366.7099609c-.1699829.0900879-.3800049-.0599365-.3399658-.2600098l.25-1.5c.0199585-.0799561-.0100098-.1499023-.0599976-.2099609l-1.1000366-1.0600586c-.1400146-.1398926-.0599976-.3798828.1400146-.4099121l1.5-.2199707c.0800171-.0100098.1500244-.0600586.1799927-.130127l.6799927-1.369873c.0900269-.1700439.3400269-.1700439.4299927 0l.6700439 1.369873c.039978.0700684.0999756.1201172.1799927.130127l.3699951.0499268 1.1400146.1700439c.1900024.0300293.2699585.2700195.1300049.4099121z"/><path d="m35.6956062 57.0959282c-.1870117.0332031-.3754883.1650391-.3774414.3730469l-.0579834 9.4417686c-.5842438.0620193-1.6030502.223114-2.0606689.588501-.7067108.5684204-.6928329 1.6810684.6484375 2.0917969 1.0697632.326622 2.2126617.3750076 3.2919922.1572266 2.0668602-.418251 1.7010612-2.8296738-1.1295166-2.8771973l.0577393-9.3981895c.0014648-.2070313-.1655274-.3759766-.3725587-.3769532zm1.9765625 11.5224571c-.065918.1835938-.2954102.3164063-.6811523.3955078-.9702148.1953125-1.9824219.1474609-2.9238281-.1396484-.8035316-.2450638-.7987022-.7752304.1386719-1.0146484 2.5527725-.6471787 3.6739616.1807251 3.4663085.758789z"/><path d="m51.8481331 23.8205376c.0076904.0013428.013916.0059814.0217896.0068359.8623695.0895958 1.7958641-.341114 2.2841797-1.1015625.849514-1.3270378.2228508-3.199316-1.4963379-3.6166992.0534668-.0383301.1082764-.0749512.1496582-.128418.2094727-.2910156.1850586-.8222656.0722656-1.6425781-.0459213-.1218166-.2277031-5.349268-6.0376587-7.4277344.6505852-1.9786592-.5176582-3.8903222-2.2909546-4.5419927-3.0730019-1.114203-6.1818008 1.6980872-6.0357056 4.5803227-1.6365089.6140394-2.8841476 1.4540195-3.9994507 2.5895996-.3488579.3547325.1902695.8795986.5351563.5253906 5.659729-5.7556581 16.3880768-3.1506662 17.0703125 4.265625l.0151367.1113281c.1069336.7753906.0869141 1.0361328.090332 1.0703125-.118969.0793114-.7162895.1052361-1.0087891.1396484-.3928032-2.1035614-2.5885811-3.2083454-4.4418945-2.4677734-.7072144.2771778-1.037468.6316681-3.5068359 2.0107422.1337891-.8291016.027832-1.7001953-.3139648-2.4560547-.1478271-.329771-.5976868-.2717867-.6982422.0380859-.2838783.8682175-.8352089 1.6481628-1.6572266 2.2509766-.0688477-.5341797-.2783203-1.0625-.6132813-1.5185547-.6450195-.8095703-1.315918-.5654297-1.9648438-.328125-.1021385.0395718-.5437737.1785927-1.1293335.4764404-2.9136848 1.481966-3.6958313 3.8801899-3.7941284 4.0181885-.0584106-.0129395-.1331177-.0324707-.2109985-.0534668-.1336594-.2243462-.3791542-.2095432-.6636353-.1791992-.1372681-.0336914-.2603149-.0594482-.3703613-.0744629.0727539-2.2324219.8867188-4.4482422 2.315918-6.2851563.3045578-.3920736-.287159-.8529501-.5917969-.4609375-2.7543049 3.5408936-2.4956093 7.3119316-2.4790039 7.2119141.0009155.0299072.0119019.0563965.0194092.0839844-1.5828266 1.3353004-.5123768 4.1074219 1.9761963 4.1074219.0238647 0 .0446777-.0093994.0673218-.0136719.0772705.4089355.1618652.8256836.2671509 1.2675781.7783203 3.2597656 4.6430664 5.5263672 7.7768555 5.7568359 3.4103775.2463493 6.9408417-1.4915066 8.9350586-4.3388672.8076782-1.1489256 1.3780517-2.4968259 1.7077026-3.8759763zm-12.5929566-14.1230469c.018158-1.1581049.8577499-2.5915599 2.0009766-3.2851567 2.6739235-1.602685 5.73946.630096 4.8747559 3.266602-2.1501046-.6159105-4.5837708-.6731529-6.8757325.0185547zm14.2675782 12.6240234c-.3206177.4975586-.9320068.7854004-1.5186768.7565918.1921997-1.1235352.215271-2.2456055.0473633-3.2866211 1.35606-.0523281 2.1785164 1.4241047 1.4713135 2.5300293zm-21.3291016-1.1127929c.2665787.0704346.4456177.1242733.6504517.175293-.0292969.894043.0358276 1.8444824.1956177 2.8850098-2.199667-.0545598-2.5143319-2.7177487-.8460694-3.0603028zm17.3325195 6.0581054c-1.8475533 2.6363068-5.1311111 4.2566147-8.265625 4.0205078-2.8706055-.2109375-6.402832-2.2529297-7.1025391-5.1826172-.4506836-1.8925781-.6328125-3.4404297-.5693359-4.8515625.1632767-.1777134.3424301-.5955868.4101563-.7539063.2203789-.5212402.5630531-.958643.9379883-1.3828125 1.4393654-1.6668091 3.2395515-2.1811066 3.3413086-2.2324219.6459961-.2333984.8266602-.2802734 1.112793.0791016.3657227.4990234.5366211 1.1171875.4697266 1.6953125-.0349388.3006859.2855988.5183067.5498047.3730469.8571243-.4573402 1.6159286-1.1638088 2.1293945-2.0576172.2126999 1.4830303-.5145035 1.9051704-.1157227 2.2578125.1186523.1054688.2919922.1240234.4291992.0488281 3.240284-1.7777481 3.5352249-2.1403179 4.1992188-2.4003906 1.6032639-.6438389 3.3916054.5179234 3.4663086 2.2382813.0114517.2623291.2849388.4325333.5234375.328125.0366211-.0161133.1052856-.027832.1791382-.0383301.5765991 2.4555664-.0859375 5.5693359-1.6947632 7.857666-.0004884.0000001-.0004884.0009766-.0004884.0009766z"/><path d="m47.0157356 20.3052788c-.5496826.0085449-.9850464.6734619-.9724731 1.4848633.0126343.8115234.4685059 1.4625244 1.0181885 1.4539795.5496216-.0085449.9849854-.6733398.9724121-1.4848633-.0126343-.8115235-.4684449-1.4625244-1.0181275-1.4539795z"/><path d="m38.2692757 23.3808403c.5496826-.0085449.9850464-.6733398.9724121-1.4848633-.0125732-.8115234-.4684448-1.4624023-1.0181274-1.4538574s-.9850464.6733398-.9724121 1.4848633.4684447 1.4624023 1.0181274 1.4538574z"/><path d="m46.5574226 25.8693657c-2.0028496 2.5385323-5.7589493 2.9344387-8.2558594.8740234-.1591797-.1298828-.3955078-.109375-.527832.0507813-.1318359.1591797-.109375.3955078.050293.5273438 2.870018 2.3676147 7.0848885 1.8485222 9.3222656-.9873047.128418-.1630859.1005859-.3984375-.0620117-.5263672-.1621094-.1289063-.3974609-.0996094-.5268555.0615234z"/><path d="m38.5793953 14.5324516c.6049805-.7666016 1.5039063-1.2998047 2.4648438-1.4619141.2045898-.0351563.3417969-.2285156.3071289-.4326172-.0341797-.2050781-.2358398-.3398438-.4321289-.3076172-1.1420898.1943359-2.2094727.8271484-2.9287109 1.7373047-.3075562.3882476.2805404.8543082.5888671.4648438z"/><path d="m47.7219734 13.6554985c.2894821.3910856.9004631-.0455837.6015625-.4472656-.5507813-.7402344-1.3427734-1.2880859-2.2299805-1.5439453-.4780807-.1375942-.6832695.5829124-.2080078.7207031.7309571.2109375 1.3833008.6621094 1.8364258 1.2705078z"/><path d="m66.6985397 22.5002251c-.1085205.0158691-.1856689.048584-.2732544.0749512-1.2568665-.5880547-2.6497841-1.5723629-3.9035072-.8356934-.6430664.3759766-1.0375977 1.1279297-.9824219 1.8701172.0225067.3018303.1138611.5815544.0737305.7861328-.0580101.2915401-.5096779.6510143-.7436523 1.0058594-.5057869.7714825-.3755226 1.9848976.5129395 2.4750977.003479.0028076.0077515.0032959.0112915.0058594.4387703.2380219.7704277.2727299 2.0522461.6411133-.0453987.4749088-.146225.9424133.0924683 1.1835938.4765358.4765358.1456566 1.3151188-.1689453 1.9130859-.909668 1.7822266-2.0400391 3.5-3.1333008 5.1611328-1.0062294 1.5282593-1.9040756 2.8933296-2.7243652 4.3933105-.0637207-.0567627-.144043-.0958252-.236084-.0983887-2.6567383-.0712891-5.3100586-1.2871094-7.0981445-3.2519531-.3274803-.367981-.8911819.1344681-.5546875.5039063 1.9043579 2.0944824 4.7226563 3.3933105 7.5522461 3.4915771-1.3512573 2.6168213-2.0581665 4.9371338-2.1762695 7.1715088-.0138817.2637749.2061577.3516769.3119507.4221191-.1533203.2631836-.1589355.6126709-.0380249.8857422.1868286.418457.59552.6955566 1.0131836.8886719.9476395.4380112 2.6480942.7562828 2.4415283-.2486572.3189812.0801697.5844193.2281914.7825928-.0279541 1.2565308-1.6262207 2.2664795-3.5214844 3.0220337-5.6218262 2.9245186.7061729 3.3207588-2.8908386.9100952-3.1740723.0651855-.2956543.1273804-.592041.1851196-.8896484.0114746.0010986.0227661.0036621.0342407.0046387.1082153-.6114502.2164307-1.2229004.324646-1.8344727-.0009155.0048828-.0193481.0042725-.0283813.0065918.0170555-.1014061.2308617-1.3589706.2944374-1.7148438.0880356-.4906807-.6519737-.6180191-.7382851-.1328125-.0662041.3707428-.2810516 1.6355209-.2979736 1.7359619-.3077393-.0656738-.6028442-.1365967-.6542358-.1517334-.9564552-.2814484-1.795929-.7687531-2.22052-1.1479492.1742554-.2663574.348877-.5356445.5213623-.7976074 1.1044922-1.6777344 2.246582-3.4130859 3.1728554-5.2275391.4763718-.906332.7720566-1.9438896.1010742-2.7167969-.004921-.137701.030983-.4366016.0479126-.578125.7974472.0697327 1.2311554-.3311157 1.6464233-1.0273438.6098633-1.0244141 1.0654297-2.1269531 1.3540039-3.2783203.0887451-.354248.1401978-.7559814-.0229492-1.1201172.3677368.0539551.6812744.2583008.7797852.5371094.4319611 1.156723-2.9466629 6.9526196-3.982914 11.3525391-.0549889.2311859.1180305.4609375.3652382.4609375.1699219 0 .3237305-.1162109.3642578-.2890625 1.0647354-4.4824924 4.5554962-10.1804161 3.9584961-11.7802734-.280701-.7933236-1.2859958-1.1742192-1.9482425-1.0263672zm-3.37891 22.1328125c-.497982.0300293-1.5338974-.253746-1.7138672-.703125-.0791016-.1972656-.0058594-.4765625.1738281-.6611328.3713188-.3831902 1.3041229-.4304695 1.2041016-.4121094 1.4832649-.1962586 1.8098259 1.6756248.3359375 1.7763672zm-.4349976-3.5185547c-.06604.3388672-.1343994.6767578-.2102661 1.0113525-2.0540924.2675552-2.5178757 2.1602974-.8514404 2.9215088-.6998901 1.9418945-1.6223145 3.6989746-2.7625732 5.2165527-1.190712-.2782059-2.3714752-.8295555-3.2998047-1.4433594.237854-3.393734 1.8606453-6.5297623 3.6660156-9.4001465.9760131.852295 2.1824951 1.4399415 3.4580688 1.6940919zm-1.3882446-15.3007813c.0810547-.1240234.1850586-.234375.2875977-.3457031.8092918-.8787594.5591583-1.1336823.503418-1.9140625-.0459137-.6126118.417614-1.3222656 1.2167969-1.3222656.1009521 0 .2071533.0224609.3123169.0407715.0022583.005127.0015869.0107422.0040894.0158691.1065674.2192574-.0481377.5017738-.1738281.8105469-.1210938.2939453-.2573242.5878906-.4692383.6777344-.1904297.0810547-.2792969.3007813-.1992188.4912109.2002296.4750023.0922279 1.0254917-.3935547 1.4228516-.3639793.2790508-.2597389.5737953-.3085938.7626953-.0838623.3259277-.3248291.5874023-.6252441.7119141-.3816949-.2862206-.4155541-.9543706-.1545411-1.3515626zm4.9609413-1.6298828c-.2705078 1.0791016-.6982422 2.1142578-1.2705078 3.0751953-.6567078 1.1008301-.9199677.6327629-2.6879311.2252197.3058395-.2978573.5190315-.6790695.5385132-1.1187744.0065498-.1244297.182209-.221653.0668945-.1298828.5833359-.4808731.8334999-1.2266636.6645508-1.9521484.4191551-.3541603.7988777-1.3576145.8237343-1.7696533.5750046.2481403.9507446.480669 1.4125977.6925049.0004883 0 .0009766.0009766.0019531.0009766.5209656.2361392.6101532.3341369.4501953.9765624z"/><path d="m7.255177 33.1838188c.3860474.2563477.8311763.2885742 1.2927241.2912598 2.1714993 15.3236618 1.9184074 14.5806885 2.1662598 14.7614746.2503023.1782455-.127841.0969887 9.8076172-1.7060547.2140999-.0413704.3449917-.2496109.296875-.4541016l-2.3765259-10.1552734c4.3694363 1.704216 9.0917931 2.3244629 13.7227173 1.8056641.4760742-.0542793.4299545-.7806015-.0839844-.7460938-8.0469437.9044571-13.3768559-1.8965454-13.8382568-1.9122314l-2.4044189-10.274292c-.2357788-.9925537-1.3638306-1.5938721-2.5754395-1.3857422l-.3693848-1.9892578c-.159668-.8583984-.9824219-1.4208984-1.8447266-1.2666016l-.6918945.1289063c-.8569336.1601563-1.425293.9873047-1.2661133 1.8447266l.369873 1.9885254c-1.2062378.2449951-2.0429683 1.213623-1.9089351 2.2282715l.2791748 1.987793c-2.0212739.4819716-1.8936156 4.0056227-.5755614 4.8530272zm7.5881343 2.2075195c.0555553.7493172-.6119022 1.0985756-.8599854.3900146-.0700073-.210083-.0900269-.4300537-.1900024-.6300049-.2501154-.4751892-.9237652-.3202705-.6199951.4899902.0499878.1599121.1199951.3300781.0899658.4899902-.0299683.1699219-.1799927.3300781-.3499756.3000488-.1199951-.0200195-.2000122-.1201172-.2700195-.2199707-1.3824167-1.9222527-1.8457298-2.3718834-1.560791-2.9511719.3390608-.1042786.5543365-.2432671.7733154-.5397949.3616943-.0583496.7044678.1201172 1.0374756.0808105.3200073-.039917.6000366-.3398438.9400024-.3999023.3000488-.0500488.6500244.0200195.8600464.2600098.511385.5540428.0204725 1.276947.039978 1.9199219.0000001.2700197.0899659.5400392.1099854.8100587zm-3.5925293 12.1000977-1.4121704-10.1745605c1.4631348.0981445 6.4559326-.939209 7.7807617-1.619751l2.3794556 10.1673584zm-1.0917969-25.3671875c.7020874 0 1.3972778-.2216797 1.9797974-.6140137.0592518.2370071.2365999 1.2408733.354187 1.8601074l-2.3276367.4316406-.3186035-1.7114258c.1043701.0095216.2073974.0336915.3122558.0336915zm.3354493-1.1044922c.5469332-.0628223.7640543-.2328377 1.1445313-.0834961-.494812.309082-1.0784302.4533691-1.6609497.413208.1209716-.1655273.2994384-.289917.5164184-.3297119zm-2.1997071 5.2226563c-.0820313-.6201172.5224609-1.2490234 1.347168-1.4023438l3.7202148-.6904297c.8198242-.1523438 1.6030273.2138672 1.7460938.8173828l1.4160156 6.0505371c-.7597046.3811035-2.6467285.8319092-4.3756104 1.1166992.5592794-1.6462822-.8536243-3.5845375-1.9505615-3.7062988-.1002674-.0092525-1.7202616-.1586971-1.6170044-.1491699zm-1.0874018 3.5888672c.2735229-.6280899.6342587-.8719845 1.3110347-.8066406l1.6035156.1494141c.1806641.0195313.4233398.1875.7172852.4931641.6962166.7470913.8308563 1.795023.534668 2.3984375-.1813602.4659767-.5426826.5236092-1.0483398.5722656-.4698849.0478745-2.2312164.2024689-2.6596675-.0820313-.2529297-.1621094-.421875-.4824219-.5483398-1.0429688-.1327726-.5451393-.1321227-1.1632767.0898436-1.6816406z"/><path d="m19.750782 20.7638969c.1665134.4668312.8731365.2159462.7070313-.2519531-.6669922-1.8759766-1.7675781-3.6083984-3.1831055-5.0097656-.3521156-.3497686-.8801918.185029-.5273438.5332031 1.3354493 1.3222656 2.3740235 2.9570313 3.003418 4.7285156z"/><path d="m21.8699226 17.7551079-1.8144531-4.0019531c-.2043018-.4508753-.8879833-.1421947-.6826172.3105469l1.8134766 4c.2056713.452795.8879909.1422481.6835937-.3085938z"/><path d="m23.5842781 13.2238579c-.203125-.0234375-.3935547.1171875-.4213867.3222656-.1914063 1.4228516-.206543 2.8691406-.0439453 4.2978516.0552673.4923744.8016014.410244.7451172-.0839844-.1552734-1.3681641-.1411133-2.7519531.0419922-4.1142578.027832-.2050781-.116211-.3935547-.3217774-.421875z"/></g></svg>