<svg id="Layer_1" height="512" viewBox="0 0 512 512" width="512" xmlns="http://www.w3.org/2000/svg"><g><path d="m116.7 288.8c14.9 0 29.5-2.9 43.3-8.6 27.3 21.4 61.2 33.2 96 33.2s68.7-11.7 96-33.2c13.9 5.7 28.4 8.6 43.3 8.6 63.3 0 114.7-51.5 114.7-114.7 0-63.3-51.5-114.7-114.7-114.7-5.9 0-11.8.5-17.7 1.4-29.8-37.5-73.8-58.8-121.6-58.8s-91.8 21.3-121.6 58.7c-5.9-.9-11.8-1.4-17.7-1.4-63.2.1-114.7 51.5-114.7 114.8 0 63.2 51.5 114.7 114.7 114.7zm0-213.1c14.2 0 24.6 3 24.6 3s38.8-60.3 114.7-60.3c78.6 0 114.7 60.3 114.7 60.3s10.4-3 24.6-3c54.2 0 98.3 44.1 98.3 98.3s-44.1 98.3-98.3 98.3c-24.1 0-45.9-11.3-45.9-11.3s-33.6 36-93.4 36c-57.3 0-93.4-35.9-93.4-35.9s-21.2 11.3-45.9 11.3c-54.2 0-98.3-44.1-98.3-98.3s44.1-98.4 98.3-98.4z"/><path d="m59.4 325.7s-32.8 37.3-32.8 53.2c0 18.1 14.7 32.8 32.8 32.8s32.8-14.7 32.8-32.8c-.1-15.9-32.8-53.2-32.8-53.2zm0 69.6c-9 0-16.4-7.3-16.4-16.4 0-5.2 7.7-17.4 16.4-28.3 8.7 10.9 16.4 23.1 16.4 28.3-.1 9-7.4 16.4-16.4 16.4z"/><path d="m190.5 325.7s-32.8 37.3-32.8 53.2c0 18.1 14.7 32.8 32.8 32.8s32.8-14.7 32.8-32.8c-.1-15.9-32.8-53.2-32.8-53.2zm0 69.6c-9 0-16.4-7.3-16.4-16.4 0-5.2 7.7-17.4 16.4-28.3 8.7 10.9 16.4 23.1 16.4 28.3-.1 9-7.4 16.4-16.4 16.4z"/><path d="m321.5 325.7s-32.8 37.3-32.8 53.2c0 18.1 14.7 32.8 32.8 32.8s32.8-14.7 32.8-32.8c0-15.9-32.8-53.2-32.8-53.2zm0 69.6c-9 0-16.4-7.3-16.4-16.4 0-5.2 7.7-17.4 16.4-28.3 8.7 10.9 16.4 23.1 16.4 28.3 0 9-7.3 16.4-16.4 16.4z"/><path d="m419.9 378.9c0 18.1 14.7 32.8 32.8 32.8s32.8-14.7 32.8-32.8c0-15.9-32.8-53.2-32.8-53.2s-32.8 37.3-32.8 53.2zm32.7 16.4c-9 0-16.4-7.3-16.4-16.4 0-5.2 7.7-17.4 16.4-28.3 8.7 10.9 16.4 23.1 16.4 28.3 0 9-7.3 16.4-16.4 16.4z"/><path d="m92.1 477.2c0 18.1 14.7 32.8 32.8 32.8s32.8-14.7 32.8-32.8c0-15.9-32.8-53.2-32.8-53.2s-32.8 37.3-32.8 53.2zm32.8 16.4c-9 0-16.4-7.3-16.4-16.4 0-5.2 7.7-17.4 16.4-28.3 8.7 10.9 16.4 23.1 16.4 28.3 0 9.1-7.4 16.4-16.4 16.4z"/><path d="m223.2 477.2c0 18.1 14.7 32.8 32.8 32.8s32.8-14.7 32.8-32.8c0-15.9-32.8-53.2-32.8-53.2s-32.8 37.3-32.8 53.2zm32.8 16.4c-9 0-16.4-7.3-16.4-16.4 0-5.2 7.7-17.4 16.4-28.3 8.7 10.9 16.4 23.1 16.4 28.3 0 9.1-7.4 16.4-16.4 16.4z"/><path d="m354.3 477.2c0 18.1 14.7 32.8 32.8 32.8s32.8-14.7 32.8-32.8c0-15.9-32.8-53.2-32.8-53.2s-32.8 37.3-32.8 53.2zm32.8 16.4c-9 0-16.4-7.3-16.4-16.4 0-5.2 7.7-17.4 16.4-28.3 8.7 10.9 16.4 23.1 16.4 28.3 0 9.1-7.4 16.4-16.4 16.4z"/><path d="m116.7 108.5v-16.4c-45.2 0-81.9 36.8-81.9 81.9h16.4c0-36.1 29.4-65.5 65.5-65.5z"/></g></svg>