<svg id="Layer_1" enable-background="new 0 0 75 75" viewBox="0 0 75 75" xmlns="http://www.w3.org/2000/svg"><g id="Digging" fill="rgb(0,0,0)"><path d="m25.2793789 66.9965668c.3915977.244751 1.1446705.2880859 1.6054688.2880859 1.2539959 0 3.7845631-.5011749 3.4667969-1.8188477-.2646484-1.1064453-1.9228516-.8393555-2.71875-.7124023-.1006527.0137024-.8605213.1189499-1.0899658.1624756-1.1821976-5.9855461-.9428997-6.010601-1.3273926-6.1488037 1.1245956-.5192833 3.8020306-1.8506737 4.645874-2.6118164.5631905-.5079994.1237011-1.1588058-.0449219-1.6157227l-2.0380859-5.5483398c-.0693359-.2529297-.1416016-.5146484-.3759766-.6113281-.2158203-.0878906-.4306641.0253906-.7216797.1777344-2.7376728 1.2001305-4.2113724 2.107048-7.5175781 2.4941406-3.8415337.4523544-6.9761572-.5579414-6.4365244-.4189453-.6240234-.1582031-1.4003906-.355957-2.0722656.0087891-1.2648211.6908379-.9510031 2.5643005-.9453125 3.6279297.0722656 1.7529297.1474609 3.5654297.2822266 5.3574219.0117188.1572266.1210938.2905273.2734375.3330078 2.8875065.8074417 5.9390554.8021889 8.8242197-.0166016.1494141-.0424805.2568359-.1723633.2705078-.3271484.2535362-2.7912827-.354784-4.0903091-.3710938-4.2880859.2480469-.1386719.8544922-.2124023 1.2119141-.1865234.1150646.0548592.224638.6271362.3154297.8813477.6476078 1.8482666.7966557 2.4940491 1.3134766 2.9296875.8111572.6843262 1.9390869.4187012 2.9212646.0170898-.0948353.2199173-.0570431-.0939484 1.0646973 6.1402588-1.2636548.456352-1.2109719 1.4635389-.5357667 1.8865965zm-2.9667969-8.6171875c-.2314453-.1958008-.3564453-.515625-.4960938-.9145508-.6377907-1.8400383-.5741768-1.5906944-.6708984-1.9589844-.1123047-.4248047-.28125-1.0664063-.8925781-1.112793-.4169922-.0292969-1.1914063.0356445-1.6298828.2802734-.6667576.3723145-.2076054 1.2833862-.1484375 1.6166992.1748047.9921875.2285156 2.0004883.1591797 3.0004883-2.5917969.6889648-5.3164072.6953125-7.9140635.015625-.1376514-1.9095039-.2135572-3.9136848-.2998047-6.0068359-.0302734-.7026367-.0009766-1.6748047.59375-1.9990234.9636641-.5277176 3.0962734 1.0984764 8.2373056.496582 2.7593994-.3241959 4.4188919-1.046524 6.0195313-1.7915039 1.4323139-.6666451 1.5490189-.6760483 1.7890625-.7993164.0360584.1274071-.2451763-.6545105 2.0527344 5.5917969.1196556.3211823.3567295.7017708.2470703.800293-.2848282.2570419-.7086773.4994354-1.1425781.7612305-1.3561115.8465004-2.3705654 1.2704582-2.8261719 1.4951172-.9365234.4521484-2.3505859 1.1362304-3.078125.5249023zm3.2460938 7.8188476c.0185547-.277832.6259766-.4956055 1.8046875-.6479492.4923763-.0670547 2.1446209-.3889542 2.2587891.0908203.0453262.1900253-.3018875.3614273-.4804688.4365234-1.4602299.6175003-3.6139851.5454254-3.5830078.1220703 0-.0004882 0-.0009765 0-.0014648z"/><ellipse cx="22.483" cy="17.786" rx=".989" ry="1.327"/><path d="m16.0397549 19.1131458c.5458984 0 .9886475-.5940552.9886475-1.3269653 0-.7328491-.442749-1.3269653-.9886475-1.3269653-.5461435 0-.9887705.5941162-.9887705 1.3269653 0 .7329102.4426269 1.3269653.9887705 1.3269653z"/><path d="m18.6504726 24.6034412c1.71875-.0429688 3.3144531-1.2070313 3.8808594-2.8305664.1617603-.4700451-.5435448-.7131004-.7089844-.2470703-.4570313 1.3144531-1.7998047 2.2929688-3.1904297 2.3276367-1.3623047.0708008-2.7802744-.8769531-3.3037119-2.1669922-.1870184-.4593658-.8820972-.1775417-.6953125.28125.6193486 1.528328 2.2015315 2.6624489 4.0175791 2.6357422z"/><path d="m14.5459795 67.4701996c.1054688.355957.3916016.6538086.7861328.8164063.8426771.3504639 3.4597406.1579895 4.2099619-.3920898.768549-.5628662.6729774-1.6155319-.2646484-1.9838867-.5930481-.2315521-1.145937-.1245728-1.8529053-.1844482-.1877441-1.5809326-.3833008-3.1687012-.5836182-4.791626l-.7402344.1274414c.1903076 1.536377.3781738 3.0704346.5609131 4.5986328-1.1611938-.0800783-2.454092.6793593-2.1156015 1.8095702zm4.4570322-.8613281c.3786736.1491776.3938484.4611893.0957031.6811523-.5251274.3837509-2.8740692.5557327-3.4794931.3037109-.1787109-.0737305-.3144531-.203125-.3544922-.3369141 0-.0004883 0-.0009766 0-.0014648-.1560183-.5257187.6818228-.8583984 1.1835947-.8583984.2454624 0 .8101368.0862656 1.1777344.0986328.4924354.0144882 1.0064335-.0315094 1.3769531.1132813z"/><path d="m11.0219316 21.8873768c.052743.1048279.7576313 4.0253716 4.6724854 5.6394653 2.8713903 1.1946087 6.6738482.4191399 8.8447275-1.8369751 1.338501-1.3969727 2.0515137-3.3059692 1.9981689-5.2730713 3.3393936-.8565865 3.7406597-5.4328642 1.2723389-7.6068125.7822018-.4855051 1.1475239-1.5692596.9082031-2.331543-.1515827-.4772472-.8635731-.2440262-.7148438.2265625.1847935.5711832-.2754803 1.5678034-1.0195313 1.6079102-.3732891.0209837-.4867783.5133009-.1679688.6987305 2.4313393 1.4143085 2.550108 5.7696352-.3295898 6.6549692-.2327747-1.9911404-1.4126034-3.7094831-2.1967773-4.5016489-.5888672-.5952148-2.3798828-2.4086914-3.7998047-1.5957031-.7499962.4270811-.7176037 1.335886-1.9853516 2.0429688.2871094-.8642578.3847656-1.7998047.2744141-2.7094727-.0524693-.4311533-.6680603-.4345455-.7412109-.0200195-.1367188.777832-.8974609 1.3095703-1.5068359 1.527832-1.6587038.5847235-3.6055927.0341396-4.9736338 1.8120127-.3720703.4829102-.6201172 1.0532227-.7275391 1.6499023-1.5698032-2.1360331-2.6258402-3.0753021-2.2226563-4.255372.1375866-.3871613.5985556-.7299919.9755859-.5810547.2771091.1093283.5715771-.1354065.5029297-.4335938-.9775858-4.1970682 2.8755903-6.4089975 4.8242188-4.4853516.1820526.1779146.4848509.1294203.5996094-.1000977.4423828-.8901362 1.2324228-1.5917964 2.1660166-1.9238276 2.1951122-.7679467 4.2956181.5966949 4.0351563 1.7470703-.0615044.2716451.1884041.5204492.4707031.4428706 2.2487144-.6555719 4.5688229.3263025 5.4355469 1.5595703.2839622.4059963.8987732-.0246553.6132813-.4306641-.9556332-1.3637304-3.3155384-2.4555783-5.7578125-1.9711909-.188673-1.5944686-2.641161-2.8977017-5.046875-2.0551758-.96875.3452148-1.8076181 1.0224609-2.3583994 1.8901367-2.6276312-1.8393426-6.4699497.6946182-5.8115234 4.9824214-.6029081.0626402-1.1497917.5287132-1.3564448 1.1118164-.5415835 1.5851221.657867 2.7408476 2.401855 5.0461435-1.7661858.6032736-1.3788062 3.2547132.7215575 3.4711916zm7.0045176-7.5300303c-.2083187 1.578701-.8049202 1.7844915-.5048828 2.1611338.0917969.1147461.2402344.1679688.3847656.1308594.7958984-.1977539 1.5400391-.6621103 2.0976563-1.3076181.2981777-.3466911.5549831-.9490547.8564453-1.1210938.4208984-.2397461 1.2617188-.1787109 2.8955078 1.4716797 1.0683594 1.0795908 1.8222656 2.7543955 2.0166016 4.4799814.1799564 1.5573235-.4217358 3.5862198-1.7744141 4.9980469-1.9589844 2.0357056-5.4033203 2.7495728-8.0166025 1.6636353-3.172823-1.3082905-5.239892-4.9372959-4.1751709-9.5678711 1.2309208-2.6892596 4.2101621-.988741 6.2200937-2.9087535zm-7.2247324 4.7216196c-.0395508.6939697-.0126953 1.3690796.0839844 2.0227051-1.3679104-.3522663-1.1497221-2.0248871-.0839844-2.0227051z"/><path d="m66.6455917 60.4946136c.171875.1166992.4042969.0732422.5214844-.0981445.1171875-.1708984.0732422-.4042969-.0976563-.5209961-3.1671219-2.1657639-7.6825447-.5956841-8.6718788 3.3051758-1.6132813-.3037109-3.3613281.2685547-4.4619141 1.4912109-1.1914063 1.3217773-1.5458984 3.3198242-.8828125 4.9711914.1836166.4590378.8807373.1830902.6953125-.2792969-.5576172-1.3920898-.2587891-3.0756836.7441406-4.1899414 1.0039063-1.1142578 2.6464844-1.590332 4.0888672-1.1796875.2231789.0604858.4361725-.0853004.4716797-.2963867.2792969-1.6000977 1.4257813-3.0415039 2.921875-3.6723633 1.4990235-.6323242 3.3320351-.4467773 4.6709023.4692383z"/><path d="m34.4142647 34.1821136 7.0786133 16.2668457c-1.4176025.6169434-3.1149902 1.3555908-5.1607666 2.2458496-.1855469.0805664-.2744141.2944336-.1992188.4829102.6552734 1.6411133 1.3876953 3.3666992 2.5078125 4.8378906 1.7694283 2.3273544 4.4032402 3.7049942 6.6912842 3.8371582-.1136475.430542-.1904297.8708496-.2049561 1.3166504-1.6259766-1.0161133-3.8115234-1.0751953-5.4726563-.0795898-1.8945313 1.1367188-2.8974609 3.5214844-2.3847656 5.6704102.1179123.4839859.8448067.3068466.7304688-.1738281-.4326172-1.8095703.4453125-3.8959961 2.0410156-4.8530273 1.59375-.9589844 3.8486328-.7490234 5.2421875.4838867.1142578.1015625.2822266.1230469.4208984.0522461.1376953-.0717773.2167969-.2207031.2001953-.3745117-.2324219-2.0693359.8867188-4.203125 2.7207031-5.1894531 1.8330078-.9858398 4.2285156-.7436523 5.828125.5913086.2436676.2034111.6195335.0284653.6152344-.2939453-.0332031-2.09375 1.3496094-4.184082 3.2890625-4.9707031 1.9394531-.7851563 4.3876953-.2519531 5.8222694 1.2729492.1425781.1508789.3798828.1586914.5302734.0161133.1513672-.1416016.1582031-.3789063.0166016-.5297852-1.6640663-1.7700195-4.401371-2.3676758-6.6503944-1.4545898-2.0283203.8227539-3.4833984 2.7993164-3.7236328 4.9594727-.9798584-.6241455-2.1419678-.9318848-3.302002-.9282227.2809906-.7734451.3617973-2.5855446.2492676-3.7670898-.1484375-1.5800781-.5800781-3.2700195-1.2841797-5.0229492-.2881393-.722641-.7739372-1.5036583-1.4873047-1.1904297v.0004883c-.1236572.0532227-.7940674.3447266-4.5755615 1.9903564l-6.1992188-14.251709c.9528885-.7614937.767971-1.3596725.7982178-1.4598389-.0683594-.7592773-1.015625-1.4555664-1.6416016-1.6025391-.1152344-.0253906-.2333984-.0390625-.3476563-.0390625h-.0009766c-.0509033.0008545-.0993652.0114746-.1489258.0179443l-1.0841064-2.4830303-.149292.0649414.9310303-4.7820435c.9616966-1.0180683-.0454025-2.904295-1.4608154-2.5209961-.4746971.1291447-.2879944.8507252.1972656.7236328.3056641-.0839844.6230469.0727539.7558594.3701172l.0878906.1953125c.144989.3326797-.0006905.7230854-.34375.8730469-6.6409359 2.8182564-6.3537064 2.9264317-6.7988262 2.753479-.1650391-.0644531-.2958984-.1904297-.3691406-.3603516-.0330486-.1088142-.2333717-.3512802-.0976563-.6987915.1799545-.4662457.2992973-.2722511 5.2304668-2.4824219.4499168-.1959686.1645737-.8825417-.2988281-.6884766l-4.8769512 2.1147461c-.3476563.1508789-.6152344.4291992-.7539063.7832031-.2640572.6760597.0841026 1.174551.1113281 1.2754517.1513672.3491211.4287109.6176758.78125.7553711.0593262.0231934.1219482.0198975.1829834.034668.0865536.0684376 3.4632683 2.158783 4.4648418 2.7825928l1.1484375 2.6392803c-2.0663109-.1954956-3.636858-.5031738-5.3441143-.7470703l-4.8632813-.6948223c-.2001953-.0361328-.3955078.1127911-.4238281.3178692-.0292969.2050781.1132813.3950195.3183594.4243164l4.8632813.6948242c1.7636893.2521667 3.7377379.6325569 5.7930892.7939452zm14.4168701 13.8901368c.0078125.0014648.1923828.0444336.4892578.7851563.9092751 2.2685814 1.5196457 4.864769 1.203125 7.2675781-.0829964.7923012-.1186638.9547157-.1894531 1.081543-.0780907.0713806-.6627274.1599846-.8476563.2177734-1.6164131.5080681-3.4688492 1.697361-3.8623047 3.328125-.0283203.1162109-.0810547.3330078-.0683594.3500977-.1181641.0419922-.5576172-.0429688-.7216797-.0742188-.0999985-.0405464-3.1569519-.2534943-5.5966797-3.4667969-.9873047-1.2978516-1.6699219-2.8344727-2.2724609-4.324707.8357163-.3634797-.3177223.1389961 11.866211-5.1645508zm-11.0263672-14.3413086c.0302467.4521523-.5309868.8143806-.7138672.9643555-.2480469.1772461-.4746094.3178711-.6337891.2807617-.345829-.0833473-.6038818-1.0889702-.5849609-1.4501953.0303307-.4439392.3941231-.8388939.8701172-.7299805.4121094.0961914 1.0283203.5952148 1.0625.9350586zm-4.2030029-3.4194317c-.1506233-.1250477-2.8218842-1.7667217-4.0065899-2.5073242l5.6533184-2.4595947c-.942688 4.9029465-.8942261 4.4748859-.8823242 4.6343994z"/><path d="m13.8351641 41.5999603c-1.3786621-1.1660156-2.5830078-2.5025635-3.5866699-3.989624-.3370943 2.1732788-.8092985 5.5735092-.4499512 7.5800781.25 1.3498535.8699951 2.6699219 1.9399414 3.5200195 1.7600098 1.369873 4.2399902 1.1899414 6.4300547.789917 2.1400146-.4000244 4.2600098-.960083 6.3299561-1.6700439 3.2784195-1.1424904 3.5961819-2.63694 2.4100342-5.6899414-1.5-3.8000488-3-7.6000977-4.5-11.3900127-1.5865974-4.1044445-2.9568062.3432655-8.0299082-2.210083-1.6000977-.789917-1.9801025-.5100098-2.460083 1.2399902-.5742188 2.0898438-1.0423584 4.2170391-1.4217529 6.36096-.4290771-1.5268555-.4748535-3.1705322-.0748291-4.716917.1239309-.4805241-.6005964-.6657028-.7265625-.1875-.4990234 1.9335918-.3925781 4.0200176.3017578 5.8749981.1510611.4023972.7636442.2768288.7178955-.1697998 1.0335693 1.5887451 2.3034668 3.0100098 3.770752 4.2276611-.2840578.0604248-.5537111.1704101-.6506349.4302978zm3.6092539.1343994c.7948399.0514107 1.7378025.2278442 2.0166016.9760742.3608875.8972092-.6245728 1.9628563-2.0019531 1.6264648-.8643284-.2164917-1.4956675-.8738747-2.024415-1.5908203-.5043697-.6808968-.4941072-.613884-.75-.8505859.3721913-.0710525 1.826413-.2038917 2.7597665-.1611328zm-.7159424-11.1640606c.1501465-.1499023.3901367-.1499023.5300293 0l.8200684.8200684c.3533268.3533268-.1825562.8768978-.5300293.5300293l-.8200684-.8200684c-.1398926-.1499023-.1398926-.3800048 0-.5300293z"/><path d="m45.3594551 60.0419769c.496582.0689697.5900497-.6759758.1035156-.7431641-1.4501953-.2006836-2.8466797-.8540039-3.9326172-1.8393555-1.0507813-.9550781-1.8759766-2.253418-2.2509766-3.5253906l8.9160156-3.9121094c.455864-.1997337.1521721-.8858681-.3007813-.6865234l-9.2109375 4.0410156c-.1660156.0727539-.2568359.2539063-.2148438.4301758.734009 3.0693055 3.4432566 5.7570191 6.8906252 6.2353516z"/><path d="m17.2842617 8.3778543c-.471117.1404076-.2691689.8559608.2128906.7197266 1.1386719-.3374023 2.4824219.0581055 3.2578125.9638672.3182449.3705893.894825-.109683.5703125-.4882813-.961914-1.1225585-2.6210937-1.6118159-4.0410156-1.1953125z"/><path d="m37.3692207 17.8417225c.5986328-1.0336914.7744141-2.2910166.4824219-3.4501963-.1199493-.4833241-.8480568-.2975187-.7265625.1826172.2441406.9716797.0966797 2.0258799-.4042969 2.8920908-.2482414.4268837.4032631.8019543.6484375.3754883z"/><path d="m39.3867989 17.9305897 1.4501953-1.3583984c.3604774-.3372211-.1464577-.8871918-.5117188-.5478516l-1.4501953 1.3583984c-.3618126.3384724.1485405.8864918.5117188.5478516z"/><path d="m39.069416 20.5531483c1.3825073-.4753437 2.4342232.0800781 2.6035156.0800781.4115524 0 .5216026-.573473.1367188-.7241211-.9394531-.3691406-2.0273438-.3920898-2.9824219-.065918-.4668197.1602516-.2314949.867466.2421875.709961z"/></g></svg>