<svg id="Layer_1" height="512" viewBox="0 0 512 512" width="512" xmlns="http://www.w3.org/2000/svg"><g><path d="m414 138.8s-33.2 41.6-58.4 81.5c-38.8-70.7-99.6-147-99.6-147s-60.8 76.3-99.6 147c-25.2-39.9-58.4-81.5-58.4-81.5s-96 120.4-96 171.1c0 52.9 43 96 95.9 96 19.8 0 39-6.1 55.1-17.4 24 30.5 61.2 50.2 102.9 50.2s78.9-19.7 102.9-50.2c16 11.3 35.3 17.4 55.1 17.4 52.9 0 96-43.1 96-96 .1-50.7-95.9-171.1-95.9-171.1zm-316.1 250.8c-43.9 0-79.6-35.7-79.6-79.6 0-34.4 52.5-109.6 79.5-144.7 10.3 13.5 31.3 41.7 49.2 71.1-14.9 30.1-22.2 53.4-22.2 71.3 0 24 6.4 47.1 18.7 67.5-13.2 9.3-29.2 14.4-45.6 14.4zm158.1 32.7c-63.3 0-114.7-51.5-114.7-114.7 0-55.6 89.7-175.6 114.7-207.9 25 32.4 114.7 152.4 114.7 207.9 0 63.3-51.4 114.7-114.7 114.7zm158-32.7c-16.4 0-32.3-5.1-45.6-14.4 12.3-20.4 18.7-43.6 18.7-67.5 0-17.8-7.3-41.2-22.2-71.3 17.8-29.4 38.8-57.7 49.1-71.1 27 35.1 79.6 110.3 79.6 144.7 0 43.8-35.7 79.6-79.6 79.6z"/><path d="m182.3 307.6h-16.4c0 49.7 40.4 90.1 90.1 90.1v-16.4c-40.7.1-73.7-33-73.7-73.7z"/></g></svg>