<svg id="Layer_1" height="512" viewBox="0 0 512 512" width="512" xmlns="http://www.w3.org/2000/svg"><g><path d="m452 145.1c.5-4 .7-7.9.7-11.7 0-58.7-47.8-106.5-106.5-106.5-9.4 0-18.7 1.3-27.9 3.8-15.7-18.3-38.1-28.7-62.3-28.7-36.5 0-67.9 23.6-78.4 57.6-11.2-5.6-23.6-8.5-36.3-8.5-45.3.1-82.2 36.9-82.2 82.3 0 3.9.3 7.8.9 11.8-34 10.4-58 42.1-58 78.4 0 41.9 31.8 76.9 73 81.4 15.5 21.1 40 33.6 66.3 33.6 26.1 0 50.4-12.3 65.9-33.1h220.9c45.2 0 81.9-36.8 81.9-81.9 0-36.3-24-68.1-58-78.5zm-23.9 144h-229.6s-18.3 33.1-57.2 33.1-57.2-33-57.2-33l-4.1-.2c-34.6-2.1-61.6-30.8-61.6-65.3 0-59.2 61.2-65.9 61.2-65.9s-4.1-10.9-4.1-24.2c0-36.3 29.5-65.8 65.8-65.8 28.1 0 47.8 18.8 47.8 18.8l2.1-12.7c5.2-32 32.5-55.2 64.9-55.2 37.4 0 56.3 31.3 56.3 31.3s13.6-6.4 33.9-6.4c49.7 0 90.1 40.4 90.1 90.1 0 16.6-3 24.3-3 24.3s60.4 8.7 60.4 65.8c-.2 35.8-29.6 65.3-65.7 65.3z"/><path d="m346.1 59.9v16.4c31.3 0 56.8 25.5 56.8 56.8h16.4c0-40.4-32.8-73.2-73.2-73.2z"/><path d="m387.1 403.5c0 18.1 14.7 32.8 32.8 32.8s32.8-14.7 32.8-32.8c0-15.9-32.8-53.2-32.8-53.2s-32.8 37.3-32.8 53.2zm32.8 16.4c-9 0-16.4-7.3-16.4-16.4 0-5.2 7.7-17.4 16.4-28.3 8.7 10.9 16.4 23.1 16.4 28.3 0 9-7.4 16.4-16.4 16.4z"/><path d="m247.8 403.5c0 18.1 14.7 32.8 32.8 32.8s32.8-14.7 32.8-32.8c0-15.9-32.8-53.2-32.8-53.2s-32.8 37.3-32.8 53.2zm32.8 16.4c-9 0-16.4-7.3-16.4-16.4 0-5.2 7.7-17.4 16.4-28.3 8.7 10.9 16.4 23.1 16.4 28.3 0 9-7.4 16.4-16.4 16.4z"/><path d="m108.5 403.5c0 18.1 14.7 32.8 32.8 32.8s32.8-14.7 32.8-32.8c0-15.9-32.8-53.2-32.8-53.2s-32.8 37.3-32.8 53.2zm32.8 16.4c-9 0-16.4-7.3-16.4-16.4 0-5.2 7.7-17.4 16.4-28.3 8.7 10.9 16.4 23.1 16.4 28.3 0 9-7.4 16.4-16.4 16.4z"/><path d="m317.5 477.2c0 18.1 14.7 32.8 32.8 32.8s32.8-14.7 32.8-32.8c0-15.9-32.8-53.2-32.8-53.2s-32.8 37.3-32.8 53.2zm32.7 16.4c-9 0-16.4-7.3-16.4-16.4 0-5.2 7.7-17.4 16.4-28.3 8.7 10.9 16.4 23.1 16.4 28.3 0 9.1-7.3 16.4-16.4 16.4z"/><path d="m178.2 477.2c0 18.1 14.7 32.8 32.8 32.8s32.8-14.7 32.8-32.8c0-15.9-32.8-53.2-32.8-53.2s-32.8 37.3-32.8 53.2zm32.7 16.4c-9 0-16.4-7.3-16.4-16.4 0-5.2 7.7-17.4 16.4-28.3 8.7 10.9 16.4 23.1 16.4 28.3 0 9.1-7.3 16.4-16.4 16.4z"/></g></svg>