<svg id="Layer_1" enable-background="new 0 0 75 75" viewBox="0 0 75 75" xmlns="http://www.w3.org/2000/svg"><g id="Drinking_Milk" fill="rgb(0,0,0)"><path d="m51.4849472 35.5202026c-.6754875-.4702225-1.6039085-1.0785217-2.4795532-1.8546143 1.391571-1.5857315 1.0307159-2.7512665-.4525757-3.4710712-.8418541-.40979-1.5717812-.507864-2.3615112.0153809-.9459229-.7886963-2.1983032-1.163269-3.4165649-1.0567627-.4030151-.3820801-.8093872-.7623901-1.2225952-1.1391602-.1744385-.1589355-.456665-.1588135-.6292114.0005493-.0918579.0848999-.1751709.1743164-.2664795.2595215-.4133224-1.0793037-1.5139427-1.6367188-2.5606689-1.4364624-.6724472.1273575-1.0222549.4565296-1.6538086.5535278.8304787-1.7077732 1.0146713-3.2996864.7579956-5.15625 2.1932983-.9553814 1.9497719-3.5833454.2659302-4.0745239-.499939-.1462402-1.041626-.0368042-1.4430542.258728.0217285-.5258789.0038452-1.0567017-.1004028-1.5698242-.8756599-3.6868753-4.926321-5.7925205-8.5-5.5499868.6060448-.9324007 1.516634-.9777756 1.5299683-2.0700073.0100098-.8099976-.6499634-1.5700073-1.4500122-1.6799927-.7999878-.1000366-1.6300049.4500122-1.8399658 1.2299805.0499878-.8699951-.0599976-1.7999878-.5700073-2.5100098-.5-.7199707-1.460022-1.1599731-2.289978-.8599854-.8200073.2999878-1.25 1.4699707-.6700439 2.1300049-1.3599854-1.4500122-3.6900024-1.7200317-5.5100098-.9400024-1.039979.4400024-1.9799814 1.2299805-2.3899546 2.289978-.4000244 1.0599976-.1600342 2.3900146.7299805 3.0900269.6500244.5100098 1.6400156.539978 2.330018.1199951-.3699951.4299927-.6799927.9099731-.8099976 1.4500122-.210022.8299561.0499878 1.8200073.7799683 2.25.5900269.3499746 1.4700317.1499634 1.8300171-.4000244-.039978.2000122-.039978.4000244.0100098.5900269-1.3500366 1.9299917-2.2200317 4.499999-1.1000366 6.5899649.3656616.6994629.8393555 1.3450317 1.4624023 1.7903442-1.7633038.3968773-2.1306667 2.5228729-.8724365 3.5480957.3637695.2958984.8261719.4462891 1.2885742.4462891.3591309 0 .7128906-.1027222 1.0252075-.2862549.2677002.4451904.5630493.8737183.9020386 1.2667236.3164101.3663712.8958664-.10952.5683594-.4902344-1.8324108-2.1237946-2.7080402-5.2949162-1.5755005-8.3716431.2624512-.22052.536438-.4317627.8114014-.6433105 1.1002693-.84445 3.0264702-.8613968 3.0899658-.6799927-.2099609-.6500244-.7000122-1.2199707-1.3200073-1.5300293 2.2600098-.9099731 5.0400391-.3899536 6.8099976 1.2900391.0400391-1.25-.6699829-2.5-1.7599487-3.1000357.1238956.0709209 2.4952393-.3767967 5.6081543 1.2340689 2.1979218 2.3223724 3.436924 6.6960545 1.6673584 10.135376-.3839302-.3702164-.4818001-.7579613-.9373779-1.1535034.2348633.0179443.4667358.0628052.6850586.1505737.4592171.1862659.7411499-.5093231.2802734-.6953125-1.0488281-.4238281-2.3339844-.2167969-3.1967773.5136719-.8632813.7299805-1.2802734 1.9624023-1.0375977 3.0668945.1066551.4846745.8389015.3232918.7324219-.1611328-.0563354-.2564087-.0515747-.5195313-.019043-.7803955.0568237.1068726.0997925.2211304.1816406.3131104.4212036.4737434 1.2254105.701973 1.4487305 1.1103516.0105591.0192871.0068359.0494385.0155029.0701904-3.1672974 2.9329166-8.1791382 2.4597797-10.8485107-.1043701-.3580513-.3452206-.8775082.1982479-.5195313.5410156 2.7328472 2.62253 7.7593288 3.3030338 11.2862549.6067505-.2002907.5744209-.2888908.7624702-.3212891 1.2194824-2.0841312.4500561-4.0239182 1.0912685-5.8922119 1.1283588-1.6211185.0279007-2.501749-.3624191-3.2265625 1.6396484-1.5128155 4.2579193-2.9077644 8.6120491-4.331543 12.84375-.4204102 1.2280273-.765625 2.4262695-.3706055 3.581543.4775391 1.4130859 1.9042969 2.3710938 4.2397461 2.847168 2.6171894.5389252 5.3936844.6669388 8.2675781.2841797 1.3911133-.1943359 3.1113281-.5869141 4.0795898-1.9082031.909668-1.2285156.8598633-2.8964844.8237305-4.1132813-.0317383-1.1669922-.0704956-2.3323975-.1039429-3.49823 1.1654129.1031227 1.7292252.0818062 2.2907715.0601196.0003662.0006714.0003052.0014038.0006714.0020752.686985 1.2996826 2.9484634 1.5840416 4.3145752.4042969 1.9726219 2.2641983 4.2370987 3.057354 6.5604248 1.0537109.6073875-.5327187.9458847-.9810753 2.109375-2.0385742 1.0499535-.9564476 2.3961792-2.1863441 2.5561523-3.5942383.1070747-1.0280609-.1679726-2.0412025-.8867188-2.953125-1.2591135-1.1517105-.7470286-1.0011749-2.4038088-2.1049805zm-28.1125488-21.8509531c1.1500244-.7600098 2.6300049-1 3.960022-.6400146.2000122.0499878.3200073.2600098.2700195.460022-.0599976.2000122-.2600098.3200073-.460022.2600098-1.1300049-.3000488-2.3800049-.1000366-3.3499756.5499878-.0700073.039978-.1400146.0599976-.210022.0599976-.1199951 0-.2399902-.0599976-.3099976-.1699829-.119995-.1700441-.0700072-.4000245.0999757-.5200197zm-4.3063965 13.6663809c-.8252468-.6717796-.5285015-2.1060162.6642456-2.2527466.166748.8101807.4473877 1.5980835.8186646 2.3424072-.4476319.2747193-1.0761719.2418214-1.4829102-.0896606zm17.2515869-8.1708984c.449173-.5787144 1.4470711-.3549423 1.6781006.5058594.1626625.6071644-.0907249 1.3236237-.9335938 1.779541-.1629028-.7727051-.4099731-1.5445557-.7445068-2.2854004zm11.4407959 11.5136719s0 .0004883.0004883.0004883c.3566704.1098289.9891052.4052639 1.2290039.769043.5109711.774313-.5548973 1.7197971-.9428711 2.158205-.6940231.7400169-.9743652.7072868-1.574707-.0615234-.2763672-.3540039-.6196289-.7944336-.6572266-1.2480469-.0661125-.809147.7944717-1.9737397 1.9453125-1.618166zm-14.8017578-2.7348633c-.2944336-.3300781-.2802734-.9189453.0634766-1.2709961.2958984-.328125.8828125-.3779297 1.2304688-.1054688.4728584.3729591.626358 1.165205 1.4029541 1.4879761.0026855.001709.0039673.0045166.0067139.0061646.0504761.0301514.1051025.0436401.1602173.0482178 1.4031677.3862572 2.2941704-1.2044544 3.5956421-.274292.5569992.3978596.5921402.9334831.6293335 1.0338745-1.6025391 1.5251465-3.1276855 3.0898438-4.5690918 4.6929951-1.2146454-.2124863-1.316227-1.4730415-1.2687378-1.3728638 0-.0153198-.006958-.0283203-.008728-.0431519-.0535889-.7882957.5696411-1.4076366.4664307-2.3882465-.0267563-.1480751-.0363388-.3344898-.1618042-.5646973-.3767855-.6864052-1.1720125-.8284149-1.5468752-1.2495117zm-5.3769531 5.8208027c1.9025059-.037468 3.7677631-.6397514 5.9441528-1.1270142.1872177.7047729.6592636 1.2553024 1.3850708 1.5379028-.0328369.0372314-.0692139.072876-.1019287.1101685-.1497192.1705933-.1288452.4263306.0441284.5720825.3681641.3109131.7295532.6257324 1.0897217.9412231-.0133667.1460075.1049576 3.8476143.2272339 8.0571899-1.7385864-.2379761-3.4343872-.7365112-5.0288086-1.4589233-.1088257-.3096313-.395874-.534668-.7426758-.534668-.0878296 0-.1685791.0236816-.2475586.0499878-2.2550659-1.1896362-4.2626953-2.8487549-5.8339233-4.890564 1.3185176-3.822647.8823757-3.2339171 3.2645874-3.2573851zm4.4628906 19.703125c-2.6884766.3579102-5.3842773.2651367-8.015625-.2758789-2.0556641-.4189453-3.2939453-1.2104492-3.6796875-2.3540039-.4083424-1.1913147.0508175-2.1082687 1.7294922-7.1806641.6323853-1.9084473 1.2855225-3.8551025 1.9494019-5.7979126 1.5493164 1.9042358 3.4689331 3.4694214 5.6100464 4.6260376-.0130615.057251-.0348511.1113281-.0348511.1725464 0 .439209.3560181.7952881.7952271.7952881.2471924 0 .4592896-.1195068.6051025-.2963867 1.6482544.7276611 3.3978271 1.2224121 5.1888428 1.4554443.1552352 5.4086952 1.0514983 8.1282196-4.1479493 8.8555298zm4.878479-9.5318604c-.0482178-1.6634521-.0966187-3.3279419-.1482544-4.9918213 1.0110016 1.4600868 2.2658424 1.6432648 3.6040039 2.6143188-.9718781.6604767-1.3813248 1.6641312-1.3317871 2.4455566-.7107544.0205079-1.4196167-.0021361-2.1239624-.0680541zm4.7533569 1.210083c-2.9471436.1524963-2.0602531-3.0577316.097168-3.3579102 1.5577126-.2150726 2.3749733 1.211586 1.6767578 2.3666992-.3466797.572754-1.0263672.9526368-1.7739258.991211zm12.0507813-6.3935547c.9898453 2.0498695-.3499489 3.35392-2.0107422 4.8657227-1.5707932 1.4308815-2.4614601 2.6859741-3.6904297 2.9228516-1.6297112.3007431-2.9010048-.695118-3.9749146-1.947998 1.236866-1.9362488-.549057-4.231884-2.9428711-3.4117432-1.7762833-1.4617844-3.9812698-1.5408554-4.3969727-4.3752441-.0077515-.243103-.013855-.4857178-.0216675-.7288818-.0004272-.0124512-.0119629-.0188599-.0134277-.0308838.3036613-.1922607 2.0182648-2.402298 6.1586304-6.1420307.9931641-.0844727 2.0249634.2076416 2.8030396.8187866-.3982544.4845581-.6160278 1.0788574-.5698242 1.6353779.0551758.6767578.4931641 1.237793.8129883 1.6479492.8305206 1.0627594 1.6425552 1.2275696 2.6175537.2102661 1.4175758 1.2597427 2.79216 2.0021782 3.5899658 2.6569214 1.0188942 1.1025122 1.1935349 1.0278586 1.6386719 1.8789061z"/><path d="m22.9195175 55.1598511-.7289429 11.5872192c-.0174561.0168457-.0411377.0269775-.0547485.0470581-.9675121.5390396-.9247856 2.046524.8427734 2.6035156.8535919.2680359 2.6075153.4968643 2.9775391-.324707.4854565-1.0905609-1.6686058-2.1671829-2.8637695-2.3754883-.1000023-.0487823-.0622177-.0150681-.145752-.0314331l.7209473-11.4592896c.0310268-.4860954-.7166824-.557167-.7480469-.0468749zm2.3515625 13.6069336c-.0097656.0219727-.090332.0834961-.3408203.1054688-.5756836.050293-1.1743164-.0170898-1.7265625-.1904297-1.1256275-.3521881-1.1378326-1.0808411-.6134033-1.2646484.0316162-.0037842.0635986-.0066528.0924072-.0178833 1.5029106.159561 2.6727028 1.1798018 2.5883789 1.3674926z"/><path d="m32.5786972 69.6862183c2.6181335 0 3.0663948-1.5516663 1.6972656-2.2128906-.578186-.2781982-1.6644897-.7096558-2.6548462-.6774902l-1.0341186-11.8547364c-.0432072-.4927902-.7903576-.4294434-.7470703.0654297l1.0459595 11.9902954c-1.1276627.7198868-1.0134125 2.6893921 1.69281 2.6893921zm1.3710938-1.5371094h.0004883c1.3660698.6574402-2.2746449 1.1876907-2.8764648.3447266-.1787758-.2496796-.1061211-.6428757.1935425-.8547974.006897.0003662.0113525.0071411.0183716.0071411.1009502 0 .1867676-.0409317.2575684-.1095581.7700842-.0607758 1.7122839.2776565 2.406494.6124878z"/><path d="m32.3384628 21.9122906c.5996094-.3461914 1.0732422-.8896484 1.3344727-1.5307617.1869774-.4592628-.5071754-.744091-.6943359-.2832031-.4101944 1.0068359-1.4531231 1.6102734-2.53125 1.4614258-.4883022-.068079-.595974.6750507-.1015625.7431641.1401367.0190428 1.4122009-.0555288 1.9926757-.3906251z"/><path d="m27.7266464 23.083189c.3035164-.3910694-.2864685-.8519382-.5927734-.4599609-.8154297 1.0517578-2.2475586 1.621582-3.5629883 1.4150391-.492672-.0720692-.6037407.6642628-.1152344.7412109 1.6109524.2502804 3.2822514-.423111 4.2709961-1.6962891z"/><path d="m36.0596542 29.4542828c.3310547-.1030273.7148438-.0229492.9785156.2021484.3760376.3238106.8646278-.2480831.4873047-.5693359-.4545898-.3896484-1.1162109-.5273438-1.6884766-.3486328-.4747733.1465358-.2491874.8657417.2226563.7158203z"/><path d="m30.4834213 36.3981323c.439209 0 .7952881-.3560181.7952881-.7952271 0-.43927-.3560791-.7952881-.7952881-.7952881s-.7952271.3560181-.7952271.7952881c.0000001.4392091.3560181.7952271.7952271.7952271z"/><path d="m30.3965683 40.1281738c.43927 0 .7952881-.3560791.7952881-.7952881s-.3560181-.7952881-.7952881-.7952881c-.439209 0-.7952271.3560791-.7952271.7952881s.3560181.7952881.7952271.7952881z"/><path d="m53.9317245 29.6012554c-.1982422.0600586-.3105469.269043-.2504883.4672852.4643555 1.5366211.6225586 3.1923847.456543 4.7890644-.0515938.4948235.6949348.5700035.7460938.0771484.1757813-1.6943359.0083008-3.4521503-.4848633-5.0830097-.0595703-.1982422-.2675781-.3144531-.4672852-.2504883z"/><path d="m57.6636581 34.8805542 1.9477539-.6420898c.1967773-.0644531.3037109-.2763672.2387695-.4731445-.0644531-.1962891-.2749023-.3056641-.4731445-.2387695l-1.9477539.6420898c-.4699058.1539115-.2359695.870655.234375.711914z"/><path d="m57.8911972 38.104187c.8955078.2021484 1.7402344.6201172 2.4433594 1.2094727.379734.3186569.8618546-.2556496.4814453-.5751953-.7939453-.6655273-1.7480469-1.1376953-2.7597656-1.3657227-.480217-.1131287-.6519966.6220551-.1650391.7314453z"/><path d="m46.4510117 38.1483154.6200562-1.3380737c.0909424-.196167-.0825806-.411499-.2936401-.3643188l-1.439209.3217773c-.2340813.0523376-.2514648-.1290169-1.3153687-1.0665894-.1585083-.1470947-.4168701-.048584-.4371948.166687l-.1387329 1.4682007c-.0226707.2387886-.2004395.199295-1.4208984.9213867-.1888428.1052856-.1749878.3814697.0234375.4673462l1.3534546.5856323c.2201385.0952454.1276436.252182.4372559 1.6360474.041748.2121582.3086548.2843628.4516602.1221313l.9752808-1.1062622c.1586113-.1799316.279232-.0434074 1.69104.0897827.2147217.0258179.3658447-.2057495.2557373-.3918457-.6893465-1.2372398-.8636782-1.2941016-.7628786-1.5119018z"/></g></svg>