<svg id="Layer_1" height="512" viewBox="0 0 512 512" width="512" xmlns="http://www.w3.org/2000/svg"><g><path d="m312.8 367.4-11.6-11.6-23.1 23.1h-13.9v-13.9l23.1-23.1-11.6-11.6-11.5 11.5v-12.1h-16.4v12.1l-11.5-11.5-11.6 11.6 23.1 23.1v13.9h-13.9l-23.1-23.1-11.6 11.6 11.5 11.5h-12.1v16.4h12.1l-11.5 11.5 11.6 11.6 23.1-23.1h13.9v13.9l-23.1 23.1 11.6 11.6 11.5-11.5v12.1h16.4v-12.1l11.5 11.5 11.6-11.6-23.1-23.1v-13.9h13.9l23.1 23.1 11.6-11.6-11.5-11.5h12.1v-16.4h-12.1z"/><path d="m148.9 432.9-11.6-11.5-23.1 23.1h-13.9v-14l23.1-23-11.6-11.6-11.5 11.5v-12.1h-16.4v12.1l-11.5-11.5-11.6 11.6 23.1 23v14h-13.9l-23.1-23.1-11.5 11.5 11.5 11.6h-12.1v16.3h12.1l-11.5 11.5 11.5 11.6 23.1-23.1h13.9v13.9l-23.1 23.1 11.6 11.6 11.5-11.5v12.1h16.4v-12.1l11.5 11.5 11.6-11.6-23.1-23.1v-13.9h13.9l23.1 23.1 11.6-11.6-11.5-11.5h12.1v-16.3h-12.1z"/><path d="m476.6 432.9-11.5-11.5-23.1 23.1h-13.9v-14l23.1-23-11.6-11.6-11.5 11.5v-12.1h-16.4v12.1l-11.5-11.5-11.6 11.6 23.1 23v14h-13.9l-23.1-23.1-11.6 11.5 11.5 11.6h-12.1v16.3h12.1l-11.5 11.5 11.6 11.6 23.1-23.1h13.9v13.9l-23.1 23.1 11.6 11.6 11.5-11.5v12.1h16.4v-12.1l11.5 11.5 11.6-11.6-23.1-23.1v-13.9h13.9l23.1 23.1 11.5-11.6-11.5-11.5h12.1v-16.3h-12.1z"/><path d="m321.5 43v16.4c49.7 0 90.1 40.4 90.1 90.1h16.4c.1-58.8-47.7-106.5-106.5-106.5z"/><path d="m468.1 165c.6-5.6.9-10.6.9-15.5 0-81.3-66.1-147.5-147.5-147.5-47.5 0-91.7 22.7-119.5 61.1-9.2-2.5-18.6-3.8-28-3.8-56.1 0-102.2 43.6-106.2 98.7-37 4-65.8 35.3-65.8 73.3 0 40.7 33.1 73.7 73.7 73.7h360.5c40.7 0 73.7-33.1 73.7-73.7.1-28.2-16.5-54.2-41.8-66.3zm-31.8 123.8h-360.6c-31.6 0-57.4-25.7-57.4-57.4 0-59.7 65.5-57.4 65.5-57.4v-8.2c0-49.7 40.4-90.1 90.1-90.1 16.1 0 34.7 6.8 34.7 6.8s35-64.1 112.8-64.1c72.3 0 131.1 58.8 131.1 131.1 0 12.9-2.6 25.9-2.6 25.9s43.5 12.8 43.5 56c.2 31.6-25.5 57.4-57.1 57.4z"/></g></svg>