<svg id="Layer_1" enable-background="new 0 0 75 75" viewBox="0 0 75 75" xmlns="http://www.w3.org/2000/svg"><g id="Dripping_Paintbrush" fill="rgb(0,0,0)"><path d="m39.4769478 13.9251976c-.4716797-1.84375-1.9658203-3.3447266-3.7705078-3.8720703.7124252-.8975735.6367455-2.3381677-.0136719-3.109375-.0009766 0-.0009766 0-.0009766 0-.7262421-.8508959-1.4285851-1.3656473-2.8496094-1.6357422-1.9980469-.3710938-4.1210938.1025391-5.7832031 1.2675781-.8902206-1.7623134-4.354744-2.1141758-6.7138672.0332031-.9560547.8789063-1.5888672 2.0878906-1.7763672 3.3710938-3.8533478-.9289856-7.1425724 3.8730621-4.1962881 8.4960938-.6533718.3066845-1.1065054 1.0951214-1.0576172 1.8974609.1075783 1.5100784 1.7481203 2.89674 3.0654287 3.6386719 1.1349144.6367397 1.5137596.6067905 1.8515625.7490234.0117188.0087891.0279541.0061035.0405273.0131836 1.9356651 3.891798 4.7513752 6.0317383 9.0463867 6.0317383 4.6618042 0 8.4594421-3.1098881 9.78125-6.9833984.4788818-1.4038086.62146-2.890625.440918-4.3205566 1.6488038-1.2893067 2.4472658-3.5451661 1.9360353-5.5769044zm-21.6904297 9.9199219c-.1239338-.0387306-.6791267-.2849808-1.0390625-.4873047-1.0629129-.5983067-2.5962439-1.8224907-2.6845694-3.0332031-.0344648-.5662098.3682146-1.2300034.9296875-1.2441406.3003292-.008461.4718094-.3508606.2929688-.5957031-3.22855-4.4244499.1970968-8.9498806 3.4707022-7.6611328.2396851.0954494.4974384-.0752344.5117188-.3261719.0761719-1.2646484.6533203-2.4804688 1.5839844-3.3349609 2.1358662-1.948195 5.3667965-1.4849916 5.6513672.0908203.049736.2776918.3779926.4039559.6064453.2246094 2.293951-1.8734417 5.4846802-1.8905034 7.125-.8681641.3963127.2472911.8796234.7774596.9707031.9414063.4607162.7818203.2952881 1.9827213-.5 2.3730469-.334156.1638021-.2498627.662981.1181641.7089844 1.8476563.2324219 3.4628906 1.6621094 3.9267578 3.4765625.4160156 1.6523438-.1699219 3.4853516-1.4355469 4.6201172-.7646484-1.6630859-2.1015625-3.0683594-3.7265625-3.9013672-1.1083984-.5742188-4.5322266-1.859375-5.7089844-.3125-.6514587.8547659-.1374397 2.0166016-1.4384766 3.5058594-.0595703-1.2001953-.4082031-2.3984375-1.0117188-3.4482422-.2170906-.3708639-.7873211-.1443977-.6904297.2724609.2333984.9980469-.3720703 1.9892578-1.0136719 2.5839844-1.5490437 1.4146519-3.9841557 1.8252048-5.3496094 3.7421875-.4936523.6943359-.6975098 1.512207-.6343994 2.263916-.0097656.0627441-.0093994.1269531.0152588.1901855.0023193.0058594.0057373.0126953.0079346.0187988.0104981.0659179.0073242.135498.0223389.1999511zm18.6044922-.2646485c-.9257813 2.7089844-3.1865234 4.9882813-5.8994141 5.9472656-2.5966797.9082031-5.6181641.6367188-7.8847656-.7089844-1.8186035-1.081543-3.3809814-3.4931641-4.1341553-5.4213867-.0583496-.6384277.1740723-1.3120117.5140381-1.7895508 1.5752239-2.2141876 5.3649521-2.3810139 6.3808594-5.3271484.6523819 2.0380955.0357189 2.6814137.5087891 2.9394531.1298828.0712891.2880859.0585938.4052734-.0292969 2.1320591-1.6061668 1.7224693-3.6002369 2.1943359-4.2207031.7070313-.9277344 3.4375-.1650391 4.7685547.5253906 1.5908203.8144531 2.8735352 2.2329102 3.5352783 3.8962402.2075196 1.3789064.0751953 2.8256837-.3887939 4.1887208z"/><path d="m31.5213814 20.0357933c.5761719.0458984 1.0806885-.3837891 1.1265869-.9599609.0461426-.576416-.383667-1.0808105-.9599609-1.126709-.5761719-.0461426-1.0805664.3837891-1.1265869.9599609s.3836669 1.0805664.9599609 1.126709z"/><path d="m25.2396431 21.1271019c-.5761719-.0461426-1.0806885.3837891-1.1265869.9599609-.0461426.5761719.383667 1.0808105.9599609 1.126709.5761719.0458984 1.0805664-.3837891 1.1265869-.9599609s-.383667-1.0805664-.9599609-1.126709z"/><path d="m26.1410103 66.3861313v.0009766c-1.2006397 1.3291168-.6714725 2.9130859 1.484375 2.9130859 2.5913467 0 4.5546875-2.5732346 3.3378906-4.0664063-.1442871-.1774902-.3260498-.3134766-.5269775-.4067383l-.1556396-8.8022423c-.0095348-.5005951-.7593918-.4840813-.75.0136719l.1530762 8.6603966c-1.3982545.0347748-2.6177999.6676026-3.5427247 1.6872559zm3.703125-.9472656c.2070313.0048828.4033203.1035156.5380859.2685547.8611965 1.060318-1.1857529 3.2861786-3.4375 2.7646484-1.3486481-.3135223-.4992924-1.6623917.7958984-2.4501953.6601563-.4003907 1.3935547-.5957032 2.1035157-.5830078z"/><path d="m37.8841743 69.3597641c1.1597672.6176071 2.4967155.7016068 3.65625.1425781 1.566803-.7534561 1.2886505-2.6972046-1.4003906-3.6025391-.6159668-.2070313-1.2463379-.2827148-1.8586426-.2382813l-.4606934-9.8574181c-.0257301-.4958763-.77108-.46138-.75.0351563l.4643555 9.9365196c-1.4039802.3544313-1.6831321 2.5036699.3491211 3.5839845zm-.1630859-2.8583984c2.2671013-.5725784 5.2617226 1.4796753 3.4931641 2.3251953-.9111328.4404297-1.9980469.3935547-2.9785156-.1289063-1.3707047-.7287979-1.2781144-2.0035629-.5146485-2.196289z"/><path d="m17.824604 17.727932c-.3824558-.9878407.017355-2.1147099.9404297-2.6386719.4316597-.2463274.0601158-.8974028-.3710938-.6523438-1.2419128.7047043-1.7863655 2.226017-1.2685547 3.5625.1794339.462267.8792172.1913662.6992188-.2714843z"/><path d="m16.5921822 53.8646507c.0264893-.2229004.229126-2.1342773-.3981934-2.9711914 1.4395752-4.7026367 3.59729-9.1218262 6.407959-13.1525879-.5738525 4.9797363-1.1356201 9.9724121-1.6962891 14.9626465-.1103516.9335938-.171875 1.7714844.1835938 2.5703125.5874214 1.265995 2.1143188 1.8302383 3.4550781 1.7314453 1.2663841-.0842667 2.4213982-.5961533 3.6083984-1.0185547 5.8820877-2.0599709 9.4122124-.1535912 12.3554688-.9960938 2.4326172-.6972656 3.9560547-2.0888672 4.1796875-3.8193359.1640625-1.2734375-.2197266-2.5419922-.59375-3.6308594-1.359375-3.9619141-3.2441406-7.7412109-5.6015625-11.2333984-.2080078-.3076172-.4277344-.6542969-.6601563-1.0185547-.9277344-1.4580078-1.9804688-3.1123047-3.2294922-3.9667969-1.5650597-1.0667458-3.4537468-.0055962-4.9150391.3466797-2.433382.5822182-6.1164722-1.0986214-6.9559326 4.9758301-.1420898-.0319824-.2963867.0212402-.3878174.1472168-2.9987793 4.1831055-5.2855225 8.7946777-6.8095694 13.7075195-1.4033194-.1882019-3.6528597 2.4344902-3.2441406 4.4350586.4921132 2.4055672 3.883855 2.3992577 4.301757-1.0693359zm7.7128906-19.828125c1.1686916-2.0348969 3.4113464-1.1231346 5.5566406-1.6396484.3476563-.0820313.7119141-.2011719 1.0849609-.3232422 2.6363029-.8616562 3.294857-1.0360985 6.2529297 3.6181641.2363281.3701172.4599609.7216797.671875 1.0351563 2.3203125 3.4365234 4.1748047 7.1572266 5.5136719 11.0576172.3457031 1.0078125.703125 2.1777344.5585938 3.2910156-.2607422 2.015625-2.6337891 2.9052734-3.6425781 3.1943359-1.1699219.3339844-2.3896484.2148438-3.6806641.0869141-7.3887424-.7309723-9.2356834 1.7066956-12.1259766 1.9003906-1.0039063.0654297-2.265625-.3115234-2.7226563-1.2939453-.2753906-.6191406-.21875-1.3505859-.1210938-2.1738281 1.9492685-17.3283273 1.8208181-17.3703042 2.654297-18.7529298zm-8.9023428 17.1855469c.046875.0136719.1103516.0097656.1777344.0859375.4327497.490696.5344591 3.0042305-.3173828 4.015625-.7827368.9326668-2.0040102.6076736-2.2382813-.5400391-.3128605-1.5322799 1.5388746-3.5615234 2.3779297-3.5615234z"/><path d="m43.5255318 34.0914574.1700439.0900879c.6899414.3999023 1.5699463.1599121 1.9799805-.5302734l2.4613037-4.2539063c.3114662.1421242.6611938.2988644.9768066.4370117 3.1438904 1.3972855 3.0564346-2.7558937 1.1900635-4.1992188l4.2368164-7.3425293c1.1040764.4969826 2.2175522.0979252 2.9793701-.7404785.7623558-.8392887 1.1975517-2.1999836 1.4871826-3.3041992 1.0640602.7643499.0322113 2.3486786.8927002 3.3032227.6687126.7415161 1.947525.4066505 2.4667969-.4238281.5895309-.9407921.4144821-1.707695.1201172-6.9130859-.0566406-1.0195313-.1630859-1.9921875-.8320313-2.703125-.5146484-.546875-1.3359375-.8417969-2.2255859-.8134766-.7666016.0244141-1.4804688.2558594-2.1699219.4804688-1.3047332.4217762-2.3339843.9516391-2.406372 2.3276366-2.7207489 1.5680037-4.4371414 4.1891766-2.5921631 6.6877441-.2681808.2636814.1454048-.3208456-6.9647217 11.9396973l-6.3873291 3.8691406c-.3228226.1944046-.1837845.6953125.1943359.6953125.1896629 0-.0850487.0911064 5.413208-3.2163086l-1.5206299 2.630127c-.4000243.6899414-.1600341 1.579834.5300294 1.9799805zm11.37854-23.751709c.5178337 3.0444088 1.5420647 3.1214533 3.3999023 3.6149902-.4217567 1.6563253-1.1494255 3.8733253-2.868042 3.8083496-1.0322266-.0615234-2.0527344-1.3427734-2.4882813-1.890625-1.6217803-2.032815-.1975325-4.1896114 1.956421-5.5327148zm-4.3880615 18.9829101c-.3728561.2046795-.8670502-.0479565-2.8554688-.9628906-.1787109-.0810547-.3808594-.171875-.4863281-.2978516-.1904297-.2294922-.1132813-.625.0097656-.890625.4655457-.9846458 1.936821-1.5647259 2.7050781-.9111328.8791161.6657524 1.3400803 2.6546135.6269532 3.0625z"/><path d="m32.3568306 22.5482445c-2.1628113 2.9617386-4.5301952 1.8781757-5.2636719 3.1816406-.6547794 1.1690369.81394 2.1640625 2.0332031 2.1640625h.0117188c2.4837208-.0206509 4.5862885-2.7960663 3.8818359-5.2285156-.0888443-.3055439-.4849128-.3616543-.6630859-.1171875zm-3.2246094 4.5957031c-.0029297 0-.0048828 0-.0078125 0-.4082031 0-1.1660156-.2695313-1.3896484-.6474609-.4414501-.7470703 1.5524883-.9319706 2.2216797-1.1787109.9375-.3457031 1.7412109-.8847656 2.4394531-1.6367188-.0476837 1.9138031-1.6739788 3.4492378-3.2636719 3.4628906z"/><circle cx="27.153" cy="51.308" r="1.266"/><circle cx="32.651" cy="49.579" r="1.266"/><path d="m37.9884224 50.4356956c.6990967 0 1.2657471-.5666504 1.2657471-1.265625s-.5666504-1.265625-1.2657471-1.265625c-.6989746 0-1.265625.5666504-1.265625 1.265625s.5666504 1.265625 1.265625 1.265625z"/></g></svg>