<svg id="Layer_1" height="512" viewBox="0 0 512 512" width="512" xmlns="http://www.w3.org/2000/svg"><g><path d="m256 141.3c-63.3 0-114.7 51.5-114.7 114.7 0 63.3 51.5 114.7 114.7 114.7 63.3 0 114.7-51.5 114.7-114.7 0-63.3-51.4-114.7-114.7-114.7zm0 213c-54.2 0-98.3-44.1-98.3-98.3s44.1-98.3 98.3-98.3 98.3 44.1 98.3 98.3-44.1 98.3-98.3 98.3z"/><path d="m247.8 2h16.4v81.9h-16.4z"/><path d="m247.8 427.9h16.4v82.1h-16.4z"/><path d="m156.2 66.1h49.2v16.4h-49.2z" transform="matrix(.383 .924 -.924 .383 180.242 -121.108)"/><path d="m306.5 429.4h49.4v16.4h-49.4z" transform="matrix(-.383 -.924 .924 -.383 53.699 911.049)"/><path d="m418.1 197.7 45.4-18.8-6.2-15.1-45.5 18.8z"/><path d="m49.7 323h49.4v16.4h-49.4z" transform="matrix(.924 -.383 .383 .924 -121.091 53.694)"/><path d="m100.2 182.6-45.4-18.8-6.3 15.1 45.4 18.8z"/><path d="m412.9 323h49.4v16.4h-49.4z" transform="matrix(-.924 -.383 .383 -.924 715.097 804.679)"/><path d="m323.1 49.7h16.4v49.2h-16.4z" transform="matrix(.924 .383 -.383 .924 53.68 -121.14)"/><path d="m172.6 412.9h16.4v49.4h-16.4z" transform="matrix(-.924 -.383 .383 -.924 180.299 911.043)"/><path d="m398.4 64.4h16.4v81.9h-16.4z" transform="matrix(.707 .707 -.707 .707 193.605 -256.676)"/><path d="m97.2 365.5h16.4v82.1h-16.4z" transform="matrix(-.707 -.707 .707 -.707 -107.497 768.601)"/><path d="m428.1 247.8h81.9v16.4h-81.9z"/><path d="m2 247.8h82.1v16.4h-82.1z"/><path d="m365.7 398.4h81.9v16.4h-81.9z" transform="matrix(-.707 -.707 .707 -.707 406.638 981.707)"/><path d="m64.4 97.2h82.1v16.4h-82.1z" transform="matrix(.707 .707 -.707 .707 105.435 -43.672)"/><path d="m256 108.5c-81.3 0-147.5 66.2-147.5 147.5s66.2 147.5 147.5 147.5 147.5-66.2 147.5-147.5-66.2-147.5-147.5-147.5zm0 278.6c-72.3 0-131.1-58.8-131.1-131.1s58.8-131.1 131.1-131.1 131.1 58.8 131.1 131.1-58.8 131.1-131.1 131.1z"/></g></svg>