<svg id="Layer_1" enable-background="new 0 0 75 75" viewBox="0 0 75 75" xmlns="http://www.w3.org/2000/svg"><g id="Drum_Beating" fill="rgb(0,0,0)"><path d="m61.5231361 17.2010059c.6199951.3599854 1.4699707.4299927 2.0199585-.0200195.6300087-.5200195.6500282-1.5200195.2700195-2.2299805-.3800049-.7200317-1.0599976-1.2200317-1.710022-1.7000122 2.2631569.1414042 3.5738716-1.0776501 3.6700478-2.3599854.0700073-1.0200195-.6799927-1.9899902-1.6300049-2.3699951-1.5264702-.5945034-3.169487.0636282-4.5300331.9799805 2.0498543-1.9677792.4519768-4.7067471-1.9599609-4.1099854-.9800415.25-1.7600098 1.0100098-2.2200317 1.8900146-.460022.8699951-.6300049 1.8499756-.710022 2.8299561-4.0356216-2.1229448-7.609272-1.2189379-7.9099731-1.2299805-4.7189064.829977-9.393837 4.4096804-9.1506348 9.3973389-1.006958.1217651-1.8648071.932373-2.0197144 1.9337158-.1713867 1.1079102.5654297 2.262207 1.6430664 2.5727539.0045776.0012817.0090942.0008545.0136719.0019531.0699463 1.6392822.4408569 3.2539063 1.125 4.7133789 3.0024948 6.4091969 10.8879509 8.9052372 16.1723633 5.8828106 1.4683838-.8400879 2.675354-2.1286602 3.5183716-3.6484356 2.8522873.5360947 3.8231888-3.1709652 1.3731079-4.1165771.5704727-.5235462 1.5834503-4.0085087 1.1847534-7.1069336-.1300049-1.0200195-.3999634-2.0400391-.8099976-2.9899902l.1500244.1599731c.4299927.5700074.880005 1.1600343 1.5100098 1.5200196zm-8.0100097-4.9400024c1.1099854.539978 2.0700073 1.3499756 2.7700195 2.3599854.1199951.1699829.0699463.4000244-.1000366.5200195-.1517448.1011124-.4059334.079298-.5200195-.1000366-.6299438-.8999634-1.4799805-1.6199951-2.4699707-2.0999756-.4625283-.2191544-.1117402-.8959399.3200073-.6799927zm-17.1291504 8.0657959c.0991821-.6417236.6682739-1.1588745 1.3049316-1.2734375-.2453613.9590454-.3894653 1.9411621-.4089966 2.9247437-.5989379-.2879639-.9979248-.9917603-.895935-1.6513062zm17.8408203 12.4047832c-4.8996544 2.8029747-12.2993355.4749832-15.121582-5.5498028-1.0372314-2.213623-1.3299561-4.8067017-.8491821-7.2702026 1.3313484-3.2101154 4.3512764-.817852 8.4090576-4.3305664.6000366-.5200195 1.0200195-1.3600464 1.8200073-.8500366.6199951.3900146.9500122 1.4700317 1.4299927 2.0200195 4.7981873 5.4432125 8.5198936 2.369648 8.1600342 9.8800049.0221558 0 .2155762-.1248169.4562378-.2908936-.4539185 2.6799927-2.0550538 5.1048585-4.3045655 6.3914776zm4.243103-3.7001934c.3908081-.8516235.678772-1.7562256.8257446-2.6939697 1.4440308.6557884.9638138 2.8223896-.8257446 2.6939697z"/><path d="m50.5128822 67.9137115c2.9957542-1.652298 2.709362-3.2331848 3.0546875-5.7060547 1.1886597-8.8202095 1.365303-8.580471 1.0984497-8.84198.1882782-.7250557.1949425-1.4901848-.249939-2.4589233.2991943-.6627197.40448-1.3214722.3220215-1.9384155.9773827.2523842 1.2413597-.3119164 4.2164917-2.175354 1.1295204.4130783 2.0639877-.4263992 2.31073-1.5179443l1.362793-.8901367c.6875-.4492188.8808594-1.3852539.4287109-2.0898438l-.2524414-.3833008c-.4633789-.6889648-1.3989258-.8833008-2.0864258-.4345703l-1.3792725.901123c-.2985764-.0438232-.4167023-.0157318-.5270386.0050659-1.2960815-1.8191528-3.3551025-3.0513916-5.5761108-3.3051147-.2089844-.0229492-.3920898.1240234-.4150391.3300781-.0001831.00177.0006104.003418.0004272.005188-.7576218-3.7078018-3.7265282-4.503212-7.430603-4.9807739-3.5783653-.4580612-5.1853256-.0490494-6.9790039 3.2861328-1.2582397 2.3382568-2.0283203 4.2525635-2.6369629 6.5189819-3.5732307.2949295-8.7620068 1.6569748-9.0864239 5.2203369-.2540131.1279449-.1142979-.5160179-1.298584 8.9877319-.3037109 2.4760742-.3686523 4.6904297 1.9243164 6.7138672 5.1947577 4.5474931 17.1227209 6.054123 23.199217 2.7539063zm-17.8327636-.576416 1.6489258-10.7175903c3.3295021 1.1371346 7.3260193 1.6887665 10.9541626 1.4512939l-1.2755737 10.812561c-3.5483781.2414246-7.9963456-.3338851-11.3275147-1.5462646zm20.1452636-5.2346191c-.1238594.8779144-.1480141 1.8029442-.3413086 2.6044922-.6050491 2.5809174-5.076973 3.8409958-7.7141113 4.1184082l1.277771-10.8306885c2.6531258-.260498 6.0706635-1.0464706 7.7988281-3.0766602zm-5.1222534-10.501709c-.1799927-.0999756-.25-.3299561-.1500244-.5099487.1000366-.1800537.3300171-.25.5100098-.1500244 1.0302467.5655518 2.381794.2572365 3.0599976-.7600098.2598267-.425209.9004402-.0080681.6300049.4100342-.8554727 1.3035393-2.6073037 1.7795257-4.0499879 1.0099487zm.836792 2.7890625c-6.2387581 2.7589149-18.2115154-.7759132-17.7145367-4.7307129.4356956-3.3610802 9.6259975-4.2540932 15.8948345-1.5119629-2.6830253 2.5748406-1.7363014 6.0650215 1.8197022 6.2426758zm6.9880982-6.2429199c-.3544922.2324219-.815918.1337891-1.0512695-.222168l-.2495117-.3793945c-.2270508-.3461914-.1298828-.8276367.2119141-1.0512695l2.8847656-1.8956299c.060894.6151733.3551483 1.2492523.925354 1.7600708zm2.5390625-3.9501953c.059021-.5079918.4873466-1.0947266 1.0258789-1.0947266.4863281 0 1.0537109.4106445 1.2905273.8208008.3022461.5214844.2763672 1.2333984-.0629883 1.730957-.8708153 1.2774849-2.3966636-.2265892-2.2534179-1.4570312zm3.0615234-2.0917969c.3447266-.2275391.8183594-.1245117 1.0512695.222168l.2480469.3764648c.2280273.355957.1342773.8286133-.2099609 1.0532227l-.9207764.6013794c-.1050606-.6756325-.3931656-1.2039299-1.0938721-1.6489258zm-7.9780274-2.2817383c1.965271.2245483 3.7894287 1.2966919 4.9676514 2.8825073-.3011475.236084-.5310059.5629883-.6664429.9109497l-3.4242554 2.25c-.3637085.2384033-.585144.6105347-.6514282 1.0108032-.1141968-.0701904-.244812-.1222534-.3704224-.1801147.1699066-2.0436211.2127686-5.1029739-.1538696-7.1050415.0506592.1212158.1586915.2149658.2987671.230896zm-14.0791015-1.7490234c1.6049881-2.9830933 2.8636703-3.3284912 6.2231445-2.8974609 2.2731514.2927933 4.897747.6715889 6.1708984 2.7104492.5874023.9404297.7451172 2.1308594.8286133 3.2773438.1276855 1.757019.1129761 3.5253296-.0237427 5.2828369-.1351318-.0321045-.2605591-.0775146-.4039917-.0977783-.7979736-.1139526-1.6550903-.0168457-2.4970093.2484741-.0323486-.0353394-.0715942-.0653687-.1177368-.086853-3.7880669-1.7682648-8.5397453-2.5335312-12.6811523-2.3271484.5830078-2.0980226 1.3195801-3.9140016 2.5009766-6.1098634zm-7.3120098 7.6704101c4.3778477-1.3974724 11.2275181-1.1197395 16.6585064 1.2330322-.0545654.0267334-.1112061.0438232-.1653442.0721436-.31427.1642456-.6079712.3525391-.8848267.5559082-.0024414-.0012207-.0037842-.003479-.0062866-.0046387-6.3821297-2.9722748-16.7231541-2.3215942-17.2802715 1.9628906-.3510742 2.793457 4.0566387 5.5820313 10.0346661 6.3491211 3.0891876.393528 7.7389336.2802353 10.1289063-1.6933594 1.4529991-.3704758 2.8205681-1.2535515 3.6879272-2.4661255.6542358 2.4324493-1.8042183 3.9987373-4.2313843 4.7737427-2.6826172.8564453-6.1420898 1.0756836-9.7402344.6113281-11.4473477-1.4703826-17.0255776-8.5813636-8.2016583-11.3940429zm-5.6259766 12.7934571c.0956917-.7649384.3988571-3.2172661.8984375-7.1552124.8743286 1.9348145 3.2719116 3.7207642 6.5789165 4.9728394l-1.6442852 10.6877441c-1.4739437-.6054382-2.8183117-1.2735214-4.1577759-2.4472656-2.0214843-1.7836915-1.9624023-3.7167969-1.6752929-6.0581055z"/><path d="m23.8048763 36.2642975c.0745373.459919.448103.8153572.559082 1.1049805.2466373.6507721.3570786 1.4659538 1.2962646 1.7224731l1.1114502 2.8302612c.2899666.7762985 1.1586018 1.1679382 1.9492188.8676758.2348671-.1280022.9316483-.2119598 1.262207-.9692383.1611328-.3701172.1679688-.78125.019043-1.1557617l-1.6792603-4.2999268c3.2947483 1.254406 6.885046 1.5135231 10.2378521.7926025.4838028-.1037521.3297386-.8352928-.1572266-.7333984-5.8707619 1.2651291-10.1033001-.9473915-10.4406719-.9810181l-.8708496-2.2299194c-.2067261-.5202026-.6801758-.8575439-1.2055054-.9302979.9337158-1.0507183 1.1658325-2.9224834.4466553-4.7517071-.9200439-2.3400269-3.0200195-3.710022-4.7000122-3.0500488-1.6799927.6600342-2.289978 3.0900269-1.3800049 5.4299927.7520142 1.9127808 2.2976685 3.156065 3.7496338 3.1936626-.5980434.903801.0405159 1.7025757.1338501 2.104126-.2766112.2691041-.4000853.6319581-.331726 1.0555421zm.9780274.3344726c-.1069336-.1621094-.2177734-.3300781-.237793-.4541016-.1233368-.7712898 1.2337589-.7347107 1.6801758-.4501953.3632813.2314453.637207.6274414.7509766 1.0869141.2989464 1.2100258-.6734409 1.9311638-1.3276367 1.4970703 0 0 0 0 0-.0004883-.4668732-.3115501-.3344861-.8748931-.8657227-1.6791992zm4.0927734 5.3237305c-.2627106.0746193-.5921993.3433762-1.015625.1499023-.4605236-.2084198-.3520527-.4921074-1.3935547-2.9799805.7650013-.1993561 1.4132462-.9586296 1.2736206-2.1588135l1.56427 4.0054932c.1503487.3788033-.0227165.8245316-.4287109.9833985zm-2.4814453-8.4350586.8369141 2.1430054c-.1713867-.2236938-.3713989-.4212646-.6030273-.5687866-.4384766-.2796631-1.1970215-.385376-1.8265991-.2114258l-.2495728-.637207c-.1538086-.387207.0390625-.8286133.4287109-.9833984l.4257813-.1679688c.3916015-.1484375.8354491.0424804.9877929.4257812zm-3.2711182-6.1964702c-.6590729.2796211-1.0077744 1.0648422-.7299805 1.7700195.0917969.2491398-.1087227.5100098-.3500366.5100098-.1499634 0-.2999878-.0900269-.3499756-.2399902-.3934784-1.0033264.0314598-2.2292252 1.1199951-2.7300415.1900024-.0799561.4099731 0 .4899902.1900024.090027.1900024.0100099.4100341-.1799926.5z"/><path d="m53.3496132 22.3094654c-.7543945 0-1.3659668.6115723-1.3659668 1.3660278 0 .7543945.6115723 1.3659668 1.3659668 1.3659668s1.3659668-.6115723 1.3659668-1.3659668c0-.7544555-.6115723-1.3660278-1.3659668-1.3660278z"/><path d="m44.0387611 22.895586c.7543945 0 1.3659668-.6115723 1.3659668-1.3659668 0-.7544556-.6115723-1.3660278-1.3659668-1.3660278-.7544556 0-1.3660278.6115723-1.3660278 1.3660278 0 .7543945.6115723 1.3659668 1.3660278 1.3659668z"/><path d="m53.7326088 26.8360767c-1.8783875 1.3153858-3.9127846 1.9652309-6.2275391 1.484375-1.9057617-.3945313-3.6137695-1.5532227-4.6865234-3.1787109-.1938782-.2940521-.6549606-.180975-.6865234.1738281-.1425781 1.6210938.4887695 3.2919922 1.7783203 4.7041016 2.4575577 2.6906376 6.7713814 2.7888927 9.3227539.0249023.8574219-.9287109 1.2524414-2.0102539 1.0839844-2.9667969-.0467339-.2689971-.3591958-.3999156-.5844727-.2416992zm-5.1503906 4.4946289c-.0043945 0-.0092773 0-.0141602 0-2.9211769-.0083618-5.246418-2.3566952-5.6464844-4.8320313 2.7308426 3.0412941 7.2139816 3.5796967 10.5571289 1.3955078l.1040039-.065918c-.234127 1.5694734-2.3540306 3.5024415-5.0004882 3.5024415z"/><path d="m12.8869066 52.3390045c-.3546925.2278595-.1169615.7795372.2905273.6801758 4.7495775-1.1441536 4.9043036-1.2109566 5.0234385-1.1586914.1512508.0656128.1319809.1379585 1.4394531 4.9179688.0449219.1630859.1933594.2758789.3618164.2758789h.0107422c.1728516-.0048828.3198242-.1274414.355957-.296875l1.0102539-4.7387695c.1035519-.4828568-.6296329-.6455956-.7333984-.15625l-.6889648 3.2304688c-.905405-3.3092766-.8915997-3.6738434-1.4555664-3.9194336-.4452763-.1944046-.7172298-.0335922-3.8105478.7094727.9741211-.9038086 1.777833-2.0004883 2.3315439-3.1977539.1171932-.2530518-.0750961-.5462341-.3598633-.5317383-1.8442392.0952148-3.6889658-.0351563-5.4995127-.3901367 1.3945313-.4379883 2.71875-1.0639648 3.9516602-1.8696289.2787981-.1822891.1988258-.6132317-.1289063-.6811523-1.3549805-.2802734-2.652832-.8271484-3.8022461-1.597168 1.7705078-.1181641 3.581543.0478516 5.2924814.4819336.47686.1242447.6679726-.6042404.1845703-.7265625-2.1435556-.5449219-4.3413095-.6826172-6.5346689-.4077148-.3270283.0406151-.4462919.4559631-.1894531.6635742 1.1821289.9575195 2.5561523 1.6748047 4.015625 2.1005859-1.3803711.7929688-2.8676758 1.3613281-4.4331055 1.6928711-.3846149.0806808-.399272.6282921-.0185547.7290039 2.144043.5703125 4.34375.8286133 6.5605478.777832-.7524423 1.3720702-1.8623055 2.5688475-3.173829 3.4121092z"/><path d="m22.0016537 47.8297272 1.0673828-1.8876953c.2438126-.4325333-.4100132-.8010788-.652832-.3691406l-1.0678711 1.8876953c-.1015625.1801758-.0380859.4091797.1420898.5112305.1824703.1018829.4094753.0370597.5112305-.1420899z"/><path d="m20.1940365 45.3077545 1.0600586-.6733398c.4174519-.2646942.0185547-.8993797-.4023438-.6328125l-1.059082.6723633c-.4183407.2652626-.0193176.8987884.4013672.633789z"/><path d="m45.8425331 39.4560089c.789856 0 1.4301147-.6403198 1.4301147-1.4301758 0-.7897949-.6402588-1.4301147-1.4301147-1.4301147-.7897949 0-1.4301147.6403198-1.4301147 1.4301147 0 .789856.6403198 1.4301758 1.4301147 1.4301758z"/></g></svg>