<svg id="Layer_1" height="512" viewBox="0 0 512 512" width="512" xmlns="http://www.w3.org/2000/svg"><path d="m510 247.8h-54l35.2-35.2-11.6-11.6-46.7 46.8h-34.2l35.2-35.2-11.6-11.6-46.8 46.8h-99.7l70.5-70.5h66.1v-16.4h-49.7l24.2-24.2h66.1v-16.4h-49.8l38.2-38.1-11.6-11.6-38.1 38.2v-49.8h-16.4v66.1l-24.2 24.2v-49.7h-16.4v66.1l-70.5 70.5v-99.7l46.8-46.8-11.6-11.6-35.2 35.2v-34.2l46.8-46.7-11.6-11.6-35.2 35.2v-54h-16.4v54l-35.2-35.2-11.6 11.6 46.8 46.7v34.2l-35.2-35.2-11.6 11.6 46.8 46.8v99.7l-70.5-70.5v-66.1h-16.4v49.7l-24.2-24.2v-66.1h-16.4v49.8l-38.1-38.2-11.6 11.6 38.2 38.1h-49.8v16.4h66.1l24.2 24.2h-49.7v16.4h66.1l70.5 70.5h-99.7l-46.8-46.8-11.6 11.6 35.2 35.2h-34.2l-46.7-46.8-11.6 11.6 35.2 35.2h-54v16.4h54l-35.2 35.2 11.6 11.6 46.7-46.8h34.2l-35.2 35.2 11.6 11.6 46.8-46.8h99.7l-70.5 70.5h-66.1v16.4h49.7l-24.2 24.2h-66.1v16.4h49.8l-38.2 38.1 11.6 11.6 38.1-38.2v49.8h16.4v-66.1l24.2-24.2v49.7h16.4v-66.1l70.5-70.5v99.7l-46.8 46.8 11.6 11.6 35.2-35.2v34.2l-46.8 46.7 11.6 11.6 35.2-35.2v54h16.4v-54l35.2 35.2 11.6-11.6-46.8-46.7v-34.2l35.2 35.2 11.6-11.6-46.8-46.8v-99.7l70.5 70.5v66.1h16.4v-49.7l24.2 24.2v66.1h16.4v-49.8l38.1 38.2 11.6-11.6-38.2-38.1h49.8v-16.4h-66.1l-24.2-24.2h49.7v-16.4h-66.1l-70.5-70.5h99.7l46.8 46.8 11.6-11.6-35.2-35.2h34.2l46.7 46.8 11.6-11.6-35.2-35.2h54z"/></svg>