<svg id="Layer_1" enable-background="new 0 0 75 75" viewBox="0 0 75 75" xmlns="http://www.w3.org/2000/svg"><g id="Drummer" fill="rgb(0,0,0)"><path d="m26.6595745 37.9143524c.3115311-.3864822-.2732391-.8562126-.5839844-.4707031-.4755859.5898438-.9677734 1.1992188-1.5761719 1.6279297-.6367188.4462891-1.3398438.6220703-1.9257813.484375-.4824219-.1132813-.9101563-.4248047-1.4042969-.8574219-2.325346-2.0348854-3.381567-3.9637489-3.5643311-4.1706543.0103111-1.1689339-1.1676159-2.5667057-2.5274658-2.8137188-.0009766 0-.0009766 0-.0009766 0-1.6937447-.3106327-3.0214653 1.1506405-2.5410156 2.5439434.3911953 1.1301231 1.588048 1.4435959 2.6425781 1.6435547.8360443.1592484 1.6339664.1989021 2.1400146-.480957.9827461 1.4707146 3.4262218 4.4745598 5.0826416 4.8657227 1.7997058.4218063 3.1290267-.9734193 4.2587893-2.3720704zm-9.9824219-2.8691406c-.2880859.2783203-.8203125.2236328-1.3583984.1201172-.7703972-.1465797-1.7978115-.3530045-2.0742188-1.1523438-.1367188-.3974609.0117188-.9091797.3525391-1.2167969.9773283-.880312 2.660862-.1267357 3.1982422 1.3203125.1074219.2871094.1152344.7011719-.1181641.928711z"/><path d="m37.9370422 22.8967762c.3343506 0 .6054688-.3894043.6054688-.8696289 0-.4799805-.2711182-.8691406-.6054688-.8691406-.3344727 0-.6054688.3891602-.6054688.8691406.0000001.4802246.2709962.8696289.6054688.8696289z"/><ellipse cx="32.084" cy="21.817" rx=".605" ry=".869"/><path d="m35.6684875 35.1831512c.4674072 0 .8463135-.385498.8463135-.8608398s-.3789063-.8608398-.8463135-.8608398-.8461914.385498-.8461914.8608398.3787842.8608398.8461914.8608398z"/><path d="m36.514801 36.6838837c0-.4755859-.3789063-.8608398-.8463135-.8608398s-.8461914.3852539-.8461914.8608398c0 .4753418.3787842.8608398.8461914.8608398s.8463135-.385498.8463135-.8608398z"/><path d="m38.8421936 23.3459949c-.4493217-.1098347-.6021309.5872459-.8964844.8310547-1.8400154 1.5299759-4.7655296 1.6274509-6.7998066-.1767578-.2323685-.2072487-.6110783-.0548515-.6240234.2666016-.1191673 3.2270603 5.2641163 5.3466625 7.7871113 2.3720703.625-.7412109 1.1162109-1.9667969.8056641-3.0332031-.038086-.1289063-.1416016-.2285157-.272461-.2597657zm-3.3261719 3.9550782c-1.5823364.1718292-3.5480843-.741621-4.095705-2.1601563 2.3453541 1.4836998 5.1742916 1.1178246 6.98633-.3720703-.2947616 1.4305248-1.4937019 2.3794384-2.890625 2.5322266z"/><path d="m52.7621155 10.1125965c-3.4229851.3881979-4.9184761-2.7956233-7.6142578-4.2294922-2.9535484-1.5687547-6.6488228-.5348663-8.0441895 1.5839844-.2247963-.2717752-.5769005-.7909231-1.0128174-1.0178223-.2399902-.130127-.5400391-.1799316-.7900391-.0700684-.4552193.1993093-.6236801.8128486-1.1782227 2.1101074-4.3333073.9059353-8.4455051 5.864871-7.6954365 11.692627.0441895.5866699.1101074.9401855.2698975 1.1279297.0803223.4541016.1877441.8857422.3010254 1.3125-.4304314.070755-1.0554867.6423645-1.2037354 1.3789063-.2682171 1.3117542.8821983 2.487236 2.1875 2.1875.1876221-.0437012.303833-.222168.2813721-.4099121 3.7216816 6.3722439 12.7127209 4.2671661 14.562746-2.4084473.2872086.1514969 1.3114891.0309143 1.8990479-.7509766.6511269-.8966599.4269753-2.2400093-.6696777-2.7451172.5859871-2.4998112.1990051-5.3070364-1.3981934-7.5957031.5360603-.5174589.7605667-.6943665.8236084-.9594727.0800781-.3398438-.1499023-.6799316-.3999023-.9199219-.817627-.8276367-1.9631348-1.3061523-3.1098633-1.3288574-.2410545-1.1636972-1.3975677-1.399859-2.1641846-.6943359-.0274658-.0410156-.0478516-.0874023-.0760498-.126709-.0368652-.0522461-.0823975-.0981445-.1201172-.1499023 1.0131302-1.897994 4.4180565-3.0197644 7.1856689-1.5541992 2.4675522 1.3143616 3.983757 4.333992 7.4169922 4.3466797-1.0361252 1.9175787-4.2357559 4.3634577-7.6914063 4.7275391-.4840393.0504684-.4272842.7849712.078125.7460938 5.9103281-.6224891 9.8957255-6.4117347 8.1621096-6.2529298zm-24.9501972 15.3457031c-.3457031.0820313-.7314453-.0322266-.9833984-.2861328-.5538826-.5559959-.3645935-1.5438538.3710938-1.8398438.0002441-.0002441.0003662-.0004883.0006104-.0004883.277792.8649921.490139 1.4082985.9147949 2.190918-.0838625-.0610351-.190674-.0898437-.3031007-.0644531zm-.3809815-4.2990722c.0595703-.1306152.0922852-.282959.1212158-.4353027.2906551-1.6858006 3.2237892-1.6671658 4.720705-2.7294922-.2538986.6099033-.5248318.6528587-.3847675.9667969.0566406.1269531.1777363.2119141.3164082.2216797 1.5390625.109375 2.9052734-.2236328 3.9599609-.9550781.3720703-.2578125.7148438-.5546875 1.046875-.8496094.7290535 1.9434509 3.0365028 2.598671 3.8779297 4.1962891.0927734.1738281.2998047.2490234.4814453.1689453.2452393-.1062012.5466309-.0791016.7901611.0522461-.7529029 8.027069-12.8845157 11.0176982-14.9299335-.6364747zm16.7960224-.1501465c.1796875.3525391.1347656.8339844-.1054688 1.1650391-.2729111.3635178-.6670952.4951172-1.1253662.4951172.0339355-.1738281.0523682-.3461914.074707-.5180664.0883789-.0310059.1680908-.0837402.2127686-.1694336.2254639-.4331055.4002686-.8903809.5517578-1.3564453.1624757.097412.3081055.2216796.3916016.383789zm-1.3964843.1855469c-.3632813-.2353516-.8154297-.3193359-1.234375-.2392578-1.0643539-1.6602058-3.557579-2.4711685-3.8027344-4.3154297-.0185547-.1367188-.1103516-.2529297-.2402344-.3007813-.3110657-.1221218-.482914.1984901-.6962891.3505859-1.0609169.945179-1.934864 1.7230606-3.9677734 1.7617188.2255859-.4697266.3583984-1.0205078.2587891-1.5078125-.0448532-.2262993-.2898293-.3617306-.5078125-.2724609-.5785255.2349319-.115593.7383938-2.6826191 1.4970703-1.1275024.3313999-2.1595497.6702385-2.8164063 1.6503906-.4975376-4.9676619 2.8210106-9.3093052 6.6082783-10.451416-.1901741.5156403.0802307.7770157.621582.842041 1.0923729.1519299 1.842453.0043945 2.7579346-.1918945.0713615.9831591.8666573 1.5492334 1.6782227 1.2387695.0073242-.0024414.0140381-.0078125.0213623-.0102539.2968636.8070421 1.000061 2.3709259 1.852417 2.4333496.5666504.0493259 1.0169067-.4712725 1.428833-.8703613 1.7417869 2.5761194 1.8473892 5.8539943.7208252 8.3857422zm-3.65625-11.2978516c-.1357422.3222656-.3652344.5703125-.6171875.6523438-.7458611.2846794-.9486771-1.0096903-.2910156-1.5839844.6313285-.6353274 1.2459945.0958624.9082031.9316406z"/><path d="m50.2113342 41.9133759c.2834473-.4436035.7679443-1.2111816.3271484-1.8452148.3369064-3.9987373-2.7575836-7.019722-6.3271484-7.1235352-.1787109-.0146484-.3798828.1582031-.3857422.3642578-.0058594.2070313.1572266.3798828.3642578.3857422 2.8115501.0821838 5.6593361 2.354538 5.6147461 5.8769531-.6664734-.139389-1.2773552.2296944-2.7514648.8789063-.6921005.3073387-1.3604393.6989861-1.4121094 1.484375-.0253906.3691406.1220703.7480469.4140625 1.0654297.0457764.0500488.0997314.0854492.1490479.130127-.1762695-.0368652-.3572998-.0720215-.5439453-.1052246-.2173462-1.3643723-.4255943-2.6078835-.4996338-3.0561523-.3296127-2.0079689-.3882599-4.2893677-1.2900391-6.2480469-.6982422-1.5058594-1.9111328-2.5712872-3.2412109-2.8486309-1.983139-.418663-3.7629433.8132458-5.5830078.8417969-1.6531105-.0271988-3.059948-.6990414-4.5361347-.0791016l.1386719.3515625-.2636719-.2929688c-1.5459232.7598248-2.0516033 2.5201359-2.4111328 4.1689434-.442749 2.0947266-.7995605 4.3344727-1.1202393 7.015625-2.340332.3344727-4.2225342.8740234-4.2225342 1.7480469 0 .0996094.0325928.1933594.0793457.284668 0 .0024414-.0013428.0048828-.0012207.0073242l.2753906 8.9384766c.0373402 1.2010765-.2353649 2.5685158.9521484 3.2207031 1.3868752.7654114 3.3399048.9003029 5.8413086 1.1271973l.197998 7.2175293c-.4990387-.0068893-.9728775.03759-1.4211426.2617188-1.3563671.6781845-1.5470829 2.5835648.3134766 3.3583984 2.8548565 1.1847382 6.2637615-1.0789566 4.680666-2.9638672-.2949219-.3525391-.5986328-.4394531-.9228516-.5322266-.491333-.1420898-1.1987324-.2746582-1.9019794-.2114258l-.1937256-7.0620117c2.8903332.2235069 5.9835987.252037 8.8692646.1494141l.2061768 7.5009766c-.4914551-.0065994-.9617538.0320282-1.4211426.2617188-.6123047.3056641-1.1611328 1.0498047-1.0253906 1.8798828.2015953 1.2518311 1.7684784 1.8095703 3.0048828 1.8095703 2.2439461 0 4.3218536-1.7373352 3.0136719-3.2949219-.5282784-.6286469-2.0149002-.8108673-2.8238525-.7426758l-.2044678-7.440918c1.3172607-.0603027 2.5610352-.1523438 3.7421875-.28125 1.6118393-.1597252 3.4292641-.2810097 4.7802734-.9902344.9404297-.4931641.8525391-1.4980469.78125-2.3056641-.0648766-.7212601-.0116806.014225-.2011719-7.6357422-.2382851-2.4663162-.1342468-2.5637894-.3201904-2.7504883-.0515137-.1523438-.166748-.2927246-.3303223-.4238281 1.024273-.2927476 1.0652466-1.2506906 1.6094971-2.0952149zm-17.7880859 24.3544921c.2871094.0830078.4091797.1230469.5517578.2929688.4567413.545639.135601 1.1145248-.4785156 1.4980469-1.8785267 1.172493-4.0747356.3171387-4.2255878-.6152344-.0732422-.4501953.2578125-.9082031.6201172-1.0898438.6022587-.2997665 1.0669289-.0912399 1.6669922-.2539063.6542968-.1171874 1.3740233.0273438 1.8652362.1679688zm10.1806641.7939454c.1455078.1738281.2236328.3847656.2128906.5800781-.0462494.8306351-2.0567932 2.0284729-4.03125 1.2080078-.2958984-.1230469-.8046875-.4042969-.8857422-.9052734-.0732422-.4511719.2578125-.9082031.6210938-1.0898438.6024818-.299881 1.0713234-.0907288 1.6660156-.2539063.6256027-.107376 2.0771103.0553513 2.4169922.4609376zm-8.0438233-10.1166993-5.0136738-10.2783203c3.566927.2871513 6.7077732.3026619 9.8640156.1621094zm13.9432373-9.7231445.0726318 3.1516113c-.1755447.114872.0307121-.1277275-2.4466553 4.6794434-.1485367.3403053-.4260025.9461555-.5089111 1.1245117-2.8530273-5.2430954-2.7521706-5.3717308-5.1590576-9.4020996 2.9678955-.1699219 6.4954834-.543457 7.8905029-1.3615723zm-19.7861347-11.2470703c.2795906-1.2871399.7294483-2.9697609 1.9130859-3.5791016.0927734-.0195313.1630859-.0595703.1953125-.0810547 1.2287426-.5176125 2.6546879.1602898 4.2314472.1494141 1.90065-.0305824 3.7197495-1.222311 5.4179688-.85742 1.1005859.2294922 2.1162109 1.1376934 2.7148438 2.4296856.8373375 1.8168678.8995895 4.0205536 1.2304688 6.0546875.0199509.1210976.1948738 1.1630287.4593506 2.8063965-3.7412109-.5517578-8.7469482-.5622559-9.0814209-.5622559-.3082275 0-4.5823994.0092773-8.1788349.4423828.3112792-2.553955.6593016-4.7314452 1.0977782-6.8027343zm-5.2384033 9.5649414c1.0804443.5175781 3.057373.840332 5.1174316 1.0419922l-4.6798096 9.4487305c-.020092-.1003609-.2210064-.1422768-.1865234-1.5634766.0222435-.8266907.0097237-.086792-.2510986-8.9272461zm1.1549072 11.0227051 4.4747314-9.0339355 4.9614277 10.1704102c-1.2844238-.032959-2.4970722-.09375-3.6447773-.1860352-.131321-.1575813-.3448753-.1900253-.5170898-.0498047-1.9155407-.1714364-4.0155602-.3422738-5.274292-.9006348zm15.3950214 1.086914c-.1503525-.154644-.3998489-.158699-.5511475.0195313-2.1400871.0791092-3.2763824.0608444-4.3125.0473633l4.8743896-10.1689453c1.801693 2.9875183.1192741.1378784 5.2667236 9.6657715-2.3141173.2650375-3.8259276.3714179-5.2774657.4362792zm8.2958985-1.1892089c-.6226807.326416-1.3773193.5065918-2.1522217.6308594 1.0811768-2.4281769 1.2607994-2.6155777 2.4437256-4.9799805.0594177 2.1297455.0272484 2.0900002.090332 2.7739258.0712891.8144531.0917969 1.3271484-.3818359 1.5751953zm-.0234375-13.1269532c-.0009766 0-.0009766.0009766-.0009766.0009766-.3310547.0439453-.7011719-.1523438-1.078125-.3828125-.3601608-.2211189-.8616982-.5380859-.8330078-.9658203.0107422-.1611328.1162109-.3349609.2890625-.4775391.2644691-.216259.5520401-.3146629 2.1181641-1.0078125.2777634-.1228142.7504005-.3160744.9960938-.1376953.507988.3678551-.1890984.8839989-.6601563 2.015625-.2324219.5644531-.3857422.8867188-.8310547.9550781z"/><path d="m30.1526165 54.5398407c0-.5944824-.4819336-1.076416-1.076416-1.076416s-1.0765381.4819336-1.0765381 1.076416.4820557 1.076416 1.0765381 1.076416 1.076416-.4819336 1.076416-1.076416z"/><path d="m34.76297 48.5442352c-.4969482-.3261719-1.1643066-.1879883-1.4907227.3088379s-.1882324 1.1643066.3087158 1.4907227 1.1643066.1882324 1.4907227-.3088379c.3262939-.4968262.1881103-1.1643067-.3087158-1.4907227z"/><path d="m41.0444641 53.474411c-.4968262-.3266602-1.1643066-.1882324-1.4907227.3085938-.3262939.4970703-.1879883 1.1643066.3088379 1.4907227.4969482.326416 1.1643066.1882324 1.4907227-.3088379.326416-.4968262.1881104-1.1643067-.3088379-1.4904786z"/><path d="m62.3031311 31.6086903c-2.1738281-.6865234-4.4208984-1.0566406-6.6894531-1.1044922.8261719-1.3769531 2.0126953-2.5556641 3.3925781-3.359375.3702545-.2148418.1416054-.7832203-.2597656-.6923828-4.9755974.9629879-5.0721397 1.0109158-5.1855469.9482422-.1610107-.0784416-.1373024-.1555996-1.2792969-5.1083984-.0390625-.1689453-.1884766-.2890625-.3613281-.2910156-.0009766 0-.0029297 0-.0039063 0-.1708984 0-.3212891.1162109-.3632813.2822266l-1.2246094 4.8027344c-.1218071.4825344.6048241.6654663.7265625.1855469l.8427734-3.3066406c.8075142 3.5080242.7799683 3.8370609 1.3300781 4.1083984.4109039.2041187.5158005.1080055 3.9570313-.5546875-1.0439453.8818359-1.9189453 1.9746094-2.5400391 3.1845703-.0595703.1162109-.0537109.2558594.0146484.3671875.1174202.1912289.2922592.1787109.4511719.1787109 1.8603516 0 3.7089844.2236328 5.5146484.6669922-1.4550781.3828106-2.8447266.9648418-4.1455078 1.7373028-.1308594.0771484-.2011719.2255859-.1796875.3759766.0214844.1494141.1318359.2724609.2783203.3095703 1.3828125.3525391 2.6962891.9794922 3.8457031 1.8300781-1.8320313.0371094-3.6777344-.2148438-5.4140625-.7412109-.2011719-.0634766-.4082031.0517578-.4677734.2490234-.0605469.1982422.0507813.4082031.2490234.4677734 2.1632118.6576195 4.4026527.9010468 6.6591797.7246094.3278389-.0255432.4671059-.4348793.2197266-.6542969-1.1748047-1.0410156-2.5566406-1.8417969-4.0380859-2.3447266 1.4472656-.7519531 2.9970703-1.2666016 4.6181641-1.5341797.3877031-.063881.4278451-.6098977.0527345-.7275372z"/><path d="m49.5228577 31.3459949-1.1679688 1.881834c-.262249.4214706.3741531.8173065.6367188.3964844l1.1679688-1.881834c.2623214-.4215946-.3746072-.8163318-.6367188-.3964844z"/><path d="m51.2640686 34.0149384-1.109375.6386719c-.4323578.2490768-.0527.8987427.3730469.6503906l1.1113281-.640625c.4323349-.2490616.0482483-.8990746-.375-.6484375z"/><path d="m32.6625061 11.8733387c-1.3964863.5498047-2.5673847 1.7080078-3.1318378 3.0996094-.1866188.4572182.5077915.7423677.6953125.28125.4882813-1.2041016 1.5019531-2.2070313 2.711916-2.6835938.4553565-.1779833.1960334-.8764066-.2753907-.6972656z"/></g></svg>