<svg id="Layer_1" height="512" viewBox="0 0 512 512" width="512" xmlns="http://www.w3.org/2000/svg"><g><path d="m403.3 314.4h-70l-66.9 115.1h33.9l-19.1 80.5 131.9-154.5h-39.9zm-25.8 57.6-64.7 75.7 8.2-34.6h-26.1l47.8-82.2h28.3l-30 41.1z"/><path d="m475.2 174.2c1.3-8 2-16.1 2-24.2 0-81.6-66.2-148-147.5-148-53.7 0-102.1 28.6-128.3 75.2-13.7-6.2-28.7-9.5-43.8-9.5-56.5 0-102.9 44.3-106.3 100.7-28.5 7.4-49.3 33.7-49.3 63.8 0 36.3 29.4 65.8 65.5 65.8h40.7l-21.1 42.4h47l-23.3 154.4 141.6-196.8h192.1c36.1 0 65.5-29.5 65.5-65.8 0-24.6-13.4-46.7-34.8-58zm-338.1 255.9 16-106.1h-39.5l74.4-149.3h52.2l-43.3 82.9h64.4zm307.4-148.6h-180.3l29.1-40.4h-69.3l43.3-82.9h-89.4l-61.5 123.3h-48.9c-27.1 0-49.2-22.1-49.2-49.3 0-24.4 18.1-45.3 42.2-48.8l7-1.7v-7.1c0-49.9 40.4-90.4 90.1-90.4 29.2 0 50.8 15.3 50.8 15.3s35.3-81.1 121.2-81.1c72.3 0 131.1 59 131.1 131.5 0 17.4-4.2 33.9-4.2 33.9s37 10.5 37 48.3c.1 27.3-21.9 49.4-49 49.4z"/><path d="m329.7 43.1v16.4c49.7 0 90.1 40.6 90.1 90.4h16.4c.1-58.8-47.7-106.8-106.5-106.8z"/></g></svg>