<svg id="Layer_1" enable-background="new 0 0 75 75" viewBox="0 0 75 75" xmlns="http://www.w3.org/2000/svg"><g id="Eating" fill="rgb(0,0,0)"><path d="m53.4771118 53.2896652c0-.4960136-.75-.496315-.75 0 0 4.8915024-.515316 5.7911377-5.2270508 5.9599609-.4814453.0175781-.9321289.0351563-1.3188477.0771484-1.2474365.1362305-2.5823364.2443848-4.0457153.3276367 3.295826-2.4159775 4.4950447-5.5490875 5.5652466-9.4907227.0192261-.0710449.010498-.1403809-.0095215-.2058105-.0093994-.376709-.2757568-.7324219-.8170166-1.0776367 1.4872437-3.010498 2.5661011-6.2653809 3.1781616-9.5720215 3.1953964 8.600605 1.931572 11.1675873 2.9232788 10.9951172.206543-.0185547.3583984-.2001953.3398438-.4072266-.342247-3.7793083-1.2253494-7.584774-3.0263062-12.0593262.0938721-.657959.1747437-1.3166504.230896-1.9748535.0421257-.49617-.7048378-.5572052-.7470703-.0644531-.0187378.2194824-.0493774.4389648-.0724487.6586914-.9465332-2.1010742-2.0855103-4.0236816-3.2366333-4.512207-.9441071-.4029331-1.4666405.1683998-2.578125.7451172-3.2071877 1.7103729-6.4921455.9986649-6.6455078 1.0019531-1.2058563-.1832275-2.3326797-.3273163-3.2568359.4775391-.4450073.3935547-.7305908 1.0058594-.8395996 1.7104492-.098938-.1098633-.2578735-.1550293-.407959-.1020508-1.0086689.3723145-1.8735981 1.064209-2.4842548 1.9455566l-2.9298096-3.8010254c-.4501953-.546875-1.2363281-.6445313-1.7895508-.2177734-.4459362.4115448-1.0663605.6122742-1.1645508 1.3759766-.1094074.8509483.4791031 1.0712585 1.9751587 3.1577148-1.600317.4438515-2.2238941 1.638298-1.9341431 2.4516602.2949219.828125 1.0546875 1.0390625 1.6655273 1.2089844l.1430664-.3496094-.1005859.3613281c.9741058.2708626 2.027729.32724 2.87854-.2338867 1.9757538 2.5226212 1.8842373 2.5097084 2.1810303 2.6879883-.0370617.77211.1233921 1.4624443.3862915 1.9960938-2.0487728.0488167-3.3403206-1.2782784-4.8447266-.8376465-.5778198.0324707-.9436646.3947754-1.1536865.8688965-1.2800293.2719727-1.9234009.6811523-1.9816284 1.2636719-.005188.0522461.0168457.1020508.0222778.1535645-.2078876.4755211-.12924 6.18647 3.5006714 10.2478027.112793.1259766.2392578.2385254.3573608.359375l-4.7046509 2.581543c-.015007-1.8025169-1.1614552-4.1187325-2.0023193-4.8276367-.4765625-.3994141-1.0556641-.5771484-1.5864258-.4931641-3.3796673.5513496-1.0063229 8.2600517 1.737793 8.0986328.7461624-.0465508 1.5219917-.6516075 1.7739868-1.8796387l5.3376465-2.9287109c2.1206665 1.9033203 4.8970966 3.0336914 7.503603 3.032959 1.8631554 0 3.7347755-.6165962 5.3421021-1.5292969 3.7010078-.1676407 5.1266785-.4153938 6.6622925-.4707031 5.2573242-.191372 5.9501953-1.5351563 5.9501953-6.709961zm-7.3295288-2.8322754c.0844116-.1323242.111145-.2734375.1033325-.4177246.0897217-.1660156.1838989-.328125.2709351-.4951172.333252.2192383.4373779.3781738.4308472.4433594-.015503.1542969-.2891846.3198242-.8051148.4694824zm-12.1363525-1.8259277c0-.2875977.2330322-.5205078.5205078-.5205078s.5205688.2329102.5205688.5205078-.2330933.5205078-.5205688.5205078-.5205078-.2329101-.5205078-.5205078zm2.1520996-2.4135742c0-.4866066.736145-.4875336.736145 0 0 .4872474-.736145.4869613-.736145 0zm.8886108 1.5930176c.2874756 0 .5205078.2329102.5205078.5205078 0 .2873535-.2330322.5205078-.5205078.5205078s-.5205688-.2331543-.5205688-.5205078c0-.2875977.2330932-.5205078.5205688-.5205078zm1.258667 2.8691406c0-.4866486.736145-.4875336.736145 0 0 .0888672-.0355225.1672363-.0880127.2307129-.1893921-.0078125-.3828125-.0170898-.5784912-.0270996-.0404663-.0590821-.0696411-.126709-.0696411-.2036133zm1.4835205-1.5280762c0-.2873535.2330322-.5205078.5205078-.5205078s.5205078.2331543.5205078.5205078c0 .2875977-.2330322.5205078-.5205078.5205078s-.5205078-.2329101-.5205078-.5205078zm-1.1154175-2.0771484c.4865685 0 .4872398.736084 0 .736084-.486866 0-.4873886-.736084 0-.736084zm-3.590271-12.6855469c.9045525-.265789 2.2196999.123539 3 .1533203 4.1769753.3867569 6.6240845-1.5219498 7.4506836-1.9072266 1.4117546-.7127991 3.3790016 3.8289528 3.9764404 5.2927246-.5426025 3.6550293-1.6661377 7.2768555-3.3030396 10.5966797-.1973877-.0915527-.4140625-.1828613-.6524048-.2739258-.5625648-.9153938-1.793972-1.7059059-2.7563477-2.1740723-1.2686768-.6171875-2.9842529.1188965-4.1304321-.7910156-.6989784-.5551682-1.3281555-2.2886658-2.6230469-1.3007813-.2114258-.3122559-.5214233-.7072754-.9157104-1.0649414-.3590431-3.3695564-1.2076302-4.7696724-1.2883301-6.1665039-.0736464-1.0448226.2518274-2.0307082 1.2421876-2.3642577zm-4.3618183 3.9492187c.9244862-1.5012169 2.2048016-1.7782974 2.3795795-1.9265137-.0374222 1.8132439.7047043 2.4075508 1.1877441 5.9289551-.215332-.105957-.4391479-.1953125-.6801147-.2368164-.0674629-.1183548-.3745422-.499485-2.887331-3.765625zm-2.4746093 2.8847657c-.8216991.3086357-1.7905903-.017807-1.9770508-.0478516-.6171875-.171875-1.003418-.2988281-1.159668-.7382813-.0996094-.2792969.1118164-.6787109.3618164-.9121094 1.0256691-.9598808 3.2185955-.9356041 3.6083984.3125.1624699.5230752-.1252727 1.1208344-.833496 1.3857423zm3.6923828 2.9511718c.0219727-.1845703-.09375-.3564453-.2724609-.40625-.2393379-.0666809-.1532154-.0973663-2.1350098-2.6171875.9321671-1.3180885-.1379032-3.156765-2.3536377-3.0527344-1.9549828-2.604969-2.1196861-2.5523148-2.0714111-2.9228516.0447865-.3465042.3267326-.4069595.8789063-.8789063.2304688-.1757813.5600586-.1318359.7446289.0917969 6.446249 8.3806267 6.2217083 8.0302391 6.2705097 8.1796875.0507813.1533203.2490234.2626953.4106445.2626953.8217773.1230469 1.5860596.9089355 2.0828247 1.6789551-.7955856.8615456-1.7173996 1.5142441-3.1271973 1.7641602-.3859329-.6390075-.5136681-1.3827857-.4277973-2.0993652zm-2.2749024 2.7478028c.2874756 0 .5205078.2331543.5205078.5205078 0 .2875977-.2330322.5205078-.5205078.5205078s-.5205078-.2329102-.5205078-.5205078c0-.2873535.2330322-.5205078.5205078-.5205078zm-4.3148803.291748c-.0372391.4490929.0146885.9730988.2438965 1.3974609-.8538208-.3579102-1.2904053-.6760254-1.2698364-.8823242.0086059-.0861816.2507323-.3061523 1.0259399-.5151367zm-3.5156861 14.9272461c-.1425781.40625-.5097656.8564453-.9785156.8857422-1.9769173.0703506-3.9524956-6.6210938-1.4282227-6.6210938.7373428 0 1.2327423.688736 1.5795898 1.3359375.9516602 1.772461 1.2299805 3.2529297.8271485 4.3994141zm14.4130879-.9238281c-2.9873047.2734375-6.3540058-1.1630859-8.586916-3.6611328-2.0266724-2.267334-3.2078247-5.4331055-3.3234863-8.7788086 3.1780739 2.1622429 14.7697926 3.4053001 20.2028828 2.7416992-.1455078.2346191-.2895508.4702148-.4406738.701416-.4863014-.3147812-1.8831406-.4801941-3.1525879.079834h-.0004883c-2.4481125 1.0783958-3.2155914 4.0152245-1.9643555 5.2060547.61129.57938 1.5243263.5472984 1.4243164.5292969 1.950386-.0088158 4.1419792-2.1596947 4.1484375-4.8369141.0003052-.1171875-.0103149-.2209473-.0281982-.315918.1467285-.1064377.7966347-1.1869812.9944458-1.5180664.4391479-.0869141.8251343-.1948242 1.1483154-.3242188-.5389404 1.8452148-1.2501221 3.8195801-2.4602661 5.4960938-1.8256837 2.5292969-5.0249024 4.4101563-7.9614258 4.6806641zm7.5571289-8.0205078c-.0085068 2.993515-3.1274185 4.8811073-4.3066406 3.765625-.456543-.4345703-.4150391-1.2216797-.2412109-1.7636719.5383377-1.6782036 2.2704735-2.8051758 4.1147461-2.4560547.3940429.0732422.4340819.1513672.4331054.4541016z"/><path d="m60.2290649 19.341423c.2985916-.2664032.0247803-.7540531-.3569336-.6396484-.7504883.2255859-1.65625.0361328-2.4223633-.5048828-3.2809448-2.3215904-3.1524086-9.4216137-7.6660156-12.1757813-2.4985352-1.5234375-6.0371094-1.0576172-8.0527344 1.0673828-1.1008911 1.1596675-1.6014404 2.664062-1.3643188 3.9807124-1.6724968-.3058996-3.3251534-.1610508-4.0023804.0407715-.4713593.1416407-.2644539.8593178.2158203.71875.1123047-.0341797.2250977-.0507813.34375-.0683594 2.7753906-.4638672 5.8178711.3828125 8.1411133 2.2695313 1.4560547 1.1904297 2.5527344 2.7705088 3.171875 4.57129.5234375 1.5380859 1.1074219 3.8105469.1625977 5.8232422-.428894-.2424908-.9815636-.2791328-1.4506836-.0322266-.1979294-.4847202-.5579453-.8263226-.9414063-1.1757813-.000061 0-.000061 0-.0001221-.0002441-1.3869858-1.2646751-1.0358772-2.0412617-1.3299561-2.9069824-.076088-.2241421-.3396301-.3223648-.5458984-.2021484-.70578.4160366-1.4212608.8080883-2.2286377.8144531-.7711754.0065098-1.525238-.3304939-2.086792-.8769531-.0561523-.0576172-.2138672-.3173828-.3178711-.4892578-.2852402-.4706459-.4803276-.8794327-.8930054-.8466797-.5768242.0469742-.9583244 1.0798931-1.1201782 1.2998047-.7029953.8354092-1.6540489 1.3493938-2.9960938 1.2978516-.2509918-.0175114-.8196449-.2928028-1.1069336.3603516-.3002205.5055923-.331768.6408672-1.1079102 1.1679688-.7065792.4775295-.7775345.6415329-.9008808.7519531-.1284389.1301651-.3557777.3747559-.4389648.5498047-.1980114-.0285149-.8513165.0250988-.8925781-.0244141-.4365234-.5302734-.6679688-1.3818359-.8046875-1.9794922-1.0850849-4.5604229 2.3176861-8.6091166 6.1323261-9.9804697.4711304-.1676712.2063141-.8799629-.2539063-.7050781-4.2010956 1.5082827-7.7788391 5.9327898-6.6088886 10.8564463.161417.7032433.5634804 2.1023922 1.1729736 2.4631348-1.2011166 1.224556.1182461 3.2946243 1.9567871 2.7167969 2.9705334 6.9766464 12.4771709 6.64394 15.0037251-.2075195 1.3579674.6120644 3.0439034-.9238358 2.3719482-2.4008789 1.1802673-2.3236542.5626717-5.3446121-.5634155-7.6955566 2.7362175 1.5811672 4.6049843 2.7948952 6.692749 3.2431641 1.7799303.3795807 3.753422.1092789 5.0878908-1.0810555zm-30.2368183 6.7060547c-.1351223-.6305752.4403858-1.1528053.9875488-.921875.0822144.5629883.2156982 1.1113281.3930054 1.642334-.7396946.2025185-1.2712688-.2110195-1.3805542-.720459zm11.9824238 5.1972656c-2.1948242.9375-4.9204102.671875-6.9443359-.6777344-1.8757935-1.2502441-3.1954365-3.6535645-3.3848896-6.1506348.1158504-.1770477.2562714-.286171.4356709-.4851074.171875-.1777344.3862305-.3222656.612793-.4755859 1.1788063-.8009434 1.1911659-1.2219715 1.3095093-1.3505859h.000061c.0185547-.0351563.0341797-.0683594.0571289-.1181641.1000404.0176544.4818764.0850372.3818359.0673828 1.5197868.0960426 3.1219025-.6195545 3.8843384-2.0141602.0772095-.1408691.1904297-.3439941.2914429-.4799805.2576065.392849.5075264.8725967.6821289 1.0283203.4404297.4296875.9804688.7509766 1.565918.9306641 1.2475586.3701172 2.2426758.0097656 3.1992188-.5107422.0540581.3648987.0910263.7229328.2163086 1.0449219.6535378 1.708519 2.1328087 2.0727177 2.0371094 3.0087891-.0061035.0598145.0147705.1147461.0354614.168457-.2053987 2.5126382-1.9192469 4.9785748-4.3796999 6.0141602zm4.9667969-4.6542968c-.0246582-.0114746-.0505981-.0124512-.0761719-.0180664.1434631-.5428467.1904411-.7398796.2341309-1.3540039.3428421-.3579426.8505173-.2991314 1.1418457.0302734.0342407.0380859.0774536.064209.1222534.0859375.0148315.0603027.0505981.1066895.0535278.1738281.0179291.7602482-.8580704 1.3752804-1.4755859 1.0820313zm.7886352-10.6811533c-.6047363-.9230957-1.3331299-1.7592773-2.1914673-2.4604492-1.2901611-1.0478516-2.7909546-1.7880859-4.3504639-2.1962891-.3560181-1.1479492.0562134-2.5620117 1.086792-3.648437 1.7827148-1.8769531 4.9086914-2.2910156 7.1181641-.9423828 4.7499924 2.8977733 4.1528664 11.8637066 9.1870117 12.8212891-3.9545936 1.5802025-8.6432571-2.6363369-10.8500366-3.573731z"/><path d="m35.1629639 24.3480148c-.4163818 0-.7539673.3376465-.7539673.7539063 0 .4165039.3375854.7541504.7539673.7541504s.7539063-.3376465.7539063-.7541504c-.0000001-.4162598-.3375245-.7539063-.7539063-.7539063z"/><path d="m39.4111328 25.1019211c.4164429 0 .7539673-.3374023.7539673-.7539063 0-.4162598-.3375244-.7539063-.7539673-.7539063-.4163818 0-.7539063.3376465-.7539063.7539063.0000001.4165039.3375245.7539063.7539063.7539063z"/><path d="m46.7764282 60.3189621-13.4180908 6.1220703c-.090538-1.2010345-.7340927-3.3160515-1.5721455-4.1572266-1.2880955-1.2952614-3.4531555-.6400757-3.4550781 2.2197266-.0024414 1.3847656.3608398 2.7509766 1.050293 3.9521484 1.389986 2.423027 3.7526302 1.5519257 3.9718647-1.1884766l13.7346802-6.2666016c.1884766-.0859375.2714844-.3076172.1855469-.4960938-.0859376-.189453-.3081055-.2714842-.4970704-.1855467zm-14.4394531 8.0078125c-.1782227.3916016-.5590839.8125-1.0527363.7958984-1.5132561-.0402832-2.7672062-4.4196472-1.9316406-6.015625.2003765-.3813171.5877018-.7099609 1.012207-.7099609.7658844 0 1.2370586.7715759 1.5371094 1.4746094.5765362 1.3494186 1.0421123 3.1174469.4350605 4.4550781z"/><path d="m45.6963501 8.0689611c-.489048-.0850515-.6171379.6539822-.1289063.7382813 2.355957.4101563 4.5307617 1.9697266 5.675293 4.0703125.2345352.4319506.8974495.0814047.6582031-.359375-1.2700195-2.3310547-3.5898437-3.9951172-6.2045898-4.4492188z"/><path d="m32.5005493 17.8922043c-.1710434.4662647.5338058.723877.7041016.2578125.4658203-1.2705078 1.6166992-2.296876 2.9326172-2.6132822.4921837-.1170731.2928619-.8581886-.1757813-.7285156-1.5766601.3789062-2.902832 1.5605478-3.4609375 3.0839853z"/><path d="m40.1948853 27.1304855-3.9477539.5527344c-.2011719.0283203-.3432617.2109375-.3208008.4130859.1230469 1.1044922.640625 1.9580078 1.4199219 2.3427734 2.0057945.9905148 4.2129517-.8810368 3.3535156-2.9414063 0-.2768534-.2520447-.4303988-.5048828-.3671874zm-.5673829 2.4189453c-.5097656.4423828-1.3129883.5302734-1.949707.2177734-.5927734-.2929688-.8417969-.9326172-.9458008-1.3945313l3.3188477-.4648438c.1743164.5654299.0063476 1.2685549-.4233399 1.6416017z"/><path d="m18.3154888 36.4498215c.3635082 0 .5144672-.4668503.2192383-.6796875l-2.4711914-1.7724609 3.3432617-.2832031c.2363968-.0209198.3903904-.2496605.3305664-.4707031l-1.0795898-4.0322266c.8608398.8085938 1.7724609 1.5693359 2.7216797 2.2695313.8827991.6534729 1.6471233.615696 2.0883789-.4960938l1.5039063-3.8154297 1.1269531 3.0244141c.1737747.4633999.8763046.2039909.703125-.2617188l-1.46875-3.9414063c-.0546875-.1455078-.1928711-.2431641-.3481445-.2441406-.0009766 0-.0024414 0-.003418 0-.1538086 0-.2924805.09375-.3486328.2373047-2.0024567 5.07724-1.9553337 5.0637054-2.125 5.1513672-.090332.0419922-.2807617.0380859-.6831055-.2578125-3.4787025-2.5661697-3.5265083-3.5398235-4.0703125-3.2275391-.1489258.0839844-.2216797.2578125-.1777344.4228516l1.3203125 4.9316406-3.909668.3310547c-.3454762.0302277-.4696541.4751205-.1870117.6787109 3.4053745 2.4114151 3.2878551 2.4355469 3.5151367 2.4355469z"/><path d="m39.3902588 39.7852707c.8762856.7883644.8036728.6225548.6835938 1.8156738-.024353.2419434-.2305298.9343262.2053833.869873.262188-.0388184.3352013-.1434517 1.3267212-.5969238.4193802-.1918869.774868.0785103 1.2645874.3356934.215271.1132813 1.057251.7897949 1.0856323.2426758.0141792-.2742233-.0866966-.3977089-.3522339-1.4060059-.0606689-.2299805.0004883-.458252.1635742-.6098633.2845459-.2648926 1.2746582-.8823242.7128906-1.2502441-.6677399-.4371872-1.5416527-.0042229-1.9622192-.7128906-.1095581-.1848145-.2190552-.3696289-.3286133-.5541992-.137661-.23246-.3622742-.8538017-.626709-.8310547-.4074097.034668-.6203613 1.0097656-.7495728 1.2932129-.1821365.3996353-.6097298.3598442-1.086731.4001465-.2515869.0209961-.68396-.027832-.9069214.0930176-.4488524.2434081.4024049.7597655.5706178.9108886z"/><path d="m37.447937 55.0643234c-1.7482109-.3004494-1.9468117-.1749153-2.0809937-.4470215l-.819397-1.6601563c-.1211548-.2456055-.4713135-.2456055-.5924683 0-.8360214 1.5887489-.7679367 1.7974663-1.0681763 1.8410645l-1.8322163.2661133c-.2709351.0393066-.3791504.3723145-.1831055.5634766 1.2525616 1.2861328 1.472208 1.2857056 1.4208393 1.5847168l-.3129902 1.8249512c-.0462646.2697754.2370014.4758301.479372.3483887 1.6101341-.7940483 1.6776466-1.0029221 1.946228-.8618164l1.6387939.8618164c.2423706.1274414.5256348-.0786133.4793701-.3483887-.2574997-1.776722-.4351959-1.9053993-.2179565-2.1171875l1.325806-1.2924805c.1960449-.1911621.0878906-.5241699-.1831055-.5634766z"/></g></svg>