<svg id="Layer_1" enable-background="new 0 0 75 75" viewBox="0 0 75 75" xmlns="http://www.w3.org/2000/svg"><g id="Eating_Apple" fill="rgb(0,0,0)"><path d="m22.4762726 56.0364265c-.0019531-.1923828-.0029297-.3740234.0410156-.5517578.4936142-2.0042458 3.8346653-2.0404396 4.9873047-1.3808594.5732422.3276367.8818359.8398438 1.0664063 1.7675781.1416016.7133789.3789063 1.9077148 1.2714844 2.2700195.5754337.2335892.9140072.0779266 3.7734375-.4091797 1.3337593-.2316437 2.1461029-.713726 2.109375-2.2802734-.0048828-.2070313-.1542969-.3378906-.3837891-.3662109-.2070313.0048828-.3710938.1767578-.3662109.3837891.0250969 1.1157722-.4472122 1.3425674-1.4892578 1.5239258-2.9371204.5161285-3.0748138.5702248-3.3613281.453125-1.3770695-.5586243.1263676-4.4207001-4.3691406-4.4672852-1.7838154-.02771-3.5439491.6180382-3.9667969 2.3251953-.1262627.513401.019413 1.0747452-.1699219 1.4418945-.1777344.3427734-.5361328.6928711-1.7431641.3574219l-2.5546875-.7182617c-1.1845417-.3417473-1.5123491-.6445847-1.2265625-2.2890625.2727718-1.5506516.4928265-3.1952133.8398438-4.7539063.2547016-1.1482506.7757301-1.3356781 1.7558594-.8935547 3.8225479 1.8077545 10.4006062 1.7372017 14.5126953.7998047 1.1237869-.2229156 1.2131348.0201607 1.28125.7788086l.390625 4.1738281c.0478058.5031509.7946701.4158096.7460938-.0722656-.4414558-4.7597618-.376503-4.9367638-.8271484-5.3691406-.4879494-.4501114-1.1042824-.3742256-1.7470703-.2446289-3.9828892.9059639-10.3833828.9826469-14.0410156-.746582-1.5322399-.7027588-2.4738655-.0731735-2.8037109 1.4111328-.3526487 1.5890732-.5721512 3.2229347-.8457041 4.7875977-.3450785 1.9823914.1552916 2.6751175 1.7597666 3.1396484l2.5585938.7192383c1.6712262.4632454 2.8174702-.1034126 2.8017575-1.7900391z"/><path d="m17.7262726 58.110157-1.7941904 6.5925255c-.0921631.0267944-.1887207.0465698-.2722168.0852051-.9502211.440918-2.7912979.9925537-3.3818359 2.1254883-.4413977.8412933-.0019569 1.7342911.9443359 1.8696289.0830078.012207.1660156.0175781.2480469.0175781 1.0264063 0 2.8857832-.8608398 3.9423838-2.5058594.5388203-.838562.2012691-1.5403748-.684082-1.6594238l1.722168-6.327877c.1290053-.4808388-.5938417-.6736413-.7246095-.1972657zm-3.7011728 9.8432579c-.2001953.0585938-.4580078.1210938-.6972656.0874023-.5505905-.0792465-.7497988-.6369019.1191406-1.3251953.7544498-.5985489 1.6149654-.8240585 2.5273438-1.2470703.3828135-.1772461.8164072-.1210938.9248056.0024414.1654586.1915055-.9134245 1.9110108-2.8740244 2.4824219z"/><path d="m32.9586945 66.0535126c-.5124245 1.755127 2.4303818 4.5504303 3.8173828 3.6464844.3554688-.2333984.5498047-.6948242.4951172-1.175293-.0449219-.3881836-.2324219-.7275391-.4101563-1.0087891-.6100883-.9631577-1.5783234-2.1148376-2.7189941-2.2382813l-1.1843262-6.8427696c-.0814285-.4850807-.825161-.3628159-.7382813.1279297l1.1883545 6.8664513c-.1779785.1123657-.3522949.2962646-.4490966.6242676zm3.5664062 2.5561523c.048378.42173-.1967812.6709137-.8300781.4067383-1.6683464-.6889267-2.4734955-2.794548-1.8341064-2.9852295.0102539-.0009155.0201416-.0009155.0303955-.0025635.0059814-.0010376.010376-.0050049.0161133-.0062866.3452988-.0629272.9247856.2687912 1.1879883.5175171.430664.4082031 1.364498 1.4831314 1.4296874 2.0698242z"/><ellipse cx="32.249" cy="19.237" rx="1.146" ry="1.153"/><ellipse cx="21.472" cy="19.002" rx="1.146" ry="1.153"/><path d="m16.2810822 24.4899769c.9173584 3.6171875 3.7712402 6.6383057 7.3289795 7.7178364 3.9965916 1.2097015 8.8009911-.0721436 11.625-3.7299824.3030586-.3904819-.2881889-.8517132-.59375-.4580078-2.6436176 3.4169731-7.1132164 4.5917339-10.8134766 3.4702148-3.3583984-1.019043-6.0527344-3.8955078-6.8652344-7.3295898-.6009541-2.480114.0821724-5.0943184.1533203-5.6499023.1829967-.3241138.2460918-.5699921.8466797-1.2631836 2.9913349-3.4499063 5.2683372-2.2233706 6.7021484-3.9560547 1.0917969 1.4619141 2.7421875 2.4990234 4.5302734 2.8295898.5844574.1897602.7527905-.6330462.2324219-.7202148-.0039063-.0009766-.0068359-.0014648-.0107422-.0019531-.3066406-.1787109-1.0654297-1.4794922-1.0849609-1.7329102.3083839-.1366415 1.7057571.6769876 1.9511719.7871094 3.0768623 1.3790283 4.6259918 2.267437 6.4150391 5.8613281.0037842.0074463.0096436.0189209.0137939.0274048.286438 1.9757786-.1275558 4.5120754-1.3370361 6.5775757-.1054688.1787109-.0449219.4082031.1337891.5131836.1787758.1040421.4083557.0450096.5126953-.1342773.4688721-.8005981.8294678-1.6658936 1.0866699-2.5603638 2.7666969-.7153511 2.6523552-3.4433422 1.024292-3.8441772.2409668-.206543.3909912-.5621338.3948975-1.0427246.028511-4.926487-2.5292816-8.9613371-6.359375-11.190918-1.8681641-1.0874019-3.3876953-1.4594722-5.2275391-1.2841792-1.0644283.1014652-2.1528625.4046345-2.5136719.5703125-.2186737-.5880823-.1641674-1.5999951.0507813-2.1826172.2712631-.27983-.013092-.7375479-.3808594-.6201172-.1000271.0604644-1.1635838.3213129-1.6728516 1.5537109-.8935547-.4770508-1.9365234-.6445313-2.9404297-.4599609-.359869.0665212-.4193611.5589924-.0859375.7104492.9298744.4210443 1.6258965 1.2761674 1.9345703 2.1420894-2.2547855-.696723-7.0775051 2.4929399-7.1044931 7.5800781-.0069838 1.1907616.2521496 2.4183598-.1835938 3.4262695-.1202803.2785454.1245823.5765457.4228516.5151367.2532959-.053833.5178223-.0161133.7634277.0733643-2.1117725.9186153-2.1015663 4.0417957 1.0511485 3.8054809zm21.0362548-.6018067c.1531982-.7449341.2304688-1.5025635.2282715-2.2584839.9937859-.3748645 1.7080956 1.5083333-.2282715 2.2584839zm-22.3400888-7.2145385c.0087891-1.6679688.6308594-3.3549805 1.7070322-4.6293945 1.0804291-1.2815094 3.6106834-3.0262823 4.9238281-1.9692383.2449379.1970167.6103516.0233412.6103516-.2915039.001091-.9876823-.6991692-2.1635923-1.4638672-2.8378901.5996094.0756836 1.1835938.2924805 1.6738281.6323242.2211475.1554298.5327511.0282907.5830078-.2397461.0732422-.3964844.2832031-.7641602.5771484-1.0424805-.1051769.6503386-.0688057 1.5722675.2441406 2.155273.1669922.3149414.4658203.3789063.8818359.1875.3555393-.1568556 1.338438-.4245262 2.2958984-.515625 1.703125-.1621089 3.0390625.1713867 4.7802734 1.1855469 6.3722916 3.709528 6.2356224 10.8607903 5.8535156 11.0332031-.0019531 0-.0996094-.0097656-.2753906-.3618164-.9335938-1.8764648-1.9208984-3.1982422-3.1054688-4.159668-1.4355812-1.1668825-3.1958351-1.7883825-3.9638672-2.2026367-.5991631-.3221436-1.5852032-.8663597-2.1972656-.6655273-.8646412.280899-.3705463 1.3453569.0996094 2.1118164-1.3203125-.5087891-2.4804688-1.4492188-3.2333984-2.65625-.1608925-.256156-.5444736-.2272577-.6630859.0512695-.2373047.5551758-.8310547.8686523-1.1650391 1.0058594-1.3415775.5554676-3.2328472.395669-5.7441406 3.2915039-.71768.8280029-1.3230362 1.8247528-1.5292978 3.3896484-.2890625-.1704102-.6162109-.2768555-.9501953-.3051758.2568752-1.0509167.0542766-2.1464272.060547-3.1669922zm-.3183594 5.4580078c.2259521-.4346313.7056885-.7640381 1.2860107-.8922729.0119629.0185547.0311279.0317383.0421143.0509644 0 .0003662.0001221.0008545.0003662.0012817-.0355225.8762207.0197763 1.6994629.1496592 2.4562378-.4682627.0283203-.9567881.0061646-1.2760019-.2578125-.350586-.288086-.4404297-.8979493-.2021485-1.3583985z"/><path d="m26.2770538 27.9929676h.0205078c2.883152-.0143013 4.8755913-2.9152489 4.4667969-4.4580078-.1259766-.4736328-.5029297-.8330078-.9375-.8935547-.4169922-.0585938-.7666016.1489258-1.0488281.3149414-.1001778.059391-.1685371.0999184-.0683594.0405273-.921875.5371094-2.0908203.7319336-3.2041016.5302734-.9416103-.1683979-2.4327412-1.7832985-3.3642578-.7514648-1.2913036 1.4254838.7141438 5.2172852 4.1357422 5.2172852zm-3.2412109-4.7905273c.6197929.1211834 1.4522171.9043026 2.3369141 1.0629883 1.3027344.2324219 2.6230469.0136719 3.7138672-.6201172.4065895-.2434521.5160465-.2781887.6367188-.2607422.1357422.0185547.2685547.1630859.3164063.3432617.0488281.1860352.03125.4145508-.0566406.7207031-.4550781 1.5849609-2.0410156 2.7866211-3.6894531 2.7944336-.0058594 0-.0107422 0-.0166016 0-1.6367188 0-3.2197266-1.1640625-3.6865234-2.7133789-.1527369-.5074749-.129513-1.4433365.4453123-1.3271484z"/><path d="m27.2751007 9.9636707c1.6816406.2915039 3.2675781 1.215332 4.3505859 2.534668.3150501.3834515.8947525-.0916367.5800781-.4755859-1.1962891-1.456543-2.9462891-2.4760742-4.8017578-2.7983398-.5022525-.0782014-.6087875.6554517-.1289062.7392577z"/><path d="m48.4081573 44.2288094c3.6714554-1.092495 8.2800293-4.7609291 8.2800293-8.4199829 0-2.0100098-1.4300537-3.9400043-3.460083-4.2500019-1.1415024-.1679459-1.7364502-.061079-2.7363281-.7008667.5761375-1.2682056 1.6244354-2.2456932 2.8262939-2.7009277.296875-.1191406.9150391-.3666992.9150391-.9833984-.0185547-.453125-.4091797-.7436523-.7841797-.8251953-.140564-.0229034-.240654-.0340614-.7861328.0053711-.5048828.0214844-1.0224609-.2246094-1.3515625-.6113281-.1972656-.2314453-.5683594-.6582031-1.0507813-.4663086-.953228.3475037.0618973 1.5621624-1.210083 4.0684814-.767128-1.1002102-1.5786972-2.7998714-3.7021484-4.0458374-1.4000244-.8200073-2.6500244-.8500366-4.1900635-.5100098-4.009655.9025345-6.5445518 7.6696529-4.6654053 13.2649555-.5715714-.2506752-1.3051376-.5069542-1.9086914-.3450317-.1541786-1.7525368.0538559-3.9412041-1.3197021-4.9164429-1.506897-1.0596752-3.0435047.2404289-5.8681641.5131836-2.0368881.1732864-4.7443047-.1845627-6.3359375-1.2573242-.5820313-.3930683-1.3046875-.8808613-2.0136719-.6103535-.8847656.3325195-.8955078 1.3725605-.9013672 1.9936543l-.0019531.1274414c0 1.6567383-.2333984 3.371582-.5849609 5.4370117-.0341797.2045898.1035156.3979492.3076172.4326172.1909008.0363617.3963966-.0949783.4326172-.3066406.7092152-4.1843758.5686035-5.264267.5966797-5.6826172.0058594-.6279297.0419922-1.1591797.4179688-1.300293.3476563-.1342773.8662109.2197266 1.3271484.5307617 1.7311783 1.1693039 4.5957546 1.575222 6.8242188 1.3823242 2.8322983-.2726746 4.2429142-1.4380188 5.3671875-.6474609 1.0313339.7337189.8520966 2.5799828 1.03479 4.8499756-.010498.0197144-.013916.0384521-.0224609.0579834-.1245461-.0747681.7986526.1380882-13.4195557-2.5900879-.4832287-.1004868-.6311932.6431656-.140625.7363281 14.1340141 2.6335182 13.2518654 2.6628113 13.5548096 2.4805908.0239258.0585327.0505371.1126709.0808105.1623535l.1046143 1.6612549c.3118057 4.8714218.7782784 6.0773811-2.0996094 6.5463867-3.7197266.6391602-7.5136719.5761719-11.2822266-.1884766-3.7292213-.751461-3.3395977-2.5563011-2.6347656-6.3642578.0886765-.486557-.6464787-.6253586-.7382813-.1357422-.7521381 4.116787-1.0302067 6.3771362 3.2246094 7.2353516 3.7988205.7701721 7.6885395.8575668 11.5546875.1928711 3.6052055-.5885658 3.0235596-2.5903664 2.7246094-7.3339844l-.0472412-.7427979c.9984131.9946632 2.9706306 2.8358994 4.1136475 2.0245361.0393066-.0217285.0584717-.0598755.0928955-.0845947 2.0728416 1.8791428 6.1358566 3.316742 9.4757079 2.3165284zm-9.8430175-2.9667969c-.6130066.9067345-3.241394-1.6607056-3.8925781-2.3974609-.1484375-.1733398-.1552734-.2265625-.1552734-.2353516 0 0 .0058594-.0307617.0673828-.097168.3340263-.3654671 1.4956741.130928 1.9033203.3413086.7275543.3685532 2.5116386 1.7131233 2.0771484 2.3886719zm12.822998-4.6032105c.0699463-.2000122.2900391-.289978.4801025-.2199707.1899414.0699463.289917.289978.2199707.4799805-.6201172 1.6400146-1.9799805 2.9299927-3.6400146 3.4799805-.0300293.0100098-.0699463.0100098-.1099854.0100098-.445446 0-.5089264-.593853-.1201172-.7299805 1.4300538-.460022 2.6401368-1.6199952 3.170044-3.0200196zm-5.9300537-5.4199848c.5283203-.0488892 1.0666504.1255493 1.6328125.5075073-.2897987.3894711.2733192.8291721.5836182.4649067.4860535-.5744305 1.1087379-.7660484 1.953125-2.3325214.6831284-1.2466545.9892845-2.792635.9042969-3.8691406.1652107.131691.8331566 1.1444893 2.1523438 1.09375.3892288-.0277481.5158501-.0362644.6240234-.0185547.1054688.0229492.1738281.0952148.1748047.1040039 0 .3037891-2.3003883.4824162-3.6445313 3.28125-.6002579 1.2850418-.5042953 2.1134548-.5976563 2.4443378-.1076889.3854103.4111862.6845703.6628418.2901001.1429443.0140381.2871094.0197754.4344482.0143433.5095901-.0212555.5196419.7266579.0300293.75-.0600586 0-.1201172.0100098-.1800537.0100098-2.5640144 0-3.3345413-2.1460438-4.6600342-1.9899921-.4983138.0226764-.5410461-.7029878-.0700683-.7500001zm-3.9099121 1.0999775h-.0600586c-.1799316 0-.3399658-.1300049-.369873-.3200073-.2800293-1.8800068.8398438-3.8499775 2.5898438-4.579958.4548149-.1914787.7475204.4974022.2900391.6900024-1.4199219.5999756-2.3599854 2.2599487-2.1398926 3.7799683.0299071.2100239-.1101075.4000263-.3100587.4299946z"/><path d="m44.3376007 20.8645496c2.4697266-3.2348633 5.7392578-5.8193359 9.4570313-7.4731445.4539719-.2024155.1480904-.8863945-.3046875-.6855469-3.8320313 1.7050781-7.203125 4.3691406-9.7480469 7.7036133-.3048821.3982391.3027267.8418064.5957031.4550781z"/><path d="m58.1764679 16.2327137c-2.2333984 1.3867188-4.1845703 3.2773438-5.6425781 5.4672852-.2745628.4153614.35112.8268356.625.4160156 1.3984375-2.1015625 3.2705078-3.9155273 5.4140625-5.246582.418499-.2592373.0293197-.8990241-.3964844-.6367188z"/><path d="m58.8795929 28.7917957 3.9013672-3.8041992c.1484375-.1445313.1513672-.3823242.0068359-.5302734-.1445313-.1489258-.3818359-.1503906-.5302734-.0068359l-3.9013672 3.8041992c-.3547821.3454456.1673088.8837413.5234375.5371093z"/></g></svg>