<svg id="Layer_1" height="512" viewBox="0 0 512 512" width="512" xmlns="http://www.w3.org/2000/svg"><g><path d="m151.5 404.9-11.6-11.6-15 15v-21.2h-16.4v21.2l-15-15-11.5 11.6 14.9 15h-21.2v16.4h21.2l-14.9 14.9 11.5 11.6 15-15v21.2h16.4v-21.2l15 15 11.6-11.6-15-14.9h21.2v-16.4h-21.2z"/><path d="m290.8 404.9-11.6-11.6-15 15v-21.2h-16.4v21.2l-15-15-11.6 11.6 15 15h-21.2v16.4h21.2l-15 14.9 11.6 11.6 15-15v21.2h16.4v-21.2l15 15 11.6-11.6-15-14.9h21.2v-16.4h-21.2z"/><path d="m430 404.9-11.5-11.6-15 15v-21.2h-16.4v21.2l-15-15-11.6 11.6 15 15h-21.2v16.4h21.2l-15 14.9 11.6 11.6 15-15v21.2h16.4v-21.2l15 15 11.5-11.6-14.9-14.9h21.2v-16.4h-21.2z"/><path d="m475.2 214.5c1.3-8 2-16.1 2-24.1 0-81.3-66.2-147.5-147.5-147.5-53.7 0-102.1 28.5-128.3 75-13.7-6.2-28.7-9.4-43.8-9.4-56.5 0-102.9 44.2-106.3 100.4-28.5 7.3-49.3 33.5-49.3 63.5 0 36.1 29.4 65.5 65.5 65.5h376.9c36.1 0 65.5-29.4 65.5-65.5.1-24.5-13.3-46.6-34.7-57.9zm-30.7 107h-377c-27.1 0-49.2-22.1-49.2-49.2 0-24.3 18.1-45.2 42.2-48.6l7-1.6v-7.1c0-49.7 40.4-90.1 90.1-90.1 31.2 0 50.8 15.2 50.8 15.2s33.6-80.8 121.2-80.8c72.3 0 131.1 58.8 131.1 131.1 0 16.9-4.2 33.8-4.2 33.8l6.3 2.6c18.6 7.6 30.7 25.4 30.7 45.5.1 27.2-21.9 49.2-49 49.2z"/><path d="m83.9 223.2h16.4c0-36.1 29.4-65.5 65.5-65.5v-16.4c-45.1 0-81.9 36.7-81.9 81.9z"/></g></svg>