<svg id="Layer_1" enable-background="new 0 0 75 75" viewBox="0 0 75 75" xmlns="http://www.w3.org/2000/svg"><g id="Eating_Carrot" fill="rgb(0,0,0)"><path d="m48.630455 35.6351929c.0356445-.1640625.1015625-.4692383-.1708984-.7436523-.2739258-.2529297-.5600586-.1630859-.7426758-.105957v.0004883c-.0829544.0232277-.8301582.0748367-1.4189453.0410156-2.310215-.1074486-4.4934273-.948185-6.1689453-2.2661133-.3134766-.230957-.7363281-.1894531-.984375.0986328-.1032143.163208-5.7152748 6.2450829-7.1811523 15.5595703-.1416016.9375-.2509766 1.9316406.0922852 2.871582.8337059 2.2185974 5.4400368 5.1464844 10.925293 5.1464844 2.331543 0 4.6298828-.519043 6.6606445-1.5390625 1.9839478-1.0028915 2.0599861-2.1380234 1.2319336-4.1918945-.0368652-.1058235-.9007874-2.0769348-1.5649414-5.0869141-.1074333-.4857826-.8387985-.3228188-.7324219.1611328 1.3834572 6.2716827 3.4236603 7.0831909.7275391 8.4482422-4.5718117 2.2950821-10.5545425 1.8839188-14.8447266-1.2470703-1.8461609-1.3878517-2.0824203-2.2787018-1.7543945-4.4487305 1.4118538-8.9716873 6.3662033-14.215538 6.9702148-15.1757813 1.7657433 1.3899498 4.095005 2.302887 6.5834961 2.4189453.4838333.0287552 1.4130898-.0002174 1.6303711-.0561523-.2500763 2.4501114-.1333885 5.7847977.4458008 8.84375.0922279.486824.8297882.3485184.7373047-.1396484-.4261208-2.244072-.5955544-4.5640297-.5400391-6.6572266.0093841-.3754158.0526198-1.6446953.0986327-1.9316406z"/><path d="m42.121666 20.0511494c-.644043-.2275391-1.4160156-.0341797-1.8730469.4770508-.3319626.3694973.2300415.8703461.5585938.5.581665-.6496372 1.6756134-.2612171 1.7167969.6103516.0092773.2011719.175293.3574219.3740234.3574219.0063477 0 .012207 0 .0180664-.0004883.7194633-.0339375.2929534-1.557747-.7944336-1.944336z"/><path d="m49.3907089 23.4608173c-.6264648-.3125-1.4541016-.0957031-1.8442383.4863281-.2769547.414259.34869.8289204.6230469.4179688.1806641-.2709961.5952148-.3779297.8857422-.2333984.2910156.1450195.4516602.5419922.3442383.8486328-.1634979.4683037.5435562.7162189.7080078.2480469.2314453-.6616211-.090332-1.4545899-.7167969-1.7675782z"/><path d="m51.7896347 9.2010517c-1.7397003-3.4459691-4.4749107-4.0786071-6.2827148-3.1972656-1.1272163.5687642-1.8565521 1.9395766-1.6113281 3.168457-.9643555-.0834961-2.0087891-.1333008-3.0141602.0688477-1.6489258.3339844-3.1572266 1.8066406-3.4335938 3.3530273-.2662697 1.4903612.7191963 2.7338009 1.9450073 3.1585693-2.116394 2.59198-3.1590576 6.385376-2.6481323 9.8702393.7642517 5.2099438 6.5960388 9.7315998 12.7900391 7.498106 1.2905121-.4722481 2.2121735-1.2035198 3.3582764-1.9969463.5837326.6205463 1.4964371.85495 2.2652588.5950928 1.1168823-.3746796 1.8209152-1.7423687 1.1290283-2.9051514 1.8825264-.1201897 3.1474419-.9694557 3.7796631-2.0313721.4428711-.734436.7880859-2.2407837.1474609-3.0425415.3534317-.3400383.9508286-.5785618 1.3642578-.9838867 3.8244019-3.747467 1.3440628-8.5637503-2.1552734-8.1191406.4121094-1.4272461.1445313-3.0913086-.7416992-4.3447266-.2873955-.4053926-.8985596.0283556-.6123047.4326172.8842773 1.2509766 1.0488281 2.9746094.4091797 4.2900391-.1487617.3060865.1562233.6399069.4790039.5112305 1.1279297-.4584961 2.6044922.097168 3.2983398 1.2382813 1.1802139 1.925333.1245384 4.6918736-1.8198242 5.8984375-.3740234.2314453-.7978516.4941406-1.0527344.9243164-.1030273.1733398-.0507813.3969727.1186523.5063477.8016129.5184002.4181366 4.158329-4.0077515 3.9673462-.1392212-.0732422-.2862549-.1291504-.4402466-.1635742.1484985-.5144043.2657471-1.0439453.3693848-1.553772l-.0102539-.0019531c.0151367-.027832.0268555-.0576172.034668-.0883789h.0009766l-.0009766-.0004883c.00354-.0136719-.0018311-.0280762.0003052-.0421143.1099892-.5582504-.0066681-2.7125988-.6536255-3.4227295-.6214409-.6898804-1.4270744-.419672-1.9140625-1.831543-.0078125-.0224609-.0175781-.0439453-.0292969-.0639648-.000061-.0001221-.0001831-.0001831-.0002441-.0003052-.0150681-.0301399-.0124969-.0321579-.0388184-.069519-.4145508-.5878906-.5947266-1.3544922-.4941406-2.1079102.043457-.3535156.0810547-.6582031-.125-.8637695-.362999-.3611412-.9224091.0904865-2.1176758-.1308594-.828125-.15625-1.6264648-.5537109-2.2558594-1.1259766-.2182617-.199707-1.0927734-1.3310547-1.2324219-1.7202148.1480446-.325387-.2013702-.6522341-.5170898-.4868164-.0024414.0014648-.0053711.003418-.0083008.0048828-2.5530472 1.4022036-3.3383179 1.0558062-4.9467773.9086914-.328125-.0297852-.6665039-.0600586-1.0053711-.1293945-1.2258797-.2464504-2.1430702-1.2146854-1.9233398-2.4453125.222168-1.2436523 1.4980469-2.4770508 2.84375-2.7495117 1.1005859-.2216797 2.2539063-.1113281 3.3701172-.0043945.287796.0297356.505661-.2761497.3701172-.5429688-.4818077-.9463644.1052361-2.2660947 1.0698242-2.753418.9541016-.4624023 2.2685547-.3061523 3.2763672.394043.8583984.578125 1.5776367 1.5185547 2.1987305 2.8754883.1032677.2269802.4029808.2941475.5913086.1225586 1.4462891-1.2993164 3.7880859-1.3969727 5.3183594-.25.3081017.4569721 1.0633736-.1143856.4682617-.5673828-1.6889649-1.2866213-4.1889649-1.2817385-5.9033204-.0493166zm-10.7216797 13.9663086c-1.5317383-.1621094-2.6459961-1.5400391-2.484375-3.0712891.2593918-2.4583588 3.3889198-3.392355 4.949707-1.4628906 1.5473824 1.9148846.0214692 4.7987328-2.465332 4.5341797zm8.2109375 9.2490826c-6.4089851 2.3089905-13.8751335-3.2020111-11.4431763-11.9872417.0222206 1.9186192 1.5673065 3.5042725 3.5320435 3.5042725 1.2996635 0 2.5297394-.7138023 3.1533203-1.9580688.7984734-.2605076 1.5212898.4148693 1.4013672 1.1797485-.0106201.0683594.003479.1325073.0271606.1925659-.8038177 3.4561157 3.3310013 5.7441578 5.8532104 3.3822021l2.3442993 1.607666c-.0023804.0418701.0036011.0820313.0151978.1225586-.3580933.8259277-.8666992 1.487915-1.4971924 1.9084473-1.1481551.7796668-2.1059188 1.5788821-3.3862304 2.0478496zm1.8623047-6.0933209c-1.9165115 1.5505104-4.7969856.0175686-4.5341797-2.4648438.1512642-1.4370251 1.3647308-2.5004883 2.7719727-2.5004883 2.6335449.0000001 3.7935791 3.3221093 1.762207 4.9653321zm3.7783203 4.6851197c-.477356.1608887-1.0482788.0073242-1.4232178-.3486328.5576782-.4824219 1.0152588-1.1259766 1.3502197-1.8969727.1422729.0168457.2767334.0224609.4140625.0324707.9377747.6387958.5768548 1.9048843-.3410644 2.2131348zm-8.9555664-15.7144166c.3647461.7666016 1.3085938 1.8203125 1.359375 1.8623047.7216797.6572266 1.6499023 1.1191406 2.6137695 1.3012695.8561516.161211 1.4761772.0236816 1.6542969.0126953-.1054916 1.0143471-.0152054 1.8844891.5905151 2.7597656.229126.6469727.6080322 1.1595459 1.0999146 1.4838867.323349.2088051.751442.3499203.956543.5776367.4427948.4855556.5098305 2.1405678.472229 2.8251343-.0580788.1745911-.086731.5008926-.3520508 1.4569092l-2.0680542-1.4179688c1.5603371-2.2532063.0876884-5.2502365-2.5335693-5.5276489-1.2262077-.1280346-2.4844017.3604259-3.2880859 1.5377197-.3458862-.6820469-.9458961-1.0052757-1.6700439-.9848022.8088837-3.5342026-3.5054932-5.8031235-5.9805298-3.2351074.3895874-.7318726.8543701-1.4042358 1.3824463-2.0025024.2839966.0470581.5682373.0792847.8452759.1046143 1.5820044.1438179 2.5575026.4584217 4.9179686-.7539063z"/><path d="m38.8579941 56.3617554-.9765015 10.8105469c-.8984985-.0209961-1.8870239.3630371-2.4136353.6142578h-.0004883c-.1616211.0776367-.590332.2832031-.6870117.7231445-.2632408 1.1981354 1.7500114 1.4992828 2.9672852 1.3129883 1.2856598-.1973801 1.7126541-1.0932465 1.3447266-1.8984375-.1063843-.2331543-.2752075-.4196777-.475708-.5529785l.9884033-10.9421387c.0445785-.49506-.7027626-.5605927-.7470703-.0673828zm-3.3452149 12.3085937c.0414391-.192131 1.5701981-.8237457 2.4581299-.7559814.071228.0634995.1526375.1018066.2491455.0982666.0848999.0632324.1531372.1418457.1901855.2231445.5810014 1.2705078-3.008625.9398575-2.8974609.4345703z"/><path d="m45.7022324 67.1063843c-1.1188316.1927643-3.0988998 1.1871948-2.6455078 2.2080078.3421974.7724228 1.9551697.5738678 2.7607422.3232422 1.6124535-.4995422 1.7116814-1.8987274.7905273-2.4335938-.0103149-.0147705-.0278931-.0227051-.0401611-.0361328l-.633667-10.5839844c-.0131836-.2075195-.1982422-.3647461-.3969727-.3520508-.206543.0126953-.3642578.1904297-.3520508.3969727l.6257324 10.4517822c-.0512733.0113984-.0235519-.0145492-.1086425.0257569zm-1.6738282 1.9829101c-.2319336-.0209961-.2836914-.0766602-.2851563-.0766602-.0136528-.1774673.9718666-1.0581207 2.3410645-1.2000732.0643196.0228882.0901031-.0017929.1843262.0638428.0986328.0688477.1625977.1669922.1708984.2641602.0679932.7756042-1.6103553 1.0192794-2.4111328.9487304z"/><path d="m61.9546738 49.6849976c-.8815041-.2021904-2.5223389-.1254463-3.119812.359375-4.1730347-3.0961914-7.1264648-7.7687988-8.1072388-12.8740234-.094986-.4939308-.829052-.3417206-.7363281.1416016 1.0253296 5.3395996 4.1304932 10.2275391 8.5204468 13.4328613-.0180359.4569359.1613197.9930916.2139282 1.2648926 1.1346817 5.9159431 6.5172806 4.9317017 6.7797852 1.7851563.1313552-1.5815164-1.3082887-3.5982324-3.5507813-4.1098634zm-2.0434571 3.727539c-.3223991-.7533722-.4094887-1.4055939-.5209961-1.8535156-.0639648-.2563477-.1831055-.7338867-.1162109-.8974609.0633698-.1538963 1.3493385-.5116959 2.5136719-.2451172.9814453.2236328 1.8735352.8271484 2.4462891 1.6557617 2.1098632 3.0472793-2.6064911 5.3482399-4.322754 1.340332z"/><path d="m17.411705 11.7279072c-1.7618074.7801094-1.0646152 2.5644608.5668945 2.402832.5737152-.0541096 1.0062656-.2984886 1.4956055-.4174805.9174805-.2197266 1.9755859.1186523 2.5683594.8295898 1.1933765 1.4318056.3614941 3.6447773.4986572 4.0169678-1.3352451-.0041599-2.2268143.7189121-2.7254639 1.9089966-.8680744 2.0443077-.9507465 8.7639275-.9699707 9.2200928-.0077572 1.1625786-.0130539 7.9551983 1.1099854 8.2299786.7600098.1899414 1.6799927-2.4599609 1.9400024-2.9899902 1.4783154-3.1604156 2.6142082-6.2059631 3.5877686-9.2682476 3.2367554 3.6412964 7.269043 6.6696148 11.6708374 8.7592144.4541092.2142029.7642708-.4677773.3212891-.6777344-4.3398438-2.0600567-8.3154297-5.0512676-11.4970703-8.6499615-.0730591-.0823975-.1744385-.1221313-.2767334-.1233521.5440445-1.7557735 1.3996677-3.8445396.3638916-5.1599731-.6080284-.7782936-1.8611908-1.061039-2.8502808-1.2006836.0194702-.0363159.0366821-.0744629.043396-.1175537.2363796-1.5192852.42803-3.147296-.6401367-4.4282227-.7685547-.921875-2.1347656-1.3642578-3.3212891-1.0776367-.4688168.1126957-.9584255.3585196-1.3891602.3989258-.3569336.0390625-.7441406-.144043-.7797852-.3583984-.0818825-.5044003 1.7219067-1.3657618 3.4882813-.6401367.4274063.1759911.7290916-.4311962.3364258-.6674805-.1962891-.1186523-.3032227-.3754883-.237793-.5722656.0673828-.203125.3208008-.3657227.5551758-.3427734.3203125.019043.6396484.2797852.9760742.7973633 1.5349369 2.3646975 1.0678577 3.2817717 1.6582031 3.3525391.1591797.0175781.3051758-.0610352.3769531-.1992188 1.2694607-2.4380512-.4817238-4.3382912-.7006836-4.8676758-.2383175-.5760546.1203117-.8856049.6835938-.7666016.315918.0639648.6171875.2495117.9082031.4287109.3073006.1876726.6767921-.1228724.5458984-.4560547-.2436523-.6230469-.5195313-1.3291016-.453125-1.9882813.0551758-.5444336.4458008-1.1577148 1.0605469-1.2216797.4458008-.0429688.9384766.2285156 1.1796875.6523438.4595299.8072267.0698776 1.7432318-.4584961 2.5073242-.7699986.6740913.0290413 1.2128935.3510742.7910156.0649414-.0854492.1313477-.1748047.1972656-.2675781.3606758-.2144566.8438206.1875839.421875.7182617-.6449394.8100557-1.8325253.7884474-2.6054688 2.581543-.1176758.2583008-.3154297.6904297-.034668.9750977.2319107.2340927.6026688.1369066 1.1328125.0395508 1.0567551-.163476 2.0967388-.5077248 3.0073242-1.1010742.3496094-.2280273.6796875-.4433594 1.0610352-.4819336.4810047-.0531292.8237514.2309256.6044922.7070313-.105957.2304688-.3198242.4399414-.5268555.6425781-.3293285.3224669.1073627.8428392.4829102.5712891.4057617-.2949219.8657227-.6293945 1.3735352-.7094727.4013672-.0654297.9311523.1044922 1.0439453.4487305.210598.6390581-1.1755753 1.7092762-2.862793 1.262207-.3971596-.1083164-.6543369.4225273-.315918.6665039.132534.095643.0422935.3704548-.1210938.4521484-.2783203.1425781-.675293.0253906-.9458008-.152832-.7520237-.4936066-1.1576805-1.5162067-2.2958984-1.7128906-1.6986313-.2866812-3.2701473 1.9613304-2.5634766 4.2011719.1486893.4734993.8647003.2474022.7148438-.2255859-.5576992-1.7684479.6615601-3.4256401 1.7211914-3.2363281.7761688.1335611 1.2407303 1.0941601 2.0112305 1.6005859 1.1295986.7433891 2.2646637.1859837 2.2915039-.753418 2.0423965.1424294 3.4489326-1.2113094 3.0791016-2.3359375-.2350731-.7150707-1.2097397-1.2151823-2.2797852-.8544922.0920792-.8593922-.6272755-1.4025669-1.4873047-1.3173828-1.2328949.1253242-1.1230412 1.0306387-4.4179688 1.6484375.7240601-1.6478624 1.7070694-1.4271765 2.5200195-2.4482422.6236343-.7831059.3120136-1.7394085-.5332031-1.9555664 1.0667992-2.1022229-.2952023-3.8088999-1.8227539-3.6591797-1.0087891.1054688-1.6435547 1.0532227-1.7290039 1.8920898-.050293.496582.0380859.9775391.175293 1.4331055-1.2774525-.4350243-2.3214531.4662981-1.8066406 1.7114258.3119354.7534904 1.2549534 1.4913836 1.0600586 3.1425781-.2763672-.7387695-.6352539-1.4492188-1.0727539-2.1230469-.1748047-.269043-.7060547-1.0869141-1.5600586-1.1381836-.7185822-.047617-1.4648762.5548487-1.3583984 1.3696289-.8603514-.1435547-1.7617186-.0419922-2.54541.3046875zm3.6640625 17.6309204c-.1099854-.1999512-.3399658-.3499756-.5700073-.3699951-.2099609-.0200195-.3599854-.210083-.3399658-.4100342.0200195-.2099609.210022-.369873.4099731-.3399658.4800415.0499268.9200439.3399658 1.1600342.7600098.2390995.4306125-.4198284.8060512-.6600342.3599853zm2.420044-7.1099854c-.0599976.039978-.1300049.0599976-.2000122.0599976-.3656559 0-.3197842-.4208393-.8400269-.5200195-.2000122-.039978-.3399658-.2399902-.2999878-.4400024.1790257-.8953973 2.0982075.4367351 1.3400269.9000243z"/><path d="m52.993248 11.3031025c-.1914063-.081543-.4106445.0058594-.4926758.1967773-.081543.1904297.0063477.4111328.1967773.4926758 1.578125.6767578 2.7988281 2.1367188 3.1865234 3.8095703.0400391.1733398.1943359.2905273.3647461.2905273.0283203 0 .0566406-.0029297.0849609-.0097656.2021484-.046875.3276367-.2480469.2807617-.449707-.4404296-1.9013672-1.8281249-3.5605469-3.6210936-4.3300781z"/><path d="m42.6197128 35.5263062-.5537109-.1777344c-.4701195-.1539841-.7033424.5625648-.2294922.7138672l.5537109.1777344c.4741669.1519775.7005463-.5634537.2294922-.7138672z"/><path d="m41.6704941 38.3617554-.8061523-.1787109c-.490551-.1020966-.6426582.6256371-.1621094.7324219.6616516.1441154.7866707.1875.8876953.1875.4430847-.0000001.5186615-.6438561.0805664-.741211z"/><path d="m10.1197128 27.033144c1.1655273-1.0723267 2.5698242-1.9243774 4.0615234-2.4634399.4653091-.1679306.2134752-.8729362-.2548828-.7050781-1.5844727.5727539-3.0761719 1.4775391-4.3144531 2.6166992-.3650913.3359832.1460219.8842754.5078125.5518188z"/><path d="m12.6880722 21.4158955-1.4082031-1.456543c-.3440037-.3557053-.8847237.1641064-.5390625.5214844l1.4082031 1.456543c.3449345.3563556.8841429-.1647072.5390625-.5214844z"/><path d="m14.7569199 16.9564228c-.2504883.9926758-.2607422 2.0454102-.0288086 3.0439453.1119251.4831867.8427811.3132534.7304688-.1699219-.2050781-.8823242-.1958008-1.8125.0258789-2.6904297.120839-.4821834-.6060439-.6637325-.7275391-.1835937z"/><path d="m50.4361191 28.0526752c-2.0395699.3330479-3.3298073 2.1382408-5.1337891 2.6103516-1.2659302.3322754-2.7077026-.1057129-3.6849365-1.0841064-.0117302-.1178894-.1616783-.2835064.0115967-.8431396.098999-.3197708.2798195-.6706066.402832-1.0375977.6236496-1.8567295-1.0429764-2.763216-1.7120361-1.4083862-.0016479-.3538208.0300903-.710144.1031494-1.0609131.0998535-.4830208-.6317253-.6441574-.734375-.1533203-.2288818 1.0993042-.1239014 2.2476196.2609863 3.258606.0007324.0073242-.000061.0148926.0007324.0222168.0085449.079834.0463257.1467285.095459.2030029 1.0082664 2.3305244 3.4275818 3.3583965 5.4470215 2.8292236 1.8783073-.4920311 3.3250504-2.3114929 5.0644531-2.5957031.4896469-.0796567.3684769-.821251-.1210937-.7402345zm-9.4482422-1.4223632c.1517563-.3050518.2954903-.2675495.3862305-.0229492.2118301.5802879-.2816353 1.266695-.4815674 1.9914551-.0739136-.1384277-.1396484-.2813721-.199707-.4282227-.0361329-.5256348.0635986-1.0683594.2950439-1.5402832z"/></g></svg>