<svg id="Layer_1" height="512" viewBox="0 0 512 512" width="512" xmlns="http://www.w3.org/2000/svg"><g><path d="m414.1 270.4c26.8-13.2 44.9-41 44.9-71.7 0-44.2-35.9-80.1-80.1-80.1-38.6 0-70.8 26.9-78.4 63.8-13.3-2.5-26.1.1-33.1 2-23.4-27.5-57.1-43.1-93.3-43.1-66.5 0-120.8 53-122.8 119-29.4 10.2-49.3 38-49.3 69.4 0 37 26.8 67.7 63 72.9 20.1 26.2 51.4 41.8 84.5 41.8 25.9 0 50.3-9.2 69.6-25.9 19.3 16.8 43.8 25.9 69.6 25.9 32.7 0 63.7-15.2 83.9-41 39.8-1 71.8-33.7 71.8-73.7.1-24.4-12-45.9-30.3-59.3zm-35.2-135.5c35.1 0 63.7 28.6 63.7 63.7 0 28.8-19.8 54.3-47.5 61.6-7.8-2.8-15.9-4.2-24.1-4.2-3.1-31.8-24.4-59-54.6-69.6 5.7-29.8 31.5-51.5 62.5-51.5zm-8.2 252.2h-6.4s-22.1 41-75.6 41c-45.7 0-69.6-32.4-69.6-32.4s-24.9 32.4-69.6 32.4c-53.1 0-75.5-40.9-75.5-40.9l-3.7-.4c-29.6-2.8-51.9-27.3-51.9-57.1 0-48.2 49.3-57.1 49.3-57.1s-.1-7.4-.2-8.5c0-58.7 47.8-106.5 106.5-106.5 33 0 63.6 15 84 41.2l3.6 4.6s12.9-5.6 27.1-5.6c36.5 0 66.3 29.7 66.3 66.3v8.2h15.7c31.6 0 57.4 25.7 57.4 57.4s-25.8 57.4-57.4 57.4z"/><path d="m92.1 264.2h16.4c0-36.1 29.4-65.5 65.5-65.5v-16.4c-45.1 0-81.9 36.7-81.9 81.9z"/><path d="m370.7 67.5h16.4v42.3h-16.4z"/><path d="m327.4 96.7h25.4v16.4h-25.4z" transform="matrix(.383 .924 -.924 .383 306.79 -249.434)"/><path d="m464.1 172.2 23.4-9.7-6.2-15.1-23.5 9.7z"/><path d="m272.4 151.6h25.4v16.4h-25.4z" transform="matrix(.924 .383 -.383 .924 82.852 -96.946)"/><path d="m459.9 229.3h25.5v16.4h-25.5z" transform="matrix(-.924 -.383 .383 -.924 818.419 637.704)"/><path d="m409.5 92.2h16.4v25.4h-16.4z" transform="matrix(.924 .383 -.383 .924 71.975 -151.937)"/><path d="m448.5 99.8h16.4v42.3h-16.4z" transform="matrix(.707 .707 -.707 .707 219.222 -287.482)"/><path d="m467.7 190.5h42.3v16.4h-42.3z"/><path d="m435.5 268.2h42.3v16.4h-42.3z" transform="matrix(-.707 -.707 .707 -.707 584.105 794.732)"/><path d="m280 112.7h42.4v16.4h-42.4z" transform="matrix(.707 .707 -.707 .707 173.75 -177.564)"/></g></svg>