<svg id="Layer_1" enable-background="new 0 0 75 75" viewBox="0 0 75 75" xmlns="http://www.w3.org/2000/svg"><g id="_Eating_Cupcake" fill="rgb(0,0,0)"><path d="m33.5214958 55.0055656c.1039352.071331.1801834.5875549.2558594.8354492.5295029 1.7322769.6580887 2.3946724 1.1357422 2.8325195 1.0648499.975132 2.7801933.1630287 4.0898438-.4047852.831543-.340332 1.6499023-.7382813 2.4311523-1.1821289 1.3234367-.7263184 1.8036346-.9225006 1.3339844-2.0654297-.0891724-.2169342-1.6346931-4.9883652-1.7270508-5.3701172-.1220703-.5043945-.2885742-1.1953125-.9111328-1.4296875-1.5521736-.5820656-8.1371307 2.3997192-13.5571289 2.2163086l-.0142822.3720703-.0233154-.3735352c-.983614-.0397987-2.9262905-.9383659-2.9213867 2.4301758.0009384 2.058609-.0059414 4.050766.0600586 5.9736328.0058594.1572266.109375.2949219.2592773.34375 1.1967163.3878174 2.4296875.6223755 3.6721191.7103271-.2872524.229248-.0884209.0791969.0357056 7.5338783-.1245728.0499268-.2485352.1005249-.3508911.1620483-.4140625.2495117-.7504883.8032227-.5581055 1.3388672.2207031.6132813.9365234.7543945 1.171875.8007813 1.1465244.2263412 2.3527966.1884079 3.4838867-.1123047.3374023-.0893555.7216797-.2197266 1.0136719-.5087891.3149414-.3115234.5004883-.8642578.2456055-1.3178711-.4511299-.8057556-2.3388023-.8964767-3.2612305-.7680664-.3146973.0441895-.6629639.102417-1 .1786499-.2293701-7.3211365-.0708542-7.08564-.2990723-7.2883949 1.390152.0548706 2.6987457-.0398254 4.2116699-.4029541.1508789-.0361328.2641602-.1616211.2841797-.315918.192852-1.4601707.0949707-2.9462166-.0820313-3.6357422-.034668-.1362305-.0996094-.3896484-.1137695-.4233398.2358398-.1196286.8051758-.1669919 1.1347656-.1293943zm-4.0322265 12.7602578c.6992188-.0976563 1.4194336-.0444336 2.0834961.1567383.1489258.0444336.3540039.1171875.4199219.2348633.059082.1044922.0043945.2958984-.1186523.4179688-.6936398.6855011-4.2149334.7135391-4.4360352.0996094-.2105485-.5817186 1.4401759-.8243105 2.0512695-.9091798zm2.5585937-13.2998085c-.6593342.3336029-.2580395 1.2221642-.2138672 1.5454102.1264648.9394531.1386719 1.8896484.0361328 2.8276367-2.4702148.5473633-5.0356445.4462891-7.4550781-.2900391-.0563927-1.8224335-.0503197-3.6922264-.0512695-5.6835938-.0043526-2.463047.9410858-1.7287903 2.1616211-1.6791992l.0327759-.3691406-.0142212.3696289c2.2584019-.0815392 2.6637344.1940002 8.6674805-1.3481445 5.5387344-1.4206924 4.6854744-1.2240906 5.2050781.3813477 1.7182083 5.2982941 1.4957581 4.6894379 1.6577148 5.0864258.1269531.309082.1489258.4106445.097168.4536133-.2885475.2400589-.7412567.4733963-1.1074219.6743164-1.3228416.7513809-2.2874756 1.1082535-2.7304688 1.3046875-.8999023.3901367-2.2607422.980957-2.9135742.3818359-.283905-.2598343-.3507729-.6182327-.9257813-2.4990234-.1406441-.4708481-.1874619-1.2780762-.8813477-1.359375-.3930663-.0454103-1.1367186-.013672-1.5649413.2036132z"/><path d="m57.7634392 41.8982048 2.2038574-6.4707642c.0264282.0064087.0476685.0253906.0756836.0258789h.0068359c.1582031 0 .2998047-.0991211.3530273-.2485352.4126625-1.1519432.2016449-2.741787-.8461914-3.3081036.548336-.9955807.1994286-2.2085094-.7836914-2.7470703.5488205-1.3459969-.0915871-2.9020615-1.5615234-3.3354492.4609413-3.111639-1.4322472-6.0763416-4.0571289-7.0493164-.1420898-.0507813-.3037109-.0136719-.4072266.0986328-.2871704.3143883.1643066.4829063.0386353 1.2640991-.480835-.4863892-1.1467285-.7893677-1.8822632-.7893677-1.9357147 0-3.2812805 2.0679417-2.3250122 3.8772583-1.2373238.4907284-1.6739426 1.6794071-1.4373169 2.6724243-1.7352715.4448528-2.6048355 1.9411278-2.1479492 3.2807617-1.0622787.4257545-1.6628265 1.5345898-1.3764648 2.7348633-.5905914.3653202-.946846 1.133913-.7229004 1.9421368-2.0942993-.9403687-4.3808594-1.4347534-6.6784668-1.4035645-.0849609.0006104-.1592407.0346069-.2217407.0827637-1.3546143-2.3703594-2.8823853-2.6049786-4.0097046-2.3098125-.9550476.262598-1.7195072.5970688-2.6591797.7006836-1.1864548.1308079-2.8257313.03372-3.9174805.8422852-1.2719975.9425907-1.3299484 2.9171391-1.5239258 5.1796856-.0430908.4926262.704752.5616798.7470703.0644531.0595703-.6879883.1279297-1.3764648.206543-2.0649414.109375-.9628906.2866211-2.0356445 1.0166016-2.5766602.8825436-.6533604 2.4233685-.5739346 3.5532227-.6997051 1.0393791-.1140709 1.8546162-.471138 2.7714844-.7211914 1.5024414-.3955078 2.7910156.7368164 3.8339844 3.3608379.7387085 1.8856812 1.3745117 3.8134766 1.9246826 5.7607422-3.0157471-1.2738037-5.7925415-3.1253662-8.0633545-5.4833984-.345829-.3563766-.8835411.1629868-.5400391.5205078 2.4759521 2.571106 5.5333252 4.5634155 8.8521118 5.8764648.3115845 1.1713257.6011353 2.3467407.8412476 3.527832.1748047.8911133.2783203 1.8769531-.2822266 2.4296875-.5239716.5239716-.6498451.4032173-9.9326172 1.9345703-1.2768211.2089348-2.8385067.4263153-3.7578125-.6201172-.5488281-.6347656-.621582-1.5942383-.6494141-2.5249023-.074707-2.1464844-.0449219-4.4326172.0883789-6.7939453.0282078-.4971809-.7223473-.5349312-.7490234-.0419922-.1347656 2.3837891-.1645508 4.6923828-.0893555 6.8603516.0322266 1.0634766.1225586 2.1699219.8339844 2.9931641.5312405.6055336 1.4356689 1.0556641 2.6865234 1.0556641.7968292 0 .7097988-.017662 10.2001953-1.5664063.6459961-.1147461 1.3779297-.2446289 1.8974609-.7641602.8115234-.800293.703125-2.0195313.4897461-3.1088867-.2068481-1.0170288-.447937-2.0302124-.7070923-3.0402222 2.0089722.7105713 4.1032715 1.1640015 6.2210693 1.3360596.3134766.7874146 1.4658203 1.2771606 2.0812378 1.4038696 1.2039413.2468109 2.6029129-.2624588 3.0290527-1.623291 3.4117433.0314943 7.376465-.1579589 7.376465-.5338744zm-6.4799805-21.6900005c.4100342.3900146.6900024.9200439.7900391 1.4800415.0299683.1999512-.1000366.3999634-.3100586.4299927-.1079712.0541496-.3881073-.0489044-.4299927-.3000488-.0700073-.4099731-.2699585-.789978-.5700073-1.0699463-.3600884-.3602334.1760216-.8840371.5200195-.5400391zm-14.5734863 13.8168926c-.1194458-.300293-.2420044-.5718384-.3658447-.8305054 2.5109863-.0084839 4.9707031.616272 7.1729736 1.7885132.0377808.0200195.0783081.0231934.1182861.029541-.036499.0266113-.0758667.0483398-.1119385.0755615.029747.1009636 1.9218178 6.5228462 1.8920898 6.421875-.0673828.1152344-.1235352.2323608-.1572266.3514404-.0045166.0106201-.0026245.0220337-.0066528.0327759-2.1984863-.1869507-4.3681641-.6876221-6.4385986-1.4699097-.5895995-2.1644897-1.2834472-4.3072509-2.1030883-6.3992919zm12.9394531 8.2797851c-.289341.8281822-1.2664795 1.1969337-2.1401367 1.0161133-.6445313-.1328125-1.5878906-.6484375-1.5712891-1.0883789.0004883-.0048828.0258789-.1166992.0258789-.121582.1499023-.5229492 1.0341797-1.1953125 1.5771484-1.4282227.650898-.2774086 1.5645256-.2005768 1.9902344.3769531.4152108.5668908.1049767 1.3451462.1181641 1.2451172zm5.3040161-5.0966796c-.7362328 1.1003227-.9643593 1.215065-.8799438 1.4400024l.5099487 1.3699951c.0800171.2000122-.1099854.4000244-.3200073.3400269-1.2571373-.3523331-1.4577827-.5334511-1.6299438-.3900146l-1.1500244.9100342c-.1699829.1299438-.4199829.0199585-.4199829-.2000122-.0572624-1.3332558.0463905-1.5468941-.1400146-1.6799927l-1.2200317-.8099976c-.1799927-.1200562-.1399536-.3900146.0599976-.460022l1.3900146-.4700317c.2113724-.0791626.1409912-.228138.5599976-1.5899658.0499878-.210022.3200073-.2600098.4500122-.0900269l.8800049 1.1799927c.1304665.1827202.3356743.0647888 1.6900024.0400391.2100218-.0100098.3400267.2299804.2199705.4099731zm.1000366-1.8200074c-1.4253311-1.4648361-3.76548-1.7694321-5.6000366-.3200073-.8399658-.6799927-1.9199829-1.0699463-3-1.0899658-.7689819-.0140991-1.4800415.2285156-2.1360474.5962524-.0270386-.0464478-.0620728-.0887451-.109375-.1211548-.9063759-.6199684-.76231-1.7689476-.0258789-1.9892578.2110405-.0639191.3236618-.2963676.2387695-.5019512-.3668709-.8946171.0679893-1.897047 1.0430298-2.1501465 1.0840988.5515003 2.2997398.7723656 3.4852905.6271973.488224-.059145.4074821-.8000259-.0908203-.7441406-1.0407715.1264648-2.1137085-.0757446-3.0498657-.5509033-.5402107-1.0036087.1603966-2.3100338 1.7836914-2.5779419 1.3372459 1.0607719 2.8212967 1.0357876 2.7212524 1.0150757.4890671 0 .500042-.735014.0112305-.75-.8716431-.0253906-1.7192383-.3731079-2.380188-.9411621-.2318726-.5823975-.0372314-1.3668823.4685669-1.7429199.178894-.1326904.3919678-.2214355.618103-.2971802 2.0394363 2.0508957 5.5332985-.2543774 4.270813-2.9703369.2025185-.1912861.2663307-.8288765.2556152-1.1074829 2.0126686 1.1074486 3.3320274 3.5519104 2.8721313 6.0983887-1.196106.9333496-2.7728882 1.4087524-4.2827759 1.2644043-.4988708-.0404816-.5603256.7007332-.0703125.7470703 1.7095413.1622181 3.4252586-.3850613 4.7401733-1.383667 1.2791405.2393169 1.7445984 1.5957146 1.1417847 2.5953369-1.3794556.814209-2.9952393 1.1826782-4.5894775 1.0114746-.4935112-.0539417-.5741119.6922417-.0800781.7460938 1.7940102.1902733 3.5239029-.2218456 5.0094604-1.086792.8866653.3861809.9980927 1.477787.3684692 2.0731201-.2441483.2305241-.0884933.6533985.2724609.6469707.1386719-.0009766.3637695.1044922.5302734.2915039.3829422.4326096.4540749 1.2795372.3110352 1.8916016-.0372314.0292358-.0545044.0733643-.0779419.1133423-1.5240056-.7511941-3.204868-.6102258-4.6493528.6071776z"/><path d="m32.5051994 20.3479137c.6473999.1455688 1.2902222-.2612305 1.435791-.9086304.1455078-.6473999-.2612915-1.2902222-.9086914-1.435791s-1.2902222.2612305-1.435791.9086304.2612915 1.2902222.9086914 1.435791z"/><path d="m25.3886833 21.9541149c.6473999.1455688 1.2902222-.2612915 1.435791-.9086914s-.2612915-1.2902222-.9086914-1.435791-1.2902222.2612915-1.435791.9086914.2612915 1.2902222.9086914 1.435791z"/><path d="m16.8486443 23.3654308c.1703491.1194725.3480091.2104397.637207.3652344.2200317.1467285.3255005.2315674.3746948.2647705-.0167503 1.2924557 1.1751003 2.251688 2.2770386 1.6484985 4.4435635 7.0613766 13.2245255 5.4366016 15.6397705.6853638.8843231-1.7260876.6656799-3.9166889.2540283-5.8088989 2.0982246-.8410149 1.7054749-3.4055691.0257568-3.507019 1.3566093-1.808814 1.7019539-4.6154728.0185547-6.2631845-.3548622-.3466368-.8790932.1884794-.5244141.5361328 1.4788208 1.4474792.9566116 4.2261658-.2880859 5.5009775-.4083252-.6551361-1.1845169-1.0636387-2.0249023-.9082041-.0297165-1.5645628-1.4040127-3.4073162-3.0424805-3.5834961-1.3641777-.151906-2.7931061.6806479-3.3602295 2.2644043-.7374592-.5746241-1.8968258-.9488659-3.0338135-.697998-.8989105.2006865-1.9829922.9582005-2.5336914 2.1088867-.1269531.2539072-.4194336 1.578126-.3818359 2.4633799-1.4339905-.2314968-2.9705048 1.4041042-2.1517944 3.9333496-.3032227.2058716-.548645.4956665-.7005005.8300781-.4060841-.2846718-.9958229-.4490852-1.744873-1.342041-1.7803869-2.0970974-1.3660402-5.0771008.5014648-6.7158213.1328125-.1162109.1665039-.309082.0810547-.4633789-.5825195-1.0527344-.8613281-1.9960938-.8530273-2.8881836 0-1.0581055.4311523-1.9980469 1.1557617-2.5166016.7631836-.5541992 1.8847656-.5249023 2.4995117.0668945.2478695.2369995.6574459.0444908.6337891-.2963867-.1853123-2.6759019 3.4105473-4.8162675 5.6674805-1.3964844.0288086.0375977.043457.0673828.0541992.0883789.1948242.3828125.5249023.2636719.6796875.2075195.1733398-.0615234.3081055-.2080078.4384766-.3491211.5597134-.6013942 1.9959164-1.1077905 3.3188477-.6879883 1.2773438.4199219 2.2753906 1.6948242 2.3730469 3.03125.0141602.1928711.1728516.34375.3662109.3476563.4638672.0092773.8847656.0991211 1.2524414.2661133.4512405.2050028.7624588-.4765625.3105469-.6826172-.3701172-.168457-.7792969-.2739258-1.2197266-.3149414-.2426758-1.5224609-1.3754883-2.8759766-2.8520508-3.3613281-1.4051895-.4450026-3.0845089-.1195946-4.15625.9521484-1.0634766-1.5717773-2.4941406-2.262207-4.0473633-1.940918-1.5043945.328125-2.6914063 1.6772461-2.9067383 3.1777344-2.5652008-1.2252126-5.8634071 1.8461046-3.5102539 6.4003906-2.5316048 2.4815798-2.1342975 6.649932.7724609 8.5854502zm1.7680664.6745606c.0613976-.1770382-.0444164-.5042286.3529663-.8103638.2182617.6150513.4785156 1.2058716.7831421 1.7651978-.5933018.2901668-1.1253682-.2714653-1.1361084-.954834zm17.2318725-4.2640381c-.1456299-.5770264-.3018188-1.1430054-.4655151-1.6774292.022644-.0230103.0470581-.0440674.0637207-.0734253.1201172-.2104492.4150391-.3261719.6713867-.2651367.7421684.181755.9421806 1.4463272-.2695923 2.0159912zm-15.2636108-.6131592c.2591114-.0125504.4588642.1060486.7836914.1879883.0024414.0009766.0053711.0014648.0078125.0019531.4131584.0957317.6424179-.4584484.2866211-.6821289-.1259766-.3945313.1352539-2.0693359.2788086-2.3701172 1.0648289-2.2245808 3.7273979-2.2722139 4.9501953-.6191416.2952175.3987226.8975353-.0477667.6030273-.4462891h-.0004883s0 0 0-.0004883c-.1083984-.1486816.1409302-.7138062.4388428-1.1482544.5424232-.7896481 1.4240456-1.1345444 2.1798096-1.045105 1.2488823.1344852 2.3995628 1.6880512 2.375 2.9379883-.0053711.2358408-.0107422.4589853.1762695.6113291.3562202.2894287.8186264-.2314663 1.5101929.1644897.8615303 2.6945572 2.2232323 6.7174492.9346313 9.2324829 0 .0004883 0 .0004883-.0004883.0009766-.5541992 1.0917969-1.565918 2.0600586-2.8476563 2.7265625-4.8020077 2.4812088-10.6291428.1329441-12.6616211-5.9086914.0031738-.0096436-.003418-.0200806-.0010376-.0299072.0189819-.0762329.0228271-.1550903-.0077515-.2298584-.0023193-.0056152-.0026855-.0101929-.0049438-.0158081-.0001221-.0490723-.0097046-.098877-.0302124-.1467896-.7619647-1.775648-.0184611-3.0904769 1.029297-3.2211913z"/><path d="m39.2524529 69.100296c1.2931099.2552872 3.6862679.1812057 4.4985352-.621582.3139648-.3110352.4990234-.8637695.2446289-1.3183594-.1967773-.3500977-.5620117-.4970703-.8583984-.5854492-1.0372276-.3127518-1.8892479-.2726364-2.855835-.1110229l-.5440674-7.7947426c-.033699-.4915161-.7832375-.4444237-.7480469.0517578l.5458984 7.8995399c-.3372803.0869141-.6551514.1947632-.8964844.34021h.0004883c-.4150391.2495117-.7509766.8037109-.5581055 1.3383789.2202149.6137695.9360352.7548828 1.1713868.8012695zm2.2675781-2.0112304c.383934 0 1.649334.1319122 1.8217773.4384766.0585938.1049805.0043945.296875-.1186523.4179688-.6938744.6857529-4.2157784.7146912-4.4365234.0996094-.2393113-.6655809 2.0571594-.9560548 2.7333984-.9560548z"/><path d="m23.6748161 8.6266603c-1.6606407-.0336351-2.4285221 1.6655273-1.5493164 1.6655273.1547852 0 .2998047-.0966797.3540039-.2514648.1577148-.4511719.7124023-.6835938 1.1699219-.6640625.5766602.019043 1.1230469.3193359 1.581543.6103516.4184952.2661018.8213997-.3670969.4023438-.6328125-.5122071-.3251953-1.1972657-.7016601-1.9584962-.7275391z"/><path d="m45.5727654 15.0470705c-.3164063-1.78125-1.4179688-3.8149414-3.0229492-5.5795898-.1386719-.152832-.3769531-.1640625-.5297852-.0249023-.1533203.1391602-.1645508.3764648-.0249023.5297852 1.512207 1.6625977 2.546875 3.5600586 2.8393555 5.2055664.0867347.4888638.8249053.3572768.7382812-.1308595z"/><path d="m47.9375114 16.179884h.0063477c.2070313-.003418.3720703-.1743164.3686523-.3813486l-.0683594-4.0776367c-.0086174-.5207872-.7579117-.4665346-.75.0126953l.0683594 4.0776367c.003418.205079.1708985.3686533.375.3686533z"/><path d="m50.4209099 16.8766613c-.0917969-1.0986338.6191406-2.2138681 1.6533203-2.5942392.1943359-.0717773.2939453-.2871094.2226563-.4814453-.0717773-.1948242-.2871094-.2929688-.4814453-.2226563-1.340332.4931641-2.2607422 1.9379883-2.1416016 3.3608408.0406875.4944382.7891578.4320583.7470703-.0625z"/><path d="m25.5576286 25.3004894c1.4215717 1.0257206 3.428669 1.3434563 5.2069092.5910645.806469.4497147 1.4890327 1.7024002 2.5168457 1.3497314 1.1048393-.3791733.8825722-2.2621956-.8797607-2.4285889.6251831-.5990601 1.1138306-1.3410034 1.3894043-2.1616211.1576385-.4694176-.5529175-.7088318-.7109375-.2382813-.9864807 2.938427-4.5668373 4.094841-7.0839844 2.2792969-.4024468-.2907867-.8408814.3182927-.4384766.6083985z"/></g></svg>