<svg id="Layer_1" enable-background="new 0 0 75 75" viewBox="0 0 75 75" xmlns="http://www.w3.org/2000/svg"><g id="Eating_Dessert" fill="rgb(0,0,0)"><path d="m55.4227676 16.6952114c-.0078125-.0205078-1.0708008-1.6826172-1.7617188-2.3686523 1.3905869-2.9526701-1.1630325-6.7292004-4.8154297-5.6635742-.7124023.2080078-1.3466797.5844727-1.8374023 1.0786133-.3837891-2.2963867-2.3266602-4.2827148-4.6689453-4.578125-2.3935547-.3012695-4.8212891 1.2099609-5.7192383 3.4150391-1.5221519-2.2065273-4.8678436-3.3046023-7.4697284-1.5512696-.171875.1157227-.2172852.3491211-.1015625.5205078.1166992.171875.3500977.2182617.5205078.1015625 2.4543819-1.6550188 5.7580318-.3450632 6.8110371 2.0263672.1457214.328146.6360092.2837763.7099609-.0771484.4638672-2.2539063 2.8710938-3.9716797 5.1552734-3.690918 2.2832031.2875977 4.1879883 2.5566406 4.0766602 4.8554688-.0199738.3972387.5161285.5454187.7050781.1953125 1.2193985-2.2781162 5.2323837-2.5497961 6.121582.715332.2446289.8964844.1416016 1.8266602-.28125 2.5522461l-.0004883.0004883c-.1109619.1906652-.0376053.4500141.1943359.5405273.3261719.3125 1.5429688 1.9404297 1.6582031 2.1899414 1.0683556 2.8730602-1.429203 6.6988697-5.1044312 5.9299927-.7034302-.1636353-1.3764038-.5297241-1.897522-1.0379028-.2851563-.2788086-1.0541992-1.3071289-1.0957031-1.6362305.2265892-.3826904-.2917824-.7748413-.597168-.4462891-.8325195.8930664-2.2905273 1.1796875-3.3896484.6635742-1.1289063-.5244141-1.8325195-1.8007813-1.6723633-3.034668.051239-.3976593-.4745903-.5848904-.6879883-.2504883-.5288086.8256836-1.0869141 1.3989258-1.703125 1.7509766-.7368164.4125977-1.5595703.4912109-2.2075195.2114258-.6875-.2885742-1.137207-1.0336914-1.0229492-1.6962891.0351563-.2041016-.1020508-.3979492-.3061523-.4331055-.2016602-.0307617-.3974609.1025391-.4331055.3061523-.3012695 1.7485352-1.4038086 3.097168-2.8779316 3.5200195-1.3325195.3818359-2.8701172-.0371094-3.8232422-1.0439453-.0825195-.0869141-.2041016-.1342773-.3212891-.1137695-1.9595776.2559986-3.975769-1.3906174-4.1210938-3.3535156-.1443157-1.9641304 1.6114883-3.8900862 3.5844727-3.921875.2174244-.0041027.3854542-.1906214.3671875-.4057617-.081543-.9975586.2041016-2.043457.8037109-2.9453125.1147461-.1723633.0683594-.4047852-.1044922-.5195313-.171875-.1147461-.4047852-.0683594-.5195313.1044922-.6181641.9282227-.9467773 1.9951172-.9428711 3.0419922-3.511095.4096842-5.5741425 5.0562382-2.2792969 7.7382813.8903809.7245483 1.9859009 1.085022 3.0335083 1.0229492-.0552368.2424316-.0999146.4907837-.1365967.7435303-1.543354.0300064-2.4011021 1.7883472-1.5116577 3.2364502.3583984.5839844.9814453 1.0410156 1.7094727 1.253418.0013428.0003662.0026245.0001831.0039673.0005493.8980103 4.617691 3.256773 7.1109867 8.1024799 8.1737652 7.2151794 1.5962067 12.51614-1.635994 13.9989624-6.0314922.8394165-.0469971 1.6164551-.6802979 1.7700806-1.5251465.1601868-.8805695-.4035988-1.8520889-1.3388062-2.1263428-.0091553-.1401978-.0252686-.2825317-.0397949-.4244385 3.8398021.4962578 6.7243427-3.6225014 5.4635623-7.0131836zm-28.2371845 5.2009277c-.0641479.8951416-.0317993 1.8487549.1195679 2.8840942-1.6542244-.7795447-1.3945885-2.7286185-.1195679-2.8840942zm8.5448017 11.187254c-3.975996-.8725128-6.4252682-2.779932-7.3950214-6.8686504-.4804688-2.0633545-.5509033-3.8081055-.2589111-5.3383789 2.3884354 1.6182938 5.5692348.8112183 6.8453388-2.0678711.9482727 1.5411644 3.4534264 1.8250523 5.3359375-.3779297.5343666 2.7323895 3.583786 3.8563461 5.7670898 2.3237305.3408203.7734375 1.15625 1.6186523 1.1689453 1.6313477.5635376.5493164 1.2514038.9380493 1.9975586 1.15625.1612549 1.2868652.0822144 2.4925537-.2251587 3.5993042-.0989304.0997581-.1355247.211401-.0958252.3543091-1.3451728 4.094364-6.2938003 7.1023806-13.1399536 5.5878886zm14.0549317-6.1024761c.1500244-.647522.2237549-1.324707.2318115-2.0253906.8502579.4983425.8041191 1.6968021-.2318115 2.0253906z"/><path d="m54.9584122 51.0882759c.7464066-1.753479-.5023308-3.7784119-1.4941406-5.5776367-.2392273-.4341049-.8962822-.0736122-.6572266.3623047.8384056 1.5198059 2.0651741 3.5033798 1.4604492 4.9228516-.4521484 1.0727539-1.7792969 1.5395508-2.3266602 1.6894531-1.2908936.3462181-2.5460205.7208977-3.7963867 1.0039063-2.9971085.6623077-8.803669 1.2783318-11.5390625.2167969-1.1791992-.4614258-2.081543-1.2670898-2.4755859-2.2114258-.4693184-1.1160049-.2765388-2.4814224-.1530762-3.8022461 4.671814-2.1751099 8.6511841-5.8296509 11.1315918-10.3217773.2399063-.4341698-.4169884-.7974358-.65625-.3623047-2.3330078 4.2245483-6.0390625 7.6747437-10.3936157 9.8032227l.6275024-6.7617188c.1069221-1.07798.3242302-1.9652672.5366211-3.2192383.1518555-.8569336.3227539-1.2832031.7626953-1.2739258 1.3350945.0503845 2.5985718.484169 4.0415039.4291992 1.5522461-.0615234 3.0722656-.3681641 4.5371094-.9189453.8984642-.34198 1.0546722-.2646713 1.465332.2905273 2.2441406 2.9882813 4.2871094 6.1010742 6.0717773 9.2519531.2429886.4299049.8977203.0631142.6523438-.3701172-1.800293-3.1782227-3.8608398-6.3178711-6.1225586-9.3295898-1.3905144-1.882843-2.0758858.1456604-6.6328125.3271484-1.3091965.0497169-2.6229858-.3779716-3.9858398-.4296875-1.2021484-.0551758-1.4082031 1.2163086-1.5405273 1.9604492-.1826248 1.0972404-.4199829 2.077549-.5322266 3.2109375l-.6702881 7.2199707c-.3679199.1630249-.7471313.2987061-1.1231079.4423828-.0858765-5.4962196.1063385-5.3427353-.1691914-5.5737915.9525967-1.77771-.1049881-3.3875618-1.5268555-3.3474731-1.6299438 1.289978-3.5699463 2.1599731-5.6099854 2.5300293h-.0700073c-.4632587 0-.5044327-.6530571-.0700073-.7400513 2.0100098-.3699951 3.9100342-1.2399902 5.4900513-2.5299683.1099854-.0900269.2599487-.1099854.3800049-.0499878.289978-.7300415.2999878-1.5800171-.0400391-2.2900391-1.2398586-2.6428146-5.0818996-1.9218025-7.6099854-6.0299664.5599976.9299927.6099854 2.1400146.1300049 3.1099834-.7242298 1.4887352-2.5445156 2.3403282-2.6500244 4.0499878-.0313721.5488892.1937256.9841919.5459595 1.3406372-.0356445.1487427.0210571.300293.1477051.3882446-.3353271.215271-.6676636.3793335-.9336548.7311401-1.149231 1.5060234-.0453587 3.4558334 1.5100098 3.6799927-1.3759594.211628-1.8777981 2.2019653-.0973511 2.6080933-.3136139.5233459.1796989 1.115303.5708618 1.5716553.1955566.2283783 2.7244473 3.7031364 2.9082031 4.0463867.09198.1717529.2211304.3195801.3682251.4518433 4.1365166 5.7162437 4.0754681 5.7738686 4.5687866 5.9841919.6017647.2549858 1.2828465-.0781708 1.6191406-.605957.2832031-.4448242.3422852-.9501953.3828125-1.472168.1809368-2.3448181.1697559-4.718235.1590595-7.0492554.3504028-.1291504.697937-.2648315 1.0418091-.4102783-.1180115 1.2603188-.2490311 2.5726089.2463989 3.7505493.4785156 1.1464844 1.5063477 2.0766602 2.8950195 2.6201172 2.9065323 1.1277733 8.7472076.5300369 11.9755859-.1835938.9013672-.2041016 1.8081055-.4555664 2.6850586-.6987305 1.3556559-.3754117 3.2622721-.7679212 3.964844-2.4340818zm-29.2894917-.435852c-.6982956-1.9563637 3.7275276-3.3312721 5.4389038-2.2697144.02001.1989288-.6605835.7841187-.8330078.956543-1.0907917 1.0897408-3.0883713 2.6902046-4.2989502 1.7373657zm-.8189697-8.3829346c.1900024-.0800171.4099731.0100098.4899902.2000122.0700073.2000122-.0199585.4199829-.2099609.4899902-1.0257492.4103355-2.1412258.5078468-3.1200562.3500366-.4986038-.071312-.3673744-.8328323.1200562-.7400513.9199829.1500245 1.8599853.0400391 2.7199707-.2999877zm-2.6508179 3.6498413c.2514248-.2176666 5.5286484-.0088768 9.1762695-2.7797852l.020752 4.5366211c-1.7500515-1.0285759-5.7904816-.1024628-6.4431152 1.9869385l-2.0297852-2.8052979c-.116312-.1607818-.6998081-.7985076-.7241211-.9384765zm9.0434571 9.5166016c-.0336914.4399414-.0771484.828125-.2675781 1.1269531-.1479492.2329102-.4633789.4135742-.6928711.3188477-.2111301-.0903854-.1229706-.0241623-3.5603027-4.7741699.8563023.0570221 1.580368-.2966118 2.317627-.7893066.9526768-.6356087 1.9650688-1.6029243 2.3627319-2.0365601.007141 2.0339965-.0018312 4.1141967-.159607 6.1542358z"/><path d="m50.6044083 54.628315c-.0117188-.2075195-.2084961-.3666992-.3955078-.3535156-.2070313.0117188-.3652344.1889648-.3535156.3955078.2380981 4.2192993-.9093018 8.4590454-3.2151489 12.0030556-.9833984-.8811035-2.6437988-1.7340698-3.9723511-1.6915283-.7270508.0229492-1.5615234.465332-1.75 1.2680664-.2120285.9091263.404274 1.6477432 1.1689453 2.1899414 1.0390701.7380447 3.0368843 1.6267014 4.2446289 1.3984375 1.1291809-.2123871 1.7529335-1.3300552.8373413-2.5961304 2.4616088-3.7087441 3.6861572-8.1735268 3.4356079-12.6138344zm-3.800293 14.0668983c-.5916672 1.216362-4.2828331-.4794769-4.9785156-1.5239258-.5077858-.7616806.048378-1.4144363.8657227-1.4394531 0 .0068359.0488281-.0014648.0742188-.0014648 1.5572318 0 4.5907286 1.8320388 4.0385741 2.9648437z"/><path d="m39.6810684 55.406147c-.0710487-.4973373-.8118591-.3812447-.7421875.1064453.432312 3.0256958-.3130493 6.1890259-2.0283813 8.7655678-1.1130791-.994709-3.6072693-1.0746994-4.6400757-.4965248-.7280293.4072304-1.1079121 1.2524452-.883791 1.9658241.4125729 1.3148727 2.7304783 1.6850586 3.9858418 1.6850586 1.9861069 0 2.5943604-1.3288956 2.017334-2.5172119 1.9226684-2.7666054 2.7619628-6.2158241 2.2912597-9.5091591zm-2.9829101 10.8251991c-.2270508.3105469-.6992188.4658203-1.3959961.4506836-.9050217-.0145416-2.9271698-.2906952-3.199707-1.1591797-.1298847-.4140625.1757813-.8862305.5341797-1.0869141.8464737-.4716988 3.3454094-.3729782 4.0292969.6811523.2309569.3564454.2446288.8251954.0322265 1.1142579z"/><path d="m42.9061661 25.5658169c-.1646576.2080078-.1859894.2379322-.4326172.6123047h.0004883c-1.8924026 2.7966862-6.0104294 2.9467583-8.0888672.2504883-.2641602-.3401203-.7979393-.0381241-.6479492.3603516 1.1475296 3.0658245 3.6125069 4.5605469 5.9624023 4.5605469 3.4373131 0 5.3756485-3.3862419 3.8134766-5.7568359-.1327782-.2026064-.4407997-.2378027-.6069336-.0268556zm-6.0961914 4.1176758c-.5668945-.3706055-1.0522461-.8388672-1.4633789-1.4135742 2.7549896 1.669735 6.1121407.7476559 7.7485352-1.671875l.0478516-.0717773c.9813575 2.8177279-2.6786081 5.5477923-6.3330079 3.1572265z"/><path d="m34.472084 22.930563c.4467506.2187214.7753029-.4548092.3310547-.6728516-.6860352-.3378906-1.5361328-.2734375-2.1655273.1655273-.4068222.2848911.0223083.8979664.4296875.6152344.4008789-.28125.965332-.3242187 1.4047851-.1079101z"/><path d="m44.0072403 22.7435513c-.6616211-.3266602-1.4287109-.4384766-2.1552734-.3144531-.2045898.034668-.3417969.2280273-.3071289.4321289.0341797.2041016.2275391.3417969.4321289.3071289.5742188-.097168 1.1772461-.0092773 1.6982422.2480469.0532227.0263672.1098633.0385742.1655273.0385742.1386719 0 .2714844-.0766602.3369141-.2089844.0913085-.1860352.0151367-.4106446-.1704102-.5024414z"/><path d="m21.9974728 68.732811c-.4079895.278595.0101109.8994141.4228516.6201172 2.5371094-1.7299805 3.8569336-5.034668 3.2099609-8.0366249-.0750961-.345665-.5340481-.3963737-.6953125-.1010742-.7827148 1.4262695-1.8862305 2.6450195-3.2207031 3.5625038.3325195-2.3291054-.0136719-4.7436562-.9995117-6.8842812-.1533165-.3340111-.6482887-.2687912-.7104492.0932617-.3422852 1.9912109-1.3144531 3.8603516-2.7285156 5.2988281.3706055-1.5351563.2006836-3.2050781-.5097656-4.6171875-.169672-.3367882-.5649796-.2267876-.675293.0107422-1.2485352 2.6982422-3.3847656 4.9453125-6.015625 6.3281288-.4406281.2320328-.088377.8953476.3486328.6640625 2.53125-1.3305664 4.6289063-3.4194374 5.9775391-5.9355507.5092773 1.5019531.4038086 3.2133789-.3154297 4.6284218-.1793604.3531799.2448235.7084198.5600586.4692383 1.824707-1.3754921 3.1767578-3.3496132 3.8222656-5.5376015.6728516 1.9760742.8037109 4.128418.3603516 6.1723671-.067955.3153534.2690449.5665283.5537109.4047852 1.4614258-.8408203 2.7080078-1.9995155 3.6513672-3.3847694.1367186 2.4126014-1.0273439 4.875492-3.0361329 6.2446327z"/><path d="m62.9359512 63.2894478c-.9136086-.1595764-1.9024124.8668098-1.5200195 2.1884804-1.1801758-.9946289-2.0664063-2.3281288-2.5097656-3.8149452-.0820084-.276123-.4378853-.3647499-.6376953-.1445313-1.0463867 1.1577148-1.3525391 2.9067421-.8896484 4.3930702-1.965332-1.4584961-3.4926758-3.463871-4.3676758-5.7636757-.1026878-.2700653-.4718781-.3350525-.6523438-.0893555-1.5341797 2.0805664-1.8540039 4.9541054-.8149414 7.3203163.1972351.4528275.8869514.1541901.6865234-.3017578-.8398438-1.9135742-.6904297-4.1967812.3540039-5.9965858 1.1557617 2.6098633 3.1206055 4.8129921 5.5922852 6.2548866.3572121.208931.7373924-.2327347.4838867-.5551758-.9208984-1.1723633-.9863281-2.9355507-.2348633-4.2133827.7392578 1.8750038 2.1323242 3.4702187 3.9042969 4.444828.349453.1920319.7184067-.2255783.484375-.5483398-.5251656-.7264099-1.1276016-1.6748276-.4150391-2.2963867.3587494-.3143921.6631432-.063942 1.015625.2553711l4.0253906 3.6572266c.3657913.3334427.8720016-.2205887.5039063-.5546875l-4.0253906-3.6577187c-.2338867-.2124023-.5546875-.503418-.9829102-.5776367z"/><path d="m30.3495235 15.8626919c.3134766-.7485352.3881836-1.5976563.2099609-2.390625-.1072273-.482523-.8404255-.3210764-.7314453.1640625.144043.6425781.0834961 1.3305664-.1699219 1.9365234-.192377.4598293.5005933.7461319.6914063.2900391z"/><path d="m7.1942501 38.7660103c6.2887249 1.8875847 5.6844177 1.7211914 5.7700195 1.7211914.4304008 0 .5187492-.610733.1079102-.7338867l-4.6757813-1.4082031c3.2012987-1.4407654 3.3815756-1.3055687 3.4433594-1.6650391.0638399-.372879-.2701302-.4044952-2.5537109-2.5893555 3.7870235.0822067 3.164856.5915222 2.925293-1.8027344l3.5419922 4.1171875c.3233719.3749275.8923759-.1126022.5683594-.4892578l-4.3583984-5.0659161c-.2418175-.2801151-.703371-.0757256-.65625.2924805l.2949219 2.2856426-3.3022461-.1254883c-.3260984-.0315247-.5339608.4047394-.2685547.6499023l2.7597656 2.5478516-3.6367189 1.5620118c-.3215937.1385994-.2939934.603405.0400391.7036133z"/></g></svg>