<svg id="Layer_1" height="512" viewBox="0 0 512 512" width="512" xmlns="http://www.w3.org/2000/svg"><g><path d="m206.8 315.3s-24.6 36.7-24.6 47.2c0 13.6 11 24.6 24.6 24.6s24.6-11 24.6-24.6c0-10.5-24.6-47.2-24.6-47.2zm0 55.4c-4.5 0-8.2-3.7-8.2-8.2.1-2.5 3.5-9.6 8.2-17.6 4.7 7.9 8.1 15.1 8.2 17.6 0 4.5-3.6 8.2-8.2 8.2z"/><path d="m108.5 315.3s-24.6 36.7-24.6 47.2c0 13.6 11 24.6 24.6 24.6s24.6-11 24.6-24.6c0-10.5-24.6-47.2-24.6-47.2zm0 55.4c-4.5 0-8.2-3.7-8.2-8.2.1-2.5 3.5-9.6 8.2-17.6 4.7 7.9 8.1 15.1 8.2 17.6 0 4.5-3.7 8.2-8.2 8.2z"/><path d="m305.2 315.3s-24.6 36.7-24.6 47.2c0 13.6 11 24.6 24.6 24.6s24.6-11 24.6-24.6c-.1-10.5-24.6-47.2-24.6-47.2zm0 55.4c-4.5 0-8.2-3.7-8.2-8.2.1-2.5 3.5-9.6 8.2-17.6 4.7 7.9 8.1 15.1 8.2 17.6 0 4.5-3.7 8.2-8.2 8.2z"/><path d="m378.9 362.5c0 13.6 11 24.6 24.6 24.6s24.6-11 24.6-24.6c0-10.5-24.6-47.2-24.6-47.2s-24.6 36.7-24.6 47.2zm24.6 8.2c-4.5 0-8.2-3.7-8.2-8.2.1-2.5 3.5-9.6 8.2-17.6 4.7 7.9 8.1 15.1 8.2 17.6 0 4.5-3.7 8.2-8.2 8.2z"/><path d="m133.1 452.6c0 13.6 11 24.6 24.6 24.6s24.6-11 24.6-24.6c0-10.5-24.6-47.2-24.6-47.2s-24.6 36.8-24.6 47.2zm24.6 8.2c-4.5 0-8.2-3.7-8.2-8.2.1-2.5 3.5-9.6 8.2-17.6 4.7 7.9 8.1 15.1 8.2 17.6 0 4.6-3.7 8.2-8.2 8.2z"/><path d="m231.4 452.6c0 13.6 11 24.6 24.6 24.6s24.6-11 24.6-24.6c0-10.5-24.6-47.2-24.6-47.2s-24.6 36.8-24.6 47.2zm24.6 8.2c-4.5 0-8.2-3.7-8.2-8.2.1-2.5 3.5-9.6 8.2-17.6 4.7 7.9 8.1 15.1 8.2 17.6 0 4.6-3.7 8.2-8.2 8.2z"/><path d="m329.7 452.6c0 13.6 11 24.6 24.6 24.6s24.6-11 24.6-24.6c0-10.5-24.6-47.2-24.6-47.2s-24.6 36.8-24.6 47.2zm24.6 8.2c-4.5 0-8.2-3.7-8.2-8.2.1-2.5 3.5-9.6 8.2-17.6 4.7 7.9 8.1 15.1 8.2 17.6 0 4.6-3.7 8.2-8.2 8.2z"/><path d="m455.2 149.1c-2.9-63.5-54.4-114.3-117.3-114.3-28.2 0-55.2 10.3-76.6 29.1-10.4-4.5-21.4-6.8-32.7-6.8-31.5 0-60.1 17.8-74.7 45.8-33.9-6.2-66.6 12.7-80 43.6-39.8 1-72 34.3-72 75.2.1 41.5 33.2 75.3 73.8 75.3h360.5c40.7 0 73.7-33.7 73.7-75.2.1-34.5-22.5-64.1-54.7-72.7zm-18.9 131.5h-360.6c-31.6 0-57.4-26.4-57.4-58.8 0-32.5 25.7-58.8 57.4-58.8h9.6l1.9-5.5c9.8-28.2 39.1-45.4 69-37.1l6.9 1.9 2.8-6.6c10.9-25.6 35.4-42.1 62.6-42.1 10.6 0 20.9 2.5 30.5 7.4l5.2 2.7 4.2-4.1c18.9-18.3 43.5-28.4 69.3-28.4 55.7 0 101.1 46.4 101.1 103.4l-.2 8 7 1.2c27.7 4.7 47.9 29.1 47.9 58 .1 32.4-25.6 58.8-57.2 58.8z"/><path d="m337.9 75.7v16.4c31.6 0 57.4 25.7 57.4 57.4h16.4c0-40.7-33.1-73.8-73.8-73.8z"/></g></svg>