<svg id="Layer_1" height="512" viewBox="0 0 512 512" width="512" xmlns="http://www.w3.org/2000/svg"><g><path d="m412 443.3c-8.4 16-2.2 35.9 13.8 44.2 16 8.4 35.9 2.2 44.2-13.8 7.4-14.1-4.4-62.4-4.4-62.4s-46.3 17.9-53.6 32zm43.5 22.8c-4.2 8-14.1 11.1-22.1 6.9s-11.1-14.1-6.9-22.1c2.4-4.6 14.9-11.9 27.6-17.5 2.7 13.7 3.8 28 1.4 32.7z"/><path d="m289.1 443.3c-8.4 16-2.2 35.9 13.8 44.2 16 8.4 35.9 2.2 44.2-13.8 7.4-14.1-4.4-62.4-4.4-62.4s-46.3 17.9-53.6 32zm43.5 22.8c-4.2 8-14.1 11.1-22.1 6.9s-11.1-14.1-6.9-22.1c2.4-4.6 14.9-11.9 27.6-17.5 2.7 13.7 3.8 28 1.4 32.7z"/><path d="m166.2 443.3c-8.4 16-2.2 35.9 13.8 44.2 16 8.4 35.9 2.2 44.2-13.8 7.4-14.1-4.4-62.4-4.4-62.4s-46.3 17.9-53.6 32zm43.5 22.8c-4.2 8-14.1 11.1-22.1 6.9s-11.1-14.1-6.9-22.1c2.4-4.6 14.9-11.9 27.6-17.5 2.7 13.7 3.8 28 1.4 32.7z"/><path d="m43.3 443.3c-8.4 16-2.2 35.9 13.8 44.2 16 8.4 35.9 2.2 44.2-13.8 7.4-14.1-4.4-62.4-4.4-62.4s-46.3 17.9-53.6 32zm43.5 22.8c-4.2 8-14.1 11.1-22.1 6.9s-11.1-14.1-6.9-22.1c2.4-4.6 14.9-11.9 27.6-17.5 2.7 13.7 3.8 28 1.4 32.7z"/><path d="m426.2 153.1h-.8c-4.2-48.1-44.6-85.9-93.8-85.9-8.4 0-16.9 1.2-25.1 3.5-26.8-31.8-65.6-49.9-107.3-49.9-76.2 0-138.5 61.1-140.4 136.9-33.8 11.5-56.8 43.2-56.8 79.3 0 42.2 30.8 77.3 72.1 83 23 30.2 58.9 48.1 96.8 48.1 29.9 0 58.1-10.7 80.4-30.3 22.2 19.6 50.5 30.3 80.4 30.3 37.5 0 73.1-17.6 96.1-47.3 45.5-.8 82.2-38.1 82.2-83.8 0-46.3-37.6-83.9-83.8-83.9zm0 151.3h-6.7s-30.6 47.3-87.8 47.3c-51.2 0-80.4-36.8-80.4-36.8s-25.9 36.8-80.4 36.8c-59.3 0-87.8-47.2-87.8-47.2s-64.7-4.1-64.7-67.5c0-56.3 57-66.9 57-66.9s-.2-7.5-.3-8.8c0-68.5 55.7-124.2 124.2-124.2 68.4 0 101.5 52.6 101.5 52.6s15.9-6.2 30.8-6.2c42.9 0 77.7 34.9 77.7 77.7v8.2h16.8c37.2 0 67.4 30.3 67.4 67.4.1 37.3-30.1 67.6-67.3 67.6z"/><path d="m106 161.3h16.4c0-42.4 34.5-76.9 76.9-76.9v-16.4c-51.5 0-93.3 41.9-93.3 93.3z"/></g></svg>