<svg id="Layer_1" enable-background="new 0 0 75 75" viewBox="0 0 75 75" xmlns="http://www.w3.org/2000/svg"><g id="Eating_Donut" fill="rgb(0,0,0)"><path d="m55.3972435 66.2054596-.2075195.1943359c-.7675781.7119141-2.1967773 2.0361328-1.5205078 3.0400391.1831055.2714844.5195313.4365234.8852539.4365234.3081818 0 .5865784-.1065826.8623047-.2373047.9980469-.4736328 1.9023438-1.1728516 2.6162109-2.0214844.0458984-.0546875 1.1264648-1.3564453.7978516-2.3271484-.1812782-.5357819-.7776566-.8277359-1.3536987-.7183838-1.8582764-4.0083008-2.6228638-8.4520264-2.1970825-12.8792725.0481682-.4957619-.6995354-.563446-.7460938-.0722656-.4385376 4.5551758.347168 9.1263428 2.2557373 13.2512207-.5965424.4034119-1.085167 1.0368119-1.3924561 1.3337403zm2.0317383-.8408203c.1134872-.0457382.2118759-.0975952.3496094-.0664063.284668.0634766.3261719.1855469.3417969.2324219.1289063.3798828-.3012695 1.1757813-.6616211 1.6044922-.6450195.7675781-1.4619141 1.3984375-2.3632813 1.8261719-.2361717.1122971-.6592712.2762222-.8037109.0595703-.0004883 0-.0004883 0-.0004883-.0009766-.3729668-.5531387 1.3789368-1.9932251 1.9624023-2.6289063.30896-.336914 1.0751457-.9466705 1.175293-1.0263671z"/><path d="m67.7307434 62.2874908c-.256279-.453125-.8578796-.6851501-1.4558716-.4493408-2.5700111-3.6158447-4.1483803-7.8436279-4.5543861-12.2557373-.0455627-.4953842-.7926064-.4243851-.7470703.0683594.4178467 4.5385742 2.0397949 8.8863525 4.6803017 12.6057129-.5244904.5115204-.8797073 1.2161217-1.12854 1.5651855l-.168457.2304688c-.6230507.8417969-1.7817421 2.4072266-.932621 3.2685547.0004883 0 .0009766 0 .0009766.0009766.1835938.1845703.4482422.2851563.7290077.2851563.3857651 0 .7128296-.1870041 1.0249023-.4130859.8935547-.6503906 1.6533203-1.5048828 2.1972656-2.4707031.0351562-.0625002.8569335-1.5410158.3544921-2.4355471zm-1.0078125 2.0673829c-.4916992.8730469-1.1782227 1.6445313-1.9848633 2.2314453-.2130585.1548462-.5911713.3929291-.7802773.2070313-.4675446-.476738.9838295-2.2067261 1.4438515-2.9482422.3178711-.5126953.8564453-1.3261719 1.2963867-1.3544922.2915039.0097656.3549805.1220703.3789063.1650391.1967774.3496093-.0791015 1.2109374-.3540039 1.6992187z"/><path d="m50.7439232 18.8902721c-.678894-.0349121-1.2467041.276123-1.2682495.6948242s.5114136.786377 1.1903076.8212891 1.2467041-.2762451 1.2682495-.6948242c.0215454-.4187012-.5113525-.786377-1.1903076-.8212891z"/><path d="m45.9911156 18.8895397c.0215454-.4187012-.5114136-.786377-1.1903076-.8212891s-1.2467041.276123-1.2682495.6948242.5113525.786377 1.1903076.8212891c.678894.0349121 1.2467041-.2762451 1.2682495-.6948242z"/><path d="m40.6653099 48.6400299c-.7490234.6279297-1.0957031 1.6875-.8623047 2.6367188.4133263 1.6738319 2.5590096 1.8455734 2.6674805-.5478516.0097656-.2060547-.1503906-.3818359-.3574219-.3916016-.2021484-.0048828-.3818359.1513672-.3916016.3583984-.0191078.4187737-.1024742 1.0144157-.5175781 1.0810547-.2861328.0517578-.5830078-.3144531-.6723633-.6796875-.1640625-.6669922.0888672-1.4414063.6152344-1.8828125.3842812-.3216133-.1104507-.8955154-.4814453-.5742187z"/><path d="m35.9245872 52.8275299c1.6855469-1.0976563 2.9501953-2.8427734 3.4697266-4.7861328.1273308-.4789467-.5958328-.673336-.7246094-.1933594-.472168 1.7666016-1.6220703 3.3525391-3.1542969 4.3505859-.4165496.2714615-.0060996.8993188.4091797.6289063z"/><path d="m37.0476341 47.6781158c.1983032-.4549294-.4882698-.7554932-.6875-.3007813-.2700195.6181641-.9047852 1.0556641-1.5791016 1.0888672-.4843025.0251884-.4650002.75.0180664.75h.019043c.9521485-.0478515 1.8481446-.665039 2.2294922-1.5380859z"/><path d="m7.1070232 48.0067291c0 1.0799561.3800049 2.2099609 1.25 2.8499756s2.2600098.5899658 2.8900146-.2900391c.5799561-.789917.3799438-1.8800049.3499756-2.8599854-.0200195-.9799805.3800049-2.1999512 1.3599854-2.3100586.8400269-.0899658 1.5200195.7700195 1.6099854 1.6201172.0900269.8399658-.2299805 1.6599121-.4299927 2.4899902-.3599854 1.5300293-.25 3.3099365.8099976 4.4699707 1.0700073 1.1699219 3.2700195 1.2600098 4.0800171-.1000977.775425-1.2722321-.0198345-3.0621834.710022-4.3999023.3699951-.6500244 1.2600098-1.0800781 1.8999634-.6899414.7000122.4299316.6600342 1.4399414.6100464 2.2600098-.0400391.829834.2199707 1.8898926 1.0299683 1.9899902.6500244.0699463 1.1699829-.5800781 1.3300171-1.210083.1699829-.6300049.1499634-1.3099365.4199829-1.9000244.460022-1 1.4199829-.7099609 2.2800293-.7800293 1.2799683-.1098633 2.6199951-.5899658 3.789978-1.0899658 4.8199635-2.0633507 8.1669788-6.3547478 9.1970806-11.114502 1.5090942.4053955 3.0427246.6829834 4.588501.8500977l.6040039 2.7969971c.1046753.4838219.8373184.3275223.7333984-.1582031l-.5495605-2.5449219c3.0251312.2470589 5.9890518.0395699 8.8737793-.5878906.4816284-.1044502.3301811-.8335876-.1591797-.7324219-2.9318237.6369629-5.925415.8031006-8.8834229.5383301-.9549637-4.4174919-1.1917114-5.2805099-1.0096436-5.4826679.4020958-.4423046 3.3408432.8635349 6.9477539-.2734375l.4570313-.1533203c5.5015335-1.8731251 2.4196854 3.1999912 9.2548828 10.4267597.8513145.893837 1.6676521 1.7151222 1.7636719 2.7373047.1272392 1.395153-1.217411 2.593502-2.4013672 3.3134766-2.905838 1.7966156-8.661335 4.0401039-11.3139648 1.8183594-1.5412178-1.2836914-1.7530136-3.5976639-2.4238281-6.4941406-.1040192-.4838753-.8377838-.3273773-.7333984.1582031.6064529 2.7824631.9355316 5.4624863 2.6767578 6.9111328 2.9523468 2.4760551 8.9206238.2651634 12.1870117-1.7539063 1.4652519-.89328 2.9132309-2.2942276 2.7558594-4.0224609-.1171875-1.2421875-1.0166016-2.1865234-1.8105469-3.0195313l-.1552734-.1640625c-5.3629456-5.6667519-4.3119888-9.9089966-7.0039063-10.9179707-1.0200195-.3896484-2.0913086-.0244141-3.0375977.296875l-.4428711.1484375c-3.7326088 1.1765594-6.3981895-.4946213-7.277832.4873047-.4140892.4603271-.2696457 1.0353718.1536865 2.9919453-.1290817-.1452446-1.0848198-.3897667-3.5640259-1.5753174-.0145874-.130127-.0183716-.260498-.0369873-.3905029-.1085205.0933838-.2401733.1506348-.3755493.1948242-.5231934-.2570801-1.0384521-.5285664-1.5505371-.807375-.0834961-.3945313.0357666-.8395996.31604-1.1274414-1.4964714.9436359-3.4648857-1.1917171-1.7399902-3.5799561-.8796577.3487034-2.0650864-.7302666-1.2699585-2.289917.1799927-.3300781 1-1 .9699707-1.3300781-.0200195-.3000488-.8599854-.9299316-1.0800171-1.1400146-10.0849248-9.6098642-26.7962085-2.2771797-26.6999494 11.5699482.0099487 1.3500977.6199951 2.1601563.8399658 3.4001465.6162501 3.3490257-2.7584318 7.5660362-2.789978 10.9699707zm8.553711-2.2514648c-.4174194-.0505371-.7147827-.4299316-.6641235-.8474121.0505981-.4174805.4299927-.7147217.8474121-.6640625.4174194.0505371.7147827.4299316.6641235.8474121-.0505982.4173584-.4299927.7147217-.8474121.6640625zm9.2877197-6.1823731c-4.8987961.1388893-7.2681637-4.7260895-5.1464233-8.2834492 2.4903088-4.1812592 8.851017-3.2795429 10.0517578 1.4648457.8296642 3.278183-1.4661846 6.5472527-4.9053345 6.8186035zm-3.0761108 5.4265137c-.4204712 0-.7613525-.3408203-.7613525-.7612305 0-.4205322.3408813-.7614746.7613525-.7614746s.7612915.3409424.7612915.7614746c0 .4204102-.3408203.7612305-.7612915.7612305zm9.0916137-3.2142334c-.215271.3612061-.6825562.4794922-1.0437012.2642822-.3612061-.215332-.4794922-.6826172-.2642212-1.0438232s.6825562-.4794922 1.0437622-.2642822c.3611451.215332.4794312.6826172.2641602 1.0438232zm5.1461773-7.463501c.4521484.1929932 1.628418 1.0447998 1.9213867 1.4333496-.0603638.0885086-.053196.0812721-.0615845.1722412-.4893799.1965332-1.2877197.2049561-1.6928101.2049561-3.53582 0-3.8985672-2.087719-1.9736328-2.1503906.0561524-.0029297 1.1757241.0755005 1.8066407.3398437zm7.7011719.4121094c.1518555 0 .2949219-.0927734.3515625-.2441406.0021362-.0058594.0009766-.0117188.0028076-.0175781l.5523071 2.5578613c-1.4456787-.168457-2.8810425-.4350586-4.2929077-.8173828.1512451-.927124.2206421-1.8662109.1785278-2.807373.4749261.2210311 2.9282075 1.3286132 3.2077027 1.3286132zm-11.0283203-11.2514667c.4204712 0 .7613525.3408203.7613525.7612305 0 .4205322-.3408813.7614746-.7613525.7614746s-.7612915-.3409424-.7612915-.7614746c0-.4204102.3408203-.7612305.7612915-.7612305zm-5.7998028 1.1899414c1.034668-1.0546875 1.5810547-2.5644531 1.4614258-4.0380859-.0407848-.4917431.7069206-.5612259.7470703-.0605469.1376953 1.6875-.487793 3.4160156-1.6733398 4.6240234-.3439236.3530941-.8849011-.1697579-.5351563-.5253906zm-3.5149536-3.1351319c.215271-.3612061.6825562-.4794922 1.0437622-.2642822.361145.215332.4794312.6826172.2642212 1.0438232-.215271.3612061-.6826172.4793701-1.0437622.2642822-.3612061-.215332-.4794922-.6826171-.2642212-1.0438232zm4.6488037 5.8795166c3.0977077 1.8487453 4.2113018 5.9656162 2.1303101 9.1799335.5536499-1.2646484.6773682-2.6669922.3334961-4.0268555-1.3706989-5.4109154-8.5984478-6.4044037-11.4233398-1.665041-.545166.9145508-.8392944 1.9299335-.8765869 2.9653339-.6887322-5.3691137 5.1278972-9.2540033 9.8361205-6.4533709zm-14.0484009-4.1711426c1.2851563.1435547 2.5356445.5966797 3.6157227 1.3105469.3096523.2046871.1645718.6875-.2070313.6875-.2747879 0-1.3345928-1.0120735-3.4916992-1.2519531-.2060547-.0234375-.3540039-.2089844-.3310547-.4150391.022461-.2050781.2060547-.3457031.4140625-.3310547zm-.6583862 3.440918c.21521-.3613281.6825562-.4794922 1.0437012-.2642822.3612061.21521.4794922.6826172.2642212 1.0438232-.215271.361084-.6825562.4794922-1.0437622.2641602-.3611451-.215332-.4794312-.6826172-.2641602-1.0437012zm-2.8169556 7.3710957c.1702271-.3843994.6199341-.5581055 1.0043945-.3879395.3844604.1702881.5581665.6199951.3879395 1.0043945-.1702271.3845215-.6199341.5582275-1.0043945.3879395-.3844605-.170166-.5581665-.619873-.3879395-1.0043945z"/><path d="m64.5642395 8.4251852c-.6507492-1.6010475-2.3111649-2.84375-4.2739296-2.84375-1.7727661.0319824-3.4257813 1.175293-4.1033325 2.7966309-.0796509-.0078125-.1583862-.0217285-.2384644-.0251465-.1630859-1.3789063-1.1606445-2.6318359-2.4863281-3.0625-1.3066406-.4238281-2.8139648-.0175781-3.7558594.9658203-.6889648-.4042969-2.0869141-.7041016-2.2041016-.7041016-.7509766-.0009766-1.8071289.1953125-2.5048828.5009766-1.5097656.6582031-2.5380859 2.4404297-2.4692383 4.1503906-.706543-.0351563-1.3857422.3642578-1.7880859.8740234-.5268555.6816406-.6699219 1.5517578-.7363281 2.2373047-.0799942.93328.0189171 1.9087601.7872314 2.4377441-1.0064163.0491142-1.4964371 1.0579329-1.2247314 1.8815908.2227058.6737957.9279785 1.0908203 1.2773438 1.0908203.006958 0 .012085-.0061035.0189819-.0065918-.3758736 2.7022305-.2097321 5.363224 1.4551392 7.5544434 2.603363 3.4498444 7.6572189 4.4501019 11.6542969 1.2460938 1.1004524-.8870773 2.203228-1.7460289 3.119873-2.8447266 1.8322067.7773285 3.3933983-1.4057369 2.100647-2.8857422.2100182.0736027.4122314-.0422096.4777222-.2255859.2455025-.6868362.5396843-1.3591156.7835693-2.1483154 1.3188782.0660057 2.5870743-.5355396 3.5626259-1.4561768.9814453-.9384766 1.6367188-2.1337881 2.1743164-3.1806631.1723709-.3336992-.2042465-.6849298-.5229492-.4941406-.8345642.4866362-1.5015869.9167786-1.6357422.9394531-.4091836-.1909522 1.6995086-3.8502235.5322265-6.7978515zm-23.6269569 9.5615225c-1.1581497-.3005333-.7228355-1.9628582.3075562-1.3571777-.0974121.4313965-.1878052.8966064-.2706299 1.375-.0130006-.0048829-.0231324-.0142823-.0369263-.0178223zm12.5654296 8.9472656c-3.6666489 2.9380074-8.2412872 1.9943371-10.5869141-1.1132813-2.0653191-2.7189732-1.596199-6.3705101-.7788086-9.7070313.5045776-.0015545 1.191288-.1400919 1.6782227-.2714834 1.2689095-.3419266 2.0255623-.5341568 2.7219238-1.6306152 1.0177879 1.9210062 3.4024963 2.3473597 5.0710449.923584.3766594 2.0805922 2.7054329 3.5802641 5.0239258 2.8720694 1.4089394 1.7970734 1.1139412 2.9234772 1.4492188 3.3212891-.8206939 2.6422443-2.4827079 3.8936824-4.5786133 5.6054687zm4.0621949-2.8780517c.4545059-.6459198.7280426-1.1627998.9984131-1.8485107.8109207.7842387.1079063 2.0947284-.9984131 1.8485107zm1.5315551-3.1043702-.4335938-.1640625c-.2311859-1.3461056-.8804359-2.5919437-1.6196289-3.4628906-.1030273-.1220703-.2744141-.1660156-.421875-.1074219-1.853241.7239838-3.9545403-.4180698-4.2861328-2.2773428-.1000977-.5605469-.1337891-.75-.3754883-.8535156-.3852539-.1494141-.6591797.2216797-.8227539.4423828l-.0336914.0527344c-.6083984.5195313-1.4477539.7529297-2.1782227.6083984-.9677734-.2050781-1.7958984-1.0585938-1.96875-2.0283203-.0671692-.3791857-.6084442-.4282875-.7275391-.0449219-.203125.6582031-.7451172 1.4316406-1.4902344 1.6708984-2.4955521.768796-4.2055206 1.1681166-3.9882813-1.4042969.0566406-.5810547.1738281-1.3164063.5810547-1.84375.3266602-.4140625.9555664-.7363281 1.480957-.5166016.2712631.115654.5674706-.1193018.5131836-.4130859-.2773438-1.5107422.6254883-3.2822266 1.9726563-3.8691406.6000977-.2646484 1.5185547-.4443359 2.1811523-.4394531.2592773.0263672 1.5185547.3867188 1.8706055.6015625.0658798.3155289.4779091.4095144.6704102.1445313.7104492-.9765625 2.0629883-1.4140625 3.2104492-1.0439453 1.1450195.3730469 1.9824219 1.5195313 1.9912109 2.7265625.0010033.2080612.1731415.3783741.390625.3720703 1.3305664-.0566406 2.7041016.6669922 3.4174805 1.7949219.0908203.1445313.2631836.203125.4179688.1611328-.121582.1005859-.1708984.2705078-.1108398.4248047.4609375 1.1835938.3364258 2.5517578-.324707 3.5703125-.1064453.1640625-.0693359.3808594.0849609.5009766 1.6757356 1.2965555.7484895 3.423623-.0009765 5.3974599zm4.7021485-5.015624c.3647499.1083975.679203-.0742188.8681679-.1855469l.2026367-.1201172c-.962101 1.6122274-2.312851 3.0189199-4.2142982 3.0230703.2661743-1.2322998.2088013-2.4986572-.8442993-3.4771719.6396484-1.1787109.7304688-2.6679688.2255859-3.9648438-.0703125-.1816406-.265625-.2744141-.4506836-.2255859.1435547-.1181641.1801758-.328125.078125-.4892578-.6171875-.9772949-1.6112061-1.6809082-2.7160645-1.9821777.6008301-1.2541504 1.9550171-2.1575928 3.3537598-2.1828613 1.472168-.0488281 3.0009766.9814453 3.5668945 2.3730469.9986076 2.524251-.7400551 5.5450726-.6337891 6.4941406.038086.3408203.2529297.6279297.5639649.7373047z"/><path d="m52.8376732 9.680068c-.473217-.1534767-.7027588.560854-.2314453.7128906 1.206543.390625 2.2636719 1.1826172 2.9760742 2.2285156.2783127.4071932.9015503-.0097351.6201172-.421875-.8061524-1.1835937-2.0009766-2.0781249-3.3647461-2.5195312z"/><path d="m49.8196068 23.0882702c-1.4858398.7724609-3.4633789.5126953-4.7026367-.6113281-.2015648-.1830559-.5300064-.0965652-.6108398.1679688-.5825844 1.9104385.7204666 4.0136719 2.9594727 4.0136719 1.8498878 0 2.9632721-1.4820766 2.9013672-3.2509766-.0105516-.2765103-.3057977-.4452782-.5473634-.319336zm-4.6948242.34375c1.2822266.8613281 3 1.0800781 4.4599609.5722656-.4519882 2.9407406-4.6057587 2.2900219-4.4599609-.5722656z"/></g></svg>