<svg id="Layer_1" height="512" viewBox="0 0 512 512" width="512" xmlns="http://www.w3.org/2000/svg"><g><path d="m141.3 2h16.4v38.2h-16.4z"/><path d="m115.2 45.5-9.1-22.1-15.2 6.3 9.1 22.1z"/><path d="m51.5 100.5-22-9.1-6.2 15.2 22 9.1z"/><path d="m208 29.7-15.1-6.3-9.1 22.1 15.1 6.3z"/><path d="m23.3 193.8 6.2 15.2 22-9.1-6.2-15.2z"/><path d="m253.7 115.7 22-9.1-6.3-15.2-22 9.1z"/><path d="m259.6 51.2-11.6-11.6-26.9 27 11.6 11.7z"/><path d="m77.9 233.7-11.6-11.6-26.9 27 11.6 11.7z"/><path d="m40.1 158.4v-16.4h-23.8-14.3v16.4h14.3z"/><path d="m77.9 66.6-16.8-16.9-10.1-10.1-11.6 11.6 26.9 27.1z"/><path d="m321.5 174.9v16.5c49.7 0 90.1 40.6 90.1 90.6h16.4c.1-59.1-47.7-107.1-106.5-107.1z"/><path d="m468.1 297.5c.6-5.6.9-10.6.9-15.6 0-81.7-66.2-148.2-147.5-148.2-28.4 0-55.5 8.2-78.7 23 .2-2.2.5-4.3.5-6.5 0-52-42.1-94.3-93.8-94.3s-93.8 42.3-93.8 94.3c0 30.6 14.9 59.1 39.5 76.7-15.4 17.2-25.5 39.3-27.3 63.7-37 4-65.8 35.5-65.8 73.7 0 40.9 33.1 74.1 73.7 74.1h360.5c40.7 0 73.7-33.2 73.7-74.1 0-28.6-16.6-54.6-41.9-66.8zm-396.1-147.3c0-42.9 34.7-77.8 77.4-77.8s77.4 34.9 77.4 77.8c0 6.9-.9 13.9-2.7 20.6-8.3 7.4-15.7 15.5-22.1 24.4-33.1-9.1-68.7-1.3-94.9 20.1-21.8-14.3-35.1-38.8-35.1-65.1zm364.3 271.7h-360.6c-31.6 0-57.4-25.9-57.4-57.6 0-31.8 25.7-57.6 57.4-57.6h8.2v-8.2c0-49.9 40.4-90.6 90.1-90.6 14.4 0 34.7 6.8 34.7 6.8s38.7-64.4 112.8-64.4c72.3 0 131.1 59.1 131.1 131.7 0 13.9-2.6 26.1-2.6 26.1l6.2 2.3c22.3 8.4 37.3 30.1 37.3 53.9.1 31.7-25.6 57.6-57.2 57.6z"/><path d="m49.5 498.4 11.6 11.6 40.9-41.2-11.6-11.6z"/><path d="m139.6 498.4 11.6 11.6 40.9-41.2-11.5-11.6z"/><path d="m229.7 498.4 11.6 11.6 41-41.2-11.6-11.6z"/><path d="m319.9 498.4 11.5 11.6 41-41.2-11.6-11.6z"/><path d="m410 498.4 11.6 11.6 40.9-41.2-11.6-11.6z"/></g></svg>