<svg id="Layer_1" enable-background="new 0 0 75 75" viewBox="0 0 75 75" xmlns="http://www.w3.org/2000/svg"><g id="Eating_Mango" fill="rgb(0,0,0)"><path d="m15.8194017 56.6465263c4.28897.3465385 8.7254591.3226013 13.1796885-.1318359 3.7937946-.3697739 4.8177319-1.7325287 5.0439434-5.4033203.1239014-2.34021.12146-4.7155762.0209961-7.0983887 1.8190269.3729286 3.1210861.382103 4.4686279.2735596.1120605.4476318.5285645.9140625.9736328 1.2957764 1.8052292 2.4395561 5.6535721 5.7859612 8.5546875 6.2700195 1.75.2800293 4.0600586-.4899902 4.2399902-2.5.0900879-.8800049-.1400146-1.7600098-.1899414-2.6300049-.0720558-1.6199455.2984314-2.0376587.6298828-3.6900635.7738571-2.3835373 1.577198-3.8771324 1.5324707-6.262207 3.4662056 1.0639343 6.5714378-.2496758 7.8897705-2.4663086.1398659-.235054-.0010757-.5521774-.3378906-.5664063-.1001282-.0211792-2.9103203.1880226-4.7763672-2.2148457-1.22192-1.5723152-1.6065979-3.7581177-4.3094482-5.0563965-.5393066-.2598877-1.1135254-.4462891-1.7032471-.5471191v-.0009766c-1.5800476-.265892-3.4375305.190239-4.0369873.5888672-.1854057-.7002888-.3872375-1.4628601-1.1260986-1.75-.5703125-.2207031-1.3105469.0029297-1.7177734.5224609-.9579124 1.2207069.1653252 2.887125.185791 2.9887695-6.6529312 1.1907978-9.5933037 8.6553364-6.104248 15.2954121-1.4053955.0910645-2.8293457-.0180664-4.2062988-.3183594-.1332664-2.5528946-.5047302-6.9944382-1.0959473-9.4775391-.2539063-1.0390625-.7421875-1.5751953-1.4482403-1.5957031-.3964844.0087891-.7880859.1259766-1.1591797.2626953-1.4114647.5200119-4.0168381.5800323-6.4990234-.3007813-1.187479-.4434261-1.9491177-.6768818-2.5761719-.4873066-1.1425781.2226563-1.8974609 1.2070332-2.4824219 2.1386738-5.5999107 8.7156715-7.0307398 17.2662964-7.0683603 17.3896484-.0891809.4904976.6501875.6212349.7382813.1367188.0343771-.1126862 1.4446917-8.5334702 6.9628916-17.1240234.5039063-.8007813 1.1347656-1.6416016 2.0009766-1.8066406.7149315-.1340523 1.428278.184082 2.171875.4589844 2.6466904.941185 5.4325047.8796196 7.0107422.2988281.9729786-.3586311 1.3284378-.3838501 1.6191387.8046875.5672264 2.3802032.9316216 6.6624146 1.0667725 9.114502-.8422852-.2297363-1.663084-.5234375-2.4398174-.8947754-2.9707031-1.4160156-5.4238281-3.8232422-6.90625-6.7783203-.0927734-.1855469-.3203125-.2597656-.5029297-.1669922-.1855469.0927734-.2597656.3183594-.1669922.5029297 1.5566406 3.1035156 4.1328125 5.6318359 7.2529297 7.1191406.8868408.4239502 1.8309307.7429199 2.796751.9907227.109375 2.4306641.1152344 4.8531494-.0106201 7.237793-.2164841 3.4583855-1.1022453 4.3803596-4.3701153 4.7001953-4.3027344.4375-8.6943359.4804688-13.0449228.1298828-2.2068396-.176548-3.5790453-.7056198-3.6064453-2.9873047-.0071573-.5009918-.7570353-.4874344-.75.0097656.0136719 1.078125.3007813 1.9013672.8798828 2.5214844.885742.9296876 2.2275389 1.1093751 3.4160154 1.2041016zm26.0976553-14.5878906c1.4977989 0 1.9214401 2.4953613 1.1152344 3.4023438-.5136719.5722656-1.5117188.5322266-2.1816406.1621094-.5791016-.3164063-1.4882813-1.0673828-1.5917969-1.5117188-.0858955-.4294815.7534828-1.0489883 1.1181641-1.3242188 0 0 .8390236-.7285156 1.540039-.7285156zm11.8197022-14.0405292c2.0309868 1.791935 2.4597969 6.0773067 7.3883057 6.4555683-1.6811676 2.0238876-5.0760078 2.7802124-8.7647705.6257324-4.1484337-2.4345284-4.0398674-4.7005463-4.6231689-6.4107685-.1404343-.4282627-.5060616-1.2024784-.4532471-1.4211426.0004883-.0024414.0009766-.0108643.0013428-.0115967.0283203-.0810547.2207031-.2949219 1.4638672-.5458984 2.0707778-.443737 3.5541152.2230778 4.9876708 1.3081055zm-8.7376709-.0991211c-.3380585-.6796417-.7527695-1.5407047-.2539063-2.1767578.2060547-.2626953.5917969-.3896484.8564453-.2861328.6809616.2648182.8951721 2.422554.9748535 2.6811523-.5218506-.0283203-1.0418701-.0187988-1.5535889.0358887.0200196-.0827637.0169679-.171875-.0238036-.2541504zm-4.4481201 5.9733905c.25-.9899902.8200684-1.8901367 1.6099854-2.5300312.1600342-.1300049.4000244-.1101074.5300293.0500488.1300049.1699219.1099854.3999023-.0499268.5299072-1.3633575 1.0988331-1.8740463 3.0015697-1.1900635 4.6600361.18853.4478645-.5072212.7613716-.7000732.2800293-.3798829-.9400634-.459961-1.9999999-.1999512-2.9899902z"/><path d="m26.3721371 69.3711319c1.1147156 0 3.3454876-.3522263 3.5429688-1.4482422.1142578-.6376953-.4628906-1.1669922-1.0908203-1.3603516-.6660213-.204422-1.6235771-.1374893-1.7851563-.0605469-.0205078.0030518-.0401611.0087891-.0606689.012207l-1.2957764-8.8344688c-.0744762-.5045052-.8134804-.3735695-.7421875.109375l1.3029785 8.883297c-3.2163964.8641281-3.2782727 2.6987305.1286621 2.6987305zm-1.522461-1.2910156c.9949265-.6371536 2.7356815-1.1097107 3.7539063-.8007813.3544922.109375.5996094.3642578.5732422.5107422-.0789452.4341965-2.1079826 1.1043167-4.1103516.7011719-.3476563-.0693359-.4697266-.1669922-.4824219-.1679688.0009766-.0009765.03125-.0917968.265625-.243164z"/><path d="m17.3936214 69.5801163c1.2367668.3618546 2.6133575.4027557 3.8867188.0556641 2.1661873-.5883102 1.3216076-2.5076065-.7388916-2.5922852l-.1156006-9.2963829c-.0071583-.5009918-.7570362-.4874344-.75.0097656l.1156006 9.296627c-.9586182.0612793-1.888916.3067627-2.6820068.7160645-1.0348645.5338821-.9342289 1.4525604.2841796 1.8105469zm3.8955079-1.6191407c.3349609.1357422.5458984.4042969.5029297.5449219-.1379509.4544296-2.3284225.8967896-4.1875.3544922-.3476563-.1025391-.4345703-.2021484-.4492188-.2021484.2441215-.4272156 2.8695488-1.2146454 4.1337891-.6972657z"/><path d="m12.1963549 14.4951572c0-.0039063-.0644531.0058594-.2568359-.1503906l-1.2998047-.9902344c-.301733-.2285185-.7074986.0779476-.5810547.4267578.4365234 1.1894531.9599609 2.4355469 1.8349609 3.4824219.9530029 1.1376953 2.1983643 1.815918 3.442627 1.8835449.1488323.7977924.3550758 1.4811726.5258789 2.197998-1.1724911 1.502779.4026594 3.6403122 1.9185801 2.9541016.8377743 1.4875584 2.0076313 2.6242867 3.1939697 3.8266602 3.6188965 3.6671486 8.839962 3.348032 11.9580059.0849609 1.6222229-1.6976986 2.2099037-3.8416977 2.3267822-6.1523438.6676025-.0562744 1.2954102-.4384766 1.6243896-1.0263672.7362671-1.3159218-.1410751-3.0127239-1.8238525-3.0412598-.0024414-.0197754-.0047607-.0400391-.0073242-.0598145.5849609-.0751953 1.09375-.3591309 1.4063721-1.0092773.4131088-.8627625.5104637-2.8133421-.171875-3.9277344-.3447266-.5634766-.9951172-1.0439453-1.7109375-1.0888672.2744141-1.7226563-.5595703-3.6523438-2.015625-4.4999995-.6679668-.3876953-1.6865215-.7158203-2.4794903-.7958984-.0898438-.0146484-1.5654297.1220703-2.3193359.4589844-.8408203-1.1025391-2.3271484-1.6943359-3.6962891-1.4169922-1.390625.2802734-2.5478516 1.4345703-2.8710938 2.8154292-.0870361-.0061035-.1741943-.0009766-.2613525-.0019531-.5007324-1.7233882-2.0393066-3.0712886-3.8236084-3.304687-1.8505869-.2363281-3.7666025.734375-4.6572275 2.3710938-1.4394703 2.6261001-.0274277 6.2449622-.1972656 6.8593745-.013672.0615235-.0517579.1015626-.0585938.1044922zm4.4240732 7.1401368.1837158-.0456543c.1579704.8940945.3706417 1.466507.6397705 2.0510254-.8182468.3052997-1.8375635-1.1357136-.8234863-2.0053711zm15.7692852 6.0581054c-2.8529377 2.9870777-7.5877571 3.2431335-10.881834-.0947266-1.8813438-1.9314518-3.5383358-3.4906292-3.9838867-6.2302246.0640869-.0500488.1166992-.112915.1381836-.1945801.2900391-1.1201172.8916016-2.1796875 1.7060547-3.0078125 2.2744007.9961033 4.8275814-.2759743 5.4316406-2.3398438.4658871.6211853 1.6417274 1.2337589 2.7939453 1.1367188.9912109-.09375 1.9082031-.6669922 2.4638672-1.4833984.6312008 1.3076363 1.55229 1.5236073 1.6523438 1.5957031.683836.3051758 1.6666241.7414551 2.5863018.8532715.4405707 3.4492989.5085715 7.2372418-1.9066163 9.7648926zm2.8880615-6.3887939c.005127-.8914795-.0491943-1.7619629-.1313477-2.557373 1.5549698.0524425 1.6991501 2.3177928.1313477 2.557373zm-13.8343487-12.055542c.2017097.0342913.402647-.1099749.4296875-.3242188.1513672-1.2275386 1.1357422-2.295898 2.3398438-2.5380855 1.2080078-.2451172 2.5390625.3623047 3.1503906 1.4345703v.0009766c.160244.2823358.58494.240334.6835938-.0732422.3798828-.1757813 1.6894531-.3935547 1.9550781-.3935547h.0039063c.6855469.0693359 1.6015625.3632813 2.1777325.6982417 1.3027344.7578125 2.0136719 2.6660156 1.5517578 4.1660156-.0855675.2750463.1608391.5497551.4638672.4707031.5585938-.1708984 1.1660156.2353516 1.4482422.6953125.523571.853961.4548645 2.5443621.1357422 3.2119141-.6153297 1.2774792-2.6976471.2282181-3.9746075-.2988281-.7304688-.3291016-1.1962891-1.2041016-1.3193359-1.8769531-.0671215-.3670683-.6075821-.4407797-.7285156-.0400391-.2890625.9677734-1.2304688 1.7392578-2.2333984 1.8339844-.9057484.0889778-1.9038601-.4508123-2.1943359-.9433594-.1367188-.2333984-.3613281-.6298828-.7558594-.5283203-.4008465.0972204-.4476032.856226-.5957031 1.1894531-.8781509 1.7213726-2.932003 2.2835217-4.5126953 1.4492188-.1425781-.0751953-.3144531-.0507813-.4316406.0585938-.9541016.8964844-1.6728516 2.0703125-2.0410156 3.328125l-.4736328.1171875c-.5102158-2.0700111-1.262229-4.349596.6279297-5.4980469.1669922-.1005859.2285156-.3125.1416016-.4873047-.5546875-1.1162109-.5205078-2.5175781.0888672-3.65625.0859375-.1621094.0419922-.359375-.0966797-.4697266.1542969.0869141.3554688.0498047.4716797-.09375.8583981-1.0673827 2.3408199-1.6347655 3.6874996-1.4326171zm-9.0917978 5.9794922c.3105469-.0683594.5595703-.3330078.6308594-.65625.2565022-.9254875-1.1936131-4.2735634.1279297-6.6816401.734375-1.3496094 2.3681641-2.1855469 3.9013681-1.9863281 1.4157715.1848145 2.6851807 1.2617188 3.1507568 2.6110835-1.1574707.1774902-2.2490234.774292-2.9906006 1.6955566-.1298828.1621094-.1044922.3984375.0566406.5273438-.0007324-.0004883-.0014648-.0004883-.0019531-.0009766-.1806641-.0966797-.4091797-.0283203-.5078125.1542969-.6679688 1.2480469-.750001 2.7675781-.234375 4.0410156-1.1850595.8719482-1.3894053 2.1535645-1.2612314 3.4379883-1.9177351-.1969471-3.1700306-1.8239613-3.9614258-3.5991211.3738509.2761916.6407519.5454358 1.0898438.4570312z"/><path d="m21.0557308 12.8291416c.8466797-.9804688 2.0117188-1.6611328 3.2822266-1.9179688.4970951-.1003752.3236408-.8479404-.1484375-.734375-1.4326172.2880859-2.7470703 1.0566406-3.7021484 2.1621094-.326809.3789072.2498302.8590565.5683593.4902344z"/><path d="m30.5762386 24.1875401c-1.3896484.9990234-3.4277344 1.03125-4.8505859.0742188-.1064453-.0703125-.2402344-.0839844-.3603516-.03125-.1171875.0517578-.2001953.1601563-.2197266.2871094-.2944031 1.9525757.8832073 3.6464844 2.9394531 3.6464844 2.113718 0 3.4159336-1.9045658 3.0791016-3.7402344-.0494365-.2657167-.3618888-.398367-.5878906-.2363282zm-4.7226562 1.0117187c1.4238281.6933594 3.203125.6689453 4.6074219-.0625-.1687108 2.9409084-4.5022946 3.13377-4.6074219.0625z"/><ellipse cx="30.557" cy="19.739" rx=".858" ry="1.065"/><path d="m25.9491634 19.848917c0-.5881348-.3840332-1.0651855-.8579102-1.0651855s-.8580322.4770508-.8580322 1.0651855c0 .5883789.3841553 1.0653076.8580322 1.0653076s.8579102-.4769287.8579102-1.0653076z"/><path d="m64.9463577 44.4629326c-.0644531-.1962891-.2763672-.3037109-.4736328-.2392578-2.7626991.90625-5.8779335.7861328-8.5498085-.3310547-.4490852-.1954575-.7516518.4978714-.2890625.6914063 2.8325272 1.1853371 6.1396637 1.3135376 9.073246.3525391.1962891-.0644532.303711-.2763673.2392578-.4736329z"/><path d="m59.3106117 50.7568779c.2586899.414608.8999977.0315933.6386719-.3945313-.9257813-1.4970703-2.3564453-2.6953125-4.0302734-3.375-.4581108-.1855965-.7428589.5078545-.28125.6953125 1.5263671.6191407 2.8310546 1.7109375 3.6728515 3.0742188z"/><path d="m48.4209633 27.7959385c1.5126953 3.2080078 4.4775391 5.6103535 7.9306641 6.4248066.4882393.1178474.6501465-.6172562.171875-.7304688-3.1845703-.7509766-6.0292969-3.055666-7.4248047-6.0146503-.209713-.4473915-.8910523-.1297646-.6777344.3203125z"/></g></svg>