<svg id="Layer_1" enable-background="new 0 0 75 75" viewBox="0 0 75 75" xmlns="http://www.w3.org/2000/svg"><g id="Eating_Mushroom" fill="rgb(0,0,0)"><path d="m32.1668663 55.867363c-.5040302 3.7858887-1.0081806 7.5523682-1.5224628 11.3382568-.0936279.0892334-.1883545.1785889-.2519531.2901611-.1318359.2299805-.2929688.703125.1074219 1.2866211.2822266.4116211.7402344.5942383 1.1513672.7177734 1.1929417.3615799 2.4744587.4603958 3.6904316.2978516 1.4512558-.1922836 1.618515-1.4552307.3222656-2.1347656-1.0898438-.5708008-2.2998047-.9155273-3.5-.9970703-.2157001-.015625-.4603291.0253906-.7028828.0931396.4893799-3.6016846.9703388-7.1890869 1.4499531-10.793335.0650443-.4878463-.6775895-.5965919-.7441407-.0986327zm3.1494141 12.4599609c2.4020004 1.2635956-5.0981922.9655914-4.2724628-.4599609.5728473-1.0047455 3.235506-.0828705 4.2724628.4599609z"/><path d="m22.0369816 55.3571091-1.49646 11.206543c-.6283188.4691467-.6788635 1.1250992-.2818604 1.7050781.28125.4106445.7392578.5932617 1.1513672.7177734 1.2118225.3664322 2.4941044.4581833 3.6904297.2978516 1.4511814-.1940155 1.6194916-1.4566269.3222656-2.1347656-1.0524635-.5517197-2.9866123-1.1787567-4.0772705-.9406738l1.4356689-10.7521973c.0655862-.4918938-.6785888-.59124-.7441405-.0996094zm3.0380859 12.4565429v.0004883c2.3982849 1.2538223-5.0871449.9730835-4.2724609-.4604492.5741939-1.0067825 3.2425518-.0797119 4.2724609.4599609z"/><path d="m35.145504 23.4744797c.6256104.3312378 1.401123.0939331 1.7322998-.5300903s.0925293-1.3983765-.532959-1.7296143-1.401001-.0938721-1.7321777.5300903c-.3311768.6240235-.0926514 1.3983765.5328369 1.7296143z"/><path d="m27.3716984 23.1262131c.6254883.3312378 1.401001.0938721 1.7321777-.5300903.3311768-.6240234.0926514-1.3983765-.5328369-1.7296143-.6256104-.3312378-1.401123-.0938721-1.7322998.5300903-.3311768.6240235-.0925293 1.3983765.532959 1.7296143z"/><path d="m15.9539747 19.9322433c-.0212402 1.772522 1.2348623 3.4676514 2.9293203 3.9744873.059082.0308838.1221924.0523682.1878662.0523682.0025635 0 .0050049-.0014038.0076904-.0014648-.6836319 1.6600552.8490314 3.0991631 2.0987549 2.425293.0274658-.0149536.0469971-.0375366.0692139-.0578003 2.9886284 7.6983223 11.933218 8.1902924 15.5684834 4.1950684 1.3986893-1.5260448 1.7797241-3.8234062 1.8848877-5.8929443 2.3804245-.2548122 2.7310829-3.0288467.993042-3.569519 1.9383926-1.5148449 3.0473442-4.2435913 1.7988281-6.430665-.5057716-.8655815-1.3064957-1.5912313-2.2744141-1.934082.1757813-1.6391602-.609375-3.3447266-1.9824219-4.2397461-1.357296-.8925486-3.2948036-.9557624-4.5380859-.1787109-1.4319057-4.1913013-5.7833328-3.8709154-7.3466816-.9570308-.3631725.6699729-.3048458.6618986-1.0039063.5771484-2.1894798-.2736855-4.4740009-.2953591-6.3007813 1.1586909-.3899822.3101072.0819817.8959332.4667969.5869141 1.6493797-1.312295 3.7695179-1.247653 5.7412109-1.0014648 1.0712891.1342773 1.2460938-.0112305 1.6660156-.7978511l.0898438-.1669922c1.2993546-2.4204888 4.8126755-2.6577506 5.9951191.8950191.0166016.0473633.0224609.0830078.0273438.1088867.0791016.4394531.4326172.4169922.6230469.402832.1826172-.012207.3574219-.1201172.5263672-.2236328.8192596-.507453 2.4659309-.5509462 3.6425781.2236328 1.2207031.7954102 1.8818359 2.3603516 1.6074219 3.8061523-.0371094.1938477.0830078.3833008.2734375.4326172.9213982.2399693 1.6755409.8929739 2.1376953 1.6831055.5761719 1.0083017.5839844 2.1416025.0244141 3.3701181-.474205 1.0547829-1.2323761 1.872097-1.8935547 2.2612305-.0019531.0009766-.0039063.0019531-.0058594.0029297-.2488518-.9058762-.9995041-1.4606323-1.8535156-1.5224609.4488564-1.6861744-.5528908-3.9244843-2.09375-4.5356455-1.339962-.5413122-3.0856991-.077198-4.0898457 1.4082031-1.4842377-2.0023422-4.334198-2.2024422-6.1005859-.140625-.1972656.2192392-.8798828 1.5239267-1.0859375 2.434083-.990839-.4781876-2.5835304.0861626-3.1201172 1.7475586-.1886215.5658646-.0749283.9851074-.2109375 1.5415039-.0060711.0235901-.0350933.1363182-.0371094.144043-.5025578.2796497-1.2723427 1.0814934-1.5054932 1.3891602-1.265625-.491333-2.1828613-1.7944946-2.1663818-3.1635742.0097656-1.4428711 1.1201172-2.8525391 2.5273438-3.2084961.3431416-.0879574.3847694-.5596294.0634766-.7050781-2.0503769-.9297571-2.8962517-3.5226984-1.5419922-5.5722666.2710552-.4135923-.3521042-.8276863-.6269531-.4130859-1.3972044 2.1194897-.8637295 4.8286304 1.1416016 6.2548838-1.3515626.677734-2.3037101 2.1196285-2.3134757 3.6372066zm4.86621 5.7905274c-.2207031.121582-.5341797.0849609-.7597656-.0844727-.5903854-.442791-.6045036-1.6884975.4571533-2.1141968.1063232.7454834.277832 1.4675293.5045166 2.1621704-.0683594-.0045776-.1378174.0025635-.2019043.0364991zm-.6833496-2.8644409c.1203613-.1143188.2154541-.2027588.2897949-.2694702.00354.0518799.0057373.1040649.0100098.1558228-.1032715.029724-.2022705.0686034-.2998047.1136474zm19.8962421-.2625122c-.0016479.541151-.4199791 1.1195812-1.3138428 1.2608032.0126953-.656189.010498-1.3048096-.0091553-1.9193115.0311279-.0169678.0690918-.0131836.095459-.0397339.432293-.4311943 1.2320443-.0534859 1.2275391.6982422zm-16.0566425-3.2915039c.0006104.0003052.0013428.0006714.0019531.0009766l.0009766.0004883c.3729725.2059536.745369-.2792473.4511719-.5878906-.0289783-.431778.720068-2.0994587.9638672-2.3769531 1.5365295-1.796978 4.2104359-1.6108875 5.3076172.765625.1822052.4578476.8775272.1836491.6972656-.2763672-.0009766-.0029297-.0019531-.0053711-.0029297-.0078125-.0001221-.0005493.0001221-.0014038 0-.0019531-.1056957-.3011532.7519016-1.1269474 1.2011738-1.38379.8546181-.4613876 1.884861-.369092 2.4727783.0078735.4292297.2741022.9058304.8413897 1.1948242 1.670289.5708885 1.6422997-.2217064 2.0733147.1185303 2.5371704.2841454.391201.839386-.0339127 1.5079346.5797729.0922623 3.0793324.4457512 7.5177937-1.6300049 9.7825928-2.2372665 2.4594383-7.0429993 3.0915222-10.6884785.7080078-2.671875-1.7387695-4.4179688-5.2554321-4.4375-8.9512329.0183105-.1118221.0765934-.1449566.1054688-.809082.0692291-1.4566746 1.0461674-2.2100716 1.9707031-2.0786133.284111.0604476.4467296.2465991.7646484.4208984z"/><path d="m31.1346378 30.8043747c2.9175282 0 4.987524-2.6902828 4.6103535-4.847229-.0501175-.2871208-.399807-.412981-.6181641-.2158203-.8245964.7327557-1.8467484 2.2725811-4.4003925 2.1895142-1.2792969-.0322266-2.6103516-.4794922-3.9570313-1.3295898-.2896538-.1846561-.6594658.0925388-.5595703.4248047.6467896 2.145914 2.5853844 3.7800845 4.9248047 3.7783202zm2.5585957-2.8383789c.5214844-.2924805.9160156-.6694336 1.2890625-1.0419922-.6776886 3.602169-5.6364841 4.3522015-7.6318378.8652344 2.02635 1.0105514 4.3537883 1.2934971 6.3427753.1767578z"/><path d="m27.6932316 10.0616369c.2988281-.4345703.9414063-.512207 1.4199219-.3637695.5927734.1835938 1.0742188.6479492 1.4667969 1.0786133.0742188.0810547.1757813.1220703.2773438.1220703.3222561 0 .4979-.3857813.2773438-.6279297-.4345703-.4750977-1.03125-1.0512695-1.8007813-1.2895508-1.500288-.4613056-2.7781982.7513809-2.1621094 1.1762695.1718749.1176758.4042968.0751954.5214843-.0957031z"/><path d="m41.3767052 29.3827438c-.9445381 1.0565434-1.4337387 2.0834522-.3703613 3.2249756 1.0211792 1.0962257 4.3037453 2.4552689 5.9160156 2.9747314-.0544434.0529785-.0976563.1181641-.1119385.1989746-.1128044.6336098-.482357 1.2741318-.9093018 2.1950684-2.3913574-1.5712891-5.0083008-2.7126465-7.7938232-3.373291-.4885254-.1099777-.6532898.6154442-.1738281.7294922 2.7410889.6503906 5.3162842 1.7758789 7.661499 3.3353271l-.0419922.0992432c-.4438477.3239746-.9707031.8118896-1.0964355 1.3415527-1.8280029.5970459-3.7460938.9304199-5.6801758 1.0108643-.5480957-2.6622314-1.1264648-5.3179932-1.7598877-7.9388428-.0650787-.2673798-.4007149-.3801308-.6103516-.1948242-.3388672.1425781-2.0869141.5610352-2.3476563.6108398-2.4221573.4737091-5.1657219.4005241-7.7382832-.3300781-2.2376709-.6450424-3.0154457-1.6461601-4.0449219.4838867-.3785896.7331314-.5093765 1.5535812-.7050781 2.3457031-1.7872219 6.9160576-1.5576782 6.1201859-1.7148438 6.59375-.183569.5407104-.4317589 1.3106575.1474609 1.3256836.2011719-.0014648.3798828-.1582031.3847656-.3652344.0048828-.2080078.0927734-.46875.1787109-.7207031.3997211-1.2084541 1.9748993-8.0603256 2.3798828-8.84375.5567398-1.1496315.7956276-.936058 1.5166016-.6591797 3.1175594 1.2464294 6.6008949 1.5200844 9.7382832.90625 1.1083984-.2119141 1.78125-.3916016 2.1914063-.5429688.5811768 2.4267578 1.1168213 4.8818359 1.6248779 7.3431396-2.7392578.0187988-5.4846191-.4578857-8.0125751-1.4622803-2.0332031-.8071289-3.3564453-1.7495117-4.1640625-2.965332-.2749386-.4135742-.8992767.0012779-.625.4150391.8964844 1.3491211 2.3300781 2.3813477 4.5117188 3.2475586 2.5557537 1.0151138 5.3580112 1.5590363 8.4384785 1.5212402 1.1183472 5.5050049 1.5534286 7.2515335.9238281 8.8166504-.3935547.9677734-1.2421875 1.8051758-2.390625 2.3574219-.9980469.4853516-2.0996094.7172852-3.4462891.9160156-3.5341816.5224609-7.1259785.5761719-10.6757832.1567383-.9599609-.1098633-1.9521484-.2695313-2.6142578-.9033203-.7216797-.6762695-.9765625-1.8081055-.8017578-3.5585938.1689453-1.565918.5185547-3.1201172.8037109-4.2993164.1173-.4832726-.6139011-.6586075-.7285156-.1767578-.2910156 1.2011719-.6474609 2.7866211-.8212891 4.3989258-.1259766 1.2612305-.1552734 3.0673828 1.0322266 4.1801758.828125.7924805 2.0058594.9853516 3.0429688 1.1040039 1.6064453.1894531 3.2216797.2841797 4.8359375.2841797 2.5761242 0 7.3944645-.3071289 9.7001972-1.4267578 1.3144531-.6328125 2.2939453-1.609375 2.7587891-2.7509766.7394295-1.8389015.229744-3.7348175-.8631592-9.12854 1.9333496-.09021 3.8498535-.4229736 5.6813965-1.0118408.0150146.0229492.0275879.0463867.0439453.0690918-1.2483635 2.9872093-3.1093063 6.3079338-1.6453857 8.9238281 1.3257256 2.3611069 4.3437347 2.3235588 5.6708984-.2207031.2295418-.4403496-.4354401-.7857094-.6660156-.3466797-1.5512352 2.9800835-5.414299 1.4175987-4.7070313-2.6049805.2097244-1.2596321.8065796-2.5127449 1.9039307-5.1394043.7563744.7907524 1.5761681 1.5134277 2.8109131 1.5134277.2907715 0 .5699463-.0577393.833252-.1561279-.0339622.9308167-.1460762 3.6058006-.2893066 4.5233154-.0747566.4894142.66465.6053162.7421875.1142578.0693359-.453125.1005859-.9160156.1328125-1.3911133.0819092-1.1708984.1412354-2.4006348.1848145-3.7431641.8803482-.8857536 1.0041962-2.2522621.0546875-3.3485107-.0008545-.9173584-.0111084-1.8275146-.0369873-2.7449951 1.067627.220459 2.1549072.387207 3.2700195.4926758 1.390625.1315918 2.852417.0651855 4.0900879-.5817871 1.237793-.6472168 2.1893311-1.9888916 2.0334473-3.3769531-.0881348-.7851563-.5039063-1.4902344-.9101563-2.1679688-3.3333588-5.562624-3.9371567-6.926445-5.4822998-7.6947021-1.1627197-.578064-2.5758057-.4693604-3.7794189.0177612-2.3087731.9342786-5.8297196 4.5507337-7.4809571 6.3978883zm2.3840332 2.4533692c-.4071045-.0511475-.6870117-.4914551-.625-.9833984.0617676-.4919434.4420166-.8491211.8491211-.7978516.4072266.0511475.6870117.4914551.6251221.9833984s-.4420167.8491211-.8492432.7978516zm2.5483398-4.6550293c.0288086-.3963623.3735352-.6943359.7698975-.6655273s.6943359.3735352.6655273.7697754c-.0288086.3964844-.3734131.6943359-.7698975.6655273-.3962402-.0288086-.6943359-.3734131-.6655273-.7697754zm.4046631 14.6945801c-.3017578-.1958008-.59375-.4545898-.9179688-.8139648-.1305351-.1427727-.2594452-.2512627-.4403076-.4543457-.0048828-.0053711-.0083008-.0112305-.0134277-.0162354-.0736084-.0838623-.1323242-.1618652-.1520996-.21521-.0203667-.4344559.8724136-1.1007271 1.2562256-1.2932129h.0009766c1.4061966-.7091255 3.0267868.1168671 3.1308594 1.4926758.0498047.6645508-.3359375 1.3325195-.9150391 1.5874023-.6650391.2915039-1.4414063.0424805-1.9492188-.2871093zm2.2008057-3.4494629c-.0507813-.0275879-.0924072-.067749-.1451416-.092041-.6624756-.3049316-1.4359131-.3306885-2.1564941-.1091309.2106438-.4477615 1.0143852-1.9926414.9327393-2.4449463.4470215.1312256.8979492.2501221 1.3527832.3572998-.0087281.0457192.0092391 1.1378632.0161132 2.2888184zm5.3041992-9.6704102c.3942871.0495605.673584.4094238.6240234.8037109s-.4094238.6738281-.8037109.6241455-.6738281-.4095459-.6241455-.803833.4095459-.6735839.803833-.6240234zm-.7802735 4.2045899c.4091797.0296631.7119141.4545898.6759033.9492188-.0360107.4943848-.3968506.8710938-.8060303.8414307-.4093018-.0297852-.7119141-.4547119-.6760254-.9492188.0360108-.4945069.3969728-.8712159.8061524-.8414307zm-2.2374267-7.1303101c.3358154 0 .6079102.2721558.6079102.6078491s-.2720947.6079102-.6079102.6079102c-.3356934 0-.6077881-.2722168-.6077881-.6079102s.2720947-.6078491.6077881-.6078491zm-1.7232666 5.0421753c-.0620117.4919434-.4421387.8491211-.8493652.7978516-.4069824-.0511475-.6868896-.4914551-.625-.9833984s.4421387-.8491211.8491211-.7978516c.4072265.0511474.6870117.491455.6252441.9833984z"/><path d="m52.3338585 49.1554489c-.2019691-.4503632-.8878899-.1467667-.6835938.3076172.8350487 1.8551788 3.4523659 1.8064651 3.6201172.3745117.0449219-.3754883-.1230469-.7670898-.4492188-1.046875-.2558594-.2202148-.5625-.3408203-.8544922-.4379883-.4771194-.1523476-.7026176.5564842-.2363281.7119141.340889.1131897.8386154.3257408.7958984.6845703-.0716208.5956459-1.6606482.5851402-2.1923827-.59375z"/><path d="m50.4774132 51.0289841c1.421875.8457031 2.5205078 2.2373047 3.0126953 3.8178711.1501045.4748497.8639412.2491379.7167969-.2226563-.546875-1.7553711-1.7666016-3.3007813-3.3466797-4.2397461-.42622-.2531433-.809021.3918343-.3828125.6445313z"/><path d="m49.4891319 52.9313278c.4580078.3754883.6845703 1.0405273.5517578 1.6171875-.1121712.4837303.6189804.6516075.7304688.1689453.1982422-.8574219-.1259766-1.8081055-.8056641-2.3662109-.3890495-.3135986-.8574638.2676926-.4765625.5800781z"/></g></svg>