<svg id="Layer_1" height="512" viewBox="0 0 512 512" width="512" xmlns="http://www.w3.org/2000/svg"><g><path d="m321.5 129v16.4c49.7 0 90.1 40.4 90.1 90.1h16.4c.1-58.7-47.7-106.5-106.5-106.5z"/><path d="m468.1 251c.6-5.5.9-10.6.9-15.5 0-81.3-66.1-147.5-147.5-147.5-47.5 0-91.8 22.7-119.5 61.1-9.2-2.5-18.6-3.8-28-3.8-56.1 0-102.2 43.6-106.2 98.7-37 4-65.8 35.3-65.8 73.3 0 37.6 28.5 69.1 65.5 73.2 18.7 21.2 45.4 33.3 73.7 33.3 28.1 0 54.6-11.9 73.3-32.8h221.7c40.7 0 73.7-33.1 73.7-73.7.1-28.2-16.5-54.1-41.8-66.3zm-31.8 123.8h-229.3s-22.9 32.8-65.7 32.8c-41.9 0-65.6-32.7-65.6-32.7l-3.6-.2c-30.1-1.9-53.7-27-53.7-57.2 0-31.6 25.7-57.4 57.4-57.4h8.2v-8.2c0-49.7 40.4-90.1 90.1-90.1 18.6 0 34.7 6.8 34.7 6.8l3.5-5.2c24.4-36.9 65.3-58.9 109.3-58.9 72.3 0 131.1 58.8 131.1 131.1 0 14.6-2.6 25.9-2.6 25.9l6.2 2.3c22.3 8.3 37.3 29.9 37.3 53.7 0 31.6-25.7 57.3-57.3 57.3z"/></g></svg>