<svg id="Layer_1" height="512" viewBox="0 0 512 512" width="512" xmlns="http://www.w3.org/2000/svg"><g><path d="m256 100.3c-85.8 0-155.7 69.8-155.7 155.7 0 85.8 69.8 155.7 155.7 155.7 85.8 0 155.7-69.8 155.7-155.7 0-85.8-69.9-155.7-155.7-155.7zm0 295c-76.8 0-139.3-62.5-139.3-139.3s62.5-139.3 139.3-139.3 139.3 62.5 139.3 139.3-62.5 139.3-139.3 139.3z"/><path d="m247.8 2h16.4v65.5h-16.4z"/><path d="m247.8 444.5h16.4v65.5h-16.4z"/><path d="m155.6 54.8h41v16.4h-41z" transform="matrix(.383 .924 -.924 .383 166.85 -123.77)"/><path d="m315.5 440.8h41v16.4h-41z" transform="matrix(-.383 -.924 .924 -.383 49.697 931.27)"/><path d="m85 176.3-37.8-15.7-6.3 15.2 37.9 15.7z"/><path d="m428.5 327.8h41v16.4h-41z" transform="matrix(-.924 -.383 .383 -.924 735.306 818.182)"/><path d="m327.8 42.5h16.4v41h-16.4z" transform="matrix(.924 .383 -.383 .924 49.697 -123.811)"/><path d="m167.8 428.6h16.4v41h-16.4z" transform="matrix(-.924 -.383 .383 -.924 166.79 931.253)"/><path d="m42.5 327.8h41v16.4h-41z" transform="matrix(.924 -.383 .383 .924 -123.772 49.67)"/><path d="m433.2 191.5 37.9-15.7-6.3-15.2-37.8 15.7z"/><path d="m404.2 66.8h16.4v65.5h-16.4z" transform="matrix(.707 .707 -.707 .707 191.195 -262.461)"/><path d="m91.4 379.7h16.4v65.5h-16.4z" transform="matrix(-.707 -.707 .707 -.707 -121.66 774.47)"/><path d="m485.4 247.8h-40.9v16.4h40.9 24.6v-16.4z"/><path d="m383.5 395.1 28.9 28.9 17.4 17.4 11.6-11.6-46.3-46.3z"/><path d="m67.5 247.8h-40.9-24.6v16.4h24.6 40.9z"/><path d="m128.5 117-28.9-29-17.4-17.4-11.6 11.6 46.3 46.3z"/></g></svg>