<svg id="Layer_1" enable-background="new 0 0 75 75" viewBox="0 0 75 75" xmlns="http://www.w3.org/2000/svg"><g id="Eating_Orange" fill="rgb(0,0,0)"><path d="m26.1778793 43.568821c-2.5095692-.4423523-4.6138897 1.2270851-6.4326172 2.7519531-.8515625.7148438-1.7333984 1.4550781-2.7294922 1.9697266-.3216515.1663742-.2859535.7563591-.0849609 1.1083984-.4685612.1293449-.7674503.3104172-1.140625 1.1533203-.3066406.7011719-.3730469 1.453125-.4375 2.1796875-.0888672.9941406-.0859375 2.0058594.5341797 2.6679688.5518532.5875778 1.2868958.6588821 2.0761719.5351563.6057911-.0933647-.2032146.0038834 7.7177734-.59375.2482681-.0186195.4095612-.2716637.3232422-.5039063-.6240234-1.6894531-.8818359-3.5664063-.7451172-5.4287109.1214485-1.666832.4393787-2.4403992.8681641-4.0898438.1113281-.4238281.2216797-.8496094.3466797-1.2753906.0628795-.2200738-.0807171-.438408-.2958985-.4746094zm-1.6669922 5.7851562c-.1318359 1.7978516.0849609 3.6123047.6279297 5.2763672-.101614.0076561-7.0005341.5191269-7.2910156.5644531-1.6360798.2536736-1.8958368-.72995-1.7490234-2.3964844.0595703-.6669922.1210938-1.3564453.3779297-1.9443359.3907089-.8848991.4961319-.6596947 1.4472656-.8886719.0183105-.0043945.0270996-.0229492.0440674-.0297852.0075684-.0019531.0148926-.0009766.0223389-.003418.9785156-.3173828 1.8935547-.7900391 2.71875-1.4042969.3956184-.2932205-.0430126-.8964272-.4472656-.6015625-.7501221.557373-1.5802002.9848633-2.4671631 1.2775879-.1596737-.053936-.2510033-.1978912-.2662354-.3371582 2.7389145-1.4912758 4.9242249-4.7913551 8.1044922-4.6074219-.7777253 2.8263704-1.0144082 3.6184389-1.1220704 5.0947267z"/><path d="m49.8216782 37.8766823c.4000244.1052246.8265381-.1987305.9530029-.6789551.1263428-.4802246-.095459-.954834-.4953613-1.0600586-.4000244-.1052246-.8266602.1987305-.9530029.6789551s.0953368.954834.4953613 1.0600586z"/><path d="m14.837059 53.0287819c.5002394.0493813.5585661-.7037277.0664063-.7480469-2.1820068-.1906738-4.3685303-.1542969-6.5128174.0927734-.174181-1.3407516-1.5489769-1.7651367-2.4627681-.2207031-.5556641.9414063-.8251953 2.0849609-.7597656 3.2216797.0413961.7438812.6624694 1.5761719 1.4248047 1.5761719 1.3391633 0 1.7547574-2.5827179 1.8145747-3.8251953 2.1164551-.2495117 4.2755127-.2866211 6.4295654-.0966797zm-7.6660151 2.4804687c-.1486645.4021759-.3743238.8376503-.7558594.6425781-1.2607474-.6615334.0971351-4.5533333.9580078-4.2089844.2898684.1217461.304956.6425667.2978516.9580078-.022461.8964845-.1904297 1.7734376-.5 2.6083985z"/><path d="m6.9405751 47.4721413c.3115234 0 .6152344-.1044922.8837891-.2158203.6040034-.2504883 1.1595454-.5874023 1.6903071-.9621582.1143446 1.3105659.6158724 2.2338638 1.2374268 2.802002 1.5224476 1.3402176 3.5650005.885994 5.4824219.3291016.4751015-.1374054.2701225-.8572578-.2089844-.7207031-1.5755835.4579124-3.4850769.9654655-4.7724609-.1660156-.7580519-.6938095-.993145-1.7688103-1.0125732-2.7861328.2285404-.2014236.4506826-.3922119.6268311-.7001953.5363808-.9333-.0832939-2.0365181-1.7148438-1.6826172-1.0683594.2333984-2.0908198.8134766-2.8789058 1.6337891-.4023438.4189453-.5888672 1.1083984-.4443359 1.640625.146213.5383298.5979036.8281248 1.111328.8281248zm-.1259765-1.9492188c1.5157447-1.5770721 4.0317845-1.9377785 3.4023433-.84375-.3402882.5922318-1.7527485 1.4998512-2.679687 1.8837891-.3935595.1633377-.871942.2960472-.984375-.1162109-.076172-.2802735.0410155-.694336.2617187-.9238282z"/><path d="m64.2765121 38.1999245c.6769028-1.4931335.8360596-1.4833794.6767578-1.755127-.0664063-.1142578-.1875-.1845703-.3193359-.1855469-.8730469-.0087891-1.7177734-.3583984-2.3183594-.9599609-.1289063-.1269531-.328125-.1445313-.4755859-.0449219-.5052567.3423805.3617134.804863.2237549 2.6765137-4.8703957-.9684525-9.324585 3.0831337-8.7142334 8.1013184-.2104263.0145149-2.3767128.8569336-5.5251465.8569336-.2070313 0-.375.1679688-.375.375s.1679688.375.375.375c1.9202881 0 3.8209229-.2956543 5.6500244-.8776855.2265625.9978027.6647949 1.9460449 1.3032227 2.7912598-.6070595.5842018-1.3820229 1.6090622-1.0684814 2.3898926-2.5126991.6374359-5.2305565.3792114-7.5394287-.7102051.6038818-1.1071167.7624397-2.3426743.5401611-3.4077148-.2800293-1.3100586-1.0200195-1.7602539-1.7700195-2.3601074-.2099609-.1799316-.4300537-.3701172-.6400146-.5900879-.1890869-.2126465-.3771973-.4438477-.5673828-.6777344 3.0645638 1.2429161 6.4803352.3028641 8.3105469-1.9677734.0578613-.043457.0965576-.1032715.121582-.1699219 1.7706413-2.3495407 2.1564713-5.9689522 1.3354492-8.793457.4720459-.0717773.9309082-.1843262 1.3790283-.3803711.481575-.2120895.1982918-.8703995-.2275391-.6953125-.1878777-.0662041-.5571785-.7631798-.6376953-.8808575-.2339668-.3652935-.2182198-.9716911-.4042969-1.4833984-.21875-.5693359-.6738281-.9833984-1.1904297-1.0810547-.4000587-.0718555-.7516556.0515919-.9853516-.0195313-.2659683-.0844154-.4730759-.4499817-.6904297-.78125-.4697266-.6933594-1.1552734-1.2539063-1.984375-1.6220703-.4604454-.1973343-.7542419.4862595-.3046875.6855469 1.8937607.8413773 1.7264099 2.1068249 2.7539063 2.4326172.4124794.1299152.825737-.0067749 1.0742188.0419922.2568359.0488281.5029297.2890625.625.6064453.202301.5591316.0909462 1.025856.4775391 1.6279297.1559448.2672634.2977676.515974.46875.7333965-1.6166992.4113159-3.2006302-.0100784-4.6123047-.935545-.2153358-.1415062-.5107002-.0273495-.5712891.2275391-.1465149.6211376.2155075 1.324316.6689453 1.8183575-1.2685547.3369141-2.7519531-.0712891-3.625-1.0625-.1289063-.1474609-.3535156-.1689453-.5087891-.0498047-1.3496094 1.0332031-2.0478516 2.8369141-1.7851563 4.5087891-.7392578.1640625-1.3652344.7529297-1.5585938 1.4921875-.9384766.3535156-1.4550781 1.0957031-1.7939453 1.7988281-.8427734-.4619141-1.6738281-1.6738281-2.1455078-2.6074219-.6064453-1.2216797-.7392578-2.4462891-.7890625-3.4853516-.0566406-1.0810547.3925781-2.3300762.8398438-3.4082012 1.1376266-2.7423286 2.9316673-3.671875 5.8603516-4.0986328.6904297-.0996094 1.6005859-.203125 2.5019531-.140625.203125.0205078.3857422-.1416016.4003906-.3476563s-.140625-.3857422-.3476563-.4003906c-1.7882957-.1233921-5.1520081.2956429-6.9716797 1.7314453-.8867188.6904297-1.6054688 1.6894531-2.1367188 2.96875-.4785156 1.15625-.9599609 2.5039043-.8955078 3.73242.0516357 1.0708008.1990967 2.3317871.8018799 3.6242676-1.2078438-.4717484-2.2003174.4383392-2.2003174 1.4841309-.6349335-.124279-1.3203964.0340271-1.7384033.5385742-.9075966-.3519592-1.8177185.0035706-1.7791748.8686523.0050049.1103516.0406494.2265625.064209.3410645-.687273.0036469-1.2834625-.0438652-1.8083496.0808105-.2519646.0603905-.3698807.350605-.2294922.5673828.7485447 1.1684608.3688126 1.3985062.4654541 2.0593262-.7509766-.2058105-1.487793-.2868652-2.1699219.0983887-.8000488.4702148-1.3199463 1.5400391-1.5200195 2.6501465-.2853241 1.5694618-.0242252 5.0531006.3100586 6.2697754.25.9301758.7199707 1.800293 1.4099121 2.2602539.6201172.4099121 1.3400879.4399414 2.0300293.4399414 3.0100098 0 6.0300293-.5 8.9799805-1.1401367 2.1378174-.473877 5.1234131-.4528809 6.7382813-2.4951172.1331596.1085548.7267265.3411331.8665771.3945313 2.354599.9099579 5.0007515 1.0536079 7.4316406.4033203.0882568-.0236816.1568604-.079834.2056885-.1489258.4978943.2574921 1.2006493.2954102 1.7630615.2954102.769619 0 1.5341797-.2070541 2.1171875-.7568359 3.7655945 1.4026566 8.0848083-.5699005 9.4488525-4.4816895.3182983.6693001.2856216.9768066.6507568.9768066.1298828 0 .2519531-.0673828.3203125-.1806641 3.2411348-5.3329737-.1083754-10.47279-4.2656249-10.1413576zm-12.7071533 3.40625c-.2873535.0766602-.557251.1394043-.8162842.1394043-.0019531 0-.0029297 0-.0048828 0-.9101944-.0057945-1.281826-.8731728-.4267578-1.0859375.4955101-.1231079 1.1046944.0066032 2.1029053-.545166-.2312012.5588378-.5222168 1.0498046-.8549805 1.4916992zm-9.5910644-2.3737793c.6308289 1.4251404 2.7810974 1.0682106 2.4085693.3071289-.0917969-.1865234-.3173828-.2597656-.5019531-.171875-.4878731.238842-1.1980743-.0154266-1.2862549-.697998.1350098-.5561523.6813965-.9926758 1.2628174-1.0080566.2899437-.0040245.4275398-.2572021.3730469-.4697266-.3642578-1.3925781.1162109-2.9619141 1.171875-3.9345703 1.2919922 1.2207031 3.3378906 1.5380859 4.9140625.7246094.0058594-.0029297.0117188-.0058594.0175781-.0097656.3508148-.1925659.1925468-.7281799-.203125-.7021484-.1278839-.0896111-.4676094-.4470024-.5976563-.7119141 1.0568848.5546875 2.1534424.8081055 3.2062988.7785645.2575684.8317871.3951416 1.7470703.4112549 2.6884766-.0317383-.0144043-.0567627-.0402832-.0913086-.0495605-.4000244-.1049805-.8266602.1989746-.9530029.6791992-.1735077.6591682.3175545 1.3047867.9553223.9936523-.0587158.4277344-.1331787.8388672-.2303467 1.2258301-.2933159.2035751-.670948.8324661-2.1019287.9709473-.1992188.0185547-.3984375.0380859-.5927734.0859375-1.1549721.2901001-1.3214531 1.4229927-.6611328 2.0849609.496151.4993324 1.1768723.4607315 1.2789307.4787598-2.8306198 2.4211884-7.4231224 1.9939232-10.1254883-1.6704102.3642577-.8393557.7854003-1.3300783 1.3452148-1.5920412zm-6.651001 1.0004883c.3346901.2327309.7497597-.1672554.5283203-.5117188-.3617363-.5615501.1228333-1.4617691.9345703-1.2626953.4082031.1005859.8632813.4980469 1.1074219.9638672.3123398.5988312.1168137.9859467-.4658203 1.1601563-.3984375.1220703-.8515625.0566406-1.1523438-.1611328-.3017311-.2202415-.7127304.0986824-.5654297.4482422.2497978.600071-.1880226 1.3748169-1.1807861 1.2614746-.0270195-.7019997-.1888809-1.3023376-.6572266-1.8334961.0375977-.0393066.057373-.0910645.1055908-.123291.3486329-.2421876.9511719-.2138673 1.3457032.0585937zm-3.0878906.4423828c-.0159264-.344017.6897507-.2452393.9580078-.0087891.6808472.594883.6840897 2.1111069.4296875 2.1777344-.0196533.0039063-.0511475.001709-.085083-.0041504-.4870072-.125679-1.275425-1.5580444-1.3026123-2.1647949zm-.6982422 1.1230468.2344971-.0087891c.1811523.3930664.4099121.7556152.6401367 1.0522461-.2367592.2647247-1.329422 1.2129784-1.6588135.9213867-.2422218-.1943741.2460899-.7538986-.3427734-1.9648438.3381767-.0148467.7839851.0096361 1.1269531.0000001zm.2120361 2.5122071c.4563293-.2805138.8479462-.5800247 1.1882324-.934082.5989189.4049034 1.3124619.2717781 1.5344238-.4968262 1.221756.1127777 1.9797363-.6566811 2.0506592-1.5432129.959465.2248344 2.0855522-.240551 2.2454834-1.1755371.3095703.3171387.6513672.5935059 1.0217285.7797852.2714844.4030762.5690918.7824707.892334 1.1311035-2.0609664-.0146943-5.4683227 3.1502571-8.9328613 2.2387695zm13.864624 7.3706054c-1.4306793-.5202446-2.7135086-1.320488-3.8179932-2.3066406-.1499023-.1298828-.1599121-.369873-.0200195-.5300293.130127-.1499023.3701172-.1599121.5300293-.0197754 1.0200195.9199219 2.25 1.6599121 3.5400391 2.1499023.1068115.0378418.1665039.1235352.2003174.2207031-.2956848-.0649756-.5313378.21167-.4323731.4858399zm18.4155274-14.7207031c-.2371826.4638672-.4528809.9414063-.6571045 1.4223633-.2961426.1069336-.5227051.2612305-.6777344.4853516.0090256-.0425797.0834503-.3835335.071167-.425293.1015625-.6386719.0888672-1.2851563-.0332031-1.9130859.4023437.2128906.8417969.359375 1.296875.430664zm-1.6455078 2.8515625c-.0048828 0-.0068359 0-.0107422 0 .0042953-.0085869.0015984-.0024605.0516357-.1025391-.0021973.0209961-.0087891.0358887-.0106201.0576172-.0013428.0161133-.0023193.0334473-.00354.0495605-.0058594-.0004882-.022461-.0046386-.0267334-.0046386zm-6.4267578 12.2216797c-.9316406-.0107422-1.4560547-.1328125-1.5566406-.3632813-.1113281-.2509766.1972656-.8466797.7490234-1.4462891.0883789-.0964355.2186279-.2138672.3658447-.3310547h.0003662s.0001221-.0002441.0002441-.0004883c1.0999298-.8738289 2.2235069-.4589386 2.486084.2651367.1601563.4394531-.0234375 1.0166016-.4365234 1.3740234-.43507.376156-1.0306931.5019533-1.6083984.5019533zm2.616333-.6386719c.9411621-1.9185028-1.2030907-3.5532303-3.210083-2.3041992-3.669136-4.8803978.7018394-11.6366196 6.5970459-10.4162598-.0728264.367363-.1065331.5036049-.2298584.7468262-.0986328.1943359-.2001953.3964844-.1894531.5830078 0 .6988831.6254578.5250053.8297119.5678711-.0198517 1.1010704.2290306 2.1042519 1.7767334 3.4008789.0009766.0009766.0009766.0009766.0009766.0009766 1.1093063.9257813 1.9809494 1.3317108 2.8963623 2.6738281-.9674455 3.9427986-4.9531518 5.897377-8.4714356 4.7470703zm9.6981201-4.1210937c-.7381897-1.5825768-1.7370605-2.4190102-2.8535156-3.2597656-2.3048897-1.7392197-2.4037361-2.3747673-2.25-4.2646484.0341797-.421875.1484375-.5761719.5117188-.6884766 1.1357422-.3544922 2.6005859-.0029297 3.6376953.8789063 1.7625045 1.4949111 2.4226836 4.3743476.9541015 7.3339843z"/><path d="m40.6417465 30.6567135c-1.5166016 1.2480469-2.3994141 3.2431622-2.3037109 5.2060528.0267715.4989548.7735252.4616508.75-.0371094-.0849609-1.7304688.6923828-3.4892578 2.0302734-4.5888653.3816605-.3141727-.0888176-.8926258-.4765625-.5800781z"/><path d="m65.055809 39.82761c-.3937836-.3041801-.8526917.2814331-.4648438.5898438.7324219.5761719 1.3603516 1.2666016 1.8671875 2.0498047.2644348.4093361.9020309.0109024.6289063-.4082031-.5507812-.8525391-1.2353515-1.6025391-2.03125-2.2314454z"/><path d="m47.7872543 23.4262447c.5004883 0 1.4809952-1.6040916.9443359-3.1357422-.6155739-1.7600918-2.9864616-1.8086987-2.8603516.8886719.0247726.5227127.7725182.4402485.75-.0371094-.0175781-.3447266-.0107422-.625.0751953-.8691406.2807503-.7927036 1.0584831-.5027695 1.328125.265625.2636719.7548828.0566406 1.6796875-.5039063 2.2490234-.234947.2396775-.0623091.6386719.2666017.6386719z"/><path d="m53.500145 18.7231197c.3897552-.309927-.0845985-.8958912-.4667969-.5859375-1.7792969 1.4179688-3.0136719 3.5175781-3.3886719 5.7607422-.0817947.4884319.6569862.6121311.7402344.1230469.3447265-2.0625 1.4804687-3.9931641 3.1152344-5.2978516z"/><path d="m53.0509262 24.2963619c.2441406-.7470703.9316406-1.3251953 1.7099609-1.4384766.2050781-.0292969.3476563-.2197266.3173828-.4248047s-.2255859-.3525391-.4248047-.3173828c-1.0537109.1533203-1.984375.9355469-2.3154297 1.9482422-.1540679.4692116.5580788.7056199.7128907.2324219z"/></g></svg>