<svg id="Layer_1" height="512" viewBox="0 0 512 512" width="512" xmlns="http://www.w3.org/2000/svg"><g><path d="m393.6 219.1 44.5-32.3 44.5 32.3-17-52.3 44.5-32.3h-55l-17-52.3-17 52.3h-55l44.5 32.3zm39.4-68.1 5-15.5 5 15.5h16.3l-13.2 9.6 5 15.5-13.2-9.6-13.2 9.6 5-15.5-13.2-9.6z"/><path d="m333.6 166.7c0-34.7 27.3-73.9 27.3-73.9l-23.1 9.8c-44.2 18.7-72.7 61.7-72.7 109.6 0 3.9.2 7.9.7 11.9-.2 0-.3 0-.5 0-8.8 0-17.4 1.4-25.8 4.2-19.9-18.6-45.6-28.8-73-28.8-56.4 0-102.7 43.8-106.7 99.2-32.5 3.8-57.8 31.6-57.8 65.2 0 36.3 29.5 65.8 65.8 65.8h279.7c36.3 0 65.8-29.5 65.8-65.8 0-12.6-3.6-24.4-9.8-34.4 34.3-5.7 64.5-26.1 82.7-56.6l12.8-21.5s-31.8 17.8-63 17.8c-56.4 0-102.4-46-102.4-102.5zm14 246.6h-279.8c-27.2 0-49.4-22.1-49.4-49.4 0-27.2 22.1-49.4 49.4-49.4h8.2v-8.2c0-49.9 40.6-90.5 90.5-90.5 45.3 0 68.9 31.6 68.9 31.6s15.1-6.9 29.9-6.9c36.3 0 65.8 29.5 65.8 65.8v8.2h16.5c27.2 0 49.4 22.1 49.4 49.4-.1 27.3-22.2 49.4-49.4 49.4zm43.3-98.8c-26.9-20.4-43.8-16.4-43.8-16.4-3.6-35.3-29.8-64.7-64.6-72.2-.6-4.6-8.5-59.1 40.6-96.2-3.9 11.9-5.9 24.3-5.9 36.9 0 65.6 53.4 119 119 119 7.2 0 14.3-.6 21.3-1.9-17.6 18-41.1 29.1-66.6 30.8z"/><path d="m92.5 306.3h16.5c0-31.8 25.8-57.6 57.6-57.6v-16.5c-40.9.1-74.1 33.3-74.1 74.1z"/></g></svg>