<svg id="Layer_1" enable-background="new 0 0 75 75" viewBox="0 0 75 75" xmlns="http://www.w3.org/2000/svg"><g id="Eating_Popsicle" fill="rgb(0,0,0)"><path d="m31.9298134 47.9290848c.9926758.7001343 2.2988281.6687622 3.5109863.6165161 10.1367874-.5119438 10.1257362-.4440231 10.9823608-.6791992 2.1517715-.5763206 2.1280632-2.2855835 1.4838257-4.3887329-.2926025-.9613647-.5956421-1.9331665-.8881836-2.8945313-4.2538757-13.7425594-2.296608-11.2298794-8.9760742-10.6479492-2.0105515.1415787-2.6781349-.2124958-3.2602539-.3762207-1.5396957-.4309711-2.1818466.6025734-2.5809937 2.1630249-.9771481 3.8528976-1.5640316 7.856205-1.7450562 11.3898926-.0940551 1.7555542.0418092 3.8036499 1.4733888 4.8171997z"/><path d="m44.1226845 58.0120316c1.2563477 0 2.5131836-.1479492 3.7353516-.4399414 1.7539063-.4171791 2.150032-1.3181114 1.7875977-3.0693359-.5195961-2.5036697-.9418335-3.6047707-1.1162109-4.3339844-.4343491-1.8331642-.6631432-1.9104347-2.4819336-1.4628906-1.7687492.4360161-8.0663033.8930893-13.2910156.3554688-.0014648 0-.0024414 0-.003418-.0004883-1.2725124-.1212769-1.8989601.3313599-1.8964844 1.8251953.0039063 1.4248047.0629883 2.8710938.1757813 4.2988281.1895561 2.3850403.9259148 3.5092773 4.4462891 3.5092773 1.1681137 0 3.0157204-.1961594 3.8842773-.9726563.8847656-.7915039.9941406-2.0454102 1.0024414-3.1889648.1384315-.0773582.4069519-.0309753.5571289.1206055.823181.8297119-.3183328 3.3636512 3.2001952 3.3588867zm-3.7016602-4.2612305c-.369381.033474-.8051758.3092422-.8051758.628418-.0004883 1.0678711-.059082 2.1625977-.7529297 2.7832031-.9332314.8343201-3.5439835.8665428-4.855957.6743164-1.706295-.2499046-2.0844097-.9174194-2.2265625-2.7114258-.1113281-1.4082031-.1699219-2.8354492-.1738281-4.2412109-.0026035-1.0578613.26091-1.1534348 1.074707-1.0766602 3.7030792.3802338 8.4077721.3583488 12.949707-.2436523.2943611-.0393867 1.5842934-.4105415 1.7905273-.3417969.1430664.128418.3139648.8486328.378418 1.1196289.2059059.8730392.5961266 1.8308144 1.1113281 4.3134766.3072548 1.4864578-.0025558 1.89608-1.2270508 2.1875-1.1857948.2831612-4.5792313.8489265-5.3076172-.1298828-.4691353-.6311378-.1504822-1.8104897-.9213867-2.5878906-.2636718-.2651368-.6601561-.4106446-1.0341796-.3740235z"/><path d="m44.7970009 58.6287308c-.2062645-.4523773-.8882713-.1379242-.6816406.3115234.0469666.1025429 3.6323738 7.9300308 3.5844116 7.8252563-.9880486.2818069-1.3285141.3783951-1.5604858.5580444-.5582466.4323578-.5199432 1.2970734.5336914 1.5439453 1.6061096.3736877 5.1067123.1768799 4.9189453-1.3911133-.1388588-1.141983-2.0574379-1.1234055-3.1884766-.8818359-.0011292-.1580657.1765518.3369676-3.6064453-7.9658202zm5.5375976 8.6445312c1.6820488.3392639-1.0574036 1.4305878-3.4912109.8637695-.2539063-.059082-.3071289-.1318359-.3095703-.1318359.0080452-.1166534.3126602-.2030029.4165039-.2338867h.0004883c1.2181167-.3731689 2.2256851-.7308426 3.383789-.4980469z"/><path d="m34.1119423 68.429512c-.0195313.3041992.1289063.6132813.3974609.8276367.611351.4896698 2.8969116.9731369 5.043457.2514648 2.056469-.6955719 1.2451248-3.1672134-3.4553833-2.3768311l-.2428589-7.9429932c-.0149956-.4879036-.7653732-.4777908-.75.0224609l.2473755 8.09198c-.6271362.1895143-1.2019042.5147707-1.2400512 1.1262819zm.7485351.046875c.029213-.4849472 1.8554802-.6655731 1.9555664-.6928711 1.9853439-.2772446 4.0490723.4897079 2.4970703 1.0141602-2.0025597.6745071-4.4815483.1466522-4.453125-.3203125.0000001 0 .0004883-.0004883.0004883-.0009766z"/><path d="m41.3391762 21.0852737c.6184692.0823975 1.2043457-.4851074 1.3085938-1.2675171s-.3126221-1.4834595-.9311523-1.5658569c-.6184692-.0823975-1.2043457.4851074-1.3085938 1.2675171s.312683 1.4834595.9311523 1.5658569z"/><path d="m35.5387001 18.7129593c.104248-.7824097-.3126221-1.4834595-.9311523-1.5658569-.6184692-.0823975-1.2043457.4851074-1.3085938 1.2675171s.3126831 1.4834595.9311523 1.5658569 1.2043458-.4851074 1.3085938-1.2675171z"/><path d="m42.1646767 21.77668c-.3030663.3257942.0082512.1795845-.5498047.5356445-2.2739868 1.4750175-5.217247 1.2283134-7.2016602-.5078125-.2447624-.212698-.6252747-.0372772-.6220703.2861328.015625 1.5854492.9174805 3.1142578 2.2983398 3.8945313 2.6384125 1.4902859 6.2180252.0252495 6.7158203-3.4033203.0522461-.3012695.1113281-.6425781-.1254883-.8393555-.1528319-.1269531-.3789062-.112793-.5151366.0341797zm-7.5161133 1.1469726c2.1266747 1.3981018 4.943203 1.5366535 7.3144531.0556641-.9856415 3.8017559-6.3737183 3.7499619-7.3144531-.0556641z"/><path d="m45.4825478 31.7849808c-.4626656-.1663246-.720726.5399246-.25.7070313 4.629673 1.6391487 10.0970573.7272682 13.9685669-2.3962402.9451752.0987301 2.5795212-.2110195 3.3551636-1.1794434 1.4015808-1.7457085-.450573-4.1011047-2.5654297-2.6411133-1.3762169.9481907-1.7939262 2.8192215-1.5032349 3.4237671-3.6304932 2.7885742-8.6843872 3.614624-13.0050659 2.0859985zm14.934082-4.8925782h.0004883c1.8993988-1.313324 2.9353905 1.6879196.215332 2.3173828-.652832.1499023-1.1503906.1943359-1.4814453.1445313-.0624275-.1274929.0863495-1.6485271 1.265625-2.4619141z"/><path d="m30.9425087 32.2102737c.2286739-.4409313-.4368095-.7842388-.6660156-.3457031-1.2854004 2.4777222-4.1821899 4.0172729-6.9616089 3.8117676-.7781105-2.3360825-.6273136-2.5545807-1.0669556-2.8722534.5134888-.2019653 1.0177002-.4261475 1.4973145-.6958618h.0004883c.2886772-.162775.162365-.1431141.3789063-.2167969.1660156-.0566406.2705078-.2207031.2519531-.3950195-.3266602-3.0410156-1.3608398-6.0073242-2.9897461-8.578125-.3378906-.5332031-.7236328-1.0800781-1.2524414-1.4692383-1.2122631-.8924122-2.6273232-.5227642-3.1264648 1.0019531-.1816406.5551758-.203125 1.1567383-.2094727 1.6772461-.0356445 2.9291992.4692383 6.0385742 1.5004883 9.2421875.050293.15625.1948242.2602539.3569336.2602539.0087891 0 .0175781-.0004883.0268555-.0009766.7440186-.0532837 1.4817505-.192688 2.2061157-.3835449-.137249.432354.0534859.6057053.184082 1.1600342-.0024414.0012207-.0064697.0006104-.0088501.0018311-.6430359.2159271-1.3751812 1.6681786-.8945313 2.9521484.1842537.5166893.5728378.9243164 1.1230469.9243164.2662849 0 .6406078-.1263351.8894043-.2214355l.0308228.1011963c.1400146.4499512.6099854.6999512 1.0599976.5700073l.0800171-.0300293c.4499512-.1300049.6999512-.6099854.5599976-1.0599976l-.3615112-1.1897583c3.0865629.0977211 6.0587805-1.6786156 7.3911741-4.2442017zm-13.394043-8.0732421c.0058594-.4858398.0239258-.9985352.1723633-1.4526367.339304-1.0396214 1.1698761-1.2183895 1.9692383-.6308594.4287109.3154297.7646484.7949219 1.0629883 1.2661133 1.5195313 2.3969727 2.5004883 5.1518555 2.8461914 7.9829102-1.3398628.8547401-3.0607433 1.3955383-4.6767578 1.5541992-.9453125-3.025879-1.4077149-5.9580079-1.3740235-8.7197266zm3.6650391 13.3886718c-.4096889-.1265221-.8330307-1.4758186.1367188-2.4262695.0337334-.0163231.0996265-.0181007.1591797.0112305.1181622.051918.5519085 1.0556526.6713867 1.3823242.0712891.1948242.1552734.4736328.0639648.6396484-.1081734.1935082-.8386097.4457398-1.03125.3930664z"/><path d="m28.6353798 21.0330276c.4091797.4702148 1.0224609.7348633 1.6396484.7348633.0541992 0 .1071167-.0184326.1612549-.022583.8219261 3.0802326 3.2296829 6.3462696 6.3924561 7.0748291 3.5494614.8133049 7.5234909-.58992 9.1800537-4.3914185.4106483.1034794 1.240509-.0731735 1.7462158-.5846558.9347763-.9472523.5050812-2.5543385-.8126221-2.6616821.6445923-.5721436 1.2131348-1.2207031 1.6661377-1.9564819.3807297-.6184521.2475586-1.574604-.2475586-2.1630859 1.5999908-.7734661 1.9583702-2.8558321.5849609-4.3095713-.7114868-.7560787-1.011837-.7392502-1.909668-.9912109.2000198-1.6218872.2358971-3.29249-.9008789-4.4746089-1.2526016-1.3020864-3.6977844-1.5314875-5.9423828.5102539-.6503906-.7792969-1.3881836-1.6171875-2.3242188-2.1298828-2.605732-1.4294233-5.8798351.095139-6.4575195 3.0151362-.12183.6129818-.0907764 1.4051733.1958008 1.8759766-2.4131031.6619282-2.7963791 4.4864054-1.5126343 6.932435-1.8130607.1465817-2.5873069 2.2468434-1.4590453 3.541687zm8.3613281 7.0561524c-2.9275131-.6745186-5.149332-3.8073273-5.8745728-6.7149658.0157547-.1215458-.0145226-.1611214-.0485229-.2235107-.4757042-2.0966606-.3190479-4.15909.3478394-5.8779917.4117889-.5044422.8955574-.594841 1.4111938-.3510132 1.4873505.7035608 4.0365143.3948259 6.0957031-1.6547852.0029297-.0029297.0063477-.0063477.0097656-.0097656.5099144 2.0864305 2.4432716 3.3893633 4.5180664 3.1757822.0758286 1.6664715 1.766201 2.3427925 2.4342041 3.4516602.0015259.0081787-.0007324.0168457.0013428.0249023.7724686 5.1746197-3.5501823 9.4060383-8.8950195 8.1796875zm10.4526367-5.7597656c.2458038.5741539-.2299385 1.3248539-1.1522217 1.3629761.1824951-.5592651.3023682-1.1433716.366272-1.7391357.0038452-.0012817.0077515-.0003662.0115356-.00177.2739259-.0976564.6489259.0844725.7744141.3779296zm-15.4541015-11.0883799c.112793-.0185547.3017578-.0493164.4169922-.2299805.2362862-.3691959-.1580315-.8026781-.1972656-.9033203-.148304-.3944206-.1528473-.853672-.0683594-1.2788086.4795914-2.4178953 3.1910439-3.6941924 5.3618164-2.5039058.9366989.5135741 1.674942 1.4302602 2.3647461 2.26123.1445122.1725826.4006195.1784811.5541992.0249023 1.9948807-2.0032682 4.1250534-1.8878846 5.1674805-.8041987 1.0364304 1.0779624.8352051 2.7793269.6591797 4.164062-.0405273.3452148.1191406.3881836 1.0039063.6289063.2167969.059082.418457.1123047.4667969.1298828.6581535.3193026 1.3966522 1.2406054 1.3183594 2.2094727-.0722656.8833008-.8774414 1.6401377-1.6967773 1.5932627-.0004883 0-.0009766-.0004883-.0014648-.0004883-.4887848-.0414791-.5478516.7181702-.0458984.7490234.6397743.0393562.9674149 1.0701084.6708984 1.5512695-.3188477.5180664-.6928711.9956055-1.1166992 1.4262695-.4479828-1.8583698-3.0217896-2.6070366-2.6157227-4.1816406.0699883-.2726498-.1750565-.524827-.449707-.458497-1.8308983.4282084-3.7429314-.6643562-4.1557617-2.7368164-.0126953-.1567383-.0517578-.6342773-.5068359-.6679688-.2961655-.0271702-.5204926.2778635-.7250977.5209961-1.810257 1.8010197-4.0413666 2.0787745-5.2470703 1.5092773-1.323185-.6281672-2.5116215.3048363-2.8701172 1.6694336-.2099612-.8364257-.0867045-4.3125419 1.7124021-4.6723632zm-1.9356079 7.0086069c-.0431519.9215088.0368042 1.8518677.2180176 2.7648926-1.7292405.0013046-1.9478856-2.4957523-.2180176-2.7648926z"/><path d="m12.3853788 15.3118353c-.4965754-.0699234-.5998859.6670341-.1142578.7412119 1.3769531.2119141 2.6416016.9760742 3.4692383 2.097168.2956495.3994198.8979063-.0469513.6035166-.4453125-.9443369-1.2792969-2.387208-2.1513682-3.9584971-2.3930674z"/><path d="m16.9932899 14.8059759-2.4501963-2.559082c-.3430262-.3593607-.8849602.1603699-.5419922.5185547l2.4501963 2.559082c.3384381.3541298.8891755-.1559668.5419922-.5185547z"/><path d="m17.8370399 11.3342962c-.5732422 1.1240234-.3032227 2.6142578.6289063 3.4658203.3645287.3347731.8729744-.2182636.5058594-.5537109-.6914063-.6318359-.8920898-1.7373047-.4667969-2.5712891.2251053-.4408788-.441124-.7839317-.6679688-.3408203z"/><path d="m41.8585243 9.6560736h.0019531c1.1233292-.0102959 2.0282555.9618683 1.9326172 2.0908203-.0175781.206543.1357422.3881836.3417969.4052734.0107422.0009766.0214844.0014648.0322266.0014648.1928711 0 .3564453-.1479492.3730469-.3432617.1323967-1.5618792-1.109478-2.9042969-2.6699219-2.9042969-.2436523-.012207-.3881836.1650391-.3867188.3769531.0009766.2065431.1689453.373047.375.373047z"/></g></svg>