<svg id="Layer_1" height="512" viewBox="0 0 512 512" width="512" xmlns="http://www.w3.org/2000/svg"><g><path d="m313.4 243.8v-184.4c0-31.7-25.8-57.4-57.4-57.4s-57.4 25.7-57.4 57.4v184.5c-50 22.5-81.9 71.8-81.9 126.9 0 76.8 62.5 139.3 139.3 139.3s139.3-62.5 139.3-139.3c0-55.2-32-104.4-81.9-127zm-57.4 249.8c-67.8 0-122.9-55.1-122.9-122.9 0-50.3 30.2-95 76.8-113.9l5.1-2.1v-195.3c0-22.6 18.4-41 41-41s41 18.4 41 41v195.4l5.1 2.1c46.7 18.9 76.8 63.6 76.8 113.9 0 67.7-55.1 122.8-122.9 122.8z"/><path d="m280.6 284v-224.6c0-13.6-11-24.6-24.6-24.6s-24.6 11-24.6 24.6v224.6c-38.4 10.9-65.5 46.3-65.5 86.7 0 49.7 40.4 90.1 90.1 90.1s90.1-40.4 90.1-90.1c0-40.4-27.2-75.9-65.5-86.7zm-24.6 160.5c-40.7 0-73.7-33.1-73.7-73.7 0-34.9 24.8-65.3 59-72.3l6.6-1.3v-237.8c0-4.5 3.7-8.2 8.2-8.2s8.2 3.7 8.2 8.2v237.8l6.6 1.3c34.2 6.9 59 37.3 59 72.3-.2 40.6-33.2 73.7-73.9 73.7z"/><path d="m329.7 43h49.2v16.4h-49.2z"/><path d="m329.7 75.7h32.8v16.4h-32.8z"/><path d="m329.7 108.5h49.2v16.4h-49.2z"/><path d="m329.7 141.3h32.8v16.4h-32.8z"/><path d="m329.7 174.1h49.2v16.4h-49.2z"/><path d="m329.7 206.8h32.8v16.4h-32.8z"/></g></svg>