<svg id="Layer_1" enable-background="new 0 0 75 75" viewBox="0 0 75 75" xmlns="http://www.w3.org/2000/svg"><g id="Eating_Watermelon" fill="rgb(0,0,0)"><path d="m24.550127 6.4332423c1.5328369.838623 2.5150146 2.561645 2.4910889 4.32373-1.1223736.9441385-1.6933613 2.3734245-1.4119873 3.9379883-.2619476.0111465-.7266159.2005444-1.0878906.5566406-1.0930405 1.0745649-1.3184738 3.4351072-.880249 5.1204844-1.3073463.7647076-1.0138245 2.8453445.8197021 3.4000244.1774006.0560207.3528481-.0317917.435791-.2039795.7501831 3.5099525 2.7407684 5.308197 6.2741699 6.0916748 5.7600613 1.2524376 9.9128094-1.3515625 10.9937725-5.0134277.9165268.1422653 1.7926903-.5204754 1.949585-1.3781738.1307373-.7182617-.2607422-1.4501953-.8812256-1.7988281.03125-.1201172.0800781-.2324219.1029053-.3564453.0957031-.5195313.2041016-1.1083984.2246094-1.6474609.0410156-1.0751953-.4853516-2.1357422-1.3330078-2.7392578.3427734-.9814463.3076172-2.093751-.1054688-3.1015635-.1896858-.4589949-.8820419-.1737385-.6933594.2851563.3730469.9101563.3701172 1.9628906-.0068359 2.8164072-.0791016.1777344-.0087891.3867188.1621094.4804688.7685547.4208984 1.2617188 1.3173828 1.2265625 2.2294922-.016716.4373207-.1359367 1.2748928-.300415 1.8851318-.0554199.0270996-.1048584.0633545-.1411133.1136475-1.430603-2.452467-4.2692604-1.4934807-6.7547607-3.7399902-.1228104-.1136017-.386322-.5445557-.6865234-.6464844-.5586319-.1943073-1.1579437.7598534-1.4619141.9375-1.3629799.796196-2.8955822-.0120621-3.3183575-1.2275391-.1324921-.3837681-.6740475-.3066597-.7255859.0712891-.0839844.6064453-.3847656 1.1787109-.8046875 1.53125-1.1978455 1.0022774-1.5548325.8050022-1.8007813.8974609-.4023438.0644531-.8183594.1318359-1.2080078.3378906-.3623047.1914063-.6894531.5429688-.8115234.9541016-.1142578-.0136719-.2285156-.0136719-.3408203.0029297-.6365891-1.9472103-.156374-4.7989082 1.1757813-5.1083994.1404457-.019372.4330997.054553.6289063-.1132813.4121971-.3519344-.1254768-.7305679.0673828-1.9492188.3370323-2.1371889 2.7515717-3.6108255 5.0166016-2.5771484.7905865.3834591.6847591-.5415897 1.7753887-1.1523438 1.7140656-.9602518 3.6183014.1635561 3.9003906 1.8515625.0340767.2064657.2358055.3494558.4443359.3056641 1.2011719-.2412109 2.5576172.2148438 3.3720703 1.140625.3264503.3704367.8908844-.1208.5625-.4960938-.9199219-1.0449219-2.3505859-1.5878906-3.7216797-1.4355469-.3613281-1.2392578-1.4609375-2.2373047-2.7392578-2.4365234-1.2898293-.2020216-2.6280518.4371748-3.2783184 1.3916016-.0224609.0332031-.0458984.0654297-.0810547.1123047-2.0479069-.9347696-3.7226124.1362591-3.8226318.1636963-.1542969-1.8475342-1.244873-3.5883784-2.8677979-4.4761958-1.9785156-1.0693359-4.546875-.7998047-6.2519531.6552734-3.0890265 2.6458879-2.6327629 7.9168582-3.406251 7.8339839-.1426334-.0235271-.2495747-.2898159-1.3330078-2.0185547-.1968422-.3171349-.6901903-.1775723-.6923828.1972656-.0087891 1.4677734.0263672 3.1660156.5703125 4.7333994 1.3587818 3.9911404 5.1191301 5.0515671 8.3642588 3.0263672.4168282-.2631397.0295601-.8968277-.3984375-.6367188-2.9174213 1.8231468-6.0880089.8010674-7.2558603-2.6337891-.3515625-1.0107431-.4746094-2.1015635-.5146484-3.1445322.3626566.582159.6041985 1.1308708 1.1357422 1.2158203.3486328.0664063.7226563-.1083984.9599619-.4580078.6071377-.9551773.5212212-5.3688498 3.0576172-7.545898 1.4482419-1.2392578 3.7216794-1.4775391 5.4062497-.5654297zm17.8084698 17.4681401c.0480957-.279541.079834-.5662842.0950928-.8607178.1379242-.0386963.495285-.7355576.5501709-.8355713.277832.2186279.4543457.5842285.3919678.9283447-.0833741.4591066-.5760499.8043214-1.0372315.7679444zm-16.3797588-3.6419677c1.0021629-.5307636 1.3726196.15798 3.140625-1.3242188.3378906-.2841797.6132813-.6591797.8027344-1.0849609.9076176 1.1629868 2.5102329 1.6154423 3.9414043.7841797.2692642-.1582947.6379395-.6087799.8916016-.8144531 2.6383858 2.8782387 5.5519295 1.8218555 6.9080811 3.84375.4198875 3.5355701-1.5760574 5.9973297-4.3826904 7.0185547-3.2820091 1.2089634-7.7583675.2757301-9.7040997-1.5429688-1.5177498-1.4151096-2.1098633-3.6851139-2.1958008-5.7641602.1229248-.0891113.1831055-.2419434.1469727-.3901367-.0664064-.2705078.1767577-.5810547.4511718-.7255859zm-1.3529053 1.0449218c.0180664.5725098.0927734 1.184082.2120361 1.8308105-.0391846-.0351563-.0848389-.0637207-.1384277-.079834-1.0889797-.3298359-1.3758106-1.3943939-.8092041-1.9206543.0028076.0068359.0036621.0142822.0064697.0212402.0857563.2133465.3345928.2953644.5283203.1904297.0592041-.0324706.1307373-.0375975.2008057-.0419921z"/><path d="m25.4602833 55.2037506c5.0198097.5930328 13.8842754.6428642 18.4499493-.2800293.5999756-.119873 2.460083-.3898926 2.460083-1.1699219 0-.3699951-.3701172-.9099121-.5100098-1.2700195-.1192627-.3320313-.2495117-.6643066-.3833008-.9963379 1.9326096.4731674 3.9940567.5920105 5.9158936.0463867.1489105-.0421448-.1167984.1293259 3.8818359-3.2861328.1220703-.1035156.1630859-.2744141.1044922-.4228516l-1.4725342-3.6984863c.0227051-.1337891-.0307617-.2674561-.1405029-.3530273-4.9865646-12.3781605-4.6261063-11.9718914-4.9602051-12.0686035-.2564812-.0808735-.4118004.1436024-.6650391.2919922-.6651039.457592-.8440819.5601959-.8632813.7841797-.0097656.1025391.0234375.2041016.0917969.28125.0966797.1103516.0947266.3115234 0 .4238281-.1005859.1142578-.3085938.1494141-.4248047.0732422-.2943115-.1926804-.6692162.0949783-.5605469.4296875.0742188.2294922-.0507813.5224609-.2636719.6259766-.2207031.1044922-.5263672.0195313-.6572266-.1787109-.2552261-.3782883-.8362236-.0594826-.65625.3574219.0743408.171875.1641846.3970947.1993408.6079102-.6278076-.9060059-1.4705811-1.6416016-2.4639893-2.1225586-.4455757-.2146225-.7739029.4577751-.3261719.6757813.9281006.4488525 1.7154541 1.1445313 2.2779541 2.0109863-.769207-.0323029-.8556213-.6868134-1.5426025-.2463379-.4227753.2461166-.7639236.5443039-1.2254639.8747559-.0869141-.876709-.1628418-1.7574463-.2058105-2.6403809-.0300293-.5999756.2199707-1.7700195-.1099854-2.2900391-.3299561-.5198975-1.3900146-.5198975-1.9599609-.5098877-11.0481815.0895348-11.3364773.0865841-11.9899883.25-1.8808861.4596348-1.2988396 1.6798897-1.5500488 2.9000244-.6598129 3.2572899-.5839958 2.9031029-.5899658 2.9299316.1707611.0569191 3.3581371 2.6537323 8.6774883 5.1335449.0007324.0754395.0007324.15271.0074463.1987305.0078125.2436523.0444336.4685059.0943604.6859131-3.0300274-1.3963623-5.9440899-3.0789795-8.6566143-5.0301514.1529541-.138916.1646729-.3757324.026123-.5297852-.8349609-.921875-1.5507813-1.9277344-2.1298828-2.9882813-.2391376-.4360733-.8960438-.0743332-.6582031.359375.6064453 1.1123047 1.3574219 2.1660156 2.2314453 3.1328125.0567627.0620117.1308594.0933838.2078857.1083984-2.8144646 15.2900848-2.8063946 14.7675323-2.6700439 15.4494629.2899171 1.2399903 1.8599855 1.3000489 3.0100099 1.4499512zm2.9400635-20.7299805h-.0500488c-.6500244 0-.6500244-1 0-1h.0500488c.6499023 0 .6499023 1 0 1zm22.7093486 16.3608399c-4.6503334 1.2685204-9.5943298-1.311203-13.3789063-4.2265625-1.063633-.8274231-2.4420166-1.9768333-2.8359375-3.2666016-.1081009-.315609-.1066856-.4667282-.1445313-.8476563l1.8465576-1.3181152c.1791191.2157135.9210434.8303871 1.1099854.9858398-.6371155.1653023-1.7498474.489727-1.9321289 1.1252441-.2529297.8837891 1.1865234 1.6582031 2.6289063 2.2998047.1000481.0446167.1723137.0768433.0722656.0322266 1.8973732.8547134 2.9955025.2269173 3.3319092-.7114258 2.0423737 1.1381912 5.0517426 2.4922104 7.3917236 2.3100586 1.6633301-.130127 3.2139893-.9909668 4.2166748-2.2954102l1.1671143 2.9311523zm-10.2783203-7.4238281c.3535156.3974609.4814453 1.1259766.0986328 1.5361328-.5317535.5660629-1.4374161.3067245-2.1455078-.0117188-.0009766 0-.0761719-.0341797-.0761719-.0341797-2.1728516-.9658203-2.2109375-1.3955078-2.2138672-1.4023438.1631814-.3657531 3.1014214-1.471836 4.3369141-.0878905zm2.5400391-7.0683594c.0029297.0039063.0087891.0087891.0175781.0136719l.0927734.0517578c1.3383217.7763214 2.3453102.0461082 2.2773438-1.0058594.7553368.0692368 1.2741508-.4441795 1.3789063-1.0517578.1074219-.0039063.2110596-.0405273.3143311-.0749512l2.0821533 9.1149902c.1087723.484024.8425064.3151855.7304688-.1679688-2.2729683-9.8429184-2.0671387-9.2763786-2.2104492-9.4313965.1436768-.2685547.1739502-.588623.0786133-.8723145.1298828-.0947266.2617188-.1865234.3935547-.2773438l4.5551758 11.440918c-.8406982 1.3328857-2.3565674 2.2635498-3.940918 2.387207-2.2144127.1664581-5.3158417-1.2533493-7.2398682-2.3590088-.1201057-1.3751183-1.4182777-2.0924568-2.8040771-2.130249-.1307373-.0029297-.258667.0174561-.3876953.0244141-.475708-.3669434-.9597168-.7744141-1.5026855-1.2641602l2.9040527-2.0727539c.1799391-.130966 3.1359823-2.2479628 3.260742-2.3251951zm-4.7911377-2.8686524h.0600586c.6398926 0 .6398926 1 0 1h-.0600586c-.6500244 0-.6500244-1 0-1z"/><path d="m29.7337208 23.4068756c-.1132813-.1474609-.3183594-.1875-.4794922-.0986328-.1621094.0908203-.2333984.2861328-.1689453.4599609 1.5037384 4.0153046 6.0019131 4.5711422 7.6484356 2.0712891 1.0859451-1.6453171.0608559-3.8582783-.546875-3.1005859-.136528.1726131-.1494637.192215-.3378906.4785156-1.4605904 2.1577377-4.5779419 2.1833839-6.1152325.1894531zm6.6728496.3222656c.5186615 2.08568-2.1630745 3.9096432-4.819334 2.1748047-.3173828-.2080078-.6015625-.4570313-.8544922-.7480469 2.0679836 1.0110131 4.433424.3050099 5.6738262-1.4267578z"/><path d="m29.3235645 21.3082428c.2851563-.2001953.6875-.2304688.9990234-.0761719.452261.2154751.7733383-.4554977.3320313-.6738281-.5585938-.2753906-1.25-.2207031-1.7607422.1347656-.1699219.1191406-.2109375.3525391-.0927734.5224609.1215897.1734677.3573513.2085953.5224609.0927735z"/><path d="m36.1770782 21.4225006c.7978516-.1323624 1.2233887.2226563 1.4257813.2226563.3963585 0 .5189705-.5381775.1660156-.7109375-.5292969-.2607422-1.1376953-.3525391-1.71875-.25-.2041016.0341797-.3408203.2285156-.3056641.4326172.0351563.2031249.225586.3437499.4326172.305664z"/><path d="m27.431963 14.6998434c-.247076.4288874.4032803.8046188.6503906.3730469.8592148-1.4948263 2.8459568-1.9093523 4.2343731-.8701172.395771.2991819.8461952-.3030453.4492188-.5996094-1.7594205-1.3195658-4.2616692-.7726793-5.3339825 1.0966797z"/><path d="m38.0364532 69.8766022c1.2206039 0 3.6983223-.385704 3.9111328-1.5849609.1229858-.6857529-.5551796-1.5930023-2.1767578-1.6123047-.093441-.0247345-.2762909-.0048904-.8349609.0341797-.0507813.0039063-.0996094.0175781-.1425781.0390625-.0389404.0058594-.0760498.0166016-.1148682.0230713l-1.4525146-9.9439697c-.0749168-.5050888-.8133354-.3726158-.7421875.109375l1.4593506 9.9904785c-3.5702095.9433211-3.6778069 2.9450683.0933837 2.9450683zm2.5039063-2.3408203c.3867188.1191406.7060547.4169922.6689453.6240234-.0997849.5594025-2.5007401 1.2483139-4.6357422.8222656-.4277344-.0869141-.5585938-.2099609-.5712891-.2431641.0435486-.4064254 2.9436226-1.6991805 4.538086-1.2031249z"/><path d="m30.3255177 69.4742584c4.5570393 0 4.0459843-2.7867584 1.3740234-3.0595703-.0815144-.0279465-.1512699-.0221481-.3192139-.0256348l-.1251221-9.510498c-.0029297-.2070313-.1699219-.3945313-.3798828-.3701172-.2070313.0029297-.3730469.1728516-.3701172.3798828l.1253662 9.5240479c-1.2169209.0892715-3.9074841.7041473-3.6507568 1.8890381.2049446.9466476 2.3790722 1.1728515 3.3457032 1.1728515zm2.0585918-2.1416015c.3662109.1503906.6464844.46875.5869141.6669922-.1629601.5481415-2.5995903 1.0487747-4.725584.4277344-.4179688-.1230469-.5263672-.2558594-.5332031-.2792969.0826987-.3997193 3.1144103-1.4473191 4.671873-.8154297z"/><path d="m43.2611847 40.2546539c.6435547 0 .6445313-1 0-1-.6433106 0-.6445313 1 0 1z"/><path d="m56.1038361 20.4342194c-.0126953-.2060547-.1914063-.3789063-.3955078-.3525391-.2070313.0117188-.3652344.1894531-.3525391.3955078.1396484 2.4042969-.8798828 4.90625-2.6621094 6.5292969-.3660622.3355579.137825.8879089.5058594.5546875 1.9736328-1.7988281 3.0595703-4.4628906 2.9042969-7.1269531z"/><path d="m57.7610626 26.818985 2.6191406-3.6640625c.1210938-.1679688.0820313-.4023438-.0869141-.5224609-.1650391-.1201172-.4003906-.0820313-.5224609.0869141l-2.6191406 3.6640625c-.2908134.4033851.3211937.8389987.609375.4355468z"/><path d="m54.5296173 30.9156647c2.09375-1.1015625 4.8203125-.8037109 6.625.7255859.374382.3171825.8638763-.2513294.484375-.5722656-2.0322266-1.7216797-5.0996094-2.0576172-7.4589844-.8173828-.4418945.2339439-.0845642.8964042.3496094.6640625z"/><path d="m20.2493458 16.5387115c-1.0538921.7604542-2.5081444.557003-3.3222656-.4296875-.3174629-.3833075-.8927402.0943642-.578125.4765625 1.0684261 1.2972298 2.976429 1.5463238 4.3398438.5605469.401821-.2896862-.037552-.8988609-.4394532-.6074219z"/><path d="m44.2444611 29.4351959c-.1113281.1748047-.0595703.40625.1162109.5166016.1630859.1044922.2861328.2705078.3359375.4570313.1283836.4772415.8536224.2855492.7246094-.1953125-.1630974-.6039448-.8546105-1.2825509-1.1767578-.7783204z"/><path d="m46.3157501 29.0670319c-.1140099.4816418.6141815.6611385.7304688.1738281.0693359-.2929688.2470703-.5634766.4873047-.7421875.1660156-.1230469.2011719-.3583984.0771484-.5244141-.3913956-.5311813-1.1327705.4114647-1.2949219 1.0927735z"/></g></svg>