<svg id="Layer_1" height="512" viewBox="0 0 512 512" width="512" xmlns="http://www.w3.org/2000/svg"><g><path d="m204.8 64.7v-16.4c-49.7 0-90.1 40.4-90.1 90.1h16.3c0-40.6 33.1-73.7 73.8-73.7z"/><path d="m430.1 130.2h-2.4c-4.2-51.5-47.5-92.2-100-92.2-11.1 0-22.1 1.8-32.6 5.5-24.5-23.4-56.4-36.2-90.3-36.2-69.7 0-126.8 54.7-130.9 123.3-40.3 4.1-71.9 38.2-71.9 79.5 0 44 35.8 79.9 79.9 79.9h18.4v-16.4h-18.4c-35 0-63.5-28.5-63.5-63.5s28.5-63.5 63.5-63.5h8.2v-8.2c0-63.3 51.5-114.7 114.7-114.7 52.7 0 86.2 39 86.2 39s16.9-8.3 36.7-8.3c46.3 0 84 37.7 84 84v8.2h18.4c35 0 63.5 28.5 63.5 63.5s-28.5 63.5-63.5 63.5h-108.6v16.4h108.6c44 0 79.9-35.8 79.9-79.9s-35.8-79.9-79.9-79.9z"/><path d="m306.1 268.5-71-23.4 6-128.3-129.7 169.2 71.4 23.6-29.6 141.9zm-167.7 9.2 83.9-109.4-4.1 88.5 59.9 19.8-95.5 114.2 19.2-92.1z"/><path d="m328.1 306.5-77.4 100.9 38.3 12.7-17.6 84.5 92.1-110.1-38.9-12.8zm7.3 96-34.6 41.4 7.3-34.8-30.3-10 31.5-41.1-1.7 35.4z"/></g></svg>