<svg id="Layer_1" enable-background="new 0 0 75 75" viewBox="0 0 75 75" xmlns="http://www.w3.org/2000/svg"><g id="Electric_Scooter" fill="rgb(0,0,0)"><path d="m27.6790524 22.2804012c-.256958 4.5902557 3.6656208 8.9160156 7.8515606 8.9160156 3.0906448-.0004997 6.6341362-2.1055775 7.7132568-5.6676636 2.918808-1.1225662 5.604126-2.9501076 5.604126-6.0769653 0-.4960136-.75-.4963131-.75 0 0 2.6077728-2.3220329 4.2839108-4.7734375 5.2416992.1839867-1.9759083-.1459084-4.0954437-1.8193359-5.1337891-.264595-.158638-.6740913-.1688404-.8876953-.1928711-1.6385422-6.0275049-10.9163666-3.1528301-12.70117-7.6723633.797823.5374241 1.8823357.4877071 2.6298828.0581055.9410286-.5669746 1.5164433-1.8328571 2.45117-2.0581055.3261719-.0839844.7441406.0209961.9023438.2768555.0175781.0415039.0361328.0830078.0556641.1235352.0859375.1787109.2988281.2578125.4804688.1835938.1835938-.0756836.2763672-.28125.2119141-.4692383-.0205078-.0595703-.0458984-.1166992-.0742188-.1704102-.3828125-.9609375-.0371094-2.2153316.8251953-2.9150386 1.7332458-1.395473 4.6267776-.5848608 5.6738281 2.1899409.1015434.2714663.4656181.3328238.6503906.0932617.7226563-.9604492 2.3603516-1.1499019 3.5048828-.4013672 1.0253906.6694336 1.7177734 1.9775391 1.8525391 3.5024414.1423683 1.4674149-.3091927 2.8353806-.4707031 4.34375-.0185547.1801758.0927734.3481445.2666016.3994141.5917969.1757813.8916016.9130859 1.0175781 1.3374023.1387024.4760437.8594971.2635002.71875-.2138672-.2480469-.8364258-.6767578-1.4345703-1.2236328-1.7207031.1796074-1.3792505.583313-2.7244434.4384766-4.2158203-.1552734-1.7480469-.9736328-3.2661133-2.1894531-4.0605464-1.1621094-.7597656-2.9570313-.8305664-4.0966797.1357417-1.4345932-2.8916054-4.6606941-3.5446076-6.6142578-1.9726558-.859375.6972656-1.3144531 1.7880859-1.2568359 2.8295894-.2832031-.0717773-.5849609-.0722656-.8544922-.003418-1.786272.4305248-1.9694691 2.7328348-3.9765606 2.3276367-.7213402-.1489-1.2506294-1.0952044-1.7070313-.7993164-.1181641.0751953-.1835938.2084961-.1728516.347168.1368408 1.6577759 1.2189941 2.9249268 3.1966553 3.7825317-1.6479132 2.1250421-2.3742449 4.9984838-2.4769289 7.6554567zm3.1933593-7.3671875c2.9462566 1.0291729 7.7257137.8777943 8.9384747 4.246582.0559883.1514988.0293655.5704594.3515625.8354492.2564201.1846619.7694702.0955257.9521484.2045898 2.1791496 1.3530655 1.3331451 4.9198437 1.4082031 5.1450195-1.1932983 3.8951988-5.8010101 6.0582333-9.1269531 4.6894531-1.9036846-.7803955-3.4302959-2.3321533-4.2696514-4.1687012 1.2586613.745142 2.6940403.8716316 3.9464092.4060059.1943359-.0722656.2929688-.2880859.2207031-.4824219-.0732422-.1948242-.2910156-.2939453-.4824219-.2207031-1.4146709.5279541-3.1148663.1181641-4.138792-.9946899-.6770286-2.5792464.0702496-7.043598 2.2003174-9.6605834z"/><path d="m30.3216305 20.4869442c.3271484-.1474609.7207031-.1254883 1.0302734.0537109.3095703.1782227.5234375.5107422.5595703.8666992.0195313.1933594.1826153.3374023.373045.3374023.0117188 0 .0253906-.0004883.0380859-.0019531.2060547-.0209961.3554688-.2045898.3349609-.4106445-.0595703-.5922852-.4160156-1.144043-.9296856-1.4404297-.515625-.2978516-1.1708984-.331543-1.7128906-.0893555-.4534645.2033578-.143114.889433.3066407.6845704z"/><path d="m36.093235 36.8815994c.0699463.1400146.2399902.4099731.2399902.5599976 3.3398857 7.56147 3.3344841 7.9346313 3.9599609 8.3099976.5500488.3200073 1.25.0999756 1.8400879-.1300049 2.9899902-1.2000122 5.869873-2.6699829 8.5799561-4.4000244.4799805-.2999878.9899902-.6799927 1.0599365-1.2399902.1094322-.806221-.5353661-1.2706718-2.6799316-3.5199585-1.44133-1.5196457-5.0353317-5.2447033-5.6600342-5.9300556-.4346123-.4172115-.9082947-1.0356236-1.5299072-.9400024-.7652855.1530304-.7241898 1.1424751-3.460083 1.8700562-1.3504028.3629913-2.9161034.6202106-3.5999756 1.3899555-.2199707.3000488-.3000488.6500244-.1300049.960022.3640061.7086065.7934876 1.7026556 1.3800049 3.0700071zm-.0100097-1.1500244c1.1499023-.289978 2.4599609-.6199951 3.3299561-1.4799805.3602448-.3602448.8836632.2000732.5300293.5299683-1.0200195 1.0100098-2.4899902 1.3800049-3.6700439 1.6800537-.1521339.0503998-.3923988-.0405655-.4599609-.2700195-.050049-.2000122.0700682-.4100342.2700194-.460022z"/><path d="m51.0931129 48.3311844c.6791725.0691605 1.2870369.1897469 1.7871094-.0566406.3391342-.1662178.257679-.132164 3.4140625-3.4257813 1.4515038-1.505764-1.1513977-2.3143349-2.5449219-3.3354492-.8337326-.616127-1.2503128-.822403-1.9990234-.1088867-.0527344.0498047-.1044922.0991211-.1582031.1435547-2.3183708 1.9192467-6.9186096 4.8222504-9.7470703 4.9755859-.5632629.031292-.9731903.5595016-.8808594 1.1235352 0 0 .8505859 5.140625.8642578 5.2270508.1455078.875 1.171875.8896484 1.7226563.8974609.2253952-.017086 2.6689529.2846031 5.4375-1.1025391l.1748047-.081543c1.1689453-.5278664 1.1953049-.8556404.7246094-2.2958984-.0576172-.1782227-.1152344-.3510742-.1552734-.5092773-.1126213-.4592934-.4189911-1.1061096-.2724609-1.4750977.0694807-.1806526.5517844-.0896606 1.6328123.0239258zm-2.086914 1.6342773c.1258926.4979668.4125404 1.1659927.4199219 1.5942383-.0520287.1217728-.5453835.3347054-.7734375.4384766-1.5469093.775177-3.2435265 1.1058922-4.8554688 1.0292969l-.2353516-.0058594c-.4804688-.0068359-.9541016-.0332031-.9902344-.2504883-.0019531-.0136719-.0019531-.0185547-.8671875-5.2456055-.1157036-.6942368.7517281.5998993 6.2646484-2.559082 6.6076889-3.7866821 2.9649658-4.0580826 6.9677734-1.8325195.3369141.1894531.6855469.3847656.8867188.6240234.2336006.2776947.0769653.4193497-.0693359.5708008l-2.8320313 2.9550781c-.5676842.5896873-.4641113.3936157-2.9775391.1806641-.6210938-.0507813-1.0117188.1386719-1.1816406.565918-.2651366.667221.1170236 1.4304923.2431642 1.9350585z"/><path d="m23.3577633 64.6163406c0 .4960098.75.496315.75 0v-1.1235352h31.9775372l.0322266 2.2470703h-.4951172c-.4960136 0-.4963112.75 0 .75.769043-.028717.9590034.0739975 1.1435547-.1118164.0703125-.0712891.1083984-.168457.1074219-.2685547l-.0439453-2.9970703c-.0029297-.2050781-.1699219-.3696289-.375-.3696289h-11.4580079c.8004761-.4348259.844532-1.3175316.2276611-1.7589111l-.116333-6.5189209c-.0039063-.2060547-.1865234-.3798828-.3818359-.3681641-.2070313.0039063-.3720703.1748047-.3681641.3818359l.1107178 6.2030029c-.7492485-.1568947-2.5256386-.127491-3.1380615.2545166-.6334038.3929024-.7308273 1.3100891.3851318 1.8066406h-14.9938946l-.9309082-23.9923706c.3466625-.3704796.5071716-.9057693.3164063-1.4710693 3.6434689.6907539 7.2820034.3481102 9.8843975-.5316772l-.1181641-.355957-.1904297-.331543c-2.2368317.7542801-5.6629982 1.105938-8.907835.5822144-.0509319-.6153107-.8715115-1.5430336-1.4525146-1.9411011-.7128906-.487793-1.5712891-.7285156-2.4472656-.6782227-1.7590904.1048584-2.1285095 1.6024818-1.1679688 2.4291992.5130501.441349 1.2475796.5612411 1.6922607.6552734-.2635288.5418663-.1748772 1.1339607.1916504 1.5753174-.0238781 2.6516878.0864964-9.6058768-.2335205 25.9334718zm18.3691387-3.043457c.431675-.2686958 3.3275681-.4460487 3.1542969.2822266-.0302734.1235352-.2011719.2441406-.4707031.3320313-1.2060928.3922806-2.4567566-.0457954-2.7246094-.3291016-.0546875-.0576172-.0871582-.2055054.0410156-.2851563zm-17.6152325 1.1699219.2248535-23.579834c.2595692.0701218.459219.0753136.7202148.0137939l.9143066 23.56604h-1.8593749zm-2.1689453-27.4008789c.1241646-.8340721 2.847683-1.0042229 4.0025635 1.1551514-.0053711-.0010986-.0108643-.001709-.0162354-.0028076-.0852051-.019104-.1654053-.0014648-.2366943.0330811-.0466309.0037842-.0933838.0062256-.1401367.0090942-.4444866-.3063583-1.0270538-.3581543-1.5458984-.0685425-.7336865-.1093484-2.170578-.3915291-2.0635987-1.1259766z"/><path d="m48.9780006 66.6138992c-.0890083 1.654747 1.2192535 2.8776855 2.71521 2.8776855 1.5100098 0 2.7299805-1.2199707 2.7299805-2.7299805s-1.2199707-2.7300415-2.7299805-2.7300415c-1.2017822 0-2.2086182.7779541-2.5740967 1.8547363-.0356445-.0112305-.0715332-.0223999-.1109619-.0223999-21.0987015.0388031-19.9020824-.0843964-20.1113262.0917358-.4002686-1.0095825-1.3798828-1.7240601-2.5335693-1.7240601-1.5100098 0-2.7299805 1.2200317-2.7299805 2.7300415 0 1.5099487 1.2199707 2.7299805 2.7299805 2.7299805 1.5837097 0 2.9251766-1.3654709 2.6933594-3.0935669.1577739.0346529-1.3688603.005028 19.9213847.0158693zm2.71521-1.6123047c.9699707 0 1.7600098.789978 1.7600098 1.7600098 0 .9699707-.7900391 1.7600098-1.7600098 1.7600098s-1.7600098-.7900391-1.7600098-1.7600098c0-.9700317.7900391-1.7600098 1.7600098-1.7600098zm-25.3299541 3.7199707c-.9699707 0-1.7600098-.789978-1.7600098-1.7599487 0-.9700317.7900391-1.7600098 1.7600098-1.7600098s1.75.789978 1.75 1.7600098c0 .9699707-.7800293 1.7599487-1.75 1.7599487z"/><path d="m59.3909645 52.103157c-.5864334 1.0492592.0178947 1.7259407.7294922 1.684082 1.3729286-.0586014 3.478054-2.469162 2.6650391-3.6044922-.5598907-.7826233-1.418251-.3775558-2.1170654.2957153-2.1505127-.4713745-4.1628418-1.6104126-5.6817627-3.2332153-.335762-.3602448-.8874435.1486397-.546875.5126953 1.5238037 1.6281738 3.5151367 2.7990723 5.6566162 3.3529053-.4125977.5128784-.6987305.9805298-.7044678.9908447 0 .0004884 0 .0009767-.0009766.0014649zm2.7851563-1.4833984c.0742188.1035156.0537109.3125-.0566406.5727539-.5924721 1.4030876-2.3173027 2.265995-2.2207031 1.6269531.0820121-.5065269 1.8418311-2.8072738 2.2773437-2.199707z"/><path d="m41.5462379 10.0968075c.0263672.2055664.2167969.3505859.4189453.324707.8828125-.1108398 1.6513672.5810547 2.0126953 1.2675781.4335938.828125.5126953 1.8510742.5830078 2.7539063.0396805.4984627.785675.4387846.7480469-.0585938-.0761719-.9741211-.1621094-2.0786133-.6669922-3.043457-.9839019-1.8744745-3.2000999-2.0580549-3.0957031-1.2441406z"/><path d="m21.0716305 22.3145809c.2114086.2515774.630619.1288528.6611328-.2089844.0957031-1.1254883.4042969-2.230957.9003906-3.2456055.2558594 1.4506836.2890625 2.9238281.0957031 4.3925781-.0625687.4878063.6774979.5974808.7441406.0976563.2480469-1.8886719.1416016-3.784668-.3164063-5.6352539-.077877-.313612-.5018406-.3949127-.6816406-.1098633-.6787109 1.0761719-1.1455078 2.2841797-1.3701172 3.5356445-1.96945-2.6980953-1.5181618-3.7848873-2.203125-3.7485352-.1728516.0161133-.3115234.1489258-.3359375.3208008-.265625 1.8608398-.2685547 3.7412109-.0107422 5.5986328-1.2050781-.5024414-2.2988281-1.3081055-3.1269531-2.3110352-.268302-.3241978-.7868729-.0257263-.640625.3691406 1.3098564 3.5359402 1.5277767 4.0327244 1.4980469 4.1328125-.0453949.1382465-.6457186.2958965-4.0185547 1.6938477-.3632412.1474991-.284297.6847668.1064453.7211914 4.7430897.4350796 4.0739479.3823242 4.1787109.3823242.4732761 0 .5076504-.7047787.0341797-.7485352l-2.609375-.2397461c3.8008499-1.5426159 3.4833393-.8861942 2.1005859-4.6181641.8408203.6826172 1.8085938 1.215332 2.8300781 1.5478516.2585602.0875435.5347233-.1354942.4853516-.4199219-.2558594-1.4931641-.3359375-3.0048828-.2392578-4.5112305.5048829 1.0786136 1.1464845 2.0849612 1.9179689 3.0043948z"/><path d="m20.1390133 28.3995419 1.7177734.7192383c.4588089.1911716.7457695-.5013103.2890625-.6923828l-1.7177734-.7182617c-.1875-.0795898-.4111328.0097656-.4902344.2006836-.0800781.1909179.0097656.4106444.2011719.4907226z"/><path d="m22.0862789 26.5880184.6816406.8349609c.3144131.3847427.8948879-.0921726.5800781-.4746094l-.6816406-.8349609c-.3143711-.3842296-.895008.0920296-.5800781.4746094z"/><path d="m39.2571754 21.9249325c.586895-.3219013 1.2030716.4232788.6552734 1.0214844-.1582031.1708984-.3964844.2958984-.6728516.3515625-.4829521.0975189-.342144.8296947.1484375.7353516 1.0317879-.2082081 1.6002197-1.0310211 1.4677734-1.8203125-.2706718-1.5925274-2.5384827-1.2112293-2.1083984-.4345703.1005861.1811522.3291017.2456054.5097657.1464843z"/></g></svg>