<svg id="Layer_1" height="512" viewBox="0 0 512 512" width="512" xmlns="http://www.w3.org/2000/svg"><g><path d="m312.8 359.2-11.6-11.6-23.1 23.1h-13.9v-13.9l23.1-23.1-11.6-11.6-11.5 11.5v-12.1h-16.4v12.1l-11.5-11.5-11.6 11.6 23.1 23.1v13.9h-13.9l-23.1-23.1-11.6 11.6 11.5 11.5h-12.1v16.4h12.1l-11.5 11.5 11.6 11.6 23.1-23.1h13.9v13.9l-23.1 23.1 11.6 11.6 11.5-11.5v12.1h16.4v-12.1l11.5 11.5 11.6-11.6-23.1-23.1v-13.9h13.9l23.1 23.1 11.6-11.6-11.5-11.5h12.1v-16.4h-12.1z"/><path d="m148.9 424.8-11.6-11.6-23.1 23.1h-13.9v-13.9l23.1-23.1-11.6-11.6-11.5 11.5v-12.1h-16.4v12.1l-11.5-11.5-11.6 11.6 23.1 23.1v13.9h-13.9l-23.1-23.1-11.5 11.6 11.5 11.5h-12.1v16.3h12.1l-11.5 11.6 11.5 11.5 23.1-23.1h13.9v14l-23.1 23 11.6 11.6 11.5-11.5v12.1h16.4v-12.1l11.5 11.5 11.6-11.6-23.1-23v-14h13.9l23.1 23.1 11.6-11.5-11.5-11.6h12.1v-16.3h-12.1z"/><path d="m476.6 424.8-11.5-11.6-23.1 23.1h-13.9v-13.9l23.1-23.1-11.6-11.6-11.5 11.5v-12.1h-16.4v12.1l-11.5-11.5-11.6 11.6 23.1 23.1v13.9h-13.9l-23.1-23.1-11.6 11.6 11.5 11.5h-12.1v16.3h12.1l-11.5 11.6 11.6 11.5 23.1-23.1h13.9v14l-23.1 23 11.6 11.6 11.5-11.5v12.1h16.4v-12.1l11.5 11.5 11.6-11.6-23.1-23v-14h13.9l23.1 23.1 11.5-11.5-11.5-11.6h12.1v-16.3h-12.1z"/><path d="m59.4 141.3h16.4c0-31.6 25.7-57.4 57.4-57.4v-16.4c-40.8 0-73.8 33.1-73.8 73.8z"/><path d="m448.9 141.4c-10.6-34.2-41.9-57.5-78.2-57.5-3.4 0-6.7.2-10.1.6-19.3-44.8-63.8-74.4-112.8-74.4-29.7 0-58.2 10.7-80.6 30.3-11.1-3.8-22.5-5.7-34.1-5.7-58.7 0-106.5 47.8-106.5 106.5 0 4.5.3 9 .9 13.7-16.1 12.5-25.5 31.5-25.5 51.9 0 36.1 29.4 65.5 65.5 65.5h8.2c15.5 20.6 39.6 32.8 65.5 32.8s50.1-12.2 65.5-32.8h237.6c36.1 0 65.5-29.4 65.5-65.5.2-34.6-26.8-63.1-60.9-65.4zm-4.4 114.6h-246.3s-15.6 32.8-56.9 32.8c-40.7 0-56.9-32.8-56.9-32.8h-16.9c-27.1 0-49.2-22.1-49.2-49.2 0-33 27-44.2 27-44.2s-2.5-7.5-2.5-21.3c0-49.7 40.4-90.1 90.1-90.1 19.1 0 37.8 8.2 37.8 8.2s26.4-32.8 76.9-32.8c44.5 0 84.6 28.1 99.9 70l2.4 6.7s11-2.9 20.5-2.9c30.8 0 57 21 63.9 51l1.5 6.4h8.4c27.1 0 49.2 22.1 49.2 49.2s-21.8 49-48.9 49z"/></g></svg>