<svg id="Layer_1" enable-background="new 0 0 75 75" viewBox="0 0 75 75" xmlns="http://www.w3.org/2000/svg"><g id="Exercise" fill="rgb(0,0,0)"><path d="m59.2497482 69.0679474 1.9399414-3.9299316c1.8337173-3.8406258 2.2187157-4.1326408 2.0500488-4.4699745-.1004524-.1004486-.149971-.206646-.3100586-.2600098-.1693497-.1131287.9436989-.0370903-19.272583-.0964355-.6887283-11.7287827-.6076965-10.96558-.6629639-11.1174316 1.8819733.1432495 3.9613762.1679115 5.1204834-1.4660645.0263672-.0390625.0507813-.0791016.078125-.1308594.2097893-.4108353-.4505692-.7668152-.6943359-.296875-.3994141.5625-1.1162109.9707031-1.9716797 1.1210938-.989727.1849747-1.1136551.1366234-11.1533203-.6181641-2.7388954-.1799469-4.0928211-.9043236-3.8984375-4.8837891.1923828-4.4111328.9921875-8.7792969 2.3779297-12.9843731.2939453-.8994141.6464844-1.8095703 1.4287109-2.1875.7510681-.3642406 1.1916466.1845379 2.0605469.4775391 3.7457962 1.3155289 6.7336082-.3475304 6.8417969-.3730469.5664063-.2568359 1.0976563-.4941406 1.6220703-.4208984.4726563.0683594.9257813.4140625 1.2402344.9462891.296875.5146484.4394531 1.1132813.5703125 1.734375 1.6063805 7.4922924 1.389164 12.8244419 1.4580078 14.2851543h.0006104c0 .0148926.0063477.0275879.0080566.0419922-.001709.0124512-.0068359.0234375-.0073242.0361328h-.0023193c-.0001221.0021973.0010986.0041504.0010986.0063477 0 .0019531-.0010986.003418-.0010986.0053711v.0634766c0 .4058037.6399994.5015106.7354736.0109863.0043945-.0212402.0137939-.0405273.0145264-.0627441 0-.0039063.0009766-.0898438.0009766-.0986328-.0771713-1.6371651.1972847-6.6493835-1.4746094-14.444334-.1376953-.6542969-.3017578-1.34375-.65625-1.9570313-.4335938-.7314453-1.0820313-1.2089844-1.7792969-1.3095703-.8040581-.1232109-1.5605736.2594128-2.3554688.6201172-2.1769524.9494858-4.7506714.8479919-6.5830078-.0634766-.5498047-.2744141-1.1689453-.5839844-2.0214844-.1728516-1.046875.5048828-1.4707031 1.5761719-1.8144531 2.6289063-1.40625 4.2685528-2.21875 8.7050762-2.4150391 13.1835918-.084589 1.7969398.0245724 3.6959152 1.5166016 4.8222656 1.0268631.7655449 2.2967033.7719536 3.475708.873291-.0366402.1208153-.5639343 3.2066116-.8780518 4.9987793-.2296448 1.4478874.0994263 2.2027626 1.6757813 2.4775391 1.2415695.2159271 2.3179207.2811127 3.4002686.2541504.4769669 3.2734184 2.3996239 3.4423714 2.9737549 2.0505371.4202156-1.025074.2514725-4.5744934-.7216797-5.3427734-.8986206-.7130623-2.0831871.205574-2.2519531 1.3076172-.0621338.4057617-.0727539.8149414-.0601807 1.2229004-.7935104.0185509-3.741291-.0222282-4.2025146-.6730957-.1972656-.2705078-.1523438-.6767578-.0742188-1.1738281.959568-5.591568.8770256-4.9365425.8574219-5.0683594 2.2957764.1728516 4.588501.3442383 6.8863525.5107422-.1039963.1949959-.0621414-.4988289.5842285 11.1650391l-16.7567139-.0322266c-.2000732 0-.3900146.0900879-.4899902.2402344-6.1739159 8.9809914-5.8499756 8.4290047-5.8499756 8.569828-.0997543.1995087.100563.6000977.5599365.6000977 40.3217431-.467972 38.5874901-.0676348 38.8800049-.6201174zm-19.5921631-14.6279335c.0566406-.3710938.3496094-.7705078.6533203-.890625.4438477-.1713066.6474419.3751068.7636719.8339844.2612114 1.0438004.4216919 2.9656601.1210938 3.6923828-.5445175 1.3183098-1.9215088-1.1401253-1.538086-3.6357422zm15.972168 7.5878906-2.5799561 5.5900917c-.1880798.4380798-.9029465.1611328-.6800537-.3100586l2.5799561-5.5998573c.0900879-.1801758.3100586-.2700195.5-.1801758.1900635.0900879.2700195.3100586.1800537.5zm-9.8599853 2.1601601c-.4400978.5223389-2.7221375.5907974-3.7099609.4699707-1.2660332-.1056137-1.3968277-.7927437-.2399902-1.239994 1.0010109-.3972969 2.1875992-.4712296 3.1699219-.2800293.3599852.0700683 1.1163596.679634.7800292 1.0500526zm-18.8900147 2.790039 2.8199463-5.3300819c.2401371-.4322433.8929539-.0826569.6600342.3598633l-2.8199463 5.3300819c-.0980301.1960602-.365984.2309647-.5.1499023-.1900635-.0998535-.2600098-.3198242-.1600342-.5097656z"/><path d="m35.1439133 32.5835686c.0236969-.5023727-.7248459-.5195732-.75-.0371094-.1179619 2.3779106-.1984749 2.6534424.1074219 3.0576172.4799957.6295853 1.3035812.3748169 3.1689453.3496094.9959526-.0376472 1.4104195-.397892 1.4462891-1.4560547l.0488281-1.5097656c.0058594-.2070313-.15625-.3798828-.3632813-.3867188-.1904297.0029297-.3798828.15625-.3867188.3632813-.1349487 2.0173073.1829376 2.2076759-.7724609 2.2392578l-1.9082031.0703125c-.6836472.0300827-.7201843-.0968857-.6943359-.6035156z"/><path d="m41.2366867 21.1753674c-.8405647.8757591-2.2807274.7842464-3.0029297-.2001953-.295845-.400671-.8972702.0441742-.6054688.4433594.9872932 1.3479919 2.9739075 1.496912 4.1494141.2763672.3441201-.3581658-.1984253-.8783265-.5410156-.5195313z"/><path d="m27.6663742 15.2661877c-.1211128.4797935.6041069.6663475.7265625.1835938 0 0 .0009766-.0009766.0009766-.0019531.1335182-.5180492 1.2949123-.8932095 1.8740234-.8632813-.9027538 2.076334-.8347759 2.2997322-.121582 3.8078613-.4056759 1.2855644.648735 2.4311581 1.8754883 2.2653809.0684814-.0095215.1258545-.0410156.1766357-.0805664.5437012 1.7390137 1.5968018 3.6467285 3.2052002 4.565918 4.2316895 2.4224892 9.6377716 1.0669823 12.09729-3.8862305.2895508.0695801.5871582.1274414.8909912.1274414 1.4937706 0 2.2661705-1.3493595 1.3908691-2.4541016.3149414.0292969.7028809.0185547 1.0476074-.1953125.8408928-.5321369.4497108-1.7493114-.2519531-4.3320313.4755859.1357422 1.0546875.3183594 1.2275391.4179688.2502327.3162279.7530632.066659.6582031-.3222656-.8095703-3.2705078-3.71875-5.8339844-7.0039063-6.3974609.801815-.320631 1.6586418-.6631384 2.3974609-.954102.2774927-.110149.3218576-.4856697.076172-.6572267-1.8046875-1.2490234-4.3984375-1.3867188-6.4580078-.3339844-.4405136.2301469-.9282837.7739334-1.2578125.9042969-.3520012.1476684-.3187065-.1689906-.8886719-.6308594-.4912109-.4052734-1.0527344-.7167969-1.671875-.9267578-.5122452-.1707482-.9319153-.0909128-1.3603516-.1816406-.498661-.0974131-.636261.6314282-.1611328.7324219.2303886.0845308.6977997.8975515.8320313 1.1660156-.0380859-.0175781-.0742188-.0322266-.1054688-.0419922-3.8176804-1.0907655-7.2422504 1.7025113-5.9941406 2.125977.6085625.2066813 1.2666016.2513523 1.8486328.3632813l.109375.0214844c-2.4697265.8857422-4.5136718 3.0253906-5.1601562 5.578125zm4.2558594 4.6474609c-.7339535.1045685-1.3658524-.6441307-1.0316162-1.3928223.0029297-.0063477.0046387-.0126953.0070801-.0192871.1646614-.3466549.4944172-.5257683.8505859-.5566406.0391655.9468918.1355972 1.4384632.2679443 1.9760742-.0311279-.0041504-.0617676-.0112304-.0939941-.0073242zm3.8544922 4.5791016c-1.9895439-1.1368809-3.225853-4.2297764-3.2884521-6.7446289.0513916-.0551758.0915527-.119873.1029053-.1958008.09375-.6308594.5048828-1.4345703 1.1835938-1.7050781 1.9119301-.7343626 3.9336128-.5923815 6.2470703-2.8447266.8762474 1.4799318 2.7532425 1.899538 4.1855469.9589844.3462067 1.0495701 1.5092659 1.5755959 2.1669922 2.1914063.9927979.9232483 1.3718834 2.3728237 1.0273438 3.375-1.6128809 5.2251014-7.0457041 7.5864486-11.6250002 4.9648437zm12.0412597-3.9284668c.5850487-1.4416599.3549118-1.4420338.5811768-1.619873 1.3447761.345848 1.2815323 2.0127162-.5811768 1.619873zm-13.1496582-10.5334473c.4268265-.0429087.4553032-.6578875.0341797-.7412109-2.9850082-.5700674-2.5809479-.4683352-3.015625-.5517578 1.3826408-1.1332064 4.0507393-1.3232818 5.0898438-.7753911.2783203.1513677.6982422.375977.9990234.0810552.2646484-.2656255.1210938-.6855474-.1728516-1.2275395-.109375-.2109375-.2373047-.4375-.3769531-.6503906.4798088.0834455 1.4012489.5423012 1.9619141 1.1796875.2597656.2939453.6123047.6972661 1.3095703.4111328.5296822-.2093678.9203987-.723556 1.3232422-.9345703 1.5839844-.8085938 3.5234375-.8251953 5.0449219-.0888672-.2840233.1128607-3.1243095 1.2460995-3.2246094 1.2861333-.1699219.0673828-.2666016.2480469-.2275391.4277344.0380859.1787109.2324219.3173828.3828125.2958984 3.2998047-.1542969 6.5322266 2.0546875 7.6914063 5.1367188-.4794922-.1679688-1.0224609-.296875-1.3486328-.3671875-.265316-.060111-.5074081.1820612-.4443359.4511719.4585152 1.9586525 1.1528244 3.8739567.7382813 4.1367188-.4860992.299366-1.3062096-.2248325-2.1080322.0539551-.0285645-.0048828-.0493164-.0175781-.0784912-.0217285-.0047607-.0007324-.0087891.0009766-.0135498.0004883-.5121689-3.1806622-3.483757-3.1662369-3.3692627-4.8793945.0239029-.3563805-.4185181-.5406322-.6533203-.2753906-1.1260567 1.2585354-3.1805.8317957-3.7255859-.7519531-.0886002-.259757-.43367-.3500395-.6337891-.1279297-3.2973938 3.6774874-7.0161591 1.5839663-7.9296875 4.9990234-.1054935.0152912-.4343719-.0182381-.8574219.2509766-.0908623.0431728-.3064384.1819477-.4473877.3083496-.6293087-1.2132626.0670166-1.9819431.5255127-3.229248.0683594-.1884766-.0224609-.3964844-.2060547-.4746094-.5449219-.2275391-1.4091797-.0947266-2.046875.1621094 1.088867-2.1982426 3.3369139-3.837891 5.7792967-4.0839848z"/><path d="m48.1595383 30.4429455c.2630844 0-.2950821.3261604 10.1275635-8.572998.1822472.1345921.3422928.2038574.6029053.2038574 1.1025391 0 2.8232422-1.4042969 3.140625-1.7470703.6523438-.7060547.8701172-1.6455078.5556641-2.3935547-.3994141-.9501953-1.6318359-1.4228516-2.6884766-1.0283203-.8457031.3125-1.5410156 1.1191406-1.8603516 2.1572266v.0009766c-.2811279.9228516-.331665 1.6586914-.1704102 2.1799316l-9.9516602 8.5407715c-.2658271.2278537-.0990791.6591796.2441407.6591796zm10.5947265-11.1601563c.2509766-.8164063.7763672-1.4423828 1.4042969-1.6748047.5986328-.2255859 1.4726563-.0087891 1.7363281.6162109.2285156.5429688-.0439453 1.1914063-.4150391 1.5927734-.5615234.609375-2.2666016 1.6640625-2.6757813 1.4970703-.3583983-.1533202-.3789061-.9501952-.0498046-2.0312499z"/><path d="m17.615593 30.1138439c-.4199219-1.0380859-3.1376953-1.28125-3.6748047-1.3027344-.9599609.0380859-1.7783203.5478516-2.0849609 1.2998047-.4306641 1.0517578.2587891 2.2080059 1.1738281 2.6289043.8828802.4049683 1.9638453.2539101 2.8398438-.2109375h.0019531c.7781982-.4157715 1.3077393-.8566875 1.5888672-1.2983379 3.0735855.2330704 13.2004738.9926739 13.0996094.9926739.4794331 0 .5045185-.7130833.0283203-.7490215l-12.9003906-.9787598c-.0034181-.128418-.0216066-.2561035-.0722657-.3815918zm-4.2734375 1.944334c-.5849609-.2695293-1.0488281-1.038084-.7919922-1.6640606.2226563-.5458984.8730469-.8115234 1.4208984-.8330078.610467-.0421009 2.7624817.3722343 2.9492188.8339844.0401859.0997715.0147591.2067928-.0186768.3098145-.2835579.6807365-2.2179432 1.9669628-3.5594482 1.3532695z"/><path d="m43.9027023 17.631422c-.442852.4997311-1.1909599.5951424-1.7480469.2148438-.4107475-.2801628-.8327141.3387623-.4238281.6191406 1.4447098.9904232 3.3257561-.3118057 2.7011719-.8652344-.1542969-.1376953-.3945312-.1240234-.5292969.03125z"/><path d="m37.8792648 17.5572033c-.5215302.408329-1.276783.3753262-1.7568359-.1005859-.3535385-.3511963-.879631.1832523-.5292969.53125.3554688.3525391.8457031.5712891 1.3447266.5996094.4469604.0343819.9872856-.1130981 1.4042969-.4404297.3913536-.3069897-.074646-.8962288-.4628907-.5898438z"/><path d="m16.9398117 22.9224377 4.015625 2.6552734c.4130859.2732716.827961-.3514061.4140625-.625l-3.1894531-2.109375c3.5711117-.5430984 3.5536919-.4030514 3.7197266-.6425781.164257-.2396545.0130939-.3143959-.4033203-2.3525391 2.9355221.8142986 2.9477215.9889393 3.2138672.796875.2645683-.192915.1093922-.3870888.2128906-2.4960938l1.6064453 2.7871094c.2485504.4314461.8980579.0549145.6503906-.375l-2.2705078-3.9384766c-.1865005-.3231239-.6891346-.2027626-.7001953.1777344l-.0810547 3.0429688c-3.0505753-.8333721-3.1186485-1.0670052-3.3935547-.8085938-.2753601.2560844-.0280476.4460831.4013672 2.6376953l-4.0410156.5664063c-.3405362.0474167-.443718.4927445-.1552735.6835938z"/></g></svg>