<svg id="Layer_1" height="512" viewBox="0 0 512 512" width="512" xmlns="http://www.w3.org/2000/svg"><path d="m510 247.8h-29.4l27-27-11.6-11.6-38.6 38.6h-26l59.8-59.8-11.6-11.6-71.3 71.3h-95.6c-1.4-9.7-5.2-18.6-10.8-26.1l61.8-61.8h100.9v-16.4h-84.5l24.2-24.2h54.5v-16.2h-38.2l20.8-20.8-11.6-11.6-20.8 20.8v-38.2h-16.4v54.5l-24.2 24.2v-84.5h-16.4v100.9l-61.8 61.8c-7.5-5.6-16.4-9.4-26.1-10.8v-87.4l71.3-71.3-11.5-11.6-59.8 59.8v-34.2l38.7-38.6-11.6-11.6-27 27v-29.4h-16.4v29.4l-27-27-11.6 11.6 38.6 38.6v34.2l-59.7-59.8-11.6 11.6 71.3 71.3v87.4c-11.1 1.6-21.2 6.4-29.3 13.4l-64.4-64.4v-100.9h-16.4v84.5l-24.2-24.2v-54.5h-16.3v38.2l-20.8-20.8-11.6 11.6 20.8 20.8h-38.2v16.4h54.6l24.2 24.2h-84.6v16.4h100.9l65.2 65.2c-4.3 6.7-7.2 14.4-8.4 22.7h-95.6l-71.3-71.3-11.6 11.6 59.8 59.8h-26l-38.6-38.8-11.6 11.6 27 27h-29.4v16.4h29.4l-27 27 11.6 11.6 38.6-38.6h26l-59.8 59.8 11.6 11.6 71.3-71.3h95.6c1.4 9.7 5.2 18.6 10.8 26.1l-67.6 67.6h-100.9v16.4h84.5l-18.4 18.4h-54.5v16.2h38.2l-20.8 20.8 11.6 11.6 20.8-20.8v38.2h16.4v-54.5l18.4-18.4v84.5h16.4v-100.9l67.6-67.6c7.5 5.6 16.4 9.4 26.1 10.8v95.6l-71.3 71.3 11.6 11.6 59.8-59.8v26l-38.8 38.6 11.6 11.6 27-27v29.4h16.4v-29.4l27 27 11.6-11.6-38.6-38.6v-26l59.8 59.8 11.6-11.6-71.3-71.3v-95.6c8.3-1.2 15.9-4.1 22.7-8.4l65.2 65.2v100.9h16.4v-84.5l18.4 18.4v54.5h16.4v-38.2l20.8 20.8 11.6-11.6-21-20.8h38.2v-16.4h-54.5l-18.4-18.4h84.5v-16.4h-100.9l-64.4-64.4c7-8.1 11.8-18.2 13.4-29.3h95.6l71.3 71.3 11.6-11.6-59.8-59.8h26l38.6 38.6 11.6-11.6-27-27h29.4zm-294.9 8.2c0-22.6 18.4-40.9 40.9-40.9 22.6 0 40.9 18.4 40.9 40.9 0 22.6-18.4 40.9-40.9 40.9-22.6 0-40.9-18.3-40.9-40.9z"/></svg>