<svg id="Layer_1" enable-background="new 0 0 75 75" viewBox="0 0 75 75" xmlns="http://www.w3.org/2000/svg"><g id="Exercise_Ball" fill="rgb(0,0,0)"><path d="m28.3627205 34.5093422c-.2400761.6563301-.1778278 1.0791588-.0722656 4.1816406.0062656.1002312.0067539.1080437.0004883.0078125.0290432.8524132.0337543 1.7073898.402832 2.4833984.4967041 1.0437012 1.7310181 1.4979858 3.03479 1.7176514l-2.609436 9.8515625c-.0030518.0002441-.0057983-.0006104-.0088501-.0003662-1.0756836.0869141-2.1894531 1.0078125-2.8164063 1.7700195-1.1657524 1.4179306-.3200569 2.6782227 1.1240234 2.6782227.9662762 0 1.9674835-.5706482 2.4550781-1.4960938.3084564-.5862007.5247173-2.0953598-.0481567-2.6879883l2.6516724-10.0111083c.6935806.0750008 1.0414925.0859146 1.4320068.0898438-.4870605 4.8156738 2.0791626 9.9750977 6.3795166 12.6922607 9.7800064 6.181778 22.7042885-.7952156 22.5854492-10.4501953-.0671997-5.4434204-3.6630859-10.7665405-8.7747192-13.0587158.0390015-.4611206.0241699-.9110107.008606-1.2962646-.0786133-1.9980469-.2749023-4.0585938-1.7041016-5.3764648-1.6962891-1.5634766-4.2231445-1.2294922-5.8720703-.46875-1.3061523.6020508-2.4287109 1.5117188-3.5146484 2.3911133-2.8829956 2.3351269-4.6731796 3.412674-9.9633789 4.8232422-.8662415.2329292-1.7563038.1661682-2.6953125.4462891-.9628906.2871091-1.7084961.9272459-1.9951172 1.7128904zm.8466797 20.8442383c-.8811779 1.6715164-3.7243156 1.3309212-2.3364258-.355957.5576172-.6777344 1.5141602-1.4360352 2.2978516-1.4990234.4169788-.0631791.259859 1.4341163.0385742 1.8549804zm18.0788574-22.0524903c.1300049.1499634.1100464.3900146-.039978.5299683-6.8772583 5.8878021-10.2971878 5.3291893-10.8599854 5.5499878-.474659 0-.5039597-.7048111-.0300293-.75 4.1000366-.3599854 7.710022-3.0599976 10.4000244-5.3699951.1500245-.1399536.3900147-.1199951.5299683.040039zm14.8352051 12.0437012c.0827255 6.676609-6.5622253 11.8730545-13.2519531 11.9985352-9.3285446.1482887-14.9732742-7.35746-14.2073364-14.2723389 3.964241-.2009926 7.3222885-2.0917206 10.7717896-4.0577393 7.1232681-4.1278 8.0705032-4.2081795 8.5334473-5.9691772 4.7584837 2.21875 8.0914915 7.204834 8.1540526 12.3007202z"/><path d="m54.7260017 27.8096352 6.78125-9.6092529c.100647.0306892 1.4161797.6365967 2.6386757.6365967 1.6206131 0 2.1536179-1.7206192.4584961-2.7436523-.9531288-.5766592-2.085453-.8066397-3.1875038-.6528311-.3120117.0439453-.7641602.1411133-1.0791016.4794922-.331543.3559561-.4135742.909667-.199707 1.3466787.138916.2828369.3925781.4733887.6702271.6234131l-6.6946411 9.4869385c-.2891007.4094638.333065.8299254.6123046.4326171zm6.1606446-11.378418c.3149071-.3374004 1.9498482-.5305052 3.3300819.3041992.9411774.5660133.7884903 1.1843758.2373047 1.3188477-.9074745.2201195-3.4499664-.7251396-3.6420937-1.1176758-.078125-.1586914-.0458984-.3764649.0747071-.5053711z"/><path d="m13.5559578 47.4657631c-.5073242-.1774292-1.2218628-.0595093-1.5267334-.0062256-.6899414.1186523-1.2558594.4599609-1.5932617.9604492-1.3573475 2.0141296 1.4901209 4.6712875 2.9916992 1.7387695.2767801-.5618744.7721148-1.4372597.6593628-2.0946655l14.2571411-5.5435181c.4607086-.1791649.1944199-.8751221-.2714844-.6992188zm-.7952881 2.3511963c-.2807617.5463867-.5839844.8447266-.902832.8867188-.3105469.0390625-.6899414-.1904297-.8735352-.5395508-.3937721-.7467155-.0196609-1.7605362 1.171875-1.965332.8129168-.1247635 1.042551-.0843811 1.1668091-.036499.0112915.008728.0203247.0175781.0324707.0249634.0435715.223152-.098711.672161-.5947876 1.6296996z"/><path d="m65.5649338 28.0883217-10.8716469 1.8824463c-.4849968.0847015-.3665047.8179188.1279297.7392578l10.9583778-1.8974609c.6127625 1.3507538 1.9156036 3.6029205 3.291626 3.0605469.3969727-.1547852.6948242-.5439453.777832-1.015625.2887039-1.6304684-1.8254776-4.1989574-3.2138672-4.0576172-.5848541.0595474-1.1290359.5865878-1.0702514 1.2884521zm3.5458374 2.6392822c-.0371094.2089844-.1625977.3886719-.3125.4472656-.3490524.1393528-.7286606-.2140236-.9814453-.4946289-.7461319-.8314495-1.0550079-1.5984077-1.1723633-1.8071289-.1645508-.3149414-.3896484-.7460938-.3222656-.9956055.0458984-.1708984.2133789-.3134766.3886719-.331543.7996826-.0726985 2.6127395 1.962927 2.3999023 3.1816407z"/><path d="m57.7318611 44.1924477c-.1801414.4620552.5196419.7341194.6992188.2714844.8701172-2.2382813.2504883-4.9448242-1.5078125-6.581543-.1513672-.1416016-.3891602-.1333008-.5297852.019043-.1411133.1513672-.1328125.3886719.019043.5297852 1.5385742 1.4326171 2.0815429 3.8017577 1.3193359 5.7612304z"/><path d="m44.5292244 49.6714516c-1.3041992-.1826172-2.5517578-.5932617-3.7089844-1.2192383-.4383392-.2365646-.7924232.4247704-.3574219.6591797 1.5816574.8564186 3.4781799 1.3066406 4.0146484 1.3066406.4630509 0 .5110741-.6820564.0517579-.746582z"/><path d="m47.0897713 58.7412758-6.1386719 2.9433594c-.4475899.2150307-.1235542.8901825.3242188.6767578l6.1386719-2.9433594c.4466857-.2145958.1253699-.8886719-.3242188-.6767578z"/><path d="m50.9525642 59.0806313-3.8681641 1.934082c-.353756.1768799-.22612.7104492.1679688.7104492.1668892 0 .0003242.0276909 4.0351563-1.9736328.4437446-.2218704.1096229-.8926048-.334961-.6708984z"/><path d="m12.7894783 40.8228188c.1370678.0201569.2603827-.0469627.3424683-.1585693 1.376709.7003784 2.9233398 1.0662842 4.4563599 1.0662842 6.3962593 0 10.776268-6.5603981 8.6676636-12.3237915.2436962-1.0847893.1542912-2.2770424-.4304199-3.368103-.2695179-2.6424427-5.2819138-6.529562-11.2321777-5.4790649 4.102314-3.3961029 10.0205288.2345543 15.0388794-1.2050171 1.2343502-.3520527 1.4083996-1.4940739.1352539-1.956543-9.7922153-3.5619221-12.2283859-4.6441832-15.4648438-4.7875967-5.8513746-.2709866-9.1247692 3.7513762-8.4931641 7.1323233.3110352 1.6650391 1.6630859 3.0268555 3.2148433 3.2382813.1000013.0138893.0725231-.0093098.1543579-.0350952.0736084.0343628.1499023.059021.2315063.0666504-1.4668694 1.2634144-2.6367345 2.9747963-3.3580317 4.7150269-.1909089.4579487.5034289.7455559.6923828.2871094.9945993-2.3938255 2.7552676-4.5621262 5.1621089-5.7885742 4.8501015-2.4379997 10.6613503-.4268761 12.6359863 2.632019-.7820454-.2400303-1.4323902.0789948-1.8204346.7652588-.1003551-.0340137-.4838734-.2264881-1.4571533-.4397583-3.9741344-.8287659-6.8144979 1.2960815-6.9145508 1.3349609-.5119486.3237095-1.4049921.8810768-1.9194336.3349609-.2766294-.29212-.7614689.0002537-.6264648.3818359.3144531.8925781.8774414 1.6904297 1.6162109 2.3046875-1.3300781.3139648-2.828125-.1030273-3.769043-1.1054688-.0747681-.0797729-.1809692-.1083374-.2879639-.1048584-.0283203.0009155-.0564575-.0081177-.0841064-.0006104-.0001831.000061-.0003052-.000061-.0004883 0-.1337891.0366211-.2368164.1445313-.2670898.2802734-1.4660039 6.5639114 2.7264357 11.1421242 2.7753906 11.2421875-4.1097908-1.1658592-6.9308825-5.3943253-5.5380855-10.4609375.1324182-.4792824-.5919833-.6764069-.7226563-.1992188-.1743164.6333008-.2924805 1.2421875-.3510742 1.809082-.2280273 2.0849609.3081055 4.2753906 1.4716797 6.0102539 1.3945313 2.0649414 3.6904297 3.4902344 6.1420899 3.8120118zm-6.2426753-21.2177735c-.5404239-2.8947239 2.3415046-6.4841013 7.7226558-6.2456045 3.0642586.1360302 5.3180714 1.1336422 15.2416992 4.7436514.4571438.1656132.5972233.335392-.0854492.5307617-3.3864517.9681168-7.0309696-.4817276-10.5600586-.3154297-1.5019531.0664063-3.612793.4628906-5.1396484 1.9741211-.0111084.0109253-.0073242.0279541-.0167847.039856-.1606445-.1559448-.4051514-.2565308-.6352539-.2962646-2.1371984-.3686466-4.2030106 1.0785484-4.3044434 2.1190186-1.0867915-.3117067-1.9940181-1.3259279-2.2227168-2.55011zm7.8354487 10.3979492c.2731905-.1223545.2985725-.5027313.0439453-.6601563-.6259766-.3891602-1.1469727-.9160156-1.5200195-1.5273438.8038073.0504494 1.3995209-.3872185 2.0893555-.8154297 2.2296257-1.379385 5.1012154-1.6276722 7.3447266-.7241211l.1326294.0567627c-.0861816.520752-.0169678 1.0394287.0509644 1.5008545.0725098.4911919.8146248.3813229.7421875-.109375-.0673828-.4555664-.1367188-.9262695-.043457-1.3549805.2255421-1.04422 1.3692989-1.2901134 2.0488281.2021484.4204102.9238281.4902344 2.0092773.1918945 2.9785156-.0541382.175415.0318604.3544312.1889648.4365845 1.4299088 4.4710503-1.2910175 9.0348244-5.184082 10.493103-2.6763916.9876709-5.9102783.4941406-8.1792603-1.196167-.0504923-.1005783-3.6200848-4.0464783-2.668396-9.8692627 1.3276367 1.0209963 3.2270508 1.2797854 4.7617187.5888674z"/><path d="m9.245533 19.5215492c-.1040039-.4775391.1279297-1.0444336.5913086-1.4438477 1.1062155-.9528885 5.502367-1.976944 9.8779297-.6855469.4764023.1394939.6878529-.5793991.2119141-.7197266-4.6783648-1.3797255-9.3038921-.2613678-10.5795898.8369141-.668457.5771484-.9960938 1.4296875-.8339844 2.1723633.1051187.4838162.8388681.325285.7324218-.1601562z"/><path d="m13.172718 37.2946205c.6918335.3388672 1.5273438.0527344 1.8662109-.6390991.3388062-.6918335.0526733-1.5273438-.6391602-1.8662109s-1.5273438-.0526733-1.8662109.6391602c-.3388061.6917724-.0526732 1.5273437.6391602 1.8661498z"/><path d="m18.2844734 31.6112099c.6918335.3388672 1.5273438.0527344 1.8662109-.6390991s.0526733-1.5273438-.6390991-1.8662109c-.6918335-.3388672-1.5274048-.0526733-1.8662109.6391602-.3388672.6918334-.0527344 1.5273436.6390991 1.8661498z"/><path d="m15.9760017 38.6035805c3.341774.5204887 6.3897667-2.0529594 6.4384766-5.4326172.0029297-.2070313-.1625977-.3774414-.3696289-.3803711-.199707.0043945-.3769531.1625977-.3803711.3696289-.0200195 1.3779297-.6611328 2.7319336-1.7148438 3.6210938-1.0541992.8891602-2.4956055 1.2924805-3.8583984 1.0810547-.4877577-.0775719-.6067448.6649627-.1152344.7412109z"/></g></svg>