<svg id="Layer_1" height="512" viewBox="0 0 512 512" width="512" xmlns="http://www.w3.org/2000/svg"><g><path d="m59.4 149.5h16.4c0-31.6 25.7-57.4 57.4-57.4v-16.4c-40.8 0-73.8 33.1-73.8 73.8z"/><path d="m448.9 149.6c-10.6-34.2-41.9-57.5-78.2-57.5-3.4 0-6.7.2-10.1.6-19.3-44.7-63.8-74.3-112.8-74.3-29.7 0-58.2 10.7-80.6 30.3-11.1-3.8-22.5-5.7-34.1-5.7-58.7 0-106.5 47.7-106.5 106.5 0 4.5.3 9 .9 13.7-16.1 12.4-25.5 31.4-25.5 51.8 0 36.1 29.4 65.5 65.5 65.5h8.2c15.5 20.6 39.6 32.8 65.5 32.8s50.1-12.2 65.5-32.8h237.6c36.1 0 65.5-29.4 65.5-65.5.2-34.6-26.8-63.1-60.9-65.4zm-4.4 114.6h-246.3s-14.7 32.8-56.9 32.8c-39.3 0-56.9-32.8-56.9-32.8h-16.9c-27.1 0-49.2-22.1-49.2-49.2 0-16.7 8.4-32.1 22.5-41.2l4.6-3s-2.5-9.6-2.5-21.3c0-49.7 40.4-90.1 90.1-90.1 19.4 0 37.8 8.2 37.8 8.2s27.7-32.8 76.9-32.8c44.5 0 84.6 28.1 99.9 70l2.4 6.7s8.9-2.9 20.5-2.9c30.8 0 57 21 63.9 51l1.5 6.4h8.4c27.1 0 49.2 22.1 49.2 49.2s-21.9 49-49 49z"/><path d="m256 325.7s-32.8 37.3-32.8 53.2c0 18.1 14.7 32.8 32.8 32.8s32.8-14.7 32.8-32.8c0-15.9-32.8-53.2-32.8-53.2zm0 69.6c-9 0-16.4-7.3-16.4-16.4 0-5.2 7.7-17.4 16.4-28.3 8.7 10.9 16.4 23.1 16.4 28.3 0 9-7.4 16.4-16.4 16.4z"/><path d="m124.9 325.7s-32.8 37.3-32.8 53.2c0 18.1 14.7 32.8 32.8 32.8s32.8-14.7 32.8-32.8c0-15.9-32.8-53.2-32.8-53.2zm0 69.6c-9 0-16.4-7.3-16.4-16.4 0-5.2 7.7-17.4 16.4-28.3 8.7 10.9 16.4 23.1 16.4 28.3 0 9-7.4 16.4-16.4 16.4z"/><path d="m288.8 460.8c0 18.1 14.7 32.8 32.8 32.8s32.8-14.7 32.8-32.8c0-15.9-32.8-53.2-32.8-53.2s-32.8 37.3-32.8 53.2zm32.7 16.4c-9 0-16.4-7.3-16.4-16.4 0-5.2 7.7-17.4 16.4-28.3 8.7 10.9 16.4 23.1 16.4 28.3 0 9.1-7.3 16.4-16.4 16.4z"/><path d="m157.7 460.8c0 18.1 14.7 32.8 32.8 32.8s32.8-14.7 32.8-32.8c0-15.9-32.8-53.2-32.8-53.2s-32.8 37.3-32.8 53.2zm32.8 16.4c-9 0-16.4-7.3-16.4-16.4 0-5.2 7.7-17.4 16.4-28.3 8.7 10.9 16.4 23.1 16.4 28.3-.1 9.1-7.4 16.4-16.4 16.4z"/><path d="m354.3 378.9c0 18.1 14.7 32.8 32.8 32.8s32.8-14.7 32.8-32.8c0-15.9-32.8-53.2-32.8-53.2s-32.8 37.3-32.8 53.2zm32.8 16.4c-9 0-16.4-7.3-16.4-16.4 0-5.2 7.7-17.4 16.4-28.3 8.7 10.9 16.4 23.1 16.4 28.3 0 9-7.4 16.4-16.4 16.4z"/></g></svg>