<svg id="Layer_1" enable-background="new 0 0 75 75" viewBox="0 0 75 75" xmlns="http://www.w3.org/2000/svg"><g id="Eye_Bandage" fill="rgb(0,0,0)"><path d="m40.6586838 50.9753494c.8800049-.1600342 1.8399658-.4100342 2.3199463-1.1600342.5456772-.8550529.3578911-2.0409927.0400391-8.1500244-.175087-2.8425217-.521965-5.8502464-1.0900879-8.6400146-.2698975-1.25-.6899414-2.6300049-1.8199463-3.2199707-1.9554672-1.0599461-4.1458855 1.0354462-9.1999512-.2700195-1.2200928-.3299561-2.3699951-1.2600098-2.9000244.3499756-.8148766 2.4889374-2.0609264 9.3252869-2.1899414 15.9100342-.0766087 4.1838837 1.2510967 5.2247429 4.3898926 5.5699463 3.4899902.3601073 7.0100097.2299804 10.4500732-.3898927zm-8.6300049-8.6900635.3599854-2.1199951c.0518227-.2847176-.152935-.2850266-1.6400146-1.7900391-.1899414-.1999512-.0799561-.5300293.1899414-.5699463l2.1201172-.3099365c.1099854-.0200195.2099609-.0900879.2600098-.1900635l.9499512-1.9200439c.1199951-.25.4799805-.25.5999756 0 .9652672 1.8509674.8998871 2.0555267 1.2000732 2.1101074.1016045.0148544 2.2557793.3298073 2.119873.3099365.2800293.039917.3901367.3699951.1900635.5699463-1.4445457 1.4708328-1.6857872 1.4835663-1.6300049 1.7900391l.3599854 2.1199951c.0500488.2700195-.2399902.4799805-.4899902.3499756-1.8020897-.8968239-1.924675-1.1428185-2.2099609-1l-1.9000244 1c-.2399905.1300049-.5300295-.079956-.4799807-.3499756z"/><path d="m39.7425461 20.4506912c.3769531-.5203857.2634277-1.2458496-.253418-1.6203613-.5170898-.3743896-1.2416992-.2561035-1.6186523.2641602-.3769531.5205078-.2634277 1.2458496.2536621 1.6203613.5168457.3745117 1.2414551.2562256 1.6184082-.2641602z"/><path d="m32.0209885 25.0478592c1.6503906-.9394531 3.84375-.9072266 5.4628906.0830078.422184.2587566.8130074-.3815975.390625-.640625-1.8720703-1.1455078-4.3164063-1.1816406-6.2246094-.0947266-.4339638.25-.0558319.8962994.3710938.6523438z"/><path d="m46.856926 49.2177811c.3544922.7285156 1.0351563 1.2382813 1.7763672 1.3291016.7901001.1026115 1.664856-.3475876 1.9746094-1.1025391.6580315-1.6210022-1.3189583-4.1432495-2.4425049-4.300293l-5.1639404-14.1870117c-.0712891-.1953125-.2880859-.296875-.4804688-.2246094-.1953125.0712891-.2949219.2861328-.2246094.4804688l5.1679688 14.197876c-.6737862.6840858-1.247326 2.4919967-.6074219 3.8070068zm1.0888672-3.2324219c.0919952-.1220322.1042557-.1700935.4248047.0605469.6601563.4726563 1.1787109 1.1484375 1.4599609 1.9023438.1826172.4912109.2099609.8994141.0830078 1.2128906-.1728516.4199219-.6923828.7089844-1.1884766.6416016-.484375-.0595703-.953125-.4179688-1.1943359-.9130859-.4428215-.9124833-.0980682-2.2143327.4150391-2.904297z"/><path d="m25.178215 65.3271561c-.4948406.8099365-.2799225 1.9073639 1.0976563 2.1660156 1.2141075.2316284 3.2858944.369606 4.3378906-.4228516 1.2664967-.9536667 1.2631359-3.0359802-.0732422-3.6181641-.0172119-.0075684-.0384521-.0075684-.0560303-.0144043l-.2427979-9.9846191c-.011755-.4984474-.761692-.4781647-.75.0175781l.2391357 9.8288574c-1.3363379-.048767-3.909439.9857789-4.5526122 2.027588zm4.5975342-1.2841797c.0872669.2088776.3456249.3152084.5644531.1519775.6538696.372963.6381607 1.6639252-.1776123 2.2757568-.8221455.6207657-2.7343273.4794769-3.7470703.2861328-.5517578-.1044922-.6669922-.3154297-.7070313-.4658203-.1104755-.4293442.2228966-.7737961.5800781-1.0332031h.0009766c.7382355-.5372543 2.4414998-1.2902107 3.4862061-1.2148437z"/><path d="m33.1723557 8.1582098c-1.8730469.6191406-3.4824219 1.8779297-4.5332031 3.5458984-.1103516.1757813-.0576172.4072266.1171875.5175781.0625.0390625.1318359.0576172.2001953.0576172.1240234 0 .2460938-.0615234.3173828-.1748047.9443359-1.4990234 2.4501953-2.6777344 4.1328125-3.2333984.4738426-.1571655.2322082-.8699808-.234375-.7128906z"/><path d="m13.3539963 15.6289129c1.5478516.3828135 2.9619141 1.180665 4.0898438 2.3076181.3490982.3490982.8818684-.1786785.5292969-.53125-1.2236328-1.2226563-2.7587891-2.0888681-4.4394531-2.5048838-.4914333-.1105136-.655368.6107503-.1796876.7285157z"/><path d="m18.5903244 14.7900457-2.8886719-2.6083984c-.3659859-.3331404-.8715992.2244272-.5019531.5566406l2.8886719 2.6083984c.3638515.3289624.8718281-.2242212.5019531-.5566406z"/><path d="m19.5209885 10.6337957c-.128746-.4798737-.8533783-.2842531-.7246094.1933594.4667969 1.7431641 1.2460938 3.3603516 2.3154297 4.8095703.293602.3992987.8982887-.0452623.6035156-.4453125-1.0136719-1.3730468-1.7519531-2.90625-2.1943359-4.5576172z"/><path d="m57.3002853 62.2070389c-.7353516-.8339844-2.0712891-.7773438-2.9365234-.2421875-.5898438.359375-1.0195313.8681641-1.3974609 1.4160156-1.1056328-3.5380249-4.6782875-2.8005333-5.3974609.6503906-.2969971-.3000488-.6688232-.5482178-1.1143799-.6259766-.3152351-.5547829-.7881317-.7559319-1.4256592-.8603516-.5467529-.0888672-1.9832764-.1706543-3.1104736.2259521l-1.4989014-10.2991942c-.0742455-.5005608-.8135834-.3762245-.7421875.1074219l1.5367432 10.5598145c-1.4898071 1.0393066-.8828163 3.5622559 1.4847412 3.5622559.3258057.0019531.6844482-.0465088 1.0516357-.1204834.019043.5349121.1109619 1.0592041.1895752 1.5003662.0874977.4918747.8243866.3555298.7382813-.1308594-.1482544-.8305283-.3040924-1.7711258-.0419922-2.5800781.18787-.5893555.7199135-1.1986923 1.3690186-1.2392578.6736641-.0397949 1.1385155.4429016 1.4805908 1.0253906.1849861.3127136.6615982.2044144.6962891-.1533203.2694817-2.702755 1.7477913-3.4483795 2.7314453-3.1142578.9795494.3455811 1.3165779 1.5469246 1.5400391 2.4921875.0719833.3019333.4988022.4031067.6894531.1035156.4521484-.7158203.9189453-1.4570313 1.6132813-1.8798828.5888672-.3652344 1.515625-.4306641 1.9794922.0966797.4726563.5439453.3251953 1.4697266.1181641 2.3046875-.0747643.3011322.235199.5693588.5332031.4248047 1.0380859-.5234375 2.4345703-.2539063 3.1777344.6201172.7568359.8789063.8183594 2.2949219.140625 3.2236328-.2954407.4041595.3200035.8334427.6054688.4414063.8886719-1.2177734.8125-3.0039063-.1767578-4.1533203-.8164063-.9589844-2.1923828-1.3564453-3.4082031-1.0517578.1396481-.8281252.1230466-1.6718752-.4257816-2.3037111zm-15.5478515 3.5166015c-.848999-.5114059-1.3033524-2.5048828 2.2001953-2.5048828.4266243 0 1.1760712.0345268 1.5478516.2460938-.171627.0728188-.2747116.0867958-.5845947.3088379-.6895943.5011902-1.0485535 1.2397461-1.1409912 2.048584-.6044198.1481246-1.4693528.2364654-2.022461-.0986329z"/><path d="m20.810051 29.8154373c.7255859 2.3564453 2.8486328 4.1884766 5.2822266 4.5605469.4954033.0743103.6009178-.667881.1132813-.7421875-2.1552734-.3291016-4.0361328-1.9521484-4.6787109-4.0380859-.5943604-1.9458008-.0587158-4.1816406 1.3186035-5.6640625.7971535.3217564 2.4003506.1182652 3.1141357-.0465088 2.1231384 3.2190418 5.205349 4.7857666 8.664917 4.7857666 5.3741112 0 9.2092552-4.0862961 9.0234375-9.1633301.3546143-.2324219.8571777-.2559814 1.2060547-.0280762.2658691.1701546.6100502-.039669.578125-.3525391-.2512894-2.4573822.2931519-4.9007721-.6943359-7.3896494-.1823006-.4604254-.8798714-.1858063-.6972656.2753906.8417244 2.1248045.4668732 4.294919.5986328 6.5888681-.2949219-.0546875-.6015625-.0439453-.8896484.0361328-.1821594-1.7383099-2.6171455-2.4540272-2.4775391-3.8447275.0290642-.2844067-.2588158-.497221-.5253906-.3808594-.8369141.3720703-1.90625.1240234-2.4960938-.5830078-.3367081-.3877258-.4259186-.6442566-.71875-1.0273438-.4042969-.5087891-.9042969-.7617188-1.3720703-.7617188-.5546875.0136719-.9697266.3564453-1.3691406.6855469-2.9892578 2.4570313-6.6074219 3.9853525-10.2246094 4.3271494-.9170589-5.6545486 3.3564491-11.0277996 9.2939453-11.1728525 1.6152344-.0263672 3.2988281.9267578 4.0693359 2.3652344.1392593.2638636.2398071 1.1654139.65625 1.3720703.4028206.1817608 1.2605705-.2571898 1.5507813-.2773438 1.2269211-.0904331 2.4250488.3918896 3.2939453 1.5419922.2976265.3952856.8981018-.0564413.5976563-.453125-1.2011263-1.5865324-3.1873591-2.3188055-5.0839846-1.5087888-.1087379-.2549667-.2465744-.8334007-.3544922-1.03125-.9121094-1.703125-2.8066406-2.7841797-4.7490234-2.7587891-6.5194683.1602745-11.0804119 6.0330095-9.9765625 12.2197275-.0184326.9538574.135376 1.9567871.4400635 2.9836426-.2687988.123291-.5294189.2799072-.7672119.4851074-.2662354.2302246-1.5184326 1.6109619-1.2141113 2.5756836-1.5726319 1.6741943-2.1868897 4.213623-1.5124512 6.4213867zm3.8155517-12.0258789c3.7689209-.3533936 7.5357666-1.9326181 10.6756592-4.512208.2988281-.2470703.5810547-.4804688.8759766-.4873047h.0126953c.6553726 0 .9698944.927702 1.4902344 1.5253906.6904297.8291016 1.8349609 1.1855469 2.8759766.9482422.2735519 1.3278608 1.6839523 1.9727507 2.1365967 2.7058115.7971191 3.0686035-.4958496 6.6120605-3.0897217 8.4396973-3.0419922 2.1474609-7.5244141 1.9990234-10.6611328-.3544922-.8145752-.6047363-1.5858154-1.4492188-2.2598877-2.4418945 1.9183922-1.0360317.7253075-3.900135-1.6628418-3.5048828-.2357179-.796875-.3675538-1.572876-.3935548-2.3183594zm.8153076 3.0268555h.0107422c1.1991272.0068779 1.7924442 1.2148094 1.1884766 1.90625-.2802734.3203125-.7871094.4335938-1.1425781.4902344-1.4775391.2314453-2.3496094.1298828-2.4667969-.0087891-.1914749-.3461266.8326034-2.3876953 2.4101562-2.3876953z"/><path d="m26.4653244 19.4521561.9659424.1091309c.7208214 2.180542.5918694 2.5935574 1.1634521 3.0714111l-.3168945.8721924c-.1681271.4646835.5340176.7240238.7050781.2558594l.2994385-.8240967c.1004601.0154953.2471123.0825214.6077881-.0235596 2.6953621-.847868 2.8847733-.7420444 3.3109131-1.1333008.6160049.3779545.6838341.4916992.8717041.4916992.3713455 0 .5184555-.4860821.203125-.6904297l-.6739502-.4355469c.0755615-.2524414.0831299-.5280762.0030518-.7988281-.8391228-2.7635231-.7744904-2.7698498-.9683838-3.0891113l.6099854-.7624512c.3079681-.3872967-.2732353-.8561296-.5859375-.46875l-.5699463.7124023c-.3138428-.1655273-.6885986-.21521-1.052124-.1069336l-2.7666016.8203125c-.6053467.1791992-.9935303.7341309-.9991455 1.3356934l-.7235107-.0817871c-.1972656-.0117188-.390625.1259766-.4150391.3310547-.022461.2060547.1249999.3916016.3310546.4150391zm2.0195313-1.28125c2.8468857-.775465 2.7458897-.9177322 3.116333-.8200684l-.6387939.798584c-.1959286.2463932-.0194283.609375.2929688.609375.3000145 0 .3562889-.279047.8494873-.8364258.8996964 3.1055813.7705269 2.5008698.7928467 2.7679443l-.4743652-.3065186c-.4173965-.2664738-.8239746.3601551-.40625.6308594l.4985352.3221436c-.0251465.0111084-.0447998.0301514-.0717773.038208-3.2828064.9508286-2.6270409.8082943-2.8955078.8295898l.2060547-.5668945c.1677513-.4636497-.5334797-.7259941-.7050781-.2558594l-.1558838.4289551c-.0830441-.1983852-.4070034-1.3412876-.6533203-2.157959l.2711182.0307617c.5124817.0341644.5621338-.6917076.0839844-.7460938l-.5626221-.0637207c-.0351566-.3100585.1437985-.6114501.4522702-.7028807z"/></g></svg>