<svg id="Layer_1" height="512" viewBox="0 0 512 512" width="512" xmlns="http://www.w3.org/2000/svg"><g><path d="m337.9 76v16.4c49.7 0 90.1 40.4 90.1 90.1h16.4c.1-58.7-47.7-106.5-106.5-106.5z"/><path d="m59.1 381.8c-20.4 36.6 1.8 70.3 21.2 80.7 13.9 7.5 55.6 15.9 79.4-25.6 15.6-27.3-6.9-106.8-6.9-106.8s-78.4 24.3-93.7 51.7zm86.2 47.3c-8.2 15.6-31.2 32.2-57.2 19.1-21.2-10.6-25.4-40.3-14.7-58.5 9.3-15.8 46.7-31.7 68-38.9 5.4 21.9 12.5 62.1 3.9 78.3z"/><path d="m510 246.8c0-22.5-11.4-43.3-30.2-55.7.5-4.6.7-8.7.7-12.7 0-74.5-61-135.2-136-135.2-40.2 0-77.6 17.3-103.6 47.7-14.1-5.7-28.8-8.7-43.9-8.7-58 0-106.2 41.5-114.9 97.7h-12.9c-37.1.1-67.2 30.1-67.2 66.9s30.1 66.8 67.2 66.8h123.6c3.6 19 16.4 34 28.2 40.4 13.9 7.5 55.6 15.9 79.4-25.6 2.3-3.9 3.7-9 4.5-14.7h30.6c-15.6 34.5 5.3 65.5 23.8 75.5 13.9 7.5 55.6 15.9 79.4-25.6 6.3-11 6.4-30.5 4.3-49.9 36.9-.2 67-30.1 67-66.9zm-224 73.7c-8.2 15.6-31.2 32.2-57.2 19.1-21.2-10.6-25.4-40.3-14.7-58.5 9.3-15.8 46.7-31.7 68-38.9 5.4 21.9 12.5 62.1 3.9 78.3zm138.3 35.1c-8.2 15.6-31.2 32.2-57.2 19.1-21.2-10.6-25.4-40.3-14.7-58.5 9.3-15.8 46.7-31.7 68-38.9 5.4 21.9 12.4 62.1 3.9 78.3zm18.5-58.4h-1.9c-1.9-11.2-9.2-40.5-9.2-40.5s-.2.1-.3.1l-.1-.4s-60.1 16.6-84.9 40.8h-40.4c0-30.9-12.6-75.6-12.6-75.6s-.2.1-.3.1l-.1-.4s-76 20.9-93.7 51.7c-4.3 7.5-6.7 15.8-7.5 24.2h-122.6c-28 0-50.8-22.6-50.8-50.4s22.8-50.4 50.8-50.4h27.6l.7-7.5c4.7-51.4 47.4-90.2 99.5-90.2 28.6 0 48.8 12.5 48.8 12.5s34.1-51.6 98.7-51.6c66 0 119.6 53.3 119.6 118.8 0 13.5-1.9 21.5-1.9 21.5s31.4 13.4 31.4 46.9c0 27.8-22.8 50.4-50.8 50.4z"/></g></svg>