<svg id="Layer_1" enable-background="new 0 0 75 75" viewBox="0 0 75 75" xmlns="http://www.w3.org/2000/svg"><g id="Fairy_Costume" fill="rgb(0,0,0)"><path d="m32.1609612 56.0654602c0-.4960136-.75-.496315-.75 0v10.7026367c-1.8094864-.4627838-4.042408.5549774-4.5166016 1.4760742-.1650391.3232422-.1630859.6962891.0058594.9755859.1972656.3242188.5517578.4404297.8388672.5068359 1.6449089.3718948 4.2340069.0147247 4.7255859-1.2724609.2072754-.5402832.0809326-1.0690918-.31604-1.3598633.0290336-.1701964.0025939 1.166565.0123291-11.0288085zm-.397461 12.1210938c-.0996094.2626953-.3798828.4658203-.8818359.640625-1.6269321.5663986-3.2277069.1888962-3.3408203.0029297-.0322266-.0537109-.0234375-.15625.0205078-.2431641.1987228-.3860931 1.0840225-.84758 1.6933594-1.0117188.7910156-.2128906 1.8945313-.2666016 2.4482422.1162109.1884765.1308594.0839843.4355469.0605468.4951173z"/><path d="m38.1511955 68.4541321c.2431641.6367188.8789063.9228516 1.3369141 1.0820313 1.0673599.3706284 2.2379837.4492645 3.3896484.1894531.2861328-.0654297.640625-.1816406.8378906-.5068359.8578224-1.4131775-2.3793602-2.9945068-4.5107422-2.4501953v-10.703125c0-.4960136-.75-.496315-.75 0 .0095596 11.9729004-.015789 10.8639679.0123291 11.0288086-.3969726.2907714-.5233154.81958-.31604 1.3598632zm4.9023438.1318359c.0449219.0878906.0537109.1904297.0214844.2431641-.1120262.1860809-1.712841.5653992-3.3408203-.0019531-.5019531-.1748047-.7822266-.3779297-.8818359-.640625-.0234375-.0595703-.1279297-.3642578.0605469-.4951172.2910156-.2011719.7353516-.2822266 1.2050781-.2822266 1.5099524 0 2.7323417.7791824 2.9355468 1.1767578z"/><path d="m38.3642082 23.6056213c.416626 0 .7543945-.475708.7543945-1.0626221 0-.586792-.3377686-1.0625-.7543945-1.0625s-.7543945.475708-.7543945 1.0625c0 .5869141.3377685 1.0626221.7543945 1.0626221z"/><path d="m31.0714836 21.2239075c-.416748 0-.7543945.475708-.7543945 1.0625 0 .5869141.3376465 1.0626221.7543945 1.0626221.4165039 0 .7543945-.475708.7543945-1.0626221 0-.586792-.3378906-1.0625-.7543945-1.0625z"/><path d="m36.3787346 24.9062805c-.8089218 1.4980774-2.8708572 1.7570763-4.0224609.4892578-.1113281-.1230469-.2890625-.1572266-.4384766-.0869141-.3426571.1634884-.167326.5330963-.171875.6503906.0908203.6240234.1845703 1.2695313.5283203 1.8662109 1.2321205 2.1478863 3.7380257 1.8968334 4.7861328.1552734.6386719-1.0634766.3339844-2.1796875-.0029297-3.0332031-.1133384-.2864417-.5197563-.3302268-.6787109-.0410155zm.0390625 2.6875c-.4492188.7480469-1.3691406 1.1708984-2.1328125.9775391-.7102928-.1759453-1.4417343-.8591061-1.6845703-2.0380859 1.3449516.7547512 2.9552612.4793816 3.9833984-.6337891.1748047.6914062.1191406 1.2197265-.1660156 1.6943359z"/><path d="m33.3172112 17.5781555c-.0615234.0107422-.1611328.0302734-.1513672.0546875-.1100769-.1431007-.2956314-.6749115-.37146-.9216309-.3298378-1.0719719-.332943-2.1275377-.0709229-3.0979013.1169014-.437809-.5025558-.6660862-.7001953-.2617188-.8310547 1.7167969-1.6552734 3.4326181-2.4648438 5.1484385-.6665325-1.4230995-1.5145969-2.88764-1.6660156-3.1132822-.2094994-.3087368-.8284092-.2259159-.6621094.5390625.0844746.624507.0269318 1.3603048.0458984 1.9970713.008009.360424.2080574 1.4864578.0625 1.7021484-.0791016.1074219-.3916016.2597656-.6191406.3701172-.5300617.2581844-.8944397.451582-1.4658203 1.2441406-2.4536381-5.5888433 3.6016693-11.7855177 9.9472656-11.2998056.4848862.0503187.5631142-.7075558.0605469-.7480469l-.1162109-.0117188c-1.4400024-.1484537-3.8427944.2890463-5.9068604 1.4345703-4.673069-9.1620102-14.2265129-6.319911-13.6107178 4.5126953.0195074.3576345.4887981.4876204.6884766.1826172.0128651-.019722.7007751-1.0737858.7158203-1.0966797-.1572266 2.5703135.6982422 5.2216806 2.3681641 7.1103525.2320652.2599125.6584015.0932655.65625-.2509766-.0166016-1.9394531.3574219-3.4404297 1.3476563-5.2705088.1034489.3874731.7033367 2.6336946.6650391 2.4902353 0 .0009766 0 .0019531.0009766.0029297.1310406.4750214.8523045.280962.7236328-.1962891l-.0019531-.0087891c-.1226807-.4764404.6384277-1.3933105 1.5689697-2.0251465-.5705204 1.6644554-.4864349 3.7833233-.0427246 4.9084473.0300293.1933594.0701904.3763428.1044922.5654297-.5215263.1677628-1.1616096.8612576-1.2694092 1.7202148-.1588993 1.2797318.820179 2.4648438 2.1748047 2.4648438.1126709 0 .22229-.0324707.3338623-.0500488 4.1621857 9.204483 15.602623 7.0992393 18.5008545-.9111328.0013428 0 .0028076.0002441.0041504.0002441 1.0319748 0 1.8919296-.7422695 2.0712891-1.7353516.2010994-1.1216869-.6293411-1.8898926-1.4642334-1.6066895.0007324-.0683594-.0065918-.1380615-.0072021-.206665.0784912-.0367432.1474609-.09021.1853027-.1719971 2.1978951-4.7709122-2.504406-10.3259678-7.7636719-11.5820322-.4861794-.1093321-.6547623.6137371-.1738281.7304688.8560677.2040949 1.701107.5456839 2.1015625.7617188 3.4580002 1.6910009 6.4378204 5.4001493 5.4277344 9.0283213-.8625984-1.4576416-2.4820862-3.1290073-4.0566406-3.8232422-.7649879-.3340979-.7641068-.3957596-.8916016-.9179697-.2429504-1.0246134-.7342415-2.2283335-1.5263672-2.9765625-.2465248-.2312546-.6349106-.047781-.6328125.2753906.0025368.3556871.0187988 4.1800261.0068359 4.2597666-.0000001.0000002-1.0730973.2068884-4.1259766.7802736zm-10.8574219-.7294922-.5664063-2.1201181c-.084795-.3158646-.5099144-.3832493-.6835938-.0966797-1.0009766 1.6630869-1.7099609 3.2568369-1.8701172 5.3945322-1.4335938-2.0996094-1.9472656-4.8984385-1.3046875-7.3974619.1052227-.4096975-.4496002-.6552877-.6787109-.2958984-.3339844.5214844-.6708984 1.0390625-1.0097656 1.5576172.0711555-7.2788548 5.4270439-10.0312977 9.5917969-6.4599609 1.0157471.8682861 1.8812256 2.0412598 2.6472168 3.552002-1.5280781.9622087-2.9109325 2.3668194-3.7479248 3.9655762-.8417969.3681639-1.8253174 1.1037606-2.3778076 1.9003914zm2.107666 5.4643555c.2088623.9536133.479126 1.8376465.7990723 2.6569824-1.4616013.0343476-2.0423985-1.8587665-.7990723-2.6569824zm20.3972168-.1733398c.1015625-.0732422.3037109-.0273438.4082031.0947266.3618736.4258938.0674973 1.5403004-.9534912 1.737793.1530762-.5772705.258667-1.1660156.3094482-1.7661133.0819092.0031737.1651612-.0144044.2358399-.0664063zm-6.9658203-4.8417969c.2566872-.2821045.2064209-.3320351.1933594-3.6533213 1.1395912 2.0268745.1944847 2.4064722 1.9941406 3.2001963 1.1993675.5243111 2.8265648 1.9613152 3.8079834 3.6931152.0952148 1.2531738-.0395508 2.4760742-.4007568 3.6350098-2.6009407 8.1878929-15.337656 10.5948219-18.2294922-1.7324219.2187691-.1395607.2709332-.6951523 1.125-1.4541016.1123047-.0996094.3388672-.2099609.5585938-.3164063 1.039257-.5043049 1.215271-.6758232 1.0224609-2.3115234-.0253048-.2104969-.0688553-.456295-.0439453-1.2285156 1.2887325 2.3780861 1.1054935 2.635128 1.5205078 2.640625h.0048828c.267828.1586304.3582458-.2987976 2.2519531-4.2382822.055088.7267923.3833618 2.3074675.9707031 2.7392588.274826.1347389.1175842.1777287 4.6601563-.7128906.0957031-.0078125.3847656-.0341797.5644531-.2607422z"/><path d="m24.197094 9.3027639c-1.5729351-1.3369951-3.9711361-1.048687-5.1787109.6298828-.290247.4026003.3213367.8407545.609375.4375.959404-1.3343658 2.8536777-1.5417919 4.0830078-.4951172.384201.3186055.8616046-.2506008.4863281-.5722656z"/><path d="m54.7713127 11.3545218c.1328125-1.1269531.8369141-2.1611328 1.8359375-2.6982422.4379272-.2341862.0794029-.8975735-.3554688-.6601563-1.2109375.6503906-2.0634766 1.9042969-2.2246094 3.2705078-.0583266.4922705.6859017.5816651.7441407.0878907z"/><path d="m53.0847893 10.7822561-.7675781-2.7910156c-.1332245-.4829435-.8526612-.2766895-.7226563.1992188l.7675781 2.7910156c.13274.4801273.8551255.2772074.7226563-.1992188z"/><path d="m48.6551018 8.9502249c-.1318359-.1601563-.3671875-.1816406-.5283203-.0517578-.1601563.1318359-.1826172.3681641-.0517578.5283203 2.9597549 3.5202694 2.8279457 3.6308594 3.1611328 3.6308594.3143806 0 .4915047-.3667097.2900391-.6132813z"/><path d="m9.6312981 29.7251282c.2099609.5800781.6400146 1.1201172 1.1099854 1.6201172 1.6800537 1.7800293 4.0200195 3.2600098 6.6300049 4.1899414-2.0414639-.4728394-2.3411131-.5392914-3.9499512-.4899902-1.2900391.1400146-2.4699707.8800049-2.4000244 1.8900146.0799561 1.1199951 1.5699463 1.9599609 2.9300537 2.539917 2.3099365.9799805 4.7399902 1.7600098 7.2299805 2.3100586-1.2732811.3310661-2.7450142-.2677498-4.210083-.0899658-.75.0999756-1.3900146.3800049-1.5.9200439-.0899658.4499512.2301025.9299316.7000732 1.2600098.9434643.642292 2.8078003.9063988 3.9499512.9013672-1.4759521 1.265625-3.1181641 2.2752686-4.8989258 2.9924316-.8366909-1.0782738-4.0989332-.3990364-4.5574951 1.2495117-.3673744 1.3128815 1.0568905 2.5648689 2.6464844 1.9609375 1.0786142-.4102364 1.9866123-1.6998672 2.0875244-2.4699707 2.0385742-.8051758 3.9112549-1.9665527 5.5638428-3.4558105.2607765-.2343712.0912457-.724968-.3380127-.6147461 2.2681885-1.6445313 3.8557129-4.1676025 5.2559814-6.4145508.1747646-.2814789.6021843-.2129822.6815186.1086426-.0184326.0991211-.0362549.2027588-.0544434.3031006-1.3508301 2.1676025-2.8701172 4.5845947-5.0296631 6.300415 1.5327988-.1240158 2.7818489-.4319496 4.2416992-.9248047-.2084637 1.7307053-.3882065 3.4120865-.701416 6.2819824-.2167969 1.9267578.4589844 2.9716797 2.3320313 3.6064453 4.75317 1.6264648 9.8898697 2.5622749 14.3115234.1337891 1.1533203-.6347656 2.6201172-1.7558594 3.0527344-3.4970703.3421364-1.3396225.029995-2.4689064-.6727295-6.7893066.8323135.3553391 1.8308907.7365494 2.5861816 1.0001221l-.55896 1.460083c-.2099609.5830078.1230469 1.2314453.7578125 1.4765625 1.1416626.4188042 1.7245102.8287048 2.3886719.5234375.6585426-.2977982.5746651-.8474503 1.2960205-2.545166 1.7489853.1920853 5.4273949.0779305 6.0895996-1.4875488.2221909-.4714775.0484085-1.042099-.8699951-1.3099365-.7919044-.2288055-1.5212059-.1403275-2.2845459-.0421143.2708702-.1785431.4401894-.4629517.5537109-.7376709 1.4121094-.4134521 2.8017578-.899292 4.1308594-1.4702148 3.7450371-1.5503731 3.2911148-3.3232765 1.4899902-4.0299072-.2900391-.1201172-.5999756-.1900635-.9299316-.2301025-.0100098-.0100098-.0200195-.0100098-.0400391-.0100098-1.2399902-.1400146-2.5600586.1700439-3.8200684.4700928 2.5200195-.9001465 4.7700195-2.3200684 6.4000244-4.0500488.460083-.4799805.8699951-1 1.0799561-1.5600586.0600586-.1899414.1000977-.3898926.1000977-.5799561.1210098-1.4909916-1.9549637-1.9406033-3.25-1.5699463-.8200684.1699219-1.5400391.5100098-2.2700195.8598633 1.0372505-.8889198 2.2360268-2.0456753 2.1199951-3.4699707-.0410995-.547308-.2983398-1.0410366-.7042236-1.3677979l.9694824-2.5606689 1.1147461 1.0185547c.4399414.3999023 1.1799316.0999756 1.2600098-.5100098l.3499756-3.0500488c.0300293-.2399902.1800537-.4599609.3900146-.5799561l2.7199745-1.5699463c.5400391-.3100586.5200195-1.0900879-.0400391-1.3200684l-2.7899208-1.1300058c-.2200928-.0899658-.3800049-.289917-.4200439-.5200195l-.5200195-2.9899902c-.1099854-.5899658-.8599854-.7700195-1.2800293-.2999268l-2.0799561 2.3498535c-.1600342.1900635-.4100342.2800293-.6500244.2600098l-3.0400391-.2700195c-.6098633-.0599365-1.0499268.6101074-.75 1.1201172l1.5 2.5899668c.1201172.2000732.130127.460083.0200195.6800537l-1.3498535 2.8099365c-.2700195.5699463.2099609 1.1600342.8099365 1.0100098l.7504883-.1870117-1.0064697 2.6569824c-1.3355713.3713379-2.5008545 1.1401367-3.3540039 2.0300293-.9300537.9700928-1.5700684 2.0699463-2.1800537 3.1600342-1.4100342 2.4699707-2.8199463 4.9299316-4.2199707 7.3999023 1.2999268.8000488 2.6400146 1.630127 4.1199951 1.9799805.0366211.0091553.0670166.0280762.0976563.0462646l-.2597656.6859131c-.2942657-.1186066-1.1013336-.0780067-4.1491699-1.9384766.3480682-.0464096.4294205-.4601288.1876221-.6550293-.3476563-.2822266-.6396484-.5419922-.890625-.7939453-.3512001-.3512001-.881237.1789093-.53125.53125.2705078.2695313.5810547.5458984.9492188.8447266.0179443.0145264.0413818.0108643.0609131.0216064-.2548828.447876-.5100098.895874-.7650146 1.3439941-.1878662-1.5018311-.385376-3.052124-1.0390625-4.4329834-.6748047-1.4580078-1.8535156-2.4902344-3.1542969-2.7607422-1.9171104-.3966446-3.636982.7837524-5.4121094.8125-1.7469349.0475082-4.8364143-1.5722923-6.3189697 2.0925293-1.2329102-2.164917-2.4731445-4.3446045-3.7050781-6.5075684-.5200195-.8999023-1.0400391-1.7999268-1.7200928-2.6499023-.1099854-.1401367-.1099854-.2399902-.25-.3601074-.887085-.7835979-1.9337978-1.9931431-4.1400146-2.4899902-1.3326263-.2837543-3.2071018-.1299095-4.0899658.9000244-.6300049.7600098-.5799561 1.8000488-.0799561 2.710083.4099121.7700195 1.0999756 1.4099121 1.8199463 2.0300293-.8093052-.3876762-1.6661711-.7917099-2.5599365-.9400635-1.9207576-.2858698-3.6965297.5040549-3.0500491 2.2799071zm3.4144287 20.5532226c-1.2800808.4811249-2.4446325-.8406258-1.0664063-1.7539063h.0009766c1.1442261-.7643089 2.5889339-.5233383 2.6816406-.2539063.1142512.3381807-.6894512 1.655964-1.6162109 2.0078126zm40.5419922-9.8583984v.0048828c.0306053.3872185-.2371597 1.179245-.421875 1.4326172-.185955.323204-.622818.2457542-1.0185547.1962891-.2558594-.0380859-.4863281-.0947266-.7021484-.1757813-1.429039-.4540176-1.3461533-2.6640625.53125-2.6640625.7712325 0 1.5614395.4332237 1.6113281 1.2060547zm-2.0195313 2.2595215c.071167.0185547.1395264.0384521.2127686.0534668-.0754395-.0041504-.1477051-.0195313-.2219238-.0283203zm5.8531494-4.6743164c.1899414-.0799561.4099121.0200195.4899902.2099609.0699463.1900635-.0200195.4101563-.2199707.4899902l-3.4345703 1.3337402c-.0635986-.2491455-.1688232-.4793701-.3271484-.682373zm-.5100097-21.4799805c.5-.7199717 1.3898926-1.1300058 2.2600098-1.0500498.4614639.0439997.4731026.7717485-.0700684.750001-.4899902-.039917-1.0200195.1501465-1.3800049.5 0 .2587967-.2444115.4300537-.4499512.4300537-.1600342 0-.3599854-.1400146-.4100342-.289917-.040039-.1101074-.0200195-.2399902.0500489-.3400879zm1.2800293 4.8000488.4897461.4473877-6.3303223 16.7196045c-.9614258-.1262207-1.8925781.2432861-2.3392334.9658203-.58741.950592-.316124 2.3945961.8443604 2.9855957-.0294304.063488-.0297546.0654488-.03479.079834-1.8619843 4.7830658-1.6754875 4.6939354-1.9160156 4.8017578-.3105621.1450958-.5610275-.1001472-1.8085938-.5400391-.2470703-.0957031-.3916016-.3300781-.3242188-.5166016l9.3843994-24.7608643c1.0799713-.1983908 1.6001511-.5914343 2.034668-.182495zm-28.6495362 11.9941407c1.1208515-.5604286 2.5374794.0726013 4.1953125.0908203 1.8322525-.0303955 3.6087379-1.1695061 5.2480469-.828125 1.0693359.2226563 2.0507813 1.0976563 2.6269531 2.34375.8372383 1.7695885.8806686 3.9511375 1.1992188 5.8007813 1.2371864 7.4568825 1.4702339 8.2746506 1.1767578 9.4257813 0 .0009766 0 .0019531-.0009766.0019531-.3671875 1.4794922-1.6640625 2.4599609-2.6865234 3.0214844-4.216732 2.3195305-9.1765747 1.3631439-13.7089844-.1855469-1.5439453-.5234375-2.0048828-1.2333984-1.8271484-2.8134766l.2265625-2.0761719c1.2070617-11.146698 1.7897072-13.9425202 3.5507812-14.78125zm-3.8564453 3.8476562c.482708.0781517.377676.8114853-.1210938.7402344-1.7460938-.2871094-3.4482422-.9541016-4.9228516-1.9296875-.4132786-.2731857.0000439-.899437.4140625-.625 1.3867189.9169922 2.9882814 1.5449219 4.6298829 1.8144531zm-9.055664-8.9023437c1.2597656 1.2158203 2.6640625 2.2802734 4.1738281 3.1611328.1787109.1044922.2392578.3339844.1347656.5136719-.0703125.1191406-.1953125.1855469-.3242188.1855469-.0644531 0-.1298828-.0166016-.1894531-.0507813-1.5615234-.9121094-3.0136719-2.0117188-4.3164063-3.2705078-.3546333-.3429699.1598836-.8842278.5214845-.5390625z"/></g></svg>