<svg id="Layer_1" height="512" viewBox="0 0 512 512" width="512" xmlns="http://www.w3.org/2000/svg"><g><path d="m337.9 59.9v16.4c49.7 0 90.1 40.4 90.1 90.1h16.4c.1-58.7-47.7-106.5-106.5-106.5z"/><path d="m479.8 178.6c.5-4.6.7-8.7.7-12.7 0-74.5-61-135.2-136-135.2-40.2 0-77.6 17.3-103.6 47.7-14.1-5.7-28.8-8.7-43.9-8.7-58 0-106.2 41.5-114.9 97.7h-12.9c-37 0-67.2 30-67.2 66.8s30.1 66.8 67.2 66.8h29.2c20.1 25.7 51.2 41 83.8 41 32.7 0 63.7-15.2 83.8-41h176.7c37 0 67.2-30 67.2-66.8.1-22.4-11.3-43.3-30.1-55.6zm-37 106.1h-185s-27.8 41-75.6 41c-48.2 0-75.6-41-75.6-41h-37.4c-28 0-50.8-22.6-50.8-50.4s22.8-50.4 50.8-50.4h27.6l.7-7.5c4.7-51.4 47.4-90.2 99.5-90.2 25 0 48.8 12.5 48.8 12.5s31.2-51.6 98.7-51.6c66 0 119.6 53.3 119.6 118.8 0 10.3-1.9 21.5-1.9 21.5s31.4 9.3 31.4 46.9c0 27.8-22.8 50.4-50.8 50.4z"/><path d="m215 440.4c0 22.6 18.4 41 41 41s41-18.4 41-41c0-19.7-41-80-41-80s-41 60.3-41 80zm41 24.5c-13.6 0-24.6-11-24.6-24.6 0-8.9 12.8-32.3 24.6-50.7 11.8 18.4 24.6 41.8 24.6 50.7 0 13.6-11 24.6-24.6 24.6z"/><path d="m59.4 440.4c0 22.6 18.4 41 41 41s41-18.4 41-41c0-19.7-41-80-41-80s-41 60.3-41 80zm40.9 24.5c-13.6 0-24.6-11-24.6-24.6 0-8.9 12.8-32.3 24.6-50.7 11.8 18.4 24.6 41.8 24.6 50.7 0 13.6-11 24.6-24.6 24.6z"/><path d="m370.7 440.4c0 22.6 18.4 41 41 41s41-18.4 41-41c0-19.7-41-80-41-80s-41 60.3-41 80zm41 24.5c-13.6 0-24.6-11-24.6-24.6 0-8.9 12.8-32.3 24.6-50.7 11.8 18.4 24.6 41.8 24.6 50.7 0 13.6-11.1 24.6-24.6 24.6z"/></g></svg>