<svg id="Layer_1" height="512" viewBox="0 0 512 512" width="512" xmlns="http://www.w3.org/2000/svg"><g><path d="m256 141.3c-63.3 0-114.7 51.5-114.7 114.7s51.4 114.7 114.7 114.7 114.7-51.5 114.7-114.7-51.4-114.7-114.7-114.7zm0 213c-54.2 0-98.3-44.1-98.3-98.3s44.1-98.3 98.3-98.3 98.3 44.1 98.3 98.3-44.1 98.3-98.3 98.3z"/><path d="m247.8 2h16.4v106.5h-16.4z"/><path d="m247.8 403.5h16.4v106.5h-16.4z"/><path d="m389.8 60.8h16.4v106.5h-16.4z" transform="matrix(.707 .707 -.707 .707 197.192 -247.979)"/><path d="m105.9 344.7h16.4v106.5h-16.4z" transform="matrix(-.707 -.707 .707 -.707 -86.691 759.986)"/><path d="m403.5 247.8h106.5v16.4h-106.5z"/><path d="m2 247.8h106.5v16.4h-106.5z"/><path d="m344.7 389.8h106.5v16.4h-106.5z" transform="matrix(-.707 -.707 .707 -.707 397.943 960.729)"/><path d="m60.8 105.9h106.5v16.4h-106.5z" transform="matrix(.707 .707 -.707 .707 114.053 -47.242)"/></g></svg>