<svg id="Layer_1" enable-background="new 0 0 75 75" viewBox="0 0 75 75" xmlns="http://www.w3.org/2000/svg"><g id="Feeding_Chicks" fill="rgb(0,0,0)"><path d="m31.0179768 17.9045582c-.4008179.0305176-.7010498.380127-.6705933.7810059s.380127.7011719.7809448.6706543.7010498-.380127.6705933-.7810059-.380127-.7011719-.7809448-.6706543z"/><path d="m34.7648048 17.3349781c-.4008179.0302734-.7010498.3798828-.6705933.7807617s.380127.7011719.7809448.6706543.7010498-.380127.6705933-.7810059-.3801269-.7009277-.7809448-.6704101z"/><path d="m24.5030842 7.5547047c-2.8446121 2.3336382-3.6041756 6.7586193-1.9199829 9.8000488.1835327.3364258.3027954.5827637.4637451.6867676-1.0959873 1.3773346.1265945 3.1823082 1.6903687 2.8994141.1029053-.0187988.1878662-.078125.2424927-.1584473 1.9309883 2.4698582 5.2012348 3.8402176 8.2892475 3.302002 3.4101944-.6078358 6.4383087-3.6941013 6.651123-7.3183594 1.2858009-.1301937 1.89254-1.591835 1.1491699-2.5898438-.2990723-.4023438-.7820435-.6264648-1.2765503-.6413574 1.0053673-1.1639004.930603-2.8181601-.3095703-3.8100586-.3300171-.2900391-1.4199829-.5-1.5599976-.7800293.8099976-.2900391 1.7399902-.3901367 2.5799561-.5600586-4.3960915-4.3366237-12.6669121-3.5883617-16.0000019-.8300781zm1.3400268 1.2202148c.399704-.2824478.8443127.3241606.4400024.6098633-1.0300293.7299805-1.6599731 1.9699707-1.6500244 3.2199707 0 .2102051-.1699829.380127-.3699951.380127h-.0100098c-.1999512 0-.3699951-.1699219-.3699951-.3701172-.0099487-1.5.7400513-2.9699707 1.960022-3.8398438zm-2.395935 10.7900391c-.1483765-.3640137-.039917-.8110352.2260742-1.1030273.3198872.8142548.5778255 1.2695236.883606 1.7404785-.4464112.060791-.9392701-.2155762-1.1096802-.6374512zm16.4790058-3.5568848c-.0252075-.581543-.1187744-1.1594238-.2800903-1.7302246 1.1041793-.1445541 1.4022293 1.4999647.2800903 1.7302246zm-1.0706787-1.779541c1.4090271 4.3617229-1.9000168 8.4371948-5.7169189 9.1176758-3.0317402.5302734-6.3330097-.9677734-8.0180683-3.640625-.737011-1.1738567-.8964634-1.967598-1.0025024-2.1069336.8861694-.621582 1.7061157-1.3254395 2.4351196-2.1237793.2175789-.2336121 2.1915798-2.665905 2.0599976-2.9001465.8520718 1.438076 2.5764427 2.2391272 4.1300068 1.9799805.8863449-.1085749 1.8011208-.60116 2.1900024-.9897461.0599976-.0900879.1099854-.3100586.1900024-.3500977.3399658-.1699219.5299683.1899414.7599487.3999023.7220955.7325955 1.8966179 1.0906449 2.9724121.6137696z"/><path d="m30.0550861 45.5512848c1.3857002 0 2.7595806-.4109459 3.9716816-.5546875 7.0078354-.8220024 9.0487099-.7161942 10.0927734-2.8769531.6137695-1.2490234.5727539-2.6621094.4365234-4.0019531-.3291092-3.3432884-.9862862-5.6032219-1.8422852-8.2470684-.6030273-1.8730469-1.3540039-4.2041016-3.2050781-5.0566406-1.2698669-.5783195-2.4341621-.2945919-5.2973633-.1083984-1.4887695.0966797-3.0283222.1962891-4.4902363.4814453-1.7080078.3349609-2.5 1.1220703-2.8261719 2.8066406-.1463909.7505913-.5903492 3.3049202-.6013184 3.7612305-.7352829-.0123672-3.4490318-.0225201-3.0037231.5627422-.0525513.0524902-.0946655.1159668-.1073608.1955566-.1138916.7165527-.1011963 1.447998.0061646 2.1674805-.5899048-.3071289-1.0584717-.8857422-1.2112427-1.5678711-.4210663-1.8792267 1.3132095-3.7256794 3.6201172-3.5244122.4728699.0603657.5734882-.7044754.0615234-.7480469-2.8491459-.2220993-4.9415207 2.0802517-4.4130859 4.4365215.2436523 1.0874023 1.1000366 1.9838867 2.1225586 2.2827148.4008789 1.4726563 1.2442017 2.8225098 2.409668 3.796875.131033.2344399-.7337665 6.1948243 4.2768555 6.1948243zm-3.0200195-13.7382794c.1567383-1.2148438.3574219-2.4521484.5961914-3.6767578.4280815-2.2116203 1.5794125-2.3561916 6.6289082-2.6826172 4.7913895-.3083096 5.8945808-1.0843353 7.7397461 4.6464844.7926636 2.4572582 1.4711761 4.6490307 1.8100586 8.0927715.1245117 1.2294922.1669922 2.5166016-.3642578 3.5986328-.8580132 1.7743111-2.6134262 1.6470146-9.5063477 2.4609375-1.8770409.2184067-4.1949825 1.0786972-5.7973652.0742188-1.4066772-.8793945-1.5984497-2.9350586-1.6121216-4.4375 2.1787815 1.3664322 4.8846035 1.4997864 7.0496235.5058594 2.4091797-1.1074219 4.1347656-3.6289063 4.2949219-6.2753906.0021362-.0361328-.006958-.0690918-.0144043-.1025391.9671555-.7006493-4.7860336-1.6398506-6.0964375-1.8164063.4286289.1849442.2366199.8077011-.2088623.7434082-.4388924-.0633583-.4563522-.7052116.0012817-.7717285-.3552895-.0466003-.6750126-.0854301-.8831787-.1088867.0284424.0544434.0484619.1135254.0484619.1791992 0 .5198593-.7860718.5203133-.7860718 0 0-.0959473.0384521-.1806641.0955811-.2490215-.9785767-.1010742-1.9033813-.1704102-2.7390137-.2089844.2019215.2828197-.0336609.6663227-.3748169.6166973-.15271-.0219727-.2687378-.1308594-.3138428-.2683105.0043335.0007324.0076294.0036621.0120239.0041504.1982423.0175781.3935548-.1181641.419922-.3242169zm6.4438496 2.0356427c-.514267-.0742149-.4024963-.8527451.1125488-.777832.5140686.074192.4024925.8527488-.1125488.777832zm-3.4207783-.3452149c-.5141335-.0748024-.4024925-.8524055.1125488-.7780762.5144539.0742455.4024945.8524094-.1125488.7780762zm-1.522522-.2919922c-.5196056 0-.5203094-.7861328 0-.7861328.5198078 0 .5203114.7861328 0 .7861328zm-4.1211548 2.203125c.3093777-.4743767 1.7369061-.5213432 1.6367188-.5078125 1.9337521.0249977 2.9135418 1.883358 1.9379883 2.6396484-.5317383.4101563-1.3564453.09375-1.5976563-.0136719-.8691406-.3857422-1.6245117-1.0976563-1.9711914-1.8583984-.0722656-.1582031-.0292969-.2246093-.0058594-.2597656zm.8238526 2.3098145c3.3477879 2.3687325 5.2585335-1.2703133 2.6893311-3.0002441 0 0 0-.0009766-.0004883-.0009766-1.3458271-.9037285-3.2482948-.5858955-3.9568481.0732422-.1274414-.6967773-.1564331-1.4086914-.0525513-2.1069336 2.5561314 1.0300598 10.3344975 1.9403992 13.1862812 1.5449219-.2020874 2.3188477-1.7218628 4.5063477-3.8380127 5.4790039-2.5681897 1.1818428-6.0761319.6014213-8.0277119-1.9890137z"/><path d="m46.3641701 52.8872223c.4462891-.6650391.3164063-1.4863281.1303711-2.2021484-.1228714-.4752541-.8515778-.295269-.7255859.1875.3723183 1.4362755.0623055 1.8727493-1.1533203 2.2373047-1.1811523.3554688-2.4047852.5712891-3.637207.6416016-3.0152588.1689339-1.575119-1.8634033-2.9008789-3.0527344-.2822266-.2529297-.6899414-.3740234-1.0717773-.3183594-.3149414.046875-.5727539.2128906-.7250977.4658203-.0390625.0644531-.0576172.1396484-.0532227.2148438.1482925 2.5974693-.4898415 3.1904869-2.0371094 3.5878906-1.1459961.2958984-2.3251972.3945313-3.501955.2880859-1.7755814-.1530952-2.1954918-.8342056-2.4458008-2.6464844-.1972656-1.4306641-.3413086-2.8867188-.4287109-4.3271484-.0665379-1.0907021.2086735-1.2071114 1.0419922-1.1738281 3.8504925.1695137 8.5979595-.1274033 13.224123-1.0175781.2985458-.0576477 1.593811-.5090408 1.8188477-.453125.2001228.1565666.4758568 1.2393494.5761719 1.5048828.1737976.4611435.8768463.2029762.7021484-.2636719-.0288086-.0761719-.0634766-.1933594-.1040039-.3300781-.5540543-1.8475876-.7877464-1.9029922-2.6113281-1.3427734-1.8152809.5591927-8.2046089 1.391758-13.5766621 1.1523438-.3852539-.015625-.9121094-.03125-1.3193359.2958984-.5058594.4052734-.5371094 1.0732422-.5009766 1.6728516.0888672 1.4599609.2348633 2.9355469.4345703 4.3847656.3493328 2.5265694 1.2352104 3.5505943 4.916872 3.2827148-.2245331.230526-.0841331-.1758766.4797363 10.3881836-.6801109.0295944-1.8044434.1950226-2.3629169.6298828-.8457394.6602783-.7980366 1.8260574.1855469 2.3701172.7160473.3955536 2.2852268.414978 3.1049824.3671875.4912109-.0292969 1.1025391-.125 1.46875-.6083984.6332512-.8342361.1298332-2.4804916-1.6429443-2.7258301-.6611862-10.6284332-.4937172-10.250843-.7201538-10.4533691 3.4431381-.4147835 4.2006187-1.6165199 4.0549927-4.4741211.0351563-.0234375.0795898-.0390625.1328125-.0478516.1611328-.0185547.3427734.0322266.4594727.1357422.8688087.7786064-.1044998 3.4572716 3.4443359 3.2421875 1.2915039-.0722656 2.5732422-.2988281 3.8105469-.6708984.5864255-.176758 1.1782224-.4121095 1.5327146-.9414064zm-11.6469727 14.7265625c.1230469.2646484.1137695.5761719-.0224609.7558594-.3647423.4804382-2.1972084.3272095-2.7944355.2539063-.508091-.0642548-1.1445236-.2098999-1.2109375-.7177734-.0317383-.2392578.1298828-.484375.3051758-.6201172.2402344-.1884766.5644531-.2714844.8491211-.328125 1.1650409-.232422 2.416994-.3320314 2.873537.6562499z"/><path d="m40.8758888 65.9106598c-.8011818.6991119-.7055702 1.8601913.3164063 2.3564453.7429848.3572083 2.3092041.2874527 3.1196289.1953125.4887695-.0566406 1.0927734-.1845703 1.4331055-.6884766.5929451-.8756409-.0265427-2.4977798-1.78125-2.6411133l-1.168457-10.3012695c-.0229492-.2050781-.2045898-.3408203-.4150391-.3310547-.2055664.0234375-.3535156.2099609-.3300781.4150391l1.1604004 10.2297363c-.4708862.0488281-.9031372.1535645-1.1975098.229248-.34375.0878907-.7841797.2275391-1.1372071.5361329zm4.2290039.6865234c.137207.2587891.1450195.5703125.019043.7568359-.1689453.25-.5683594.3251953-.8974609.3632813-.6532402.0757065-2.1445885.1457825-2.7075195-.1259766-.6740532-.3267212-.6345749-1.1553574.6796875-1.4902344 1.083805-.2770766 2.3840713-.4867171 2.9062499.4960938z"/><path d="m66.3544006 53.7788239c.8681183-.9372559.9720535-2.1937523-.015625-2.984375-1.4642029-1.1732559-4.1335335-.3338242-4.4370079 3.7167969-2.9983101-.4014244-5.8472099-3.8163261-9.1860352-2.5273438-1.8432541.709198-3.1675491 2.9965401-2.491394 5.6860352-.2518578.1233292-.1445885.1741791-1.2418213 2.4614258-.1369019.2966309.1067505.6276855.430603.5852051 1.8022919-.2832108 1.8842239-.1498375 2.0790405-.3981934 1.3561707 1.8813934 3.2288055 3.3520508 5.5297241 3.3520508.1411133 0 .2841187-.0273438.4262695-.0375977.3392792 1.3602982.8956718 3.591095.8597412 3.4470215l-.7967529.6325684c-.3914642.3112869.0802994.8927383.4667969.5878906l1.1894531-.9443359c.2578163-.2050095.1444321-.6202927-.1834717-.6643066l-.7849731-3.1467285c.6577148-.1286621 1.31073-.3535156 1.9245605-.6860352.5364227.8568802 1.9999466 3.237587 2.1089478 3.3630371l-.619751.9621582c-.1118164.1738281-.0615234.40625.1123047.5185547.1779556.113121.4078827.0593491.5185547-.1123047l.8730469-1.3554688c.1118164-.1738281.0615234-.40625-.1123047-.5185547-.0785522-.0498047-.1674805-.0627441-.2523804-.0515137l-1.9997559-3.215332c1.5875206-1.0953598 2.699543-2.606163 3.3356285-4.2663574.1441422.0150948 1.5095215.026371 2.190918-.0810547 3.7054979-.5786667 3.245247-4.4155579.0756837-4.3232422zm1.7641602 2.2695312c-.2247009.767292-1.1346741 1.1841507-1.9560547 1.3134766-.5388947.0840149-1.1105423.0764923-1.840332.0791016-.0610352.0009766-.1738281.0019531-.1777344.0136719-.1829758-.2073708-.5380936-.1713524-.6479454.1582031-1.1453857 3.3593826-4.5249519 6.1110764-7.8173828 5.1152344-2.1907616-.6659546-4.7882309-3.5795784-4.8916016-6.3056641-.0625-1.6513672.8618164-3.2246094 2.1977539-3.7392578 2.9869308-1.1452484 6.0024147 2.4502831 9.2524414 2.6123047.2436066-.007164.3879013-.169281.3935547-.3652344.0942764-3.5063667 2.102787-4.4580803 3.2387657-3.5507813.2426758.1943359.3911133.4482422.4179688.7128906.0821609.8216209-.723671 1.4429436-1.3413086 1.9091797-.1386719.1044922-.1875.2900391-.1186523.4492188.2239151.5145149.8858948-.0594101 2.0317383.1035156.46875.0673828.9169922.3359375 1.1420898.6845703.1611328.25.2001953.5224609.1166992.8095703z"/><path d="m61.2850685 57.327652c-1.7840347.3437805-3.5661354-1.4624596-5.6191406-1.0703125-.8144531.1542969-1.4887695.6689453-1.7597656 1.34375-.559185 1.3941765.8974762 2.7029152 1.25 1.9658203.0898438-.1865234.0112305-.4101563-.175293-.5-.375-.1806641-.5551758-.7460938-.378418-1.1865234.1762695-.4394531.637207-.7792969 1.2026367-.8867188 1.7791634-.3277397 3.5783119 1.4686317 5.6225586 1.0703125.4925347-.09449.3359948-.8395462-.1425781-.7363281z"/><path d="m58.9017677 59.6840973-2.2451172-1.4443359c-.4196091-.2688293-.8216171.3625069-.40625.6308594 2.3481178 1.4847488 2.2488441 1.5039063 2.4477539 1.5039063.3750496-.0000001.5159874-.4886133.2036133-.6904298z"/><path d="m52.0276833 55.511734c-.2668457.3369141-.210022.826416.1268311 1.0932617.336853.2666016.8262329.2099609 1.0930176-.1269531s.210022-.8261719-.1268311-1.0930176-.826233-.2099609-1.0930176.126709z"/><path d="m10.9530363 62.5258942c1.1023874 1.4221268 2.3605967 2.2654343 3.9416504 2.7790527-.9589043 3.6900864-.9029293 3.3500137-.9002075 3.5002441-.3542929.4358521.4028378.8556442.9805298.8857422h.019043c.4830065 0 .5024147-.7248077.0180664-.75-.0969238-.0043945-.190979-.0297852-.2803955-.0678711l.8862915-3.3681641c.8816118.17659 1.334672.1332245 1.7658682.0930176l.1635132 2.9995117c-.1892548.1886215-.1270466.4545746.0535889.5739746.487093.3205109 1.0820484.4777527 1.6103516.4570313.4690838-.0132751.5061684-.7262421-.0205078-.75-.2995605.0229492-.6070557-.0463867-.8863525-.1743164l-.1759033-3.2268066c2.2153282-.5110931 3.520216-2.2697449 4.2575684-4.4296875.2044659.0925903.1666088.0136948 1.8329468-.2414551.2894287-.0490723.4111328-.3979492.2150269-.6166992-1.6382389-1.7865524-1.4418392-1.6771965-1.6443481-1.7583008-.116003-2.5177841-1.8790989-4.1725082-3.6838989-4.2978516-3.1776934-.2081718-4.8534698 3.4807777-7.2050772 4.5908203-.2084961-.5244141-.5849609-1.3134766-1.1416016-1.9140625-.6674805-.7207031-1.6005859-1.0712891-2.4243164-.9238281-1.5380964.2826309-2.3602099 2.3228073-.5678711 3.4257813-2.5803661.8136292-1.9665031 3.799427.519043 3.8027344.6479126 0 2.3434721-.465168 2.6669918-.5888672zm-3.9492187-1.8134766c.2903066-.4963036.9033394-.6861877 1.4619141-.8076172.1080523-.0264816.3199501-.0917969.4223633-.0917969.4652452.1687546.7211218-.5366325.2543945-.7050781-.6500015-.2344818-1.4918036-.5511627-1.6333008-1.2568359-.1109438-.5487518.4010615-1.1246948.9604492-1.2265625 1.4038019-.2638016 2.3993864 1.3607979 2.8598633 2.7158203.0645962.1918335.2757072.3050499.4829102.2324219 2.7969027-1.0166626 4.3479033-4.8712387 7.2416983-4.6914063 1.2680664.0878906 2.4643555 1.1826172 2.8442383 2.6025391.6295795 2.3570366-.8286762 5.5291481-2.5180664 6.671875-2.1416035 1.4450226-5.7176561.7627411-7.9555655-2.2490234-.0058594-.015625-.0131836-.0302734-.0209961-.0449219 0 0 0 0-.0004883 0-.1257811-.2215233-.466608-.305233-.6269531-.0761719-.4688339.1720695-1.9480143.5791016-2.4897461.5791016-.5009766-.0009766-.9458008-.1787109-1.1894531-.4755859-.2646486-.3222657-.3037111-.8173829-.0932618-1.1767579z"/><path d="m13.1996183 61.7465973c1.3052301-.1430054 2.25805-1.1762657 3.1381826-1.796875 2.2225266-1.5587082 3.3453522.2290878 2.6352539.8847656-.1518555.140625-.1611328.3779297-.0205078.5302734.5225525.5641403 1.5021019-.9694214.6113281-2.0693359-.6450138-.7959442-2.005991-1.1176987-3.6572256.0410156-.8968086.6304855-1.738308 1.5503197-2.7880859 1.6640625-.4808406.052414-.428421.782486.0810547.7460938z"/><path d="m17.3119221 60.5717926-1.5463858 1.8349609c-.3213444.3799858.2563047.8619156.5732412.4824219l1.5463867-1.8349609c.1337891-.1582031.1132813-.3945313-.0449219-.5283203-.158203-.131836-.3955077-.1152344-.5283202.0458984z"/><path d="m20.775362 57.999527c.21875-.3183594.1379395-.7536621-.1804199-.9724121-.3184204-.21875-.7538452-.1379395-.9726563.1804199-.21875.3183594-.1379395.7539063.1804199.9726563.3184205.2187499.7538453.1379394.9726563-.1806641z"/><path d="m61.4242287 34.5923004c-1.1869049-1.9162941-5.7978935-2.6789379-6.4868164-1.8674316-4.3013916-.5632324-8.4171753-2.461668-11.6113281-5.3776836-.3677483-.3338928-.8716393.2204628-.5058594.5546875 3.2868042 3 7.5155029 4.9567852 11.9376221 5.5527325.3852577 2.810112 4.9857903 5.2351875 6.5765381 3.4521484.5898437-.6611329.4916991-1.6650391.0898437-2.3144532zm-.6494141 1.8144531c-.82164.9242249-4.1976967-.0036507-5.2001953-2.7685547-.1220703-.3369141-.0737305-.4326172-.0732422-.4335938.1179962-.1568489 2.1653557-.0974922 3.8950195.7041016.6918945.3212891 1.1333008.6640625 1.3901367 1.078125.2490235.4023438.3295899 1.0371094-.0117187 1.4199219z"/><path d="m56.2694435 39.7719879-.1967773 1.7119141c-.0573044.4934959.6885643.5785789.7451172.0859375l.1967773-1.7119141c.054924-.4828949-.6871643-.5954513-.7451172-.0859375z"/><path d="m61.7298927 45.4809723.3227539-2.4394531c.0659294-.4944725-.6786232-.5840302-.7431641-.0976563l-.3227539 2.4375c-.0656242.4945145.678505.5889702.7431641.0996094z"/><path d="m55.1742287 46.4184723-.3256836.7314453c-.2026062.4570389.4852448.755764.6855469.3046875l.324707-.7314453c.203701-.4544983-.4858742-.7552223-.6845703-.3046875z"/><path d="m59.2933693 48.0415192-.2436523 1.2177734c-.0972672.4874992.6380081.6338081.7353516.1484375l.2436523-1.2197266c.0405273-.203125-.0913086-.4003906-.2944336-.4414063-.1982422-.040039-.3999024.091797-.440918.294922z"/><path d="m63.8568459 35.3891754.7338829 1.7080078c.1960526.4548454.8850937.159996.6894531-.296875l-.7338867-1.7080078c-.1953812-.4535751-.8853989-.1607246-.6894493.296875z"/><path d="m50.0365334 64.3139801c-.5341797-.1630859-1.0019531-.5332031-1.2832031-1.015625-.1040039-.1787109-.3330078-.2382813-.5126953-.1357422-.1791992.1044922-.2397461.3339844-.1357422.5126953.5259552.9028091 1.5289001 1.3720703 1.8227539 1.3720703.430931 0 .5183219-.6103668.1088867-.7333984z"/><path d="m48.8548927 68.3794098c-.0385742.2041016.0952148.4003906.2988281.4384766 2.5122566.4733505 2.653698.5146484 2.7543945.5146484.4525452 0 .5137558-.6598358.0693359-.7431641l-2.684082-.5078125c-.2001952-.0449218-.3999023.0947266-.4384765.2978516z"/><path d="m25.928133 64.7671051-1.3500977-1.1494141c-.3772068-.322319-.8645535.2494659-.4863281.5703125l1.3500977 1.1494141c.3752403.3231277.8651733-.2489395.4863281-.5703125z"/><path d="m23.3280354 67.8774567c-.4680405-.1701965-.7256641.5285721-.2636719.703125l1.3842773.5195313c.469223.1706314.7244644-.5290909.2626953-.703125z"/><path d="m27.7294025 62.9868317c-.4099007-.2756004-.8307343.3464394-.4169922.6230469.7616444.4850159.7921638.5830078.9868164.5830078.3694859 0 .517067-.4814606.2080078-.6875z"/><path d="m34.0228615 20.8950367c-.3427734.2304688-.8017578.2988281-1.1972656.1787109-.1967773-.0644531-.4072266.0527344-.4677734.2490234-.0600586.1982422.0517578.4082031.25.4677734.6279297.190649 1.31007.0771141 1.8330078-.2724609.4106521-.2753238-.0040665-.8989829-.4179688-.6230468z"/></g></svg>