<svg id="Layer_1" height="512" viewBox="0 0 512 512" width="512" xmlns="http://www.w3.org/2000/svg"><g><path d="m442.1 267.6h-.7c-4.1-43-40.5-76.8-84.6-76.8-9.1 0-18.1 1.5-26.8 4.4-20.6-19.4-47.2-30-75.6-30-18 0-35 4.4-50.1 12.2-2.6-41.6-37.1-74.6-79.3-74.6-43.9 0-79.6 35.7-79.6 79.6s35.7 79.6 79.6 79.6c6.9 0 13.6-1 20.2-2.7-.5 3-.9 5.9-1.1 9-33.7 3.9-60 32.7-60 67.5 0 37.5 30.5 67.9 67.9 67.9h1.9c17.2 20.9 42.3 32.8 69.4 32.8 13.2 0 26.3-2.9 38.2-8.5 19.2 16.1 43.2 24.9 68.3 24.9 36.2 0 70.1-18.7 89.7-49.2h22.7c37.5 0 67.9-30.5 67.9-67.9-.1-37.7-30.6-68.2-68-68.2zm-317.2-22.2c-34.8 0-63.2-28.3-63.2-63.2 0-34.8 28.3-63.2 63.2-63.2 34.8 0 63.2 28.3 63.2 63.2 0 1.6-.1 3.3-.3 5.2-17.8 13.4-31.2 31.9-38.3 52.9-7.8 3.4-16.1 5.1-24.6 5.1zm317.2 141.7h-32s-21.3 49.2-80.3 49.2c-42.6 0-65.8-28.4-65.8-28.4s-15.3 12-40.7 12c-42.7 0-61.3-32.8-61.3-32.8h-10c-28.4 0-51.5-23.1-51.5-51.5s23.1-51.6 51.5-51.6h8.2v-8.2c0-52 42.3-94.2 94.2-94.2 47.8 0 71.5 32.7 71.5 32.7s12.6-7.1 30.9-7.1c37.8 0 68.6 30.8 68.6 68.6v8.2h16.7c28.4 0 51.5 23.1 51.5 51.6 0 28.4-23.1 51.5-51.5 51.5z"/><path d="m346.1 223.2v16.4c27.1 0 49.2 22.1 49.2 49.2h16.4c0-36.2-29.4-65.6-65.6-65.6z"/><path d="m116.7 59.4h16.4v31.7h-16.4z"/><path d="m76.3 80.7h19.8v16.4h-19.8z" transform="matrix(.383 .924 -.924 .383 135.321 -24.798)"/><path d="m21.6 135.4h19.8v16.4h-19.8z" transform="matrix(.924 .383 -.383 .924 57.335 -1.127)"/><path d="m155.4 78.9h16.4v19.8h-16.4z" transform="matrix(.924 .383 -.383 .924 46.476 -55.856)"/><path d="m78 265.7h16.4v19.8h-16.4z" transform="matrix(.924 .383 -.383 .924 112.101 -12.006)"/><path d="m37.5 209.6-18.3 7.6 6.3 15.1 18.3-7.6z"/><path d="m208.4 135.4h19.8v16.4h-19.8z" transform="matrix(-.924 .383 -.383 -.924 474.933 192.681)"/><path d="m192.4 90.7h16.4v31.7h-16.4z" transform="matrix(.707 .707 -.707 .707 134.114 -110.632)"/><path d="m41 242.1h16.4v31.7h-16.4z" transform="matrix(-.707 -.707 .707 -.707 -98.397 475.141)"/><path d="m33.7 174.1h-19.8-11.9v16.4h11.9 19.8z"/><path d="m54.6 123.6 11.6-11.6-14-14-8.4-8.4-11.6 11.5 8.4 8.5z"/></g></svg>