<svg id="Layer_1" height="512" viewBox="0 0 512 512" width="512" xmlns="http://www.w3.org/2000/svg"><path d="m489.1 81.9-274.1-40.2v21l-57.4 31.9v-59.8c.1-18.1-14.6-32.8-32.7-32.8s-32.8 14.7-32.8 32.8v458.8h-90.1v16.4h245.8v-16.4h-90.1v-305.6l57.4 31.9v21l274.2-40.2c12-1.9 20.8-12.1 20.8-24.3v-70.3c-.1-12.1-8.8-22.4-21-24.2zm-77.4 5.2v108.4l-90.1 13.2v-134.8zm-303.2 406.5v-458.8c0-9 7.3-16.4 16.4-16.4 9 0 16.4 7.3 16.4 16.4v458.8zm49.2-324.4v-55.9l57.3-31.8v119.6zm73.7-108.6 73.7 10.8v139.7l-73.7 10.8zm262.2 115.8c0 4.1-2.9 7.5-6.9 8.1l-58.7 8.6v-103.6l58.6 8.6c4 .6 6.9 4 6.9 8.1v70.2z"/></svg>