<svg id="Layer_1" enable-background="new 0 0 75 75" viewBox="0 0 75 75" xmlns="http://www.w3.org/2000/svg"><g id="_Feeling_Sad" fill="rgb(0,0,0)"><path d="m20.8477783 52.058403c.1083145-.4821777-.6221485-.6506119-.7314453-.1640625-1.1136856 4.9721489-2.5274086 6.0225716-1.7939453 7.5478516.2817383.6186523.8681641.9833984 1.4609375 1.2851563 3.0754967 1.5566368 6.9247684 1.9505997 10.4902344.8964844.1186714 0 .5433636-.1578102.8773804-.2764282-.0339069.146698-.0362473-.2654839.4710693 5.3423462-.5608444.0297241-1.5293808.0779572-2.0188599.3500977-.7552795.4215012-.7924156 1.3025742-.1538086 1.8232422.7162495.5837097 2.765419.7962646 3.7050781.784668.2841797-.003418 1.1489258-.0141602 1.5727539-.6318359.2626953-.3823242.2680664-.9086914.0146484-1.3740234-.4315643-.7906876-1.4693298-.9923706-2.3737183-.989624-.0002441-.0067749.0027466-.0128174.0021362-.0196533-.5533581-5.3990402-.3718758-5.3060722-.6420898-5.5009766 1.6958961-.6872292 4.1458168-2.0823364 4.793457-3.7924805.3295898-.8925781.2285156-1.840332.0961914-2.7363281-.8208008-5.3193359-3.1142578-10.378418-6.6328125-14.6298828l-.1474609-.1767578c-.2402344-.2802734-.6518555-.3227539-.9682617-.090332-.9106445.7124023-2.0039063 1.2827148-3.1601563 1.6494141-1.7082443.5315208-3.6277161.5425186-4.0141602.4379883-.0009766 0-.0019531-.0004883-.0029297-.0004883-.510622-.2188377-1.0578804.1139297-.8984375.8388672.0195313.137207.0239258.2792969.0288086.4189453.0003948.2188873.3220444 3.565052-.4780273 7.7104492-.0936832.4871521.6417675.6284065.7363281.1416016.4241257-2.1955757.5930233-4.4608574.5458984-6.4760742-.0125046-.5370369-.0553131-1.6528358-.0908203-1.8999023.6735497.1537437 2.6251392.0949516 4.3979492-.4560547 1.2426758-.394043 2.4174805-1.0073242 3.331543-1.7895508.1003113.1596832 5.2793694 5.8050423 6.6108398 14.4335938.1181641.7978516.2104492 1.6376953-.0566406 2.3618164-.654995 1.7263145-3.7786217 3.2626038-5.5649414 3.7973633-.0356445 0-.0712891.0048828-.1054688.0151367-3.3774414.987793-7.03125.6845703-10.0258789-.8300781-1.502573-.766346-1.4711571-1.4409904-.8149414-3.0512695.0363562-.1033102.8860209-2.0273481 1.539551-4.9492193zm13.2358399 15.9423828c.0878906.1616211.1474609.4130859.0253906.590332v.0004883c-.4328346.6299973-2.8814278.1578979-3.6166992-.0566406-.8733292-.2554474-.8722095-.6450195-.5244141-.8398438.4208794-.2329178 1.8978729-.293457 2.4418945-.293457.3212891 0 1.4045601.1074906 1.6738282.5991211z"/><path d="m30.8780518 40.2473679c-.1708984.1171875-.2138672.3505859-.0966797.5214844.1157303.1685486.3483067.215168.5214844.0966797 2.5878906-1.7788696 4.5742188-4.4859619 5.5339966-7.4804077.0359497-.0165405.0806274-.0145264.1085815-.0405884 1.0233421-.9497223 2.4004097-2.9871578 1.6235352-4.140625-.6710625-1.000349-2.3828773-.7825508-2.9555664.8637695-.1972656.5673828-.2143555 1.2124023-.0473633 1.8154297.0023804.0095215.2844849.6949463.5964966 1.1536255-.8936158 2.8865966-2.796692 5.5006713-5.2844849 7.2106323zm6.1816406-10.8212891c.3232422-.1362305.722168-.0488281.887207.1962891.4454269.6613903-.6297226 2.2240734-1.1687622 2.8156128-.0130005-.005249-.0229492-.0148926-.0368042-.0187378-.0274048-.0077515-.0541992-.0046997-.0814209-.0061646-.1603394-.2865601-.338501-.6419678-.3712158-.7296753-.2924233-1.0590439.1838837-2.0076217.7709961-2.2573242z"/><path d="m9.1148682 41.2747116c.3129444 0 .2994051-.0450592.3994141-.0892334 2.9149237 2.1504326 6.6079159 3.2314224 10.3085938 2.8909912.2060547-.019043.3579102-.2021484.3388672-.4082031-.0195313-.2060547-.2080078-.359375-.4082031-.3388672-3.4990234.3286133-7.0663452-.7046509-9.8765869-2.810791-.1002197-.7215576-1.015686-1.6634521-1.0267334-1.6740723-.9907908-.9270897-2.6988649-1.3978577-3.1796875-.269043-.6214434 1.4554253 2.4142664 2.6992188 3.4443358 2.6992188zm-1.9404297-2.5463867c.8331928.232563 1.3868628.7837143 1.8220825 1.5510254-.0080566.0083008-.0187378.0125122-.0261841.0217285-.0477295.0594482-.0675049.1295166-.0740356.2003174-.7762432-.1303215-2.1773915-.7702751-2.4835815-1.291626-.2057467-.3535385.0408286-.6831093.7617187-.4814453z"/><path d="m25.9693604 28.8972702c-.0107422.206543.1484375.3828125.3554688.3935547.0063477.0004883.0126953.0004883.0195313.0004883.1982422 0 .3637695-.1557617.3740234-.355957.0467815-.9166813 1.1967793-1.3217506 1.8076172-.6362305.3305206.3691978.8906345-.1279678.5605469-.4990234-1.0500032-1.1815282-3.0356294-.4921189-3.1171876 1.0971679z"/><path d="m19.6085205 30.8171921c-.6455078.3198242-.9785156 1.1337891-.7426758 1.8144531.1640491.4684982.8713627.2223511.7089844-.2460938-.112793-.324707.0585938-.7436523.3671875-.8964844.3061523-.1538086.7451172-.0366211.9360352.25.2741776.41185.8996525-.0019855.6240234-.4160156-.3989258-.599121-1.2485352-.8251953-1.8935547-.5058593z"/><path d="m51.041626 7.9136882c-5.1657944-6.7753959-14.1944733.9554458-11.6600342 8.1000366.0484009.1449108-.0801888-.1316738 1.0200195 1.8399658 1.0399094 1.3648605 2.5936279 2.3976421 4.4994507 2.616394-.9456749 1.7877979-1.2076797 1.8832397-1.0449829 2.1976929.1461487.2824745.4562263.1836796.8881226.2611084-1.2174492 1.3422813.3698997 3.1426048.7090454 4.0142822.4423828 1.1352539.0532227 2.5576172-.90625 3.3085938-.3916969.3081818.0760574.8926048.4628906.5908203 1.2285156-.9628906 1.7094727-2.7172852 1.1425781-4.171875-.3680573-.9438038-1.2109413-1.8049068-1.0961914-2.7119141.0424805-.3374023.3007813-.7216797.6445313-.7548828.1096802-.010376.2011108-.0688477.262085-.1508179.0270233.0027351 1.0530396.1083374 1.0802002.1083374.2751999 0 .4918976-.3355789.2919922-.6298828-.4188004-1.0585155-.7399483-1.9349251-.8289795-2.0871582 5.1210174-.7509302 8.1185035-7.753303 4.5355224-12.5307006zm-6.2441406 14.2667851.6772461-1.2006836.453125.0048828.5317383 1.3652344zm1.934143-6.5067749c1.863163-1.7803993 1.9381142-4.7995548.0999756-6.6799927-.3419724-.3664188.1970901-.8730068.539978-.5299683 2.0987587 2.1610317 2.0690308 5.6452446-.1199951 7.75-.36269.3623734-.8720245-.2114619-.5199585-.540039z"/><path d="m63.2906494 16.7004929c.8356934-4.3189974-2.6533279-6.9254427-5.902832-5.6928711-1.7490234.6645508-3.1889648 2.1376953-3.7578125 3.84375-.9344139 2.8043156-.1192322 6.9594936.8171997 9.7625732-2.1405983 1.0062122-2.1049042.75774-1.3846436 1.3885498-2.8344345 1.0197926-2.0654182 2.7192631-2.7177124 4.342041-.3765259.9393444-1.203537 1.6484642-1.81604 2.5953369-.0046997-.0022583-.0103149-.0026855-.0150146-.0050049-1.2148438-.5922852-2.2265625-.6103516-3.0908203-.0546875-.0004883 0-.0004883 0-.0004883.0004883-1.2668953.8154182-1.1552238 2.3343506-.1264648 3.0297852.7286301.4908295 1.8342934.4828644 2.668335-.3206787.0457153.1546631.1021729.3049927.1817627.4447021.1884766.3295898.1938477.8374023.0141602 1.2626953-.2910881.6875496-1.9397469 1.2136688-2.7041016 3.7294922-.1439285.4750824.5735435.6918793.7177734.2177734.300293-.9882813.8999023-1.8994141 1.6889648-2.5664063.3951912-.3242722.7910843-.6227989.987793-1.0883789.1807861-.4274292.2211304-.888916.1487427-1.3108521.0707397.0656738.130249.1486206.2072144.204895.7818642.5714493 1.9903793.5352592 2.5585938-.2441406.5639648-.7739258.2333984-1.8408203-.3964844-2.3862305-.6056747-.5242271-1.3132973-.5716705-2.0806274-.701416 1.0836372-1.5124454 1.7263794-1.6952648 2.1035767-3.9631348.0664063-.3950195.1289063-.7680664.2495117-1.1230469.3615341-1.0654812 1.8984222-1.4111347 2.071106-1.4938965 1.3138885 1.151207.9626427.8261299 1.161438 1.000061.0381241.0333805.0766258.0473194.1187744.003418.0444603-.0461578.3377609-1.2592754.4771118-1.8129883.0361938-.0265503.0727539-.0521851.1080933-.0805054.6369133.2353783.9199295.3709335 2.4628906.6251221 2.6066742.4302788 5.5715141.8747787 8.027832-.1279297 1.5175781-.6196289 2.6850586-1.7832031 3.1230469-3.112793.5517578-1.6733398.0473633-3.7241211-1.2558594-5.1030273-1.1356433-1.2025869-3.0909884-1.5777986-4.6450198-1.262695zm-16.2133789 18.6274414c-1.3582344.7108078-2.6052475-.9401131-1.2485352-1.8173828.6304932-.4054565 1.3742065-.3742065 2.3374023.0908203-.2228087.5090332-.2830047 1.3059234-1.0888671 1.7265625zm3.8007813-.9072266c.3730469.3222656.5795898.9672852.2807617 1.3774414-.3176575.4363976-1.0647545.4034424-1.5092773.0800781-.4237671-.3093262-.7246094-.8491211-.9234619-1.6351318.0450439-.1428833.0985718-.2769165.1565552-.4020386.2052002.0450439.4105835.0773315.6126099.1069946.5405272.0791016 1.0073241.147461 1.3828124.4726563zm17.6015625-11.5888672c-.3706055 1.1230469-1.3779297 2.1152344-2.6943359 2.652832-1.7485352.7138672-3.6811523.6064453-5.5078125.3847656-4.3426323-.5274696-4.7908134-1.0508556-4.9936523-1.112793-.0834198-.3670483-.89925-2.2856617-1.2290039-5.4033203-.1894531-1.7856445-.1010742-3.1010742.2871094-4.2646484.4990234-1.4980469 1.7685547-2.7929688 3.3120117-3.3798828 2.9647827-1.1242304 5.9217834 1.5186377 4.7636719 5.409668-.0863838.2896957.1894264.5587654.4785156.4624023 1.1111221-.3730145 2.0860519-.2769432 3.1689453.0600586 1.8578109.5801278 3.0836104 3.1606808 2.4145507 5.190918z"/><path d="m42.4517822 32.3103561-5.5888672 6.1962891c-.1386719.1538086-.1264648.390625.0273438.5292969.1520386.1385002.3903923.1271973.5292969-.0273438l5.5888672-6.1962891c.3332786-.3696594-.2280541-.8714675-.5566407-.5019531z"/><path d="m42.1988525 37.5457077-3.0371094 3.6445313c-.1328125.1591797-.1113281.3955078.0478516.5283203.1584702.1320572.395031.1117439.5283203-.0478516l3.0371094-3.6445313c.1328125-.1591797.1113281-.3955078-.0478516-.5283203-.1596679-.1333007-.3955078-.1118164-.5283203.0478516z"/><path d="m27.0211182 34.4534225c-1.6257725-.6360359-3.439188.3777809-3.7495117 2.0996094-.0878391.4883881.6503716.6209106.7382813.1328125.2255859-1.2527885 1.5504742-1.9971123 2.7387695-1.5341797.4652614.180027.7325362-.5188713.2724609-.6982422z"/><path d="m14.463501 39.5110397c.5958252 0 1.1848145-.2561035 1.5847778-.708252 1.1392403.7988777 2.0766525 1.5369453 3.3751831 2.0134277 6.409832 2.3213692 12.4738617-2.3197212 13.2788086-7.7270508.456665-3.0418701-.2191772-6.2867432-1.741272-8.8533936.1263428-.0596924.2116089-.1827393.2168579-.3233643.0820313-2.309082-1.0625-4.7353516-3.1411133-6.65625-1.8872433-1.7458973-4.1580143-2.7845306-5.0019531-3.2954102-.5411758-.3262138-1.5481644-.9352312-1.7368164-.331543-.3862114 1.2878513-.6479397 2.4205532-2.0810547 3.4013672.1953125-.9663086.019043-2.0078125-.5161133-2.8457031-.178112-.2809505-.6212635-.2049456-.6845703.1323242-.2338867 1.2485352-1.0239258 2.3735352-2.1005859 3.059082.2861328-1.0976563.0688477-2.315918-.6293945-3.2192383-.0751953-.097168-.1933594-.1567383-.3173828-.1450195-.3359451.01859-.3259172.3149614-1.0244141 1.378418-.3593464.6141052-2.5491562 2.4586926-4.378418 5.0512695-.2866716.4060192.3270912.837059.6123047.4326172 1.1616964-1.6455536 2.5262213-3.0399036 3.8417969-4.3984375.6164732-.6313286.5003223-.6569738.9726563-1.3701172.4223633.8881836.3876953 2.0102539-.1308594 2.8549805-.1823835.2975731.1075792.6697388.449707.5483398 1.4135742-.5214844 2.5668945-1.659668 3.1376953-3.0356445.1826172.7226563.1074219 1.5097656-.234375 2.175293-.1602745.3108006.1576939.6522846.4785156.5170898.8745117-.3657227 1.6499023-.9726563 2.2421875-1.7553711.5248394-.6997871.7257462-1.3847961.972168-2.2094727.1699619.0711384 2.444685 1.3470221 2.7495117 1.527832 1.1831055.7006836 2.0952148 1.3613281 2.8706055 2.078125 1.6435547 1.519043 2.6547852 3.3637695 2.8632813 5.1757813-.6416016-.6230469-1.3417969-1.2319336-2.0009766-1.0429688-.6953773.1802826-1.3801365 1.0824776-1.9506836 1.3374023-1.4375.6289063-3.0419922.6733398-4.402832.1210938-.2499428-.0999775-.5245228.0860634-.5161133.359375.0630722 1.902092-1.7688828 3.343708-3.7319336 2.6235352-.2535973-.1056652-.7733173-.5951805-1.1123047-.3364258-.0825195.0625-.1352539.1572266-.1455078.2602539-.0888672.8798828-.206543 1.6674805-.7441406 2.3989258-.5180664.6850586-1.2441406 1.1884766-2.0493164 1.4208984-.0126343.0013428-.0193481.0137939-.0314941.0164185-.1643991.0422287-.2504673.1666355-.2720337.2976685-.0036621.0215454-.0216675.0363159-.0216675.05896 0 .1217041.0651245.2247925.1577759.293335.005249.0040894.0076294.0109863.0131226.0147705.1801662.5330544.1593933 2.8068962.1660156 2.9106445.0136395.3273582.0122833.7948952-.2246094 1.0058594-.2785473.2536011-1.0605936.1916389-1.4233398.8432617-1.960865-.3925896-3.8425303-1.8044052-4.5620117-4.1132813-.9221616-2.9609013.158567-6.9867458 1.9008789-9.503418.2826586-.4076366-.3323784-.8347187-.6162109-.4277344-1.8373028 2.6461147-3.0212647 6.8781379-2.0009767 10.1542972.8687458 2.7881699 3.2486515 4.3753891 5.4897461 4.6860352.223073.031868.4262695-.1428108.4262695-.371582 0-.2416267.5741405-.3367996.9072266-.4769287.0011597.0038452.0026245.0078735.0038452.0117798-2.0824337.9412955-1.3772536 3.9861449.8135376 3.9861449zm-.4921875-.8457031c-.9997311-.4166336-1.1595659-1.8726768-.0632324-2.4285889.3151245.7514038.7981567 1.519104 1.5289917 2.1130371-.3717041.3760987-.9743042.5186768-1.4657593.3155518zm5.7089844 1.4462891c-1.0317383-.378418-1.8540039-.9658203-2.7246094-1.5878906-1.0099545-.719471-1.7875156-1.1046371-2.4200439-2.7347412.0127878-.1043472.0032234-.2002373-.1126709-.3109741-.0585327-.1762695-.1083374-.3468628-.1497192-.5106812.1387329-.2399902.1983643-.5150146.2179565-.7958984l2.0528564-.6693726c.6601563 1.0164185 1.7935181 1.6818237 3.0595703 1.6818237 2.2849236 0 4.1046619-2.1009293 3.5548096-4.4868774.0249634-.0609741.039978-.1264038.0291748-.196228-.124176-.8056278.6410427-1.5114479 1.4776611-1.2347412 1.7290592 3.4814377 7.0084515 2.2380829 6.9223022-1.6970825 2.5719567 9.0678138-5.0772933 15.0147742-11.9072875 12.5426635zm2.8232421-8.8876953c.1635742 1.5976563-1.0029297 3.0307617-2.6000977 3.1948242-2.5693951.2702141-4.1871347-2.7335911-2.5561523-4.7358398 1.647316-2.0239392 4.8943253-1.0075551 5.15625 1.5410156zm5.7368164-.6831055c-1.59375.1665039-3.0302734-1.0024414-3.1948242-2.5996094-.2638149-2.5767174 2.7356224-4.1838894 4.7358398-2.5561523.6035156.4912109.9794922 1.1875 1.0585938 1.9614258v.0004883c.1646366 1.5999126-.9981785 3.0301685-2.5996094 3.1938476zm-11.8520507-1.3886719c.5283203-.7192383.7207031-1.4667969.8261719-2.2333984.6904449.4285507 2.014019.610157 3.1572266.0375977 1.0209961-.5151367 1.7299805-1.5546875 1.8735352-2.6894531 1.4316406.4375 3.0419922.3334961 4.4970703-.3037109.6269093-.2791424 1.4058361-1.1860237 1.84375-1.2998047.1258888-.0353756.2793903.0669518.3793945.1166992.6549683.697937 1.2081299 1.5151978 1.6693726 2.3994751-2.5414276-2.7662411-7.0976429-.3811092-6.2454834 3.2884521-.7424927-.0293293-1.3887939.300478-1.7503052 1.0283813-2.4352398-3.6384315-7.9825087-.6917992-6.4393311 3.3292847l-1.7042847.5557251c-.0062866-1.3959351-.0571289-2.2155762-.1708984-2.6802368.8050536-.3131714 1.5289916-.841919 2.0637817-1.5490113z"/><path d="m9.682251 24.72686c-1.0053711 1.3764648-1.121582 3.3007813-.2895508 4.7885742.2394943.4293785.8957386.0653534.6542969-.3662109-.6806641-1.2172852-.581543-2.8540039.2407227-3.9799805.2932977-.4024066-.3158303-.8429717-.6054688-.4423828z"/><path d="m22.210083 66.7595749c-1.5187683.5870056-1.3765602 1.9474792.0014648 2.5366211.963356.4132996 2.0523758.5087509 3.0556641.2856445 2.3257465-.5158463 1.8777466-2.9033813-.5626221-3.1831055l-.1888428-3.9682617c-.0238266-.5051308-.7721424-.4539833-.7490234.0361328l.1862793 3.9147949c-.5648804.0349121-1.1661987.1557617-1.7424316.3776855-.0004883.0004884-.0004883.0004884-.0004883.0004884zm2.6606445.4101562c.4873047.1044922 1.1865234.5302734 1.1723633.9604492-.0131874.4206924-.5287304.6286621-.9379883.7192383-1.8989029.4210205-4.393507-.7032471-2.6245117-1.390625.6459961-.2495117 1.6132813-.4580078 2.3901367-.2890625z"/></g></svg>