<svg id="Layer_1" height="512" viewBox="0 0 512 512" width="512" xmlns="http://www.w3.org/2000/svg"><g><path d="m442.3 276.8h-.7c-4.1-42.9-40.3-76.5-84.3-76.5-9.1 0-18.1 1.5-26.7 4.3-20.5-19.3-54.1-34.9-90.1-28.7.1-1.7 5.2-79.6-72-114.1l-25.5-10.9s32.4 35.2 32.4 77.1c0 53-43.1 96.2-96.2 96.2-38.6.1-77.2-32.3-77.2-32.3l10.9 25.6c17.7 41.4 56.9 68.9 101.3 71.9-17.2 12.3-28.5 32.4-28.5 55.1 0 37.3 30.4 67.7 67.7 67.7h1.9c17.2 20.8 42.1 32.6 69.1 32.6 13.2 0 26.2-2.9 38.1-8.5 19.1 16 43 24.8 68 24.8 36.1 0 69.8-18.6 89.3-49h22.6c37.3 0 67.7-30.4 67.7-67.7-.1-37.2-30.4-67.6-67.8-67.6zm-400.8-42.7c12 4.3 24.7 6.5 37.6 6.5 62 0 112.5-50.5 112.5-112.5 0-12.9-2.2-25.6-6.5-37.6 45.5 39.5 39.1 86 38.8 89-41.7 12.3-72.1 47.9-77.8 91-7.8 1.9-63.8 8.3-104.6-36.4zm400.8 161.7h-31.8s-21.7 49-80 49c-42.7 0-65.5-28.3-65.5-28.3s-16.4 12-40.6 12c-43.7 0-61.1-32.6-61.1-32.6h-10c-28.3 0-51.3-23-51.3-51.3s23-51.3 51.3-51.3h8.2v-8.3c0-51.7 42.1-93.8 93.8-93.8 44.7 0 71.2 32.6 71.2 32.6s14.8-7.1 30.8-7.1c37.7 0 68.3 30.7 68.3 68.3v8.2h16.7c28.3 0 51.3 23 51.3 51.3s-22.9 51.3-51.3 51.3z"/><path d="m346.8 232.6v16.3c27 0 49 22 49 49h16.3c0-36-29.3-65.3-65.3-65.3z"/></g></svg>