<svg id="Layer_1" enable-background="new 0 0 75 75" viewBox="0 0 75 75" xmlns="http://www.w3.org/2000/svg"><g id="Filling_Water" fill="rgb(0,0,0)"><path d="m12.4809837 62.8657341.399292 5.2502403c0 .5419922.6748047.7841797 1.1806641.9189453 3.4847851.9528275 17.0374508.9204025 18.8525391-.4726563.2519531-.1938477.3037109-.40625.3007813-.5053711l.4794922-4.2128868c.0234375-.2060547-.125-.3916016-.3310547-.4150391-.2021484-.0170898-.390625.125-.4150391.3300781l-.4619141 4.1816368c-.7607422.9956055-14.0966797 1.5009766-18.2294922.3701172-.484375-.1289063-.6083984-.2358398-.6279297-.2333984l-.3862305-5.0803185c4.3562775.4971352 9.8898106-2.8028717 12.940918-5.9724121 1.6494484 1.2060814 3.9169922-.0683403 3.9169922-2.2563477 0-1.5009766-1.1279297-2.7216797-2.5136719-2.7216797-2.1096497 0-3.2943783 2.6561203-1.9295654 4.4443359-3.0107155 3.1330795-8.381258 6.2845421-12.473877 5.7276611-.7985001-9.712326-.5362234-8.3530998-1.0134277-11.902832 6.7285633 1.6182594 17.902317 1.1973534 22.3283691-.2926025l-1.40271 12.3793945c-.0539703.4939423.6884384.5765572.7460938.0839844l1.447876-12.7790527c.256958-.1289063.4975586-.2878418.6755371-.5048828.240078-.2931709.1764297-.5377617.2225342-2.2800293.067749-.1306152.1081543-.2658691.1081543-.4082031 0-1.7911377-5.7045898-2.6560059-10.694458-2.8621826.1479397-.3837509.2185745-.890873.1259766-1.5264893.5111084.3747826.0231915.1092072 10.7130127-1.0136719v.0004883c.9350243-.1122665 1.1020813-1.0893021.9658203-2.0229492-.1614418-1.1893005-.2514687-4.4791908-1.3421631-5.4753418 3.1281738-.6575928 6.5700684.1199951 9.0247803 2.1169434.3780937.3088646.863903-.2642937.4726563-.5820313-2.8387451-2.3104248-6.9173584-3.1013184-10.4615479-2.067749-.4697266-.4654541-1.2253418-.5522461-1.7630615-.37854 0 0 0 0-.0009766 0-.5253906.1708984-1.0009766.5668945-1.375 1.1459961-.0484619.074585-.0723877.1450195-.1126709.2180176l-6.7125244 1.5168457c-.4306641.09375-.6982422.5395508-.6103516 1.0083008l.4251709 2.5306396c-1.1226673.4908409-3.5777798 1.9098778-3.7272949 3.1264648-.0559082.4561768.1225586.9056396.157959 1.3634033-.0004883 0-.0007324-.0004883-.0013428-.0004883-2.4420643.0544472-12.1397171.537262-11.8918457 2.9836426.0641136 2.2595634-.1925192 2.4993019.9250488 3.1088867-.8179932 1.3149414-1.7402344 2.8037109-2.2744141 4.4689941-1.4033041 4.2836535.5255928 7.8147356 4.3428955 8.6921389zm15.1053467-10.0690918c.9726563 0 1.7636719.8842773 1.7636719 1.9716797 0 1.0869141-.7910156 1.9711914-1.7636719 1.9711914s-1.7636719-.8842773-1.7636719-1.9711914c0-1.0874024.7910157-1.9716797 1.7636719-1.9716797zm-3.3482666-4.1276855c-.0004883-.0014648-.0015869-.0026855-.0020752-.0041504-.1068115-.3376465.192749-.6447754.3538818-.9552002.2514648-.4842529.166748-1.0650635.1240234-1.637207 4.0603027.1072998 7.6643066.571167 9.6612549 1.2437744-1.6573486.6208496-5.0682372 1.2548828-10.1370849 1.3527832zm-4.487793-.0588379c-4.0701904-.1925049-6.8713379-.7414551-8.3352051-1.2834473 1.8118896-.6223145 4.9763184-1.065918 8.6489258-1.2192383-.1579227.764679.1650296 1.1136704-.3137207 2.5026856zm13.8165284-15.1933594c.3203125-.1020508.8076172-.0498047 1.0400391.215332.2090683.2373199.2461586 1.8816032-.4980469 2.4487305-.9336166.7119484-2.5036774-.3030396-1.5195313-1.8242188.1953125-.3017578.5234375-.6923828.9775391-.8398437zm-8.2695313 2.8994141 6.2506104-1.4125977c-.370348 2.6683998 4.1491013 3.3600578 3.9213867-.8103027.901474.467186 1.1168442 4.5460625 1.1942139 5.1013184.0712891.4892578.0332031.8862305-.1005859 1.0615234-.1111259.1428757.4778175.0353546-10.3818359 1.2822266-.1432362-.0301552-.0836773-.3712692-.9179688-5.0776367-.0146485-.0795899.0175781-.1362306.0341796-.1445313zm-.1224365 8.0300293c.0478516.0249023.1000977.0421143.1575928.0441895 6.5761719.2456055 10.2128906 1.4116211 10.2128906 2.1240234 0 .1054688-.0936279.2246094-.2618408.3500977-1.9196777-.8469238-5.9064941-1.4230957-10.5631104-1.5426025.0538788-.4102327.1710396-.6102983.4544678-.9757081zm-3.9077149.0200195c-.1516666.3875542-.3898258.699028-.6860352.972168-4.4384766.1518555-8.2563477.7286377-10.0766602 1.5424805-.1831055-.1315918-.2862549-.2563477-.2862549-.3664551.0000002-.6790772 3.6944582-1.9702149 11.0489503-2.1481934zm-10.1777343 5.6408691c.0981445.0349121.1965332.0644531.2960205.0949707.5815554 4.3977928.1224813.8953896 1.0355225 11.9750977-1.625-.4423828-2.9772949-1.5552979-3.5806885-2.9914551-1.6255784-3.8907051 2.0229578-8.4691658 2.2491455-9.0786133z"/><path d="m27.5866966 56.075573c.6580811 0 1.1916504-.5853271 1.1916504-1.3074951s-.5335693-1.3076172-1.1916504-1.3076172c-.6582031 0-1.1917725.5854492-1.1917725 1.3076172s.5335694 1.3074951 1.1917725 1.3074951z"/><path d="m57.6009789 36.5827751c.6934776 2.4961548 1.4539032 5.2367783 2.09375 7.5043945.1376228.4816856.8550415.2708511.7226563-.2041016-.7102318-2.5152473-1.3944893-4.984375-2.09375-7.5-1.1430779-4.1808205-3.253746-2.3643417-5.6894531-2.6079102-1.5870285-.1544266-3.0837746-.7610359-2.9833984-.7241211-1.0605011-.3900337-1.6936798-.9770622-2.4082031-.6948242-.5925217.2189484-.6876183.8947144-.7734375 1.2407227-1.4795189 5.3072586-2.6171913 7.7125969-4.1230469 14.9052734-.4541016 2.159668-.9238281 4.3925781-.8339844 6.6264648.1617775 4.0443954 2.1486511 4.6274757 6.0273438 4.3686523 1.8707848-.1260109 6.3834801-.0576286 12.8652344-1.3085938 1.1152344-.2148438 2.3261719-.5761719 2.8476563-1.6293945.4267578-.8862305.1533203-1.90625-.0478516-2.6547852-.6426888-2.2945061-1.5353737-5.5016289-2.3701172-8.5009766-.0546875-.1992188-.2636719-.3139648-.4619141-.2607422-.1992188.0556641-.3164063.262207-.2607422.4619141.7461815 2.680027 1.5993881 5.7463264 2.3691406 8.4980469.5364609 1.9980125.3058968 2.8633881-2.21875 3.3496094-6.3833122 1.231636-10.6926994 1.1572113-12.7724609 1.2963867-3.5505028.2362213-5.0856438-.1047668-5.2275391-3.6503906-.2286491-5.6301651 4.3518791-19.223793 4.9296875-21.3007813.1752357-.6972198.14011-1.0217438 1.1982422-.4829102.3291016.1572266.6582031.3139648 1.0009766.4404297l.0009766-.0009766c.8516464.3459816 2.0279236.6562958 3.1679688.7670898 2.7357366.2826656 4.0735547-1.4771381 5.0410154 2.0615238z"/><path d="m56.0687523 38.2819939c.0175781-.206543-.1357422-.3876953-.3417969-.4052734-.2402344-.0205078-.3886719.1362305-.40625.3417969-.4354248 5.1242676-2.9019775 9.9763184-6.7642822 13.3723145-.3339844-.166748-.7807617-.2337646-1.2327881-.276123-2.1180534-.2104607-3.6660576 1.1795425-3.8330078 2.7290039-.1476135 1.3667679.8798027 2.7490234 2.3134766 2.7490234 1.0556641 0 1.9912109-.7480469 2.4648438-1.5366211.395195-.6574974.935318-2.4423332.7733154-3.0943604 4.0119628-3.5231935 6.5734863-8.5599366 7.0264892-13.8797608zm-8.4423828 16.5878906c-.4228516.7041016-1.2939453 1.3193359-2.1337891 1.1391602-.7724609-.1674805-1.3486328-1.0307617-1.2558594-1.8852539.0878906-.8188477.7294922-1.5820313 1.5957031-1.8994141.9517822-.3484802 2.3114281-.0927467 2.4676514.0732422.0039063.0048828.0047607.0112305.0089111.0161133.0028076.0032959.0070801.0042725.0100098.0074463.1050988.2074966-.2924308 1.8839416-.6926269 2.548706z"/><path d="m47.2201195 60.1716423-.352417 5.4350548c-.7680931.0696259-1.7010002.1940918-2.1954346.6655273-.2529297.2426758-.3818359.5751953-.3457031.8891602.1845741 1.608429 5.0569801 1.9081116 5.4443359.0830078.2594833-1.2266541-.8907585-1.6538925-2.1500244-1.668335l.34729-5.355587c.0324364-.4911537-.7170982-.5511665-.7480468-.0488281zm1.6972656 6.4536095c.0908203.0791016.1767578.1953125.1191406.4633789-.0644531.3066406-.5244141.4580078-.71875.5087891-1.8057022.4716415-4.3824921-.3908844-2.7119141-1.0102539.5712891-.2104493 2.7021485-.4882813 3.3115235.0380859z"/><path d="m56.8197289 66.7868729c-.6318359.3447266-1.0703125 1.1879883-.7167969 1.8925781.4040642.808754 1.6536827.9194336 2.5761719.9194336.916832 0 1.9719162-.1209106 2.3535156-.9560547.3787994-.8360825-.1542854-1.9623337-1.5074463-2.1523438l-.2738037-7.6684532c-.0078125-.2026367-.1738281-.3618164-.375-.3618164-.0039063 0-.0087891 0-.0136719 0-.2070313.0078125-.3681641.1816406-.3613281.3881836l.2717285 7.6101036c-.0328369.0010986-.0689697.0019531-.098877.0031738-.636898.0187073-1.2920684.0183259-1.8544921.3251954zm3.390625.8237304c.1767578.206543.2353516.5102539.1396484.7216797-.1494141.3266602-.6230469.4418945-.9931641.480957-.6153259.0664673-2.306797.082695-2.5830078-.4697266-.1474609-.2944336.1005859-.7319336.4052734-.8984375.2691307-.1467667.5313721-.2045898 1.5224609-.2338867.5488282-.0219726 1.1621095-.0068359 1.5087892.3994141z"/><path d="m47.2077904 21.040905c-.5688477.0616455-.9801025.5726318-.918457 1.1414795.0615234.5688477.5725098.9799805 1.1413574.918457s.9802246-.5726318.9185791-1.1414795-.5726319-.9801025-1.1414795-.918457z"/><path d="m55.2997093 24.1040154c.5688477-.0615234.9801025-.5727539.9185791-1.1414795-.0616455-.5688477-.5727539-.9801025-1.1416016-.9185791-.5688477.0616455-.9799805.5727539-.918457 1.1416016s.5726319.9799804 1.1414795.918457z"/><path d="m47.8519554 27.1267204c.0185928.1008167.0303879.806488.4492188 1.5644531.9984131 1.8160191 3.2301331 2.1135159 4.4541016.9135742.8398438-.8237305.9335938-2.0913086.9306641-2.9731445-.0021935-.3671246-.4727287-.5114002-.6816406-.2143555-.7528229 1.0733013-2.2164307 1.4752846-3.4248047.9150391-.9266853-.431694-.6570168-1.3144932-1.2128906-1.3886719-.1015625-.0146484-.2490234.0273438-.3300781.0913086-.2681543.2155896-.218548.749321-.1845705 1.0917969zm5.0234375.4868164c-.4344406 2.8980255-3.6244354 2.3502407-4.1884766.012207.5421906.5149193 2.7602997 1.065569 4.1884766-.012207z"/><path d="m64.0744934 13.150157c.7600098-1.6600342.1400146-3.8400879-1.3900185-4.8500977-1.5300293-1.0098872-3.7600098-.7199702-5 .6401367-.3299561-1.9300532-2.0999756-3.4999995-4.0499268-3.6201167-1.9500732-.1298828-3.8901367 1.2200928-4.4700928 3.0900874-.7399902-1.4699702-2.539917-2.2800288-4.1600342-2.0200191l-1.1499023.4099121c-1.7199707.9700928-2.4400635 3.4201655-1.4899902 5.1601558-1.3400879.8598633-1.7900391 2.8398438-.9699707 4.2099619.4991455.826416 1.4222412 1.3085938 2.3706055 1.4084473-.0009766.0039063-.0021973.0075684-.0031738.0114746-1.5555687-.1003704-2.5801735 1.4255733-2.0311279 2.7836914.2718506.6779785.9138184 1.168457 1.6385498 1.2614746.0442429 1.2827244.0956192 1.1690121.1397705 2.489502.0394974 1.1368179.0806046 1.7782898.4238281 2.8828125.1481056.4760532.8635826.249157.7167969-.2226563-.3214569-1.0372543-.3542595-1.5986938-.390625-2.6855469-.0734024-2.0827599-.4348679-4.0101681.2797852-6.5131836 1.2404556-.2085915.9766541-1.214941 1.555542-1.605958.4399414-.2900391 1.1699219-.2800293 1.6699219-.5.6201172-.2800293 1.1700439-.7000732 1.6201172-1.2301025 1.2962456 1.4848862 3.5506706 1.7091198 5.1298828.4500732.2399902.7800293.8300781 1.4499521 1.5900879 1.7800303.75.3099365 1.6499023.289917 2.3898926-.0700684-.3798828.1799316 1.2900391 1.4899902 1.4700928 1.5500488.6400146.2199707 1.1600342.0599365 1.5599365.6799316.2473145.378418.444458.7983398.5957031 1.2418213.5615234 2.4681396.0087891 5.2421875-1.4898682 7.4356689-3.5804749 5.2094917-12.2162666 6.8485298-15.2841797 1.1166992-.240448-.4388733-.8942871-.0796795-.6621094.3544922 3.490406 6.5125084 13.4998016 4.4851227 17.0427246-1.8320313.3396225.4739132 2.0056343.1831856 2.3459511-1.0756836.2208252-.8247948-.2573013-1.7922382-1.132206-2.0922852.7889061-.3807182 1.5655861-.6760826 2.0339394-1.8186035.3000488-.710083.3300781-1.5400391.0900879-2.2700195.0800781.2399902 1.1999512-.8000488 1.2700195-.9100342.8907242-1.4651375 1.4517746-3.3050756.4599609-4.710084-.5899658-.859863-1.7700195-1.3099362-2.7199707-.9299313zm-14.5000038-2.3500977c1.1835747-1.3239012 3.2558441-1.6598845 4.8499756-.5898438.1700439.119873.210083.3498535.0999756.5299072-.1199951.1700439-.3499756.210083-.5200195.0999756-1.2201538-.8270683-2.8672371-.6369009-3.8798828.4599609-.3316384.3790141-.8886567-.1368884-.5500489-.4999999zm-5.9865723 7.5256357c-.1576195.8379574-.2249565 1.4180698-.2280273 2.5397949-1.4856148-.3286151-1.3004685-2.4758529.2280273-2.5397949zm19.2845459 7.9436036c-.4161377.2370605-.6960373.1024895-.8487549.1030273.2890625-.6003418.5217285-1.2225342.6931152-1.8603516.7191125.2667523.9601594 1.2992401.1556397 1.7573243z"/><path d="m26.8128929 65.5022049c-3.0576172 1.0151367-6.3271484 1.1796875-9.4560547.4760742-.4839077-.10923-.6486702.6225891-.1640625.7314453 3.2512302.7320709 6.6634045.564621 9.8564453-.4956055.4734116-.1577987.2280236-.8717498-.2363281-.711914z"/><path d="m17.9271507 39.8962517c-1.5908203-.5751953-3.0488281-1.5244141-4.2177734-2.7451172-.3415852-.3578529-.8859358.1595535-.5410156.5185547 1.2480469 1.3037109 2.8056641 2.3173828 4.5029297 2.9316406.4719047.1662369.718666-.537632.2558593-.7050781z"/><path d="m9.9691429 40.8938103c-.5061264.0710983-.366704.8333282.1054688.7421875 1.1161289-.1579323 2.1008472-.2958984 3.1982422-.2958984 2.125124.0124588 2.9235897.6484375 3.1787109.6484375.3973618 0 .520237-.5418167.1621094-.7133789-2.0703001-.9887353-4.3670292-.7037545-6.6445313-.3813477z"/></g></svg>