<svg id="Layer_1" height="512" viewBox="0 0 512 512" width="512" xmlns="http://www.w3.org/2000/svg"><g><path d="m430.1 247.4h-2.4c-4.2-51.5-47.5-92.2-100-92.2-11.1 0-22.1 1.8-32.6 5.5-24.5-23.4-56.4-36.2-90.3-36.2-69.7 0-126.8 54.6-130.9 123.3-40.3 4-71.9 38.2-71.9 79.5 0 44 35.8 79.9 79.9 79.9h3.1c20.4 25 50.2 39.3 82.5 39.3 16 0 31.8-3.6 46.1-10.5 22.9 19.5 51.6 30.2 81.7 30.2 43.2 0 83.6-22.5 106.7-59h28.1c44 0 79.9-35.8 79.9-79.9 0-44-35.8-79.9-79.9-79.9zm0 143.4h-37.4s-31.3 59-97.4 59c-48 0-79.2-33.7-79.2-33.7s-19.3 14-48.6 14c-49.2 0-74.4-39.3-74.4-39.3h-11.2c-35 0-63.5-28.5-63.5-63.5s28.5-63.5 63.5-63.5h8.2v-8.2c0-63.3 51.5-114.7 114.7-114.7 57.4 0 86.2 39 86.2 39s17.2-8.3 36.7-8.3c46.3 0 84 37.7 84 84v8.2h18.4c35 0 63.5 28.5 63.5 63.5s-28.5 63.5-63.5 63.5z"/><path d="m198.6 45.8h16.4v49.2h-16.4z"/><path d="m54.8 115h49.2v16.4h-49.2z" transform="matrix(.707 .707 -.707 .707 110.342 -20.053)"/><path d="m326.1 98.6h16.4v49.2h-16.4z" transform="matrix(.707 .707 -.707 .707 185.016 -200.31)"/><path d="m124.6 83.5h32.8v16.4h-32.8z" transform="matrix(.383 .924 -.924 .383 171.713 -73.673)"/><path d="m31.5 176.6h32.8v16.4h-32.8z" transform="matrix(.924 .383 -.383 .924 74.364 -4.253)"/><path d="m286.5 79.7-15.1-6.3-12.6 30.3 15.2 6.3z"/><path d="m116.7 250.6h16.4c0-40.7 33.1-73.7 73.7-73.7v-16.4c-49.7 0-90.1 40.4-90.1 90.1z"/></g></svg>