<svg id="Layer_1" enable-background="new 0 0 75 75" viewBox="0 0 75 75" xmlns="http://www.w3.org/2000/svg"><g id="Firework_Rocket" fill="rgb(0,0,0)"><path d="m62.5949326 49.344532c-.0098572-.8503036.0438271-.485527-6.0102539-12.9511719-.4857826-.9967957-.9803391-2.720005-2.4125977-2.9082031-.5703926-.0735016-1.1011658.1055298-1.6396484.2792969-5.6551628 1.8003006-7.7042847-.5176353-8.5102539 2.2226563-.3513641 1.1492424-.5691528 1.8309669-.8270874 2.760376-3.0909424-.69104-6.0933838.0526123-8.2973022 2.0852051l-2.2096558-6.6494141c.4993286-.3972168.4279175-.6483154.3897095-.7738037-.0465698-.1509895.4709969.4937897-8.6142578-9.6904907-.1010742-.1123047-.2602539-.1542969-.4042969-.1035156-.453022.1587124-.1405659-.0001011-.887207 12.5864868-.0349922.0990295-.024416.1812401.0087891.277832v.0004883c.1029091.3418045.6234627.3911133.980957.3911133.00177 0 .0039673-.0002441.0057373-.0002441l1.0452271 3.1472168c-.1848755.2388153-.0496807.5228081.1951904.5876465l4.0593262 12.2231445 4.552124-1.5137939c.0043335.116333.0557251.229248.1599731.2987061 1.0856628.7229347 1.6133118 2.1052818 1.184082 3.4267578-1.3871155-1.0365791-2.9099464-.056694-2.6538086 1.1293945.2251587 1.0357285 1.7953072 1.5126877 2.8369141.1367188 1.5650406 2.1091995 1.3176384 4.9260597 1.0668945 7.465332-.0490456.4939308.6973953.5686684.7460938.0742188.2854958-2.8849792.5129433-5.9009438-1.409668-8.2392578.6891708-1.5896606.22435-3.4572716-1.2379761-4.5222168l3.2353516-1.0758057-1.8156128-5.463501c1.9225235.1957245 3.8697815.1224785 5.9545898-.3157959-.5234756 3.8761597-.1044312 4.4788017-.3687744 7.0897217-.0019531.0161133-.0024414.0327148-.0019531.0493164.0356445 1.1152344.1342773 2.3881836.8637695 3.3818359 1.2947884 1.7665024 3.6016998 1.8022995 5.7509766 1.4995117 4.2285156-.5957031 8.2617188-1.9560547 11.9873047-4.043457.567871-.3178713 2.2949218-1.2856447 2.2773437-2.8623049zm-28.9399415 6.9467774c-.6659164-.4277992.2738647-1.5131798 1.3774414-.5556641-.3307647.4996262-.8788909.8767128-1.3774414.5556641zm-4.637207-13.6064454c.0976563-.6503906.7612305-1.0830078 1.3613281-1.1738281 1.7233772-.2461967 4.5584373 1.8530731 4.902832 2.5283203-.1899414.3974609-1.6455078.9125977-2.2817383.9980469-1.0092773.1225586-2.0268555-.0966797-2.8701172-.6201172-.5761718-.3452148-1.2128905-1.0073242-1.1123046-1.7324219zm-4.5068359-17.7871704 7.7666016 8.6900024c-.5442715.5036163-1.5334263.6168747-5.7733765 2.1451416-1.1633301.2926025-2.1593628.4698486-2.5776978.4036865zm5.9863281 23.4915161c-.4661827 0-.501503-.703804-.039978-.75 1.3200073-.1400146 2.5999756-.6999512 3.5999756-1.5700684.3641396-.3395462.867485.2297134.4900513.5600586-1.1100464.9799805-2.5300293 1.5999756-4.0100098 1.7600098zm5.4832153-4.6096191c-.0469131-.1503983.0085831-.1363678-.2516479-.446167l-.6049194-1.8203125c.0856323-.0040283.1715698-.0310059.2390747-.0943604 2.0172729-1.8828125 4.7831421-2.574585 7.6381836-1.9460449-.3267822 1.3040771-.5894165 2.6296387-.7944946 3.9619141-2.3502579.5306816-4.1446496.5236435-6.2261964.3449707zm12.2453003 11.7280274c-1.8490562.2600403-3.9347153.3097916-5.0415039-1.2001953-.5976563-.8144531-.6855469-1.940918-.7182617-2.9375.2921371-2.9305878-.1857224-3.1839104.4068604-7.3443604 4.7727242-1.2138901 8.5431442-4.016716 11.052124-7.6219482.2846031-.4075813-.3323593-.8343201-.6152344-.4287109-2.3949547 3.4412498-5.9861984 6.0842552-10.3131714 7.262207.5160866-3.1976738 1.0490799-4.7848969 1.744812-7.0385742.1464844-.4970703.2133789-.7241211.6606445-.8588867.9949265-.2987595 3.2106476.4595108 7.3579102-.8603516 1.3352509-.3361778 1.8501625-.7340012 2.9072266 1.7021484.0839844.1933594.1635742.3769531.2426758.5395508 6.1314812 12.6249428 5.9281044 12.0318604 5.9350586 12.6318359.0083008.7612305-.6108398 1.480957-1.8935547 2.199707-3.6445313 2.0419922-7.5898438 3.3725586-11.725586 3.9550782z"/><path d="m34.5255966 19.5768929c1.1408806 1.297842 3.1866684 1.5113049 4.3605957.8283691-.0080566.2960815-.0098267.5906982-.0057373.8843384-1.5298538.1748486-2.1454811 1.9021168-1.2635498 3.0084839.3499947.4388218.9262505.732029 1.5950928.6896973 1.2064209 7.0787659 6.9110489 10.5897598 12.8179932 8.1482544 2.8513794-1.1732178 5.112854-3.6429443 6.180603-6.5613403.0820923.0115356.1630859.0300903.2466431.0300903.3618164 0 .7314453-.1074829 1.0581055-.312561.4570313-.2871094.7773438-.7329102.878418-1.2236328.1283302-.6230621-.0856171-1.3533554-.6921387-1.8677979 1.5640907-1.1489353 1.9059677-2.969883 1.2702637-4.5140381.4790039-.3969727.9970703-1.2050781 1.0151367-1.2514648 1.7441292-4.4783783-1.0289917-6.8690634-3.340332-6.2641602.1474609-1.8828125-.9750977-3.8393555-2.734375-4.5874023-1.7641602-.7416992-3.9663086-.1723633-5.2158203 1.2602539-.9682617-1.8051758-3.0454102-2.9345703-5.0922852-2.6875-2.015625.2319336-3.753418 1.7700195-4.3081055 3.7089844-1.2104492-1.0927734-3.0595703-1.4760742-4.675293-.8994141-.467186.1674366-.2141037.8737669.2529297.7060547 1.5405273-.5507813 3.4082031-.0288086 4.3442383 1.2128906.2001076.2671642.6307068.1568451.671875-.1811523.2285156-1.9135742 1.8979492-3.5834961 3.8022461-3.8027344 1.8994141-.2255859 3.9086914 1.0043945 4.5732422 2.8081055.0498047.1342773.171875.2290039.3144531.2431641.1474609.0151367.2807617-.0541992.3564453-.1757813.9394531-1.5180664 3.0410156-2.1928711 4.6845703-1.5019531 1.6503906.7016602 2.6298828 2.6801758 2.1831055 4.4106445-.0841446.3279428.2767944.5907421.5615234.4121094.753418-.4697266 1.8896484-.2910156 2.5883789.4082031.6630859.6547852.9667969 1.6865234.8125 2.7602539-.09375.6542969-.2773438 1.3813477-.4672852 1.8730469-.081543.1489258-.5761719.7866211-.8115234.9858398-.2989426-.0126305-.488102.2995453-.3491211.5546875.6114159 1.1159878.5382004 2.6239738-.543457 3.6625977-.0661621.0588989-.343689.2610474-.6334229.4708252-.1231346-.0317917-.0681343-.0333748-.1948242-.0405273-.0726089-1.3091526-.4664993-2.7329178-1.1383667-3.8630371-1.2230759-2.0571518-1.8354492-1.471138-2.7911987-1.6258545-.2412109-.0717773-1.2797852-.6508789-1.5683594-.9321289.0446548-.3280411-.3280602-.5502977-.5913086-.355957-.0024414.0014648-.0043945.0029297-.0068359.0048828-1.3277321.9830322-3.2140923.5398312-3.9599609-.9125977-.1186523-.2311687-.4392815-.2791824-.6162109-.074707-1.2852554 1.4763489-3.4951286 1.661417-4.9926758.4633789-.1761093-.1418915-.4474907-.0956898-.5625.1113281-.3227539.5825195-.7880859 1.0957031-1.3413086 1.4804688-.1787109.1206055-.4199219.2158203-.675293.3164063-.934494.3691978-1.2815742.5767384-1.4790039 1.5200195-.0954895.4550915-.0737.2620811-.1318359.4370117-.4414558.8829117-2.6841202 1.0346355-3.8242188-.2612305-.9941406-1.1176758-.9008789-3.0708008.1962891-4.097168.1435547-.1342773.1586914-.3564453.0356445-.5092773-1.2060547-1.4941406-.9594727-3.9755859.5180664-5.206543.1591797-.1328125.1806641-.3691406.0478516-.5283203-.1333008-.159668-.3696289-.1811523-.5283203-.0478516-1.6884766 1.4072266-2.0380859 4.1748047-.8188477 5.9858398-1.1767579 1.3481444-1.2075196 3.5566405-.0126954 4.8999023zm4.3761597 2.4614868c.0357666.7820435.1055298 1.532959.1958618 2.2025757-1.3861694.0009975-1.5564575-1.9620553-.1958618-2.2025757zm20.2146606 3.6190796c-.2099609.1317139-.4395142.175293-.6629639.1733398.1878052-.6504517.3145142-1.3187866.3778076-1.9963379.0684814-.0501099.1455688-.1063232.2352905-.1712646.7400323.452465.8728944 1.4761638.0498658 1.9942627zm-18.3183593-7.5751954c.28125-.1113281.5722656-.2260742.8232422-.3950195.5351563-.3720703.9975586-.8432617 1.3549805-1.3774414 1.6788826 1.0892754 3.8630753.893383 5.3339844-.4467773 1.0194702 1.4035873 2.8933258 1.8157959 4.4142456.9898682.5102081.5226078 1.7799606 1.1392612 1.9714966 1.1663818 1.0798683.1785774 1.1648598-.3148289 1.9890747.8127441.9669762 1.3233624 1.4332466 3.1728039 1.3375854 4.845459h.0004883c-.0004883.0073242-.0009766.0146484-.0009766.0214844 0 .0637817.0202026.1209717.0482788.173584.0033569.0064697.0021973.0150146.0059204.0212402-.3969727 3.7305298-2.9111328 7.1411743-6.3320313 8.5488892-5.6687698 2.3456001-10.5619812-1.3266506-11.6992188-7.0679321-.293457-1.4570313-.5405273-3.7802734-.3583984-5.9487305.2723084-.8448582-.0359344-.8910275 1.1113282-1.3437501z"/><path d="m47.8483505 57.4543953-.1635742 8.6142616c-.0087891-.0018311-.0160522-.0062256-.0249023-.0078125-1.3659325-.2542572-3.7555313 1.0429306-3.5834961 2.5097656.0742264.6278381.5398941 1.1749573 1.5170898 1.2749023 1.1438332.1174011 2.8159332-.1934662 3.3110352-1.2260742.3373222-.704277.1603737-1.6618347-.4761353-2.1982422l.1699829-8.9521523c.0094986-.5034674-.7408828-.4978751-.75-.0146483zm.3793946 10.8408241c-.3310814.6934433-1.7541275.8872452-2.5576172.8041992-.9618378-.0969543-1.0868263-.7862244-.4882813-1.3847656 0-.0004883 0-.0004883 0-.0004883.5056152-.5074005 1.5989418-1.05513 2.3393555-.9160156.0880585.0165482.5756378.2856522.7099609.5927734.1225586.2807618.1215821.644043-.0034179.9042969z"/><path d="m57.5548935 69.3225632c2.1585007 0 2.7379227-1.8966217 1.3081055-2.8178711-.7363358-.4721603-1.465004-.5633469-2.2546387-.4127197l-1.348877-9.4163857c-.0713043-.4991188-.8117065-.3801842-.7421875.1064453l1.3665771 9.5400429c-1.5083579.7437439-.5806731 3.0004883 1.6710206 3.0004883zm-.2939453-2.5522461c.6761284 0 1.7048111.4271774 1.628418 1.1054688-.0924301.7992249-2.1994667.9915848-2.8378906.0429688-.1064453-.1582031-.1621094-.3681641-.1459961-.5478516.0403327-.4510117.9571533-.600586 1.3554687-.600586z"/><path d="m44.9337997 28.7058601c.9311523.6416016 2.0483398.9902344 3.1743164 1.0244141.0200195.015625.0419922.0292969.065918.0410156 2.9694405 1.4703312 6.5126228-1.1438999 5.7602539-4.522522-.0834694-.3728924-.6221123-.4035015-.7275391-.0180664-.934288 3.3820648-4.9544983 4.851284-7.847168 2.8579712-.408554-.282484-.8340911.336401-.4257812.6171875zm8.1425782-1.4819336c-.4524536 1.2853031-1.5257759 2.0951118-2.8789063 2.1914063 1.1969986-.4211674 2.186573-1.2083149 2.8789063-2.1914063z"/><path d="m50.2184677 21.4914436c.0053711.0004883.0102539.0004883.0151367.0004883.2001953 0 .3662109-.1586914.3740234-.3603516.0175781-.4462891.3549805-.8730469.7856445-.9921875.199707-.0551758.3164063-.2617188.2612305-.4614258-.1962471-.7068386-1.7462578.1187897-1.7958984 1.4243164-.0083008.2070313.1533203.3813477.3598633.3891602z"/><path d="m44.1725693 20.306385c.4643555.2080078.8256836.6245117.9663086 1.1147461.046875.1645508.1972656.2714844.3603516.2714844.0341797 0 .0688477-.0043945.1035156-.0146484.1987305-.0571289.3139648-.2646484.2568359-.4638672-.2006836-.699707-.7163086-1.2949219-1.3803711-1.5922852-.4493675-.204256-.7614594.4812546-.3066406.6845703z"/><path d="m51.0233994 22.3272591c0 .6685181.345459 1.2105103.7716675 1.2105103s.7716675-.5419922.7716675-1.2105103-.345459-1.2104492-.7716675-1.2104492-.7716675.5419311-.7716675 1.2104492z"/><path d="m44.140892 23.9963264c.4262085 0 .7717285-.5419922.7717285-1.2105103s-.34552-1.2104492-.7717285-1.2104492c-.4261475 0-.7716675.5419312-.7716675 1.2104492s.3455201 1.2105103.7716675 1.2105103z"/><path d="m12.6764746 60.960743c1.559082.4458008 3.2070313.5717773 4.8173838.3720703-1.0209961 1.3623047-2.2441416 2.5463867-3.6445322 3.5283241-.3237276.2269363-.1157665.7381973.2685547.6782227 2.3305674-.3349609 4.5913095-.9995117 6.7304697-1.9770546-.1582031 1.6621132-.7441406 3.3037148-1.6791992 4.6806679-.2366219.347641.1968746.7627182.5336914.5112305 4.3962936-3.2671356 4.2966614-3.2249985 4.4169922-3.2128906.1990948.0021667.2675705.1697159 3.4555664 4.1938477.2415676.3047943.7373619.0804291.6621094-.3046875l-.9819336-5.0268555c-.0954819-.4855576-.8312454-.3439178-.7363281.1435547l.6865234 3.5136719c-2.320631-2.9302673-2.4428101-3.263237-3.0786133-3.2695313-.5123005-.0174713-.9004173.4304428-3.4638672 2.3144531.5922852-1.300293.9311523-2.7246094.9741211-4.1425819.0083351-.2802811-.2818642-.4706535-.5395508-.3481445-1.7841797.871582-3.6611328 1.5151405-5.5976572 1.9199257 1.199708-1.0151405 2.2480478-2.1899452 3.1284189-3.5068398.1847305-.2781715-.0584526-.6419449-.3862305-.5761719-1.4580078.2944336-2.9711924.2958984-4.430665.0107422 1.6992188-.8710938 3.5146494-1.4604492 5.4106455-1.7543945.4847603-.0752029.3828106-.8121948-.1152344-.7412109-2.3061523.3579102-4.4985361 1.1347656-6.5161142 2.309082-.2847481.1659239-.2320948.5944556.0854492.6845702z"/><path d="m25.6344833 57.7043953-.2553711 2.2783203c-.0550404.4930115.6899338.575882.7451172.0830078l.2553711-2.2773438c.0234375-.2060547-.125-.3916016-.3305664-.4145508-.2021484-.0190429-.3916015.1250001-.4145508.3305665z"/><path d="m23.4587021 56.8337898-.7514648 1.09375c-.17173.2504387.0105858.5874023.3085938.5874023.3371181 0 .3446064-.3002434 1.0610352-1.2563477.2811945-.410076-.3386709-.8335646-.6181642-.4248046z"/><path d="m55.9479599 12.6428108c.0688477.1225586.1962891.190918.3271484.190918.2831192 0 .4679718-.3075228.3261719-.559082-.8383789-1.4853516-2.324707-2.6240234-3.9770508-3.046875-.480854-.1225471-.6662331.6037598-.1855469.7265625 1.4575196.3730468 2.7695313 1.3779296 3.5092774 2.6884765z"/></g></svg>