<svg id="Layer_1" height="512" viewBox="0 0 512 512" width="512" xmlns="http://www.w3.org/2000/svg"><g><path d="m264.2 330.3v-139.8h-16.4v139.9c-32.3 4.1-57.4 31.6-57.4 65 0 36.1 29.4 65.5 65.5 65.5s65.5-29.4 65.5-65.5c.1-33.5-24.9-61-57.2-65.1zm-8.2 114.2c-27.1 0-49.2-22.1-49.2-49.2s22.1-49.2 49.2-49.2 49.2 22.1 49.2 49.2-22.1 49.2-49.2 49.2z"/><path d="m297 288.2v-245.2c0-22.6-18.4-41-41-41s-41 18.4-41 41v245.2c-44.4 16.9-73.7 59.2-73.7 107.1 0 63.3 51.5 114.7 114.7 114.7 63.3 0 114.7-51.5 114.7-114.7 0-47.9-29.4-90.2-73.7-107.1zm-41 205.4c-54.2 0-98.3-44.1-98.3-98.3 0-74.6 73.7-95.4 73.7-95.4v-256.9c0-13.6 11-24.6 24.6-24.6s24.6 11 24.6 24.6v257s73.7 19.8 73.7 95.4c0 54.1-44.1 98.2-98.3 98.2z"/><path d="m313.4 239.6h41v16.4h-41z"/><path d="m313.4 190.5h24.6v16.4h-24.6z"/><path d="m313.4 141.3h41v16.4h-41z"/><path d="m313.4 92.1h24.6v16.4h-24.6z"/><path d="m313.4 43h41v16.4h-41z"/></g></svg>