<svg id="Layer_1" enable-background="new 0 0 75 75" viewBox="0 0 75 75" xmlns="http://www.w3.org/2000/svg"><g id="First_Position" fill="rgb(0,0,0)"><path d="m38.361824 24.7045059c-1.5642738-.4174786-3.1664619.491951-5.5899658.0900879-.4692612-.0704746-.8308563-.1387749-1.4199219.369873-1.0127182.8553314-1.3450623 2.8256588-1.5400391 4.0800781-.0427113.2443409-.934803 3.9498978-.9599609 4.0500488-.9269218 4.0588531-1.1460438 4.4076881-1.0500488 5.4199219.0500488.6599121.3099365 1.3200684.8099365 1.75.6600342.5400391 1.5899658.5800781 2.4500732.5800781 4.1513824.0177727 6.9133568-.1380234 10.3898926-.380127.7299805-.0599365 1.4500732-.0200195 2.0300293-.3999023.7167435-.4931374.9535294-1.3111382.8701172-2.1600342-.0992775-.8642769-.1998825-1.0157967-3.6000977-10.1700439-.2700195-.7299805-.6199951-1.3898926-.9499512-2.0799561-.2800292-.5999755-.790039-.9901122-1.4400634-1.1500243zm-3.9499511 4.7399903c-.3900146 0-.710083-.3200684-.710083-.7199707 0-.3900146.3200684-.7099609.710083-.7099609s.7099609.3199463.7099609.7099609c0 .3999023-.3199463.7199707-.7099609.7199707zm2.1600341.0500488c-.4300537 0-.7700195-.3400879-.7700195-.7700195 0-.4200439.3399658-.7700195.7700195-.7700195.4199219 0 .7700195.3499756.7700195.7700195.0000001.4299316-.3500976.7700195-.7700195.7700195z"/><path d="m30.4714432 16.5616837c.1387043.1551304.3749523.1686821.5292969.03125.3837891-.3417969 1.0488281-.3603516 1.453125-.0371094.3893661.3077621.8556328-.2786942.4667969-.5878897-1.160801-.922102-2.9869786-.01266-2.4492188.5937491z"/><path d="m35.8708572 16.4103165c.3837891-.3408203 1.0478516-.3583984 1.4521484-.0380859.3821297.3103352.85709-.2755833.4667969-.5859365-1.1522484-.9227743-2.9882813-.0162077-2.4482422.5927725.0742188.0830078.1767578.1259766.2802734.1259766.0888673-.0000002.1777345-.0312502.2490235-.0947267z"/><path d="m55.5271072 55.4708633h-12.7021484c-.2050781 0-.3931885.0563965-.5664063.1403809v-4.4567871c0-.7255859-.5898438-1.3164063-1.3154297-1.3164063h-.8719482c.285408-.3890839.0755348-.8361626-.3555908-1.0615234-.2445068-.1278076-.5318604-.2264404-.8077393-.3007813l-.3201904-6.3964844c-.0107422-.2060547-.2001953-.3486328-.3935547-.3564453-.2070313.0107422-.3662109.1865234-.3564453.3935547l.3144531 6.2822266c-.6700249.1049843-1.6463242.8288345-1.6203613 1.4394531h-2.897583c.2101021-.6338348-.6609077-1.0667534-1.2480469-1.2907715l-.322876-6.4680176c-.0107422-.2060547-.2041016-.3486328-.3935547-.3564453-.2070313.0107422-.3662109.1865234-.3564453.3935547l.3139648 6.2905273c-.6058807.0312691-1.5317097.4140129-1.7358398.9770508-.0548096.1491699-.0406494.3037109.0045166.4541016h-3.2652588c-.7255859 0-1.3154297.5908203-1.3154297 1.3164063v4.4567871c-.1732178-.0839844-.3613281-.1403809-.5664063-.1403809h-12.7021474c-.7255859 0-1.3154297.5908203-1.3154297 1.3164063v11.7705078c0 .7255859.5898438 1.3164063 1.3154297 1.3164063h12.7021475c.4023438 0 .7501221-.1918945.9918213-.477417.2349854.2186279.5444336.3592529.8900146.3592529h14.3125c.3455811 0 .6550293-.140625.8900146-.3592529.2416992.2855225.5894775.477417.9918213.477417h12.7021484c.7255859 0 1.3154297-.5908203 1.3154297-1.3164063v-11.7705078c.0000001-.7255859-.5898436-1.3164063-1.3154296-1.3164063zm-17.1907959-6.3408203c.1352005.0962257.2183762.0819969.3171387.0523682.2312012.0565186.4875488.1417236.6959229.2493896-.6210938.1035156-1.2548828.1757813-1.9394531.2138672.2152824-.2212066.6115379-.5029297.9263915-.515625zm-7.0894775.1113282c.3232422-.1074219.5322266-.1201172.7490234-.0419922.4541016.1621094.6845703.2958984.8076172.3925781-.624958.1274185-2.0140743.1326141-2.203125.0380859.0410157-.086914.2998047-.2714843.6464844-.3886718zm-.6474609.390625c.0009766.0019531.0029297.0039063.0039063.0058594-.0009766 0-.0068359.0029297-.0078125.0029297.0009765-.0029298.001953-.0058595.0039062-.0087891zm-5.2841797 18.9257812c0 .3125-.2539063.5664063-.5664063.5664063h-12.7021475c-.3115234 0-.5654297-.2539063-.5654297-.5664063v-11.7705078c0-.3125.2539063-.5664063.5654297-.5664063h12.7021475c.3125 0 .5664063.2539063.5664063.5664063zm15.6279297.4482422h-14.3125c-.3115234 0-.5654297-.2539063-.5654297-.5664063v-11.6523437-5.6328125c0-.3125.2539063-.5664063.5654297-.5664063h14.3125c.3115234 0 .5654297.2539063.5654297.5664063v5.6328125 11.6523438c0 .3124999-.2539063.5664062-.5654297.5664062zm15.149414-.4482422c0 .3125-.2539063.5664063-.5654297.5664063h-12.7021484c-.3125 0-.5664063-.2539063-.5664063-.5664063v-.1181641-11.6523437c0-.3125.2539063-.5664063.5664063-.5664063h12.7021484c.3115234 0 .5654297.2539063.5654297.5664063z"/><path d="m21.2282791 64.6876602-3.6611328.3076172c.9970703-.7685547 1.96875-1.6621094 2.5810547-2.8378906.4892578-.9423828.6015625-1.8828125.3144531-2.6484375-.3691406-.984375-1.4521484-1.6289063-2.4785156-1.5175781-1.0439453.1181641-1.9355469.9931641-2.0751944 2.0351563-.0654039.4905281.6778822.5941811.7441397.0996094.0927734-.7001953.7148438-1.3095703 1.4160156-1.3886719.7089844-.0839844 1.4443359.375 1.6904297 1.0351563.2861328.7597656-.0507813 1.6035156-.2773438 2.0390625-.75 1.4404297-2.1699219 2.4619141-3.4228516 3.3632813-.3096542.2233963-.1240549.7127151.25.6787109l4.9814453-.4179688c.493662-.041916.4343969-.7944261-.0624999-.748047z"/><path d="m35.4108963 63.7530899-1.2266846.0654297-.0447998-8.9960938c-.0022011-.4031105-.5611305-.5237541-.7216797-.1416016l-1.25 3.0078125c-.1887493.4543991.4998207.7497139.6933594.2871094l.5371094-1.2939453.0362549 7.1768799-1.4952393.0799561c-.4843369.0251312-.4621201.7490234.0195313.7490234.1006927 0 3.5918655-.1836395 3.4912109-.1865234.2070313-.0107422.3662109-.1875.3544922-.3935547-.0097656-.2070313-.2050781-.3701172-.3935547-.3544922z"/><path d="m64.0056229 26.7989883c-1.5234375-.4707031-3.1289063-.6464844-4.6884766-.5175781.9609375-1.2226563 2.1171875-2.2744141 3.4472656-3.1347656.3296242-.2123756.1462593-.7261162-.2421875-.6875-2.2675781.2333984-4.4599609.7773438-6.5273438 1.6191406.1240234-1.5419922.6611328-3.0498047 1.5410156-4.2988281.2402191-.3412418-.1772156-.7615719-.5195313-.5244141-3.9457054 2.7093678-4.0721855 2.8505859-4.2333984 2.8505859-.2048073-.0087147-.2909927-.1932125-3.4521484-4.0566406-.2449341-.3012924-.741169-.0704861-.65625.3183594l1.046875 4.7441406c.0449219.2021484.2402344.3310547.4472656.2851563.2021484-.0449219.3300781-.2451172.2851563-.4472656l-.7080078-3.2099609c2.2692032 2.7754192 2.3945847 3.0885601 3.0029297 3.1162109.5347137 0 .737545-.2787514 3.3359375-2.0478516-.5488281 1.1972656-.8505859 2.5175781-.8671875 3.8427734-.0041008.2687073.2690926.4554253.5253906.3486328 1.7099609-.7490234 3.5146484-1.2832031 5.3818359-1.5957031-1.1289063.9013672-2.1113281 1.953125-2.9335938 3.1396484-.1890602.2759857.0485229.6367455.3671875.5839844 1.3994141-.2216797 2.8554688-.1748047 4.2685547.1357422-1.6064453.7285156-3.3681641 1.2148438-5.1503906 1.4169922-.4784508.0544224-.4289322.782732.0839844.7460938 2.2109375-.2519531 4.3925781-.921875 6.3095703-1.9375.2932969-.1541424.2536698-.5905762-.064453-.6894532z"/><path d="m51.4401932 29.402504.2080078-2.125c.0205078-.2060547-.1308594-.3896484-.3369141-.4091797-.2001953-.015625-.3896484.1308594-.4091797.3369141l-.2080078 2.125c-.0488739.4910583.6982422.5734443.7460938.0722656z"/><path d="m53.6667557 28.8849258-.7119141.9980469c-.2912903.4097023.3298225.8296566.6113281.4355469l.7119141-.9980469c.2890282-.4065189-.3251381-.8380737-.6113281-.4355469z"/><path d="m32.9909744 19.3351212c-.2877808-.4014988-.8989143.0351238-.6074219.4394531 1.049839 1.4565716 3.2026787 1.4534111 4.2724609.0761719.1269531-.1640625.0976563-.3994141-.0654297-.5263672-.1621094-.1269531-.3994141-.0986328-.5263672.0654297-.3642578.4677734-.9501953.7353516-1.5498047.7412109-.5927733-.0107422-1.1767577-.3154297-1.5234374-.7958984z"/><path d="m50.2146072 62.0001602c.9154282-.6671753 1.2895851-1.5418129 1.2490234-2.2832031-.0664063-1.2597656-1.2324219-2.1005859-2.2949219-2.2519531-.9228516-.1347656-1.9228516.1132813-3.0654297.7441406-.1806641.0996094-.2470703.328125-.1464844.5097656.1005859.1806641.328125.2480469.5097656.1464844.9941406-.5498047 1.8398438-.7646484 2.5966797-.6582031.7773438.1113281 1.6074219.7207031 1.6523438 1.5498047.0283203.5283203-.2714844 1.1005859-.8017578 1.5292969-.5126953.4140625-1.1699219.6660156-1.8046875.9091797-.4358139.1683311-.2312393.8232117.2207031.7158203.9306641-.2226563 1.8720703-.3574219 2.4541016.1357422.4765625.4042969.5761719 1.2451172.2216797 1.8759766-.3261719.5830078-.9882813 1.0283203-1.8173828 1.2236328-.9852486.2337036-2.5683708.107933-2.4677734.1123047-.4860382 0-.5021858.7270966-.0166016.75 1.8681564.0793839 3.9826202.0174637 4.9560547-1.71875.5302734-.9433594.3583984-2.1796875-.3916016-2.8154297-.3124999-.2656251-.6699218-.4101564-1.0537109-.4746095z"/><path d="m20.4812088 34.7530899c-1.5274391 1.2146225-1.2039299 3.601944.3349609 4.0585938 1.1806278.3481331 2.5823307-.5902138 2.6171875-2.5527344.0079346-.449585.0179443-1.1228027-.2830811-1.5916748l5.1307373-8.1094971c.2633247-.4171238-.3640976-.8203907-.6347656-.4003906l-5.09729 8.057251c-.6821289-.2139893-1.5961914.1645507-2.067749.5384521zm2.2021484 1.515625c-.0265121 1.4075546-.9500942 2.0355415-1.6533203 1.8242188-.5341797-.1582031-.8105469-.7910156-.7998047-1.3056641.0227222-1.162899 1.1180553-1.9555359 1.9588623-1.8813477-.0062675.2441711.1692257.3833008.3614502.3833008.0155029 0 .0294189-.0111084.0449219-.0129395.0909424.2988282.0924072.7111817.0878906.9924317z"/><path d="m49.4549637 34.0785294-7.6182861-9.0617676c-.3179626-.3787479-.8935089.1020908-.5742188.4824219l7.7412109 9.2080078c-.0482941.2457466-.1248093.6230316.6923828 2.0449219 1.7266273 3.0279579 4.6339836.1257133 2.7558594-1.8466797-.8322601-.8772889-2.4646911-1.088131-2.9969482-.8269043zm.8934326 2.3024902c-.4889793-.8648872-.55896-1.1097221-.5921631-1.3181152.0085449-.0059814.0196533-.003418.02771-.0100098.1004639-.0849609.1384277-.2106934.1239014-.3320313.1245117-.0167236.3361816.0012207.7139893.0683594.375.0664063.9033203.2294922 1.2871094.6318359 1.1214217 1.1824074-.3872072 3.0244446-1.560547.959961z"/><path d="m25.3903885 10.4415674c-.3196964.8929462.3150253 1.8159113 1.4979248 1.8826904-.5715771 1.4541073-.4147968 2.831604.3179932 4.0501699-1.5287895.5516262-1.0957928 2.7302246.4731445 2.7302246.211792 0 .4190674-.0565186.6113281-.1489258.0975342.2606201.2005615.512207.3125.7485352.2121372.4467735.8911228.1275692.6777344-.3203125-.3275146-.6917725-.5855713-1.5102539-.7781982-2.4260254.0751953-.0977783.1158447-.2180176.0740967-.3395996-.0751953-.2167969.1191406-.4960938.3417969-.6298819.6542034-.3951921 2.1840248-.2067394 4-1.8300781.3526115-.3131752.3680153-.4224339.4443359-.5234375.67836.5426874 1.9430733.6706104 3.1787109-.0693359.7875786.7332611 1.0085907.9822493 2.9267578 1.3671875l1.3414307.2712402c1.4522057 6.659503-7.4267273 10.7492838-10.9918213 5.1496572-.2682533-.4198761-.8984356-.0147305-.6328125.4023438 3.3454704 5.2564278 11.3466949 3.0523281 12.4204102-2.9094238 1.4121857-.2019787 1.983345-1.721653 1.1687012-2.6165762.0227051-.5679932-.0345459-1.1237793-.1390381-1.6668701.6862907-.0884962 1.2428703-.5973082 1.4180908-1.230957 1.4462471-.182353 2.0404091-1.952364.9248047-2.9648438.6778145-1.0350428-.0162544-2.3546348-1.2236328-2.4189453-.2080078-.7304688-.9013672-1.3066406-1.671875-1.3291016-.7852249 0-1.4184303.4836993-1.6904297 1.1035156-.8295059-.2379084-1.8570328.2420902-2.0219727 1.480957-1.9626465-.8999023-4.3242188-1.0180664-6.487915-.3078613.0007324-.0585938.0170898-.1176758.0147705-.1760254-.0276222-.6841922-.3286877-1.2114053-.9957275-1.1112061-.5063782-1.2591777-2.283699-2.0680628-3.0482178-.9581299-.1884766-.0820313-.3974609-.1259766-.6152344-.1259766 0 0 0 0-.0009766 0-1.0261745 0-1.6393414.9343576-1.3740234 1.8583984-1.6696988.2974756-1.8437577 2.3526223-.4726563 3.058594zm2.6259766 7.8242178c-.2431641.1455078-.59375.1074219-.7988281-.0830078-.2060547-.1894531-.2705078-.5351563-.1474609-.7871094.1182861-.2424316.4056396-.4038086.6812744-.3664551.0874023.4267578.1862793.8378906.3022461 1.2233887-.0122071.0056153-.0253907.0061035-.0372315.0131836zm13.6793212-1.225708c.0314941-.5039063.0095215-1.0112305-.0667725-1.5185537.9187814-.0802822 1.1150246 1.1742429.0667725 1.5185537zm-1.3082275-9.4910879c.2248764.1957254.5873795.0573912.6171875-.2470703.0507813-.5019531.578125-.9208984 1.0566406-.9326172.5048828.0146484.984375.4873047 1.0058594.9921875.0101433.2271886.2141838.3932538.453125.3505859.3515625-.0751953.7529297.1269531.9003906.4501953.1494141.3242188.0429688.7607422-.2363281.9746094-.2228699.1687136-.1872787.5199051.0693359.6376953.3964844.1845703.6376953.6943359.5263672 1.1152344-.1132813.4296875-.5625.7324219-1.0117188.7021484-.243145-.0148001-.4055672.1637945-.4111328.3623047-.0123825.4139633-.3792191.8512878-.9072266.8635254-.5311279-1.7409668-1.7010498-3.2519531-3.3494873-4.2312012-.0749015-1.0816988.8835374-1.3811597 1.2869874-1.0375976zm1.640625 7.15625c-.2072639-.0630808-.4751854-.1316042-.8432617-.1901855-2.3724823-.5381203-2.9633179-.3823795-4.0424805-1.4133301-.2392998-.227684-.4220238-.4708147-.7021484-.3554688-.3518105.1465883-.8900414.6531506-1.7822266.5810547-.9306183-.0713472-.9672203-.6228638-1.4150391-.6269531-.344059 0-.4746857.270236-.5439453.5859375-.0634766.1132813-.1708984.2158203-.2783203.3115234-2.0945015 1.8695889-3.9378128 1.0056314-4.5253906 2.4863272-1.260622-1.9638491-.4187088-4.2208967 1.3339844-5.8232412 4.5973053-4.1980639 12.5815735-1.7556925 12.7988281 4.4443359zm-15.5966797-6.5429688c.4015121.1624088.7104416-.3749127.3730469-.6425781-.2903538-.2267146-.3465157-.7507777-.0751953-1.0429688.2513275-.2764597.7840023-.2656932 1.0351563.0097656.2273865.2533717.6523438.0905151.6523438-.2519531 0-.1435547.1523438-.3017578.3339844-.3457031.588562-.1365104 1.5361328.6878357 1.5361328 1.3261719v.0400391c0 .3979297.5894871.511796.7269287.0769043.0014648-.0043945.0061035-.0062256.0074463-.010498.0019531.0019531.0048828.0029297.0097656.0039063.0380859.0253906.1044922.1152344.1162109.4248047.0062256.1445313-.0172119.291748-.0367432.4384766-1.6588135.7179537-2.9891911 1.8287477-3.8569336 3.3696289-.479763.0913095-.8788395-.0691185-1.0662842-.2954102-.1630802-.2067938-.1723843-.5837564.0224609-.7226563.282629-.2028017.1617241-.6492157-.1865234-.6796875-.4834156-.0385923-.9044933-.5943213-.7871094-1.0869141.0546875-.2246094.7384529-.7961493 1.1953125-.6113282z"/><path d="m34.820076 9.841958c1.0302734.1796875 1.9960938.6279297 2.7949219 1.2978516.3722.3153372.8657494-.2524137.4824219-.5742188-.9003906-.7548828-1.9892578-1.2607422-3.1484375-1.4619141-.4779969-.0973701-.6260338.6526519-.1289063.7382813z"/></g></svg>