<svg id="Layer_1" height="512" viewBox="0 0 512 512" width="512" xmlns="http://www.w3.org/2000/svg"><g><path d="m108.5 149.5h16.4c0-54.2 44.1-98.3 98.3-98.3v-16.4c-63.2 0-114.7 51.4-114.7 114.7z"/><path d="m452.5 175.9c-3.2-54.2-47.1-97.6-101.5-100.1-26.4-45.6-74.9-73.8-127.8-73.8-78.9 0-143.6 62.3-147.3 140.7-42.6 7.7-73.9 44.6-73.9 88.7 0 49.7 40.4 90.1 90.1 90.1h344.1c40.7 0 73.7-33.1 73.7-73.7.1-34.7-24.2-64.4-57.4-71.9zm-16.2 129.3h-344.2c-40.7 0-73.7-33.1-73.7-73.7 0-38.1 28.5-69.6 66.4-73.4l7.4-1.1v-7.4c0-72.3 58.8-131.1 131.1-131.1 82.5 0 118 73.7 118 73.7h4.9c49.7 0 90.1 40.4 90.1 89.8v8.1l7.2.9c28.6 3.6 50.2 28 50.2 56.9-.1 31.5-25.8 57.3-57.4 57.3z"/><path d="m124.9 333.9s-32.8 37.3-32.8 53.2c0 18.1 14.7 32.8 32.8 32.8s32.8-14.7 32.8-32.8c0-15.9-32.8-53.2-32.8-53.2zm0 69.6c-9 0-16.4-7.3-16.4-16.4 0-5.2 7.7-17.4 16.4-28.3 8.7 10.9 16.4 23.1 16.4 28.3 0 9-7.4 16.4-16.4 16.4z"/><path d="m256 333.9s-32.8 37.3-32.8 53.2c0 18.1 14.7 32.8 32.8 32.8s32.8-14.7 32.8-32.8c0-15.9-32.8-53.2-32.8-53.2zm0 69.6c-9 0-16.4-7.3-16.4-16.4 0-5.2 7.7-17.4 16.4-28.3 8.7 10.9 16.4 23.1 16.4 28.3 0 9-7.4 16.4-16.4 16.4z"/><path d="m354.3 387.1c0 18.1 14.7 32.8 32.8 32.8s32.8-14.7 32.8-32.8c0-15.9-32.8-53.2-32.8-53.2s-32.8 37.3-32.8 53.2zm32.8 16.4c-9 0-16.4-7.3-16.4-16.4 0-5.2 7.7-17.4 16.4-28.3 8.7 10.9 16.4 23.1 16.4 28.3 0 9-7.4 16.4-16.4 16.4z"/><path d="m26.6 477.2c0 18.1 14.7 32.8 32.8 32.8s32.8-14.7 32.8-32.8c0-15.9-32.8-53.2-32.8-53.2s-32.8 37.3-32.8 53.2zm32.8 16.4c-9 0-16.4-7.3-16.4-16.4 0-5.2 7.7-17.4 16.4-28.3 8.7 10.9 16.4 23.1 16.4 28.3-.1 9.1-7.4 16.4-16.4 16.4z"/><path d="m157.7 477.2c0 18.1 14.7 32.8 32.8 32.8s32.8-14.7 32.8-32.8c0-15.9-32.8-53.2-32.8-53.2s-32.8 37.3-32.8 53.2zm32.8 16.4c-9 0-16.4-7.3-16.4-16.4 0-5.2 7.7-17.4 16.4-28.3 8.7 10.9 16.4 23.1 16.4 28.3-.1 9.1-7.4 16.4-16.4 16.4z"/><path d="m288.8 477.2c0 18.1 14.7 32.8 32.8 32.8s32.8-14.7 32.8-32.8c0-15.9-32.8-53.2-32.8-53.2s-32.8 37.3-32.8 53.2zm32.7 16.4c-9 0-16.4-7.3-16.4-16.4 0-5.2 7.7-17.4 16.4-28.3 8.7 10.9 16.4 23.1 16.4 28.3 0 9.1-7.3 16.4-16.4 16.4z"/><path d="m419.9 477.2c0 18.1 14.7 32.8 32.8 32.8s32.8-14.7 32.8-32.8c0-15.9-32.8-53.2-32.8-53.2s-32.8 37.3-32.8 53.2zm32.7 16.4c-9 0-16.4-7.3-16.4-16.4 0-5.2 7.7-17.4 16.4-28.3 8.7 10.9 16.4 23.1 16.4 28.3 0 9.1-7.3 16.4-16.4 16.4z"/></g></svg>