<svg id="Layer_1" enable-background="new 0 0 75 75" viewBox="0 0 75 75" xmlns="http://www.w3.org/2000/svg"><g id="Fish_Aquarium" fill="rgb(0,0,0)"><path d="m23.0544968 66.8619461c-.7636108-.3032227-2.1456299-.6220703-3.2744751-.4975586 2.6696167-4.9221153 3.3988037-10.7797813 1.9556274-16.1987267-.0522461-.1992188-.253418-.3193359-.4589844-.265625-.199707.0537109-.3188477.2587891-.265625.4589844 1.4511719 5.4501953.6508789 11.3681641-2.1958008 16.2382774-.0074463.0126953-.0079956.0268555-.0137939.0400391-.5619507.3125-.9918823.9941406-.7537842 1.6601563.5058594 1.4125061 4.3741837 1.7386475 5.5698242 1.0253906.9180203-.5491409.998251-1.8329163-.5629882-2.4609375zm-.4985352 2.0146484c-1.0327148.1416016-2.0976563.0371094-3.0776367-.3115234-.4150391-.1474609-.6518555-.3173828-.7246094-.5195313-.1025391-.2871094.1665039-.6533203.4755859-.7890625.90625-.3964844 2.6523438-.0537109 3.5473633.3027344.336813.1347275.774725.3693314.7446289.7304688-.0343742.3960113-.5735912.5305862-.965332.586914z"/><path d="m34.8279343 65.025032c-.8217163-.1582031-2.2776489-.2114258-3.3718262.1437988l-2.0104981-12.4260215c-.0332031-.2041016-.2246094-.3369141-.4301758-.3105469-.2041016.0332031-.3432617.2255859-.3100586.4296875l2.043396 12.6293907c-.0090942.0061035-.020752.0097656-.0297241.0161133 0 0 0 0-.0004883 0-.5600586.3847656-.9267578 1.2060547-.5415039 1.8623047.3417969.5830078 1.09375.6992188 1.3408203.7373047 1.3461227.2057114 3.4866638-.0248566 4.3217773-.7695313.8093568-.719963.6170541-1.9966507-1.0117186-2.3125zm-.1142578 2.0712891c-.9868164.3349609-2.0532227.4267578-3.081543.2685547-.4350586-.0664063-.699707-.1894531-.8081055-.3740234-.1547852-.2636719.0410156-.6738281.3188477-.8642578.8149414-.5585938 2.5947266-.5488281 3.5419922-.3652344.356308.0693588.8307724.2182617.8676758.5791016.0146484.1406249-.4652825.6302032-.8388672.7558593z"/><path d="m36.6964035 17.4571648c.4301147-.2285156.5936279-.762207.3652344-1.1923828s-.7622681-.59375-1.1923828-.3652344c-.4301147.2282715-.5936279.762207-.3652344 1.1923828s.7622681.5935058 1.1923828.3652344z"/><path d="m37.5208054 22.5240593c.4345703-.2480469 1.7626953-1.2636719 1.96875-2.1728516.1408768-.622385-.2448349-1.0952625-.6201172-.8945313-.4647446.2532272-.8246155.5666351-1.2856445.6826172-.6787109.1699219-1.4418945.0566406-2.0419922-.3066406-.335537-.2022114-.7202682.1853008-.512207.5195313 1.2051047 1.8328438 1.367298 2.809145 2.4912109 2.171875zm1.1074218-2.0419922c-.3154297.5195313-1.0766602 1.1611328-1.4780273 1.3896484-.1625977.0917969-.2226563.0878906-.2197266.0908203-.0244141-.0166016-.074707-.0966797-.0957031-.1308594l-.5795898-.9306641c.8342208.1686441 1.6170845.0433561 2.3730468-.4189452z"/><path d="m22.3419113 18.0018425c.2290821.5660419.5519104 1.1277924.9558105 1.6066895 2.4888573 7.4492741 11.7856941 7.8383751 15.3866577 3.7563477 2.3662682-2.683157 2.4202385-6.6018734 1.9803467-10.1638184.312233-1.1596518-.8105202-3.479248-1.2827759-3.479248.789978-.079834 1.4199829-.8898926 1.3200073-1.6699219-1.460022.1401367-2.9400024-.0500488-4.3099976-.5500493.8999634-.3999023 1.5799561-1.2299805 1.7999878-2.1899414-4.6969908 2.5661563-10.4547061-.2802649-14.5400389 4.350098-4.2697392-1.7916627-7.5518703-.0265293-8.5099478 2.2897949-1.0273104 2.4377108.3546267 5.2428989-.3300171 7.8000488-.4500122 1.7102051-2.8699951 2.4401855-1.2600098 4.0300293 1.2700195 1.2600098 3.749999 1.4301758 5.3300161.8400879 2.2948132-.8428611 4.1502152-3.4643325 3.459961-6.6201171zm9.2900391-3.3398438c.50243-1.0348043.3468475-2.0182257.8499756-.8100586.1799927.4499512.3200073.9099121.4100342 1.380127.039978.1699219.289978 1.199707.1599731 1.3098145 1.0300293-.829834 1.8099976-1.9799805 2.2299805-3.2399902.1900024-.5600586.1900024-1.3598633.9300537-.8198242.5.369873.8099976 1.079834.8599854 1.6899414 2.0161095-1.5419426.3197899-3.3866253 2.8373413-.963623.1044235.7989168.1588707 1.8609381.1967163 2.7341309-.2487793-.3703613-.7330322-.5100098-1.1356812-.2961426-.4301758.2282715-.593689.762207-.3652954 1.1923828.2940254.5534725 1.1213684.6756325 1.5134277.0483398-.0580444 2.4406738-.7577515 4.5771484-1.996582 5.9816895-3.1106987 3.5243855-10.7687054 3.3355331-13.6080933-2.2751465.0168457-1.1970215.7701416-2.3901367 1.9081421-2.8017578.5900269-.2199707 1.2399902-.2399902 1.8599854-.3798828 1.4600219-.3300783 2.7100219-1.4001466 3.3500366-2.7500002zm-3.1921997-4.491455c.4839211-.1130323.655201.6159668.1738281.7304688-.9438477.2236328-1.8212891.7441406-2.4711914 1.4648438-.2866211.3173828-.6113281.7929688-.5327148 1.2568359.034668.2041016-.1025391.3974609-.3066406.4326172-.0214844.0029297-.0424805.0048828-.0634766.0048828-.1796875 0-.3383789-.1289063-.3691406-.3125-.2704945-1.5944987 1.9335307-3.1872521 3.5693359-3.5771485zm-9.8442383 2.2060547c.1322117-.471364.8573055-.2780466.7216797.203125-.5844727 2.0722656-.4873047 4.3212891.2739258 6.3339844.1749649.4642372-.5253468.7294369-.7011719.265625-.8178711-2.1621094-.9223633-4.5781251-.2944336-6.8027344z"/><path d="m56.3967819 28.0221062c-.390007.0305882-.2424011.0098667-11.5239258.0195313-.8046875.0244141-1.25 0-2.0092773.6923828-1.520813 1.388916-2.6176147 3.1582031-3.2122803 5.09375l-2.604248-.6206055c.2279739-2.8254681.2502518-1.9881744.2344971-2.3032227.4599152-4.3769512-4.5778465-3.4681988-9.2910156-4.7939453-1.3871861-.4028225-3.2832775-.0794811-4.6230469 1.0019531-2.755291 2.2075272-2.9413338 6.8909416-3.1748047 10.6650391-.3772793 6.0983429-1.538166 8.8172531-1.0966797 9.9833984.3271484.8955078 1.2915039 1.2226563 2.1918945 1.4238281l11.7524414 2.6279297c2.8198967.5066986 4.1349869-.7911339 4.0415039-3.1494141-.0073242-.2080078-.1962891-.3544922-.3891602-.3603516-.2070313.0087891-.3681641.1826172-.3598633.3896484.0814362 2.1051674-1.0481834 2.7610893-3.1386719 2.3867188-12.1673183-2.7853241-13.0440674-2.6194763-13.3955078-3.5800781-.290472-.7699623.7669621-4.4670029 1.0493164-8.2294922.0336914-.4804688.0634766-.9619141.0932617-1.4453125.2105503-3.4077454.3754368-8.1062984 2.8964844-10.1269531 1.1426735-.924324 2.7831192-1.2040005 3.9472656-.8652344 4.8371506 1.3588486 9.3332405.4586163 8.7358398 4.1425781-.01157.1018639-.0967979.6369152-.2128296 2.0568848l-6.8452759-1.6311035c-.2006836-.0478516-.4038086.078125-.4516602.2783203-.0478516.2011719.0761719.4033203.277832.4521484l6.9605713 1.6586914c-.2852631 3.8536758-.4304771 7.2286415-.1578369 11.3129883.0332069.4980736.7817574.4420662.7480469-.0507813-.2597198-3.9059868-.1342506-7.2278328.1485596-11.0861816l2.4692383.5883789c-1.7294693 7.3044128 3.8797607 14.0476074 11.1097412 14.0476074 6.3007813 0 11.4267578-5.1259766 11.4267578-11.4267578 0-3.1396484-1.3125-6.1738281-3.6010742-8.3271484-.7717283-.7335261-.7979735-.9199618-1.9960936-.8251952zm-5.8295898 19.8291015c-6.7534637 0-11.9956207-6.3017769-10.3809814-13.1240234 3.650322.7996368 3.6105042.9899101 3.9017334.8041992.3617973 1.0328293 2.6665039 2.5119514 4.3498535 1.7954102.9550781-.40625 1.4980469-1.4716797 1.2104492-2.3759766-.1865234-.5849609-.6943359-1.0634766-1.3579102-1.2792969-.7700577-.2495422-1.4596786-.0887985-1.78125-.0654297-.7346191.1206055-2.2085571.3730469-2.4441528 1.2932129-.1350746-.0731392.2405663.0496674-3.6848145-.8977051.5588989-1.7910156 1.5802002-3.4265137 2.9893188-4.7128906.5482674-.5008984.7542267-.4970703 1.5566406-.4970703 11.9694443-.0112953 10.9797668.0217266 11.5302734-.0224609.9099007-.0695915.7349281-.0215092 1.4233398.625 2.1381836 2.0107422 3.3642578 4.8466797 3.3642578 7.7802734.0000002 5.8867188-4.7895506 10.6767578-10.6767576 10.6767578zm-5.7978516-12.7363281c.0214844-.2148438.3618164-.5224609 1.8608398-.7685547.2387199-.019001.8119583-.1635704 1.4282227.0380859.4282227.1396484.7631836.4433594.875.7949219.1855469.5820313-.2670898 1.2353516-.7895508 1.4580078-.5522461.2333984-1.2866211.1611328-1.9643555-.1943359-1.0810546-.5673828-1.4370117-1.0576172-1.4101562-1.328125z"/><path d="m52.7717819 36.2935905c-2.2704773.3667755-4.1983376 1.9446945-5.0236206 3.8696289-2.9654274-1.3576736-3.7735062-1.6557617-3.9260864-1.6557617-.1333008 0-.2563477.0703125-.3237305.1855469-.4355469.7441406-.4892578 1.7060547-.1381836 2.5136719.1567383.3466797.3950195.671875.6928711.9453125.1801758.1601563.3969727.2548828.5874023.3378906.1362305.0585938.2763672.1201172.3427734.1835938.1567383.1982422.0258789 1.2666016-.0234375 1.6689453-.0790215.6522484-.1364021.7400246.1669922.9326172.0400391.0253906.0917969.0400391.1464844.0449219.3902397.4017639.4716721.505394.6469727.5161133.0078125.0004883.0140381.0053711.0219727.0053711.0401611 0 .1351318-.0258636.1455688-.0302734.0026855-.0012207.0045776-.003418.0072021-.0048828.1300545-.0573997.2168465-.1822853.22052-.3361816.0085449-.015625.055603-.0466309.1169434-.0437012.2991638.0220108.5270081.5483932.8393555.875.4352264.4517212 1.5687408.8585434 1.6967773.2587891.0073242-.0341797.0317383-.1240234.0664063-.2529297.4569092-1.7075195.6236572-2.6450195.6217651-3.190918 3.5425682.8659325 6.9374809-.5276222 8.9138794-3.1665039.2841797-.3798828.3955078-.7597656.3295898-1.1289063-.1220703-.6845703-.7958984-1.1220703-1.3901367-1.5068359-1.4048232-.9127466-3.1345062-1.2826234-4.7382812-1.020508zm-4.4501953 9.7773438c-.4134674-.107502-.570488-.3459358-.7416992-.5888672-.2716789-.383091-.5756531-.7632141-1.0888672-.8037109-.2136841-.0131836-.4329834.0612793-.6056519.1904297-.0122185-.0125046-.1589127-.1617966-.208313-.2119141.085743-.7262878.3200989-2.0665092-.1757813-2.5263672-.1625977-.1552734-.3652344-.2431641-.5615234-.328125-.9414635-.4090729-1.2773972-1.5455132-.9262695-2.4541016.8237305.3203125 3.0693359 1.2724609 3.2939453 1.4208984.0923615.0641556.1301422.1242905.1984253.215332-.1085587.9304047.4176941 1.5159569 1.2901611 1.8769531.0321045.0412598.0617065.0859375.1071167.1108398.0351563.2187502.0019532.911133-.5815429 3.098633zm9.840332-7.1181641c.0283203.1582031-.034668.3378906-.1918945.5478516-2.0970116 2.8003006-5.8597488 3.8370056-8.8179932 2.6992188-.8665886-.3662262-1.1843567-.7834091-.6639404-1.8710938.8266602-1.7275391 2.5141602-2.9892578 4.4038086-3.2949219.0947266-.0153809.1931152-.0126953.2888794-.0231934-.2052879 1.8801498 1.2470665 3.3591309 1.7077026 3.3591309.3678474 0 .5151176-.4760933.2133789-.6835938-.8564453-.5898438-1.3261719-1.6767578-1.1689453-2.703125.0007324-.0046387-.0012207-.0090332-.0006714-.0136719 1.1735039.0273857 2.2523384.3784256 3.1696167.9736328.4433594.288086.9951172.6455079 1.0600586 1.0097657z"/><path d="m55.4534836 38.1075554c0 .428215.6477051.4290085.6477051 0 0-.4283142-.6477051-.428421-.6477051 0z"/><path d="m53.1375046 40.0660515c-.6411133.2539063-1.3295898.3671875-2.019043.3408203.6054688-.4580078 1.059082-1.1220703 1.2329102-1.8603516.0473633-.2021484-.0776367-.4033203-.2792969-.4511719-.1987305-.0439453-.402832.0771484-.4511719.2792969-.2075195.8837891-.9365234 1.6298828-1.8139648 1.8564453-.3717613.0970764-.3735619.6237602-.0063477.7246094 1.15588.3201256 2.4407997.2721519 3.6132813-.1923828.456047-.1805649.1924667-.8763161-.2763672-.6972656z"/><path d="m59.3748093 16.1383171c-.1025391-.140625-.2900391-.1904297-.4477539-.1240234-1.7548828.7353516-3.3896484 1.7089844-4.8676758 2.8984375-.1977539-1.3046875-.0722656-2.6699219.3652344-3.9072266.0610352-.171875-.0112305-.3632813-.1708984-.4521484s-.3603516-.0517578-.4750977.0927734l-2.6074219 3.2451172c-.2971306.3729916.0781136.4334469-3.7739258-2.4042969-.3136368-.2335596-.7330894.1128511-.5615234.4648438l1.840332 3.7773438c.2182388.450634.890522.1145802.6738281-.328125l-1.1630859-2.3886719c3.3310814 2.4723301 2.5852814 2.5743542 5.121582-.5839844-.1547852 1.0849609-.1103516 2.203125.137207 3.2626953.0623932.2679768.3901291.3868809.609375.2001953 1.1660156-1 2.440918-1.8554688 3.8046875-2.5546875-.6743164.9980469-1.2138672 2.0771484-1.6098633 3.2255859-.1079865.3143406.2181931.6053982.5185547.4589844 1.0302734-.5019531 2.1557617-.8095703 3.300293-.90625-1.1254883.9765625-2.3881836 1.7695313-3.765625 2.3662109-.3717766.1605606-.2567825.71875.1489258.71875.3217583 0 2.8478851-1.2190094 4.8691406-3.2236328.2356682-.2345924.0715408-.6352234-.2558594-.6416016-1.2910156-.0439453-2.5874023.1962891-3.7929688.6533203 1.279564-3.0347385 2.4963914-3.3094691 2.1025392-3.8496093z"/><path d="m50.483696 22.9088249.2763672 1.8574219c.0734673.4897652.8147774.3804111.7421875-.1113281l-.2763672-1.8554688c-.0722885-.492033-.8149185-.3809662-.7421875.109375z"/><path d="m53.0754929 23.6529655-.3681641 1.0214844c-.1673279.4680538.5383835.7198277.7060547.2539063l.3671875-1.0214844c.168457-.4655914-.5374565-.7227745-.7050781-.2539063z"/></g></svg>