<svg id="Layer_1" height="512" viewBox="0 0 512 512" width="512" xmlns="http://www.w3.org/2000/svg"><g><path d="m231.4 378.8s-24.6 37.3-24.6 48c0 13.8 11 25 24.6 25s24.6-11.2 24.6-25c0-10.7-24.6-48-24.6-48zm0 56.2c-4.5 0-8.2-3.7-8.2-8.3.1-2.5 3.5-9.8 8.2-17.9 4.7 8.1 8.1 15.3 8.2 17.9 0 4.6-3.7 8.3-8.2 8.3z"/><path d="m133.1 378.8s-24.6 37.3-24.6 48c0 13.8 11 25 24.6 25s24.6-11.2 24.6-25c0-10.7-24.6-48-24.6-48zm0 56.2c-4.5 0-8.2-3.7-8.2-8.3.1-2.5 3.5-9.8 8.2-17.9 4.7 8.1 8.1 15.3 8.2 17.9 0 4.6-3.7 8.3-8.2 8.3z"/><path d="m329.7 378.8s-24.6 37.3-24.6 48c0 13.8 11 25 24.6 25s24.6-11.2 24.6-25c0-10.7-24.6-48-24.6-48zm0 56.2c-4.5 0-8.2-3.7-8.2-8.3.1-2.5 3.5-9.8 8.2-17.9 4.7 8.1 8.1 15.3 8.2 17.9 0 4.6-3.6 8.3-8.2 8.3z"/><path d="m403.5 426.7c0 13.8 11 25 24.6 25s24.6-11.2 24.6-25c0-10.6-24.6-48-24.6-48s-24.6 37.4-24.6 48zm24.6 8.3c-4.5 0-8.2-3.7-8.2-8.3.1-2.5 3.5-9.8 8.2-17.9 4.7 8.1 8.1 15.3 8.2 17.9 0 4.6-3.7 8.3-8.2 8.3z"/><path d="m157.7 485c0 13.8 11 25 24.6 25s24.6-11.2 24.6-25c0-10.6-24.6-48-24.6-48s-24.6 37.4-24.6 48zm24.6 8.3c-4.5 0-8.2-3.7-8.2-8.3.1-2.5 3.5-9.8 8.2-17.9 4.7 8.1 8.1 15.3 8.2 17.9 0 4.6-3.7 8.3-8.2 8.3z"/><path d="m256 485c0 13.8 11 25 24.6 25s24.6-11.2 24.6-25c0-10.6-24.6-48-24.6-48s-24.6 37.4-24.6 48zm24.6 8.3c-4.5 0-8.2-3.7-8.2-8.3.1-2.5 3.5-9.8 8.2-17.9 4.7 8.1 8.1 15.3 8.2 17.9 0 4.6-3.7 8.3-8.2 8.3z"/><path d="m354.3 485c0 13.8 11 25 24.6 25s24.6-11.2 24.6-25c0-10.6-24.6-48-24.6-48s-24.6 37.4-24.6 48zm24.6 8.3c-4.5 0-8.2-3.7-8.2-8.3.1-2.5 3.5-9.8 8.2-17.9 4.7 8.1 8.1 15.3 8.2 17.9 0 4.6-3.7 8.3-8.2 8.3z"/><path d="m108.5 2h16.4v33.3h-16.4z"/><path d="m203.6 42-11.6-11.7-23.1 23.5 11.5 11.8z"/><path d="m53 171.6-23.2 23.5 11.6 11.8 23.2-23.5z"/><path d="m2 110.3h32.8v16.7h-32.8z"/><path d="m64.6 53.8-23.2-23.5-11.6 11.7 23.2 23.6z"/><path d="m320.8 101.1v16.7c39.8 0 72.3 32.5 72.3 72.5h16.4c-.1-49.3-39.8-89.2-88.7-89.2z"/><path d="m449.6 186.6c-1.9-69.8-58.9-126-128.8-126-32.1 0-62.5 11.8-86.2 33.4-28.5-5.5-45.8-1.2-55.6 2.1-9.2-26.4-34-44.8-62.3-44.8-36.5 0-66.1 30.2-66.1 67.2 0 35.3 27 64.3 61.1 67 0 .4-.1.7-.1 1.1-35.9 12.2-60.4 46-60.4 84.4 0 49.1 39.8 89.1 88.6 89.1h281.6c48.9 0 88.6-40 88.6-89.1 0-38.4-24.5-72.2-60.4-84.4zm-382.6-68c0-27.9 22.3-50.6 49.7-50.6 21.6 0 40.5 14.2 47.1 34.6-25.2 13.5-43.8 37.7-50 66.4-26.1-1.5-46.8-23.5-46.8-50.4zm354.4 224.8h-281.6c-39.8 0-72.3-32.5-72.3-72.5 0-33 22.3-61.8 54.3-70.1l6.3-1.6-.3-9.1c0-45.5 36.9-82.6 82.3-82.6 14.8 0 28.8 5.1 28.8 5.1l3.5-3.4c21.1-20.6 49-32 78.3-32 62 0 112.5 50.6 112.4 113.7 0 .6-.2 8.3-.2 8.3l6.3 1.6c32 8.3 54.3 37.1 54.3 70.1.1 40-32.3 72.5-72.1 72.5z"/></g></svg>