<svg id="Layer_1" height="512" viewBox="0 0 512 512" width="512" xmlns="http://www.w3.org/2000/svg"><g><path d="m108.5 149.5h16.4c0-54.2 44.1-98.3 98.3-98.3v-16.4c-63.2 0-114.7 51.4-114.7 114.7z"/><path d="m452.5 175.9c-3.2-54.2-47.1-97.6-101.5-100.1-26.4-45.6-74.9-73.8-127.8-73.8-78.9 0-143.6 62.3-147.3 140.7-42.6 7.7-73.9 44.6-73.9 88.7 0 49.7 40.4 90.1 90.1 90.1h344.1c40.7 0 73.7-33.1 73.7-73.7.1-34.7-24.2-64.4-57.4-71.9zm-16.2 129.3h-344.2c-40.7 0-73.7-33.1-73.7-73.7 0-38.1 28.5-69.6 66.4-73.4l7.4-1.1v-7.4c0-72.3 58.8-131.1 131.1-131.1 86.3 0 118 73.7 118 73.7h4.9c49.7 0 90.1 40.4 90.1 90.3l-.3 7.5 7.5.9c28.6 3.6 50.2 28 50.2 56.9-.1 31.6-25.8 57.4-57.4 57.4z"/><path d="m256 337.9c-18.1 0-32.8 14.7-32.8 32.8s14.7 32.8 32.8 32.8 32.8-14.7 32.8-32.8-14.7-32.8-32.8-32.8zm0 49.2c-9 0-16.4-7.3-16.4-16.4 0-9 7.4-16.4 16.4-16.4s16.4 7.3 16.4 16.4c0 9-7.4 16.4-16.4 16.4z"/><path d="m387.1 337.9c-18.1 0-32.8 14.7-32.8 32.8s14.7 32.8 32.8 32.8 32.8-14.7 32.8-32.8-14.7-32.8-32.8-32.8zm0 49.2c-9 0-16.4-7.3-16.4-16.4 0-9 7.4-16.4 16.4-16.4s16.4 7.3 16.4 16.4c0 9-7.4 16.4-16.4 16.4z"/><path d="m124.9 337.9c-18.1 0-32.8 14.7-32.8 32.8s14.7 32.8 32.8 32.8 32.8-14.7 32.8-32.8-14.7-32.8-32.8-32.8zm0 49.2c-9 0-16.4-7.3-16.4-16.4 0-9 7.4-16.4 16.4-16.4s16.4 7.3 16.4 16.4c0 9-7.4 16.4-16.4 16.4z"/><path d="m190.5 444.5c-18.1 0-32.8 14.7-32.8 32.8s14.7 32.8 32.8 32.8 32.8-14.7 32.8-32.8c-.1-18.1-14.8-32.8-32.8-32.8zm0 49.1c-9 0-16.4-7.3-16.4-16.4 0-9 7.4-16.4 16.4-16.4s16.4 7.3 16.4 16.4c-.1 9.1-7.4 16.4-16.4 16.4z"/><path d="m321.5 444.5c-18.1 0-32.8 14.7-32.8 32.8s14.7 32.8 32.8 32.8 32.8-14.7 32.8-32.8-14.7-32.8-32.8-32.8zm0 49.1c-9 0-16.4-7.3-16.4-16.4 0-9 7.4-16.4 16.4-16.4s16.4 7.3 16.4 16.4-7.3 16.4-16.4 16.4z"/><path d="m452.6 444.5c-18.1 0-32.8 14.7-32.8 32.8s14.7 32.8 32.8 32.8 32.8-14.7 32.8-32.8-14.7-32.8-32.8-32.8zm0 49.1c-9 0-16.4-7.3-16.4-16.4 0-9 7.4-16.4 16.4-16.4s16.4 7.3 16.4 16.4-7.3 16.4-16.4 16.4z"/><path d="m59.4 444.5c-18.1 0-32.8 14.7-32.8 32.8s14.7 32.8 32.8 32.8 32.8-14.7 32.8-32.8c-.1-18.1-14.8-32.8-32.8-32.8zm0 49.1c-9 0-16.4-7.3-16.4-16.4 0-9 7.4-16.4 16.4-16.4s16.4 7.3 16.4 16.4c-.1 9.1-7.4 16.4-16.4 16.4z"/></g></svg>