<svg id="Layer_1" enable-background="new 0 0 75 75" viewBox="0 0 75 75" xmlns="http://www.w3.org/2000/svg"><g id="Floor_Cleaning" fill="rgb(0,0,0)"><path d="m8.5865707 58.6789551c4.8318939.4608231 10.6010265 2.0346794 15.4111328-.5097656 2.5634766-1.3535156 4.2573242-3.7021484 4.4384766-6.1455078.3217659-.3979645.3770065-.4666786.4599609-.5712891.0112305.0039063.0224609.0068359.0341797.0087891.0117188.0058594.0239258.0097656.0366211.0136719 2.165184.6458054 4.4025192-1.0685234 4.1047363-3.5136719.2284775-.1501045.3342552-.3263474.4367676-.4130859.1157913-.0821533-.3849106.2412148 3.6034546-2.2983398-.0738144 1.4262657-.2424965 3.0995407.319397 4.4243164.3774414.890625 1.09375 1.6171875 2.0161133 2.046875.8017578.3730469 1.6396484.4902344 2.449707.6025391 2.6694031.3724937 11.1953392 1.5581703 13.6630859.4023438 1.7568893-.823616 1.9025764-2.4318504 1.6665039-4.3417969-.4067383-3.3084717-1.0302124-6.5609131-1.8493652-9.7341309 1.2180023.2053032 2.4952011.2861519 3.5510254-.3684082 1.1704102-.7265625 1.7167969-2.3066406 1.2441406-3.5996094-.480957-1.2929688-1.9174805-2.1494141-3.277832-1.9404297-.491497.0750732-.3770294.8167496.1123047.7421875 1.019043-.1582031 2.1005859.4873047 2.4619141 1.4580078.3486328.953125-.0712891 2.1660156-.9360352 2.703125-.9857635.6099739-2.2974892.4013252-3.3625488.1967773-.314209-1.1628418-.6611328-2.3117676-1.0297852-3.4503174.1027451-.0656204-.5030708.3187752 7.7229004-4.9232197.4148407-.2649403.0164299-.90028-.4052734-.6308594-9.6981888 6.1801128-7.0989609 4.5244579-7.553772 4.8146992-.1377563-.4104004-.2857666-.8156738-.430603-1.2224121 12.5934372-8.03018 11.6967545-7.5434151 12.0151367-7.4721699.2960281.0662441.3554077.2973976.4365234.3974609.15625.2441406.0786133.5791016-.1665039.7421875l-2.3496094 1.5c-.4185829.2665844-.0135689.9006462.4033203.6328125l2.355957-1.5039063c1.4397583-.9606342-.0598984-3.2492599-1.4873047-2.3300781-1.0523453.6609039-1.544838.980381-11.463623 7.307251-.2921066-.7928638-.6640129-1.7383175-1.4436035-2.0777588-.7885742-.3447266-1.5727539.1123047-2.2026367.4765625l-.1113281.0644531s0 0-.0004883 0c-1.3945313.8046875-2.9663086 1.2363281-4.5458984 1.2509766-1.7613792-.0025063-3.4016495-.4942913-4.4145508-1.0996094-.296875-.1748047-.6040039-.3583984-.9316406-.2148438-.3203125.1386719-.4609375.5058594-.5737305 1.0136719-.6439018 2.9026241-1.1706924 6.1176167-1.5288086 9.5477314-1.4337082-1.1467133-2.9281883-3.2036781-2.9492188-4.9256592-.0221214-1.8349876 1.5212479-2.7559433 2.5644531-2.0986328.415638.2678528.822197-.3671532.4013672-.6328125-1.5339661-.9764175-3.7457504.2774467-3.7158203 2.7412109.0255966 2.0934639 1.7922096 4.4729385 3.6185303 5.7879639-.0089722.0950928-.0177612.1904297-.0264282.2856445-6.7752056 4.3215714-5.8393307 3.700058-5.9265137 3.7651367-1.5954037-.8866844-3.6409168-.2140694-4.5269165 1.3565674-.5939407.2878952-1.4706841-.0014992-2.1088867-.1943359-.1002827-.0017052-4.5450573-1.7828217-9.7431641 2.0859375-.4594727.3427734-.9145508.7246094-1.3525391 1.1328125-.3629112.3394966.1495724.8876076.5117188.5488281 3.388031-3.1626892 7.242466-3.9407349 10.0927734-3.1308594.6676636.2013016 1.3963833.4416046 2.0459595.4299316.3182182 1.1873245.882719 2.5259285 1.642395 3.5622559-.1537113.2111168-.2847862.2782555-.2996826.5166016-.1328125 2.2138672-1.6831055 4.3632813-4.0458984 5.6113281-4.3518276 2.3002357-9.7200022 1.0152626-14.2138672.5068359.2832031-.2871094.5668945-.5712891.8505859-.8564453.1932459-.1942902.1194792-.5234566-.1367188-.6171875l-.5219725-.1962889c1.0864258-1.7246094 2.0097656-3.0097656 2.9638672-4.1289063.3200979-.3748055-.2439213-.8631554-.5712891-.4863281-1.0488281 1.2314453-2.0576172 2.6513672-3.2714844 4.6054688-.0595703.0957031-.0727539.2138672-.0361328.3203125.0873098.2537766.3368006.2463493.6337891.3847656-.3305664.3320313-.6611328.6669922-.9907227 1.0068359-.2183838.2247429-.080265.6039162.2333984.6337891zm41.5522461-22.5332031c-.0206451.0051613-1.0703354.1848717-1.0913086.1884766-.40625.0683594-.8652344.1464844-1.246582.0292969-.4814453-.1513672-.8378906-.6728516-.8120117-1.1865234.0851936-1.6813356 2.8694649-1.7554933 3.1499023.9687499zm-3.272644.5029296c.4485741.4258766.9221344.5441742 1.5302734.5163574-2.5807114 1.6449203-2.2174988 1.4147682-5.3735962 3.4301758-.379528-.4011688-.8459663-.5858841-1.4018555-.6022949zm-8.0720825 5.3515625c.0458984-.0634766.2705078-.1787109.378418-.234375.6338158-.3250351 1.8976212-1.4180031 2.9755859-.9023438.496582.2392578.8027344.8759766.6967773 1.4511719-.220356 1.1956444-1.7465172 1.7767448-2.9746094.9433594-.6667556-.453289-.9611091-1.1511688-1.0761718-1.2578125zm-.6738282.2248536c.1215286.3595047.4321175.7675056.6829834 1.0581055l-.859314.5484619c.0361328-.5256348.0810547-1.0499268.126709-1.5748291zm18.3623047 6.2507324c.1905937 1.5488167.1841164 2.9018669-1.2407227 3.5703125-2.3397369 1.1010513-11.5679436-.2318878-13.2412109-.4648438-.7553711-.1054688-1.5366211-.2138672-2.2368164-.5400391-2.3939896-1.1132698-2.0266075-3.636219-1.8727417-6.2873535.1011238-.0649109-.2782326.1770325 1.4764404-.9418945 2.2392082 1.6372681 4.9913216-.4323616 4.0631104-2.5869141.1351166-.0863342 6.6931305-4.2776184 6.7869873-4.3317871l.008606-.0014648c.0064697-.0012207.0106812-.0030518.0170288-.0041504 1.3687134.7321777 2.8175049 1.2607422 4.3166504 1.5930176.8573608 3.2541504 1.5045166 6.5950928 1.9226684 9.9951172zm-5.5118408-12.0649414c.84021-.5336914 1.6783447-1.0688477 2.5157471-1.6032715.3035278.9462891.59198 1.8996582.857605 2.8630371-1.1652222-.2875977-2.291565-.7160645-3.3733521-1.2597656zm2.27948-2.3430176c-.103241.0659103-.9107399.5829849-2.4406128 1.5563965-.0908813-.4450684-.2487793-.8493652-.4735107-1.1940918.1743736-.1112175 2.3879242-1.522686 2.4887085-1.5869141.1438598.4072266.2887573.8138428.425415 1.2246094zm-13.3848267-3.2443867c.0542488.0252132.5196457.3021297.7402344.4042969 2.8651924 1.3291378 6.2787666 1.2894688 9.2285156-.4111328 1.5099716-.8735466 1.9236679-.9161129 2.7346802 1.3000507-.104641.0666885-2.6372223 1.6816978-2.744873 1.7503662-1.9548302-1.671833-4.2621918.3376846-3.3996582 2.1749268l-8.1408691 5.1898193c-.0375977-.0235596-.0738525-.0489502-.111084-.072998.4419441-4.437542 1.4274024-9.8040219 1.6930541-10.3353291zm-7.7114257 15.2011738c.2238121-.1345711.7707939-.4859848 5.1164551-3.2576904-.041687.5201416-.0733032 1.0401611-.1057739 1.5606689-4.3871803 2.8020973-4.0784874 2.5696716-4.2548218 2.7614746-.0733032-.2624512-.2513428-.4544678-.4470825-.6210938-.1121826-.1450195-.2362061-.2803955-.3709717-.4051514.0333862-.0190429.0595092-.0347899.0621948-.0382079zm-.8441773.3615723c.1521683.253273.4031601.4385796.6032104.5996094 1.217247 1.6851273-.1845055 4.4597702-2.8225098 3.737793-.7505455-.9731636-1.413969-2.2195053-1.5110474-3.4440918.792513-1.3193284 2.4856454-1.7681046 3.7303468-.8933106z"/><path d="m23.8414536 48.685791c-3.4047852.3242188-6.7397461 1.6943359-9.3896484 3.8603516-.3858194.3152428.0936661.8944206.4746094.5800781 2.5361328-2.0722656 5.7275391-3.3837891 8.9863281-3.6943359.4787063-.0453759.4423331-.774498-.0712891-.7460938z"/><path d="m23.7247543 52.6623535c-2.3461914 2.0419922-5.3481445 3.2636719-8.4526367 3.4394531-.4820404.0272827-.4619083.7490234.0205078.7490234.1523705-.0347481 4.7890186-.022892 8.9243164-3.6220703.3735504-.3268585-.1177177-.8903999-.4921875-.5664062z"/><path d="m43.89077 54.4768066c.0972481-.4816093-.6376991-.6438408-.7353516-.1484375l-1.3643188 12.3167725c-1.0970459-.1534576-2.8349113.1332626-4.274353 1.0601807 0 0-.0004883 0-.0004883.0009766-1.0306015.6646881-.8171349 1.6786575.3969727 1.859375 1.450531.2119141 2.9068069.1603546 4.3300781-.1542969.4418945-.0966797.9790039-.2714844 1.2143555-.7753906.2577591-.5512085.0254593-1.3715591-.9353638-1.7888184l1.3230591-12.1174316zm-1.112793 13.8417969c-.3358955.7190552-5.0488892.7582626-5.1616211.3496094-.0848732-.3182678 2.3688927-1.5944519 4.1827393-1.2501221.0596313.0880127.1520996.15271.2659912.1651611.1039925.0074234.0556831-.0092621.1444702-.0375977.1213379.0524902.2462158.0994873.3486938.1831055.1728516.1406251.3056641.4062501.2197266.5898438z"/><path d="m50.8927231 66.8479004c-1.1883316.6006927-1.0221062 1.6084366.027832 2.0126953 2.0126915.7685089 5.2923431.402153 5.230957-1.2802734-.0185547-.4980469-.3803711-.9453125-.9936523-1.2285156-.7913818-.3652344-1.6044922-.3682861-2.3572998-.2125244l-1.2764893-11.9788818c-.0219727-.2060547-.2089844-.3457031-.4125977-.3330078-.2060547.0224609-.3554688.2070313-.3334961.4130859l1.289917 12.1048584c-.430542.1483154-.8312378.3280029-1.1746826.5015869.0000001-.0000001.0000001.0009765-.0004882.0009765zm.3393555.6689453c1.5131836-.7666016 2.6611328-.9238281 3.6123047-.4833984 1.8605804.8544846-1.1809425 2.074585-3.6557617 1.1259766-.2736549-.1049271-.4775772-.2206802-.2905273-.421875.0810546-.0888673.2094725-.1582032.3339843-.2207032z"/><path d="m40.4322739 20.418211c-.177681.4629059.5215454.7328053.7001953.2695313.5054932-1.3111172-.732357-2.548851-1.940918-2.1191406-1.0591393.3700504-1.2603607 1.8471432-.574707 1.7871094.2070313-.0117188.3647461-.1884766.3530273-.3955078-.0166016-.2861328.1894531-.5859375.4697266-.6845703.2832031-.0966797.6376953-.0019531.84375.234375.2041015.2333983.265625.6064452.1489258.908203z"/><path d="m45.2530746 20.7287579c-.0233345.4946804.7265816.533596.7490234.0351563.044548-.964489 1.2835503-1.3561935 1.8745117-.5898438.2548828.3291016.2788086.84375.0561523 1.1962891-.1108398.1748047-.0585938.40625.1166992.5175781.6027412.3796806 1.1889229-1.1783981.4213867-2.171875-1.010433-1.3158627-3.1416853-.6524277-3.2177733 1.0126953z"/><path d="m45.2159653 23.3908672c-1.3333054.9054165-3.195488.7890244-4.4052734-.4082031-.112793-.1123047-.2856445-.1396484-.4272461-.0712891-.3210297.1555843-.1781082.4866734-.1865234.5869141.1030273.9433594.2089844 1.9179688.800293 2.7167969.7455444 1.0057621 1.9199715 1.4476395 2.8725586 1.2509766 2.7318724-.5554638 2.3656996-4.7724763 1.3461913-4.0751954zm-.2026367 2.2441407c-.6315155 1.4667454-2.4145203 1.4808826-3.4135742.1328125-.3432617-.4628906-.4868164-1.0537109-.574707-1.6669922 1.2029839.7484303 2.7749367.8877811 4.1655273.1748047.0673828.446289.0073242.9296875-.1772461 1.359375z"/><path d="m33.4215317 24.6262188-5.878418-.8886719c-.4825783-.0808144-.6089115.6663342-.1123047.7421875l5.878418.8886719c.487957.0750713.6047287-.6669712.1123047-.7421875z"/><path d="m30.1432114 30.0920391c1.4492188-.4072266 2.8032227-1.1591797 3.9150391-2.1728516.152832-.1396484.1635742-.3769531.0239258-.5302734-.1386719-.1523438-.3759766-.1630859-.5297852-.0244141-1.0258789.9365234-2.2749023 1.6298828-3.6123047 2.0048828-.4708386.1338654-.2844372.8480301.203125.7226563z"/><path d="m33.8180161 33.2512207 1.6083984-1.8251972c.328392-.3716335-.2334366-.8671627-.5625-.4960938l-1.6083984 1.8251972c-.3283654.3716012.2337646.8680802.5625.4960938z"/><path d="m12.7833481 64.1604004c4.758791 3.440567 9.8750706 3.258522 9.7749023 3.2412109.4936943 0 .4971256-.743042.0053711-.75-3.3266602-.0488281-6.644043-1.1494141-9.3408203-3.0986328-.4035549-.2902794-.8409176.3179932-.4394531.6074219z"/><path d="m25.2945786 63.5559082c.4941063-.0421524.4328079-.7929726-.0625-.7480469-2.2958984.1923828-4.6401367-.53125-6.4291992-1.9814453-.3873081-.3126488-.857523.2708626-.4726563.5820313 1.7338867 1.4052734 3.9477539 2.1796875 6.175293 2.1796875.2631835 0 .5263671-.0107422.7890625-.0322266z"/><path d="m53.930748 9.1329336c.1799927-1.0899658.3599854-2.190064.539978-3.2799077-.5699463.8898926-1.7399902 1.2299805-2.789978 1.1799316-.9400024-.0500488-1.8200073-.3599854-2.7299805-.6099854-4.3817978-1.2628207-3.2746773-.7523484-4.7999878-1.0999756-1.7252846-.0959139-3.0310249.2103953-10.3700562 1.3199463.0900269 0 1.0900269.9300537 1.2800293 1.0300293.5700073.289917 1.1599731.3800054 1.7700195.4799809-.5900269.539917-1.4700317.8099365-2.1000366 1.3699951-.6799927.5900879-1.25 1.3100586-1.6499634 2.1099854-.7670288 1.5047607-.9629517 3.3006592-.5438843 4.9415274-1.2427902 1.1522045-.6188965 3.2916679 1.3093262 3.7573242.3797379 1.6141148 1.0494347 3.3665314 2.0430908 4.7172852 4.4008751 5.9392872 15.2719421 6.0317135 17.7158813-1.9626465 1.7462616.2168179 2.7852783-1.9120407 1.5396118-2.9294434.0625-1.2939453-.0613403-2.8479004.2859497-4.0539551.5599976.2399902 1.0900269.6899414 1.5999756 1.039917.3400269-2.4300528-.8799438-4.999999-2.9599609-6.2999258 1.1099854-.5400391 2.2299805-1.0700684 3.3399658-1.6201172-1.159973-.0300292-2.3200072-.0599364-3.4799803-.0899657zm-10.7700195-.7999267c2.2074318 0 4.4315414 1.211298 5.5900269 3.2800293.2496948.4084911-.3901405.815773-.6500244.369873-.9699707-1.7299805-2.9599609-2.8999023-4.9400024-2.8999023-.4850542 0-.4952966-.75-.0000001-.75zm-9.7056275 8.5412588c-.0078125.8765869.0731201 1.7562256.2275391 2.6186523-1.3813057-.6048279-1.3070526-2.2527695-.2275391-2.6186523zm13.8970947 11.3515625c-3.9433594 1.0703125-8.5097656-.4501953-10.8588867-3.6220703l-.1669922-.2333984c-1.2572021-1.8187256-2.276001-5.0200195-2.1124268-7.9910889 1.9939575-.394042 3.8813477-1.3076162 5.4168701-2.6263418.3999634.8601074.3499756 1.9200439-.1300049 2.749999 1.7399902-.25 3.4000244-1.0300283 4.7000122-2.20996.2799683 1.0999756.1099854 2.3200674-.4800415 3.2900381 1.3600464-.7199707 4.0400391-1.7000723 5.5700073-1.0100098.6400146.2900391 1.2700195 1.1098633 1.8099976 1.5599365.7369385.6209717 1.4797363 1.2393799 2.2189941 1.8546143.0676614 3.7233296-1.9846037 7.153389-5.9675292 8.2382813zm6.4620362-5.8842774c.2191925-.9799252.2256165-1.3663502.2441406-1.7191162.2202148-.1033936.5374756-.0296631.708374.180542.4445038.5510025-.0068931 1.5358353-.9525146 1.5385742z"/></g></svg>