<svg id="Layer_1" height="512" viewBox="0 0 512 512" width="512" xmlns="http://www.w3.org/2000/svg"><g><path d="m108.5 152.2h16.4c0-54.2 44.1-98.3 98.3-98.3v-16.4c-63.2 0-114.7 51.4-114.7 114.7z"/><path d="m452.5 178.6c-3.2-54.2-47.1-97.6-101.5-100-26.4-45.7-74.9-73.9-127.8-73.9-78.9 0-143.6 62.3-147.3 140.7-42.6 7.7-73.9 44.6-73.9 88.7 0 49.7 40.4 90.1 90.1 90.1h61.9l-43.4 73.5h74l-36.6 109.6 198.3-183.1h89.9c40.7 0 73.7-33.1 73.7-73.7.1-34.7-24.2-64.4-57.4-71.9zm-268.8 273.5 23.6-70.7h-68l96.8-163.9h78.6l-47.5 73.7h90.8zm252.6-144.2h-72.2l35.8-33h-102.7l47.5-73.7h-118l-63.1 106.8h-71.5c-40.7 0-73.7-33.1-73.7-73.7 0-38.1 28.5-69.6 66.4-73.4l7.4-1.1v-7.4c0-72.3 58.8-131.1 131.1-131.1 84.6 0 118 73.7 118 73.7h4.9c49.7 0 90.1 40.4 90.1 89.8v8.1s57.4 6.1 57.4 57.7c-.1 31.5-25.8 57.3-57.4 57.3z"/></g></svg>