<svg id="Layer_1" height="512" viewBox="0 0 512 512" width="512" xmlns="http://www.w3.org/2000/svg"><g><path d="m108.5 171.3h16.4c0-54.2 44.1-98.3 98.3-98.3v-16.4c-63.2 0-114.7 51.4-114.7 114.7z"/><path d="m452.5 197.7c-3.2-54.2-47.1-97.6-101.5-100.1-26.4-45.6-74.9-73.8-127.8-73.8-78.9 0-143.6 62.3-147.3 140.7-42.6 7.7-73.9 44.6-73.9 88.7 0 49.7 40.4 90.1 90.1 90.1h344.1c40.7 0 73.7-33.1 73.7-73.7.1-34.7-24.2-64.4-57.4-71.9zm-16.2 129.3h-344.2c-40.7 0-73.7-33.1-73.7-73.7 0-38.1 28.5-69.6 66.4-73.4l7.4-1.1v-7.4c0-72.3 58.8-131.1 131.1-131.1 88.4 0 118 73.7 118 73.7h4.9c49.7 0 90.1 40.4 90.1 89.8v8.1s57.4 8 57.4 57.7c-.1 31.6-25.8 57.4-57.4 57.4z"/><path d="m79.5 388.2h57.9v16.4h-57.9z" transform="matrix(.707 -.707 .707 .707 -248.493 192.827)"/><path d="m177.9 388.2h57.9v16.4h-57.9z" transform="matrix(.707 -.707 .707 .707 -219.695 262.351)"/><path d="m276.2 388.2h57.9v16.4h-57.9z" transform="matrix(.707 -.707 .707 .707 -190.897 331.876)"/><path d="m395.3 367.4h16.4v57.9h-16.4z" transform="matrix(-.707 -.707 .707 -.707 408.513 961.953)"/><path d="m133.1 433h16.4v57.9h-16.4z" transform="matrix(-.707 -.707 .707 -.707 -85.429 888.452)"/><path d="m231.4 433h16.4v57.9h-16.4z" transform="matrix(-.707 -.707 .707 -.707 82.412 957.975)"/><path d="m329.7 433h16.4v57.9h-16.4z" transform="matrix(-.707 -.707 .707 -.707 250.258 1027.5)"/></g></svg>