<svg id="Layer_1" height="512" viewBox="0 0 512 512" width="512" xmlns="http://www.w3.org/2000/svg"><g><path d="m288.8 297.1c-40.7 0-73.8 33.1-73.8 73.8s33.1 73.8 73.8 73.8 73.8-33.1 73.8-73.8-33.1-73.8-73.8-73.8zm0 131.2c-31.6 0-57.4-25.7-57.4-57.4s25.7-57.4 57.4-57.4c31.6 0 57.4 25.7 57.4 57.4s-25.8 57.4-57.4 57.4z"/><path d="m338 258.3v-207.1c0-27.1-22.1-49.2-49.2-49.2s-49.2 22.1-49.2 49.2v207.1c-44.4 19.4-73.8 64-73.8 112.6 0 67.8 55.2 123 123 123s123-55.2 123-123c0-48.6-29.5-93.2-73.8-112.6zm-49.2 219.2c-58.8 0-106.6-47.8-106.6-106.6 0-79.7 73.8-101.5 73.8-101.5v-218.2c0-18.1 14.7-32.8 32.8-32.8s32.8 14.7 32.8 32.8v218.2s73.8 22.7 73.8 101.5c0 58.7-47.8 106.6-106.6 106.6z"/><path d="m148.3 246.8h49.2v16.4h-49.2z" transform="matrix(.707 .707 -.707 .707 230.915 -47.554)"/><path d="m100.2 362.7h49.2v16.4h-49.2z"/><path d="m164.7 462.2h16.4v49.2h-16.4z" transform="matrix(-.707 -.707 .707 -.707 -49.125 953.283)"/><path d="m354.4 51.2h49.2v16.4h-49.2z"/><path d="m354.4 92.2h32.8v16.4h-32.8z"/><path d="m354.4 133.2h49.2v16.4h-49.2z"/><path d="m354.4 174.1h32.8v16.4h-32.8z"/><path d="m354.4 215.1h49.2v16.4h-49.2z"/></g></svg>