<svg id="Layer_1" enable-background="new 0 0 75 75" viewBox="0 0 75 75" xmlns="http://www.w3.org/2000/svg"><g id="Flying_Jump" fill="rgb(0,0,0)"><path d="m45.3578072 50.8398476c-2.2689705-.5080109-4.5341072-2.1760712-5.5665283-4.6439209-.2459717-.5843506-1.0661621-.6356201-1.394165-.0922852-2.4014473 3.9088211-7.1474094 4.9602203-10.8255596 3.2087402-.3587646-.1743164-.7996826-.0410156-1.0046387.2973022-2.6899757 4.3606453-3.0006084 9.7930946-1.0046387 14.003479.1229248.2870483.4202881.4613075.7279053.4613075 4.1416016.0102539 8.2114239-1.2199135 11.7275372-3.4342079 3.4200249-2.1500816 6.2330132-5.3279991 7.8834229-8.6317749.2459715-.4818114-.020508-1.0456542-.5433351-1.16864z"/><path d="m21.1696987 62.3736c1.0514431.2377205 2.0055218-.6705475 1.7939453-1.7041016-.8203125-3.9936523.2949219-8.4208984 2.9121094-11.5541992.8131561-.9732857.0443668-1.8061829-.4169922-3.4008789-.3035526-1.0394325-.6059685-1.212368-1.7070313-1.0795898-1.5710621.1398506-3.0495625.8116646-4.1328125 1.8662109-.3505859.3413086-.5205078.8183594-.453125 1.2753906.1044922.7202148.2568359 1.3510742.4658203 1.9291992.1230469.3413086-.0029297.6455078-.1611328.815918-.5531788.597744-1.5603848-.2115746-2.0410156-.8652344-.3373508-.4570541-.5345078-1.1190605-1.4013672-1.2529297-.4511719-.0678711-.8964844.0693359-1.2304688.378418-1.8525391 1.7172852-2.8759766 4.2583008-2.671875 6.6313477.3769532 4.3540039 5.8281251 6.2294922 9.0439454 6.9604492zm-5.8623047-13.0419922c.1705828-.1583977.3953686-.2198486.6064453-.1865234.4747791.0722504.5108242.4120598.9121094.9560547.4775391.6499023 1.0644531 1.1020508 1.7802734 1.3330078 1.1530437.322464 2.1416397-.8466301 1.7304688-1.9833984-.1914063-.5297852-.3320313-1.112793-.4287109-1.7822266-.0322266-.2207031.0556641-.4560547.234375-.6303711.6357422-.6191406 1.4375-1.0966797 2.3193359-1.3808594.7691936-.2478485 1.3373566-.2678032 1.5302734-.2949219.5748692-.0683594.5665073-.0608063.7460938.5620117.5012054 1.7184219 1.0290966 2.1498795.5615234 2.7104492-2.7597656 3.3041992-3.9355469 7.9736328-3.0703125 12.1855469.1043282.5107803-.3851185.9360771-.8935547.8217773-3.0166016-.6855469-8.1269531-2.4145508-8.4619141-6.293457-.1855468-2.1474609.7470704-4.4531249 2.4335938-6.0170898z"/><path d="m6.1765347 45.1553383c.6405845-.0176697 1.8560486-.7636261 2.3500977-1.1026001-.1401367 3.0617065.9072266 6.1796265 2.9057617 8.487854.3168745.3648262.8953943-.1113319.5664063-.4912109-2.0236816-2.3375244-3.0174561-5.5621338-2.678833-8.6496582.4203424-.4352875.6630211-.9528732.2530518-1.4006348-.2940006-.3212967-.736886-.3270721-1.7939453.0649414-.7450204.2561378-2.1210675.9204521-2.4980469 1.5825195-.403341.7043991-.0028435 1.5087891.8955077 1.5087891zm-.2451172-1.1367188c.0839844-.1469727.2441406-.2709961.4042969-.3833008 0-.0004883 0-.0004883 0-.0004883.5175781-.3647461 1.0849609-.6542969 1.6865234-.8613281.1016407-.0327988.8531008-.3322372 1.0068359-.2553711.0531549.397049-2.7932706 2.2920303-3.1259766 1.7929688-.0429687-.0634766-.0302734-.1889648.0283204-.2924805z"/><path d="m21.6932583 39.0570107.2156982 5.326355c.0218048.5002975.7687569.4668007.75-.0302734l-.2181396-5.387207c.6575317-.4399529.402071-1.676548-.1558838-2.199707-.40625-.3828125-1.0019531-.5068359-1.4785156-.3105469-.6484375.265625-.7412109.7001953-.7382813.9360352.0085659.7328871.9513683 1.4988668 1.6251221 1.6653441zm-.6016846-1.9075318s0 0 0-.0004883c.2250652-.0907516.5015087-.0044212.6796875.1635742.2587891.2426758.3847656.8291016.2685547 1.0141602-.1051712.1800079-1.2170982-.5131187-1.2216797-.9438477-.0009765-.1054687.1708985-.1914062.2734375-.2333984z"/><path d="m63.6295357 44.9502602-6.8143311 1.9101563c-.4748421.1338425-.2786636.8534279.203125.7226563l6.7591553-1.8956299c.0061035.0045776.0089111.0097656.0152588.0142822.2626305.1884117.6871529.1673965 1.0302773.1523438.5534134-.0258255 1.8950348.0561676 3.7226563-.5166016.2626953-.0825195.5654297-.1875.828125-.3925781.7601624-.592514.6239319-1.5792847-.1835938-1.9936523-.3632813-.1865234-.7470703-.1982422-1.0410156-.2021484-1.6009445.0146217-2.6079788.7025414-3.7167969 1.5136719-.0000001-.0000002-.7257844.5553358-.8028603.6874998zm4.5274696-1.4511719c1.0179977.0032539 1.1661072.5332298.7558594.8544922-.1640625.1279297-.3916016.2055664-.5917969.2680664-1.4946518.4690323-2.534729.4722519-3.7861328.4912109.0058594-.003418 1.7308121-1.5960197 3.6220703-1.6137695z"/><path d="m29.5953579 34.5918007c7.2656765 11.078064 6.8619213 10.8682251 7.2501202 10.8682251.2939034 0 .4780998-.3279877.3144531-.5791016l-6.9302959-10.6888428c.3965454-.6982803-.0446568-2.0433273-.177124-2.6973858-.1591797-.7700195-.4082031-1.6396484-1.0449219-2.2529297-.6621094-.6381836-1.8613281-.8666992-2.5908203-.1870117-.3984375.3706055-.59375.9609375-.5244141 1.5786133.1638908 1.4328366 2.25247 4.1153202 3.7030029 3.9584332zm-1.1072998-4.8099957c.6038132.5826797.7358818 1.4966221.9072266 2.1923828.2666016 1.0830059.3251953 1.7128887.171875 1.8720684-.0185547.0185547-.0839844.0205078-.1660156.0039063-.7119141-.1469727-1.5566406-.9428711-2.3183594-2.1845684 0-.0004883 0-.0004883 0-.0004883-.265625-.4331055-.4072266-.7875977-.4443359-1.1166992-.1369096-1.1995144 1.0893287-1.4969501 1.8496093-.7666016z"/><path d="m34.2653999 35.5620766c.7073631.4466057 1.7576447.4489784 2.3759766-.1362305.4868164.395752 1.0709229.6447754 1.7366943.7596436-.0585938.2034302-.0953369.4187622-.1347656.6326294-.8202972-.2860527-1.7672539.1377411-2.1947021.9338989-.831871 1.550312.2430573 3.7143555 2.2714844 3.7143555.0714111 0 .1431885-.0136108.2148438-.0197754 2.4102783 9.2315979 11.8926315 11.2621841 16.8671875 6.5515137 1.9986572-1.8837891 2.9412842-4.5182495 3.5899658-6.8897095 1.5042267 1.4464226 4.0870514-.2524185 3.0906982-2.3178101 2.3486137-.2011147 3.7183113-2.9929123 2.0146523-5.8076172-.4970741-.8339844-1.1777382-1.5244122-1.9267616-2.1767559 1.223896-.2973309 2.197361-1.5196228 2.2597694-2.7827148.0712891-1.465332-.8584023-2.9628906-2.3730507-3.8164063-.8779297-.4863281-1.8486328-.7294922-2.7558594-.8579102 1.1837273-1.1262321.850338-2.9413586-.3232422-4.0117188-1.5070496-1.3711872-4.853611-1.9189186-7.8847656-.3222656.0814819-.8649406-.3559227-1.8441696-1.09375-2.3901367-.8398438-.6303711-2.0068359-.878418-3.5693359-.7539063-1.0537109.0717773-1.9414063.2421875-2.7128906.5214844-.4597816.1663532-.220253.8700676.2558594.7050781 1.3995476-.5066319 4.2419052-.8756466 5.578125.128418.7508125.5563736 1.1093826 1.8010464.4726563 2.4707031-.3142548.3303108.1292343.8306332.4931641.5605469 2.7903442-2.0520191 6.4513359-1.7352524 7.9550781-.3652344.6201172.5644531.9287109 1.3798828.7861328 2.0776367-.1280518.6251831-.6724854 1.1278687-1.2520752 1.2160034-1.1860352-.1240234-2.3935547.229248-3.2928467 1.0120239-.3747749.3255863.1178436.891058.4921875.5654297 1.737175-1.5094242 5.2546921-.5832729 6.4853516.0986328 1.9424934 1.094593 2.7951775 3.540451 1.0302734 4.8618164-.4667969.3486328-.9892578.4746094-1.4775391.3569336-.3855858-.095314-.6351738.4024696-.3261719.6547852 1.0302734.8408203 1.9326172 1.6191387 2.5371094 2.6337872.6728554 1.1118164.8359413 2.3417969.4355469 3.2885742-.4042969.9453125-1.6064453 1.6938477-2.6123047 1.2802734-.4356308-.1765442-.7305222.4442177-.328125.6728516.5439453.3095703.7617188 1.0976563.4560547 1.6538086-.3017578.5546875-1.0859375.7973633-1.6386719.5068359-1.7134857-.8819389-.6483192-4.084446-.9014893-5.2407227-.3056641-1.3934326-1.506958-2.6340332-3.0057373-3.0185547-2.6519318-.6918068-4.7822456 1.1939049-4.8824463 1.2472534-.178257.1375008-.6310539.5128403-1.0266113.621582-1.0708504.293972-1.5005264-1.3781395-2.6153564-1.9606323-.6904297-.3496094-1.5966797-.2797852-2.4179688.1845703-.6711006.3625603-1.188694.9095802-1.7646484 1.3837891-1.7001076 1.4398117-4.7237587 2.240345-6.2880859.6254883-.1775703-.1837654-.4818535-.1390266-.6015625.0859375-.2695656.5130119-1.0996513.5428314-1.5996094.2265625-.5986328-.3730469-.9394531-1.0805664-1.2177734-1.7841797-.2802734-.7421875-.5742188-1.7080059-.3583984-2.5903301.1953125-.7265625.9228516-1.4301758 1.6699219-1.2705078.3777084.0803165.6117897-.3933697.328125-.6464844-.8193359-.7324219-1.3183594-1.7822266-1.3691406-2.8798828-.1691513-3.7477589 4.535202-5.2258854 6.9267578-2.9013672.3226509.3101501.8181-.1023407.5761719-.4731445-.9300423-1.4354572-.1939735-3.5210075 1.2871094-4.5361328.4103889-.2786427-.012619-.9002075-.421875-.6191406-1.5185814 1.0314903-2.2204666 2.8568687-1.96875 4.3378906-3.1517105-1.6340675-7.323555.3870335-7.1484375 4.2260742.046875 1.0195313.4208984 2.0039063 1.0488281 2.7988281-.7929688.2382813-1.4414063.9814453-1.6552734 1.777832-.2666016 1.090332.0654297 2.197752.3857422 3.0463848.3261715.8286135.7373043 1.6625979 1.5185543 2.1494143zm2.6572266 4.5009765c-.4316406-.5375977-.5234375-1.3789063-.2138672-1.9560547.15625-.2900391.4355469-.512207.7480469-.5942383.2436523-.0651245.486084-.0324097.6829834.0830078-.0803223.9962769-.0029297 2.0557251.2113037 3.1043701-.5500488.0096436-1.0877686-.2134398-1.4284668-.6370849zm10.0693359-6.9755859c.963623.5015945 1.5746536 2.7308578 3.4456787 1.9036865.9285851-.4106064 2.6696205-2.4227104 5.2349854-1.7528076 1.4013672.359375 2.4833984 1.6132813 2.5175781 2.9199219.0369987 1.0131531-.5417786 2.0604248.1121826 3.8273315.0415039.1127319.0742188.2287598.1260986.336731-.6189651 2.5532494-1.6384621 5.3372307-3.5410156 7.1303711-3.9938583 3.7820816-10.8950348 2.7209778-14.1816406-2.6835938-1.3996353-2.2851486-2.3402939-5.740303-1.5761719-8.5102539.3213463-.0237083.8819275-.003746 1.8048096-.2764893 1.0516739-.3100166 2.0567818-.873558 2.6990967-1.4173584.1660156-.1362304 2.1033783-2.1183433 3.3583984-1.477539z"/><path d="m46.6264839 40.4478798c.8640137-.109436 1.475708-.8986206 1.3662109-1.7626343s-.8986816-1.475647-1.7626953-1.3662109c-.8640137.1094971-1.475708.8986816-1.3660889 1.7626953.1093751.8640137.8985596 1.475647 1.7625733 1.3661499z"/><path d="m54.8160591 41.835392c.8640137-.1094971 1.475708-.8986816 1.3662109-1.7626343-.1094971-.8640137-.8986816-1.475708-1.7626953-1.3662109s-1.4755859.8986816-1.3662109 1.7626343c.1096191.8640136.8986816 1.475708 1.7626953 1.3662109z"/><path d="m45.7946968 43.4844398c-.3047485-.3908234-.896492.0658875-.59375.4589844 1.8978806 2.44907 5.2370491 3.2636757 8.0449219 1.9741211.4542236-.2082825.1319885-.8921852-.3125-.6816406-2.4915543 1.1439819-5.4533539.4228783-7.1386719-1.7514649z"/><path d="m40.7624702 27.6250668c-.2675781-.7734375-.0117188-1.7226563.6083984-2.2568359.3743515-.3240471-.1137428-.8934021-.4902344-.5683594-.8564453.7387695-1.1972656 2.0014648-.8271484 3.0703125.6438904 1.8594646 2.6644592 1.9418621 2.5644531 1.9038086.4859581 0 .5011597-.7278423.0175781-.7495117-.8173827-.0375977-1.6054686-.6264649-1.8730468-1.3994141z"/><path d="m34.2673531 18.8047543c.4140816 0 .5200958-.5762215.1347656-.7250977-.3027344-.1166992-.5410156-.2285156-.71875-.3959961-.5660133-.5343857-.0209351-1.0763798.7255859-1.0126953.7490234.0595703 1.4638672.5893555 1.7392578 1.2880859.1803398.4625568.8794098.1858025.6972656-.2753906-.3818359-.9697266-1.3369141-1.6772461-2.3759766-1.7607422-1.5329628-.1182232-2.3524475 1.3154926-1.3007813 2.3061523.3525964.3330727.9576227.5756837 1.098633.5756837z"/><path d="m37.9333687 16.5532894c.4107285.2717113.8274422-.3526096.4121094-.6259766-1.6503906-1.0878906-2.8847656-2.809082-3.3847656-4.7226563-.12883-.4813652-.8503494-.2893562-.7265625.1894531.5468749 2.0903322 1.8955077 3.9711915 3.6992187 5.1591798z"/><path d="m39.6101265 13.7241879c-.5478516-.4936523-.7822266-1.3027344-.5839844-2.0136719.132618-.4757891-.5862312-.6819849-.7226563-.2021484-.2734375.9790039.0498047 2.0932617.8046875 2.7734375.3669816.3317909.8714295-.2255593.5019532-.5576172z"/></g></svg>