<svg id="Layer_1" height="512" viewBox="0 0 512 512" width="512" xmlns="http://www.w3.org/2000/svg"><g><path d="m373.6 165.9h54.4v16.4h-54.4z"/><path d="m337.9 355v-156.4h-16.4v156.4c-27.7 4-49.2 27.9-49.2 56.7 0 31.6 25.7 57.4 57.4 57.4 31.6 0 57.4-25.7 57.4-57.4 0-28.9-21.4-52.7-49.2-56.7zm-8.2 97.6c-22.6 0-41-18.4-41-41s18.4-41 41-41 41 18.4 41 41c0 22.7-18.4 41-41 41z"/><path d="m370.7 322.4v-279.4c0-22.6-18.4-41-41-41s-41 18.4-41 41v70.3l-37.9 37.9c-3.4-2.2-7.2-3.8-11.3-4.7v-46.5l40.5-40.4-11.6-11.6-28.8 28.8v-42h-16.4v42.1l-28.8-28.9-11.6 11.6 40.4 40.4v46.5c-4.9 1.1-9.3 3.2-13.3 6.1l-34.3-34.3v-57.2h-16.4v40.8l-29.7-29.7-11.5 11.6 29.7 29.7h-40.8v16.4h57.2l35.1 35.1c-1.5 2.8-2.8 5.8-3.5 9.1h-51.3l-40.4-40.5-11.6 11.6 28.8 28.8h-37.3v16.4h37.3l-28.8 28.8 11.6 11.6 40.4-40.4h51.3c.9 4.1 2.5 7.8 4.7 11.2l-36.3 36.4h-57.2v16.4h40.8l-26.4 26.4 11.6 11.6 26.4-26.4v40.8h16.4v-57.2l36.3-36.3c3.4 2.2 7.2 3.8 11.3 4.7v51.3l-40.4 40.4 11.6 11.6 28.8-28.8v37.3h16.4v-37.3l28.8 28.8 11.6-11.6-40.4-40.4v-51.3c3.2-.7 6.2-2 9.1-3.5l40.1 40.1v67.8c-35 16-57.4 50.5-57.4 89.3 0 54.2 44.1 98.3 98.3 98.3s98.3-44.1 98.3-98.3c0-38.9-22.4-73.3-57.4-89.3zm-81.9-185.9v37.6h-21.6c-.9-4.1-2.5-7.8-4.7-11.2zm-57.4 66.1c-11.2 0-20.3-9.1-20.3-20.3s9.1-20.3 20.3-20.3 20.3 9.1 20.3 20.3c.1 11.2-9.1 20.3-20.3 20.3zm29.7 1.1c2.8-3.9 4.9-8.4 6.1-13.3h21.6v40.9zm68.6 289.9c-45.2 0-81.9-36.8-81.9-81.9 0-60.6 57.4-78.3 57.4-78.3v-290.4c0-13.6 11-24.6 24.6-24.6s24.6 11 24.6 24.6v290.4s57.4 17 57.4 78.3c-.1 45.2-36.9 81.9-82.1 81.9z"/><path d="m387.1 67.5h41v16.4h-41z"/><path d="m387.1 116.7h24.6v16.4h-24.6z"/><path d="m387.1 215h24.6v16.4h-24.6z"/><path d="m387.1 264.2h41v16.4h-41z"/></g></svg>