<svg id="Layer_1" enable-background="new 0 0 75 75" viewBox="0 0 75 75" xmlns="http://www.w3.org/2000/svg"><g id="Flying_Kite" fill="rgb(0,0,0)"><path d="m15.9044828 47.7305946c.039917.960022.4000235 1.960022 1.170043 2.5300293.9099121.6699829 2.1499023.6099854 3.2700195.4299927 3.0975647-.4738464 6.1197624-1.6069756 8.8099365-3.2900391 1.9310188-1.2358017 2.0169258-2.1161232 1.3599854-3.8299561-1.2299805-3.1700439-2.4499512-6.3500366-3.6600342-9.5200195-.3099365-.7999878-.7099609-1.7000122-1.5198975-1.9799805-.0200195-.0200195-.0400391-.0200195-.0600586-.0300293-1.6474495-.492363-2.6593742 1.7700195-7.0400391 1.7700195-.2700195-.0100098-.5400391-.0300293-.7900391-.0900269-.4699707-.1099854-.8898926-.0999756-1.25.3099976-.3099356.3600464-.4099112.8699951-.3698721 1.3500366.1244125 1.2210083.9268541 2.4657974.7299795 5.4199829-.0700684.9500122-.0900879 1.9000244-.1700439 2.8499756 1.6700439-.2299805 3.2700195-.8299561 4.6900635-1.7199707.0618896-1.4838181 1.4897022-2.3153267 2.5599365-1.8499756.7000732.2999878 1.1099854 1.1799927.8099365 1.8799438-.2399902.5599976-.8399658.8900146-1.4399414.9700317-.5200195.0800171-1.3599854.1199951-1.7299805-.2600098-1.5989876.986824-3.4330044 1.5794182-4.9699707 1.75-.0200195.0100098-.0300293.0100098-.0500488.0100098h-.0400391c-.4220285 0-.50383-.5784874-.1499023-.7200317-2.29809-.3022881-2.9454193-1.9795914-2.8465567-1.8795776-.7614298-1.7904205.4691067-3.6743774 1.4707031-5.1450195.2809734-.4097519-.3425426-.8321228-.6191406-.421875-.5654297.8295898-1.1494141 1.6879883-1.5068359 2.6728516-1.0771322 2.9689522.6660776 5.3479462 3.7318106 5.5536499-.2066039 1.3416711-.3900136 1.8439714-.3900136 3.2399903z"/><path d="m41.7124672 54.4651527c.5975227.3488541 1.3907318.0900879 1.6968994-1.0452881.8142242-3.0205498-1.0589638-6.4338493-2.3251953-3.8647461-.3553467.7175903-.4996338 3.1146851.1092529 4.3052368-2.4221191.9521484-5.2381592.914978-7.6190186-.1358032-.118042-.0522461-.2476807-.0314941-.350708.0345459 1.2982025-.9887238 2.375782-1.4297752 1.4093018-2.7254639-1.5597916-2.1171951-1.3476143-1.7647133-1.7138672-2.3510742-.970953-1.5476227-1.5908375-1.9793854-2.9052753-.7104492-.4520988.4373589-1.2362938.9869308-1.7626953 1.3222656-3.2447319 2.0633316-7.3431644 3.0335045-11.3066406 2.3901367-.2011719-.0351563-.3964844.1054688-.4296875.3095703-.3291016 2.0053711-.3496094 4.043457-.0595703 6.0581055.1574421 1.0951347.7394543 1.3900642 1.8603516 1.2348633l5.7890625-.7993164c.9946651-.1377487 1.268322-.5764275 1.2060547-1.4135742l-.1933594-2.7373047c3.8336334 2.2971268 3.9316368 2.6036377 4.9287109 1.8461914l3.1085224-2.3712158c-.1917992.1993904-.1082497.4993629.1170654.5992432 2.5774841 1.1370163 5.6955986 1.2153168 8.4407959.0540771zm.0435791-4.5775146c.2119141-.4287109.3535156-.4682617.3525391-.4682617.2909698.043335 1.099205 1.8713493.5761719 3.8051758-.0849609.3149414-.2587891.6333008-.4589844.6357422-.8369065-.1236344-.8368988-3.2302552-.4697266-3.9726563zm-12.1640644 5.6987305c-.3383389.2564392-.4146729.3055801-.9248047-.0009766-3.8645039-2.2237892-3.8184166-2.4740334-4.1708984-2.2587891-.1191406.0732422-.1875.2060547-.1777344.3457031.2584152 3.6516304.2949677 3.7550926.2070313 3.8876953-.0820313.1235352-.3691406.1630859-.5244141.1845703-6.0057278.8047409-6.3715172.9932213-6.6435547.6992188-.2803326-.3001556-.5253735-3.4282265-.1591797-5.9628906 4.6244812.6333733 9.4665508-.7787361 13.0390625-3.6962891.0908203-.0737305.1904297-.1699219.296875-.2729492.7638664-.7367897.8838692-.8128433 1.7490253.5693359.4159431.6612434.2472115.3621979 1.7480469 2.4003906.3219604.4318962.2930603.4970779-.0791016.7788086z"/><path d="m27.866396 33.472599c-.4791222-.1446609-.6952152.5678825-.2246094.7158203 3.115242.9740906 6.6179371.3700714 9.2479267-1.5800171.2154617.0769386.4379387.0716209.5704346.0907593 2.557827.3727303 3.7638817-.8178883 3.8084717-2.1201172 5.5391731-2.0705032 10.2531548-6.1562824 12.9997559-11.9517822 3.5461426 1.0549927 6.8432617 3.0702515 9.385498 5.7971802-.7231064.0302086-1.6748848.2452908-2.1380615.802063-.2734375.3261719-.3652344.753418-.2402344 1.1132813.3236351.9524117 1.9341431 1.138649 3.0391808-.0759888.1560287.9879646-.4389267 1.8012753-1.2012901 2.0945435-.8788643.3396206-2.0856056.0636902-2.9990234.815918-.484375.3984375-.8056641 1.171875-.4472656 1.8203125.4240875.7662678 1.5123711.8288822 1.6728516 1.3198242.2122841.6456299-1.098671 1.2753983-4.0771484 3.5175781-.3986816.2914314.0395622.8980751.4433594.6054688l3.3417969-2.4414063c.8740234-.6391602 1.2128906-1.2836914 1.0048828-1.9155273-.2931862-.8962173-1.4501152-.9437027-1.7294922-1.4487305-.1542969-.2797852.0185547-.6738281.2675781-.878418.6507301-.5368042 1.8649826-.3360939 2.7929688-.6953125 1.1052132-.4256763 1.9460564-1.6318436 1.6430626-3.0560303 2.5041122 1.4993572 3.9578934-.9269981 2.6420898-2.2706299-.5569992-.5655079-1.5241394-.7942715-2.5218506-.2672729.2297363-4.8928833-.8811035-9.9356689-3.2681847-14.6936646-.0361328-.0727539-.0947266-.1313477-.1679688-.1674805-3.9306642-1.961914-7.8740236-3.0991211-12.0546877-3.4755859-.2605286-.0300608-.4801559.2363663-.3867188.4975586 1.3291016 3.7871094 1.6660156 7.8774414.9736328 11.828125-.0387459.2151375.1158829.4166737.3310547.4379883.9946289.1004639 1.9796143.2980957 2.9527588.548584-2.6580772 5.5166836-7.1467438 9.3841553-12.380127 11.3807373-.0007324-.0015869-.0006104-.003418-.0013428-.0050049-.7729568-1.7540131-3.7195358-1.4642639-4.4189453 1.4702148-.0919266.4039955-.2177887.4332123-.2470703.6855469-.0001221.0016479.0006104.0025024.0003662.0041504-2.4346923 1.8245239-5.7128924 2.4060058-8.6136492 1.4973144zm34.1181659-7.3764648c-.0380859-.1108398.0039063-.2666016.1064453-.3886719.3354988-.4022884 1.3546028-.5649681 1.7947998-.5169678.0052414.0847511.0249825.1500854.1019287.2595825-.5761871 1.010479-1.8409194 1.1176129-2.0031738.6460572zm3.8300743-2.1132813c0-.0004883.0009766-.0004883.0009766-.0004883.474617-.1495361 1.0048828-.0437717 1.3183594.2739258.3066406.3139648.3554688.8588867.1044922 1.1669922-.2851563.3481445-.8535156.3740234-1.2714844.2177734-.3308105-.1230469-.7054443-.3522949-.9420166-.5546875.0246582-.2250977.0323486-.4523926.0510254-.6782837.2077636-.173706.4882812-.3464965.7386474-.4252319zm-1.4451904.0615235c-.0087891.0096436-.0159912.0201416-.0245361.0299683-1.8310661-2.2113667-5.5886574-4.8657837-9.7509727-6.1296387.8258057-1.8939819 1.3953857-3.897522 1.7033691-5.9330444 1.6075439 1.9013062 3.0239258 3.9639893 4.1901855 6.1625977.2304306.434145.8963242.0875931.6621094-.3515625-1.2418213-2.3411255-2.756958-4.5349731-4.4866943-6.5441284 1.5131836-1.0148926 3.1558838-1.6185913 4.7537842-1.7295532 2.2769775 4.7131346 3.2940635 9.6903685 2.9527549 14.4953612zm-8.2036095-13.3330078c-1.5401611-1.7148438-3.248291-3.2750854-5.0892334-4.6613159 3.2574463.4451904 6.3840332 1.3817139 9.4925537 2.8411255-1.5.2410888-3.0072021.8689575-4.4033203 1.8201904zm-5.8627929-4.3043824c1.9042969 1.3994751 3.6655273 2.9907227 5.2492676 4.7457275-.2070313.1594849-.4133301.3210449-.6136475.4951782-1.5308838 1.3301392-2.729126 2.930603-3.7509766 4.4431763.3621826-3.2493285.0594483-6.550537-.8846435-9.684082zm1.0217285 10.8286133c1.09375-1.6697388 2.395752-3.5358887 4.1060791-5.0213013.0280762-.0244141.0577393-.0453491.0859375-.069458-.3133545 1.9251709-.868042 3.8172607-1.6590576 5.6069946-.8356934-.2214965-1.6799317-.4008178-2.532959-.5162353zm-13.8675537 14.2189331c.501339-2.1446171 2.5105057-2.4469719 3.0029297-1.3364258.3285904.7457218-.2879295 1.7819805-1.7314453 1.8989258-.5284042.0442924-.9125023-.0375614-1.4296875-.0854492.0792503-.1495571.0995178-.2235393.1582031-.4770508z"/><path d="m7.8019438 30.9232826c1.3311262 2.9815636 4.4980183 1.8955498 7.4648438.7685547.1036377-.0392456.1722412-.1270752.2093506-.2287598 3.3178625 1.8733177 7.5216513.9016075 9.8735342-1.6660767.0803223-.0126953.1611328-.0374756.2198486-.1022339.1746578-.1881466 1.1014366-.0079899 1.5205078-.0405273 2.0269585-.1890144 3.7957039-.8808861 4.7558594-2.6669922 1.8535175-3.4663086-1.7382813-8.3286133-2.4765625-9.2685547-.9912109-1.2607422-2.2070313-2.2783203-3.5107422-2.9399414-.9306641-.4868164-1.9130859-.7138672-2.7802734-.9135742-.4761276-.1201553-.657156.6182156-.1679688.7304688.8222656.1899414 1.7558594.4052734 2.6044922.8496094 4.9303684 2.5009403 10.041647 12.6658783 1.5068359 13.4619141-.1712379.0155678-.4875412-.0299435-.796875-.0454102 1.3883381-2.0562553 1.5606079-4.5244446.7900391-6.6049805-.6473389-1.6906395-1.4520702-2.1801662-1.8457031-3.2584839-.3455753-.8909664-.8069725-.794714-.9794922-.7503052l.0009766.0009766c-.8924332.2337322-1.1153736 1.3194675-2.8886719 1.7060547-1.0644531.2392578-2.4638672-.2280273-2.7675781-1.2875977-.1272221-.4429665-.7786236-.3069611-.7333984.1396484.1286335 1.3140774-1.5401611 2.5816574-3.4833975 2.1196289-.7158203-.1713867-1.2060547-.2636719-1.4726563.0029297-.4770222.4570904.112359 1.3006077.1611328 1.5810547.2317209 1.2208805-.3740215 2.3398952-1.3408203 2.90625v.0009766c-.1922035.1238422-.6065931.1930809-.515625.5786133.4755859 2.0126953 1.6376953 3.8847656 3.2304688 5.2285156-2.5761719.9599609-4.9277344 1.5546875-5.8925781-.6064453-.7721014-1.7408085-.2897654-3.4551411-.2080078-5.3686523.0202503-.8385391-.1201172-1.6141281-.1201172-2.4140625-.0361328-2.8759766 1.8583984-5.8564453 4.7128906-7.4150391 2.6601563-1.4321289 6.1240225-1.8745117 8.8222647-1.1289063.478693.1303368.6776428-.5907984.1992188-.7226563-2.8730469-.7954102-6.5556631-.3271484-9.3789053 1.1923828-3.1416016 1.715332-5.1455078 4.8881836-5.1054688 8.0791016 0 1.6128464.2613263 1.2098904.0126953 3.7431641-.1367189 1.4023438-.279297 2.8525391.3798827 4.3393555zm5.5996094-9.4101562c.354104.0245667.9086056.203083 1.1767578.2314453.7011719.0488281 1.2763672-.0024414 1.7910147-.1635742.8349609-.2426758 1.6513672-.8979492 2.0048828-1.7416992.7548828.7861328 2.03125 1.0864258 3.0908203.8476563 1.6428604-.3581371 2.1923161-1.2560482 2.7370605-1.6196289.1016846.0862427.2044678.1711426.2928467.2664185.4226456 1.1364784 1.1260509 1.4966888 1.8040771 3.1168823 0 .1356049 1.0573692 3.3142052-.9902344 6.2128906-1.9150391 2.6948242-5.78125 3.7841797-8.8066406 2.4824219-2.1414785-.9155273-3.7731924-2.9605103-4.2265615-5.2480469 1.385849-.9709016 2.0019636-2.7844049 1.1259766-4.3847657z"/><path d="m16.5460835 69.4389038c.5650959.3905334 1.8362904.4360352 2.5253906.4360352 1.0234375 0 2.0527344-.1342773 3.0341797-.3989258 1.0882816-.2937241 1.3057957-1.3089676.036499-1.8838501-.0904102-.3105774-1.8766479-3.3198776-2.3031006-7.9428062-.0451374-.4988899-.7925434-.4218864-.7460938.0693359.239624 2.6068115.9772949 5.2055626 2.1038818 7.5753136-.973938-.1976242-2.4037933.0024643-3.6068115.0579834-.2509766.0112305-.5351563.0244141-.8125.1259766-.9432344.3456878-1.0144739 1.4207076-.2314452 1.9609374zm1.078125-1.3378906c.4077225-.033638 2.2496815-.173027 3.0488281-.1289063.3925781.0214844 1.3007813.2529297 1.5791016.6113281-.0304699.1904449-2.3205662.7380066-4.5371094.4560547-.2539063-.0322266-.5410156-.0786133-.7431641-.2177734-.1523438-.1054688-.2421875-.284668-.2050781-.4082031.0866279-.2778015.5693817-.2994614.8574219-.3125z"/><path d="m22.8801899 23.5091591c.5013428-.0021973.9060059-.4105225.9038086-.9119263-.0023193-.5013428-.4106445-.9060059-.9119873-.9037476-.5013428.0021973-.9060059.4105225-.9036865.9119263.0021972.5013428.4104004.9060059.9118652.9037476z"/><path d="m16.8718891 25.9176674c.5014648-.0021973.9060059-.4105225.9038086-.9118652-.0021973-.5014038-.4104004-.9060669-.9118652-.9038086s-.9060049.4105225-.9038076.9119263.4105214.9060058.9118642.9037475z"/><path d="m17.9552631 28.3593178c.8436737.3824272 1.7037735.7104492 2.6386719.7104492 1.4740295 0 2.5128059-.8607006 2.9042969-1.949707 0 0 0-.0004883.0009766-.0004883.2565975-.7179775.2659721-2.170908-.4082031-2.3886719-.1923828-.0625-.3964844.0375977-.4658203.2246094-.2554703.6706123-.1648006 1.0058994-1.4257813 1.6762695-2.4188251 1.2826748-3.3677616.7074165-3.4599609 1.3325195-.0244141.1650391.0644531.3261719.2158202.3950196zm4.9609375-2.1523438c-.0423126 1.4023991-1.3436356 2.570118-3.4863281 1.9248047 1.0665665-.2882995 2.8629208-1.0060978 3.4863281-1.9248047z"/><path d="m13.1105375 16.8290443c-1.5458984 1.0390625-2.5927734 2.8388672-2.7324219 4.6972656-.0374308.494791.7109175.5556774.7480469.0556641.1220703-1.6337891 1.0429688-3.2167969 2.4023438-4.1308594.171875-.1152344.2177734-.3486328.1025391-.5205078-.116211-.1723632-.3515626-.2172851-.5205079-.1015625z"/><path d="m28.6671772 23.601017c.0445709.4952316.7900448.4290161.7480469-.0644531-.1875-2.1782227-1.2675781-4.21875-2.9638672-5.5976563-.3824425-.3124847-.8594398.2679138-.4726563.5820313 1.5166016 1.2329101 2.5214844 3.1318359 2.6884766 5.0800781z"/><path d="m9.4279203 50.1024818c.6132813-.2749023 1.4023438-.168457 1.9189453.2612305.3801823.3164253.8608789-.2592964.4785156-.5771484-.7392578-.6132813-1.8261719-.7612305-2.7050781-.3681641-1.5792232.7101669-1.3082852 2.8038445 1.0029297 2.4916992.4939747-.0670395.3886404-.8166962-.1015625-.7431641-.4054861.0551682-.9911871.0799561-1.1269531-.3051758-.09375-.2641601.2060547-.6123046.5332031-.7592773z"/><path d="m6.953311 45.4276772c-.1503906.1420898-.1572266.3793945-.0146484.5302734 2.3121681 2.4444122 5.3656912 2.537281 5.265625 2.5097656.4779043 0 .5052662-.7102661.0302734-.7485352-1.7880859-.1445313-3.5195313-.9741211-4.7509766-2.2768555-.1435547-.149414-.3798828-.1562499-.5302734-.0146483z"/><path d="m12.2833891 45.4071693c-.6416016-.1518555-1.1738281-.6850586-1.3242188-1.3276367-.115591-.4859543-.8423576-.3104553-.7304688.1708984.2138672.9130859.9707031 1.6708984 1.8828125 1.8862305.1970186.0475578.4026136-.0742607.4511719-.2783203.0468751-.2016601-.0771484-.4038086-.2792968-.4511719z"/></g></svg>