<svg id="Layer_1" height="512" viewBox="0 0 512 512" width="512" xmlns="http://www.w3.org/2000/svg"><g><path d="m280 383.8-11.6-11.6-23.1 23.1h-13.9v-13.9l23.1-23.1-11.6-11.6-11.5 11.5v-12.1h-16.4v12.1l-11.5-11.5-11.6 11.6 23.1 23.1v13.9h-13.9l-23.1-23.1-11.5 11.6 11.5 11.5h-12.1v16.4h12.1l-11.5 11.5 11.5 11.6 23.1-23.1h13.9v13.9l-23.1 23.1 11.6 11.6 11.5-11.5v12h16.4v-12l11.5 11.5 11.6-11.6-23.1-23.1v-13.9h13.9l23.1 23.1 11.6-11.6-11.5-11.5h12.1v-16.4h-12.1z"/><path d="m116.1 424.8-11.6-11.6-23 23.1h-14v-13.9l23.1-23.1-11.5-11.6-11.6 11.5v-12.1h-16.3v12.1l-11.5-11.5-11.6 11.6 23.1 23.1v13.9h-13.9l-23.1-23.1-11.6 11.6 11.5 11.5h-12.1v16.3h12.1l-11.5 11.5 11.6 11.6 23.1-23.1h13.9v13.9l-23.1 23.1 11.6 11.6 11.5-11.5v12.1h16.3v-12.1l11.6 11.5 11.5-11.6-23.1-23.1v-13.9h14l23 23.1 11.6-11.6-11.5-11.5h12.1v-16.3h-12.1z"/><path d="m443.9 424.8-11.6-11.6-23.1 23.1h-13.9v-13.9l23.1-23.1-11.6-11.6-11.5 11.5v-12.1h-16.4v12.1l-11.5-11.5-11.6 11.6 23.1 23.1v13.9h-13.9l-23.1-23.1-11.6 11.6 11.5 11.5h-12.1v16.3h12.1l-11.5 11.5 11.6 11.6 23.1-23.1h13.9v13.9l-23.1 23.1 11.6 11.6 11.5-11.5v12.1h16.4v-12.1l11.5 11.5 11.6-11.6-23.1-23.1v-13.9h13.9l23.1 23.1 11.6-11.6-11.5-11.5h12.1v-16.3h-12.1z"/><path d="m452.1 147.2c-5.4-77.3-68.9-137-147-137-39.4 0-77.4 16.1-105.1 44.2-8.5-2.1-17.3-3.2-26-3.2-53.8 0-99 40.5-105.6 93.3-38.8 10.5-66.4 46.1-66.4 86.9 0 49.7 40.4 90.1 90.1 90.1h178.4c20.1 25.7 51.2 41 83.8 41 33.8 0 65.6-16.1 85.7-43.3 40.8-9.3 70-45.7 70-87.8 0-37.7-23-70.9-57.9-84.2zm-18.4 156.6-3.3.6s-27.7 41.7-76 41.7c-48.7 0-75.6-41-75.6-41h-186.7c-40.7 0-73.7-33.1-73.7-73.7 0-35.1 24.9-65.5 59.3-72.3l6.2-1.2.4-6.3c3.1-47.1 42.6-84.1 89.8-84.1 17.9 0 31.1 5.4 31.1 5.4s37.8-46.4 100-46.4c71.1 0 128.6 55.7 130.9 126.8l.2 5.8s57.4 15.8 57.4 72.2c-.1 35.5-25.3 65.9-60 72.5z"/><path d="m297 51.2v16.4c54.2 0 98.3 44.1 98.3 98.3h16.4c0-63.3-51.5-114.7-114.7-114.7z"/></g></svg>