<svg id="Layer_1" enable-background="new 0 0 75 75" viewBox="0 0 75 75" xmlns="http://www.w3.org/2000/svg"><g id="Flying_Plane" fill="rgb(0,0,0)"><path d="m57.8267632 21.5501556c-.6008301-.2294922-1.2026367-.1152344-1.3441772.2553711-.1415405.3703613.2307739.8569336.831665 1.0864258.6008301.2294922 1.2026367.1152344 1.3441772-.2553711.1415405-.3703613-.230835-.8569336-.831665-1.0864258z"/><path d="m52.696209 20.7671967c.6305542.126709 1.2051392-.0854492 1.2834473-.4743652.0782471-.388916-.3694458-.8068848-1-.9338379s-1.2051392.0854492-1.2834473.4741211c-.0782471.3889159.3694458.8071288 1 .934082z"/><path d="m57.2510796 24.7222748c-1.0424805.4570313-2.2519531.4902344-3.3173828.0839844-1.8805046-.7166481-2.1803284-2.4894199-2.8886719-2.5976563-.8729897-.149931-1.100235 1.4207249-1.2099609 2.2470703-.3946304 2.935318 2.1539001 4.3478603 4.6035156 3.3867188 1.3320313-.5234375 2.3427734-1.5830078 3.2348633-2.5185547.2796516-.2929707-.0435753-.7651806-.4223633-.6015625zm-3.0864258 2.4228515c-1.0195313.3984375-2.4794922.3173828-3.1801758-.6240234-.4936523-.6640625-.4663086-1.5166016-.4033203-1.9853516.1289063-.9716797.2651367-1.3515625.3623047-1.5068359.8099556 1.1643143 1.4116364 1.9791775 2.7236328 2.4785156.7910156.3017578 1.6503906.3984375 2.4814453.2890625-.590332.5527344-1.2421875 1.0566407-1.9838867 1.3486328z"/><path d="m67.6937637 15.6761322c-1.0521698-.504509-1.3618851-.0340738-1.2199707-.630127.1599731-.6599121.2599487-1.2199707-.0500488-1.869873-.5561142-1.1276932-2.0012054-1.9855375-4.2799644-1.5300293-.6699829-1.6401367-2.3400269-2.8200684-4.0999756-2.8999023-1.7800293-.0700684-3.5400391.9599609-4.3500366 2.5297852-2.0056076-1.5095034-4.9559975-.3888817-5.4199829 2.130127-.1500244.8100586.0200195 1.6799316.1300049 2.4699707.0137939.0966797.2568359.9257813.5240479 1.3349609-.6464233.8413086-1.1879883 1.7995605-1.5786133 2.8217773-1.3925781 3.6367188-.9501953 8.2373047 3.1777344 10.3154297 3.3810425 1.7026253 8.0295029.9205647 11.1613159-1.1435547 1.1674347.9944973 2.8899956.1742458 2.9029503-1.2954102 2.1317215-.2150154 3.8526154-2.160553 3.4525757-4.5332031-.0700073-.4399414-.3500366-.8300781-.4200439-1.2399902-.0700073-.3400879-.1599731-.1799316.0300293-.4299316.1199951-.1601563.5199585-.2700195.6900024-.3999023 2.0870131-1.6338312 1.619026-4.6221735-.6500246-5.6301271zm-12.5200157-3.3601074c1.2700195-.9899902 3.1300049-1.1298828 4.5200195-.329834.1799927.1098633.25.3398438.1400146.5197754-.1000366.1801758-.3300171.2402344-.5100098.130127-1.1400146-.6499023-2.6500244-.5400391-3.6900024.2700195-.0700073.0500488-.1500244.0800781-.2299805.0800781-.1099854 0-.2200317-.0500488-.2999878-.1501465-.120056-.1599121-.0900267-.3999023.0699464-.5200195zm-4.3098755 17.3623047c-3.7089844-1.8681641-4.0859375-6.0556641-2.8144531-9.3779297.5952225-1.5560646 1.3658943-2.6061974 2.3083496-3.5825195 3.1261292-1.4890852 6.8162766.1079273 9.6575317-1.0449219.2301636.1247559.4547729.2583008.6747437.4006348-.0458984.2473145-.2030029.5249023-.2462769.7224121-.4887047 2.4440098 1.4986763 4.3472481 2.6799927 6.1501465.480957.7375488.8843956 1.5820313 1.027401 2.4462891-2.1673431 4.5553855-9.2336464 6.3273524-13.2872887 4.2858886zm12.2285157-.8164063c-.2497559.0671387-.5273438.0175781-.7567139-.1108398.5793533-.4497375.9224472-.7512264 1.4006958-1.3251953.1021118.2089843-.0717774 1.2902412-.6439819 1.4360351z"/><path d="m53.847271 54.1470795c-.2006836-.0175781-.3876953.1367188-.4057617.3417969l-.9089355 10.4929199c-1.2338867-.0432129-2.5061035-.0754395-3.661377.708252-1.0657196.72258-.8648987 1.9019852-.0058594 2.3642578.7769165.4131088 3.0860291.3540573 4.9057617-.9833984 1.0076752-.741478.5559158-1.9204483-.4888916-2.0541992l.9063721-10.4633789c.0180664-.2060548-.1347657-.3876954-.3413086-.4062501zm-.2636719 11.9140625c.0087891.046875.0371094.1894531-.2568359.40625-1.616169 1.1860504-3.6477814 1.172081-4.1069336.9257813-.39674-.2143173-.4928741-.6988907.0722656-1.0820313 1.0674248-.7233887 2.2817459-.6103592 3.6508789-.5664063.1591797.0039063.309082.0078125.4291992.0644531.0883789.0419922.1894531.1416016.2114258.2519532z"/><path d="m65.3672256 62.4097748-4.3768883-8.9472656c-.2198982-.4492531-.8901176-.1141243-.6738281.3300781l4.1513023 8.4863281c-1.5129623.1762695-2.9090996.292675-4.0150719 1.3232422-.9450417.8839798-.5573654 2.015564.3569336 2.3359375.7713585.2720184 3.0486259-.0663223 4.6967735-1.7246094.6924745-.6986847.4513704-1.4715614-.1392211-1.8037109zm-.3930053 1.274414c-1.421608 1.4323349-3.4218445 1.7227173-3.9160118 1.546875-.4086151-.1452332-.6102257-.598671-.09375-1.0800781.8525391-.7949219 1.9052734-.9238281 3.1245079-1.0722656.3909454-.0440865.5526428-.0806923.7410278-.0595703l.0119019.0244141c.0629272.1286621.1908569.2019043.3253784.206543.0177612.0490722.0562744.1833495-.1930542.4340819z"/><path d="m38.1158867 32.6326752c-.1326027-1.200592-1.5583229-3.0070496-2.9385376-3.2746582-2.4571915-.4693508-3.2854557 3.3122902.5869141 3.9765625.7511253.1328926 1.4644089.4476929 2.0151367.0905762 2.178772 2.9147949 5.423584 5.0144043 9.0063477 5.7785645.0989609.0183258.1685677.0065346.2747192-.0615234l.151062 2.7285156c.026989.5201416.7749214.4364357.7490234-.0410156l-.3251343-5.8725586c2.7392006 1.405674 5.8259773 2.0729256 8.9276733 1.8334961.206543-.0166016.3608398-.1972656.3447266-.4033203s-.1933594-.3652344-.4033203-.3447266c-3.0887451.2402344-6.2084351-.4865723-8.9182129-1.9731445-.0630493-1.1281853-.1478691-2.1131783.0471191-2.2709961.5277977-.410511 2.9993477 1.4164619 6.9501953.8232422.9729652-.1657333 2.2062149-.4664574 3.0444336.0166016.7477837.4240837 1.066494 1.2166405 1.4208984 3.1113281.5737305 3.0625 1.8085938 6.0429688 3.5717773 8.6181641.7218208 1.0474663 1.3862953 1.9768257 1.3217773 3-.0620117.9306641-.7338867 1.7617188-1.9975586 2.4726563-2.8461533 1.6143761-10.0245628 3.255825-12.4506836.4667969-1.395153-1.5938644-1.1919518-4.1635857-1.4345703-7.7080078-.0309258-.5269279-.7748108-.4321289-.7490234.0410156.2084732 3.6490822.0847397 6.4081573 1.6186523 8.1601563 2.5461006 2.9275322 8.827404 1.6687889 12.3881836.1777344 1.6012421-.6553688 3.2577324-1.8225899 3.3730431-3.5615234.0826035-1.2993088-.713131-2.4019737-1.4511681-3.4726563-4.4481316-6.4957237-2.7324181-10.5349884-5.2387695-11.9570313-.9492188-.5478516-2.0708008-.3544922-3.0585938-.1855469l-.4707031.078125c-2.6798477.4033508-4.7448006-.475174-5.8432617-.7470703-.5053711-.1367188-1.074707-.234375-1.4667969.0830078-.4643555.3769531-.4257813 1.0673828-.3618164 2.2128906l.0112915.2038574c-.9252319-.576416-1.7868652-1.2521973-2.576416-2.0107422.5458755-1.392168-3.4376221-4.7971401-4.986145-2.5622559-.5620117.8125-.1787109 1.9003906.4985352 2.4423828.8630409.6898232 1.9936447.6169739 2.737793.6542969.3773766.0176544.7980957.0427094 1.1613159-.0546875.9680176.9401855 2.0526733 1.7460938 3.2142334 2.4213867l.1651611 2.9829102c-.2358664-.1147463-5.4145697-.8789408-8.9093016-5.8728029zm-2.2246704-.036377c-.8076172-.1386719-1.3676758-.3994141-1.7124023-.7958984-.3427734-.3945313-.4633789-1.0957031-.0883789-1.4707031.9584198-.9640255 2.8648491.7890816 3.2543945 2.2402344.0463867.1728516.03125.2431641.0361328.2460938-.1836891.1160125-1.0868531-.1521074-1.4897461-.2197267zm6.1899414-.2041015c-.6516838 0-1.3336296-.0498772-1.8657227-.4765625-.4082031-.3261719-.6523438-.9941406-.3500977-1.4306641.4316216-.6256104 1.334671-.4283466 1.9975586-.0371094h.0004883c.7104492.4179688 1.3105469 1.0380859 1.6049805 1.6591797.0766602.1601563.0742188.2324219.0795898.234375-.1562271.1423683-1.0611457.0507813-1.4667968.0507813z"/><path d="m6.5669961 18.1265717c.7705078.6230469 1.6806645.953125 2.6220708 1.2626953 1.5983276.5327148 3.2133789 1.0214844 4.8364258 1.4863281.0376625.1400661-.2363358-.3061905 4.6166983 6.5175781 1.0249023 1.4365234 2.300293 3.2246094 4.1635742 4.0869141.7890873.3652668 1.6723957.4559078 2.2041016-.2314453.4345703-.5673828.2368164-1.328125.1303711-1.7373047l-1.6520996-6.3393555c3.0424671.6085548 9.8893528 1.6850586 11.0163593 1.6850586.1083984 0 .2119141-.046875.2836914-.1298828 1.0688477-1.2333984 2.0219727-2.5517578 2.8325195-3.9179688.105957-.1777344.0473633-.4082031-.1308594-.5136719-.1782227-.1074219-.4082031-.046875-.5136719.1308594-.7558594 1.2734375-1.6396484 2.5039063-2.6279297 3.6621094-8.4921894-.9082031-16.8764668-2.7285156-24.9233398-5.4111328-.8740234-.2871094-1.7143559-.5908203-2.3837895-1.1328125-1.8266578-1.5000534-1.2217045-4.0755615 2.9653325-4.2265625.1025391-.0043945.1855469-.0581055.25177-.130127.8959351.4121094 1.7919922.8242188 2.6879272 1.236084.0588989.0270996.3233643-.8549805.3401489-.9360352.1608315-.7761488.0827522-1.6011133-.355896-2.4580078-.0681763-.1333008-.1106567-.2802734-.1802368-.4145508 1.9625711-.7479334 4.1464529-.0917301 6.1298208.6049805 4.90625 1.7412109 9.6616211 3.9990234 14.1352558 6.7099609.1660156.1015625.3823242.0585938.496582-.0986328 1.7537117-2.3880997 4.8372078-1.8537941 4.4550781.4443359-.0825081.4926815.6583328.6062832.7392578.1230469.4908562-2.9202213-3.2281456-4.0666218-5.5859375-1.28125-2.6013813-1.5620117-5.3042622-2.9516602-8.0670795-4.1977539 2.4837208-2.9942665 3.327198-3.6220675 3.1798706-4.7104492-.1176758-.8642578-.9521484-1.3955078-1.7163086-1.4746094-.7080078-.0771484-1.3759766.1513672-2.0541992.4082031-2.9397621 1.1093445-6.2056828 2.6513443-6.6608276 2.932373-1.2749023-.3842773-2.5993643-.6479492-3.9436636-.5026855-1.6083984.1787109-3.5410156 1.1933594-4.1499023 3.0087891-1.9216299.1212826-4.0490994.836401-4.3564458 2.7519531-.1586923.9765626.3061514 2.0458985 1.2153311 2.7929689zm17.8476558 11.5742187c.1098633.4228516.1860352.8486328.0004883 1.0898438-.2864914.3705997-.8701763.205492-1.2949219.0078125-1.6826172-.7773438-2.8432617-2.4052734-3.8676758-3.8408203l-4.1080923-5.7595215c2.4858999.685791 4.9987173 1.2849121 7.5298452 1.8093262.0625725.240652 1.8547879 7.1334571 1.7403565 6.6933593zm.3125-21.8564453c.6142578-.2324219 1.168457-.4199219 1.7128906-.3632813.4672852.0478516.9873047.3720703 1.0498047.8291016.0881805.6528149-.408083 1.0091915-3.1520386 4.2937012-1.7724934-.7783031-3.6604633-1.5556259-5.5054932-2.192627 1.923462-.9418945 3.8973999-1.8127441 5.8948365-2.5668945z"/><path d="m30.6192417 20.2720795c-.4780273.3994141-.4614258 1.1230469-.1694336 1.5927734.3964424.6360989 1.6490459 1.2734375 2.395998 1.2734375 1.0600624 0 1.6403542-.9356365 1.3603516-1.6552734-.3796196-.9713002-2.6965389-1.9483281-3.586916-1.2109375zm2.1328144 2.1123047c-.4484024-.0414162-1.410244-.506258-1.6655293-.9160156-.1181641-.1894531-.1416016-.4912109.0126953-.6201172.4120121-.3437977 2.1934948.3575802 2.408205.9082031.0932351.2373333-.144554.6632747-.755371.6279297z"/><path d="m22.8791904 16.2076263c0 .5727539.4644165 1.0371094 1.0373535 1.0371094.572876 0 1.0372925-.4643555 1.0372925-1.0371094 0-.572998-.4644165-1.0373535-1.0372925-1.0373535-.572937 0-1.0373535.4643555-1.0373535 1.0373535z"/><path d="m9.1368208 14.8697357c-.3754168-.3281937-.8669119.2359934-.4960938.5625 1.4912567 1.3152695 3.566184 1.9972706 5.546875 1.8193359.2060547-.0175781.3588867-.2001953.340332-.40625-.0180664-.2070313-.206543-.3808594-.4067383-.3398438-1.7802733.1494142-3.6440429-.4541015-4.9843749-1.6357421z"/><path d="m30.6119175 39.9498138c-4.6967773-.3144531-9.1806641-3.3964844-11.1577148-7.6699219-.0878906-.1894531-.3115234-.2705078-.4975586-.1835938-.1879883.0878906-.2700195.3105469-.1831055.4980469 2.0888672 4.5146484 6.8261719 7.7714844 11.7885742 8.1035156.0083008.0009766.0170898.0009766.0253906.0009766.1958008 0 .3603516-.1513672.3735352-.3496094.0141601-.2070311-.1425781-.3857421-.3491211-.399414z"/><path d="m17.5196323 38.4429779c-.1782227.1064453-.2363281.3359375-.1303711.5146484 2.4140625 4.0507813 6.6064453 7.0683594 11.2143555 8.0703125.0268555.0058594.0537109.0087891.0800781.0087891.1723633 0 .3276367-.1201172.3657227-.2949219.0444336-.203125-.0839844-.4023438-.2866211-.4462891-4.4086914-.9599609-8.4194336-3.8466797-10.7290039-7.7226563-.1064453-.1767577-.3354492-.2373046-.5141602-.1298827z"/></g></svg>