<svg id="Layer_1" enable-background="new 0 0 75 75" viewBox="0 0 75 75" xmlns="http://www.w3.org/2000/svg"><g id="Flying_Scarf" fill="rgb(0,0,0)"><path d="m14.707696 41.8693047c-.3364258 1.7167969-.5844727 3.4677734-.7368164 5.2041016-.2177734 2.4785156.5341797 3.5947266 2.9780283 4.4228516 5.5839634 1.8923988 12.0757332 1.4408112 17.4560528-1.4150391.6200409-.3286209 2.1239204-.8913383 2.4008789-1.5791016.3216934-.7985039-.4063911-2.2544708-.605957-2.9316406-1.6578217-5.5132942-4.476305-10.8543091-5.9502544-12.9458008.9727783-.2688293 1.6374168-.4502754 2.5591412-.5161133.6074219-.0400391 1.3632813-.0888672 1.6308594-1.09375.2489243-.929718-.0156364-1.0233078.8261719-1.6494141.3291016-.2451172.7021484-.5224609.8427734-.9931641.1279297-.4296875.0180664-.9248047-.3012695-1.359375-.6165962-.8406754-1.5643311-.9772892-2.6381836-3.6044922-.6792679-1.6657085-.1538391-3.4832058-1.1957989-6.6923828-1.7261009-5.3187628-6.0650978-7.7599163-9.8017578-7.2197275-1.9365234.2763672-3.8691406 1.3916016-5.4418945 3.140625-1.4121103 1.5703125-2.418458 3.4736338-3.2954111 5.2958994-.6362305 1.3222656-1.2402344 2.7363281-1.0366211 4.2207031.2075195 1.5107422 1.3579102 2.6308594 2.7583008 2.7578125-.1108608.4856739-.3823605 1.0304356-.4272461 1.5722656-.1558819 1.8594513.4821644 3.0462952 1.4692392 4.6123047.3954372.6266155.7626019 1.1334038 1.491394 1.2819824-1.1852381 2.0312005-2.4831878 6.9532052-2.9816295 9.4914552zm2.1250009-11.1738282c-.8694763-1.3771839-1.4987335-2.4571228-1.3569345-4.1494141.0501299-.5991154.5151072-1.3486404.465332-2.0283203-.0146484-.2050781-.1889648-.3896484-.3945313-.3466797-1.206543.0546875-2.230957-.8466797-2.4057617-2.1191406-.175293-1.2783203.3828125-2.5751953.9692383-3.7929688.8530273-1.7734375 1.8286133-3.6201181 3.177247-5.1201181 1.4555664-1.6181641 3.2280273-2.6484375 4.9907227-2.9003906 2.3657227-.3330078 4.9555664.6992188 6.7529297 2.7128906 1.2539082 1.4033203 1.9593487 2.9722033 2.4287109 4.7475595-.2012329-.1859989-.5006847-.1025772-.5966797.1254883-.1113281.2607422-.3344727.4658203-.6293945.5800781-1.0546684.406538-1.8906078-.6683559-1.7148438-1.6748047.0815258-.4616051-.5991344-.6242218-.7294922-.1679688-.1880817.6582832-.960434 1.0874271-1.59375.8896484-.6367188-.2021484-1.0444336-1.0126953-.8408203-1.6708994.0004883 0 .0004883-.0009766.0009766-.0019531 0-.0009766 0-.0009766.0004883-.0009766.1467304-.4765825-.5694542-.6921701-.7163086-.2236328-.0004883.0019531-.0009766.0029297-.0014648.0048828-.2382813.7636728-.9731445 1.3349619-1.7485352 1.359376-.7753906.0400391-1.5439453-.4990234-1.8271484-1.2480478-.0551758-.1455078-.1948242-.2421875-.3505859-.2421875-.0009766 0-.0019531 0-.0029297 0-.1567383.0009766-.2963867.0996094-.3496094.2470703-.2832031.7832041-1.1606445 1.2998056-1.9560547 1.1621103-.7983398-.1416016-1.4575195-.9394541-1.4692383-1.7773447-.0029297-.2060547-.1704102-.3701172-.375-.3701172-.0014648 0-.003418 0-.0053711 0-.2070313.0029297-.3725586.1728516-.3696289.3798828.0091553.6606445.2967529 1.2846689.7404175 1.7521982-.3048706.6550293-.5201416 1.3532715-.6468506 2.0769043-1.6963873.0782566-2.1140223 2.6688824.0510254 3.605957.648632 3.4941711 3.007328 5.673542 5.4179077 6.097168 2.7199459.4757652 6.0701256-1.1725445 7.4406128-5.0629883.0806484.0195503.0346661.042448.1467896.0229492.6083984-.109375 1.1518555-.4277344 1.4907227-.8730469.8640213-1.1285629.2531738-2.6662464-1.0091553-2.7744141.0048828-.2331543.0026855-.4599609-.0072021-.677002.8744221-.0146503 1.5786572-.5897713 1.7521973-1.1577148.6256351 2.6575661.2474995 3.9775658.9140606 5.6120605.9748802 2.3864822 2.0923538 3.1053085 2.1787109 3.2138672 1.7397919 1.5228271.0583 1.5742035-.5571289 2.5576172-.1933594.3105469-.2514648.6572266-.3032227.9638672-.1677284 1.0138321-.3449669.857851-1.3510742.9580078-.904192.0897694-1.7894115.3504181-2.6886578.5993652-1.2070618-1.4323616-2.4260635-1.8945637-4.5076294-2.197998-2.6848888-.3926029-5.3993645-.2621727-7.0741577 1.8845215-.6585656.058596-.9638501-.378883-1.3389283-.9753415zm-.6387939-9.1323242c-.8975725-.6805038-.6780596-1.6972828-.0230713-1.9013672-.0448246.5311394-.0604935 1.0504093.0230713 1.9013672zm1.338623-4.2617187c1.1688461.6588726 2.4953289.1821136 3.1815186-.7280273.9680099 1.287014 2.7662487 1.5039883 3.9726563.2988281.5173225 1.4238033 2.0831089 1.7964668 3.1796875.8740234.1904564.5806255.5958481 1.0950336 1.1838989 1.345459.3899536 5.827034-3.5281734 9.3906269-7.1751099 8.7717285-4.2641449-.7497635-6.0744-6.5868797-4.3426514-10.5620117zm12.2487183 3.3598632c.9170609.1682148 1.0587101 1.6279793-.34729 2.0783691.1948852-.7421874.2993774-1.4501952.34729-2.0783691zm-4.6438599 9.8671875c3.1898727.4625301 3.9033432 1.3789711 5.6186523 4.34375 3.2570591 5.617775 4.4132862 10.1117477 4.9331036 11.5039063.1953125.5253906.5595703 1.5029297.4213867 1.8457031-.1377449.3422432-1.7329636 1.0229149-2.0576172 1.1972656-5.436554 2.8847008-11.6879635 3.1227684-16.8632793 1.3662109-2.1284189-.7207031-2.6596689-1.5048828-2.4716806-3.6455078.1503906-1.7099609.3945313-3.4345703.7260742-5.1259766.4785156-2.4404297 1.1474619-4.8603516 1.9882822-7.1953125 1.186367-3.2990912 2.6082878-5.0282096 7.7050781-4.290039z"/><path d="m18.0007877 49.2731133c.5475464 0 .9914551-.4440918.9914551-.9916992 0-.5473633-.4439087-.9914551-.9914551-.9914551-.5476074 0-.9914551.4440918-.9914551.9914551.0000001.5476074.4438477.9916992.9914551.9916992z"/><path d="m23.339838 49.8866386c.5475464 0 .9914551-.4438477.9914551-.9914551s-.4439087-.9914551-.9914551-.9914551c-.5476074 0-.9915161.4438477-.9915161.9914551s.4439087.9914551.9915161.9914551z"/><path d="m29.1760807 49.2731133c.5476074 0 .9915161-.4440918.9915161-.9916992 0-.5473633-.4439087-.9914551-.9915161-.9914551-.5475464 0-.9914551.4440918-.9914551.9914551 0 .5476074.4439087.9916992.9914551.9916992z"/><path d="m19.1007633 19.8361015c.5043945-.3476563 1.262207-.3085938 1.7270508.0888672.3736458.3217506.866642-.2461739.4873047-.5703125-1.2096481-1.0361385-3.1839905-.2613811-2.7358398.3857422.1171874.1699219.3505859.2138672.5214843.0957031z"/><path d="m24.8688297 20.4571953c.6230469-.2089844 1.3779297.0117188 1.7929688.5205078.3082905.3772507.8970146-.0879116.5810547-.4746094-.6137695-.7509766-1.6870117-1.0625-2.609375-.7587891-.4665032.1551152-.242033.8641396.2353515.7128907z"/><path d="m19.7965641 23.9093437c-.2133789.6298828.2529297 1.4990234.8125 1.8554688 2.3405533 1.4879227 5.0708408-.4357052 5.0415039-2.1328125-.0179958-1.033699-1.0681705-1.7070885-2.2265625-.8115234-.6977234.5680561-.8579597.675251-1.2021484.6914063-.3598843.0345592-.8095207-.1570187-1.3144531-.2001953-.7919922-.0507814-1.0419922.3955077-1.1108399.5976561zm3.8666992-.3193359.2197266-.1757813c.856163-.6680393 1.344759.0663052.7626953.9443359-.77351 1.1677094-2.3788795 1.5709839-3.6342773.7734375-.3413086-.2177734-.581543-.7548828-.5043945-.9824219.0640545-.1872387.6400318-.0455818.8481445 0 1.0498466.2340985 1.4618701.1336213 2.3081054-.5595702z"/><path d="m64.5102463 16.8622246c.3300171-.9099131 1.0899658-1.7399912 2.0599976-1.8100595.5-.0300293 1 .1398926 1.5.2199707 4.1046219.5530643-.2332916-6.7324066-6.5200195-6.1098633-2.6199951.2597656-4.9299927 1.7700195-7.289978 2.9699707-2.3500366 1.2099609-5.1300049 2.1398926-7.5900269 1.1999512-.9799805-.3798828-2.039978-1.0500488-3-.6201172-.9500122.420166-1.1699829 1.6201172-1.3299561 2.6401367-.4000244 2.4699717-2.3600464 2.4399424-3.75 4.0898447-.7491608.8854923-.6091156 2.3211689.1199951 3.0500488.7905273.8063965 1.6404419.6279297 2.5133667.4645996-1.6292725 4.625-4.9530029 8.4233398-9.6394634 10.9848633-.4361191.2385216-.0749874.8958015.359375.6582031 4.9204082-2.6894531 8.400877-6.6982422 10.0659161-11.5927734.0189209-.0556641.0210571-.1118164.0142822-.1662598 1.4596786-.101984 1.9939041.7973328 2.9365234 1.911377.8999634 1.0600586 1.9899902 1.9799805 3.2799683 2.4899902 1.0200195.4001465 2.3900146.5900879 3.460022.2800293 1.6166115-.4924164 3.4204865-3.3184395 5.8200073-4.0100098 1.2599487-.3601074 2.7299805-.1799316 3.9599609-.4699707 3.1604919-.7744732 2.253952-4.1259918 3.0300293-6.1799316zm-13.5100098 1.1398926c-1.1651039.9118843-1.3597908.9790077-1.3900146 1.130127l-.25 1.3999023c-.0299683.130127-.1799927.2299805-.2699585.170166l-.9500122-.670166c-.1264229-.0632114-.1643486.037178-1.5400391.670166-.1300049.0598145-.2199707-.0400391-.1599731-.170166l.710022-1.3999023c.0618286-.1550426.0015106-.0816803-.6100464-1.130127-.0499878-.0898438.0500488-.2399902.1700439-.2600098l1.3899536-.2099609c.1350021 0 .1939163-.1747112 1.1700439-1.3601074.0899658-.1098633.25-.1098633.2599487 0l.1500244 1.2802734c.0327034.1300163.0812111.0532799 1.3300171.2897949.1099854.0200195.1099854.170166-.0100097.2600098zm7.9000244.0900878-1.0100098.7700195c-.1000366.0750275-.056385.1131935-.2700195 1.1999512-.0200195.1000977-.1400146.1799316-.210022.1298828l-.7399902-.5200195c-.1275826-.0415764-.1976814.0661736-1.2000122.5200195-.0999756.0500488-.1799927-.0297852-.1299438-.1298828l.5599976-1.0900879c.0199585-.0397949.0199585-.079834 0-.1098633l-.4800415-.7700195c-.039978-.0700684.0400391-.1901855.1400146-.2099609l1.0800171-.1601563c.039978 0 .0799561-.0300293.1099854-.0598145l.7999878-.9902344c.0700073-.0898438.1900024-.0898438.2000122 0l.1199951.9902344c0 .0297852.0300293.0598145.0599976.0598145l.9799805.1601563c.0800169.0197754.0800169.1398926-.0099489.2099609zm1.8299561-3.1999521c-.0199585.1098633-.1599731.1999512-.2399902.1499023-.8586082-.5664234-.8516121-.6643791-.9799805-.6000977l-1.2700195.6000977c-.1199951.0500488-.2000122-.0400391-.1400146-.1499023.5685158-1.1715126.7103882-1.2845755.6400146-1.3901367l-.5499878-.8898926c-.0499878-.0800781.039978-.2199707.1500244-.2399902l1.2599487-.1899414c.1121216 0 .1075935-.0816126 1.0500488-1.2202148.0799561-.1098633.2199707-.1098633.2399902 0 .1291161.9848347.0833626 1.2202148.2000122 1.2202148l1.1299438.1899414c.1000366.0200195.1000366.1599121-.0099487.2399902l-1.1700439.8898926c-.1165046.087513-.0645179.153636-.3099975 1.3901367z"/><path d="m8.0060358 22.7521172c1.0879517 4.814209 3.7588501 9.1962891 7.5527344 12.3554688.3785791.317688.8621531-.256897.4794931-.5761719-3.6976938-3.0795898-6.2961435-7.3596191-7.3304453-12.0588379.8939209-.901123.5314331-3.482666.52771-3.510498-.1567383-1.0703125-.6635742-1.8330078-1.3911133-2.0917969-.9671431-.3437729-2.0587974.3379078-2.3925781 1.3017578-.6688099 1.9321174 1.4407201 4.5229091 2.5541992 4.5800781zm-1.1435547-5.1113282c.1171875-.0566406.2763672-.1113281.4536133-.1113281 1.6019936 0 1.4367285 4.0163898.8198242 4.4550781-.0239258.0175781-.0581055.0341797-.1298828.0175781-.4399414-.0947266-1.1689453-.9833984-1.5043945-1.5605469-.5839496-1.0043944-.6732841-2.3057899.3608398-2.8007812z"/><path d="m11.3507624 62.3234062c-.644043.3115234-1.003418 1.0244141-.8359375 1.6582031.1665039.6318321.753418.9775352 1.1796875 1.1816368.6166992.296875 1.2680664.515625 1.9355469.6513672.5311813.1072159 1.0888338.106514 1.4667969-.2832031.3476563-.359375.3955078-.9599609.1171875-1.4589844-.1517334-.2734337-.3830566-.5285606-.6361084-.7680626-.1091919-3.7895508 1.0628662-7.5600586 3.3016367-10.6176758.293644-.4017067-.3142014-.8441429-.6054688-.4433594-2.2169809 3.0290527-3.4173594 6.7280273-3.4384165 10.4770508-.773346-.4949722-1.6530876-.8015174-2.4849243-.3969726zm2.4282226 2.7568321c-.6635723-.135704-2.3657331-.6346741-2.5390625-1.2900352-.0737305-.2792969.1264648-.6416016.4370117-.7910156.3505497-.1700363.791976-.1177788 1.1523438.0263672h.0004883c1.5823593.6272392 2.661745 2.3942222.9492187 2.0546836z"/><path d="m38.1666794 61.0753593c.543457-.4130859 1.034668-.8935547 1.4594727-1.4267578.2954102-.3701172.6733398-.9365234.5493164-1.5761719-.1707764-.8853569-1.3306656-1.564415-2.5413818-.7841797-3.2954979.462616-6.3792171-1.6839714-7.1007061-4.9052734-.1071529-.4793053-.8408871-.3231277-.7314453.1640625.7232456 3.2322578 3.6202946 5.5912895 7.0200787 5.5493164-1.8169977 2.5424805-.3364221 4.2525559 1.3446654 2.9790039zm.5356445-3.3847656c.3505859 0 .6811523.2353516.7368164.5244141.1285095.6667252-1.1887093 1.8548393-1.7265625 2.2636719-.3198242.2441406-.5673828.3349609-.7314453.2753906-.7525978-.2779503.3995934-3.0634766 1.7211914-3.0634766z"/><path d="m56.8224411 34.0821953c.4199905-.2613297.0290718-.8970947-.3955078-.6367188-3.2597656 2.0234375-7.1586914 2.9296875-10.9760742 2.5517578-.527729-.0147285-.540432.6996918-.0742188.7460938 4.0048218.3965149 8.0651245-.5624695 11.4458008-2.6611328z"/><path d="m43.5499802 41.1896172c4.7759132 1.2836227 10.0379982.710968 14.4404297-1.5966797.4374962-.2286644.0933113-.893219-.3486328-.6640625-4.2246094 2.2148438-9.2885742 2.7763672-13.8974609 1.5361328-.4802819-.1260147-.6729699.5961952-.194336.7246094z"/></g></svg>