<svg id="Layer_1" height="512" viewBox="0 0 512 512" width="512" xmlns="http://www.w3.org/2000/svg"><g><path d="m452.1 160c-5.4-77.3-68.9-137-147-137-39.4 0-77.4 16.1-105.1 44.2-8.5-2.1-17.3-3.2-26-3.2-53.8 0-99 40.5-105.6 93.3-38.8 10.5-66.4 46.1-66.4 86.9 0 49.7 40.4 90.1 90.1 90.1h178.4c20.1 25.7 51.2 41 83.8 41 33.8 0 65.6-16.1 85.7-43.3 40.8-9.3 70-45.7 70-87.8 0-37.7-23-70.9-57.9-84.2zm-18.4 156.6-3.3.6s-25.3 41.7-76 41.7c-49.5 0-75.6-41-75.6-41h-186.7c-40.7 0-73.7-33.1-73.7-73.7 0-35.1 24.9-65.5 59.3-72.3l6.2-1.2.4-6.3c3.1-47.1 42.6-84.1 89.8-84.1 16.6 0 31.1 5.4 31.1 5.4s33.6-46.4 100-46.4c71.1 0 128.6 55.7 130.9 126.8l.2 5.8s57.4 13.4 57.4 72.2c-.1 35.5-25.3 65.9-60 72.5z"/><path d="m297 64v16.4c54.2 0 98.3 44.1 98.3 98.3h16.4c0-63.3-51.5-114.7-114.7-114.7z"/><path d="m18.3 441.1c-5.8 11-7.4 32 13.9 44.2 6.8 3.9 31.3 9.5 44.2-13.9 7.7-13.9-4.4-62.4-4.4-62.4s-46.3 18.1-53.7 32.1zm43.6 22.8c-4.1 7.8-14.1 10.5-22.1 6.9-4.1-1.8-12.3-11.3-6.9-22.1 2.3-4.7 14.9-11.9 27.6-17.5 2.6 13.8 3.7 28.2 1.4 32.7z"/><path d="m153.8 441.2c-5.8 11-7.4 32 13.9 44.2 6.8 3.9 31.3 9.5 44.2-13.9 7.7-13.9-4.4-62.4-4.4-62.4s-46.3 18.1-53.7 32.1zm43.6 22.8c-4.1 7.8-14.1 10.5-22.1 6.9-4.1-1.8-12.3-11.3-6.9-22.1 2.3-4.7 14.9-11.9 27.6-17.5 2.6 13.8 3.7 28.2 1.4 32.7z"/><path d="m289 441.2c-5.8 11-7.4 32 13.9 44.2 6.8 3.9 31.3 9.5 44.2-13.9 7.7-13.9-4.4-62.4-4.4-62.4s-46.3 18.1-53.7 32.1zm43.5 22.8c-4.1 7.8-14.1 10.5-22.1 6.9-4.1-1.8-12.3-11.3-6.9-22.1 2.3-4.7 14.9-11.9 27.6-17.5 2.7 13.8 3.8 28.2 1.4 32.7z"/></g></svg>