<svg id="Layer_1" enable-background="new 0 0 75 75" viewBox="0 0 75 75" xmlns="http://www.w3.org/2000/svg"><g id="Foot_Injury" fill="rgb(0,0,0)"><path d="m33.0053825 25.1617451c5.0233154-.765625 7.5162354-5.7858887 7.4952393-10.5527344 1.2626953 1.5949707 2.1318359 3.0136719 2.6678467 4.40625 1.7725258 4.613718-.196682 8.5322056-3.2998047 9.4384766-.47229.1395912-.271656.8547554.2109375.7207031 3.5145874-1.0267143 5.7255974-5.3850288 3.7880859-10.4287109-.5948486-1.5466309-1.5594482-3.1083984-2.9960938-4.8803711.0716553-.0820313.1182861-.1772461.1518555-.277832.8534508-.7177734.8037071-2.543252-1.3360596-3.3383789-.1021347-.0778704-.2049065-.2176237-.7315674-.4240723-.036499-.5944824-.2556152-1.161377-.6141357-1.654541-1.6362762-1.3851891-1.4958344-1.4213471-2-1.6499028-3.3428383-1.7282357-7.933733-1.3405228-10.8759785 1.7480474l.21875-.5458989c-.2568359-.9196777-1.3312988-1.5200195-2.2490234-1.2568359-.9179688.2629395-1.5111084 1.3413086-1.2419434 2.2573247-.9306641-.862061-2.5025635-.9152837-3.4892578-.1176758-.9868164.7973633-1.2648926 2.345459-.6171875 3.4362793-1.2675781.1047363-2.4266357 1.0385742-2.798584 2.2548828-.377327 1.2335587.2254639 2.0415306.9857178 2.1005859-.5403376.4501419-1.0209036 1.4608288-.7843018 2.4143066.2727051 1.0983887 1.4177246 1.9077148 2.5441895 1.7980957s2.0942383-1.1242676 2.1501465-2.2546387c-.4058056 3.0055161 3.7235527 3.022625 2.7659912.1582031-.3155708-.9446163-1.2692566-2.0979233-.432251-3.8232422-.264555 1.7601757.4236965 3.5287209 1.5761719 4.762207 1.1875077 4.1014671 5.1724015 6.2765484 8.9112568 5.7094727zm5.0488282-14.7773438c.9409447 0 2.120327.939929 2.2695313 2.4726563.0488281.4677734.0097656.5117188-.0615234.5292969-.1002846.0055256-.5127487.1578541-1.6132813-.1025391-2.3422738-.4894791-2.2236825-2.8994141-.5947266-2.8994141zm-9.9925557-1.4338379c1.2800293-1.190186 3.3399658-1.440186 4.869875-.6000977.4268341.2247934.0990295.8846588-.3498535.6599121-1.2700214-.6899414-2.9600849-.4799805-4.0200214.4902344-.342268.341076-.8818589-.2162504-.5000001-.5500488zm-1.5681152 7.5747071c-1.3545017.1425781-1.8379631 1.8715744-.7703857 2.8425293.3894291.3537292.9596062.5490704 1.5556641.4863281.4674625-.0531712.4441128-.7609158-.0820313-.7460938-.7704353.0968189-1.4098797-.51684-1.2949219-1.1835938.1223774-.7296429 1.0252876-.9008198 1.3330078-.3535156.2428474.4296513.8980885.0664806.6542969-.3671875-.079834-.1418457-.189209-.2626953-.3145752-.3654785.7856827-.979248 2.320034-1.1124983 2.6369629-2.737793 1.0634041 1.8782196 3.878191 1.5404978 4.5000019-.4799805.6000977.7700195 1.6000977 1.2199707 2.5800781 1.119873.6386719-.0537109 1.0340576-.4162598 1.564209-.6503906.2537842.0454102.5661621.0864258.8885498.0908203.1773682 4.5627441-2.1030273 9.515625-6.8522949 10.2387695-4.1834469.6398602-8.3570728-2.4775372-8.3815937-7.2485352.379013-.6000898 1.1691379-.9690168 1.9830322-.6457517z"/><path d="m31.5257664 48.1873779c.7043476 1.0952148 1.4879169 2.1398926 2.3498554 3.119873l1.3015137 15.9372559c-1.1049881.7054825-.5021057 2.3543091.7512207 2.2521973 1.3274078-.1086044 1.555954-1.9698563.2890625-2.3930664l-1.291748-15.8166504c.6428223-1.0366211 1.2124023-2.1159668 1.703125-3.2302246 2.1552849-.1029968 4.8610153.1348915 6.3551025-1.6547852 1.28125-1.5361328.9316406-3.7207031.4208984-5.6542969-.8242188-3.1181641-1.7880859-6.2363281-2.8632813-9.2685528-2.4627686-6.9359608-4.6455994-5.7993946-8.1494141-5.6777344-1.7762794.0598888-3.1210251.1796284-4.4355488 1.5439453-1.2070313 1.2548828-1.7333984 3.0068359-2.0878906 4.5546875-.9902344 4.310545-1.2109375 8.7216778-.6552734 13.1093731.5081559 4.0366975 2.4705811 3.392418 6.312378 3.1779786zm5.7031269-4.0715332c-.3394661.1791878-.6924515.4884758-1.7966309.7705078-.5360527-1.0543327-1.1182442-1.648407-2.1884766-1.2802734-.71875-1.6816406-1.2772236-3.4179688-1.6782246-5.1870117 2.4740925.4042969 4.7444286-.1029015 6.5954609-1.1948242-.0017089 2.3256836-.3198241 4.6486816-.9321288 6.8916015zm-4.2869873.9306641c-.1201591-.4697075-.0464668-.4226418-.0478516-.5234375l.1601563-.0556641c.1123047.0087891.2285156-.0273438.3095703-.109375.5425377-.1849861.7275085-.2438011 1.2226563.5566406.1544876.2496681.3955879.6272392.2607422.8886719-.141243.2804413-.9500732.4756813-1.2509766.3691406-.4092255-.1474189-.5486718-.7111282-.6542969-1.1259765zm-.4471436-1.2990723c-.1298828.0256348-.2438965.1132813-.2872314.248291-.0246239.1021423-.0992851.2117043-.0498047.3730469-.0426025.1679688-.0400391.3330078-.0203857.4858398-1.2684441-.3374176-1.8714142-.9220581-2.0427265-.9658203-.9069824-2.1298828-1.5294189-4.3786621-1.8469238-6.6723633.7817383.4604492 1.6212158.8051758 2.5002441 1.0253906.4035644 1.8791505.9949951 3.7199708 1.746828 5.5056153zm-.1591797 1.9194336c.3340645 1.0511093 1.0301971 1.4974709 2.1483154 1.1853027.6833763-.1887207 1.1462097-.536972 1.1367188-1.2431641.463623-.1186523.8990479-.2844238 1.3111572-.489502-.2355957.744873-.5048828 1.4787598-.8066406 2.199707l-4.191164.1071777c-.473877-.7636719-.9091797-1.550293-1.3015137-2.3586426.5341797.2749026 1.107666.477051 1.7031269.5991213zm2.0438233 5.0754395c-.7130127-.8168945-1.3721924-1.6779785-1.9737549-2.5773926l3.3901367-.0866699c-.4180908.9145508-.8916016 1.803955-1.4163818 2.6640625zm-5.8818379-22.8774395c1.5193825-1.5801582 3.1624718-1.1858368 5.2714863-1.3896484 1.9443359-.1855469 2.9873047-.1142578 4.15625 1.3603516.8798828 1.1074219 1.4052734 2.4736328 1.9091797 3.8935547 1.0693359 3.01367 2.0263672 6.1123028 2.8457031 9.209959.4619141 1.7490234.7910156 3.7080078-.2724609 4.9824219-1.222599 1.4654045-3.7245674 1.2955208-5.4622803 1.376709 1.8966064-4.6955566 2.451416-9.9223633 1.5185547-14.911377 1.3475266-.5166512.8616753-2.471241-.5322266-2.3571758-.6772461.0554199-1.1815186.6491699-1.1262207 1.326416.0432129.5302734.420166.9438457.9052734 1.0764141.2495117 1.3063965.3898926 2.6293945.4318848 3.9558105-.0146484.0068359-.0305176.0085449-.0445557.0175781-1.9573975 1.276123-4.416748 1.6652832-6.7020283 1.2148438-.6357422-3.2050781-.7597656-6.5039043-.3321533-9.7714825.0636959-.4954109-.678997-.5839024-.7441406-.0976563-.4239502 3.2404785-.3126221 6.5092754.2841797 9.6931133-1.36553-.3970261-2.3299503-1.0748253-2.4678955-1.1437988-.1037598-1.0161133-.1469727-2.0385742-.1268311-3.0615234 1.3433208-.521019.8527355-2.4691792-.5371094-2.3554668-.2491455.0202637-.460083.1308594-.6431885.2744141.3339845-1.2153321.8054201-2.3959962 1.6685792-3.2934571zm-2.0213623 4.7973613c.1574707.3122559.4433594.5351563.7827148.6254883-.0844727 4.9631348 1.2664795 9.9160156 3.8092041 14.1672363-.3017578.0153809-.6251221.0449219-.9680176.0808105-3.0408535.3127861-3.8119564.0000534-4.1425781-2.6201172-.5194091-4.0996093-.3385009-8.2177733.5186768-12.2534179z"/><path d="m28.13624 64.494751c1.1352959.2029572 3.6109848.2949753 4.3486347-.5761719 0 0 0 0 .0009766-.0009766.7502098-.8884773-.0591927-2.2019539-1.0839863-2.4814453-.8753662-.2385254-1.7913818-.267334-2.6571045-.0981445l1.1395264-12.0522461c.0469666-.495491-.6996384-.560421-.7460938-.0703125l-1.166748 12.3395996c-.0479736.0170898-.0992432.0246582-.1467285.0432129-1.0899544.4174309-1.3964844 1.1251488-1.28125 1.7099609.1471004.7416382.8517341 1.0537644 1.5927734 1.1865235zm-.0419922-2.1972656c.9337502-.3581047 2.0632534-.4218636 3.1103516-.1367188.3398438.0917969.6884766.4296875.7949219.7685547.1643772.5244446-.3140392.7318306-.8554688.8291016-.9511719.1699219-1.9189453.1699219-2.8759766-.0019531-.3886375-.0685806-.911932-.2080994-.9892578-.5947266-.0302734-.1533203.4158326-.7098656.8154297-.8642578z"/><path d="m38.1438103 18.9124775c.395874 0 .7166748-.3208008.7166748-.7165527s-.3208008-.7165527-.7166748-.7165527c-.395752 0-.7165527.3208008-.7165527.7165527s.3208007.7165527.7165527.7165527z"/><path d="m35.8057976 19.121706c.395752 0 .7165527-.3208008.7165527-.7163086 0-.3959961-.3208008-.7167969-.7165527-.7167969s-.7166748.3208008-.7166748.7167969c0 .3955078.3209228.7163086.7166748.7163086z"/><path d="m36.1655388 21.3004169c.3691406-.2246094.8212891-.296875 1.2412109-.2011719.4866676.1089211.649231-.6206665.1679688-.7304688-.6074219-.1386719-1.2636719-.0341797-1.7978516.2890625-.4209289.2558118-.0393333.8979989.3886719.6425782z"/><path d="m39.1014519 55.0133057c-.017334 1.0222168.5690918 1.6257324.9344482 2.4882813.4522705 1.0673828 1.0001221 2.078125 1.5631104 3.0905762 1.4036293 2.525135 2.8097534 2.4659462 4.9641113.8168945.3897705-.2983398.7946777-.6154785.9953613-1.0632324.2008057-.447998.1154785-1.0651855-.3144531-1.3022461-.5142822-.2834473-1.0750732.0996094-1.598999-.0354004-.4627686-.1193848-.6102295-.6789551-.7991943-1.0668945-.5675049-1.1647949-1.0888672-2.3520508-1.5629883-3.5578613-.5861816-1.4915237-1.2304649-2.0077209-2.6647949-1.2319336l-2.043335-4.5932617c-.2022514-.4509888-.8870697-.1499023-.6855469.3046875.4680824 1.0454063 1.9971962 4.5185013 2.0933838 4.6689453-.520752.3515624-.8687744.748535-.8811035 1.4814452zm4.5015869 4.0644531c.1712914-.4669456.8733253-.2095375.7050781.2578125-.4092789 1.1203995-1.6589775 1.1994667-1.5585938 1.1601563-.4783058 0-.5054131-.7128448-.0283203-.7490234.3867188-.029297.7490235-.303711.881836-.6689454zm-1.2568359-3.4033203c.234745-.4413261.89431-.0872574.6640625.3476563-.4169922.7958984-1.1894531 1.3935547-2.0654297 1.5996094-.4838104.1128922-.654213-.6157379-.171875-.7304688.6679687-.15625 1.2558593-.6113282 1.5732422-1.2167969z"/><path d="m23.3178806 65.2008057c.3447266-1.1201172.734375-2.3886719.5849609-3.6787109-.3251953-2.8093224-3.2336082-4.0579643-4.7128906-2.0175781-1.1336346-1.8279839-3.6259546-2.1077003-5.0117188-.2207031-.7882643-2.234066-3.1490641-3.2841187-5.1992188-1.9511719-.8144531.5283203-1.3408198 1.3300781-1.4423823 2.1992188-.0582666.4917717.6852231.582798.7441401.0878906.0761719-.6474609.4794922-1.2519531 1.1064453-1.6582031 1.9639893-1.2765923 4.1316671.2628632 4.2705078 2.4521484-.0712891.3056641-.0917969.6171875-.0595703.9228516.0195313.1835938.1708984.3261719.3554688.3349609.1757813-.0185547.3476563-.1201172.3847656-.2998047.0595703-.2900391.0820313-.5839844.0722656-.8759766.0888672-.3242188.2548828-.6386719.4873047-.9150391 1.3476219-1.6056747 3.540966-.6709824 3.9296875.9755859-.0131416 1.1038551.8132877.8213654.8017578.3740234-.0039063-.1435547-.0195313-.2871094-.046875-.4296875.0214844-.2451172.1386719-.4931641.34375-.7128906 1.2193241-1.3068619 3.0108986-.0693779 3.2324219 1.8203125.1308594 1.1337891-.2353516 2.3232422-.5576172 3.3720703-.1454104.4761048.5706941.6933899.716797.2207032z"/><path d="m65.611824 61.0484619c.6269531.4072266 1.03125 1.0117188 1.1074219 1.6591797.0592422.4975967.8022079.4021835.7441406-.0878906-.1015625-.8691406-.6279297-1.671875-1.4433594-2.2011719-2.0433121-1.3230896-4.4063568-.2902184-5.1982384 1.9521484-1.372673-1.8691673-3.8726654-1.6221657-5.0117188.2216797-.5209579-.7275391-1.4715347-1.1472778-2.3408203-.9580078-1.4287109.3105469-2.2314453 1.7597656-2.3720703 2.9746094-.1494141 1.2900391.2402344 2.5585938.5849609 3.6787109.1462822.4732666.8621407.2551804.7167969-.2207031-.3222656-1.0488281-.6884766-2.2382813-.5576172-3.3720703.2221413-1.8949699 2.0184097-3.1214828 3.2324219-1.8203125.2050781.2197266.3222656.4677734.34375.7138672-.0273438.1416016-.0429688.2851563-.046875.4287109-.0114937.4458847.8149223.7319565.8017578-.3740234.2522087-1.068325 1.344986-1.8944817 2.3740234-1.8115234.9588852.0651207 1.7960815.8502541 2.0429688 1.7509766-.0097656.2919922.0126953.5859375.0722656.8759766.0780907.3883591.6930885.4079971.7402344-.0351563.0322266-.3056641.0117188-.6171875-.0595703-.9228516.1386148-2.1840706 2.2984696-3.7333375 4.2695275-2.4521485z"/></g></svg>