<svg id="Layer_1" enable-background="new 0 0 75 75" viewBox="0 0 75 75" xmlns="http://www.w3.org/2000/svg"><g id="Friends" fill="rgb(0,0,0)"><path d="m25.1293926 30.7264099c2.5716095.5363503 5.3718739-.2802868 7.1171894-2.1074219 1.0949097-1.1391602 1.8579102-2.6967773 2.3259888-4.720459.0301514.0078125.0559082.0280762.0875854.0280762.2470894 0 1.1156197-.3898964 1.5712891-1.0371094.8104095-1.1554375.2588158-2.6535625-1.0283203-2.7851563.0598526-1.3370647.0761566-2.6067791-.2963867-3.9267578-.0556641-.2001953-.2641602-.3085938-.4624023-.2597656-.199707.0566406-.3154297.2636719-.2592773.4628906.5052338 1.7929516.2164612 3.5485592.2636719 4.3291016-.3736343-.5806465-1.0044518-1.0765228-1.6088867-1.3984375-2.0291386-1.1401062-3.5909882-.8241444-5.3310566-2.9970703-.1527061-.1892719-.4289246-.1768303-.5737305-.0146484-.3087177.3490658-.3269691.7453308-.5400391 1.015625-1.0836105 1.456562-3.5418377 1.3059998-5.1333008 2.8974609-.5761719.6181641-.8466797 1.4121094-.753418 2.1357422-.4038086.0917969-.7602539.3701172-.9248047.7578125-.025774.0575943-.0173016.066843-.090332.4211426-.0236073.1442127-.1189766.3481407.0604858.7976074-.1074829.0893555-.2004395.1940918-.2753296.3095703-.1401367-.2119141-.2705078-.421875-.3891602-.6289063h-.0004882c-.1003952-.3764858-1.6756916-2.432869-.9902344-5.8798828.8604355-3.2212305 3.9631195-5.7828579 8.9799805-5.8417969 2.5561161-.0066376 5.0570831.4828949 6.5649433 2.546875.2915573.3973675.8983879-.0403004.6054688-.4433594-1.4565506-1.9915333-3.6898212-2.6856403-6.1765156-2.8193359.303915-.730689.8394642-1.2090311.8186035-2.1337891-.0126953-1.0908203-.8442383-2.0458984-1.8540039-2.1298828-.7352123-.0507045-1.4445839.4147525-1.7358398 1.0791016-2.0915279-2.1334157-4.5475521-.7910218-4.1396484.9765625-2.8597908-.5293779-4.3643227 2.1100721-2.9526367 3.6308594-.9407101.6992903-.7052956 1.9414148.2752686 2.5473633-.5021973.7373047-.8848877 1.5524902-1.1156006 2.4174805-.4423828 2.2197266-.1113281 4.2773438 1.0112305 6.2900391 1.5235651 3.8602428 4.0449274 5.8841667 6.9497068 6.4804687zm-6.7543945-17.0634766c.1123047-.1103516.2485352-.1806641.3793945-.1962891.0952148.0322266.2006836.0537109.324707.0654297.4812355.0498686.6807652-.7563686-.1860352-.8164063-.4584961-.1972656-.7592773-.8037109-.6508789-1.3261719.137207-.6162109.7416992-1.1523438 1.4638672-1.3027344.5693359-.109375 1.2163086-.0292969 1.9384766.2519531.7529297.4710627 1.0359783-.3456402.5996094-.5644531-.0703125-.0351563-.1474609-.0654297-.2543945-.1044922-.1484375-.0957031-.2573242-.2734375-.3007813-.4931641-.1869144-.9541559.9342175-1.3685665 1.8295898-1.0087891.6523438.2568359 1.1660156.8330078 1.5825195 1.3623047.254921.3258543.7803535.0523386.6518555-.3466797-.1769581-.5507984.4537964-1.1866107 1.0224609-1.1308594.6235352.0517578 1.1577148.6884766 1.1655273 1.3945313.0097656.4394531-.1889648.7763672-.4194336 1.1660156-.4143467.7031355-.4011192.8275318-.444519.9277344-3.18083-.0109873-6.318409.9517679-8.3347168 3.3972168-.5036982-.2721031-.8031405-.8487985-.3672484-1.2751463zm16.3579121 9.458252c.1133728-.6173592.0576515-.2729321.1295166-.7685547.4195557-.3039322.3804932-1.0195618.3468628-1.5007324.8888511.1975231 1.000328 1.6621647-.4763794 2.2692871zm-14.7263203 1.8078613c.8351765.6569939 2.0930367.1351528 1.748291-.4213867-.1098633-.1767578-.3408203-.2304688-.5166016-.1210938-.1958008.1210938-.465332.1337891-.671875.0263672-.6548119-.333643-.3764935-1.3455944.3520508-1.2314453.2132435.0362301.4543533-.1217136.4309082-.3986816.0144043-.0705566.0122681-.144043-.0153809-.213623-.2320137-.5800343-.0761604-1.4252911.8603516-2.1953125 1.5977612-1.142622 4.2580757-1.106884 5.09375-3.1630859 2.4028797 2.6371746 5.7672443 1.6814537 6.8836689 4.668457-.2841301 2.2303562-.9095879 4.6005611-2.4666767 6.2211914-3.206665 3.3548813-9.17453 2.5993404-11.9803467-2.3117676.0852051-.0925293.1376953-.2109375.1029053-.338623-.0477905-.1743165.0334473-.3828126.1789551-.5209962z"/><path d="m57.6074219 35.3699646c-.3823242-.8320313-1.0673828-1.4111328-1.7861328-1.5117188-.6175919-.0921288-1.2093239.1454163-1.8369141.3681641-1.2231445.3847656-2.5385742.3388672-3.7055664-.1318359l-.0932617-.0380859c-1.1806641-.4775391-2.199707-.8916016-3.3969727.5126953-.6665039.7558594-1.027832 1.7685547-1.3183594 2.5849609-1.4980469 4.3105469-2.5161133 8.8173828-3.0258789 13.3955078-.1635742 1.4169922-.2045898 3.0097656.7280273 4.0761719 1.5125351 1.7354584 3.7954597.8865013 12.6982422.7871094 1.4555664-.0449219 3.0449219-.2705078 3.8168945-1.6328125.0141602-.0273438.0722656-.1601563.0795898-.1904297.050293-.2011719-.0834961-.3857422-.284668-.4355469-.1987305-.0478516-.4160156.0908203-.4663086.2910156-.9119835 1.6077232-2.8253784 1.0992126-12.1713867 1.5019531-2.9283028.0922699-4.0682297-.7270393-3.6552734-4.3125.5039063-4.5244141 1.5097656-8.9765625 2.987793-13.2314453.3413086-.9580078.6445313-1.7382813 1.1777344-2.3427734.872963-1.0238914 1.4095917-.7703476 2.6430664-.2705078 2.3912048.96492 4.4018326.0670395 4.5019531.0517578.4296875-.1523438.8354492-.2939453 1.2163086-.2412109.5610352.078125.9926758.6103516 1.2109375 1.0849609.4089012.872612.3236351.9426651 2.2729492 15.0195313 0 .4512329.746582.4684944.746582-.0722656-.6074219-4.3544922-1.2050781-8.7070313-1.8051758-13.0830078-.1035155-.732422-.2104491-1.4902345-.5341795-2.1796876z"/><path d="m60.4359131 21.0486755c.8599854.3500977 1.5999756.9599609 2.0999756 1.7399902-.0203056-2.8194637-1.9226685-5.362257-4.7399902-6.1398926 1.1900024-.5 2.0100098-1.7700195 1.960022-3.0600586-.9700317.4499512-2.1000366.3100586-3.1700439.3000488-1.0799561-.0200195-2.2799683.1599121-2.9299927 1.0197754.0200195-.3898926-.2099609-.7597656-.5199585-1-.3000488-.2397461-.6800537-.369873-1.0500488-.4897461-1.289978-.4501953-2.5700073-.8901367-3.8699951-1.3200684.4235992 1.5859222.0564728 1.2428064 1.2000122 2.7800293-1.1799927-.3701172-2.25-.6101074-3.4699707-.2202148-1.1600342.3601074-2.1600342 1.1901855-2.7400513 2.2602539.4500122-.0200195.9100342-.0400391 1.3700562-.0600586-1.9963989 2.6105957-2.3887329 6.328125-1.0393677 9.3200684-.0934448.0805664-.1576538.201416-.1576538.3269043 1.8511353 8.7427139 13.8669548 9.5088005 16.6381226 1.1748047.0811768.3227539.1091919.6582031.0588989.9882813 1.1477509-1.4001808 1.5561714-3.6105995.5-6.1000977-.2000122-.4499512-.6000366-.8598633-.75-1.3200684-.2000124-.5700683.1899412-.3698729.6099852-.1999511zm-5.8599854-4.8200683c.0699463-.1899414.289978-.2897949.4799805-.2199707 1.5299683.5800781 2.7799683 1.8400879 3.3399658 3.3701172.1675529.4785614-.5255165.7208385-.7099609.2600098-.4800415-1.3300781-1.5599976-2.4299316-2.8900146-2.9299316-.1900025-.0700685-.2899781-.2900392-.2199708-.4802247zm-10.3312988 10.6608886c-.046875-.1796875-.09375-.3583984-.1235352-.4609375v-.0097656c0-.1643066-.1048584-.2731934-.2508545-.3125.5918579-1.5373535 1.1837769-3.0686035 1.7756348-4.607666-.0999756.5100098.0500488 1.0600586.3900146 1.4401855.6900024-1.2900391 1.3699951-2.5900879 2.0499878-3.8901367-.218338.7780495.9402962 1.9664631 2.5500488.5400391.25-.2199707.6599731-.8601074 1-.9101563.3399658-.0397949.6199951.4401855.7999878.6601563.6699829.8000488 1.3499756 1.6000977 2.0199585 2.4099121.2000122-.7399902.0400391-1.5700684-.4099731-2.1899414 1.8699951 1.0900879 3.1199951 3.1799316 3.1900024 5.3400879.460022-.380127.8599854-1.3701172.5499878-1.9902344.5104027.7942142.8625259 1.6142979.9046021 2.5800781-.2150879-.1140137-.4484863-.1831055-.6856079-.1977539-.1972656-.0410156-.3847656.1425781-.3974609.3505859-.0131836.2060547.1435547.3847656.3505859.3974609.265625.0166016.5292969.1601563.7236328.3916016.7154541.8556709-.1731567 1.8337708-.9643555 1.7021484-.5037308-.0687447-.6021347.6601963-.1230469.7402344.4383278.0734634.8533096-.0463867 1.2317505-.2861328-3.243225 6.3132325-12.6745109 5.2562905-14.5813598-1.6972656z"/><path d="m19.3286114 47.3103943c.2573357-.4277153-.3900986-.8102303-.6425781-.3867188l-2.0859375 3.4628906c-.3886719.6445313-.2758789 1.4619141.2749023 1.9873047 1.2758789 1.217041 2.852356 2.1008301 4.5866699 2.623291-.1161499.0002441-.2301636.0473633-.3029785.1481934-1.7346802 2.4050293-1.8789673 5.8105469-.3937378 8.3725586-1.7642517.8095322-3.8556023 3.0198517-2.6218872 4.0922852.2758846.2408905.6726227.3061905 1.0297852.2480469 1.0540085-.1685104 3.838623-2.0694199 3.9804688-3.2421875.1079998-.8917961-.7404747-1.4005508-1.659668-1.3168945-1.4379883-2.3273926-1.3275757-5.4963379.2734375-7.7143555.1177979-.1635742.0825806-.3879395-.0739136-.5117188 2.1548843.6031303 4.0712757.5616837 6.0897827.2355957-.0130653.1134834.2246628 6.4833374.3037109 8.7365723-.487915.0654297-.9661865.1745605-1.411377.3520508-1.6094608.637825-1.5009499 1.9233856-.4755859 2.3974609.9841614.454483 4.3540058.3955231 5.1108398-.4882813.7193127-.8416138-.1149654-2.0093307-1.1655273-2.2138672-.4324951-.0844727-.8721924-.1071777-1.3097534-.1008301-.3790455-9.4768257-.2422504-8.5466766-.3745117-8.8032227 2.5479126-.4953613 4.9683857-1.4165039 7.106142-2.2844238.9168243-.3716316 1.2784195-1.4857101.7441406-2.3261719l-2.3754883-3.734375c-.1072998-.1691895-.3265991-.2207031-.4996338-.1223145.3225708-.7739258.3050537-1.7214355.2600098-2.5324707-.2400513-3.8701172-1.1900024-7.6801758-2.7800312-11.1101074-.3542519-.7673683-.8364697-1.604723-1.6400146-1.3300781-2.25.7299805-4.6999512.630127-6.8999634-.2700195-.8200073-.329834-1.7200317.5100098-2.2300415 1.3000488-.5199585.7900391-.75 1.7700195-.9400024 2.7299805-.5699463 2.9899902-.7599487 6.0800781-.5599976 9.130127.1319962 2.1425171.2995872 2.2215347 2.4700317 3.2697754 3.3485031 1.6281967 7.1308327 1.6236229 10.4099731.2001953.6185322-.2717285 1.3380756-.4616699 1.7240009-1.0258789.0187569.1835747-.0506935-.0333214 2.4283447 3.8974609.2824707.4453545.0906143 1.0328064-.3935547 1.2285156-2.699707 1.0966797-5.8520527 2.2880859-9.1044941 2.5458984-3.3579102.2753906-6.5605469-.7988281-8.7875977-2.9238281-.2944336-.28125-.355957-.7158203-.1499023-1.0576172zm3.0805664 17.2158203c-.1077747.8696442-4.1564045 3.7251205-3.8588867 2.1289063.1710796-.9163513 2.1282463-2.6210938 3.1259766-2.6210938.3475513 0 .7749786.135849.7329101.4921875zm7.5932617.3027344c.3378906.0654297.7060547.3583984.8041992.6386719.1425381.4097977-.3781757.5789948-.8032227.6669922-.9975338.2090683-2.8214588.2861938-3.4897461-.0214844-.6382198-.2921982-.2199955-.757309.4384766-1.0185547.9204827-.3675995 2.0333672-.4630051 3.050293-.265625zm-1.4465332-18.4003907c-2.7015133.8149719-5.9617519.0569763-8.0400391-1.9799805-.1499634-.1398926-.1499634-.3798828-.0099487-.5297852.1499634-.1401367.3899536-.1501465.5299683 0 1.8699951 1.8198242 4.7999878 2.5400391 7.2999878 1.7900391.4836368-.1452254.6913814.578766.2200317.7197266z"/><path d="m47.5737305 56.509613c-.9191284 2.5168457-1.5625 5.125-1.9379883 7.7587891-.8570518-.3111115-2.3978043-.3055496-3.6958008.2568359-1.5891914.6835861-1.4903183 2.029007-.4760742 2.5361328 1.1081619.5558853 6.1355972.5644531 5.3115234-1.7070313-.0869141-.2397461-.2515869-.4609375-.4486084-.6520996.3592529-2.6931152 1.012085-5.362793 1.9510498-7.9348145.1700592-.4659194-.5340156-.7246665-.7041015-.2578124zm-2.3012696 9.9042969c-.9277344.2089844-1.8730469.2568359-2.8115234.1416016-.3608932-.0433655-.8903961-.1465454-.9790039-.5009766-.0336914-.1347656.0268555-.3134766.1552734-.4560547.6764793-.7603836 3.9484444-1.3274689 4.4331055.0117188.176178.48246-.3098183.6908874-.7978516.8037109z"/><path d="m45.0981445 34.9207458-5.0029907 3.8208008c-.2709427-.2782936-.6911392-.3669205-1.0800781-.3937988-.4557495-.1425781-.9160156-.173584-1.3605957-.0830078l-5.5221558-5.5900879c-.1450214-.1474609-.3823261-.1484375-.5302753-.0029297-.1469727.1455078-.1484375.3828125-.0029297.5302734l5.4270039 5.4936523c-.0129395.0305176-.0278931.0605469-.0366821.0908203-1.9369888 1.0671043-2.007782 3.4745064-.5299683 4.5209961.8738327.6206474 2.1555557.5076599 2.8608398-.2304688.0577393-.0605469.0930176-.1333008.1422729-.1987305.0021973-.0004883.0049438 0 .0071411-.0004883 1.4289322-.247509 2.259346-2.0770378 1.078186-3.5385742l5.0053101-3.8227539c.3941384-.3017424-.0603027-.8961523-.4550781-.595703zm-8.2050781 7.7753907c-.559082-.3964844-.8320313-1.1982422-.6494141-1.9072266.1777344-.6845703.7597656-1.2851563 1.4838867-1.53125.0063477-.0029297.0126953-.0048828.0185547-.0068359.4399605-.1769676 1.4648705-.2592926 1.8100586.0009766.2037582.1525078-.1214333 1.2406044-.1738281 1.5917969-.1040039.7011719-.2216797 1.3134766-.6044922 1.7158203-.4560547.4746093-1.3173828.5371093-1.8847656.1367187zm3.0724487-.9208985c.1344337-.5451126.0409622-.2839775.295166-1.4460449.2035447.5648499.0882226 1.0501709-.295166 1.4460449z"/><path d="m53.8276367 67.0428162c-.0198517 1.0433578.9310112 1.8320389 2.3759766.6689453.8759842-.7063751 2.6296005-2.5259399 2.5859375-3.6474609-.0385323-.9954262-1.0621643-1.3861809-1.9936523-1.0498047-.7562256-.802002-1.2794189-1.8901367-1.4282227-3.0458984-.1767578-1.3222656.140625-2.7119141.8706055-3.8125.2740898-.4123077-.3490601-.8279762-.625-.4140625-.8291016 1.2490234-1.1894531 2.8261719-.9892578 4.3242188.1618042 1.2558594.7212524 2.4411621 1.5274048 3.3447266-1.1512376.8769835-2.3000413 2.4973982-2.3237916 3.6318358zm3.9863281-3.3212891c.4330406.2179565.1585655.7984085-.1054688 1.2050781-.45438.7022934-2.3374939 2.9841003-2.9711914 2.5732422-.0991211-.0673828-.1635742-.2451172-.159668-.4423828.014122-.6621857.8307686-2.2626495 2.2597656-3.2353516.1689455-.1152343.7097208-.2365722.9765626-.1005859z"/><path d="m9.010253 42.8748474c.6898279-.7218437.707572-1.7469559.8847656-2.5019531.0924683-.3955078.2054443-.8813477.1463623-1.2922363l8.760375-6.1647949c.4051781-.2849083-.0239925-.896759-.4316406-.6132813l-8.7080069 6.1279297c-.6513672-.4536133-1.9334717-.3012695-2.4941406-.0810547-2.2454772.7707863-2.7238379 3.5479431-1.0180664 4.7558594.8656473.61483 2.1499996.5147895 2.8603516-.2304688zm-3.0761719-2.2871094c.1777344-.6845703.7602539-1.2851563 1.484375-1.53125.0063477-.0029297.0126953-.0048828.0185547-.0078125.47998-.1909218 1.7207355-.2603989 1.8474121.0617676.003479.0061035.0045776.0131836.0084229.019043.0912914.3123932-.1699657 1.175972-.2200928 1.5119629-.1040039.7011719-.2216797 1.3144531-.6049805 1.7158203-.453125.4746094-1.3173828.5371094-1.8842773.1367188-.5590821-.3964844-.8320313-1.1982423-.6494141-1.9062501z"/><path d="m66.9272461 38.9100037c-.5857544-.1845703-1.3694458-.4257813-1.8388062-.0253906l-5.8814087-4.2988281c-.398777-.2938347-.8439598.3127747-.4423828.6054688l5.9376221 4.3398438c-.4662323 1.5452614.2649155 3.4958649 1.8968506 4.0546875.9892044.340374 2.1305237.038868 2.7695313-.7314453.6801758-.8183594.675293-2.1064453-.0112305-2.8701172-.6676789-.7427675-1.6934738-.8413088-2.4301758-1.0742189zm1.8642578 3.4658203c-.4375.5253906-1.2587891.734375-1.949707.5009766-1.1576996-.3971672-1.4740906-1.7162285-1.4199219-1.6162109-.1625977-.5185547-.1235352-1.5048828.1391602-1.8046875.1724472-.1916046 1.2559128.2247658 1.5742188.2949219.6914063.1582031 1.293457.3222656 1.6645508.7353516.4399413.4892576.436035 1.354492-.0083009 1.8896483z"/><circle cx="26.482" cy="23.218" r=".871"/><path d="m30.4730206 23.8763123c.480896 0 .8707886-.3898926.8707886-.8708496s-.3898926-.8708496-.8707886-.8708496c-.480957 0-.8708496.3898926-.8708496.8708496s.3898925.8708496.8708496.8708496z"/><path d="m48.4760742 25.0227966c0-.4807129-.3898315-.8706055-.8707886-.8706055s-.8708496.3898926-.8708496.8706055c0 .480957.3898926.8710938.8708496.8710938s.8707886-.3901367.8707886-.8710938z"/><path d="m51.6498413 24.4358826c-.480957 0-.8708496.3898926-.8708496.8708496s.3898926.8708496.8708496.8708496c.480896 0 .8707886-.3898926.8707886-.8708496s-.3898926-.8708496-.8707886-.8708496z"/><path d="m51.6835938 27.4764099c-.8671761.9277668-2.3871346 1.0581093-3.3945313.1103516-.1932144-.1831493-.5280609-.1101856-.6142578.1591797-.2602539.8164063.0302734 1.8085938.6904297 2.3603516.6597557.5528145 1.6472282.6580048 2.4121094.2568359.9168015-.4858265 1.3758774-1.5521832 1.5498047-2.5673828.027832-.1640626-.3890725-.5902024-.6435547-.319336zm-3.34375 1.078125c.8632813.5037193 1.9646683.5947647 2.9506836.1220703-.8278924 1.8585301-2.7797661 1.31666-2.9506836-.1220703z"/><path d="m27.0541973 25.953949c-.0834961.8544922.2763672 1.6435547.9160156 2.0097656.7129288.4105492 1.6773396.2894821 2.234375-.3056641.927515-.994482.3594341-2.4171314-.2109375-2.3554688-.1132813.0117188-.2148438.0742188-.2763672.1699219-.4488087.6983814-1.4280033.8171654-2.0317383.2460938-.2270049-.2174148-.6017093-.0737228-.6313476.2353516zm2.8891602.383789c.1125126 1.204298-1.668766 1.6028519-2.0727539.3613281.7239494.2713395 1.5030593.1200295 2.0727539-.3613281z"/><path d="m20.8466778 15.7625427c-.8505859.9082031-1.5664063 1.9306641-2.1279297 3.0380859-.2232113.4417744.4458599.7794056.6689453.3398438.5292969-1.0449219 1.2045898-2.0087891 2.0068359-2.8662109.3372364-.3581677-.204113-.8766461-.5478515-.5117188z"/><path d="m53.2641602 40.9256287c.0600586.1435547.1992188.2304688.3461914.2304688.0483398 0 .097168-.0087891.144043-.0292969.1914063-.0791016.2817383-.2988281.2021484-.4902344l-.8408203-2.0175781c-.192688-.4610329-.8820839-.1671524-.6923828.2890625z"/><path d="m48.5366211 44.0428162c-.2825127-.4072876-.8995247.0203247-.6162109.4277344 3.9660301 5.6051979 3.7445793 5.6552734 4.1206055 5.6552734.3025513 0 .4796104-.3415337.3076172-.5888672z"/><path d="m51.1416016 53.813324 4.1484375-4.5966797c.3334427-.3686676-.2263832-.8707237-.5566406-.5019531l-4.1484375 4.5966797c-.3329163.3680839.22509.8708305.5566406.5019531z"/><path d="m41.2070313 6.8172302c-1.0405273.8398438-1.9589844 1.8105469-2.7363281 2.890625-.3461914-.8164063-.5058594-1.7197266-.4545898-2.5996094.0243568-.414072-.5549622-.5592246-.7207031-.1660156l-1.1679689 2.8017578c-.0126953.0302734-.0463867.1103516-.0371094.1162109-.1540833-.0176096-.111721-.0369444-2.9619141-1.0908203-.3677788-.1405239-.6724892.3120995-.4106445.6015625l2.0532227 2.2724609c.3362236.3655138.8881798-.1350069.5566406-.5039063l-1.0180664-1.125c2.3893929.8975449 2.0944824 1.0150814 3.0698242-1.3251953.1333008.6806641.3735352 1.3417969.7099609 1.9423828.1398926.2498865.4920845.248805.640625.0224609.5380859-.8203125 1.1577148-1.5800781 1.8510742-2.2695313-.2041016.7255859-.3261719 1.4726563-.3647461 2.2333984-.0171356.3319788.3799858.5214729.6259766.296875.5288086-.4775391 1.1352539-.8691406 1.7880859-1.15625-.5483398.7900391-1.2016602 1.5-1.9511719 2.1191406-.3834152.3165798.0986557.89077.4775391.578125 1.0927734-.9023438 1.9951172-1.9853516 2.6816406-3.2197266.1613159-.2903681-.1087837-.6327915-.4238281-.5449219-.845703.2246097-1.649414.5996097-2.3642577 1.1005863.1264648-.8701172.3754883-1.7314453.7338867-2.5283203.162796-.3635078-.2782326-.6928401-.5771484-.4462891z"/><path d="m37.9155273 14.4090271-.5698242-1.2441406c-.2048836-.4495687-.8891296-.1399889-.6816406.3125l.5698242 1.2441406c.2063065.4509993.8884697.1385546.6816406-.3125z"/><path d="m38.9443359 14.6121521c.1962891 0 .3613281-.1523438.3735352-.3515625l.050293-.7890625c.0309296-.4834442-.7178802-.5609446-.7480469-.046875l-.050293.7890625c-.0131836.2060547.1435547.3847656.3505859.3974609.0078126.0009766.0156251.0009766.0239258.0009766z"/></g></svg>