<svg id="Layer_1" height="512" viewBox="0 0 512 512" width="512" xmlns="http://www.w3.org/2000/svg"><g><path d="m256 92.1c-90.4 0-163.9 73.5-163.9 163.9s73.5 163.9 163.9 163.9 163.9-73.5 163.9-163.9-73.5-163.9-163.9-163.9zm0 311.4c-81.3 0-147.5-66.2-147.5-147.5s66.2-147.5 147.5-147.5 147.5 66.2 147.5 147.5-66.2 147.5-147.5 147.5z"/><path d="m247.8 2h16.4v65.5h-16.4z"/><path d="m247.8 444.5h16.4v65.5h-16.4z"/><path d="m138.6 43.4h65.5v16.4h-65.5z" transform="matrix(.383 .924 -.924 .383 153.452 -126.437)"/><path d="m307.9 452.2h65.5v16.4h-65.5z" transform="matrix(-.383 -.924 .924 -.383 45.683 951.293)"/><path d="m66.8 91.4h65.5v16.4h-65.5z" transform="matrix(.707 .707 -.707 .707 99.575 -41.244)"/><path d="m379.7 404.2h65.5v16.4h-65.5z" transform="matrix(-.707 -.707 .707 -.707 412.405 995.69)"/><path d="m85 176.3-60.5-25.1-6.3 15.2 60.6 25.1z"/><path d="m427.6 332.5h65.6v16.4h-65.6z" transform="matrix(-.924 -.383 .383 -.924 755.377 831.557)"/><path d="m332.5 18.8h16.4v65.5h-16.4z" transform="matrix(.924 .383 -.383 .924 45.703 -126.471)"/><path d="m163.1 427.6h16.4v65.6h-16.4z" transform="matrix(-.924 -.383 .383 -.924 153.366 951.29)"/><path d="m404.2 66.8h16.4v65.5h-16.4z" transform="matrix(.707 .707 -.707 .707 191.203 -262.469)"/><path d="m91.4 379.7h16.4v65.5h-16.4z" transform="matrix(-.707 -.707 .707 -.707 -121.654 774.465)"/><path d="m427.6 163.1h65.6v16.4h-65.6z" transform="matrix(-.924 .383 -.383 -.924 951.298 153.467)"/><path d="m78.8 320.5-60.6 25.1 6.3 15.2 60.5-25.1z"/><path d="m2 247.8h65.5v16.4h-65.5z"/><path d="m444.5 247.8h65.5v16.4h-65.5z"/></g></svg>