<svg id="Layer_1" height="512" viewBox="0 0 512 512" width="512" xmlns="http://www.w3.org/2000/svg"><g><path d="m337.9 100.8v16.5c49.7 0 90.1 40.6 90.1 90.6h16.4c.1-59.1-47.7-107.1-106.5-107.1z"/><path d="m479.8 216.4c.5-4.6.7-8.7.7-12.7 0-74.9-61-135.8-136-135.8-40.2 0-77.6 17.4-103.5 48-8.4-3.5-17.1-5.8-25.9-7.1 0-8.1-1.3-16-3.5-23.4l15.5-6.5-6.3-15.2-15.5 6.5c-2.5-4.7-5.4-9.1-8.8-13.1l17.7-17.8-11.6-11.6-17.7 17.8c-4.1-3.3-8.4-6.3-13.1-8.8l6.4-15.6-15.1-6.3-6.4 15.6c-5-1.5-10.1-2.6-15.4-3.1v-25.3h-16.4v25.1c-5.3.5-10.5 1.6-15.4 3.1l-6.5-15.6-15.1 6.3 6.4 15.6c-4.6 2.5-9 5.5-13.1 8.8l-17.6-17.8-11.6 11.7 17.7 17.8c-3.3 4.1-6.3 8.5-8.8 13.1l-15.5-6.5-6.3 15.2 15.5 6.5c-1.5 5-2.6 10.2-3.1 15.5h-25v16.5h25.2c.5 5.3 1.4 10.5 2.9 15.5l-15.6 6.5 6.3 15.2 15.7-6.5c2.5 4.6 5.3 9.1 8.6 13.2l-17.6 17.7 11.6 11.6 17.8-17.9c2.6 2.1 5.4 4.1 8.2 6-3.5 8.4-6.1 17.3-7.5 26.7h-12.9c-37 0-67.2 30.1-67.2 67.1s30.1 67.1 67.2 67.1h29.2c20.1 25.9 51.2 41.2 83.8 41.2 32.7 0 63.7-15.3 83.8-41.2h176.7c37 0 67.2-30.1 67.2-67.1.1-22.6-11.3-43.5-30.1-56zm-412.3-107.4c0-36.3 29.4-65.9 65.5-65.9 35.5 0 64.5 28.5 65.5 64-.5 0-66.4-4.2-101.6 56.8-18.2-12.1-29.4-32.5-29.4-54.9zm375.3 214.1h-185s-30 41.2-75.6 41.2c-48 0-75.6-41.2-75.6-41.2h-37.4c-28 0-50.8-22.7-50.8-50.7 0-27.9 22.8-50.7 50.8-50.7h27.6l.7-7.5c4.7-51.7 47.4-90.7 99.5-90.7 29.4 0 48.8 12.6 48.8 12.6s29.8-51.8 98.7-51.8c66 0 119.6 53.6 119.6 119.4 0 13.3-2 21.6-2 21.6s31.4 14.6 31.4 47.1c.1 27.9-22.7 50.7-50.7 50.7z"/><path d="m69.9 498.4 11.6 11.6 32.8-32.9-11.6-11.7z"/><path d="m176.5 498.4 11.6 11.6 32.7-32.9-11.6-11.7z"/><path d="m283 498.4 11.6 11.6 32.7-32.9-11.5-11.7z"/><path d="m389.5 498.4 11.6 11.6 32.8-32.9-11.6-11.7z"/><path d="m184.7 399.6-32.8 32.9 11.6 11.6 32.7-32.9z"/><path d="m291.2 399.6-32.8 32.9 11.6 11.6 32.8-32.9z"/><path d="m397.7 399.6-32.8 32.9 11.6 11.6 32.8-32.9z"/></g></svg>