<svg id="Layer_1" enable-background="new 0 0 75 75" viewBox="0 0 75 75" xmlns="http://www.w3.org/2000/svg"><g id="Fruit_Basket" fill="rgb(0,0,0)"><path d="m38.3540802 46.9259033c-3.342556-10.8617363-1.7649803-5.7340736-3.0732422-9.9921875-.9535484-2.9926262-.7785492-3.5450172-1.7617188-5.4257832-1.1321678-2.1104889-2.2654037-1.6626701-5.546875-1.125-4.7110291.7247734-4.999649-.4501495-6.53125-.3349609-1.5292969.1162109-2.1181641 1.7431641-2.4287109 2.9580097-.8857422 3.4912109-1.5019531 7.0117188-1.8310547 10.4628906-.0195313.2070313.1308594.3896484.3369141.4091797.2207031.0185547.3896484-.1318359.4091797-.3369141.3261719-3.4140625.9355469-6.8964844 1.8115234-10.3505859.8605766-3.3650265 2.1741619-2.2830391 3.84375-1.9414082 3.3039398.6051178 7.224062-.9969234 8.3740234-.4238281.899231.4057522 1.6538124 2.698431 1.8564453 3.6630878.2265015 1.0773239 3.463604 11.4953079 3.8242188 12.6572266 1.1475563 3.7407036.0652809 4.7865677-3.4003906 4.9785156-12.4425316.5852814-13.4880676.9249382-14.9667969-.1171875-1.6210938-1.1474609-1.6835938-3.6230469-1.5898438-5.3857422.0253906-.4804688.0625-.9726563.0996094-1.453125.015625-.2060547-.1386719-.3867188-.3457031-.4023438-.2285156-.03125-.3867188.1396484-.4023438.3457031-.0371094.4863281-.0742188.984375-.0996094 1.4697266-.2829189 5.2511749 1.7550373 6.8681641 5.2021484 6.8681641 1.0515137 0 2.2509804-.1113243 12.1416016-.5761719 1.4720192-.0826035 3.0780945-.2657051 3.9853516-1.4658203.9550782-1.3017577.5488282-2.9960936.0927735-4.4814452z"/><path d="m22.2802277 19.6451397c.5843506.0778809 1.1379395-.458252 1.2363281-1.1975098.0985107-.7391357-.2954102-1.4014893-.8796387-1.479248-.5843506-.0778809-1.1379395.458252-1.2363281 1.1973877-.0985108.7391357.2954101 1.4014892.8796387 1.4793701z"/><path d="m29.7613068 21.3282452c-.0556641.0605469-.1025391.1289063-.1474609.1982422-.2460461.3936729-1.928093 1.2779827-3.6064453 1.2158203-1.2832031-.0371094-2.5732422-.5439453-3.5400391-1.3896484-.2441139-.2098522-.6242161-.0398769-.6220703.2861328.0136719 1.5058594.8701172 2.9570313 2.1816406 3.6972656 2.5461407 1.4372768 5.896122-.0058594 6.3759766-3.2294922.046875-.2753906.1064453-.6171875-.125-.8115234-.1542969-.1289063-.381836-.1142579-.5166016.0332031zm-1.8232422 3.3222656c-1.9520283 1.1484604-4.6051006.2025757-5.2294922-2.1787109 2.0413799 1.3172836 4.6743469 1.391428 6.84375.0517578-.0506535.1000213-.3225956 1.3657951-1.6142578 2.1269531z"/><path d="m24.7261505 55.0421143c-.0019531 0-.0048828 0-.0078125 0-.203125 0-.3701172.1621094-.375.3671875l-.2254639 10.3293457c-1.486351-.169136-4.2028465 1.0463562-3.9991455 2.5681152.0556641.4091797.3242188.7880859.7177734 1.0126953 1.025465.5885239 4.0977535.3539124 4.8173828-.953125.451849-.8204651.1370602-1.9242172-.7905273-2.4082031l.2299805-10.5332031c.0048828-.2070313-.1601562-.3779297-.3671875-.3828125zm.2714844 12.961914c-.4769096.8628311-3.0712147 1.0765762-3.7880859.6650391-1.3512135-.7741318 1.4244862-2.4002228 2.8919678-2.1817627l-.0013428.0577393c-.00811.3438416.412653.5167465.6488037.2587891.09375.0895996.1872559.1794434.2515869.3076172.1396484.2773436.1386719.6357421-.0029297.892578z"/><path d="m32.905838 67.3487549c-.1713638 1.6857452 2.5406914 3.0095291 4.8691406 1.9853516 1.7865143-.7885132 1.2758789-3.0644608-1.6079102-3.4074707l-1.8852539-11.4489746c-.0785294-.4827232-.8204918-.372261-.7402344.1210938l1.8619385 11.3071289c-1.0872993.0665435-2.3875007.3625258-2.4976806 1.442871zm2.7716065-.7150879c.1192169.0666733.183136.0936127.333252.0214844.5974617.0595169 1.5446205.3707886 1.8804932.8244629.290081.392189.243824.8752441-.4189453 1.1679688-.9648438.4267578-2.0712891.3876953-3.0332031-.1005859-.4657516-.2379379-.8392067-.6056519-.7871094-1.1220703.0556641-.546875 1.0595703-.6914063 1.5087891-.7558594.2738379-.0395738.4155424-.0322038.5167235-.0354005z"/><path d="m25.7388458 39.3302002 2.6542969-2.5400391c.1503906-.1425781.1552734-.3798828.0117188-.5292969-.1425781-.1494141-.3798828-.1572266-.5292969-.0117188l-2.6542969 2.5380859c-.1503906.1435547-.1552734.3808594-.0126953.5302734.0742188.0771484.1728516.1162109.2714844.1162109.0927734.0000002.1865234-.0341795.258789-.1035154z"/><path d="m29.381424 17.7608624c-.625-.0771484-1.2685547.1347656-1.7265625.5664063-.3610744.3423176.1569347.8872013.515625.5449219.6286488-.5950089 1.6500587-.4660683 2.1113281.2626953.2633591.4128361.9006939.0208607.6347656-.4003906-.3359375-.5312501-.9091797-.8945314-1.5351562-.9736329z"/><path d="m43.489212 49.4804688c-.2655182-.0474167-.4540634.1714439-.4349365.3956299.5149841 5.8365021 5.6847382 11.4833984 12.6669922 11.4833984 8.3615723 0 14.4184418-7.5742912 12.625-15.6806641l-.1224365.02771c-.1696854-.1976013-.3902206-.2511711-.5715332-.3199463-1.282547-4.0678711-2.8572235-8.448555-6.515625-10.7729492-2.9450378-1.899231-7.0773964-2.0828094-10.5418701-.2301025-.68396-.8279495-1.6809311-1.1266747-2.5483398-.9459229-.8267403.1807594-1.7124825.9089088-1.8813477 1.824585-3.864502-.50354-7.6116943-2.3446045-10.3305664-5.1107197-.1445313-.1484375-.3818359-.1494141-.5302734-.0048828-.1474609.1455078-.1503906.3828125-.0048828.5302734 2.8692627 2.9189472 6.8353271 4.8536396 10.9144287 5.3510761.170887.4914551.5156403.7924309.9460449 1.0201416-3.3419762 3.5830689-3.5965462 7.5331879-3.6706544 12.4323731zm15.3775635 10.7315673c-7.1373901 1.8255882-13.6184349-2.8033752-14.8911133-9.4501953.2180176.0825195.4827881.1538086.8010254.2019043 3.5291176.6395531 10.9220619-.5019836 14.7999268-1.3800049.0200195 0 .0400391-.0100098.0500488-.0100098.0200195 0 .0400391-.0100098.0500488-.0100098.75-.1600342 1.4699707-.3399658 2.1499023-.5200195.0200195-.0098877.0300293-.0098877.0400391-.0098877 2.8098145-.7476807 4.9396973-1.5683594 5.904541-2.2860107.8158799 5.5984917-2.4404525 11.8109818-8.9044189 13.4642334zm-5.4525146-17.619873c.0556641.0883789.1275635.1660156.1767578.2580566.1257324.2362061.1940918.4980469.295166.7412109-.4241371.238575-.793911.5304794-.9383545.9975586-.145153.4729195.5697212.6965332.7167969.2207031.0507813-.1640625.1953125-.3232422.4296875-.4736328.4408913-.2845764 1.3608742-.5815849 1.7861328-1.7421875.16922-.4677048-.5350533-.7236366-.7050781-.2578125-.0482178.1325684-.1275635.2504883-.2042236.3691406-.2235031-.1442528-.3660469-.1621094-.7769775-.5031738.5493126-.378376.6915855-.7219315 1.1159668-1.4645996.4829674-.8141479 1.6812668-1.1747551 2.6748047-.7578125 1.5253372.6388016 2.3978729 3.049015 2.5292969 4.6884766.1701813 1.6951447-.2049446 2.8541565-1.0722656 3.9990234-2.9692268.6694145-5.4391785 1.0118408-7.4404297 1.2392578-3.0288849-1.5952873-3.0868073-3.6079788-3.1445313-3.7080078-.3116455-1.8698654 1.4900169-3.0263519 3.2109375-3.3134766.5426215-.0818557.8918837-.1374625 1.3463134-.2927245zm-5.2125244-8.4211426c2.3846741-.4811211 3.3257446 3.5983429-.2294922 2.4091797-.2788391-.0984154-.5808868-.2165756-.7998047-.4208984-.7733078-.7219468.1689796-1.8000412 1.0292969-1.9882813zm.35083 3.3289795c.1004753.017601.2948112.0684814.5739746.0684814 1.1593018 0 1.9453125-.7686768 1.9453125-1.8046875 0-.0673828-.0249023-.1315918-.0308838-.1986084 3.0698509-1.7590637 6.9152107-1.5935287 9.7357178.3885498 1.75 1.2299805 3.0799561 3.0899658 4.0499268 5.0999756.6394043 1.3051758 1.0473633 2.7033691 1.5424805 4.0787354-1.5000992-.1809616-3.6990776-.1156349-5.0799561.0250244-.0682831-2.2010269-1.0656815-5.0551109-3.0141602-5.8692627-1.4213638-.598175-3.0186195.0079231-3.6279297 1.0859375l-.0009766-.0009766c-.4713516.782444-.3742867.859623-.9803467 1.2817383-.4543457-.597168-.7182617-1.342041-.6970215-2.0931396.0056152-.1966553-.0024414-.4465332-.1853027-.5189209-.1335449-.0527344-.2868652.03479-.3674316.1535645-.1335449.1963768-.1931305.892128-.9501953 1.1383057-.1500244.0487061-.345459.1108398-.3494873.2684326-.0090828.362339.7108879.150631 1.8165283 1.3466797-.9170723.2505646-2.7640533.2419243-4.1861572 1.9165039v-.0009766c-.8689156 1.0636673-.8435326 2.411808-.2628174 3.6386719-1.2931671.3831825-2.7021408.8677483-3.8857422 1.4942627-.0566749-4.3430978.806202-8.2448312 3.9544678-11.4982911z"/><path d="m62.7261505 50.2159424c-.2080078.0048828-.3720703.1757813-.3671875.3828125.0386963 1.7612305-.4227295 3.5407715-1.2717285 5.0998535-.1959763-.0841637-1.647213-.3075256-3.1810303-1.6801758.4279785-.6427002.8166504-1.3110352 1.1373291-2.0114746.0859375-.1884766.0039063-.4111328-.1845703-.4970703-.1855469-.0849609-.4111328-.0039063-.4970703.1845703-.2838135.6199951-.626709 1.2115479-.9993896 1.7841797-.4729004-.5218506-.8769531-1.104248-1.1705322-1.7402344-.2095604-.4520836-.8897667-.1345406-.6816406.3144531.3508301.7591553.8388672 1.4536133 1.4180908 2.0637207-.8208008 1.1230469-1.8076172 2.1230469-2.9133301 2.9681396-1.7380371-1.0938721-3.1630859-2.6745605-4.0213623-4.5611572-.2086182-.4523964-.8867111-.140049-.6835938.3105469.87854 1.9294434 2.3048096 3.5690918 4.0527344 4.7336426-.6871338.4660645-1.4119873.8747559-2.1689453 1.2106934-.4448586.1972046-.1602936.8861275.3046875.6855469.9033203-.4008789 1.7601318-.9038086 2.5670166-1.4790039.8447266.4794922 1.7441406.8647461 2.6917725 1.1118164.0322266.0078125.0634766.0117188.0947266.0117188.4401131 0 .5171165-.627018.0947266-.7382813-.7799072-.2028809-1.5289307-.4992676-2.2359619-.8725586 1.0407715-.8291016 1.9711914-1.7941895 2.7628174-2.8626709.9302979.8140869 2.0406494 1.418335 3.2299805 1.7214355-.3779297.5865479-.8128662 1.1341553-1.3027344 1.6251221-.3510246.3510246.1842537.8762894.53125.5292969 2.0537109-2.0576172 3.2412109-5.0214844 3.1767578-7.9287109-.004883-.2070313-.2167971-.350586-.3828127-.366211z"/><path d="m9.1236105 46.6964111c.9768953-.6870995 1.4053621-2.137825 1.2076416-3.0065918 3.8144531-2.8526611 6.5074472-7.1557617 7.389039-11.8371601.0930653-.4839401-.646244-.6317673-.7363281-.1386719-.8431396 4.474123-3.4088144 8.5864277-7.0445566 11.3287373-.8204136-.572998-2.8644152.2707138-3.4915767 2.1009521-.6001649 1.7758294 1.3871775 2.4587823 2.6757808 1.5527344zm.2001953-3.0976562h.0117188c.1328125 0 .1748047.0478516.1933594.0693359.2705841.3126144.0260162 1.807003-.8369141 2.4150391-.6797867.4778328-1.437542.2390938-1.5810542-.125-.243197-.6332321.9257235-2.3345452 2.2128901-2.359375z"/><path d="m17.4922638 19.826292c.355154 2.9454136 1.6674747 5.3832359 3.6254883 7.2441406 2.918663 2.7742767 7.1319904 2.697794 10.2363281.7021484 2.3455391-1.5068607 4.086956-4.0392895 4.59729-7.0162354.1002426-.0386047 1.2332001-.139822 1.864624-1.192749.7168922-1.2003384.127243-2.8124218-1.3214111-2.9481201 1.349968-7.8175917-5.9842033-14.0040388-13.0979004-10.1116943-.5700684.2999268-.9599609.0699463-1.5999756.0799561-3.7502289.1066284-7.3789768 4.3492236-5.6199951 9.0999756.092041.2341309.1967773.7309561.390625.9807119-1.4831323.8732672-.8727827 3.1884985.9249268 3.1618662zm13.456543 7.3154297c-1.9091797 1.2275391-4.0576172 1.6142578-6.2148438 1.1142578-3.6432419-.8420963-7.2679787-5.7961273-6.4770508-11.4245605.5085182-.0964165.6423435-.3530979 1.0496826-.607666.5492859-.3364916 1.1869354-.5075073 2.3400879-2.420043.6040039-1.019165 1.1633301-2.1229248 1.9945068-2.9344482.3339958.0342321.7230587.0910378.9520264.1228027.4670238 3.1583958 3.9469604 4.563446 6.4434814 2.9816895-.4463692.5357285-.2979012 1.3231459.1300049 1.8699951.8109608 1.048358 1.7061234 1.0050173 2.9299316 2.920043.1101074.1799316 1.1900635 1.3498535 1.1900635 1.3498535.0028076-.005249.0050049-.0107422.0078125-.0161133-.2763747 2.6753101-1.8390578 5.4336662-4.345703 7.0441894zm5.1030273-7.1794433c.0408936-.5256348.0374756-1.0439453-.0201416-1.5480957.1202393-.3444824.2246094-.6936035.3110352-1.0476074 1.3359184.0159416 1.5027542 2.1231155-.2908936 2.5957031zm-6.0551758-12.3286128c1.7200928.8200688 3.2000732 2.1600347 4.1800537 3.7800298.1399345.2290831.0060883.5700684-.3200684.5700684-.1199951 0-.25-.0600586-.3199463-.1800537-.9100342-1.5-2.2800293-2.7399902-3.8599854-3.4899902-.4489592-.2125141-.1356314-.8823611.3199464-.6800543zm-12.5301513 9.5351557c-.0639648.6293945-.0917969 1.263916-.0551758 1.8999023-1.2740193-.0498065-1.1999855-1.9211482.0551758-1.8999023z"/><path d="m65.0708771 34.0870361c.4951172-.6806641.6230469-1.5947266.3339844-2.3847675-.171257-.4691868-.8735275-.2077618-.7050781.2578125.2011719.5498066.109375 1.211916-.2363281 1.6855488-.292534.4057655.3147963.8379898.6074218.4414062z"/><path d="m66.4077911 33.928833 1.0302734-1.4423828c.2888184-.4006195-.3191147-.8405056-.609375-.4355469l-1.0302734 1.4423828c-.2908172.4033852.3211899.8389969.609375.4355469z"/><path d="m65.3384552 35.8331299c.7216797-.4833984 1.6777344-.6083984 2.4941406-.3271484.4727402.1583672.7105865-.5480614.2441406-.7089844-1.0371094-.3564453-2.2460938-.1992188-3.15625.4130859-.4109573.2755241.003975.8990402.4179688.6230469z"/></g></svg>