<svg id="Layer_1" height="512" viewBox="0 0 512 512" width="512" xmlns="http://www.w3.org/2000/svg"><g><path d="m337.9 68.7v16.4c49.7 0 90.1 40.4 90.1 90.1h16.4c.1-58.7-47.7-106.5-106.5-106.5z"/><path d="m479.8 183.9c.5-4.6.7-8.7.7-12.7 0-74.5-61-135.2-136-135.2-40.2 0-77.6 17.3-103.5 47.7-14.1-5.7-28.9-8.7-44-8.7-58 0-106.2 41.5-114.9 97.7h-12.9c-37 0-67.2 30-67.2 66.8s30.1 66.8 67.2 66.8h29.2c20.1 25.7 51.2 41 83.8 41 32.7 0 63.7-15.2 83.8-41h176.7c37 0 67.2-30 67.2-66.8.1-22.4-11.3-43.3-30.1-55.6zm-37 106.1h-185s-27 41-75.6 41c-52 0-75.6-41-75.6-41h-37.4c-28 0-50.8-22.6-50.8-50.4s22.8-50.4 50.8-50.4h27.6l.7-7.5c4.7-51.4 47.4-90.2 99.5-90.2 23.8 0 48.8 12.5 48.8 12.5s33.1-51.6 98.7-51.6c66 0 119.6 53.3 119.6 118.8 0 11.2-2 21.5-2 21.5s31.4 10.7 31.4 46.9c.1 27.8-22.7 50.4-50.7 50.4z"/><path d="m83.9 430.7h16.4v46.3h-16.4z" transform="matrix(-.707 -.707 .707 -.707 -163.631 839.917)"/><path d="m190.5 430.7h16.4v46.3h-16.4z" transform="matrix(-.707 -.707 .707 -.707 18.206 915.232)"/><path d="m297 430.7h16.4v46.3h-16.4z" transform="matrix(-.707 -.707 .707 -.707 200.043 990.548)"/><path d="m403.5 430.7h16.4v46.3h-16.4z" transform="matrix(-.707 -.707 .707 -.707 381.881 1065.864)"/><path d="m150.9 380.1h46.3v16.4h-46.3z" transform="matrix(.707 -.707 .707 .707 -223.586 236.812)"/><path d="m257.4 380.1h46.3v16.4h-46.3z" transform="matrix(.707 -.707 .707 .707 -192.388 312.13)"/><path d="m363.9 380.1h46.3v16.4h-46.3z" transform="matrix(.707 -.707 .707 .707 -161.19 387.448)"/></g></svg>