<svg id="Layer_1" enable-background="new 0 0 75 75" viewBox="0 0 75 75" xmlns="http://www.w3.org/2000/svg"><g id="Garden_Flower" fill="rgb(0,0,0)"><path d="m33.163723 12.5222807c.8730469-.2773438 1.1993408-1.0219727 1.4884033-1.6896973.0126953-.0302734.0214844-.0615234.0263672-.0947266.2717781-1.8762512-1.7818222-3.5142732-3.9394531-2.5566406.0781326-1.2240548-.7224426-2.2709241-1.8476563-2.7695308-1.7663307-.7946911-3.8789063.1094365-3.8789063 2.0966797-2.4443035-1.5500464-4.7178364.6842713-2.9580078 2.7148433-.8365498.1913567-1.4161491.8516006-1.5917969 1.6269531-.1117592.481966.6193771.6525173.7304688.1679688.2312737-1.0070028 1.3001595-1.3288765 1.8398438-.9248047.3958435.2974691.8461685-.3010664.4501953-.5986328 0-.0009766 0-.0009766-.0009766-.0009766-.3740234-.2832031-.7617188-.5908203-1.0234375-.9697266-.2568359-.3818359-.3398438-.7998047-.2207031-1.1171875.2138672-.5624995.9746094-.7626948 1.5537109-.6279292.6806641.1611328 1.2607422.6630855 1.8212891 1.148437.3659344.3193188.8601017-.2255745.5-.5576172-.5469742-.5098915-.4181652-1.5337615.1357422-2.0273433 1.0259552-.9231825 2.9762611-.3930483 3.578125.9179688.2412109.5244141.2216797 1.1289058-.0507813 1.5791011-.2201347.3661442.2491646.7593164.5703125.4746094.6738281-.5986328 1.5996094-.8154297 2.359375-.5556641.7724609.265625 1.3183594 1.0771484 1.2363281 1.8251953-.8072548 1.859436-1.3618889 1.0348444-2.1748047 1.3857422-.0002441 0-.0108643.0058594-.0133057.0070801-2.7601643-.8335743-6.1084232-.5414476-8.2357178 1.517334-.4333496.4174805-.8153076.9089355-1.1680908 1.4492188-.4958496-.3515625-.8869629-.8820801-1.0838623-1.5195313-.1498299-.4804087-.8609219-.2488642-.7167969.2207031.2510986.8139648.7637939 1.4931641 1.4155273 1.9394531-.8724442 1.5875998-1.5640602 3.4649725-1.0626221 5.2060556-1.5238838.7883739-.8904266 3.3147354 1.1936035 3.3283691 1.0161228 5.4838028 6.1028595 7.8278351 9.8284912 6.1169434 2.4596062-1.131649 3.619709-3.5274906 4.3902588-6.0622559.0047607.0012207.0083008.0046387.0130615.0056152.6120567.1275101 1.2810097-.0881977 1.703125-.5576172.7821846-.8676796.5661621-2.3198681-.637085-2.8432617 1.0633281-2.823921-.323486-6.392164-4.2302243-8.2551277zm-9.1248779 1.5114746c1.2075119-1.1693325 2.9971714-1.7353516 4.4394531-1.7353516.0117188 0 .0273438.0009766.0390625 0 5.398922-.0949554 9.0581169 3.8885412 8.3720703 7.515626l-.0009766.0009766c-.0253906.1416016-.0605469.2841797-.1044922.4287109-1.064537-1.7918243-2.8496437-3.326313-4.7275391-3.96875-.3528004-.2958107-.8194485.1987228-.5273438.5273438.4730453.6213341.602005 1.4980602.4541016 2.0986328-.0166016-.0166016-.0361328-.0361328-.0566406-.0595703-1.0673828-1.1796875-2.3212891-1.9150391-3.7275391-2.1855469-.3312092-.0695133-.5826416.3209209-.3681641.5966797.2861328.3720703.4160156.875.3710938 1.3535156-.5390625-.4326172-1.2666016-.65625-2.015625-.5966797-1.3572521.1141739-2.0171947.9532185-3.03125 1.6865234-1.0653172.7693958-.9727135.8067493-1.0732422.8935547-.1517982-.04002-.312685-.053648-.4716797-.0341797-.5554808-2.0334148.9472238-5.0948381 2.4287111-6.5214853zm-3.0078125 7.5810556c.2325439-.2670898.6633301-.3271484.9528809-.1643066-.0184212.215313-.1226292.6660061.0072021 1.9040527-1.0730248-.0816135-1.4711991-1.1536922-.960083-1.7397461zm14.0371093 3.8837891c-.7441406 1.9316406-1.9716797 3.3710938-3.4570313 4.0546875-2.0175781.9257813-4.6679688.4384766-6.4501953-1.1865234-1.9775219-1.8024483-2.7979317-4.7583675-2.3846436-7.4099121.5087051-.4785442 1.0476818-.7770195 1.5721436-1.2346191.6826172-.6142578 1.2685547-.9121094 1.9003906-.9648438.7460938-.0537109 1.4648438.2617188 1.8261719.8046875.1654377.2470818.5324211.2118626.6533203-.0507813.2724609-.5917969.3027344-1.2861328.1113281-1.9072266 2.2965622.8088512 2.5723553 2.4224567 3.4277344 2.0849609.6595764-.2657986.5788956-1.6786022.3652344-2.3574219 1.2716827.6577663 3.160244 2.3030319 3.5311279 3.388916.0152589 1.2331544-.3527831 2.8395997-1.095581 4.7780763zm1.4422608-2.0527344c.1555176-.6018066.2800293-1.1762695.3416748-1.6945801.1563721-.0829849.1697655-.1952324.2243652-.2980957 1.1870232.4837895.6457939 2.2127743-.56604 1.9926758z"/><path d="m25.8347435 15.1519194c.84375-.6328125 1.9609375-.8652344 2.9912109-.625.2724609.0693359.5380859-.1035156.6005859-.3720703.0634766-.2685547-.1025391-.5380859-.3720703-.6005859-1.3115234-.3125-2.7402344-.0107422-3.8193359.796875-.2207031.1660156-.265625.4794922-.1005859.7001953.1677914.2226152.481514.2645978.7001953.1005859z"/><path d="m56.0349388 44.0220375c-.7441406.4150391-1.3242188 1.1103516-1.6279297 1.90625-.5878906-.5576172-1.5566406-.8876953-2.1386719-.8847656-1.1064453.0146484-2.0986328.7958984-2.3076172 1.8164063-.1514778.7361259.1684685 1.57687.8134766 2.0488281-3.0478897 1.716629-1.2939377 5.0200195 1.8916016 3.6435547-.0498047.8232422.3457031 1.75.921875 2.2392578 1.4329567 1.2144279 3.8578949.1211891 3.5351563-2.0107422.0321045.0109863.0657959.013916.0981445.0239258 1.0386963 1.5324707 1.2258301 3.0021973 1.3530273 4.7583008.1087646 1.3774414.0313721 2.7324219-.0838623 4.015625-.6086426-.1977539-1.2642822-.2363281-1.8720703-.09375-.093708-1.2039375-1.9521637-2.4706001-3.2178955-2.8447266-.1972656-.0615234-.4072266.0546875-.4658203.2529297s.0546875.4072266.2529297.4658203c.9189453.2724609 1.7626953.828125 2.3740234 1.5654297.436615.5254173.2729759.635788.3494873.831543-.8855171.4615097-1.4167366 1.2849197-1.5633545 2.1860352-1.0019531-.9345703-2.5136719-1.3349609-3.8261719-.8720703-1.8310547.6425781-2.9130859 2.8251915-2.3154297 4.6699181.1522293.4754181.8668442.2383881.7128906-.2304688-.46875-1.4482422.4130859-3.2275391 1.8505859-3.7324181 1.3779297-.4824219 3.0927734.2685509 3.7060547 1.5869102.0244141.0673828.0527344.1328125.0830078.1972656.2013054.4303818.8587608.1546555.6894531-.2929688-.0244141-.0644531-.0507813-.1269531-.078125-.1894531-.3183594-.8945313.0771484-2.0371056.9189453-2.5732384.909668-.5796013 2.1889305-.4248657 2.9990234.21875.828125.6601563 1.2666016 1.8134727 1.1162109 2.9374962-.0480232.3623581.3980408.5693054.6455078.3066406.5546875-.5908203 1.5703125-.6806641 2.2207031-.2001953.6494141.4824219.8574219 1.4824219.453125 2.1826172-.1448784.2514877.0384445.5625.3251953.5625.6843834 0 1.1153145-2.2732086-.3310547-3.3476563-.7304688-.5400391-1.7421875-.5917969-2.5429688-.203125-.0383301-.5961914-.2143555-1.1704063-.4901123-1.6826134.1880302-.3697968.9564781-3.0122566 3.4920654-5.5126953.3525124-.3455048-.1726074-.8832741-.5273438-.5332031-1.5203857 1.4985352-2.7000732 3.3393555-3.4669189 5.3325195-.3261452-.3679161-.43507-.4561539-.7687988-.6582031.2619858-2.7808571.3505287-6.5135269-1.0114746-8.9475098 2.974514.0586777 4.0998993-3.6790504 1.6280518-4.8879395-.2978516-.1455078-.6132813-.2255859-.9238281-.2392578.2871094-.5341797.5400391-1.1386719.5839844-1.7978516.127331-1.9538534-1.7864339-2.9402578-3.4550779-2.0136717zm4.3447266 5.7353516c.2314453.8398438-.2695313 1.8515625-1.1171875 2.2539063-.8154297.3876953-1.8935547.2431641-2.6806641-.3574219-.3579979-.273632-.8044281.2047234-.5107422.5439453.4628906.53125.4335938 1.4355469-.0615234 1.9365234-.4951172.5029297-1.3994141.5429688-1.9365234.0849609-.5439453-.4619141-.8847656-1.6171875-.4863281-2.1640625.1025391-.140625.0947266-.3330078-.0185547-.4648438-.4001274-.4641457-.9688263.4675522-2.2226563.5498047-1.3150787.0552139-1.8456383-1.0592384-.9726563-2 .7980499-.8627052 1.778038-.7646217 1.6777344-1.3330078-.0292969-.1669922-.1669922-.2929688-.3349609-.3076172-.650032-.059494-1.1580467-.8238335-1.0205078-1.4882813.1386719-.6728516.8339844-1.2080078 1.5830078-1.2177734h.0117188c.6421547 0 1.9157143.6139412 1.8857422 1.2246094-.0234375.4945335.7265701.5318565.75.0351563.0328979-.1000214.0358849-1.5753403 1.4746094-2.375 1.1125031-.6230011 2.4329262-.0811424 2.3417969 1.3085938-.0478516.7197266-.4248047 1.3984375-.8759766 2.1464844-.1839371.3037109.1231194.676281.4648438.5400391.3496092-.1464845 1.8185881.2500838 2.048828 1.0839843z"/><path d="m31.6540794 25.0210609c-.4199219.1464844-.7871094.2177734-1.2128906.0917969-.453125-.1347656-.8427734-.4501953-1.0683594-.8652344-.4649029-.8510113-1.7708569 1.0946026-.9042969 2.6044922.4900227.8557625 1.5407009 1.298111 2.4619141 1.0947266 2.0820732-.4512558 2.3967057-3.498682.7236328-2.9257813zm-.8818359 2.1933594c-1.1668262.2435436-2.2350368-.9051838-1.7138672-2.1230469.3125.3457031.71875.6064453 1.1699219.7402344.7510643.2241974 1.2437077.008131 1.7421875-.1230469.0724373.5975991-.4682751 1.3473645-1.1982422 1.5058594z"/><path d="m28.7008324 22.6094398c.4000244.0625.7943115-.3344727.8806152-.8864746.0861816-.552002-.1682129-1.050293-.5683594-1.112793-.4000244-.0625-.7943115.3342285-.8806152.8864746-.0861816.552002.1682129 1.050293.5683594 1.112793z"/><path d="m33.6216087 20.7446938c-.4000244-.0625-.7943115.3344727-.8806152.8864746s.1680908 1.050293.5682373 1.112793.7944336-.3342285.8806152-.8864746c.0863037-.552002-.1680908-1.050293-.5682373-1.112793z"/><path d="m33.1482201 69.8755493c.8955078 0 1.7988281-.3027344 2.4970703-.8583984.5048828-.4033203.7265625-.8769531.6259766-1.3339844-.253315-1.1452026-2.1724815-1.4119797-3.2617188-1.2353516l-1.1806641-7.9296837c-.0771103-.5012245-.8137684-.3735771-.7421875.1113281l1.194458 8.0219688c-2.3648204.908806-1.7370166 3.2241212.8670655 3.2241212zm.4794921-2.727539c1.2355614 0 2.5505867.4816132 1.5498047 1.2832031-1.4278831 1.1356506-3.3596382.6964493-3.5751953.0410156-.2577743-.7817764 1.1446343-1.3242187 2.0253906-1.3242187z"/><path d="m55.2555199 48.9258461c-.6289101 0-.6776733 1 .0437012 1 .6289329 0 .677433-1-.0437012-1z"/><path d="m47.6452904 36.3091469c-.1093407.4815674.6215019.6539993.7304688.1660156.3267975-1.4122238 1.1003532-.9449348 1.1484375-.1777344.0400391.6464844-.3242188 1.3222656-.8867188 1.6425781-.4321709.2466202-.0595474.8963737.3710938.6523438.8144531-.4648438 1.3222656-1.4052734 1.2636719-2.3417969-.1022836-1.6698188-2.1239434-2.1770019-2.6269532.0585938z"/><path d="m54.1462669 35.4400063c-1.7705078.7460938-3.2548828 2.1689453-4.0722656 3.9052734-.2121887.4477005.4686928.7673378.6777344.3203125.7402344-1.5712891 2.0830078-2.859375 3.6855469-3.5341797.4526977-.1903648.1730117-.880806-.2910157-.6914062z"/><path d="m54.5798607 39.0122719c-.9130859-.1152344-1.8583984.3115234-2.3681641 1.0712891-.2764206.4122849.3461418.8295822.6230469.4179688.3496094-.5205078 1.0361328-.8271484 1.6474609-.7451172.2148438.0322266.3935547-.1191406.4208984-.3232422.0263673-.2050782-.118164-.3935548-.3232421-.4208985z"/><path d="m43.7585716 42.232975c.0336914 0 .0626221-.0192871.0946045-.0280762.0728569.1873474.1812057.3516731.2960205.5388184.5185547.8710938 1.2519531 1.5917969 2.1230469 2.0839844 3.2012672 1.8181419 4.0950661-4.0769882-.2353516-3.9658203-.5607796.0248909-1.8300705.1783257-2.1403809.6472168-1.7451172-.744873-3.5489502-1.5146484-5.0559082-2.6940918-1.6533203-1.2939453-2.6787109-2.9228516-2.8867188-4.5869141-.0615807-.4950333-.8047676-.3982544-.7441406.09375.2324219 1.8613281 1.3583984 3.6669922 3.1679688 5.0830078 1.5878906 1.2431641 3.4414063 2.0332031 5.2333984 2.7978516.0478516.0205078.0986329.0302734.147461.0302734zm2.4462891-.6240234c2.4267998 0 2.4351311 2.5998077 1.3271484 2.8095703-.2382813.0429688-.5195313-.0332031-.890625-.2431641-1.3212662-.748436-1.8455696-1.8384132-1.9228516-1.9384766-.0644531-.1025391-.1826172-.2929688-.1494141-.3369141.4781648-.1910323 1.1496087-.2910155 1.6357423-.2910155z"/><path d="m32.2278099 55.7236977c1.8186646 1.8969383 4.8199501 1.9835777 6.9000244 1.0200195.5200195-.2299805 1.8599854-.8200684 1.7700195-1.5102539-.0400391-.3098145-.2399902-.5698242-.4400635-.8198242-6.0218849-7.6279297-5.4425468-12.9059486-6.6800537-19.9699707-.1098633-.6201172-.25-1.2600098-.6699219-1.6599121-.5505447-.5069962-.3786316-.3583946-8.9399414-1.630127-2.3359032-.3523388-3.0544415.4472084-3.8000488 2.8000488-2.1722164 6.5791321-5.1580048 13.0071983-8.8100576 18.8798828-.1999512.3400879-1.0499268 1.3000488-1.0400391 1.6801758.0100098.4799805.6201172.5998535.9901123.7397461.9699707.3500977 2.0299072.4702148 3.0599365.3400879.25-.0300293 2.8601065-.7700195 2.8601065-1.0200195.3305664.6555176.5727539 1.2480469.909668 1.7805176-.1569443.1695824.0396194-.4159012-1.8837891 9.9472618-1.7984991.4796066-1.578167 3.880394 2.9014893 3.4423828 1.4459801-.1445923 1.66399-1.2909775.7285156-2.1933594-.4456787-.4311523-1.7410889-1.1791992-2.8588867-1.2939453l1.6790771-9.1840782c.8670177.8729973 2.2218246 1.4705162 3.513916 1.28125 1.1599121-.1699219 2.3099365-1.0400391 2.6999512-2.25.5799561.9699707 1.1300049 1.7900391 2.0899658 2.2900391 2.4939709 1.285427 5.0200196-.403801 5.0200196-2.6699219zm-12.3530273 13.0385704c-.0625.1210938-.2675781.203125-.5927734.2353516-.7932148.0757675-2.0540257.0138855-2.6845703-.4794922-.6711197-.5245743-.5793819-1.5390625.3564453-1.5390625.8525391 0 2.1542969.671875 2.6083984 1.1103516.211914.2041015.399414.501953.3125.6728515zm1.4033203-22.8994103-2.4169922 6.2392578c-.1799717.4636574-.8784885.1894989-.6992188-.2714844l2.4169922-6.2392578c.0742188-.1923828.2890625-.2890625.4853516-.2138672.1923828.0751954.2890625.2919922.2138672.4853516zm6.7402343 7.2685547-.0712891-6.4423828c-.0019531-.2070313.1640625-.3769531.3710938-.3789063h.0039063c.2050781 0 .3730469.1650391.375.3710938l.071289 6.4423828c.0047131.4995079-.7452735.5064697-.75.0078125zm5.2861329-7.8574219v.0009766c-.0410156.3925781-.3027344.8525391-.703125.9296875-.234375.0410156-.5234375-.0380859-.8896484-.2480469-1.3194771-.7392464-1.8465576-1.8315811-1.9238281-1.9316406-.0644531-.1035156-.1845703-.2949219-.1552734-.3417969.4101563-.1582031.9707031-.2646484 1.5029297-.2841797 1.4100188-.0829429 2.2809828.8260956 2.1689452 1.875zm-10.553711-10.328125c-.0556641-.2001953.0625-.40625.2617188-.4609375.1972656-.0576172.40625.0625.4609375.2617188.9068604 3.2949219 3.0081787 6.293457 5.7789307 8.2949219-.2610569.1421623-.4045753.3477211-.3952637.6401367-2.9279785-2.0991211-5.1501465-5.2617188-6.1063233-8.7358399z"/></g></svg>