<svg id="Layer_1" height="512" viewBox="0 0 512 512" width="512" xmlns="http://www.w3.org/2000/svg"><g><path d="m337.9 65.2v16.4c49.7 0 90.1 40.4 90.1 90.1h16.4c.1-58.7-47.7-106.5-106.5-106.5z"/><path d="m479.8 183.9c.5-4.6.7-8.7.7-12.7 0-74.5-61-135.2-136-135.2-40.2 0-77.6 17.3-103.6 47.7-14.1-5.7-28.8-8.7-43.9-8.7-58 0-106.2 41.5-114.9 97.7h-12.9c-37 0-67.2 30-67.2 66.8s30.1 66.8 67.2 66.8h29.2c20.1 25.7 51.2 41 83.8 41 32.7 0 63.7-15.2 83.8-41h176.7c37 0 67.2-30 67.2-66.8.1-22.4-11.3-43.3-30.1-55.6zm-37 106.1h-185s-26.5 41-75.6 41c-49.7 0-75.6-41-75.6-41h-37.4c-28 0-50.8-22.6-50.8-50.4s22.8-50.4 50.8-50.4h27.6l.7-7.5c4.7-51.4 47.4-90.2 99.5-90.2 30 0 48.8 12.5 48.8 12.5s34.5-51.6 98.7-51.6c66 0 119.6 53.3 119.6 118.8 0 11.2-1.9 21.5-1.9 21.5s31.4 11.7 31.4 46.9c0 27.8-22.8 50.4-50.8 50.4z"/><path d="m62.8 384.2h34.8v16.4h-34.8z" transform="matrix(.707 -.707 .707 .707 -253.985 171.609)"/><path d="m120.1 384.2h34.8v16.4h-34.8z" transform="matrix(.707 -.707 .707 .707 -237.187 212.164)"/><path d="m177.5 384.2h34.8v16.4h-34.8z" transform="matrix(.707 -.707 .707 .707 -220.39 252.726)"/><path d="m234.8 384.2h34.8v16.4h-34.8z" transform="matrix(.707 -.707 .707 .707 -203.591 293.282)"/><path d="m292.2 384.2h34.8v16.4h-34.8z" transform="matrix(.707 -.707 .707 .707 -186.792 333.838)"/><path d="m349.5 384.2h34.8v16.4h-34.8z" transform="matrix(.707 -.707 .707 .707 -169.993 374.394)"/><path d="m416.1 375h16.4v34.8h-16.4z" transform="matrix(-.707 -.707 .707 -.707 446.85 969.866)"/><path d="m92.4 440.6h16.4v34.8h-16.4z" transform="matrix(-.707 -.707 .707 -.707 -152.02 852.905)"/><path d="m149.8 440.6h16.4v34.8h-16.4z" transform="matrix(-.707 -.707 .707 -.707 -54.112 893.462)"/><path d="m207.2 440.6h16.4v34.8h-16.4z" transform="matrix(-.707 -.707 .707 -.707 43.812 934.024)"/><path d="m264.5 440.6h16.4v34.8h-16.4z" transform="matrix(-.707 -.707 .707 -.707 141.721 974.58)"/><path d="m321.9 440.6h16.4v34.8h-16.4z" transform="matrix(-.707 -.707 .707 -.707 239.63 1015.135)"/><path d="m379.2 440.6h16.4v34.8h-16.4z" transform="matrix(-.707 -.707 .707 -.707 337.54 1055.691)"/></g></svg>