<svg id="Layer_1" height="512" viewBox="0 0 512 512" width="512" xmlns="http://www.w3.org/2000/svg"><path d="m510 247.8h-54l27-27-11.6-11.6-38.6 38.6h-42.4l59.8-59.8-11.6-11.6-71.3 71.3h-46.3c-1.5-11.9-6.2-22.9-13.3-31.9l52.4-52.4-11.6-11.6-52.4 52.4c-9.1-7-20-11.8-31.9-13.3v-46.3l71.3-71.3-11.6-11.6-59.8 59.8v-42.4l38.6-38.6-11.5-11.5-27 27v-54h-16.4v54l-27-27-11.6 11.6 38.6 38.6v42.4l-59.8-59.8-11.6 11.6 71.3 71.3v46.3c-11.9 1.5-22.9 6.2-31.9 13.3l-52.4-52.4-11.6 11.6 52.4 52.4c-7 9.1-11.8 20-13.3 31.9h-46.3l-71.3-71.3-11.6 11.6 59.8 59.8h-42.4l-38.6-38.6-11.5 11.5 27 27h-54v16.4h54l-27 27 11.6 11.6 38.6-38.6h42.4l-59.8 59.8 11.6 11.6 71.3-71.3h46.3c1.5 12 6.3 23.1 13.4 32.2l-52.5 52.5 11.6 11.6 52.6-52.6c9 6.9 19.9 11.6 31.7 13.1v46.3l-71.3 71.3 11.6 11.6 59.8-59.8v42.4l-38.6 38.6 11.6 11.6 27-27v54h16.4v-54l27 27 11.6-11.6-38.6-38.6v-42.4l59.8 59.8 11.6-11.6-71.3-71.3v-46.4c11.8-1.5 22.7-6.1 31.7-13.1l52.6 52.6 11.6-11.6-52.6-52.6c7.2-9.1 11.9-20.1 13.4-32.2h46.3l71.3 71.3 11.6-11.6-59.8-59.8h42.4l38.6 38.6 11.6-11.6-27-27h54v-16.2zm-254 57.4c-27.1 0-49.2-22.1-49.2-49.2s22.1-49.2 49.2-49.2 49.2 22.1 49.2 49.2-22.1 49.2-49.2 49.2z"/></svg>