<svg id="Layer_1" enable-background="new 0 0 75 75" viewBox="0 0 75 75" xmlns="http://www.w3.org/2000/svg"><g id="Garden_Wheelbarrow" fill="rgb(0,0,0)"><path d="m67.1757202 16.0684929c.5832596-1.1930332-.3103027-2.6537218-1.8730469-2.8007803-1.5493393-.1467524-3.6208687.9852638-4.317627 2.2519531-.4085083-1.1105957-1.0302734-2.144043-1.8469238-3.0058594-2.1513672-2.2695313-5.5600586-3.3095703-8.6748047-2.6552734-3.0605469.6445313-5.7485352 2.8652344-7.0146484 5.7949219-.046875.1083984-.0400391.2324219.019043.3349609.1141853.1998205.3090515.1907568.5488281.2155752-.9187546 2.6201477-.8186264 4.9344616-.0395508 6.8869629.4039917 1.0080566 1.0343628 1.9082031 1.7975464 2.6796875.0023193.0070801.0009766.0144043.0037231.0214844.0370483.0944824.1124878.1535645.197876.1928711 4.3391685 4.0991669 10.9355621 2.5372753 13.331543-2.3642578.3013611.0904102.5434113-.0720577.7655029-.3083496.7710838.263155.9383698-.0079403 1.1005859.9885254.0415039.2558594.0849609.5214844.2016602.7792969.3728523.7964706 1.3499985 1.114893 2.1791992.96875.7128906-.1337891 1.3183594-.5283203 1.8193359-.8818359 1.407341.5103779 3.1325607-.223526 3.7177734-1.6025391.2890625-.7011719.265625-1.5332031-.0639648-2.2841797-.2016602-.4589844-.5039063-.8535156-.8706055-1.1474609 2.4024507-1.1479264 1.8867494-3.9433213-.9814452-4.0644532zm-8.5820312-3.0390616c2.0053711 2.1162109 2.7368164 5.3583975 1.8203125 8.0664053-.1967773.5820313-.6142578 1.4101563-.8754883 1.7099609-.1720772-.6280766-.060894-2.5193806-1.609375-4.0292969-.1950455-.1910076-.5312614-.114727-.6181641.1523438-.25037.7657108-1.3038368 1.1733608-2.0014648.7841797-.753418-.4208984-.7856445-1.3984375-.4335938-2.1054688.175209-.3504143-.2427826-.7035294-.5610352-.4667969-.6142578.4628906-1.8320313 1.1318359-3.0727539.4296875-.965332-.5478516-1.4731445-1.7753897-1.1806641-2.8564444.1222382-.4478321-.5317574-.6755533-.7094727-.2382813-.4780769 1.185174-3.7020187 1.1196737-4.996582 1.0078125 2.8679811-5.7111957 10.2281381-6.686261 14.2382814-2.4541014zm-12.3468018 12.1560049c-.5285645-.5466309-.9717407-1.1662598-1.3123779-1.8449707 1.0234985.4775391 2.2370605.5629883 3.3188477.2358398-.517273.696045-1.2135621 1.2475587-2.0064698 1.6091309zm.5708008.538086c1.1873169-.6169434 2.1625366-1.6115723 2.7003174-2.8425293.1493835-.3423843-.2431526-.6723804-.5537109-.4609375-1.3110352.8867188-3.2192383.7949219-4.4404297-.2119141-.0209351-.017334-.0457764-.0249023-.0689697-.0368652-.5728035-1.918932-.4101334-4.0552006.3442993-5.9040527 1.2835693.0759277 3.2833252.0581055 4.4458618-.6332998.202713 2.1804113 2.3572006 3.7221193 4.6782227 2.6210928-.2319489 2.3735828 2.5853844 3.1644516 3.8291016 1.4384766.9330406 1.1622601.8923569 2.6068745 1.0467529 3.248291-1.8427545 4.3834342-7.716488 6.3994178-11.9814454 2.7817382zm20.3590088-6.0212402c-.3439713.1044998-.3576889.5880985-.0209961.7119141 1.0773773.3945904 1.6821594 1.7989273 1.2441406 2.8603516-.4494553 1.0619736-1.876564 1.6142941-2.9160156 1.1269531-.121582-.0566406-.2661133-.0449219-.3769531.0351563-.5996094.4287109-1.1049805.765625-1.6870117.875-.4946289.0849609-1.1425781-.0751953-1.3632813-.5458984-.2205048-.4848175-.0791168-1.3490963-.7148438-1.8037109-.244442-.1853352-.5133705-.2382717-.8122559-.3015137 1.0408211-1.8336792 1.2507095-3.9884205.7947388-5.996582.1279297-.4267578.2919922-.8586416.5985718-1.1901846 1.0861435-1.1931238 3.6021042-2.234746 4.5429688-.7060547.2743683.4459534.1231842 1.1887741-.3583984 1.3339834-.4240723.1276779-.3113937.7622776.1264648.734375.5742188-.0302734 1.168457-.0595703 1.684082.1015625 1.4423294.4717386 1.4858475 2.0952452-.7412109 2.7646483z"/><path d="m64.5111694 52.2393913c1.1743317-2.1484489 2.8241959-2.5848389 3.5400391-3.1123047h.0004883c.3642578-.2822266.4052734-.5791016.3754883-.7792969-.0283203-.1904297-.1464844-.3583984-.2612305-.5214844-1.2025986-1.726078-.6467209-5.5670509-2.2001953-7.9052734-.1144867-.2289658-.3635559-.2681885-.5317383-.1679688-.9436264.5597267-1.4667168.8709602-1.9746094 1.1621094-8.6670074 4.9455452-11.0541611.7556114-13.6196289 6.015625-.2161446.446312.459198.7757454.6748047.328125 2.3198051-4.7736015 4.4901581-.6619301 13.3178711-5.6923828.4960251-.2850838 1.0003662-.5848312 1.6640625-.9785156 1.1785736 2.0622711.7832794 5.4635429 1.8852539 7.3955078.0200882.0428619.2733536.4407005.3056641.453125-.5189896.5452995-2.2222672.8162079-3.6503906 3.125-1.311245-.6950226-5.109066-2.9330864-4.8515625-4.5673828.0273438-.1728516-.0693359-.3427734-.2319336-.4072266-.1640625-.0634766-.3491211-.0078125-.4482422.1367188-.9868011 1.4438744-1.7359886 3.0701523-2.1850586 4.8789063-6.6643372-2.1699944-6.456871-2.0536842-6.5639648-2.2324219-.1287422-.205986.1741447-.839489.394043-1.3339844.2024574-.4517212-.482666-.7575111-.6845703-.3046875-.3405838.7618752-.6991043 1.4721603-.3491211 2.0292969.2793732.4704552.6289024.4763794 2.7564087 1.1838379-1.1363525 1.487793-1.899292 3.2297363-2.2654419 5.0627441-1.2079773-.7272377-2.1154327-1.3594246-4.0402832-1.409668-1.2488518-.0551376-1.6470757.8298492-1.2749023 1.5820313.5756989 1.1553154 3.8740578 2.7679176 5.4145508 2.4726563.8120079-.1554909 1.3293266-.9139595.7587891-1.8955078-.057373-.0996094-.1253052-.1848145-.1981201-.2624512.3125-1.8547363 1.0691528-3.6218262 2.2147217-5.114502.0492554-.0644531.067688-.1394043.0705566-.2143555 4.2374077 1.3710098 4.0180206 1.3656921 4.2263184 1.2446289.2110023-.1212158.1517715-.2367096.3759766-1.0302734.3291016-1.1884766.8100586-2.3232422 1.4331055-3.3867188.6414566 1.6440926 3.8495674 3.5994949 5.4238281 4.4003906.1816403.0957032.4023434.022461.4990231-.1542968zm-15.5439453 5.6582032c-2.5338478-.3798904-5.2878571-2.5507813-3.4833984-2.5507813.7162514 0 1.6116257.1772041 2.4248047.5400391.3881836.1728516.7382813.3955078 1.0922852.6269531.3075562.2037582.6643867.356926.815918.6191406.2216796.381836-.076645.8840637-.8496095.7646485z"/><path d="m69.2401733 56.4405632c-.144043-.0927734-.2946167-.1464844-.4454346-.1855469-1.5631714-1.1650391-2.4257813-3.2270508-2.1483154-5.1503906.0711746-.4900398-.6716461-.6011887-.7421875-.1074219-.2637939 1.8273926.385376 3.7553711 1.6380005 5.1162109-1.3325653-.1214371-2.5302124.1004601-3.645813.6347656-1.140564.5452461-1.0884018 1.4920692-.4160156 1.9873047 1.1040039.82024 4.7874527.6356125 5.9472656-.2597656.2944336-.2294921.7694168-1.4153633-.1875-2.0351562zm-.8149414 1.6992188c-2.4268951.813015-5.9740562.1333351-4.2045898-.7158203 1.7094879-.8177834 3.0277786-.5708084 3.887207-.5087891.2768555.0175781.5380859.0351563.7255859.1552734.3291016.2138672.3613281.3632813.3525391.4697266-.0270996.3224907-.4522247.4975929-.7607422.5996094z"/><path d="m46.4327393 17.5968132c-.428833-.1315918-.9170532.2189941-1.0903931.7832031-.1733398.5644531.0337524 1.128418.4625854 1.2602539s.9170532-.21875 1.0903931-.7832031c.1734009-.564209-.0337524-1.128418-.4625854-1.2602539z"/><path d="m43.0184937 56.3790398-3.3720703 1.2841797c-.1938477.0742188-.2910156.2900391-.2172852.484375.0737267.1928291.2899017.290081.4838867.2167969l3.3720703-1.2841797c.4598084-.1760445.2032776-.8739739-.2666015-.7011719z"/><path d="m54.6307983 21.4181023c-.0141602.2060547.1420898.3857422.3486328.3994141.7111359.0482979 1.0994148.8891277.7856445 1.2890625-.0810547.1044922-.2290039.15625-.3242188.1210938-.1918945-.0732422-.409668.0253906-.4829102.2177734-.2221451.589426.8731956.7946682 1.3984375.1230469.2275391-.2919922.3149414-.6943359.2392578-1.1025391-.2330931-1.2641869-1.9151953-1.7996445-1.9648436-1.0478516z"/><path d="m53.7924194 12.5929079c1.4858398.0839844 2.8671875 1.1230469 3.359375 2.5263672.1642151.4674978.8718643.2201176.7080078-.2480469-.5898438-1.6816406-2.2451172-2.9267578-4.0253906-3.0263672-.4837379-.0448942-.5483856.7193833-.0419922.7480469z"/><path d="m24.8979492 41.4705925c-.2986393-.6636429-1.1368656-.107708-.8831787.4606934.0065918.0146484 1.1370258.1080665.8831787-.4606934z"/><path d="m64.1918335 18.2149773c-1.0382462-.2754173-2.1621513.6858311-1.5991211 1.1064453.1665039.1230469.4013672.0898438.5249023-.0761719.4450989-.5979252 1.4023514-.3375969 1.4868164.4003906.0567093.4939709.8010941.4062252.7451172-.0859375-.0722656-.6269531-.5478515-1.1796875-1.1577148-1.3447265z"/><path d="m42.3036499 61.5694695c.1319504 0-.0908661.0545654 4.1044922-1.6132813.4550667-.1824875.191227-.8764801-.2783203-.6972656l-3.965332 1.5878906c-.3815384.1510658-.2726937.7226563.1391601.7226563z"/><path d="m20.867981 56.3306999c-1.0795555 1.1503487-1.514122 2.5423965-1.4080811 3.9223633.2191696 2.8434486 2.5964336 5.164608 5.7387695 5.0791054 4.9062939-.183609 7.0931625-6.0598412 3.6992188-9.2334023 1.9154282-.7554779 3.2000847-2.1719704 4.0297852-4.0244141.2023849-.4539032-.4819374-.7584877-.6845703-.3066406-.8250542 1.8427734-2.1135921 3.1776543-4.0309448 3.7841797-2.0586643-1.4045792-4.7677155-1.2706375-6.6373901.1337891-5.2705688-.7490234-10.305603-2.3208008-14.9825439-4.6845703l26.5224609-7.2265625c.0889702 1.6932564.2593155 4.7943344-.3232422 6.4628906-.1634026.4668617.5438042.717205.7080078.2480469.0589409-.1675797.0922699-.33078.1420898-.5527344.4611206-2.0918388.3231239-4.2791214.2102661-6.4294434l7.927063-2.1557617c.3256264.0869141.6397667-.0583992.9136353-.2539063l3.0115356-.8210449c.2265778-.060936.3655853-.3304482.2097778-.5678711.5369797-.3207054.6690636-.8540573.5430908-1.2729492 1.0623779-.1228027 2.1089478-.3400879 3.1295776-.6508789.2697144 1.4050293.6651001 2.7858887 1.1966553 4.1137695.6380005 1.5913925 1.3482666 1.9183426 2.7861328 1.7978516 3.831543-.3261719 7.6103516-1.5224609 10.9272461-3.4609375.1762695-.1035156.4433594-.2587891.6000977-.5361328.2006836-.3554688.159668-.8398438-.1035156-1.2324219-.5320053-.7938728-3.6316338-2.3019485-5.4711914-6.9521484-.2670555-.6893768-.503952-1.3580647-.9570313-1.9101563-.5795898-.7089844-1.3339844-1.0146484-2.0703125-.8369141-.3759117.0896492-.678112.2520885-1.1821289.515625-3.8054504 1.9283371-5.7929344-.6526375-6.0527344 2.2646484-.0533447.6013184-.072998 1.204834-.0773315 1.8085938-.0740356-.1674805-.2564697-.2636719-.43927-.2119141-2.5546265.7233887-4.7541504 2.4492188-6.0582275 4.7368164-1.1458855.6991959-1.6518669 2.0617447-1.4672852 2.8442383l-10.2288818 2.7819824c1.2613258-1.8378487-.6040115-4.3955803-3.4337158-4.2111816.307991-.8655167.1969357-2.0090027-.0687256-2.5883789-.7854481-1.7041245-3.2538528-2.2089043-4.2705078-.3798828-.1191406.2138672-.199707.4404297-.2407227.6689453-3.1166134-2.3594208-5.6080647.926075-2.8013916 3.5090332-1.0519505.3788452-2.095005 1.5366898-1.9157715 2.8461914.2042065 1.7707787 2.1025352 2.7818184 3.6884766 1.7058105.0494518.5997772.1669121.830101.2002563.9311523l-3.2177734.876709c.4625607-1.658989-1.2462196-2.9316826-2.5336304-2.361084.4000244-.7199707.8200073-1.4699707.8500366-2.2900391.0599976-1.6499023-1.5500488-2.329834-2.8800049-1.5498047-.9200439.5498047-1.5300293 1.5800781-1.5599976 2.6499023 0-.9099121-1.5500488-1.5300293-2.2700195-1.5-.8699951.0300293-1.710022.6801758-1.8599854 1.5300293-.1600342.8601074.5 1.8000488 1.3699951 1.8601074-.5499878.2797852-1.1099854.5698242-1.5200195 1.0297852-1.0805583 1.2393379-.2308235 2.6802559 1.3099976 2.5400391.6600342-.0600586 1.2700195-.3898926 1.8500366-.7099609-.1564941.2275391-.2180786.5219727-.2068481.8305664l-6.0111694 1.6376953c-.3285828.0904961-.3761644.5344315-.0776367.6933594 4.8150023 2.5556642 10.0206298 4.2658693 15.4783935 5.1079103zm7.5396728.3344727c2.9122219 2.7967606.9238453 7.7620049-3.2373047 7.916996-2.5761719.1191406-4.765625-1.8291054-4.9624023-4.3867226-.3295956-4.2795029 5.1276302-6.4821014 8.199707-3.5302734zm-7.3481445-15.4765625c.1704102.0341797.3417969-.0507813.4150391-.2080078.0692787-.1477661.013422-.3995247-.1152344-.5019531-.6452141-.5149689-1.3878231-1.1096649-1.5999756-1.9077148-.2895527-1.2176552.6541195-1.8590813 1.7874756-1.4838867.5869141.1953125 1.1049805.6357422 1.6157227 1.0703125.2901707.2449341.7211494-.0483284.597168-.4082031-.1083984-.3154297-.0654297-.6738281.121582-1.0097656.771101-1.3908615 2.7465839-.7473335 3.0441895.7009277.1236172.6662903.0594921 1.8705673-.5275879 2.1027832-.188139.0735359-.3009777.29422-.1964722.5090332.0026855.0085449.0012207.0175781.0045776.026123.0756836.1933594.293457.2880859.4853516.2128906 1.8896275-.738308 4.1573086.5601921 3.9194336 2.1552734-.0844727.5654297-.4765625 1.0029297-1.1074219 1.2333984-.8022461.3007813-1.7089844.1923828-2.5834961.0898438-.2576294-.0282936-.4735489.1940956-.4003296.4667969.0263195.2168198.1374054.2071953.3095093.4697266-.1032162.0282173-4.217062 1.1528053-3.9572754 1.0817871-.2111073-.5813065-.2327042-1.1845245-.1018066-1.7282715.0228882-.0957031.0056763-.1906738-.0393677-.2705078-.130703-.3364487-.5477104-.3025208-.6749878-.0263672-.3398438.7265625-1.2910156 1.1162109-2.0371094.8378906-.5408325-.2053223-.9278564-.7509766-1.0152588-1.3271484-.1371422-1.1380349 1.2130317-2.2591668 2.0562744-2.084961zm28.9472656-9.578125c.0845375-.9448433.2411613-.9144516 1.2524414-.7949219 4.4134026.3555756 5.2336807-2.5588646 6.7255859-.7402344.3349609.4091797.5410156.9414063.7407227 1.4570313.0748024.1346302 1.2687607 3.9269638 5.1318359 6.8720703.2026367.1542969.394043.2998047.5126953.4765625.1040039.1552734.1337891.3388672.0737305.4462891-.0522461.0917969-.1835938.1738281-.3256836.2558594-3.2216797 1.8837891-6.8911133 3.0458984-10.6118164 3.3613281-1.130249.0986328-1.5224915-.0693932-2.0268555-1.3291016-.5250854-1.3120117-.9119263-2.6777344-1.1725464-4.0671387 2.7471313-.9643555 5.260376-2.576416 7.2243042-4.7131348.3355942-.3648262-.2146072-.8730583-.5517578-.5078125-1.8540649 2.0170898-4.2177734 3.5483398-6.8043213 4.4765625-.2611694-1.717041-.3215942-3.4643554-.1683349-5.1933593zm-1.0595703 2.2509765c.1107178-.0310059.1912842-.1103516.2352905-.2075195.0070801 1.1325684.0958862 2.2634277.2722168 3.3823242-1.1829224.3669434-2.4015503.6196289-3.6401367.720459-.5675659-.260498-1.390686-.2937012-2.0303955-.2233887 1.232605-1.7612304 3.0701904-3.078125 5.1630249-3.671875zm-5.6313477 4.5263672c.3857422-.1748047 1.8999023-.2548828 2.3520508.1484375.157959.1433792.1115227.4355621-.2358398.578125-.1783371.0727921-.4267845.1102409-.6416016.1494141-1.7985954.3508492-2.5737305 1.3948059-2.8115845 1.3571777-.0043945-.0021973-.0097046-.0026855-.0142212-.0048828-.0141602-.0119629-.0511475-.0986328-.0335693-.2849121.0756836-.8212891.6323242-1.6025391 1.3847656-1.9433594z"/><path d="m24.3129272 52.3087273c-2.1308594.6025391-4.4707031.3427734-6.4199219-.7070313-.4408417-.2322693-.7900105.425457-.3554688.6601563 2.1216488 1.1441765 4.6657524 1.4212875 6.9785156.7695313.199707-.0566406.3154297-.2636719.2592773-.4628906-.0556639-.2001954-.2646482-.3115235-.4624022-.2597657z"/><path d="m25.076416 62.184948c1.2026367-.0466309 2.1806641-1.0270996 2.1773682-2.2385254-.0025024-1.2109375-1.0580444-2.1904297-2.3509521-2.1418457-1.293457.0483398-2.2592773 1.1030273-2.1668091 2.3098145.0928955 1.2062988 1.1376953 2.1169433 2.340393 2.0705566z"/></g></svg>