<svg id="Layer_1" enable-background="new 0 0 75 75" viewBox="0 0 75 75" xmlns="http://www.w3.org/2000/svg"><g id="Gardening" fill="rgb(0,0,0)"><path d="m61.9005966 60.6530838c3.9242706-.1263313 5.469986-.6456871 5.6376953-4.293457.1660156-3.597168-.4150391-7.3227539-1.6826172-10.7749023-.7744141-2.1103516-2.7988281-7.1152344-4.8662109-8.0063477-.7699127-.3316574-1.2283897-.0723763-1.9667969.2983398-1.7945023.8924789-3.7303658 1.3566666-6.0449219 1.1816406-1.3601036-.0739212-2.7708435-.5741768-3.9404297.3041992-.6230469.4697266-.9521484 1.3056641-.8789063 2.2358398.1010284 1.2754784.8188629 2.2171211 1.1895752 4.7171631-1.8706055.5009155-3.7729492.8673706-5.6976318 1.0730591-.7097321-1.0166855-4.7179146-1.8240204-5.8356934-.0543823-.8417168 1.3335075.3810463 3.1856194 2.5048828 2.9995117 1.1770248-.1060982 2.0665627-.8369179 2.1669922-.8935547.506958-.3585205 1.1102295-.7911987 1.274292-1.3103638 1.9157715-.2061157 3.8098145-.5667114 5.6734619-1.0599365.2806091 2.8658218-.2036438 5.1330528-1.1419678 7.5690918-1.3631592-.1997681-2.8841553-.3995361-4.3262939-.003479-.9494629.2695313-1.6855469.9562378-2.3284912 1.6725464l.5794678-2.4821167c.0371094-.1606445-.0927734-.2729492-.2353516-.3554688-.0648193-.0385132-.1512451-.0408936-.2371826-.0241089.338623-.1582642.53125-.3299561.53125-.5101318 0-.609375-2.1293945-1.1265869-5.1009521-1.3212891.0220947-1.428772-.1647949-2.8486328-.5072021-4.2266846.5953827-.4019547 1.621582-1.4306526 1.5441895-2.1299438.2311058-.1504745 3.3896866-3.6476936 8.8548584-3.5534668.5144882.0220184.4960213-.7431488.0117188-.75-3.4108467-.054142-6.8974113 1.3157921-9.2896729 3.7108154-.5260353-.2828217-1.5119591-.343586-2.1723633-.2686768-.8786507-1.8866692-1.7877159-3.0695496-2.9069824-4.2903442.34375-.4048157.4815826-1.3759384.5574951-1.6390991 1.1552353-3.8876953 1.3210907-4.2808609 1.3125-5.0600586-.0389862-3.6841812-6.1241379-2.9624882-4.5048828 2.4243164.2938747.9702721 1.0495682 2.2539368 1.1916504 2.772644-2.3217773-2.2697754-4.6751709-3.68573-8.4047852-3.3848877-.8090305-1.4789276-7.780961-3.9157696-9.572998-1.328186-.7333984 1.0600586-.2109375 2.5415039.7363281 3.2597656 2.6189613 1.9840012 6.3477974-.5515289 7.8984375-.8071289.3404541-.0567627.7111816-.1300659.9080811-.3710327 2.666626-.2362671 4.5617676.4509888 6.2993164 1.7595825-2.3364544-.6745186-4.6674442-.3710289-6.4622803.5006104-.9052734.4404297-1.4570313.9619141-1.6865234 1.5952148-.4462891 1.2348633.5292969 2.5751953 1.6835938 3.0058594 3.3675175 1.252449 6.0218239-2.7319756 8.6523438-2.7495117.1085205.0010986.2232666-.0016479.3355713-.0125732 1.2659836 1.3441925 2.2047539 2.4001694 3.2006836 4.4713745-1.251564.345005-2.7918777 1.4046898-2.4083252 2.6061401.3979454 1.2448082 2.2440605 1.201458 3.5455322.6115723.2927246 1.2454834.4538574 2.5250854.4362793 3.8125-.59375-.0267944-1.2111816-.0425415-1.8500977-.0425415-4.2518311 0-7.6984863.6290283-7.6984863 1.4050293 0 .067627.0351563.133606.0856934.1987305-.2265892.2779579.0438614.6189995.1900635 1.3447876l2.9257813 11.4511719c.0048828.3056641.0117188.8061523 3.9765625.8061523.2421875 0 .5-.0019531.7724609-.0058594 4.5898438-.0654297 4.5820313-.6000977 4.5683594-.8286133l1.8751221-8.0319824c2.0823021-2.3465385 2.3947487-3.1437683 6.755127-2.5100708-.1459961.4213257-.2770996.8499146-.3548584 1.2944946-.2619438 1.4837685.116291 2.9174576 1.4172363 3.7402954-1.7545166 1.6324463-3.3760986 3.4096069-4.8345947 5.307251-1.4069557-.5532913-4.026989-.6149368-4.7515869.7332153-.4472656.8300781.0195313 1.8413086.7070313 2.3017578 2.2194977 1.4866867 6.9660835-.9217758 4.7110596-2.6663208 1.4743652-1.9074097 3.1174316-3.6872559 4.895752-5.319397.7019043.2591553 1.4406738.3375244 2.026001.3636475 1.8258433.1663553 9.5235247-.4453391 10.0566401-.4624022zm-19.9482422-11.7539062c-3.190033 2.2735138-5.3419037-1.6744537-1.8945313-1.8491211 1.4428101-.0784149 2.9836426.5787125 3.0019531.8076172.0171968.2407684-.6678695.7307243-1.1074218 1.0415039zm-20.4599609-13.2333985c-1.9566479.5748215-4.9502602 2.4514885-7.0146484.8876953-.6572266-.4985352-1.0537109-1.5390625-.5722656-2.2353516.4589844-.6625977 1.4570313-.8105469 2.2587891-.8105469 2.6267986 0 5.6221695 1.4676743 6.03125 2.0146484-.2078572.0639535-.5269376.0913926-.7031251.1435548zm9.0908203-2.059082c.3811569-2.2670517 3.2219658-2.3329239 3.2460938-.1914063.0066948.6956406-.2120972 1.2380104-1.28125 4.8383789-.064888.2151489-.1338882.6872482-.28125 1.1191406-.3835087-1.0397377.0098038-.5146217-.8339844-2.2485352-.5196076-1.0616301-1.0537033-2.3117598-.8496094-3.517578zm-3.0068359 7.2612305c-1.3402405.8538055-2.9985161 1.8779106-4.6494141 1.2631836-.8232422-.3071289-1.5292969-1.2480469-1.2402344-2.0473633.1591797-.4404297.5878906-.8251953 1.3095703-1.1757813 1.3359375-.6494141 2.9316406-.9160156 4.4990234-.7504883.8203125.0864258 1.5742188.3251953 2.2763672.5620117.3360538.1132927.5408287.2687035 1.0810547.6513672-.2236328.0375977-2.2709255.8565979-3.2763671 1.4970704zm8.5947265 4.2412109c.3583984 0 .7128906.0458984 1.0498047.137207.2001953.0546875.2617188.0947266.2626953.0976563-.0078125.1098633-.2314453.4213867-.3164063.5400391-.1953125.2714844-.4393311.5021362-.7026367.7098999-.1500244-.4978027-.3292236-.9846802-.5247803-1.4650269.0771485-.0042725.1541749-.0197754.2313233-.0197754zm-2.5292968.8808594v-.0004883c.4263916-.3605347.9562988-.6135864 1.5396729-.7545166.2443848.5793457.4455566 1.1760864.6193848 1.7823486-1.7921373.8877602-3.5553514.1507797-2.1590577-1.0273437zm5.0595703 19.6440429c-.8720703.4013672-6.9755859.4799805-7.90625.1049805-2.2792072-8.9305496-2.8165073-11.0983315-3.1134033-12.1809082 2.8734627 1.0590019 11.1237297 1.0333366 13.8552246-.024353-.1606865.1088181-.1844444.2405281-.1119385.3849487zm3.7011718 2.7978516c-.7792969.0649414-1.359375-.0390625-1.7734375-.3173828-.4091797-.2739258-.7011719-.8847656-.4648438-1.3232422.6845894-1.2679596 4.8399506-.6190414 4.5917969.362793-.1406249.5581054-1.5908202 1.2133789-2.3535156 1.277832zm6.5625-9.1054688c-.53125-.5986328-.7324219-1.5249023-.5537109-2.5415039.3624535-2.0724068 2.3129311-4.6599083 1.75354-9.9202271 1.8295174-.5230713 4.8983727-1.4854431 6.3812256-2.6984253.9404297-.7705078 1.5039063-1.7431641 1.5869141-2.7387695.0396729-.493576-.7056389-.5584259-.7480469-.0625-.0644531.7802734-.5439453 1.5898438-1.3134766 2.2211914-1.3527145 1.105896-4.3059425 2.0356483-5.993042 2.5241699-.3901672-2.5293159-1.0827599-3.4156647-1.1719971-4.5705566-.092144-1.1682777.5241623-1.9389648 1.8652344-1.9389648.6976929 0 1.4603195.1676865 2.1582031.2060547 3.7947044.281559 5.9874763-1.1122856 7.0751953-1.565918 1.819973-.7793884 4.4686432 5.7540016 5.1474609 7.6025391 1.2324219 3.3588867 1.7978516 6.9833984 1.6357422 10.4814453-.1134262 2.5007439-.741333 3.2824097-3.5084229 3.5081177-.0228271-.0273438-.045166-.0553589-.0765381-.0759888-1.3994141-.921875-2.8476563-1.8754883-4.4755859-2.4638672-1.8457031-.6674805-3.6865234-.7241211-5.1845703-.1625977-1.4543648.5465202-2.7093544 1.7073441-3.852417 2.7320557-.2805174-.1481933-.5323485-.31781-.7257079-.5362549zm2.9296875 1.0410157c-.5472412-.0245361-1.0006104-.1016235-1.409668-.2073364.9762993-.8589706 2.058857-1.8534241 3.3217773-2.3273315 2.8519287-1.0699959 5.7883797.4773331 8.2386475 2.06427-.6784362.0223159-8.4575919.6221427-10.1507568.4703979z"/><path d="m36.5855331 56.5323563c-1.2860107.432251-2.7077637.4557495-4.0068359.0640869-.1867676-.0562744-.3852539.0343018-.4450684.2199707-.2554932.7952271-.4431152 1.659729-.5024414 2.4901733-.0129395.1798706.1147461.3463135.2912598.3828125 1.6972656.3508301 3.5161133.1586304 5.1491699-.4325562.1538086-.0556641.2546387-.2125854.241333-.3756104-.0565186-.6873169-.189209-1.3644409-.2581787-2.0501099-.0236816-.2332762-.2468261-.373474-.4692383-.2987669z"/><path d="m25.6134872 9.948493c1.8193359.9692383 3.2714844 2.5454102 4.0898438 4.4375.1938286.4533052.8873882.1607122.6875-.2978516-.8847656-2.0473633-2.4560547-3.7524414-4.4238281-4.8017578-.1845703-.0981445-.4101563-.027832-.5078125.1547852s-.0283203.409668.1542968.5073242z"/><path d="m31.3341904 12.045661-1.4941406-5.2631836c-.0576172-.1992188-.265625-.315918-.4628906-.2583008-.1992188.0566406-.3144531.2641602-.2578125.4633789l1.4941406 5.2631836c.1353053.4763842.8566741.2731609.7207031-.2050781z"/><path d="m33.4728622 5.1735907c-.1796875-.1025391-.4091797-.0439453-.5126953.1357422-1.0332031 1.7749023-1.3076172 3.9282227-.7529297 5.9072266.1354294.4782391.8559456.2748795.7226563-.2021484-.4931641-1.7592773-.2392578-3.7509766.6787109-5.328125.1044922-.1787111.0429688-.4082033-.1357422-.5126954z"/><path d="m7.4738393 66.8581619c.0283203.1860352.1884766.3193359.3710938.3193359.0175781 0 .0371094-.0014648.0556641-.0043945.2050776-.0302734.3457026-.2211914.3154292-.4262695-.1650391-1.1000977.3837891-2.2705078 1.3349609-2.8457031.9501953-.574707 2.2421875-.5195313 3.1396484.1376953.279954.2029114.6611376-.0473289.5878906-.3823242-.2021484-.9287109-.4111328-1.8886719-.3232422-2.828125.0917969-.984375.5439453-1.8168945 1.2080078-2.2265625 1.0664063-.6572266 2.5439453-.1611328 3.3935547.6386719.9775391.918457 1.5195313 2.2744141 1.9980469 3.4707031.1390724.3454361.6229038.2957115.7119141-.0444336.2509766-.965332 1.2392578-1.7021484 2.2626953-1.6411133.9951172.0605469 1.9140625.9145508 2.046875 1.9038086.0651093.4883118.809906.3938255.7441406-.1005859-.1826172-1.3486328-1.3886719-2.4692383-2.7460938-2.5522461-1.0419922-.0522461-2.0742188.4946289-2.6494141 1.3535156-.4404297-1.0424805-.9833984-2.1171875-1.8544922-2.9360352-1.0791016-1.015625-2.9033203-1.59375-4.2998047-.730957-.8652344.5327148-1.4482422 1.578125-1.5615234 2.7954102-.0722656.765625.0302734 1.5356445.1699219 2.2592773-2.6862106-1.0656166-5.3009657 1.1930923-4.9052729 3.840332z"/><path d="m22.3654404 66.1755447c1.1246452-.7501678 2.56147.0129318 3.6650391.6459961.4324265.2433853.8026619-.4050369.3730469-.6513672-.6425781-.3671875-1.3056641-.7470703-2.0644531-.9350586-1.8349056-.452652-3.2094078.5353165-3.3144531 1.8779297-1.4761276-.6292572-3.830862-1.1145248-5.1523438-.09375-.8296003.6383591-1.1182394 1.9730148-.3779297 2.7392578.3396053.3531876.886013-.1639862.5390625-.5214844-.2001953-.2075195-.2255859-.4760742-.2119141-.6650391.0864286-1.1955948 1.4043961-1.4911423 2.6230469-1.3637695 2.4123268.2523727 2.8626842 1.2176361 3.3007813.8178711.1162109-.1074219.1533203-.2768555.0917969-.4228516-.1962892-.4628905.0400389-1.1035155.5283202-1.4277343z"/><path d="m66.0186386 19.356451c-.4464798-2.6232605-3.9382858-3.9501257-6.3999023-2.1099854.6899414-1.2600088.4199219-2.9300528-.5400391-4.0100088-1.3097916-1.4891291-3.7853851-1.9765196-6.0100098-.710022-.5200195.2800293-1.1500244 1.0599976-1.7199707.960022-.5110512-.0852451-.6433945-.5850067-2.0300293-.6600342-2.6201019-.1138067-4.2413177 2.2915792-3.8500977 4.4299917-1.3398438-.3499756-2.6899414-.6999512-4.039917-1.0499878.0299072 1.2000122.6400146 2.3900146 1.6099854 3.1199951-1.8699951.3500366-3.8699951-.0999756-5.4099121-1.2199707.4348145 3.0343018 3.0356445 5.5935669 6.0432129 6.1110229-.3747635 1.0545044-.577404 1.8938141-.7001953 3.1913452-2.0329361.467308-1.8838959 3.4309998.2141113 3.6681519 1.075737 4.6601315 5.0879745 7.2929096 9.5067139 7.2929096 5.1252747 0 9.1301003-3.9536743 10.0914307-8.5020161.1704788.1466293.3423767.1440887.4902344.0369263 1.2705994-.3671589 2.1431198-1.5476093 1.8001709-2.8405762-.0186768-.0834961-.0622559-.156189-.0909424-.2360229.3248291-.3687744.6174316-.7683716.8352051-1.211731.3800049-.7700195.3699951-1.2900391-.1300049-2-.4200439-.5800171-1.0599365-1.0200195-1.7900391-1.0300293 1.4000244-.2600096 2.3499756-1.8200071 2.1199951-3.2299803zm-23.1136475 8.862732c-.0206299.7098999.0384521 1.3986206.1414795 2.0710449-.971138-.3230744-1.0541076-1.6226006-.1414795-2.0710449zm12.8217774 8.8884906c-3.3613281 1.1953125-7.3789063.2583008-9.7714844-2.2739258-2.5894127-2.7412376-2.8502769-6.9874878-1.5194092-10.5269184 3.5549316.1959229 6.0163574-2.1882324 7.402832-5.1804199 1.8407555 2.6865864 4.4122658 2.1765423 6.5699463 3.5300293 1.4036217.8576622 3.3167419 3.3788815 3.8483887 4.8814087.0905266 4.5057507-2.9315376 8.2919026-6.5302734 9.5698261zm8.5654297-8.9453144c-.2128906.5117188-.71875.9174805-1.3193359 1.0585938-.0062256.0014648-.010498.0059204-.0164795.0076294-.005249.0012207-.0095215-.0007324-.0147705.0006714-.0124512.0026245-.019165.0151367-.0311279.0189209.1435547-.9769897.1401367-1.9592285.0183105-2.9231567 1.0931549-.2478524 1.7389907.9349727 1.3634033 1.8373412z"/><ellipse cx="55.74" cy="27.001" rx=".837" ry="1.419"/><ellipse cx="48.535" cy="27.001" rx=".836" ry="1.419"/><path d="m57.0656357 30.208746c-1.9404297 2.001955-4.7539063 3.0551777-7.5351563 2.8183613-.4965782-.0411873-.5578499.7049789-.0644531.7470703 2.1139908.1810913 4.1925087-.3376503 5.9510498-1.3536377-1.0220947 1.3059692-2.4257813 2.3018188-4.0164795 2.8135986-.4724388.1520195-.2426071.8654938.2304688.7138672 2.2763672-.7329102 4.2080078-2.3730469 5.2988281-4.5000019.0198975-.0389404.0284424-.0801392.0338135-.1212158.2207031-.1903076.4373779-.3856201.6409912-.5955811.1435547-.1489258.140625-.3862305-.0087891-.5302734-.1474609-.1445313-.3847656-.140625-.5302734.0078125z"/></g></svg>