<svg id="Layer_1" enable-background="new 0 0 75 75" viewBox="0 0 75 75" xmlns="http://www.w3.org/2000/svg"><g id="Gifting" fill="rgb(0,0,0)"><path d="m53.9002686 33.0847092c-2.09375-.2617188-4.2695313.328125-5.9736328 1.6152344-.3949814.2991562.0572243.8974113.453125.5976563 1.5488281-1.1699219 3.5332031-1.7080078 5.4267578-1.46875.5094299.056362.5740699-.6846734.09375-.7441407z"/><path d="m58.392334 22.5414982c.3503418 0 .6345215-.2946777.6345215-.6584473 0-.3635254-.2841797-.6582031-.6345215-.6582031s-.6342773.2946777-.6342773.6582031c-.0000001.3637695.2839355.6584473.6342773.6584473z"/><path d="m54.9715576 21.1728458c-.3503418 0-.6343994.2946777-.6343994.6584473 0 .3635254.2840576.6582031.6343994.6582031s.6343994-.2946777.6343994-.6582031c0-.3637695-.2840576-.6584473-.6343994-.6584473z"/><path d="m20.612915 21.4321232c.3480225.0407715.6739502-.3303223.7280273-.8286133.0540771-.4985352-.1842041-.9353027-.5321045-.9760742-.3481445-.0407715-.6740723.3303223-.7281494.8286133-.0540771.4985351.1842042.9353027.5322266.9760742z"/><path d="m24.0463867 21.2407169c.3480225.0405273.6739502-.3303223.7280273-.8288574.0541992-.498291-.184082-.9353027-.5322266-.9760742-.3479004-.0405273-.6738281.3305664-.7280273.8288574-.053955.498291.1843262.9353027.5322266.9760742z"/><path d="m18.4100342 63.9782639c1.2146721-.3297958 1.264576-1.3855972.3330078-2.0605469-.3845215-.2780762-1.5189209-.7651367-2.4858398-.7370605l.1704102-7.8625488c.0048828-.2070313-.1601563-.3779297-.3671875-.3828125-.1679688-.0029297-.3779297.1591797-.3828125.3671875l-.1741943 8.0385742c-1.4184057.6382827-.858164 3.6553573 2.9066161 2.637207zm-.1064453-1.453125c.2246094.1630859.3623047.3662109.3251953.484375-.0917034.3004074-1.3150635.4105682-1.6386719.4121094-1.4454737.0899277-1.7578259-1.1113205-1.1796875-1.4003906.1367188-.0693359.3164063-.0986328.5175781-.0986328.6796875-.0000001 1.6054688.3349608 1.975586.602539z"/><path d="m26.9735107 61.9294357c.4296875-.3554688.6269531-.7929688.5390625-1.1982422-.2412109-1.1342773-2.1072998-1.2177734-2.7369385-1.1220703l-.9720459-6.8115234c-.0712948-.4990578-.8115578-.3801231-.7421875.1054688l.9884033 6.9265137c-.8200798.3406715-1.4146786.9691887-1.1485596 1.8088379.3585836 1.1310996 2.577118 1.5279578 4.0722657.2910155zm-1.7353515-1.6035156c.6152344 0 1.4599609.1806641 1.5419922.5615234v.0009766c.0737324.3403015-1.1267242 1.324501-2.5117188.9804688-.1650391-.0410156-.5605469-.1669922-.6523438-.4570313-.2040519-.6504135.9396172-1.0859375 1.6220704-1.0859375z"/><path d="m25.7391357 31.8806095c-.1025391-.5996094-.2382813-1.2197266-.6660156-1.6376953-.5474567-.5337143-1.2859058-.530653-2.0566406-.6611328-12.4448185-1.8790779-5.5328102-2.2808647-14.7285156 14.9560528-.5195313.9804688-1.1015625 2.0097656-1.7841797 3.1552734-.405736.7008171-2.5026879 2.1235085 2.0175781 3.3125 1.7910156.4736328 3.7177734.3144531 5.3300781-.4287109 3.4404106 2.4316673 7.7355652 2.3088951 9.4023438 1.3691406.5439453-.3066406.9609375-.7441406 1.1943359-1.2421875 3.0831699 1.4048691 6.0181522.1218071 6.1181641.1083984.4160156-.1376953.7763672-.2714844.9550781-.5117188.3496094-.4707031-.0341797-.9697266-.2412109-1.2382813l-.3310547.1845703.2988281-.2265625c-4.9513416-6.5286978-4.3761291-10.4981383-5.5087891-17.1396464zm4.3925782 18.288084c-1.2143841.4537277-2.6140041.571846-3.9628906.2734375-.2822266-.0625-1.3320313-.3701172-1.6044922-.5185547-.1845837-.2837105-.61619-.1953392-.6826172.1259766-.0500622.1001244-.123991.7515869-.9960938 1.2431641-1.547533.8739433-5.6366634.8690796-8.7724609-1.4521484-.1169739-.0872917-.272687-.0943565-.390625-.0332031-1.4941406.7470703-3.3222656.9199219-5.0097656.4736328-1.1591797-.3056641-1.9257813-.6591797-2.2783203-1.0527344-.1396189-.1538658.5161219-.8066788.7167969-1.1572266 3.0990515-5.2004013 5.5691013-10.7273293 7.3837891-16.4384747.2763672-.8867188.5751953-1.7109375 1.1835938-2.0556641.6397038-.3774109 1.0642471-.1795807 7.1865234.7470703l.6357422.0957031c1.0534077.1316757 1.2580757.4173412 1.4589844 1.5869122.6538715 3.8360481.4535217 4.6471367 1.3681641 8.8154297 1.0752029 4.9076462 4.4671459 8.8165741 4.5566406 9.0253906-.0957472.1004754-.6392729.2699891-.7929689.3212891z"/><path d="m23.1385498 39.0036545c-.4676971.0216522-1.3260517.1489601-1.6757813.4150391-3.1103401-.9011078-4.8851204-3.9399185-4.5712891-6.9736328.0512104-.4911442-.6962395-.5766716-.7460938-.078125-.3570194 3.4421387 1.7004566 6.7846413 5.0909424 7.7773438.1173611.419838.8500538 1.6705933 2.0672607 2.3857422 2.7902109 1.6313742 3.5280439-3.6749078-.1650389-3.5263673zm1.2382813 3.0820312c-.171875.0341797-.3984375-.0292969-.6943359-.2021484-1.3383389-.7866402-1.6201038-1.8857422-1.7363281-1.8857422.3261719-.1357422.7724609-.2246094 1.2246094-.2441406 2.0375308-.1147347 2.0823325 2.1584549 1.2060546 2.3320312z"/><path d="m20.3465576 23.3503361c-.1630859 1.0429688.2070313 1.6230469.5458984 1.9267578.5982189.5325184 1.4773502.5970383 2.0888672.2021484 1.2160835-.7851887.8300934-2.6677666.1054688-2.2109375-.6609249.4258842-1.5198097.3705635-2.1269531-.1455078-.2254753-.1917591-.5694676-.0603828-.6132813.2275391zm2.671875.7880859c-.1379547 1.1312275-1.7781582 1.1399975-1.9472656-.0654297.6414795.2936344 1.3362999.2947598 1.9472656.0654297z"/><path d="m58.5526123 24.2106876c-.3319359.8794174-1.5754013 1.0764923-2.2099609.3271484-.2127495-.2531738-.6383514-.1224003-.6601563.2177734-.0419922.625-.0302734 1.4189453.4316406 2.0039063.8617554 1.0937672 2.7709351.8188133 3.3261719-.7167969.2431641-.6699219.0068359-1.3740234-.1914063-1.8447266-.1373672-.3242816-.5821571-.2923526-.696289.0126954zm-2.1181641 1.3232422c.7788506.3775024 1.696991.2661934 2.3408203-.34375.2484398 1.5364113-2.1386413 2.2351055-2.3408203.34375z"/><path d="m62.2196045 61.6530685c-1.0305328.4801369-1.2728729 1.1932449-1.1445313 1.7460938.1674232.7181015.8419647 1.0018234 1.5693359 1.0976563 1.1126099.144455 3.4450531.0945663 4.1015625-.7988281.525383-.7141266.1650238-1.6342316-.592041-2.1374512l-.7868652-11.8752441c-.0330124-.4975853-.7807465-.4440422-.7480469.0488281l.7647705 11.5407715c-1.0784911-.1945802-2.1921386-.0722657-3.1641845.3781737zm3.9228516 1.5996094c0 .0009766-.0009766.0009766-.0009766.0009766-.1416016.1943359-.4335938.2871094-.6992188.3525391-.8857422.2158203-1.7929688.265625-2.7001953.1464844-1.2807922-.1665573-1.1977997-.9602051-.2060547-1.4199219.8976173-.416153 1.9679337-.5077019 2.90625-.2939453.4705811.1057891 1.0276795.7706298.7001954 1.2138671z"/><path d="m53.6375732 62.160881c-.296875.3144531-.4179688.7207031-.3222656 1.0869141.3563232 1.3515701 3.1946144 1.1464691 4.5332031.8554688.3945313-.0849609.8359375-.2197266 1.1240234-.5683594 0-.0009766 0-.0009766 0-.0009766.5408173-.65382.1939507-1.5070038-.5799561-1.9763184l-.7862548-10.5461425c-.0392456-.5151138-.7844429-.425621-.7480469.0566406l.7625732 10.2280273c-1.3809317-.2268295-3.2563323.0868912-3.9832763.8647461zm4.756836.8955079c-.4443436.5386925-3.3144112.6471672-4.0566406.2949219-1.1664696-.5648918 1.1364403-1.7348862 3.3525391-1.2929688.4503593.0917167 1.0024795.6393585.7041015.9980469z"/><path d="m69.2967529 15.9655695c-1.5810547.0742197-3.2041016-.3984375-4.5498047-1.2871094 1.0761719-.5517578 1.8916016-1.6542969 2.0771484-2.8828125.0481415-.3160553-.3059921-.5546637-.5849609-.3642578-2.2655907 1.5726461-5.2942848-.3505878-7.96875-.4658203-2.21875-.1132813-4.4472656.9628906-5.8173828 2.7890625-1.0576172 1.4042969-2.3261719 4.7949228-1.0869141 6.5517588.0386963.0551758.0917969.0947266.1512451.121582-.2756462 2.3530598.6625595 5.2191772 2.7374268 6.9223633 4.1670113 3.4225903 10.7614517 1.4944038 12.5020752-3.0107422.2533417-.3584919.586792-1.074873.7557373-1.4833984.5720596-1.4778156.6547165-3.7199936.3652344-4.6660156 1.0879135 0 1.8095703-.9352875 1.8095703-1.8496094 0-.1025391-.1895141-.3869477-.390625-.375001zm-14.5654297 10.8046884c-2.0321159-1.6667652-2.9020576-4.6917667-2.3513184-6.9084473.4757423-.4028206 2.2568817-.5936871 3.5192871-1.8278809-.2610283 1.0041618-.6557732 1.1117458-.4257813 1.4472656.0830078.1220703.2382813.1845703.3730469.1582031 1.0341797-.1787109 2.0029297-.7285156 2.7333984-1.5166016-.1282425.5056629-.3480949.977047-.6123047 1.3544922-.1917763.2986965.1002922.6635132.4248047.5615234.1753311-.021616.8685493-.0367241 1.0302734-.0869141 1.288456-.3584213 1.5448875-1.167738 1.8242188-1.4599609.1002121-.0334053.4661407.1755524.5664063.2285156 1.1501465.5405273 2.0662842 1.5493164 2.5235596 2.746582-.5419807.126461-.3307114.8569622.1531982.7319336.3779297-.1025391.8251953.1269531.9824219.5009766.1611328.3828125.0126953.8935547-.3242188 1.1152344-.328125.2138672-.8212891.140625-1.0771484-.1621094-.3198433-.3777866-.8931885.104887-.5722656.484375.4981613.58815 1.4234085.7234516 2.0615234.3046875.0788574-.052002.1331787-.1293945.2003174-.1943359-.0792618.4681988-.1959534.4921703-.1744385.6994629-2.2865867 3.672045-7.5816687 4.5153315-10.8549804 1.8229982zm12.5283204-9.5292968c-.0009766-.0009766-.0019531-.0019531-.0029297-.0019531-.398468-.2953377-.845253.3042412-.4472656.6015625.6162109.4580078.4882813 2.0283203.4189453 2.8681641-.0897903 1.0673256-.3145218 1.7448215-.7480469 2.5986328-.0441513-.1995773-.3104324-.8842258-.3164063-.8984375-.1898193-.4501953-.5782471-.7783203-1.0240479-.9147949-.4814453-1.5036621-1.5900879-2.7866211-3.0032959-3.4504395l-.0957031-.0488281c-.9356117-.4762096-1.2031898-.2600574-1.6513672.3964844-.1005859.1484375-.1953125.2880859-.3066406.3808594-.2539063.2109375-.5595703.3730469-.8544922.4560547-.0498047.0097656-.1494141.0166016-.265625.0244141.3769531-.7832031.5498047-1.6728516.4833984-2.5322266-.0307121-.377306-.5442848-.4814034-.7109375-.1347656-.4697266.9619141-1.2978516 1.7197266-2.2558594 2.0996094.2734375-.7373047.3652344-1.5507813.2539063-2.3291016-.0618858-.4332027-.6908531-.4256096-.7431641.0087891-.1488419 1.238287-1.9455757 2.1106739-3.015625 2.4257813-.4615173.1427097-.7790718.192337-1.2070313.6132813-.0048828.0058594-.0107422.0117188-.015625.0185547-.5048828-1.4560547.3642578-3.9746103 1.3007813-5.2177744 1.2236328-1.6298828 3.2050781-2.5947266 5.1845703-2.4892578 2.3748131.101222 5.0492668 1.737978 7.6103516.7626953-.3759766.8378906-1.1113281 1.5068359-1.9726563 1.7392578-.2969704.0806065-.3756485.4630518-.1357422.65625 1.4541016 1.1552744 3.2998047 1.8164072 5.1279297 1.8466806-.2796019.755203-1.0986785.8980634-1.6074217.5205076z"/><path d="m61.3748779 13.5241632c-2.2910156-.6015625-4.7822266-.0761719-6.6630859 1.4111328-.3927841.3081121.0830841.8932972.4648438.5878906 1.6699219-1.3203125 3.9746094-1.8095703 6.0068359-1.2744141.4714889.1343862.6763077-.5968798.1914062-.7246093z"/><path d="m5.3126221 25.3300724c3.5095129.3712921 5.575551-1.0836525 6.2698975-2.9199219.5985785-1.6147881.0932541-3.4617691 1.6000977-4.8000488-.2585449.9003906-.3649902 1.8483887-.3232422 2.7873535-.6556854 1.0729389.1614027 2.5481567 1.635498 2.4785156 1.2857933 4.72999 5.6987991 6.3172684 8.6895752 4.7253418 2.1188412-1.1296635 3.014122-3.3214073 3.5819092-5.5888672 1.728756.240675 2.5564899-2.1136055 1.0285645-3.0458984-.119873-1.7104492-.3012695-3.5341806-1.2423096-4.9265146l-1.4400635-1.369873c-1.8537807-1.2199688-4.6368732-1.5707903-7.1398926-.5400391l.0599365-.130127c-1.6716156-2.7518082-7.7345266-1.8829594-9.5499268 2.7900391-.9208202 2.3419962-.5541224 4.9877939-1.2200928 7.4299326-.329956 1.2202148-.9499511 2.3901367-1.9499511 3.1101074zm8.5612793-4.8273926c.1053467-.0275879.2037354-.0200195.2947998.005127 0 .5468616.0549746 1.0751972.1551514 1.6237793-1.0742875-.0701275-1.2400952-1.4084015-.4499512-1.6289063zm13.7734375.4560547c-.1694336.2138672-.4530029.3300781-.7124023.3127441.1307373-.6459961.2070313-1.2380371.2266846-1.7727051.6408328.1375409.8957366.9458752.4857177 1.459961zm-3.7247315-5.4086923c.6082764 1.1613779 1.3994141 2.2219248 2.4494629 2.9550791.1618652 1.1208496-.0751953 2.6889648-.7208252 4.690918-2.3208237 7.1961632-10.6836061 4.5912189-10.734375-2.6591797-.0006104-.0915527.0112305-.1787109.0134277-.2695313.0006104.0009766.0018311.001709.0023193.0026855 3.2900392-.829834 6.3898927-2.4599609 8.9899903-4.7199716zm-7.5750732.6567392c.59375-1.1445322 1.6884766-2.0380869 2.9296875-2.3916025.4717522-.1391668.6852913.5841722.2050781.7207031-1.0458984.2978516-1.96875 1.0517578-2.46875 2.0166025-.0933666.1812401-.317255.2561111-.5058594.1601563-.1835937-.0957032-.2558593-.3212891-.1601562-.5058594zm-2.2801514 3.5397949c-.3448009-.0084019-.4763107.0330105-.7769775.2263184.2581415-.2148438.4714384-.2692681.7769775-.2263184zm-5.4083252-2.2468262c.6806641-2.312501 2.3691406-4.25879 4.5166016-5.2050791.4467602-.2058372.7605343.4849644.3027344.6855469-1.9482422.859375-3.4814453 2.6279297-4.1005859 4.7304697-.1393853.4778901-.8587638.2627755-.7187501-.2109375z"/><path d="m34.2420654 18.1003361c1.0244141 1.5869141 1.6601563 3.4189453 1.8398438 5.2998047.0477562.5001755.7928658.4231377.7460938-.0703125-.1904297-2-.8662109-3.9492188-1.9550781-5.6357422-.2693254-.415596-.9001046-.0104923-.6308595.40625z"/><path d="m38.3280029 16.2858829c-.6513672 1.6669922-.8164063 3.5527344-.4628906 5.3085938.0966034.4883804.8333015.341486.734375-.1484375-.3242188-1.6162109-.1728516-3.3525391.4277344-4.8867188.178669-.4594364-.5131149-.7375164-.6992188-.2734375z"/><path d="m40.2664795 23.3493595c.2070313-.015625.3613281-.1962891.3457031-.4023438-.0908203-1.1855469.2089844-2.390625.84375-3.3925781.2665939-.4209404-.3672752-.8192844-.6328125-.4023438-.7216797 1.1386719-1.0615234 2.5058594-.9589844 3.8515625.015625.1972656.1796875.3466797.3740234.3466797.0087891.0000001.0185548.0000001.0283204-.0009765z"/><path d="m67.5175781 42.6975021c-.0724106-.4573364-.0006027-.0100021-1.5877686-10.1000977-.2335205-1.6381817-1.204834-2.9855938-2.6524658-3.072752-.6538086-.0388184-1.3168945.300293-1.9614258.4846191-1.550293.4458008-3.1101074.9013672-4.6790771 1.3666992-.0373535 0-.0653076.0192871-.1027832.0290527-1.9041862.5707569-2.1688728 1.6093998-2.5506592 5.8703594.2125854-.1336861 3.9901886-1.1694412 7.0057373-4.9025879.3130379-.3854542.8946762.0852585.5839844.4707031-1.8730469 2.3183594-4.4560547 4.1289063-7.2734375 5.0986328-.0275879.0092773-.0559082.0112305-.0841064.0141602.2544136-.2825928-.0135231-.6980019-.3582764-.6118164-1.6033936.3745117-3.2398682.5424805-4.8695068.4902344-.1965828-.521595-1.1653595-1.0603867-1.7236328-1.2731934l-1.2419434-5.484129c.1692429-.059845.5571594-.045578.7989502-.4272461.3112946-.4895363.0028572-.8028316-.4013672-2.8964844-.0897598-.4331875-.5261879-.7397995-.9863281-.6279297l-5.9345703 1.4450684c-.77388-.5029125-1.8550797-.4266167-2.8208008.6911621l-1.5251465.3720703c-1.6895256-1.0311089-3.1765671-.3726196-3.4891357.8457031-.382885.1264572-.7585258.0845642-1.0096436.480957-.1210938.1904297-.1591797.4267578-.1074219.6425781.5300369 2.0282269.3798466 2.4801884.8896484 2.7871075.3671608.2225227.6637115.0672722.7642822.0566406l.7104492 3.1523438c-1.1793213-.5383301-2.307373-1.1142578-3.272583-1.9003906-1.3642578-1.109375-2.2138672-2.5097656-2.3935547-3.9453106-.062748-.5044022-.8040791-.3926754-.7441406.09375.203125 1.6269512 1.1494141 3.2021465 2.6640625 4.4335918 1.1757813.9575195 2.539917 1.6079102 3.953125 2.2363281l1.1289063 5.0087891c.1927757.823864.9870834 1.294342 1.7441406 1.1083984l11.0097656-2.6796875c.7792969-.1884766 1.2626953-.9921875 1.078125-1.7880859l-.1988525-.880127c.2890625-.1569824.592041-.3383789.8355713-.5710449.0552979-.0527344.0811768-.1066895.1219482-.1599121.2676697.1043739 2.7286186.0782204 5.0849609-.4594727-.2718468 3.7625961-.0379257 5.7232323-.0222168 6.6564941.2642212 3.5974464 1.3574753 4.1812057 4.0159912 3.9838867 7.7088013-.5934982 8.3259506-.4586449 9.152832-1.230957 1.2345735-1.0997005.6888963-3.3440243.4483644-4.8081051zm-8.024292-9.2873535c-.3331299.0510254-.65271-.2565918-.7139893-.6867676-.0612793-.4304199.1590576-.8207989.4921875-.8718243.3330078-.0510254.652832.2563457.7141113.6867657s-.1591796.8208008-.4923095.8718262zm-14.0950927-1.6887188-7.1236572 1.7353497c.1861572-.2028809.3687744-.4077148.5386963-.6201172l6.4793701-1.5812969zm.2130127-3.8671875c.0009766 0 .0751953.0576172.0751953.0576172l.5097656 2.2607422c.0009766.0019531-.0537109.1015625-.0527344.1035156-.3156509.0770187-6.8521881 1.6719513-6.6607666 1.6252441.2617455-.4029617.5585251-.8310471.6949463-1.4055176.1119385-.4731445.0682373-.9240723-.1068115-1.2924805zm-6.1640625 2.4697266c-.2158394.9186401-1.3890457 2.2681599-2.022583 2.9636211-.0622711-.8681068-.4218254-1.7691765-.8553467-2.354002.9746513-2.6581402 3.2612991-2.2409782 2.8779297-.6096191zm-4.9160157-.1953125c.3818169.1808605.9124832.5619144 1.3388672 1.1191406.7848473 1.0164394.7834625 1.9978161.8085938 2.1093731.0126953.1806641-.0166016.2421875-.0068359.2421875h.0009766c-.1411705.0392151-.5658722-.1437492-.6660156-.1708984-1.1683083-.4517441-3.7564468-1.3764496-3.6601563-2.6328106.0302734-.4414063.9393844-1.2689095 2.1845702-.6669922zm-2.6582031 3.6269512c-.0009766 0-.0839844-.0585938-.0839844-.0585938l-.5097656-2.2587872c-.0009766-.0019531.0546875-.1015625.0537109-.1035156l.3167725-.0786133c.2450199 1.0280361 1.2023697 1.5437183 2.1322021 2.0288067l-1.1134033.2744141c-.192543-.1370544-.438839-.0772629-.5456543.1347656zm2.9881592.0249023c.0471077.0188599-.0373726-.007988.7895508.3154297l-2.6162109.637207-.1054688-.46875zm.4473877 10.0444336c-.4699135-.2885399-.1844635-.1767807-2.0841064-8.2492676l3.0756836-.7492676.0371094.1647949c-.2888184 1.1799316-.8165283 2.3078613-1.5423584 3.251709-.1269531.1640625-.0957031.3994141.0683594.5253906.0683594.0527344.1484375.078125.2285156.078125.1123047 0 .2236328-.0507813.296875-.1464844.5299072-.6879883.9562988-1.4477539 1.2763672-2.2531738l1.5480957 6.8752441c-2.2319757.4829332-2.4901048.7569391-2.9045411.5029298zm11.515625-2.5986328-7.7913818 1.8962402-1.7821045-7.8835449c.9011917.6058617 1.9819145.9288979 3.1252441.8056641.4717331-.0536575.4412613-.7698593-.0839844-.7460938-.9776611.1147461-1.9771729-.1782227-2.7731934-.769043l8.0701904-1.9658203.8546143 3.7744141c-3.8044853-.6499557-2.8956299 4.6150665.7381592 3.263916l.1658936.732666c.0927734.3994141-.1416016.7988282-.5234375.8916016zm1.3740234-3.0537109c-.2568359.2460938-.6435547.453125-.9521484.6064453-2.5952377 1.2922554-3.5439339-2.0194168-1.1328125-1.7412109.6943359.0751953 1.3837891.3691406 1.9423828.8271484.1953125.1601563.2226563.2089844.2324219.1982422 0 0-.0136719.0361328-.0898438.109375z"/></g></svg>