<svg id="Layer_1" height="512" viewBox="0 0 512 512" width="512" xmlns="http://www.w3.org/2000/svg"><g><path d="m213.9 231.8 19.8 5.7 4.6-15.7-35.5-10.3-14.2-25.8c3.4-3.1 5.9-7.1 7.3-11.6h31.1l26.1 26.1 11.6-11.6-14.7-14.5h18.3v-16.4h-18.3l14.6-14.6-11.6-11.6-26.1 26.1h-31.1c-1.2-3.9-3.3-7.4-6-10.3l14-24 35.8-9.4-4.1-15.9-19.9 5.2 10.8-18.5-14.1-8.3-10.8 18.5-5.2-19.9-15.9 4.1 9.4 35.8-14.1 24.1c-1.8-.4-3.7-.6-5.6-.6-2.4 0-4.6.4-6.8 1l-13.8-25 10.3-35.5-15.7-4.6-5.7 19.8-10.3-18.8-14.4 7.9 10.4 18.8-20.1-5.5-4.6 15.7 35.5 10.3 14.3 25.9c-2.3 2.7-4 5.8-5.1 9.3h-31.1l-26-26.2-11.6 11.6 14.6 14.6h-18.4v16.4h18.3l-14.6 14.6 11.7 11.5 26.1-26.1h31.1c1.1 3.6 3 6.9 5.4 9.6l-15.7 26.9-35.8 9.4 4.1 15.9 19.9-5.2-9.2 15.8 14.1 8.3 9.2-15.8 5.2 19.9 15.9-4.1-9.4-35.8 15.6-26.6c2.1.5 4.2.8 6.4.8 1.3 0 2.5-.2 3.7-.4l14.7 26.7-10.3 35.5 15.7 4.6 5.7-19.8 8.8 16 14.4-7.9zm-43.9-55.1c-6 0-10.8-4.9-10.8-10.8 0-6 4.9-10.8 10.8-10.8s10.8 4.9 10.8 10.8-4.9 10.8-10.8 10.8z"/><path d="m333.8 322v-172.5h-16.4v172.5c-36.8 4.1-65.5 35.4-65.5 73.3 0 40.7 33.1 73.7 73.7 73.7 40.7 0 73.7-33.1 73.7-73.7.1-37.9-28.6-69.2-65.5-73.3zm-8.2 130.6c-31.6 0-57.4-25.7-57.4-57.4s25.7-57.4 57.4-57.4c31.6 0 57.4 25.7 57.4 57.4s-25.7 57.4-57.4 57.4z"/><path d="m374.8 291.6v-240.4c0-27.1-22.1-49.2-49.2-49.2s-49.2 22.1-49.2 49.2v240.5c-40 19-65.5 59.1-65.5 103.6 0 63.3 51.5 114.7 114.7 114.7 63.3 0 114.7-51.5 114.7-114.7.1-44.6-25.5-84.7-65.5-103.7zm-49.2 202c-54.2 0-98.3-44.1-98.3-98.3 0-72.1 65.5-92.9 65.5-92.9v-251.2c0-18.1 14.7-32.8 32.8-32.8s32.8 14.7 32.8 32.8v251.3s65.5 25.2 65.5 92.9c.1 54.1-44 98.2-98.3 98.2z"/><path d="m391.2 51.2h49.2v16.4h-49.2z"/><path d="m391.2 100.3h32.8v16.4h-32.8z"/><path d="m391.2 149.5h49.2v16.4h-49.2z"/><path d="m391.2 198.6h32.8v16.4h-32.8z"/><path d="m391.2 247.8h49.2v16.4h-49.2z"/></g></svg>