<svg id="Layer_1" enable-background="new 0 0 75 75" viewBox="0 0 75 75" xmlns="http://www.w3.org/2000/svg"><g id="Girl_Doll" fill="rgb(0,0,0)"><path d="m59.6824036 18.8721886c-3.1419144-2.5073299-1.2936249-7.479517-3.4699707-10.6101074-1.7804565-2.5738063-5.5170822-2.8356142-7.6400146-.5200191l.0797119.1420898c-.3808327-.3265357-.8718224-.8586202-1.9309082-1.4345703l-.8811035-.4289551c-2.6862793-1.1208496-5.8781738-.8718262-8.395874.5603027-2.290535-1.9501791-5.6465645-1.3653264-7.2218037.9311523-2.1981831 3.1754031-.3066597 8.1326237-3.4699707 10.6000977 1.2900391.2600098 2.619873-.3500977 3.5899658-1.25 1.1541595-1.059165 1.8768139-2.4602118 2.9085712-3.7817383-.0102539.9033203.1745605 1.8017578.5513916 2.612793.0332031.2443848.0753174.4797363.1158447.7165527-1.666275.1486206-2.1936893 2.1795444-1.0150146 3.1799316.4836693.411911 1.2417603.5844116 1.9716797.2348633.0793457.1921387.152832.3916016.2392578.574707.209713.4473934.8910522.1297646.6777344-.3203125-.5770264-1.2211914-.9815674-2.6757813-1.2180176-4.3125.6153564-1.7734375 1.7283936-3.3764648 3.1829834-4.5588379.4213867-.3371582.9423828-.6589355 1.4556885-.5285645.4213867.1071777.7279053.4902344.8580322.9040527.2397614.7587204-.1061211 1.4553194.4904785.9040527.8369751-.7497234 1.5625305-1.8287067 1.9384766-3.0800781.0458984-.1608887.2144775-.5285645.168457-.6818848.3864441 1.36059.3351059 2.7489204-.0996094 4.0378418 1.3614464-.4175034 2.3359337-1.7325087 2.2373047-3.263916 1.1353111 2.9530582 3.7322845 2.3555965 5.6922607 3.8381348.6680908 1.7666016.774292 3.7475586.1992188 5.5561523-1.9865723 6.2072716-10.5073051 8.2325573-14.2158203 2.4462891-.263958-.4167709-.9003563-.0151768-.6308594.4042969 1.9012222 2.9725304 5.078804 4.2020054 8.3616943 3.6298828-.3494873.3659668-.7686768.6499023-1.2243652.8710938-.6681595.1493282-.9200974.2734966-1.2114258.4506836-1.8854752.5243282-3.9407005.4824886-5.6846924 1.5444336-1.3902588.8442383-2.3963623 2.609375-1.8062744 4.1821289-4.5996227-.7169666-8.892437 2.6475029-9.1665058 7.4272461-1.2619629-.550293-2.8825684-.1240234-3.9178467.7558594-2.3165226 1.943306-2.8366642 5.9304466-5.6328125 6.9130859-.3167858.1113052-.3393478.5520439-.0332031.6943359 3.9012318 1.8013268 8.6826286.5429535 11.105957-3.2250977 1.3232994 1.8037682 3.1740513 2.8458061 5.1607666 3.1535645-.0915661 1.1616707.0293007 1.9554482.2742939 2.666748-.3194599.7961426-.6116962 1.6035156-.8662128 2.4194336-.1621094.5214844-.3154297 1.0791016-.2382813 1.6533203.1039104.7742538.6753235 1.4697266 1.4834003 1.4697266 1.2690125 0 2.3064766-1.7643852 2.7349854-2.9101563 2.8854027 6.616169 2.6361732 6.3943748 2.9094238 6.5212402l.1567383 5.286869c-1.6972046.0565491-3.9025612.8567123-3.6009521 2.503418.1582527.8724136.940773 1.2643204 1.8115234 1.4326172 1.2174568.2372665 2.447052.2386322 3.6699219.0019531 2.7012482-.5249405 1.7460785-3.2149277.1425781-3.6855469-.4180908-.1240234-.8443604-.1894531-1.2716064-.2258301l-.1618652-5.4567909c.2214355-.0837402.5019531-.2155762.8618164-.4157715.5006409.9456215 1.8078537 3.1138802 2.7738037 3.5837402 1.0732803.5513725 2.1516495-.1264305 2.0849609-1.3828125-.0490494-.6304169-.3450966-1.1597328-1.21875-3.140625l-.505249-1.1411133c1.2682228-.9225197 2.8644371-2.1460648 4.1801758-3.2116699.0290527.0605469.0683594.1164551.1287842.1555176l1.3719482.8852539.3044434 10.4650917c-3.4453163.3546371-3.8627586 2.6180649-2.4176025 3.5217285 1.0239563.6432877 3.3645363.6403809 4.7265625.375 2.7011147-.5238571 1.7511215-3.2113037.1435547-3.6855469-.5592041-.1655273-1.1322021-.2314453-1.7027588-.2412109l-.2891846-9.9414101c1.0785065.6959801 1.4799156 1.0021667 2.0388184 1.1308594.5183716.1181602 1.0807076.0080109 1.4355469-.3701172.3378906-.3623047.4384766-.9248047.2617188-1.46875-.2375755-.733593-1.0535698-1.4920807-1.6768799-2.0864258 1.4918289-.1176529 2.7326508-.0692673 3.6602783-1.4848633 1.1784706-1.828968.5538788-4.0590096-.0576172-5.9960938-1.1903801-3.7595787-2.7097168-8.5186768-3.9002686-12.2514648.8577881-1.4448242 1.5881348-2.9970703 1.164917-4.5629883-.131752-.4799461-.8532982-.2820015-.7246094.1953125.2987061 1.1040039-.1378174 2.2692871-.7503662 3.3955078l-.1304932-.4091797c-.3843384-1.1806545-.8613968-2.2195358-1.3310547-3.4003906-.7608757-1.7972126-2.2306633-2.2757301-4.1228027-2.2858887-.005249-.2458496-.0186768-.4914551-.045166-.7355957-.0054932-.0498047-.0336914-.090332-.0570068-.1325684 2.9616165-.8245735 5.6239891-3.225771 6.4732666-6.541748 1.5288696-.2007809 2.3381653-1.7037277 1.7185059-2.8754883-.3057861-.5808105-.9417725-.9101563-1.567749-.8691406-.1243248-.7490921-.0527191-1.5281649-.4846191-2.8742676 2.2997971 1.3266058 3.0717773 3.9150171 4.90979 5.6010742.9599607.8898926 2.2999266 1.5100098 3.5799559 1.2500001zm-18.7557373 49.1423378c-.6084595.7814789-4.2123489.7296524-5.1181641.1621094-.5135841-.3235397-.5502663-.8687286-.1757813-1.2890625.5392189-.6077957 2.4733734-1.2418137 4.4355469-.6679688.6542015.1930695 1.3377838 1.1793442.8583985 1.7949219zm11.0009765.3261718c-.2050781.2636719-.5869141.3681641-.9335938.4355469-1.1230469.2167969-2.2617188.21875-3.3847656-.0019531-.2763672-.0537109-.5654297-.1240234-.8007813-.2714844-.625206-.3928299-.6716766-1.2532272.5898438-1.7802734 1.1250534-.4677811 2.4621658-.531311 3.6699219-.1767578.4013672.118164 1.341137 1.1790237.859375 1.7949218zm-16.9013672-36.0488319c-.5625-1.21875.3164063-2.7197266 1.4550781-3.4111328 2.2917519-1.394886 5.6619835-.751833 7.9287109-2.6503906.0006104 1.0231934-.2183838 2.041748-.5941162 2.996582-.6139336-.8562317-1.755127-.3293304-1.755127.730957 0 .5415039.3269043.9755859.7597656 1.1025391-1.9217491 2.5854607-4.4790688 2.9581299-4.6779785 3.0893555-.9025879-.7512207-1.9589844-1.2844238-3.1044922-1.5751953.0317384-.0888672.031006-.1899415-.0118407-.2827149zm3.0080567 2.7729492c-2.1008301 1.0141602-4.0142822 1.7927246-5.973877 1.4868164-1.2978535-.2041016-2.5078144-.9140625-3.3183613-1.9501953-.0151367-.0195313-.0413818-.0200195-.0594482-.0356445 2.8479805-2.1904679 6.8063755-1.9384728 9.3516865.4990234zm-9.9083271-.027832c1.4082031 2.934082.9331055 6.6447754-1.1315918 9.1564941-.6865234-1.0622559-1.0686035-2.2731934-1.1309814-3.5292969.0426025-.1032715.0413818-.2180176-.0097656-.315918-.0131093-2.1186217.8520907-3.9827766 2.2723388-5.3112792zm-2.0811768 9.4951172c-1.9175529 3.03825-5.7504539 4.5537949-9.4199219 3.3085938 2.5673428-1.5637436 2.9772243-4.9141808 5.0605469-6.6621094.9134521-.7763672 2.434082-1.140625 3.4293213-.4758301.0646973 1.3034668.4472656 2.5605469 1.1229248 3.6813965-.0762939.0273437-.1463623.0737304-.1928711.1479492zm1.4118652.2929687c1.9980469-2.3212891 2.7017822-5.6550293 1.9084473-8.5986328 2.9539089 2.1245422 6.1558628.9017067 9.2081318-.5876465 1.3467484 1.6022873 1.8895226 3.5478706 1.6629639 5.4919434-.7356186 6.320507-8.7761288 8.6411171-12.779543 3.6943359zm16.3891621.3339844c.3947868-.9060783.4859123-1.856739.3983154-2.3757324.5949364-.1795921 1.5226288-.4770241 2.1239014-.3742676.3339844.0673828.7226563.2998047.7851563.6494141.0849609.4697266-.4296875.9296875-.7392578 1.1591797-.7166748.513916-1.5506592.8740234-2.4141846 1.0495605zm-.3724365-2.3879395c.0041504.005127.0098877.0080566.0142822.0129395.130127.2251358.0285797 1.6601181-.6157227 2.6386719-.3329506.5071297-.8839569.9960403-1.4638672.8115234-1.1067963-.3431664-.7584038-2.2979088 1.0595703-3.1445313.7580567-.3520507.9757081-.3203124 1.0057374-.3186035zm-9.383667 6.7053223c-.4990234-.8095703-.4667969-1.1123047-.3818359-1.2539063.5087662-.2424316 1.567337.0035172 2.1152344.2050781h.0009766c.3398438.125.7773438.3535156.9326172.7304688.1425781.3496094-.0039063.8212891-.3320313 1.0751953-.614544.4732895-1.6862603.2921296-2.334961-.7568359zm-1.5430908-1.2539062c.119751.0068359.2397461.0117188.3603516.0131836-.0228271.1738281-.0148926.362793.046875.581543-.1330566.276123-.246582.5627441-.3718262.8432617-.0292359-.230114-.1029854-.5422364-.0354004-1.4379883zm.9649658 6.6816406c-.1953125.2412109-.7099609.78125-1.1923828.6806641-.3359394-.078125-.5585957-.4628906-.6035175-.8037109-.1356049-.9952011 1.2382298-4.1398048 1.6560078-5.0546875.1147881.1956711.1930389.361496.5272217.7026367l.8444824 1.9694824c-.1366807.2635078-.2657014 1.2996444-1.2318116 2.5056152zm9.1503906 3.8623047c.8648453 1.9571266 1.1205635 2.4332123 1.15625 2.8867188.0332336.6369781-.4023972.9683571-1.0019531.6621094-.7524834-.3654137-2.0241814-2.4592896-2.4642334-3.293457.5026855-.3110352 1.1169434-.7202148 1.8679199-1.2531738zm-4.1907959.4226074c-.0002441 0-.0004883-.0002441-.0007324-.0002441l-3.4561768-8.0615234c2.3395615.6966057 3.8715172-2.44524.9625244-3.4394531 2.0398064-.8052063 3.5077667-2.2589188 4.3408203-4.0927734l.2259521.1577148c-1.7162895 2.4622993 1.2166443 4.7238388 2.9553223 2.0820313.0003662-.0007324.0006104-.0014648.0010986-.0021973l6.4539795 4.5373535c-.7420653 1.3278808-9.9714354 8.41333-11.482788 8.8190917zm13.84021-4.0202637c.1938934.5995445-.1769218 1.0204582-.8173828.8759766-.4098473-.0951653-.4827728-.1812439-3.90979-2.3930664.7382813-.6108398 1.3034668-1.1088867 1.7438965-1.5234375.8825684.6447754 1.704834 1.3757324 2.430542 2.199707.2246093.2548828.4521483.5302735.5527343.8408203zm2.5878906-6.8037109c.1038132 1.167923-.1366653 2.4322777-1.0537109 3.1787109-.5962334.4501953-1.1757774.4854889-3.2733154.6152344-.2304688-.192627-.4643555-.3806152-.7053223-.5595703.8222656-.8510742.920166-1.2084961.8604736-1.4033203.0029488-.3686638-.0376511-.1497231-5.9171143-4.3591309.7282715-.223877 1.4238281-.567627 2.0450439-1.0129395 1.7385826-1.2882423 1.1133118-2.8574715-.3466797-3.1513672-.6278534-.1100044-1.2539291.0519753-1.8560791.2124023 2.1647949-2.4526367 4.1348877-5.1120605 5.8751221-7.9355469 4.306347 13.3593942 4.2769776 13.395096 4.3715821 14.4155275zm-5.9033203-18.7382813c.9980125 2.4029541.8951721 2.4168396 1.2340088 3.388916-1.9475098 3.2385254-4.1992188 6.2717285-6.7033691 9.0205078-.6554031-.0555344-1.6861191.4678383-2.2756348.9597168-.0316734.0124664.1143036-.0456657-.3085938.121582l-.3410645-.2387695c.9560699-2.8027611.3273582-5.9206047-1.8328857-8.1523438 1.2456055-.3581543 2.4107666-1.0002441 3.3897705-1.8552246 0 .005127-.0024414.0092773-.0024414.0144043 0 .6396484.4468994 1.1582031.9981689 1.1582031s.9981689-.5185547.9981689-1.1582031c0-.6054688-.4049072-1.0874023-.9152832-1.1386719 1.175827-1.4710789 1.7881355-3.2084675 1.9007568-4.9477539 2.68145.0069276 3.0507394.8743688 3.8583986 2.8276368zm-16.5335693-21.0246582c-.4870243.9281759-.2109299 2.3654642-1.0500507 3.380127-.2936611.3771992-.902914-.0827255-.5799561-.4799805.6451225-.7703848.4216232-2.1945171.960083-3.2299805.6270275-1.2545629 2.1132298-1.4206715 2.0798359-.7202144-.0198975.2099609-.1999512.3601074-.3999023.3500977-.4299317-.0100097-.8300782.3398433-1.0100098.6999507zm.927124 10.4162598c-.7045135-.5962811-.3730698-1.832943.6661377-1.8745117.1489258.7019043.331665 1.3662109.5493164 1.9882813-.3763428.2065429-.8894043.1647949-1.2154541-.1137696zm18.3216553-1.1804199c.114502-.729248.1257324-1.470459.0628662-2.2058105 1.1295814-.011222 1.3523178 1.7618942-.0628662 2.2058105zm2.4111328-4.9458008c-.2999268-.4001465-.6899414-.7399902-1.119873-.9899902-.4258995-.2367697-.0649529-.891798.369873-.6499023.5200195.2998047.9901123.7099609 1.3500977 1.1899414.2960624.3869666-.2771531.8526496-.6000977.4499511z"/><path d="m32.2597961 41.4122276c-.2806549-.3542862-.7837849-.3398399-1.0747089-.1098633-.628767.4983788-.1103039 1.5104141.6674805 1.2763672.5477581-.1287307.7279148-.7619133.4072284-1.1665039z"/><path d="m32.9794006 44.7205772c1.8751793.5945702 3.91259-.5809631 4.2880859-2.5654297.0931129-.4842033-.6441345-.6303749-.7363281-.1386719-.2880669 1.5169983-1.8460197 2.4525032-3.3271484 1.9892578-.4711876-.1500281-.6993141.567524-.2246094.7148438z"/><path d="m35.7678528 39.7000694c.6289673-.498539.1101913-1.5103798-.6674805-1.2763672-.54776.1287308-.7279167.7619171-.4072266 1.1665039.2820435.356041.786789.3382645 1.0747071.1098633z"/><circle cx="40.452" cy="16.079" r="1.144"/><path d="m46.4378967 15.9598351c0-.6318359-.512085-1.144043-1.1439209-1.144043s-1.144043.512207-1.144043 1.144043.512207 1.144043 1.144043 1.144043 1.1439209-.5122071 1.1439209-1.144043z"/><path d="m40.6034241 19.8406944c-.3325615-.3653488-.889904.1378269-.5546875.5058594 1.6567764 1.8175697 4.4464493 2.0952854 6.4326172.6132813.3929672-.2935696-.0423431-.8966084-.4492188-.6015625-1.6462669 1.2286491-4.0029869 1.0471916-5.4287109-.5175782z"/></g></svg>