<svg id="Layer_1" enable-background="new 0 0 75 75" viewBox="0 0 75 75" xmlns="http://www.w3.org/2000/svg"><g id="Girl_Finding" fill="rgb(0,0,0)"><path d="m7.5187416 12.8803654c-.7199707 1.1900024-.7199707 2.9099731.3300781 3.8299561.8398438.7300415 2.119873.7600098 3.1599121.3500366 1.0400391-.4000244 1.9000244-1.1600342 2.7299805-1.9000244-.8299561.9299927-1.6799316 1.9199829-1.9599609 3.1400146-.2700195 1.2199707.2700195 2.7199707 1.4699707 3.0700073 1.2013512.3580799 2.3633423-.5253544 3.3300781-1.1400146-.3114929 1.3431187-.4425049 3.0736427-.2480469 4.6625366-.6870117.2203369-1.263916.7537842-1.4844971 1.4470215-.5487814 1.7247429 1.0863924 3.4112511 2.8736572 2.8104248 4.1996689 7.6848927 14.2094994 8.2537212 20.1943359 2.5196533 3.7919006 1.2929974 7.6054726-1.9970703 7.5444336-6.5096436-.0402832-2.9971924-1.7915039-5.5093994-4.1762695-6.338501-.5064163-1.7001266-1.0446663-2.4709682-1.463623-3.3414917-1.9499283-4.0765953-7.9777946-6.9085436-14.1201172-5.1400146-.3798828-1.0599976-1.25-1.9199829-2.4499512-2.1599731-1.7299805-.3400264-3.6099854.8800049-4 2.5899658-1.4450684-2.634347-4.7444448-5.4644084-7.5899658-5.2099605-1.2200927.1199951-2.4300537.9199829-2.7399902 2.1099854-.3100586 1.190002.5799561 2.6199946 1.8099365 2.6400142-1.25.6099853-2.5 1.3800048-3.2099609 2.5700073zm8.9353027 12.750122c.1517925.8180771.338377 1.5961895.9171143 2.8339844-1.2163811.3025608-2.6542006-2.1276817-.9171143-2.8339844zm25.557251-3.722229c1.426384 1.3915138 1.3632698 3.3778763 1.3427734 3.277832.0195313 1.2646484-.4404297 2.4741211-1.2607422 3.3183594-2.4171333 2.4902744-6.2429237.4739513-6.2998047-3.21875-.041767-3.6732616 3.729313-5.8020038 6.2177735-3.3774414zm-16.0626221-5.5878906c.4001465.9899902.3901367 2.1399536-.0299072 3.1300049 1.7999268-.1000366 3.3399658-1.8500366 3.2199707-3.6500244 1.5300293 1.0800171 2 3.4199829.9899902 5 1.1700439-.0800171 2.2700195-.7700195 2.8599854-1.7700195.5900879-1.0100098.6500244-2.3099976.1500244-3.3699951 2.3115082 2.0601788 5.8265266 2.3123169 6.7399902 1.5879517.2095947.4493408.3922119.9046021.5452881 1.3603516-3.7391777-.6241913-6.7789116 2.7318058-6.7253418 6.7017212.036377 2.6901855 1.4533691 4.9846191 3.4671631 6.031189-1.4779053 1.3496113-3.2683105 2.3635273-5.2092285 2.9177876-8.2859516 2.3594627-15.7450428-3.9494495-14.9018555-12.1518574 1.4533043-1.8147793 3.8584213-2.0019913 5.8739014-2.8171387 1.3601074-.549988 2.6900635-1.5299684 3.0200195-2.9699709zm-8.9899902.5199585c1.3601074-2.3399658 3.3100586-4.289978 5.6500244-5.6399536.4069424-.2487183.813509.3695717.3800049.6499634-2.2299805 1.289978-4.0899658 3.1400146-5.3800049 5.3699951-.2590942.4074058-.8903389.0526504-.6500244-.3800049z"/><path d="m27.7566566 26.8887882c.4993896-.0065308.8966064-.5974121.887085-1.3198242-.0093994-.7223511-.421875-1.3026123-.9213867-1.2960815-.4993896.0065308-.8964844.5974121-.887085 1.3198242.0093994.7223511.4219971 1.3026123.9213867 1.2960815z"/><path d="m40.5679359 41.9273033c-1.0224609.7441406-2.4599609.4008789-3.3652344-.2348633-1.0195313-.7070313-1.7109375-1.8354492-2.3876953-3.0273438-.2467308-.4306183-.8977165-.0610352-.6523438.3701172 1.1679878 2.0590134 2.5728912 4.0595703 5.0429688 4.0595703 2.3015022 0 3.4739914-2.1681137 3.0097656-4.3842773-.2164307-.9891968-.7017822-1.8589478-1.1722412-2.5982666.5779457-1.2232552-.5003471-2.515152-1.6138916-2.7357178-.005127-.0012817-.0111084-.0010376-.0163574-.0023193l.2558594-1.263855c-.0810661-.0062447-1.4801025-.1783791-1.4801025-.2600117-.0572319.3324337-.3631973 2.0932255-.3654785 2.1059589-.2517967.3493271-.3128586.6454811-.1925049 1.1056519-.8002548 4.6005402-.8675575 4.6016693-.7119141 4.7683716.0599365.0599976.1400146.0800171.2199707.1000366.8886375.1267624.8863258.2168732.9699707.0599976.1199951-.210022.0899658-.5.1300049-.7299805l.552002-2.7423706c.5575829.3578606 1.1948433.5672874 1.7524414.2093506.3902588.6342773.7678223 1.3554077.9388428 2.1398926.2158203 1.0302735.0166015 2.3759766-.9140626 3.0600586zm-.7822265-5.7792969c-.966507-.2576256-1.5357475-1.0860825-1.4589844-1.5576172.0868187-.4562569.7204056-.7485657 1.4960938-.2333984.6435432.4530716.6070938.9455376.640625 1.0483398.0163993.3884698-.266037.857277-.6777344.7426758z"/><path d="m7.0357094 49.6846275c1.1451187 0 2.0578079-.8802299 2.7513428-1.7838745 1.8861446 2.6295013 9.1400852 3.6032906 12.6431885 3.4039917.9560547-.0561523 1.9375-.1982422 2.6289063-.8452148.4364929-.3900032.0997353.1240005 6.7509766-11.1367188.2900391-.4970703.5898438-1.0102539.6865234-1.5927734.1490784-.7829437-.1425247-1.514122-.6425781-1.8891602-.703125-.53125-1.6367188-.375-2.3847656-.2504883-2.9730988.4747849-5.456522.0753593-5.3427734.0878906-2.743845-.3022881-2.17523-.6707458-3.1699219-1.0136719-1.4757423-.4861412-2.8553791 1.0425568-3.7363281 1.7460938-.6728516.5527344-1.3408203 1.1289063-1.9833984 1.7119141-.3663902.33255.1350336.8892937.5039063.5556641 1.284668-1.1649132 1.7812576-1.526001 2.4160156-2.078125 2.4817371-2.1487465 2.5334091-1.0618706 3.6923828-.5976563 1.1741428.4308472 4.5739803.8337898 7.7412109.328125.6396484-.1079102 1.3642578-.2285156 1.7900391.0825195.0696163.1009407.52775.4002762.3779297 1.1855469-.1182175.7146721-.1931419.629673-6.6015625 11.4897461-.5588036.9368134-.9253883 1.359066-2.7695313 1.4672852-3.1366043.1797295-6.5385885-.305584-9.6816406-1.5546875-.8287354-.3253174-1.9537354-.8618164-2.4549561-1.7744751.342721-.5547371 1.0858412-1.9569855.9156494-2.5848389l11.5568848-5.6040649c.1855469-.090332.2636719-.3144531.1738281-.5009766-.0917969-.1870117-.3173828-.2651367-.5019531-.1738281l-11.5992432 5.6245728c.8942795-1.2837791 2.7797594-3.2543526 3.9107666-4.3247681.3614101-.3426361-.1561022-.8834343-.515625-.5449219-1.1450424 1.0837746-3.5150394 3.5149002-4.3482666 4.9675903-.1016016.03265-2.2658467.1747398-3.9359131 2.0968628-1.548938 1.7829552-.5971071 3.5024414 1.1289061 3.5024414zm2.5351562-4.7963867c.163908.054966.2564383-.0086555.4267578-.065918.2094393-.0237999.2953291-.0209389.3632813-.0449219.1225023.0379753.1170101.0921288.0478516.3168945-.4241409 1.4109039-1.7214384 3.5374756-3.1074219 3.8149414-.5039063.1000977-1.1523438-.0888672-1.359375-.5805664-.2744141-.6518555.3369141-1.4311523.53125-1.6542969.8017578-.9233397 1.9042969-1.5532225 3.0976562-1.7861327z"/><path d="m23.4400063 67.7925339c1.2683315.4213486 3.7083282.6825104 4.5029297-.3808594.53125-.7138672.2109375-1.7387695-.421875-2.2475586-.6425781-.515625-1.4912109-.5922852-2.0742188-.6049805-.9581299-.0180054-2.0794678.0518188-2.829834.3912964l-.4367676-3.043148c-.0714989-.5004921-.8115959-.3794136-.7421875.1064453l.4986572 3.4746666c-.4037685.648613-.0664977 1.7820206 1.503296 2.3041382zm1.9912109-2.4833985c.7519531.0161133 1.2666016.15625 1.6191406.4399414.3535156.2836914.5527344.8632813.2910156 1.2143555-.5966091.8013611-4.0935879.4441071-4.6787109-.5439453-.1357422-.2294922-.1699219-.4072266-.0996094-.5273438.3245201-.5557785 2.2237034-.5965728 2.8681641-.5830078z"/><path d="m13.8130531 67.8804245c.5080824.9684372 2.0948763 1.5751953 3.3193359 1.5751953 2.5951862 0 3.0437317-2.0283508 1.0771484-2.9414063-.2746582-.1287231-1.661377-.5212402-2.8438721-.5123901l-.1522217-3.2888756c-.0242882-.5136833-.7705965-.4499931-.75.0351563l.1540527 3.3274498c-.3121338.0681152-.5797119.1855469-.7614746.3756714-.2333983.2426758-.4287108.6879883-.0429686 1.4291992zm1.2128907-1.1054688c.0296631-.0013428.055542-.0129395.0828857-.0206909.8757992-.0560837 2.3209419.223587 2.7833252.4396362h.0009766c2.2433224 1.0480194-.7207699 2.2968216-2.8623047.8862305-.2783203-.1831055-.453125-.3569336-.5527344-.5463867-.2987509-.5740662-.0908585-.6843567.5478516-.7587891z"/><path d="m59.84235 41.8872643c-.9882813-.6259766-2.3154297-.5537109-3.2255859.1738281-1.2981071 1.0390587-1.4646225 2.9538231-2.3808594 4.0927734-.3466797.4296875-.9716797.8745117-1.6025391.7285156-.484024-.1134796-.6562767.6147346-.1738281.7294922.902153.2165146 1.7951241-.2846451 2.3603516-.9882813.5014267-.6232986.7909012-1.3854637 1.1171875-2.1831055.2822266-.6801758.6171875-1.3686523 1.1484375-1.793457.6660156-.5332031 1.6347656-.5830078 2.3564453-.1259766.7226563.4584961 1.1621094 1.434082 1.0419922 2.3208008-.0652428.4893112.678009.5956039.7441406.0996094.1582031-1.1811523-.4111328-2.4370116-1.3857422-3.0541991z"/><path d="m57.0523109 43.8765221c-.0507813 1.9243164-1.0195313 3.7675781-2.5273438 4.8105469-.4100761.283535.0210152.8992958.4257813.6171875 1.7021484-1.1767578 2.7949219-3.2490234 2.8515625-5.4082031.0119706-.5076333-.7364807-.4960977-.75-.0195313z"/><path d="m58.6919594 43.8726158c.2646484 1.5273438-.2441406 3.1948242-1.2988281 4.2485352-.3500366.3523827.1807251.8807945.53125.5302734 1.2392578-1.2397461 1.8164063-3.1201172 1.5058594-4.9067383-.0825539-.4906044-.8249055-.3602142-.7382813.1279297z"/><path d="m58.3588295 39.1523399c.0079346.6029053.5031738 1.0853271 1.1060791 1.0773926.6029053-.0078735 1.0853271-.5030518 1.0773926-1.1060181-.0079346-.6029053-.5030518-1.0852661-1.1060791-1.0773926-.6027832.0079346-1.0852051.5031129-1.0773926 1.1060181z"/><path d="m63.3443031 55.6904869c.4826431 0 .5028381-.7233505.0205078-.7495117-.1005516-.0053596-2.0833817-.1109505-1.9588623-.1043091l-2.5762939-3.9186401c-.2732277-.4133492-.8990479-.003067-.6269531.4121094l2.6915283 4.093689.3807373 1.5484009c.1179314.4813194.8480949.3031273.7285156-.1787109l-.2930908-1.1918945 1.6134033.0883789c.006836.0004881.0136719.0004881.0205078.0004881z"/><path d="m55.9800453 32.9468346c-.1708984-.1152344-.4042969-.0678711-.5195313.1049805-.1142578.1723633-.0673828.4052734.1054688.5200195.7797852.5182495 1.4289551 1.2129517 1.9135742 2.0110474-4.0790215 1.7174797-4.5221596 7.3962173-6.887207 10.4186401-2.0010033 2.5549202-3.7290955 1.5863762-4.6734619 1.600708-.0349274-.7720451-.4738197-1.8456345-1.2181396-2.5933838-1.0420952-1.0506592-2.2279778-1.0359154-2.9130859-.4130859-.6123047.5585938-.7294922 1.6289063-.265625 2.4370117.3759766.652832 1.0810547 1.125 1.9345703 1.2954102.5603714.1127663 1.1751671.0936012 1.7467041.0432129.1402321.6676865 1.0354195 1.1947784 2.1878662 1.8205566 2.4131241 1.4187698 5.1938057 1.92416 7.7164307 1.5088501-.2218895.326107-.011776.2434464 2.0657959 5.4755249.0274658.0668945.0750732.117981.1295166.1574707-.0603828.1261406-.0167847.029213-.2388916 1.7473145-.0607567.49189.683342.5845108.7441406.0917969l.1795654-1.460083c1.742424.4515991 1.7493973.4713135 1.8497314.4713135.4383163 0 .5179596-.6273422.0947266-.737793l-2.0623779-.5394897c-.0019531-.005188-.0009766-.0105591-.0030518-.015686-2.2302246-5.3322754-2.0465851-5.1711693-2.2689209-5.3013916 4.744133-1.0023918 8.4745674-5.0867844 9.1433067-9.3500977.3361511.2534676.5660324.2799072 3.2808838 1.2476807.3549576.1267662.6514664-.2949905.4179688-.5874023l-2.1826172-2.7421875c.4510727-1.5129204.3869858-1.396595.6025391-1.9824219.1445313-.3969727.2949219-.8071289.3115234-1.2475586.0104523-.2851677-.2897797-.4788628-.5478516-.3466797-.5625305.2917633-1.0383453.7660294-1.5117188 1.1293945l-.8673096.6630249c-.5576134-1.1787109-1.4936485-2.1755371-2.6287804-2.7074585-.4953613-.2320557-1.0300293-.3519287-1.5708008-.4152222.2941895-.536377.8624268-.9365845 1.4692383-.9754028.4934464-.0302582.4510956-.7800293-.046875-.7480469-.9919434.0628662-1.9051514.7543945-2.24646 1.6868896-.0445557.0018921-.088501.0087891-.1329346.0118408l-.0512695-2.0791016c-.0117798-.4995346-.7616501-.4753799-.75.0185547l.0529785 2.1497803c-.0419922.0091553-.0810547.0279541-.1228027.038208-.5484618-.9604493-1.3126219-1.7930909-2.2368163-2.4067383zm-13.8076172 13.711914c-.2861328-.4975586-.2304688-1.1884766.1210938-1.5087891.9657326-.8800201 2.7479248.8080025 2.8759766 2.4726563-.4676133.0467606-2.4244233.0319977-2.9970704-.9638672zm24.0312462-8.8725586c-.0427933.1120338-.1705093.4599533-.2314453.6674805-.407608 1.5744896-.632576 1.7534752-.4228516 2.019043l1.4912109 1.8725586c-3.0240555-1.0690804-1.3870239-.1973228-2.1982422-2.668457-.0917969-.2749023-.171875-.4794922-.2421875-.6318359.8607179-.6650086 1.5390626-1.2065431 1.6035157-1.2587892zm-2.4179649 1.3666993c1.8680077 5.3323441-5.0259209 14.1827621-13.7021484 11.4238281-1.4258308-.4533615-2.3058929-1.0401764-2.609375-1.1987305-.3974609-.2207031-1.1738281-.6513672-1.4589844-1.0239258 1.026371.067524 2.9906311.8907661 5.1669922-1.8901367 2.4300423-3.1027946 2.8704185-8.5715065 6.5332031-10.1733398 2.3651085-1.0352517 5.1478157.2336082 6.0703125 2.8623047z"/><path d="m9.8521156 35.1514244c-.4793215-.1204224-.6653118.6054497-.1835938.7270508 1.3134766.3330078 2.4589844 1.3139648 2.9882813 2.5605469.1931334.456356.8834715.1628571.6894531-.2929688-.618164-1.4580078-1.9580078-2.6054687-3.4941406-2.9946289z"/><path d="m14.1987953 36.7012291-1.3603516-3.9306641c-.1605463-.4676781-.8710918-.2259369-.7089844.2451172l1.3603516 3.9306641c.162344.4693222.8702937.2236137.7089844-.2451172z"/><path d="m69.6987915 57.6294518c-2.7518005-1.7597466-6.6414948.0614433-6.6796837 3.6640625-2.2560844-1.3668709-5.0766792.2884789-4.8671875 2.9946251-1.4423828-.8559532-3.2998047-1.0039024-4.8427734-.3164024-1.8867188.8422813-3.1582031 2.8735313-3.0908203 4.938961.0068359.203125.1728516.362793.375.362793h.0126953c.2070313-.0068359.3691406-.1801758.3623047-.387207-.0576172-1.769043 1.0302734-3.5083008 2.6464844-4.2299805 1.6201172-.7192345 3.6386719-.3691406 4.9169922.8549805.3002052.289093.7823334-.0615005.5957031-.4370117-.5234375-1.0571289-.1308594-2.4936485.8564453-3.1372032.9912109-.6450195 2.4609375-.4208984 3.2167969.4853516.2496033.3010559.7423019.0617447.6533203-.3242188-.3203125-1.3862305.2685509-2.9272461 1.4306602-3.7470703 1.1630859-.8188477 2.8105469-.8574219 4.0097656-.0898438.4194947.2663077.8212128-.3651544.4042969-.631836z"/><path d="m64.2944946 66.3628464c.3916016-1.0336914 1.3916016-1.8261719 2.4882813-1.972168.4913025-.065506.3949661-.8119125-.0996094-.7431602-1.3613281.1811523-2.6035156 1.1655235-3.0898399 2.4497032-.0732422.1933594.0244141.4101563.2177734.4833984.1940422.0733109.4102898-.0242844.4833946-.2177734z"/><path d="m39.9979897 26.7284489c.4995117-.0065308.8967285-.5974121.887207-1.3197632s-.4219971-1.3026733-.9213867-1.2961426c-.4995117.0065308-.8966064.5974731-.887207 1.3198242.0095214.7223511.421997 1.3026734.9213867 1.2960816z"/><path d="m25.3833656 52.7979088c-.1506901-.5588112-.4296379-.7758789-1.1416016-.7758789-4.3105297.0141792-7.3724251.9702644-12.2216797-1.0292969-.9513149-.3926964-1.7315054-1.2224236-2.453125-.7441406-.8352766.5532646-.5603952 2.392643-.5351563 3.2949219.1658764 5.6847153.1839628 5.1008759.1572266 5.8017578-.0146484.4111328-.0322266.8769531.0751953 1.265625.1630859.5986328.6435547.6918945.9951172.7602539 2.0633297.3979492 4.5689144.2911987 4.6689453.2939453.4833984-.0092773 1.1464844-.0219727 1.5214844-.4375.4898682-.5427971.144619-1.1023712-.0244141-4.1181641.1374016-.2944336.676054-.3417435.9785156-.1411133.9196682.6169777.6628437 2.2346535 1.5429688 3.2675781.7080078.831543 1.9365234 1.0976563 3.6523438.7895508.5859375-.1049805 1.3525391-.2587891 2.0888672-.5170898 2.2001953-.7695313 2.1416016-1.0522461 2.0976563-1.2299805-.0012169-.0843773-.9946404-4.9883041-1.4023438-6.4804687zm-.9433593 7.0024414c-.6865234.2412109-1.4150391.3867188-1.9736328.4868164-4.530695.8076172-2.7058258-2.6461334-4.6464844-3.9418945-.3945313-.2631836-.9414063-.3237305-1.3994141-.1538086-.5133801.1916885-.7662287.6437798-.7490234.9018555.2099428 3.1559639.3760719 3.4611893.2216797 3.6318359-.1477137.1637688-.5475101.1820145-1.1474609.1938477-1.6607943.0567856-3.4294605-.1071472-4.34375-.2841797-.3632813-.0708008-.3798828-.09375-.4150391-.222168-.0761719-.2783203-.0625-.6650391-.0478516-1.0390625.0266399-.770668.0179272.1845856-.1572266-5.8535156-.0106144-.2795143-.2420187-2.6645508.2734375-2.6645508.2493486 0 1.0600805.5760078 1.6796875.8305664 5.0502815 2.0833664 8.384058 1.0923195 12.4833984 1.0859375.4199409-.0036545.3870735.0240326.4423828.2231445.2855759 1.0467834 1.3360176 6.0417175 1.3554688 6.1435547-.328125.1831055-1.2109375.5341797-1.5761718.6616211z"/><path d="m28.7818031 30.2559147c.9025555.3931103 1.9441547.4100342 2.859375.0439453.4561615-.1829262.1885662-.8767853-.2792969-.6962891-.71875.2866211-1.5722656.2744141-2.2792969-.0351563-.1894531-.0830078-.4111328.0043945-.4941406.1938477-.0830078.1899415.0039063.4106446.1933594.4936524z"/></g></svg>