<svg id="Layer_1" height="512" viewBox="0 0 512 512" width="512" xmlns="http://www.w3.org/2000/svg"><g><path d="m312.8 351-11.5-11.6-23.1 23.1h-13.9v-13.9l23-23.1-11.5-11.6-11.5 11.5v-12h-16.4v12l-11.5-11.5-11.6 11.6 23.1 23.1v13.9h-13.9l-23.1-23.1-11.6 11.6 11.5 11.5h-12.1v16.4h12.1l-11.5 11.5 11.6 11.6 23.1-23.1h13.9v13.9l-23.1 23.1 11.6 11.6 11.5-11.5v12.1h16.4v-12.1l11.5 11.5 11.5-11.6-23-23.1v-13.9h13.9l23.1 23.1 11.5-11.6-11.5-11.5h12.1v-16.4h-12.1z"/><path d="m165.3 432.9-11.6-11.5-23.1 23.1h-13.9v-14l23.1-23-11.6-11.6-11.5 11.5v-12.1h-16.4v12.1l-11.5-11.5-11.6 11.6 23.1 23v14h-13.9l-23.1-23.1-11.6 11.5 11.6 11.6h-12.1v16.3h12.1l-11.6 11.5 11.6 11.6 23.1-23.1h13.9v13.9l-23.1 23.1 11.6 11.6 11.5-11.5v12.1h16.4v-12.1l11.5 11.5 11.6-11.6-23.1-23.1v-13.9h13.9l23.1 23.1 11.6-11.6-11.5-11.5h12.1v-16.3h-12.1z"/><path d="m460.4 432.9-11.6-11.5-23.1 23.1h-13.9v-14l23.1-23-11.6-11.6-11.5 11.5v-12.1h-16.4v12.1l-11.5-11.5-11.6 11.6 23.1 23v14h-13.9l-23.1-23.1-11.6 11.5 11.5 11.6h-12.1v16.3h12.1l-11.5 11.5 11.6 11.6 23.1-23.1h13.9v13.9l-23.1 23.1 11.6 11.6 11.5-11.5v12.1h16.4v-12.1l11.5 11.5 11.6-11.6-23.1-23.1v-13.9h13.9l23.1 23.1 11.6-11.6-11.5-11.5h12v-16.3h-12z"/><path d="m459 141.7c-12.4-36-44.7-61.8-82.5-66.1-23.2-44.9-70-73.6-120.5-73.6-43 0-83.5 20.5-109.1 55.1-45.1 4.1-82 38.8-89 83.3-32.3 7.4-55.9 36.4-55.9 70 0 39.6 32.3 71.9 71.9 71.9h26.5c17 17.4 40.3 27.3 64.5 27.3 24.3 0 47.6-9.9 64.5-27.3h208.6c39.7 0 71.9-32.3 71.9-71.9.1-32-20.6-59.6-50.9-68.7zm-20.9 124.3h-215.9s-21.9 27.3-57.3 27.3c-36.7 0-57.3-27.3-57.3-27.3h-33.7c-30.6 0-55.5-24.9-55.5-55.5 0-27.6 20.6-51.2 48-54.9l6.5-.9.6-6.5c3.7-40.7 37.4-72.9 78.3-74.9l4-.2 2.3-3.3c22.3-32.1 59-51.3 98-51.3 45.8 0 88.1 26.9 107.8 68.4l2.1 4.4 4.8.3c34.6 2.2 64.3 26 74.1 59.3l1.3 4.6 4.7 1.1c25.3 5.9 42.9 28.1 42.9 54-.2 30.4-25.1 55.4-55.7 55.4z"/><path d="m92.1 149.4h16.4c0-22.5 18.3-40.9 40.9-40.9v-16.4c-31.6 0-57.3 25.7-57.3 57.3z"/></g></svg>