<svg id="Layer_1" height="512" viewBox="0 0 512 512" width="512" xmlns="http://www.w3.org/2000/svg"><g><path d="m288.3 351.1-11.6-11.5-23.1 23h-13.9v-13.8l23.1-23.1-11.6-11.6-11.5 11.5v-12.1h-16.4v12.1l-11.5-11.5-11.6 11.6 23.1 23v13.9h-13.9l-23.1-23-11.6 11.5 11.5 11.5h-12.1v16.4h12.1l-11.5 11.5 11.6 11.6 23.1-23.1h13.9v13.9l-23.1 23.1 11.6 11.6 11.5-11.5v12h16.4v-12l11.5 11.5 11.6-11.6-23.1-23.1v-13.9h13.9l23.1 23.1 11.6-11.6-11.5-11.5h12.1v-16.4h-12.1z"/><path d="m140.8 433-11.6-11.6-23.1 23.1h-13.9v-13.9l23.1-23.1-11.6-11.5-11.5 11.5v-12.1h-16.4v12.1l-11.5-11.5-11.6 11.5 23.1 23.1v13.9h-13.9l-23.1-23.1-11.6 11.6 11.5 11.5h-12.1v16.4h12.1l-11.5 11.5 11.6 11.6 23.1-23.1h13.9v13.9l-23.1 23 11.6 11.6 11.5-11.5v12.1h16.4v-12.1l11.5 11.5 11.6-11.6-23.1-23v-13.9h13.9l23.1 23.1 11.6-11.6-11.5-11.5h12v-16.4h-12z"/><path d="m435.9 433-11.6-11.6-23.1 23.1h-13.9v-13.9l23.1-23.1-11.6-11.5-11.5 11.5v-12.1h-16.4v12.1l-11.5-11.5-11.6 11.5 23.1 23.1v13.9h-13.9l-23.1-23.1-11.6 11.6 11.5 11.5h-12.1v16.4h12.1l-11.5 11.5 11.6 11.6 23.1-23.1h13.9v13.9l-23.1 23 11.6 11.6 11.5-11.5v12.1h16.4v-12.1l11.5 11.5 11.6-11.6-23.1-23v-13.9h13.9l23.1 23.1 11.6-11.6-11.5-11.5h12v-16.4h-12z"/><path d="m84 149.8h16.4c0-18.1 14.7-32.7 32.8-32.7v-16.4c-27.2 0-49.2 22-49.2 49.1z"/><path d="m510 146c0-22.4-14.3-41.8-35.2-48.8-8.9-24.2-30.8-41.7-56.4-45.1-16.4-30.6-48.7-50.1-83.5-50.1-23.2 0-45.2 8.5-62.6 24-12.9-4.6-26.7-7.2-40.8-7.2-38.9 0-75.5 18.5-98.7 49.6-40.6 3.8-73.9 35-80.4 75-29.1 7-50.4 33.3-50.4 63.7 0 36.1 29.4 65.5 65.6 65.5h23.6c15.4 15.7 36.5 24.6 58.4 24.6s43-8.9 58.4-24.6h187.5c36.2 0 65.6-29.4 65.6-65.5 0-3.3-.3-6.6-.9-9.8 27.6-.8 49.8-23.5 49.8-51.3zm-114.5 110.2h-194.7s-14.8 24.6-51.2 24.6c-36.1 0-51.2-24.6-51.2-24.6h-30.8c-27.1 0-49.2-22-49.2-49.1 0-24.4 18.3-45.3 42.5-48.6l6.5-.9.6-6.5c3.3-36.2 33.3-64.8 69.7-66.6l4-.2 2.3-3.3c20-28.7 52.7-45.8 87.5-45.8 40.9 0 78.7 24 96.3 61.1l2.1 4.4 4.8.3c30.8 2 57.3 23.2 66 52.7l1.3 4.6 4.7 1.1c22.4 5.2 38 24.9 38 47.8-.1 27-22.1 49-49.2 49zm63-75.1h-3c-7.6-17.4-22.5-30.8-40.6-36.4-11.3-32.3-40.4-55.6-74.4-59.6-11.5-22.2-29.4-40.1-51.3-51.8 13.3-9.7 29.1-14.9 45.7-14.9 30.1 0 57.9 17.6 70.8 44.9l2.1 4.4 4.8.3c22.4 1.4 41.6 16.8 47.9 38.3l1.3 4.6 4.7 1.1c15.9 3.7 27.1 17.7 27.1 34.1 0 19.2-15.7 35-35.1 35z"/></g></svg>