<svg id="Layer_1" enable-background="new 0 0 75 75" viewBox="0 0 75 75" xmlns="http://www.w3.org/2000/svg"><g id="Girl_Flower" fill="rgb(0,0,0)"><path d="m64.8013306 11.824913c-1.8020706-5.6807003-8.9802551-7.4669695-11.5101929-4.2429199-2.824604-1.2155504-5.9862823-1.0417695-8.3535767.2819824-.43367.2437935-.0651474.8967886.3662109.6542969 2.2529526-1.2620602 5.3900719-1.4061618 8.1147461-.0634766 1.1958008.5878906 1.9311523 1.1826172 2.4589844 1.9892578.6474609.9892578 1.3574219 2.1777344 1.7197266 3.4941406.4140625 1.5019531.2753906 2.9814453-.3603516 4.0800781-.0041695-.0054722-.0743484-.0752697-.0753174-.0761719-.428772-.5021973-1.0892944-.7961426-1.7567139-.7441406-.6489258-.8134766-1.3461914-1.5996094-2.074707-2.3408203-.0668945-.0683594-.15625-.1074219-.2514648-.1123047-2.2344513-.0966959-4.4021454-1.2457161-5.5566406-2.6083984-.2597656-.3056641-.6918945-.8193359-1.3671875-.5527344-.5843887.2310534-.9118614.9815083-1.2011719 1.3300781-.7256889.8794012-2.072216 2.0362015-3.0395508 2.1962891.2421875-1.7216797.5913086-3.7460938 1.7114258-5.1914063.3055038-.3924561-.2908249-.8507042-.5927734-.4589844-1.3369141 1.7246094-1.6606445 4.0820313-1.9208984 5.9755859-.027832.2021484.1118164.3896484.3134766.4208984.3042603.0483398.5958862.0107422.8658447-.0649414-.008606.1418457-.0271606.2727051-.0288086.4226074-1.3778725.2182159-1.9900703 1.8283348-1.2203369 2.9382324.4122925.5942764 1.1527672.8618546 1.6907349.7609863.0567017.2565918.1003418.4963379.1676636.767334 2.2659607 9.0254097 12.878933 7.3231831 14.2689819-1.5668945.0079956.0004883.0159912.0024414.0239868.0024414.1113281 0 .21875-.0498047.2910156-.1386719.7852783-.9643555 1.157959-2.2819824 1.085083-3.6955566 1.4154396 1.6080265.7076874 3.4760342 1.305542 5.4553223.7088585 2.3549328 3.1408348 4.3411694 7.484375 4.1669922.3417358-.0150928.4880219-.4439201.2236328-.6640625-3.303299-2.7400511-1.5099335-8.3409584-2.7817383-12.4150389zm-22.5073243 5.1484375c.0380859.6665039.1222534 1.388916.2774658 2.201416-1.2996177.0469666-1.544815-1.8800888-.2774658-2.201416zm1.3339844 3.5244141c-.1970825-.7941895-.7776489-3.1542969-.5687256-5.0288086.3075027-.2096691 1.7492828-.9402637 2.7703857-2.4985352.7701035-1.1763124.793129-.6543303 1.3383789-.1054688 1.5273438 1.5400391 3.6074219 2.4902344 5.7285156 2.6220703.6255493.642334 1.2196655 1.3234863 1.7849731 2.0212402-.4377594.2316322-.0931129.8829823.3380737.6662598.3496056-.1708164.8249207.0473042.9946289.4033203.1831055.3837891.0688477.9316406-.2597656 1.2460938-.3227539.3085938-.8291016.421875-1.2910156.28125-.4771156-.1419697-.6899261.5762844-.2158203.71875.6261749.1858711 1.2949142.076601 1.8162842-.2958984-2.1803397 6.7485199-10.5057715 7.654583-12.435913-.0302734zm16.9648438.0224609c-.6060829-2.0036583.3153763-4.5842085-2.1867065-6.3952637-.3308334-1.5062456-1.0432434-2.7808247-1.9006958-4.0910645-.7005615-1.0712891-1.6791992-1.692627-2.5151367-2.1245117 2.2378731-2.5166674 8.4893188-.9211388 10.0957031 4.1401367 1.1974792 3.8422661-.4302673 8.8028469 2.3583984 12.1113281-3.3874016-.0974005-5.293953-1.7868308-5.8515625-3.6406249z"/><path d="m47.2875977 19.1667099c.4105835-.0209961.7229614-.5146484.6976929-1.1022949-.0253296-.5876465-.3787231-1.0471191-.7893677-1.026123s-.7230225.5146484-.6976929 1.1025391c.0252685.5876464.3787231 1.047119.7893677 1.0258788z"/><path d="m45.4636841 17.9491806c-.0252686-.5876465-.3786621-1.0471191-.7893066-1.026123s-.7230225.5146484-.6977539 1.1025391c.0253296.5876465.3787231 1.0471191.7893677 1.0258789.4106444-.0209962.7230224-.5146485.6976928-1.102295z"/><path d="m59.4380493 10.8737411c-.4112244-.2804337-.8318672.3393421-.4238281.6191406 1.9506836 1.3378906 3.2607422 3.5849609 3.5039063 6.0087891.049881.4938278.7952614.4198227.7460938-.0742188-.2646485-2.6416015-1.6948243-5.0917968-3.826172-6.5537109z"/><path d="m48.1826782 20.8747177c-.7299423.6717148-1.769516.7459278-2.5654297.2763672-.7519989-.447134-1.1275024 1.638401.2905273 2.4755859.7186508.4240417 1.7145615.3003254 2.3618164-.3242188.5341797-.5146484.7192383-1.2832031.5351563-2.2236328-.0567817-.2860049-.4049835-.4031867-.6220703-.2041015zm-.4335937 1.8886719c-.3959961.3808594-1.0234375.4765625-1.4599609.2167969-.3173828-.1865234-.5722656-.5820313-.5932617-.9638672.8133774.3039608 1.6856308.2303123 2.4277344-.1806641-.0146485.390625-.1396485.7011719-.3745118.9277344z"/><path d="m54.7642212 13.7926865c.1986237.4539995.8871155.1543655.6865234-.3007813-.6000977-1.3701172-1.7998047-2.4873047-3.2089844-2.9902344-.4682922-.1627817-.7184181.5386829-.2519531.7070313 1.2182617.4345703 2.2553711 1.4003906 2.7744141 2.5839844z"/><path d="m35.2974243 66.831749c.5968513-.4863739.7809219-1.3425522.1610718-1.9360352.7654419-5.3925781 3.9552612-10.2858887 8.5718384-13.1176758.423893-.2606773.0279427-.899765-.3925781-.6386719-4.7266846 2.8996582-8.0141602 7.8752441-8.8786011 13.378418-1.4273682-.4365234-3.227478-.026123-4.3328247.5678711h-.0004883c-.6533203.3525391-.9755859.8476563-.8842773 1.3564453.2410889 1.3553162 3.2400322 1.1850281 4.5854492.8886719.3803711-.0839844.8168945-.2099609 1.1704101-.4990234zm-4.3286133-.1513672c-2.2648392-.3709335 1.5828743-2.1636124 3.6879883-1.4160156.6430702.2264557.7090492 1.0217361-.6914063 1.3339844-.9755859.2148437-2.0112304.2421874-2.996582.0820312z"/><path d="m27.2871704 61.8122177c-1.4658871-1.1205101-3.6739502-.8577919-4.9501953.3457031-.2885742-1.5039063-1.4223633-2.8554688-2.8925781-3.3066406-1.5009766-.4609375-3.2392578.0517578-4.3173838 1.1835938-.8809681-3.5238762-4.8204432-4.9111023-7.6645508-3.1679688-.4228072.2600098-.0295687.9007759.3925781.6386719 2.7981291-1.7166939 6.4754095.1767807 6.6630859 3.4863281.021759.3699074.5146322.4910088.7001953.1640625.7670898-1.3447266 2.527833-2.0410156 4.0063486-1.5878906 1.4794922.4541016 2.5444336 2.0195313 2.4243164 3.5625-.0309582.3980293.5041676.5642548.7016602.2119141.8307819-1.4962234 3.1080742-1.9826164 4.4814453-.9345703 1.3673325 1.0457878 1.5046558 3.3717117.2773438 4.5693359-.2422314.2382355-.068222.6435547.262207.6435547.0947266 0 .1889648-.0351563.262207-.1064453 1.5552007-1.52137 1.3825208-4.3811455-.3466796-5.7021485z"/><path d="m59.8638306 66.2301865c-1.4737244-1.9941254-4.3662491-1.6555557-5.3867188.5488281-.2006226-.2475586-.4404297-.458252-.6954346-.6494141.1229324-.1919556.0276833.6244049.2042847-12.6640625h8.2910156c.5797119 0 1.0496826-.4699707 1.0496826-1.0495605v-.1010742c0-.579834-.4699707-1.0495605-1.0496826-1.0495605h-5.8308105c2.7385368-.6087914 4.0103531-1.8263474 4.3361206-4.4306641.0620804-.4943199-.6848335-.5845108-.7441406-.09375-.2754097 2.20327-1.1653252 3.4202538-4.7626953 3.9814453-2.6517601.4097633-5.3516197.4550247-6.1806641.3916016-.9614258-.0439453-1.6860352-.2070313-2.2797852-.5117188-1.1582031-.5996094-2.0283203-1.9179688-2.3271484-3.5253906-.2241211-1.2294922-.1171875-2.5126953-.0136719-3.7529297.2364655-2.8332176.0473251-3.4767685.4511108-7.0986328 2.7492676-.3066406 5.4161377-1.3684082 7.5278931-3.1171875.3814621-.3173027-.0951195-.8933105-.4785156-.578125-1.956665 1.6201172-4.4177246 2.6030273-6.9614868 2.9179688.1962433-1.7344627.2917709-4.6850624 1.5205688-5.6240234.9599991-.7319241 1.9244118-.7793045 8.5283203-2.3076172 1.1535416-.2706909 1.3961525-.0912552 1.7495117.8535156 1.3540039 3.6806641 2.2861328 7.5488281 2.7709961 11.4970703.0380859.3037109.0869141.6464844.1401367 1.0185547.1518555 1.0625.3408203 2.3857422.3920898 3.6796875.0083008.2080078.2167969.3789063.3891602.3603516.2070313-.0087891.3681641-.1826172.3598633-.3896484-.0522461-1.3330078-.2441406-2.6767578-.3989258-3.7568359-.0522461-.3662109-.1005859-.7050781-.1381836-1.0048828-.4916992-4.0039063-1.4375-7.9287109-2.8120117-11.6660156-.4752998-1.2683125-1.0679893-1.694603-2.621582-1.3222656-6.9872093 1.6200142-7.7303848 1.6135979-8.8144531 2.4423828-1.5590515 1.1910133-1.5880051 4.3580971-1.8311768 6.3173828-1.6097412.1103516-3.2338257-.0681152-4.7748413-.5332031-.1306152-.5048714-.5925789-1.2238121-1.3480835-1.7485352l-.0353394-.1062012c.105835-.2099609.1526489-.4394531.1402588-.6853027 2.1121101.3901443 4.1089592.2284393 6.0186157-.4404297.4720879-.1652317.2126961-.8756752-.2475586-.7070313-1.9126587.6669922-4.0394287.7822266-6.0114746.3422852-.2808952-.4995365-.7675095-.9671459-1.1350708-1.1691895-1.0766602-1.8134766-2.4956055-3.3361816-4.1483154-4.4697266 2.0077438.8633823 3.5617905-1.0760708 3.1083374-2.9597168 0 0 .0100098 0 0-.0100098-.0400391-.2099609-.1199951-.420166-.2200317-.6101074-.5899658-1.1398926-1.8999634-1.7900391-3.1799927-1.7900391 1.1505775-.1248093 2.0568542-1.1685829 2.1300049-2.2299805.1296463-2.3080368-2.8266106-3.9924688-5.0599976-1.9099121h-.0100097c-.0999756.0998535-.2000122.2099609-.2799683.3200684 0 .0100098-.0100098.0100098-.0100098.0100098-.1700439.2199707-.2999878.4499512-.4000244.6999512 0 0 0 0-.0100098.0100098-.2699585.6101074-.3499756 1.2900391-.3800049 1.9799805-.3660107-.4190273-.7029285-.7586441-1.2799683-.9699707-.6483154-.2474976-1.3358727-.2507553-1.9799805.0698242-1.2220116.6115646-1.9054508 2.5357533-.7300415 3.8601074.5375347.6051884 1.4715424.9488411 2.3300171.8100586-1.4599686.6338921-2.2019501 2.8547173-.9299927 4.1899414 1.6354332 1.8011742 4.5392456 1.237175 5.4699707-1.2299805 0 0 .0100098 0 .0100098-.0100098.026001-.0644531.0349121-.1342773.0571289-.1999512 1.7159424.9609375 3.1941528 2.3669434 4.3583984 4.0700684-1.8828659-.0901775-2.6106949 2.1955223-.4690552 3.2583008-.5008202.550312-.593502 1.2260437-.3724976 1.753418.2724609.6484375.9140625.9794922 1.5664063 1.2402344 1.1733398.4719009 1.5290031.3277588 1.6298218.3415527.0404053.4995117.0587769 1.012207.0352173 1.5402832-.0092773.2070313.1508789.3818359.3579102.3916016h.0170898c.1992188 0 .3652344-.1572266.3740234-.3583984.0280762-.6269531.005249-1.2368164-.0516968-1.8271484.4769821-.2845116.55093-.5297928.6224365-.6901855 1.7124176.4937935 3.23489.604187 4.7539673.5124512-.1765747 1.6259766-.28479 3.3098145-.3203125 5.125-.0393295 1.8998718-.4511871 3.8299484-.0927734 5.796875.340271 1.8310547 1.3547974 3.3452148 2.7147827 4.0527344h-.9747925c-.4935913 0-.8884888.3476563-1.0006104.8068848-4.2756958 3.5571289-6.8768311 9.095459-6.8866577 14.6706543-1.185791-.0810547-2.4588623.2680664-3.3087769.7255859h-.0004883c-.6411133.3457031-.9575195.8320313-.8676758 1.3349609.174408.9755478 1.6342583 1.0722656 2.6567383 1.0722656.8477745 0 2.3190651-.14991 2.9760742-.6884766.8357277-.6828156.6802711-1.8598785-.3842773-2.234375-.104126-.0371094-.2145386-.059082-.3228149-.0864258-.0288696-5.2402344 2.3305054-10.4648438 6.2560425-13.9162598.1841431.3027344.5022583.5153809.8824463.5153809h7.7457886l-.1372681 12.2553711c-1.7670479-.8308334-3.6682014-.1499939-4.6429443 1.1791992-.2927437.4004669.3112831.8426132.6054688.4433594.6196289-.8457031 1.6958008-1.3232422 2.7402344-1.2314453 1.0439453.0976563 2.0107422.7734375 2.4624023 1.7207031.0712891.1494141.2324219.2353516.3969727.2089844.1645508-.0253906.2915039-.1572266.3134766-.3212891.1376953-1.0576172 1.0771484-1.9599609 2.1386719-2.0566406 1.0610352-.0908203 2.1474609.625 2.4731445 1.6386719.121212.3803177.6816063.3293381.7294922-.0693359.1387558-1.1655426 1.4680061-2.0580139 2.5957031-1.7519531 1.1305389.3054428 1.8254623 1.7466278 1.3588867 2.8212891-.1958923.4547501.4911652.7529526.6884766.2988281.3081055-.7119141.2739258-1.5585938-.0942383-2.3232422-1.09037-2.2617268-3.9535292-1.9922108-5.0004881-.0478519zm-29.7598267-43.6015625c-.4099731 0-.7399902-.3300781-.7399902-.7402344 0-.4099121.3300171-.7397461.7399902-.7397461.4000244 0 .7399902.329834.7399902.7397461 0 .4101562-.3399658.7402344-.7399902.7402344zm1.4023438 2.6982421c.0217896-.1855469.0449829-.3710938.0376587-.5583496.0795288.3381348.2684326.6262207.5162354.845459-.3880101-.2340717-.4255849-.2766723-.5538941-.2871094zm4.8657836 5.7578125c.0845604.0487576.1015167.0594425.1865234.1074219.544754.3583679 1.2057648 1.1786842.8234863 1.713623-.4751587-.1479492-.9624634-.1594238-1.4022217-.0087891-.350647-.1401367-.6668701-.2817383-.9075928-.4987793-1.0055159-.8933123.0507509-1.9899691 1.2998048-1.3134765zm.3310547 4.5996094c-.4667969-.1865234-.9799805-.4208984-1.1538086-.8349609-.2079201-.4933243.1990738-1.3251953 1.1064453-1.3251953.3779297 0 .7851563.140625 1.1298828.4052734.4238281.3242188.9145508.9003906.9907227 1.3320313.062439.3527832-.4382515.6792374-.7963867.7148438-.4047852.0351562-.8374023-.1152345-1.2768555-.2919923zm1.8808594 32.9228516c-.7095985.5787659-4.2196808.7664871-4.4146729.034668-.0028687-.1708984.2296143-.3779297.4805908-.5131836 1.0367317-.5589905 2.6553802-.865593 3.7744141-.46875.2080079.0732421.5368462.6397934.159668.9472656z"/><path d="m30.7158813 8.2321396c1.5791016.5507813 2.9316406 1.7167969 3.7104492 3.1972656.230629.4345207.8949318.0910358.6640625-.3496094-.8666992-1.6464844-2.3710938-2.9423828-4.1274414-3.5566406-.4773139-.1587095-.7099609.5473766-.2470703.7089844z"/><path d="m36.3862915 8.4137802-2.3007812-2.5888672c-.3294144-.3704453-.8906555.1281404-.5605469.4980469l2.3007813 2.5888672c.3325347.3719129.8890876-.1298943.5605468-.4980469z"/><path d="m37.9336548 9.3962021c-.8041992-1.0458984-1.0424805-2.5263672-.6069336-3.7724609.163063-.4658928-.5431213-.7191534-.7080078-.2480469-.5170898 1.4794922-.234375 3.2363281.7202148 4.4775391.3032646.3936414.8962975-.0642882.5947266-.4570313z"/></g></svg>