<svg id="Layer_1" enable-background="new 0 0 75 75" viewBox="0 0 75 75" xmlns="http://www.w3.org/2000/svg"><g id="Girl_Jumping" fill="rgb(0,0,0)"><path d="m43.4945297 15.4449072c1.7617188.5273438 3.5830078 1.0732431 5.4599609 1.1142588 2.4693222.0338249 4.2325859-.7739716 5.3544922-1.9111338.2500267-.2522202.0369453-.6755505-.3017578-.6367188-2.1162109.1787109-3.8076172-1.7050781-4.6318359-2.8574219-1.1823502-1.6395254-2.1619339-3.6023564-3.9130859-4.7900386-3.0761261-2.0796328-7.4597015-1.0407681-9.0916748 2.6582026-6.5008278-1.0385522-11.9686299 4.8061925-10.2678242 11.5944835-.9663067.8315811-.938303 2.3086166.2344971 2.9992676.6215534.3649101 1.3337822.3025532 1.5374756.151123 2.9672661 4.9333935 11.1310291 5.2844772 14.0706806-1.3027344.4864655.222599 1.8497734-.3648529 2.0598145-1.5788574.1379395-.793457-.2731934-1.6245117-.9593506-2.0251465.6386566-4.4884586-1.4232597-8.5569925-5.9193115-9.680665 1.5251312-3.2066851 5.3259735-3.947063 7.9147949-2.1945796 2.8592644 1.9395499 3.9829941 7.0878081 8.0087891 7.7382808-1.0751953.7314453-2.5341797 1.1015625-4.0800781 1.0859375-1.7744141-.0380859-3.546875-.5693359-5.3007813-1.0947266-.4448014-.1380415-.6787949.5790234-.1748048.7304688zm-17.0994892 5.963624c.1600494.1245499.3874893.1136322.5280762-.098877.1281738.6291504.3481445 1.2258301.6190186 1.7958984-.8441315.2133122-1.8310757-.7351722-1.1470948-1.6970214zm1.1359863-1.2250977c.9970169-1.3983231 2.7041435-2.2387848 3.44104-2.7062988 3.458807-2.0022411 2.3021145-1.8013563 3.2421894-2.4628916.721386.6492491 1.4816818 1.1712847 2.7392578 1.6865244 1.6710892.689558 4.3865967 1.4271336 4.8682861 3.6689453-.1040039.5471191-.2644043 1.0959473-.4854736 1.6289063-3.1208075 7.4062176-13.3320826 5.4742317-13.8052997-1.8151856zm14.6972676 1.539795c.0964355-.2832031.1774902-.5673828.2446289-.8535156.1057129-.0769043.1726074-.2026367.1573486-.3417969-.0225334-.1960316.1469955-.6536026.2247314-.8857422.8216401.7307815.3764229 1.9437732-.6267089 2.0810547zm-.4193116-7.6738291c.6927643 1.7870026.7288475 4.1601191.3945313 5.180665-1.0393333-1.8741188-3.1129112-2.4650478-4.9648438-3.2226563-3-1.2295599-2.4786644-2.3604794-3.6357422-1.4726572-.9096794.690423.2297859.423934-3.0068378 2.2929697-.452877.291832-2.8687973 1.5606365-3.770874 3.0786133-.0291748.0439453-.0673828.0805664-.0953369.1254883-.8339844-4.0566416 1.078125-8.0195322 4.7890625-9.6748056 3.7845516-1.6901541 8.729723-.3401566 10.2900409 3.6923828z"/><path d="m45.7523422 11.0113134c.3796883.3155165.8600883-.2651138.4746094-.5800781-1.6320229-1.336585-3.4737206-2.7524171-5.6728516-2.3818359-.4914856.0799551-.3660545.824461.1210938.7402344 1.9369278-.3203936 3.6644478 1.065834 5.0771484 2.2216796z"/><path d="m43.8763657 45.3902206c-1.4465408-1.5016899-.7333488-2.2978096-2.1386719-2.0019531-.3430595.0722237-1.341362.1546021-1.6962891.1787109-4.2397499.2857361-8.6109066-.4594383-12.5986347-2.2490234-.2714844-.125-.5976563.0351563-1.2753906.4599609-2.3213959 1.4573059-2.7666378 2.5013161-3.0126953 2.765625-.2558594.3369141-.6054688.7988281-.3730469 1.2080078.2351379.4129601 1.0941772.6872406 1.3681641.8486328 3.482111 2.0176239 3.7500076 2.4700317 5.4033203 1.5996094 1.4593735-.7689476 3.1383533-1.3905792 4.6230488-2.0507813.2048416-.0921822.8407784-.4786568 1.1494141-.5810547.4143333.7475052.1235428.8465767 1.3808594 2.6455078.5410995.7708626.9029007 1.1453476 1.1923828 1.5019531.5221252.6477203.9914474 1.2478523 1.6015625.9482422 1.544548-.760067 4.1876259-2.4550667 5.1308594-3.4296875.3272896-.3353729.2974701-.8801346-.0791016-1.171875-.2041627-.1580618-.4021226-.3776625-.6757813-.6718749zm-4.6455079 4.6181641c-.2544861-.1106453-.7302666-.7542725-.9423828-.9990234-3.1167183-3.5085373-1.5641556-5.1171303-4.1230469-3.703125-.7777176.4347878-3.1998901 1.302475-4.961916 2.2294922-.8399677.445015-1.0882034.4840164-2.1103516-.1044922-2.8413963-1.6219521-2.4052734-1.4177437-2.9443359-1.6630859-.1816406-.0830078-.5351563-.2431641-.6748047-.3525391.0473919-.107708.1595478-.2626572.3808594-.5566406.4492188-.6396484.9902344-1.2119141 1.6074219-1.7021484.5142078-.4077644 1.5461769-1.03162 1.7617188-1.1152344 2.0625.9169922 4.2490234 1.5742188 6.5000019 1.9541016 4.7872658.8019371 8.3160133.0920105 8.4257813.0820313.3154259.6595306.1388969.7816315 1.9433594 2.6337891-.9321862.9646376-3.6685334 2.6438253-4.8623048 3.2968748z"/><path d="m52.1781235 60.8794785c.5966797-.46875.8730469-1.0410156.7587891-1.5722656-.2917061-1.3713455-2.9190941-1.7006798-4.7259521.0214844-2.4599609-2.8022461-4.0020752-6.3632813-4.338501-10.0800781-.0435524-.4813499-.7932854-.4318619-.7460938.0683594.3543701 3.9243164 1.99646 7.6867676 4.6199951 10.6245117-.4808846.9603729.096817 1.9389648 1.5391846 1.9389648 1.0731658-.0000001 2.0951004-.3730737 2.8925781-1.0009766zm-3.3916016-1.0751954h.0009766c1.9159088-1.6628036 4.5064354-.7476501 2.9277344.4853516-1.7909546 1.407917-4.5401841.9127541-2.928711-.4853516z"/><path d="m13.5882788 55.567955c.6475105 0 1.0817738-.4652252 1.2088623-1.0849609 2.048583-3.09375 5.0747061-5.5148926 8.5274649-6.8183594.461689-.174881.2016964-.8746834-.265625-.7011719-3.2984619 1.2451172-6.2143555 3.4750977-8.324584 6.3217773-.2714844-.9731445-1.0158691-1.8410645-1.769165-2.340332 0 0 0 0-.0009766-.0009766-1.4368-.9437599-2.7797365-.0509605-2.265625 1.7177734.3764333 1.2968904 1.6850442 2.9062501 2.8896484 2.9062501zm.4921875-1.2910156c-.2376642 1.685257-2.9332333-.910862-2.7431641-2.4746094.1886396-1.4855423 2.9910402.6684036 2.7431641 2.4746094z"/><path d="m33.507225 19.8130722c.4825439.0992146.6303635-.6441364.1386719-.7363281-.9794922-.1835938-2.0068378.0947266-2.7578144.7431641-.3737984.3227215.1096458.8915997.4902344.5683594.571289-.4951173 1.3847675-.7128907 2.1289081-.5751954z"/><path d="m36.2621078 19.1411972c-.4925728.0046463-.4908524.75.0039063.75.0097656-.0009766.0175781 0 .0263672 0 .5048828 0 1.0039063.1689453 1.40625.4775391.3974037.3008919.8490562-.2946835.4570313-.5957031-.5410157-.4140626-1.2128907-.6523438-1.8935548-.631836z"/><path d="m29.9642544 32.2017441c.6552734-1.4462891 1.8662109-3.1855469 3.118166-3.3310547.7263298-.0818062 1.3906097.1673641 2.2753906.0087891.8180275-.1655369 1.6401978-.3779335 2.3486328-.1855469 1.1640625.3085938 1.8486328 1.6357422 2.2617188 2.6064453 2.1204758 4.9995193 1.4764099 6.3876381 2.2763672 6.234375.203125-.0400391.3359375-.2373047.2958984-.4404297-.4013672-2.0410156-1.0351563-4.0888672-1.8818359-6.0869141-.4746094-1.1162109-1.2783203-2.6455078-2.7587891-3.0380859-.7841797-.2109375-1.5400391-.0566406-2.2714844.0917969-.4319115.0434074-.3669701.185564-1.5654297.0830078-.3457031-.0283203-.7041016-.0615234-1.0664063-.0175781-1.9658222.2265625-3.3408222 2.9394531-3.7167988 3.7675781-.6640625 1.4941406-.9873047 3.0683594-1.3105469 4.8164063-.1660156.8144531-.3076172 1.6113281-.2207031 2.4140625.1074219.9716797.5693359 1.7841797 1.265625 2.2275391.5957031.3828125 1.3017578.453125 1.8652344.5097656 8.7169971.9504509 8.7660694.9912109 9.415041.9912109 1.8931847 0 2.7523994-1.1020966 2.6689453-2.9414063-.0226402-.4776764-.7715378-.4721184-.75.0351563.0390625.8310547-.1455078 1.4267578-.5458984 1.7666016-.8562927.7228241-1.7493896.3452873-10.7099628-.5976563-.6201172-.0625-1.1269531-.1308594-1.5390625-.3955078-.4980469-.3164063-.84375-.9443359-.9238281-1.6777344-.0761719-.6943359.0556641-1.4287109.2109375-2.1884766.3164062-1.7080078.6289062-3.2363281 1.258789-4.6523437z"/><path d="m16.4808559 20.0669785c-.5556631.0996094-1.0205069.5771484-1.1552725 1.1875-.3988943 1.7988567 1.9086142 3.8778801 3.5196524 3.7236328 1.50354 3.9262695 5.0345459 7.0444336 9.1131592 7.9814453.4850693.1170845.649168-.621212.1679688-.7304688-3.8624268-.8879395-7.2064209-3.8525391-8.6091309-7.5810547.0928955-.112793.1617432-.2463379.1940918-.4052734.2255859-1.1240234-1.2919922-3.140625-1.5175781-3.3896484-.5546875-.6142578-1.1425782-.8876953-1.7128907-.7861328zm1.15625 1.2880859v.0009766c.4462891.4921875 1.4638672 2.1171875 1.3388672 2.7382813-.0115967.0551758-.0306396.078125-.052124.0942383-.5720844.224556-2.1374569-.5201778-2.6959229-1.7329102-.5720329-1.2439481.266758-2.3629628 1.4091797-1.100586z"/><path d="m56.1039047 25.1509628c-1.7107849-.127512-3.4179192 2.2982903-3.1187744 3.9645996-3.0205078 2.6730957-7.5473633 3.5942383-11.3499756 2.2736816-.4781876-.1554108-.7087517.5470543-.2460938.7089844 4.0093346 1.3933144 8.7537994.4578552 11.9822998-2.3227539.1437988.1074219.3071289.1848145.5059814.1918945.9884338 0 2.5593185-1.3765049 3.0947266-2.0546875.5136719-.6494141.6835938-1.2783203.4921875-1.8173828-.189453-.5332031-.7353515-.9130859-1.3603515-.9443359zm-2.1855469 4.0664063c-.0058594 0-.0107422 0-.015625 0-.427227-.0156307-.0945511-1.2061062.0917969-1.6445313.3495407-.8329525 1.206768-1.6748047 2.015625-1.6748047.375885 0 .6654434.2172775.7470703.4482422.1347657.3779297-2.1854629 2.8710938-2.8388672 2.8710938z"/><path d="m40.123436 15.4927588c.49049-.0092545.4839821-.75-.0078125-.75-.0224609-.0058594-.0605469 0-.0917969.0009766-1.6748047 0-3.3271484-.9736328-4.1337891-2.4433594-.2405968-.4344749-.8969383-.0740118-.6582031.3613281.9739952 1.7731237 2.9949074 2.8868398 4.8916016 2.8310547z"/><path d="m12.842185 35.9077988c.7910156.0419922 1.5615234.5791016 1.8730469 1.3066406.1926336.454895.884572.1634903.6894531-.2949219-.9430876-2.2084694-4.0792856-2.2601433-4.3066406-.5673828-.0595703.4326172.1289063.8916016.5048828 1.2285156.3673954.3267059 1.0072031.5644531 1.1425781.5644531.418787 0 .5214272-.5877838.125-.7285156-.3222656-.1142578-.5771484-.2255859-.7685547-.3955078-.1835938-.1640625-.2861328-.3867188-.2607422-.5673828.0468751-.3554687.5654297-.5664062 1.0009766-.5458984z"/><path d="m12.5199194 30.4058456c.6328125 2.1660156 2.0957031 4.0888672 4.0146475 5.2773438.0615234.0371094.1298828.0556641.1972656.0556641.3768406 0 .5171623-.4952888.1972656-.6943359-1.7636709-1.0908203-3.1083975-2.8583984-3.6884756-4.8496094-.1377001-.471449-.859497-.268961-.7207031.2109374z"/><path d="m16.7796841 30.4126816c-.3727341 1.5009403.6818295 2.9501953 1.1621094 2.9501953.3458118 0 .5086079-.4342842.2431641-.6601563-.5927734-.5048828-.8652344-1.3525391-.6767578-2.1083984.1196994-.4834881-.6069432-.6585731-.7285157-.1816406z"/><path d="m59.2542953 60.7661972c-.1032677-.4376488-.6841621-.3437805-.7363281.0380859-.2675781 2.0107422-1.3408203 3.9335938-2.8896484 5.2607422.5566406-1.8056641.4394531-3.8291016-.3613281-5.5361328-.1345673-.2845764-.5165291-.2745094-.6621094-.0332031-1.4345703 2.4072266-3.4414063 4.4755859-5.8037109 5.9833984-.4208984.2695618-.0093002.8991928.4042969.6328125 2.25-1.4375 4.1914063-3.3632813 5.6503906-5.6005859.6035156 1.7685547.4638672 3.7998047-.4052734 5.4560547-.1778564.3379288.2100754.6940155.5263672.4941406 1.7587891-1.0683594 3.1035156-2.7314453 3.8095703-4.6455078.0654297 1.5712891-.2451172 3.1513672-.9160156 4.5859375-.1484833.3187943.184864.6466293.4951172.5 2.2285156-1.0136719 4.0107422-2.9189453 4.8984375-5.1933594 1.05336 2.4166718-.0664253 5.0656052-2.2568359 6.1201172-.4504967.2158585-.1178932.8926697.3242188.6757813 2.9773331-1.431694 4.0041351-5.1908188 2.1611328-7.9345703-.1778069-.2656364-.5871086-.1987228-.671875.1064453-.5966797 2.1015625-2.0136719 3.9384766-3.8740234 5.0712891.6708982-1.9140626.7832029-4.0009766.3076169-5.9814454z"/><path d="m22.6519985 69.6939316h19.6400166v-14.2800293h-19.6400166zm5.2600098-8.4301758c2.6657562-.5750313 2.7993126-.4085808 2.9799805-.7397461l1.0999756-2.5102539c.1301289-.2998047.540041-.3198242.7000751-.0297852 1.3736687 2.3627853 1.2403526 2.5405807 1.6300049 2.5998535l2.7199707.2700195c.3300781.0300293.4699707.420166.25.6599121l-1.8699951 2c-.261013.2613678-.0165863.4673157.4799805 3.0200195.0699463.3200684-.25.5800781-.5499268.4401855l-2.4799805-1.1599121c-.2995834-.1634064-.4550171.1321335-2.7301044 1.3999023-.2799072.1599121-.6300049-.0700684-.5799561-.3901367.2672787-2.6455994.4883633-2.7816544.2099609-3.0600586l-2.0500488-1.8198242c-.2399902-.2199705-.1298828-.620117.1900635-.6801756z"/><path d="m35.9916 23.0318222c-.0664063.3037109-.3798828.5634766-.7441406.6171875-.866375.1316319-1.6023979-.6459522-2.1630859-1.2480469-.1988068-.2136116-.5496025-.1260319-.6328125.1464844-.2001953.6533203-.390625 1.6181641.2548828 2.4423828 1.2652512 1.6137199 4.1711273 1.4698391 4.1318359-.7568359-.0068359-.3994141-.0263672-.8564453-.1171875-1.2138672-.0962906-.3806801-.6447105-.3755245-.7294922.0126953zm-.109375 1.9287109c-.6816139.832201-3.0449562.2024746-2.8554688-1.5400391.8712692.8462582 2.0684357 1.3680344 3.0585938.6835938.0060463.3024063.0002823.6068707-.203125.8564453z"/></g></svg>