<svg id="Layer_1" height="512" viewBox="0 0 512 512" width="512" xmlns="http://www.w3.org/2000/svg"><g><path d="m337.9 165.9v16.4c49.7 0 90.1 40.4 90.1 90.1h16.4c.1-58.7-47.7-106.5-106.5-106.5z"/><path d="m479.8 281c.5-4.6.7-8.7.7-12.7 0-74.5-61-135.2-136-135.2-40.2 0-77.6 17.3-103.6 47.7-8.4-3.4-17.1-5.7-25.9-7.1 0-8.1-1.3-15.9-3.5-23.3l15.5-6.4-6.3-15.1-15.5 6.4c-2.5-4.6-5.4-9-8.8-13.1l17.7-17.7-11.5-11.5-17.7 17.7c-4.1-3.3-8.4-6.3-13.1-8.8l6.4-15.5-15.1-6.3-6.4 15.5c-5-1.5-10.1-2.6-15.4-3.1v-25h-16.4v25c-5.3.5-10.5 1.6-15.4 3.1l-6.5-15.5-15.1 6.3 6.4 15.5c-4.6 2.5-9 5.4-13.1 8.8l-17.6-17.7-11.6 11.5 17.7 17.7c-3.3 4.1-6.3 8.4-8.8 13.1l-15.5-6.4-6.3 15.1 15.5 6.4c-1.5 5-2.6 10.1-3.1 15.4h-25v16.4h25.2c.5 5.3 1.4 10.4 2.9 15.4l-15.5 6.4 6.3 15.1 15.7-6.5c2.5 4.6 5.3 9.1 8.6 13.1l-17.7 17.9 11.6 11.6 17.8-17.8c2.6 2.1 5.4 4.1 8.3 6-3.5 8.4-6.1 17.2-7.6 26.6h-12.9c-37 0-67.2 30-67.2 66.8s30.1 66.8 67.2 66.8h29.2c20.1 25.7 51.2 41 83.8 41 32.7 0 63.7-15.2 83.8-41h176.7c37 0 67.2-30 67.2-66.8.1-22.6-11.3-43.5-30.1-55.8zm-412.3-106.9c0-36.1 29.4-65.5 65.5-65.5 35.5 0 64.5 28.4 65.5 63.7-.5 0-63.7-3.8-101.6 56.5-18.2-12.1-29.4-32.4-29.4-54.7zm375.3 213h-185s-26.8 41-75.6 41c-46.3 0-75.5-41-75.5-41h-37.5c-28 0-50.8-22.6-50.8-50.4s22.8-50.4 50.8-50.4h27.6l.7-7.5c4.7-51.4 47.4-90.2 99.5-90.2 25.7 0 48.8 12.5 48.8 12.5s36.3-51.6 98.7-51.6c66 0 119.6 53.3 119.6 118.8 0 10.9-2 21.5-2 21.5s31.5 10.3 31.5 46.9c0 27.8-22.8 50.4-50.8 50.4z"/></g></svg>