<svg id="Layer_1" height="512" viewBox="0 0 512 512" width="512" xmlns="http://www.w3.org/2000/svg"><g><path d="m337.9 34.9v16.5c49.7 0 90.1 40.6 90.1 90.6h16.4c.1-59.1-47.7-107.1-106.5-107.1z"/><path d="m479.8 150.6c.5-4.6.7-8.7.7-12.7 0-74.9-61-135.8-136-135.8-40.2 0-77.6 17.4-103.5 48-14.1-5.8-28.8-8.7-43.9-8.7-58 0-106.2 41.7-114.9 98.2h-13c-37 0-67.2 30.1-67.2 67.1s30.1 67.1 67.2 67.1h29.2c20.1 25.9 51.2 41.2 83.8 41.2 32.7 0 63.7-15.3 83.8-41.2h176.7c37 0 67.2-30.1 67.2-67.1.1-22.7-11.3-43.7-30.1-56.1zm-37 106.6h-185s-27.7 41.2-75.6 41.2c-45.6 0-75.6-41.2-75.6-41.2h-37.4c-28 0-50.8-22.7-50.8-50.7 0-27.9 22.8-50.7 50.8-50.7h27.6l.7-7.5c4.7-51.7 47.4-90.7 99.5-90.7 25 0 48.8 12.6 48.8 12.6s34.1-51.8 98.7-51.8c66 0 119.6 53.6 119.6 119.4 0 10.9-2 21.6-2 21.6s31.4 15.9 31.4 47.1c.1 28-22.7 50.7-50.7 50.7z"/><path d="m253.6 328.9-11.6-11.7-79.5 80h90.1l-100.7 101.2 11.6 11.6 128.7-129.3h-90.2z"/><path d="m69.9 300.8-49.1 49.4 11.6 11.6 49.1-49.4z"/><path d="m373.1 300.8-49.2 49.4 11.6 11.6 49.2-49.4z"/><path d="m381.3 383.1 11.6 11.6 81.9-82.3-11.6-11.6z"/><path d="m143.7 325.5-98.3 98.8 11.6 11.6 98.3-98.8z"/></g></svg>