<svg id="Layer_1" enable-background="new 0 0 75 75" viewBox="0 0 75 75" xmlns="http://www.w3.org/2000/svg"><g id="Girl_Singing" fill="rgb(0,0,0)"><path d="m43.6731567 38.6033745c-.2752075.0081177-.5523071.0321655-.8262329.0427856-2.0158081.078064-4.0519409-.6240845-5.5910645-1.9281616-.5010986-.4244995-.9783936-.9255371-1.6100464-1.1054077-1.4422607-.4107666-1.9761353 1.5793457-2.4048462 2.5653687-.8868408 2.039566.2953415-.4257431-4.416626 10.9625854-.5336914 1.2897339-1.0253296 2.9019165-.1220703 3.9658813.5535278.6520996 1.4591064.8555298 2.2982788 1.0213623 4.3244019.8546143 8.6488647 1.7092285 12.9733276 2.5638428 1.6942596.3348732 2.3537216-.1553917 2.3076172-2.0098267-.1090088-4.3823242-.2179565-8.7647095-.3269653-13.1470947-.0487746-1.9603691-.3512763-2.9879646-2.281372-2.9313354z"/><path d="m43.5363159 69.7794037c1.2886047-.4840622 2.4979858-2.6054535 1.9101563-4.6420898-.4123192-1.421051-1.8893623-1.7196693-2.7634277.0047607-1.777832-2.4450722-2.7432251-5.5128212-2.6433105-8.5306435.0163193-.4942818-.7324104-.5216103-.75-.0244141-.1098633 3.3308716 1.0045166 6.7246704 3.0507813 9.3566322-.3457947.8197708-.7358932 1.5376587-.7578125 2.3279419-.0228845.8275071.8803633 1.9099275 1.9536131 1.5078126zm-.3422851-3.9350586c.3839149-1.1110382 1.2065773-1.6227264 1.5317383-.4985352.3334961 1.1542969-.0200195 2.4946289-.878418 3.3349609-.8444176.8260117-1.5375786.4151764-1.5146484-.3886719.0136718-.5170897.5733489-1.6171111.8613281-2.4477538z"/><path d="m36.7850342 60.9961357c-1.1351318-1.5512085-1.7454224-3.491394-1.6759644-5.4135132.0185051-.4903755-.731163-.5322075-.7490234-.0273438-.0806274 2.2116089.6665649 4.4454346 2.0431519 6.1757813-1.4016571 3.4058952.1744728 4.6223793 1.539856 3.4155312 1.4345207-1.2667427 1.6702805-3.3196526 1.1577148-4.2509804-.4606515-.8375473-1.5490227-1.0485153-2.3157349.1005249zm.0515747 3.8364906c-.6502037-.2860184.2529526-3.8818398 1.1669922-3.8818398.429512 0 .5727196.5440598.5878906.9716797.063942 1.824154-1.3768463 3.0747643-1.7548828 2.9101601z"/><path d="m61.8156128 38.4581108c-.4568329-1.5927811-3.0193863-1.7415085-4.4814453-.1469727-.1464844.159668-.2869263.3303223-.3417358.5252075-3.3166504 1.1445313-6.8756104 1.6514282-10.3262329 1.4484253-.4760475-.0525208-.5552559.7188187-.0429688.7490234 3.5984344.2074051 7.2440758-.3292809 10.623291-1.4963379.0701904.0639648.1448364.1248169.2229004.1813965.729393.5279732 1.4699326.9462891 2.3666992.9462891.3652344.0000001 2.2605095-1.222824 1.9794922-2.2070312zm-3.90625.6533203c-.081543-.059082-.1318359-.1000977-.1625977-.1274414.9310303-1.2712135 3.0404549-1.3907204 3.3481445-.3193359.1123047.3950195-.1464844.8901367-.5776367 1.1040039-.8651504.4294853-1.8377418-.099186-2.6079101-.6572266z"/><path d="m38.3678589 21.2994213c.1367188-.4633789.6533203-.8325195 1.1313477-.8203125 1.0910301.0074863 1.7198181 1.3775597.9179688 2.3076172-.1357422.1567383-.1181641.3935547.0385742.5288086.0708008.0615234.1582031.0913086.2451172.0913086.1049805 0 .2094727-.0439453.2836914-.1298828 1.2213631-1.4141521.2453995-3.5363331-1.4804688-3.5478516-.8427734-.043457-1.621582.565918-1.855957 1.3583984-.1404992.4765282.5799789.6870518.7197265.2119141z"/><path d="m13.2877798 48.8462944c-1.8324661 5.7508545 1.8000755 11.4372177 7.2797861 12.5917969.4930916.1023407.6337109-.6327133.1542969-.734375-5.0328331-1.0595436-8.405983-6.2780609-6.7304697-11.5976563h.0004883c2.9231577.9281578 4.7981386-.7915802 4.3579111-2.71875-.4240971-1.8586617-3.1115999-2.4265213-4.8066416 1.7519531-3.6557903-1.5814056-4.2937641-5.6952744-2.7216797-9.1826172 3.1360826-6.9581547 8.9729586-8.0655861 9.1056528-8.1392193.1064453.5913086.4622803 1.1326904.9783325 1.435606.9917259.5790291 2.0951443.2665329 7.3039551.1231689 1.3335552 3.6758003 5.7209473 3.9377861 8.0819092 1.3121338 4.8161469 4.8845901 11.9394989 5.0030022 16.8737183 1.4212646.5366249.4324112 1.1502342.6756592 1.8312378.6756592 2.3001518 0 3.303791-2.5728912 1.9324341-3.8980083.4532471.0521851.9049072.1030273 1.3410034.1172466 2.8779297.0874023 5.6914063-1.6752911 6.8613281-4.2968731 1.1323242-2.5356445.6376953-5.6870117-1.1918945-7.7680664 1.0024414-1.8569336.7368164-4.3623056-.6650391-5.9448252-1.2822266-1.4472656-3.4423828-2.0444336-5.3056641-1.5473633.600914-2.3174791-.6307869-4.9654031-2.7836914-5.9082026-2.1413841-.9386525-4.8722267-.0645194-6.1821289 1.8833003-.9077148-2.1098628-3.2631836-3.5454097-5.5708008-3.2499995-2.8392029.3669891-5.5953865 3.9119039-4.9560547 6.8124995-1.9189415-.206604-3.8389282 1.6414146-2.9170532 3.9406738-2.0446167 2.4029551-3.1262207 5.9654551-2.920105 9.5148325-1.6635742.0678101-3.3034668.9939575-4.0939941 2.4686279l-.0012817.0101318c-.0279541.0015259-.600338.0386391-1.8062134.0915527-.5897045-1.6787529-4.051527-2.4325676-4.2014771.2037964-1.3019733.1156597-2.3639641.616787-2.6070557 1.8952026-.0654907-.0204468-.1352539-.0296021-.2077026-.0110474-4.1420908 1.1118164-7.6352549 4.2280254-9.5830088 8.5493145-1.7717466 3.9313739-.9067869 8.4760402 3.1499024 10.1982425zm4.3310556-2.2924805c.3077068 1.3529358-1.041172 2.5721436-3.3725595 1.8461914 1.3654156-3.3388404 3.1020803-3.0273666 3.3725595-1.8461914zm17.1757813-14.8447246c-.2343597.4352093-.9036407.0884457-.6599731-.3499756.6256981-1.1707058.2288132-2.7133541-1.0599976-3.3800049-.4397697-.2198849-.0998611-.8899727.3399658-.6699829.7700195.3899536 1.3599854 1.0899658 1.6199951 1.9099731.25.8200074.1699829 1.7299805-.2399902 2.4899903zm2.3549805-18.7167978c.5610352-.3051758 1.1977539-.3554688 1.7475586-.1396484.3107834.122365.6138725-.191843.4819336-.4975586-1.0788383-2.4896221 1.5506477-6.1032476 4.1484375-6.4384761 2.2490234-.2900391 4.5419922 1.3320313 5.0234375 3.5395503.0775261.3592482.5763702.4016209.7138672.0600586 1.2673073-3.1389084 6.3302269-3.8364062 7.8120117.128418.4140625 1.1079102.3891602 2.2978516-.0688477 3.2646484-.1519699.3203363.1861191.6489716.4970703.5004883 1.7143555-.7973633 3.9526367-.3339844 5.2075195 1.0820313 1.2539063 1.4160156 1.4458008 3.6943369.4458008 5.2998056-.090332.1455078-.0708008.3334961.0473633.4575195 1.7802734 1.8603516 2.2900391 4.8017578 1.2407227 7.152832s-3.578125 3.9575195-6.1523438 3.8525391c-1.4678345-.0468807-3.1632576-.5327473-4.5600586-.0224609.1807938-1.1226349.1223183-2.7672234.012207-3.9091797-.1054688-1.0966797-.1889648-1.9628906.4433594-3.0068359.2026672-.3348446-.183567-.7217712-.5195313-.512207-1.012207.6313477-2.4541016.5166016-3.3535156-.2685547-.8994141-.7856445-1.2070313-2.1987305-.715332-3.2871094.2039146-.4523659-.4762344-.7581825-.6831055-.3095703-.3832169.8462658-3.2849007-.1576366-4.0908203-.6464844-2.1995087-1.3334084-2.3995781-3.3641472-3.1171875-2.8808594-1.4326172.9677734-2.6147461 1.2519531-3.722168.8901367-.3955078-.1289063-.7714844-.3613281-1.0878906-.671875-1.1215934-1.1029158-1.1834754-2.859046.2495118-3.637208zm-1.2001953 3.6483163c1.1645164 1.6486244 3.3160133 2.2093544 5.8774414.5904541.8375244 1.1628132 1.3757706 1.9530373 2.6118164 2.7026367.4980469.3017578 2.824707 1.3164063 4.199707 1.0229492-.1324425 1.1353436.2711372 2.3718529 1.2538452 3.1889038-1.2584457-.458107-2.5872269.2291698-3.0521851 1.3604126-.187561.4578304.5048981.7463951.6943359.2851563.2573242-.628418.9467773-1.0610352 1.6142578-1.0385742.6777344.0258789 1.3208008.5131836 1.5297852 1.1586914s-.0273438 1.4169922-.5615234 1.8349609c-.3940811.3079491.0774803.8928757.4619141.5908203 1.0787621-.8441048 1.3355331-2.6090374.1221313-3.6983032.756897.3344727 1.6212769.4178467 2.4232788.2070923-.3849678 1.1945248-.1064377 2.259201-.0498047 3.4941406.0737305 1.6245117-.0463867 3.1948242-.2578125 3.425293-.3778496.3216953.1078415.8923473.4863281.5712872.3505249-.2987671.7607422-.4556255 1.2098389-.5297222.0195961.2791576.2998009.4166279.5235596.3163433.5424805-.2431622 1.2885742.0263672 1.5927734.5766602.3007813.5444336.1811523 1.3139648-.2783203 1.7905273-.9143448.9473572-2.6726341.6531143-3.4228516-.8339844-.2221909-.4420395-.8939438-.106636-.6699219.3378906.1029053.2039185.2271729.3942261.3659058.5709839-4.7116699 3.3471565-11.3743286 3.1602592-15.871582-1.4747925 2.1391106-3.1732712-.0547638-7.2253132-3.3624268-7.6257915-.206726-3.2746582.7431031-6.5530396 2.5595094-8.8240357zm-12.5175782 11.0098877c.5113392-.9820309 2.9591179.0063 2.6166992.9794922-.090332.2578125-.4287109.4287109-.7475586.5620117-.6979275.2916069-1.4396343.514637-1.8442383-.1289063-.2451171-.3906249-.255371-.9716796-.0249023-1.4125976zm-2.3305664 1.8115235c.3869019-.3381348.9345093-.4512329 1.4992676-.50177.2111187.7417049.7956009 1.2693481 1.6174316 1.2693481.4810944 0 .9357853-.1635227 1.3720703-.3452148.4711914-.1972656.9780273-.4707031 1.1665039-1.0063477.013855-.0394897.008667-.0788574.0180664-.1184692.8849621-.0388451 2.0105991-.0822983 2.9316406-.1769409.2900391-.0268555.7041016.2924805.9165039.5947266.5038013.756258.1956177 1.8576736-1.1025391 2.2646484-.7455635.23876-1.4579506.1629639-2.5131836.2353516-.2075195.0146484-.4165039.0288086-.625.0366211-4.1280155.1413937-4.5665703.2024422-5.0976563-.1079102-.3535156-.2075195-.6074219-.6088867-.6455078-1.0146484-.0312498-.419922.1459963-.8530274.4624025-1.1293946z"/><path d="m43.4528198 10.6485415c3.9258652.5201902 5.6966705 5.9887705 10.1757813 5.9887705.6816406 0 1.3681641-.1542969 1.9931641-.5351563.4238968-.2587891.0333138-.8980169-.390625-.640626-1.2773438.7807627-2.9213867.3740234-4.0336914-.2666016-2.5661507-1.4797411-4.3455849-4.8531399-7.6459961-5.2895508-.2011719-.0307617-.394043.1171875-.4208984.3222656-.0273439.2055665.1171874.3940431.3222655.4208986z"/><path d="m59.882019 27.1817455c1.3422852-2.0117188 1.6376953-4.6645508.7709961-6.9233398-.1756058-.4628544-.8783722-.1956425-.7001953.2685547.78125 2.0351563.5151367 4.4257813-.6948242 6.2387695-.2745743.4124451.3486748.8290405.6240234.4160156z"/><path d="m11.5446157 25.1880932 5.4980478-.7172852c.2055664-.0268555.3500977-.215332.3237305-.4204102-.0268555-.2055664-.2226563-.3510742-.4204102-.3237305l-3.9692392.5180664c3.4488058-2.3947334 3.7844706-2.4807396 3.8339853-3.1523438.0352898-.4862385-.0735664-.5170822-2.3261728-3.9838867 1.3886719.7602539 2.9399424 1.2426758 4.505372 1.3891602.2867508.0217228.4879665-.2588539.3813477-.5166016-.8369141-2.0273447-1.4106445-4.1425791-1.7114258-6.3076181 1.0288086 1.4038086 2.2490234 2.6484375 3.6420898 3.7114258.2683125.2055635.6437645-.0212374.5991211-.3486328-.2226563-1.6279297-.1132813-3.2988281.3139648-4.8852539.8476563 1.9213867 1.3730469 3.9541016 1.5649414 6.0561533.0451355.4872494.7917824.4293537.7470703-.0683594-.2294922-2.5131845-.918457-4.9311533-2.0473633-7.1870127-.1525364-.3050699-.5816097-.2597818-.6889648.0424805-.5942383 1.6738281-.840332 3.4682617-.7241211 5.2397461-1.4282227-1.2080078-2.6450195-2.6289063-3.6254883-4.2329102-.2042599-.3356476-.7248402-.1667261-.6938477.2250977.2045898 2.5556641.7739258 5.0581055 1.6943359 7.4482431-1.809082-.2788086-3.567872-1.0297852-5.0097666-2.1484385-.3323498-.2573757-.773778.1474781-.5444336.5004892 3.2681646 5.0300655 3.1870432 4.8536549 3.1752939 5.0112305-.0168781.2299461-.1458492.2527866-4.7802744 3.4702148-.3188273.2213156-.1302411.7277453.2622073.680176z"/><path d="m21.9464722 22.805769c-.4942932-.0800285-.6141357.6537094-.1298828.7382813.050539.0088882 2.4581661.4375 2.5092773.4375.4538918 0 .5137768-.6644917.0649414-.7441406z"/><path d="m25.4660034 20.939558-1.1303711-.8862305c-.3902206-.3080082-.8530483.2837925-.4628906.5898438l1.1303711.8862305c.3894596.3065948.8538704-.2843189.4628906-.5898438z"/><path d="m39.3712769 30.9166088c.9573746 3.0008297 4.7299423 2.0859356 4.7460938-1.2138672.0190124-4.5276603-6.60318-4.6162548-4.7460938 1.2138672zm3.9960937-1.2172851c-.0119286 2.4302464-2.5829124 3.1799946-3.28125.9897461-1.5028953-4.7123318 3.2968445-4.3717919 3.28125-.9897461z"/></g></svg>