<svg id="Layer_1" enable-background="new 0 0 75 75" viewBox="0 0 75 75" xmlns="http://www.w3.org/2000/svg"><g id="Going_School" fill="rgb(0,0,0)"><path d="m33.0401573 56.9224968c.6367188-.0598755 1.157959-.5735474 1.4135742-1.1598511.2556152-.5862427.2947998-1.2404785.3303223-1.8790894 2.3599968 4.0420227 3.7581711 2.9057045 7.9509277 1.1815186 1.1801033-.4853745 1.6736984-1.1072464.6955566-2.7913818-.59375-1.0221558-1.3450928-2.2300415-2.2089844-3.0440063-.4147949-.3907471-.9816895-.6603394-1.5466309-.5856934-1.304447.1728096-5.3437384 2.9179916-10.4790038 1.5080566-.9545898-.262085-1.7092285-.7817383-2.6031494-1.164978-.9342041-.4005127-1.1082764.0462646-1.19104.9572144-.1114502 1.2272949-.1296387 2.4643555-.0614014 3.6947021.0992336 1.7870293.6489029 2.2100983 2.1783447 2.4555054 5.3751984.8625374 5.2003365.8581123 5.5214844.8280029z"/><path d="m30.5720177 57.5782585c-.2080078 1.2431641-1.0039063 2.4912109-2.2373047 3.512207-.9603271.786438-2.0643311 1.3702393-3.2834473 1.9589844-.1613884-1.0501289-.8237362-1.2978249-1.5788574-.8696289-.4970703.2802734-.7314453.8017578-.8955078 1.2749023-.5585938 1.6088905-.7324219 3.3505898-.5029297 5.0356483.2167454 1.6044006 1.4334774 1.6694489 2.0478516.9384766.2324219-.2783203.3408203-.6147461.4248047-.9077148.5159569-1.7984238.5308857-3.0337524.5491943-4.6594276 1.3771973-.6574097 2.616333-1.2920532 3.7154541-2.1921387.9716797-.8046875 2.1953125-2.1459961 2.5009766-3.9672852.080883-.4829902-.6541081-.622837-.7402344-.1240234zm-6.7460938 10.736332c-.0654297.2294922-.1416016.4672852-.2802734.6328125-.1064453.1279297-.2646484.1967773-.3720703.1723633-.823204-.2099686-.4339905-5.6648521.6679688-6.2871132 0 0 0 0 0-.0004883.1464844-.0825195.2363281-.1020508.28125-.1020508.2601547 0 .2233295 1.2212944.2148438 1.479496-.0039064.1240234.0454234 2.1611557-.5117189 4.1049805z"/><path d="m41.3314171 62.7681389c.6403809-1.27771 1.1479492-2.6428833 1.505249-4.0795288.1767578-.7260742.3417969-1.7792969-.2617188-2.5327148-.3103485-.387352-.8956108.0804863-.5859375.46875.3974609.4956055.2578125 1.3144531.1191406 1.8852539-.4343262 1.7449951-1.0950928 3.3842773-1.9591064 4.8766479-2.7383118 1.7690926-1.6730309 4.3565483.694458 3.2273598 1.0742188-.5131836 2.0644531-1.1811523 2.9433594-1.984375 1.4564629-1.3257599.2682152-2.9674111-2.4554443-1.861393zm1.9495849 1.307682c-.8242188.753418-1.7539063 1.3798828-2.7617188 1.8613281-1.4784508.705864-1.6112061-.4848404-.5566406-1.4760742.3004837-.2820206.758007-.5500183.6571045-.4874306.7099609-.4403687 2.0366707-1.0229607 2.7921143-.7576904.4611244.1601601.2310791.5293198-.1308594.8598671z"/><path d="m18.5554161 17.5421257c-.9219284-.4909744-1.9717731.1167831-1.7353516 1.6376953.4270153 2.7529926 3.0089436 4.5525398 3.9454346 4.5713501-.0015869.0009766-.003418.0009155-.0050049.0018921-.1757813.109375-.2294922.3408203-.1201172.5166016 2.4970703 4.0078125 5.9521484 7.4213867 9.9912109 9.871582.0516357.03125.1090088.0418091.1658936.0462646-.1281738.3546143-.2487793.7121582-.3875732 1.0626221-2.2777634 5.7535706-4.3707905 7.4803963-4.9658203 9.3305664-.3300781 1.027832-.2011719 2.059082.3447266 2.7587891.4941406.6333008 1.2451172.9335938 1.9833984 1.1640625 1.8339844.5717773 3.7880859.8657227 5.7216797.8657227 4.3852997 0 5.3808975-1.1201591 6.4980469-4.2631836.1659431-.4674416-.5393219-.7168427-.7070313-.2509766-.9074326 2.5617523-1.5766563 3.502758-4.4658203 3.7158203-2.2773438.1665039-4.640625-.1030273-6.8242188-.7832031-.6210938-.1943359-1.2470703-.4389648-1.6142578-.9091797-.3935547-.5039063-.4765625-1.2773438-.2216797-2.0683594.5633755-1.7573776 2.6263771-3.418766 4.9482422-9.2836914.3096943-.7789307.7089787-1.8411484.8994141-2.6625977.3310699-1.440321.4134674-1.5979958 2.0390625-.7841797 1.4985886.7520599 3.4503288.9683838 5.1196289.807312.7281799.0564728 1.0688248.0364685 1.498291.0120239.0499268.0238647.1046143.0411377.145752.0776367.2421875.2138672.2802734.6425781.2851563 1.0742188.0185547 1.6220703-.0927734 3.2617188-.3300781 4.8730469-.0730247.4946899.6703911.5934181.7421875.109375.1563721-1.0608521.2388916-2.1329346.2872314-3.2053223 1.2428436 1.0636063 1.2249069 1.185791 1.4744873 1.185791.3443489 0 .505703-.427166.2490234-.6547852l-1.2783203-1.1376953c-.1217041-.1091309-.291748-.1204834-.4266357-.0470581.0192337-.7826347.1311607-1.72472-.2089844-2.3695068 2.8966103-.4350357 5.1412125-2.0349922 6.227417-4.7553101.1828842-.4619026-.5131836-.7373581-.6972656-.2783203-1.1045761 2.769558-3.4672089 4.1437588-6.3824463 4.3613892-.4677696-.1291351-.9847832-.0592995-1.5043945.0003052-3.4406738-.2495651-6.5789032-2.0972939-8.2416992-4.5137329.1241894-.3059616-.1776237-.6101112-.4857178-.4890747-.2304688.09375-.5107422.0820313-.7695313-.0297852-.9308605-.4039574-.6838188-1.5837536.0361328-1.8544922.3595219-.135498.3101025-.6661682-.085083-.7176514 1.1103649-.6453648 1.3021812-2.1318645.6973877-3.12854 2.1335907-.450861 3.3732948-2.6333733 2.6025391-4.7421875 1.4632263.087513 2.8356667-.8253784 3.0791016-2.4921875.4730034.298912 1.0790443.2787819 1.5419922.0131836 1.3798828 1.315918 3.6064453 1.5766602 5.2519531.6396484.5375175 1.6869183 2.2294121 3.069891 4.1702881 2.7028198.6961861 2.1120453.5806961 3.9059715.713501 5.7439575.0883713 1.1824284.1089478 1.7055817-.1025391 2.7612305-.0987854.4892273.6387482.6318893.734375.1484375.3374329-1.6586132.1119881-2.2147846.0450439-4.324585.0974121-.0076294.1931152-.0483398.2606201-.1300049.2900391-.3510742.5898438-.7333984.7734375-1.1992188.5583344-1.4134407-.4051971-2.5799198-1.4604492-2.3829346-.06604-.2810059-.1427002-.5551758-.2299805-.8230591.9929199-.4229736 1.7493896-1.2645264 1.9697266-2.2300415.2761116-1.1943264-.3299484-2.5165691-1.3496094-3.1767578 1.1540489-.8099947 1.1186943-2.4260874.1240234-3.5371094-1.2687721-1.4216356-4.0004272-1.766777-5.9238281-1.3022456.108532-.9741616-.6599388-1.6304784-1.625-1.8442383-.4900894-.1015182-.6428909.6255817-.1621094.7324219.2929688.0644531.6914063.2099609.9257813.5302734.19104.2699471.1554794.764009-.1171875.8955078-.4361572.2087488-.139164.8680015.3007813.6860347 2.4610481-.9799275 5.1329346-.2177548 6.0429688.8017578 1.0684662 1.195879.4340553 2.6243305-.6240234 2.6362305-.0722656-.0102539-.1455078-.0170898-.2197266-.0205078-.4468231-.0410128-.5551605.6544809-.0869141.7431641.0820313.015625.1650391.0244141.2480469.0268555 1.1351738.1903353 1.9999504 1.5154696 1.7363281 2.6606445-.1884766.8227539-.9003906 1.5351563-1.8134766 1.8149414-1.7943459.5360603-3.451458-.952672-3.7216797-2.5830078-.0456696-.2760811-.3723106-.4101171-.5996094-.2348633-1.4296875 1.1069336-3.7373047.8803711-4.9384766-.4814453-.1489258-.1691351-.4038277-.1610794-.5458984-.0170898-.2080078.206543-.5488281.2773438-.8183594.1660156-.1865234-.0727539-.3544922-.2626953-.4990234-.5634766-.1729927-.3602161-.7309303-.2312212-.7128906.1791992.0449219.9912109-.140625 1.6186523-.6162109 2.0942383-.5888672.5708008-1.5351563.7734375-2.3017578.496582-.3411407-.1224604-.6406574.2619877-.4394531.5605469.5664063.8496094.6230469 2.0205078.1425781 2.9116211-.4833984.8808594-1.4755859 1.4658203-2.4794922 1.4658203-.4668846.01297-.5421619.4839687-.2685547.6796875.7164326.513092.7745686 1.7423973.1376953 2.3256836-.6446705.5770206-1.8489494.4161682-2.2958984-.3598633-.3250542-.5551071-.3133183-1.3291988-.7675781-1.9672852-.4717159-.6669064-1.2106285-.897068-1.7246094-1.3813477-1.1937084-1.0836182-.6556969-3.1160145.9462891-3.4555664.2608414-.0552979.3810673-.3583965.2314453-.5776367-.7011719-1.03125-.7382813-2.496582-.0917969-3.5610352.6621094-1.0644531 1.9853516-1.6958008 3.2236328-1.5361328.2266846.0318155.4387798-.1564016.421875-.3994141-.0966797-1.3198242.7568359-2.6845698 1.984375-3.1738276 1.2470703-.4931641 2.7763672-.1064453 3.6337891.9213862.162693.1938267.4779739.1778231.6113281-.0507813.7490234-1.2773433 2.1533203-2.1650386 3.6640625-2.3164058.5028687-.0500488.4100227-.8104415-.0742188-.7460938-1.5800781.1582031-3.0595703 1.0151367-3.96875 2.2739258-1.0917969-.9946289-2.7558594-1.328125-4.1425781-.7788086-1.4111328.5620117-2.3945313 1.9877925-2.4619141 3.4951167-3.0401192-.0528898-5.0635242 3.1265774-3.6699219 5.8691406-1.9297447.8228359-2.252594 3.2844334-.8164063 4.5869141.4976139.4692955 1.2863064.7911873 1.6210938 1.2646484.3105965.4355297.3850517 1.317812.7304688 1.9091797.3867188.6713867 1.1748047 1.0791016 1.9765625 1.0791016.0836182 0 .1661377-.024292.2496338-.0333252.0192871.0668945.0380859.1333008.0588379.1993408-1.1474857 1.2586021-.1534977 3.055378 1.4284668 2.9381104.8402405 1.2692776 2.0261307 2.3281898 3.3444824 3.1418457-2.1630497-.8746452-2.0740318.8576469-2.6140137 2.4467773-.7834339-.6132965-5.8133202-3.3051643-9.7642822-9.645874-.0571289-.0917358-.1470947-.1479492-.2445068-.1675415.9535179-.3276672.2460041-1.9155521-.1529541-2.8397827-.0803242-.1601238-.5124664-1.3966541-1.6083984-2.6938477v-.0004883c-.1972658-.2338862-.4208986-.4716792-.7158205-.629394zm30.2158203 2.703125c-.0905762.229187-.2310791.4406738-.3826904.6450806-.0407715-.6506348-.1118164-1.3297729-.2310791-2.015625.4852638-.0682049.9441872.5318794.6137695 1.3705444zm-27.9736328 2.7587891c-.0390625.0092773-.2890625.0219727-1.1826172-.6318359-2.6016445-1.9087143-2.5654545-5.6644382-.9160156-3.7167969 1.1901379 1.4117927 2.0914421 3.8166332 2.0986328 4.3486328z"/><path d="m46.0124474 35.8903313c-.5265694.0145531-.6851082.5363464-6.3800049 6.5499878-.0700684.0700073-.1400146.1499634-.2099609.2199707-.5824966.7111511-1.0284653-.115036 6.2199707 6.2800293.2299805.2099609.5899658.1799927.7900391-.0499878l2.7346191-3.1292114c.6617699.639637 1.7754402.5666504 2.4840088-.0603027.8428688-.743515 1.0877953-2.2829208.1469727-2.9313354l.6643066-.7591553c.2000732-.2300415.1800537-.5900269-.0599365-.7900391-5.93816-5.1608353-6.1847116-5.4448472-6.3900147-5.3299561zm2.3499755 6.1499633-.7800293.9500122c-.1799316.2199707-.5100098.25-.7299805.0599976l-1.8299561-1.5900269c-.210083-.1900024-.2401123-.5099487-.0500488-.7199707l.7700195-.8800049c.1800537-.2000122.4899902-.2299805.7000732-.0599976.5.3900146 1.3598633 1.1099854 1.8498535 1.5300293.220093.169983.2399904.4899903.0700685.709961zm2.791626 3.0985108s0 0-.0009766.0004883c-.3330078.2958984-.8193359.3979492-1.2011719.2529297-.3563423-.1418762-.6382103-.5481644-.578125-.9482422.0898628-.6219368 1.2417831-1.5676537 1.9775391-1.0771484.5337372.3387183.2908478 1.3420753-.1972656 1.7719726z"/><path d="m45.4883995 20.5666618c0-.5820923-.4719238-1.0540161-1.0539551-1.0540161-.5821533 0-1.0539551.4719238-1.0539551 1.0540161 0 .5821533.4718018 1.0540771 1.0539551 1.0540771.5820313.0000001 1.0539551-.4719237 1.0539551-1.0540771z"/><circle cx="36.585" cy="22.443" r="1.054"/><path d="m44.1364708 24.6593132c-.0839844-.0551758-.234375-.078125-.3330078-.0551758-.5526161.1324768-.1732559.9926548-1.0751953 1.5366211-1.1764717.7087383-2.7027397.441206-3.5732422-.5507813-.2459908-.2756405-.6920929-.0739994-.6552734.2866211.0947266.8911133.328125 2.1616211 1.2646484 2.9003906 1.7880898 1.4088001 4.7272301.0074883 4.6796875-2.9428711-.0036621-.3793449.0058555-.9778575-.3076172-1.1748046zm-4.7255859 2.1083984c1.542038.9302139 3.4647369.4996033 4.2578125-.4536133-.3185158 2.5117207-3.5211411 3.309517-4.2578125.4536133z"/><path d="m46.0729942 61.8848991c.101532 0 .0980263-.0137329 8.9345703-1.5991211.4818611-.0864601.3642044-.8195686-.1328125-.7382813l-8.8681641 1.5932617c-.4472732.0802537-.38908.7441407.0664063.7441407z"/><path d="m56.6061974 64.0352936c.4933052 0 .4976158-.7430458.0058594-.7500038l-9.3515625-.1381836c-.5320549.0491562-.4724121.7434807-.0117188.75.6152267.0090866 8.9592476.1322822 9.3574219.1381874z"/><path d="m52.881588 66.6895905-6.8583984-1.5932617c-.479866-.1199722-.6556702.6172791-.1699219.7304688l6.8583984 1.5932617c.4789352.1156005.6560631-.6171952.1699219-.7304688z"/><path d="m52.1667442 24.3770866c-.468338-.1510391-.7011948.565567-.2246094.7158203.91642.2891102 1.9957962.0220432 2.6728516-.6899414 1.1701927-1.2253704.1954689-3.1448364-1.8896484-1.9467773-.4278641.2478333-.0590401.8965797.375.6503906.2216797-.1279297.4589844-.2504883.6904297-.2817383.6924782-.0941219.7341309.5862961.28125 1.0610352-.4707032.4951172-1.2529297.6962891-1.9052735.4912109z"/><path d="m58.1804161 27.317028c.0849609-.1889648.0019531-.4111328-.1875-.496582-1.8232422-.8256836-3.9648438-.949707-5.8720703-.3452148-.4780388.1514587-.2369919.871294.2265625.7148438 1.734375-.5498047 3.6806641-.4355469 5.3369141.3139648.1881256.0848407.4107894.0015888.4960937-.1870118z"/><path d="m54.9470177 30.1178093c.2819939.3966713.9019623-.0269718.6113281-.4345703-.5498047-.7729492-1.546875-1.1904297-2.4853516-1.0458984-.4795914.0768719-.386322.8075829.1171875.7412109.6552735-.1040039 1.3671875.1923828 1.756836.7392578z"/></g></svg>