<svg id="Layer_1" enable-background="new 0 0 75 75" viewBox="0 0 75 75" xmlns="http://www.w3.org/2000/svg"><g id="Graduated" fill="rgb(0,0,0)"><path d="m36.5059242 62.683815c-.5846634.4581947-.5979347 1.3314667.4985352 1.7451172 1.3777046.5187149 4.4067535 1.0792007 5.2265625-.1337891.7041397-1.0460243-.2300034-1.936161-1.4755859-2.1533203-.2734375-.0480957-.5579224-.0788574-.8497925-.0925293l-.2410278-9.5646973c-.0053711-.2060547-.1572266-.3310547-.3842773-.3652344-.2070313.0048828-.3706055.1777344-.3657227.3847656l.2407837 9.5532227c-.6530762.0317383-1.3244629.1352539-1.9815063.3217773-.2114259.0595704-.45459.1367189-.6679689.3046876zm.8720703.4160156c2.153801-.6070709 4.9172173-.2407188 4.2314453.7753906-.1557617.2304688-.5014648.3535156-1.0576172.3769531-1.1064453.0478516-2.2446289-.1347656-3.2827148-.5244141-.6081963-.2300148-.4897079-.4584122.1083984-.6269531.0004883.0000001.0004883.0000001.0004883-.0009765z"/><path d="m47.767643 64.6437759c1.3721962.5172119 4.4055061 1.0820236 5.2265625-.1328125.3208008-.4765625.2626953-.8720703.1572266-1.1191406-.3607826-.8476028-1.5656166-1.0845528-2.4857178-1.126709l-.2310791-9.5695801c-.0048828-.2041016-.171875-.3662109-.375-.3662109-.0029297 0-.0058594 0-.0092773 0-.2070313.0048828-.3706055.1767578-.3657227.3837891l.230835 9.5600586c-.6519775.0319824-1.3220825.1357422-1.9779053.3217773-1.3852768.3881188-1.4007187 1.5889435-.1699219 2.0488281zm.3740234-1.328125c2.4466591-.6896095 4.8467331-.1407623 4.230957.7753906-.1557617.2304688-.5014648.3535156-1.0576172.3769531-1.1088867.0439453-2.2441406-.1347656-3.2832031-.5263672-.5997658-.2227402-.494854-.4547348.109375-.625.0004883.0000001.0004883.0000001.0004883-.0009765z"/><path d="m41.59235 25.1750259c-.4184341 2.269558 2.033226 3.7340736 3.8100586 2.6162109.7739258-.4882813 1.1713867-1.4863281 1.012207-2.5410156-.019043-.1269531-.1020508-.2353516-.2197266-.2871094-.1176758-.0527344-.253418-.0400391-.3603516.03125-1.0703125.7207031-2.6069336.6962891-3.6547852-.0566406-.228237-.1621131-.5392569-.0290107-.5874022.2373047zm4.0917969.756836c-.2194748 2.0484467-3.0687981 1.9662628-3.3623047-.0429688 1.0463867.5 2.3022461.5166016 3.3623047.0429688z"/><ellipse cx="42.144" cy="21.566" rx=".664" ry=".824"/><path d="m46.3729286 22.4747086c.3665771 0 .6636963-.3688965.6636963-.8239746 0-.4552002-.2971191-.8240967-.6636963-.8240967s-.6636963.3688965-.6636963.8240967c0 .4550781.2971192.8239746.6636963.8239746z"/><path d="m37.1411781 21.9113541c.3296509.4564209.8505859.6761475 1.2630615.8355713.0009766.2529297.0036011.5063477.0206299.7591553.1210938 1.984375.7172852 3.5136719 1.8237305 4.6777344 2.4481621 2.5548611 6.5382996 2.7879448 9.3686523-.0673828.8121681-.8322563 1.6401024-1.6335602 2.2982178-2.6845703 1.8229332.4647923 3.0260696-1.4083977 2.0703735-2.6166992.4963989-.9932861.7037354-2.137207.6063232-3.284668 1.3887558.5131302 2.3423691 1.5335178 2.8078003 2.7382813.3723793.9706917 2.2180214-1.1701584 1.0053711-2.9384766 1.4221802.1017532 1.63517.2704697 1.8540039.0449219.0795898-.0830078.1171875-.1972656.1015625-.3115234-.1862602-1.3728752-1.352932-2.5543385-2.7666016-2.8378906 1.4971504-1.3178988 1.7181396-1.3031378 1.7099609-1.6220694-.003418-.1132813-.0581055-.2197266-.1494141-.2890625-1.0463867-.7880859-2.3847656-1.1757813-3.6689453-1.0537109-.9489136.0858154-2.5866089.5390625-3.243103 1.6655273-.9574394-.890029-1.8350677-1.3631201-2.8897095-1.7993164-.4610176-.1881714-.7441368.5044851-.2871094.6933594 4.3662872 1.8076172 5.6446915 5.6648302 4.3155518 8.5305166-.1352539-.057373-.2774048-.0891113-.4227295-.0980225-.7973709-.5773067-1.4687691-1.2264252-2.0881348-2.0623779-.1010742-.1357422-.2802734-.1845703-.4375-.1259766-.5224609.2041016-1.1669922.1162109-1.605957-.21875-.4541016-.3466797-.7109375-.9287109-.6547852-1.4833984.0400925-.3964424-.4866486-.571209-.6918945-.2353516-.7073212 1.140398-2.4733276.8376503-2.7436523-.4785156-.0657845-.3235321-.4864845-.4055176-.6733398-.1416016-.4541016.6425781-1.1245117 1.03125-2.1767578 1.2607422-1.1686172.2590561-1.7141266.3490067-2.6586914.8466797-.2629852-.3422146-.6506958-.43503-.8706055-.5234375-.2324219-.0800781-.4326172-.1503906-.5219727-.2792969-.3557892-.5538769.6557045-4.4223671 4.3696289-5.4775381.6450195-.1894531 1.2670898-.1982422 1.9257813-.2080078.1129837.0040817 1.9185066-.15874 3.9106445.3798828.4812889.1303244.6735191-.5939264.1962891-.7246094-1.7728233-.4790134-3.4367256-.3802528-4.1176758-.4052734-1.5975685.0229368-2.1026039.1670341-3.0927124.6137695-.7669983-1.9292421-2.9345818-3.3976965-5.2559204-3.2104492-.1137695.0087891-.2167969.0683594-.28125.1621094-.1801834.2620859.0206566.4024429.5405273 2.2880859-1.3410072-.5402231-2.96138-.1848478-3.8662109.8701172-.1566772.1822786-.1040268.465579.1137695.578125.907711.4677029.6924667.3562984 1.3852539.7138672-1.9890308.8163261-1.6084785 3.6156454-.7636719 3.0058584 1.0884666-.7926464 2.4469681-1.1133194 4.0629883-.7128906.1546021.0373535.3117676.0754395.4714355.1079102-.4114914 1.0557499-.7365494 2.2871132.2008667 2.8077393-.1723633.0994873-.331604.2208252-.4564819.380249-.4321287.5517576-.448242 1.3632811-.0375975 1.9306639zm15.1430664 2.8269043c.1714287-.3538094.3684921-.6274605.5696411-1.6557617.3809509.2565022.4266701.3359871.6240845.3193359.3193054.5731125-.1998443 1.4586124-1.1937256 1.3364258zm.5092163-9.2510977c.4674721-1.2281637 3.2731056-2.1825342 5.5137329-.8394775l-1.9394531 1.6289053c-.2888336.2447376-.0746422.7131958.2944336.6582031 1.1690025-.1652222 2.421978.6313267 2.8354492 1.7529297l-2.2314453-.2265625c-.444973-.029438-.5660439.5645485-.1767578.7207031.8334503.3363476 1.2640457 1.360815.7553711 2.2558594-.5830078-1.1152344-1.5410156-2.0087891-2.6972656-2.4980469-.2049637-.0880947-.3430862-.1331005-.6867065-.2600098-.2339936-1.0747871-.6983033-2.1048527-1.6673585-3.1925039zm-8.5477905 2.9534902c.6597824 1.1553478 2.1370468 1.5103836 3.262207.7226563.1435547.5.4458008.9589844.8642578 1.2783203.5737305.4384766 1.3535156.5869141 2.0585938.4101563.4745941.607254 1.1087036 1.2559586 1.7524414 1.7607422-.1267815.9503269-.4250565 1.5449142-.6779175 2.0178223-.1452293.0764503-.2115364.1969852-.1954346.361084-.6075478.9856243-1.4284592 1.784214-2.2262573 2.5986328-2.6224518 2.6440735-6.2332802 2.2263699-8.2919922.0751953-.9790039-1.0292969-1.5083008-2.4042969-1.6181641-4.2070313-.0673828-1.0039063.0136719-2.0361328.1235352-2.9638672.0351563-.0283203.0649414-.0634766.0878906-.1035156 1.5065347-1.0506077 3.3871537-.5451451 4.8608399-1.9501954zm-11.2675781-1.9833984c.0542717-1.0012512.9637985-1.642375 1.8745117-1.4736319.4246788.0755491.6192856-.5093946.2363281-.703125-.6370621-.3239965-1.2075691-.6198492-1.996582-1.0273438.9519196-.7157097 2.4341278-.7065487 3.3291016.0820313.2778893.2486935.7155151-.0268936.6074219-.3886719l-.7285156-2.4287109c1.982132.0668812 3.5683899 1.4420738 4.0628052 2.8259277-.2414551.1436768-.4901123.2780762-.7088013.4504395-.1000443.0987835-1.0999298.7619333-1.8953857 2.289794-1.084591-.1765375-2.7023851-.8040915-4.7808839.373291zm5.6088867 3.682373c-.0715332.5662842-.1322021 1.1746826-.1633301 1.8045654-.2852173-.125-.5254517-.2657471-.6750488-.47229-.4195099-.5813102.029583-1.4543819.8383789-1.3322754z"/><path d="m56.1167641 15.9465113c.4696655.1335325.6775017-.5986843.1904297-.7246094-.8603516-.2285156-1.8183594-.015625-2.5043945.546875-.3859367.3186636.0945206.889987.4765625.5800772.5034179-.413085 1.2080077-.5673819 1.8374023-.4023428z"/><path d="m40.0342445 17.2570572c-.262558.4219742.3746796.8164711.6367188.3964844.7436523-1.1933594 2.0161133-2.0488272 3.4033203-2.288085.4893036-.0842819.3621521-.8221273-.1269531-.7382813-1.5952149.2744141-3.0581055 1.2578125-3.913086 2.6298819z"/><path d="m5.57868 33.51194 6.784668-1.2731934c-1.0421352 3.0409737 2.7568951 5.3476868 2.8642578 5.5046387.7827148.6113281 1.5922852 1.2431641 2.1459961 2.0439453.6381226.9213867.8984375 2.0776367.7788086 3.1928711-.2327271.0058594-.4664917.050293-.6745605.1525879-1.359436.6679688-3.2400513 4.6884766-.7486572 5.2126465.5253906.1105957 1.1416016-.2241211 1.2265625-.7539063.1035156.2866211.2124023.5820313.4223022.8027344.2098999.2211914.5501099.3483887.8272095.2216797.559824-.2559814.4372253-1.0087471.4335938-3.4108887-.0010986-.6960449-.0429688-1.4853516-.5726318-1.9370117-.046875-.0400391-.1049194-.0603027-.1567993-.092041.1699829-1.3256836-.1583862-2.7172852-.9191284-3.8154297-.6186523-.8945313-1.4736328-1.5625-2.3007813-2.2089844-.095233-.1375198-3.6377935-2.3186646-2.5411987-4.8134766.4451294 1.0610352 1.0908813 2.0253906 1.741394 2.9775391l.2073975-.1552734c.0009766.0009766.0013428.0024414.0023193.003418.8600464.8701172 4.3900146-.9599609 7.8800049-4.1098633.4685059-.4213867.9101563-.8447266 1.3256836-1.2641602.0184326.0258789.0345459.0534668.0601807.074707 3.6551113 3.0380478 8.6015186 4.2610054 13.2285137 3.3076172.4749794-.0981903.3493156-.8212395-.1513672-.734375-4.3530273.8964844-9.1806622-.3095703-12.5976543-3.1494141-.0106812-.0090332-.0238037-.0114746-.0350952-.019043 1.9087524-2.0253906 3.0940552-3.8901367 3.1122437-4.9086914.0005493-.0007324.0014038-.0004883.0019531-.0009766.1352539-.1572266.1176758-.3935547-.0395508-.5292969-.5018311-.4327393-1.0043335-.8459473-1.5274048-1.2331543l4.2451782-4.8674316c.2253418-.2581387.0163383-.6645966-.3432617-.6162109-16.6496696 2.7577972-15.8446264 2.4768524-16.0180664 2.7275391-9.315056 13.6527177-9.3082721 13.1055604-9.0458986 13.506836.085926.1321945.2440748.1931686.383789.1640625zm18.4307862-6.7580566c-1.0599575 2.4986477-3.2548676 4.1000977-3.6300049 4.1000977-.3763657 0-.5207462-.4939823-.2000122-.6901855 1.3800049-.8798828 2.5-2.1899414 3.1400146-3.6998291.0800171-.2000732.2999878-.2800293.4899902-.2000732.1900025.080078.2800294.3000487.2000123.4899901zm-4.1500244 1.1301269c-2.630188 2.3740234-4.4863281 4.8034668-4.8739014 6.2336426-2.656353-4.0141907-1.8725567-5.8791924.4969482-8.3664551 3.7687607-4.0014915 6.7949543-5.5293236 11.0213013-2.1030273-1.5370483.3549804-4.0963135 1.9432373-6.6443481 4.2358398zm-5.0922852-7.4853515 14.5859375-2.3779297-3.6088867 4.1386719c-4.0974121-2.6597652-7.4772396-.4566841-10.8061523 3.0761719-.8623047.9042969-1.6694336 1.8095703-2.0712891 2.9404297-.3680649 1.0126953-.3456411 2.1708565-.059082 3.2167969l-6.472168 1.2148438z"/><path d="m69.8008499 21.4758072c-.2285156-.6787109-.9335938-1.1582031-1.715332-1.1660156-1.5971832.0479794-2.8240814 1.5595703-2.9414063 3.1513672-.0388794.5305176.0878296 1.7810059.6672974 2.3186035-1.5963211 5.4930344-6.6978302 8.9665337-12.1204262 8.7429199-.1850586.0048828-.3808594.1523438-.3891602.3603516-.0083008.2070313.152832.3808594.3598633.3896484 3.0321083.1067009 5.878231-.82658 8.1552734-2.5068359 2.2553749-1.6635742 3.9084511-4.0458984 4.6995888-6.7304688 1.201088-.0957813 3.8345948-2.9230251 3.2843018-4.5595703zm-3.3675537 3.8187256c-.0266113-.0147705-.0513916-.0323486-.0821533-.0404053-.005249-.0014648-.0105591.0002441-.0158081-.0009766-.309082-.2341309-.4821167-1.2043457-.4431763-1.7373047.0880051-1.1971836.9874039-2.3901768 2.1855469-2.4560547.4604492.0048828.8862305.2802734 1.012207.6552734.3991013 1.1837922-2.0669098 3.6116525-2.6566162 3.5794679z"/><path d="m6.1997738 23.621315c.0481915.0083733 3.08634.5410156 3.1352539.5410156.4542065 0 .5152683-.6664028.0639648-.7441406l-3.0712891-.5351563c-.199707-.0351563-.3979492.1015625-.4335938.3046875-.0351561.2041016.1015626.3984376.3056642.4335938z"/><path d="m9.594305 20.2902603-1.5009766-.9169922c-.4222846-.2589703-.814146.3808975-.390625.640625 1.5257301.9101334 1.5067596.9716797 1.6953125.9716797.1264648 0 .2495117-.0634766.3203125-.1796875.1079102-.1767578.0522462-.4072265-.1240234-.515625z"/><path d="m9.9551449 17.4318619c-.1660156.1240234-.2001953.359375-.0766602.5253906l1.1064453 1.4824219c.2894802.3910866.9004612-.0455818.6015625-.4472656l-1.1064453-1.484375c-.1235351-.1660157-.3583984-.1992188-.5249023-.0761719z"/><path d="m35.9594765 47.2338638c-.5169945 2.8571892.1984367 4.0596466 3.4099731 4.1999512 3.460022.1201172 6.9100342.0600586 10.3599854-.2099609.9100342-.0698242 1.8800049-.1699219 2.5900269-.7299805 1.1099854-.869873 1.25-2.4799805 1.2299805-3.8798828-.0599976-4.75-.7999878-9.4699707-2.1699829-14.0100098-1.2130661-3.7674007-2.8885498-.3779564-9.4000244-1.6799316-.6799927-.1401367-1.6599731-.6801758-2.3399658-.4001465-.8099976.3200684-1.0200195 1.4099121-1.1500244 2.1599121-.0923349.5248985-2.250622 12.8902206-2.5299684 14.5500488zm6.2799682-11.619873 1.8099976.1098633c.2546616.0283165.2076721-.1381569 1.4000244-1.6398926.1499634-.1899414.4400024-.130127.5.1101074.4549026 1.8558083.3294258 1.9544449.5800171 2.079834.1036873.0396538 1.8036385.6898003 1.6999512.6501465.2200317.0898438.25.4099121.0400391.5400391-1.4308968 1.0075035-1.6900024 1.0028496-1.6900024 1.2897949l-.1099854 1.920166c-.0100098.25-.2900391.3898926-.4700317.2299805l-1.3800049-1.2299805c-.0700073-.0600586-.1699829-.0800781-.2600098-.0500488l-1.7600098.5300293c-.2299805.0698242-.4199829-.1601563-.3299561-.4001465l.7099609-1.7897949c.0815392-.2717857-.0612221-.2562828-1.0099487-1.880127-.1200561-.209961.0299683-.4799805.2699585-.4699707z"/></g></svg>