<svg id="Layer_1" enable-background="new 0 0 75 75" viewBox="0 0 75 75" xmlns="http://www.w3.org/2000/svg"><g id="Hand_Drum" fill="rgb(0,0,0)"><path d="m63.0019989 8.1950788c-1.0400391-1.4700928-2.6900635-2.4899902-4.460083-2.789917-1.7799072-.3000488-3.6699219.1298828-5.1398926 1.1699219l.453125.6757813c-2.1494141-1.5063477-5.145874-1.9351807-7.7932129-1.3258057-2.6499023.6199951-4.9599609 2.210083-6.5200195 4.210083-.8758545 1.1247559-1.8287354 3.5065918.095459 4.2780762-.6010742 1.8630362-.5993652 3.9819326.0211182 6.4436026.0615234.2460938.1230469.4814453.1943359.7167969.9755859 3.2402344 4.4716797 5.7832031 8.3144531 6.0458984 3.5097771.2383194 6.9373932-2.2088566 8.1124268-5.1784668.3405571-.1527195.3019218-.2222404.2922363-.0358887 1.4699707-1.0200195 2.1201172-2.9400635 2.0700684-4.7301025-.0583496-2.0010977-.8237305-4.0200186-1.5092773-5.8846426 1.0469971.4248047 1.8555908 1.3659668 2.3292236 2.4046631 1.0506248 2.3234568.7070007 5.0026808 1.6700439 7.3299551.7900391 1.9000244 2.4699707 3.4100342 4.4399414 4-.9399414-1.75-1.1599121-3.7900391-1.1398926-5.7700195.0365753-3.6171857.9590607-8.2441359-1.4300537-11.5599357zm-21.5499268 2.8299561c1.0098877-1.5300293 2.8898926-2.5300293 4.6899414-2.5.2099609 0 .3800049.1700439.3699951.380127 0 .1999512-.1700439.369873-.3699951.369873h-.0400391c-1.5799561 0-3.1499023.8500977-4.0200195 2.1700439-.0699463.1099854-.1899414.1700439-.3099365.1700439-.0699463 0-.1500244-.0200195-.210083-.0700684-.1699219-.1099852-.2199707-.3399657-.1098633-.5200194zm6.7650147 15.8464346c-1.9338379-.1328125-3.7548828-.8984375-5.1688232-2.034668.0537109.003418.1071777.012207.1610107.012207.5380859 0 1.0761719-.1728516 1.5078125-.4990234.6298828-.4765625 1.0068359-1.2646484.9824219-2.0556641-.0078125-.2070313-.1933594-.3671875-.3867188-.3632813-.2070313.0068359-.3691406.1796875-.3632813.3867188.0166016.5517578-.2451172 1.1015625-.6855469 1.4345703s-1.0400391.4345703-1.5644531.2685547c-.1561279-.0479736-.3182373.0113525-.411499.1350098-.7963867-.8168945-1.4057617-1.7653809-1.7174072-2.8000488-.0683594-.2246094-.1259766-.4482422-.1855469-.6826172-.5906982-2.3443604-.5913086-4.3448486-.0157471-6.0871572 1.5150146.1724854 3.3153076-.6762695 4.0126953-1.7609863.1400146.8999023 1.0600586 1.6699219 2.0799561 1.7299805.9400635.0600586 1.8900146-.4599609 2.25-1.2399902-.3199463.8800049.1800537 1.9599609 1.1400146 2.3499756 1.0300293.4100332 2.3900146-.0599365 2.8400879-.9799805-.1401367.960083-.1201172 2.0200186.5 2.8199453.3099365.3901367.7698975.6501465 1.25.7700195.1699219.0500488.3398438.0800781.5198975.0800781l-.0078125-.2404785c.0111084-.0002441.0212402.0041504.0324707.0029297 1.9512825-.2391529 2.9407501 2.3238773 1.3681641 3.4199219-.3496094.2666016-.7910156.40625-1.2285156.3925781-.4722252-.057991-.5482445.7279701-.0292969.75.0341797.0009766.0673828.0019531.1015625.0019531.0515137 0 .1020508-.0096436.1533203-.0126953-1.1652832 2.2741699-4.0240478 4.3895263-7.1347656 4.2021484zm14.3948975-12.6064444c-.1799316 0-.3399658-.1298828-.3699951-.3099365-.4899902-2.5300293-2.1099854-4.8199463-4.3399658-6.1300049-.1700439-.1099854-.2299805-.3400879-.1300049-.5100098.1099854-.1799316.3299561-.2399902.5098877-.1400146 2.4101563 1.4200439 4.170166 3.9000244 4.6900635 6.6400146.0465735.2325898-.1368257.4499512-.3599854.4499512z"/><path d="m62.9456024 54.2464714c.7887459.008667 1.7740784.2445946 2.5439453-.3076172.4580078-.3291016.7519531-.9150391.7880859-1.5673828.03125-.5791016-.1259766-1.1279297-.2841797-1.5888672-1.1692657-3.396328-3.2698936-5.1002846-6.0008545-6.9777832.7890205-2.9130249-3.1701126-4.0858345-4.7247314-11.6179199-.2699928-1.3023396-.5640335-2.7475681-1.7558594-3.3945332-1.6533813-.9136162-3.1798058.4971752-6.5615234-.0693359-.8730469-.1445313-2.1416016-.2265625-3.0341797.7382813-1.160923 1.2490959-.7395782 3.3592091-.6846924 4.5903339l-6.6627197 3.0107422c-7.4464417-5.029686-25.3221779-2.7379646-25.7508545 3.8127441-1.4534912 4.0039063-2.0478516 7.8529053-1.7659912 11.4377441.015625.1962891.1796875.3457031.3740234.3457031.0097656 0 .0195313 0 .0292969-.0009766.2070313-.0166016.3603516-.1972656.3447266-.4033203-.2452393-3.1115723.1976318-6.4346924 1.307251-9.8947754.2073154.4634323.3769903.6794014.5598145.9125977-.0072021.0262451-.0185547.0512695-.0203857.0788574-.4417572 6.6551781.4728947 13.1531601 2.5959473 19.2839355-2.0650854-2.1517715-3.5141716-4.9432144-4.0930176-7.9118652-.0969486-.4894753-.8319359-.3405075-.7363281.1445313 1.1589851 5.9045601 5.4012327 10.6293144 10.3271494 12.0390587 4.1781311 1.1717148 10.6391735.2523117 14.5205078-2.1738281 6.3445168-3.9884453 9.6205978-13.3791161 4.6436768-24.5632286-.1821022-1.0685501-.815197-1.8859367-1.6558838-2.5913086l6.041748-2.7302246.1862793 2.5175781c.038147.5030899.7827377.4355927.7480469-.0546875l-.206543-2.791748 5.5375977-2.5021973c.4516907-.2036133.1442413-.8874893-.3085938-.6835957l-5.2879639 2.3894062-.0733643-.9919434c-.1779823-2.4194221.5662994-3.6600761 2.9414063-3.26758 2.3218803.385437 3.677002-.0335255 3.9267578-.0576172 5.382412-1.0204792 1.8531685 3.3532581 7.2949219 10.9941425.9704895 1.3557434 1.5410767 2.2004166 1.180542 3.3034668-.0058594.0070801-.0141602.0109863-.0194092.0187988-.0401611.0584717-.0548096.1241455-.0585938.1901855-.4239578.9426537-1.5368805 1.6439056-2.4873047 2.0539551-2.9163055 1.2836571-8.6271172 2.6671677-10.8349609.2265625-1.3338242-1.4665146-1.1889-3.8737793-1.4794922-7.21875-.035862-.5020714-.7851219-.4346046-.7480469.0566406.2321854 3.0712471.1406441 6.0257683 1.7305908 7.7150879-1.0222168 1.482666-1.9736328 3.0308838-2.8165283 4.6159668-.5273438.9931641-.96875 2.0566406-.6269531 3.1015625.3007813.9179688 1.2197266 1.6318359 2.3408203 1.8203125 1.8898582.3143311 3.6651344-.7637634 5.3945313-.8222656 2.7019234-.1272469 4.6573524 2.0426369 8.1965332.6608887-.1546631 3.1767578.7677002 6.2937012 2.6558838 9.0661583-1.1630859-.027832-2.5822754.4660645-3.0281982.7524414-1.6820259 1.0828781-1.2435532 2.9970703 1.0957031 2.9970703.9238281 0 1.8339844-.2851563 2.59375-.8183594 1.2895737-.9033661 1.2461548-2.2163239.3618164-2.6950684-.0723648-.4020233-3.2318878-3.7676811-2.9301758-9.3400841.0053711-.0944824-.0279541-.1804199-.0819092-.2492676.3242188-.1489258.6448975-.3041992.9608154-.4616699 1.16508-.5815618 2.241393-1.1269529 3.4970693-1.1269529zm-50.5772714-10.232666c1.6029053 1.4335938 4.326417 2.501709 7.581666 3.0222168-2.5593262 5.067627-4.2520761 10.2106934-5.0200205 15.293457-2.0350409-5.9201202-2.8970356-12.0636177-2.5616455-18.3156738zm24.2612314.3674316c.0048828.0189209.010376.0335693.0152588.0537109 1.5341797 5.2412109 1.4667969 10.890625-.1826172 16.4228516-1.1124268-5.0668945-3.6542969-9.9039307-7.2479248-13.8233643 2.4924068-.4011192 5.3467598-1.1872787 7.4152832-2.6531982zm-11.5609131 21.5937462c-2.6517334-6.077877-4.1134033-12.5613976-4.2506104-18.8153038 2.3189335.2932205 4.7870312.3198166 7.3360596.0169678-.0030517 6.0410156-1.0319824 12.3435058-3.0854492 18.798336zm-9.5745859-2.1783409c.5915747-5.2956276 2.3310366-10.6464348 4.6116953-15.3909912.2987061 6.0980225 1.8292236 12.3676758 4.4476318 18.2440147-3.4921837.1516724-6.3368511-.6166229-9.0593271-2.8530235zm18.3685312.3004112c-2.3582821 1.4752884-5.4249172 2.2336273-8.2103271 2.4907227 2.0852051-6.4133263 3.182251-12.7311974 3.2542725-18.7973595 3.6988525 4.1313477 6.2005615 9.2758789 7.0839844 14.5915527-.6566163.6450196-1.3598634 1.2322999-2.1279298 1.7150841zm3.291626-3.0091514c1.6960449-5.6763916 1.7871094-11.4749756.21521-16.8482666-.0302734-.1210938-.0618896-.2338867-.1016846-.3538818.7373047-.6392822 1.2426758-1.3392334 1.498291-2.0760498 3.1959457 8.0778655 1.8658638 14.8733253-1.6118164 19.2781982zm1.0570068-20.4068604v.0039063c.0348778 2.9672089-4.902916 4.8100548-7.8457031 5.3759766-1.65625.3544922-3.4755859.5488281-5.40625.578125-5.7197266.0830078-10.9863291-1.5224609-12.7705088-3.9101563-.4140625-.5400391-.6289063-1.1064453-.6376953-1.7353516.0263672-2.4541016 3.828125-4.7519531 9.2529306-5.5888672 4.7671242-.7071533 11.1241417-.2997322 14.9578857 2.0223389l-2.5351563 1.1456299c-2.3347664-2.3824081-9.2487984-2.9998627-13.4569092-1.0429688-5.1255941 2.3832169-2.079525 6.7792969 5.6552734 6.7792969.0830078 0 .1660156-.0009766.25-.0019531 4.6982422-.0615234 8.3554688-1.8535156 8.3271484-4.0810547-.0050049-.364502-.1169434-.7122803-.3065186-1.0422363l2.7966309-1.2636719c.8933146.6811447 1.7188723 1.6426697 1.7188723 2.7609863zm-4.9589844-.4453125c.0224609 1.7460938-3.4521484 3.2675781-7.5869141 3.3212891-6.2522373.1024933-10.4036989-3.1022682-5.5791016-5.3476563 3.8562622-1.792347 10.1613865-1.2577362 12.4151611.69104l-.4321289.1951904c-1.1388912-.6441269-2.7129459-.322422-3.4611816.5847168-1.5019493-1.4362259-6.3153648-.8699074-6.2961426.704834.0200195.8199463 1.5 1.4599609 3.3300781 1.4399414 1.140625-.0168457 2.1350098-.2955322 2.7229004-.6971436.2362442.5976944.8082905 1.0257568 1.5474854 1.0257568 1.4730091 0 2.6992226-1.752037 2.6221924-2.4453125l.4816895-.2175293c.1453858.239258.232666.4880373.2359619.7448732zm-1.4521484-.4492187c.0009766.0097656-.0048828.0537109-.0429688.1308594-.0009766.0009766-.0009766.0019531-.0019531.0029297-.9121799 1.8699684-2.4851761 1.7650299-2.7431641.828125-.0244141-.0615234-.0302734-.1357422-.0195313-.2128906.1490995-.9360162 2.0580446-1.3346292 2.8076173-.7490235zm29.5712891 26.8554649c-.0585938.3701172-.3925781.6738281-.6640625.8632813-.7070313.4951172-1.6074219.7402344-2.4648438.6699219-1.1951408-.0970383-1.4483185-.923111-.3876953-1.6035156.5732422-.3671875 2.6591797-.9179688 3.3398438-.4736328.1103515.071289.2304687.1982421.1767578.5439452zm-8.5800782-11.3496056c-3.3615532-.9947128-3.7065544-.5329132-5.9238281-.0214844-.8222656.2226563-1.6923828.4091797-2.5146484.2724609-.8486328-.1416016-1.5361328-.6582031-1.7509766-1.3134766-.2548828-.7783203.1269531-1.6689453.5761719-2.5166016.817749-1.536377 1.7399902-3.0366211 2.7296143-4.4765625 2.8833084 2.1245422 9.3050346.5415077 11.9881592-1.0595703.8432617-.4945068 1.4415283-1.0522461 1.8005371-1.6650391 2.5871696 1.78162 4.5063782 3.3713074 5.5881348 6.5146484.1347656.3916016.2685547.8535156.2451172 1.3037109-.0244141.4277344-.203125.8017578-.4775391.9990234-.3847656.2773438-.9335938.2382813-1.5097656.1962891-1.7404137-.1200294-2.6743584.3014832-4.4287109 1.1757813-2.7307817 1.3641512-3.4839708 1.4327547-6.3222658.5908205z"/><path d="m48.7092743 67.0081863c-.2519531.0908203-.5410156.2041016-.7871094.4042969-.7187614.592186-.5877495 1.5114136.1601563 1.9453125.9557152.5513763 4.0912666.4262314 5.2421875-.4746094.974472-.7701797.9445992-2.1870193-.2272949-2.5876465-1.1553955-3.0002403-1.2298584-6.209713-.201416-9.300045.1565475-.4696465-.5555458-.709568-.7109375-.2363281-1.0406494 3.1236572-1.0032959 6.3637695.0759277 9.4155235-1.0701904-.0018311-2.4197998.4223633-3.4733887.8051758-.1012001.0371552-.1783485.0654755-.0771484.0283203 0 0 0 0-.0009766 0zm3.9077148-.0629882c.0599365.0383301.1295166.0610352.2016602.0610352.0091553 0 .0183105-.0047607.0274658-.0053711.2195015.0789261.3909492.1610413.4188232.5102539.1060486 1.3256302-2.8087273 1.5307465-4.1386719 1.3740234-1.0006447-.1199112-1.1056976-.584053-.7285156-.8916016.3707696-.3046417 3.0939789-1.2312393 4.2192383-1.0483398z"/><ellipse cx="41.982" cy="18.376" rx="1.096" ry=".977"/><path d="m26.3586884 29.6458836c.4817467-.0985851 1.2926331-.3961868 1.619751-.765625 14.2691231 2.7096291 14.1911583 2.7099609 14.293335 2.7099609.4532394 0 .5138054-.6600094.0703125-.7431641l-14.1983643-2.6984863c-.2143784-.7134895-1.3109913-1.6539974-2.6239014-1.6716309-2.8025208.0277024-2.059103 3.7720776.8388672 3.1689454zm.9716796-1.4638672c.0947266.1337891.1035156.1914063.1054688.1923828-.0029297.0058594-.0253906.0380859-.1054688.0878906-2.6631603 1.6371269-3.7873898-1.2353516-1.8466797-1.2353516h.0263672c.6992188.0087891 1.413086.3837891 1.8203125.9550782z"/><path d="m9.0256796 24.5804539c-.3833132.0682926-.4194307.6126862-.0439453.7275391 4.1477318 1.2748222 3.9253168 1.2285156 4.0332031 1.2285156.4270544 0 .5213871-.605835.1103516-.7333984l-2.4492188-.7568359c3.9520912-.7078743 3.5242739-.1486568 2.9550781-4.0117188.6699219.8242188 1.4921875 1.5302734 2.4042978 2.0566406.1162109.0664063.2548828.0673828.3691406.0029297.4727669-.2604218-.0988522-1.191061.8769531-4.6962891.2666016 1.1367188.6796875 2.2324219 1.2333984 3.2724609.151041.2894974.592371.2573013.6904297-.0673828.3203125-1.0605469.8398438-2.0595703 1.5195313-2.9335938-.0498047 1.4453125-.3173828 2.8681641-.8007813 4.2412109-.1665878.4692631.5460701.7145996.7070313.2480469.6240234-1.7734375.9082031-3.625.84375-5.5039063-.0126495-.3246326-.4091721-.4900055-.6445313-.2480469-.8720703.8974609-1.5673828 1.9648438-2.0400391 3.1230469-1.306715-2.9190502-.7162685-3.985815-1.3603516-4.0585938-.1728516-.0214844-.3359375.0810547-.3955078.2431641-.6347656 1.7392578-1.0205078 3.5507813-1.1513681 5.3935547-1.0556641-.7285156-1.9443359-1.7265625-2.5371094-2.8603516-.195118-.3743534-.7636881-.1864548-.703125.2285156.4068441 2.7566566.6598816 4.190094.6025391 4.2910156-.0156248.0292971-.6159609.1412775-4.2197264.8134768z"/><path d="m16.3762665 27.3558445 1.5117188 1.0439453c.4047012.2820644.8357887-.3336945.4257813-.6171875l-1.5117188-1.0439453c-.410534-.2807655-.8338795.3373508-.4257813.6171875z"/><path d="m18.6233368 26.0013523.4882813.9453125c.2275562.4417286.8949852.095499.6660156-.34375l-.4882813-.9453125c-.2265205-.4413624-.8952904-.0960808-.6660156.34375z"/><path d="m31.5912323 60.4004021c-.6621094 0-1.1987305.5367432-1.1987305 1.1987305s.5366211 1.1988525 1.1987305 1.1988525 1.1987305-.5368652 1.1987305-1.1988525-.5366211-1.1987305-1.1987305-1.1987305z"/><path d="m19.0653534 60.4004021c-.6621094 0-1.1987305.5367432-1.1987305 1.1987305s.5366211 1.1988525 1.1987305 1.1988525 1.1987305-.5368652 1.1987305-1.1988525-.5366211-1.1987305-1.1987305-1.1987305z"/><circle cx="23.956" cy="50.549" r="1.199"/><path d="m15.847579 49.1099968c0-.6621094-.5367432-1.1988525-1.1988525-1.1988525-.6619873 0-1.1987305.5367432-1.1987305 1.1988525 0 .6619873.5367432 1.1987305 1.1987305 1.1987305.6621093 0 1.1988525-.5367432 1.1988525-1.1987305z"/><circle cx="34.714" cy="48.878" r="1.199"/><path d="m59.8762665 47.2611198c-1.7050781 2.1835938-4.3769531 3.5634766-7.1464844 3.6904297-.2060547.0097656-.3662109.1855469-.3574219.3925781.0097656.2001953.1757813.3574219.375.3574219h.0175781c2.984375-.1376953 5.8642578-1.625 7.703125-3.9794922.3044015-.3910408-.2856254-.8506126-.5917968-.4609375z"/></g></svg>