<svg id="Layer_1" enable-background="new 0 0 75 75" viewBox="0 0 75 75" xmlns="http://www.w3.org/2000/svg"><g id="Happy" fill="rgb(0,0,0)"><path d="m49.1117134 47.9904594c-.5426025-5.037571-1.4386063-10.0068703-2.3447266-15.0253906-.2793312-1.5458355-.688076-3.3912868-2.2915039-4.0107422-.9350586-.3613281-1.9213867-.0732422-2.7924805.1806641l-.2851563.0830078c-5.6658211 1.6035061-8.00383-1.2732105-9.2270508 1.4746094-.7608891 1.7131081-1.051918 3.6393013-1.4667969 5.4228516-.8725586 3.7382813-1.4794922 7.5556641-1.8046875 11.34375-.1503906 1.75-.1010742 3.5380859 1.265625 4.765625 1.3911133 1.2490234 3.5913086 1.4179688 5.7255859 1.4833984 6.8250923.2048454 8.1906281.3343239 9.8271484-.0214844 3.9160159-.8505859 3.602051-3.7666016 3.3940432-5.6962891zm-3.5532226 4.9638672c-1.5342751.3321762-2.7259789.212616-9.6450195.0039063-1.9956055-.0615234-4.0444336-.2119141-5.2475586-1.2919922-1.1782227-1.0576172-1.144043-2.6933594-1.0195313-4.1425781.3222656-3.7529297.9238281-7.5341797 1.7880859-11.2382813.4073792-1.7500687.6975899-3.6584435 1.421875-5.2880859.9148636-2.0552692 2.9370461.5906391 8.7456055-1.0585938 1.4167023-.4116173 1.9861336-.5227776 2.6035156-.2851563 1.2826691.4960461 1.6016006 2.2163429 1.8286133 3.4736328.8914146 4.938549 1.7933617 9.9347115 2.331543 14.9433594.2553711 2.366211.2104492 4.2285157-2.8071289 4.8837891z"/><path d="m41.4345894 17.9308891c0-.6306152-.5111694-1.1418457-1.1416626-1.1418457-.6305542 0-1.1416626.5112305-1.1416626 1.1418457 0 .6303711.5111084 1.1416016 1.1416626 1.1416016.6304932 0 1.1416626-.5112305 1.1416626-1.1416016z"/><circle cx="35.095" cy="19.144" r="1.142"/><path d="m56.3358345 31.7033501 2.7768555-.8222656c2.0182571 1.7136459 2.1391106 2.0986328 2.6616211 2.0986328.4246788 0 .8019257-.3381882.8286133-.8076172.1737633-2.8446388.1135063-3.0134087.2138672-3.0791016l2.4179649-1.6142578c.569725-.3812027.47966-1.2571373-.1401367-1.4960938l-1.9829063-.7675781-.6855469-.3037109-.6416016-2.8955078c-.1537361-.6912823-1.0147667-.8739529-1.4370117-.3144531l-1.8500977 2.3945313-2.8154297-.1748047c-.6730881-.0353088-1.1068649.7230167-.7519531 1.3007813l1.5219727 2.4775391c.0609436.1003819-.0360031.1630917-1.0917969 2.8876953-.2594223.6567953.3241157 1.3140181.9755859 1.1162108zm.8193359-3.6289063c.1000977-.2529297.0756836-.5400391-.0644531-.7675781-1.5358543-2.5962677-1.6659622-2.4712849-1.4550781-2.6376953l2.815918.1748047c.2626953.0136719.53125-.1054688.7001953-.3271484l1.793457-2.3623047c.0004883 0 .1064453.0234375.1069336.0234375l.6420898 2.8964844c.0605469.2724609.2480469.4931641.4990234.5888672l.6469727.2509766h.0004883l2.0234337.8330078c.0019531.0166016.0043945.0742188-.0458984.1074219l-2.4179649 1.6142578c-.2216797.1484375-.3632813.3984375-.3789063.6708984-.2250328 3.1625328-.0733833 3.0396652-.2744141 3.078125-2.0889015-1.7735004-2.239975-2.2615013-2.8950195-2.0625l-2.7802734.8173828c-.0965043-.1015817.0787162-.2423707 1.083496-2.8984376z"/><path d="m53.6473579 21.3068657 1.7578125-.5800781 1.4423828 1.28125c.422718.3742638 1.0842857.0814724 1.1162109-.4931641l.0908203-1.984375 1.6323242-1.0908203c.4638405-.3092251.3944283-1.0271053-.1186523-1.2246094l-1.3388672-.5175781-.387207-.1181641-.4335938-1.9541016c-.1273727-.5737171-.8413391-.7131519-1.1860352-.2597656l-1.1445313 1.5683594-1.8989258-.1171875c-.5390396-.0432882-.9162598.5815315-.6201172 1.0625l1.0214844 1.6318359-.7412109 1.8818359c-.2139891.5448895.2814028 1.0818425.8081056.9140626zm-.3969726-4.734375 1.7788086.109375c.2236328.0136719.4399414-.0839844.5805664-.2685547l1.1044922-1.4550781.3955078 1.7822266c.0488281.2246094.2036133.4072266.4125977.4873047.1035423.0400219 1.7685814.6835766 1.6650391.6435547-1.2832718.9453182-1.8257904.9972229-1.859375 1.5810547l-.0756836 1.9121094c-1.2939644-1.0850334-1.456852-1.5031834-1.9775391-1.3349609l-1.6879883.5126953c.5220299-1.5251026.9441948-1.8884869.6381836-2.3828125z"/><path d="m33.8338814 54.4406548v11.930912c-3.5708733.4499893-3.6511707 2.4552155-2.2451172 3.1062012 1.0390701.4761124 3.3593903.3423538 4.5947266.0820313 2.6263275-.5429993 1.6318321-2.8081512-.012207-3.1269531-.5241699-.1005859-1.0574341-.1262207-1.5874023-.1135254v-11.878666c-.0000001-.4960137-.7500001-.496315-.7500001 0zm2.1948242 12.7285194c.4228516.0820313.8671875.4365234.9907227.7910156.1834641.5245895-.4504471.7537537-.9892578.8652344-1.0927734.2304688-2.2114258.28125-3.324707.1552734-2.9685517-.3269119-.0532342-2.4619293 3.3232421-1.8115234z"/><path d="m41.9242134 54.4406548v11.9921913c-3.5097542.3918839-3.8635864 2.4268265-2.3461914 3.1230469 1.0455589.4790878 3.3914833.3348846 4.5957031.0830078.4628906-.0976563.9814453-.2490234 1.315918-.6386719.8041039-.9401093-.1359062-2.2564545-1.3286133-2.4892578-.4914551-.0942383-.9902344-.1210938-1.4868164-.1162109v-11.9541054c0-.4960137-.75-.496315-.75 0zm2.09375 12.8066444c.4233398.0820313.8676758.4375.9907227.7910156.1829529.5259857-.4476509.752533-.9887695.8662109-1.0932617.2285156-2.2124023.28125-3.3251953.1542969-2.5347252-.2791367-.7780647-1.9296875 2.0673828-1.9296875.4223632 0 .8457031.0390625 1.2558593.1181641z"/><path d="m6.6288028 34.4562798c1.465302.8815651 5.6228805.3623428 6.7727056-.7922363 5.4210205 2.8173599 11.7573128 1.4936905 15.6320801-2.7546387.1396484-.1533203.1289063-.390625-.0239258-.5302734-.1538086-.1386719-.3911133-.1279297-.5297852.0244141-3.7056713 4.0624123-9.75173 5.2314186-14.788269 2.5793457-.0014648-.041748.0028687-.0871582-.0037231-.1252441-.1894531-1.0957031-2.5102539-1.8544922-3.0864258-1.9492188-1.2451172-.2060547-2.5371094.0253906-3.6352544.6513672-1.5434895.8817061-1.3989821 2.2603797-.3374024 2.8964843zm.7089844-2.2441407c.9234958-.5271721 2.0662093-.7412968 3.141602-.5634766.6654663.109375 2.1088867.7421875 2.4048462 1.2141113-.1044941.104496-.1331558.2168007-.1018677.3476563-.7466936.5487137-2.6784391 1.1166458-4.7595215.8806152-1.7260732-.1931991-1.8652167-1.205944-.685059-1.8789062z"/><path d="m48.4487495 17.2021294c.4801559-1.9889135.2908745-2.7370787-1.0992432-4.1462402-.7389221-.7508783-.7549286-.8488092-.690918-1.9082031.0205078-.3427734.0419922-.6972656-.0083008-1.0625-.2730522-1.8564405-2.5800056-3.2898865-5.5205078-1.8105469-.3208008-1.2207026-1.2089844-2.2851558-2.3691406-2.7968745-1.317871-.5830079-2.9326171-.4277345-4.1166991.3955077-.9194336.6455078-1.7514648 1.8876953-1.8022461 3.1874995-1.5219727-.5273438-2.840332-.4785156-4.0175781.1474609-1.4980469.7890625-2.5341797 2.4492188-2.6391602 4.2275391-.121933 1.862916.7102966 3.3895283.0288086 5.9482422-.0351696.1530857-.3075161.6559048-.1303711.9990234-.511013 1.351841.4753895 2.7836647 2.8100586 2.2695313.0764771-.0166016.137146-.0603027.1870728-.1132813 3.0960121 6.3294754 11.791687 6.9767685 15.9657593 2.1738281.1479683-.1688671.1866188-.2131996.0898438-.1005859.3498878-.3545837-.190834-.8803368-.5341797-.5253906l-.105957.1171875c-4.4199829 5.0822105-14.2542439 3.5683556-15.6187744-4.8417969.1225357-.3492851-.2575607-.2438107-.1279907-2.3793945.2362347.2942734.7286491.5784054 1.2350464.6206055 1.433279.0995827 3.2244339-1.5032291 4.1538086-2.5947266.3057251-.3696747.645256-1.0919218 1.043457-1.6738281-.0458984.5957031-.2993164 1.3232422-.6000977 1.8623047-.1609001.2874756.1028633.626317.4223633.5458984 1.4350586-.375 2.6782227-1.5634766 3.2890625-3.078125.1386719.4941406.1030273 1.0634766-.1274414 1.5136719-.1505699.2927141.1242905.6311045.4541016.5263672.8364258-.2851563 1.5888672-.9013672 2.1113281-1.7070313 1.9279518 3.57728 4.9052887 1.7897434 5.3574219 4.2285156.0551376.3591747-.0243607.3825474.1304321.5412598.3145752 1.6755371.0540771 3.4790039-.7315063 4.9782715-.231041.4386272.4339333.7877541.6640625.3476563.4222412-.8051758.7028198-1.6916504.8435669-2.6027832 2.2364652.1032714 2.958225-2.4481469 1.4539182-3.2890625zm-1.3693237 2.5249023c.0367432-.5681152.0167236-1.1391602-.0603027-1.7023926.0957031.0019531.1923218-.0319824.267395-.1025391.2011719-.1933594.5703125-.2197266.8232422-.0595703.7306022.4604188.4257927 1.8854123-1.0303345 1.864502zm-18.3471069 2.1931152c-2.7272186.5993881-2.5478611-2.0248165-.5512085-2.1413574.1404419.7514648.3492432 1.4672852.6243896 2.1403809-.0245361.0002441-.0484619-.0043946-.0731811.0009765zm14.8486328-7.28125c-1.09375-.4101563-2.0170898-1.3886719-2.4697266-2.6181641-.109005-.2940092-.5530434-.3564634-.6967773-.0175781-.2895508.6757813-.7573242 1.2470703-1.3134766 1.6269531.0961914-.7822266-.1240234-1.6132813-.6225586-2.1699219-.2023239-.2264328-.5784912-.1298866-.6455078.1679688-.2958984 1.3261719-1.1367188 2.4658203-2.2001953 3.0576172.2592773-.7138672.4345703-1.5917969.1884766-2.2646484-.0673828-.1855469-.2661133-.2851563-.4570313-.2314453-.754509.220295-1.362896 1.8094234-1.8007813 2.3369141-.6274414.7373047-1.3154297 1.3457031-2.0493164 1.8105469-.7422848.485218-1.5685444.7868004-2.1796875.1787109-.1374359-.1446686-.3015709-.752388-.7514648-.6992188-.2143555.0214844-.3696289.1806641-.4638672.4785156-.2138443.7292156-.273531 1.6754742-.0749512 2.5810547.0002441.0026855.0002441.0053711.0005493.0078125-.2906189.0645618-.7579346.2171745-1.0291138.3798828.5940285-2.6641293-.1969414-4.0245943-.0820313-5.78125.0888672-1.5009766.9887695-2.9521484 2.2416992-3.6113281 1.27635-.6779146 2.596838-.4708576 3.9272461.09375.2699928.1176624.5640526-.1142416.5166016-.4052734-.171875-1.0478516.4541016-2.3691401 1.4541016-3.0722651 2.1192322-1.4738774 5.0979004-.1723647 5.4140625 2.4082026.031765.262332.3252983.4162455.5625.2773438 1.0419922-.6142578 2.0146484-.8632813 2.8950195-.7314453.9936523.1455078 1.8378906.8984375 1.9628906 1.75.0825729.592124-.0835991 1.2911654.0097656 1.9794922.0786133.5791016.5136719 1.0214844.8974609 1.4111328 1.1596451 1.1771297 1.3308296 1.644453.9067383 3.4394531-.1777382-.0374184-.5596619-.0409698-.902832.0351563-.0707397-.3314037-.0861092-.3265839-.1147461-.4267578-.1221428-.2650719-.1852112-.4576759-.4169922-.7685547-.6205977-.8084403-1.6923788-.8414441-2.7060545-1.2226564z"/><path d="m31.7953072 11.0832329c-1.5072384-.0462217-2.9115238.9848976-3.2666016 2.5332031-.1097069.4831715.6198044.6526546.7314453.1679688.2608566-1.1437559 1.2978249-1.9803658 2.515625-1.9511719.2089844.0126953.3793945-.1582031.3847656-.3652344s-.1582031-.3789062-.3652343-.3847656z"/><path d="m7.28725 11.199688c-.2586498-.2317705-.531251-.4822502-.8717651-.4885254-.3537598-.0063477-.7001953.3637695-.5374756.6223145 2.4132085 3.8317871 4.8264165 7.6638184 7.2395635 11.4956055-1.5817261-.2709961-3.6026001.8254395-4.378479 2.3041992-.6870117 1.3093262-.3317261 2.8112793.7479858 3.5332031.1530762.1079102.3203735.2009277.5031738.2736816 1.4260864.567627 3.5285034-.105957 4.5904541-1.4709473.6947632-.8928223.9348755-1.9780273.8040771-2.9345703s-.6235962-1.7819824-1.2268677-2.5039063l-3.8929443-5.815918c2.1492891-1.3140812 6.2269344-.0006847 6.6233521 3.3254395.0407715.342041.0436401.7016602.1898193 1.0024414.390255.8023853 1.6581345.7062149 1.9059448-.8642578.3691063-2.3386116-.4595909-4.6878805-2.6002197-6.074707-3.3939094-2.2444458-6.6270446-.1901093-9.0966191-2.4040527z"/><path d="m37.1922798 24.8644829c.9680405.4722748 2.1980591.330225 2.9916992-.3408203 1.2433205-1.0522099.9617195-3.1625957.3569336-3.2353516-.1279297-.0126953-.2573242.0371094-.3388672.1396484-.979538 1.2356911-2.7606621 1.4954834-4.0507813.5966797-.2608681-.1822929-.6206856.0257587-.5874023.3457031.1132813 1.1035157.7373047 2.0595704 1.628418 2.4941407zm3.1079102-2.4628906c.1587219 2.2071667-2.9048882 2.8201828-3.800293.6503906 1.3070107.5062828 2.7480507.2518062 3.800293-.6503906z"/><path d="m64.2835846 39.5969048c.3911133.0859375.7890625.1289063 1.1865234.1289063.8554688 0 1.7070313-.1982422 2.4775391-.5849609 1.5883636-.7921638 1.5186386-2.178936.4921875-2.8730469-1.5314178-1.0368805-6.1544228-.5968094-6.9803429.6369629-5.2115479-1.3120117-10.1523438-4.0759277-13.9644775-7.8537598-.1474609-.1455078-.3842773-.1445313-.5307617.0029297-.1455078.1464844-.1445313.3847656.0024414.5302734 3.9284668 3.8925781 9.0258179 6.7363281 14.3991699 8.0708008.3277588 1.0234374 2.3769531 1.8225097 2.9177208 1.9418945zm1.269043-3.1601563c3.2403641 0 3.4706039 1.3272247 2.0595703 2.0341797-.9614258.4824219-2.1142578.6259766-3.1674805.3935547-.5919151-.1298828-1.7872887-.7160645-2.2224083-1.1875.1590691-.1663589.1407166-.3561745.0111084-.4985352.5160103-.333889 1.8022652-.7416992 3.3192101-.7416992z"/></g></svg>