<svg id="Layer_1" enable-background="new 0 0 75 75" viewBox="0 0 75 75" xmlns="http://www.w3.org/2000/svg"><g id="Happy_Child" fill="rgb(0,0,0)"><path d="m12.3316975 66.3267212c-.2529297.0761719-.5429688.171875-.7885742.3544922-.6858702.5064926-.5912561 1.3625488.2182617 1.796875.8698511.4650421 3.1753111.5259476 4.2827148.4384766.7103138-.0558395 1.4787006-.2184219 1.7597656-.8808594.2714787-.6414566-.1227226-1.6028519-1.6192627-1.9912109 2.1810799-10.4589577 2.2155685-9.9729614 2.067688-10.2192383l.7922974.0083008c2.5640469.0304642 3.5894051.7050743 4.5419922-2.9238281.2509766-.8671875 1.0771484-1.4140625 1.9619141-1.4023438l.4311523.0263672c.4498444.0170288.2564907.2047844 2.0439453 5.7119141.0717773.2001953.1821289.3046875.6572266.3046875.7029896 0 2.3479481-.1965828 3.7729473-.5852051-.0268021.1440887-.0841522-.437336 1.5773315 9.9487305-.9733772.1108856-2.462122.4972229-2.414732 1.4626465.0161133.3310547.2353516.7841797 1.1879864 1.0556641 1.0249023.2939453 2.105957.4423828 3.1879883.4423828.6161499 0 1.8504601-.0545959 2.4042969-.3310547.8157196-.4020691 1.0112267-1.376976-.2456055-2.0244141-.0004883-.0009766-.0004883-.0009766-.0009766-.0009766-1.2380714-.6336975-2.2356224-.7303925-3.369751-.6677246-1.7178459-10.4794312-1.5306892-9.8923111-1.6887207-10.0639648.0076904-.0024414.0161133-.0041504.0238037-.0065918 1.2995605-.4062119 2.0031319-.8133049 2.5595703-1.0742188.9935913-.4600105 1.8314056-1.0233917 1.5742188-2.2548828-.1003304-.4797554-.8366013-.3345146-.734375.1542969.1941338.9215355-.6550179 1.1624718-1.4785156 1.5742188-.6660156.3505859-1.3876953.6484375-2.1494141.8857422-1.8168678.5959015-3.1731358.6236191-4.2192364.7353516-.5677567-1.7656631-1.0679264-3.4727936-1.6435547-5.2480469-.307642-.9239311-1.2697563-.749157-1.4360352-.7939453-1.2548828-.0625-2.375.7421875-2.7368164 1.9980469-.6611958 2.5169907-1.092535 2.4828949-2.9907227 2.3642578-.9835682-.0624466-.401577-.0192337-5.3569336-.0849609.2175922-2.4844246 1.1478252-4.9669418 2.7197266-7.0351563.9510231-1.2523994.649128-.5869446 5.046875-.2089844 3.5703125.3134766 7.1567383.0898438 10.6625957-.6689453.8173332-.1722908.6644974.0008659.8789063.4296875.0450706.1001396 2.0894547 4.6471405 2.1704102 4.7890625.2407303.4302864.8986473.0645409.6523438-.3691406-.0714455-.1288376-2.1471252-4.7399139-2.2167969-4.9091797-.2939911-.7679825-.8130531-.852356-1.6435547-.6728516-3.432127.7431641-6.944334.9628906-10.4384747.6533203-4.198925-.357502-4.4372215-1.1722794-5.7094727.5039063-1.7391214 2.2878456-2.7422171 5.0652618-2.8999023 7.8378906-.0058594.1025391.0307617.203125.1005859.2773438.1957455.2093391.1442327.0768013 3.7913208.1560059-.0773792.1223297.0954647-.5180969-2.1723633 10.095459-1.057373-.0895996-2.1969604.1403809-3.1135864.4125977h-.0004881zm23.0507793 1.2470703c1.5406647 0 4.336998 1.1585007 2.0263672 1.4589844-2.2814445.2986374-5.0254745-.3029633-5.043457-.6933594-.0029297-.0644531.1298828-.2167969.4355469-.3564453.7042579-.3208618 1.8141784-.4091797 2.5815429-.4091797zm-19.8861675-.8979492c.0761137.0615616.147521.0854492.2328491.0854492.039856 0 .0709229-.0258789.1077271-.0380859.3342285.0695801.6462402.1850586.9171753.3642578.2744141.1816406.4355469.4765625.359375.65625-.3279171.7684555-4.3235273.4358215-4.9975586.0722656-.5681076-.301506-.2142525-.5763779.4306641-.7705078.8826903-.262207 1.9832152-.4790039 2.949768-.3696289z"/><path d="m27.968111 17.7217407c.4376831 0 .7925415-.3547363.7925415-.7924805s-.3548584-.7924805-.7925415-.7924805-.7924805.3547363-.7924805.7924805.3547974.7924805.7924805.7924805z"/><path d="m20.5334797 17.7217407c.4376831 0 .7924805-.3547363.7924805-.7924805s-.3547974-.7924805-.7924805-.7924805c-.4377441 0-.7925415.3547363-.7925415.7924805s.3547973.7924805.7925415.7924805z"/><path d="m20.448885 19.9761353c.0634766 1.3222656.7651367 2.5351563 1.8310547 3.1650391 2.359045 1.3917217 5.4819202-.0798206 5.8125-2.6972656.0406837-.3211842-.3188572-.538517-.5834961-.3564453-1.968399 1.3436375-4.6253414 1.1966953-6.4365234-.4091797-.2468263-.219164-.6396886-.0338174-.6235352.2978515zm6.6630859 1.1992187c-1.0936222 2.3464546-4.8361626 2.4313889-5.75-.3466797 1.797657 1.1269207 3.9594555 1.1891766 5.75.3466797z"/><path d="m23.3727131 7.5015264c-1.0063477.2539063-1.9589844.7412105-2.7548828 1.4082026-.3820534.3197489.1043949.8936644.4814453.5742188.7099609-.5947266 1.5595703-1.0283203 2.4570313-1.2558594.4847068-.1223526.2929477-.8509793-.1835938-.726562z"/><path d="m15.3717976 19.2954712c.3846436 1.9047852 1.375 3.6560059 2.9511108 4.9931641 4.2096443 3.5724277 12.198288 2.8810959 14.5347881-4.1547852 1.7368011.1342449 2.3552208-2.2913761.6761475-2.9560547 1.3461418-1.818161 1.8559074-4.2380381 1.3886719-6.472168-.1030273-.4815722-.8363876-.3335028-.734375.1542969.4062271 1.9203386.0084763 4.0865145-1.1772461 5.7744141-.0883789.1230469-.1845703.2568359-.2910156.3632813-.2089844.2089844-.3969727.3183594-.5883789.3427734-.6337872.078125-1.4282207-1.3896484-1.9296856-3.6484375-.1503906-.6806641-.3725586-1.0615234-.7202148-1.234375-.600399-.3000269-1.1596127.0822582-4.3378906 1.4746094.2402344-.7441406.3266602-1.5361328.2446289-2.2998047-.0365314-.335227-.4654255-.45648-.6694336-.1894531-1.4867306 1.919898-3.5803585 3.1531754-5.7890625 3.6337891.4213867-.7880859.6523438-1.6757813.6606445-2.5703125.0031891-.3360157-.4055977-.509038-.6445313-.2646484-1.0400372 1.0743237-2.3691826 1.8565798-3.6533203 2.2636719.0334206-3.6963348 2.0798817-7.0347548 5.5131836-7.9716792 1.128418-.3125 4.956543-1.1191406 6.8583984 1.6992183.1200409.1766319.424633.2644176.6113281.0146484 1.1807537-1.5787201 4.3860378-1.494617 5.6303692 1.7197266.1778145.4655895.8782425.1914845.6992188-.2695313-.9129753-2.3648577-2.9190445-3.5408502-4.9667339-3.1005855.2211304-.1796875.4580688-.3391113.7177124-.4521484.1899414-.0820313.2768555-.3037109.1943359-.4931641-.0820313-.1904297-.3037109-.2763672-.4931641-.1943359-.8279419.3596191-1.5285645 1.027832-1.9336548 1.8349609l-.6137085-1.9072266c-.1536083-.4750037-.8651352-.2396269-.7138672.2304688l.3166504.9841309c-1.59375-1.2028809-3.9031982-1.5144043-6.5061035-.7888184-1.4814453.4042969-2.8618164 1.2919922-3.887207 2.499023-1.4765625 1.7431641-2.2670898 4.1875-2.168457 6.7070313.0043945.1132813.0600586.21875.1513672.2871094.2044945.1495228.4237452.0369654.7930298-.0795898-.0167847.0654297-.0357056.1308594-.0510254.1965332-2.3084021.295861-2.3123303 3.5192677-.0725098 3.8742673zm-.0820313-3.0791016c-.1116943.767334-.140564 1.5307617-.0612793 2.2753906-1.0662069-.4300174-1.0463915-1.8941688.0612793-2.2753906zm17.7921124 3.1679688c.1200562-.4907227.1923828-.9909668.2324219-1.4956055.7069206.3415489.565525 1.3824368-.2324219 1.4956055zm-8.4376812-6.7021485c-.1576023 1.5686274-.8351727 1.8479719-.4833984 2.2265625.2500191.2682028.2492867.1411142 3.6347656-1.3125 2.1371784-.9668608 1.127037-.6229887 2.2942505 2.3640137.4722919 1.2075119 1.2801723 2.509409 2.4806499 2.0354004-.2548828 2.5888672-1.6899395 5.0410156-3.7871075 6.3916016-2.9853516 1.9091797-7.2734375 1.6210938-9.9750977-.6708984-2.5654297-2.1757813-3.503418-5.5361328-2.4702148-8.8037109.1568317-.0665607 1.178484-.6007967 1.2139282-.6220703.4147339-.2495117.8113403-.5263672 1.1810913-.8320313-.3750801 1.7372112-1.171196 1.856101-.9018555 2.3222656.0751953.1308594.2270508.2011719.3730469.1835938 2.4092618-.3172437 4.7239152-1.4597598 6.4399415-3.2822267z"/><path d="m55.677887 36.2290649c-.8076172 1.3310547-2.2744141 2.2158203-3.828125 2.3076172-.4811401.0272331-.4606323.7490234.0214844.7490234.0078125 0 .0151367 0 .0224609-.0009766 1.7963867-.1054688 3.4921875-1.1279297 4.4257813-2.6669922.2564048-.4218978-.3818742-.8141021-.6416016-.3886718z"/><path d="m56.4107971 40.7817993-2.6904297-.1064453c-.5430756.0507813-.4808121.7308311-.0292969.75.2766457.0109062-1.0021362-.0398254 2.7055664.1064453.2001953 0 .3662109-.1582031.3740234-.3603516.0083009-.2070312-.1528319-.3808593-.3598632-.3896484z"/><path d="m55.3805237 44.9849243-3.3007813-2.2021484c-.4173927-.2727776-.8264923.3505707-.4160156.625l3.3007813 2.2001953c.4118881.2766876.8294487-.3489876.4160156-.6230469z"/><path d="m14.773592 36.4771118 2.0853271 1.463623-.1405029 1.1242676c-.0258789.2060547.1201172.3935547.3256836.4189453.199707.0175781.3920898-.1201172.418457-.3251953l.0912476-.7302246 1.0351563.7263184c.0016479.159668.0574951.3540039.2276001.5888672.8645115 1.1906281 2.3910408 1.8642578 3.3681641 1.8642578 1.3970509 0 1.8996468-1.4570656.8759766-2.3496094-.5017281-.4365921-1.1254368-.515049-1.5927734-.6152344-1.0968018-.2053223-1.9503174-.2946777-2.4400635-.0957031l-1.3688356-.9606933.4021606-3.2180176c.0732422-.5927734.112793-1.2392578.152832-1.9003906.0825195-1.3583984.1679688-2.7646484.5644531-3.8818359.4006481-1.1338253 2.0989742-.3740044 3.3530273-.3486328 6.6031361.1578827 7.3408909-3.1132889 9.1254883.5751953 1.9746075 4.0585938 3.1865215 8.5869141 3.5048809 13.0957031.0727539.9755859.065918 1.9726563-.4697266 2.6582031-1.0326309 1.3184052-2.5202103.9362106-12.4409161 1.1162109-3.5252647.0356674-4.9939976-.8348351-4.5996094-4.7246094.0209961-.2060547-.1289063-.390625-.3349609-.4111328-.2070313-.0087891-.3901367.1289063-.4111328.3349609-.152832 1.5068359-.15625 3.203125.9775391 4.3652344 1.6052303 1.6448288 3.5884876 1.1158752 13.4912109 1.0732422 3.3526745-.0324478 4.7902813-1.0558586 4.5356426-4.4667969-.2029419-2.871582-.7613525-5.7514648-1.6422119-8.5180664 1.2210083.1855469 2.4177856.2924805 3.5782471.2924805 1.9275513 0 3.762146-.2695313 5.4970093-.7802734.0195313.5671387.2407837 1.0705566.6367798 1.3701172.0785522.0593262.1722412.0908203.2598877.1333008-.3842163 2.34375-.2647095 4.7441406.3753662 6.9643555.1369553.4772186.8579178.2691154.7207031-.2070313-.604248-2.0957031-.7182007-4.361084-.3643799-6.5766602.0061646 0 .0110474.0024414.0172119.0024414.7292404 0 1.9831314-.4446907 2.4160156-1.109375.494175-.7574425.3135338-2.0478878-1.2139893-2.8908691.1945801-.4333496.4199829-.8745117.6889038-1.3217773 1.0468216.7357693 1.9236259 2.7654324 4.3598022 3.8027344 1.7756348.7495117 3.828064.8417969 5.6729126.2651367.1724129-1.862299-.7333565-3.7509422-2.2484131-4.8081055 2.5573921 1.7345791 5.6789513 1.2284794 7.621521-.2651367-.9658241-2.1073399-3.3026581-3.6308098-5.7305298-3.5515137.9224243-.1152344 1.833313-.3457031 2.6980591-.6687012 1.2667427-.4539165 5.0476227-2.4461861 5.0618286-3.7243652-1.575592-.2668991-3.0563622-.2053299-4.3930664-.2998047 2.0432816-1.1911774 3.5442619-3.7433929 3.3322754-6.4106445-2.3232346-.2910442-4.8391418.5075884-6.5953369 2.2368164-.2656746-.7272205-.9533157-2.5868578-1.1645508-3.1362305-.0461426.0229492-.0922852.0461426-.1383667.0690918-3.0786133 1.5681152-5.0733643 5.0734863-4.8197021 8.5324707-1.4210358-3.038187-1.7404099-6.8703136-.6341553-10.3886719-4.5975838 2.0685186-7.5012932 7.4435005-6.6645508 12.4641113-.9570313-.9338379-2.6635132-.9570313-3.6435547-.0344238.0345459.1381836.0691528.2766113.1152954.4033203.4842529 1.545166 1.5335083 2.8942871 2.8594971 3.8051758 1.0046387.6999512 2.421936.8125 3.5686646 1.2946777.0337753-.2758026 1.5703621-2.1207752 1.7492676-2.3330078-.0089111-.0100098-.0217285-.0144043-.0296631-.0256348-.9301758-1.3193359-1.2910156-3.0507813-.965332-4.6328125.0992088-.4878597.8348961-.3335037.734375.1503906-.2737427 1.3295898.0197144 2.7734375.7650146 3.9084473 2.3001099-2.6022949 5.0151978-4.8596191 7.9884033-6.6242676.4232445-.255106.8112831.3909702.3828125.6445313-1.8305054 1.0864258-3.5559082 2.3696289-5.1481323 3.802002.7789307.7753906 1.8994141 1.2004395 2.9938354 1.1013184.4964485-.0389366.5621567.699585.0703125.7460938-.1333008.0126953-.2675781.0195313-.4013672.0195313-1.1949463 0-2.3752441-.5083008-3.2156982-1.359375-1.5136108 1.4248047-2.8925171 2.9902344-4.1019287 4.6660156-.0800362-.3201485-.5097084-.3894272-.6838379-.1044922-.3033447.4985352-.5541382.9921875-.7719116 1.4770508-.9477081-.3261242-1.3304291-.0445213-1.7315063.8959961-.1193237.2810059-.2441406.5883789-.3322144.9135742-2.8983765.9152832-5.9889526 1.0837402-9.4440308.5009766-.4772339-1.3891602-1.0268555-2.75-1.6636944-4.059082-.4404297-.9091797-1.0292969-1.8740234-2.0522461-2.1337891-1.5056744-.3860188-3.1529045 1.2612991-7.730957 1.1357422-1.1783047-.0241699-3.4366531-.9638996-4.0771484.8486328-.4316406 1.2158203-.5205078 2.6757813-.605957 4.0869141-.0390625.6445313-.0771484 1.2744141-.1484375 1.8525391l-.3529053 2.822998c-1.8420839-1.319397-2.9243422-1.8638916-3.1280518-2.760498-.2528095-1.1109581.782402-2.0101242 3.3564453-5.3349609.3072014-.3901329-.2804604-.8541641-.5888672-.4648438l-2.4169922 3.0654297c-1.7783247 2.2583082-1.3897072 3.488754.5869144 4.8730466zm6.6826172 2.9267578c.4760742.0859375.847168.1904297 1.1123047.4208984.535038.4657707.3379555 1.2412758-.8383789.9736328-1.0873089-.2499809-2.041626-1.0112877-2.3637695-1.5839844.4896564-.1390914 1.9897785.1770936 2.0898437.1894532zm22.6059551-7.9804687c.262207-.6152344.3286133-.6191406.6010742-.5488281.4824219.1279297 1.074707.453125 1.4077148.7744141.3613281.3476563.574707.9541016.3056641 1.3662109-.2917862.4486351-1.7534981 1.0512047-2.3452148.6044922-.2910156-.2197266-.3710938-.6367188-.3491211-.953125.0297852-.4179688.2075195-.8369141.3798828-1.2431641z"/></g></svg>