<svg id="Layer_1" enable-background="new 0 0 75 75" viewBox="0 0 75 75" xmlns="http://www.w3.org/2000/svg"><g id="Happy_Kid" fill="rgb(0,0,0)"><path d="m34.0685616 46.6713181c.4723434.0349083 9.2538986-.1264267 9.9047852-.2216797 2.1088333-.3070679 1.6905823.0510254 2.5048828 2.7900391l.4316406 1.4638672c.1435127.4752388.8617325.2583809.7177734-.2167969l-.4311523-1.4619141c-.783535-2.6455841-.5233994-3.7201309-3.2592773-3.328125-.6418152.0938263-9.7124519.23423-9.8125.2265625-.1987305-.0087891-.8598633.0185547-1.0161133 1.0839844l-.7788086 5.5058594c-.1435547.9667969-.2397461 1.9804688.2817383 2.8193359.6899414 1.1181641 2.0844727 1.3535156 3.3432617 1.4873047.99226.0902061 2.0281181.1271133 2.793457-.5292969.7287064-.6544495.8438416-1.5822716 1.6080322-4.5314941.6325722.9957161.9531441 2.1836281 1.1258545 3.357666l.0209961.1435547c.0722656.5126953.1791992.7685547.8486328.8984375 1.9703331.3750648 4.4553795-.2617111 6.2666016-1.2089844.1489258-.0771484.2280273-.2451172.1928711-.4101563-.0087891-.0419922-.0205078-.0820313-.0327148-.1220703l-.3588867.1083984.3344727-.2001953c-.5161858-1.7565727-.7001381-2.3834839-.8613281-2.9433594-.138382-.4784775-.8575668-.2678986-.7207031.2070313.2453613.8525925.6412468 2.1921349.8295898 2.8320313-1.0541992.5117188-2.2504883.8779297-3.3320313 1.0146484-1.4588089.2100677-2.2803917-.0454292-2.3847656-.0566406-.101738-.301445-.0921288-2.3332825-1.6708984-4.6044922.000061-.0012207-.0004883-.0021973-.0004272-.003418l.0009155-.003418.0004883-.0087891c.0285492-.5237999-.7116089-.5810699-.7373047-.1074219-1.3163567 4.9471512-.9726791 5.6882591-3.8496094 5.421875-2.8333626-.3009567-3.2981148-1.1522751-2.9555664-3.4541016.7878225-5.5211104.7688711-5.936283.9960936-5.948242z"/><path d="m35.5104561 57.3129196c-.1972656-.0439453-.4042969.0732422-.4541016.2734375l-1.4768066 5.9350586c-.6224251-.0045776-1.0345192.5069199-1.1208496 1.0561523-.0627136.3997116.026123 1.3373489.2954102 1.8144531.4009819.7137985 1.1466103.7028275 1.0463867.6708984 1.2374306 0 1.9202499-2.0969391.4841309-3.2697754l1.4992676-6.0251465c.0502929-.2011717-.0722657-.4042967-.2734376-.455078zm-1.7089844 9h-.0004883c-.1386719-.0009766-.2963867-.1162109-.3930664-.2880859-.1132813-.2021484-.1538086-.4609375-.1879883-.7304688-.0472565-.3628693-.0922203-.7876358.2138672-.9960938.0830078-.0566406.1474609-.0507813.1904297-.0419922.1772461.0390625.4716797.3564453.6054688.6533203.3099556.6895372-.0735474 1.4033204-.4282227 1.4033204z"/><path d="m45.4225655 56.9222946-1.4194946 6.9625244c-1.357029-.0313225-1.3649521 1.5414047-.7094116 2.5882568h.0004883c.343071.5464783.7590942 1.0146484 1.4101563 1.0146484 1.5228157 0 1.473114-2.5712357.0233765-3.3996582l1.4302368-7.0153809c.0976637-.4836691-.6339533-.6408652-.7353517-.1503905zm-1.0307618 9.7070313c-.5413933-.3751373-.9329987-1.5343704-.706543-1.9042969.1059418-.1653748.6115532-.179657 1.0078125.3076172.6705018.824501.4203263 2.1043777-.3012695 1.5966797z"/><path d="m47.0102119 41.9469528c-2.1676331-7.0423317-2.5000229-7.668602-2.6699829-9.3399658-.1306648-1.3938503-.3826599-2.5522175-1.6799927-3.0799561-.6300049-.2700195-1.2999878-.130127-1.9500122.0100098-4.8548889.9964886-6.03265 1.1236858-7.0200195 1.7999268-1.2600098.8599854-1.6199951 2.4200439-1.2799683 3.8299561.1855469.7910538.0230484.698616-.1199951 5.710083-.0500488 1.3900146-.1199951 3.0198975 1.2600098 3.8699951.6299438.3900146 1.4099731.3999023 2.1499634.3999023 10.1450119 0 10.3967247.1537399 10.960022-.3798828.7128639-.6896095.3499755-2.0694618.3499755-2.8200684zm-5.0700073-5.5899658-1.0799561 1.0499268c-.1567726.1569366-.0327339.2399979.1900024 1.710083.0299683.1900635-.1700439.3399658-.3500366.25-1.2792664-.6353378-1.3396606-.8042107-1.5599976-.710083l-1.3399658.710083c-.1700439.0899658-.3800049-.0599365-.3400269-.25l.25-1.5c.0324936-.2270432-.1596107-.2439575-1.1500244-1.2600098-.1399536-.1400146-.0599976-.3800049.1300049-.4100342l1.5-.2199707c.2129211-.0266342.1862602-.212822.8500366-1.4799805.0899658-.1799316.3399658-.1799316.4199829 0l.6699829 1.3499756c.1008682.1762085.2315598.1150589.5499878.1900635l1.1300049.1599121c.2000123.0300293.2700197.2700196.130005.4100342z"/><path d="m29.5298672 25.0472946c3.0042286 5.0411129 9.5212421 5.670105 12.4659405.5263672.8161011-1.427002 1.1931763-3.1516113 1.1064453-4.9443359h.0073242c1.9383163-.0792446 2.2917175-2.747385.4761353-3.161499-.4305115-4.92208-4.89048-8.6648064-10.1635132-7.70996-.0212402-.02771-.0310669-.0621338-.0601807-.0836182-4.150713-3.0433636-7.924963-2.5447626-9.9384747-.53125-1.5529728 1.5731659-2.1584854 4.3932819-2.1982422 6.5761719-.0220299 1.0851316.5051823 2.0418577.6542969 3.0136709.3153725 2.094696-.8135128 2.4504814-1.4624023 3.0771484-1.2095699 1.1046429-.7684822 2.8466797 1.6435547 2.8466797 1.772831 0 3.6170845-.9765072 4.317749-2.7960205.1453857.3048096.3048706.602417.4923096.8829346.0698242.1044922.1870117.1669922.3120117.1669922h.0068359c.0463867-.0007324.0881958-.0187988.1299438-.0356445-.597496 1.3365039.7198258 2.8517188 2.2102662 2.1723632zm-1.5457764-1.8320312c.0811157-.2021484.2697754-.3909912.5130005-.5714111.1664429.6016846.3858032 1.1906738.6660156 1.7537842-.8210735.298725-1.4511299-.5034924-1.1790161-1.1823731zm8.9340801 5.140625c-2.355957.3388672-4.9780254-1-6.5253887-3.3154297-.7509766-1.1320801-1.2372437-2.4256592-1.4139404-3.7011719.35005-.6876736.8268681-1.1688366 1.2357178-1.4130859.2714844-.1591797.7768555-.4570313.6147461-1.0712891-.1140175-.432003-.4616623-1.5902596-.4931641-1.6933594l1.2250977 1.3935547c.1171875.1328125.309082.1640625.4648418.0791016.5624695-.3140831 1.8867645-.3430767 1.7001953-.9785156-.2707748-.916254-.5712509-1.856411-.8256836-2.6777334 2.3054008 1.8017988 2.2557259 2.5505247 2.7739258 2.3154287 1.0175781-.4794922 2.4624023-.7626953 3.7973633-.7363281.1533203.0068359.2626953-.0683594.3310547-.1865234.1489868-.2575321.0717888-.2586365-1.0541992-2.124999 1.8307533.9722118 2.0265541 1.8508749 3.0369873 3.3757315 1.9220886 5.8455542-1.168274 10.2070311-4.8675538 10.734619zm6.9916992-8.9677735c-.1606445.2851563-.4868164.4775391-.8305664.4912109-.0143433.0004883-.0263062.0075684-.0401611.0097656-.0532227-.4440212-.1058006-.8687668-.3321533-1.7523193l.0288086-.0047607c.0932007.067627.2125854.0969238.3308105.060791.6263428-.1982498 1.2188797.5328636.8432617 1.1953125zm-19.1098613 3.4892578c-2.0382996 1.8236198-5.5145512.9781971-3.8686523-.5205078.5931664-.575592 2.0735798-1.1902428 1.6894531-3.7363281-.1578941-1.0328331-.6639595-1.9776058-.6455078-2.8867178.0364704-1.9877033.5815659-4.6475611 1.9799805-6.0615234 1.6442355-1.6453734 4.8407687-2.1959644 8.5306377.3062744-4.6608181 1.3420858-7.8596611 6.0252085-6.5488873 10.6973867-.1855469.8791504-.4545898 1.59375-1.1370239 2.201416zm10.2499981-12.5273428c4.1631317 0 7.3539314 3.1846676 7.7802734 7.006835l-.2924805.0478516c-.5544434-.7899246-.93927-1.648345-1.6142578-2.4550772-.8369141-.8535156-1.8662109-1.4960938-2.9755859-1.8574219-.3256302-.1081829-.6162605.2496271-.4384766.5488281.456604.7645798.8828735 1.4610519 1.3134766 2.1757813-1.1381836.0546875-2.2851563.296874-3.2075195.6826162-.9423828-1.0585928-2.0136719-1.9970694-3.1875-2.7939444-.2863503-.1930466-.6701374.0747309-.5703106.4169922.3510685 1.1878119.7002201 2.2491255 1.0546856 3.4277334-.2738304.0961552-.6504326.1761818-.9716778.2998047-1.7228088-1.9665422-1.5197964-1.7133942-1.6552734-1.8984365-.2407227-.3232422-.4311523-.5546875-.6904297-.5966797-.1147461-.015625-.2358398.0195313-.3217773.1015625-.3511295.3430557.2186203 1.1908941.8359375 3.6240225-.0502377.132206-1.0125885.4322968-1.7670898 1.8427734v.0009766c-.1098633.2060547-.2036133.4199219-.2802734.6386719-.2988281.0419922-.5839844.1650391-.8198242.3525391-2.8408854-5.0639858 1.6625002-11.5654288 7.8081034-11.5654288z"/><path d="m40.2487373 21.1615524c-1.3789063 1.5820313-3.6137695 2.5068359-5.8276367 2.3828125-.3139229 0-.486084.3114719-.3452148.5605469.6616211 1.1650391 1.980957 1.8623047 3.300293 1.8623047 2.4995613 0 4.0880814-2.5237484 3.5175781-4.65625-.0763893-.2867184-.4463578-.3788815-.6450196-.1494141zm-1.8188476 3.8535157c-1.090332.4433594-2.4472656.1142578-3.2739258-.7197266 1.9003906-.0869141 3.7539063-.8408203 5.1020508-2.0722656-.0117188 1.1679687-.7441406 2.3476562-1.828125 2.7919922z"/><path d="m26.0402431 10.1810846c-1.4003906.9658203-2.3803711 2.5478516-2.6210938 4.2324219-.0700493.4903431.6716366.5980349.7421875.1054688.2119141-1.4804688 1.0732422-2.8710938 2.3046875-3.7207031.4088594-.2811642-.0181464-.8990384-.4257812-.6171876z"/><path d="m39.6117134 19.6071091c.4169922-.0212402.7363892-.4031982.7134399-.8531494-.0229492-.4500732-.3796387-.7974854-.7966309-.7762451s-.7363892.4033203-.7134399.8532715c.0230103.4499511.3796387.7974853.7966309.776123z"/><path d="m35.1570015 20.5387497c-.0229492-.4499512-.3796387-.7974854-.7966309-.776123-.4169922.0212402-.7363892.4033203-.7134399.8532715s.3796387.7973633.7966309.776123.7363891-.4033203.7134399-.8532715z"/><path d="m64.003624 12.6215143c.2367554.5411682.0206451 1.1750565-.495121 1.4589844-.436554.2400455-.0685043.897212.3623047.65625.8444481-.4652033 1.2158623-1.5089455.8203163-2.4160156-.200203-.4542609-.8864556-.1532965-.6875.3007812z"/><path d="m69.0768661 14.9672174-2.0830078 1.9414053c-.3633728.3365002.1471786.8878212.5107422.5488281l2.0839844-1.9414053c.1513672-.1416016.159668-.3789063.0185547-.5302734-.1416016-.1513672-.3793945-.1591797-.5302735-.0185547z"/><path d="m69.5026474 20.5385056h-2.3837891c-.4960175 0-.496315.75 0 .75h2.3837891c.4960098 0 .496315-.75 0-.75z"/><path d="m33.3063545 11.9242487c.5981445.1142578 1.1533203.4589844 1.5224609.9453125.2991257.3961926.8969688-.0579414.5976563-.453125-.4799805-.6318359-1.2011719-1.0800781-1.9794922-1.2285156-.2055664-.0449219-.3999023.0947266-.4384766.2978516-.0390624.2031249.0942383.399414.2978516.4384765z"/><path d="m63.64571 10.5433893c-1.4042969-.0214844-2.7827148.9267578-3.1948242 2.2763672-.1346169.4415455-.1501808.8197393-.2833252 1.3070068-2.2277222-2.1063232-4.9627075-3.78125-6.1292725-2.6878662-.0761909.0965099-.1569214.2019653-.2277832.4071045-1.0304184.9269123-.5755997 1.7836275.0669556 3.0042725-.0379639.0195313-.0828247.0195313-.1135864.0524902-1.2935944 1.4102468-1.7783127 3.7722692-.5794067 5.7362051-.4285088.4023838-.5256195.8684311-.3673706 1.3477783v.0009766c.0299072.0900879.0783691.1705322.1273804.25l-6.9706421 9.9238281c-.1769905.2524338.0090828.5908203.3061523.5908203.3732567 0-.0567093.2462616 7.2316284-10.0172119.5344582.233017 1.0564079.0601273 1.5163574-.2982178 1.6934662.919342 3.6527672.7026157 5.1092529-.3172607.7741928.541935 2.3266678 1.5360394 3.2230225 1.2373047.3783569-.1170654.6423988-.4748535.8958778-.7791748.5364304-.3603954.6081009-1.082737.4110718-1.6955566-.1517105-.4691181-.8664017-.2435551-.713871.2304688.0756874.2353516.085453.4814453.0200195.6601563-.1490746.4654026-.914753.2004356-1.3706055.0175781-4.1546783-1.7057648-8.9724045-8.5642242-8.0234375-9.8164053.0141602-.0185547.0268555-.0400391.0371094-.0625.4904175-.4150391 2.5904541.3977051 5.1992798 2.9251709-.3410034.4300537-.8587036.7285156-1.4038696.7701416-.2782669.0210009-.4352875.3295517-.2929688.5664053.7402344 1.2373047 1.6254883 2.1669922 2.706543 2.8417969.2554893.1594238.5902939-.0350685.5732422-.3398438-.0214844-.3613281.2119141-.7675781.5947266-1.0341797.0612793-.0429688.1372681-.0631104.2030029-.0993652.428772.5795898.8018188 1.1386719 1.085083 1.6560059.2361984.4316101.8977089.0784588.6577148-.3613281-.2739868-.4997559-.6311646-1.0360107-1.0311279-1.5876465.8693848-.2474213 1.459446-.3028488 2.1063271-.6408691 1.2509766-.6523428 1.9599609-2.1826162 1.6494141-3.5595694-.310547-1.3759767-1.6079102-2.4521486-3.0180703-2.504883zm-9.6850586 11.5468741c-.5286674-.0407715-1.0222015-1.0415421 1.0512695-1.4765625.2329102-.0507813.284668-.0107422.2856445-.0087891.0166016.0146484.0297852.1347656-.0395508.3134766-.1963844.5115833-.7908172 1.2162742-1.2973632 1.171875zm1.6127319-.2104493c1.0529404-1.4185944.3773346-2.6796379-1.7671509-1.6569824-.9506111-1.5866032-.6063423-3.5069408.4342651-4.7172842.3075562.5452871.6277466 1.0847158.9697266 1.6114492.9873085 1.4397812 2.6372871 3.2489986 4.2953491 4.5397949-1.1175117.6818753-2.6186485.8510552-3.9321899.2230225zm9.0943032-5.9360342c-1.1647072.6056452-3.3005219.4015646-3.916996 2.1132803-.6469727-.4814453-1.2001953-1.0722656-1.7001953-1.8144531.7983398-.2490225 1.472168-.86621 1.7646484-1.6591787.2006302-.5426702.2079239-1.0684328.3535156-1.5449219.3105469-1.0175781 1.3579102-1.7705078 2.449707-1.7451172 1.0634804.0390625 2.0795937.8828125 2.3139687 1.9208984.2338867 1.0371094-.3212891 2.2363282-1.2646484 2.7294922z"/><path d="m5.2066855 23.9653854c.0043945.0195313.0031128.0391846.0108032.0584717.0061035.0150146.0212402.0217285.0289917.0355225l3.2883906 7.7740479c.0805006.1911087.2981758.275032.4819336.203125l7.9155893-3.0930176c.5852661.1126499 1.4207649.1508026 1.9584351-.100708.0714073.0583553 11.7098484 5.6566162 11.8334961 5.6566162.3977604 0 .5209255-.540741.1625977-.7128906l-11.4893798-5.5126954c.1357384-.4866676-.2260799-.9487839-.3319702-1.1054688l1.3184204-1.1259766c.121582-.1035156.1640625-.2734375.1054688-.421875-3.4360847-8.6360226-3.188242-8.3888702-3.4609375-8.5078125-.2699394-.1171169.0903416-.1125793-8.6186533 3.3466797-.1222534.0494518.0494766-.070097-3.16748 2.9648438-.1137695.1074219-.1484375.2744141-.0874023.4189453zm3.8765254 7.2391358-3.0116572-7.1196289 7.4155269-2.9748535 1.8938599 4.1872559c-1.0084028.7554474-.97791 2.4056377.4832764 3.2575684zm6.3515625-4.5292969c.0029869-.6331272.5758524-1.1859837 1.3608408-.7978516.2797852.1367188.5214844.3603516.7006836.5400391.0004883 0 .0004883.0009766.0009766.0009766.5600796.558403.8465767 1.0347672.9628906 1.1933594.0805664.1142578.2685547.3808594.2299805.4677734-.1712093.3931465-3.2638273.3629093-3.2553721-1.4042969zm3.1859141-.1132812c-.6642494-.8386173-1.488451-1.6744823-2.5437622-1.5458984l-1.9296274-4.2663574 2.6098642-2.5789795 2.9364014 7.4752197zm-9.864625-5.4335938 6.6444092-2.6716309-1.8363037 1.814209c-.2030478.0814781-6.9473443 2.7877579-6.769897 2.7165527z"/><path d="m13.1291094 26.2728806-3.2387695-1.890625c-.4309034-.2499008-.8050327.3987122-.3779297.6484375 3.3631554 1.9413338 3.2417259 1.9414063 3.4272461 1.9414063.3819637-.0000001.5188436-.5066243.1894531-.6992188z"/></g></svg>