<svg id="Layer_1" enable-background="new 0 0 75 75" viewBox="0 0 75 75" xmlns="http://www.w3.org/2000/svg"><g id="Happy_Kid_1_" fill="rgb(0,0,0)"><path d="m30.6112804 17.1695881c.1152344-.2695313.4550781-.4360352.7373047-.3691406.2841797.0693359.5068359.3740234.4863281.6655273-.0146484.206543.1416016.3857422.3476582.4003906.0087891.0004883.0175781.0009766.0263672.0009766.6828346 0 .4210472-1.5270882-.6826191-1.7954102-.6484375-.1586905-1.3447266.1967773-1.6044922.8007813-.1954613.4537525.4899349.7534218.6894531.296875z"/><path d="m37.2733917 16.5406818c-.3056641.1894531-.5380859.4516602-.7431641.6826172-.3285561.3693333.22826.8689423.5605469.4980469.2880135-.3240185.7094612-.7928753 1.1259766-.6513672.4207764.1380272.4797173.7576904.5175781 1.1938477.0444221.4935894.7902908.4297771.7480469-.0654297-.0273438-.3095703-.0585938-.6601563-.1914063-.9926758-.3467483-.8740101-1.2180747-1.1621666-2.0175781-.6650391z"/><path d="m38.8847198 20.8893147-8.5830097-.7314453c-.1748047-.0219727-.3408203.0952148-.3916016.265625-2.1142635 7.0223808 5.0011425 10.319912 8.1406269 5.3261719.8955078-1.4248047 1.0966797-3.0571289 1.1757813-4.4658203.0117188-.2026368-.1396484-.3774415-.3417969-.3945313zm-8.3398456.0419921 2.1596699.18396c-1.0238056.6114502-1.8570576 1.5333252-2.3685322 2.6107788-.1258545-.8442993-.0690918-1.763855.2088623-2.7947388zm6.8710956 4.4194336c-.7988281 1.2709961-2.1220703 2.0878906-3.3945313 2.0585938-1.3808594-.0219727-2.7285175-1.0043945-3.3544941-2.4448242-.0006104-.0014648-.0008545-.0031128-.0014648-.0045776.0554409-.1017189.5646954-2.5281982 3.1127949-3.552063.0894775-.0361328.1546631-.1044312.1939697-.1846313l4.4827881.381897c-.0898437 1.224121-.3085937 2.5815428-1.0390625 3.7456053z"/><path d="m32.4677277 47.0079689c0 .0166016.0009766.0332031.0029297.0493164.1328125.9975586.3369141 2.1313477 1.0859375 2.9624023.6123695.6780548 1.6260643 1.1728516 2.9931641 1.1728516 2.1390076 0 7.7896004-1.6234398 12.6640625-5.0410156.4824219-.3388672 1.9501953-1.3691406 1.7900391-2.7973633-.0862579-.7616959-.0668983-.5449562-6.5410156-11.0341797-.5288353-.8505974-1.1278114-2.3577347-2.4492188-2.3969746-.5162697-.0166702-.985302.195734-1.4550781.4003906-4.9663277 2.1552563-6.9371681.1938801-7.4189453 2.7846699-1.7714902 8.7871781-.6718751 10.7865525-.6718751 13.8999024zm1.2294921-12.8598633c.3238907-1.588562.0925026-1.778759 1.78125-1.8662109 6.3612099-.3472805 6.1813698-3.4231091 8.0800781-.0288086.3588257.6383362-.1271706-.1918983 6.2285156 10.1225586.2119141.3417969.4296875.6948242.4707031 1.0625.0751953.6635742-.4082031 1.3500977-1.4746094 2.0991211-3.0654297 2.1494141-6.4628906 3.6914063-10.0986328 4.5839844-1.607502.39645-3.4558334.6305542-4.5712891-.6040039-.5996094-.6650391-.7773438-1.6542969-.8955078-2.5341797-.0062331-2.6780091-.9853285-5.6162148.4794923-12.834961z"/><path d="m39.8098907 57.395237c1.0845566-1.5810013 2.4207115-3.0603485 3.5860596-4.539917.2139893-.2718506.8533936-1.4072876 1.1539307-1.4000244.3007813.0073242 1.1286621.8807373 1.4111328 1.071167 1.0207405.6883736 2.1239624 1.2590027 3.2773438 1.6947021.3503418.1323242 1.203125.5657959 1.6604004.5333252.0996094-.0070801.184082-.0800171.2429199-.1608887.7298584-1.0039673 1.3845215-2.062439 1.9577637-3.1633301 2.495018-4.7898445 1.2729988-2.6246147-1.7077637-4.5693359-.3040009-.1983299-.5333099-.590477-.8227539-.4819336-.3620567.1356583-6.2806396 5.2553978-16.1550293 5.8709717-.2721939.0169067-1.2665749 1.9188957-1.4370117 2.3048096-.3762207.852356-.6306152 1.7589111-.7492676 2.6832275-.0383301.2984619-.2116699.9984741.0454102 1.1628418.2961426.1893311 1.2526855.0494385 1.614502.0634155 4.5691336.1763649 4.8518065.4915238 5.9223631-1.0690307z"/><path d="m35.1698761 59.666172c.2303696-.4431076-.4404678-.7828484-.6660156-.3457031-1.3243408 2.5543823-1.9625244 5.4043541-1.8743896 8.2730675-2.0740395-.5291367-3.8243942-.7500916-5.9205341-.1495361-1.235445.354805-1.2951469 1.5217896-.0625 1.8481445 2.1803741.582222 4.6371136.536293 6.7099628-.2416992.2001953-.0751953.6699219-.2514648.6523438-.6616211-.0140381-.3249512-.3217773-.4899292-.6243896-.593811-.1254884-2.8164063.4855955-5.6216393 1.7855223-8.1288415zm-8.3310566 8.9013634c-.2998047-.0795898-.3330078-.1611328-.3339844-.1630859.0097656-.0385742.1416016-.1621094.4111328-.2397461 2.9112511-.8326797 5.5063267.2078857 5.9553242.2624512-1.8258076.626831-4.0084247.6798095-6.0324726.1403808z"/><path d="m54.0028839 50.9015236c-.4884262.0627975-.4014931.8026314.0957031.7441406 2.5327148-.3250122 4.9851074-1.4223633 6.9197998-3.0877075.3603592.4913445.7203026.7847404.9727783 1.1116333.7886353 1.1173477 1.2721901 1.6243019 1.8369141 1.5986328.2001953-.0078125.4833984-.0952148.7021484-.4663086.2617188-.4448242.0136719-.9492188-.0673828-1.1142578-.4121094-.8408203-1.0234375-1.590332-1.7685547-2.1674805-.0458984-.0356445-1.1279297-.8686523-1.7412109-.5141602-.140625.081543-.3662109.2910156-.2978516.7734375.0059814.0420532.0286865.0830078.0396729.1248169-.0349121.0150146-.0749512.0090942-.1051025.0353394-1.8320313 1.6000977-4.171875 2.6523438-6.5869141 2.9619141zm9.8808594-.4804688v.0004883c-.0419922.0717773-.0761719.0966797-.0849609.097168-.1259766-.0175781-.3925781-.1328125-1.0830078-1.1230469-.2123795-.2650681.0074921-.0619507-.546875-.652832-.3076172-.3276367-.7285156-.7763672-.7705078-1.0664063 1.2145843.2890473 2.6622161 2.4540596 2.4853515 2.7446289z"/><path d="m46.301712 32.1993752c-.5081253-.0333214-.5368385.7169685-.0488281.7480469 5.0178719.32827 9.6186333-3.1819801 10.4156494-8.4252338 1.4077148-.4970093.9299316-4.1282349.8314209-4.5239868-.0712891-.2910156-.1865234-.6655273-.4404297-.980957-.8041534-1.0011158-2.4515648-.6299267-2.3847656 1.4711914.0096436.2966309.3648682 3.1790161 1.258667 3.890686-.7180405 4.8321933-4.9389076 8.1105288-9.6317139 7.8202533zm9.6972657-12.9628926c.0087891-.0004883.0166016-.0009766.0253906-.0009766 1.2062836 0 1.0577278 4.3352737.4071045 4.5783691-.0031738-.0007935-.0061035-.0025024-.0092773-.0031738-.4653588-.1614074-1.7083626-4.4819145-.4232178-4.5742187z"/><path d="m22.0067883 29.8043537v.0004883c.2809353 1.2915325 1.4437084 3.3185825 2.6872559 3.3762226 1.329834 2.7363892 3.9522705 4.8339844 6.9309082 5.4987793.4985752.1031532.637598-.626049.1640625-.7324219-2.7774658-.6189575-5.2218018-2.5817871-6.446167-5.1394043.4870605-.9383564-.5186768-3.4796162-.6925049-3.7746601-.1640625-.2783203-.4296875-.675293-.84375-.9082031-.9759751-.5486069-2.142397.1011276-1.7998047 1.6791992zm.8535156-1.034668c.1347656-.1064453.3769531-.1035156.578125.0092773.1982422.1113281.3730469.3071289.5654297.6347656.3300781.5595703.9345703 2.7031269.6894531 3.0161152-1.1844673-.3095054-2.461586-3.1542891-1.8330078-3.6601581z"/><path d="m28.4058361 16.7144489c-.1137695.425293-.2116699.8536987-.2944336 1.2790527-1.8651161-.7412167-3.4399204 2.1951504-.3920898 3.3096924-.1593819 4.0861816 1.6424809 7.1224728 3.980835 8.538269 4.7940845 2.9010677 12.0330181-.1757545 13.6623554-6.4020996.3876953-.1705933.8612061-.3786011.9498291-.4331665 1.2874947-.7941875 1.6847305-2.2602901 1.3283691-3.4911499.0681152.2354126 1.1793213-.7199097 1.2510986-.8305664.8981781-1.3851242 1.4955635-3.1293526.59021-4.5197744-.5441895-.8357544-1.6572266-1.312439-2.5961914-.9764404.7883301-1.5744019.2587891-3.6877441-1.178833-4.7044067s-3.6066895-.811707-4.8284912.4562378c-.2668457-1.8618779-1.9160156-3.4334111-3.7885742-3.610352-1.8725586-.1768799-3.7868652 1.0580444-4.397583 2.8369756-.8193378-1.7721562-3.1939716-2.6239018-4.9527607-1.7765508-1.7590332.8474121-2.572876 3.23523-1.6977539 4.9804692-1.3170166.7874756-1.8186035 2.6845703-1.0627441 4.0200806.75148 1.3279351 2.5455893 1.7480325 3.4267577 1.3237294zm-.5220947 1.9849243c.0316162.015625.0648193.0195923.0975342.0256348-.1010742.6348267-.1708984 1.2415771-.2143555 1.7896729-1.8501606-.772543-.7879238-2.2472725.1168213-1.8153077zm4.20508 10.5004883c-2.7392597-1.6582031-3.6718769-4.9726563-3.6308613-7.5219727.0284424-1.7647095.3861084-4.4019775 1.2122803-6.3926382.4318848-.1842041 1.026001-.182373 1.4575195-.3637085.6044922-.2541504 1.1552753-.6387939 1.592165-1.1286011 1.2051468 1.4607515 3.3733253 1.7500095 4.9229736.5919189.4405823 1.6117201 2.2342758 2.4660788 3.7700195 1.7661123-.361084.1645508 1.203125 1.4675293 1.3820801 1.5371704.865448.3364277 1.3190536-.1078815 1.9475098 1.7421875.1958008 1.0356445.2233887 2.0993652.0435791 3.137207-1.0396576 5.9991305-8.0097808 9.4703161-12.6972656 6.6323244z"/><path d="m33.3026886 25.5777912c-.051651.4953556.6936836.5717163.7460938.0800781.1162109-1.0786133.6494141-2.1079102 1.4638672-2.8237305.3716011-.3251534-.1195374-.8918476-.4941406-.5634766-.9550782.838379-1.5800782 2.0439454-1.7158204 3.307129z"/><path d="m14.7401876 24.098299c.050457.1352005.0135307.1438541-2.4462891 4.331543-.1973839.3344555.1890268.7169952.5234375.5073242l3.984374-2.5126953c.4197865-.2661762.0192204-.8984871-.4003906-.6347656l-2.6796865 1.6899414c1.6733561-2.8481731 1.9313173-3.084465 1.7197266-3.6459961-.1534128-.4067364-.2802744-.411375-3.0507813-2.1552734 1.28125.0629883 2.5751953-.1259766 3.7734365-.5488281.265358-.0929794.3367748-.4376888.1298828-.6289063-1.3085928-1.2114258-2.4609365-2.5722656-3.437499-4.0581055 1.2421875.6645508 2.5664063 1.1552734 3.9511709 1.4643555.32827.0695667.5773067-.286047.3984375-.5683594-.7197266-1.1245117-1.2167959-2.3872061-1.4619131-3.6972647 1.2714834 1.1494141 2.3779287 2.5131826 3.2304678 3.9892569.2498322.4296188.8980541.0537357.6503906-.375-1.0761719-1.8623037-2.4736328-3.4873037-4.1533194-4.8295889-.2589369-.2043676-.6374607-.0022068-.6074219.3271484.1337891 1.4658203.5634766 2.9023438 1.2519522 4.2045889-1.4794912-.4228516-2.874999-1.0703115-4.1621084-1.9301748-.3264484-.2187424-.7276201.1527109-.5351563.4956055 1.0566406 1.874999 2.3662109 3.5834951 3.9003906 5.0859365-1.4570313.4023438-3.0341797.4404297-4.5068359.1005859-.4050474-.0985527-.641758.4563026-.2841797.6826172 4.2744257 2.6908436 4.1727259 2.6031876 4.2119142 2.7060547z"/><path d="m20.0419445 24.0284748c.1025867 0 .0753117-.0115261 2.1347656-.550293.4761295-.1265793.2929401-.8490009-.1914063-.7255859l-2.0390625.5385742c-.421215.1109543-.3426074.7373047.0957032.7373047z"/><path d="m20.6630383 21.0460529 1.1884766.2807617c.4811115.1161308.656147-.6160278.171875-.7294922l-1.1865234-.2807617c-.2060547-.0463867-.4042969.0771484-.4521484.2783203-.0478517.2016602.0771483.4033204.2783202.4511719z"/></g></svg>