<svg id="Layer_1" enable-background="new 0 0 75 75" viewBox="0 0 75 75" xmlns="http://www.w3.org/2000/svg"><g id="Hats_Off" fill="rgb(0,0,0)"><path d="m43.564785 36.9484138c.6002197-.2244873.9243774-.8408203.723938-1.3769531-.2003784-.5358887-.8493652-.7884521-1.449585-.5640869-.6002197.2244873-.9243774.8409424-.723938 1.3768311.2003785.5358886.8493653.7885742 1.449585.5642089z"/><path d="m41.6407738 39.3998299c.2004395.5358887.8494263.7885742 1.449646.5640869.6002197-.2243652.9243164-.8408203.723938-1.3768311-.2003784-.5358887-.8494263-.7885742-1.449646-.5640869s-.9243164.8408203-.723938 1.3768311z"/><path d="m33.7287865 49.2301521c.0927467-.5116844-.7157555-.6297874-.7460938-.0664063h-.0009766c-.1502953 2.178154-.2936287 4.6688766 1.3828125 6.0107422 1.3143768 1.0336494 3.2414818.9445801 4.9282227.8066406 11.5922394-.9377708 12.041378-.9055519 13.0917969-1.28125.8034744-.2665901 1.5978699-.8148766 1.9833984-1.5859375.3256836-.6816406.277832-1.4199219.2392578-2.0146484-.390625-5.5234375-1.2861328-11.0498047-2.6606445-16.4257813-.3139648-1.2197266-.855957-2.6699219-2.2758789-3.046875-.8579102-.2207031-1.7319336.0292969-2.5776367.2724609-.1001549.0122108-3.7157059 1.2818108-6.734375-.21875-2.0671082-.9930649-3.4076462.0142937-4.1914063 2.1601563-1.5532227 4.2490234-2.5654297 8.6640625-3.0087891 13.1220703-.0489273.4916153.69664.5711403.7460938.0742188.4375-4.3955078 1.4355469-8.7490234 2.9667969-12.9384766.7743912-2.1209965 1.8500252-2.3712578 3.1582031-1.7441406 3.3398819 1.6601639 7.1151047.2840538 7.2700195.265625.75-.2138672 1.5224609-.4365234 2.1816406-.2675781 1.034668.2753906 1.4594727 1.4228516 1.7387695 2.5078125 1.3632813 5.3320313 2.2514648 10.8134766 2.6391602 16.2900391.0733948 1.1326103.0288124 1.8358765-.9570313 2.4697266-1.1644287.7607307-1.698658.6325302-13.6708984 1.6132813-4.0678902.3343468-5.7134361-.4203148-5.5668945-4.6630859.0151368-.451172.0341797-.8935548.0644532-1.3398439z"/><path d="m48.7880516 18.9343758c-.5236206-.1522217-1.1287231.3460693-1.3516235 1.1126709-.2229004.7668457.020874 1.5117188.5444946 1.6640625.5235596.1520996 1.1287231-.3460693 1.3516235-1.112793.2228394-.7668457-.020874-1.5117188-.5444946-1.6639404z"/><path d="m41.1299706 20.431324c.5235596.1520996 1.1287231-.3460693 1.3516235-1.112793.2229004-.7668457-.020874-1.5117188-.5444946-1.6639404s-1.1287231.3460693-1.3516235 1.1126709c-.2229005.7668457.0208739 1.5117188.5444946 1.6640625z"/><path d="m48.8977318 23.3912849c-.1474609-.0673828-.3203125-.03125-.4306641.0878906-2.2994194 2.4925537-6.4665108 1.6166897-7.5625-1.5986328-.1108131-.3293915-.6298256-.3495674-.7202148.0351563-.3803711 1.6240234.1064453 3.3173828 1.2705078 4.4189453 1.1732826 1.1114559 2.9995499 1.5408268 4.5561523 1.0078125 1.6635742-.5703125 2.9404297-2.0380859 3.1049805-3.5693359.0170898-.1611328-.0708008-.3144531-.2182617-.381836zm-3.1298828 3.2421875c-2.2054787.7534199-4.7229919-.7156487-4.9453125-3.2675781 1.6433907 2.3884621 4.7510262 2.9899979 7.1586914 1.4804688-.4550782.790039-1.2578125 1.4589843-2.2133789 1.7871093z"/><path d="m50.3117943 9.4948006c1.0605469.0341797 2.0644531.8339844 2.3349609 1.8603516.1270714.4803553.8517685.287611.7255859-.1914063-.3579102-1.3554688-1.6347656-2.3730469-3.0361328-2.4189453-.500988-.0096341-.5150413.7337999-.024414.75z"/><path d="m37.4431419 66.6149216c-1.1467514 1.2460709-.726059 2.8349609 1.4580078 2.8349609 1.5440788 0 3.3375549-1.0945358 3.6005859-2.5380859.1964951-1.0708923-.4746475-1.8733902-1.3511963-1.9291992l-.1536865-8.545414c-.0039063-.2050781-.1708984-.3681641-.375-.3681641-.0019531 0-.0043945 0-.0068359 0-.2070313.0039063-.371582.1748047-.3681641.3818359l.1541748 8.5719032c-1.1630668.1612626-2.1715926.7353745-2.9578857 1.5921632zm3.6342774-.8896485c.4224281.0100784.805809.4007645.6870117 1.0517578-.1850357 1.0070038-1.8162117 2.2336655-3.5307617 1.8476563-1.3147812-.2993851-.4738083-1.5885696.7822266-2.3369141.6825141-.4086456 1.4127883-.5830993 2.0615234-.5625z"/><path d="m47.4114037 68.8737106c.7744141.6552734 1.7021484 1.0019531 2.6352539 1.0019531 2.5980377 0 2.8382454-2.2716827.2709961-3.8056641-.5369263-.3203125-1.1131592-.5231934-1.6997681-.6130371l-.4550171-9.2316933c-.0102539-.2060547-.1918945-.3554688-.3930664-.3564453-.206543.0107422-.3662109.1865234-.355957.3935547l.4504395 9.139164c-.0040283.0001221-.0079346-.0007324-.0119629-.0004883-1.4326859.0395661-2.1575356 2.0231324-.440918 3.4726563zm3.3037109.1767578c-.9692383.2177734-1.9951172-.0527344-2.8198242-.7490234-1.134655-.9587097-.8354187-2.1513672.0678711-2.1513672 2.2293892 0 4.6004677 2.4794769 2.7519531 2.9003906z"/><path d="m52.3572044 33.9420662c-.4896965-.0666733-.5914726.6784554-.0976563.7441406 2.9633408.3857307 5.8748665-.2772713 8.3145752-1.7293701.2757568.2457275.6139526.3270264.9383545.3270264.5887337 0 2.05056-.4234505 2.7568398-.9179688 1.4538956-1.0176239 1.2548523-2.7567501.2211914-3.3251953-.8017616-.4404297-1.9370155-.1914063-2.6508827.2265625-.0004883 0-.0004883 0-.0004883 0-1.0021744.5883617-1.8950615 1.93647-1.6365967 3.0358887-2.3608398 1.40979-5.132019 2-7.8453369 1.638916zm8.6186524-2.4589844c.4879189-1.5836487 2.2786751-2.2688618 3.1533241-1.7851563.5589523.3072281.6859589 1.3703785-.2900429 2.0537109-.4609375.3232422-1.0375977.4892578-1.5952148.6494141-1.0194779.2943078-1.5790863.0836831-1.2680664-.9179687z"/><path d="m68.775177 41.5836678c.3985519.1453438.6921692-.3743134.3710938-.6396484-2.1131058-1.7533989-3.1416931-2.5597649-3.1650391-2.6601563-.0264969-.1192207.5123291-.6912842 2.4804688-3.2597656.2404938-.3088875-.0963974-.734745-.453125-.5712891l-3.5654297 1.6425781c-.4459267.2061691-.1428528.8867188.3144531.6816406l2.1645508-.9980469c-2.3144455 2.9716034-2.3616867 2.3356323.4594727 4.6748047-.9887695-.1503906-2.0048828-.1230469-2.9731445.0810547-.128418.0273438-.2333984.1201172-.2768555.2441406-.1737099.5013885.7974548.7526321 2.3486328 3.8574219-.9023438-.6220703-1.8798828-1.1269531-2.9194374-1.5068359-.1425781-.0498047-.3022461-.0126953-.4047852.0996094-.3861771.419281.5310211.8982086.7241211 3.4121094-.8666992-1.046875-1.5859375-2.2353516-2.1035156-3.484375-.1876945-.4569969-.8836288-.1728249-.6923828.2871094.6894531 1.6640625 1.671875 3.1650391 2.9194374 4.4609375.2269897.2378044.6316528.0853958.6445313-.2451172.0463867-1.1855469-.1362305-2.3779297-.5317383-3.4960938 2.8018417 1.2566757 3.017662 2.3816376 3.5419922 2.0019531.1416016-.0996094.1958008-.2841797.1313477-.4453125-.6567383-1.6357422-1.5336914-3.1650391-2.6108398-4.5546875 1.2075193-.1494141 2.4619139-.0058594 3.5961912.4179688z"/><path d="m61.4441185 37.7174568-1.7426758.2226563c-.2055664.0263672-.3510742.2138672-.324707.4199219.0244141.1894531.1855469.3271484.371582.3271484.015625 0 .0317383-.0009766.0478516-.0029297l1.7426758-.2226563c.4876937-.0625534.4041786-.8016166-.0947266-.7441406z"/><path d="m59.7663841 39.7565193c-.4624557-.17696-.7303734.5255737-.265625.7011719.9759979.3623276.9614677.3857422 1.0834961.3857422.4147987 0 .5195007-.5775337.1337891-.7255859z"/><path d="m35.729763 21.0280037h.0185547c.0215454 0 .0405273-.0085449.0611572-.0119629.019043 1.2138672.2110596 2.3127441.586792 3.3371582 1.4520035 3.9739552 6.0794067 6.5924492 10.2973633 5.8496094 3.3334351-.5843506 6.1752319-3.1083984 7.3831787-6.2839355 1.503643.2310925 2.5864906-.9366837 2.2713013-2.1657715.1753807-.0042706.308815-.1213436.3513794-.2700195.8433952-2.9259472-.1910858-6.0678911-1.4511719-7.4599609-.3427734-.3808594-.3427734-.3808594-.0415039-.9267578 2.0652351-3.7439489-1.464592-7.5594888-5.1020508-6.3242183-.4677238.1590271-1.1980896.8275385-1.4423828.8330078-.0014648 0-.0024414 0-.0039063 0-.1708984 0-.387207-.2822266-.5610352-.5097656-1.7471199-2.2641273-5.0752678-2.7178183-6.6640625-.6240234-.4162941.5519438-.3624077.9914451-.5888672 1.5019531-2.31073-.4891334-4.9758759.176784-6.265625 2.202148-.762207 1.1953125-.9575195 2.84375-.5351563 4.5234375.2759399 1.0974121.7695923 2.1038818 1.2929077 3.0733643-1.8219069.5508173-1.4419859 3.167013.3931276 3.2557371zm10.8339844 8.4365234c-3.8837891.6767578-8.1323242-1.7275391-9.4633789-5.3691406-1.0009155-2.7307091-.369915-5.1741848-.0800781-7.0998535.2849731-.369873.6663818-.6854248 1.0756836-.9929199 1.9606895-1.4665527 3.8294601-1.6952057 5.2597656-1.2480469 1.8522186.5831814 3.59515 1.3658066 5.3637695.4013672.074707.8535156.6142578 1.6416016 1.2456055 2.1347656.9012184.7052994 1.9907761 1.0730953 3.0712891 1.4580078.378933.1354427.7379608.6537323.8717041 1.0310059.4791641 4.4479446-2.8993149 8.9052372-7.3443604 9.6848144zm7.7554932-6.2695312c.1676025-.5727539.2855225-1.1611328.3406982-1.7614746.0341797-.0019531.0684814-.0023193.1025391-.013916.3081055-.1103516.7226563.0996094.8510742.4316406.2432899.62714-.3068237 1.4105987-1.2943115 1.34375zm-19.107544-12.6171875c.8627205-1.3540611 2.7230568-2.3078785 5.3105469-1.9033203l.152832.0292969c1.1236916.2373314.8685951-1.1353903 1.3564453-1.7792964 1.2979317-1.7111273 4.0585823-1.2127256 5.4702148.6269531 1.2940559 1.6918578 1.9822884.2209249 2.8442383-.0683594 2.9605522-1.0139532 5.955658 2.0775104 4.2036133 5.2519526-.9147987 1.659152.2589264 1.0406675 1.2597656 3.8466797.4848633 1.3613281.5844727 2.8369141.2910156 4.2089844-.3860512-.1830769-.8161087-.2615337-1.230957-.2324219-.1178703-.9915619-.6513519-2.1834431-1.5800781-2.5166016-.9871788-.3513527-2.0481453-.7050209-2.8623047-1.3408203-.6206055-.4863281-1.1650391-1.3828125-.8925781-2.2050781.1204872-.3647757-.3215752-.6514263-.6040039-.3994141-1.5904083 1.4011068-3.3779755.5607195-5.3500977-.0566406-1.6538086-.5192537-3.7800217-.2509317-5.934082 1.3632813-.458374.3441162-.9127808.7231445-1.2629395 1.1984863-.2604332.3170528-.3719864.6543674-.4206543.7546387-.4882813-.9091797-.9423828-1.8476563-1.1914063-2.8408203-.3725585-1.4794922-.2119139-2.9140625.4404298-3.9375zm.4917603 7.8668213c.1820412.3289871.1676483.3246956.2454834.3968506-.0663452.4997559-.1157837.9858398-.1343994 1.4489746-.0166626-.0031738-.03125-.0115967-.048645-.0124512-1.1120377-.0528755-1.1781769-1.6906242-.062439-1.833374z"/><path d="m11.3361492 30.0519295c-5.3014274 6.194149-2.2214489 10.782814 12.4785767 2.199707 1.071106-.6306152 2.1360474-1.2995605 3.1585083-1.9866943 1.2684937 3.5369873 3.8042603 6.5826416 7.0421734 8.395874.434021.2427559.7964745-.4124184.3662109-.6542969-3.1376934-1.7578125-5.5878887-4.7299805-6.7720928-8.1779785 10.8994312-7.5532551 7.4920177-11.3828506-.703186-9.2672119-.0617065-.1030159-3.4155846-5.5084562-3.4837036-5.6124268-.2689896-.414547-.8998508-.007103-.6279297.4101563.1516972.23209.0324726.0568619.8983765 1.4526367-.2177753.0475082-2.9232655.7989197-5.2746582 1.8421631-.8999634.4000244-1.7799683.8399658-2.6400146 1.3199463-3.2336769 1.8223305-6.2480869 4.450613-6.677124 5.0952148l-2.4955444-3.9853516c-.3071289-.4863281-.1064453-1.1914063.6137695-2.15625 2.1670399-2.9207439 8.3829212-6.8124065 11.8325195-7.1914063.9702148-.1113281 1.5751953.1113281 1.9702148.7460938.3759766.6132813.7529297 1.2275391 1.1386719 1.8408203.2637653.4215536.8993301.0206528.6347656-.3984375-.3842773-.6123047-.7592773-1.2236328-1.1489258-1.8583984-1.896595-3.0413866-8.7384596 1.0525866-11.5913086 3.1660156-1.8359118 1.359623-5.3027697 4.3200665-4.0849609 6.2509766zm22.2808209-8.4184571c.0004883.0009766.0009766.0009766.0014648.0019531 1.0029297 1.7490234-3.1850567 5.8486328-10.1831036 9.96875-6.8681641 4.0126953-12.3041992 5.6318359-13.5229492 4.0341797-.2324219-.3056641-.2958984-.7451172-.1884766-1.3046875.4331055-2.2519531 3.7231445-6.2470703 9.1757813-9.5253906 6.4795952-3.9200248 13.6383-5.0824928 14.7172833-3.1748047zm-18.0285626-.5996093c.1600342.4699707.3900146.9199219.6800537 1.3300781.2800541.3965759-.2985439.8318691-.6199951.4299316-.3300171-.4699707-.5900269-.9699707-.7700195-1.5100098-.1610918-.460102.5349827-.7251567.7099609-.2499999zm.1600342 2.3400879c4.7184448-3.1023426 8.9128609-4.0997581 9.3671875-4.2785645.0901318.1444588.3779621.6061764 1.0391235 1.6713867-5.4964371 1.6032295-10.9245348 5.0517883-14.2984009 8.7021484l-1.196167-1.9102783c1.6354371-1.4483642 3.2163697-2.9432373 5.0882569-4.1846923z"/><path d="m13.9948406 33.1823006c1.0963745 1.439209 4.9336548.3703613 9.0910034-2.0480957 4.1434937-2.4287109 7.1604614-5.3969727 6.2306519-7.0151367-.914917-1.6115723-5.5726318-1.1154785-9.8850098 1.4959717-4.324768 2.6030273-6.5202026 6.1423339-5.4366455 7.5672607z"/><path d="m17.6130657 13.3170662c-.4427738.2243071-.1040173.8933592.3388672.6699219.6806641-.3447266 1.4731445-.4902344 2.2294922-.4052734.5014915.0444212.5692844-.690671.0820313-.7460938-.8984376-.0996094-1.8422852.0722656-2.6503907.4814453z"/></g></svg>