<svg id="Layer_1" enable-background="new 0 0 75 75" viewBox="0 0 75 75" xmlns="http://www.w3.org/2000/svg"><g id="Heart_Balloon" fill="rgb(0,0,0)"><path d="m27.2381477 33.8215561c1.7151375-.5901527 2.2182617-.66576 4.2802734 4.9257813.2333984.6308594.4658203 1.2636719.7216797 1.890625.5787621 1.4201431 1.231266 5.2145157 1.4228516 6.7392578.0612144.4920921.8049736.3999519.7441406-.09375-.2639351-2.0954132-.6144829-3.577961-.7128906-4.0869141-.507946-2.503994-.5373955-2.1724968-1.4716797-4.7089844-3.0283051-8.2171154-3.4782352-5.2869682-8.0888672-4.6513672-4.6277275.6362152-6.412571-1.4690132-7.6992188-.0683594-.4658213.5117188-.4414072 1.2207031-.3818359 1.8447266.336935 3.6100349 1.0757217 4.2260551.4189453 10.74646-1.4669199-.1984863-2.9820566-.9564209-3.5917978-2.4075928-.9525766-2.2650146.5963469-4.6112747 1.859375-6.4482422.2828503-.4090805-.3380203-.8339729-.6171875-.4257813-.7021484 1.0195313-1.4277344 2.0742188-1.8710938 3.2832031-1.2925501 3.5161362.6451511 6.2699013 4.1317148 6.7419434-.0007286.0048828.009201-.0592384-.0789795.5246582-.3906698 2.3006096-1.3419352 4.4567871.8623047 6.3232422 2.8948021 2.437088 9.9074764 1.9103546 13.6503906 1.046875 1.0361328-.2392578 2.1962891-.6015625 2.9453125-1.4755859 1.0337486-1.2115059.9088821-2.7783356.8720703-4.1298828h-.375l-.3740234.0898438c.2395058 3.1834488-.5994415 4.1757813-3.2363281 4.7851563-3.4680424.7985725-10.3376293 1.3517494-12.9990234-.8896484-1.9160461-1.623539-.9159298-3.4965668-.5178223-6.2159424 2.0770855.0385857 4.032505-.7942772 5.9290771-1.6212158.598444.2881317 1.4105148.2615128 2.071167.170166.9580078-.1328125 1.7529297-.6787109 2.0751953-1.4228516.4472656-1.0332031-.1035156-2.3535156-1.1787109-2.8261719-.9892578-.4326172-2.2392578-.1152344-2.9775391.7529297-.0009766 0-.0009766 0-.0009766 0-.5273438.6210938-.9355469 1.7451172-.6533203 2.6074219.0186768.0571289.0606689.0987549.0870361.151001-3.9089031 1.6993408-5.1383667 1.4180565-5.2646484 1.4439697.6578903-6.5445518-.0861092-7.3415718-.4200439-10.8742676-.0439453-.4648438-.0693359-.984375.1894531-1.2685547 1.0052663-1.0910798 3.6499349 1.855194 10.2500001-.4521485zm-3.6162109 8.8789062c.5214844-.6123047 1.4238281-.8496094 2.1054688-.5517578.6855469.3007813 1.0703125 1.1962891.7919922 1.8408203-.2617188.6044922-.9423828.9013672-1.4912109.9785156-.828125.1152344-1.7705078.0742188-1.9189453-.3789063-.1816407-.5556639.1181639-1.4257811.5126952-1.8886718z"/><path d="m25.4526253 21.9851322c.5866699.0449219 1.0986328-.3942871 1.1435547-.9807129.0449219-.5866699-.394165-1.0985107-.9807129-1.1435547-.5865479-.0449219-1.0985107.394165-1.1434326.9807129-.045044.58667.394165 1.0985108.9805908 1.1435547z"/><path d="m17.9267464 22.9751225c-.0449219.5866699.394043 1.0986328.9807129 1.1435547.5864258.0449219 1.0983887-.394165 1.1433105-.9807129s-.394043-1.0985107-.9805908-1.1434326c-.5865479-.045044-1.0985108.394165-1.1434326.9805908z"/><path d="m19.4666634 27.4143314c1.2786198.9455338 2.7074604 1.7763004 4.2871094 1.4970703.9306641-.1611328 1.7841797-.7363281 2.2822266-1.5371094 0 0 0 0 0-.0009766.2753906-.4433594.4453125-.9589844.4912109-1.4873047.0283203-.328125.0888672-1.0097656-.3486328-1.2617188-.1699219-.0996094-.3945313-.0478516-.5029297.1220703-.4598007.7159729-.4716759 1.1401196-2.0839844 1.5986328-1.2626953.3574219-2.5605469.4921875-3.875.3935547-.3487606-.0477465-.5644322.4433748-.25.6757814zm6.290039-1.4072265c-.2781448 1.7632332-2.1979275 3.0495834-4.8095703 1.5058594 1.3894348-.0479603 3.9060574-.4406663 4.8095703-1.5058594z"/><path d="m7.8817019 53.3733139c-1.8515997.8224106-1.5868831 3.2862549 1.179687 2.921875.4855127-.0644264.404726-.8009682-.0976563-.7441406-.3173828.0429688-.6513672.0703125-.9433594-.0068359-.902916-.239006-.6408877-1.1273079.1660156-1.4853516.8017578-.3554688 1.7939453-.2158203 2.46875.3476563.3727226.3191452.8648663-.2534943.4804688-.5742188-.8876952-.7441406-2.1943358-.9277344-3.2539057-.4589844z"/><path d="m11.6717405 52.0422592c.4766102 0 .506422-.7085686.0322266-.7490234-2.2353516-.1894531-4.3964839-1.2373047-5.9306636-2.8740234-.140625-.1494141-.3798828-.1591797-.5302734-.0166016-.1503906.1416016-.1582031.3789063-.0166016.5302734 2.8252788 3.0131874 6.5454192 3.1374016 6.445312 3.109375z"/><path d="m11.5887327 49.156517c.47824.127533.6594267-.613472.1757813-.7285156-.8261719-.1992188-1.5097656-.8896484-1.7001953-1.71875-.1106329-.4849014-.8423309-.3144379-.7304688.1679688.2519531 1.1005859 1.1582031 2.0166015 2.2548828 2.2792968z"/><path d="m20.3026009 56.2395248c-.1972656.0380859-.3789063.1582031-.3847656.3652344l-.2491455 9.3383789c-1.3200684-.1461182-2.9345703.4797363-3.6668701.996582 0 0 0 0-.0009766 0-1.1612406.820343-.9021025 1.8586273.0400391 2.2949219 1.090786.5068588 4.4323463.3190765 5.2314453-.8535156.5206528-.7685013.1570454-1.828949-.8580322-2.2583008l.25354-9.4985352c.0058593-.2070312-.1582032-.3789062-.3652344-.3847656zm.3496093 11.7197266c-.1621094.2373047-.5087891.4208984-1.0595703.5595703-.8873348.2215576-3.4735222.4799881-3.6123056-.3466797-.1326132-.798912 3.7777834-2.3635178 4.6738291-.9179688.1376953.2226563.1367187.4990235-.0019532.7050782z"/><path d="m32.9150276 65.991478-2.085083-10.2421875c-.1014462-.5023918-.8327751-.3255882-.734375.1503906l2.0511475 10.0749512c-1.0663052.0472336-2.622282.2637558-2.755249 1.3215332-.0755768.5900726.2431774 1.2871323 1.3242188 1.7333984 1.2837944.5298233 2.7347565.5507126 3.9814453.1054688 1.2821426-.4588699 1.4033356-1.481781.7822266-2.1601563-.2402345-.2626953-1.7515794-.909874-2.5643312-.9833984zm1.5301514 2.4365234c-1.819931.6509018-4.4385071-.0448685-4.3095703-1.0371094.0380859-.3046875.5996094-.5234375 1.6953125-.6523438.9177513-.1035385 1.7862053.0437393 2.5537109.390625.8950806.4022828.9746781.9752427.0605469 1.2988282z"/><path d="m63.1697884 7.0940185c-1.799572.3867083-3.1139183 1.7529998-4.3398438 3.0673823-.807621-1.6152382-1.8411713-3.2932477-3.3916016-4.092773-3.312088-1.7042198-6.9466934.6442409-8.0576172 4.1523433-1.5206261 4.7998676 1.344883 12.7274828 8.3240967 16.5866699.0939369 2.5893288 3.7706261 2.0421791 4.2989502 3.748291.5186272 1.6648235-2.1743584 2.5837154-3.0595703 3.1142559-2.0863533 1.216156-3.3701172 3.5138855-3.3701172 5.7939453-2.4630775-.1127777-4.935379.8783607-6.5543213 2.9188232-5.0391846-.8787842-9.7775879-3.026001-13.7113037-6.2293701-.3850899-.3146439-.8578987.2691689-.4726563.5820313 3.9351807 3.2054443 8.6588135 5.3720703 13.7064209 6.314209-1.5354004 2.3770752-1.9279785 5.4655762-2.2415771 7.9680176-.0610428.4953957.6835747.5833054.7441406.09375.3468018-2.7692871.7752686-5.3034668 1.8673096-7.2504883.4349518.4853287 1.5537071 1.0834961 2.5155029 1.0834961 3.0538673 0 2.9912529-4.2549477-.0303955-3.6877441 1.3253098-.793499 2.7656364-1.1132813 4.2130127-1.0407715.3325615 3.6178703 3.2454605 5.8932457 4.9501953 4.7509766.7724609-.5146484 1.0458984-1.6269531.6386719-2.5849609-.676857-1.651989-3.1022453-2.6288452-4.8740234-2.8554688-.0240974-2.048317 1.1304741-4.1202049 3.0009766-5.2109375.8834381-.530674 4.1121292-1.6721077 3.3945313-3.98242-.6341248-2.0423775-3.58424-1.6137104-4.1820068-3.1147461.1000099.0124722.1679993.0296555.2503662.0131836 8.0604362-1.596653 13.3034859-8.7860107 13.0790977-14.0302744-.1665497-3.809185-3.1478501-6.8738813-6.6982384-6.1074204zm-12.5332032 35.1005845c.3007813.2597656.3964844.7578125.2226563 1.1591797-.314064.7310104-1.3461494 1.1373405-2.5048828.5810547-.828125-.3984375-.9570313-.6162109-.9453125-.7490234.5700683-.7036477 2.4338989-1.6757699 3.227539-.991211zm7.8710938.4765625c.2275391.5361328.1533203 1.3271484-.3642578 1.671875-1.1117134.7517166-3.424736-1.062542-3.7705078-4.0527344 1.4467773.2111778 3.5863838 1.0490761 4.1347656 2.3808594zm8.8818321-23.654295c-2.3291016 3.7958984-6.3212852 6.5839844-10.6855431 7.4667969l-.0732422-.0097656c-6.9575462-3.4728069-10.0141029-11.3628139-8.5351563-16.0263672.9845352-3.1096864 4.1452141-5.1809983 6.9990234-3.7128901 2.6001129 1.3414369 3.0954094 5.1418958 3.9599609 4.2773433 1.1915207-1.2014503 2.4164772-2.7859468 4.2734375-3.1855464 4.1516764-.881272 8.1938745 4.4544967 4.0615198 11.1904291z"/><path d="m62.1443977 11.6750727c.7880859 1.1835938.9394531 2.8398438.4160156 4.5439463-.4824219 1.5703125-1.4267578 2.9716797-2.3398438 4.3271484-.2782555.4115353.3446045.8309193.6210938.4199219.9443359-1.4013672 1.9208984-2.8505859 2.4355469-4.5263672.5898438-1.9208994.4052734-3.8085947-.5078125-5.180665-.2743148-.4114714-.8993606.0009593-.625.4160156z"/><path d="m15.1977415 30.6897221c-.6188965-.5300293-1.1674805-1.1364746-1.6530762-1.7897949 3.7590437 4.7381191 10.6990919 4.2983875 14.2268076.3547363.510498-.0332031 1.1755371.161377 1.5585938.1582031 2.2042198-.0187531 4.2440224-.600544 5.4472656-2.4677734 1.9655762-3.050293-.2376709-7.9102783-2.010498-10.5893555-3.1097507-4.6997404-7.02244-4.7818279-8.1291504-5.3895273-3.3052979-1.2088623-7.5639648-.9100342-10.7512217.4976807-3.4443359 1.5292969-6.2224116 4.8325205-6.4865718 8.5877695-.0727539.9500732.0205078 1.8892822-.0866699 2.8250732-.2698975 2.2109375-1.0281982 4.2490234-.2403564 6.4885254 1.23352 3.5063457 5.4270014 2.1037597 8.1248774 1.3244629zm-3.6850586-6.7093506c.0168457.1768799.0378418.3499756.0625.5195313-.0339355-.1673584-.074707-.3331299-.1003418-.5020752.0131836-.0043946.0246582-.0129395.0378418-.0174561zm1.6827393 4.4334717c.0836182.119873.1646729.2412109.25354.3571777-.0854492-.1186524-.1728516-.2353516-.25354-.3571777zm16.8083505-11.9067383c1.5302734 1.8935547 2.171875 4.453125 1.7177734 6.8466797-.0341797.1796875-.1914063.3046875-.3681641.3046875-.2353783 0-.4124794-.213768-.3681641-.4453125.4130859-2.1787109-.171875-4.5097656-1.5654297-6.2353516-.3095892-.3840771.268923-.8581123.5839845-.4707031zm-6.4547119 1.8913574c.6560059-.0913086 1.2756348-.3269043 1.8657227-.6357422.3815918-.1962891.9060059-.7062988 1.3581543-.9536133.1337013.3242264 1.9286022 1.6525097 2.4241943 4.7155762 0 .0527344-.0068359.0488281.0146484.0966797.3867188 2.5283203-.2958984 5.1269531-1.8271484 6.953125-2.4980469 2.9853516-7.1572266 3.8994122-10.6074219 2.078125-2.3991337-1.2630463-4.2524719-3.8223991-4.5292978-7.0192871 1.1723051-.7282352 1.8952112-2.0597343 1.7304688-3.5141602-.0325928-.3446045-.4957275-1.2296143-.1934814-1.4777832.2524414-.2166748 1.4057617.284668 1.7314453.3449707.6533213.09729 1.3120127.1242676 1.9597178-.0148926 1.282959-.2675781 2.4880371-1.3668213 2.4597168-2.6904297.3090819 1.510254 2.0866698 2.3308106 3.6132811 2.1174317zm-4.4827881-4.8903818c-2.5369129 2.1182795-5.2607813 1.9340057-5.3642588 1.953125-.1741943 0-.3137207-.1208496-.3560791-.2817383.178833-.1704102.3664551-.3300781.5631104-.4782715 1.6878662-.0541992 3.3822031-.6887207 4.6767588-1.7692871.3812923-.3181333.8612976.2584248.4804687.5761719z"/></g></svg>