<svg id="Layer_1" enable-background="new 0 0 75 75" viewBox="0 0 75 75" xmlns="http://www.w3.org/2000/svg"><g id="Heart_Garland" fill="rgb(0,0,0)"><path d="m31.4459343 55.9379768c-.203125-.0195313-.3916016.1225586-.4165039.3286133l-1.1229248 9.4851036c-1.4703579-.492569-4.2531147.6903915-4.225708 2.2966309.022892 1.2562027 1.293787 1.6342773 2.5498047 1.6342773.970974 0 2.1648693-.2401733 2.6708984-1.0742188.4375839-.7192154.3540707-1.787262-.2895508-2.4333496l1.1625977-9.8205528c.024414-.2055664-.1225586-.3920898-.3286133-.4165039zm-1.1850586 12.2807579c-.5419083.8918304-2.9556389.8572845-3.550293.3740234-.3731842-.302948-.438673-.8575592.2133789-1.3925781 0 0 0 0 .0004883-.0004883.6548538-.5376434 2.103878-1.0886765 2.9091797-.670166.0251141.1748886.1644726.3190918.3604736.3227539.0687256.0996094.1292725.2094727.1722412.3425293.1079102.331543.0654297.7431641-.1054687 1.0239258z"/><path d="m43.6280632 68.8212738c.9380875.4964828 2.0290527.5544357 2.996582.1591797 1.1756287-.4821625 1.2086906-1.757843.0600586-2.425293 0 0 0 0-.0004883 0-.8574295-.4957581-1.6900482-.5647202-2.6148071-.4006348l-1.3461304-9.2614707c-.0722351-.4904823-.8135796-.3829536-.7421875.1074219l1.3632202 9.3791466c-.9758949.4773559-.9573097 1.782936.2837525 2.4416503zm1.2685547-2.0014648c1.3381767 0 2.5678139 1.0056305 1.4438477 1.4663086-1.2233162.4997025-3.0434341-.0591507-2.9311523-.9433594.0513419-.4075012 1.1017493-.5229492 1.4873046-.5229492z"/><path d="m14.8276472 37.3798714c-.3200464 2.322525.5554905 5.0076828 2.4073496 6.8115234.0649986.0639992.218605.1334076.3095703.144043.8741245.0996933 1.8118877.0548019 2.7763672-.1665039.4814167-.1107407.3185787-.840744-.1679688-.7314453-.8251953.1904297-1.6484375.2421875-2.4516602.1606445-1.2985229-1.2945557-2.0847178-3.1102295-2.1746225-4.9493408 1.0104876 1.0766754 2.4783373 1.0100517 3.2869272.2711182.9720573-.888485 1.1038857-2.7620697-.6247559-4.5107422.0922241-.0054932.1850586-.0187988.276123-.0117188.4155273.0239258.8334961.2177734 1.1469727.5307617.9653683.9653664.5045071 2.8702011 1.3540039 2.5092773.3436203-.150177 1.3397293-.8830986 2.2646484-.7915039 1.2212334.1183624 2.1441727 1.5109367 1.5385132 3.2160645-.0014648.003418-.0044556.0054932-.0057983.0090332-.0712986.1000061-.5229206 1.7331581-2.8066406 2.8979492-.4412937.2241478-.10256.8936157.3408203.6679688 1.2011414-.6119843 2.4380817-1.6707993 3.0330811-2.940918.4647465.177269.6620026.269043.7853394.2966309-.0836487.8492203.0753555 1.8862381.671814 3.0848389-.6882057 4.7220917-1.4716129 7.1156158-.2797852 8.9925537.9350586 1.5117188 2.7866211 2.0170898 4.4760742 2.3125 4.0202065.685421 8.1295547.7995758 12.2050781.3330078 4.6062622-.5275307 5.5974197-2.3915939 5.4829102-6.1230469-.0592651-2.0834961-.1799927-4.1867676-.3556519-6.255249.1696815-.4889641.2886543-.9339371.3428345-1.5622559.5344238-.0482178 1.0646973-.1516113 1.5767822-.321167.471386-.1559563.2335587-.8700943-.2363281-.7119141-.4332886.1435547-.8809204.2304688-1.3319702.2768555-.0531693-.7860069-.2286377-1.3926239-.7783813-2.0949707-.1548462-1.2365723-.3106079-2.4648438-.4942017-3.6988525.0689087.0350342.145752.0549316.2261353.0408936 3.4674072-.5759277 7.0802612-.0543213 10.2582397 1.4403076-.0991211.0323486-.1987305.071167-.2922363.1246338-.5536766-.2021446-1.1069221-.1263199-1.5404053.1121826-.8076935.4428864-1.2140694 1.576149-1.3499756 1.7799072-.4470596-.3569946-.9881058-1.1179733-1.8600464-1.2799072l-1.5899658.4300537c-2.237175 1.9116898.1535835 6.6049957 4.4099731 7.329834l.0800171-.0098877c1.5616455-.8138428 2.7563477-2.2667236 3.2877197-3.9287109 1.6946335-.9287491 1.7774773-3.433094-.0757446-4.4202881.1366615-.2143745.0354652-.4402504-.1376343-.5297852-3.4545898-1.7871094-7.472168-2.4228516-11.3120117-1.7885742-.0890503.0148926-.1616821.0633545-.2168579.1262207-.0505371-.2662354-.09375-.5314941-.1625366-.7937012-.1237221-.475235-.8517265-.2938919-.7255859.1894531.2617874 1.0029182.4129677 2.3521538.6337891 4.092041-.8163795-.4827881-1.6773758-.4868813-2.4106445-.1364746-.7426758.3554688-1.1962891 1.0458984-1.5527344 1.6611328-.4741211-.5297852-1.0585938-1.1132813-1.8579102-1.3095703-1.6860161-.4186783-3.4682045 1.0028915-3.3856201 3.3190918l-1.7631226.0214844c.0552902-2.1562805-1.5974884-3.4061584-3.1242065-3.0300293-.7133789.1748047-1.2387695.6816406-1.6787109 1.1679688-.6535053-1.1204338-1.4730453-1.8819504-2.7703857-1.6776123.4429855-2.913929.4265175-2.478302.5252686-3.5836182.5679741-6.3485909 2.9706993-.6203003 12.6567383-2.5307636 2.609848-.5077362 2.9644318-.2566299 3.394043-.0273438.4403076.2341328.7891121-.4298134.3525391-.6621094-1.105957-.5883789-2.4326172-.3300781-3.6040039-.1015625-.1091309.0108299-4.5391922 1.0160236-8.6757813-.1015625-1.0717773-.2905273-2.2866211-.6201172-3.2426758-.2548828-1.3515625.5273438-1.5112305 2.3095722-1.6279297 3.61133-.0978165 1.0904541-.0491962.4433212-.5836182 3.9404297-.6557007.3669434-1.1734009 1.0124512-1.4152832 1.8105469l-.6790771-.2659912c.5190277-2.0044861-.6333294-3.731575-2.2810059-3.8902588-.8168945-.0820313-1.5400391.253418-2.2353516.6293945-.0975952-.5161133-.2351074-1.085083-.5201416-1.5842285 2.3297119-.4881592 4.7431641-.3652344 7.0093994.3742676.4702015.1547508.705164-.5592194.2324219-.7128906-2.5145264-.8212891-5.2044678-.9306641-7.7782593-.3173828-.7020855-.6151695-1.5690041-.8196983-2.6088867-.4849854-1.9296819-1.0507278-3.1556903 1.5328522-2.5753795 3.5758057zm40.0391855 3.7631836c-.2423515 0-.3908119-.1759186-.4000244-.3601074l-.039978-.8798828c-.0242462-.4846268.7257805-.5380173.75-.0300293l.039978.8798828c.0100098.2000732-.1499634.3801269-.3499756.3901367zm4.0776368-.9262696c-.8313408.712574-2.0170631.3732491-2.121582.0883789-.0362091-.1091194-.0330391-.1160393.5239258-1.9580078.1497116-.4714127.3097687-1.0080032.7807617-1.1401367.2010918-.0497551.2353439.0158195.3525391.0205078 1.2434386.5319138 1.4426497 2.1609307.4643554 2.9892578zm-27.4376221 2.9962159c-.0400391.1700439-.1900024.2800293-.3599854.2800293-.0300293 0-.0600586 0-.0900269-.0100098-.960022-.2399902-1.7800293-.9100342-2.2000122-1.7999268-.2074699-.4383049.4631443-.7778931.6799927-.3200684.3200073.6799316.9700317 1.2099609 1.7000122 1.3898926.2000123.0500489.3200074.25.2700196.4600831zm9.1031494-4.3800049c1.1408386 0 1.7704468 1.0964508 2.2885742 1.527832.1701393.1482506.4439278.1145325.5668945-.0893555.3870468-.6796112.7965622-1.4670982 1.4755859-1.7915039 1.601635-.7697792 3.7642059 1.0732117 2.7119141 4.296875-.6098633 1.8657227-2.027832 3.4716797-3.8027344 4.3110352-3.33741-.8034058-5.4425468-3.8758545-5.2885742-5.9946289.0832825-1.1521988.8830796-2.2602539 2.0483399-2.2602539zm-2.6983643 3.3898925c.5060501 2.4718628 2.8497734 4.9287453 5.8487549 5.614502.4162483.0971222 2.6074066-1.0880966 3.9049683-3.2880859.1174316 1.6176758.2106934 3.2453613.2566528 4.8657227.1040916 3.3622055-.62323 4.8750916-4.8178711 5.3554688-4 .4580078-8.034668.3476563-11.9926758-.3271484-5.847765-1.0211601-4.5600815-3.8222733-3.723999-9.5561523.7434692 1.0400391 1.7520142 1.8950195 2.9090576 2.4262695.060276.0273972.2236805.0560875.3222656.0332031 2.7620583-.6295586 4.8848648-2.8897133 5.3517456-5.1069336.1259118.0113791.76297-.0059702 1.9411011-.0168459zm-19.2777099-5.8117675c.2211914.5957031.2133789 1.4614258-.3261719 1.9550781-.3847656.3515625-1.0219727.4506836-1.5532227.2426758-1.9748049-.7737312-1.4540415-4.2988281-.2060547-4.2988281.798378-.0000001 1.8010483 1.3355484 2.0854493 2.1010742z"/><ellipse cx="40.675" cy="20.03" rx=".979" ry="1.304"/><ellipse cx="32.427" cy="20.03" rx=".979" ry="1.304"/><path d="m41.2848015 22.083971c-2.0092049 1.9601994-5.1264153 2.2761078-7.5063477.7158203-.034668-.0224609-.0693359-.0522461-.1049805-.081543-.1469727-.1206055-.3662109-.3022461-.6425781-.2167969-.1186523.0366211-.2768555.1362305-.3540039.4003906-.0870056.3008728.0695267.621088.215332.9819336.4174805 1.0703125 1.2275391 1.9770508 2.2211914 2.4882813 2.9797707 1.5332813 6.697731-.5439816 6.8081055-4.0078125.0108147-.3384971-.3994255-.5143718-.6367187-.2802734zm-7.694336 1.5268555-.0239258-.0581055c2.2578087 1.3686523 5.1656265 1.3530636 7.4541016-.2749023-1.0556297 3.6235294-6.053791 3.8559437-7.4301758.3330078z"/><path d="m51.9200554 23.200182c-.2060547-.0302734-.394043.1171875-.4208984.3222656-.1713867 1.2929688-.6723633 2.5292969-1.4487305 3.5766602-.2987671.4015026.3139038.8362331.6025391.4462891.8515625-1.1489258 1.4013672-2.5058594 1.5893555-3.9243164.0273437-.2055665-.1171876-.3940431-.3222657-.4208985z"/><path d="m52.2310905 28.9755726c.3405037 0 .2667656-.1959152 2.1025391-2.5541992.2984161-.3994541-.3057976-.8463554-.6005859-.4501953l-1.8017578 2.4042969c-.1857262.2486076-.0060273.6000976.2998046.6000976z"/><path d="m51.3936882 31.931139c.1017418 0-.1396408.050993 4.6196289-1.3413086.1987305-.0585938.3125-.2666016.2543945-.465332s-.2675781-.3129883-.465332-.2543945l-4.5146484 1.3261719c-.4129944.121767-.3254929.7348632.105957.7348632z"/><path d="m32.6212273 50.9653206c-.1894531-.0810547-.4106445.0078125-.4916992.1987305-.0810547.1904297.0078125.4106445.1987305.4916992 1.8190422.7727203 3.9521599.8637009 5.8481445.2280273.1962891-.065918.3022461-.2783203.2363281-.4746094s-.2768555-.2998047-.4746094-.2363281c-1.715332.574707-3.6533203.4990235-5.3168945-.2075195z"/><path d="m27.7768059 9.2629271c-.3416252.3876467-.3304005.6828156-.8499756.7301025-.9032993.1388874-1.592823.2120237-2.6400146.9100342-.7000122.4699707-1.2399902 1.0599365-1.539978 1.7299805.6500244-.0800781 1.2999878-.1500244 1.9500122-.2299805-.8400269 1.3199463-1.1799927 2.8099365-.9899902 4.2700186.4299927-.3000488.8599854-.6000977 1.2799683-.8901358 0 .9353018.3782349 1.7143545.8323975 2.4733877-.8023682.2397461-1.3886719 1.0559082-1.3249512 1.8969727.0668945.8901367.8461914 1.652832 1.737793 1.699707.0063477.0004883.0131836.0004883.0200195.0004883.0214844 0 .0404053-.0084229.0609741-.0119629.5563965 2.8034668 2.0808105 5.071167 4.2857056 6.2937012 4.8117981 2.6687031 14.4479294 1.1618862 15.3824463-6.1608887 1.7322464-.1401577 2.5638695-2.0252705 1.6442261-3.3729248-.7667923-2.3597908-.3527145-3.2086096-.6685791-4.4984121-.0599976-.2700195-.2600098-1.25-.5300293-1.3900146.5599976.2800293 1.1300049.5599365 1.6900024.8399658-.1300049-2.3099365-2.0300293-4.5200195-4.7600098-5.5400391.5400391-.0898442 1.0900269-.1699224 1.6300049-.2500005-4.816353-3.6409564-13.1674253-3.2771049-17.2100221 1.5000005zm-2.5344849 10.8342275c-.0393066-.5148926.3530884-1.0358887.857666-1.1456299-.0399227.971571.0043888 1.5280476.0829468 2.1297607-.4815063-.0726318-.9038696-.4962157-.9406128-.9841308zm19.8271485 2.7250977c-1.4032288 5.8122463-9.8936348 6.993969-14.1074219 4.6567383-3.9824219-2.2082729-5.0662613-7.7924404-3.335144-12.1485586.1137943-.1581564.6068115-.7837543.7699585-.8874512.1257858-.0838156-.2251415-.1478796 3.9599609 1.1900635-.6599731-.8601074-.9699707-1.8701172-.8900146-2.880127 1.210022.670166 2.4200439 1.3200684 3.6300049 1.9901123-.0838585-1.4283962-.2451248-1.4347038.3000488-1.5300293 3.1291733-.512867 6.5780678 1.3471661 7.4799805 4.7100821.1099854-.5200195.2199707-1.0500488.3300171-1.5700684 1.1127396 1.0632305 1.4597626 1.3309708 1.7788696 1.8222656.3927001 1.529541.4501342 3.1293945.0837402 4.6469727zm.9838256-1.6044922c.0469971-.942627-.043335-1.8937988-.2478638-2.8255615 1.7897874.0145759 1.9674493 2.5260753.2478638 2.8255615zm-11.2964477-13.1948233c1.0499878-.2899175 2.1799927-.2099614 3.1699829.2200928.4509506.1802692.17976.8770409-.289978.6900635-.8400269-.3601074-1.8000488-.4301758-2.6799927-.1801758-.4721069.1181345-.684639-.5844603-.2000122-.7299805z"/></g></svg>