<svg id="Layer_1" enable-background="new 0 0 75 75" viewBox="0 0 75 75" xmlns="http://www.w3.org/2000/svg"><g id="_Hide_Seek" fill="rgb(0,0,0)"><path d="m41.7020607 24.4830151c-1.7509766 1.5039063-4.3300781 2.1455078-6.7265625 1.6748047-.2930984-.0556259-.5287437.2314949-.421875.5039063.7076912 1.8153286 2.8222275 2.9246159 4.7363281 2.4492188 1.9003906-.4755859 3.2587891-2.4433594 3.0283203-4.3876953-.0338058-.2979261-.3899536-.4350664-.6162109-.2402345zm-2.59375 3.899414c-1.2949219.3232422-2.7617188-.2880859-3.5234375-1.3740234 2.1259766.2255859 4.3046875-.3125 5.9833984-1.4765625-.1679687 1.3105469-1.1738281 2.5292969-2.4599609 2.8505859z"/><path d="m36.136631 12.2105541c.640625.2226563 1.1953125.6894531 1.5234375 1.2822266.2391739.4339266.8971291.0717049.65625-.3632813-.4160156-.7519531-1.1210938-1.3447266-1.9335938-1.6279297-.1962891-.0644531-.4091797.0351563-.4775391.2314453-.0673827.1953126.0361329.4091797.2314454.4775391z"/><path d="m35.0721779 55.934185c0-.4960136-.75-.4963112-.75 0v11.0712929c-2.2023201-.9321213-6.9236374.6568451-5.7539043 2.2529297.2226563.3017578.5996094.4082031.9384766.4716797.5185547.0976563 1.0439453.1455078 1.5693359.1455078 1.1656857 0 3.378458-.2951736 3.8749981-1.3662109.1829834-.3984375.1470947-.7954102-.0632324-1.0927734.3545379-.2158433.1072005.0956802.1843261-11.4824258zm-.8017578 12.260746c-.5092545 1.0942612-5.5257244 1.1727982-5.0722637.4472656.0810547-.1308594.2470703-.2470703.3828125-.3330078h.0009766c1.5155811-.970726 3.7846699-1.01548 4.6093731-.5419922.1445312.0830079.1708983.2265626.0791015.4277344z"/><path d="m42.9794044 55.934185v10.8881874c-.3077393.0620117-.5936279.1560059-.8339844.2944336-.4853516.2792969-.640625.8388672-.3857422 1.3925781.4951248 1.0716324 2.7166901 1.3662109 3.8740234 1.3662109.5263672 0 1.0527344-.0478516 1.5703125-.1455078.3388672-.0634766.7148438-.1699219.9375-.4716797.2099609-.2841797.2128906-.6826172.0068359-1.0126953-.381855-.6170273-2.1401062-1.6080627-4.4189453-1.5090332v-10.802494c.0000001-.4960136-.7499999-.4963112-.7499999 0zm4.1484375 12.3740273c0 .0009766.0009766.0009766.0009766.0009766.1357422.0859375.3017578.2011719.3828125.3320313.0351563.0556641.0546875.1328125.0263672.171875-.1966934.2672043-2.2590332.5272522-4.0332031.0146484-.5986328-.171875-.9472656-.3789063-1.0634766-.6328125-.0927734-.2011719-.0664063-.3447266.078125-.4277344.8205185-.4745713 3.0999603-.4260178 4.6083984.5410156z"/><path d="m47.6854591 35.9175835c4.1626205-1.7656441 5.4108467-8.4080315-.7071533-13.3322735.8005371-.8858395.5419426-2.2578964-.612915-2.6833496.3309135-5.4723978-4.0886841-10.3376322-10.0637207-9.9482422-.1585693.0100098-.314209.0371094-.4716797.0544434-.7432861-2.4897466-3.0230713-4.4665532-5.5986309-4.8229985-2.6142578-.3671875-5.4033203.9580078-6.7763672 3.2167974-.8969765 1.4767294-1.1871433 3.206233-1.703125 4.7744141-.8935547 2.7226563-2.6025391 5.2265625-4.8115234 7.0527344-.2630024.2177296-.1187916.6468735.2207031.6640625 3.5736294.1746502 7.1990833.1949291 9.6126709-2.4487305-.1883545 1.5549316.0435791 3.1279297.7008057 4.5063477.1206875.2498474.4530735.2861385.6259766.0800781.2353516-.28125.6386719-.4208984.9951172-.3554688.0098877.0019531.0183105-.0053711.0281982-.0039063-.5830078.2502441-.9880371.5712891-1.2283936.9863281-.4680843.8081856-.2432899 2.0164165.7716064 2.4960938-.9048462.7506561-1.8906345 1.4153824-1.9626465 2.2229004-.052002.5810547.34375 1.0939941.6898193 1.5637207 1.03055 1.3987865.3127899 1.7867699.1247559 2.3056622-.0893555.246582-.0327148.588623.2164307.6704102.1971436.0646973.4013672-.0654297.5620117-.1965332 1.4471436-1.1813946 2.3121338-3.0441875 2.2808838-4.9118633-.0047607-.2866211-.0272217-.5722656-.0494385-.8581543 2.8820782 5.0708561 9.1388073 6.1941586 12.8392315 1.4431152 1.1142578-1.4194336 1.7969971-3.2392578 1.9825439-5.2124023.2155266.0507107.5995255.0266171.9926758-.142334 5.8846664 4.6113834 4.6911469 10.6428585 1.0491943 12.1896954-.0963135.0405273-.1661377.1171875-.2017822.2075195-.7564354-2.3311958-2.1794167-3.4856911-3.574585-3.775877-1.9374466-.4017296-3.7000084.7966022-5.4941406.8251934-2.5431137-.0347672-5.6923332-1.9497356-6.9746075 4.0546875-.100708.4714355-.1795654.9467773-.2685547 1.4204102-.0809326-.026123-.170166-.0297852-.2568359.0043945-5.0491257 2.0538826-10.7606258-1.3566437-11.2200928-6.890379 1.0469112-.8126602.7296429-3.064724-.0152588-4.0109863-.5908203-.75-1.5761719-1.078125-2.3955078-.8105469-.8134766.2705078-1.3935547 1.1074219-1.4101563 2.0351563v.0009766c-.0232487 1.4231243 1.4966164 3.3055859 3.1025391 3.0771484.654974 5.9242115 6.6889801 9.4005985 12.0518799 7.3530254-.6944447 3.9524918-1.0527306 7.9433365-1.4522705 11.4672852-.21875 1.953125.4658203 3.0136719 2.3642578 3.6572266 4.8215885 1.6500664 10.0687695 2.5913773 14.5322247.1357422 1.1728516-.6494141 2.6621094-1.7929688 3.0976563-3.5498047.2646484-1.0791016.0839844-2.1982422-.0800781-3.2001953l-.375-.0175781h.375c0-.4960136-.75-.4963112-.75 0 0 .3372154.4068604 1.7943993.1015625 3.0390625-.3701172 1.4931641-1.6904297 2.4951172-2.7314453 3.0722656-4.2689819 2.3471794-9.3018456 1.394928-13.928709-.1894531-1.5712891-.5332031-2.0400391-1.2558594-1.859375-2.8632813.3214378-2.8382988 1.2766991-13.2066269 2.5097637-15.7167969.6159744-1.2067032 1.33638-1.3760605 1.4365234-1.4589844 1.1650352-.4894981 2.4877167.119606 4.1572266.140625 1.8653641-.0305061 3.6622887-1.1891289 5.3310547-.8408203 1.0878906.2265625 2.0869141 1.1162109 2.671875 2.3828125.6181641 1.3164063.8134766 2.8515625 1.0019531 4.3369141.1556816 1.23172.1791458 1.411438.9082031 5.7128906.0840302.4901695.8220329.3634453.7402344-.125-1.2305679-7.2500916-1.0070992-7.1639214-1.4711914-8.8383789.1225929.0945127.2500801.1058538.3706054.054199zm-1.3031005-13.7900372c-.3117676-.2299805-.6424561-.4587402-.9907227-.6865234-.0144043-.3598633-.0390625-.6940918-.0715332-1.0141602l.0686035-.0012207c.0820313.0883789.2001953.1403809.3299561.1188965.7854118-.1244888 1.3504867.9065475.6636963 1.5830078zm-16.4123517.7163086c-.0395508-.3588867-.0571289-.7185059-.0568848-1.0778809.0172119-.0246582.0270996-.0527344.0447998-.0769043h.0009766c.3769112-.5129566.9541588-1.0431633 1.5400391-1.2851563.3105469-.1269531.88867-.3632813.8134747-1.0283203-.0564537-.4908104-.2738457-1.9596596-.2939453-2.0771484l1.2011719 1.84375c.0966797.1474609.2832031.2070313.4482422.1455078.3917427-.1511002 1.2234306-.155117 1.7382813-.3505859.1640625-.0625.2626953-.2304688.2373047-.4042969-.1636734-1.1364708-.3611221-2.3057289-.4912109-3.1464844 2.2622833 2.3379536 2.1281433 3.2011738 2.6865234 3.0195313.5198975-.1582031 1.1195068-.2507324 1.743042-.2978516-.9013939.4727592-1.2501945 1.7955189-.4433594 2.8195801-3.5023538 2.0013962-8.0721151 1.1694146-9.1684553 1.9162598zm11.6090069-7.3295898c1.5346756 1.0835724 1.9282494 2.0261402 2.3377686 2.9995117-.3583984-.0031738-.5836182.3046875-.8260498.6066895-.4036865-.4223633-.8878174-.7473145-1.4165039-.9609375.1383057.0168457.2790527.0227051.4155273.045166.1328125.0214844.2705078-.0302734.3544922-.1376953.1863708-.2334958.126461-.2045861-.8652344-2.5527344zm-1.7050781 3.2753906c.3740234-.2363281.8984375-.1376953 1.1787109-.0566406 1.6792183.4654961 2.4949417 2.2808533 2.3857422 2.5107422-.1060982.1431122-.9508476.0927734-1.171875.0927734-.5234375.0087891-1.1484375-.0126953-1.7011719-.2519531-.470089-.1897621-.9140129-.5584736-1.0742188-1.0556641-.1484374-.46875.0185548-1.0126953.3828126-1.2392578zm-12.9765606-1.7958985c-.7539063 1.3935547-2.2939453 2.4550781-4.2255859 2.9111328-1.4794922.3496094-3.0234375.34375-4.5478516.2822266 1.9746094-1.84375 3.5-4.21875 4.3408203-6.7763672.5340977-1.6296835.7975063-3.2477837 1.6308594-4.6191406 1.2216797-2.0097661 3.6962891-3.1816411 6.0322266-2.8642583 2.255003.3127441 4.2496319 2.0212402 4.9449444 4.1853032-3.615242.6639042-6.8111477 3.2050457-7.932127 6.6984863-.0996094.0239258-.1901856.084961-.2432862.1826172zm2.0449219 4.9150391c-.3955078-.0068359-.6914063.0898438-.9853516.2695313-2.0699978-5.2795677 2.350359-11.0901957 8.3925762-11.4755859 5.369278-.3613939 9.4715462 3.9441299 9.2851563 8.96875l-.3808594.0068359c-.4948006-.9695148-.7637978-1.943203-1.3720703-2.9316406-.7705078-1.0527344-1.7802734-1.9082031-2.921875-2.4726563-.306469-.1543064-.6446686.1592903-.5126953.4794922.4105873.9899321.6981812 1.6541519 1.1054688 2.6240234-1.2695313-.1308594-2.5810547-.0458984-3.6591797.234375-.8574219-1.3017578-1.8740234-2.4941406-3.0253906-3.5458984-.2492752-.2344904-.6747818-.0252457-.6240234.3300781.1931 1.3407707.4315109 2.7119923.609375 3.9179688-.3732071.0751114-.7678947.0922832-1.1582031.1835938-1.5668983-2.4171486-1.3607368-2.06464-1.5136719-2.3457031-.2050762-.3789063-.3701153-.6533203-.6308575-.7363281-.2448692-.0774374-.4862518.1068325-.4882813.3525391-.0064411.5714645.3432026 2.2631569.5039063 3.6923828.0299969.2474804-.5177879.0925846-1.5527344 1.0488281-.4439125.4083996-.7870846.9049454-.8270264 1.0053711-.0837403.1306151-.1740723.2578123-.2442627.3940428zm-.3984375 2.125c.1383057-.2373047.4083252-.4362793.7615967-.6079102.1000977.6293945.2427979 1.2524414.4536133 1.8566895-.0356445.0241699-.0761719.0388184-.1105957.064209-.0942383.0698242-.1784668.1520996-.2714844.2231445-.8453389-.0639629-1.18499-.9289398-.8331299-1.5361328zm8.9101543 6.6328125c-2.5264893 0-5.072876-1.751709-6.4361553-4.3745117.6834717.1206055 1.5239239-.0341797 1.9957256-.2602539.3800049-.1801758.75-.420166 1.1600342-.5400391.7600098-.2202148 1.5799561-.0100098 2.369873-.0300293.8601074-.0200195 1.6900635-.3200684 2.5-.6201172 1.1601563-.4299316 2.3300781-.8598633 3.4001465-1.4899902 1.0950432-.6571445 1.5919189-.7219219 2.2124023-1.2463379-.004238 5.1285648-3.4426307 8.5389118-7.2020263 8.5612793zm7.9400635-8.2109375c.0012207-.0358887.0029297-.0712891.0036621-.1071777.0473633.0324707.0943604.0651855.1409912.0976563-.010025-.0004159-.061821-.0002232-.1446533.0095214zm-29.0631084 5.8447266c.0107422-.6054688.3876953-1.1669922.8964844-1.3359375.5175781-.1708984 1.1777344.0664063 1.5693359.5634766.5610886.7101059.884901 2.8566608-.1230469 3.0898438-1.094883.2350367-2.3598957-1.2438241-2.3427734-2.3173829z"/><path d="m46.0008888 45.2701225c-.1835938-.0898438-.4111328-.0166016-.5029297.1689453-1.5712891 3.1533203-4.8544922 5.4033203-8.3632813 5.7333984-.4898682.0464363-.4283829.7876549.0703125.7460938 3.7617188-.3525391 7.2802734-2.765625 8.9648438-6.1455078.0917969-.1855469.0166016-.4101562-.1689453-.5029297z"/><path d="m55.7450294 10.7222729c-.6523438 1.6748047-1.6777344 3.2216797-2.9677734 4.4746094-.3549232.3432474.1664925.8845387.5234375.5371094 1.3652344-1.3261719 2.4521484-2.9658203 3.1435547-4.7402344.1800308-.460598-.5187187-.7356272-.6992188-.2714844z"/><path d="m54.7030373 17.0191479c-.2939987.3966656.3053246.8455162.6035156.4453125.6308594-.8525391 1.4785156-1.5253906 2.4521484-1.9472656.4587708-.1976242.1533012-.8857632-.296875-.6875-1.0957031.4736328-2.0488281 1.2304687-2.758789 2.1894531z"/><path d="m53.8700294 20.9986401c1.6640625-.40625 3.4248047-.4072266 5.0869141-.0039063.478611.1230698.6619987-.6109772.1777344-.7285156-1.7832031-.4326172-3.6650391-.4306641-5.4423828.0039063-.2011719.0488281-.3242188.2519531-.2753906.453125.051567.2110614.2673263.3249378.4531249.2753906z"/></g></svg>