<svg id="Layer_1" enable-background="new 0 0 75 75" viewBox="0 0 75 75" xmlns="http://www.w3.org/2000/svg"><g id="_Hiding_Box" fill="rgb(0,0,0)"><path d="m20.3376141 14.6329193c.1799316 1.583374 1.7198486 2.8557129 3.3231812 2.8862305-.0437622.1557617-.0864258.3121338-.1207886.4729004-.5555191-.1572609-2.1108723.9951553-1.9457397 2.5773926.1113892 1.074585 1.0258179 1.9946289 2.1066895 2.1572266.3833771 1.7139187 1.0986156 3.2822418 2.395752 4.4755859 2.3497887 2.1607723 7.67663 3.3159389 11.7006855 1.8652344 2.4287109-.8759766 4.3325195-2.6865234 5.0922852-4.8417969.0764771-.2169189.1244507-.4489746.1799316-.677002 1.0397949-.1174316 1.9332886-1.0305176 2.0007324-2.0603027.0541992-.822998-.4269409-1.6345215-1.1394043-2.0566406 2.1480827-.4822788 3.7604332-3.0955162 2.8066406-5.3588867-.0999756-.2199707-1.5699463-2-1.6299438-1.8898926.7699585-1.4100342.1399536-3.380127-1.3099976-4.1101074-1.4500122-.7299805-3.4400024-.0699463-4.1600342 1.3601074.0200195-2.0300293-1.7299805-3.9300537-3.789978-4.1101074-2.0700073-.1799316-4.1300068 1.3901367-4.4700336 3.4001465-2.183363-4.3419147-8.4316921-1.8974671-7.9199829 2.289917-1.799988.0999755-3.3200075 1.8599852-3.1199953 3.619995zm2.0027465 5.8583984c-.0741577-.7111816.4000244-1.4539795 1.0738525-1.7299805-.1121826.9647217-.0712891 2.0140381.1248779 3.1611328-.6240844-.2109374-1.1320189-.7896728-1.1987304-1.4311523zm21.9819355.9482422c-.0390625.5900879-.5220947 1.1182861-1.1022339 1.2946777.1160278-.8964844.0881958-1.8503418-.0930786-2.8348389.008728.0025635.0153809.0087891.0244141.0108643.6791992.1494141 1.215332.8496094 1.1708984 1.5292969zm-18.7846698-7.6866455c.2199707-.5100098.2699585-1.0799561.1499634-1.6099854-.1151943-.4838438.608427-.6560888.7300415-.1699219.1599731.6899414.0899658 1.4199219-.1900024 2.0699463-.073843.172327-.2746792.2860994-.4900513.1999512-.1899415-.079956-.2799683-.2999267-.1999512-.4899902zm4.6300048 1.3499756c-.2191315 1.728096 2.6550655 3.0678787 4.6399555-.1699219-.1099854 1.1298828.5900269 2.2800293 1.6600342 2.7199707 1.0499878.4399414 2.3800049.1300049 3.1300049-.7199707-.2600098.2900391.8200073 1.4799805 1.0199585 1.6599121.4543457.407959 1.0305786.6887207 1.6378174.8242188.4602585 1.8314667.3566208 3.3414688-.0727539 4.5585938-.6860352 1.9462891-2.4208984 3.5859375-4.6396484 4.3867188-3.3431931 1.2025375-8.5162468.5161705-10.9384785-1.7128906-2.3160496-2.1306305-2.9351196-6.4791126-2.2045288-8.989502 2.1235676 1.719963 5.3448048.5807857 5.7676391-2.557129z"/><path d="m29.2534466 22.9766693c-.2646523-.3378544-.7983112-.0337772-.6450195.3652344 1.6726475 4.3829365 6.6654491 5.0015545 8.4985371 2.2734375 1.1804085-1.7566547.0943375-4.1559868-.5361328-3.3730469-.1464386.1807289-.1661263.208004-.378418.5234375-1.6450501 2.3883515-5.1883164 2.4386616-6.9389668.2109375zm7.5434589.234375c.707962 2.3384247-2.3841743 4.4944191-5.4526386 2.5244141-.4140625-.265625-.777832-.5908203-1.0947266-.9804688 2.3439923 1.2432709 5.1373654.4798374 6.5473652-1.5439453z"/><path d="m28.3574505 20.2403412c.0727539 0 .1464844-.0214844.2114258-.0654297.3349609-.2304688.8056641-.265625 1.1733398-.0878906.1879883.0917969.4111328.0117188.5009766-.1748047s.0117188-.4111328-.1748047-.5009766c-.6088867-.2919922-1.3647461-.2382813-1.9233398.1445313-.1708984.1171875-.2143555.3505859-.0976563.5214844.0727539.1064453.1904297.1630859.3100586.1630859z"/><path d="m36.2783508 20.2940521c.8918953-.1555004 1.4065094.2431641 1.6088867.2431641.3962669 0 .5217323-.5384998.1635742-.7128906-.5830078-.28125-1.2553711-.3759766-1.8964844-.2705078-.2041016.0341797-.3422852.2275391-.3076172.4326172.0346681.2031249.229004.3398437.4316407.3076171z"/><path d="m13.3257132 47.7090912c-.3111506.0183029-.5037355.3784752-.2143555.6552734l-.0053711.0068359c.0253906.0244141.0668945.0498047.1069336.0703125l5.6499014 3.8341064v6.0975342c0 .0996094.0395508.1953125.1098633.265625 11.2087917 11.1496658 10.9564762 11.1531296 11.3203125 11.0302734l27.290041-8.8193359c.1547852-.0498047.2597656-.1933594.2597656-.3564453v-8.2421875c6.7949371-2.267704 6.843605-2.0238495 6.9228516-2.4365234.0800323-.4137421.0200119-.138752-7.0678711-6.1396484-.252594-.2098465-.5172081.0196877-1.2027588.1801758l-6.75-4.0825195c-.1509514-3.4095917-2.6251831-6.1206284-5.5325928-6.9697266-.199707-.0546875-.40625.0576172-.4648438.2548828-.0581055.1992188.0561523.4072266.2548828.4658203 2.4502258.7149391 4.6135254 2.9303932 4.9526978 5.7712402-1.3036575-.7406425-1.486908-1.0278015-1.7734985-.8649902l-2.0039063.4365234c-.482914.1049805-.3268356.8388443.1601563.7324219l1.9633788-.4277344 1.7052002 1.0313721c-.0212402 1.5291748-.5653687 3.0406494-1.5170288 4.2235107-.4942627-.1749268-1.1425171-.0812988-1.7225342.0666504-1.2047615-3.5097923-3.2662277-9.1260414-3.5349731-10.2883301-.3167763-1.295536-1.2226486-3.4829502-2.4594727-3.9873047-1.8017502-.7580299-6.2172661 1.2193203-10.0893574.1474609-2.0254669-.5587502-3.3710403-.1656532-4.1860352 2.5751953-.8318481 2.8983154-1.4320679 5.8143311-1.8173218 8.6921387-.1609497-.0380745-2.6486397.3988609-2.7489014.416748-.8413181-3.6160431 1.0097599-6.9504089 3.6712036-8.5649414.1772461-.1074219.2338867-.3378906.1264648-.5146484-.1083984-.1767578-.3378906-.234375-.5151367-.1259766-2.9472332 1.7862396-4.9157982 5.4339218-4.0210571 9.3448486-.8026733.1616211-1.0829468.2630615-1.1985474.3544922-.8105505.7388765-5.9988468 5.4683801-5.6680896 5.1668703zm5.9379873-4.4023438 1.9471436 1.425415c.267334.4483643.5869141.8703613.9405518 1.2681885-.5582886.9418945.0458374 2.5540771.5605469 3.2145996 1.0820885 1.3886948 3.4274445 1.6672745 4.4248657-.1386719l3.4076538 2.4912109-4.300354 4.8190918-12.2284536-8.2927246zm6.4829101 6.1308594c-.7797852.3730469-1.8530273.0742188-2.4428711-.6835938-.4458008-.5712891-.8608398-1.8603516-.4990234-2.4013672.3545685-.5301437 1.6088638-.6428642 2.269043-.4804688.8027344.2011719 1.4677734.8642578 1.6176758 1.6123047.1533203.7666017-.2617188 1.6250001-.9448243 1.9531251zm31.3461934 10.7832031-26.8120136 8.6640625-.1640625-.1640625h.0083008c.1987305 0 .3647461-.15625.3740234-.3574219l.6782227-14.2529297c.0097656-.2070313-.1499023-.3818359-.3564453-.3925781-.1972656-.0048828-.3828125.1503906-.3925781.3574219-.7257977 15.3723907-.6794739 14.1128159-.6735229 14.2834473l-10.1419069-10.1408692v-5.4333496l6.2895508 4.2683105c.050293.1484375.1904297.2548828.3549805.2548828h.0004883c.2970524 0-.0373783.1887131 4.961731-5.369873 6.8504505 6.8510132 6.5376873 6.7935715 6.9035053 6.6716309l18.9697266-6.1165771v7.7279052zm.2763671-15.84375 6.2646484 5.2177734c-8.7424812 2.8193245-16.8150253 5.4226036-25.5219727 8.2304688l-6.3076191-6.3623047 11.7954731-3.2661133c1.1284904 1.1338387 3.3372993.8178635 4.2669678-1.1890869l8.5610962-2.3797607c.0341797 0 .0683594-.0048828.1015625-.0136719zm-1.8833618-.2553711-7.3231201 2.0263672c.097229-.4237061.1223755-.8898926-.0891113-1.2529297.9651489-1.2001953 1.5571899-2.703125 1.6687622-4.2475586zm-8.1471557 1.0620118c.0003052.0002441.0004272.0007324.0007324.0009766.0032349.0026855.0078735.0014648.0111694.0041504.0004272.0002441.0010986.0003662.0015259.0007324.2783203.2128906.097168 1.0078125-.2387695 1.6533203-.6827545 1.3118706-2.1681328 1.5997047-2.9633789.8476563-.4033203-.3798828-.5112305-1.0166016-.2446289-1.4501953.3125839-.5109253 1.0135002-.6805267 1.215332-.7705078.3344726-.1113283 1.7871818-.5896112 2.2180176-.2861329zm-21.1218281-12.0341797c.3022461-1.0146484.7949219-2.1894531 1.9418945-2.2626953.6714802-.0639496 1.4418869.2814579 2.2607422.4267578 3.5468845.5607719 7.7788639-.9399261 9.0659199-.4042969.9587135.3917332 1.7688446 2.4537888 2.0170898 3.46875.236145 1.0198784 2.5822945 7.5290031 3.5444336 10.326416-.0546265.0179443-.1135864.0368652-.1630859.0534668l.0722656.3710938-.1181641-.3554688c-.4921875.1630859-1.190918.453125-1.5717773 1.0742188-.3087158.5026855-.3267822 1.1384277-.1005859 1.6914063-13.6762447 3.7980728-12.022686 3.314003-12.2170429 3.3947754l-3.539856-2.5877686c.3532124-1.6540337-1.0128574-3.4616547-3.3520508-3.270874.3075542-4.0486222 1.0402641-8.0219765 2.1602173-11.9257813zm-2.6367188 9.2268066c-.2293091 1.9030533-.2521019 2.3510284-.2859497 2.8352051-.0375366.0109863-.0738525.0224609-.1107178.034668l-1.4026489-1.0266113c-.2629395-.458252-.463501-.9443359-.630249-1.4416504.7299805-.1297608 1.5961914-.2728272 2.4295654-.4016114zm-3.0526733.9259033-.4419556-.3234863c.1003418-.0206299.2075195-.0418701.3252563-.0645752.0414429.1289063.069275.2612305.1166993.3880615z"/><path d="m57.4927063 30.557724c-1.800293 2.1171875-2.9248047 4.8076172-3.1655273 7.5761719-.0434723.4958153.7034416.5630684.7470703.0644531.2275391-2.6142578 1.2895508-5.1552734 2.9897461-7.1542969.1342773-.1582031.1152344-.3945313-.0424805-.5292969-.1572266-.1328125-.3945313-.1142578-.5288086.0429688z"/><path d="m57.2978821 38.432724c1.2348633-2.6015625 3.0966797-4.9033203 5.3828125-6.6552734.395649-.3029003-.0643768-.8964558-.4560547-.5957031-2.3803711 1.8242188-4.3183594 4.2207031-5.6044922 6.9287109-.2124596.448265.4645958.7679138.6777344.3222656z"/><path d="m12.9458303 31.4083099c-.1708984.1171875-.2138672.3505859-.0966797.5214844 1.465332 2.1289063 2.503418 4.5957031 3.0014648 7.1328125.095768.4868202.8312006.3427162.7363272-.1445313-.5180664-2.6367188-1.597167-5.2001953-3.119628-7.4140625-.1171874-.1699218-.3496093-.2128906-.5214843-.0957031z"/><path d="m10.2846975 34.7217865c1.6220703 2.5576172 2.8242188 5.3408203 3.5727539 8.2734375.1230898.4812965.8501177.299263.7265625-.1855469-.7680664-3.0087891-2.0014648-5.8652344-3.6655273-8.4902344-.2678051-.4199943-.8984175-.0149993-.6337891.4023438z"/></g></svg>