<svg id="Layer_1" enable-background="new 0 0 75 75" viewBox="0 0 75 75" xmlns="http://www.w3.org/2000/svg"><g id="High_Jump" fill="rgb(0,0,0)"><path d="m18.1092319 21.8185406c.2423096-.473999.2330322-.9633179-.0203857-1.0928345-.2536621-.1295776-.6555176.1495972-.8977051.6235962s-.2330322.9632568.0205078 1.0928345c.253418.1295776.6553955-.1496582.897583-.6235962z"/><path d="m23.2942905 22.4696026c-.2423096.473999-.2330322.9632568.0203857 1.0928345.2536621.1295166.6555176-.1496582.8977051-.6236572s.2331543-.9632568-.0205078-1.0928345c-.2534179-.1295777-.6553955.1496582-.897583.6236572z"/><path d="m22.8821812 17.1292095c.5556641 0 1.1113281.171875 1.5693359.4853516.4123497.2800293.8321075-.3403435.4238281-.6191406-.59375-.40625-1.3115234-.6186523-2.0371094-.6157227-.2070313.0029297-.3730469.1728516-.3701172.3798828.0027772.1948891.1454125.3696289.4140626.3696289z"/><path d="m64.4622574 60.2146606c-.2070313 0-.375.1679688-.375.375v4.1796875c0 .5415039.4238281.965332.9648438.965332h.6503906c.5322266 0 .9648438-.4331055.9648438-.965332v-25.2227783c.7520523-.0993042 1.2343063.0617447 1.6171875-.3768311.3701935-.4229126.1687622-.8644791.1748047-1.4038086-.0334854-.523262-.4977264-.8925247-.9755859-.8535156l-.8164063.0543823v-6.5870991c0-.5322266-.4326172-.965332-.9648438-.965332h-.6503906c-.5410156 0-.9648438.4238281-.9648438.965332v6.7589741l-5.2929649.3526611c.4418945-1.486145.8382568-2.9561768 1.0107422-4.4719849.5491524-5.11026-1.9569054-8.2995148-4.9345703-8.9365253-.482151-.1098843-.6450272.62883-.15625.7333984 2.5529709.5461216 4.8606606 3.3337498 4.3447266 8.1206074-.1751709 1.5446167-.5987549 3.0635986-1.0629883 4.607666l-4.3670654.2909546c.7855225-1.5524902 1.5753174-3.1593628 1.7669678-4.9259644.2265625-2.1040058-.5732422-4.0839863-2.0371094-5.0434589-.0054932-.0036011-.012085-.0037842-.0177002-.0070801 2.4121361-4.4713001.3215675-10.702034-4.9735107-12.711669-1.7773438-.6743164-3.7109375-.7792969-5.7011719-.8339844-7.0146675-.1937752-9.8762512.0677395-10.9912128-.0234375-.7167969-.0571289-1.6103516-.128418-2.0527344.3686523-.5732002.6448507-.569273 1.8206244.7919922 2.859374.7984352.6109238 1.2574711.7601795 1.9179707 1.9707031v.0004883c.2528152.4640217.455822.9331322.7080078 1.4375 1.8613586 3.7176323 5.8538971 2.6830959 8.8447266 3.9970703.4595947.2020264.8726807.4782104 1.270874.7839355-.7353516 1.1139526-1.4584961 1.7629395-2.2659912 2.0041504-.96875.2915039-2.1523438-.0053711-3.1591797-.7949219-.9433594-.7397461-1.6337891-1.7758789-2.3017578-2.7783203-.2727661-.4114761-.9000473.0010948-.625.4160156.7011719 1.0512695 1.4267578 2.1386719 2.4638672 2.9521484 1.1005478.8627262 2.5360947 1.3116512 3.8369141.9238281 1.2370605-.3699341 2.0814209-1.4017944 2.6380615-2.239502 1.5974274 1.4245682 3.4782448 3.9089355 6.2281494 3.9089355 1.2497597 0 2.245491-.5988712 2.9764404-1.6062012 1.230957.807251 1.8994141 2.5090332 1.7022705 4.335207-.1915169 1.7738037-1.0741959 3.4517822-1.8909912 5.0645142l-18.2510988 1.2158819c.960598-.5207748 1.3737679-1.669445 1.1947021-2.6698608-.1599121-.960022-.8099365-1.789978-1.6398926-2.2999878.6599121.0999756 1.3399658-.4299927 1.4699707-1.0900269.1789856-.9844322-.7260551-2.0100021-1.9599609-1.7699604 1.8400497-2.9918365.9316483-7.8340263-3.4737568-10.6229858-.347065-2.819334-2.1659622-5.4060993-5.0554199-5.6766958-4.2603092-.3997898-7.5056286 2.4296846-9.9648438 5.8823233-.9277887 1.3041573-1.6324959 2.5145035-1.6203613 4.0543213-.0808105.1393433-.1643066.2745361-.225708.4429932-1.912817 5.215374 3.6283474 11.6853657 11.4499512 10.8099995-1.1992092.9494247-.5885735 2.8953667 1.0212402 3.5264282l-14.6616211.9767456c-.5118914-6.3282776-.2144518-6.4195213-.7281494-6.8710327-.1855469-.1621094-.4130859-.2436523-.6669922-.2260742l-.7402344.0498047c-.5009766.0332031-.8818359.472168-.8486328.9790039l.4157715 6.2393799c-.8827548.1115074-1.3674722-.0589218-1.7565918.3856201-.1611328.1845703-.2402344.4208984-.2236328.6640625.0770273.5320892-.0699348.9938583.359375 1.3686523.4490004.3931999.9066734.1533318 1.7907715.1500854l1.7043457 25.6135864c.0341797.4804688.4394531.8500977.9169922.8500977.0455627 0 .7572727-.0492096.8027344-.0522461.5029297-.034668.8837891-.4741211.8486328-.9790039l-1.7044678-25.6035156 17.1479492-1.142395c1.2824192 1.8802681 4.3693981 1.4448929 4.7426777-.315979l18.2851563-1.2181396c-.976593 1.8914185-.8581123 1.650074-.8835449 1.7614746-.9735069.4040947-.9665184 1.2683449-.3787842 1.7236328.9339485.7201004 4.9550171.9086189 5.0019531-.5698242.0331955-1.1689911-2.503418-1.5683479-3.6644287-1.4174805.2640381-.5187988.529541-1.0386963.798584-1.5560303l4.9455566-.3294678-.7487793 2.468811c-.769558.4466438-.7357903 1.4732361.5518799 1.7560425 1.1981773.2632332 2.4582977.255127 3.6542969-.0253906 1.0972786-.2573891 1.1485443-1.2225609.2548828-1.6533203-.6940498-.3336983-1.3931198-.3359413-2.2207031-.3808594-.4627686-.029541-.9085693-.0526123-1.3717041.0206299l.6791992-2.2391357 6.0811729-.4051514v18.5411377c0 .2070313.1679688.375.375.375s.375-.1679688.375-.375v-18.5911257l1.0800781-.0719604v25.1728516c0 .1186523-.0966797.215332-.2148438.215332h-.6503906c-.1220703 0-.2148438-.0927734-.2148438-.215332v-4.1796875c.0000001-.2070313-.1679687-.3750001-.3749999-.3750001zm-17.9843712-32.4541034c-.8612289-.7632103-1.3320618-1.3395214-2.3312988-2.2129517.4589577-.7575703.8961105-1.5133057 1.4699707-2.1254272.5676155.1800079 1.3511162.0261402 1.96875-.1323242 3.2192078-.8242149 2.6419525-4.6746273-.1494141-4.1958008-.8662109.1503906-1.6484375.6933594-2.09375 1.4521484-.2750244.4671021-.6843262 1.6556396-.3013916 2.3936768-.590107.640522-1.0329857 1.387022-1.4830322 2.1341553-1.4806023-1.1205387-2.6962776-1.3532696-4.7399902-1.6811523-2.8449402-.4576569-4.1665077-.7946625-5.3662109-3.3388672-.6954613-1.459547-1.0143318-2.0109177-2.2089863-2.8603516-.4286098-.3047142-.9290295-.6563778-1.1367188-1.1445313-.1367188-.3207998-.1044922-.6879873.0771484-.8925772.2655144-.3012295 1.5594349-.0707092 2.0605488-.0878906 1.1679688-.0332031 2.3369141-.0556641 3.5058594-.0668945 2.2851563-.0229492 4.6074219-.0019531 6.8955078.0615234 1.9980469.0546875 3.7871094.1513672 5.4570313.7851563 9.0845146 3.4498701 5.623207 18.3336343-1.6240235 11.9121084zm-.4892578-6.8344727c.3349609-.5712891.9238281-.9799805 1.5761719-1.0927734 1.8524246-.3278618 2.1058655 2.1492786-.1650391 2.7299805-.8248291.2110596-1.24646.2073975-1.4628906.1661987-.0157471-.0350342-.0107422-.0757446-.0380859-.1056519-.0638428-.0699463-.1503906-.1018677-.2376709-.1116333-.1215821-.3946533.0888671-1.1801147.3275146-1.5861206zm8.0234375 22.2495136c.2392578.1005859.3671875.2207031.3652344.2817383-.0019531.0717773-.1767578.1865234-.4541016.246582-1.52882.3326874-3.0475731-.0242958-3.3398438-.2475586-.3371849-.2638817.1720543-.4458466.5839844-.5703125.1435547-.0449218 1.9580918-.0704765 2.8447266.2895508zm5.0654297-.0600585c.5585938.0292969 1.0419922.0551758 1.5166016.2832031.1357422.0649414.1796875.1245117.2011719.1108398-.0185547.0263672-.1132813.0922852-.3027344.1362305-1.7738991.4159317-4.7220802.0131111-3.5058594-.4296875.6407547-.2338677 1.3065643-.1485748 2.0908203-.1005859zm8.4677696-5.4555665c.0851822 0 .1602173.0668259.1660156.1552734.0066223.1004753.0554504.8421745.0488281.7416992.0214615.3246193 1.9295273-.0397224-34.6238976 2.4720459-.0424347-.3169556-.1068001-.5619965-.3676758-1.0524292 19.7471504-1.3155441-29.7266331 1.980381 33.5329552-2.2339478 1.7044602-.1135176 1.1166001-.074169 1.2437745-.0826415zm-2.7080078-7.2802753c0-.1225586.0927734-.215332.2148438-.215332h.6503906c.1181641 0 .2148438.0966797.2148438.215332v6.6370869l-1.0800781.0719604v-6.7090473zm-32.5462608 8.8772602c-.1230469-.1586304-.2373047-.3266602-.2485352-.477478.2341309.1972046.496582.3432617.7705078.442749zm.1114501-8.1774921c.3598862-.3358746.8711166.2029629.5100098.539978-2.7208633 2.580267-3.6085567 2.7791348-5.869997 3.2399921-.46562 0-.5161858-.656826-.0800781-.7399902 1.6476688-.3505669 2.4788475-.5512466 3.6700439-1.5299683.6099854-.4700317 1.2000733-.9800434 1.7700214-1.5100116zm-11.1950702-14.7388306c1.1771889-.5000439 2.5116348-.7311516 3.765625-.6137686 1.3134766.1225586 2.2792969.6889639 3.1289063 1.8354483 1.2770081 1.7197685 1.5574684 3.7264156 1.1376953 5.8266602-.3015156 1.5113106-.6269341 2.8994484-1.7359619 3.9614258.2923584-1.2044067.1572266-2.5126343-.401123-3.6209717.1051197 2.4213333-1.8599606 4.432518-4.2800293 4.3900146.539917-.9299927 1.3199463-1.7099609 2.25-2.25-1.9000244.0200195-3.7900391.6400146-5.3200684 1.75.1199951-.9799805.7700195-1.8800049 1.6700439-2.3099976-1.5900421.0338631-2.9117928.2416115-4.2200928.5200195-.2700195.0599976-.9299316.3599854-1.1599121.2299805.485342-.9074383 2.134552-1.8171234 2.4299316-1.6799927-1.3667259-.6211796-2.8615942-1.0150776-4.1835938-.2808228.0241699-.1151123.0373535-.229187.0718994-.3449097.6160966-2.0660647 3.8028928-6.1302622 6.8466798-7.4130858zm7.0750732 23.1788349c-.0002441.0014648-.001709.0031738-.0019531.0046997l-.0142822.0009155c.0048828-.0003662.0114746-.0056152.0162353-.0056152zm-19.4764404-4.9644775c-.0058594-.0957031.0605469-.175293.1513672-.1816406l.7402344-.0498047c.0527344-.0048828.1015625.0244141.1220703.0424805.1146488.1031837.0047035-.1891289.4742432 6.3563843l-1.0722656.0714722zm-1.515625 8.0292969c-.0203691-.675312-.0937929-.7613258-.0087891-.8613281.1056976-.1145058-.6951518.0294914 20.7203369-1.428833-.0152588.0697021-.0419922.1369019-.0495605.2053223-.0319824.2963867.0070801.5886841.0803223.8695679-3.1594505.210041-18.1579208 1.2116127-17.2452393 1.1464233-.0034456.0001869-.9308376.0618286-1.8377686.1248779-1.3388848.0628318-1.642672.1975669-1.6593017-.0560303zm4.7265625 26.4912109-.7402344.0498047c-.0742188.0048828-.1738281-.0649414-.1806641-.1508789l-1.7043456-25.6121216 1.0721436-.0714722c1.7162236 26.9767151 1.8752955 25.7629471 1.5531005 25.784668z"/><path d="m33.7239799 13.1546011c-.394001.2603617-.0361061.8644991.3818359.6445313.1492958-.0887251.2921181-.1155014.3769531-.2651367 1.2022705-.9215088 2.0428467-2.2752686 2.369751-3.7496338.5227585-.3590651.4821053-1.4139748.5072021-1.7977295.0784035-1.8645711-1.1120262-2.9642153-2.3144531-2.8549805-.7998047.0708008-1.4716797.7685547-1.4667969 1.5234375.0029297.5385742.3066406.9848633.5712891 1.3129883.4726067.5878572 1.2587585 1.485076 1.9320068 1.8321533-.3454588 1.3543701-1.1856688 2.5778198-2.357788 3.3543701zm1.0097657-5.65625v-.0004883c-.1875-.2333984-.4033203-.5400391-.4052734-.847168-.0029793-.3734713.3912888-.7753906.8642578-.7753906.7193985 0 1.4764328.7086067 1.4169922 2.0791016-.0012169.026814.0035858-.0676165-.0111084.2434692-.2026367.0224609-.3359375.1656494-.3404541.3585815-.0031738.1485596-.0220947.2954712-.0374756.4428101-.4162598-.293457-.9216309-.7980346-1.4869385-1.5009155z"/><path d="m59.9534721 57.2908325c-1.71875.8408203-3.8583984.6894531-5.4433594-.3876953-.4059639-.2788086-.8348618.3392868-.421875.6201172 1.7917023 1.2162857 4.2222023 1.4050713 6.1953125.4414063.4426156-.216652.1197396-.8904954-.3300781-.6738282z"/><path d="m57.8118706 59.7630005c-.0664063-.1967773-.2802734-.3056641-.4746094-.237793l-3.6826172 1.2211914c-.402256.1340828-.3046875.730957.1181641.730957.1148071 0-.0540085.0306854 3.8007813-1.2402344.196289-.0649413.3027343-.2773437.2382812-.474121z"/><path d="m55.8196831 64.3689575c.9707031-.7714844 2.1220703-1.3325195 3.3291016-1.6225586.4790611-.1151161.3108902-.8435936-.1757813-.7294922-1.3125.315918-2.5644531.9262695-3.6201172 1.7651367-.1621094.128418-.1894531.3647461-.0605469.5268555.1278267.1606217.3638115.1901932.5273438.0600586z"/></g></svg>