<svg id="Layer_1" enable-background="new 0 0 75 75" viewBox="0 0 75 75" xmlns="http://www.w3.org/2000/svg"><g id="Holding_Balloon" fill="rgb(0,0,0)"><path d="m6.1334138 27.3445396c-.1600342 1.4800415.7000122 3.0100098 2.0399776 3.6600342-1.0499873.8499756-1.690002 2.2099609-1.0700068 3.5100098.4200439.8699951 1.3500361 1.4599609 2.3099971 1.4599609.8900146 4.1700439 6.2900391 3.1000366 9.2700195 2.2900391 1.2000122-.3300171 2.460022-.8500366 3-2.0599976.2901001-.6672974.3460083-1.4949341.1869507-2.2678223 3.3770256 1.5001526 10.0967274 1.2423286 14.1704731-1.2907104 2.7314453-1.6987305 4.4926758-4.4936523 4.5952148-7.2944336.1260605-3.4143772-1.7512131-6.3204842-1.9936523-9.5805664-.0698242-.9364014-.418335-1.7453613-.9465332-2.4276123-.4480591-2.366333-2.7042236-4.713562-4.4624634-5.7988892-4.3881264-2.7291865-11.3130207-2.8499813-15.9799824-.9599609-5.960022 2.4299927-12.6500244 11.25-8.3400269 17.6199951-1.4499507.3399658-2.6099849 1.6599732-2.7799678 3.1399536zm32.7667861-7.1359863c.5400391 1.737793 1.050293 3.3789063.9868164 5.1157227-.0942383 2.5546875-1.7197266 5.1162109-4.2426758 6.6850586-3.7496166 2.3310585-10.7323494 2.8726311-14.1495991.8984985-.2174683-.4005127-.5024414-.7511597-.8713379-.9932861 1.3699951-.6499634 2.3699951-2.0100098 2.2199707-3.5799561-.1399536-1.5200195-1.3999634-2.8600464-2.8999634-3.1000366.2600098-3.2600098 2.2000122-6.2099609 5.0499878-7.8200073 1.3099976-.7399902 2.7999878.0400391 2.7200317 1.6199951-.0300293.7000122-.3300171 1.3500366-.6200562 1.9800415 3.25-.9000244 5.9000263-3.7200317 6.580019-7.0300293.1000366.5700073.1900024 1.1400146.2900391 1.710022.1099854.6900024.2299805 1.3900146.3399658 2.0800171 1.5497627-.0381451 3.0445824-1.1348877 3.3995361-2.8659668.3965379 1.1580963-.1313093 1.027502 1.1972658 5.2999267zm-24.3068256 5.4160156c.4319267-.23983.8029814.4269104.3600464.6599731-1.0349846.5646553-2.0626202 1.4256268-1.9200439 2.5900269.0700073.5100098.4500122.9500122.9000244 1.0299683.1900024.0300293.3300171.210022.3099976.4100342-.0200195.1900024-.2199707.3300171-.3900146.3300171-.7199707-.0300293-1.3999634.5999756-1.4699707 1.3099976-.0700073.7099609.4899902 1.4400024 1.2000122 1.5599976.4399548.0659409.3924694.7399902-.0700073.7399902h-.0599976c-1.0900269-.1900024-1.9200439-1.2700195-1.8200073-2.3800049.0800171-.7399902.5700073-1.4000244 1.2299805-1.7399902-.9819119-.9819127-.9714377-3.0268975 1.7299803-4.5100099z"/><path d="m36.6528244 19.0852013c-.5458374.114502-.8170166 1.0236816-.6057739 2.0307617.2112427 1.007019.8249512 1.7305908 1.3707886 1.6160889s.8170776-1.0236816.6057739-2.0307617c-.2112427-1.0070191-.8249512-1.7305909-1.3707886-1.6160889z"/><path d="m30.3566799 25.0227623c.5457764-.114502.8170166-1.0237427.6057739-2.0307617s-.8250122-1.7305908-1.3708496-1.6160889c-.5457764.114502-.8170166 1.0236816-.6057739 2.0307617.2112427 1.0070191.8250122 1.7305909 1.3708496 1.6160889z"/><path d="m36.1418991 28.0776939c-1.9281921 2.5719414-5.5534725 3.1740456-8.211916 1.3583984-.4090843-.2805157-.8329315.3399124-.4228516.6191406 2.9933987 2.0462685 7.0723476 1.3560371 9.2343769-1.5273438.2985421-.3980559-.3042068-.8475817-.5996093-.4501952z"/><path d="m68.7210007 19.7261314c.9755859-6.2817383-2.4838867-12.059082-7.7124023-12.8779297-6.6421165-1.0259223-12.4272461 6.2604752-11.277832 13.9975586.0714951.4831657.8153725.3854313.7421875-.1103516-1.0749512-7.2276287 4.2769051-14.0968647 10.4199219-13.1459961 4.8198242.7548828 7.9990234 6.1479492 7.0869141 12.0214844-.9121094 5.8740234-5.5864258 10.0498047-10.3994141 9.2998047-3.1635742-.4985352-5.7636719-3.0517578-6.7851563-6.6630859-.1344147-.4757099-.8565865-.2745247-.7216797.2041016.638916 2.2589111 1.8710327 4.1165771 3.4574585 5.401062-.0848999.0574951-.1470947.1467896-.1625366.2566528-.1886215 1.347868.4359589 2.8567162 1.8904419 3.5838013-4.5558052 2.2749901-7.2719154 6.6878281-7.5281372 9.2399292-.0458984.4125977-.0375977.8291016.0239258 1.2392578-.1015015.0771484-.1965332.1704102-.296936.2501831-1.140995-1.3464966-3.5800629-1.5103188-5.319519-.1077881-.0194092-.0377197-.019043-.0825806-.052002-.1130981-2.4638672-2.2836914-5.5043945-3.8510742-8.793457-4.5327148-.0928345-.0197754-.1824951.0003662-.258606.0432129-.4288406-2.1406975-2.3490391-1.5430489-8.0270405-1.8342285-1.9230137-.1160431-2.7628422.1063995-4.2871094 1.7456055-2.15625 2.3276367-3.8535156 5.012207-5.0444336 7.9785156-.1844759.4588547.5093079.7397423.6962891.2792969 1.1567383-2.8808594 2.8046875-5.487793 4.8974609-7.7475586 1.8470058-1.9842834 2.3316975-1.514679 6.0683594-1.4316406 3.8432178.0848846 4.401762.1305122 4.7534199.6298828.9680481 1.3743896-1.0037537 3.8622627-.5615253 9.6273193-3.2660522-1.6213989-6.1633301-3.9666138-8.3666992-6.8807373-.2965336-.3953781-.8986397.054493-.5986328.4521484 2.3689575 3.1331177 5.5065308 5.6448975 9.0510864 7.3209839.3973446 3.333889 1.1923923 4.5342293 1.42206 6.0115356.1687546 1.0949211-.0624733 2.1010361-.9848633 2.7075195-1.0563297.7408218-2.4805584.678566-3.7460957.6181641-10.8528519-.5629005-11.6398716-.3317337-12.6879883-1.1918945-.4863281-.4008789-.8217773-1.0356445-.9453125-1.7880859-.2813244-1.6902428.5527563-5.1127167 1.1464844-6.8691406.1585855-.4722328-.5527487-.7066574-.7109375-.2402344-.5180664 1.5341797-.8964844 3.1484375-1.1245117 4.7978516-.2379103 1.7381592-.2221231 3.5411568 1.1577148 4.6791992.9418945.7724609 2.2207031.8359375 3.2490234.8867188 9.9457989.4751511 10.1882324.5017624 10.9143066.5076294-.0080662.1283646 1.5739498 7.5787697 1.6170044 7.6998863-1.8925972.6811295-1.4615326 2.3576584-.2852173 2.7402344 1.0204296.3330841 4.3675518-.2573547 5.1230488-.8061523.8620262-.6235886.7444191-1.9614105-.9692383-2.2451172-1.3701744-.1140442-2.3704605-.0443573-3.1592426.1160889l-1.5847168-7.5285606c2.8232098-.1936989 4.0881557-1.88908 3.7317524-4.1988525-.2385941-1.5368233-.9277992-2.4967422-1.3583374-5.5384521 1.75.7525635 3.5890503 1.302002 5.4768677 1.6279907-.1019363 1.0355148 1.3966217 1.7872772 2.3606567 2.1828003-.6689453 1.3201294-1.2984619 2.6521606-1.9035034 3.944458-.210598.4492722.4703102.7656136.6787109.3183594.6143188-1.3115234 1.2522583-2.6635742 1.9302368-3.9976807 1.2212486.4188232 2.6667137.7267952 3.6498413-.1185303 1.173275-1.007328.965477-3.2219734-1.1831665-4.1394043.3627319-.5405273.7313232-1.0540161 1.105957-1.5374756 2.3770714.4920883 4.080101-1.5932655 3.3218384-3.44104.0294189-.0236206.0569458-.052063.0864258-.0754395 1.0173454 2.9824829 4.7885246 3.1057014 5.4941406.5239258.4802132-1.75177-1.0709877-3.0263252-2.8286133-2.7744141-.8212891.1181641-1.5595703.5317383-2.1533203.9355469-.0600471-1.260994.4687386-2.4832726 1.1000977-3.574707 1.6477051-2.809021 3.8500366-4.788147 6.7279053-6.0528564 1.7506409.2822151 3.251606-.7665348 3.7984619-2.1693115.0324707-.0827637.0279541-.1685181.0031738-.2471924 4.201416-.7269291 7.8244019-4.6713261 8.6350098-9.8890385zm-33.4169922 46.5766564c.2897835.1898956.3216171.4745026.0161133.6948242-.5747681.4172058-3.7120132.9425278-4.4501972.7006836-.8198242-.2672501-.9961529-1.659668 2.7729511-1.659668.4577942 0 1.2825966.0173874 1.6611328.2641602zm11.583313-23.3995934c-.9122925.7874756-1.7820435 1.6940308-2.6165161 2.7261963-.6774712-.2478943-1.2795639-.672287-1.8422852-1.5648804-.1136665-.1707153-.398304-.5576172-.3183594-.6689453 1.0101624-1.4034042 3.6338692-1.843708 4.7771607-.4923706zm-2.5252075 6.8556519c.3369141.6279297.2329102 1.4360352-.237793 1.8398438-.4926758.4233398-1.2841797.3891602-1.8598633.2866211-1.0164795-.1810951-4.0014534-1.3406792-3.5883789-2.090332.888298-1.6124154 4.6479568-1.9721376 5.6860352-.0361329zm-1.6798707-1.9674683c-1.3130493-.2769775-3.4554443.0557251-4.440979 1.3416748-2.0557861-.3348389-4.050293-.9516602-5.935791-1.8050537-.4786301-4.9023819.7966232-6.9928513.7894287-8.9440918.8116455.2851715 4.6827888.8466263 8.4815674 4.3676147.0232544.0214844.0553589.0175781.0819092.0321655-.0498657.0592041-.1123047.1123047-.1566162.1738892-.3701172.5141602-.0053711 1.0600586.2124023 1.3857422.0825005.1115494.4857101.8391838 1.2392578 1.4208984.2546387.1963501.5325317.347168.8175049.4737549-.3696289.4876099-.7307129 1.0117798-1.0886841 1.5534058zm2.4023438-1.9776611c.6921997-.8295898 1.4100342-1.5683594 2.1553955-2.2252197.2736435 1.1581993-.7339706 2.3044738-2.1553955 2.2252197zm5.6325073-4.3478394c1.2193794-.1762161 2.3326492.6085358 1.9980469 1.8344727-.5259361 1.9219856-3.4837151 1.6997223-4.1333008-.8110352.6245461-.4221801 1.2625466-.897686 2.1352539-1.0234375zm4.2612305-10.8471679c-.6287231-.5742798-.958313-1.4783325-.8675537-2.3254395 1.5621223 1.0656414 3.2826614 1.5673542 5.2062988 1.4192505-.8026237 1.7609463-3.0087204 2.1199493-4.3387451.906189z"/><path d="m58.0228195 14.0689659c.1463013-.9404907-.3652344-1.8009644-1.1426392-1.921875-.7773438-.1209106-1.526123.5435181-1.6724243 1.4840088-.1462402.9404907.3652954 1.8009033 1.1427002 1.921875.7773438.1209106 1.5261231-.5435181 1.6723633-1.4840088z"/><path d="m65.1178513 15.1725426c.1463013-.9404907-.3652954-1.8009033-1.1426392-1.921814-.7774048-.1209106-1.526123.543457-1.6724243 1.4839478s.3652954 1.8009644 1.1426392 1.921875 1.526123-.5435181 1.6724243-1.4840088z"/><path d="m53.8337936 20.0684166c.5481033 2.6857719 2.675663 5.0395508 5.40625 5.0395508 1.7832031 0 3.6186523-.9716797 4.8134766-2.6225586.2906647-.4003983-.316143-.8423138-.6074219-.4394531-1.265625 1.7475586-3.3256836 2.6333008-5.121582 2.206543-1.8051758-.4296875-3.3144531-2.1713867-3.7563477-4.3344727-.0989723-.4889565-.833477-.3346176-.734375.1503906z"/><path d="m41.9783249 12.6841393c-1.5588875-.630702-2.973423.9712648-1.1079102 2.4516602.389904.3079424.8541985-.2799864.4658203-.5878906-.3207779-.2540789-.7463608-.6618538-.5610352-1.0283203.1274414-.2509766.5883789-.2753906.9213867-.1401367.6240234.2524414 1.0932617.8984375 1.1411133 1.5698242.0141602.1977539.1787109.3486328.3735352.3486328.0087891 0 .0180664-.0004883.0268555-.0009766.206543-.0146484.3623047-.1938477.3476563-.4003906-.0683594-.9619142-.7143555-1.850586-1.6074219-2.2124024z"/><path d="m42.9705124 8.7041588c-.0976563 1.9780273.5634766 3.9931641 1.8139648 5.5288086.3085785.3776054.8970222-.085495.5820313-.4736328-1.1352539-1.394043-1.7353516-3.2231445-1.6469727-5.0180664.0245896-.4964743-.7245598-.5311022-.7490234-.0371094z"/><path d="m46.487114 9.902401c-.512207.7875977-.5361328 1.8608398-.0595703 2.6699219.2512054.4239101.9001884.0498524.6464844-.3808594-.3359375-.5698242-.3188477-1.3251953.0419922-1.8798828.2707709-.4172936-.3598901-.8244019-.6289063-.4091797z"/><path d="m19.6799831 69.6318893c.3547783.0851517.7007065.0646591 1.0629883.0268555 1.2363281-.1274414 2.4609375-.3911133 3.6396484-.784668.2402344-.0800781.8027344-.2675781.9892578-.7773438.1430664-.3901367.0063477-.862793-.340332-1.1772461-.2758789-.25-.621582-.3652344-.9228516-.4448242-1.2288208-.3232422-2.5875854-.3366089-3.6376343-.0366211l-.3701781-7.4018516c-.0247574-.5010605-.7734528-.4549637-.7490234.0371094l.3853149 7.704525c-1.734829 1.0324478-1.3103504 2.5525589-.05719 2.8540649zm.5135498-2.2584838c.0761719-.0147705.1444702-.0479736.1963501-.100708.5075321-.2305145 1.1987667-.3029175 1.7544556-.3029175.7056866 0 2.7629395.2136688 2.5234375.8691406-.0551758.1508789-.3081055.2519531-.5224609.3237305-1.0779419.3596268-3.5155659.9287109-4.2895508.7397461-.6602039-.1589051-.8386059-.8693848.3377685-1.5289917z"/><path d="m22.3796902 47.1235924c-.637207-.4423828-1.0268555-1.2290039-.9926758-2.0039063.0221825-.4949989-.7267799-.5295677-.7490234-.0332031-.0454102 1.0258789.4702148 2.0673828 1.3139648 2.6533203.406805.2823334.8359203-.3323593.4277344-.6162109z"/></g></svg>