<svg id="Layer_1" enable-background="new 0 0 75 75" viewBox="0 0 75 75" xmlns="http://www.w3.org/2000/svg"><g id="Holding_Board" fill="rgb(0,0,0)"><path d="m54.9538536 56.8778152c1.4555664-.1035156 3.8920898-.2763672 4.0351563-2.2568359.1443596-2.0613976-.6357193-4.5522614-1.046875-6.5009766-.7631226-3.7114258-1.8271484-7.3988037-3.1555786-10.9689941.9076157-.9629211 1.1416016-1.3475189 1.9563599-2.3659668.3087234-.3867798-.2725945-.8569221-.5859375-.46875-.7796249.9768753-.9408989 1.2500267-1.6674194 2.0544434-.8044052-2.0766869-1.682869-4.376049-3.6470337-5.4255371-1.3833008-.7412109-2.9951172-.6845703-4.4213867-.6347656-1.7084961.0644531-3.4750977.1308594-4.7509766 1.8955078-.9759407 1.3614464-1.3551636 2.9634247-1.9067383 4.4492188-.4733315 1.2730713-.9362717 2.4885635-1.4041138 3.8532715-1.1811943-.6127052-2.5165977-1.0149269-3.7301636-.463623-.9106445.4121094-1.6567383 1.5273438-1.2749023 2.6123047.2241211.6376953.831543 1.1533203 1.5849609 1.3447266.7971611.2028618 1.5978279.0549698 2.3867188-.1500244-.9157104 3.3201904-1.78302 7.5175781-1.121582 11.7017822.0680237.4328995 1.4072876 1.5524521 3.8178711 1.3554688 1.2426071-.0898552 2.4751282-.4520798 3.6425781-.4091797 1.4775581.0390472 2.9549294.6601563 4.4970703.6601563.5415649 0 1.0703735-.076416 1.5883179-.1591797-.0446815.1377831-.0389404-.3977203.4763184 8.6495361-1.0666313.007431-1.8124924.8277435-1.5870972 1.8485107.3225594 1.467392 2.4701843 2.3779297 4.0004883 2.3779297 2.9001694 0 3.112709-2.1949539.2539063-3.6142578-.604187-.300293-1.2528076-.4886475-1.913208-.5686035-.5554428-9.1108818-.4478951-8.6020355-.5691528-8.7939453 2.3348272-.3665087 2.7390096.1296804 4.5424192-.0222171zm-1.2358398 10.8427735h.0004883c.6855202.6202316.6277885 1.15625-.3041992 1.3339844-2.0155373.384079-3.8476028-.831871-4.0424805-1.7167969-.0537109-.2441406-.0141602-.453125.1171875-.6210938.2758713-.3501434.6947517-.3277588 1.114563-.3010254.0073242.0003662.0137329.0041504.0211792.0041504.0073242 0 .0146484 0 .0224609-.0009766.0006104-.0001221.0011597-.0004883.00177-.0004883 1.159935.0836335 2.2294579.5433122 3.0690308 1.3022462zm-12.8676758-31.9052735c1.4521332-4.3086109 2.4668121-4.6378822 5.5981445-4.7548828 1.3286133-.046875 2.8354492-.0996094 4.0400391.5458984 1.8027725.9629669 2.6519508 3.3298035 3.4297485 5.3618164-3.5980225 3.6176758-8.7513428 5.595459-13.8505249 5.2445068-.0140381-.494873-.5-.954834-1.0487061-1.3184814.7095643-2.0882034 1.2719994-3.4250869 1.8312989-5.0788574zm-3.6333008 4.9951172h.0004883c1.0424805.3974609 2.1816406 1.1728516 2.1020508 1.4296875-.0815392.1963882-.9725037.4870338-1.1074219.5419922-5.8162766 2.3265114-5.0673447-3.524807-.9951172-1.9716797zm8.7177734 15.2773438c-3.3355331-.7173157-3.5902939-.1000175-5.9702148.0732422-.6381836.0517578-2.1865234.0703125-3.0361328-.8330078-.6365967-4.2015381.3167725-8.454834 1.2473145-11.7387695.5218277-.1880875 1.1321945-.3756256 1.5236206-.6906738.0482178.0290527.1013794.0505371.1611938.0554199 5.3099136.4071503 10.6007118-1.5884399 14.3417358-5.2061768 1.2573242 3.4301758 2.2731323 6.9644775 3.0054321 10.5245361.411068 1.9462852 1.1673775 4.3759499 1.0332031 6.2949219-.0888672 1.2285156-1.6987305 1.4462891-3.3554688 1.5634766-.5703125.046875-1.1352539 0-1.7329102-.0478516-3.8927801-.3154373-3.2992628.8462028-7.2177733.0048828z"/><path d="m51.0912437 18.9035721c-.5203247.0067139-.9337769.6212158-.9234619 1.3724365.0103149.7510986.4404907 1.3544922.9608154 1.3476563.5203247-.0067139.9337769-.6210938.9234619-1.3723145-.0103149-.7510986-.4404906-1.3544922-.9608154-1.3477783z"/><path d="m42.8058434 21.7320633c.5203247-.0067139.9337769-.6210938.9234619-1.3723145-.0102539-.7510986-.4404297-1.3544922-.9607544-1.3476563-.5203247.0067139-.9338379.6210938-.9235229 1.3723145.0103149.7510987.4404906 1.3544922.9608154 1.3476563z"/><path d="m50.6325645 24.0321121c-1.9127769 2.3619194-5.4681664 2.6722221-7.793457.7890625-.1606445-.1308594-.3964844-.1054688-.5273438.0546875-.1303711.1611328-.1054688.3974609.0556641.5273438 2.6746445 2.1678104 6.680191 1.7758141 8.8481445-.8984375.3123627-.3860684-.270111-.8570385-.5830078-.4726563z"/><path d="m43.1306114 13.5633631c.5703125-.7041016 1.4174805-1.1923828 2.324707-1.3408203.4735413-.0770359.3897133-.8033276-.1210938-.7402344-1.0859375.1777344-2.1015625.7636719-2.7866211 1.6083984-.3115233.385025.2684022.8576317.5830079.4726563z"/><path d="m51.7595177 12.7703943c.290966.3853855.9012985-.0522175.5976563-.453125-.5239258-.6904297-1.2763672-1.2021484-2.1186523-1.4404297-.1987305-.0556641-.40625.0585938-.4628906.2578125-.0561523.2001953.0595703.4072266.2587891.4628906.6865233.194336 1.2993162.6113282 1.7250975 1.1728516z"/><path d="m67.2136154 19.1668777c.3163605-.1904716.1963272-.6745167-.1694336-.6962891-1.0263672-.0634766-1.800293-.9316406-2.1821289-1.7226563-.3300781-.6835938-.4902344-1.4267569-.6601563-2.2138662-2.2196044-10.2766108-12.3951301-11.9269015-16.5366172-5.9755858-.0109863.015625-.0137939.0339355-.0220337.0505371-.9482422-.0499268-1.8890381.0036621-2.7748413.1672363-2.2387772.404686-4.1805687 1.4669542-5.6083984 2.8935547-.3510628.3510628.1791039.8824167.5302734.53125 4.5750389-4.5750389 12.9444885-3.3927698 15.3891602 1.4716797.902565 1.8029604.7522469 3.4208784.8408203 3.5507803-.1045113.064415-.5862999.0916977-.9331055.1279297-.3919945-1.9611511-2.4666138-2.9769154-4.2270508-2.2919912-.7268105.3032722-1.096756.6562357-3.2832031 1.8359365.1147461-.7519531.0141602-1.5458975-.2998047-2.2431631-.1371346-.3082838-.5860977-.2911396-.6967773.0322266-.2706223.7934217-.8029099 1.5265932-1.5400391 2.0546865-.0705223-.5003929-.2764549-.9789104-.5820313-1.3789053-.5611572-.7005615-1.1696777-.5661621-1.7240601-.37146-1.3547478.4743614-2.5062447 1.0623503-3.6270142 2.3148184-.996521 1.0989685-.9749908 1.5025482-1.1939697 1.885498-.2602921-.0575733-.8051147-.232338-1.1561279-.2868652.0810547-2.0546875.8540039-4.0859365 2.2006836-5.7626944.3105583-.3867359-.2729454-.8538399-.5849609-.46875-1.550293 1.9296875-2.3930664 4.3007803-2.3725586 6.6767569.0003052.0321045.0111694.060791.019043.0905762-1.5429306 1.3002625-.4211807 3.8322754 1.8857422 3.8322754.0168457 0 .03125-.0075684.0475464-.0096436.0720825.3748779.1506958.755249.2483521 1.1531982.7387695 3.03125 4.3989258 5.1455078 7.3662109 5.3652344 4.1081924.3043118 8.7931404-2.3064079 10.1046753-7.579834.9469109.076992 1.7614326-.3776665 2.1858521-1.0227051.8062973-1.2230568.2399559-2.9642315-1.3701782-3.3835449.0307617-.0256348.0671387-.0447998.0928345-.076416.1849365-.2366943.1914063-.6442871.1213989-1.2282715 2.2097968 3.7863637 7.0037726 4.7744179 10.5118979 2.6784668zm-30.7944298 2.7041016c-.7070732-.8234234-.2724762-1.9963207.642395-2.1318359.2933807.0767517.3544197.0989399.59375.1573486-.0272827.8101807.031311 1.6790771.1737061 2.6158447-.5526123-.0207519-1.086914-.2578125-1.4098511-.6413574zm15.9301758 4.7001953c-1.8354492 1.7167969-4.3476563 2.6435547-6.7265625 2.4599609-2.7055664-.2011719-6.0341797-2.0908203-6.6933594-4.7958984-.4174805-1.7011719-.5913086-3.1640625-.5297852-4.4658203.1426811-.152195.30476-.5060081.3876953-.6943359.1963081-.4518814.5457458-.9053173.8769531-1.2695313 1.3625336-1.5201817 3.0407753-1.9960957 3.1455078-2.046874.5453606-.1992426.7666397-.300457 1.0576172.0644531.3054199.3992529.5057373.9736128.4355469 1.5351553-.038765.3079414.289608.5197086.550293.3769531.8081322-.4385853 1.4838371-1.0218735 1.9946289-1.8642569.1743355 1.3824339-.501194 1.6874094-.1162109 2.0400381.1162109.1083984.2885742.1308594.4272461.0556641 2.6893654-1.4049606 3.3931885-1.990242 4.0148315-2.2202139 1.5353279-.5642157 3.1440544.5276651 3.2166138 2.065917.0053711.1201172.0683594.2304688.1689453.2958984.3321953.1078148.1616859.0538158.5039063.0048828.6252174 2.6967889-.3731689 6.2801934-2.7138672 8.4580079zm4.8823242-5.8066406c-.2913208.4411621-.8616333.7097168-1.3994141.6867676.1765137-1.0179443.2036743-2.0351563.0557861-2.9821777 1.3108293.0091762 1.9752198 1.3349037 1.343628 2.2954101zm-.3222656-5.5371084c-.0703125-.1818848-.2642822-.2713623-.4481812-.2189941-.9149094-3.7291613-4.1748505-5.8538265-7.9447021-6.3227539 3.995388-5.1076436 12.9258499-3.3746204 14.9524536 6.0065918.3616676 1.6774855.8152122 3.4513845 2.5097618 4.2587881-3.6662788 1.5414924-7.7247123-.2969609-9.0693321-3.7236319z"/><path d="m39.1911583 69.3934402c3.0978889.591507 5.9206161-1.9240417 4.6542969-3.5390625-.286438-.3632813-.7562866-.5864258-1.2578735-.6015625l-.1723022-7.953125c-.011692-.4956741-.7605324-.4804344-.75.015625l.1726074 7.9663086c-.6834106.0732422-1.3602905.2727051-1.986084.5834961-2.7877045 1.3798294-2.423893 3.1943817-.6606446 3.5283203zm3.3642578-3.3925781c.9629707.0196838 1.2592354 1.0761566.0268555 1.9443359-.9477539.6640625-2.1333008.9208984-3.2514648.7119141-.9207115-.1760178-.9975281-.707222-.3037109-1.3349609h.0004883c.9961814-.8986817 2.3107756-1.3546295 3.5278319-1.3212891z"/><path d="m21.8274479 31.7399979 1.1525269 8.0311279c-.5083694.2154961-1.5838413.1873207-1.177002 1.5812988.5841637 2.1116333.3721027 2.2364502 1.7576904 2.4504395l.7244263 5.052124c.0799561.5699463.6099854.960083 1.1900024.8800049l.289978-.0400391c.5700073-.0799561.9699707-.6098633.8800049-1.1799316l-.8243408-5.7263184c.0841675-.1407471.147522-.2886963.1964722-.4399414 4.5855713-1.612793 8.48456-4.9997559 10.7115498-9.3322754.2280693-.4443855-.4414291-.7808495-.6669922-.34375-2.0822754 4.0510254-5.6895161 7.2314453-9.9406147 8.8284912-.0545444-.6056442-.297327-1.0520058-.6815796-1.4085693l-1.2486572-8.6694336c3.2106323-.4023438 6.4365234-.7094727 9.6652851-.8823242.9501953-.0498047 1.6845703-.8476563 1.6376953-1.7802734-.1962891-3.6572266-.4375-7.359375-.7158203-11-.0668945-.9345703-.9580078-1.6748047-1.9785156-1.5917969-7.9936543.4443359-15.9936543 1.5341797-23.7768574 3.2382813-.4921875.1064453-.9199219.4042969-1.1738281.8154297-.5551305.8979053-.0172248 1.6321812.1582031 2.6416016.1209049.4789696.8483324.2995796.7275391-.1835938-.2450542-1.2160072-.562604-1.5531082-.2475586-2.0644531.1474609-.2382813.4008789-.4121094.6953125-.4765625 7.7451172-1.6953125 15.7050781-2.7802734 23.6586933-3.2226563.612793-.0322266 1.1513672.3681641 1.1889648.8984375.2783203 3.6376953.5185547 7.3339844.7148438 10.984375.0263672.5195313-.3901367.9648438-.9282227.9931641-7.3012714.3896484-14.6015644 1.3701172-21.6972675 2.9130859-.5253906.1132813-1.0229492-.2021484-1.1411133-.7167969-.5776367-2.5-1.1757813-4.9970703-1.7939453-7.4912109-.0498047-.2011719-.2539063-.3193359-.4541016-.2744141-.2006836.0498047-.3232422.2539063-.2734375.4541016.6171875 2.4902344 1.2143555 4.9833984 1.7905273 7.4794922.2075205.9031944 1.1172476 1.4794693 2.03125 1.28125 3.1473389-.6843263 6.3388672-1.2390138 9.5488892-1.6983643zm1.199646 11.1759033c-.0322266-.0576172-.0541992-.1357422-.0698242-.1982422-.6055222-2.171875-.6271076-2.0138893-.1635742-2.1035156l.1245117-.0253906c.3486023-.0909386.5389309-.2226524.7338867-.2910156.7958736-.2806625 1.9138622.5467987 1.7143555 1.6191406-.0504951.1306953-.0764771.5214653-.5336914.8964844-.4422398.3241463-.8825951.2859955-1.2890625.2285156-.301466-.0306244-.4164334-.096943-.5166016-.1259766z"/><path d="m22.4738712 29.2528152c.1002312-.0019112.2195511.0088406.324707-.0458984 1.8740234-.9384766 3.3398438-2.703125 3.921875-4.71875.3134766-1.0859375.3305664-2.0761719.0507813-2.9423828-.5664234-1.7536716-2.3409595-2.6889935-3.8203125-1.9111328-.6914063.3613281-1.1005859 1.0244141-1.4189453 1.6191406-.4677734-.4853516-1.0415039-1.0136719-1.8061523-1.1738281-2.284008-.4733696-4.3648262 2.3895969-2.3076172 5.6972656 1.105957 1.7802734 2.9960937 3.0791016 5.055664 3.4755859z"/><path d="m58.1101036 9.773324c-.3817062-.3180885-.8621025.2564564-.4824219.5742188 1.2963867 1.0898438 2.109375 2.75 2.175293 4.4423828.0193443.5005655.7689552.4678507.7490234-.0292969-.0737304-1.8994141-.9863281-3.7646484-2.4418945-4.9873047z"/><path d="m27.5910587 66.7323074c-.0999489.4572372.564352.6428223.7202148.2041016.0332031-.0947266.059082-.1904297.078125-.2880859.4082031-1.2617188 1.7661133-2.1552734 3.0917969-2.0029297 1.3857441.1679688 2.5688496 1.5380859 2.5317402 2.9335938-.0053711.2070313.1582031.3789063.3652344.3847656h.0097656c.2026367 0 .3696289-.1611328.375-.3652344.0473633-1.7890625-1.4140625-3.4824219-3.1918964-3.6972656-1.2548828-.1552734-2.5361328.4521484-3.3120117 1.4375-.9012165-2.3214188-4.4273357-2.4757195-6.1000977.6035156-.4277344-1.3486328-1.5283203-2.4912109-2.90625-2.8691406-1.8671875-.5126953-4.0092773.4404297-4.8803711 2.1679688-.222929.4435272.4470425.7813034.6699219.3378906.7163086-1.4208984 2.4790039-2.1992188 4.012207-1.7832031 1.5336914.4208984 2.6499023 1.9941406 2.5400391 3.5820313-.0307026.4434967.6090851.5613708.7338867.1308594.7845383-2.6863937 2.7788792-3.5737495 4.1967773-2.9765625.7749023.3261719 1.262207 1.1894531 1.1347656 1.9375-.0268554.0859373-.0498046.1738279-.0688476.2626951z"/><path d="m39.2933311 52.514534c-.5540771 0-1.0032349.4492188-1.0032349 1.0032959s.4491577 1.0031738 1.0032349 1.0031738 1.0032349-.4490967 1.0032349-1.0031738-.4491577-1.0032959-1.0032349-1.0032959z"/><path d="m44.8261681 52.514534c-.5540771 0-1.0032349.4492188-1.0032349 1.0032959s.4491577 1.0031738 1.0032349 1.0031738c.5540161 0 1.0031738-.4490967 1.0031738-1.0031738s-.4491577-1.0032959-1.0031738-1.0032959z"/><path d="m49.9328575 52.514534c-.5540771 0-1.0032349.4492188-1.0032349 1.0032959s.4491577 1.0031738 1.0032349 1.0031738 1.0032349-.4490967 1.0032349-1.0031738-.4491577-1.0032959-1.0032349-1.0032959z"/><path d="m54.291256 54.5210037c.5540161 0 1.0031738-.4490967 1.0031738-1.0031738s-.4491577-1.0032959-1.0031738-1.0032959c-.5540771 0-1.0032349.4492188-1.0032349 1.0032959s.4491577 1.0031738 1.0032349 1.0031738z"/></g></svg>