<svg id="Layer_1" enable-background="new 0 0 75 75" viewBox="0 0 75 75" xmlns="http://www.w3.org/2000/svg"><g id="_Holding_Bottle" fill="rgb(0,0,0)"><path d="m36.917469 47.0898399c3.166748.0302734 6.333374-.0808105 9.4799194-.3328857 1.4925575-.1124916 1.9177094-.590477 1.8354492-2.0976563-.2071152-4.8329277-.710434-9.5295525-1.3816528-13.7357159-.1210327-.7664795-.3226929-1.9968262-1.1799316-2.2993164-.6151733-.2219238-1.5530396.3427734-2.1783447.4537354-1.8153076.3026123-3.7415161-.0604248-5.3046875-1.0386963-.3227539-.2119141-.6555176-.4438477-1.0387573-.423584-.5950317.0302734-.947998.6555176-1.1799927 1.2102051-2.1279297 5.1030254-2.8035889 10.8010235-1.9262085 16.2670879.1983909 1.2900429.6621322 1.9726716 2.8742065 1.9968262z"/><path d="m33.1387215 48.0769005c-.3499527.6054115.1700706.8941536.4833984 3.3989258.043457.3432617.0771484 3.5581055.043457 3.9560547-.0551758.1921692.0551949.4011688.2543945.4599609 1.7797852.5239258 3.6220703.8032227 5.4755859.8295898 1.4173546.0156403 1.7164268-.4994736 1.7783203-1.2988281l.2456055-2.4819336c.2285156.0634766.4692383.0800781.7036133.0498047.464817 2.8485794.4171791 2.3480721.4599609 2.8930664.0907974 1.1661797.254715 1.5942383 1.4267578 1.5942383.6988602-.0203705 2.4791222.1342583 5.2788086-.4765625.2124023-.0458984.4765625-.1040039.5166016-1.7988281-.0041389-.3039436.1479492-1.9168167-.2387695-4.5639648-.2776108-1.8888206-1.0733109-2.2040558-2.4443359-2.1337891-5.4130478.3097382-11.2111435-.3410263-12.5385742-.6865234-.5658989-.1481896-1.1512947-.248211-1.4448242.258789zm.6865234.3696289c.2410774-.0544357 4.970993 1.2798462 13.3398438.8071289.9970131-.0572357 1.4426765.0183067 1.6591797 1.4936523.3780289 2.5871811.2499046 4.9893799.1328125 5.5581055-2.4505081.5117111-5.3867455.493969-5.4824219.340332-.1323662-.2142029-.1334496-.9290924-.190918-1.2685547-.509037-2.756649-.3693123-3.2275391-.8583984-3.2275391-.141983 0-.6058655.2787132-1.112793-.074707-.2338867-.1622429-.5590172-.0154419-.5874023.2705078-.3629341 3.6438484-.2807808 3.4019089-.5151367 3.5161133-.2246094.109375-.5332031.112793-.8032227.1098633-1.690918-.0239258-3.3720703-.2666016-5.0014648-.7207031.1079102-1.1992188-.0351563-3.8369141-.0390625-3.8681641-.0864258-.6918945-.2143555-1.3862305-.3803711-2.0639648-.0585213-.2384758-.2649499-.7443733-.1606446-.8720703z"/><path d="m36.905323 56.7385216c-.1645508.0029297-.3759766.1655273-.3774414.3725586l-.0462036 7.3796425c-.8898659.08004-2.8446159.4898987-3.5065308 1.095459-.8015175.7323303-.6761513 2.0402603 1.0834961 2.355957 1.4343681.2580338 2.9306602.1811218 4.3374023-.2255859.8193359-.237793 1.3071289-.6328125 1.449707-1.1728516.2442131-.9220581-.5786362-2.0289612-2.6138916-2.0811768l.0460205-7.3465614c.001465-.2070313-.1655272-.3759766-.3725585-.3774414zm2.2158203 9.613285c-.2975845 1.1189957-5.6275787 1.3699722-5.8588867.3085938-.034668-.1601563.0532227-.3691406.21875-.5205078.190918-.1748047.4648438-.2832031.7319336-.3740234h.0004883c1.3270874-.451973 3.2595787-.896965 4.4741211-.1953125.2729492.1577148.5097656.493164.4335937.7812499z"/><path d="m13.9507332 26.8630352c.9829283 2.7189808 3.8234482 4.4403343 5.8188477 4.296875.206543-.0146484.3623047-.1938477.3476563-.4003906-.0146484-.2070313-.2001953-.362793-.4003906-.3476563-1.5358067.1079521-4.14573-1.2730484-5.0605469-3.8022461-.1157227-.3256836-.0981445-.7290039.0478516-1.1308594.7902575-2.0863876 3.1184177-2.3562832 4.6642456-3.9299316.307333.6409416.6885891 1.092041 1.4314575 1.092041 1.1191864 0 2.4073162-1.1505699 2.5219727-2.6455078.0731812-.954834-.3416748-1.8737793-1.0783691-2.4958496.1364746-.1568604.3059692-.3303223.4951782-.5036621.982605 1.9820557 2.6715698 3.5703125 4.7150269 4.4160156.0846081.1609459.275034.2364502.4438477.1816406l.1357419-.0415039c.3429909-.1052856.3567829-.5866966.0200195-.7109375-2.0651245-.7578125-3.7770386-2.3299561-4.7155762-4.3183594 1.1041222-.7336607 1.8112736-.4999599 2.1173706-.5097656.7528687 1.4533691 2.0830688 2.5928955 3.6312256 3.1237793.3686523 1.6572266-1.2441406 3.1330566-1.7532349 3.548584-.3974609.3212891-.8212891.6137695-1.2436523.9057617-2.1727982 1.503109-2.557209 2.0187588-3.5073242 3.9160156-.3607941.7215862-.7905235 1.5618477-1.3984375 2.1816406-.3469887.3551941.1915779.8745079.5361328.5253906 1.2571678-1.2837276 1.5650196-2.8314419 2.5336914-4.0913086.3769531-.4799805.838623-.8752441 1.336792-1.2504883 1.206604 3.6662598 3.9135132 6.9572754 7.5133057 9.0722637.4261208.2514801.806839-.3956757.3798828-.6464844-3.5184937-2.067503-6.1503906-5.2990704-7.2606812-8.8850079.5956306-.4153843 1.109375-.7627583 1.5829468-1.145752 1.6074219-1.3110352 2.355957-2.9428711 2.0024414-4.3647461-.0150146-.060791-.0472412-.1108398-.0861206-.154541l.7685547-.9604492c.1109009-.1386719.1144409-.3410645.0045776-.4804688-.9680786-1.227417-2.1962891-2.1641855-3.5812988-2.8978281-.1512451-.0800781-.3406372-.0472412-.4581299.0772705l-.8024292.8493652c-.0415649-.0283203-.0889282-.0491943-.1415405-.0588379-1.7922974-.3328857-3.220459 1.0029306-3.9037476 1.8131113-.0685425-.03479-.1329346-.0748291-.2046509-.1051025-1.5190926-.64258-3.3643417 1.0428905-2.3580933 3.7906494-.8094997.9555225-1.650568 1.2692738-2.8811646 2.0218506-1.4318712.8973811-2.7640474 2.5207942-2.2133787 4.06543zm5.5668945-7.9165039c.1152725-.8244648.7949028-1.6081371 1.59375-1.2709961.9624023.4072266 1.5366211 1.2954102 1.4624023 2.2626953-.1071491 1.4030952-1.5236492 2.2284641-2.1088867 1.8686523-.3441562-.2121391-1.0982704-1.7858905-.9472656-2.8603515z"/><path d="m56.7417488 44.2482872c-.1663818-.2744141-.3262329-.5371094-.5637817-.6872559-.1362915-5.4262695-2.9274902-10.7138672-7.3375854-13.8508282-.1694336-.1201172-.402832-.0805664-.5229492.0883789-.1201172.168457-.0805664.402832.0883789.5229492 4.2014771 2.9882793 6.8664551 8.0175762 7.0197144 13.1865215-.1192627.0423584-.2398682.0931396-.369812.1826172-3.281395 2.2488937-3.4425278 6.8781128-.5761719 7.6708984 2.1609116.5959358 4.3972435-1.7515755 3.3623047-4.9399414-.3333589-1.0277174-.8792917-1.7915114-1.1000978-2.1733397zm.2475586 5.2763672c-.472168.8520508-1.487793 1.3422852-2.3095703 1.1142578-2.1706543-.6008949-1.9799385-4.4230919.7998047-6.3300781.2842789-.1944237.292469-.2128563.6206055.328125.1647568.283989.7207146 1.0710068 1.0288086 2.0161133.3408203 1.0512695.290039 2.0981445-.1396485 2.871582z"/><path d="m49.6602058 67.2971191c.7700195-.3662109 1.1879883-.8344727 1.2421875-1.3916016.1001968-1.0351028-1.0846367-2.0936775-3.5183105-1.5162354l-.6276855-6.5491982c-.0195313-.206543-.2060547-.3515625-.4086914-.3378906-.2060547.0200195-.3574219.203125-.3374023.4091797l.6409302 6.6875038c-.7078857.2396851-2.2044678.8608932-2.6838989 1.4702148-.6784248.8563385-.3314095 2.1225204 1.4492188 2.1503906 1.3754804.0269701 2.8726194-.2702482 4.2436521-.9223631zm-4.4423828-1.25h.0004883c1.2384453-.6613235 3.0725784-1.4118729 4.3837891-.9150391.2949219.1118164.5825195.4042969.5541992.7006836-.0273438.2768555-.3022461.5415039-.8183594.7866211-1.2138672.5776367-2.5620117.8745117-3.909668.8500977-1.2677345-.0192108-1.4234199-.7767105-.2104492-1.4223633z"/><path d="m46.2676277 53.7873497c.3206902 0 .4936066-.3796997.2827148-.621582l-1.2226563-1.4003906c-.3244781-.3735008-.8917656.118927-.5644531.4931641 1.2162171 1.3282126 1.2036897 1.5288085 1.5043946 1.5288085z"/><path d="m34.2983894 19.3791485c1.2005501-1.7625103 1.287178.4364548 2.0058594-.1147461.1630859-.1274414.1918945-.3632813.0644531-.5263672-.2119141-.2714844-.5673828-.7260742-1.1098633-.796875-.715374-.0896778-1.1810646.4268017-1.5805664 1.0170898-.2792053.4100476.3424416.8317852.6201172.4208985z"/><path d="m17.9814949 33.2204552c-.2299805 1.4155273-.6884766 2.7734375-1.362793 4.0361328-.2343349.4382057.4281654.7907524.6611328.3535156.7133789-1.3359375 1.1987305-2.7719727 1.4418945-4.2695313.0332031-.2045898-.1054688-.3969727-.3100586-.4301758-.2075194-.0371093-.3974609.1054688-.4301757.3100587z"/><path d="m20.5776863 34.8107872-.0810547 3.3178711c-.0048828.2070313.1586914.3789063.3657227.3842773h.0092773c.203125 0 .3696289-.1616211.375-.3657227l.0810547-3.3178711c.0048828-.2070313-.1586914-.3789063-.3657227-.3842773-.2319335.0229493-.3793945.1591797-.3842773.3657227z"/><path d="m22.130909 33.5539513c-.0698242-.1953125-.2836914-.2983398-.4794922-.2265625-.1948242.0698242-.2963867.2841797-.2265625.4794922.5302734 1.4824219 1.862793 2.6757813 3.3945313 3.0395508.4933662.1151199.6479664-.6167107.1738281-.7294922-1.291504-.307129-2.4150391-1.3129883-2.8623047-2.5629883z"/><path d="m12.202198 58.06567c-1.5615234-.8168945-3.5419922-.7490234-5.0439448.171875-.4214721.2584724-.0338621.8986778.3916016.6396484 1.2832026-.7866211 2.9716792-.8442383 4.304687-.1464844 1.3325195.6967773 2.2485352 2.1171875 2.3334961 3.6186523.0222797.3787575.5198994.4814034.7001953.1645508.7636719-1.3393555 2.5146484-2.0327148 3.9907227-1.581543 1.4736328.4521484 2.534668 2.0112305 2.4145508 3.5483437-.0311222.4001389.5077782.5626297.7016602.2114258.8298626-1.4919128 3.0995274-1.9719276 4.4638672-.9301796 1.3590183 1.0382271 1.5022163 3.3541679.2763672 4.5512733-.2399979.2344513-.071909.6430664.262207.6430664.0947266 0 .1889648-.0356445.262207-.1069336 2.4028759-2.34729.5991573-7.1334953-3.3833008-6.3061562-.7363281.1538086-1.3916016.4916992-1.8955078.965332-.2875977-1.4975586-1.4174805-2.84375-2.8818359-3.2929688-1.4975586-.4604492-3.2270508.0512695-4.3022461 1.1772461-.3515626-1.4038083-1.3076173-2.6538083-2.5947267-3.3271482z"/><path d="m57.3335457 66.8103027c-2.2788086-.7270508-5.0263672.3579102-6.1123047 2.5205078-.2232323.442955.4465866.7802734.6699219.3369141.9819336-1.9545898 3.6816406-2.8920898 5.6635742-1.9672852.2668762.1239777.5608177-.0918427.5317383-.3774414-.1088867-1.0878906.4770508-2.2285156 1.4257813-2.7729492.9487305-.5449219 2.2285156-.4755859 3.1132813.1665039.3019257.2223511.7102051-.0959549.5673828-.4453125-.4697266-1.1474648-.1333008-2.5737343.7998047-3.3906288.9335976-.8164063 2.3916054-.9604492 3.4668007-.34375.4285812.2480698.8043289-.4031029.3730469-.6503906-1.3422852-.7714844-3.1655273-.5908203-4.3339882.4296875-.9379883.8212891-1.3935547 2.1352539-1.230957 3.3647461-2.3696978-.899128-4.7524073.7187309-4.9340822 3.1293983z"/><path d="m36.143116 22.2370586c.3994751.7989483 1.244381 1.3696289 2.2075195 1.3696289.7214012 0 1.9843864-.4616776 1.5698242-1.0166016-.1220703-.1650391-.3579102-.199707-.5249023-.0756836-.8533592.6400185-2.0967979.356142-2.581543-.6123047-.2209549-.4442519-.8931961-.1084689-.6708984.334961z"/><path d="m39.5288582 18.7946758c.439888-.5345345 1.311203-.3941231 1.5566406.2607422.1729393.4646778.8764687.2017689.7021484-.2626953-.4439888-1.1875076-2.0232964-1.4604893-2.8369141-.4755859-.1318359.159668-.109375.3959961.050293.527832.1591797.1318359.3955079.1108398.5278321-.050293z"/><path d="m38.6685066 9.465085c.4870071-.1170235.2976723-.8514729-.1767578-.7285156-3.9687386.9578505-7.6408195 4.7739515-6.8294067 8.7485361-2.5978794 1.408289-1.2880974 4.0544643.59021 3.6008301 1.6310768 7.5522537 11.6122627 8.8603916 15.1213989 1.9189453.8496666.2803574 1.6489792.0435867 2.1676025-.4118652 1.1209373-.9826946.9373817-2.8741817-.5772095-3.4616699.1043739-.2564106.3317986-.7427197.366272-.8659668.3442764-1.2609749.3347549-2.6139812-.0255127-3.8132334.697937.5112305 1.2109985 1.1834717 1.12854 1.5085449l-.0024414.0087891c-.1279526.4789476.5933075.6687212.7236328.19629.0456924-.170558.5456238-2.0367546.5136719-1.9174814 1.6079216 3.0614729.6373787 4.3218927 1.28125 4.5673838.1378365.0542049.3066597.0198517.4145508-.1010742 1.3520508-1.5249023 2.0673828-3.6508799 1.9951172-5.7417002.1567383.2407227.3125.4819336.4677734.7246094.1932182.3050222.6696281.1834116.6904297-.1811523.109375-1.972168-.1298828-3.5922852-.730957-4.9516602-1.9967957-4.54601-7.5442505-4.9876218-10.689209 1.1077881-1.4019165-.7598877-2.9591064-1.1898193-4.4958496-1.1898193-.1665039-.0004883-.3442383.0083008-.5083008.0268555-.2055664.0234375-.3530273.2094727-.3295898.4155273.0239258.2055664.2099609.3544922.4155273.3295898.0839844-.0097656.1772461-.0205078.2685547-.0205078 5.1931953-.1271267 9.9476128 4.9008255 7.9819336 9.2417002-.0759277-.0998535-.1714478-.1828613-.2562866-.2756348-.0307007-.052124-.0695801-.0974121-.119873-.1289063-.1645355-.1653385-.1282082-.2348728-.8064575-.5637207-.1616211-.078125-.4326172-.2094727-.4858398-.2817383-.1040764-.1864147.0509911-1.0813332.0605469-1.3789072.0165329-.5496817-.0281601-1.1464806.0415039-1.6625977.0386276-.2861214.0275345-.5496197-.2475586-.6367188-.1874504-.0591326-.399292.0233793-.5112305.3032227-.4501953.753418-.8662109 1.5327148-1.2412109 2.3256845-.6606445-1.3896494-1.3276367-2.7792978-1.9951172-4.1689463-.1949425-.4081297-.8171043-.1797056-.7001953.2592773.4821815 1.8012657-.3087807 3.1397381-.3261719 3.2397461-.2151108-.0260744-1.6469841-.3226585-3.4785156-.6176758-.0199127-.065423.001812-3.3099632.0039063-3.5317383.0032005-.3284616-.3921051-.503664-.6333008-.2753906-.7924805.7539063-1.128418 1.8579102-1.378418 2.8027344-1.6603508.224082-3.1680069.9479218-4.0668945 2.3461924.1236456-3.2267274 3.250923-6.0082788 6.3798826-6.7656259zm-6.6380005 8.6711436c-.0562725 1.3123589.0488739 1.8485985.0993652 2.2189941-1.0162677.3098602-1.9987258-1.1915188-.0993652-2.2189941zm17.3948365 2.3952636c.3883896.9867916-.5159111 2.1087704-1.7399292 1.7807617.326416-.8148193.5287476-1.6774902.5847778-2.5549316.4840088.0002442.9735107.3132324 1.1551514.7741699zm-3.6771851-10.4873056c2.8172493-5.4920478 7.5814896-5.2094269 9.352478-1.1767578.4257813.9633789.6533203 2.0800781.6879883 3.3896484-.0986977-.1508665-.0471725-.0719604-.7202148-1.1054688-.2307587-.3539791-.7828903-.1127882-.6782227.296875.515625 2.0131836.1303711 4.2539063-.9770508 5.9643564-.1616211-1.7109385-.7416992-3.0004892-1.5483398-4.340333-.1749268-.2904463-.5998116-.2158947-.6835938.0961914l-.4370117 1.6323242c-.4775391-.6323242-1.2533569-1.1975098-1.9267578-1.4881592-.6368675-1.2025441-1.654686-2.3582152-3.0692749-3.2686766zm-9.0557251 4.5556641c.5015602-.0518856.2783089-.746769.9169922-2.0600586-.0094223 2.3732615-.0550613 2.5753689.1679688 2.8085938.168232.2073107.1335564.237792 3.8286133.880372.5895195.1035156.7573357-.1119156.9350586-.4477549.2568359-.5307617.421875-1.1083984.4912109-1.6977539.5024414 1.0478516 1.0029297 2.0952158 1.4990234 3.1435556.0629883.1328125.1787109.2143555.3447266.2143555.3797188-.0063076.2535133-.2230949 1.1992188-2.0102549.0069008.9385977-.2706108 1.7598562.0791016 2.2353525.2956772.4017735.957077.5397263 1.222168.7729492.0463867.0407715.0817261.0919189.1257935.1352539.3959503 3.0074482-1.5849571 6.5805874-4.7903442 7.7802734-3.0131836 1.1254883-6.7866211-.0512695-8.5878906-2.6796875-1.3901863-2.0523453-1.623497-4.8391438-1.1602783-7.0797119.8477666-1.2731332 2.2131917-1.8390559 3.7286374-1.9954842z"/><path d="m40.8335457 12.3098116c.0351563 0 .0708008-.0048828.1064453-.015625.1987305-.0585938.3120117-.2670898.2529297-.4658203l-.3706055-1.2573242c-.1393814-.4727383-.8606529-.2660685-.7197266.2119141l.371582 1.2583008c.0478516.1630858.1972657.2685546.3593751.2685546z"/><path d="m49.0664558 8.6184053c.7154961-.9232869 2.1086922-1.015975 2.9316406-.1425781.3407211.3617964.8858414-.1536779.5458984-.5146484-1.1170578-1.1850095-3.0560532-1.1094666-4.0703125.1972656-.3061408.394454.2927476.8448629.5927735.4599609z"/></g></svg>