<svg id="Layer_1" enable-background="new 0 0 75 75" viewBox="0 0 75 75" xmlns="http://www.w3.org/2000/svg"><g id="Holding_Cake" fill="rgb(0,0,0)"><path d="m47.8434219 20.5940819c-.3399658.3398438-.3399658.8911133 0 1.2312012.3400879.3398438.8913574.3398438 1.2313232 0 .3399658-.3400879.3399658-.8913574 0-1.2312012-.3399657-.3400879-.8912353-.3400879-1.2313232 0z"/><path d="m57.9597549 11.7896376c-1.5546875-2.1386719-4.6630859-2.9550781-7.0761719-1.9169922-1.1113281-1.7617188-3.4082031-2.3720698-5.0800781-2.6787105-1.8792114-.3377342-3.9642029-.6279249-5.2587891-1.9521484-.5744362-.5816169-1.4023972 1.0514016-.5048828 2.3466797-2.1855469.1679688-4.2744141 1.5996089-5.0996094 3.648437-.0566406.1396484-.0244141.2988281.0820313.4052734.2379227.2445927.5420799.0063839.6796875-.0253906-4.0457344 4.2113132-2.6929703 10.5357103 1.6646729 13.2111826 2.2098579 3.5931473 6.023838 5.2783833 9.286499 4.7868652 3.8077774-.5829029 6.8230667-4.0620861 7.7532959-7.8190918 2.5178223-2.34375 3.0168457-6.5478525 1.2086182-9.451417l2.0332031.0410156c.3102379.0000001.4927254-.3441543.3115234-.595703zm-11.4199218 17.0830087c-2.916584.4444847-6.4050827-1.0510406-8.4901123-4.3710938-.0037842-.0131836.0021973-.0270996-.0030518-.0400391-.8896484-2.1816406-.0029297-4.9609375 1.9375-6.2792969.4765625.8017578 1.34375 1.3710938 2.2753906 1.4619141.3507729.0350761.5516739-.3964176.296875-.6425781-.4875221-.4741859-.6120033-1.256155-.3964844-1.8896484.6039772 1.4563465 2.3410797 2.3414745 3.8066406 1.8535156.4984665-.1636753.2698364-.8504219-.171875-.6972656-.21875-.1728516-.2998047-1.2519531-.2714844-1.8027344 1.6317787.2982807 3.0715141.0235043 4.4736328.875 1.59235.9340801 4.3400764 2.4175701 3.7128906 4.1503906-.0013428.0039063.0010986.0078125-.0001221.0117188-.0026855.0080566-.0065918.0161133-.008667.0244141-.8216475 3.470747-3.6123083 6.8041649-7.1611326 7.3457031zm8.3486328-17.2929697c-.3364716.0102739-.4904137.3708067-.3007813.609375 1.8857422 2.359375 1.7900391 6.04004-.0625 8.3916025-.3043747-1.7292995-2.6197701-2.9894199-4.1396484-3.8808594-1.7061768-1.0368185-3.3377838-.6300392-5.0732422-1.0449228-.1708984-.0400391-.3398438.0410156-.4199219.1923828-.1611328.3085947-.1904297 1.6953135.1054688 2.500001-1.1601906-.0685577-2.2519417-1.058321-2.2939453-2.1923828-.0129662-.3241386-.3986206-.476244-.6308594-.2607431-.7232094.6730299-.9418449 1.7869997-.6201172 2.7167978-.4316406-.25-.7832031-.6396484-.9667969-1.1025391-.085022-.2115231-.3383904-.3009777-.53125-.1884766-2.2089844 1.2333984-3.3798828 3.9316406-2.9111328 6.3828125-2.1123047-1.6708984-3.3076172-4.4785156-2.9628906-7.1601563.3212891-2.5078135 1.9746094-4.7822275 4.2060547-5.9511728l1.4707031-.5830078c.4342804-.1723328.2191582-.8322048-.2392578-.7099609-.5322266.1484375-1.0458984.3535156-1.5341797.6064453l-1.8896484.7490234c1.0715599-1.5953922 3.1133041-2.6067667 5.1894531-2.2607422.472168.0689926.6404533-.6590524.0644531-.7499995-.6141357-.1224871-1.0487442-.8668427-.9375-1.5078125 1.4364967 1.1780949 3.406086 1.4640059 5.2578125 1.796875 5.3359642.9804711 4.306881 3.2332969 5.2314453 2.7607417 1.8984375-.9765625 4.390625-.5439453 5.9179688.9257813z"/><path d="m41.4158096 20.9488182c-.4338417.2462349-.0543251.9004993.3710938.6503906.3675346-.2069626.8249245-.2086582 1.1572266-.0458984-.6419678.0821285-1.7207413.5592327-1.3056641 1.0634766.1306877.1581993.3664665.1824341.5283203.0498047.4394531-.3642578 1.0761719-.4804688 1.6132813-.3046875.140625.046875.2988281.0029297.3974609-.1074219.4880142-.550211-1.1832924-2.2090016-2.7617188-1.3056641z"/><path d="m46.9773331 25.3160057c-.5011711.8517761-1.7704048.793293-2.1816406-.1162109-.202095-.4529762-.8875504-.1458168-.6835938.3066406.6570435 1.4637127 2.7068634 1.5630589 3.5117188.1884766.2519798-.4269638-.3978119-.8082161-.6464844-.3789063z"/><path d="m51.1208878 12.4009657c-.4392281-.2279234-.7894287.4324551-.3496094.6640625 1.2753906.6708984 2.3242188 1.7548828 2.9550781 3.0517588.2131348.4424171.8922195.1203938.6738281-.328126-.6992187-1.4394531-1.8642578-2.6425781-3.2792968-3.3876953z"/><path d="m51.5339737 35.1333885.1103516 2.5263672-2.3691406.0234375v-2.0849609c.1198349-.2910309-.1162987-.5400391-.375-.5400391-.2070313 0-.375.1679688-.375.375.0378189 2.6685524-.0853996 2.7014732.1113281 2.8955078.0703125.0693359.1650391.1083984.2636719.1083984.1006927 0 3.2403412-.0307922 3.1396484-.03125.2126503-.0020447.3792496-.1796074.3710938-.3916016l-.1269531-2.9140625c-.0214578-.5030478-.7709695-.4607238-.7500001.0332032z"/><path d="m36.9568253 68.0308456c.1734467.8610382.9906082 1.2132034 1.8583984 1.3701172 1.3352089.2399216 4.3077736.3524399 5.1689453-.6699219.8670464-1.0275116-.0908813-2.5467911-1.2666016-2.8662109-.4329834-.1176758-.8743896-.1784668-1.3167725-.2121582l-.2994385-9.740963c-.0068359-.2070313-.2099609-.3554688-.3867188-.3632813-.2070313.0068359-.3691406.1796875-.3632813.3867188l.2979736 9.6933556c-1.6855886.0522461-4.0096319.7818527-3.6925046 2.4023437zm6.453125.2167969v.0009766c-.2109375.2509766-.6083984.3515625-.9697266.4160156-1.1572266.2089844-2.3330078.2070313-3.4921875-.0019531-.5112801-.0915451-1.1545677-.2706299-1.2548828-.7773438-.2121429-1.0607147 2.0894775-1.5136719 3.1787109-1.5136719.5556641 0 1.1142578.0722656 1.6484375.2177734.6570358.1768952 1.3699608 1.0905686.8896485 1.6582032z"/><path d="m55.2908096 69.0415878c.8626709-1.0223236-.0793648-2.543129-1.2675781-2.8671875-.5786133-.1567383-1.1721191-.2185059-1.7628174-.2258301l-.3094482-10.0964317c-.0195694-.5210457-.7635536-.4554291-.75.0234375l.3096924 10.1027794c-3.6226044.3466949-3.9079704 2.5469131-2.4659424 3.3815918 1.1923141.6913452 5.306942.7929611 6.2451172-.3173828 0 0 .0009765 0 .0009765-.0009766zm-1.5439453-.0673828c-1.1572266.2080078-2.3310547.2080078-3.4941406-.0019531-.5080643-.0901642-1.1528053-.2715836-1.2529297-.7773438-.2046928-1.0478287 2.0177879-1.5126953 3.1787109-1.5126953.5556641 0 1.1142578.0712891 1.6484375.2167969.4316406.1171875.8759766.546875 1.0097656.9775391.2143021.683731-.3850745.9716034-1.0898437 1.0976562z"/><path d="m17.4744034 27.8804588c-.4687748-.1704636-.7247925.5309258-.2617188.703125 1.6992188.6337891 3.0869141 2.0292969 3.7099609 3.7324219.169651.4643059.8745022.210453.7050781-.2578125-.6982421-1.90625-2.2509765-3.46875-4.1533202-4.1777344z"/><path d="m22.2771378 28.6607323-2.1220703-3.2324219c-.2737198-.4164295-.8980236-.0015087-.6269531.4121094l2.1220703 3.2324219c.2732257.4135284.8985462.0046443.6269531-.4121094z"/><path d="m23.7800674 24.641201c-.1914063-.0771484-.4091797.015625-.4882813.2070313-.6201172 1.5322266-.5810547 3.3457031.1054688 4.8505859.2034969.4515076.8862972.1382999.6816406-.3105469-.6015625-1.3212891-.6367188-2.9130859-.0917969-4.2587891.0781251-.1914062-.0146483-.4101562-.2070312-.4882812z"/><path d="m56.406044 32.5406151c-.2938232.7526855-.630127 1.487793-1.0010986 2.2045898-.3078842-1.634201-.5032158-3.0359936-1.0780029-4.0161133-.4814453-.8125-1.2001953-1.3447266-1.9736328-1.4599609-.9090919-.1309528-1.7686844.3097534-2.6318359.6992188-2.1132813.9199219-4.5791016 1.0029297-6.7714844.2275391-.8938103-.2990971-1.6857986-1.10042-2.9277344-.4931641-1.4884071.7046051-1.9415169 2.5958557-2.4465332 4.2832031-1.789959-.1641388-2.2904015-.1429901-2.717041-.1591797.8890381-.8984375 2.0008545-1.5986328 3.2026367-1.9707031.4767532-.1486912.2475243-.8657646-.2226563-.7167969-2.2224083.6890182-3.8392258 2.327652-3.9593506 2.6594238-.5648994-.0108719-.2892189-.0257416-1.182373-.0214844-.284481-.3536377-.6747513-.619976-.9697266-.7441406.0900879-.4313965.2467041-.848877.4971924-1.2102051.2838097-.4081211-.3353939-.8358345-.6152344-.4277344-.302124.4345703-.5108643.9306641-.6236572 1.4487305-.5315628-.0570602-1.0039024.0297012-1.4859619.2993164-.2875977-.3476563-.6588135-.6069336-1.0836182-.7539063.2832031-.7822266.4140625-1.6274414.368042-2.4599609-.0268345-.5171967-.7752304-.4392395-.7480469.0410156.0426025.7719727-.0831299 1.5583496-.3623047 2.276123-1.2982883-.0322571-2.4112492.9260521-2.5294189 2.3046875-3.9651031.9526558-3.0743809 1.9403-3.237915 4.0622559-.0109959.3955879-.0087872.7782249.1741943 1.1049805-.2674713.2215157-.0819397-.151104-.1392822 10.4453125 0 2.6537132 11.2517433 2.5259438 14.1124268 2.3754883 1.364151 2.0500259 3.8122139 3.0611 5.8768311 2.809082l11.3037109-.0644531c1.4384766 0 2.5625-1.2109375 3.1337891-2.3447266.7180214-1.4346504.2800293-2.7298279.3330078-4.0576172.1022148-2.3560982-.128521-4.8906822-.2392578-6.5664063-.0401878-.4988251-.7853584-.4334755-.7480469.0585938.1161728 1.7552299.3378601 4.1792297.2373047 6.4765625-.0522346 1.3642921.349926 2.5462379-.2529297 3.7519531-.4492188.890625-1.3642578 1.9316406-2.4658203 1.9316406l-11.3476564.067383c-1.7507782.2041931-3.7282791-.5691986-4.9471436-2.1166992 3.2128906-.2236328 7.0535889-.8056641 7.0535889-2.3208008v-3.7177734c4.5167236-1.9868164 8.401001-5.3745117 11.0358887-9.5458984.1436768.9025879.2799072 1.8034668.3850098 2.6894531.0583496.4946938.8025665.4028893.7441406-.0878906-.1401367-1.1848145-.3223877-2.3891602-.5303955-3.6003418.5632324-.9934082 1.0639648-2.0224609 1.4796143-3.0871582.1799354-.4626886-.5166169-.7346231-.6992188-.2734376zm-19.0567627 2.9111328c0 .4737129-.7158203.4734764-.7158203 0 0-.4736748.7158203-.4734993.7158203 0zm-2.5780029-.0292969c-.1064606 0-.133976-.0208778-.3388672-.0595703-.4822464-.0973778-.3463135-.8252716.1464844-.7363281l.265625.0527344c.4408264.0868911.3795585.743164-.0732422.743164zm-4.0449219 1.616211c-.3323975 0-.6776142-.1132774-.8924561-.2504883-1.7615891-1.0621338-.3867168-3.8637123 1.5787354-3.0712891 1.7601433.7702789 1.1458893 3.3217774-.6862793 3.3217774zm2.0767822 1.9145507c-.4737434 0-.4734993-.7158203 0-.7158203.1977539 0 .4734993.7158203 0 .7158203zm-3.8833007-5.3454589c-.6377468.6707649-.8990192 1.6226082-.4807129 2.626709-1.2283821.6833-2.5574951-.2557869-2.5574951-1.5014648-.0000001-1.6051828 2.0059509-2.3704187 3.038208-1.1252442zm-4.8803711 2.7021484c.1913567-.3212967.6606445-.1757965.6606445.1794434 0 .2240753-.2130966.4190254-.4675293.3356934-.1922932.3222427-.6607666.1744919-.6607666-.1794434 0-.1975098.2127838-.4188805.4676514-.3356934zm8.927124 15.5637207c-6.7050781 0-10.2753906-.9931641-10.2753906-1.7099609v-9.9916992c.7274799.0988197.7917042-.9645042 1.3851318-1.1586914 1.8499756-.5998535 1 5.6101074.8199463 6.420166-.1300049.6101074-.3099365 1.2199707-.2399902 1.8400879.0699463.6098633.4500732 1.2397461 1.0499268 1.3798828.6401367.1499023 1.3000488-.3200684 1.5500488-.9299316.5173283-1.2625008-.3939781-2.6548386-.6599121-3.7900391-.1900635-.8200684-.130127-1.630127.0799561-2.4299316.1300049-.4902344.2000732-1.4101563.9000244-1.4101563.7199707-.0100098.9899902 1.1899414 1.6999512 1.1699219.3000488 0 .5500488-.2299805.8400879-.25.4899902-.0397949.8398438.4902344.8898926.9702148.0500488.4899902-.0999756.9699707-.0500488 1.4599609.0400391.4799805.380127 1.0100098.8701172.9899902.4199219-.0300293.7099609-.4699707.7600098-.8898926.0400391-.4101563-.0800781-.8300781-.130127-1.25-.2291298-2.1579552 2.0878258-2.7045403 2.3601074-.4902344.0600586.5600586.0100098 1.1601563.2399902 1.6801758.4860954 1.0991325 2.1952362.9998665 1.5700684-.9501953-.1800537-.579834-.4001465-1.1799316-.3000488-1.7900391.0999756-.5998535.6699219-1.1799316 1.2600098-1.0397949.6499023.1599121.8599854.9499512.9499512 1.6098633.3707962 2.7647171.3685455 3.0015755.5900879 3.3400879.1799316.2600098.5198975.4399414.8199463.3300781.5415764-.2197762.4521942-.8507843.5799561-3.8500977.0300293-.5100098.0600586-1.0500488.3300781-1.4799805.2799072-.4199219.8898926-.6799316 1.3099365-.3901367.4949951.3269043.5115967 1.1904297 1.074707 1.3530273v5.3310547c-.1800537.074707-.3613281.1464844-.543335.2165527-1.3417854-1.1359253-3.3021431-.9662933-4.4390869.2956543-1.851429 2.056778.6423607 4.5332947 3.1113281 2.6367188.6296883-.4819412 1.0843964-1.0980988 1.8710938-2.0769043v3.1442871c-.0000003.716797-3.5703128 1.7099611-10.2744143 1.7099611zm6.1744385-10.4807129c.4732399 0 .4737816.7158203 0 .7158203-.4733582 0-.4740715-.7158203 0-.7158203zm.949707-5.0742187c.4736481 0 .4735794.7158203 0 .7158203-.4732361 0-.4737816-.7158203 0-.7158203zm2.0317383 10.3493652c.0059242.119278.0430756.2209969.1955566.3027344-.4515648.5622101-.8893166 1.136982-1.4041748 1.5297852-1.699791 1.3067131-3.3624268-.1301003-2.0986328-1.5390625.4554977-.5053024 1.124115-.8095703 1.8173828-.8095703.5373535-.0000001 1.0628662.1884765 1.4898682.5161132zm1.8685302-1.0493164c-.0270195-5.2327995.0577736-5.0197906-.0631104-5.2114258.2222061-.2165108.3200684-.4991531.378418-.8139648.25-1.1398926.0500488-2.4299316-.4000244-3.4899902-.5423775-1.2822037-4.1865997-1.8793068-5.5697021-2.0390625.4668121-1.5484543.8588715-3.139513 2.0108643-3.685791.8666725-.4235191 1.3716431.194315 2.3574219.5263672 4.2096367 1.4895363 7.5669403-.3864555 7.6884766-.4150391.6425781-.2890625 1.2480469-.5644531 1.8515625-.4785156.546875.0810547 1.0703125.4824219 1.4365234 1.0986328.5230217.893692.8694458 3.0283699 1.1564941 4.6635742-2.4954834 4.2846679-6.336792 7.7841796-10.8469239 9.8452148z"/></g></svg>