<svg id="Layer_1" enable-background="new 0 0 75 75" viewBox="0 0 75 75" xmlns="http://www.w3.org/2000/svg"><g id="Holding_Calculator" fill="rgb(0,0,0)"><path d="m24.9293327 16.4409523c-2.1387062 2.1654778-.771019 5.4859753 1.8740234 6.0185547-.0976048 1.7399387 1.6857433 3.0819931 3.4063721 2.1694336 2.1933174 3.2310181 6.7338333 4.5029297 10.3973389 3.1889648 2.4561768-.8703613 4.4644775-2.7873535 5.5518799-5.1738281 1.1662598.184082 2.3818359-.1442871 3.2830811-.9013672 2.0686302-1.7362843 2.0524559-5.0909176-.3359375-6.4814444-.2604294-.1531935-1.058754-.3457222-1.4375-.5341797.3246422-.4201231.5884323-.6441851.7578125-1.5185547.435997-2.3711481-1.6447334-4.0264616-3.6416016-3.7304688-.0830078-1.6660161-1.2216797-3.2275395-2.8056641-3.7587895-1.5269661-.5151772-3.370079.0091362-4.3125 1.1201172-.0488281.0576172-.0966797.1132813-.1435547.1630859-.2656364-.5755496-1.0368538-1.341753-1.9453125-1.6650391-2.0948296-.7683668-4.2859364.6124492-4.3544922 2.7285161-.3818359-.0595703-.7353516-.0820317-1.1523438-.0253906-.4287109.0576172-.9267578.1328125-1.4316406.2939453-2.6562996.8955812-4.0464134 4.0188131-1.8945313 7.1337891-.5295714.2758847-1.2358836.3759385-1.8154296.9726554zm15.4257813 10.6708984c-3.0341797 1.0859375-6.6748047.2441406-8.8505859-2.0537109-1.8345947-1.9458008-2.4951172-5.0332031-1.7816162-8.1252441 1.6652088.2451134 3.3235893-.4818363 4.2679443-1.6813955.8362923 1.0205965 2.3094978.9348593 3.0703125-.0283203 1.2441406 1.0117178 3.0117188 1.3847647 4.5507813.9277334 1.3502197-.4023428 2.4908447-1.444335 3.0802002-2.7265615 1.2717285 1.8515625 1.8283691 4.1997061 1.5039063 6.4418936-.0945892.1084957-.1238098.2375908-.0708008.3793945-.5886232 3.0969237-2.8712159 5.8383788-5.7701417 6.8662108zm-11.6676026-8.1074218c-.0209961.6833496.036499 1.3493652.1398926 1.9985352-.0216064-.005127-.0411377-.0151367-.0640869-.0161133-.3144531-.0146484-.6240234-.1953125-.7910156-.4609375-.3627682-.5804291-.0300846-1.3529491.6386719-1.4892578.0283203-.0058594.0512695-.0209962.076538-.0322266zm18.2437745-1.8671875c1.3422356.3202209 1.4019508 2.1877804.0362549 2.5549316.0970458-.8498535.0893554-1.7097168-.0362549-2.5549316zm-19.3525391-1.7998038c-.5859375-.7578125-1.8222656-2.7382813-.6552734-4.7460938.7605782-1.284337 1.9304924-1.6312666 3.2470703-1.8066406.9499207-.1357031 1.4258804.2851582 1.7158203.0048828.0878906-.0849609.1289063-.2080078.109375-.3291016-.1259766-.7763677.2568359-1.6542974.9306641-2.1337895 1.2993622-.9248385 3.2281189-.3318157 3.9140625.9873047.2326393.4427643.5442543.7834706.9326172.4648438l.0820313-.0644531c.2683678-.2091165.4631805-.5229635.6650391-.6826172.90625-.7177734 2.1689453-.9541016 3.2207031-.6015625 1.4033203.4707031 2.4091797 2.0048833 2.2890625 3.492188-.0211563.2729053.2478943.47328.4921875.3857422 1.9894867-.6561623 4.0704498 1.4434443 2.8720703 3.5693359-.0273438.0458984-.0839844.1074219-.1435547.1777344-.8413925.9896545-.2713585 1.2735434.9736328 1.6738281 3.475605 1.1058741 2.070755 6.5873976-1.7902832 6.1877432.1707764-.4689941.3092041-.9494629.4071045-1.4440918.5883789-.0620117 1.1481934-.3637695 1.4935303-.8510742 1.0163879-1.4355888-.1689453-3.3215256-1.5594482-3.2685547-.3178711-1.3762197-.9189453-2.682128-1.7800293-3.7917471.0109863-.0458984.0290527-.0898438.0386963-.1359863.1003075-.4852009-.6330376-.640173-.734375-.1523438-.3037109 1.4628906-1.4697266 2.7324219-2.9023438 3.1591797-1.4316406.4248047-3.1015625.0019531-4.15625-1.0566406-.0878906-.0878906-.2128906-.1269531-.3369141-.1035156-.1230469.0234375-.2255859.1074219-.2744141.2226563-.4420586 1.0553865-1.9108696.9368124-2.2597656-.0751953-.0946579-.2762537-.5044899-.376544-.6816406-.0605469-.8505859 1.5224609-2.8691406 2.2763662-4.5097656 1.6738272-.4611053-.1726189-.7274456.5328007-.2578125.7050781.024292.0087891.050293.0112305.0748291.0197754-.1237793.5349121-.2054443 1.0681152-.2523193 1.5986328-.0809326-.0549316-.1815186-.078125-.2805176-.0539551-1.1841412.2397747-1.7672787 1.5986347-1.125 2.6220703.5158672.824707 1.5083084.8429356 1.4082031.8125.0767822 0 .1448975-.0285645.2047119-.0686035.1907959.829834.4887695 1.6083984.8820801 2.3212891-1.2862434.6437473-2.5447121-.5214653-2.2401123-1.7595215.0556297-.2266369-.1075668-.4476299-.3369141-.4638672-2.2428093-.1662502-3.6009541-2.9677792-1.7900391-4.8007813.2822266-.2900391.6396484-.4277344 1.0195313-.5722656.5572375-.2138405 1.4643439-.5741835 1.0937499-1.0556632z"/><path d="m40.5758171 17.3760109c-.4136963.0737305-.647583.7023926-.522583 1.4042969.125.7021484.5615234 1.2114258.9753418 1.1376953.4135742-.0737305.647583-.7023926.522583-1.4042969-.125-.7021484-.5616455-1.2114258-.9753418-1.1376953z"/><path d="m34.9177361 17.9883156c-.4093018.0952148-.6101074.7353516-.4484863 1.4299316.161499.6945801.6242676 1.1801758 1.0334473 1.0849609s.6101074-.7353516.4484863-1.4296875c-.1616212-.69458-.6242677-1.1804199-1.0334473-1.085205z"/><path d="m21.5553093 25.9311867c.5830574 1.1661129 1.5654964 1.7817669 2.5244141 2.3857422.1314697.0856094.5293331.4916744.8847656.6352539 1.7475662 4.4977989 7.0709572 5.8997993 10.7402344 3.3706055.4083786-.2800293-.0158958-.898983-.4257813-.6171875-3.2669334 2.2512589-8.0033932 1.0406418-9.5982666-2.9833984.3815918-.6618652-.0068359-2.3344727-.3157959-3.3896484-.1787109-.6132813-.4638672-1.3847656-1.0859375-1.9189453-1.6743374-1.4433939-3.8800316.2141436-2.7236328 2.517578zm3.0898437-.3886719c.2373047.8095703.4931641 2.1191406.4560547 2.6328125-.1622467-.1149788-.536396-.4372559-.6171875-.4902344-.888773-.5607948-1.7553673-1.0830002-2.2587891-2.0898438-.5604286-1.1178131-.0637207-1.9511719.6777344-1.9511719.9741707.0000001 1.4683228.9615308 1.7421875 1.8984376z"/><path d="m39.707653 22.7593117c-.4296875.8417969-1.3535156 1.4101563-2.2998047 1.4130859-.4961166.0023403-.4935837.75.0009766.75h.0009766c1.2207031-.0039063 2.4121094-.7373047 2.9658203-1.8232422.2247734-.4401798-.4439468-.785551-.6679688-.3398437z"/><path d="m53.6417351 41.5544777c-.0602684-.0604515-.3143997-.0476952-.4899902.1501465-.0799561.1098633-.1300049.2397461-.1600342.4199219.1800537.0100098.3699951-.0200195.5200195-.1201172.1327743-.0927315.250885-.3590165.1300049-.4499512z"/><path d="m54.4716911 53.0544777 4.380127-1.5500488c.4399414-.1599121.6699219-.6398926.5198975-1.079834l-5.7600098-16.1799316c-.1600342-.4401855-.6400146-.670166-1.0799561-.5102539l-4.3800049 1.5500488c-.4400635.1599121-.6700439.6501465-.5100098 1.0900879l5.75 16.1699219c.1600343.4399413.6400147.6699218 1.0799561.5100097zm-2.25-10.3200684c-2.3840714-.7946892-2.9966316-4.0041313-1.1899414-5.3498535.5999756-.4401855 1.3900146-.5500488 2.0100098-.2700195.4471741.2120934.1355209.8881111-.3100586.6899414-.3699951-.1699219-.8699951-.0998535-1.25.1901855-1.2077446.8964348-.957592 3.1885643.7800293 3.949707.3373337-1.6159058 2.2214127-1.4523621 2.1799316-.2099609-.0542984.6356354-.5588226 1.1401367-1.4499512 1.1401367.1146088 1.7172394 1.2272797 3.0531921 2.4399414 5.6899414.0900879.1801758.0200195.4101563-.1699219.5-.1372223.0823364-.4042816.0470848-.5-.1599121-1.8310927-3.60186-2.4531859-4.4924163-2.540039-6.170166z"/><path d="m47.4556999 53.8784523c.0688477.1930161.2812004.296711.4794922.2275391 2.5066566-.9314156 2.5625076-.8212166 2.6816406-1.0703125.1232643-.2577362.0398521-.0987892-1.9941406-5.9335938-.0693359-.1953125-.2841797-.2949219-.4794922-.2275391-2.5066566.9314156-2.5625076.8212204-2.6816406 1.0703125-.0429688.0898438-.0478516.1933594-.0146484.2871094zm.5859375-6.171875 1.7568359 4.9404297-1.7617188.6269531-1.7568359-4.9404297z"/><path d="m37.4820671 44.8784523 3.7939453-1.3496094c.1953125-.0693359.296875-.2841797.2275391-.4794922l-1.2675781-3.5634766c-.0655785-.1851654-.2709465-.2984886-.4794922-.2275391l-3.7939453 1.3496094c-.1953125.0693359-.296875.2841797-.2275391.4794922 1.3121071 3.5753289 1.2309036 3.9753609 1.7470703 3.7910157zm2.1728516-4.7880859 1.0166016 2.8574219-3.0878906 1.0986328-1.0166016-2.8574219z"/><path d="m41.0484734 56.0249367c.0688477.1930161.2812004.296711.4794922.2275391 3.9323387-1.4402428 3.8856735-1.2866058 4.0078125-1.5419922.1198997-.2506943.0297241-.1282539-1.2539063-3.8505859-.0693359-.1953125-.2822266-.2958984-.4794922-.2275391l-3.7939453 1.3496094c-.1953125.0693359-.296875.2841797-.2275391.4794922zm2.6523437-4.5605469 1.0166016 2.8574219-3.0878906 1.0986328-1.0166016-2.8574219z"/><path d="m36.4565544 57.6579933 2.7521973-.9790039c.2878418-.1025391.4382324-.4189453.3356934-.7067871l-.8967285-2.5209961c-.102417-.2878418-.4188232-.4382324-.706665-.3359375l-2.7520752.9790039c-.2879639.1025391-.4383545.4189453-.3359375.7067871l.8967285 2.5209961c.102539.2878418.4189452.4382324.706787.3359375z"/><path d="m38.1226921 50.8550148c-1.3531036-3.6870346-1.2066994-3.6552429-1.4599609-3.7763672-.261322-.1249809-.1877022-.0091667-4.0820313 1.3359375-.1953125.0693359-.296875.2841797-.2275391.4794922 1.3531036 3.6870384 1.2066994 3.6552429 1.4599609 3.7763672.2587471.1243973.1874962.008564 4.0820313-1.3359375.1953125-.0693359.296875-.2841797.2275391-.4794922zm-3.9208984.9970703-1.0166016-2.8564453 3.0888672-1.0986328 1.0166016 2.8564453z"/><path d="m35.1627312 45.3052101c.2879639-.1025391.4382324-.4189453.3358154-.7067871l-.8967285-2.5209961c-.1025391-.2878418-.4188232-.4382324-.7067871-.3356934l-2.7520752.9790039c-.2879639.1022949-.4382324.4187012-.3358154.706543l.8967285 2.5209961c.102417.2878418.4188232.4382324.7067871.3359375z"/><path d="m48.066906 58.3564796 13.788208-4.9047852c1.0367661-.3702736 1.5484581-1.5055542 1.1884766-2.5185547l-6.9150391-19.4394531c-.362709-1.0155849-1.47649-1.5508938-2.5009766-1.1884766l-4.6791992 1.6645508c-.2369385-.7206364-.4522285-1.3870697-.8061523-2.0424805-.2304535-.4332542-.8982239-.0829544-.6601563.3554688.3338966.6206532.5445137 1.2813168.7597656 1.9384766l-2.2684326.8068848c-.0761719-.6340332-.177002-1.2644043-.3155518-1.8859863-.108551-.4837704-.8403282-.3215275-.7324219.1640625.1452637.6518555.2528076 1.3127441.3269043 1.9785156l-8.9683837 3.1904297c.1140251-1.6371956.4154739-4.5981007 1.2869873-5.9941406.4444847-.7210236 1.0049438-.8637047 5.9277344-2.7363281 1.8185196-.7113438 1.9180222-.3395901 2.7373047.6455078.0029297.0019531.0654297.0634766.0673828.0654297.342205.3265476.8660812-.2076416.4902344-.5664063l-.1025391-.1298828c-.8696213-1.1010361-1.4246368-1.5105991-3.4628906-.7148438-4.7098618 1.7913895-5.6684456 2.0241165-6.2949219 3.0419922-.9920158 1.5878792-1.3043518 4.7923698-1.4189453 6.6625977l-8.4726563 3.0141602c-1.043066.3725243-1.5448303 1.5123863-1.1875 2.5185547l6.9150391 19.4384766c.2851563.8007813 1.0410156 1.3017578 1.8457031 1.3017578.5942345 0 .381485-.0572166 6.9593506-2.3562012l-2.1489258 6.1672401c-.8623047-.4589844-1.8033447-.7348633-2.008667-.7729492-1.7460785-.3200836-2.3654099.8898849-1.8681641 1.890625.7178688 1.440033 4.1833725 2.4956741 5.1015625 1.4150391.4952698-.5840683.4877663-1.3509521-.5712891-2.1269531 2.365406-6.8934441 2.3838234-6.6148415 2.3037109-6.8603554l4.9338379-1.755127c-.0393066 2.6672363.6585693 5.3535156 1.9890137 7.6677284-.7427979.3789063-1.4573975 1.0952148-1.8066406 1.4672852-1.0100441 1.0768356-.4365082 2.1191406.7333984 2.1191406.6395683 0 1.6772079-.3318253 2.5068359-1.0146484.5224609-.4296875.9345703-1.3330078.6894531-2.0410156-.0986328-.2841797-.3876953-.7626953-1.2197266-.7822266-.0562744-.0014648-.1152344.013916-.1727295.0200195-1.3645017-2.3095742-2.0644529-5.0253945-1.9689939-7.7031289zm-7.9891358 10.5249062c-.4413567.516304-3.285305-.1140823-3.8583984-1.265625-.2653923-.5355301.0408859-1.0073242 1.0605469-.8173828.5996094.1103516 2.6416016.8925781 2.9101563 1.6464844.0380859.1054687.0537109.2402343-.1123048.4365234zm-6.6015625-7.4306679c-7.2756424-20.5593147-7.0042286-19.4397774-6.9813232-19.9016113.0300293-.467041.3308105-.8952637.7987061-1.0612793l18.0078125-6.4057617c.0805664 1.1647949.0643311 2.3364258-.0637207 3.5036621l-.0358887-.1008301c-.0332031-.09375-.1025391-.1699219-.1923828-.2128906-.0888672-.0429688-.1914063-.046875-.2871094-.0146484l-2.46875.8789063c-.1953125.0693359-.296875.2841797-.2275391.4794922l1.6872559 4.7436523c-.4217529.9770508-.9202881 1.9191895-1.4975586 2.8144531l-.0639648-.1791992c-.0999756-.2900391-.4200439-.4401855-.710083-.3400879l-2.75.9799805c-.289917.1101074-.4399414.4199219-.3299561.7099609l.5013428 1.4196777c-.3084679 1.4152832 1.1137314 2.3161469 2.7722168.8439941l1.076416-.3835449c.2900391-.1000977.4400635-.420166.3400879-.7102051l-.2617188-.7329102c.0719757-.3152351.1134033-.6782112-.048584-1.0192871.5050049-.7587891.9376221-1.5637207 1.3325195-2.3886719l.6346436 1.7841797c.0688477.1930161.2812004.296711.4794922.2275391 2.5066566-.9314156 2.5625076-.8212166 2.6816406-1.0703125.1245461-.2604141.0422134-.0920143-2.086792-6.1960449.3154297-1.7492676.3937988-3.534668.2530518-5.2980957l7.8435059-2.7900391c.625-.2265625 1.3193359.1044922 1.5419922.7324219 7.283474 20.5814438 7.0039711 19.4395065 6.9814453 19.9018555-.0301514.4665527-.3311768.8947754-.7998047 1.0610352l-26.5849609 9.4580078c-.6298829.2216797-1.3183595-.1054688-1.5419923-.7333985zm10.654419-19.1560058-1.272583-3.5773926 1.7626953-.6269531.3902588 1.0969238c-.2028809 1.0578613-.5106201 2.09375-.8803711 3.1074219zm1.3417969-1.8100586 1.5799561 4.4416504-1.7626953.6269531-.7647705-2.1499023c.3923339-.9450684.6984862-1.923584.9475097-2.9187012zm-5.3770752 9.1262207c-1.3767395.02174.1375389-2.6386719 1.7080078-2.6386719.225441 0 .3275528.0755005.2949219.4462891-.1093026 1.0700912-1.3537942 2.1472282-2.0029297 2.1923828zm10.6240234 17.4560585c.1162109.3359375-.1054688.9277344-.4570313 1.2167969-1.3181496 1.0856857-3.3235855 1.1662979-2.2167969-.0117188.5169678-.5507813 1.1962891-1.126709 1.7158203-1.3657227.1774445.0683594.3278122.0179138.4301758-.1166992.4351807.0097657.5053712.2109375.5278321.2773438z"/><path d="m39.0621452 10.6968126c1.0898438.2128906 2.0849609.9042969 2.6640625 1.8486328.2547188.4174519.8975182.029501.6386719-.3925781-.6855469-1.1201172-1.8671875-1.9394531-3.1582031-2.1923828-.4847603-.0996714-.6337814.6398888-.1445313.7363281z"/><path d="m52.9762077 19.4477882c-.3066406 1.5087891-1.1005859 2.9130859-2.2363281 3.9541016-.3644714.3341007.1415329.8893166.5078125.5527344 1.25-1.1474609 2.125-2.6943359 2.4628906-4.3564453.0989189-.4784794-.63377-.6486149-.734375-.1503907z"/><path d="m55.8004265 21.8130226c-1.0039063.5576172-1.9013672 1.2724609-2.6669922 2.1269531-.2158508.2418766-.0419159.625.2792969.625.4465981 0 .6500359-.929493 2.7509766-2.0957031.4353561-.2410831.0693893-.8981724-.3632813-.65625z"/><path d="m56.8433952 25.7778664c-1.3945313-.1835938-2.8066406.0292969-4.0869141.6123047-.3634377.1638298-.2475319.7158203.1552734.7158203.2431068 0 1.6259766-.8713036 3.8339844-.5839844.4872666.0715256.5936738-.6780052.0976563-.7441406z"/><path d="m19.2789421 63.4028664c1.5475845-.625103 3.3230572.8256874 3.0957031 2.9619179-.0505753.4689789.646534.582756.7402344.1142578.3019524-1.4995575 2.0584679-2.5725288 3.5419922-2.1328125 1.4763546.439415 2.3737221 2.2908554 1.8066406 3.7177734-.1831112.462471.5134125.7369766.6972656.2773438 1.1153831-2.8103943-1.9433365-6.1983528-5.1005859-4.2998047-.4169922.2509766-.7734375.5693359-1.0527344.9326172-.7557983-2.8033333-4.1364231-3.2582054-5.265625-1.1123085-.5517578-.8271484-1.4677734-1.4140625-2.475585-1.4863281-1.5410156-.1054688-3.1103516 1.0605469-3.4160156 2.6123085-.0957727.4858704.6399508.6311111.7363281.1445313.2304688-1.1738319 1.4404297-2.0966835 2.6269531-2.0087929 1.0429678.0742188 1.9863272.9111366 2.2480459 1.9189491.0058594.1777344.0332031.3544922.0839844.5273438.1204853.4172287.7587471.3220367.7333984-.125-.0087891-.1679688-.03125-.3339844-.0683594-.4960938.0117189-.6367188.4375001-1.2871133 1.0683595-1.5459023z"/></g></svg>