<svg id="Layer_1" enable-background="new 0 0 75 75" viewBox="0 0 75 75" xmlns="http://www.w3.org/2000/svg"><g id="Holding_Candle" fill="rgb(0,0,0)"><path d="m45.0067596 5.1583309c-6.8981438-.4597459-13.5234985 4.258503-12.8994141 11.6757813.3269386 3.8218994 2.7649155 7.2252235.1777344 12.0576172-.2641602.4873047-.5760498 1.0766602-.689209 1.671875-1.2506104.4741211-2.486084 1.0217285-3.692749 1.6196308-.0177879-2.2817612.0935555-6.8396664.3427734-8.7326679 1.7073383-.7372589 1.4723606-3.4535465-.7694092-4.076416-1.6277752-.450985-2.7555885.5212326-3.6064453.671875-.5913754.1002827-1.2324524-.091198-1.9257813-.1445313-2.1469059-.1594963-2.8265133 1.5600758-1.9093018 2.7072754-.059082.3937988-.0688477.798584-.0584717 1.1833496l.3397217 13.1743183c-.1931152.151123-.3876953.3044434-.5795898.4604492-.0980721.0067978.3547859-.0226135-.9560547.0615234-2.1613655-.2716599-2.8766909 2.6074409-1.1956787 3.4921875.4183445.2221909.8738441.2041397 1.3319092.0913086.8265305 1.1843719 1.4033909.838131 2.3536377.7739258 9.2170773-.6724319 8.73633-.6126518 8.8710938-.734375 1.1054688-.9892578 1.7783203-2.4560547 1.7871094-3.8671875.1240807-.2665405-.0640812-.5071526-.3203125-.5429688l-.0019531-.0234375-3.5418701.2363281c-.134182-2.2363815-.1419659-3.2137222-.1535645-3.9038086 1.201416-.609375 2.4388428-1.1547871 3.6876221-1.6381855.3217182 1.4383793 1.9164963 1.3734875 3.3015137 1.4553242-1.0667725 4.1594238-1.7073975 8.4475098-1.8790283 12.7644043-.0988121 1.9150429-.0080528 4.1253204 1.5 5.3398438.8900146.7202148 2.0800781.8400879 3.1899414.920166 10.7872009.8480339 11.1357155.9794693 12.4200439.7199707 2.9109459-.5462875 2.6006966-2.2772942 3.1600342-5.2099609.0239258-3.9082031-.2293701-7.8210449-.7456055-11.6967773.5078621.0582581 1.0031624-.0250397 1.3919678-.3603516.7460938-.6445313.7841797-1.9394531.8203125-3.1904297.1383896-4.6706276 1.6336823-12.0038319.5703125-17.2470722-1.0966797-5.4658203-5.2451172-9.3671875-10.3212891-9.7089844zm-17.8258056 16.7133789h-.0499268c-.1900635 0-.3499756-.1398926-.3699951-.329834-.0300293-.2099609-.1899414-.4001465-.3900146-.4699707-.4870358-.1462898-.2373219-.8666477.210083-.7099609.8839531.2704277 1.220747 1.4173317.5998535 1.5097656zm-9.2454834 18.4458027c-.5486202-.286972-.7078533-1.2234573-.2402344-1.7431641v-.0009766c.5959072-.6643753 1.6327667-.2803345 2.296875.2753906.3661118.3073769.3873367.6942558-.0234375.9990234-.2041016.1503906-.4697266.2451172-.7265625.3378906-.4697266.1689455-.9580078.3193361-1.3066406.1318361zm11.796875.1513672c-.3494339.0281868-8.5337467.6207695-8.9697266.6796875-.5769844.0779686-.774992.0930443-1.1036377-.3210449.2504883-.0925293.5141602-.1989746.7559814-.3771973.8083267-.5992393.7899704-1.5643539.0585938-2.1767578-.055542-.0463867-.1176758-.0861816-.1762695-.1296387 1.4197788-.0914268-4.5409613.2781105 10.8735352-.685791-.0673829 1.0966797-.5976563 2.2148438-1.4384766 3.0107422zm-8.6558838-3.1245117-.0036621-.1357422c.0129395-.0610352.0134277-.1230469-.0046387-.1838379-.3696251-14.4702778-.3578758-13.452383-.3395996-13.869875.6859837.3369541 1.5324898.343998 2.1932373.0922852-.0173073.1403942-.0642204.315567-.0761719.4589844-.2312069 2.897665-.4115372 3.922081-.0078125 4.8427734.3499947.7957764 1.2688084 1.395813 2.1083984 1.1103516.6015625-.2001953 1.0380859-.8037109 1.1123047-1.5371094.1643372-1.6592693-1.4016075-2.9467926-.2148438-4.4873047l.0791016-.1064453c.0644531-.0878906.2353516-.3222656.2841797-.3544922.1753254.0438309.3470917.4421139 1.2669678.4343262-.2646637 2.2871037-.4873619 7.884819-.1574707 13.3557148-1.9510536.1379967-3.5950832.2273025-6.2399902.3803711zm19.8961182 5.4077148c-.0009766 0-.0009766.0009766-.0019531.0009766-1.329567.6284027-2.1623192.0084343-1.9648438-.9121094.3480568-1.427536 3.0610008-2.587265 4.1513672-1.7255859.6855163.5484085-1.3859253 2.2657051-2.1845703 2.6367187zm3.0714111-2.3864746c-.0053711-.2619629-.0983887-.496582-.2773438-.6936035 1.348999-.4914551 2.4349365-1.6665039 3.3244629-2.6401367 4.9755898-5.4101925 4.6603279-5.1811123 4.8502197-5.2146015-.055542.1086426-.1021729.2194843-.1601563.3273945-.1153641.2135963-.0048485.5153465.2954102.5439453-5.0986595 5.564846-6.1099662 6.9658012-8.0325927 7.6770019zm9.9637451-8.2727051c-.0302734 1.0380859-.0644531 2.2148438-.5605469 2.6435547-.3676605.3172684-.8019981.1287384-1.0085449.206543-.1065674-.7495117-.2052002-1.5007324-.3323975-2.2470703.001709 0 .0032959.0014648.0050049.0014648.1328125 0 .2626953-.0712891.3300781-.1972656.4345703-.8076191.8027344-1.6406269 1.09375-2.4755878.1627388-.4717007-.545269-.7095661-.7089844-.2460938-.2368164.6804199-.5379639 1.3574219-.8770752 2.0229492-.2613297-1.4523067-.4796524-2.7831688-.947998-3.6796875-.3699951-.6699219-.9599609-1.2299805-1.6699219-1.3398438-.8300781-.1298828-1.6201172.3500977-2.380127.7099609-2.1499023 1-4.6799316 1.0900879-6.8999023.2600098-.9499512-.3498535-1.5500488-1.0998535-2.5900879-.5500488-1.039917.5400391-1.4599609 1.7600098-1.789917 2.8601074-.2061768.6706543-.3988037 1.3459473-.5819092 2.0246601-.9047699-.0657387-2.2530861.0170288-2.65271-.5981464-.3837891-.5947266.0898438-1.4677734.5253906-2.2695313 2.7145653-5.0790443.2032433-8.8110447-.1064453-12.4482422-1.022888-12.1218118 18.8688814-16.0483056 21.7382814-1.7548827 1.0471268 5.1669865-.4612846 12.6831627-.5859375 17.0771503z"/><path d="m24.6014862 8.7471981c.0908203-.1855469.0136719-.4101563-.171875-.5019531-.1409721-.0691891-.4525948-.0619507-.5664063.171875 0 .0009766 0 .0009766-.0009766.0019531-.9988251 2.0426836-1.5232639 3.1164551-2.0166016 4.1083984-.5986328 1.2041016-1.1640625 2.4990234-.9277344 3.9316406.2231007 1.3417072 1.3490677 2.5910263 2.7087402 2.5400391.0024414 0 .0046387.0009766.0070801.0009766 1.6133232 0 3.0798397-1.6654682 2.5761719-4.2089844-.4376545-2.1930304-1.3793335-2.9992514-1.6054688-4.7744141-.0429688-.3251953-.1328125-1.0019531-.0039063-1.2675781zm-2.8789062 7.5888672c-.2711868-1.633709.6977425-3.1239119 2.1080322-6.0144043.1595383 1.0688562.4861851 1.6146622.8118896 2.3591309v.0009766c.607996 1.3806086 1.2308407 3.084794.5722656 4.4316406-.3188477.6520996-.9515381 1.1022949-1.5787354 1.1318359-.9510497.0083008-1.7586669-.9794922-1.913452-1.9091797z"/><path d="m38.6149139 66.4212723-.3532715-13.0373535c-.0058594-.2070313-.1826172-.3232422-.3847656-.3652344-.2070313.0058594-.3710938.1777344-.3652344.3847656l.3494873 12.8991699c-.1745605-.0131836-.3505859-.026123-.5076904-.0212402-1.2550735.0287933-3.6173553.9896774-3.0859375 2.421875.203125.5507813.7998047.7519531 1.2294922.8544922 1.012394.2432632 2.7594566.5067291 3.7324219.1142578.6464844-.2607422 1.0957031-.8095703 1.1445313-1.3984375.0361328-.4384766-.1025391-.8378906-.4013672-1.1552734-.3333741-.3542481-.8352051-.5700684-1.3576661-.6970215zm.333252 2.5554199c-.7932549.3199158-2.4430084.0522385-3.2763672-.1474609-.4121094-.0996094-.6416016-.2255859-.7011719-.3857422v-.0009766c-.2680664-.7247772 1.6365166-1.3935165 2.4003906-1.4111328.0292969-.0009766.0595703-.0009766.0898438-.0009766.6904297 0 1.5712891.1835938 1.9658203.6015625.1552734.1650391.21875.3496094.1992188.5800781-.0283203.350586-.3603516.6367188-.6777344.7646485z"/><path d="m46.6371307 66.2518387-.331543-12.5095215c-.0146141-.5140152-.7613525-.4618416-.75.0195313l.331665 12.5107422c-1.3581238.2074966-3.2095604 1.0853729-2.7232666 2.3867188.2060547.5507813.8017578.7509766 1.2304688.8535156 1.0290985.2476349 2.7503815.5103912 3.7324219.1142578 1.7680703-.7115098 1.6853829-3.2117844-1.4897461-3.3752442zm1.2084961 2.6799316c-.7935638.3219147-2.4496765.0509338-3.2763672-.1484375-.40625-.0966797-.6425781-.2265625-.7021484-.3857422-.0527344-.1425781-.0341797-.2685547.0605469-.4082031.383667-.5673828 1.7459717-.9899902 2.3392334-1.0039063.0015869 0 .0029297.0009766.0045166.0009766.0137482 0 .0095634-.0002441.0107422-.0002441 2.4715309-.0256653 2.7539062 1.464241 1.5634765 1.9455566z"/><path d="m45.1284637 15.6568661c-.508667 0-.9208984.4353027-.9208984.972168 0 .5371094.4122314.9726563.9208984.9726563.5085449 0 .9207764-.4355469.9207764-.9726563 0-.5368653-.4122314-.972168-.9207764-.972168z"/><path d="m40.5228729 16.6663876c0-.5371094-.4122314-.9724121-.9207764-.9724121-.508667 0-.9208984.4353027-.9208984.9724121s.4122314.9724121.9208984.9724121c.508545 0 .9207764-.4353028.9207764-.9724121z"/><path d="m44.9305878 19.9210262c-.1435547-.0380859-.3056641.0107422-.3984375.1328125-1.1185875 1.4522762-3.2434654 1.4085636-4.3037109-.0976563-.0888672-.1269531-.2451172-.1816406-.3964844-.1484375-.1503906.0371094-.2617188.1621094-.2822266.3154297-.1611328 1.2353516.2460938 2.2871094 1.1181641 2.8857422 2.0330887 1.3956661 4.7917671-.3646107 4.5341797-2.7666016-.0166016-.1523437-.1240235-.2792968-.2714844-.321289zm-4.6230469 1.1962891c1.2099991.9550495 2.7864838.9992142 4.0341797.1357422-.73246 2.0293484-3.6508675 1.9916324-4.0341797-.1357422z"/><path d="m52.0723114 15.7652645c.0541992-.5336914.0900879-1.0734863.0874023-1.6235352.362793-.5239258.6645508-1.109375.8909912-1.7744141.161171-.4694958-.5499725-.7122087-.7089844-.2421875-.6171875 1.8095703-1.796875 3.0244141-3.5957031 3.6962891.5048828-1.3632813.5966797-2.8916016.2431641-4.3085938-.0748062-.2949524-.4487801-.3811617-.6455078-.1572266-1.1269531 1.2802734-2.5917969 2.2128906-4.1835938 2.6757813.3378906-.9433594.4072266-1.9931641.1826172-2.9765625-.0722084-.3206892-.4976501-.4006472-.6796875-.1210938-.8867188 1.3632813-2.2802734 2.359375-3.8007813 2.7392578.1181641-.8417969.0380859-1.7177734-.2373047-2.5175781-.0982285-.2861443-.4724731-.3393822-.6533203-.1044922-1.1435547 1.5048828-2.7890625 2.5976563-4.5664063 3.046875l.0224609-1.6279297c.0029297-.2070313-.1630859-.3769531-.3701172-.3798828-.0009766 0-.0029297 0-.0048828 0-.2050781 0-.3720703.1640625-.375.3701172.0162315 2.0295563-.1343994 2.1916924.1044922 2.3925781.1802711.149889.3826981.0880184.9747314-.0744629-.0144043.338623-.0209961.6721191-.0150146.996582-.5928955.2272949-1.0914307.6984863-1.3181152 1.2907715-.5877228 1.5381832.6692543 3.1341915 1.8837891 2.78125.0517578-.0146484.0970459-.0402832.1358643-.0725098.0952148.2731934.1774902.5490723.2928467.8186035 3.2087288 7.5120411 12.3427238 6.621645 15.4205322-1.050293.2424927.1296673.9670219.1134567 1.5657959-.315918 1.4349022-1.0277001.8522873-3.060743-.6502685-3.4614255zm-16.9698486 3.3608399c-.5987663.168108-1.3507996-.8207531-.9775391-1.7929688.1219482-.3198242.3625488-.5908203.65979-.7636719.0651855.8850098.1953125 1.7338867.4282227 2.5480957-.0366211-.0009765-.0736084-.0019531-.1104736.008545zm13.258789 3.4746093c-2.1533203 2.2285156-5.4199219 3.0302734-7.953125 1.9433594-1.6865234-.7226563-3.1386719-2.2695313-3.9824219-4.2460938-.7542725-1.7626953-1.043457-3.5991211-.9165039-5.7636719 1.3526611-.5087891 2.5966797-1.3566895 3.5825195-2.453125.1171875.6533203.0947266 1.3359375-.0683594 1.9765625-.0621872.2429218.1283379.4981718.4199219.4638672 1.6289063-.2470703 3.1728516-1.1308594 4.2783203-2.4189453.0502853 1.8674431-.8370743 2.2609644-.5185547 2.6953125.0859375.1171875.2275391.1806641.375.1464844 1.7939453-.3515625 3.4785156-1.2490234 4.8154297-2.5537109.1777344 1.3193359-.0517578 2.6943359-.6572266 3.8662109-.1502686.2898083.1184235.6190701.4296875.5341797 1.3187256-.3505859 2.3800049-.9257813 3.2103271-1.7246094-.172119 2.9897461-1.2413328 5.6994629-3.0150145 7.5341797zm3.9248047-3.9833984c-.2659912.1896973-.5791016.2714844-.8701172.2275391.2474365-.7368164.4376221-1.5078125.5612793-2.3081055.8763962.3267403 1.166874 1.463274.3088379 2.0805664z"/><path d="m19.3036346 13.0645809c-.8730469-1.9052734-2.0068359-3.6767578-3.3710928-5.2666016-.3241062-.3800669-.8911896.114356-.5683594.4882813 1.3173819 1.5361328 2.4140615 3.2490234 3.2578115 5.0908203.2037545.4488964.8887788.1417914.6816407-.3125z"/><path d="m18.5692596 16.9151669c-1.8720703-1.5439453-3.9492178-2.8183594-6.1708975-3.7880859-.1894531-.0830078-.4111328.0048828-.4941406.1933594-.0830078.1904297.0039063.4111328.1933594.4941406 2.1591797.9414063 4.1757803 2.1796875 5.9951162 3.6787109.3798237.315628.8608342-.2618046.4765625-.578125z"/><path d="m26.4510956 11.3819637c.6611328-1.3066406 1.6611328-2.4150391 2.8916016-3.2070313.1738281-.1123047.2246094-.3447266.1123047-.5185547-.1123047-.1748047-.3457031-.2216797-.5185547-.1123047-1.3417969.8642579-2.4326172 2.0732423-3.1552735 3.498047-.2227936.4455871.4446907.7803726.6699219.3398437z"/><path d="m58.3895721 45.7794266c.3658867 0 2.5353088-1.2045212 3.9960938-3.1328125.125-.1650391.0927734-.4003906-.0722656-.5253906-.1660156-.1259766-.4003906-.09375-.5253906.0722656-.9306641 1.2285156-2.1601563 2.2207031-3.5566406 2.8710938-.3612748.1674651-.2425958.7148437.158203.7148437z"/><path d="m62.5897675 46.7227859c-1.2646484.6015625-2.671875.8476563-4.0683594.7285156-.2001953-.0244141-.3886719.1337891-.40625.3398438-.0185547.2060547.1337891.3886719.3398438.40625 1.4604721.1342926 3.0242119-.1156197 4.4570313-.796875.4453429-.2121811.1311263-.8868141-.3222657-.6777344z"/><path d="m58.0887909 49.825325c-.4333496-.2404861-.79842.4131165-.3652344.6542969 1.0195313.5683594 1.7236328 1.6435547 1.8388672 2.8066406.0471916.4917908.7954826.4219971.7460938-.0742188-.1386719-1.4033203-.9892579-2.7011718-2.2197266-3.3867187z"/></g></svg>