<svg id="Layer_1" enable-background="new 0 0 75 75" viewBox="0 0 75 75" xmlns="http://www.w3.org/2000/svg"><g id="Holding_Cap" fill="rgb(0,0,0)"><path d="m37.5461006 25.278286c.7874451 5.3013649 6.7530022 9.7919083 12.9091797 7.5078125 1.3054504-.4736595 2.2308884-1.2188187 3.3798218-2.0169678.4210815.4437256 1.0204468.6986084 1.6201782.6986084 1.5474968 0 2.5955925-1.698143 1.7846069-3.0405273.4393311-.0284424.8607178-.083374 1.250061-.1938477 3.013485-.8527241 3.5680809-3.8693256 2.6953125-4.9267578.335701-.3366623.9472656-.5864773 1.375-1.0058594.5957031-.5839844 1.0585938-1.2109375 1.3730469-1.8603516 1.6315727-3.2906227-.5939751-6.703557-3.578125-6.3027334.4140625-1.4414063.1425781-3.1191406-.7514648-4.3808594-.2859497-.4054852-.8990936.0285807-.6123047.4335938.8930664 1.2597656 1.0610352 3 .418457 4.3300781-.151535.3117895.1698799.6437855.4804688.5097656 1.1376953-.4677734 2.6298828.0810547 3.3276367 1.2294912.6567383 1.0664063.6738281 2.5761719.0419922 3.8505859-.2783203.5742188-.6904297 1.1308594-1.2250977 1.6552734-.4995804.4893246-1.2675667.6769981-1.6826172 1.4013672-.1005859.1748047-.0444336.3974609.1264648.5039063.8514977.5332031.3257027 4.193037-4.0012817 4.0241699-.1256104-.0689697-.2589722-.1203613-.3973389-.157959.4265137-1.4840775.4237823-2.983017.0988159-4.2138672-.097168-.3535156-.206543-.6923828-.4628906-.9609375-.3284492-.3641453-.8044968-.5087299-1.1108398-.7001953-.619236-.4136829-.7929955-1.0959587-.8809204-1.2446289-.0437927-.1004333-.679882-.9141293-.5145874-2.1586914.043457-.3535156.0810547-.6582031-.1269531-.8632813-.194809-.1903896-.3857536-.1629829-.9584961-.0839844-1.2933617.1471863-2.5595779-.3598423-3.4428711-1.1630859-.2246094-.2021475-1.1225586-1.3496084-1.262207-1.7402334.147541-.3288984-.2075005-.6580839-.5229492-.4833984-2.5912933 1.4299631-3.3771935 1.0815735-4.9907227.9404297-.5305595-.0483036-1.3716393-.1227112-1.8520508-.4208984-.8789063-.5390625-1.2617188-1.2880859-1.1069336-2.1660156.2216797-1.2587891 1.5073242-2.5097656 2.8642578-2.7871094 1.1416016-.2294922 2.3886719-.1103516 3.3911133-.0146484.3042221.0239887.4999847-.285285.3706055-.5419922-.4624023-.9160156.0600586-2.2705078 1.0703125-2.7841797.972168-.4785156 2.2724609-.328125 3.3144531.3837891.8686523.5869141 1.5981445 1.53125 2.2304688 2.8876953.107872.2325087.4099998.2853069.5913086.1201172 1.4448242-1.3085938 3.7998047-1.4121094 5.3212891-.2763672.0297852.0302734.0585938.0527344.0341797.0146484.2990913.4530964 1.077858-.0956106.4580078-.5771484-1.7070313-1.2822266-4.2207031-1.2675781-5.9345703-.0263672-.6450195-1.2587891-1.394043-2.1650391-2.2792969-2.7626953-1.2592773-.8603516-2.8554688-1.0332031-4.0712891-.4345703-1.1787109.5996094-1.8393555 2.0029297-1.6064453 3.1992188-1.0668945-.0898438-2.0546875-.1181641-3.0385742.0771484-1.6621094.3398438-3.1796875 1.8300781-3.4545898 3.3925781-.2683563 1.5238056.7507401 2.7546043 1.9700317 3.1695557-2.11615 2.616332-3.1521607 6.446166-2.6316529 9.9603262zm18.3286133 5.3720703c-.4813843.1636963-1.0598755.0087891-1.43927-.348877.5618896-.4912109 1.0213623-1.1416016 1.3547363-1.916748.145813.0158691.2837524.0216064.4241333.0306396.9448166.6431199.586174 1.9224091-.3395996 2.2349854zm-9.0805664-15.8203116c.3671875.7744141 1.3325195 1.8320303 1.390625 1.8808584 2.0299416 1.8463993 4.1973495 1.2913418 4.2973633 1.3095703-.1905556 1.9055367.5175972 2.5670338.5944824 2.7607422.6004562 1.6542339 1.6714821 1.6292439 2.0895996 2.0908203.3318977.3477039.8029289 2.2468491.2185059 4.3786621l-2.1798096-1.4858398c1.5668526-2.2743988.074276-5.2893467-2.5670166-5.560791-1.3525391-.1411133-2.5950928.5093994-3.3084717 1.564209-.1187744-.2342529-.2736206-.4509277-.4820557-.6159668-.3409424-.2685547-.7756348-.388916-1.206543-.375.0320435-.140625.0698853-.2788086.0849609-.4257813.3428535-3.3516102-3.7630577-5.2995195-6.1292114-2.8066406.3899536-.7442627.8557129-1.4287109 1.3865967-2.0371084.2854004.0466309.5736084.0791016.8549194.1044922 1.5965806.1420689 2.5820962.446187 4.9560548-.7822266zm.6762695 8.6357413c.1586914-1.5458984 1.5546875-2.6728516 3.0908203-2.515625 1.5458984.1591797 2.6748047 1.5458984 2.5161133 3.0917969-.1591797 1.5458984-1.5522461 2.6660156-3.0908203 2.515625-1.5458984-.1591797-2.6743164-1.5458985-2.5161133-3.0917969zm-8.0976562-3.7666016c.1565094-1.5270195 1.5236359-2.67313 3.0908203-2.515625 1.5458984.1591797 2.6743164 1.5458984 2.5161133 3.0917969-.1591797 1.5458984-1.559082 2.6679688-3.0908203 2.515625-1.5458985-.1591797-2.6748047-1.5458984-2.5161133-3.0917969zm-.7467041.3342285c.0255241 1.9289627 1.581234 3.5222168 3.5523682 3.5222168 1.3736572 0 2.5973511-.7958984 3.1890869-1.9832764.3390503-.1104736.7371826-.0491943 1.0155029.1688232.2978516.2363281.4589844.6455078.4013672 1.0185547-.0108643.0700684.0041504.135498.0291748.1965332-.03302.1433105-.0738525.2834473-.0892334.4333496-.3340225 3.2652607 3.58004 5.2296906 5.9942017 2.9511719l2.427124 1.654541c-.6091766 1.4948673-1.3308601 1.8609695-2.2850952 2.541748-.8505859.6054688-1.6538086 1.1777344-2.6635742 1.5449219-1.2329102.4570313-2.4814453.6367188-3.7133789.546875-4.0161133-.2802734-7.6157227-3.5576172-8.1953125-7.4599609-.251648-1.6982421-.1152955-3.474121.3377685-5.135498z"/><path d="m41.6169014 20.630825c.5922928-.6583519 1.6933212-.2669621 1.737793.6113281.0102539.2011719.1757813.3564453.3740234.3564453h.0195313c.2070313-.0107422.3662109-.1875.3554688-.3935547-.07901-1.549448-2.0144348-2.2293682-3.0463867-1.0722656-.3315202.3701783.2314338.8703976.5595702.4980469z"/><path d="m49.0475655 23.9716454c.1816406-.2734375.6015625-.3857422.8955078-.2392578.2949219.1464844.4594727.546875.3515625.8574219-.0678711.1962891.0361328.4091797.2319336.4775391.7001877.2362099.8520851-1.4596272-.25-2.0068359-.6308594-.3134766-1.4624023-.0908203-1.8530273.4951172-.1147461.1728516-.0678711.4052734.1044922.5205078.1718749.1132811.4057616.0673827.5195312-.1044923z"/><path d="m35.6955147 68.5185242c-.0668945.3027344.0541992.6318359.3168945.8603516.4278755.3696671 1.3837013.4951172 1.9492188.4951172 2.6020775 0 2.5594482-1.8663635 1.5913086-2.4975586l.9614258-10.8676796c.0435066-.4962273-.7052307-.5591927-.7470703-.0664063l-.9500122 10.7384071c-.9110107-.0137939-1.9020996.3653564-2.4318237.6170654h.0004883c-.1630861.0771485-.5947267.2822266-.6904298.7207032zm1.0117187-.0429688h.0004883c.6286697-.2985382 1.5081024-.6118546 2.1988525-.5546875.0807648.0728073.1606636.1005859.24646.1005859.00177 0 .0028687-.0019531.0046387-.0019531.2785149.2003632.3091316.520668.1677246.7158203-.480835.6654663-2.9814301.336174-2.8974609-.0556641.0043945-.0185546.036621-.0888671.2792968-.2041015z"/><path d="m46.6969795 67.0917664c-1.1228447.1928635-3.1206856 1.1841736-2.6567383 2.2070313.4130821.9114304 2.9000854.5462418 3.690918-.1679688.654026-.5907974.6215363-1.5282898-.1264648-1.9462891-.0102539-.0146484-.0275879-.0202637-.0396729-.0324707l-.6712646-10.5095253c-.0307922-.5021057-.7794609-.4440956-.7480469.046875l.6626587 10.37537c-.0480499.010788-.0365105-.0114288-.1113892.0269776zm-1.6835937 1.9736328c-.2294922-.0185547-.2861328-.0722656-.2890625-.0722656h-.0004883c-.0029526-.1828842.9803009-1.0510788 2.3608398-1.1966553.0244751.008667.0509033.0115967.0772705.0148926.1849327.0653687.273056.1957092.2830811.3077393.0131836.1484374-1.5787506 1.0189361-2.4316406.946289z"/><path d="m60.180439 50.1003075c-.1464081-.2555199-6.7730637-4.3042412-8.5151978-13.229248-.0960884-.4874649-.8306694-.3422966-.7363281.1445313 1.0522461 5.3874512 4.2064209 10.3144531 8.6548462 13.5321045-.0103149.0196533-.0300293.0306396-.0386353.0518799-.1347656.3300781-.0249023.765625.0634766 1.1152344.0848656.3352318.1627045.8941803.4458008 1.5478516.8407402 1.9479332 2.6547966 2.4899673 3.9379883 1.7617188 2.8498421-1.6191295-.1063805-6.1309626-3.8119507-4.9240725zm3.4418335 4.2717285c-1.0180779.5824471-2.7052879.0765038-3.2285156-2.5947266-.0389595-.1975784-.2045631-.7567863-.1606445-.8828125.0930672-.1130753 1.068325-.3438568 1.8740234-.1591797 1.9266548.4328995 3.1271019 2.7215119 1.5151367 3.6367188z"/><path d="m53.8698311 10.7968416c-.4551277-.1955528-.7509804.4950037-.2929688.6894531 1.5932617.6777344 2.8291016 2.1455078 3.2246094 3.8320313.0405273.1728516.1948242.2890625.3647461.2890625.2441216 0 .4204826-.2272139.3657227-.4609375-.4497071-1.9140625-1.8525391-3.5810547-3.6621094-4.3496094z"/><path d="m43.4904366 35.2421532-.5585938-.1777344c-.4768028-.1463432-.6976357.5659027-.2275391.7148438l.5585938.1777344c.4862633.14962.6900368-.5683099.2275391-.7148438z"/><path d="m42.5426826 38.1034813-.8129883-.1777344c-.4870033-.1029053-.6428337.6274948-.1601563.7324219.648407.1395454.793129.1865234.8935547.1865234.4454576 0 .5164834-.6462326.0795899-.7412109z"/><path d="m46.1037178 29.0380516c.4475441-.0211105.515976-.6950302-.0351563-.75-1.6801758.0888672-3.3774414-.7714844-4.3164063-2.171875-.2758179-.4131336-.8993073.0059242-.6230469.4179688 1.0755845 1.6032314 3.0205881 2.5953235 4.9746095 2.5039062z"/><path d="m11.4142017 35.4591942c.515276-.2194023 1.1709757-.7608948 2.4667358-.947998-.0665283.0096436-.2455444-.1063232-.3156128-.1297607-.0513916-.0172119-.1047363-.0279541-.1570435-.0421143 1.6911736.1749496 3.1367569.648098 4.8779907.6951904 4.0815449.1103477 7.8534927-2.3396454 9.3886108-6.3084717-2.5931473.7342949-4.9714622-.2321663-7.4471436-.2543945-2.915432.0108318-4.4370518 1.1582031-4.7280273 1.1582031-.3905983 0-.5197201-.5247116-.1762695-.7060547 5.2125397-2.7665253 8.6630974.2728157 12.3803711-.9726563.1962891-.0683594.4086914.0390625.4746094.2363281.0142822.0424805.0170898.0856934.0160522.1281738.4127197-.0444336.8254395-.0888672 1.2381592-.1333008-.1352539.0904541-.2041626.2574463-.1526489.420166 1.161438 3.6591797 3.9639912 6.5308838 7.710146 7.9720459-2.1329956 3.5471191-3.5726929 7.4439697-4.1969604 11.4908447-.3546753 2.4008713-.0602989 3.597908 2.0800781 5.1962891 4.5525475 3.303215 10.8870125 3.7390251 15.753418 1.2763672 1.9883995-1.0167427 2.071743-2.1493988 1.2265625-4.2265625-.0374794-.1065178-.9170647-2.0971527-1.5922852-5.1220703-.1082497-.4818764-.8404007-.3218346-.7324219.1640625 1.4220619 6.3620644 3.4763565 7.1310616.7583008 8.515625-4.7053871 2.3819084-10.7355766 1.8600464-14.9692383-1.2119141-1.8694611-1.3952446-2.1048431-2.2975769-1.7827148-4.4794922.623291-4.0405273 2.0749512-7.932373 4.2387085-11.4594727.1200409-.0775833.1540565-.1657181.1641846-.2770996 1.0528145-1.6779289 1.7846222-2.5435562 2.5800171-3.5817871 1.0400391.8125 2.2841797 1.4619141 3.6005859 1.8789063 2.0188141.6221695 4.1362152.6208839 4.6875.4736328-.0417099.1835213-.1831474 2.4566994-.0512695 4.6914063.0825195 1.4150391.2597656 2.8369141.5268555 4.2255859.0385742.2021484.234375.3388672.4389648.296875.2036133-.0390625.3364258-.2353516.2973633-.4394531-.2607422-1.3554688-.4335938-2.7441406-.5141602-4.1269531-.1240807-2.0932693-.0048637-4.2237587.043457-4.53125.034668-.1650391.1000977-.4716797-.1733398-.7431641-.2739258-.2529297-.5615234-.1640625-.7460938-.1054688v.0009766c-.597271.1378326-2.4996033.09655-4.2851563-.4580078-1.2294922-.3896484-2.3925781-.9960938-3.3720703-1.7617188-.3154297-.2304688-.7382813-.1884766-.9897461.1025391-.0782585.10075-1.1979218 1.3496132-2.5993042 3.5620117-3.5946045-1.3427734-6.2819843-4.0700684-7.3865376-7.5493164-.0351563-.1115723-.1195068-.1900635-.2199097-.2304688.6651611-.0715332 1.3302612-.1430664 1.9954224-.2147217 1.7889614-.192625 2.0652561-.8527946 1.753603-2.1329346-.2892456-1.1875-.5806274-2.3815918-1.0665283-3.5024414-.4859638-1.1206055-1.1804829-2.1750488-2.1559467-2.9206543-1.3970165-1.0676117-3.4773121-1.507185-5.2224731-1.689209 1.5510254 1.9311523 2.161438 4.5769043 1.5764771 7.0019531-.116148.4809875-.8457184.3079052-.7294922-.1757813.5556641-2.3007813-.0634766-4.828125-1.6147461-6.5966797-.0697021-.0792236-.0987549-.1795654-.0909424-.2770996-.4469604-.0217285-.8938599-.017334-1.3397217.0018311.6261215-1.0971107-.3784962-2.3804169-1.6074219-2.0567617-.9771156.2647266-1.5064125 1.525054-.6341553 2.3710928-.2589321.066515-.1293201.0299854-.5109253.1514893-1.2926025 1.3948975-1.8982544 3.3852539-1.574646 5.2352295.0862999.4874744-.6523094.6188469-.7387695.1289063-.2872314-1.6418457.0795288-3.3814697.9595337-4.8122559-2.748312 1.3829994-4.0353966 3.6208401-4.2714844 6.6760254-.1074219 1.3900146.0123901 2.7827148.1321411 4.1682129-1.6053467 1.7296143-3.0870972 3.4199219-4.6924438 5.1494141.0175781-.0057373.0354004-.0076904.0530396-.0131836-.4355058.4175493.2996588 1.2981454 1.4187622.8212892zm10.5811158-19.0842285c.515852.3018818.3902187 1.0681362-.1938477 1.2246094-.3583298.0987835-.7366199-.103159-.831543-.4638672-.1517143-.58144.5027809-1.0621529 1.0253907-.7607422z"/><path d="m28.4381886 37.997036c-.8217773-.2714844-1.4536133-1.0292969-1.5717773-1.8867188-.069191-.5010376-.8101921-.381855-.7431641.1035156.1567383 1.1337891.9926758 2.1367188 2.0800781 2.4960938 1.8662395.6109238 3.3822975-1.3329315 1.0771484-2.9277344-.4048729-.2815475-.8366299.3329773-.4267578.6171875.2602539.1796875.5229492.3808594.684082.6279297.1489258.2294922.1914063.4882813.1113281.6777344-.1542968.3613281-.7514648.4433594-1.2109374.2919922z"/><path d="m24.0270557 37.6972313c1.5078125 1.6181641 2.394043 3.8154297 2.4321289 6.0283203.003418.2041016.1708984.3681641.375.3681641h.0063477c.2070313-.0039063.3720703-.1748047.3686523-.3818359-.0410156-2.3945313-1.0009766-4.7734375-2.6333008-6.5263672-.3390216-.3624039-.8867606.1492309-.5488281.5117187z"/><path d="m22.8419971 42.497036c.5458984-.9736328.4897461-2.2460938-.1391602-3.1669922-.2759094-.4074593-.9002533.008831-.6191406.4228516.472168.6914063.5136719 1.6464844.1040039 2.3769531-.2413291.4313621.4124318.7960281.6542969.3671875z"/></g></svg>