<svg id="Layer_1" enable-background="new 0 0 75 75" viewBox="0 0 75 75" xmlns="http://www.w3.org/2000/svg"><g id="Holding_Fish" fill="rgb(0,0,0)"><path d="m60.7115707 49.6866798c-1.1398506-4.8021698-2.8937073-9.7373543-5.25-14.3699951-.1999512-.3800049-.4599609-.7900391-.8598633-.9299316-.531086-.2099915-.9601822.1002235-1.4801025.3598633-3.735321 1.7698669-7.2455254.0107536-7.7999268 2.2900391-.0500488.1800537-.0500488.3701172-.0800781.5500488-.0376358.2161827-.3565559 1.3237457-.5200195 3.6099854-.0272217.3944092-.0356445.7897949-.0488281 1.1849365-1.9277344.2973633-3.8997803.2590332-5.7944336-.1394043-.0007324-.0031738-.0009766-.0061035-.001709-.0091553.1537476-1.381382.0050087-2.563797-.3657227-3.8328857.045166.0195313.0946045.0307617.1468506.0310059 3.3878212.0139542 5.0534515.609375 5.3730469.609375.4454002 0 .5164032-.6428909.0830078-.7407227-2.7472343-.6203423-4.5801697-.5673447-5.4541016-.6186523-.1401367 0-.2581787.0803223-.3223877.1948242-1.1743088-3.3740196-3.9145622-6.249258-7.8631592-7.7499981-.4617519-.17523-.7309513.5246277-.265625.7011719 4.8502808 1.8447666 7.7654076 5.8971081 7.9554443 9.9774151-.2857666-.4445801-.6171875-.8226318-.9974365-1.1165771h-.0009766c-1.6012535-1.235817-3.8867264-.8842392-4.5097656.9863281-.8195763 2.4672241 2.6112022 4.0352974 5.2602539 2.680542-.5264893 2.1790771-1.819458 4.0567627-3.5708008 5.1226807-.3994141.2456055-.8408203.4658203-1.2675781.6787109-.9443359.4716797-1.9189453.9580078-2.6181641 1.7861328-.6481457-.2205582-1.1246777-.84198-1.1425781-1.3828125-.0400391-.8554688.7822266-1.5585938 1.1386719-1.8222656 1.0753517-.8004494 2.5806122-1.3221893 2.9893799-2.9143066.1994629.4755859.3203125.9846191.3289795 1.4987793.0071487.499321.7570496.4865646.75-.0126953-.015625-.9702148-.3378906-1.9389648-.9052734-2.7270508-.0714111-.0979004-.1802979-.1455078-.291626-.1496582-.1008072-.1021385-.1341019-.682724-1.7171631-1.3137207 0-.0004883-.1308594-.0507813-.1308594-.0512695-3.6178589-1.4189034-6.9461689-2.7341156-10.9205322-4.1987305l1.4869385-.1669922c.4831371-.0538063.4237766-.7917938-.0839844-.7451172-2.7564621.3356895-2.6719017.2436523-2.8468018.3824463-1.5332031-.5539551-3.0708008-1.0892334-4.6135254-1.6021729 1.3552246-.9134521 2.9902344-1.3525391 4.6234131-1.2177734.3805695.032917.5468426-.4473839.2607422-.6694336-1.4580479-1.1392136-2.9050827-2.2427673-4.7186279-2.5858135 1.7304935-.360117 2.5657349-.8221226 5.5568848-1.2733154 2.1208496.567627 4.092041 1.7641602 5.5621338 3.3923321.3231392.3571548.8932438-.1295815.5566406-.5029297-1.2025146-1.3315411-2.7191162-2.3952618-4.3815918-3.0911846 2.344471-.1851521 4.5392113-.0799904 6.807373.5682373.4755478.1401367.684185-.5843735.2070313-.7207031-2.9043732-.8294888-5.8016281-.8304958-8.699585-.4111328-.1171417-.0301552-.2173824-.0367641-.3404541.0495605-2.8125076.443327-4.2175131 1.0097809-5.1914063 1.208252-1.1816406.2373047-2.1015625.4633789-2.3164063 1.0322266-.3203125.9335918.9599609 1.9228497 1.7021484 2.3837872-1.4942608 1.5782318-1.5705986 1.5375366-1.5019531 1.8164063.0302734.1269531.125.2285156.2490234.2685547 8.3424683 2.6868324 17.1099281 6.350296 18.4560547 6.8310547.515625.2060547 1.0849609.4648438 1.3154297.9326172.3251953.6357422-.0517578 1.4418945-.5371094 1.9194336-.6856689.6651764-1.6496658 1.0468292-2.4406738 1.7457275-.1290283-.1903076-.355835-.3017578-.557373-.3760986-1.8841133-.698349-3.9693356-.8633614-5.8574219-.5751953-.3466797.0532227-1.4013672.2148438-1.7998047 1.0327148-.2558594.527832-.1630859 1.2006836.2402344 1.7548828 1.2288399 1.6923523 2.9687729.790451 2.6376953 4.5537109-.0993519 1.2013397-.1693459 2.8639755.9316406 3.375 1.3090038.6044159 5.0597172-1.6035995 5.6972656-5.4038086.0119629-.072998-.0047607-.1442871-.0340576-.2106934.9739227-1.286644 2.7236824-1.6500359 4.3029785-2.7907715-.0356445 1.2139893.0443115 2.4301758.25354 3.6264648.056057.3298836.4874306.4229431.6757813.1508789 1.5332108-2.1865768 2.541996-4.783474 1.9912109-7.4169922-.0047607-.0227051-.0174561-.0402832-.0257568-.0610352.2836914-.6646729.4970703-1.3676758.630249-2.0991211 2.1334305.4444351 3.8771896.447731 5.8895264.1525879-.0353622 2.5153046.1415825 4.9229088.4057617 10.5314941.0833435 1.6096115.590229 2 2.2099609 2 10.2856674.0813904 10.339962.133625 11.4199219-.210083.880127-.289917 1.710083-.9200439 2.1000977-1.8599854.5000002-1.1999513.2399904-2.6199953-.0700682-3.9000246zm-45.7061767-15.6236572c.1792803-.1907463.1125784-.4993477-.1269531-.6015625-.6376953-.2714844-1.8847656-1.2851563-1.75-1.6826153.0495605-.0766602.2149658-.1535645.4223633-.2258301.0018311.1956787.1523438.3599854.3500977.3708496 1.5430937.0832157 2.911602.9234409 4.140625 1.838377-1.4375.0917969-2.8369141.5712891-4.03125 1.3935547-.1202393.083252-.1734619.2244873-.1546631.3605957-.0609131-.0200195-.1213379-.0424805-.182251-.0622559.4501952-.4599608.8916015-.9208983 1.3320312-1.3911132zm11.5126953 22.3110352c-.7396393.3197784-1.1899242.2456093-1.3955078-.5864258-.4629955-1.8504829 1.0235653-4.2483826-1.5469971-5.961792.8601074-.0981445 1.7163086-.2408447 2.5518799-.4678955.476902-.1297455.2839432-.8543434-.1972656-.7236328-1.8269405.4967842-2.9754353.4953766-3.2493896.5488281-.1384277-.1159668-.2758789-.2342529-.37854-.375-.1943359-.2666016-.3222656-.675293-.171875-.9863281.5565834-1.1399231 5.1424541-.8232498 6.8291016-.0380859-.0753059.1004105-.2248058.2734947-.3349609.472168-.85075 1.5218964-.021841 3.2820816 1.5283203 3.7451172-.442383 1.9072265-1.8369142 3.599121-3.6347658 4.3730468zm7.7939453-13.6044922c-.7845993-.3974609-1.2240677-1.020298-.9443359-1.8583984.5842934-1.7528763 3.5305176-1.8475609 4.7705078 1.4545898-.0791016.0629883-.2304688.1533203-.4521484.2695313-.1002389.0271034-1.6356202 1.0153541-3.3740235.1342773zm1.7705078 8.5317383c-.1221924-1.0510254-.1434326-2.112915-.0718994-3.1694336.5847168-.5469971 1.0977783-1.1820068 1.5234375-1.8896484.0938835 1.8047447-.5057335 3.5019874-1.4515381 5.059082zm19.348999-2.9746094c-.1999512 0-.3598633-.1499023-.3798828-.3499756l-.2099609-2.7999268c-.0249634-.5239029.7272263-.5149765.75-.0600586l.2099609 2.8100586c.0215988.2157212-.167984.3999024-.3701172.3999024z"/><path d="m51.1351547 24.2038937c0-.7617188-.4660645-1.3793945-1.0410156-1.3793945s-1.0411377.6176758-1.0411377 1.3793945c0 .7619629.4661865 1.3793945 1.0411377 1.3793945s1.0410156-.6174316 1.0410156-1.3793945z"/><path d="m42.3673325 23.5229855c.5749512 0 1.0410156-.6176758 1.0410156-1.3795166s-.4660645-1.3793945-1.0410156-1.3793945-1.0411377.6175537-1.0411377 1.3793945.4661865 1.3795166 1.0411377 1.3795166z"/><path d="m43.1225815 6.1015983c.1962891-.0668945.3007813-.2802734.2333984-.4760742-.0664063-.1953125-.2802734-.3007813-.4755859-.2338867-1.0049095.3434906-1.7273521 1.1568112-1.4960938 2.1884766-2.1085701-.3483591-4.9058952.2944789-6.1005859 1.9741216-.9271317 1.3021393-.7957306 3.0999918.5224609 3.8530273-1.0411224.8117828-1.555191 2.3326197-1.1494141 3.6206055.3774414 1.2045898 1.43396 2.0791016 2.6282959 2.3527832-.1403923.8624535-.2016335 1.5803661-.2679443 2.3259277 0 .4487839.7069244.4986458.75-.0068359.0540771-.6052246.1293945-1.4182129.2626953-2.229126 1.9102859.0142746 3.4040413-1.5910053 3.7763672-3.4022217 1.7939453.8710938 4.1435547.3789063 5.4472656-1.1787109.5239792.2572899 1.169014.20784 1.6240234-.1633301.0020752.0004883.0040283.0010986.0062256.0015869.4096375 1.8370342 1.984993 2.7211609 3.4840088 2.4693604-.6455612 2.3695316.8684082 4.7114315 3.203125 5.0053711-.655941 1.2982845-.1362648 3.1867981 1.4588623 3.5559082-.0547104 2.8819523-1.2166405 5.4127331-3.8114014 6.6701641-6.9915047 3.3688126-14.8412781-1.415823-15.4521484-8.713377-.0399513-.4946766-.7878456-.4326439-.7480469.0625.6601791 7.8372879 9.0749435 12.9152431 16.5263672 9.32617 1.7397461-.8430176 2.9542236-2.1933575 3.6309814-4.0229473 2.2326508.5045109 3.4848938-2.3553391 1.6923828-3.664917.8090019-.5235195.9876976-1.1515446 1.1424561-2.09729.1691322-1.0122356.2676277-1.2166729 1.1191406-1.9008789.2578125-.2075195.5244141-.4223633.7470703-.6865234 1.37994-1.577343.7938766-4.2291851-1.3173828-4.9345703 1.2417488-3.1282501-1.1896439-6.4484587-4.3876953-6.1186523-.2041015-1.6538089-1.3720702-3.1430672-2.9033202-3.6362312-1.5097656-.4873047-3.2275391.034668-4.2666016 1.2421875-1.8294029-2.2337084-4.4867249-2.17485-4.3867188-2.1494141-.4920464 0-.4985695.7407222-.0068359.75 1.6064453.0302734 3.1699219.8862305 4.0810547 2.2338872.1480255.2199526.4763298.221261.625-.0048828.7978516-1.2236333 2.3613281-1.7958989 3.7236328-1.3579106 1.3466797.4335938 2.3847656 1.8808599 2.4150391 3.367188.003994.2305927.2199936.4098406.4580078.3579102 1.2802734-.2924805 2.7324219.2856445 3.5283203 1.4091797.8017578 1.1313477.9072266 2.7714844.2568359 3.9887695-.1231232.231636.0233803.5143013.28125.5483398 1.7199631.2313652 2.5212708 2.4536591 1.3310547 3.815918-.1806641.2133789-.4082031.3964844-.6494141.590332-.9861221.7955914-1.1871452 1.1476231-1.3876953 2.3632813-.0566406.34375-.1103516.6689453-.2382813.9526367-.1861572.4259033-.5914307.7519531-1.0853271.8730469-.2452087-.0401115-.4889717-.0754623-.6467285.0263672-1.396019-.2209034-1.5963745-2.161335-.7415771-2.9311523.2717476-.2443542.0643005-.6928272-.2900391-.6518555-1.0751953.112793-2.1933594-.4506836-2.7958984-1.3989258-.6044922-.9575195-.6621094-2.2792969-.1425781-3.2890625.1627579-.3200893-.1728134-.6659164-.5-.5078125-.7753906.3837891-1.7851563.2412109-2.4541016-.3413086-.5537109-.4902344-.8232422-1.1972656-.8730469-2.2929688-.0087891-.1806641-.1445313-.3295898-.3232422-.3544922-.5245476-.0755243-.3483963.652667-.8837891.9360352-.2763672.144043-.640625.0952148-.8867188-.1147461-.1732101-.1489172-.4284744-.1066599-.5517578.0703125-1.1279297 1.6191406-3.5263672 2.0771484-5.1347656.9833984-.2391243-.1636114-.5639687-.0048132-.5849609.2817383-.1132813 1.527832-1.1484375 2.8808594-2.4638672 3.2177734-2.1432838.5573463-4.3779564-1.8095589-2.96875-4.0297852.3154297-.4970703.7578125-.8422852 1.2373047-.972168.0898438-.0107422.1787109-.0288086.265625-.0546875.4390564-.1296701.3078156-.7900066-.15625-.7314453-.0791016.0107422-.1572266.0253906-.2353516.0439453-.484375.043457-1.0664063-.3500977-1.2744141-.9101563-.2285156-.6152344-.0927734-1.3862305.3525391-2.0126953.8866615-1.2470837 3.5874634-2.2966452 6.2685547-1.453125.4583511.1467619.6970673-.5316544.25-.7065434-.3213539-.1269541-.4114113-.694231-.21875-1.0351563.1728517-.3081054.4843751-.5410155.9277345-.6923827zm14.2789306 22.2606206c.2320442-.8374557.3566322-1.6015873.376709-2.5682373.0533447-.005249.1062012-.010498.1599121-.0195313 1.667202.4174919 1.1803208 2.8771915-.5366211 2.5877686z"/><path d="m41.1958237 24.9722042c-.0869141 1.7128906.7001953 3.4326172 2.0537109 4.487793 2.9188766 2.2747841 7.2366867.9266586 8.3701172-2.5698242.1095734-.3331089-.26017-.6140327-.5478516-.4379883-2.4372673 1.4482574-5.5623779 1.3065777-7.8789063-.4882813l-1.3691406-1.2495117c-.2379875-.2174339-.6111793-.0531082-.6279296.2578125zm.828125.9399414c.0660629.1243534.9833527.9191017 1.1210938.9423828 2.1772118 1.4687881 4.9219856 1.7389412 7.3388672.7299805-2.2401772 3.7292328-7.8768196 2.5747623-8.4970703-1.7060547z"/><path d="m43.1538315 67.8462296c-1.4290276.6013489-1.2459297 1.80513.3212891 1.9726563 1.309597.1403122 4.4341545.0505981 5.2265625-.8793945.4121094-.4819336.3037109-.8979492.2021484-1.1030273-.0633545-.128418-.1606445-.2409668-.2756348-.3422852-.5627441-3.3841553-1.1346436-6.7862587-1.7067871-10.1699257-.0823441-.4917068-.8220139-.3633347-.7402344.125.5415039 3.2015381 1.0817871 6.4195557 1.6153564 9.6234169-1.2076606-.3237687-3.4885863.2891005-4.6427001.7735595zm5.078125.3222656c.0136719.0288086.0517578.1054688-.1005859.2841797-.5918083.6921692-4.9116631.8867493-5.1933594.4360352.094799-.3609695 2.3222504-1.0656052 4.046875-1.1591797.5605468-.0341798 1.1367187.2158202 1.2470703.4389648z"/><path d="m53.5688705 68.5005264c.1347656.3896484.5537109.6245117 1.2470703.6982422 1.3057861.1399002 4.4276466.053093 5.2265625-.8793945.3878708-.4535904.4128914-.9784927-.0327148-1.4058838-.7502708-4.4924316-1.2508736-7.4946899-1.6879883-10.0501747-.0869293-.4886742-.8232727-.361969-.7392578.1269531.5006218 2.9320488 1.0717316 6.3637085 1.5909424 9.4719276-.2896729-.0817871-.5999756-.1174316-.8897705-.1018066-1.4600182.0794678-5.1883545.7585983-4.7148438 2.1401367zm5.8499756-1.109497c.0013428.0012207.0021973.0025635.0036621.0037842.195797.1420822.2219582.2357712.0496826.4367676-.6022491.7055359-4.895668.8705673-5.1943359.4375.0950699-.3619995 2.3173294-1.0652084 4.046875-1.159668.4244385-.0246583.8607178.114746 1.0941162.2816162z"/><path d="m27.2198715 36.4480324c.0233154.0769043.6960449.2033691.8048096.2468262.2442627.0976563.4786377.2197266.7053223.3530273.5465088.3212891 1.0528564.7089844 1.6081543 1.0151367 1.7723923.9771538 3.0339813.814785 4.6286621-.081543.1177979-.0662842 1.2481689-.8293457 1.2738037-.8063965-2.3800049-2.1293945-5.6105957-3.4777832-8.7827148-3.8491211.2521973.5350342.4152832 1.1257324.3674316 1.71521-.0219727.2727051-.0926514.5432129-.2119141.7896729-.0594482.1228027-.4260254.5100097-.3935547.6171875z"/><path d="m19.6434555 31.5437374c-.1103516.4304199.1489258.8686504.5792236.979002s.8685303-.1489258.9788818-.5792217c.1103516-.4302979-.1489258-.8685303-.5791016-.9788818-.4302977-.1103516-.8686522.1489257-.9790038.5791015z"/><path d="m27.795433 52.943882-1.9033203 1.578125c-.3839474.3191719.1004372.8939896.4785156.5771484l1.9033203-1.578125c.3833237-.3174743-.0991916-.8944206-.4785156-.5771484z"/><path d="m57.2807846 16.8223019c-.0117569.498455.7380371.5175629.75.0175781.046875-1.9643555-.9746094-3.9443359-2.6015625-5.0439453-.171875-.1162109-.4052734-.0717773-.5205078.1005859-.1162109.1713867-.0712891.4047852.1005859.5205078 1.4208985.9604492 2.3125 2.6894532 2.2714844 4.4052735z"/><path d="m21.3452377 25.1660519c.2792873 0 1.9849701-1.2645226 4.5556641-.5532227.4740887.1332626.6805-.5900116.1992188-.7226563-1.6386719-.4555664-3.4384766-.2460938-4.9345703.5717773-.3394623.1861573-.2077275.7041017.1796874.7041017z"/><path d="m25.2368393 21.6709347c.3712749 0 .5192223-.4907303.2001953-.6918945l-2.4580078-1.5546875c-.4107685-.2652397-.8245659.3648281-.4003906.6337891 2.603136 1.6216811 2.4627113 1.6127929 2.6582031 1.6127929z"/><path d="m28.0317612 16.3647823c-.2158203-.0239258-.3925781.1220703-.4169922.3271484-.1728516 1.4287109.1835938 2.9355469.9775391 4.1337891.2696877.406353.9006691.0017986.625-.4140625-.6972656-1.0522461-1.0097656-2.3754883-.8583984-3.6298828.0253905-.2055664-.1210938-.3920898-.3271485-.4169922z"/></g></svg>