<svg id="Layer_1" enable-background="new 0 0 75 75" viewBox="0 0 75 75" xmlns="http://www.w3.org/2000/svg"><g id="Holding_Flag" fill="rgb(0,0,0)"><path d="m45.2445793 30.9506397c.0020752-.4151611-.3731079-.7536011-.8380127-.7559814-.4649048-.0023193-.8435059.3322754-.8455811.7474365-.0021362.4151611.3730469.7536011.8379517.7559814.4649658.0023804.8435059-.3322753.8456421-.7474365z"/><path d="m42.4625969 32.8654327c-.0021362.4151001.3730469.7536011.8380127.7559204.4649048.0023804.8435059-.3322754.8455811-.7474365s-.3731079-.7536011-.8380127-.7559814c-.4649048-.0023194-.8435059.3323364-.8455811.7474975z"/><path d="m48.3067741 28.1273365c2.3060608.4484005 4.6860237-.2799892 6.4700317-1.6932373.0048218.008606.0053711.0183716.0109253.0267334.467083.6999741 1.4169121 1.0147076 2.2084961.7324219 1.4525032-.5181751 1.7520523-2.5533619.2994385-3.4125366.6384811.2759628.5570488.6942177.9246826.7157593.0073242.0004883.0146484.0004883.0214844.0004883.1176758 0 .2290039-.0551758.2998047-.1499023 1.5035439-2.0032883 1.6343117-4.7274323 1.0649414-6.1865234-.1342773-.3442383-.1342773-.3442383.2167969-.6420898 3.0767021-2.6125031.4963036-7.1483812-2.8344727-6.3110352-.1879883.046875-.5009766.1264648-.59375.1005859-.0991211-.0351563-.1879883-.3310547-.2412109-.5073242-.6770058-2.2684164-3.1492882-3.6173582-5.0117188-2.4487305-.4701118.2947397-.5859756.6522837-.859375.9472656l-.1010742-.0620117c-3.2726555-1.878747-6.6596642-.4846878-7.1030273 3.3066406-.1679649 1.438405.2051773 3.6022644.2484741 3.7200317-.8153687 1.5282593-1.2321167 2.9580688-1.2543335 4.3410034-.0419922 3.5449218 2.6967774 6.8491211 6.2338867 7.5224609zm.1416016-.7363281c-3.1396484-.5976563-5.6630859-3.6376953-5.6254883-6.7758789.0395012-2.4723701 1.4216957-4.373436 1.9723511-5.3902588.5785561-.3534756 1.928669-.7526951 3.0930786-.692749 1.3694687.069272 2.0658646.6103334 2.7597656 1.1772461 1.0700836.8756847 2.0965118 1.6764145 3.4868164 1.5283203-.378521 1.6543694 1.0223732 2.8797131 2.3022461 3.96875.2327805.1990776.3506126.6860828.3424683.994812-.9586792 3.536375-4.8059616 5.8733711-8.3312378 5.1897583zm8.2958984-.9042969c-.46875.1674805-1.0556641-.0263672-1.3325195-.4418945-.0252075-.0378418-.0578613-.0670166-.0925293-.0923462.5109253-.4824219.9594727-1.0263062 1.3296509-1.6296997.4401855.1231079.8049316.5230713.8488159.9788818.0478516.4970703-.2832031 1.0175781-.753418 1.1850586zm-12.9204101-13.855957c.3486824-2.9829063 2.7384834-4.1765766 5.3286133-3.0708008.4533958.1927662.6611137.3373175.7617188.3930664.849762.5437365 1.0920143-.6309423 1.6264648-.965332 1.134613-.7129669 2.9365692-.2300043 3.8085938 1.7695313.1334076.3052139.2061424 1.0497074.7973633 1.2583008.4844589.1703234 1.263504-.2066193 1.5449219-.1791992 2.5007629.0862331 3.854351 3.2348166 1.6464844 5.1103516-1.2210083 1.036829-.1288452.9452-.1777344 3.3544922-.0234375 1.1396484-.3549805 2.2558594-.9418945 3.1928711-.2211914-.2114258-.4887695-.3735352-.7788086-.4716797.1875305-.836813.0964546-1.8635883-.5151367-2.3862305-.6524315-.5551796-1.3539429-1.1293602-1.7832031-1.8388672 0-.0004883 0-.0004883 0-.0004883-.3212891-.5307617-.4736328-1.3408203-.0478516-1.8637695.2403412-.2952137-.0662231-.723278-.4228516-.5878906-1.5808907.5984879-2.6901093-.5500803-4.0043945-1.5854492-1.1345787-.891078-2.858757-1.3046055-4.9907227-.690918-.6565208.1895208-1.3045654.4224205-1.7841797.9140625-.0981446-.7836916-.1582032-1.5771486-.0673829-2.3520509z"/><path d="m47.1356316 54.0595245c-.031311-2.210022-.4121704-4.4217529-.9545898-6.5742798-.0447388-.0002441-12.6356812-3.8392334-12.6356812-3.8392334-1.5054321 2.7993164-1.9123535 5.9731445-1.4613037 9.074707.1693382 1.164669.0150337.9620705 2.6523438.9522705 4.0680351-.0149422 3.7002945.0390167 3.8810425-.1624756.4732971-.5277672.3970528-2.0801926.9042358-2.9349976.0402832-.0678101.3375854-.3695068.3309937-.416687.2287598 1.6387329.4574585 3.2774048.6862183 4.9161377 6.0169411-.0277252 6.0286522.0344238 6.3109131-.1635132.265869-.1864623.290222-.5426634.2858275-.8519286z"/><path d="m51.8269768 20.522234c-.3927002.5211182-.4225464 1.1609497-.0667114 1.4290771.355896.2681274.9627075.0630493 1.3554077-.4580688.3926392-.5211182.4224854-1.1609497.0666504-1.4290771-.355896-.2681275-.9627076-.0630494-1.3553467.4580688z"/><path d="m48.2530022 18.5283985c.3926392-.5211182.4224854-1.1609497.0666504-1.4290771-.355835-.2681885-.9626465-.0631104-1.3553467.4580078-.3927002.5211792-.4225464 1.1610107-.0666504 1.4291382.3558349.2681274.9626465.0630493 1.3553467-.4580689z"/><path d="m51.5885124 23.381731c-1.1147461.5556641-2.5126953.4799805-3.5600586-.1933594-1.0478516-.6733398-1.6977539-1.9125977-1.6547852-3.1582031.0053711-.1669922-.1000977-.3178711-.2592773-.3696289-.1591797-.0512695-.3334961.0083008-.4267578.1474609-.7749023 1.1508789-.8955078 2.6118164-.315918 3.8125.5932617 1.2294922 1.8984375 2.0854492 3.2480469 2.1303711 1.6074066.0361214 2.9363518-.8117085 3.4707031-1.8637695.162716-.3210907-.178524-.6659927-.5019531-.5053711zm-5.5410156-.0874023c-.2817383-.5825195-.3554688-1.2431641-.230957-1.8803711.6539955 2.1096611 2.6471786 3.3291187 4.7651367 3.0463867-1.620163 1.0791321-3.7412911.4784336-4.5341797-1.1660156z"/><path d="m5.1246462 9.1307545c.5947266 3.6464844 3.1870117 6.9101563 6.6040039 8.3139648 3.72054 1.5302658 9.1294909 1.0620518 11.2124014 4.7519531.0397339.0702515.1028442.1168823.1735229.1491089.43927.7522583.7470093 1.5889893.8792114 2.4475708.0487919.3196659.452713.433567.6603394.1762695l-.1244507.3840332c-.1826115.0072956-.3854485-.0057735-.6896973.1706543-.8452206.4894142-1.3289738 2.1468067-.4657593 3.3988647l-5.4161987 16.695982c-.1300049.3999634.0900269.8199463.4799805.9399414l.0900269.0300293c.3900146.1300049.8200073-.0800171.9400024-.4799805l5.355957-16.4948101c.4102211-.1249485.5300083-.3656292.6129761-.4831543 1.963501.6875 4.0286255 1.0308228 6.0929565 1.0308228 2.7351074 0 5.467041-.5987549 7.9558105-1.7835083-1.880127 2.2854004-3.5079956 4.7587872-4.8161621 7.3865337-.0927734.1850586-.0170898.4101563.168457.5024414.1855469.0927734.4106445.0170898.5024414-.168457 1.425293-2.8613281 3.2182617-5.5498028 5.3305664-7.991209 1.0237389-1.1847324 1.7434578-1.0988216 2.4375-.3666992 1.0263672 1.109375 2.7504883 1.878418 4.6113281 2.0566406.6920509.0590439 1.3816452.0837822 1.815918.390625.5878906.421875.578125 1.2749023.4912109 2.053709-.4477539 3.9609375-1.2558594 7.9013672-2.4013672 11.7099609-.1152344.3754883-.2348633.7636719-.503418 1.0205078-.3286743.3013611-.8537292.4056396-1.2939453.3911133-.7262192-.0142784-.6682091-.0592995-9.0488281-2.4780273-3.3838615-.9774933-3.6327553-2.0609055-2.1235352-5.3427734.2562599-.4413338-.448288-.8339462-.6738281-.3276367l-.0004883-.0004883c-.6780701 1.4715118-1.4207191 3.1467056-.6049805 4.5302734.9165764 1.5224266 2.4793701 1.5959015 10.6787109 4.0268555.867363.2543602 1.6454124.4578857 2.5307617.2709961 1.0709724-.2332535 1.4487801-.8669586 1.7568359-1.8730469 1.159668-3.8530273 1.9765625-7.8378906 2.4291992-11.8442383.0673828-.6020489.2250977-2.0122051-.8012695-2.748045-.6082611-.429903-1.4121437-.4607201-2.1782227-.5258789-1.6835938-.1616211-3.2290039-.8417969-4.1367188-1.8232422-1.1967621-1.2614536-2.4327583-.9054966-3.5522461.3891602-.1430054.1652832-.272522.3405762-.4125977.5080566.080246-.3241501-.2479324-.5577183-.5200195-.427002-4.1560669 1.9806519-9.0180054 2.2494507-13.3717041.758606.3269367-.8047218.552702-1.5386696.1460571-2.3060303l5.4026489-16.6620483c.2949219-.9585676-1.2056293-1.433073-1.5200195-.4900513l-.1299438.4011841c-.1269531-.0717163-.289978-.0656738-.413269.0297852-.4951172.3793945-1.2338867.4125977-1.7578125.0751953-.0119019-.0076294-.0255127-.008667-.0379028-.0148315-.3320045-.6558409-1.316679-.8730326-1.9616089-1.0481567-6.6234375-1.9339113-13.6021105 2.4901533-19.9082018.2744141-.2640581-.096304-.5410681.1312074-.4946289.4140625zm19.472167 19.774414c-.2787819.0646229-.6125412-.3262577-.7373047-.6308594-.433239-.823843-.0342388-1.8746738.3569336-2.1010742.2758598-.1601143.779417-.0836983.9936523.1933594.413641.5425129.1064587 1.2910919-.1484375 1.9189453-.0698242.1679688-.2447891.5663529-.4648437.6196289zm4.835083-18.6833496-4.6990967 14.5048218c-.0111141-.4890366-.3768826-1.7772865-1.0249634-2.8519287 4.9527187-14.9698992 3.6416454-10.8282642 3.8344727-11.5505981.6993523.2581605 1.3439217.1831541 1.8895874-.102295zm-9.178833-1.4768066c3.1785851-.2429647 5.1472836.4553776 5.3276367.4892578 1.7807522.4708357 1.2754002.7206802.9560547 1.6787109l-3.3730469 10.2641602c-2.6445808-3.4528599-7.6053171-2.9684696-11.1499014-4.4257813-2.9897461-1.2285156-5.3012695-3.9863281-6.0288086-7.1318359 4.7384711 1.357482 9.6352759-.5201235 14.2680655-.8745117z"/><path d="m16.7276726 14.0775318.0147705 1.4328003c.0021973.210083.2443237.3265381.409729.1970215l1.1282959-.8833008c.1832294-.1434183.2758217.0085258 1.5994263.3864136.2004395.0628662.3859863-.1314087.3139648-.3287964l-.491394-1.3460083c-.0797768-.2185793.0933361-.2596903.8617554-1.4017334.1217041-.1712036-.0057373-.4077148-.2156982-.4002075-1.3081017.0132656-1.5034351.13941-1.6446533-.0508423l-.854187-1.1504517c-.1252441-.1687012-.3895264-.1205444-.4472656.0814209-.391613 1.2481766-.3319683 1.4728603-.5565186 1.5484619l-1.3581533.4568481c-.1991577.0669556-.2350464.333252-.06073.4505615 1.0660714.758154 1.2982319.7708894 1.3006581 1.0078126z"/><path d="m41.3258171 64.3441315c-1.0356712.5760498-1.0509644 2.02491.6318359 2.5273438 1.211338.3650818 2.5818939.2488174 3.7490234-.3798828 1.2802849-.6882172 1.2323723-1.8629913.4741211-2.2894287l-.0878905-8.3067628c-.0014648-.2075195-.1606445-.347168-.3789063-.3710938-.2070313.0024414-.3730469.171875-.3710938.3789063l.0856323 8.0984497c-.1245728-.008728-.2530518-.0136719-.3937378-.0056763-1.1372375.0469132-2.8316001-.1427841-3.7089843.3481446zm4.578125.5756836c.0195313.0224609.0800781.090332.046875.2929688-.0439453.2680664-.3500977.484375-.5996094.6186523-2.2431717 1.2087326-5.0171013-.0748291-3.6601563-.8325195.6642151-.3706207 2.4108124-.2105255 3.3769531-.2539063.4125978-.019043.7226564.0473633.8359376.1748047z"/><path d="m29.4986687 63.3885651c-.7313271.1528358-1.897789.3929405-2.4541016.8916016-.8548489.7641678-.6458321 2.2739258 1.4628906 2.2739258 1.1357422 0 2.2563477-.4140625 3.1166992-1.1611328.8153381-.7069016.8116951-1.4606743.4758911-1.914917l2.7360229-8.6861572c.1479225-.471714-.5648575-.7020531-.7158203-.2255859l-2.6860962 8.5276489c-.5382041-.0938913-.8321704.0634955-1.9354857.2946166zm1.6342773 1.4379882c-1.1825962 1.0270538-2.9152222 1.1504288-3.5195313.8208008-.3714676-.2011108-.3636227-.5450974-.0683594-.8085938.1816406-.1630859.4443359-.2651367.6762695-.3481445h.0004883c.7737465-.2763977 1.6001663-.3721313 2.4296875-.5981445.2128448-.0578079.6333027-.1407585.8085938-.0141602.0219727.015625.0883789.0634766.0996094.2543945.0151367.2539063-.2236328.5175782-.4267578.6938477z"/><path d="m65.421524 24.475481c-.0153198.019104-.911499 1.1617432-.7342529 2.0518188l-13.0406532 5.4706422c-.190918.0800762-.2807617.2998028-.2006836.4907207.0600586.1435547.1992188.2299805.3457031.2299805.1439247 0-.6761742.3033295 13.3308144-5.5608501.5796356.365036 1.5884781.2976379 2.2751465.2107544 2.4768372-.3126869 3.0960541-2.6883564 1.8779297-3.7236328-1.0319062-.8760987-2.9035569-.3616639-3.854004.8305663zm3.487793 1.2675782c-.3071289.4702148-.8920898.7915039-1.605957.8813477-1.0733032.1378174-1.6313477.0126953-1.7908936-.1134033-.0180664-.0269165-.0355835-.0534058-.0592651-.0742188-.1314087-.2805176.178772-1.022644.5542603-1.4935303.649498-.8143139 2.0691147-1.332325 2.7822266-.7270508.4291991.3652344.408203 1.0844726.1196288 1.5268555z"/><path d="m57.0577507 13.3578053c.7734375.3227539 1.2905273 1.1948242 1.2026367 2.0283203-.0514183.4919872.6934662.5730839.7460938.078125.1230469-1.1689453-.574707-2.3457031-1.659668-2.7988281-.4582405-.1917143-.746521.5005073-.2890625.6923828z"/><path d="m64.7213287 29.9408131c-.7060547 1.8637695-2.3237343 3.3999004-4.2211952 4.0097637-.1972656.0634766-.3056641.2744141-.2421875.4716797.0628166.1968994.2740555.3055305.4716797.2421875 2.1416016-.6879883 3.8959999-2.3544922 4.6928749-4.4580059.1754608-.4643937-.526062-.7302513-.7011719-.265625z"/><path d="m65.0055084 35.1029205-3.1870155.9086914c-.4172783.1196632-.3297958.7358398.1025391.7358398.1013985 0-.1260376.0452766 3.2895546-.9228516.4773025-.136875.2726211-.8553389-.2050782-.7216796z"/><path d="m59.442028 39.4881744 5.0180702 1.9194336c.4602127.1789742.7329712-.5227318.2675781-.7001953l-5.0180702-1.9194336c-.461254-.1777611-.7323913.5229569-.2675781.7001953z"/></g></svg>