<svg id="Layer_1" enable-background="new 0 0 75 75" viewBox="0 0 75 75" xmlns="http://www.w3.org/2000/svg"><g id="Holding_Flowers" fill="rgb(0,0,0)"><path d="m62.4503212 12.2050638c-.5799561-1.3300171-.9000244-2.7900391-1.6500244-4.0300293-1.9364433-3.1877255-5.8761177-3.7435818-8.0700684-1.5299687-1.1606445 1.1885986-1.5227051 2.9021611-1.7856445 4.559876-.3827095-1.0803871-1.3439674-3.1696663-2.3602295-3.7020879-.5234375-.2749023-1.2978516-.2880859-1.7597656.2182617-.1972656.2133789-.3007813.4770513-.3925781.7094731-.1894684.4795351-.2377357.5136642-.5283203.5512695-.4312668.0584288-.7976341.2073154-.8955078.7275391-.2648621 1.4417419 2.2066841 1.9077473 3.0839844 2.3408203.2281494.1140747.456543.2630615.6868896.414856-2.3972473-.4162855-4.9389954.0539732-6.8566895 1.4377441-1.3054199.9421387-2.366333 2.3381948-2.7272949 3.9246206-.1149902.5048828-.1340332 1.0237427-.1105957 1.5418701-.0744629.180603-.1456299.3687134-.2124023.5665894-1.3842468-.9244576-2.9025612 1.5132294-.6315918 2.9231567-.0854492.6784058-.1503906 1.401062-.1854248 2.185791-.4415169 9.9972076 10.6946754 11.9315796 15.5345459 4.3348389 1.8758163.6813622 3.4161072-.911871 2.9361572-2.4202881-.2047119-.6392212-.8001709-1.1008911-1.4312744-1.1931763.0385742-.1674805.0678711-.3344116.0981445-.5015869 3.6926155-2.1762753 2.3399811-7.0178623-.8415527-9.9893179.1009598.0354309.2933502.1474609.7205811.1474609.5400391 0 1.1025391-.2197266 1.3925781-.7299805.1852341-.3196507.2034874-.5478392.2515869-1.3552246 1.020752.4443359 1.925293 1.1662598 2.9345703 1.6574707 1.7799072.8699951 3.9299316.9500122 5.7698936.2000122-1.420044-.3500365-2.3900108-1.6500243-2.9699669-2.9899901zm-11.3674316-.6014404c-.0015869.0009766-.0025635.0021973-.0042725.0031738-.0004883-.0016479-.0010986-.0032959-.0015869-.0049438zm-5.2758789-1.494812c-.0517578-.0737305-.0771484-.1787109-.0332031-.3320313.0439453-.0263672.1376953-.0390625.2294922-.0512695.5315819-.071722.8134003-.2243567 1.1269531-1.0200195.1530685-.3928757.2569542-.6420898.6806641-.6420898.5656281 0 .9424896.5143909 1.2539063.9941406.7403717 1.1538296 1.2689667 2.4710741 1.4384766 3.246582-.0132408.1004457-.03722.1080513-.0273438.2265625-.0078125-.0019531-.0146484-.0039063-.0224609-.0058594-.6490173-.1869364-1.3367615-.8011923-2.0273438-1.1464844-.2558595-.1259765-2.1748582-.6600828-2.6191407-1.2695312zm-7.6923829 10.4238271c.140625-.0742188.3476563-.0273438.4121094.0874023.0270996.0490112.064209.0877686.1063232.1188354-.1030273.4000854-.1911621.8326416-.2683105 1.2890015-.7389908-.605791-.6072082-1.3135451-.2501221-1.4952392zm10.0917969 12.3369141c-2.703125.921875-5.8095703.1953125-7.5595703-1.7646484-1.2958984-1.4521484-1.9501953-3.5922852-1.8417969-6.0268555.1480713-3.3270264.7497559-5.6168213 1.7838135-6.8190918 3.4251442-1.8216534 6.0017471-1.4506569 6.010376-1.4553833-1.0848389.5941772-1.7869873 1.8266602-1.7452393 3.0628052 1.7497559-1.6636963 4.4973145-2.1834106 6.7338867-1.2737427-.6124268.3029175-1.0935059.861084-1.3029785 1.5114746.0639801-.1983223 1.9991913-.136467 3.0534668.6721802 1.0593033.8124943 1.0920639.7616138 1.2000732 1.4853516.1724854 1.1546631.0917969 2.3900757-.2313232 3.6295776-.0959473.086731-.1408691.2183228-.1140137.3510742-.9978523 3.3533516-3.3728294 5.7362862-5.9866943 6.6272583zm7.6044922-5.6821289c.27911.8778515-.5959549 1.8797913-1.836792 1.5321655.5878525-1.0747681.7220612-1.5641632.9162598-2.2030029.3908691.0106201.7958984.2808228.9205322.6708374zm.1347656-13.5458975c-.0097656.2631836-.0263672.4956055-.1318359.6777344-.1972656.3476563-.7109375.425293-1.1054688.296875-.6965065-.2111835-1.3751678-.7615137-2.2138672-1.1650391-1.9762802-.9037867-1.5219383-1.2315798.7382813-1.8554688.8935547-.2539063 1.6503906-.3769531 1.78125-.3769531 1.3080597.1678925 1.0372887.6571408.9316406 2.4228516z"/><path d="m36.3656044 41.9120331c.1677094-.4646912-.535511-.7227669-.7050781-.2529297-.2512054.7094688-.453968 1.3042488-.7138672 1.8427734-.3544922.7270508-.6708984 1.5825195.0722656 2.5263672.5439453.6884766 1.3701172 1.0478516 2.1728516 1.3583984 1.8936577.7094994 7.4998817 2.4676094 9.46875 1.9863281 1.9048042-.398735 2.1179314-1.6214142 2.2958984-3.421875.6238708-6.6737213.4929771-9.4650383.5927734-10.2412109.0536346-.3983269.0553818-.7144928-.2304688-1.0092773-.7554092-.7482796-1.7798347-.0691605-2.5625.0219727-.6103516.059082-1.1777344.0537109-1.7421875-.0195313-3.6040268-.3959846-4.1306953-2.472126-5.2910156-1.6782227-.5781403.390213-.9145775 1.5296249-1.1835938 2.0698242-.8300781 1.621582-1.6289063 3.3920898-2.375 5.2617188-.1818237.4592171.5107079.7411728.6972656.2783203 1.381115-3.4628525 2.1823463-4.7764053 2.5751953-5.7192383.6901665-1.6589851.8045731-1.4419594 1.4306641-.9755859.1055984.052742 2.4715652 1.8767166 5.9257813 1.5307617.6714401 0 1.5941315-.6448212 2.0097656-.2241211.0693092.1001129-.0173454.3863335-.0234375.6254883-.0617981.9220657.0083885 3.8339539-.5693359 10.0068359l-.0097656.1010742c-.1455078 1.4677734-.2333984 2.3535156-1.7119141 2.6630859l.0888672.3642578-.1816406-.3505859c-1.8772392.3416672-7.0869179-1.2776184-8.9365234-1.9707031-.7324219-.2832031-1.4248047-.5820313-1.8515625-1.1220703-.4365234-.5551758-.34375-1.0014648.0136719-1.7348633.2826919-.5853347.50214-1.2320403.7441406-1.9169921z"/><path d="m32.2894325 49.8802948v.0004883c-.6038723.8171806-.8255272 1.4238358.1328125 2.8764648.6229286.9476089 1.6238708 1.7853584 2.7988281 2.2436523 1.6708984.65625 1.8691406.3666992 1.9755859.2128906.7640266-1.0870628 1.4231796-2.1124725 2.1767578-3.1298828.246273.9696999.2893867.9442558 1.21875 3.940918.0351563.1123047.1220703.2016602.2333984.2407227 1.7285881.6040955 3.593689.7426529 5.4091797.4008789.9200592-.1294098 1.1598663-.2603874 1.2988281-.5375977.20784-.4150047.0334511-1.1393814.0009766-1.5263672-.1543884-1.8907623-.6137276-3.0023155-.9130859-3.9003906-.6244316-1.9274139-1.7124252-.3158684-6.5214844-1.625-1.0155525-.2769661-2.4248123-.769001-3.3564453-1.3344727-2.6332053-1.5938949-2.4957885-.2448501-4.4541015 2.1376954zm2.5976563-2.0605469c.5264511-.1368217 1.496376.6385689 2.0771484.9067383 2.389019 1.1103401 5.1105461 1.7675285 7.9609375 1.6811523 1.0011444-.0228233.8270378.1567154 1.0576172.7416992.6644402 1.7232246.7104111 2.8433838.8408203 3.8173828.0292969.2094727.0966797.6992188.0644531.7915039-.1076584.0884781-.6302643.1405754-.7919922.1708984-1.6220703.3066406-3.2929688.1972656-4.8466797-.3115234-1.1441956-3.6424866-1.0132751-3.1548157-1.1074219-3.5463867-.0927734-.3955078-.1972656-.8442383-.4970703-1.0268555-.1611328-.0986328-.3740234-.0620117-.4912109.0893555-.8717422 1.1176567-1.6447144 2.3228989-2.4824219 3.5229492-.2558594-.0361328-.8339844-.2197266-1.1767578-.3544922-1.0384293-.4052124-1.9094772-1.1425209-2.4453125-1.9575195-.7839928-1.1872444-.5592384-1.4723358-.15625-2.0185547l1.1630859-1.5703125c.2462274-.3324088.516945-.8543395.8310548-.9360351z"/><path d="m28.6615028 60.9750214c.2140446 1.217968 1.2085018 3.9106445 2.4433594 3.9106445.4830933 0 .9606209-.3834763 1.0058594-1.262207.0695801-1.4140015-.6308594-2.9546509-1.7163086-3.840271l4.6020508-4.3042603c.362072-.3387108-.1489525-.8860435-.5117188-.5478516l-4.8046875 4.4937744c-.6262932-.0703582-1.2139129.4357072-1.0185547 1.550171zm2.6992188 2.6113281c-.0136719.2851563-.0986328.5029297-.2109375.5415039-.6852283.246254-2.3442421-3.9589844-1.5839844-3.9589844.4931717 0 1.8831902 1.654213 1.7949219 3.4174805z"/><path d="m43.4027138 69.1014862c.8291016.3896484 1.7294922.5893555 2.640625.5893555.7848129 0 1.714222-.0976181 2.0341797-.809082.2298317-.5157013.0849457-1.2415543-.890625-1.8320313-1.2658806-.768837-2.5110664-.8365784-3.1212158-.958252l-.2205811-8.4060059c-.0058594-.2060547-.1962891-.3564453-.3847656-.3652344-.2070313.0053711-.3701172.1777344-.3652344.3847656l.2225342 8.4786987c-1.3884583.4426042-1.7016144 2.083214.085083 2.9177858zm.5888672-2.2651367c1.1601563.1323242 2.0771484.4121094 2.8066406.8544922v.0004883c.8372459.5074921.8900681 1.0962219-.1337891 1.2143555-.9873047.1142578-2.0380859-.0576172-2.9433594-.4833984-1.460514-.6816865-.6234741-1.6852647.2705079-1.5859376z"/><path d="m59.6074257 38.8342133c-.0119629.0754395-.0126953.15448.0238037.2272339.2617188.5185547.7109375 1.2719727 1.3671875 1.9169922 1.144104 1.1274757 2.3568382 1.0514259 2.2568359 1.0283203.9677696 0 1.8456993-.612793 2.0869102-1.4570313.5066681-1.7611008-1.5045166-3.5837479-4.6259727-2.550293-.175415.0582886-.3250732.1436157-.4644775.234436l-9.8157959-2.7075806c-.4783096-.1318245-.6779404.5918846-.1992188.7226563zm1.3450928-.1228638c2.4526215-.8120155 4.0134239.428627 3.6689415 1.6318359-.2606277.9088058-1.4692001.9457817-1.3691368.9135742-1.2188263-.0015144-2.2029495-1.1815758-2.8007813-2.2504883.1669922-.1230468.3271484-.2373046.5009766-.2949218z"/><path d="m41.8916054 23.299118c.4787598.1096802.9960938-.3653564 1.1555176-1.0610962.1594238-.6956787-.0993652-1.3486328-.578125-1.458313-.4787598-.1097412-.9960938.3652954-1.1555176 1.0610352s.0993652 1.3486328.578125 1.458374z"/><path d="m49.0507851 23.1140594c-.4786377-.1096802-.9959717.3653564-1.1553955 1.0610962-.1595459.6956787.0993652 1.3486328.578125 1.458313.4786377.1097412.9959717-.3653564 1.1553955-1.0610352.1594238-.6957397-.0993653-1.3486938-.578125-1.458374z"/><path d="m47.3167763 28.4095917c-.9746094.4375-2.1220703.5253906-3.1484375.2431641-2.1118774-.5819302-2.840065-2.2910118-2.9355469-2.3945313-.1830482-.288908-.6151581-.1989365-.6826172.1225586-.603714 2.8049316 2.0951881 5.2399654 4.8369141 4.3154297.9921875-.3349609 1.7802734-1.0776367 2.3554688-1.6875.2806243-.296217-.05262-.766594-.4257813-.5991211zm-6.0332031-.6748047.0078125.012207c.0498047.0786133.125.1323242.2080078.1572266 1.1573067 1.2052479 2.8179321 1.8255653 4.5332031 1.6279297-1.9994316 1.3710403-4.3292351.2602462-4.7490234-1.7973633z"/><path d="m11.757205 63.6932831c-2.0442247-1.6297798-5.1350746-.524128-5.140625 2.3579102-.0019531 1.0136719.4296875 1.953125 1.1542969 2.5131836.3928404.3028183.8520184-.2896194.4589844-.59375-.5419922-.418457-.8642578-1.1352539-.8632813-1.9179688.0036578-2.9333534 3.7161331-2.9806595 4.5751953-.9296875.1891966.4543076.8737707.1750031.6943359-.2817383-.2773438-.7075195-.1601563-1.5693359.3134766-2.3046875 1.7078114-2.6442947 5.1617575-.598732 4.5917978 2.0800781-.0996933.4694824.5960312.6422195.7285156.1796875.3207703-1.1627922 1.6588287-1.5913162 2.46875-1.125.8962059.511673 1.0546665 1.9897385.296875 2.6821289-.3580551.3266678.1179276.8739243.4921875.565918 2.4475498-2.022049 4.5328693-1.7216415 5.5253906-.6293945.6552734.7192383.7070313 1.9077148.1123047 2.5439453-.3405285.3640137.2144165.8695374.546875.5126953.8623047-.9213867.8144531-2.5522461-.1044922-3.5615234-1.0471859-1.1515121-3.1123276-1.6159363-5.359375-.2939453.2885952-2.3254128-2.1741581-3.6248436-3.9394531-2.121582-.3314991-1.5900192-1.8176994-2.8934784-3.4267588-2.8168945-1.6241206.0824736-2.9567536 1.5509909-3.1249999 3.1406249z"/><path d="m15.6644316 43.540451c1.1676435 1.5184708 3.3355932 1.0190506 3.8798838-.7612305 1.5755577 1.421032 3.5419064 1.0561218 4.3115234-.1669922.7932377-1.258194.0349331-3.3837891-2.2597656-2.8847656.2128906-.8022461-.0087891-1.7236328-.6357422-2.2910156-.8730469-.7890625-2.3427734-.7294922-3.1474609.125-.8134766.862793-.5576172 1.7055664-.3251953 2.449707-2.08525.0667458-2.9363395 2.0784341-1.8232432 3.5292969zm2.2734384-2.7529296c.2746582.038147.4858913-.2072296.4228516-.4614258-.2426472-.9600334-.6489754-1.5644646-.0019531-2.2504883.5273438-.5595703 1.5283203-.5991211 2.0976563-.0830078.5712891.5161133.6318359 1.5151367.1269531 2.0961914-.252161.2908707.0470409.7270317.4072266.6000977.6640625-.2329102 1.3564453-.4360352 1.875-.1616211.2373047.1254883.4121094.3613281.4931641.6645508.09375.3535156.0429688.7348633-.1376953 1.0205078-.6556377 1.0393143-2.445776 1.1051025-3.6806641-.5493164-.2411366-.3170471-.7377071-.0940781-.6699219.2885742.2250252 1.3131828-1.5693722 2.4853058-2.6113281 1.1318359-.8870765-1.1547279.0738372-2.5521393 1.6787108-2.2958984z"/><path d="m19.2938271 40.9368744c.6434326 0 .6445313-1 0-1-.6434327 0-.6445313 1 0 1z"/><path d="m67.3597412 60.1019745c-.7871094-.5839844-1.8808594-.6318359-2.7392578-.1977539-.0654297-1.1972656-.6181641-2.3398438-1.5156212-3.0537109-1.9625511-1.5599327-5.1569023-.7684517-5.5546875 1.9711914-1.0683594-1.0224609-2.7001953-1.4643555-4.1191406-.9672852-1.9521484.6860352-3.1064453 3.0136719-2.46875 4.980957.0634766.1972656.2744141.3061523.4716797.2416992.1972656-.0639648.3056641-.2753906.2412109-.472168-.5078125-1.5693359.4472656-3.4960938 2.0039063-4.0424805 1.4990234-.5244141 3.3515625.2905273 4.0146484 1.7192383.0263672.0712891.0556641.1416016.0888672.2109375.2028923.4288406.8591042.1539154.6894531-.293457-.0263672-.0688477-.0537109-.1362305-.0839844-.2026367-.3466797-.972168.0820313-2.2138672.9970703-2.7963867.9492188-.6049805 2.3183594-.5063477 3.2529297.2373047.8964844.7133789 1.3710899 1.9614258 1.2080078 3.1787109-.0477028.3588409.3942146.5727425.645504.3061523.6035156-.6430664 1.7109375-.7431641 2.4208984-.2177734.7089844.5253906.9345703 1.6152344.4931641 2.3789063-.2470779.4277344.3984451.8054123.6503906.375.6328126-1.0961914.3203126-2.6020508-.696289-3.3564453z"/><path d="m18.4202919 17.5150604c-1.289917.6900024-1.5299072 2.3399658-.1600342 3.0999756.6800537.3800049 1.4899902.4199829 2.2700195.4400024-.8299561.5700073-.9099121 1.9099731-.2399902 2.6599731.6700439.75 1.9100342.8600464 2.7600098.3300171.8599854-.5299683 1.3100586-1.5899658 1.2299805-2.5999756.199707.6658325.8571777 1.1448975 1.5388184 1.1911011-.0087891.1496582.0413818.3010254.1636963.4067383 1.2108154 1.0474854 2.1968994 2.3512573 2.8898926 3.776001-.8246269.8223915-.7401123 2.418766.6723633 3.1972046-.173584.4238281-.4180908.8196411-.7497559 1.1390991-.1982422.1918945-.2041016.5083008-.0117188.7070313.1902275.1978378.5064774.2052269.7070313.0126953.395874-.3827515.7127686-.8427734.9376221-1.343811.3076172 1.2601929 1.0195313 2.421875 2.0389404 3.2271118.5138626.4045296 1.1402931-.3731613.6191406-.7851563-.852417-.673645-1.4466553-1.6481323-1.6968994-2.7039795.1477051-.043396.2713623-.1164551.3937988-.1931763 6.6457863 4.8839226 6.3133392 4.7540894 6.5472412 4.7540894.3611565 0 .5132179-.4621696.2226563-.6762695l-6.2475586-4.6234131c.4348488-.8578396.1310234-2.0222416-1.3045654-2.6978149-.6928711-2.9729614-.144043-6.0401001 1.5183105-8.4290161 1.0164299-.3198547 1.578907-1.4578552 1.5406494-2.4211416 2.9456024 1.2440557 4.5750504-1.831192 1.7763672-3.4272461.5836716-.4470673.8731537-1.2215166.7333984-1.9033203-.1972656-.9599609-1.1298828-1.6943359-2.1689453-1.7080078-.0058594 0-.0126953 0-.0195313 0-.5410156 0-1.4082031.3012695-1.9550781.8022461-1.4053955-3.5611277-6.3712635-2.2407064-4.2314453 1.7895508-.929285.0605335-1.7794361.7444038-2.0205078 1.6186523-.5148792 1.8705101 1.3631058 3.8008986 3.6875 3.0375967-.1247139.9642448.3711815 1.9518013 1.4700928 2.2357178-1.4276123 2.3643188-1.9300537 5.2280884-1.4128418 8.0557251-.0325928-.0037231-.0651855-.0018921-.0976563-.0039063-.730835-1.5376587-1.7844238-2.9421387-3.0715332-4.0836792.5355225-.3449707.8754883-.9979248.7905273-1.6306152-.1099854-.8300171-.9699707-1.8200073-1.8100586-1.7700195.5500488-.3200073 1.1201172-.6500244 1.5-1.1600342.3701172-.5.5100098-1.25.1601563-1.7699585-.3400879-.4800406-1-.6400137-1.5800781-.5400381-.5700684.1000366-1.0899658.4200439-1.5800781.7300406.380127-.7300406-.0599365-1.7399893-.829834-2.0300283-.7700195-.2999878-1.710083.0599976-2.170166.75-.369873.5700073-.6298828 2.1600332.1201172 2.5900259-.880005-.5100099-2.0300294-.5300295-2.9300538-.049988zm12.4707031-1.8857412c.1259766-.1450195.1220703-.3623047-.0097656-.5024414-.1317997-.1414652-.3489361-.1576767-.5009766-.0419922-.7255859.5522461-1.7138672.684082-2.4599609.3295898-1.198843-.5699797-1.5594063-2.3300343-.2216797-2.9824219.8771305-.4278116 1.1568108.2176085 1.4912109-.1689453.1054688-.1225586.1210938-.2993164.0371094-.4379883-.3398438-.5634766-.7617188-1.2646484-.8085938-1.9804688-.0818901-1.2624702 1.1120605-1.7589417 2.1337891-1.1894531.7802734.434082 1.3125 1.2910156 1.3554688 2.1831055.0270424.5199823.7725792.4425716.75-.0361328 0-.0004883 0-.0004883 0-.0009766-.0068359-.1396484.0654297-.2885742.2138672-.4423828.5998459-.6205845 1.6196785-.6878357 1.5195313-.6650391 1.0501213.0135012 1.9037933 1.1080265 1.2158203 2.0351563-.1816406.2451172-.4355469.3989258-.6962891.4223633-.3794708.0341959-.4693909.5510273-.1259766.7128906.4921875.2319336 1.0009766.4716797 1.3564453.8554688.2861328.3081055.4970703.8032227.3242188 1.2143555-.1826172.4331055-.7460938.6274414-1.2060547.5976563-1.1605759-.0775738-1.6981964-.9532061-2.0859375-.5019531-.1132813.1323242-.1210938.324707-.0195313.465332.3815155.5230455.0474129 1.8743963-.8265381 2.1799307-.1831055-.0888672-.3930664-.0587769-.5429688.074707-1.1960524-.0770283-1.4960975-1.4286232-.8931884-2.1203604zm.1696778 13.9594717c-.1590786-.0958805-.3285923-.1059361-.4998779-.0073853-.0786133-.0108032-.1555176-.0270996-.2312012-.0473022-.0840797-.0412788-.0082226-.0316257-.1687012-.0461426-1.1063671-.4073277-1.3352375-1.5548077-.772583-2.1264648.0283203.0049438.0527344.0236816.0817871.0236816.140358 0 .2546349-.0518341.3521729-.1496582.0859375.0076294.1801758.0265503.2824707.0565796.1152325.1906204.3370037.280344.5430908.2288208.0085449-.0020752.0146484-.0082397.0230713-.0106812.0352783.0161743.0625.0241699.098999.0414429v.0004883c1.1926441.5616379 1.275795 1.8618584.2907715 2.0366211zm-8.0504151-11.2437744c.4699707 0 .8500977.3800049.8500977.8500366 0 .4599609-.380127.8399658-.8500977.8399658-.4599609 0-.8399658-.3800049-.8399658-.8399658 0-.4700317.3800049-.8500366.8399658-.8500366z"/><path d="m32.7640419 13.0883036c0-.671875-.546875-1.21875-1.21875-1.21875s-1.21875.546875-1.21875 1.21875c0 .6723633.546875 1.2192383 1.21875 1.2192383s1.21875-.5468751 1.21875-1.2192383zm-1.6875 0c0-.2583008.2099609-.46875.46875-.46875s.46875.2104492.46875.46875c0 .2587891-.2099609.4692383-.46875.4692383s-.46875-.2104493-.46875-.4692383z"/></g></svg>