<svg id="Layer_1" enable-background="new 0 0 75 75" viewBox="0 0 75 75" xmlns="http://www.w3.org/2000/svg"><g id="Holding_Star" fill="rgb(0,0,0)"><path d="m27.9405804 27.1231041c1.5257435 3.7984657 5.5056591 6.5390625 9.6464863 6.5390625 4.0913124 0 8.3406258-2.6575222 9.8450928-6.9454956 5.8260612-2.5160923 5.5989189-10.2747746 2.3033447-10.8001099 2.7227173-3.4162855.9914703-8.2684937-2.9335938-9.3935547-1.8398438-.5302734-3.9599609-.0664063-5.4482422 1.1533203-.8450546-1.9085937-3.1015434-2.8503466-4.5966797-2.4765625-.4840546.1210132-.2955284.8509445.1816406.7275391 1.4201241-.348803 3.4187737.7269173 3.8876953 2.5019526.0728683.2779522.4226151.3758984.6289063.1674805 1.3017578-1.3188472 3.3701172-1.8618159 5.1396484-1.3530269 1.7851563.5117188 3.234375 2.0732417 3.6064453 3.8867183.3818359 1.8227539-.3144531 3.8378906-1.7324219 5.0146484-.3477859.2875481.0223656.835434.4208984.6166992.5302734-.2929688 1.2529297-.0336914 1.6455078.3896484 1.6579361 1.7502728.861496 7.9309464-4.5048828 9.2646484.1405449-2.0133095-1.3663368-3.8349476-3.3699951-4.0756226-.5273933-.0637741-.9957428.0480366-1.6212158.7973022-.046875-.8076172-.0742188-1.7739258-.0058594-2.0791016.2335815-.2164459.1240845-.6503906-.2978516-.6503906-3.2186928 0-6.384594-1.4139423-8.7967548-4.4383545-1.3742638-1.7232895-2.3683872-3.8517284-1.069458-5.6324463.3261719-.4379883.6445313-.6523438 1.1923847-.7963867.1845703-.0522461 1.0595703-.1762695 1.3681641-.137207.2289085.2709885.6512985.0862675.6630859-.2260742.0429688-1.1391602.7617188-2.2690425 1.8310547-2.8784175.4332237-.2472215.0573311-.8971844-.3710938-.6513672-1.1367188.6474609-1.9453125 1.7919922-2.1572266 3.007812-.6445313-.0385742-1.5419941.1645508-1.5419941.1650391-.6962891.1821289-1.15625.4916992-1.5878906 1.0712891-.9702148 1.3300171-.984375 2.9868164-.0640869 4.7996826-.9608154 1.2245483-1.7167969 2.5506592-2.2347412 3.9503174-1.0546873 2.8193366-1.064453 5.9106452-.026367 8.4809577zm2.6533203-11.7241211c2.0305653 3.2241802 5.621294 5.5781956 9.6834736 5.75-.1157608 1.0203037.092865 3.145462.1212158 3.2900391.0292969.1679688.1689453.2944336.3388672.3081055.5316582.0683575.2826614-.7182865 1.2558594-1.4980469.0917969-.0854492.1904297-.1420898.2861328-.1591797.3203125-.0722656 1.046875.1635742 1.5136719.4296875 1.1113281.6308594 1.7226563 2.043457 1.4208984 3.2856445-.0657387.2661343.167778.5011711.4267578.4580078.4344139-.073595.7109909-.1584969.8603516-.1972656-1.4525452 3.4497948-5.2702522 5.9553375-9.1621094 5.8422852-3.6647186-.1035538-7.4058208-2.5468254-8.7984638-6.3424072 1.3855648.9577065 3.1895981 1.2927876 4.7984638.8546143.4794121-.1309624.2795944-.8555794-.1972656-.7236328-1.7421894.4746094-3.7294941-.097168-4.9521503-1.4194336-.0067139-.0073242-.0178223-.0048828-.0250244-.0115356-.4388428-2.0324097-.2763672-4.2722168.5054932-6.3624878.4570311-1.2338869 1.1025389-2.4101564 1.923828-3.5043947z"/><path d="m45.8955383 54.6397057c-.0612793.387207 0 .7540283.1425781 1.1004639.7089996 1.8643532 4.6064911 4.2238235 6.3789063 5.1254883.9261665-1.6984863 2.2238197-2.7626648 3.8924561-3.5969849.0101318 0 .0101318-.0101929.0203857-.0101929.152832-.0713501.3260498-.1630249.4788818-.2955322.0101318 0 .0203857 0 .0306396-.0203857.1833496-.1426392.315918-.3158569.2852783-.5196533-.0808449-.537735-.9398003-.4542007-1.4876709-5.0745239-.2242432-1.7322998-.46875-3.5460815-1.4470215-5.0032349 0-.0101929-.0102539-.0305786-.0203857-.0407715-4.3094864 2.5416107-7.3778648 4.4045067-12.8493652 4.9013062-3.2375374.2816353-4.789505.5023079-6.7252197 5.4312134-.3638573.9218445-.2824974 1.3958435.703125 1.6915283 2.6289063.855896 5.2680664 1.711853 7.8969727 2.5678101.4733429-2.1612055 1.3643455-4.3020365 2.7004394-6.2565309z"/><path d="m37.5392151 59.5371666c-1.2351074 1.6268311-2.1126709 3.5078125-2.6090088 5.4717445-.9129677-1.26408-1.9371109-2.3406792-3.748415-3.0933266-.2392578-.0996094-.9648438-.4018555-1.5361328-.0063477-.3457031.2387695-.5322266.6835938-.4882813 1.1616211.0864773.9033394 1.5599499 3.2970161 4.0595722 4.7182655 1.6652946.9495087 2.7564163.0770416 2.5283203-1.3500977-.0383301-.2419434-.1296387-.4539795-.2429199-.645874.428833-2.0847206 1.333374-4.0892372 2.6345215-5.8028603.2989273-.3935087-.2953529-.8491667-.5976562-.4531248zm-3.9511719 7.6001015c-2.2455788-1.2764969-3.6195545-3.4784164-3.6845722-4.1367226-.0185547-.2011719.0488281-.3920898.1679688-.4741211.2092876-.1438828.5895233-.0153542.8232422.081543 2.0043736.8331833 2.7569561 2.0010185 3.6474628 3.1293983.1780281.2271423.4179077.536705.4628906.8198242.1126022.7104645-.3097 1.2121125-1.4169922.5800782z"/><path d="m56.8331604 67.9277954v.0004883c-.4167099 1.2780685.2151108 1.9526367 1.0576172 1.9526367 1.615799 0 4.7651176-3.5829468 4.9501953-5.3886719.0967598-.9418182-.5489616-1.7647629-1.84375-1.4584999-.4884758.1160889-.8201408.431736-1.178833.7574463-2.027832-.6088867-3.7121582-2.177063-4.4178467-4.144165-.1664314-.4688225-.8734093-.2134819-.7050781.2529297.7322998 2.0458984 2.4169922 3.7009277 4.4729004 4.4624062-1.1208573 1.0067901-1.8973618 2.235443-2.3352051 3.5654296zm4.3378906-4.1645546c.9956665-.2311707 1.1247635.4388771.6865234 1.3686562-1.0989914 2.3265533-3.1857491 3.8745575-3.8447266 3.9882813-.1923828.0327148-.3935547-.0175781-.4863281-.1318359-.1181641-.1464844-.1123047-.4248047.0195313-.8266602.6687775-2.0361557 1.7444687-2.8708954 2.8427734-3.8745117.2558594-.2343751.4970704-.4560586.7822266-.5239297z"/><path d="m29.9629192 23.8706017c.5187988.1593628 1.109375-.2647705 1.3190918-.9473877s-.0407715-1.3651733-.5595703-1.5245361-1.109375.2647705-1.3190918.9473267c-.2097168.6826171.0408936 1.3651732.5595703 1.5245971z"/><path d="m7.6081834 22.1235313 3.9799809 2.0100098c.2399902.1199951.4100342.3599854.4399414.6300049l.6101074 4.4099731c.0899658.6799927.9199219.960022 1.3999023.4700317l3.1401358-3.1600342c.4597912-.484169 1.0720692-.1187801 1.7077637-.0602417.0070801.0431519.0025635.0865479.0115967.1295166.1510201.9359703 1.0785255 2.5561523 2.2177734 2.5561523.5814133 0 1.2668228-.3210335 1.8540039-.5997314 2.9351807 3.7987061 6.6323242 6.8815918 11.3028584 9.4080811-.0554199 3.6028442.5996094 7.2194214 1.9388428 10.5666504.7545547 1.8875847 1.5813942 2.2819061 3.3027344 2.1337891 4.6425781-.394043 9.2226563-1.8442383 13.2451172-4.1938477.2070313-.1210938.5205078-.3041992.6982422-.6210938.2294922-.4067383.1816406-.9619141-.1220703-1.4125977-.6360092-.9511948-4.4049835-2.777565-6.6552734-8.4638672l-.0357666-.0917358c5.041748.4428711 9.942627 2.0099487 14.314209 4.5792236-.0275955 1.4027405 3.2026672 4.5447388 5.5692139 4.5447388 1.1889191 0 1.9002686-1.1771812.7021484-2.5795898-1.8297729-2.1421967-4.9630203-2.9538155-5.8518066-2.5893555-4.5843506-2.7026978-9.7418213-4.3182373-15.0394287-4.7268066-.2084961-.5027466-.4504395-.9988403-.80896-1.435791-.6855469-.8344727-1.5771484-1.1972656-2.4335938-.9897461-.4904175.1172981-.9262123.3630638-1.4189453.6210938-2.6488228 1.3389282-5.0211945.937439-5.1220703.9423828-.5019531-.0546875-1.1884766-.1313477-1.6220703.2460938-.5896645.5147438-.5813637 1.5218925-.6329346 2.6233521-4.3913593-2.4260254-7.8945332-5.3623657-10.6866474-8.956665.7061768-.5812759.6889381-1.3020515.2346191-2.1085815-.5851097-1.0789013-1.0679855-1.55793-1.5767822-1.9188232l-1.1328125-2.2025757c-.1300049-.2399902-.1300049-.5300293 0-.7600098l2.1099854-3.9299927c.3199463-.6099854-.1800537-1.3200073-.8599854-1.210022l-4.4000244.7200317c-.2700195.039978-.5400391-.0500488-.7299805-.2399902l-3.0799551-3.2200317c-.4700928-.5-1.3100586-.2299805-1.4101563.4400024l-.6799316 4.4099731c-.0400391.2700195-.2099609.5-.4599609.6200562l-4.0100102 1.9399414c-.6199953.290039-.6199953 1.1700438-.0100099 1.4700316zm59.0511489 20.7427369c.7745743.9036713.5173416 1.5660095-.6396484 1.2685547-.9765625-.2539063-1.9023438-.7641602-2.6767578-1.4755859-.9785156-.8964844-1.7021484-1.8876953-1.6884766-2.1884766.3092117-.1897164 3.2183761.3018646 5.0048828 2.3955078zm-31.5458985-6.8549805c.107811-1.2372818.3681564-1.1723633 1.6083984-1.0395508 3.6594391.2938538 5.5585594-1.368412 6.5478516-1.6049805 1.0060883-.2424736 1.7905388.7047539 2.2297363 1.6516724-.1005554-.0053101-1.2414284-.065136-1.1408691-.0598755-.4917145 0-.4985542.7395821-.0078125.75.4910889.0098877.9798584.0465088 1.4691162.0775757 3.3253784 8.5509796 8.8201981 8.673893 6.5601807 9.9902954-3.9257813 2.2939453-8.3974609 3.7094727-12.9287109 4.0942383-1.4040184.117672-1.9143829-.0911407-2.5429688-1.6650391-1.5410156-3.8505859-2.1621094-8.0673828-1.7949219-12.1943359zm-11.7001972-8.8813477c-.0849075.1000118.060894.3331814-.9384766.78125-.1430035.0651855-1.0793476.541626-1.5224609.4296875-.5426006-.1414223-1.6551952-1.6734467-1.2929688-2.8969727.1605015-.5754013.6667366-1.0810547 1.3066406-1.0810547.4902344 0 .9853516.300293 1.5019531.9077148.2730027.3347417 1.0441533 1.4228345.9453126 1.8593751zm-8.6550283-8.8164062c.0599365-.2000122.2598877-.3200073.4599609-.2600098.9300528.2600098 1.7299795.8300171 2.2800283 1.6099854.1606007.2275848.014637.5900269-.3099365.5900269-.1201172 0-.2401123-.0499878-.3100586-.1600342-.4399414-.6299438-1.1101065-1.1099854-1.8601065-1.3199463-.1999511-.0500489-.3099365-.2600098-.2598876-.460022z"/><path d="m30.7755413 51.805233c-1.0195885-.6347694-2.3058701-1.4818039-2.1767578-2.7631836.0487404-.4897194-.6960678-.5766411-.7460938-.0751953-.0732422.7236328.2216797 1.5117188.8085938 2.1625977.5029297.5556641 1.1484375.9575195 1.7177734 1.3125.4166546.2612342.8189621-.3738442.3964844-.6367188z"/><path d="m25.4933147 51.1865807 3.4326172 1.9448242c.4310093.2442398.8019447-.4078674.3691406-.6523438l-3.4326172-1.9448242c-.4307842-.2446594-.8019428.4078674-.3691406.6523438z"/><path d="m27.1915569 55.5249596c.125 0 .2470703-.0629883.3183594-.1772461.5190697-.834362 1.609951-1.1271324 2.484375-.637207.4292221.2451019.8020267-.4100456.3671875-.6533203-1.1998959-.6768379-2.7472153-.2981148-3.4882813.8950195-.1093749.1757812.0265217.5727539.3183594.5727539z"/><path d="m43.474762 27.7212486c1.4455948-1.1083641.7746086-3.4386158-1.0410156-3.6054688-.5062752-.0345173-.5529251.7022896-.0683594.7470703.4990234.0458984.9609375.4277344 1.0986328.9086914.1386719.4804688-.0488281 1.0498047-.4453125 1.3540039-.3974609.3041992-.9970703.3364258-1.4248047.0766602-.1748047-.105957-.4072266-.0507813-.5146484.1264648-.3877755.6398297 1.32238 1.2115422 2.3955078.3925782z"/><path d="m46.5499573 13.258358c.0146484.1967773.1796875.3466797.3740234.3466797.0087891 0 .0185547-.0004883.0283203-.0009766.2060547-.015625.3613281-.1958008.3457031-.4023438-.1269531-1.6884766-1.2001953-3.2421875-2.734375-3.9584961-.4467278-.2091064-.768589.4688253-.3164063.6796875 1.2714845.5942384 2.1972657 1.9345704 2.3027345 3.3354493z"/></g></svg>