<svg id="Layer_1" enable-background="new 0 0 75 75" viewBox="0 0 75 75" xmlns="http://www.w3.org/2000/svg"><g id="Hopscotch_Game" fill="rgb(0,0,0)"><path d="m67.1266098 53.094593c-11.3622589-9.4428711-10.8232574-9.3039742-11.2128906-9.1777344l-6.7998047 2.3280029c1.1841278-2.3344727 1.1642227-3.9415665 1.2294922-4.2728271.0673828-.5131836.1035156-.9599609-.1367188-1.2275391-.2121735-.236763-.6922112-.2774811-.8935547-.3388672-.1018639-.0325546-11.4477081-3.6586113-11.34375-3.625-.5782585-.2209091-.8847008-.0489235-1.1083984.4223633l-2.3867188 4.5537109c-.4801941.7951851.0145607 1.0675583.8886719 1.4116211.5745354.2245026 4.0759315 2.314209 4.3095703 2.3354492.3244591 1.056839.4534302 1.7597847.7929688 1.8642578 6.5058784 2.004425 6.1976891 1.9291992 6.2988281 1.9291992.0949707 0 .1866455-.0385742.2579346-.105957 9.5986862 8.9309196 9.0608406 8.6054688 9.3426514 8.6054688.0449219 0 .0908203-.0083008.1347656-.0249023l10.5205078-4.0400391c.2657623-.102539.325119-.4532279.1064453-.637207zm-26.4276123-6.8531494c.0515137-.0787354.074707-.1763916.055542-.2762451-.2119141-1.0957031.0644531-2.28125.7402344-3.1713867.2982559-.3937912-.2952614-.8492851-.5976563-.453125-.5404053.7124023-.8446045 1.5866699-.9222412 2.4782715-.0617676-.0324707-.1213379-.0690918-.2095947-.0861816-4.0341415-2.2357368-3.6005974-2.0565796-4.1279297-2.262207-.1416016-.0561523-.4462891-.1757813-.5712891-.2412109.0801277-.1370621 2.4880219-4.7251244 2.5107422-4.7910156.2008705.0347672 12.0608711 3.9287109 12.0507813 3.7773438.0438766.1087151-.0033188.4796028-.0527344.8671875-.2256203 2.4152946-1.3007927 4.6726685-2.921875 6.4125977l-5.8076172-1.7949219zm15.7508545 10.7462159-8.9332275-8.3603516c.3806152-.4440918.736084-.907959 1.0476074-1.4013672l7.3914795-2.5307617 10.2011719 8.5644531z"/><path d="m54.043602 47.2205696c-1.5293694.0534286-1.941021 1.8464279-1.1474609 1.8110352.2070313-.0097656.3662109-.1850586.3574219-.3920898-.0178261-.3665657.4394493-.6561279.8164063-.6689453.5943108-.0391655 1.3199501.4560394 1.3457031 1.2543945-1.0782547-.0548248-1.684166.6296883-1.5449219 1.2270508.09375.4072266.5234375.6889648.96875.6430664.5086479-.053875.9159508-.4762154 1.1308594-.9365234.3878288.2556152.4689941.7328033.3251953 1.0473633-.0576172.0708008-.1103516.1469727-.15625.2265625-.2208672.3808823.2884521.768261.5976563.4453125.0712891-.0761719.1318359-.159668.1826172-.2490234.2910156-.3203125.7753906-.4770508 1.1933594-.3588867.4892578.1367188.8632813.6416016.8515625 1.1484375-.0048828.2070313.1591797.3789063.3662109.3837891h.0087891c1.017807 0-.0829544-3.0496368-2.25-2.1762695-.0852661-.5377083-.4111061-.9726448-.9267578-1.2143555.0852278-1.2908251-.9956018-2.2266085-2.1191408-2.1909182zm.7177734 3.128418c-.0751953.0068359-.1542969-.0424805-.1601563-.0668945-.0126953-.0522461.1191406-.1977539.3320313-.2587891.09375-.0273438.1904297-.0439453.2861328-.050293-.0977058.157589-.2751083.3567238-.4580078.3759766z"/><path d="m5.9234848 60.7518196c1.2815981 6.1765633 9.1011019 11.0220146 18.8963623 8.4123573.1641464.0514297.293993.0138397.4016113-.1247559 8.8808937-3.1445465 8.7794533-2.8806686 8.8748779-3.253418.0961266-.3740005.662075.5784683-14.5449219-16.2973671-.0189209-.0246582-.0488281-.0354004-.0734863-.0533447-.098999-.1768799-.3424072-.2740479-.5134277-.1795654l-4.0273438 1.0834961c-.4775743.1292953-.2864294.8521309.1953125.7246094l3.8857422-1.0456543 6.2442627 6.8887939-7.8613281 2.3349609-6.0490723-7.2203369 2.3731689-.5803223c.2011719-.0493164.3242188-.2519531.2753906-.453125-.0498047-.2016602-.2568359-.3261719-.453125-.2753906l-2.9648438.7353516c-3.4570311 1.7475587-5.416992 5.6601563-4.6591795 9.303711zm19.8740234-3.2216797c.0076904-.0023193.0128174-.0080566.0201416-.0107422l7.2562256 8.0053749-8.0666504 2.7956543-7.0814209-8.4523964zm-15.2023925-5.2451172 13.6168213 16.2529335c-9.1854229 2.2572784-16.3766327-2.265419-17.5540771-7.9384804-.6706544-3.2274169 1.0103759-6.6848144 3.9372558-8.3144531z"/><path d="m25.2262192 51.4437141c10.9910851 11.1168022 10.7309494 11.1164627 11.1035156 10.9907227l9.1455078-3.0688477c.4751358-.1595612.2254295-.8705559-.2382813-.7109375l-8.9238281 2.9941406-10.1513671-10.3232421 9.0356445-2.6796875c.2456932.9058647.7311401 1.6501656 1.3499756 2.3848877-1.1360359.1562309-3.4032364.8885078-3.2830811 2.0408936.1690674 1.5946045 4.3782425 1.70401 5.3291016-.3740234.4170799-.9060364-.1316833-1.9266319-1.152832-1.7861328-.6642113-.733242-1.278244-1.5342331-1.5245361-2.4787598l.4390869-.130127 4.0794678 3.7344971c.1847382 1.2777863.4500389 2.3015442.4780273 3.4178467-.4756126.0571289-2.1951561.394268-3.6072998.9125977-.2529297.0927734-.8457031.3100586-1.0068359.8662109-.1201172.4174805.0742188.9067383.4707031 1.190918 1.4263992 1.0139465 5.8834877-.0846062 6.125-1.6064453.0921364-.5895309-.3454323-1.2325287-1.2320557-1.3630371-.0204659-.8701172-.1781082-1.7218895-.3337402-2.5998535l5.6868896 5.2060547-.6083984.2070313c-.4699936.1597977-.227684.8704605.2421875.7099609 1.0307426-.4039001 1.3796272-.3360481 1.4541016-.6884766.0273438-.1298828-.0166016-.2641602-.1142578-.3535156l-6.8460693-6.267334c-.1135254-.9345703-.1293945-2.0201416.3118896-2.9689941.2092056-.4474678-.4682617-.7674446-.6796875-.3164063-.3840332.8256836-.4759521 1.7131348-.4464111 2.5401611-4.7736816-4.2565842-3.2893677-3.4168129-4.512085-3.2437744-.0074463-.6665039.1937256-1.3605957.7338867-1.7963867.3874702-.3134995-.0868187-.8941345-.4707031-.5839844-.8060303.6501465-1.0765381 1.6650391-1.0124512 2.6025391l-9.6799317 2.8710936c-.2268009.0667877-.3805943.4462471-.1611328.6704101zm12.6855469.940918c-.3486519.7640648-1.9964638 1.5337334-3.4921875.940918-.5368347-.2129936-.5469933-.4576149.0097656-.7822266 1.373291-.7962952 2.4439278-.7662849 3.0761719-.8911133.429615-.0914917.584114.3476601.40625.7324219zm4.2421875 4.3168945c-.0214844.1333008-.1601563.2788086-.4248047.4443359-2.0129433 1.2621803-4.9355392 1.0717583-4.7099609.2958984.1379967-.4735184 2.9624825-1.0409393 3.3115234-1.1220703.5122871-.1086655 1.2104683-.2704048 1.6367188.0302734.1259765.0893556.2041015.2373048.1865234.3515626z"/><path d="m51.1969223 19.9256477c.3527832-.6750488.5843506-1.4033203.7053223-2.1477051 1.0181046.0292988 1.7865868-.6571751 1.8796387-1.4904785.0774918-.699316-.3735886-1.4909868-1.244751-1.5361328 2.3923607-5.3370504-1.5422935-8.7652302-4.5179443-7.3222651-2.1943016-3.76037-11.9607811-3.1479974-13.7792969 3.3715816-.5692139 2.0180664.2205811 4.1704102.9241943 5.8527832-1.5358543.7443104-1.2911186 2.7507381.3521729 3.0056152.52985.0811863 1.1857452-.0493279 1.3082275-.1357422 2.5713921 5.1193333 9.4035721 5.6710339 12.9788818 2.2495117.3591156-.3416252-.1604195-.8862286-.5175781-.5419922-3.9217415 3.7470531-11.7357216 2.1598301-12.6090088-4.7648926.4456787-.5524902.8608398-1.1577148.8687744-1.1730957.2272263-.4854937.4475555-1.0604134.4775391-1.5917969.0068359-.1269531.0195313-.3637695.0029297-.387207.28339-.0751848 1.2315941.5380869 3.6767578.2988281 5.2194023-.4097137 5.893116-3.6336136 6.7294922-1.4833984l.0771484.1928711c.6763115 1.5649567 2.1659241 1.9754438 2.3530273 2.1413574.5855598 1.4787188.543251 3.4447422-.3295898 5.114502-.2317162.4400272.4359665.7870788.6640625.3476562zm1.5517578-4.3647461c.5562439.3510942.3256493 1.423317-.7647705 1.4515381.0205078-.3807373.0141602-.7619629-.0268555-1.1405029.0776024-.1022081.0698242-.1197824.1435547-.2562256.2203942-.1723575.4740334-.1650324.6480713-.0548096zm-17.743164 3.0078125c-.2328529-.3375721-.1300926-.9736481.5258789-1.2626953.1567802.0866699.2337112.0862446.4822998-.1240234.0114746-.0012207.0231934-.0014648.0349121-.0024414.1118164.5847168.2680664 1.1439209.4777832 1.6716309-.5376015.1171379-1.2104416.1706619-1.520874-.2824708zm13.2705078-7.8349609c-1.2124023-.5511694-1.7893639 1.0674849-5.0546875 1.8818359-1.6472206.3961477-3.466938.353014-4.4042969.0864258-.4091797-.1137695-.8701172-.2416992-1.1884766-.0205078-.4291191.2943497-.318428 1.011137-.3779297 1.230957-.0849609.3432617-.2148438.7001953-.3769531 1.0473633-.1077156.1870527-.8223228 1.0775013-1.0439453 1.3442383-.6523438-1.5688477-1.3623047-3.546875-.8671875-5.3007813.453125-1.6240234 1.6132813-3.0761714 3.1865234-3.9853511 2.8049011-1.6441159 8.2173805-1.6520529 9.3681641 1.0810542.0932655.2207279.3666725.2976274.5595703.1625977.8974609-.6210933 2.3115234-.4829097 3.2177734.3164063 1.1992569 1.0682411 1.8182678 3.1793642.4892578 6.0219727-.2048225-.4637012-.2892265-.7139244-.8505859-.949707-2.1923904-.9844657-1.5673485-2.4700595-2.6572265-2.916504z"/><path d="m48.5849838 24.5916634c-1.1497498-.4146175-2.4564133.810379-5.6999512.4499512-.9300537-.1099854-1.6101074-.6099854-2.0600586.4699707-.8199768 1.9384594-1.8223801 5.8793068-2.0200195 9.9000244-.0300293.789917.1201172 1.0499268.8500977 1.2700195 8.8517647 2.5115547 9.756031 3.0459671 10.6499023 2.9100342.4699707-.0800781.9000244-.380127 1.1300049-.7900391.3599854-.6400146.2000732-1.6400146.1099854-2.3400879-.3443146-3.1016388-.9890099-6.4601307-1.5699463-9.5100098-.1766205-.9226474-.4290619-2.018341-1.3900147-2.3598632zm-3.040039 6.4199218c-.0599365.0500488-.1298828.0700684-.2099609.0700684-.1199951 0-.2299805-.0600586-.3100586-.1700439l-1.5499268-2.2600098c-.2820969-.3997574.3389626-.8414497.6199951-.4200439l1.5500488 2.2600098c.1198731.1700438.0799561.4000243-.1000976.5200194z"/><path d="m38.6666489 26.2117805c.3324509-.3649998-.2163544-.8723869-.5546875-.5058594-3.1491165 3.4522991-8.2856216 4.3288136-12.4256592 2.0268555-.0901527-.4676132-.5805264-.8354588-.7862549-1.0214844-1.0544739-1.0089989-2.3874722-1.7680569-3.8154297-1.4692383-1.0800781.2250977-1.9140625 1.1113281-1.984375 2.1079102-.1190624 1.7106419 1.7758217 3.1869965 4.2646484 2.2963867.5275211-.1884918 1.7562218-.81991 2.0963135-1.1939697 4.5372887 2.4388676 9.9289437 1.3508396 13.2054444-2.2406006zm-14.4013672 2.1660157c-1.0207844.607172-2.2321491 1.0672054-3.3310547.6030273-.6728516-.2851563-1.1289063-.9492188-1.0859375-1.5786133.0861645-1.2090054 1.74683-2.0970306 3.5996094-.9023438v.0004883c.3007813.1933594.6064453.4394531.9345703.753418.1672688.1471348.5793247.4930992.5849609.621582-.0105591.1086693-.3019886.2811375-.7021484.5024415z"/><path d="m63.4851303 31.8823128c-.0478516-.0469971-.1037598-.0860596-.1739502-.1021729-4.5019531-1.0332031-8.7900391-3.3935547-12.0722656-6.6459961-.3520927-.3485699-.8806038.1834526-.5273438.5332031 3.3017578 3.2716064 7.4145508 5.5749512 11.914917 6.706543-.0244141.0395508-.0656738.0710449-.0819092.1147461-.1435547.3818359.0625.7563477.2734375 1.1386719.7135963 1.2906532 1.6601105 2.2703667 2.9980469 2.9047852.8016052.3790741 1.7575836.5566559 2.515625.0966797.7822266-.4760742 1.1142578-1.5576172.7734375-2.5151367-.6745834-1.8963357-3.4611969-2.8325082-5.6199951-2.2313233zm4.4569092 4.1058349c-.968811.5879745-2.6275406-.4796562-3.4326172-1.2978516-.6086578-.6203918-1.2838058-1.7851639-1.265625-1.9326172.0009766-.0004883.0322266-.0429688.171875-.0932617 2.0322113-.7359886 4.491394.3158875 4.9824219 1.7006836.1943359.5429688.0761719 1.2988282-.4560547 1.6230469z"/><path d="m40.9410629 20.5897102c.0214844.0693359.0634766.1333008.1240234.1821289.1511841.1205578.682785.5113659 1.0625.6953125.0839844.0410156.1757813.0478516.2568359.0249023 2.6987038.9232426 5.422905-.8192368 5.8798828-3.4443359.0666656-.3799934-.4159393-.5960178-.6552734-.3066406-1.6878242 1.9974594-4.6047134 2.533247-6.9072266 1.1899414-.3127441-.1824341-.6734619.140276-.5351563.46875.1835939.4379883.4492189.8417969.7744142 1.1899414zm6.0146485-1.2612304c-1.3887405 2.0783749-4.1967773 2.0745335-5.4345703.7836914 1.7934532.5786209 3.7634353.3595428 5.4345703-.7836914z"/><path d="m47.5273666 14.7140999c0-.5284424-.4284668-.9569092-.9567871-.9569092-.5285645 0-.9569092.4284668-.9569092.9569092s.4283447.9569092.9569092.9569092c.5283203 0 .9567871-.4284668.9567871-.9569092z"/><path d="m41.4692612 15.992054c0-.5283203-.4284668-.9567871-.9569092-.9567871s-.9569092.4284668-.9569092.9567871c0 .5285645.4284668.9569092.9569092.9569092s.9569092-.4283448.9569092-.9569092z"/><path d="m60.0855942 19.2191048c-.1035156-.1806641-.3330078-.2426758-.5117188-.1401367-1.359375.7749023-3.0449219.9106445-4.5107422.3637695-.4601669-.1740227-.7300529.5277939-.2617188.703125 1.6518669.6164742 3.5766945.4775658 5.1435547-.4155273.1796876-.1025391.2431641-.331543.1406251-.5112305z"/><path d="m54.6334457 24.5213509c.2050781-.0317383.3447266-.2236328.3125-.4282227-.1611328-1.0385742-.5898438-2.0239258-1.2382813-2.8500977-.3088799-.391407-.8953056.0746517-.5898438.4628906 1.3714181 1.7477952.7851411 2.9250031 1.5156251 2.8154298z"/><path d="m58.1627426 23.3524055-2.8320313-2.347168c-.3809471-.3178444-.8611069.2602806-.4785156.5771484l2.8320313 2.347168c.3822517.3158894.8607902-.2605399.4785156-.5771484z"/><path d="m9.0949936 61.4515266 1.8399658.7900391c.281126.1251144.1669006.2428436.6400146 1.4899902.0600586.1700439.3699951.2700233.5400391.1700439l1.2399902-.7600098c.152359-.1012611.2467232.0005112 2.2299805.4300537.25.0600586.4199219-.0900879.2800293-.25l-1.0600586-1.2600098c-.1584511-.1852341.0121126-.1758652.7299805-1.2299805.1000977-.130127-.1098633-.3300781-.3598633-.3300781l-1.9001465-.0200195c-.2750463 0-.2488632-.1052704-1.7700195-1.1799316-.1999512-.1500244-.5-.1199951-.5098877.0500488l-.1099854 1.2399902c-.0283899.1983833-.2715254.1317406-1.8300781.5-.2199707.0400392-.1899414.2600099.0400391.3598634zm2.6199951-.4799804c.1600342-.119873.4000244-.0898438.5200195.0700684.1500244.1999512.4400635.3100586.6999512.2900391.5075607-.0483665.5551424.6924438.0799561.7399902-.422863.0706215-1.0322323-.1205864-1.3798828-.5800781-.1201172-.1599122-.0900879-.3999024.079956-.5200196z"/><path d="m43.9840317 7.7816052c-1.6416016-.2182617-3.3681641.1855469-4.7402344 1.10498-.4123993.2737675.0024033.8994389.4169922.6230469 1.2246094-.8193359 2.7636719-1.1772461 4.2255859-.9848633.484848.0793591.5962982-.6781749.0976563-.7431636z"/></g></svg>