<svg id="Layer_1" enable-background="new 0 0 75 75" viewBox="0 0 75 75" xmlns="http://www.w3.org/2000/svg"><g id="Horse_Stick" fill="rgb(0,0,0)"><path d="m68.7541504 34.8007813c.5054092-.4824371.6287308-1.1210632.7675781-1.7910156.1396484-.6318359.1657104-1.2844238.0814819-2.0112305.0195313-.078125.0200806-.161377-.0150757-.2407227-.007019-.0161133-.0200195-.0263672-.0288696-.0410156-.178093-1.1851749-.5000992-2.1068287-.5897827-3.1542969-.120903-1.7394962.4556808-3.6090508-.9356689-5.5529785-.0123901-.1013184-.0628052-.1975098-.15271-.2614746-.0174561-.012207-.0374146-.015625-.0559692-.0244141-.0553589-.0700684-.1101074-.135498-.1685181-.1989746-.0740356-.3664551-.2438354-.7148438-.5110474-.9755859.1500244-.3400879.039978-.7800293-.2600098-1.0100098-.289978-.2299805-.7399902-.2399902-1.039978-.0100098.1831055-.4431152-.065979-.9985352-.4955444-1.1821289-.2916718-.6737804-.5760193-1.1912918-.8790894-1.661377-.1381378-.2125168-.4314728-.2256927-.5932617-.0488281-.4738426.5232449-.7528954 1.0331955-1.0001221 1.6696777-.2720337-.0134277-.543396.0300293-.7819824.1525879-.7700195.3901367-.5499878 1.2202148-1.0800171 1.670166-.4699707.3898926-1.4299927-.1501465-2.0199585-.0300293-.5.1000977-.9800415.4399414-1.1800537.9199219-.0999756.2299805-.039978.4301758-.2199707.5800781-.1500244.119873-.4799805.1599121-.6699829.2700195-.4100342.25-.7400513.6298828-.9500122 1.0698242-.0700073.130127-.4500122 1.2202148-.2299805 1.3100586-1.9795227-.7786674-3.9707642 1.2470398-3.1100464 3.2399902-.7600098-.2299805-1.6300049 0-2.1799927.5500488-.4019775.4018555-.6149902 1.1049805-.6193237 1.8044434-.0415039.0158691-.0800171.0383301-.1216431.0539551v.0009766c-.3959122.122179-.1493187.1208-.9946289.2753906-1.4099998.2605534-1.9687958.3738518-1.7138672 1.7587891.0807114.4453163.18964 1.5104599.5166016 2.671875.295166 1.1174316.7639771 2.2312012 1.4061279 3.3791504l-8.9387207 5.5305176c-1.030056-.2709312-2.017971-.3218918-3.2750244.0258789-.1251221.0290527-.3687744.1010742-.5378418.2661133-.2121658-.1814728-.798687-.2616043-3.0426636-1.5126953-5.1852551-8.8015175-4.7169857-7.9016151-5.3706665-9.1899414-.5439453-1.0732422-1.1601563-2.2890625-1.9819336-2.9140625-.8422852-.6455078-1.6503906-.2138672-2.3007813.1337891-2.3041191 1.2337017-5.2889919 1.7519684-6.0253906 2.5439453-.5297852.5410156-.6469727 1.3232422-.7216797 2.0800781-.2490234 2.7138672-.2001953 5.4365234.1455078 8.0908203.0642757.4885025.8073387.3962288.7441406-.0976563-.3388672-2.5996094-.3867188-5.265625-.1430664-7.921875.1505871-1.5226173.4986248-1.7790565 1.2758789-2.0585938 2.1215782-.7576332 3.3799057-1.1430874 4.6748047-1.7675781 1.3881702-.6562271 1.7427044-1.5399704 3.6635742 2.25.5485764 1.0817719-.0976276-.0676003 4.6964111 8.0529785-3.1282959-1.9724121-5.8707886-4.5185547-8.0528564-7.5432129-.288065-.4004784-.8993645.0358543-.6083984.4394531 2.5144043 3.4851074 5.7491455 6.3574219 9.4631958 8.4604492.6240959 1.0588188 1.5240326 2.3545914.9703979 3.4448242-.5371819 1.1130753-1.5168991 1.18507-11.046875 5.2734375-1.747261.7366447-2.5622444.6359596-3.3261719-1.6757813-.3681641-1.0917969-.6850586-2.2373047-.9682617-3.5029297-.1074867-.4807968-.8406849-.3222237-.7314453.1640625.2885742 1.2910156.6123047 2.4619141.9882813 3.5771484.3095703.9355469.7456055 1.9521484 1.6342773 2.3964844 1.1481304.5608902 2.3946762-.1586876 3.642395-.6679688-.0799084.2376556.0417614.1685715.3502808 1.4858398l-8.3406382 5.1618652c-.4699707.2900391-.6099854.9099121-.3200073 1.380127.278862.4400139.8658667.6225853 1.3800058.3198242l7.5655518-4.6855469c.1062622 2.7128906-.729248 5.4504395-2.4467163 7.777832-1.6592712-.5801048-2.7437954.6948204-1.8152466 1.8745117.7886848 1.0013351 2.1850471 1.5683594 3.3803711 1.5683594 1.1361465 0 1.5899239-.8164825.8339844-1.6875-.4046631-.4660645-1.0370483-1.0405273-1.7121582-1.4353027 1.8493652-2.5629883 2.7203369-5.5839844 2.4998169-8.5563965l2.7543945-1.7058105c-.6619892-.2209206-1.2320595-.8228912-1.3099976-1.5400391l-1.8077393 1.1188965c-.2560883-1.0014839-.2965622-1.1951485-.4974976-1.2939453 8.1161079-3.4372749 7.7086163-3.2415276 8.2410278-3.5026855l-5.3258057 3.2976074c.0700073.0600586.1200562.1401367.1200562.2402344.040144.5828896.7163525 1.1349373 1.2999878 1.0097656.0999756-.0097656.1900024.0102539.2699585.0600586l.2210083-.1369629 4.7910767 7.0703125c-1.1765251.6802254-.9090195 2.004879.598938 2.2619629 1.2726364.2140884 2.6539383-.1061249 3.6103516-.8291016.8684273-.6554718.7347488-1.6239548-.6347656-1.8017578-.8091431-.1047363-1.9633789-.1191406-2.8512573.0996094l-4.8764648-7.1962891 8.7950439-5.4484863c.2661591.1075783.1814346.096035.4175415.1760254 2.2433357.7506027 3.5461998-.8783035 2.890625-2.1894531-.0040894-.0078125-.0101929-.0146484-.0144043-.0224609l8.1691284-5.0576172c.8786621 1.2493668 1.5862045 2.0233231 2.1450806 2.6914063 1.6140175 1.9706001 1.7247353 2.0843124 2.0512695 1.8847656 1.418457-.7392578 2.6645508-1.8300781 3.6030273-3.1552734.2870979-.4054527-.3269806-.838871-.6123047-.4335938-.8178711 1.1552734-1.887207 2.1181641-3.1220703 2.8085938-.3571587-.3760643-1.207653-1.417202-1.5703125-1.859375-3.3806686-3.8283043-4.2784233-6.4891243-4.699707-9.5507813-.0323524-.2499847-.1569748-.7588253-.0727539-.8505859.1422234-.1185207.9503174-.2687645 1.3443604-.3464355 2.7148132 4.3733749 11.3443375 3.0060501 12.4827271-5.1564941l2.5824585 4.90625c-.916317.6040173-.4445381 1.9335938.5753174 1.9335938.4978256 0 .9658051-.3498154 1.0402832-.9255371.4647293-.0019169 1.9273376.1717815 3.1433716-.1862793.0513763.8501472-.0888901 1.3537712-.1036377 1.4589844-.0181885.0048828-.0368652.0041504-.0546265.012207-.425293.1875-.9414063.1601563-1.3442383-.0703125-.4322052-.2446442-.8016815.4072952-.3710938.6523438.4392242.2500763.9882202.3550606 1.5513306.2463379-.4527817 1.1833725-1.6927872 1.0122223-2.7373657.3132324-1.3715744-.9172897-1.7748642-1.6522675-1.9355469-1.8339844-.4931641-.65625-1.0517578-1.4013672-2.0161133-1.5371094-1.2011719-.1445313-2.2089844.8691406-2.5405273 1.9003906-.60532 1.7554245.1757584 3.4150772-1.1181641 6.2988281-.2030106.4529533.4826469.7578125.6845703.3066406 1.4343643-3.1976128.5500946-4.6420898 1.1450195-6.3681641.2446289-.7617188.953125-1.4902344 1.7304688-1.3945313 1.2211113.1724777 1.3122978 1.7009087 3.6333008 3.2509766.9985353.6689456 2.4018556 1.0537112 3.3476564.1298831zm-44.7905274 31.0878906c-.0341797.0498047-.206543.1259766-.5385742.1035156-1.6879253-.0744095-3.1795788-1.3735962-2.8374023-1.8671875.1915512-.2778549.7085667-.2516212 1.0581055-.140625 1.0949497.3478317 2.4157695 1.7551193 2.317871 1.9042969zm13.9301758-5.6513672c-.0111809.2348175-1.4443626 1.2802315-3.2822266.9667969-.8937607-.1514549-.9363747-.6870232-.125-.9902344 1.0093003-.3784866 3.3070145-.2304268 3.4072266.0234375zm-4.0317993-16.6945801c.1872215.094326 1.8602715.9191895 2.0742798.9191895.03479 0 .0645752-.0197754.0976563-.0292969.0933456.327137.5040016.8252487.7307129 1.0751953l-3.3562622 2.078125c1.4147529-1.092804 1.2991943-2.4866524.4536132-4.0432129zm6.6870728 2.7697754c-.7267113.2416077-1.6423378-.1949883-1.5073242-.1367188-.640625-.2285156-1.2211914-.6152344-1.6806641-1.1210938-.1526642-.1646996-.5042801-.6140747-.5795898-.7587891 1.1544342-.3094368 2.0349274-.3617783 3.2485352 0 .4593582.1493492.912899.3687592 1.1401367.8017578.271408.5428201-.1144029 1.0491945-.6210938 1.2148439zm23.5639648-28.7714844c.8954773 1.5614967 1.4065704 3.42276 1.5083008 5.0117188.0323944.5111351.7790833.4382744.7480469-.046875-.0252075-.3964844-.0769653-.7880859-.1410522-1.1750488.5922775.3413906.7603912.5929394.9140015.7687988-1.2890625 1.5927734-3.5023804 2.4516602-5.5195313 2.1054688-.0080566-.0014648-.0155029.0014648-.0234985.0004883l-1.1514893-2.1877441c.6630173-.4845619 1.2600365-.7848454 2.0805054-1.0407715.0762939.7268066.2821655 1.4082031.6306152 2.0258789.2423897.4332104.8972244.0643311.6533203-.3671875-.8990403-1.5982934-.696846-3.6736451.3007812-5.0947267zm-9.6574707 7.3579102c.1600342-.1298828.4000244-.0998535.5200195.0700684.1300049.1601563.0999756.4001465-.0700073.5200195-.3699951.2900391-.6199951.7299805-.6699829 1.1999512-.0200195.1901855-.1900024.3300781-.3800049.3300781h-.0400391c-.1999512-.0200195-.3499756-.2099609-.3299561-.4099121.0700074-.6701661.4299928-1.3100586.9699708-1.7102051zm-4.6303711 5.7568359c2.4490013-.9796009 4.4908218-2.1435146 6.4880371-4.3549805.3417969-.3769531.6782227-.7695313 1.0166016-1.1630859 1.9403-2.2622795 2.298214-2.4297066 2.5177612-2.6494141l1.0505981 1.9960938c-.2561492 8.0308418-8.3675002 10.0426292-11.072998 6.1713867zm14.8483887 1.1401367c-.395668-.0280952-.3751755-.6220703.0239258-.6220703.0073242 0 .0151367 0 .0229492.0009766.1710587.012146.3001022.1620464.2871094.3339844-.0058594.0830078-.1565628.2975463-.3339844.2871093zm.8674316-.9331054c-.0165405-.0227051-.0223389-.0505371-.0407715-.0717773-.1584473-.1835938-.3751221-.2883301-.6094971-.3325195l-2.8794556-5.4702148c.1875.0168457.3744507.0488281.5621948.0488281 1.9042358 0 3.7802734-.8574219 5.0255127-2.3051758 1.0106812 1.7176991.4970398 3.0893803.6229248 4.8891602.0886993 1.0443649.3870163 1.9633923.5707397 3.0410156-1.0210722.3420485-2.1739958.2400664-3.2516478.2006835z"/><path d="m24.7924194 32.1054688c-.038269.2548828.1373291.4924316.3922119.5307617s.4924927-.137207.5307617-.3920898c.0915814-.6099702-.831232-.7497006-.9229736-.1386719z"/><path d="m25.0684204 33.4338379c-.038269.2548828.1373291.4924316.3922119.5307617s.4924927-.1374512.5307617-.392334-.1373291-.4924316-.3922119-.5307617c-.2548828-.0380859-.4924926.1374512-.5307617.392334z"/><path d="m11.1354361 28.0205078c.0145264.0415039.0341187.0822754.0640259.1181641 1.5649414 1.8662109 3.9892578 2.8808594 6.4023447 2.8808594 7.6129532 0 11.2876472-9.8810444 5.6986084-15.3071289 1.7230816-.7966805 1.3816357-2.2815809.1051636-2.5131836-.4400024-.0700684-.8900146.0197754-1.3300171.0998535.6500244-.5900879 1.2900391-1.2700195 1.460022-2.130127.1300049-.6499023-.1400146-1.3798828-.6900024-1.7597656-1.2238693-.8450193-2.6304302 1.1282864-3.4700317 1.7998047-1.5 1.2001953-3.579957 1.2700195-5.4499521 1.75-2.717886.6976128-5.1528397 2.3182888-6.960022 4.9001465-.4699707.6499023-1.7800293.5998535-1.5999756 1.7700195.1099854.7299805 1.039978 1.1999512 1.6900024.8498535-1.6223311.7487106-1.4511952 2.3023739-.6100464 2.6201172.5300293.2099609 1.2300415-.3000488 1.0900269-.8500977.3152998 1.2024937-.5742718 3.1496468 3.5998534 5.7714844zm4.2801513-8.2214355c1.4460516.3095417 2.2518072-1.0237408 1.5599985-1.9099121-.1699829-.2099609-.4299927-.3601074-.710022-.4001465 2.1438599-.25 4.2576294-.746582 6.2838135-1.4768066 4.2305622 3.7914257 3.2799339 10.7979336-1.4710083 13.3950195-2.3134155 1.2695313-5.2576914 1.0961914-7.5013437-.2429199-.2319946-.7390137-.0529175-1.6018066.4602051-2.1818848.2070313.0908203.4315186.1430664.6578369.1425781 1.1607323 0 1.5897493-1.1595802.9814453-1.3105469-.2006836-.0488281-.4042969.0703125-.4550781.2724609-.0833445.3279133-.8215322.4425163-1.1982422-.0234375-.4377451-.5441647-.0527611-1.365242.6464844-1.3740234.4931822-.006979.4879055-.75-.0048828-.75-.0014648 0-.003418 0-.0048828 0-.057251.0007324-.1116333.0197754-.1681519.0268555-.0295277-.8163013.3264771-.4680672.5238037-.6472168.2000122-.1899414.1400146-.5600586.1500244-.8100586.0288134-1.093483.0705748-1.6144047-1.0300293-3.1398926.4299927-.0200195.8400269.3398438 1.2800293.4299317zm-5.5100097-2.5500489c.3470163-.3467331.8751011.1851025.5200195.5400391-.9800415.9399414-1.4200439 2.3999023-1.1199951 3.7299805.0586605.2346401-.1327553.4599609-.3600464.4599609-.1699829 0-.3299561-.119873-.3699951-.2900391-.3599854-1.5798339.1600341-3.3198242 1.3300171-4.4399414z"/><path d="m67.1880493 25.8742676c-.3781738-.027832-.7072754.2563477-.7350464.6345215s.2563477.7072754.6345215.7351074c.3782349.0275879.7073364-.2563477.7351074-.6345215.027771-.378418-.2563476-.7075195-.6345825-.7351074z"/><path d="m23.5500488 20.6599121c.43396 0 .7857666-.3518066.7857666-.7856445 0-.434082-.3518066-.7858887-.7857666-.7858887-.4338989 0-.7857056.3518066-.7857056.7858887.0000001.4338379.3518067.7856445.7857056.7856445z"/><path d="m20.8180542 21.9509277c.4338989 0 .7857056-.3518066.7857056-.7858887 0-.4338379-.3518066-.7856445-.7857056-.7856445-.43396 0-.7857666.3518066-.7857666.7856445 0 .4340821.3518066.7858887.7857666.7858887z"/><path d="m21.0324707 24.6777344c0 .0009766.0004883.0009766.0004883.0009766.0004883.0009766.0004883.0009766.0004883.0009766.2583008.3710938.4995117.6992188.8369141.9638672 1.0963612.8553181 2.3934402.2944012 2.6298828-.9570313.0024414-.0126953.2050781-1.2373047-.3325195-1.59375-.5551796-.3689251-1.018095.377533-1.152832.4833984-.4821606.3853245-1.1602478.5568981-1.4897461.5615234-.3475362-.197401-.7192861.2160454-.4926759.5400391zm2.7358398-.8134766c.1929245 1.3537426-.8029251 1.9227753-1.6899414.9492188.6916619-.1659985 1.2256432-.409338 1.6899414-.9492188z"/><path d="m30.3259277 32.1210938c-.4777069.1459007-.2493229.8668938.2197266.7167969 3.7158813-1.1403809 6.805603-3.9521484 8.3153076-7.5341797.9679108-.3833847 2.0459747-1.2867451 2.6304932-2.4716797 1.4133682-2.8741341-1.7320099-4.6884079-3.1503906-1.7666016-.5036736 1.0397282-.7116661 2.2230968-.5302734 3.5361328.0150146.138916.0549927.4384766.2581787.6257324-1.4566651 3.2751465-4.3137818 5.8410645-7.7430421 6.8937989zm8.6899414-10.7275391v-.0009766c.983593-2.0313339 2.7687531-.8551617 1.8027344 1.1074219-.3974609.8066406-1.0610352 1.4882813-1.8691406 1.9189453-.1261864.0706635-.2807922.1592178-.3813477.1992188-.1673202-1.1377716-.0490799-2.2025509.4477539-3.2246094z"/><path d="m44.7492676 15.9042969h.0053711c.2045898 0 .3720703-.1640625.375-.3691406.0317383-2.1328125-.5732422-4.3046875-1.7026367-6.1142578-.1098633-.1767578-.3413086-.2285156-.5170898-.1201172-.175293.1103516-.2290039.3408203-.1196289.5166016 1.0546875 1.6894531 1.6191406 3.7158203 1.5893555 5.7060547-.0029298.2070312.1621092.3779296.3696288.3808593z"/><path d="m47.3186035 14.3710938c.2050781 0 .3725586-.1650391.375-.3701172l.0668945-5.3652344c.0024414-.2070313-.1630859-.3769531-.3706055-.3798828-.0014648 0-.0029297 0-.0043945 0-.2050781 0-.3725586.1650391-.375.3701172l-.0668945 5.3652344c-.0024414.2070313.1630859.3769531.3701172.3798828z"/><path d="m49.6276855 14.2636719c.1357422-1.0996094.8115234-2.1337891 1.7636719-2.7001953.427536-.2530079.0416145-.8996515-.3828125-.6445313-1.1474609.6816406-1.9614258 1.9287109-2.125 3.2529297-.0608864.4917822.6834679.584753.7441406.0917969z"/></g></svg>