<svg id="Layer_1" enable-background="new 0 0 75 75" viewBox="0 0 75 75" xmlns="http://www.w3.org/2000/svg"><g id="Hula_Hoop" fill="rgb(0,0,0)"><path d="m39.521492 56.2344666.5387573-2.953125c.7713814 1.0333595 1.1983795 2.2264671 1.4851685 3.5009766l.0332031.1499023c.1171875.5366211.2416992.7807617.9477539.8637695 2.1040077.2381096 4.6674805-.6270332 6.5-1.7666016.1420898-.0878906.2084961-.2592773.1630859-.4194336-.0126953-.0458984-.0283203-.0878906-.0444336-.1303711l-.3500977.1347656.3173828-.2290039c-.6953049-1.8432846-.9366837-2.4844894-1.1416016-3.0366211-.1730003-.4672165-.8757057-.2021942-.703125.2607422.4069099 1.0943642.963829 2.5616875 1.105957 2.9379883-1.6270599.9510231-3.9033546 1.7105713-5.7612305 1.503418-.1875-.0219727-.2436523-.0444336-.2363281-.0327148-.0701714-.1251717-.3258057-1.7241936-.956543-2.9331055-.425808-.9389038-.63451-1.0335312-1.1757813-1.809082v-.0097656c0-.5368004-.7436523-.5156021-.7436523-.059082-.8937569 4.6783409-.7453728 5.4646568-1.9550781 5.8701172-.4833984.175293-1.0839844.1845703-1.6987305.1713867-1.1499023-.0366211-2.4272461-.1464844-3.0380859-.9882813-.6916618-.9462929-.3675842-2.1874428-.0578613-7.2380981 1.4760132-.5928345 2.9708252-1.2441406 4.477356-1.9503784 4.5683289-.4505768 5.6248512-.5000496 6.2357788-.6455078 2.1801414-.4906998 1.7972603-.1186218 2.8867188 2.7583008l.5708008 1.5097656c.1799126.4638023.877758.1930656.7001953-.2695313-1.2812042-3.4258652-1.2061462-3.3709831-1.5400391-4.0898438-.2333984-.4897461-.6474609-.7666016-1.2353516-.8222656-.5779533-.0516853-1.152523.1061897-1.5546875.1806641v-.0009766c-1.2878838.2152176.1883125.0102806-4.0888062.4263306.2758789-.137207.5517578-.2754517.8279419-.4160767 4.8957481-.3836937 5.7527008-.2591972 6.4171143-.9960938.6523438-.7231445.4731445-1.7954102.3295898-2.6567383l-.0174561-.1074829c6.5664063-4.0536499 13.4293213-9.5841675 11.9803467-12.3983765-1.6786041-3.2575665-11.5700798.3065643-14.9746094 1.675293-.8294678.3251915-.606514.2365112-.6827393.2701416-.2801285-1.4892197-.7490005-2.6599808-2.2186279-3.1495361-.9970245-.3323421-1.4913292-.0643082-6.9887695 1.5078125-.8808594.2519531-1.8784161.5371094-2.6777325 1.1733398-1.2885742 1.0268555-1.7397461 2.7724609-1.1767578 4.5556641.23876.7572136.13554 1.7016602.1703491 2.5770264-.0707397-.0028687-.1424561.0073853-.2074585.0465088-6.7802734 4.090332-14.1625986 9.8969727-12.6523438 12.796875 1.595768 3.1013069 11.3877831-.3940506 14.6472168-1.6624756-.3023453 5.0833092-.6170883 6.2180367.2233868 7.3670654.809082 1.1152344 2.2929688 1.2543945 3.6264648 1.296875 2.5793689.0347023 3.3141406-.6498794 3.6933597-2.7641601zm-6.7164307-7.0434571.0162354-.2460938c.0039063-.0517578.0405273-.5029297.2163086-.5029297.3847008 0 .7100029-.0267601 1.8946533-.1513672-.7131958.3133546-1.4219971.6135255-2.1271973.9003907zm13.0855713-3.9863281c-.372467.4124031-.957634.3806076-4.1800537.6200562 1.4061203-.7438698 2.37883-1.2738762 4.3563843-2.4573975.1116333.6879272.1981201 1.421814-.1763306 1.8373413zm4.5737305-14.4594727c1.8401566-.4794636 6.7399673-1.5458965 7.6083984.1425781.8199463 1.5921631-2.8820801 5.9396362-11.4736938 11.2698975-1.7441635-4.4324608-1.513916-3.9040375-2.1195679-5.364624-.4733276-1.142395-.9476929-2.3203125-1.227417-3.522644.0726318-.0151978.1412354-.0493164.192749-.1174927.4579125-.1393624 3.3312569-1.4463387 7.0195313-2.4077149zm-18.7998028 1.862793c.682127-.5429688 1.5639629-.7954102 2.416502-1.0395508 5.4645958-1.5670986 5.8300209-1.7557392 6.5454102-1.5166016 1.2576408.4181137 1.5329132 1.5148602 1.7666016 2.8261719.2602539 1.4658203.8364258 2.8569336 1.3935547 4.2021484.6248474 1.5080643.3549042.8806648 2.1577148 5.4624023.0006714.0062256.0019531.0132446.0026245.0195313-2.2584496 1.3738747-4.0805168 2.3603554-6.1213379 3.4036865-.0025635.0001831-.005188.0004272-.0077515.0006104-5.9048538.4151573-6.4930954.5972481-7.3115234.1791992-1.310545-.6782227-1.3706036-2.1699219-1.4311504-3.6689453-.1361523-3.6467857-.1470909-3.1467628-.1416016-4.081543.0043945-.6831055.0083008-1.3896484-.1982422-2.0439453-.3657227-1.1601562-.3139648-2.7529296.9291992-3.743164zm-.0732422 17.0742188c-8.3647461 3.2514648-12.9106445 3.3012695-13.5942383 1.9702148-.8297729-1.5939941 3.1777344-6.2349243 12.2250366-11.7174072l.1060181 2.6280518c.0605469 1.5014648.1357422 3.3696289 1.834959 4.2495117.9642944.4934464 1.6902924.3412476 5.9071045.0339355-.3324585.161499-.6629639.3117676-.9946289.4680176l-1.7088623.1572266c-1.0370026.119278-1.7274818.2202148-2.3291016.2202148-1.1355629 0-.9519768 1.6921921-1.0045166 1.8114624-.1466655.0578613-.2955302.1220703-.4417705.178772z"/><path d="m43.8920975 31.7686462c1.7619629-2.6670532 2.8846436-5.755127 3.269165-8.946167.2732544-.1517944.4689941-.5510864.7327881-1.2921143.3635941-1.0291348.9259567-2.3995838.3588867-3.2709961-.3706055-.5688477-1.1826172-.7919922-1.8447266-.5107422-.9624825.4088287-1.5268517 1.6946201-.8374023 3.2124023.0444298.100132.0771446.1738625.0327148.0737305.3532715.7935791.6083984 1.2809448.8317871 1.560791-.354248 3.124939-1.4458618 6.1512451-3.1691895 8.7600098-.2756957.4170838.3573114.8197175.6259767.413086zm2.3618164-11.1171875h-.0004883c-.8651657-1.9103355.8384056-2.8006802 1.3706055-1.9829102.4042549.6211205-.3615532 2.4351158-.7045898 3.3217773-.1210938-.1928711-.3193359-.5605469-.6308594-1.2607422-.0004883-.0004881-.034668-.0771483-.034668-.0781249z"/><path d="m14.8950281 27.9424744c-1.2156591-.3553028-2.2366886.6508503-1.7050781 1.8989258.6300468 1.3463802 3.5003462 2.7430878 4.0117197 2.5517578.0090332.0108032.0228271.0157471.032959.0253906.012085.0116577.0195313.0264282.0334473.0366211 5.9647617 4.362709 12.3514748 4.4938622 12.2514648 4.472168.4784679 0 .5047169-.7162399.0253906-.7490234-4.1782837-.2912598-8.3407593-1.8062134-11.7383423-4.2635498-.3061523-1.1243286-.8720093-2.1843262-1.6596069-3.0743408-.2944346-.3242189-.7016611-.7187501-1.2519541-.8979493zm-1.012207.9257812c.1549587-.2358055.5203896-.2882652.7900391-.2094727.9234924.3013763 1.9052134 1.9587021 2.2607431 2.953125-1.0567989-.3299674-3.6938229-1.8141918-3.0507822-2.7436523z"/><path d="m34.9594803 59.8999939-1.0821533 6.3895874c-.6494293-.0235291-1.0583763.5478897-1.1033936 1.1074829 0 0 0 0-.0004883 0-.0322876.4087524.127224 1.2860489.4140625 1.7163086.2351494.3556213.6269188.5997391 1.0556641.5717773 1.1198692-.079361 1.7148705-1.9790802.3442993-3.0986938l1.1112671-6.5614624c.0826721-.4867096-.6558037-.6174927-.7392578-.125zm-1.147461 8.7988281c-.1786423-.269043-.3115349-.9795761-.2910156-1.2412109.0163078-.194397.1623344-.4609528.3544922-.4321289.1674805.0239258.4638672.3012695.6098633.5708008.4400749.8087463-.2071724 1.8063125-.6733399 1.102539z"/><path d="m45.8471756 58.3848572-.9551392 7.4689331c-2.1474533.0619125-.7737885 3.7102661.9155884 3.7102661 1.6586266 0 1.4689178-2.7965775-.1785278-3.5603027l.9622192-7.5241699c.0632782-.4921418-.6810913-.5862733-.7441406-.0947266zm.144043 10.3833008c-.6427689.3861694-1.7122917-1.4277496-1.4042969-2.0297852.097374-.1854706.6473312-.2617111 1.1220703.2387695.6743813.7121277.5852127 1.6078873.2822266 1.7910157z"/><path d="m37.4556961 18.7377014c.6824951 0 1.2357178-.5532227 1.2357178-1.2356567 0-.6824951-.5532227-1.2357178-1.2357178-1.2357178-.6824341 0-1.2356567.5532227-1.2356567 1.2357178 0 .6824341.5532226 1.2356567 1.2356567 1.2356567z"/><path d="m30.6773167 19.483551c-.6824341 0-1.2357178.5532227-1.2357178 1.2356567 0 .6824951.5532837 1.2357178 1.2357178 1.2357178s1.2356567-.5532227 1.2356567-1.2357178c0-.682434-.5532227-1.2356567-1.2356567-1.2356567z"/><path d="m33.5415115 23.1031189c-.1889648-.0859375-.4106445-.0004883-.4956055.1889648-.0844727.1889648 0 .4106445.1889648.4956055 2.3986931 1.0764961 5.3207703.1666031 6.6328125-2.2275391.2388649-.4355717-.4202194-.7956429-.6572266-.3603516-1.1000899 2.007311-3.5745276 2.8436089-5.6689452 1.9033204z"/><path d="m59.6987381 27.3438416c-1.6240234-1.1220703-3.8657227-1.2197266-5.5805664-.2421875-.4275742.2439976-.0639687.8968582.3720703.6513672 1.4682617-.8374023 3.3911133-.7539063 4.7817383.2080078s2.1459961 2.7304688 1.8803711 4.4008789c-.2680664 1.6782227-1.4755859 3.0883789-2.4975586 4.1293945-.3476028.3546257.1881638.8793259.5351563.5253906 1.1000977-1.1206055 2.4013672-2.6489258 2.7026367-4.5366211.3105468-1.9492187-.5712891-4.0131836-2.1938477-5.1362304z"/><path d="m13.2407312 50.5245056c-.4804688 1.9135742.3032227 4.0537109 1.90625 5.2036133 1.6074667 1.1519394 3.8836412 1.2051773 5.54004.1386719.4161587-.2688675.0128002-.8977394-.40625-.6308594-1.3833008.8911133-3.3588867.8427734-4.69629-.1171875-1.3374023-.9594727-2.0170898-2.8149414-1.6162109-4.4116211.1202831-.4799614-.6055155-.6660194-.7275391-.1826172z"/><path d="m21.2908421 24.2154236c1.0937252.8268585 1.6030331.7718582 2.2546387 1.0513306-.0043621 1.6037407 1.7033672 2.4949551 2.7207031 1.5655518 6.2110043 6.2107887 14.5114346 2.2625065 15.8129253-2.8346558.7359848-2.8772202-1.1684303-6.3071651-2.6700439-8.8830557 1.1149521-2.5522604 1.6253319-5.0135269-.7400513-6.4873047l-1.383667-.5418091c-.4838257-.0968018-.9869995-.0870972-1.4707642.0193481-.4547729-1.4804688-1.8578491-2.631897-3.3963013-2.7770386-1.4720707-.1337962-2.9455757.6355286-3.5999737 1.7099609-.1486359-.2698865-.5230579-.2641439-.6569824.0194092-1.1065674-1.0043945-2.5323486-1.5786133-4.0064087-.9069214-1.4901123.6870117-2.3319092 2.5351563-1.8577881 4.1026611-.9482422-.5709229-2.2738647-.2612915-3.0189209.5708618-1.0735207 1.214839-1.25597 3.4572601.8127441 5.8773184-.0143433.0103149-.0338745.0056152-.0469971.0182495-.1236572.1172485-.1242065.2905884-.0499268.4346924-1.4131964 2.2819673-.9781111 5.3480779 1.2968142 7.0614015zm3.1975708.3937378c.3722534.5929565.7927246 1.1570435 1.2575073 1.680481-.7467785.6334895-1.9198971-.5954095-1.2575073-1.680481zm16.8641338-.7970581c-.7708893 3.0196362-4.4956665 5.8274918-8.7744141 5.4291992-3.0403423-.2802734-5.9274883-2.4362183-7.5992413-5.2518311.0256252-.1566677-.0424957-.3286724-.2362061-.4034424-.3668213-.6795044-.6550293-1.3936157-.8652954-2.1248779.1079502-.7467442.5325298-1.3527203 1.2451782-1.590271.3482666-.1064453.6094971-.0097046.9481201-.0097046-.4849243 0-.5924683-2.506958-.5050659-2.8859253.6383381-2.7671595 3.6376934-3.5058069 5.4568481-1.9465322-.4872437-.4176025.0786133-1.807312.3314209-2.1974487.4433594-.6841431 1.1914043-1.1848755 2.0080547-1.2730103 1.5638428-.1687622 3.5237427 1.5244751 3.5014038 3.1315308.3612671-.2996216.8813477-.3637695 1.3198242-.2025146.2871933.5131645.3010864.522027.8391724 1.4560547-.0015259.0088501.0009155.0178833-.0007935.0267334.0023193-.0048828.0048828-.0107422.0072021-.015625 1.2809299 2.2240438 2.9588817 5.3709439 2.3237918 7.857665z"/></g></svg>