<svg id="Layer_1" enable-background="new 0 0 75 75" viewBox="0 0 75 75" xmlns="http://www.w3.org/2000/svg"><g id="Ice_Cream" fill="rgb(0,0,0)"><path d="m27.6045189 50.9635582c.1601563-.5224609.7861328-1.3388672.9804688-1.3378906.2262154.1600075.2369614 1.4527893.2792969 1.7265625.094368.6188049.0698967 1.5059471.3383789 2.15625.1900959.4617157.630518.5861092 1.7514648.6171875.2768555.0185547.5537109.0273438.8310547.0273438 3.1468735 0 5.3974266-1.2399063 5.6401367-1.3251953.5825195-.2548828 1.6674805-.7304688 1.4365234-1.7021484-.0131836-.0546875-1.4677734-6.1582031-1.4677734-6.1582031-.1464233-.6175652-.7969284-.9912224-1.3945313-.7783203-3.2537994 1.1630096-9.7176361.0506516-13.0898438-.96875-.2505016-.0742226-.6970654-.3601074-1.144043-.2431641-.6835938.1835938-.5981445.7373047-.5571289 1.0029297.2567348 1.7025604-.1110096 4.5044098-1.4667969 6.8623047-.1381836.2392578-.3276367.5673828-.2651367.9462891.0620117.3701172.3569336.8359375 1.4111328.9482422l2.9344482.3105469c-.2799187.2209358-.082592-.3998032-.2058105 13.9570274-.4773521.5778122-.3866577 1.5026093.8079834 2.1416016 1.3240833.7061844 4.1265621 1.2524185 4.71875-.1064453.1899414-.4375.0800781-.9902344-.2797852-1.4082031-1.05793-1.2289658-3.2459259-1.5961456-4.4946899-1.1350098.0222301-13.9103394.1415806-13.183403-.0327148-13.3945274l.9702759.1027832c1.9882222.2155263 1.9183007-.9897731 2.2983399-2.2412112zm-2.6259766 16.1445274h.0004883c2.6819496-.4334412 4.8028984 1.9237137 2.5654297 2.0097656-.9609375.0429688-1.918457-.1796875-2.7666016-.6337891-.3540039-.1884766-.7177734-.4990234-.6782227-.8037109.0400391-.3037109.4702149-.5058593.8789063-.5722656zm-3.0527343-20.5039024c.6686954-5.3875961-2.9583817-1.8226166 10.0073242-1.1855469 3.7350426.0936165 4.171093-.7017326 4.5600586-.5009766.0859375.046875.1484375.1279297.1713867.2236328 0 0 1.4663086 6.1533203 1.4677734 6.1591797.0795898.3339844-.4316406.5878906-1.0083008.8408203-.2822685.1179237-1.1747017.6016655-2.6040039.9414063-1.7365494.4116135-2.817524.3047523-3.777832.2851563-.6572266-.0175781-.8227539-.0878906-.8461914-.1445313-.140625-.3408203-.1801758-.8251953-.21875-1.2929688-.0637455-.7968063-.0682487-.5011253-.097168-1.0361328-.0471268-.855938-.1287956-2.0136719-.9873047-2.0136719-.9033203 0-1.628418 1.6123047-1.7050781 1.8642578-.1982384.6407318-.2169437 1.4166946-.6547852 1.6552734-.3279972.1795998-.5367546.0813866-5.2661133-.4091797-1.8860473-.1991881.3895665-.7926901.9589845-5.3867186z"/><path d="m35.1687279 17.8883629c.4379883.0498047.8460693-.3759766.911499-.9506836.0653687-.5749512-.2366943-1.0815439-.6747437-1.1313486s-.8461304.3759775-.911499.9509287.2366944 1.0812988.6747437 1.1311035z"/><path d="m35.8882103 67.8424606c1.0267906.3645477 2.1394958.4496078 3.2226563.2392578 1.674202-.3230896 1.8093529-1.6593094.9375-2.4042969-1.1045532-.9482422-2.796936-1.0212402-3.9839478-.6894531l-1.5824585-10.364254c-.0732613-.4860687-.8164177-.3802528-.7412109.1132813l1.6102295 10.5461388c-1.08704.6611785-1.0729409 1.9911499.5372314 2.5593261zm.2416992-2.0976562s0 0 .0004883-.0009766c2.5727348-.8296967 5.0388031 1.1806183 2.8383789 1.6015625-.9453125.1855469-1.9233398.1103516-2.8310547-.2099609-1.0734138-.3799896-1.0227089-1.0665589-.0078125-1.390625z"/><path d="m48.8642845 14.6617994h.019043c.2070313-.0107422.3662109-.1865234.355957-.3935547l-.1772461-3.546875c-.0102539-.2060547-.1967773-.3603516-.3930664-.3564453-.2070313.0107422-.3662109.1865234-.355957.3935547l.1772461 3.546875c.0097656.2001953.1757812.3564453.3740234.3564453z"/><path d="m51.9316673 10.8551588c-1.1088867 1.328125-1.6396484 3.0771484-1.4560547 4.7988281.0530739.4978895.7987747.4139662.7460938-.0800781-.159668-1.4980469.3208008-3.0820313 1.2861328-4.2382813.3169556-.3812847-.2564583-.860856-.5761719-.4804687z"/><path d="m36.1240501 20.1520348c-.1289063.1923828-.3833008.3046875-.6083984.2783203-.2558594-.0322266-.4960938-.2119141-.7836914-.4443359-.3888893-.3111134-.8557472.2736149-.4707031.5839844.2836914.2285156.6728516.5429688 1.1611328.6044922.8881607.113039 1.7628899-.7634487 1.222168-1.1259766-.171875-.116211-.40625-.0683594-.5205079.1035156z"/><path d="m23.8896751 10.2164869c-3.0424957 1.1901245-4.0410576 6.3918505.4086914 9.8828135.6860466.5647945.7530079.6087742.9660645.7202148 1.2663116 2.5887394 4.3477707 4.6712303 7.3747559 4.1176758 3.2202148-.5957031 5.9130859-3.3173828 6.402832-6.4765625.0192299-.3885574.6105461-2.8272943-.2079468-5.7128916.4467506-.1417007.504425-.8272963.5263062-1.296875l.0048828-.1054688c.128418-2.4199219-1.5786133-5.53125-4.230957-6.1259766-1.4047852-.3232422-2.8847656.1962891-3.6918945 1.2490234-3.9186192-3.1019168-8.2527218-.2829132-7.2954102 2.9121094.0668945.2236328.1787109.5976563.097168.6679688-.0639649.0556641-.2182618.1152345-.3544923.1679688zm14.4106446 8.13379c-.4418945 2.8496094-2.8803711 5.3095703-5.7973633 5.8486328-2.6306152.4873047-5.2405396-1.3037109-6.4192505-3.4155273.1021118-.1079102.163269-.2478027.2002563-.3825684.0548096.1245117.1012573.2531738.1848145.3635254.5060844.6691799 1.4700851.9216919 2.2441406.5673828.4508877-.2032509.1418266-.888979-.3105469-.6816406-.4448242.1982422-1.0419922.0488281-1.3354492-.3388672-.2939453-.3876953-.2768555-1.0048828.0375977-1.3759766.1289063-.1503906.3554688-.2714844.4907227-.2070313.3938274.1948624.7517681-.344492.3900757-.626709-.0656509-1.7780533 1.3860359-3.1313648 3.0064087-3.0646982.2384186-.0095844.3901196-.1802845.3842773-.3867188-.050106-1.6034012 1.6768456-3.2193909 5.0102539-2.5078125.0004883 0 .0004883 0 .0004883.0009766.7727623.164773 1.3440933.3577404 1.6283569.4521484.3135986.9516602.4663696 2.0004883.4741821 3.15625-.544323-.3232059-1.0842438.2106943-1.1574707.8544931-.0836029.7353287.4445763 1.3762436 1.0604248 1.0371094-.0363998.3099863-.0596161.4591009-.0919189.7070314zm-13.5644532-7.7353525c.6429958-.5573568-.0007477-1.5293837.0058594-2.0117188.0351143-2.4663091 3.4708519-4.0159125 6.5332031-1.296875.1867466.1643372.4642849.1051216.5771484-.0986328.5522461-.9980469 1.8935547-1.5419922 3.1162109-1.2568359 2.2241211.4990234 3.7602539 3.2382813 3.6479492 5.3554688-.0052299.1157007-.0108414.4464712-.0732422.6699219-.655529-.2300491-1.4061165-.4400568-1.9990234-.5673828v.0009766c-3.5476799-.7643709-5.6805382.8884106-5.9023438 2.8867188-1.9255848.1532297-3.4021931 1.7300005-3.421875 3.66504-.865593.1867409-1.4326935 1.2365494-1.6445313 2.1835938-.2445831-.1448746-.6285152-.4836197-.8139648-.6357422-.8105469-.6357422-1.4550781-1.3515625-1.9150391-2.1269531-1.6815758-2.8362646-.4976273-5.7707615 1.3139648-6.4658213.2031253-.0791017.4125979-.1601564.5756838-.301758z"/><path d="m24.0058861 16.0504723c.1098537.4828129.8414593.3185196.7314453-.1660166-.2802734-1.2353516-.0209961-2.5966797.6933594-3.6425781.2788105-.4083014-.3369255-.8330402-.6191406-.4238281-.8300782 1.2158202-1.1313477 2.7978515-.8056641 4.2324228z"/><path d="m53.9858665 25.8405113c.0319557-.2833042.0288086-.2564373.0288086-.2773438 0-.1957321-.1481628-.3798828-.3852539-.3798828-.1266365 0-.2644997.0833912-.333252.230957-.0276299.1000824-.0161743-.0792198-.0544434.3481445-.1118088.5603657-.4300385.9743633-.7583008 1.1630859-.1242828.0707722-.1928825.2540894-.1891479.3759766.0635033.2312012.2205734 1.1339931-.4124146 1.8349609-.8686981.9919033-2.4500694.7507877-2.8237305-.5537109-.0730782-.2568111-.3870735-.3577042-.59375-.1894531-1.0678711.8468285-2.747776.4233952-3.0043945-1.171875-.0375023-.2371655-.2915497-.3831158-.5209961-.2841797-1.2421227.5505505-2.4918442-.6552029-2.0029297-2.0302734.2463646-.5503273.6859856-.8905296 1.1547852-1.0380859.1112671-.0344238.1897583-.1245117.2294922-.2324219.0032959-.0068359.0097656-.0107422.0126953-.0175781.0011597-.0029297-.0001221-.0058594.0009766-.0085449.0015869-.0056152.0064697-.0092773.0078125-.0148926.0050049-.0209961-.0001831-.0419922.0010376-.0634766.0640068-.3836422-.341095-.3144627-.2578735-1.0546875.1744881-.590847.7147522-1.0081005 1.543457-.8974609.1083984.0136719.2133789-.0175781.2944336-.0888672.1218224-.1077957.1194992-.2235279.1356201-.3293457.1077347-1.1060905 2.8357201-2.3700161 4.8760986-.8825684.8752403.6269283 1.3908691 1.7923489 1.4404297 2.8691406 0 .4715004.6292343.5373592.7277222.1347656.0751038-.1771736-.0133209-.4659634-.0272827-.5664063-.6144791-4.9977436-6.8236389-4.675642-7.7033691-1.9423828-.7379189.0054245-1.2749138.2645016-1.7412109.90625-.0085907.0151997-.1295166.2280235-.1362305.2441406-.028801.0641994-.1814461.4360695-.1567383.5019531.0009651.1098633-.0844612.4393673.0853271.8789063-1.3656731.7269516-1.7232552 2.4117813-.9154663 3.6074219l-.0888062 1.7475586c-1.1946411-.6357422-2.46698-1.0754395-3.800293-1.2827148-.2021484-.0390625-.3959961.1074219-.4282227.3125-.0317383.2041016.1083984.3964844.3129883.4277344 1.3652344.2133789 2.6652832.6789551 3.8734741 1.3701172l-.0603027 1.1860352c-.2249756.1328125-.4315186.2729492-.5934448.4086914 0 0 0 0-.0004883 0-.3372192.2832031-.9612427.8129883-1.2323608 1.4143066-.8353882-.2424316-1.6786499-.5327148-2.5137329-.8850098-.3144531-.1277466-.6310005.1874962-.4812622.5043945-2.5147705-.796875-4.8641968-2.1655273-6.7955933-3.965332-.362812-.3394051.1484127-.8863525.5117188-.5488281 3.2089005 2.9899197 6.1890221 3.6312904 6.6060791 3.8457031-.0523872-.4556847.032505.9066887.0612183-3.1323242.0115967-.5083008.0279541-1.0053711.0715942-1.5007324.0447388-.4294434-.2062378-.7744141-.5911255-.9968262-1.0708656-.5556259-3.369648-.0403252-4.6069336.1340332-3.40555.4538326-3.7675362-.6691761-4.6828613-.456543-.9489231.2313499-.7198906.5720673-5.932251 14.0048828-.651144 1.7167091-.3296661 2.553833 1.6105347 2.8869629 3.7834473.6491699 7.6400146.9362793 11.4926758.8674316.7619019-.0153809 1.6268921-.1005859 2.0882568-.7053223.4631271-.6216125.3479271-.5368767.4983521-10.1918945.8515015.3530273 1.7104492.6503906 2.5620117.8935547.0177612.0883789.0333862.177002.0773315.2651367.2480469.4975586.887085.8659668 1.6362915 1.204834l-.1362915 2.6242676c-.0259247.4365959.3097649.7675781.7070313.7675781.5657234 0 .3292923-.1359673 7.6511841-7.5935059 1.3743477.1414261 2.5800934-.9330387 2.7472534-2.2316895h-.0004883c.0462265-.2311382.0617676-.3701916.0159912-.8366699.7243386-.5816305.8588181-1.5105932.8985596-1.6105955zm-24.9003906 14.3857422c-2.3392258.3309517-4.3110275-1.7981949-3.7871094-4.1152344.1103497-.4836617.8412704-.3176918.7314453.1660156-.4051342 1.7922173 1.1070881 3.4580116 2.9511719 3.2070313.4866124-.0743294.5990601.6738892.1044922.7421875zm14.1396485-12.651123c.4719849.2609863 1.0410156.3466797 1.5834961.2272949.5252495 1.6837978 2.330761 2.2155018 3.7119141 1.4853516.2260132.432373.5804443.7746582.9966431.9924316l-3.5615234 3.7214355c.1930389-.8106728.3314323-1.9168243-.0532837-2.6611328-.4252243-.8185711-1.5715408-1.3807888-2.8175049-1.0073242zm-2.0878907 5.6071777c-.1464844-.2949219.2124023-.8076172 1.0673828-1.5253906 1.3040009-1.0898113 2.6086235-.7863064 3.0317383.0283203.2299805.4453125.1738281 1.0117188.0834961 1.6513672-.0678711.4755859-.1518555.921875-.4321289 1.1552734-.6212006.5199013-1.8683815-.2226105-2.2747803-.3613281-.5684814-.246582-1.3029785-.6020508-1.475708-.9482422zm1.578125 4.2050781.1217041-2.3464355c.1000366.0218925.929882.4895134 1.784668.3544922z"/><path d="m46.5234642 22.3063316c.1201172.1689453.3535156.2099609.5224609.0908203.5831909-.4102859 1.4288063-.3498936 1.9404297.2275391.3218765.3642273.8939896-.1222191.5615234-.4960938-1.2386894-1.4020347-3.5195083-.5243244-3.024414.1777344z"/><path d="m50.2187767 25.3795738c.1694336.3212891.2416992.6982422.2045898 1.0605469-.0209961.2060547.128418.3896484.3344727.4111328.6866684.0508633.4332619-1.2327328.125-1.8212891-.0952148-.180664-.8954239-.0919742-.6640625.3496094z"/><path d="m54.9082298 11.9987135c-1.3051758 1.1464844-2.2734375 2.7011719-2.7270508 4.3779306-.1304474.4794807.5940094.6771698.7236328.1953125.4155273-1.5351572 1.3027344-2.9589853 2.4985352-4.00879.3731995-.3286047-.1234512-.8906812-.4951172-.5644531z"/></g></svg>