<svg id="Layer_1" enable-background="new 0 0 75 75" viewBox="0 0 75 75" xmlns="http://www.w3.org/2000/svg"><g id="Intelligent_Kid" fill="rgb(0,0,0)"><path d="m64.0817413 54.0647926c-6.9659538-18.575325-6.6967049-18.57864-7.9001427-19.0599976-1.4754791-.6478844-2.7509117 1.0946846-7-.1500244-.0098877 0-.0299072 0-.039917-.0099487-.9594154-.2540627-1.4602203-.6200333-1.9699707-.5599976-.570507.0709877-.5787048.5716095-.6700439 1.0799561-.0197639.108696-1.2064209 5.7606125-1.2299805 5.8699951-.5600586 2.6500244-1.1099854 5.3099976-1.4199219 8.0100098-.2800293 2.5400391-.7200928 5.1700439-.3901367 7.7200317.2399902 1.9299927.8100586 3.4500122 2.9699707 3.6900024 1.3200684.1399536 2.7401123-.210022 4.0500488-.3699951 3.8701172-.4200439 7.7099609-1.1600342 11.4499512-2.2300415 2.6493645-.7646064 2.9416161-1.840969 2.1501427-3.9899902zm-12.4999962-16.7100219c.5599365 0 1.0100098.4500122 1.0100098 1.0100098 0 .5500488-.4500732 1-1.0100098 1-.5500488 0-1-.4499512-1-1 0-.5599976.4499512-1.0100098 1-1.0100098zm4.9899903 3.7600097c-1.0635757 4.6416473-2.8810349 9.5392075-6.6000977 12.5800171l-.0100098.0100098c-.1013527.0869331-.241951.119133-.3598633.0599976.0299072.210022-.0400391.5899658-.0600586.7399902-.0656662.5905876-.1688919 1.1841202-.4300537 1.7200317-.3499756.7099609-1.1300049 1.4099731-2.0098877 1.3199463-.7800293-.0999756-1.420166-.9099731-1.4001465-1.7599487.0200195-.8200073.5900879-1.6300049 1.4100342-2.0100098.6208687-.294899 1.7985382-.3446426 2.2700195-.210022-.0599365-.1199951-.039917-.2600098.0599365-.3699951 0-.0200195.0200195-.039978.0400391-.0599976 3.6261902-3.2208252 5.2565117-7.3849182 6.3601074-12.1900024.1241609-.4973984.845646-.293251.7299806.1699829z"/><path d="m30.586504 24.4889259c-.78125-2.8481445-2.7197266-5.2114258-5.4560547-6.6542969-7.0879536-3.732747-15.3408871.572218-16.4697256 8.1044922-.7140322 4.7645397 1.7026272 9.9812355 6.8408203 12.8920898 2.28617 1.2960548 4.8744268 2.0129547 8.8808584 3.2841797.4706135.154808.6989632-.5651741.2265625-.7148438-5.7847786-1.8358383-10.916625-2.9765511-13.8730459-8.3173828-1.2109375-2.1884766-1.6845703-4.6860352-1.3330078-7.0327148 1.062355-7.0904007 8.7959528-11.0197544 15.3779287-7.5522461 2.5507813 1.3452148 4.3564453 3.5429688 5.0830078 6.1889648.59375 2.1635742.5859375 4.487793.578125 6.7983398-.0074463 2.0884399-.0076904 4.4415894.5874023 6.6732178-.4160099.2337799-.7443161.4492493-.9412842.5720215-2.708252-2.2287598-5.0551758-4.9486084-6.854126-7.9708252.7560596-.9486408 1.2503357-2.4348602.6699219-3.4760742-.3525391-.6337891-1.2167969-1.0615234-1.9365234-.6879883-.4941406.2563477-.7988281.8598633-.7578125 1.5019531.0440426.7273884.5482426 1.5979328 1.1044922 2.5732422-.3134766.3085938-.6787109.5668945-1.0732422.7626953-.7343521-.7008095-1.7745724-1.6399097-2.5400391-1.8071289-2.0000877-.439045-2.6455593 2.4152679.0380859 2.9038086.78125.1450195 1.5878906.0541992 2.3300781-.2163086 4.2062073 4.2164116 4.8443489 8.3997574 5.1307373 8.8706665-.6900253.4354935-1.39674.8518524-1.8768311 1.5053101-.5263672.7148438-.6396484 1.6049805-.2890625 2.2670898.2197266.4160156.6621094.7211914 1.1533203.7958984.0097656.0014648.0185547.0029297.0283203.0039063-.6356812 1.7415047.8870144 3.7079124 3.2773438 3.0708008.8734856-.2332993 1.6865139-.7622948 2.4251709-1.2312012.0501709.0283813.1049805.0490723.166626.0515137.8701172.0361328 1.6914082.6987305 1.9101582 1.5410156.2197266.8422852-.1748047 1.8208008-.9169922 2.2758789-.382391.2350731-1.6346207.6328545-1.5849628 1.6733398.0501118.9828568 1.1800652 1.2584152 1.6552753 1.5371094 1.3463669.7853813 1.0853462 2.8212242-.408205 3.2456055-.4779358.1358833-.2700939.8574448.2050781.7216797.946291-.2695313 1.6923847-1.1391602 1.8154316-2.1152344.1240234-.9760742-.3837891-2.0043945-1.234375-2.5-.3005028-.1760902-.6468468-.2881737-.9023457-.440918-.5060272-.304451-.4918442-.6877251-.0371094-1.0024414.23489-.1636124.5858784-.2969704.883791-.4794922 1.989666-1.2215767 1.7468872-4.3383904-.6834736-5.0811768 1.1420918-.7891846 2.2569599-1.678833 3.3250751-2.6751709.8361816-.7802658 1.5260429-1.6668396 1.1668701-2.7537842 3.7495117-.2399902 7.3535156-2.0785522 9.7130127-5.0093994.3117256-.3879013-.2748337-.8565636-.5839844-.4707031-2.3063965 2.864563-5.8693848 4.6390991-9.5438232 4.7631836-.2941589-.3392181-.6675186-.5774612-1.0811768-.737793.7697182-1.3903084-.7120285-3.2498779-3.0657978-2.3155518-.5322266-2.0974731-.5314941-4.3442383-.5250244-6.399292.0078127-2.2978513.0156252-4.6743161-.6054685-6.9360349zm-12.6650391 6.866211c-.3926544-.4171982-.2608089-1.0166016.4238281-1.0166016.4317646 0 .8576126.3262062 1.1923828.5966797.3144531.2539063.6210938.5180664.9189453.7915039-.7594489.1974278-2.0063342.186903-2.5351562-.371582zm4.0361328-3.303711c-.0175781-.2827148.0859375-.6499023.3544922-.7895508.3172398-.1630268.7633648.0758934.9375.387207.3789845.682478.0181255 1.7458401-.4228516 2.4052734-.417118-.7480677-.8381748-1.4906596-.8691406-2.0029296zm-.165039 3.9291993c.3261719-.1826172.6318359-.4018555.9082031-.6523438 1.78479 2.9526978 4.0870361 5.611084 6.7266846 7.819458l-2.5968018 1.6387939c-.9036865-3.2991332-2.6578369-6.3537597-5.0380859-8.8059081zm12.2423114 7.8835449c-.1561279-.0404053-.3269043.0178833-.4151611.1643066-.9667969 1.6098633-2.6328144 2.8339844-4.4589863 3.2749023-.4798546.1164703-.3098221.8428001.1757813.7294922 1.9335938-.4672241 3.6352558-1.6757813 4.7315693-3.3292236.3393555.088562.6918945.2044067 1.0028076.4483643.3144531.2470703.5126953.5756836.5449219.9023438.0674515.6925926-.5146103 1.278904-1.015625 1.7456055-1.5214844 1.4189453-3.133791 2.6328125-4.7919941 3.6083984-.9228191.5432739-2.0132408 1.0710678-2.9951172.640625-1.0177822-.4446411-1.3531246-1.7932587-.5136719-2.628418.0009766-.0009766.0029297-.0024414.0039063-.0039063.350666-.3494949-.1759205-.8799591-.5283203-.5322266-.0009766.0024414-.0019531.0014648-.0019531.0019531s0 .0004883 0 .0004883c-.2829037.2810555-.8807964.0891571-1.0761719-.2797852-.2470703-.4663086-.0625-1.0756836.2294922-1.4726563.541254-.7367897 6.4897633-4.3370247 6.5931396-4.3922119.0197754-.0025635.0393066.0006104.0592041-.005249.0631104-.0186768.1134033-.0560303.1564941-.0999756 1.9572315-.9341086 2.9521656.478264 2.2996845 1.227173z"/><path d="m64.3267365 40.1437111c-.15625.8237305-.6289024 1.5854492-1.2988243 2.090332-.3978004.3001137.0583191.897541.4511719.5986328.817379-.6152344 1.3945274-1.5449219 1.5839806-2.550293.0934371-.4858436-.6466676-.6294288-.7363282-.1386718z"/><path d="m64.3931427 43.8194923 1.1357422-.6098633c.4372787-.2350044.0815964-.8949356-.3554688-.6611328l-1.1357422.6108398c-.4372062.2349702-.080101.8967172.3554688.6601563z"/><path d="m66.8921661 45.7408791c.0224609-.2060547-.1259766-.3911133-.3320313-.4135742l-2.7949181-.3056641c-.203125-.0292969-.390625.1259766-.4140625.331543-.0224609.2060547.1259766.3911133.3320313.4135742l2.7949181.3056641c.1869126.026699.389679-.1137162.4140625-.331543z"/><path d="m8.2320127 14.3546476 2.7998047 2.4794931c.3728046.3293953.867651-.2328568.4980469-.5615234l-2.0859375-1.8466806 2.4052734-.0571289c.2207088-.0051088.390028-.1992378.3632813-.4204102l-.3632813-2.9672852c1.8980865 1.5342369 1.9176464 1.7987576 2.2617188 1.6914063.3460846-.1065941.2111502-.3332577.9423828-2.7602539l1.2265615 4.1088867c.1435909.47785.8608379.2591677.71875-.2148438l-1.5996084-5.3588867c-.1066313-.3558016-.6216068-.3560286-.7207031.0073242l-.8828125 3.1938477-2.1923828-1.8598633c-.2614708-.2214937-.6549616-.004797-.6142578.331543l.4287109 3.5083008-2.9453125.0703125c-.3408327.0086289-.494183.4308672-.2402344.6557617z"/><path d="m23.3804493 22.0851173c.3638554.3264713.8717308-.2256832.5-.5585938-1.7832031-1.5966797-4.2607422-2.3364258-6.6240234-1.9814453-.2050781.0302734-.3457031.2216797-.3154297.4262695.03125.2036133.2109375.3476563.4267578.3149414 2.1523437-.3168944 4.3955078.3505861 6.0126953 1.7988282z"/><path d="m61.8854561 66.6948547c-.0043945-.0118408-.0032959-.0257568-.0089111-.0369873l-.9257813-7.5200157c-.0253906-.2050781-.2060547-.3549805-.4179688-.3261719-.2050781.0253906-.3515625.2124023-.3261719.4179688l.9232178 7.4972496c-.6609421.0781403-1.350769.1271057-1.9007568.4924927 0 0 0 0-.0009766 0-.5947266.3959961-.9570313 1.269043-.5458984 1.9379883.3691406.5991211 1.1396484.6660156 1.3925781.6879883 4.7212563.4046859 4.1362114-3.0243226 1.810669-3.1505128zm-2.5645752 2.069458c-.1699219-.2773438.0371094-.7299805.3222656-.9199219.2345581-.1554871.4675407-.2429428 1.4833984-.3623047.6855469-.0849609 1.1855469-.0708008 1.5253906.2636719.1914063.1889648.2744141.4829102.1982422.6992188-.241066.6823502-1.9975243.7143402-2.7109375.6533203-.4355468-.0380859-.7031249-.1469726-.8183593-.3339844z"/><path d="m49.3677559 69.7652893c1.0945244 0 2.7978859-.3646927 2.9355469-1.4829102.0761719-.6147461-.2089844-.9619141-.4619141-1.144043-.4394531-.3179932-1.1228027-.3745117-1.807251-.3231812l-.1185303-5.3223228c-.0048828-.2070313-.1728516-.3398438-.3837891-.3666992-.2070313.0048828-.3710938.1762695-.3662109.3833008l.1202393 5.4016075c-.6872559.123291-1.2800293.31073-1.4786377.404541-1.4912758.700676-1.3256149 2.4497071 1.5605469 2.4497071zm-1.2402344-1.7709961c.634964-.3001633 2.6598244-.6945572 3.2744141-.2485352.0966797.0693359.1904297.1767578.1572266.4448242-.0380859.3071289-.4775391.4960938-.6650391.5629883-1.7058029.6074677-4.3734398-.0025558-2.7675781-.7592773z"/><path d="m58.5767403 8.2652922c-.3701172-1.5253901-1.6621094-2.7866206-3.2128906-3.0786128-1.5341797-.2866211-3.1640625.3916016-4.0693359 1.6376953-1.1787109-1.1054688-2.8603516-1.6850586-4.5136719-1.5302734-.4907227.0465136-.4266891.7890873.0703125.7470703 1.5859375-.1459961 3.2021484.4775391 4.2246094 1.6337891.1775703.1987109.4889107.1546087.6113281-.0698242.6679688-1.234375 2.1582031-1.9404297 3.5380859-1.6811523 1.3583984.2558594 2.5136719 1.484375 2.6855469 2.8579097.0284882.2329912.2638741.3838034.4921875.309082 1.234375-.4155273 2.7177734-.0361328 3.6064453.9233398.8876953.9589844 1.1474609 2.4658203.6308594 3.6635742-.1046715.2470217.0737343.5192947.3388672.5234375 1.6965523.0259352 2.7026634 1.9780531 1.6689415 3.3759775-.4202042.5882874-1.1257744.957943-1.4775352 1.7460938-.3446884.763752-.154377 1.5082664-.3837891 2.1640625-.4357414 1.2903423-2.736515 1.5477829-2.9912109-.2978516-.0683594-.4902344.0693359-.9716797.3662109-1.2875977.2469406-.2630482.0146408-.6949329-.3515625-.6235352-1.0449219.222168-2.2021484-.1762695-2.8837891-.9941406-.6777344-.8183594-.859375-2.0336914-.4521484-3.0229502.1367569-.334301-.2315979-.6513634-.5419922-.4633789-.7294922.4467773-1.7402344.4257813-2.4541016-.0454102-.59375-.3974609-.9130859-1.003418-1.0673828-2.0249023-.0598488-.389019-.6372566-.4513378-.7363281-.0302734-.078125.3320313-.2128906.5615234-.3984375.6816406-.2626953.1674805-.6279297.1650391-.890625-.0063477-.1730499-.1143703-.4183311-.0628748-.5283203.1259766-.953125 1.6416016-3.2744141 2.3344727-4.9599609 1.4868164-.2483902-.1241951-.5503693.0552883-.5439453.3442383.0361328 1.4321299-.8515625 2.8051767-2.109375 3.2646494-2.0177879.7380733-4.4126549-1.1230412-3.3388672-3.3286142.2607422-.5336914.6748047-.9296875 1.1572266-1.1123047.0869141-.0200195.171875-.046875.2558594-.0805664.4335747-.1750526.2078056-.8292942-.2294922-.7119141-.0771484.019043-.1533203.0415039-.2285156.0678711-1.5566177.2835827-2.6073265-2.4016762.4238281-3.9677734 1.3613281-.703125 2.9316406-.9428711 4.4238281-.6708984.4784775.0855999.6211319-.616601.1582031-.7329102-.3262138-.0820723-.4485664-.586432-.3037109-.9013667.1738281-.3798828.5556641-.6162109.8447266-.7470703.4532967-.2044511.1420403-.8877873-.3085938-.6835938-.9331245.4227972-1.5833549 1.2509856-1.2695313 2.2133789-1.3515625-.0664063-2.6865234.2348628-3.8886719.8564448-3.0107689 1.5516024-2.844883 4.4582081-1.0527344 5.2353516-1.7238083 1.6498394-1.2046165 4.5629129 1.4405518 5.3184824-.0481873 1.4134712.1380615 2.8263817.3748779 4.2200928.246006 1.4291821.1514282 2.3270054.8525391 4.0195313.1882515.4567413.8835144.1730175.6933594-.2871094-.6597786-1.5935326-.5535011-2.3887234-.8066406-3.8588867-.2186394-1.2893848-.4034233-2.6552925-.3675537-3.9579468 2.1406021.1536407 3.7791786-1.6292458 4.0042725-3.6133432 1.8457031.6210947 4.1103516-.1030273 5.2392578-1.7041016.5569725.1900682 1.1853333.0598497 1.5849609-.3339844.5858688 1.6710234 2.2075615 2.3235979 3.65625 1.9321289-.3711395 2.3094378 1.3289757 4.2898264 3.6201172 4.3232431-.3780365.9939957-.0441055 2.2951355.9228516 2.8759766.0819092.0502319.175293.0753784.2630615.1133423-.0129395.0750732-.0284424.1495361-.0432129.2243652-.0724106.0962467-.0959244.1972561-.0615234.3197021-1.8344002 8.0094681-12.9036255 11.8078117-17.1251221 5.3674927-.2708397-.4132004-.8994522-.0058346-.6269531.4111328 4.1149902 6.2803001 13.8555489 3.692997 17.390625-2.7322388.1937675.1365814.8983994.171751 1.5019531-.244812 1.2319603-.8482609.9531517-2.5690517-.3123779-3.1403198.001709-.0093994.0037842-.0187378.0054932-.0280762 1.1535835.0658722 2.1067696-.65201 2.4016113-1.5234985.1298828-.3681641.1552734-.7416992.1796875-1.1030273.066555-.9547977.1412582-1.152113.911129-1.8857422.2333984-.2226563.4746094-.453125.6689453-.7246094 1.1976471-1.621273.4010239-4.0616407-1.7587852-4.5102549.8882863-3.0635194-1.827534-5.9230437-4.9199221-5.2426757zm2.3984375 17.5405283c-.2261963.1576538-.4915771.2192383-.7359619.1868896.2880859-.623291.5202637-1.2783813.6906738-1.9505005.602951.4000588.754425 1.2748413.0452881 1.7636109z"/><path d="m44.440876 21.0032692c-.5944824.1172485-.9813232.6942749-.8640137 1.2887573.1171875.5945435.6943359.9813843 1.2888184.8640747.5944824-.1172485.9813232-.6942749.8640137-1.2887573-.1171875-.5944824-.694336-.9813843-1.2888184-.8640747z"/><path d="m54.1242256 22.2020607c-.1173096-.5944824-.6943359-.9813232-1.2888184-.8640747-.5944824.1173096-.9814453.6942749-.8641357 1.2888184.1173096.5944824.6943359.9813232 1.2888184.8640747.5944824-.1173096.9813232-.6942749.8641357-1.2888184z"/><path d="m45.720295 27.4576759c.5203094 2.9241467 3.7674942 3.8957462 5.3447266 2.0561523.8056641-.940918.7871094-2.2802734.7021484-3.2055664-.0327301-.3643875-.5158539-.4696388-.6972656-.1538086-.6929207 1.1972713-2.2076416 1.777523-3.5556641 1.2890625-1.0013924-.3632507-.8496704-1.329874-1.4003906-1.3520508-.0986328-.012207-.2480469.0498047-.3222656.1201172-.1630859.1547852-.1630859.3837891-.1630859.5048828-.004429.2081834.0235289.3798715.0917968.741211zm3.2470703.8798828c.1008949-.0296574 1.1203728-.0817585 2.0830078-.9736328-.1623535 3.1684685-3.6929626 2.9397869-4.4882813.3852539.2011719.171875 1.5981903.6814003 2.4052735.5883789z"/></g></svg>