<svg id="Layer_1" enable-background="new 0 0 75 75" viewBox="0 0 75 75" xmlns="http://www.w3.org/2000/svg"><g id="Juggling_Balls" fill="rgb(0,0,0)"><path d="m29.1433105 20.679142c.6484375-.1987305 1.3901367.0732422 1.652832.6074219.1810894.3644447.71908.2197189.7114258-.1728516-.0185547-.9873047.296875-1.9750977.8876953-2.78125.2927284-.4004517-.3116875-.8440781-.6054688-.4433594-.5073242.6928711-.8398438 1.5014648-.9707031 2.340332-.5297852-.3505859-1.237793-.4711914-1.8974609-.2666016-2.117178.6585083-3.1295013 4.0402851-1.246582 6.3959961-1.1136913.5338364-1.712204 1.9664059-1.296875 3.125.3154449.9086533 1.1987724 1.6550903 2.3996582 1.8185425-1.9838352.5695152-1.4971104 3.5584106.7512207 3.5584106.2802124 0 .5601807-.0597534.8240356-.1682739 3.4877892 7.1458359 13.0748367 5.2690849 15.7116089-.557312.0337524-.074646.0543213-.1552124.0858765-.230896.0397339.0020142.0797119.0092163.1192017.0092163 1.4437637 0 2.3808479-1.2908936 2.0039063-2.4697266-.2062988-.6416016-.8113403-1.0806274-1.4595337-1.1191406-.0023193-.1265259-.0064697-.2530518-.013916-.3800659 1.3202209-.1361485 2.0994453-1.2057343 1.7136841-2.3005981-.0004883-.0009766-.0009766-.0024414-.0014648-.003418 2.8774261-.3973274 3.0586739-5.0052204-1.4521484-6.0478516 1.3368378-1.6277943-.1546898-4.2702122-3.7294922-3.6625977.3929863-1.0824718-.3841743-2.135498-1.5014648-2.4516602-1.624012-.433589-3.6424866.662344-4.7006836 2.0771484-.6197815-1.4052505-2.3538208-1.9232769-4.0224609-.894043-.4232101.2614288-.0272446.8988876.3935547.6386719 1.844471-1.13694 3.2618904.2519646 3.0273438 1.2875977-.0986061.4329529.5125923.6476097.7050781.2431641.9530182-2.0204697 3.1546898-2.9618549 4.3984375-2.6293945.5166016.1459961.9291992.5258789 1.0283203.949707.1064453.4267578-.1503906.9316406-.5283203 1.0385742-.4668732.1320686-.2848892.8368187.1899414.7255859.8266602-.2001953 1.6796875-.40625 2.5307617-.3120117.8574219.0961914 1.5776367.5629883 1.8369141 1.1943359.2590828.6087151-.0730209 1.5059528-.7016602 1.6357422-.4138107.0854626-.3883209.6886997.0307617.7392578 1.2207031.1484375 2.1352539.4873047 2.7954102 1.0361328.7963867.6630859 1.1811523 1.6655273.9575195 2.4951172-.2182846.8187904-1.217205 1.4462166-1.9804688 1.1152344-.4859467-.2186756-.7833824.4668026-.3334961.6723633.0083008.0039063.0166016.0078125.0249023.0112305.358448.1702633.4776382.725872.2885742 1.0854492-.206543.3984375-.7270508.6772461-1.2402344.6459961-.0307617-.0102539-.0629883-.0161133-.0957031-.0180664-1.8768768-.1044178-3.3195801-2.2323761-3.8100586-4.0463867-.3427734-1.3144531-.3144531-1.5986328-.3007813-1.5893555.3559952-.3419895-.1596603-.8833847-.519043-.5415039-2.3300934 2.2204304-6.0539207 3.1207695-9.277832 1.9975586-.2576103-.0930252-.5286465.1222725-.4960938.3984375.2910843 2.4219398-1.3491516 4.7456131-2.4760742 5.0800781-.7422447.2448654-2.1008129-.2227154-2.4682617-1.2807617-.3409214-.9492874.3283176-2.1853333 1.3183594-2.3222656.3129826-.0436478.4348412-.4311714.2045898-.6455078-1.0966797-1.0244141-1.4750977-2.765625-.9013672-4.1381836.3139648-.7343749.8374023-1.2626952 1.4360351-1.4492186zm-.4472656 13.1513672c-.3740234-.3061523-.5219727-.8730469-.3364258-1.2900391.1795044-.4044189.694519-.6444702 1.0979614-.5204468.1306152.6837769.3362427 1.3461304.5928345 1.9851074-.4542236.1795655-1.0009155.1152955-1.3543701-.1746215zm18.5454102-1.0336914c-.2095337.1986694-.5012817.3181763-.8097534.3517456.2067871-.668396.3244019-1.3677979.3687134-2.0811768.8399085.0899792 1.0775833 1.1283646.44104 1.7294312zm-14.4277344-6.8837891c2.9951172.8422852 6.3833008.1650391 8.8295898-1.7460938.374588 2.5822544 2.0387344 5.4023743 4.4213867 5.7646484.0888672 1.3652344-.1455078 2.7055664-.6835938 3.894043-2.1793327 4.817215-9.4816322 6.5387115-13.1088867 2.4448242-1.2310829-1.3767738-1.9885979-3.2951622-2.1982422-5.1499023 1.1748544-.5293426 2.7844239-2.7333202 2.7397462-5.2075195z"/><path d="m43.850647 56.0531044c1.1282349-.758667.5543823-2.7525635.4571533-3.8419189-.0301208-.2984734-.9503593-9.8006935-.953186-9.9111938-.0292358-.9337158-.5544434-1.809082-1.4298096-2.2467651-1.6110802-.8054695-3.4470482.3801727-5.1841431.145874-1.1238556-.1532249-2.6285172-1.1136055-3.7057495-.3209229-.8850708.6322021-.7489014 1.7896118-.9628906 2.713623-.2918091 1.2936401-.5738525 2.5872192-.8364868 3.890564-.5155029 2.567749-.9725952 5.1549683-1.4589233 7.7324219-.1751099.9143066-.2529297 2.0620117.5252075 2.5678101.4182129.2820435.9628906.2528687 1.468689.2236938 3.6473999-.2236938 7.2850342-.4474487 10.9324341-.6711426.3987426-.0291748.8170165-.0583497 1.147705-.2820435z"/><path d="m44.0437012 41.2724037c-.4600716.1833267-.1838455.8801613.2783203.6962891 3.9716797-1.588562 7.239502-4.8838501 8.8631592-8.862854.7794228.2255363 1.8738403-1.4080791 2.3199463-2.0829468.4882813-.7368164.7236328-1.3735352.7412109-2.0039063.0239258-.8696289-.4311523-1.6567383-1.1323242-1.9589844-.9091797-.394043-1.9492188.1318359-2.4291992.8647461-.4047852.6171875-.5595703 1.4379883-.4599609 2.4404297.0101471.1000366.0135651.133728.003418.0336914.1050415 1.065979.2459717 1.7039795.4046631 2.0961914-1.4967653 3.942566-4.6937257 7.2191163-8.5892335 8.7773438zm10.8359375-10.6635742c-.7392578 1.1191406-1.2714844 1.6401367-1.4853516 1.7495117-.2904587-.6971874-.3486748-1.3587666-.4233398-2.0673828-.3941079-3.9739189 4.1336441-3.0368786 1.9086914.3178711z"/><path d="m33.2912598 57.7587318-1.0404053 7.4556923c-2.0001698.3319092-4.8642864 2.758049-3.4908447 4.0726318 1.0595341 1.011734 3.7144318-.0482407 4.8383789-1.2783203 1.1876221-1.297905.6004524-2.6102676-.588501-2.8042603l1.0245361-7.3422279c.0677986-.4909667-.6728134-.5948028-.743164-.1035156zm-.2465821 9.7441445c-.6044922.6616211-1.5234375 1.1606445-2.5209961 1.3696289-.5610352.1196289-1.0395508.0698242-1.2456055-.1279297-.6913719-.6585693 1.8129158-2.8227539 3.40625-2.8227539.7596131 0 1.2027512.659523.3603516 1.5810547z"/><path d="m42.8776855 69.1503372c1.7554512.6492462 2.7313766-.4034805 2.2763672-1.4013672-.3070946-.6730194-1.4022598-1.3566055-2.0654297-1.6796875h-.0004883c-.3597946-.1747055-.7079315-.3057785-1.1001587-.3930054l-1.4057007-8.2486c-.0834732-.4902649-.8222046-.3623505-.7392578.1259766l1.3880005 8.1447182c-1.6347656.5297241-.651699 2.6030121 1.6466675 3.4519653zm-1.2670898-2.7739258c.7510796 0 3.35215 1.4514084 2.840332 2.0395508-.5932236.6849518-3.024292-.6148987-3.2675781-1.5771484-.0719566-.2833252.1913796-.4624024.4272461-.4624024z"/><ellipse cx="40.777" cy="31.396" rx=".652" ry=".895"/><ellipse cx="34.728" cy="31.678" rx=".652" ry=".895"/><path d="m36.1569824 36.4735756c1.0413094.6332436 2.3960724.5410042 3.3457031-.2817383.3770103-.3265076-.1206589-.8913689-.4912109-.5664063-.6802673.588768-1.6723824.6879234-2.4648438.2075195-.4229583-.2586669-.8143424.383236-.3896484.6406251z"/><path d="m22.0158691 32.7172279c-.0496902-1.0110893-.2985039-2.7072029-.980957-3.4594727-1.2175064-1.3388615-3.3037777-.2185287-2.4418945 2.0791016.3872681 1.0342407 1.3334961 2.2519531 2.4056396 2.6236572 1.4140015 4.4462891 5.2269897 7.9671021 9.7818604 8.9993896.4906635.1119041.6441822-.622612.1660156-.7314453-4.2376099-.960083-7.7931519-4.2030029-9.1723633-8.314209.003418-.0026245.0078125-.003418.0112305-.0061035.3645821-.2884787.2531814-.8875579.2304687-1.1909179zm-2.7207031-1.6435547v-.0004882c-.5438423-1.4490147.478138-2.0891972 1.1845703-1.3110352.5379181.5920963.7479515 2.1955872.7871094 2.9921875.0191078.2640572.030611.4154625.027771.515564-.0025635-.000061-.005249.0007324-.0078125.0007324-.0019531-.0006104-.0037231-.0010376-.0057983-.0016479-.8579102-.272461-1.6635743-1.3344727-1.9858399-2.1953126z"/><path d="m20.2150879 16.6405678c-2.3452148 0-4.253418 1.9082031-4.253418 4.2539063 0 2.3452148 1.9082031 4.253418 4.253418 4.253418 2.3457031 0 4.2539063-1.9082031 4.2539063-4.253418-.0000001-2.3457032-1.9082032-4.2539063-4.2539063-4.2539063zm-1.0773926.9371338c-.5580463 1.5551052.1301594 3.1363277.041748 4.5765381-.0460815.7526855-.3400269 1.369751-.7823486 1.7202148-2.5656633-1.5712681-2.1036339-5.3687649.7406006-6.2967529zm.0112915 6.6365966c1.8296299-2.0213547-.2510242-4.9044285.882019-6.7807617.0048218-.0079956.0048828-.0170898.0090332-.0252686 2.0855789-.1053543 3.6789551 1.5533295 3.6789551 3.4862061 0 2.2864399-2.2152061 4.0791226-4.5700073 3.3198242z"/><path d="m37.4827271 13.0206337c-.0100098-.0499878 0-.1099854.0200195-.1699829.6628838-1.5044451-.8036079-3.2035818-1.1700439-4.7999878-.1799927-.7700191-.1499634-1.7800288.4200439-2.5100093-1.5.5300293-2.5800171 1.9700317-2.5800171 3.6500239 0 1.9500122 1.4400024 3.5599976 3.3099976 3.8299561z"/><path d="m41.9327393 9.1906776c0-2.3752861-2.1179199-4.1443224-4.3300171-3.8500361.0800171.1400146.0599976.3400269-.0800171.460022-.5799561.5-.6199951 1.4099731-.4599609 2.0800171.3570786 1.577065 1.917141 3.3236718 1.1599731 5.1799922 2.0599975-.0800171 3.710022-1.7900391 3.710022-3.8699952z"/><path d="m59.0383301 19.6361732c0-3.3700237-3.7529678-5.4018135-6.5723877-3.5579224-.0087891.0023804-.0175171.0006714-.0262451.0037231-.0808716.0289917-.140625.0862427-.1838989.1533813-1.0405884.7761841-1.7247925 2.0056152-1.7247925 3.4008179 0 2.3452148 1.9082031 4.253418 4.253418 4.253418 2.3457031.0000001 4.2539062-1.908203 4.2539062-4.2534179zm-.7787476-.2843627c-2.110836.4082985-4.2732506-.6295719-5.2026367-2.7453003 2.2784615-1.3050423 4.9969368.2401294 5.2026367 2.7453003zm-3.4751587 3.7877807c-3.1747437 0-4.7321091-3.9202709-2.3448486-6.0882568 1.1051064 2.3206825 3.4583282 3.4414196 5.8002319 3.0646362-.2366333 1.7033081-1.687622 3.0236206-3.4553833 3.0236206z"/><path d="m46.470459 48.2758217c-.0395508.203125.09375.3999023.296875.4394531 4.0350037.7793121 4.1068993.8081055 4.2080078.8081055.4497948 0 .5160484-.6564674.0708008-.7431641l-4.1362305-.8012695c-.1982422-.0405274-.3999023.0932617-.4394531.296875z"/><path d="m47.4606934 47.3119545c.1073227 0 .0731697-.0111847 1.6757813-.4951172.5714302-.0912018 1.0678978-.3236427 1.5947266-.4887695.4740105-.1474686.2505188-.8642654-.2226563-.7158203-.535656.1665497-.9798965.3806343-1.5400391.4755859l-1.6166992.4902344c-.4105301.1243744-.3207017.7338867.1088867.7338867z"/><path d="m47.817627 44.0609779-1.2114258 1.5810547c-.3011208.3933258.2918358.849884.5957031.4560547l1.2114258-1.5810547c.3011284-.3933334-.2915421-.8494682-.5957031-.4560547z"/><path d="m23.5041504 14.5717201c-.3108253.3882389.2781658.8550367.5859375.4677734 1.652832-2.0708008 3.8208008-3.7001953 6.2695313-4.7119141.457283-.1889791.1750565-.8799467-.2861328-.6933594-2.565918 1.0600587-4.8374024 2.7675782-6.569336 4.9375001z"/><path d="m29.8356934 11.9433022c-1.4858398.5429688-2.8007813 1.4770508-3.8027344 2.7011719-.3146839.3837042.265213.8583221.5800781.4750977.9169922-1.1206055 2.1206055-1.9750977 3.4804688-2.472168.4680118-.1705066.2046604-.8773824-.2578125-.7041016z"/><path d="m52.7062988 12.0180092c-1.8813477-1.6450195-4.1225586-2.949707-6.4799805-3.7729492-.4697533-.1628323-.7146339.5447683-.2470703.7080078 2.2675781.7919922 4.4233398 2.0473633 6.2338867 3.6293945.3656312.3227635.8698655-.2360172.4931641-.5644531z"/><path d="m47.1955566 10.9647865c-.4199333-.2666969-.8213539.3643131-.4042969.6318359l2.0395508 1.3051758c.4168701.2670584.8230286-.3632364.4042969-.6318359z"/></g></svg>