<svg id="Layer_1" enable-background="new 0 0 75 75" viewBox="0 0 75 75" xmlns="http://www.w3.org/2000/svg"><g id="Drinking_Tea" fill="rgb(0,0,0)"><path d="m15.4834623 67.6937561c.3372679 1.1107178 3.0749636 1.4892578 4.2558603 1.4892578.2719727-.0019531.5615234-.0224609.8325195-.1503906.7494659-.3566055.9197712-1.3578949-.2670898-1.9033203-.9377441-.4304199-2.0132446-.7145996-3.0568848-.8251953l-.4625244-3.6610146c.10075.0118027.7081146.3224297 1.3426514-.0968018.3261719-.2148438.5395508-.5605469.5864258-.9482422l.597168-4.9931641c1.6987095 2.6565285.441803 4.9480476 2.0708008 6.4707031.5686646.5310059 1.2978516.7165527 2.0672607.772583-.0674744.176899-.0310764-.0364456.3589478 3.4227333-.4828587.2278976-.8241882.5586243-.7411499 1.1015625.0576172.3710938.3486328.6542969.8662109.8427734 1.270504.462265 2.6540089.5911636 4.015625.3544922.5949421-.1016998 1.1353168-.3615265 1.2275391-.9560547.0945892-.6193161-.3838348-1.0410004-.9580078-1.2851563-1.0979671-.4720154-2.3185177-.6053772-3.6837158-.3022461-.4356575-3.586422-.3402214-3.0040436-.3873291-3.154789 2.71451-.0198402 3.9602776-.6385536 3.7145996-3.3212891-.1518555-1.65625-.3857422-3.3271484-.6948242-4.9638672-.1538086-.8144531-.355957-1.6601563-.9765625-2.2539063-.6623764-.6347466-.6677837-.5212212-11.8740244-4.1767578-1.0797653-.3535156-3.4371014-1.6791267-3.9858398-.1416016-.265666.7412415-.1221418 1.7968063-.1279297 2.5029297-.0180054 2.3545952.203867 4.8107643.7177734 7.2929688.3894291 1.8768349.9660683 2.399807 2.7807617 2.9306641l2.3396616.6846924c-.05441.1632271-.0310478-.0614929.4538574 3.9036903-.6642275.1729129-1.198144.7468951-1.0117808 1.3647464zm12.4399424.3242188h.0014648c.7038136.3019791.6976128.6742477-.1040039.8134766-1.9025326.3284149-3.9701118-.2926025-4.012207-.5732422-.0240364-.1634445.2248001-.2873383.37677-.3504639.012207.0012207.0204468.0125732.0328979.0125732.1002445 0 .184021-.040596.2555542-.1091309 1.0859891-.3068084 2.3281422-.2761917 3.449524.2067872zm-16.2680674-9.3603554c-.4734268-2.2849541-.7212706-4.687149-.7021484-7.1347656.0052996-.6854172-.1201487-1.6860695.0839844-2.2568359.2566175-.7047386 2.4679585.4150314 3.0473633.6025391 11.1599226 3.6407318 11.0829401 3.522068 11.5878916 4.0048828.4599609.4414063.6269531 1.15625.7578125 1.8515625.3051758 1.6142578.5356445 3.2607422.6850586 4.8935547.1606255 1.7505493-.2162991 2.4119415-2.4941406 2.4931641-5.5980682.1921196-1.7860451-3.6907883-5.2871094-7.7275391-.2130547-.2447205-.6163235-.1207352-.6557617.2011719-.8041954 6.1086349-.5640411 6.0739059-.9638672 6.3349609-.1411133.0947266-.3144531.1210938-.4785156.0722656-4.2724286-1.4212724-5.0655299-.8484269-5.5805675-3.334961zm5.2832041 8.363285c1.034668.0800781 2.1186523.3613281 3.0537109.7900391 1.4823151.6805573-1.0656013.9734879-3.3422852.0146484-.2695313-.1132813-.4213867-.2607422-.4487305-.3496094-.0457991-.1648788.3547117-.4988021.7373048-.4550781z"/><path d="m37.0595741 20.9454632c-.225647.6971436-.0307007 1.3847656.4354248 1.5355225.4660645.1508789 1.0268555-.2921143 1.2525024-.9893799s.0307617-1.3847656-.4353638-1.5355225c-.4661254-.1508789-1.0269164.2921143-1.2525634.9893799z"/><path d="m32.3728676 21.3646526c.482666.0839844.975769-.4332275 1.1013794-1.1552734.1256104-.7219238-.1638794-1.3753662-.6465454-1.4592285-.482666-.0839844-.975769.4332275-1.1013794 1.1552734-.1255493.7219238.1638794 1.3752442.6465454 1.4592285z"/><path d="m39.5377235 8.1141634c.8900146-.3398438 1.7800293-.6699219 2.6600342-.9899902-3.2900391-1.9299316-7.6600342-1.8399658-10.8699951.210083-.3400269-.6800537-.6900024-1.3599854-1.0300293-2.0200195-.2199707.6800537-.4299927 1.3800049-.6400146 2.0799561-2.2699585-1.369873-5.3299561-1.3299561-7.5700073.1101074 1.8900146.119873 3.7600098.6899414 5.3900146 1.6499023-3.4674187-.0330553-6.7843513 2.6023216-7.6799927 5.8400879-.0299683.1298828-.1900024 1.329957-.2299805 1.3399668 1.0199585-.3199463 2.2299805.4400635 2.3900146 1.4899902.0117798-.0749512.0441895-.144165.0620728-.2176514-1.508707 9.7144547 12.317791 16.2891254 19.0266113 8.3674316.321125-.3797264-.2532654-.8625393-.5722656-.484375-6.6955605 7.9060726-20.8711205.1581154-17.2449341-9.5849619.9597759-.6205168 2.0437126-.5585709 2.8485107-.1204834.3977661-2.282938 2.4705353-4.0161905 5-3.75 1.5923157.1677742 1.2199974.5742836 1.8200073 1.460083.7559776 1.1423779 1.6646042 1.9118319 2.7299805 2.4299316.2999878.1400156.8900146.1999521 1.1300049.4000254-1.0700073-.8900156-1.7200317-2.2301035-1.75-3.6099863 1.6634903 2.1246881 4.5802574 2.8257923 6.3900146 4.8999033.8799438 1.0200195 1.4199829 2.4400635 1.039978 3.7399902.0667114-.0300293.1273804-.0705566.192627-.1032715-.230957 1.0966797-.7177124 2.220459-1.446228 3.2954102-.2776413.4082947.3398781.8323669.6210938.4199219.9319458-1.375 1.4885864-2.8317871 1.6622925-4.2371826 4.3060913-3.2605095 2.725502-10.5859957-3.9298096-12.6148691zm4.0499878 6.7399902c-.1299438 0-.2599487-.0599365-.3299561-.1899414-.8500366-1.5400391-2.1700439-2.8499756-3.7200317-3.6899414-.1799927-.1000977-.25-.3300781-.1499634-.5100098.0999756-.1800537.3200073-.25.5100098-.1500244 1.6699829.9100342 3.0999756 2.3199463 4.0199585 3.9899902.125351.2256184-.0161781.5499268-.3300171.5499268z"/><path d="m25.264225 17.7464886c.1918945.0791016.4111328-.0087891.4916992-.1992188.2976646-.699337-1.6118069-1.0299759-2.3725586.1962891-.4448242.7138672-.293457 1.7041016.3447266 2.2539063 1.0759468.923645 2.8420773.085619 2.3227539-.5224609-.1342773-.1572266-.371582-.1767578-.5288086-.0419922-.3535156.3007813-.9511719.2998047-1.3046875-.0039063-.3530273-.3037109-.4433594-.8945313-.1972656-1.2890625.2456054-.3964844.8139648-.578125 1.2441406-.3935547z"/><path d="m53.4033852 43.8001976-2.1367188 2.5644531c-.31744.3804588.2576561.8618507.5761719.4804688l2.1367188-2.5644531c.3187789-.3820687-.2611962-.8616906-.5761719-.4804688z"/><path d="m48.9165688 43.5003929-2.6494141 3.1621094c-.3172646.3802528.2544556.8622475.5751953.4824219l2.6494141-3.1621094c.3164673-.3792915-.251854-.8614311-.5751953-.4824219z"/><path d="m59.2168617 49.227932c-.8985634 1.1623306-1.1910782 1.3476028-1.2070313 1.6347656-.0585938 1.0390625.2392578 2.1708984.862793 3.2724609.4958191.8777351 1.2391663 1.550499 1.7661133 2.3222656.1670952.2437019.3940887.4042969.6860352.4042969.717289 0 1.0955849-.9038467 3.7543907-2.5400391.2565231-.1960754.9029617-.4122925.9155273-.9423828.0118408-.4830475-.557457-.7989197-.7426758-.9296875-2.1315422-1.5332146-1.8126259-3.2480965-3.0498009-3.5126953-.7239342-.1566696-1.1316185-.096611-1.9245605-.3398438-.0385742-.8395996.1268921-1.6768799.3122559-2.3964844.5552711-2.081234 1.7100029-5.2459259-.4257202-7.1187744.0138359-.0823174.0171547-.1402206-.0380249-.2349854-.3300362-2.4444466-17.9462395-2.3966751-19.3330688-.2926025-.5349731-.1087646-1.0911865-.0631104-1.609314.1226807-1.1084595-1.4082031-2.7318726-2.4438477-4.4781494-2.8464355.2458878-2.2219162-.5024033-3.0775337-1.9819336-3.9218731-6.5360317-3.6350117-5.845211-3.2426186-6.4135742-3.5966797-.581543-.3642578-1.1831055-.7402344-1.8896484-.8935547-1.9589844-.4248047-4.0224609.6259766-5.1264648 2.6005859l-2.6264648 4.4892559c-.2511063.4294624.3961658.8043556.6474609.3789063l2.6298828-4.4960918c.9599609-1.7167969 2.6552734-2.6005859 4.3168945-2.2402344.578125.1259766 1.0991211.4521484 1.6508789.796875.8154526.508522 6.8514862 3.8309231 6.4389648 3.6113262 1.319706.7559509 1.9582138 1.3540535 1.5068359 3.8955078-.2668457 1.4962158-.6312866 2.9783936-1.0481567 4.4492188-4.1535645-1.9533691-7.7618408-4.9919434-10.3453979-8.8125-.2775249-.4121876-.8989372.0089989-.6210938.4199219 2.6828003 3.9674072 6.4393921 7.1164551 10.7631836 9.1245117-.6000366 1.9918213-1.324707 3.9545898-2.1918945 5.8666992-1.7242947 3.7491531-3.1675873 3.98526-6.5024414 2.8544922-9.5790558-3.2990189-11.1810503-3.4219093-11.6870127-4.9355469-.420352-1.261055.5672131-2.8570671 1.2553711-3.9863281.4664354-.7675514.0215311-.0293312 3.1362314-5.3564453l-.6508799-.3730469c-3.080265 5.2697563-2.7472878 4.7212639-3.1259766 5.3388672-.9485455 1.5562744-2.1860237 3.7136574-.9746094 5.2880859.5917969.8652344 1.6630859 1.2890625 2.6225586 1.6201172 10.135663 3.4368019 10.727973 3.7548828 12.1367197 3.7548828 2.3423367 0 3.4935513-1.7665405 4.472168-3.8935547.866333-1.9104004 1.5946045-3.8696289 2.1985474-5.8581543.7056885.3032227 1.4237671.5783691 2.1560669.8188477-.0239868.2159424.0039063.4350586.0946045.6516113.5644493 1.3434906 2.8094711 2.1360855 4.144104 1.8254395.6852112.4401703 1.4506264.7944298 2.3544922 1.0559082 2.5525208 7.3951569 11.7605591 8.7537193 16.1483765 1.0620117.2452431-.4297562-.4070129-.8060226-.6513672-.3710938-4.0946503 7.1630707-12.244709 5.7372437-14.7485352-.8222656-.0744591-.2931213-.6473198-1.3715363-1.1465454-5.3834229.0403442-.1094551.0385513-.2097893-.0418701-.3311768-.006321-.0522156-.0576973-.4525452-.0790405-.6303711 2.5484924 1.1063499 9.3354378 1.1667747 13.0550537.8684082 1.3216934-.1014442 3.6045837-.3599472 4.8025513-.9162598-.3553505 5.8234711-2.0868492 6.5652695-1.2727661 6.9416504.1841774.0850067.4091759.0071526.4975586-.1845703.8416138-1.8300781 1.343689-3.9813232 1.5008545-6.3830566 1.5935097 2.517498-.8093834 5.5563545-.5725708 8.6437988-.0067749.0074463-.0127563.0095215-.0195923.0175781-.1289865.1519854-.2087289.2976191-.3002931.4091799zm-18.3292846-5.7807617c-.0765266-.859375-.2247887-1.7850456-.9034424-2.3050537.2518044-.1462898.6409454-.1720734.9337769-.1358643.2150726 1.7064247.2336922 1.6946907.4376221 2.7189941-.1694947-.0876465-.3229371-.1815185-.4679566-.2780761zm-.1824952-4.1418457c.041378.3225441.0925293.7352257.1173096.9440918-.5933723-.0352859-1.2194633.0965538-1.5878296.560791-.3368454-.0714684-.7057457-.0821342-1.1146851-.0053711.3300286-1.1763878 1.4983864-1.7712136 2.5852051-1.4995117zm-4.9586792 2.7790527c-.7648926-.2491455-1.512207-.5412598-2.2473145-.8605957.7765045-2.7129555.9956169-4.1584206 1.0983887-4.6429443 1.5176392.3651123 2.918457 1.2593994 3.9065552 2.4681396-.6485596.4614258-1.0688477 1.164917-1.1765137 1.9786377-.5810546.2139893-1.2133178.5657959-1.5811157 1.0567627zm3.3342286 2.4902344c-.9160156-.0029297-2.4550781-.5166016-2.8427734-1.4394531-.0751953-.1787109-.0629883-.3427734.0375977-.515625.328125-.5605469 1.4790039-1.0283203 2.1269531-1.1035156h.0004883c1.2774086-.1373558 1.5541534.5216751 1.7094727 1.7412109.0483398.3789063.0786133.7382813-.0756836.9707031-.2001953.3007813-.6796875.3466797-.9511719.3466797-.001465 0-.0034181 0-.0048829 0zm1.3901367.2758789c.1542816-.1478004.25457-.2452583.3512573-.5598145.2128296.1188965.4529419.2354736.7290039.354126.0656128.2679443.1355591.5286865.2115479.7794189-.4409295-.1719246-.700676-.2443695-1.2918091-.5737304zm18.3161621-5.6311035c-3.4220009-1.1950188-13.4341011-1.1501427-16.8048706-.0177002-.1180611-.0451584-.3839836-.1315651-.5281982-.2701416-.0001221-.0002441-.0003052-.0004883-.0003662-.0007324 1.3671875-1.2624817 13.5110168-1.725399 17.3693237-.2790527.3867188.1396484.519043.2529297.5576172.2626953-.1357537.1515388-.4927025.2673453-.5935059.3049316zm2.5310058 10.3405761c.5622597.0674706.7651405.0913734.8959961.1923828h.0004883c.2091217.1615944.3569984.492794.5307617.8574219.8892975 1.8170662 2.2015419 2.4936066 2.4619102 2.7451172-.0727921.0529442-.295929.1872482-.5205078.328125-1.9839325 1.2155914-3.1644325 2.4178963-3.3559532 2.4306641-.0004883-.0009766-.027832-.0146484-.0727539-.0800781-.5332413-.7785988-1.2898293-1.4864655-1.7329102-2.2675781-.5351563-.9472656-.8007813-1.90625-.7700195-2.7783203 1.6329002-2.0274315 1.1664848-1.4775658 1.324707-1.6679688.1636086.0367851.2158814.1184883 1.2382813.2402343z"/><path d="m59.6012611 52.7284203c.2502289.4735603 1.2292213.9292488 1.7227173 1.1442871.2709961.118042.5924072.2874756.8414917.107666.1933556-.1394196.7937279-1.1206551.8383179-1.9958496.0745049-1.4582558-1.8440704-1.5564308-1.8948975-.1236572-1.0501976-.6869355-1.8977356.1299438-1.5076294.8675537z"/><path d="m45.5694008 30.7025433c.107235-1.2076244-.890873-2.2715855-.6645508-3.1884766.0493164-.2011719-.0732422-.4042969-.2744141-.4541016-.1992188-.0439453-.4042969.0732422-.4541016.2744141-.3131027 1.2684669.7373466 2.2749195.6459961 3.3017578-.0929375 1.0416279-1.4052429 1.7861767-1.8085938 3.0126934-.2011719.6132813-.125 1.3164063.2094727 1.9306641.4266243.7833939 1.2366333 1.2333984 1.6020508 1.2333984.4366035 0 .5180969-.6266289.0942383-.7382813-.4238281-.1103516-.8022461-.421875-1.0375977-.8544922-1.0172347-1.865982 1.5241776-2.6764793 1.6875001-4.5175761z"/><path d="m51.8057289 31.5980511c.6889648-1.6708984.3037109-3.7578125-.9360352-5.0732422-.33778-.3621578-.887085.1525536-.5458984.5136719 1.0444336 1.1083984 1.3686523 2.8662109.7885742 4.2744141-.2810287.6800461-.7101707 1.2359943-1.0009766 1.9687481-.6454163 1.6245537.155632 2.9618759.6987305 2.5351563.1630859-.1279297.1914063-.3632813.0634766-.5263672-.4643555-.5908203-.1669922-1.4746094-.0649414-1.7314453.25877-.6517869.7054596-1.2544214.9970703-1.9609357z"/><path d="m53.4370766 33.3001976c-.1588135 1.6443062 1.2542953 2.8477478 1.6108398 2.1503906.0942383-.1845703.0209961-.4101563-.1630859-.5048828-.5585938-.2851563-.7548828-1.015625-.7016602-1.5732422.132576-1.3699608 1.454052-2.6088524 1.7143555-4.1572247.1665039-.984375-.168457-1.9306641-.8520508-2.4111328-.4090004-.2858372-.8356514.3291931-.4316406.6132813.5107422.3583984.6411133 1.0986328.5444336 1.6728516-.2394982 1.417984-1.5632439 2.5755577-1.7211914 4.209959z"/><path d="m31.3013344 25.5980511c.4646263 2.0500298 2.7684975 2.6209221 3.9350586 1.4052734.640625-.6689453.7666016-1.6806641.8046875-2.4863281.0161324-.3376942-.3917732-.5235558-.6357422-.2871094-.9670982.9377918-2.5959969.4571819-2.909668-.8427734-.0805969-.3309879-.5291748-.3949718-.6938477-.0917969-.3100585.5693359-.6992187 1.4267578-.5004882 2.3027344zm.8300781-1.2216797c.695797 1.0149231 1.965992 1.366478 3.0874023.8701172-.485279 2.9868183-3.8946151 1.4555568-3.0874023-.8701172z"/><path d="m9.4805326 34.4886742c1.1616211-.3291016 2.4790039-.0800781 3.4414063.6455078.3910046.2946701.8496161-.2987175.4511719-.5996094-1.1459961-.8632813-2.7158203-1.15625-4.0957031-.7685547-.4735022.1342964-.2803107.8504486.2031249.7226563z"/><path d="m11.2158842 30.2220745c-.3743162-.3262081-.8659563.2418594-.4912109.5664063 2.921937 2.4901562 2.806385 2.5400372 3.0678711 2.5400372.3451939 0 .508234-.4307556.2456055-.6582031z"/></g></svg>