<svg id="Layer_1" enable-background="new 0 0 75 75" viewBox="0 0 75 75" xmlns="http://www.w3.org/2000/svg"><g id="Disgusting" fill="rgb(0,0,0)"><path d="m44.8058052 6.3100562c-1.6400146-.8000488-3.9000244-.4100342-4.8599854 1.1298828-2.0700073-2.5898438-5.6199951-2.4799805-8.4500122-1.4399414-1.6000366.5900879-3.0200195 1.6899414-4.0100098 3.0700679-1.539978 2.1499023-2.0900269 4.9199219-1.7700195 7.5499277.383728-.1356201.7540894-.3052979 1.1194458-.4842529-.0385761 3.0345364 1.5801907 6.5538235 4.894104 8.1702881-.0442848.7538471.1533375 1.5408669.7583618 1.9680176-.1506348.0286865-.2993774.0682373-.4423828.1314697-.6826172.3007813-.8964844 1.1777344-.9458008 1.4394531-.1680927.8908119.0299129 1.6454525.0922852 3.1623535-.0908203-.0473633-.1902466-.0795898-.2783203-.1311035-.7041016-.4072266-1.1494141-.8710938-1.3212891-1.3730469-.1665039-.5058594-.0053711-1.2167969.4907227-1.4287109.4576817-.194809.1602631-.8866291-.2939453-.6894531-.9116211.3886719-1.1816406 1.5234375-.9077148 2.3574219.3549328 1.0358982 1.360033 1.6837082 2.3505859 2.1262207.0991211 2.3237286.2049561 4.6470928.3242188 6.9694805.0893555 1.7734375.2861328 3.6025391 1.5981445 4.7744141 1.3242264 1.1817474 3.3662643 1.2711449 5.1352539 1.1845703 2.496582-.1230469 4.9951172-.4560547 7.425293-.9892578 2.6694412-.5820961 2.2007523-1.8815269 1.7260742-4.2275391-.6640625-3.2792969-1.6860352-6.4814453-2.6738281-9.5781231-1.1497726-3.5992889-1.1454468-4.0001106-1.684082-4.3808594-.9118423-.6436539-1.7763138.2144203-5.7363281.5507813-1.0422974.0888672-2.0931396.1069336-3.1334839.0761719.3555946-.215271.5945282-.4455738.8791504-.9589844 4.0423584.4352188 7.7206268-1.4615955 9.5543213-4.3356934 2.3983765.3169174 2.8940201-2.5805378 1.1311646-2.9082031.4725952-.1608887.8239746-.5908203 1.078064-1.0354004 2.3834227-4.1010724 1.0382803-9.1841488-2.049988-10.6999517zm-9.6900024 3.8798823c.9099731-.5299072 1.6400146-1.3498535 2.0599976-2.309936.0800171-.1900635.2999878-.2799072.4899902-.2000732.1900024.0900879.2800293.3100586.2000122.4999995-.7303963 1.639843-2.2218933 2.710083-2.5599976 2.710083-.3771019 0-.5056992-.5141697-.1900024-.7000733zm-.9767456 11.7390147c.1411133-.0617676.2245483-.1994629.2245483-.3442383.8885002.0029793 1.479248.2317982 2.0949097.6744385-.0841675-.0213623-.1752319-.0181885-.2589111.0233154-1.2554703.6272812-1.3278275 2.2487774-2.0532227 3.0703125-.2836914.3222656-.7895508.5595703-1.1640625.3642578-.2612305-.1357422-.4467773-.4892578-.4956055-.9462891-.1230469-1.1552734.5874024-2.3769531 1.6523438-2.8417968zm7.4580078 4.3134765c1.0151749-.2419338 1.1790581-.0986881 1.4213867.6982422.3359375 1.1015625.6850586 2.1962891 1.0341797 3.2900391.9819336 3.0771465 1.9970703 6.2587872 2.652832 9.498045.4967957 2.4502144.745369 2.9334335-1.1513672 3.3466797-2.3896484.5244141-4.8466797.8515625-7.3017578.9716797-1.5366211.0791016-3.4492188.03125-4.5991211-.9941406-1.4565239-1.3007431-1.3286362-3.2891769-1.6575317-10.897583 1.2354889.3951149 2.1067123.4114304 3.015686.3265381.2045898.8874512 1.4035645 1.7841797 1.6877441 1.9528809h.0004883c.9497452.5644112 2.1812668.5952492 3.0532227.0410156.9814453-.6240234 1.3769531-1.9667969.8647461-2.9326153-.5581055-1.0517578-1.859375-1.3349609-2.8320313-1.1591797-.830368.1545238-1.4686546.5742474-1.7539063.7158203-.373291.1923828-.7022705.3779297-.8901978.6199951-1.0664673.1334229-2.1743774.0130615-3.1825562-.3553467-.0882969-2.1038494-.2639961-2.6339607-.1220703-3.3808594.4057008-2.1577263 2.2737962.0585193 9.7602541-1.741211zm-5.019043 5.4150391c.4980469-.2871094.925293-.4580078 1.3442383-.5351563.7348633-.1386719 1.6679688.0859375 2.0327148.7724609.3305664.623045.0478516 1.5332012-.6044922 1.9482403-.6293945.3984375-1.5410156.3759766-2.269043-.0527344-.5585938-.3320313-1.456543-1.265625-1.3598633-1.59375.0762826-.1537704.6742822-.4340304.8564454-.5390605zm-1.1431885-7.0959473c.2439423-.588829.5257111-1.320776 1.0997314-1.6071777.1851196-.0925293.2600708-.3172607.168335-.5026855 1.1082535.9453278.8655319 1.5700684 1.3575439 1.5700684.2664146 0 .4509201-.27314.3452148-.5214844-.9951172-2.3409653-3.7296371-3.3188572-5.9575195-2.2548828-.4464264.2144699-.1271553.887764.3232422.6777344.0324707-.015625.0690308-.0217285.1020508-.036377-.4745483.4467773-.8191528 1.0236816-1.0012817 1.6495361-3.1184692-1.6255379-4.4796276-5.1375179-4.2779541-7.8240976 1.0496826-.6245117 2.0048828-1.40625 2.7816162-2.3421631.0799561 1.2600098-.2399902 2.5500488-.9200439 3.6199961 2.987751-.64217 5.6920052-2.4579601 7.460022-5.1099863.210022 1.1500244.0800171 2.3699951-.3900146 3.4500732 1.1700439-.6401367 2.3500366-1.2700195 3.5300293-1.9001465 1.3300171-.7099609 2.0100098-1.329834 2.5499878.3901367.2663574.8764648 1.1759033 3.6286631 2.4032593 4.1916513-.7287332 3.9096203-4.7966119 6.9393731-9.5742189 6.5498047zm9.6069336-4.3239746c.2318115-.4630127.4065552-.9493408.5415649-1.4501953.8009415.0479965.6800805 1.3962994-.5415649 1.4501953z"/><path d="m33.7679634 46.4455528c.3724442-.2871361.5043297.0765648 3.8764648.0546875 3.105957-.0224609 6.1757813-.5546875 9.1240234-1.5800781.1455078-.0498047.4492188-.1572266.5317383-.0625.0211487.0237961 1.962677 3.6328926 2.0166016 3.7333984.2354393.4357376.8950958.0820465.6611328-.3554688-.0561295-.1043739-1.8974037-3.4996758-1.8413086-3.3955078-.0039063-.0068359-.0078125-.0126953-.0117188-.0195313l-.0537109-.109375c-.2720566-.5787392-.6526718-.8119621-1.5488281-.5-2.8706055.9990234-5.859375 1.5166016-8.8842773 1.5390625-4.0906029.0503578-3.7720757-.7935791-5.2719727 1.0683594-1.1899414 1.4648438-1.847168 3.3173828-1.8032227 5.0761719.0073242.6220703.1445313 1.4541016.7617188 1.8837891.324707.2197266.6889648.2705078 1.0332031.3037109 3.5631256.3515472 4.6989899.6469955 5.6142578.0820313 1.0121689-.6403351 1.209774-1.9310837 1.3564453-3.0234375.128418-.8173828.746582-1.4160156 1.4975586-1.4560547.1985207.0176544.5091171-.1188316.6337891.1728516 2.1716194 5.2381706 1.8784447 5.2099609 2.465332 5.2099609.4359131 0 1.2552261-.2258034 1.9482422-.3925781 1.4913559-.4206886 2.8076706-1.0647316 3.8603516-1.8212891.9830208-.6337318 1.322525-.9380074 1.4492188-1.5664063.0498047-.2744141.0297852-.5625-.059082-.8554688-.147213-.4796219-.8605652-.2525787-.7177734.21875.2540855.8345222-.4177055 1.1200066-1.1035156 1.5898438-1.8045883 1.2972031-3.6753082 1.7107124-3.7753906 1.7480469-.8554688.2167969-1.2661133.2949219-1.4628906.3193359-.6475754-1.5693169-1.2297211-3.0909615-1.9130859-4.7392578-.3574753-.8496208-1.2401581-.6111031-1.3603516-.6328125-1.112793.0585938-2.019043.9179688-2.2104492 2.1416016-.4298439 3.1889343-1.2619896 2.7567825-4.3989258 2.4365234-2.0143051-.2091904-2.1873569-.1880531-2.4321289-.3535156-.2700195-.1884766-.4291992-.6523438-.4365234-1.2792969-.0395508-1.5878906.5566406-3.2607422 1.6362305-4.5908203.2612302-.3242187.519531-.6328124.8188474-.8447265z"/><path d="m40.1297798 17.3391094-2.6582031.328125c-.4647865.0574074-.4203339.7470703.0454102.7470703.0353165 0 2.6695366-.3267403 2.7045898-.3310547.2055664-.0253906.3515625-.2128906.3261719-.4179688-.0253907-.2060546-.2055664-.3476562-.4179688-.3261718z"/><path d="m32.3309517 18.0461407-1.9780273-.0703125c-.5287304.0322876-.4918308.7324352-.0263672.75.2035999.0072041-.737545-.02631 1.9912109.0703125.4869194 0 .501667-.7315674.0131836-.75z"/><path d="m52.8866768 38.31567c-.6245117-4.5063477-2.9677124-8.7337627-6.472229-11.6249981-.1586914-.1308594-.3955078-.109375-.527832.0507813-.1318359.1591797-.109375.3955078.050293.5273438 3.3520508 2.7658691 5.5951538 6.805418 6.201355 11.1158428-.0920029.1000175-.1669083.046978-.5714722.699585-1.3345528 2.1671829-.2530098 5.0410156 1.6733398 5.0410156 1.0634346 0 1.9648209-.9103928 1.5405273-2.6894531-.3852882-1.6145402-1.4662971-2.8762742-1.8939819-3.1201173zm.8856811 4.8945313c-1.196476.9301224-2.9036217-1.56744-1.5541992-3.7519531.0966797-.1572266.2294922-.3710938.3046875-.4921875.0288086.015625.0996094.0888672.1533203.1435547.6650391.6835938 1.1533203 1.5712891 1.375 2.5.1337586.5600318.1746903 1.2459869-.2788086 1.6005859z"/><path d="m29.4588814 67.7590332c-.5918503.7696457-.2853642 1.9611282 1.465332 1.9287109 1.1402893-.0293045 3.1819344-.3697128 3.9770508-.9482422 1.1580505-.8444138.6598778-2.5312805-1.2384644-2.6795654l.1608276-11.3624306c.0029297-.2070313-.1625977-.3769531-.3696289-.3798828-.0019531 0-.0039063 0-.0053711 0-.2045898 0-.3720703.1640625-.375.3701172l-.161377 11.4021034c-1.3945693.1836854-3.0643386 1.1606904-3.453369 1.6691895zm1.0595703.0800781c.753479-.4693604 1.7098999-.9260254 2.6003418-1.0124512.1253777.0611725.2437592.0514145.3632813-.0263672.953968.0310593 1.3510284.5220718 1.2844238.9001465-.1593971.8880615-3.006197 1.2153778-3.8618164 1.2373047-1.1640434.0325546-1.2682438-.5504608-.3867188-1.0986328z"/><path d="m47.55019 68.2277832c.9643555.3300781 1.9824219.4980469 3.0014648.4980469 1.1566544 0 2.7964592-.1201782 2.8789063-1.2744141.0239258-.3271484-.1005859-.8105469-.8276367-1.2548828 0-.0009766-.0004883-.0009766-.0004883-.0009766-.9384422-.5727844-1.9333839-.8288651-3.02771-.763916l-1.4185791-10.4958534c-.0650902-.4881821-.8101501-.3939552-.7431641.0996094l1.4142456 10.4636269c-2.7594413.3287582-3.0622329 2.1219482-1.2770385 2.7287597zm1.4474487-1.9940186c.1893692.2326813.4801712.1753693.6017456-.0526123.8471375-.0518799 1.6892014.0916595 2.6119385.6540527.4357529.2683716.6779594.6071472.2397461.8671875-.4591866.2707977-2.6173134.5150223-4.6586914-.1845703-1.3456536-.4574203-.1880379-1.1309966 1.2052612-1.2840576z"/><path d="m21.0072212 29.9797344c.2027512 0-.0647373.0831432 5.3125-3.2636719.4209309-.2626438.0211658-.8997803-.3984375-.6347656l-3.887207 2.4365234 1.6416016-2.9785156c.1319618-.2389889-.0291119-.5378342-.3061523-.5546875l-1.7817383-.1083984c.3312702-.2317734 1.1125374-.7956314 1.7099609-1.2001953.1577148-.1074219.2104492-.3154297.121582-.484375l-.9726563-1.8535156 3.1772461 2.578125c.3840733.3128624.8586636-.2699394.4726563-.5820313l-4.5927734-3.7265625c-.3180656-.2553482-.7564487.1064739-.5683594.4648438l1.6650391 3.171875c-.7705345.5334473-1.6141357 1.1503315-2.3237305 1.6308594-.2947063.199358-.1704006.6627159.1879883.6845703l2.2675781.1376953-2.0537109 3.7265625c-.1372243.2484626.0429096.555664.3286132.555664z"/></g></svg>