<svg id="Layer_1" enable-background="new 0 0 75 75" viewBox="0 0 75 75" xmlns="http://www.w3.org/2000/svg"><g id="Falling_Blocks" fill="rgb(0,0,0)"><path d="m29.2774696 19.1867485c0-.579834-.3914795-1.0498047-.8743896-1.0498047s-.8743896.4699707-.8743896 1.0498047.3914795 1.0500488.8743896 1.0500488.8743896-.4702148.8743896-1.0500488z"/><path d="m24.2994423 55.4955864-.6582642 11.2749062c-.3549004.0101624-.6153984-.0344772-.7474976.2124023-1.1028423.7120667-.8926487 2.3722534 1.2871094 2.7773438.9906311.1818542 3.1626263.2632828 3.5112305-.6855469.4436035-1.2057648-2.0054684-2.0751419-3.3032227-2.2373047l.659668-11.2988319c.026989-.4745751-.7180462-.5658875-.7490234-.0429688zm2.6884766 13.3203163c-.1119633.3134918-2.6513805.5263824-3.6098633-.1308594-.597435-.4081268-.4439487-1.0045471.125-1.1611328 1.1020508-.0126953 2.2260742.2978516 3.1347656.8886719.2744141.1777344.3710937.3457031.3500977.4033203z"/><path d="m30.7428017 65.7455902c-.2312183.0596619-.4286461.0961838-.4853516.3378906-.9770145.9850845-.3673267 2.6113281 1.765625 2.6113281 1.1323662 0 3.7117004-.4706497 3.8491211-1.5947266.1496849-1.2236099-2.1242142-1.5748444-3.3323364-1.572998l-2.7037964-10.1066933c-.1285629-.4791832-.8530426-.2853432-.7246094.1933594l2.6638184 9.9570351c-.1547852.0170898-.3101196.0244141-.4641113.0517578-.1444073-.0257873-.4244366.0587769-.5683594.1230469zm4.3852539 1.2636719c-.0528412.4035034-2.7576447 1.2750854-3.9707031.8007813-.7935104-.3093567-.7498531-1.0393143-.1601563-1.3544922 2.0151672-.5052186 4.17659.1682434 4.1308594.5537109z"/><path d="m10.5172148 20.8901176c.5891075 1.5780506 1.9101725 2.6513023 3.152832 3.9394531 1.3261719 1.3779297 2.828126 2.9384766 4.9057627 2.9384766h.0209961c.2677441.0644703.6021805.0994797.9525146.1489258 1.4655628.8955498 3.2073383 1.4731445 4.9664307 1.4731445 3.1723633 0 6.2402344-1.8095703 7.5556641-4.4990234 1.4468002-2.9965019.9617233-7.1681061-.5877075-10.1574707.0006104-.0007324.0016479-.0009766.0022583-.001709 1.0777245-1.3110247-.1921616-5.3874903-3.675293-6.1767578-.697794-2.182189-3.0308361-3.7151117-5.3432617-3.3847651-.0004883 0-.0009766 0-.0014648 0-1.8803711.2783203-3.4902344 1.6728516-4.0351563 3.4501948-3.9533033-.7018075-7.2729549 2.9274826-6.2734385 6.7851563-1.6342773 1.2167968-2.3540039 3.5673828-1.6401367 5.4843749zm10.5428476 6.9716797c.007019-.1318359-.050293-.2634277-.1697998-.3378906-.0004883-.0009766-.0004883-.0009766-.0004883-.0009766-1.0118885-.6341686-1.1640491-2.1230946-.1490479-2.9282227.2263794.0913086.4640503.1508789.706665.1508789.692812 0 1.6848774-.4782486 1.2734375-.9677734-.1328125-.1582031-.3701172-.1757813-.5283203-.0449219-.7985744.6755447-2.0189304-.0094013-1.8691406-1.0390625.065918-.4521484.4375-.8525391.8837891-.9511719.2578773-.0573063.3977814-.3734932.2022705-.6049805-.0320435-.0812988-.0830078-.1533203-.1636963-.1958008-.390625-.2070313-.5014648-.7988281-.4091797-1.2763672.185257-.9581318.9941978-1.949934.6616211-3.1640625.8881836.0625 1.7924805-.1445313 2.5473633-.5986328.9798679-.5894756 1.1097717-1.3377094 1.8022461-2.0878906.0009766 0 .0014648 0 .0024414.0009766.501873.2600079 1.061058.4888449 1.5932617.4580078.722168-.0097656 1.4208984-.2958984 1.9467773-.78125.2988281.333252.6889038.6228027 1.0449219.8864746.5167236.8342285.9169922 1.779541 1.2109375 2.7834473-.0496826-.0107422-.0949707-.0358887-.1471558-.0358887-.4829102 0-.8743896.4699707-.8743896 1.0500488 0 .8422661.8186092 1.3988552 1.4240112.7978516.1187553.8417168.1539116 1.6386509.0880737 2.5698242-1.5185547-.1074219-3.0568848.791748-3.6873169 2.1796875-.1138992.2515545.0727234.5302734.3408203.5302734.2768173 0 .3561916-.2601242.465332-.3789063.043457-.0595703.0664063-.1279297.0708008-.1962891.5802002-.901123 1.6591797-1.4624023 2.7368164-1.3896484-.1224365.8220215-.335144 1.5876465-.6665039 2.2734375-1.5382651 3.1456511-5.9107798 5.2692892-10.3365477 3.2988283zm-8.2645273-11.9863281c.1420898-.0917969.2050781-.2675781.1538086-.4287109-.9317207-2.9391298 1.1940489-6.1533203 4.5688486-6.1533203 1.0068474 0 1.1158943.2518845 1.3813477.0869141.0864258-.0527344.1474609-.1386719.1689453-.2382813.3796959-1.7360559 2.0633755-3.2210703 3.9746094-3.2685542 1.7394867-.0669036 3.626543 1.2681546 4.1083984 3.0996089.0371094.140625.1533203.2480469.2973633.2734375 1.1142578.1982422 2.128418.8408203 2.7822266 1.7646484.4536133.6396484 1.0483398 2.0820313.8388672 2.9052734-.4247513-.320303-1.0711918-.7564716-1.3242188-1.1972656-.1174717-.2037363-.4375839-.283884-.6225586-.0419922-.3945313.5126953-1.0424805.8378906-1.6894531.8466797-.34375.03125-.6201172-.0927734-.9619141-.2402344-.6326294-.2718725-.8014889-.6953201-1.8393555.9121094-.2719727.4199219-.5073242.7832031-.9736328 1.0644531-.8168945.4921875-1.8515625.6328125-2.7700195.3789063-.3779736-.1025763-.6402321.3680038-.3569336.6347656.3525391.3310547.3349609.9472656.2011719 1.4130859-.2467117.8584194-1.1848679 2.2946129-.3369141 3.4794922-1.0814857.7089863-1.223156 2.1379929-.3725586 3.0537109-.7405415.7658653-.9614487 1.934288-.440918 2.9433594-2.2730694-.3005714-2.7455578-.1248627-5.3725595-2.8535156-1.1333675-1.1804123-2.4616394-2.2657127-2.9897461-3.6816406-.6289063-1.6884766.0629883-3.7763672 1.5751953-4.7529297z"/><path d="m15.8770781 19.2690239c.1645517-.125.19629-.3603516.0708008-.5253906-1.4021235-1.8375587-.4212627-4.5417213 1.8432627-5.0458984.2021484-.0449219.3295898-.2460938.284668-.4482422-.0454102-.2011719-.2490234-.3291016-.4477539-.2841797-2.7967319.6236315-4.0080824 3.9634266-2.2768564 6.2333984.0737303.0966797.3602255.1966381.5258788.0703125z"/><path d="m28.1685829 48.4994926c2.2714844-2.3125 3.4360352-5.9169922 3.0395508-9.4072266-.0229492-.2060547-.206543-.34375-.4150391-.3310547-.2055664.0234375-.3535156.2099609-.3300781.4150391.3657227 3.2216797-.7446289 6.6748047-2.8295898 8.7978516-.3496495.3555374.1948394.8747826.5351562.5253906z"/><path d="m47.9434853 22.918438-4.0164185 5.3398438c-3.821228-.3808594-7.7356567 1.2138672-10.2037964 4.1640625-.3185692.3794708.2566452.8618889.5751953.4804688 2.2194214-2.6523438 5.6806641-4.1159668 9.1273804-3.9143066-.0912552.4438457.0685196.2120266 6.043457 4.8161621l-2.9225464.6293945c-.0535889-.0097656-.1002197-.0253906-.1560059-.0332031-1.0484619-.1518555-2.9429321-.0209961-4.0274658.8571777-2.5198975 1.3254395-5.4168701 1.9262695-8.282959 1.8210449-.4024048-2.7887688-.650753-5.0415726-1.6900635-6.4086914-1.4715576-1.9241333-3.0574646-1.3606663-4.9667969-.3486328-1.3792877.7312202-2.7345352 1.3048477-4.706543.8886719-1.3347893-.2947102-2.4200134-.5462399-3.3579102.6083984-1.0920467 1.3282585-1.1077785 2.7635155-1.9785156 10.4960938-.0234375.2060547.125.3916016.3305664.4150391.2026367.0126953.3916016-.125.4145508-.3310547.8808517-7.8153763.9072323-9.0033951 1.8139648-10.1054688 1.256403-1.546032 2.7359123.6115723 6.2553711-.5771484 1.7324562-.575367 3.4394798-2.2543564 4.9023438-1.2744141 1.5705872 1.0887737 1.7813187 3.6021576 2.2178345 6.5944824-2.2904053-.1862793-4.5377808-.8256836-6.5303345-1.9265137-.4313469-.2421989-.7982941.41716-.3623047.65625 2.1361694 1.1806641 4.552124 1.8544922 7.0098267 2.029541.4355965 3.1687126 1.305069 12.2688484.6503296 14.673584-.2182617.8017578-.6640625 1.4189453-1.1914063 1.6523438-.6422882.2813416-1.0166855.128231-6.2060547-.5390625-7.3695946-.9378166-7.8128872-.9466324-8.690918-1.6210938-1.6548252-1.2541046-.5269527-4.3015442-.2392578-6.3896484.0669231-.4846268-.674036-.6045303-.7431641-.1015625-.2976971 2.1582985-1.5588942 5.506691.5273438 7.0878906 1.1728535.89991 1.2588577.7534828 13.6567383 2.3710938.68993.0956764 1.3618774.1584244 1.9975586-.1210938.7436523-.3291016 1.331543-1.109375 1.612793-2.1416016.2363281-.8691406.2519531-1.7929688.2475586-2.6640625-.0161743-4.0515137-.3080444-8.1303711-.8575439-12.171875 2.9455109.0830879 5.6546173-.528286 8.0137329-1.6645508.3248901.1582031.5947876.4086914.8695068.6816406l1.2877808 5.9204102c.0116577.0532227.050293.0888672.0809937.130127l-.8145752.1992188 1.7600098 7.1999512 5.4107666-1.326416c-.0540161.0649414-.0905151.1455078-.0905151.2365723v9.4746094c0 .0002441.0001831.0004883.0001831.0009766h-3.6635132v7.2580605h17.7073326c0-.2062302 0-7.7388382 0-7.2580605h-3.1398888c.0000267-1.42062.0001945-10.0190468.0001831-9.4755859 0-.2070313-.1679688-.375-.375-.375h-9.8735962l10.9940186-2.6950684-1.7599487-7.1899414-2.3432617.572998 4.2474365-5.6479492c.1245117-.1660156.0913086-.4003906-.0742188-.5253906l-13.9648437-10.50293c-.1674805-.1259766-.4023438-.0908203-.5253906.0742188zm7.3315429 41.2832069c-.3071518 0-.2210732-.1264725-2.9287109-2.9570351-.1416016-.1503906-.1333008-.3876953.0175781-.5292969.1513672-.1425781.3891602-.1337891.5302734.0175781l2.6547852 2.8378906c.2260285.2416154.049057.6308633-.2739258.6308633zm-3.8110351-14.6191444h9.4042969v8.7246094h-9.4042969zm-5.1801758-14.4394532c.5683594.0820313.965332.2646484 1.1801758.5419922.2875977.3720703.2514648.9804688-.0820313 1.3857422-.3227539.3916016-.8911133.6074219-1.4780273.5595703-.5263672-.0410156-1.0869141-.28125-1.6206055-.6933594-.2207031-.1699219-.4130859-.3632813-.6030273-.5527344-.2255859-.2246094-.4555664-.4541016-.7255859-.6494141.8735351-.6103515 2.3955077-.7255858 3.3291015-.5917968zm-2.2589722 2.5231934c.5921631.4123535 1.2157593.6638184 1.819519.7121582.0722656.0058594.144043.0087891.215332.0087891.7529297-.0009766 1.4667969-.3115234 1.9013672-.8398438.5561523-.6757813.597168-1.6738281.0957031-2.3212891-.0819092-.105957-.1781616-.2019043-.2861938-.2890625l2.4909668-.536377.354187.2663574 1.3218994 6.0737305-6.9174805 1.5009766zm11.2188721 7.0612793c-1.0089417.7111244-1.2199707.7165527-1.2199707.9299316l-.0800171 1.4001465c-.0100098.1799316-.2099609.2700195-.3399658.1599121-.9797287-.8309784-.9987335-.9846268-1.1900024-.9299316l-1.2700195.3898926c-.1699829.0500488-.3099976-.119873-.2399902-.2900391.4435349-1.2050972.5976372-1.3382835.4899902-1.5l-.710022-1.1599121c-.0899658-.1499023.0200195-.3500977.1900024-.3400879 1.2695847.0438232 1.364624.1569481 1.4899902 0l.8400269-1.0998535c.1099854-.1501465.3200073-.1000977.3599854.0698242.3372726 1.3866043.2466812 1.4233284.4200439 1.5100098l.3099975.1101074.9199829.3598633c.1599732.0600586.1799927.290039.0299683.3901367zm-2.5100708-3.8554688-1.2004395-5.5151367 5.8277588 4.3835449zm4.9476318-1.8295898c-4.2610207-3.204834-11.3656387-8.5484142-13.3657227-10.0527344l4.0019531-5.3203125 13.3657227 10.0517578z"/><path d="m55.5772743 52.0698051c-.2960167-.3993874-.8977165.045784-.6044922.4453125l2.2880859 3.1113281c.29356.4004898.8988533-.0446243.6044922-.4433594z"/><path d="m51.8536415 31.8012505 2.1967773-1.8310547c.3810234-.3179092-.0988617-.8945694-.4804688-.5761719l-2.1967773 1.8310547c-.1591797.1328125-.1806641.3691406-.0478516.5283203.1332894.1595974.3698503.1799087.5283204.0478516z"/><path d="m53.6387978 34.7768364c.0546875.0273438.1132813.0410156.1708984.0410156.1362305 0 .2675781-.0742188.3339844-.203125l1.6479492-3.2041016c.0947266-.1845703.0224609-.4101563-.1621094-.5048828-.1831055-.0957031-.4101563-.0224609-.5048828.1611328l-1.6479492 3.2041016c-.0947266.1845703-.0219727.4111328.1621094.5058594z"/><path d="m21.092411 10.1752739c1.0788918-1.3157816 1.649868-1.5216169 3.3808594-.4345703.4168835.2640266.8210354-.3693428.3994141-.6347656-2.0728397-1.3061361-3.0557613-.9983492-4.3603516.5947266-.3149471.3840255.2661171.858797.5800781.4746093z"/><path d="m54.6920204 9.9604301c-4.4163055 1.9425259-4.3497238 1.9423761-4.4628906 1.9208984-.1494026-.036087-.1646271-.1556826-2.1855469-4.3300776-.1710815-.3532667-.7024765-.237134-.7124023.1533203l-.1166992 4.5830073c-.0053711.2070313.1582031.3789063.3652344.3847656.21875-.0380859.3789063-.1591797.3847656-.3652344l.0771484-3.0390625c1.3936234 2.8793716 1.4422417 3.2056484 2.0131836 3.3427734.428833.0993233.5492439-.032011 3.3735352-1.2734375-.7299805.9931641-1.2734375 2.1308594-1.5756836 3.3183594-.0702248.2766323.1811752.5228701.4487305.4580078 1.6772461-.3935547 3.387207-.5869141 5.1103516-.5605469-1.1977539.6376953-2.300293 1.4316406-3.2905273 2.3730469-.2416191.2298069-.084568.6379032.2490234.6464844 1.2880859.0322266 2.5703125.3144531 3.7573242.8242188-1.6079102.3925781-3.3012695.5380859-4.9458008.4238281-.4830475-.0510807-.5585861.7121716-.0527344.7480469.3964844.0283203.7919922.0419922 1.1870117.0419922 1.6889648 0 3.3583984-.2548828 4.9770508-.7597656.1435547-.0449219.246582-.171875.2612305-.3212891.0151367-.1494141-.0610352-.2939453-.1928711-.3662109-1.2568359-.6875-2.6479492-1.1240234-4.0683594-1.2792969 1.1362305-.9550781 2.4082031-1.7226563 3.7919922-2.2880859.3629799-.1478395.2823334-.6874361-.1113281-.7207031-2.0864258-.1699219-4.1757813-.0449219-6.2202148.3710938.4628906-1.3886719 1.2817383-2.6738281 2.3461914-3.6699219.3069228-.2855606-.0237161-.7881165-.407715-.616211z"/><path d="m47.408329 18.4682426.6660156-1.9375c.1620064-.4719353-.5485764-.709095-.7089844-.2441406l-.6660156 1.9375c-.1611251.4693623.5482827.7129784.7089844.2441406z"/><path d="m49.4928017 18.3237114-.8701172.8046875c-.25037.2334633-.0827904.6503906.2548828.6503906.2550888 0 .3121529-.1933842 1.1240234-.9042969.1523438-.140625.1616211-.3779297.0209961-.5292969-.1396484-.1513671-.3764648-.1611327-.5297851-.0214843z"/></g></svg>