<svg id="Layer_1" enable-background="new 0 0 75 75" viewBox="0 0 75 75" xmlns="http://www.w3.org/2000/svg"><g id="Holding_Book" fill="rgb(0,0,0)"><path d="m26.6380424 32.458744c-.5576782 0-1.0097046.4519043-1.0097046 1.0097656 0 .5576172.4520264 1.0095215 1.0097046 1.0095215s1.0097046-.4519043 1.0097046-1.0095215c0-.5578613-.4520263-1.0097656-1.0097046-1.0097656z"/><path d="m26.6380424 35.139164c-.5576782 0-1.0097046.4519043-1.0097046 1.0095215 0 .5578613.4520264 1.0097656 1.0097046 1.0097656s1.0097046-.4519043 1.0097046-1.0097656c0-.5576172-.4520263-1.0095215-1.0097046-1.0095215z"/><path d="m26.0264091 20.8579121c.3786011-.0209961.6639404-.4265137.6372681-.9055176s-.3552856-.8500977-.7338867-.8291016c-.3786011.0212402-.6639404.4267578-.6372681.9055176.0267334.4790039.3552857.8503418.7338867.8291016z"/><path d="m32.218914 18.7302265c-.3973389.0219727-.6967773.4475098-.6687622.9501953.0280151.5024414.3728027.8920898.7702026.8701172.3973389-.0222168.6967163-.4477539.6687622-.9504395-.0280151-.5026855-.3728027-.8920898-.7702026-.869873z"/><path d="m17.2249565 19.8198261c.3316879 2.8660622 1.5632477 5.27314 3.5793457 7.2087402 4.8438816 4.604517 13.0974045 1.3286362 14.5961914-5.9375.0238647-.1188965.0259399-.2368164.0447998-.3557129.0070801-.0007324.0140381-.0007324.0211182-.001709 2.0666962-.3383293 2.7385559-2.5991116 1.4914551-3.6708984-.1242332-2.7344761-.0643272-4.0023823-1.5559082-6.8798828-2.3512039-4.5357947-7.540678-6.5538173-12.5239258-3.8349609-.2734375.1484375-.4716797.1220703-.796875.0820313-3.4433575-.4223852-7.4494028 3.1400023-6.9204102 7.6962891.1115646.9602833.3798075 1.5525532.5009766 1.9609375.0826416.2817383.182312.611084.3575439.845459-1.1235323 1.0841369-.3045063 2.9178714 1.2056885 2.8872069zm-.3623047-2.559082.3413696.0117188c-.0612793.5878906-.0830688 1.1862793-.0512085 1.791748-.9764289.0086803-1.285984-1.4422093-.2901611-1.8034668zm17.3964844-.5808106c.0808105.1789551.1395874.3706055.2030029.5598145-1.4882813-2.3857079-4.8008118-1.6363354-5.3557129 1.161377-.3520927-.1157703-.6671925-.0613518-.9623413.151123-.7800274-3.0443211-4.5712566-3.2387972-5.6177979-.3156738l-3.7869873-1.3037109c.069458-.0493164.1419678-.0986328.2041626-.1474609.3398132-.2659416.2842865-.1935959.5087891-.3359375 2.2318459-1.2614775 2.5959129-3.9747238 4.3842773-5.4443359.1591797 1.4003906.9975586 2.7255859 2.2260742 3.4404297 1.5990524.9303875 3.1860962.4573421 3.3041992.453125.3618164-.0664063.8330078-.1533203 1.2226563-.3603516.3943291 1.0355902 1.5992203 1.4537163 2.5366211.7509766.2346993.6809605.6265259.9698141 1.1330567 1.3906248zm-.0187988 2.4277344c0 1.4042969-.9995117 2.546875-2.2280273 2.546875-1.2290039 0-2.2285156-1.1425781-2.2285156-2.546875 0-1.4052734.9995117-2.5478516 2.2285156-2.5478516 1.2285156.0000001 2.2280273 1.1425782 2.2280273 2.5478516zm-8.9497071-2.2099609c1.2290039 0 2.2285156 1.1425781 2.2285156 2.5478516 0 1.4042969-.9995117 2.546875-2.2285156 2.546875-1.2285156 0-2.2280273-1.1425781-2.2280273-2.546875 0-1.4052735.9995117-2.5478516 2.2280273-2.5478516zm-3.9682617 9.5888672c-2.6096592-2.5060806-3.6856117-5.8145809-3.3823242-9.0356445l4.4158936 1.5200195c-.2779789 2.1116581 1.218483 3.7714844 2.9346924 3.7714844 1.6255493 0 2.946167-1.4494629 2.9735107-3.2416992.0838013-.0402832.1572266-.0998535.1929932-.1938477.0881901-.2308178.3963413-.2913857.5629883-.1015625.0062866.0070801.0169067.0048828.0236206.0114746.0534058 1.7668457 1.3597412 3.1877441 2.9685669 3.1877441 1.2108765 0 2.2509155-.8068848 2.7159424-1.958252-.022583.1650391-.0293579.3288574-.0626221.4943848-1.3700562 6.6461754-8.9007512 9.7679196-13.3432618 5.5458985zm14.2230835-6.546875c.0466309-.7189941-.0131226-1.4191895-.1489258-2.0913086.2114487-.4071846.8670349-.556612 1.2241821-.0600586.5024262.6970577.1172791 1.8313618-1.0752563 2.1513672zm-18.8226929-3.4345703c-.03125.0009766-.0878906-.0009766-.0883789.0019531-.090332-.0771484-.2045898-.4648438-.2529297-.6308594-.1361961-.4581165-.3752136-.9693928-.4755859-1.8359375-.4752512-4.0929804 3.1240215-7.227819 6.0834961-6.8662109.3735352.0478516.7597656.0947266 1.2460938-.1669922 5.9923801-3.2671702 12.7723083.6991177 12.9644775 9.6711426-.309082-.0705566-.6314087-.0554199-.9256592.0510254-.3144035-.5662079-.6975784-.6862278-1.1096191-1.128418-.315918-.3427734-.4697266-.8427734-.4003906-1.3037109.0709038-.478898-.6404915-.6038322-.7382813-.1318359-.09375.4521484-.6113281.7998047-1.0634766.7080078-.453125-.0888672-.8032227-.6015625-.7202148-1.0556641.0775146-.4313812-.5331326-.6316252-.7128906-.2167969-.180666.4146051-1.1729507.5372124-1.4858398.5947266-2.6344681.5257988-4.6037502-1.6399431-4.4790039-3.8632813.0073242-.1367188-.0595703-.2666016-.175293-.3388672s-.262207-.0761719-.3813477-.0107422c-2.4884834 1.3823843-2.6955166 4.5409937-4.9257813 5.8154297-.1660995.1049747-.2357063.1104527-.6015625.3974609-.2987633.2343597-.4228783.3170357-.7940674.3325195-.259552-.1123428-.6315117-.0893459-.9050903-.0209961z"/><path d="m29.2481499 8.4709492c1.5615234.7402344 2.9125977 1.9619141 3.8041992 3.4394531.2539864.4203882.8988724.0369272.6425781-.3867188-.9672852-1.6025391-2.4326172-2.9277344-4.1254883-3.7304688-.4502411-.2103485-.7687149.4651195-.321289.6777345z"/><path d="m20.6963921 55.7922401c.0785713 11.7064781-.1731052 11.3908958.1873779 11.6054649-.2145386.3005371-.2506104.7026367-.0648193 1.1044922.4995785 1.0824203 2.7456131 1.3789063 3.9116211 1.3789063.5307617 0 1.0625-.0488281 1.5854492-.1464844.3417969-.0644531.7211914-.1699219.9477539-.4765625 1.1811523-1.6114044-3.5980568-3.214035-5.8173828-2.2683105v-11.197506c0-.4960136-.75-.496315-.75 0zm.883789 11.958004c.830719-.4778519 3.1307011-.4341583 4.6635742.546875 0 0 0 .0009766.0004883.0009766.156929.0998154.5234718.3665314.4150391.515625-.1969185.2673798-2.295845.5305862-4.0810547.0166016-.6069336-.1748047-.9594727-.3847656-1.0786133-.6425781-.0947265-.2050782-.0673828-.3525391.0805664-.4375001z"/><path d="m31.1402397 56.6457558v8.3586388c-.3116455.0627441-.6011963.1574707-.8447266.2976074-.4902344.28125-.6464844.8447266-.3881836 1.4023438.7514591 1.6281662 5.7345963 1.7231674 6.4438477.7558594.2109375-.2861328.2138672-.6865234.0073242-1.0185547-.4136887-.6695328-2.255497-1.62043-4.4682617-1.5229492v-8.2729454c0-.4960138-.75-.4963151-.75-.0000001zm4.1918945 9.8535118s0 .0009766.0004883.0009766c.1557884.0987396.5245743.3666763.4145508.515625-.199501.2708893-2.2812309.534874-4.0805664.0166016-.6069336-.1748047-.9594727-.3847656-1.0786133-.6425781-.0947266-.2050781-.0678711-.3525391.0810547-.4375.8286667-.4766771 3.1284142-.4353105 4.6630859.5468749z"/><path d="m56.4258842 19.9172382c-.0009766-.0068359-.0019531-.0136719-.0029297-.0205078-.1408806-.8703918-1.3304825-.4505482-1.4560547-.4648438-.8368835.133688-11.5443344 1.9079685-11.6459961 1.9248047-.2783203.0380859-.519043.2470703-.6176758.5429688l-4.8245849 16.1232929c-.034729.0192871-.0673828.041748-.1022339.060791-.2612381-1.9931526-.4760628-4.0037308-1.3046265-5.7553711-.7900391-1.6855488-2.1669922-2.8798847-3.6826172-3.1933613-2.2058887-.4564495-4.3097057.9236641-6.3842773.9492188-2.2957306.007515-5.4278088-1.6205215-7.2163086 1.961916-1.5174427 2.895462-2.6470375 15.1288986-3.0258789 18.4667969-.2441406 2.2216797.5419922 3.4306641 2.7138672 4.171875 5.5940152 1.9104347 11.7215062 2.9735717 16.8867188.1533203 1.9018555-1.0371094 3.1723633-2.4794922 3.5776367-4.0634766.1240234-.4833984.1689453-1.0166016.1386719-1.6298828-.0102539-.2070313-.1928711-.3496094-.3930664-.3564453-.2070313.0107422-.3662109.1865234-.355957.3935547.0268555.5371094-.0112305.9970703-.1162109 1.4072266-.4760742 1.8613281-2.2158203 3.0488281-3.2104492 3.5908203-4.9757862 2.7154427-10.8944931 1.6353264-16.2851563-.2041016-1.8608398-.6357422-2.418457-1.4892578-2.2109375-3.3798828 1.7735767-15.6266441 1.7945042-13.422718 2.1630249-15.7080078.1746426.1499901 4.2114372 5.7158203 11.7676392 5.7158203 2.1791382 0 4.3585205-.4770508 6.3411865-1.3811035.1854477 1.1848946.4569511 2.7736473.6651611 4.0354004.2192383 1.3212891.4384766 2.6435547.6557617 3.9150391 0 .2070313.1655273.3378906.3725586.3378906s.3720703-.2060547.3720703-.4130859c-.2125282-1.2630386-.4129028-2.4699821-.7407837-4.4462891.7680588.9744034 1.8716927 1.6376953 3.1123657 1.6376953.4967308 0 1.0815926-.0865936 5.6738281-.5888672 7.8995171-.741169 7.583477-.6635704 7.8144531-.9160156.1956482-.1785049.1458549.14785 1.6186523-5.9960938.1381836-.5488281.2744141-1.09375.4018555-1.6357422.1159668-.4404297.2211914-.8811035.3237305-1.3215332.0045166-.0004883.0091553-.0002441.0136719-.0007324.0024414 0 .0048828-.0009766.0073242-.0009766.7260742-.09375 1.4243164-.6347656 1.6977539-1.3164063.2915955-.7258034.1068573-1.4931717-.8647461-2.1308613.0809937-.3227673 1.6635971-6.520668 1.5800781-6.84375-.0615273-.3876305-.3788414-.6568069-1.065918-.5322266-1.5672073.2786407-1.552742.2070599-1.708374.3347168-.2774658-.3444824-.7894287-.9748535-1.104187-1.3647461.1242524-.577854.4501382-1.7842292.4209595-2.0588378zm-14.4333496 20.6999531c.1000366-.079834.210022-.1699219 6.5100098-.8598633.5173416-.0246582.5540695.7048111.0800171.75-2.210022.2399902-5.8099976.6499023-6.210022.75-.0499878.0197754-.0999756.0300293-.1499634.0300293-.1099854 0-.210022-.0500488-.2900391-.1401367-.1299438-.1599121-.0999755-.3999023.0599976-.5300293zm1.4431153-18.519289c.1001396-.0167274 12.0253448-2.0047531 12.2304688-2.0107422-.0083809.0335255-.382473 1.7203197-.4975586 2.1806641.0429192-.1320305-3.941906 15.9788914-3.9765625 16.1191425-.0175781.0732422-.0458984.1962891-.0668945.2197266-.1042633.0481186-12.7867355 1.2461472-12.9091797 1.2578125l.0366211.3730469-.1303711-.4130859.3887329-1.296875c.2044067-.1196289.4081421-.2402344.6065063-.3696289.1835938.1174316.4052124.2072754.6746826.2797852l.1411133.0390625c2.6087227.8008804 4.4684105-.5177536 4.7875977-2.0566406.1386719-.6679688-.0458984-1.3134766-.4819336-1.6845703-.5058594-.4287109-1.2495117-.4648438-2.1538086-.1015625-1.2754898.5127487-2.2765656 1.3176804-3.1277466 2.4042969zm-3.9521485 15.4951191c.0112305-.0292969.0737305-.1044922.1147461-.1542969.1000099-.098278.9673576-1.3848534 2.7661133-2.109375.359375-.1435547 1.0170898-.3359375 1.3891602-.0214844.2709961.2304688.2949219.6611328.2329102.9599609-.2342262 1.1297112-1.6426582 2.1626472-3.8325195 1.4921875l-.1674805-.046875c-.1289063-.0341796-.4311524-.1162109-.5029298-.1201171zm-19.8227539-3.1660156c-.1137085-.1435547-.3095703-.1757813-.4660034-.0927734.3141079-1.3533936.8981991-2.9613609 2.1447144-3.5761738.0732422-.0195313.1469727-.0527344.2011719-.0810547 1.4156227-.5904903 3.1161919.1729927 4.8740234.1572266.9716797-.0117188 1.9155273-.2802734 2.828125-.5400391 1.1782227-.3359375 2.2910156-.6533203 3.394043-.4248047 1.2861328.265625 2.4658203 1.3037109 3.1567383 2.7783222.8053856 1.7036591.9972267 3.7283783 1.2749634 5.7866211-6.285288 2.9878769-13.4022141 1.0538292-17.407776-4.0073242zm34.9331055 7.8144531c-.0981598.0336533-5.0792007.494236-5.1791992.5039063-7.7733345.7978172-7.7490768.8987885-8.440918.71875-1.2280884-.309082-2.2211914-1.3613281-2.6923828-2.8535156.1002007-.0099564 1.1764946-.11689 1.0762939-.1069336.0444336.3842773.2036743.7617188.414917 1.0935059.2999878.4699707.7700195.8300781.960022 1.0200195.2418633.2017555.3863525.0995712 1.9400024-.0300293.2799683-.0297852 10.5999756-1.0297852 10.75-1.119873.691494-.4811859.4749908-.3135376 2.2636108-7.9929199.3444824.1621094.677124.2526855 1.0029297.3076172-.0236587.1003454-2.0193519 8.3526152-2.0952758 8.4594725zm2.784668-9.15625c-.8927841.092598-2.3749352-.5766106-2.4418945-1.4628925-.0273438-.4013672.2709961-.8398438.6938477-1.0205078.7504883-.3232422 2.1494141.0908203 2.7207031.8007813.5467757.6794871-.2267419 1.5829486-.9726563 1.682619zm1.7539062-9.3652363c-.0029297.0195313-.0058594.0361328-.0043945.0410156-1.2863998 5.4074993-.2826271 1.3784389-1.5089722 6.2680664-.3475342-.1367188-.7125854-.2236328-1.0700684-.2578125.2910767-1.2172852 1.2277832-5.21875 1.1935425-5.4838867-.0161743-.1174316-.071167-.2231445-.1369629-.3234863 1.4407349-.234499 1.4402047-.2384243 1.5268555-.2438965zm-2.5898437.6472168-.7600098 3.4699707c-.0400391.1801758-.2000122.3000488-.3699951.3000488-.2259102 0-.4191742-.2234974-.3599854-.4599609l.7599487-3.4699707c.0956841-.4778385.8502122-.3207741.7300416.1599121z"/><path d="m29.2056694 23.9592304c-.5038662.5495186-1.2538147.5287952-1.1538086.5068359-.4287109 0-.8583984-.1884766-1.1489258-.5039063-.3331738-.3611336-.8896961.1404362-.5517578.5078125.7387676.8033371 1.8041229.7679462 1.7041016.7460938.6357422 0 1.2719727-.2802734 1.703125-.7490234.3334999-.3648739-.2128391-.872406-.5527344-.5078125z"/><path d="m45.5210991 12.2521992c-.3569336 1.5810547-1.5053711 2.9560547-2.9970703 3.5869141-.4550209.1931801-.168705.8813839.2919922.6914063 1.7109375-.7246094 3.0273438-2.2998047 3.4365234-4.1123047.1103859-.4861651-.6238975-.6476451-.7314453-.1660157z"/><path d="m47.3668022 14.3107929-2.8857422 3.0732422c-.2246933.2401886-.0527916.6318359.2734375.6318359.2975426 0 .143383-.0451584 3.1591797-3.1914063.3393364-.3627376-.2062721-.874174-.546875-.5136718z"/><path d="m50.7457085 17.234621c-1.5263672-.4277344-3.2626953-.1044922-4.5327148.8417969-.3965225.2962265.0481224.8973045.4482422.6015625 1.0874023-.8115234 2.5732422-1.0888672 3.8823242-.7207031.199707.0517578.4067383-.0615234.4624023-.2597656.055664-.2001953-.0605469-.4072266-.2602539-.4628907z"/><path d="m44.1047173 30.2116718c-.1055298.2094727.064209.3725586.2872314.2758789 1.6858292-.6944237 1.7866898-.8549023 1.9616089-.7416992l1.2165527.7836914c.1576538.1015625.4328613-.0554199.4656982-.2658691l.2529297-1.6228027c.0380096-.2441063.2939911-.2937489 1.71521-1.3571777.2029419-.1467285.2033081-.4067383.0005493-.4401855l-1.1791382-.1943359c-.2735825-.0684681-.5014877-.0147877-.5337524-.206543l-.2488403-1.4829102c-.0322876-.1921387-.307312-.1958008-.4653931-.0061035-1.2193336 1.4127312-1.2130051 1.5705185-1.4611206 1.6013184l-1.7194214.2143555c-.2229614.027832-.3932495.2858887-.288208.4365234.7481689 1.1486053.9281197 1.1562042.8098755 1.390625z"/></g></svg>