<svg id="Layer_1" enable-background="new 0 0 75 75" viewBox="0 0 75 75" xmlns="http://www.w3.org/2000/svg"><g id="Boating" fill="rgb(0,0,0)"><path d="m31.1813564 26.2706852c-.3162842.0283203-.5336914.486084-.4855957 1.0227051.0479736.5368652.3432617.9487305.6594238.9204102.3162842-.0280762.5336914-.486084.4855957-1.0227051-.0479736-.5366211-.3432617-.9487305-.6594238-.9204102z"/><path d="m35.9125595 26.0253239c-.3161621.0283203-.5336914.4863281-.4855957 1.0229492s.3432617.9487305.6595459.9204102.5335693-.4863281.4855957-1.0229492-.3432617-.9487305-.6595459-.9204102z"/><path d="m26.6989346 30.2372379c.8693848 2.2106915 2.7624512 3.9467754 5.0352783 4.5400372 3.3660831.8669319 7.6157513-.9564819 8.4244404-5.0986309.0147667.0094948.0407257.0722656.1868896.0722656.0429688 0 .0849609-.0078125.125-.0234375 2.0380516-.2305946 2.1971436-2.9153881.4290771-3.2026367.4641685-1.1301212.3265991-2.0785751-.1306152-2.9335938.329834-.324707.6230469-.7241211.8314209-1.2446289.8755188-2.1871433-.3874397-3.7898178-.4238281-3.890625-.0009766 0-.0009766 0-.0009766 0-.2908363-.4001904-.8973312.0354214-.6083984.4394531h.0009766c.25.3457031.0742188.8925781-.2519531 1.1513672-.3486328.2753906-.8974609.3642578-1.4677734.2333984-1.6149139-.369566-7.3517113-4.8709526-10.1660175.5292969-.1679688.3212891-.3789063.4443359-.6972656.6308594-2.1546307 1.2532024-2.8554802 3.6057434-2.133667 5.6882324-1.2587986.1628189-1.6288013 1.5897865-.8936768 2.4865723.5009917.6116905 1.4025668.766901 1.7410888.6220703zm11.6553974 1.694336c-1.4580078 1.8476543-4.1044922 2.7207012-6.4316425 2.1191387-2.7148285-.7081146-5.0978794-3.4322777-4.9686279-6.7026348 1.4058285-.8552113 3.017252-1.7101784 3.9188232-3.0844727 2.0295048.8002663 4.3397541 1.0810051 6.6778584.690918l1.8466797 1.8100586c.3825682 1.9541015.0065917 3.8322754-1.0430909 5.1669922zm1.9521484-2.9433594c-.0203857.0009766-.0325928.0180664-.0516357.0224609.0526123-.5209961.052002-1.0588379-.003418-1.6057129.0854492-.0100098.1589355-.0544434.2185059-.1152344.2463379-.0898438.5727539-.0092773.744751.2141113.4315452.5536405-.0230828 1.4440404-.9082032 1.4843751zm-.1796875-2.5576172-1.6827393-1.6503906c.5289307-.1293945 1.1568604-.3305664 1.736084-.7070313.3707733.7817173.3217774 1.5929947-.0533447 2.3574219zm-11.7636738-4.3427734c.3525391-.2060547.7167969-.4179688.984375-.9316406 2.4730129-4.7456875 7.4996624-.5626678 9.3339863-.1455078 1.1169205.2584839 2.008091-.1268826 2.4326172-.7275391.2787323 1.9383125-1.0859833 3.0073242-1.0224609 2.9072266-.1059151.0694027-.5106087.5464725-1.8642578.8720703-2.3737373.5726261-4.9876442.3993034-7.3632832-.6123047-.1796875-.0771484-.3828125-.0048828-.4746094.1630859-.7813129 1.4129887-2.4825535 2.2636566-3.8984375 3.1328125-.516655-1.6994248.0845127-3.6154614 1.8720703-4.6582031zm-2.930664 6.09375c.1539307-.2661133.5133057-.3991699.7801514-.2995605.0381527.8961296.1545925 1.2862568.2546387 1.6445313-.8997079.0174998-1.3625012-.7798158-1.0347901-1.3449708z"/><path d="m49.3728867 43.134697c1.8611183 0 3.4360657-.3329735 5.4423828-.34375l11.3193359.0517578c3.9263535-.0275841 4.3627701-2.799675 3.1347656-6.4931641-3.845581-11.5927715-11.2838134-21.4562969-20.4508056-27.1779766-.0055504-.9985762-.7194672-1.1688633-1.0405273-.5273438-.2099609.4199219-.1298828.9099121-.1298828 1.3798828v27.086668c-.242115.2376633-.3128815.4308472-.3795166.6169434-3.0895996-1.0563965-6.4095459-1.3132324-9.6379395-.7229004-.4947968.0899658-.3450508.8356056.1347656.7382813 3.1536865-.5773926 6.4000244-.3154297 9.40979.7419434.0430908.4562912.2180939.8116188.4729004 1.1003418v4.6660156c-3.5288086-.453125-7.1568604-.90625-10.8679199-1.3491211-.1542969-.7294922-.2280273-1.4733887-.2270508-2.2202148 1.3894043.2460938 2.7832031.3793945 4.1539307.4123535.4307861.8659668 2.237915 1.3571777 2.6345215 1.4543457 2.8391037.6927986 3.0592422-2.7529945.1201172-2.96875-.0234375-.0009766-1.9658203-.0947266-2.6289063.5898438-.0512695.0529785-.0765381.1154785-.1109619.1748047-1.3509521-.0322266-2.7268066-.1633301-4.0970459-.4091797-.3704453-.0573921-.5953636.3806725-.3157959.6398926-.9821777-.0603027-2.0146484-.1525879-3.0209961-.4111328-1.1899414-.3100586-2.159914-.8300781-2.8898945-1.5300293-.1500244-.1401367-.1500244-.380127-.0100098-.5300293.1398926-.1501465.3798828-.1599121.5300293-.0100098.6398926.6098633 1.5000019 1.0600586 2.5599384 1.3398438 1.4499168.3850555 2.9139519.3548241 3.1099854.420166.0852966-1.5624046.5344887-2.2531357.5-3.0800781 0-.7258339-.4016342-1.3448792-1.1300049-1.4599609-.5100098-.079834-1.0999756.0800781-1.6199951.1999512-.0100098 0-.0200195 0-.0300293.0100098-.4173737.0348167-2.138546.5098038-4.3000507-.2399902-.2698975-.0898438-.5098877-.1899414-.7399902-.2700195-.0499268-.0400391-.0998535-.0498047-.1499023-.0698242-1.7002163-.5393486-3.2463684 4.9361-3.6132813 6.6811523-6.473877-.6918945-13.0977783-1.3242188-19.7579346-1.8432617-.2237892-.0154305-.4555807.1850433-.3890381.4602051-.0339355.0144043-.0709229.0192871-.1002197.0437012-.1123047.09375-.1601563.2431641-.1220703.3847656 1.2256103 4.5938644 4.537231 9.0673027 9.90979 11.9355469-.338623.0297852-.6727295.0588379-1.0229492.0922852-5.1812744.4946289-3.4992676 8.2087402 1.3361816 7.7421875 1.3063965-.1259766 2.6391602-.8532715 3.8618164-.3764648 2.4009075.9365463 1.6385269 5.0631866 6.4759521 4.6865234 1.2164307-.0947266 2.3924561-.467041 3.59375-.6813965 2.5015869-.4465332 5.1243916-.1914063 7.4930439.7285156 1.8742676.7280273 3.6619873 1.8786621 5.671875 1.9348145 2.0341797.0566406 3.9799805-1.0307617 6.0118408-.9196777 1.6977539.0930176 3.3145752 1.0200195 5.0061035.8466797 1.331665-.1364746 2.5491943-1.0209961 3.1303711-2.2219238-1.3742828.6765366-3.5436058 1.0727539-3.6630859 1.0727539-.4528427 0-.5140419-.6562729-.0732422-.7431641 1.3895416-.2742233 2.8818817-.5702744 4.0599365-1.3632813.1962891-1.2697754-.2512207-2.6364746-1.1984863-3.5112305-1.2265282-1.1327515-2.1746292-1.0448608-2.9208984-2.9667969 1.6582031-.5935059 2.9626465-1.4902344 3.9432373-2.7084961 1.8544922-2.3251953 2.5664063-5.390625 1.859375-8.0009766-.0279541-.1013184-.0943604-.1816406-.1790771-.2299805-.0074463-.1782227-.1350098-.3327637-.3179932-.3579102-2.9906006-.4018555-6.0900879-.8127441-9.2750244-1.2246094v-4.2241211c.6267281.014576 1.1041336-.283268 1.3267822-.6831055 0 0 .0009766 0 .0009766-.0009766.2646484-.4775391.1708984-1.0166016.0439453-1.4833984-.0712891-.2519531-.1679688-.5966797-.3984375-.8525391-.2265625-.2832031-.5712891-.4619141-.9052734-.4853516-.0222168-.0041504-.0455322.0002441-.0679932-.0026855v-25.3735334c4.794529 9.7560654 4.5834351 22.0698376.12854 31.2980938-.1107177.231144.0126725.530613.4062501.538086zm-6.2021485-2.8144532c.0869141 0 .1669922.0029297.2363281.0078125.5224609.0380859.9121094.1816406 1.1591797.4257813.3953896.3919411.3570786 1.0511932-.3349609 1.1376953-.2451172.0332031-.5087891-.0214844-.7099609-.0712891h-.0009766c-1.0839844-.2646484-2.1386719-.7958984-2.1484375-1.1289063.2460937-.2539062 1.2001953-.3710937 1.7988281-.3710937zm4.477417 4.6879883v2.609375c-2.183815.1393929-4.4716454.4142609-9.206543.3120117.0382271-1.4188652-.7800713-1.940258-1.451416-4.2460938 3.6379395.4350587 7.1962891.8796388 10.657959 1.3247071zm-22.5266132 1.5307617c-6.4765625-1.2214355-12.7524414-3.2260742-18.6774902-5.9477539 6.3747554.5048828 12.7128906 1.1108398 18.9135742 1.7729492-.0032959.017334-.0058594.0322266-.0095215.0500488-.2286377 1.362793-.2990723 2.7500001-.2265625 4.1247559zm-4.163086 10.3408203c-.4822998.4821777-1.2871094.4597168-1.7973633-.0507813-.5102539-.5102539-.5328369-1.3149414-.0505371-1.7973633.4824219-.4821777 1.2871094-.4594727 1.7973633.0507813s.532959 1.3149415.0505371 1.7973633zm4.6739502 2.4414063c-.335083.3352051-1.0205078.1933594-1.5307617-.3171387-.510376-.5102539-.6522217-1.1955566-.3171387-1.5307617s1.0205078-.1931152 1.5308838.3171387c.5102539.5102539.6520996 1.1958008.3170166 1.5307617zm18.7181416-.6359863c-.335083.3352051-1.0205078.1931152-1.5307617-.3171387s-.6522217-1.1955566-.3171387-1.5307617c.3352051-.3352051 1.0205078-.1931152 1.5307617.3171387.510376.5102539.6523438 1.1955566.3171387 1.5307617zm11.8153076-4.9362793c-.8905029 1.105957-2.0876465 1.9233398-3.6156006 2.4702148-.2570801-.7436523-.5224609-1.4746094-1.1046143-1.9804688-2.2761765-1.9784393-7.9931488.6750374-11.243042.9526367-3.4572754.2954102-6.8171387-1.0302734-10.100832-2.1516113-3.0581055-1.0441895-6.328125-1.9162598-9.5566406-1.1784668-1.4174805.3239746-2.7375488.4819336-4.0871582.6118164-5.4725657-2.5908737-8.9112968-6.7170792-10.3653564-11.2075195 6.0175776 2.7685547 12.3974609 4.7949219 18.9765625 6.0273438 10.9515018 2.0491943 22.2586422 1.8532257 32.9013672-.53125.4951191 2.305664-.1806622 4.9501953-1.8046856 6.9873047zm.7171631-7.5273438c-2.6384277.5571289-5.3338623.9892578-8.0449219 1.2744141v-2.3349609c2.7535401.3562011 5.4353028.7111816 8.0449219 1.0605468zm-7.395874-8.008789c.0908203.3349609.1572266.6777344.0224609.9199219-.1179085.2100906-.4493217.3755264-.8583984.2539063-.8393555-.2663307-1.0532074-1.58992-.1689453-1.9414063.1123581-.0425606.2118835-.045681.3271484-.0273438.1650391.0126953.5626564.3911018.6777344.7949219zm-.3251953-27.9443341c8.6826172 5.6923828 15.7070313 15.2001953 19.3964844 26.3173809 1.0505295 3.1650314.9129562 5.5487404-2.4199219 5.5068359l-11.319336-.0517577c-2.3722649.0474472-3.1646004.2763748-4.9199219.3349609 4.4946328-9.7950554 4.3204842-22.4445877-.7373046-32.10742z"/><path d="m35.4441757 29.7430973c-.4766998 1.0558453-1.8626862 1.338726-2.7148438.5332031-.273632-.2603893-.7282753.0098267-.6171875.3808594.775631 2.5682697 3.6674995 2.5258732 4.2441406.7900391.5186082-1.5535031-.624916-2.3395939-.9121093-1.7041016zm-2.0751953 1.6875c.9079742.202673 1.7850761-.1198845 2.3642578-.7724609.0112267.681261-1.5656967 1.619421-2.3642578.7724609z"/><path d="m63.6961288 34.643486c.147007.4727287.864975.2492409.7148438-.2246094-1.6708984-5.3134747-4.3964844-9.944334-7.8828125-13.3915997-.3562698-.3491879-.8787537.1864491-.5273438.5332031 3.3994141 3.3613282 6.0605469 7.8857423 7.6953125 13.083006z"/><path d="m56.5828476 32.6962204c-.3970413-.2989464-.8459778.3032112-.4492188.5996094 1.734375 1.3007813 2.8964844 3.3652344 3.1064453 5.5244141.047081.4931488.7953796.4229622.7460938-.0722656-.2304687-2.3652345-1.5019531-4.6279298-3.4033203-6.0517579z"/><path d="m19.7859707 48.8632126c-2.8857422-.796875-5.6074219-2.2519531-7.8730469-4.2089844-.1582031-.1347656-.3945313-.1181641-.5292969.0390625s-.1171875.3935547.0390625.5292969c2.3486328 2.0283203 5.171875 3.5371094 8.1640625 4.3632813.0332031.0097656.0664063.0136719.0996094.0136719.1650391 0 .3154297-.109375.3613281-.2753906.0556641-.1992189-.0615234-.4062501-.2617187-.4609376z"/><path d="m30.4910488 22.2196598c.1131058-.6417542.8756008-.8640633 1.5273457-.9267578.9814453-.0927734 1.9863281.0478516 2.9052734.4140625.4688263.1795998.7331848-.5144653.2773438-.6972656-1.3263397-.5267639-3.4243832-.7381477-4.5546894-.1044922-.4775391.2685547-.8115234.7119141-.8935547 1.1855469-.0864849.4885253.6541233.6180782.7382812.1289062z"/><path d="m19.6844082 39.4208298c.7529297.1425781 1.46875.4707031 2.0693359.9492188.3772793.3072128.8585472-.2744217.4667969-.5859375-.8618507-.687542-2.6829681-1.5114861-3.6445313-.9833984-.4950752.2750435-.7284985.9427338-.4003906 1.4052734.2835274.404377.8999004-.0277138.6113281-.4335938-.0195313-.0273438-.015625-.0693359-.0078125-.0996094.0780011-.3432045.5577603-.3177223.9052735-.2519531z"/><path d="m19.2000332 36.2040329c2.5043221 2.276226 2.389185 2.3291016 2.6542969 2.3291016.3358479 0 .5066204-.417038.2548828-.6494141l-2.3994141-2.2285156c-.3623466-.3389664-.8743763.212265-.5097656.5488281z"/><path d="m23.3045254 37.0595016c-.8486328-.7089844-1.5683594-1.546875-2.1386719-2.4912109-.109375-.1767578-.3388672-.2314453-.515625-.1269531-.1767578.1074219-.2333984.3378906-.1269531.515625.6142578 1.0146484 1.3886719 1.9160156 2.3007813 2.6787109.3806743.3172302.8623504-.2575454.4804687-.5761719z"/></g></svg>