<svg id="Layer_1" enable-background="new 0 0 75 75" viewBox="0 0 75 75" xmlns="http://www.w3.org/2000/svg"><g id="Building_Blocks" fill="rgb(0,0,0)"><path d="m39.0463104 48.7021866c-.7570534-3.3214378-1.1730804-6.7491646-2.2011719-10.0693359-.3183594-1.027832-.8291016-2.2563477-1.9658203-2.6396484-1.1769409-.3961868-2.3045311.320446-3.3330078.7641602-1.6584167.7153091-3.1119595.5169716-3.265625.5249023-1.1305943-.0483665-1.004631-.1211586-2.7509766-.800293-.4091797-.1601563-.9189453-.3569336-1.4609375-.3027344-1.4208984.1513672-1.7509766 1.4931641-1.9921875 2.4726563-.9262714 3.4508095-1.9187756 6.1560516-1.9003906 11.206543.0084171 2.314827.7380142 3.3528633 3.46875 3.6611328 4.1672421.4714928 8.3679543.3197479 12.4951172-.4550781 2.9117165-.5466043 3.4841995-1.8337671 2.90625-4.3623048zm-3.0449219 3.625c-4.0478516.7602539-8.1767578.9116211-12.2724609.4472656-2.2993164-.2597542-2.7942619-.9434814-2.8027344-2.9189453-.0186005-4.9888916 1.0286407-7.8217125 1.7871094-10.6616211.3369865-1.2250099.4596596-2.1647911 1.4345703-2.2685547.3633518-.03825.7680492.1217041 1.1083984.2548828 1.9455261.7621651 1.7058105.7966461 3.2099609.8613281 3.4178944.1677666 4.6936226-1.8401337 6.1728516-1.3374023.8105469.2729492 1.2080078 1.2402344 1.4892578 2.1503906.6416016 2.0688477 1.0478516 4.2280273 1.4414063 6.315918.8204536 4.3547211 1.2219658 5.1079597.7373047 5.9814453-.4072266.730957-1.3945312 1.0043945-2.3056641 1.175293z"/><path d="m25.4506073 54.3208389-1.1895752 11.5540161c-1.3318901-.3273926-1.8386612.2771606-1.7293701.9728394.1303139.8581619 1.5094566 2.2099609 3.2578125 2.2099609 1.3287983 0 1.8356857-.8459854 1.6357422-1.5083008-.2273388-.7485046-1.5743275-1.2930908-2.4320068-1.4633179l1.2034912-11.6880493c.0510826-.4899406-.6961575-.5777129-.7460938-.0771484zm1.2568359 13.4458008c.0332031.1098633-.0400391.2685547-.1679688.3632813-.5392742.4007111-2.2546425.1910248-3.109375-1.0649414-.0644531-.09375-.1396484-.2163086-.1582031-.331543-.02672-.1748962.0653648-.1997147.2675781-.2026367.1531143.0109329.3693542-.0022964.6757813.1000977l.1240234.0454102c.4340439.1627655.5180779.1099319.9755859.2548828.3318349.1042174 1.3012792.5336532 1.3925782.8354491z"/><path d="m31.2357635 67.9165421c1.9086456 2.0397949 4.9114723 1.9469757 5.4873047 1.2089844.2626953-.3378906.265625-.8583984.0058594-1.2646484-.6110001-.960144-3.1517487-1.7178955-3.2904053-1.7880249l-1.1002197-11.815979c-.0450592-.4980164-.7927341-.4227104-.7460938.0693359l1.0649414 11.4375c-.0025635-.0006104-.0047607-.0018311-.0073242-.0024414-1.4444274-.3444901-2.5900344.8964156-1.4140625 2.1552734zm4.3154297-.1035157c.2011719.1196289.4257813.2626953.5449219.4506836.0878906.137207.1035156.3134766.0351563.4008789-.0917969.1181641-.3623047.1508789-.4511719.1611328-2.3045616.2835312-4.1690121-1.3963852-4.1835938-1.9169922-.0048828-.137207.1035156-.2949219.2568359-.3754883h.0009766c.5564957-.2942123 1.1707344.1891785 1.9208984.4287109.1000024.0400849.8777848.2595216 1.8759766.8510743z"/><path d="m9.977951 15.8183966c.4599161-.1888943.1721678-.8837175-.2851563-.6933594-1.9335942.7939453-3.4267583 2.7695322-3.9941411 5.2841806-.0565176.2532825.1553631.4844017.4052734.4555664l10.8011475-1.1444092c-.2498302 1.1499195-.3679771 2.3979797-.2770996 3.8674927-1.2804823-.046875-2.0396061 1.2787247-1.5513916 2.5401001.4352827 1.1272182 1.5257034 1.6525307 2.5821533 2.0339355 2.0704041 5.188076 6.3164101 7.9821777 11.2645264 7.9821777 4.4507332 0 7.8044052-2.3968391 9.7880859-6.3852539.2211647-.4470367-.4523506-.7753448-.671875-.3339844-.7802734 1.5703125-1.8339844 2.9082031-3.1318359 3.9765625-3.8232422 3.1132813-10.5136719 2.4267578-14.0351563-1.4418945-3.0415897-3.3529224-4.1864948-8.3278675-3.173584-12.3302002.0252686-.0043335.0501709-.0093994.072998-.0184326 3.2487869-.3495121 19.039257-2.0522995 18.0380859-1.9458008.5112801-.0487957 1.099453-.1242447 1.6798096-.1687012 1.5513573 2.3360825 2.1873398 5.0218906 1.8010254 7.8380127-.0322266.069397-.0471191.1448975-.0335693.2212524-.1079102.8023071-.3029785 1.618103-.5947266 2.4292603-.1688652.4678917.5382652.7200909.7050781.2539063.3060303-.8494263.5097656-1.704895.6251221-2.5415039.4735107-.2936401.9310303-.5952759 1.321167-.9819336 2.1564865-2.1335468.3039322-4.7989941-1.5231934-3.8397827-.3149414-1.2606812-.8311768-2.4550781-1.5343018-3.5648193.3588753-.2351494.3850517-.653162.3201904-1.076355-.7352371-4.7452717-6.1983376-8.2696476-11.0350342-8.680481.0103855-1.0411801-.5461349-1.7551284-1.1827393-2.0255737-1.2941952-.5504594-2.6346893.6687827-1.9017334 2.1469116-4.6166859.7589355-7.7474556 3.9878154-8.5806885 7.8252559-1.4433594-.7963867-3.1796875-1.0756836-4.8496094-.7675781-.4909849.0908794-.3473186.8325062.1367188.7373047 1.6640625-.3071289 3.4052734.0356445 4.7744141.9438486.2209797.1490726.534853.0188904.5771484-.2539063.6186981-3.9048328 3.7864952-7.2112579 8.4559326-7.8101206.1088867.1065063.2045898.2150269.3399658.3179321.3914642.300045.8501377-.295785.453125-.5976563-.34375-.26123-.5673828-.5209956-.6826172-.7944331-.125-.2973633-.109375-.6264648.0390625-.8383789.1855469-.2641602.6103516-.3608398.9453125-.21875.5681095.2412405.9862041 1.0422106.5507813 2.245605-.1691647.4675503.5383625.7207937.7050781.2548828.0518799-.1428833.0924072-.28302.1265869-.4214478 4.5436821.3741255 9.7113266 3.6896181 10.387085 8.0513315.0400391.2597656.0068359.3369141.0097656.3378906-2.5203781.2703838-20.2989902 2.1777267-20.3994141 2.2202148l-10.8837887 1.154785c.5869141-2.0292969 1.8388677-3.5957032 3.4160161-4.2436533zm31.1181641 5.8081064c.3330078.265625.4990234.753418.4238281 1.2436523-.1222649.8022728-.7473412 1.4010563-1.4165039 1.864502.0844727-1.0454712.0330811-2.0811768-.1499023-3.0952759.0072021-.0060425.0177002-.0032959.0244141-.0099487.2695312-.265625.7919921-.2646485 1.118164-.0029297zm-25.3203125 4.230957c-.3336058-.8591347.2204437-1.6500206.9316406-1.5080566.1116943.979126.314209 1.9423828.6156006 2.8759155-.6473293-.2844486-1.2855778-.6942444-1.5472412-1.3678589z"/><path d="m35.8325653 22.018959c0 .6169434.5 1.1170654 1.1169434 1.1170654s1.1170654-.5001221 1.1170654-1.1170654c0-.6168823-.5001221-1.1170044-1.1170654-1.1170044s-1.1169434.5001221-1.1169434 1.1170044z"/><path d="m27.6138153 22.018959c0-.6168823-.5-1.1170044-1.1169434-1.1170044s-1.1170654.5001221-1.1170654 1.1170044c0 .6169434.5001221 1.1170654 1.1170654 1.1170654s1.1169434-.500122 1.1169434-1.1170654z"/><path d="m43.4144745 57.4062881c-.0693359.715332-.1054688 1.3666992-.1132813 1.9907227-.060421 5.0049438.8715019 5.1554642 3.7792969 5.3203125 1.0376892.0591354 5.990097.0409622 7.0791016.0239258 3.8697281-.0611191 5.7962532.2629929 6.0771484-3.3193359.1368561-1.7399025.0236244-2.9016075.0185547-3.0708008-.0595703-.9853516-.1328125-2.2119141-.9677734-2.9711914-.2246094-.2041016-.4931641-.3081055-.8017578-.4272461-1.0435715-.4078026-2.1416969-.3082275-4.0878906-.3655396.633831-.2049446.9609795-.5870171.9971924-.6954346.1099854-.1600342.1599121-.3500366.2099609-.5300293.282444-.8890877.1400146-1.8190041.1400146-3.4400024-.0204315-.5296936-.0379524-2.260849-.210083-4.5699463-.166481-2.4992218.046833-4.4670105-2.2399902-4.6100464-1.1108513-.0640335-2.6586609-.0443535-3.7299805.1700439-1.7290878.3209991-1.7180862 1.1845703-1.75 2.9699707-.0079308.7368546.2682228 7.9865265.5400391 9.3200073.1130028.6128654.3190231 1.0810318.8430176 1.3727417-3.0783387.0715905-5.4977456-.220745-5.7835694 2.8318482zm7.7005615-11.3745727c1.0999756 1.25 2.3000488 2.4099731 3.5700684 3.4599609.3702507.3010063-.0500946.8801727-.4700928.5800171-1.3099365-1.0800171-2.539917-2.2700195-3.6600342-3.539978-.3207016-.3668747.2158814-.8687859.5600586-.5zm4.144165 9.3242798c1.0008888.0422325 2.055481-.0557899 3.0283203.3237305.1923828.074707.375.1450195.4960938.2548828.6083984.5541992.6689453 1.5673828.7226563 2.4614258.0071182.237236.1254692 1.145668-.0175781 2.9672852-.2407379 3.0946274-.981163 2.599556-10.2617188 2.6376953-1.127533.0063629-2.8302689.0156403-3.9921875-.2739258l-.1699219.3422852.1083984-.3588867c-.8476563-.2568359-1-1.3330078-1.0820313-2.4125977-.0693359-.9126854-.0686226-2.3763123.0693359-3.8208008.0634766-.6665039.2167969-1.0996094.4970703-1.4042969.8205757-.8955154 3.0521812-.7084045 4.5292969-.7480469 2.0007516-.0537491 4.0635339-.0493469 6.0722657.03125z"/><path d="m55.7894745 31.9966202c-4.3398438-3.7070313-5.7226563-4.6098633-6.2548828-4.7119141-.2929688-.1025391-.6845703.2006836-2.0351563 1.9658203-1.4474373 1.8911629-3.2854805 4.5555496-4.5709229 6.489563l-5.8197021 1.8322144c-.4743881.149559-.2471771.8648033.2246094.7158203l4.9447021-1.5567017c-2.1435547 3.3079224-2.1367188 3.8021851-1.9134521 4.0025024.0019531.0014648.0029297.003418.0048828.0048828.1267052.1867256.3516541.1831055.5888672.1831055 2.3977699 0 20.1973343-2.2256699 20.6376953-2.8950195.2490234-.2963867.3964844-.7314453-5.8066406-6.0302734zm-14.694336 8.1992187c.2794189-.6369019 1.1903076-2.1124268 2.3144531-3.8206177l.0175781-.0055542c.1756592-.0553589.2740479-.2272949.2523193-.4032593 2.2320557-3.3635254 5.1516113-7.4332886 5.8238525-7.9297485 1.2080078.4746094 9.8623047 7.8579102 11.2646484 9.5654297-2.5068357.6049805-17.3359373 2.5639649-19.6728514 2.59375z"/><path d="m49.9746552 31.7128067c-1.5842285.2133179-2.6958008 1.6705933-2.4824219 3.2548828.2132568 1.5843506 1.6705322 2.6958008 3.2548828 2.4825439 1.5842285-.2133179 2.6958008-1.6705322 2.4824219-3.2548828-.2132569-1.5843505-1.6704102-2.6958007-3.2548828-2.4825439z"/><path d="m7.3705287 34.1182022c1.218101.6865387 2.5013318 1.0187416 2.6722417 1.0183105 2.0369453 1.6218414 6.7456779 4.8068848 9.354126 4.8068848.5976563 0 1.2832031-.1162109 1.9130859-.5019531.4262257-.2602119.0282192-.8984871-.390625-.6396484-1.3921356.8482742-3.0726395.1799088-4.4189453-.4667969-2.0333252-.992981-3.9603271-2.2069092-5.7425537-3.5985718-.2386551-1.4968414-.8963757-4.1156216-2.0054932-5.1582642-2.5857162-2.4272117-5.9319916 1.8914872-1.3818364 4.5400391zm.8681645-3.9936523c.8664398.8153687 1.4715967 3.0581398 1.6962891 4.2246094-1.7635403-.449398-4.2165995-1.6849785-4.0468755-3.5024414.1138082-1.1905213 1.37007-1.6428281 2.3505864-.722168z"/><path d="m30.6400604 14.5620489c-.3164063-2.1088867-1.3544922-4.0668945-2.9248047-5.5131836-.3638821-.3357096-.8727703.2148743-.5078125.5517578 1.4443359 1.3305664 2.3994141 3.1323242 2.6904297 5.0727539.0743733.4885617.8149052.3812762.7421875-.1113281z"/><path d="m24.3793182 9.2143927c-1.5634766 1.6870117-2.2304688 4.1308594-1.7412109 6.3779297.1048527.4839411.8379822.3263979.7324219-.1591797-.4375-2.0117188.1591797-4.1992188 1.5595703-5.7089844.3370361-.3639517-.2123757-.8726759-.5507813-.5097656z"/><path d="m61.3959198 43.9287491c-.482235-.122242-.6632042.6077347-.1816406.7275391 2.7341118.678463 5.0780258-2.2190819 3.6474609-3.6391602-.3603516-.3569336-.9179688-.5048828-1.4931641-.3886719-.46875.0922852-.8779297.3330078-1.25.5786133-.4137955.2735252.0006065.8988571.4140625.6259766.3554688-.2353516.6582031-.4052734.9814453-.4692383 1.0876541-.2135887 1.2909698.8740654.6171875 1.6762695-.6533203.7758789-1.7558593 1.1308594-2.7353515.8886719z"/><path d="m69.6361542 46.8032608c-2.5595703-.9736328-5.4892578-.9648438-8.0390625.0219727-.4677696.1807289-.1859169.8813972.2695313.6992188 2.3818359-.9199219 5.1162109-.9282227 7.5019531-.0200195.4665145.1778296.7291488-.5251695.2675781-.701172z"/><path d="m63.2367401 50.4707413c.9599609-.215332 2.0166016.1577148 2.6337891.921875.1295013.1601753.3645401.1873398.5273438.0566406.1611328-.1303711.1865234-.3662109.0566406-.5273438-.7910156-.9804688-2.1455078-1.4555664-3.3798828-1.1835938-.482277.107174-.3260193.8365251.1621093.732422z"/><path d="m31.1136932 29.098671c.455349-.2018566.1485214-.8862991-.3027344-.6865234-1.400713.6191845-3.0395756-.0394859-3.6347656-1.4306641-.1939373-.4556332-.8859692-.1602993-.6894531.2958984.7575951 1.7673836 2.8290348 2.6140251 4.6269531 1.8212891z"/></g></svg>