<svg id="Layer_1" enable-background="new 0 0 75 75" viewBox="0 0 75 75" xmlns="http://www.w3.org/2000/svg"><g id="Drinking_Juice" fill="rgb(0,0,0)"><path d="m38.380661 66.333519c-1.1933594-.3388672-2.4765625-.4589844-3.7080078-.3408203-.1763916.0161133-.3626709.0585938-.5457764.1213379.0009766-3.2944336.0092773-6.595459.0184326-9.8879395.0009766-.2070313-.1669922-.375-.3740234-.3759766h-.0009766c-.2070313 0-.3740234.1669922-.375.3740234-.0096436 3.4313965-.0189209 6.8740234-.019165 10.3066406-.6278572.5283051-.6065559 1.1928329-.0814209 1.6855469.3466797.3232422.8359375.4140625 1.2705078.4599609 1.2351036.1307373 2.5526733.0325241 3.8037109-.3105469 1.4694367-.4015578 1.4423905-1.6258696.0117188-2.0322264zm-3.7363281 1.5966797c-.2929688-.03125-.6513672-.0888672-.8369141-.2617188-.1914063-.1796875-.1552734-.2841797-.1416016-.3242188.0917969-.2685547.6142578-.5625 1.0761719-.6054688 1.904438-.1766968 4.0034981.3473587 3.9638672.6181641-.0058594.0371094-.1171875.1708984-.5351563.2861328-1.1406249.310547-2.3623046.4082032-3.5263671.2871095z"/><path d="m22.8054657 57.364769c0 3.439209-.0096436 6.8776855-.019165 10.3168945-.6223469.5294342-.5965309 1.1895676-.074585 1.6782227.3447266.3242188.8359375.4150391 1.2695313.4609375 1.2957668.1363983 2.5950947.0212631 3.8037109-.3095703 1.4701233-.4011459 1.4423923-1.6268463.0117188-2.0332031-1.2299461-.3488235-3.2682667-.5610123-4.2596436-.217041.0092773-3.2983398.0184326-6.5979004.0184326-9.8962402 0-.4960138-.75-.4963151-.75-.0000001zm5.3154297 11.1376953c-.0732212.5564804-5.4025822 1.0537796-5.0380859-.0136719.4127445-1.2075043 5.1107254-.4221649 5.0380859.0136719z"/><path d="m43.3710175 40.0920639 4.2137451 9.2570801c.2032089.4531326.8875885.1411324.6816406-.3105469l-4.1125488-9.0356445c.1707764-.0229492.3424072-.0324707.5128174-.0585938.3601646.7556381 1.91399 1.6567383 3.1778564 1.6567383 1.8775826 0 2.8003998-1.7288246 2.1621094-2.9091797-1.0215454-1.8827286-4.9808502-1.0627136-5.4232178.510498-.1026192.009758-.6568718.0667419-.7578125.0793457l-.4244385-.9326172 9.4570313-3.3417969c3.5018005 13.694725 3.3685417 12.9117393 3.3193359 13.1396484-.0292969.1855469-.1757813.3564453-.3623047.4189453l-6.1962891 2.1923828c-.2685547.0878906-.5566406-.0234375-.6855469-.2685547-.232357-.4412422-.8946609-.0879173-.6640625.3476563.2314453.4423828.6816406.7011719 1.1611328.7011719.4207726 0 .2503471-.037281 6.6279297-2.2636719.6011391-.1995087 1.0088501-.8279305.8427734-1.5566406-3.67939-14.2563133-3.3827896-13.2567749-3.4688721-13.3959961.3144531-.2768555.4490967-.7241211.3010254-1.1435547l-.0168457-.0478516c-.194458-.5507813-.798584-.8393555-1.3493652-.6450195l-.9438477.333252c.4682045-1.0703068-.5643921-2.2267208-1.6802979-1.833252l-2.7973633.9875488-2.7661133-5.364502c-.0644531-.125-.2246094-.2167969-.3652344-.2167969-.1142578-.0244141-.1455078-.0292969-.1455078-.0273438l-4.5528564-.4958496c.6984978-2.2688828.6670685-5.3011398-.2539063-7.4216309 1.171875-.1811523 2.2636719-.8010254 2.9923096-1.7192383.2338867-.2978725-.0683899-.7113705-.4199219-.5869141-2.3324242.844595-4.1624298-4.4509153-10.0761719-5.8710928-.4719276-.1287079-.6647797.6122007-.1757813.7285156 5.1464119 1.2385731 6.9202194 5.5440149 9.3876953 5.9404287-2.1101151 1.5849743-4.9164619.73386-5.9414063-1.3964834-.1438942-.3023844-.6068535-.2790546-.7001953.0654297-.300518 1.1149664-.4711418 2.3734407-1.140625 3.2949209-.5536613.7704525-.9651833 1.3559361-1.3837891 1.8359375-.0436115-.6306858-.1751595-.9556141-.2177734-1.1230469-.1347656-.4853516-.3388672-1.2197266-.8046875-1.53125-.2529297-.1699219-.4570313-.0927734-.5322266-.0498047-.3804646.2085609-.2516861.780611-.2724609 1.0195313-.1185741 1.4687843-.7818413 3.1002522-1.8984375 4.3173828-.1821899-.4945145-.4164963-.9363461-.9971924-1.5510254-.9743614-1.0345459-1.7029591-.7843246-2.4793701.2678223-.0446014.1000938-1.2223511 1.4045048-1.3876953 4.4570313-2.2557468-1.9822578-3.4666557-3.9101257-3.2792969-6.9794922.1259766-2.1748047 1.1640625-4.4472647 2.8496094-6.234374 1.8339844-1.953125 4.5888672-2.8847656 7.5341797-2.5537109.2216797.0117188.3916016-.125.4150391-.3310547.0224609-.2060547-.1259766-.3916016-.3310547-.4150391-2.069458-.2321777-4.0408936.121582-5.7186279.9714355-.1530762-2.4147949-1.7669678-4.6474614-4.0411377-5.4987798-2.3730469-.8886719-5.2060556-.1865234-6.8886728 1.7099609-2.7303267 3.0781951-1.9715605 8.3279495-2.3896484 9.1787109-.0605469.1220703-.2001953.1933594-.2529297.2070313-.1857204-.0064487-.2967672-.1934223-1.8632813-2.08496-.2424097-.2908926-.7090292-.0808239-.6611328.2871094.2265625 1.7539053.5498047 3.6025381 1.3779297 5.2392569 2.0388947 4.0204449 6.1009474 4.8760986 9.4971933 2.3125.0605469.2397461.1245117.4790039.2039795.7128906.6757813 1.9716797 2.6523438 3.7539063 3.7705078 4.6416016.03125.0246582.0699463.0231934.1053467.0366211 3.936121 6.54142 13.1175117 5.3339806 15.7043457-1.1486816l4.7528076.5231934 2.6328125 5.1054688-2.9345703 1.0361328c-1.0097237.3581009-1.1950836 1.6825943-.3638916 2.3400879-1.2976074-.7185059-2.8098145-1.0197754-4.27771-.8381348-.2060547.0253906-.3515625.2128906-.3261719.4179688.0253906.2060547.203125.3583984.4179688.3261719 1.1757813-.1437988 2.3742676.0693359 3.4456787.5717773-1.1044083.395874-.8221016 2.0485039.3303223 2.095459.0185966.1536865.0022469.0329475.517334 1.192627-1.3686523.1308594-2.7391357.15625-4.1049805.081543-.4677734-2.1870117-.9594727-4.3693848-1.4854736-6.5441895 0 .119873-2.4100342.6799316-2.6400146.7299805-3.3622704.664875-6.9779758.2786102-10-.9299316-.9562969-.3861084-1.3891163-.5408173-2.0999756.8798828-.3365402.6733017-.1553726.2698402-2.0699463 7.6801758-.8905735 3.4773827-1.6446896 6.1518974-1.9400635 8.8100586-.1400146 1.4399414-.0799561 3.079834.9699707 4.0698242.7700195.7399902 1.9000244.9301758 2.9700928 1.0500488 3.75.4399414 7.5599365.3898926 11.2999268-.1599121 1.2800293-.1901855 2.5699463-.4401855 3.7399902-1 1.1700439-.5700684 2.210083-1.4902344 2.7000732-2.6801758.5599365-1.4099121.3099365-2.9899902.0299072-4.4799805-.4038086-2.2231445-.8441162-4.4411621-1.3099365-6.6542969 1.1967662.0568196 2.1711276.0921781 4.270264-.1281741zm2.0028076-.8327637c.4860001-.664238 1.7728806-.9632339 2.6152344-.8984375.1000023.0265083 1.0105171.0484161 1.3574219.6884766.2929688.5400391-.0546875 1.2734375-.5605469 1.5683594-.5302734.3076172-1.2773438.3125-2.0009766.0107422-.5967255-.2500153-1.7988358-.8424492-1.4111328-1.3691407zm-35.1386729-19.5576172c-.5771484-1.1386719-.8955078-2.4082031-1.1103516-3.6767578.7392235.8931999 1.0029688 1.3058224 1.5625 1.3251953.3710938-.0058594.7558594-.234375.9492188-.625.5638475-1.1386786-.2788-6.1298456 2.2783203-9.0126953 1.4580078-1.6425781 4.00879-2.2763672 6.0644541-1.5048828 2.0576172.7695313 3.5644531 2.922852 3.5830078 5.1181645.0002441.0249023.0098877.046875.0147705.0703125-2.553957 1.5976934-4.6049767 4.9013548-4.7901611 8.1259756-.0411377.6716309.0030518 1.3562012.1124268 2.0319824-2.9321976 2.4625116-6.7337408 1.9592119-8.6641856-1.8522944zm13.3289805 7.2839356c-.0699234-1.0583744.3247414-3.1917191 1.1768799-4.3659668.1957626-.2402267.5213661-.7937031.8554688-.6777344.5870667.187088 1.3533535 1.377676 1.5018311 2.057373-.0107422.0405273-.0092773.0827637-.0061035.1242676.0008545.010498-.0032959.020752-.0015869.03125.0431461.2638149.3620548.4483929.6630859.1875 1.4596119-1.3304977 2.355793-3.2121296 2.5537109-5.0390625.3694401 1.0421524.4020958 1.9900112.3691406 2.1767578-.2370701.3659115.2370949.7702656.5605469.4882813.7314453-.6376953 1.2792969-1.4023438 1.8095703-2.1425781.6637993-.9576721.9150505-1.1473713 1.3955078-3.1669922 1.505661 1.9497375 3.5530319 1.8218937 3.6533203 1.8515625.975071 2.0303535.949234 5.1868992.2698975 7.2768555l-.909668-.0991211c-.2266006-.5498219-.7873611-.5914268-1.1405029-.1279297-.4477768.5883293-.7974014 1.0873165-1.4960938 1.3046875-.3040199.0956707-.3601952.5042515-.0878906.6757813.9033661.5684452 2.3640213.2604256 2.744751-1.0949707l.5983887.065918c-2.4566308 5.7484588-11.0569554 6.8813933-14.510254.474121zm13.2178955-.8005371c-.0717773.3670864-.328392.6862869-.7158203.8154297.2705078-.2421875.4921875-.5234375.7158203-.8154297zm6.765625 7.7832031c6.9027061-2.423584 6.5636444-2.4114323 6.8925781-2.2509766.4438324.2126713.4869881.936203-.0429688 1.1230469l-6.4443359 2.2753906c-.7086296.2535668-1.1589203-.8808975-.4052734-1.1474609zm-.3917236 1.7700195-.0113525.0041504c-.0067139-.0083008-.0169678-.013916-.0246582-.0217285.0118407.0063477.0240478.0117188.0360107.0175781zm-16.7352295 14.5463868c-.0899658 0-.1900635-.0300293-.2600098-.1101074-2.289917-2.2900391-3.0098877-5.9899902-1.75-8.9799805.0799561-.1899414.3000488-.2800293.4901123-.1999512.1899414.0800781.2799072.2998047.1999512.4899902-1.1500244 2.7199707-.4899902 6.079834 1.5899658 8.1699219.2076721.1936493.1180515.630127-.2700195.630127z"/><path d="m19.0251923 9.3999262c.0302734-.2041016-.1103516-.3955078-.3154297-.4267578-2.7141275-.4013996-5.1768227 1.5023584-5.5253916 4.1591797-.0633965.4954348.6808929.585927.7441406.0976563.2936249-2.2580118 2.4082594-3.855875 4.6699228-3.5146484.1982422.0302733.3955079-.1103517.4267579-.3154298z"/><path d="m25.0730438 13.8520746c-1.71875.6425781-3.0761719 2.1445313-3.5410156 3.9208975-.1262646.4793358.5995026.670414.7246094.1894531.4052734-1.5439453 1.5849609-2.8496084 3.078125-3.4072256.4653358-.1730404.2033043-.8748264-.2617188-.703125z"/><path d="m36.5201874 23.1828842c.3337402-.1176758.4570313-.6296387.2756348-1.1433105s-.598877-.8347168-.932373-.717041c-.3337402.1179199-.4570313.6298828-.2756348 1.1435547s.5988769.8347167.932373.7167968z"/><path d="m32.3925018 22.5515366c-.342041.0908203-.5058594.5913086-.3662109 1.1179199.1398926.5263672.5303955.8798828.8723145.7890625.342041-.0908203.5058594-.5913086.3660889-1.1179199s-.5303956-.8798829-.8721925-.7890625z"/><path d="m52.4460907 45.2104721c.3968353-.2964592-.0508537-.897213-.4492188-.5996094-.8300781.6201172-1.9277344.875-2.9501953.6738281-.4749298-.1032448-.6384544.6390495-.1425781.7363281 1.2150993.2378312 2.5408249-.0612525 3.5419922-.8105468z"/><path d="m64.7888641 63.779808c.6367188.9169922.96875 2.03125 1.2900391 3.1103516.143364.4759674.8605957.2595291.71875-.2148438-.3378906-1.1347656-.6875-2.3085938-1.3935547-3.3232422-1.7967415-2.5854988-4.6804619-2.2814522-5.6533203-.4521484-1.0712242-1.049675-3.0900612-.661747-4.0126953 1.8222656-.5859375-.7832031-1.5810547-1.2714844-2.5566406-1.1738281-1.3300781.1347656-2.4375 1.2851563-2.5205078 2.6191406-.0304031.4958115.7173996.5419083.7480469.046875.0605469-.9609375.8896484-1.8222656 1.8486328-1.9199219.9570313-.0898438 1.9423828.5810547 2.1943359 1.5107422.0439453.1621094.1904297.2753906.3583984.2773438h.0039063c.5724754 0 .3260498-.9606934 1.1279297-2.0888672.3857422-.5419922.9267578-.8740234 1.4492188-.8886719.4726563.0244141 1.0615234.3505859 1.1025391.8574219.0166016.2011719.1855469.3310547.3916016.3447266.2011719-.0097656.359375-.1767578.3574219-.3789063-.0093689-.936924.9779968-1.71875 1.9453125-1.71875.1000479.0309601 1.452606-.0798072 2.6005857 1.5703125z"/><path d="m47.3601532 17.7651596c-1.2900391 1.1845703-2.3193359 2.6679688-2.9775391 4.2910156-.1866188.4572182.5077896.7423687.6953125.28125.6162109-1.5195313 1.5810547-2.9101563 2.7900391-4.0195313.3641853-.336172-.1405067-.8872871-.5078125-.5527343z"/><path d="m50.9099579 19.4409409c-1.7675781.6240234-3.3574219 1.6953125-4.5976563 3.0986328-.3277397.3722191.234024.8677902.5625.4960938 1.1552734-1.3076172 2.6376953-2.3066406 4.2851563-2.8876953.4710312-.1648599.2130356-.8760377-.25-.7070313z"/><path d="m48.4265594 24.0171127c-.4817238.1315937-.2793846.8562088.1953125.7246094 2.8842888-.7793999 5.0322075.1025391 5.2519531.1025391.4301224 0 .5179138-.608305.1103516-.7333984-1.7861328-.5498048-3.7597656-.5810548-5.5576172-.0937501z"/></g></svg>