<svg id="Layer_1" enable-background="new 0 0 75 75" viewBox="0 0 75 75" xmlns="http://www.w3.org/2000/svg"><g id="_Balancing_Ball" fill="rgb(0,0,0)"><path d="m48.3883286 7.6348958c-.7957306-.4234166-2.19524-.5594087-3.0844727-.3388672-.1743965.0526252-.3450394.1798749-.5415039.3046875-.2850723-.9502435-1.5366707-1.3208108-2.526062-.5046387-1.1141586-1.404377-3.4745064-2.2134328-5.6506958-1.545166-1.3510742.4150391-2.5307617 1.3769531-3.2211914 2.6093755-.4836426-.2062993-1.0169678-.2836919-1.5441284-.2507329-.4725952-.107666-.9880981-.0070801-1.3884888.2624516-.4724369-.855648-2.1013336-1.6447129-3.21875-1.6611333-1.4693489-.0845551-2.7607784 1.1423144-2.309082 2.5810552-1.5238647.1714344-2.3123951 1.9497461-1.34375 3.5957031.6411266 1.0751715 1.8441868 1.6930838 3.0273438 1.3115234.1696262-.060544.4489918-.1931887.5830078-.3095703.211195.5491056.6502037 1.0228376 1.3082886 1.2634277.2161865.5192871.6418457.9313965 1.1460571 1.1105947-1.0899887 1.0278492-.3514805 2.8095703 1.1164551 2.8095703.1228199 0 .2391567-.0036449.3423462-.0688477.3425903.7285156.779541 1.4128418 1.3080444 2.0102539 2.7692299 3.1207371 9.1851311 3.0700874 10.9119873-2.3305664 1.3079529.3257904 2.4030533-.8841915 2.038208-2.1088867-.2030869-.6872911-.8608322-1.1501989-1.375-1.1850576.0933456-.2869101.0791435-.4986067.0966797-.6108398.0405273-.0351563.1962891-.0878906.2895508-.1191406.3067055-.1034107.3657455-.1301632.6827393-.3762207.7161369 1.2674942 2.3212776 1.4462481 3.5667725.7150879 1.5393715-.9068623 1.8902054-2.8386393.5561523-3.7958984.9781722-.9228029.711582-2.5792675-.7705079-3.3681645zm-20.5092774 5.8066411c-.1079102-.265625-.2910156-.7089844-.7011719-.6484375-.2441177.0292673-.4023705.2567635-.5024414.3330078-1.5780487.9711065-3.4026127-1.2698994-2.5981445-2.6943359.2887993-.502492 1.0124874-.7830267 1.5039063-.4726563.4191685.245759.8226414-.367465.3623047-.6582031-.4077492-.2600136-.491087-.9099331-.2294922-1.3320317.8901787-1.489027 3.7952709-.2726436 4.1005249.7358403-.9511433.8147964-1.4054146 2.2342386-.9794312 3.5473633.0263672.0820313.0527344.1640625.0742188.2490234.0180664.0722656.019043.0957031-.0180664.1162109-.0547791.1001625-.5026093.5800629-.5622559 1.401123-.3365097-.2696971-.3913269-.4319438-.4499512-.5769042zm2.4817505 3.0219717c.0859985.559082.2346802 1.1113281.4326782 1.6474609-.9668655.0521679-1.3192024-1.2118072-.4326782-1.6474609zm9.7042847 5.012207c-2.3125 1.2392578-5.4355469.7314453-7.1123047-1.1582031-1.0808105-1.2224121-1.7636719-2.8295898-1.9040527-4.440917.354784-.2399683.5774517-.5541372.6730957-.9135742 1.1857491.2499466 2.3880234-.4076366 2.7104492-1.5507813.8712463.4267988 3.9457169.3796082 4.7514648-.1337891.3565331 1.0003433 1.2793846 2.1647329 2.1860352 2.4609375.4273071.1410513.9494705.4376459 1.5817871.3027334-.0270806 2.1759015-.9167595 4.3853627-2.8864746 5.4335938zm4.2910156-3.9267578c-.2244873.2036133-.5588379.2763672-.8552246.2077637.1400757-.630127.206543-1.2736816.1983643-1.916503.0499268.0424805.1071167.0769043.1763916.088623.7669258.1270896 1.0556449 1.093238.4804687 1.6201163zm-.2426758-3.7988271c-.2260742.0761719-.4829102.1621094-.6367188.3642578-.2256622.2948065-.1489792.7455845-.2192383.8671875-.3843575.6618357-1.1933022.1960964-1.6547852.0449219-.4922104-.1602201-1.3688583-.9640112-1.7392578-2.078125l-.0410156-.1113281c-.0263672-.0683594-.0825195-.2314453-.1020508-.21875.1556969-.4706049-.5562286-.7059135-.7119141-.2353516-.2157249.6549759-2.2808228.5559702-3.3862305.5341797-.1246338-.0211315-.6647339.0188665-1.1289063-.3496094-.1577148-.1269531-.3823242-.1054688-.5136719.0439453-.1469727.1640625-.2099609.3876953-.265625.5849609-.2618294.928298-1.3527718 1.3066025-2.1738281.9199219-.2736053-.1261158-.5780087.1027431-.5292969.4013672.0322266.1933594-.0395508.40625-.1972656.5830078-.8664455.9794054-2.4192295-.4503593-1.4145508-1.9082031.238575-.3740416.4045696-.3740854.1499023-1.1699219-.3280106-1.0160332.0029106-2.1491346.8303223-2.8063965.083374-.0314941.1564941-.0876465.2080688-.1591797.4284058-.2712402.9385376-.4143066 1.4489136-.4143066 1.0507202 0 1.2595406.4844923 1.6025391.3779297.1010742-.03125.184082-.1035156.2290039-.1992188.5649414-1.2080083 1.6635742-2.1621099 2.9375-2.5537114 2.9250336-.8948479 5.7248573 1.192821 5.3154297 3.0195317-.063839.280467.2023926.5266924.4790039.4394531 1.6911583-.5378017 3.2919807 1.1056318 2.7011719 2.7880859-.1811979.5138455-.6330183 1.047392-1.1874998 1.2353517zm5.1235352-1.1699219c.0078125.5878906-.390625 1.2050781-1.0146484 1.5722656-1.2253532.7232609-2.4572029.130681-2.6204224-.6474609 1.4984093-2.021637-.1347618-4.8925161-2.6925659-4.6064453-.0037842-.3793945-.1165771-.7619629-.2832031-1.1284184.5568237-.5558281 1.1445351-.4419589 1.3813477-.0493164.0681992.1000276.1085358.6904302.6459961.6904302.3268967.0105448.7328873-.345109.8491211-.3916016.5979843-.1491694 1.7887383-.1180577 2.5332031.2773438.5634766.2998047.9370117.8212891.9516602 1.3349609.0201073.4641447-.3240814 1.0219793-.8691406 1.0595703-.4795609.029829-.476368.7770691.0786133.7470703.552059-.0000001 1.0329893.5670451 1.0400389 1.1416015z"/><path d="m38.9719467 15.7318201c-.3829956.0292969-.6698608.3632803-.6407471.7463369.0291138.3828125.3632202.6699219.7461548.640625.3829956-.0290527.6698608-.3632813.6407471-.7460938-.0291138-.3830556-.3631592-.6699208-.7461548-.6408681z"/><path d="m36.4282455 16.3209305c-.0291138-.3830557-.3631592-.6699209-.7461548-.6408682s-.6698608.3632803-.6407471.7463369c.0291138.3828125.3632202.6696777.7461548.640625.3829957-.0290527.6698609-.3632812.6407471-.7460937z"/><path d="m35.9488754 17.9776688c-.1899414.0175781-.3144531.1005859-.3657227.2568359-.5609055 1.6949387.8108215 2.9241314 2.2421875 2.6660156 1.3432083-.2469463 1.9521828-1.7785378 1.3833008-2.6728516-.1961288-.3092231-.4460868-.1226329-3.2597656-.2499999zm1.7407227 2.1845703c-.4423828.0869141-.9418945-.0908203-1.2382813-.4316406-.2128906-.2441406-.2905273-.6035156-.2231445-.9951172l2.4145508.0625c.1230583.5488586-.2442627 1.2355575-.953125 1.3642578z"/><path d="m43.0475082 25.8057938c-.4862251.0229359-.4675026.75.0161133.75.1009064-.0273857 6.7936668-.0147152 11.451355-5.7810059.8880501.0814724 2.0927315-.9600582 2.5750122-1.6447754.5117188-.7275391.684082-1.8574219.0229492-2.6103516-.5786133-.6552725-1.6611328-.7753897-2.465332-.2685547-1.3404541.8402672-1.7020836 3.1929417-.8299561 4.1779785-2.6339111 3.183838-6.6400146 5.1931153-10.7701416 5.3767091zm12.694336-9.1152344c1.0866661 0 1.3422737 1.1441364.7348633 2.0078125-.3330078.4726563-1.309082 1.3193359-1.8881836 1.3339844-.8439713-.037098-.6672058-3.3417969 1.1533203-3.3417969z"/><path d="m29.9859848 26.4532547c.4926357.094738.6332283-.6349602.1523438-.734375-3.6204224-.7529297-6.8323975-3.105957-8.6621704-6.3081055.565836-.7719345.0768604-2.385973-.3788452-3.1459961-.4575195-.7617178-1.4208984-1.3779287-2.3759766-1.0771475-.8334961.2617188-1.3803711 1.203124-1.2451172 2.1445303.2132759 1.4775372 2.0303001 2.757864 3.3657837 2.4763184 1.9379882 3.3728027 5.3253174 5.8513184 9.1439819 6.6447754zm-11.7675781-9.2285156c-.0830078-.5771484.2436523-1.1699219.7275391-1.3222647.5742188-.1767578 1.2089844.249999 1.5083008.7480459.350069.5842133.9104195 2.3662262.1791992 2.4404297-.9936524.1054688-2.2744141-.8925781-2.4150391-1.8662109z"/><path d="m32.0880966 39.4185867c0 .4714355.3822021.8537598.8536377.8537598s.8536377-.3823242.8536377-.8537598-.3822021-.8535156-.8536377-.8535156-.8536377.3820801-.8536377.8535156z"/><path d="m35.7268906 40.1163406c0 .4714355.3822021.8535156.8536377.8535156s.8535767-.3820801.8535767-.8535156-.3821411-.8535156-.8535767-.8535156-.8536377.3820801-.8536377.8535156z"/><path d="m40.5965195 39.0850906c-.4714355 0-.8535767.3820801-.8535767.8535156s.3821411.8535156.8535767.8535156.8536377-.3820801.8536377-.8535156-.3822022-.8535156-.8536377-.8535156z"/><path d="m49.8038559 66.4259109c1.6108398-2.7568359 2.0234375-6.2275391 1.1035156-9.2861328-.0595703-.1982422-.2680664-.3105469-.4667969-.2509766-.1982422.0595703-.3110352.2695313-.2509766.4677734.8603516 2.8613281.4746094 6.1103516-1.0332031 8.6904297-.2500381.4276353.3992768.8023835.647461.3789063z"/><path d="m21.1295395 51.4161453c-.1708984-.1162109-.4047852-.0732422-.5214844.0976563-1.9682617 2.8769531-2.4296875 6.6914063-1.2036133 9.9541016.1752548.465332.8763161.1992149.7021484-.2636719-1.1411133-3.0371094-.7119141-6.5878906 1.1206055-9.2666016.1166993-.1708984.0732422-.4042969-.0976562-.5214844z"/><path d="m51.3194809 28.5030594c.38908-.3093872-.0788155-.897028-.4658203-.5878906l-2.1420898 1.6962891c-.2763443.2197437-.1212616.6689453.2329102.6689453.2461318-.0000001.2441634-.1256714 2.3749999-1.7773438z"/><path d="m52.1270981 30.2608719-3.1323242 1.2128906c-.4578285.1757336-.1960793.8838043.2705078.6992188l3.1323242-1.2128906c.4627571-.1799603.1917992-.8785515-.2705078-.6992188z"/><path d="m52.1461411 33.5421219-2.1616211.2988281c-.4969177.0686226-.380764.8250389.1025391.7421875l2.1616211-.2988281c.5050315-.0697403.3729629-.8294563-.1025391-.7421875z"/><path d="m37.8921127 69.4254227c1.8099976-.2597656 3.8600464-.9897461 4.8900146-2.5 2.2866135-3.3171463 2.0461082-8.7085762-2.0371704-12.0822754.2332764-.2197266.3621216-.4626465.3621216-.7277832 0-.4005966-.4761505-1.1763191-1.4068604-1.5595703l-.2532959-8.3017578c-.0155258-.5039482-.7650528-.467495-.75.0234375l.2455444 8.0476074c-.6433792-.1049995-1.3170586.0383835-1.7241211.6074219-2.1356544-.6684303-4.4130859-.6679802-6.6123657.1994629-.0804634-.299984-.3059387-.5587311-.5908203-.7080078 3.4457855-8.9775467 3.5144234-8.6257668 3.3369751-8.9331055 2.1678238.4159164 4.8349953.2997169 6.9849243-.1245117 3.8093529-.7644501 4.6403084-2.6752129 4.1362305-6.2617188-.0805664-.5859375-.1621094-1.171875-.2631836-1.7470703-.0356445-.2041016-.2265625-.3378906-.434082-.3046875-.2036133.0351563-.340332.2294922-.3041992.4335938.7257385 4.154232.8781853 6.3119202-3.28125 7.1435547-2.6020508.5136719-9.6108398 1.0283203-10.7832031-2.7089844-.2265625-.7333984-.1240234-1.5458984.0214844-2.453125.6821289-4.0712891 1.6987305-8.0869141 3.0219727-11.9365234.5825195-1.7128906 1.1357422-2.1884766 2.1982422-1.8857422 2.7749672.7883034 5.6704025.5506248 6.2998047.9277344.4047852.2324219.5644531.7910156.6928711 1.3427734.4985352 2.1347656.9384766 4.2695313 1.309082 6.34375.0860023.4858017.8265762.3588829.7382813-.1308594-.3725586-2.0878906-.815918-4.2353516-1.3168945-6.3828125-.3828163-1.6443462-.9560623-2.0028172-2.2182617-2.1132813-1.9005051-.145504-3.6489296-.2399368-5.2993164-.7080078-2.1074219-.6074219-2.7607422 1.328125-3.1132813 2.3632813-1.3364258 3.8876953-2.3632813 7.9443359-3.0522461 12.0585938-.1616211 1.0039063-.2729492 1.9082031.0019531 2.796875.5620117 1.7915039 2.1885376 2.7614746 4.1303101 3.2314453-.196537.1366158.0918198-.3407097-3.5512085 8.8950195-1.4928017.02351-3.2601185 1.7680511-2.324707 2.8383789.1296997.1418457.2871094.2307129.4416504.2851563-2.6600151 3.2220154-2.3132267 8.549675.5650024 11.8918457 2.2700194 2.6398925 6.4999999 2.6501464 9.9400023 2.1398925zm3.2188721-7.3813477c-.1254883 1.640625-1.0019531 3.1894531-2.3432617 4.1416016-.3992882.2839355-.8432655-.3199081-.4345703-.6113281 1.1621094-.8251953 1.9208984-2.1660156 2.0297852-3.5869141.015625-.2080078.199707-.3642578.402832-.3457031.2065429.015625.3608398.196289.3452148.4023437zm-3.0786133-8.8789062c.4901123-.2702942 1.559845-.0785675 2.0761719.5654297.2987251.3745766.3089142.4157944.1035156.5957031-.4330864.3865814-.9894104.2812729-1.5517578.1035156-.3770599-.1267433-.9042435-.3150482-.934082-.7441406-.0107422-.131836.1316833-.3985482.3061523-.5205078zm-7.3125 5.3564453c-1.3413086 1.4287109-1.6972656 3.6660156-.8652344 5.4404297.2106285.4493408-.4696064.7655182-.6787109.3183594-.9594727-2.0458984-.5493164-4.625.9970703-6.2724609.3403664-.3602487.8863201.1508178.546875.5136718zm-.8427734-5.265625c0 .138546.1179714.2719383-.0229492.5673828-.0009766.0019531-.0019531.0029297-.0029297.0048828-.3934021.8560829-2.0055428 1.154213-2.3466797.7802734-.0498047-.0566406-.0693359-.171875-.0541992-.2822266.1596279-.8339729 1.9624576-1.7800712 2.4267578-1.0703124z"/><path d="m35.1085434 8.1036463c-.384552.3142071.0935783.8954954.4755859.5800781 1.3148727-1.0751462 3.2008705-.9918141 4.4174805.1220703.362133.3327703.8723602-.2176723.5068359-.5527344-1.5274047-1.3981404-3.8428917-1.4271664-5.3999023-.149414z"/></g></svg>