<svg id="Layer_1" enable-background="new 0 0 75 75" viewBox="0 0 75 75" xmlns="http://www.w3.org/2000/svg"><g id="_Enjoying" fill="rgb(0,0,0)"><path d="m16.056118 67.285881h.0263672c1.0947266-.0195313 2.6279297-1.3408203 3.0263672-1.8388672 0-.0009766 0-.0009766 0-.0009766.8449097-1.0586548.1193161-2.0586243-1.2041016-1.7978516-1.6079121.3120956-2.7496548 1.5885315-2.9072266 2.3535156-.1420707.6827318.3120671 1.2841798 1.0585938 1.2841798zm-.1132812-1.5498046c.9125576-1.275795 2.6361561-1.6411743 2.7763672-1.2138672.1637325.5176086-2.4418125 2.4824982-2.9433594 1.90625-.1515427-.1788178.030981-.5015259.1669922-.6923828z"/><path d="m30.0356102 32.3786545c2.8786621-1.8415527 5.2171631-4.5703125 6.6343994-7.7058105.8758011.2313442 2.1553917-.3975468 2.6243896-.9680176.4482422-.5458984.5683594-1.3037109.2998047-1.8867188-.3095703-.6699219-1.1259766-1.0712891-1.8984375-.9296875 0 0 0 0-.0009766 0-1.3705482.2491913-2.4894333 2.2680798-1.6590576 3.3725586-1.3535156 3.0483398-3.6157227 5.701416-6.4044189 7.4858398-.0922852.0585938-.1473389.1513672-.1647949.2509766-1.1737843-1.423708-2.5053768-1.4806557-4.364502-1.4726563-8.9835415.0980625-7.0455704 2.6895332-5.2695313 6.7636719l.3789063.8701172c.1985989.457943.8850117.1542892.6875-.2988281-1.629282-3.7417603-1.9609852-4.3193283-1.7744141-5.1738281.1156044-.4994736.5059223-.6182327 1.1171875-.828125 1.5576172-.5458984 3.3164063-.5654297 4.8671875-.5830078 2.8606682-.0215492 3.551445.3753929 4.7988281 2.8730469 2.6177177 5.2387505 2.9306221 5.7804222 3.0830078 6.6738281.1328125.7255859-.0136719 1.4277344-.3925781 1.8798828-.6175156.7362213-1.5639267.6968231-2.5488281.8457031l-1.171875.1699219c-5.4315357.795784-5.0732727 1.0289459-7.1757813-4.0009766-.1918888-.4619522-.8822365-.1670685-.6914063.2890625 1.5117779 3.6282692 1.830286 5.2845612 5.4492188 4.8144531 1.5337715-.2068825 3.5172729-.5125084 4.1875-.5927734.859375-.1015625 1.8320313-.2158203 2.5253906-1.0439453 1.0253029-1.2205086.6272583-2.8399315-.0683594-4.28125-.0528069-.1117058-2.7299004-5.6280975-3.2969971-6.4716797.0091553.0007324.017334.0068359.0264893.0068359.0693361 0 .1396486-.0195312.2021486-.0585937zm7.7929687-10.7519531c.4365234-.0771484.9169922.1425781 1.0839844.5058594.1494141.3222656.0673828.7724609-.1982422 1.0957031-.3987923.4875641-1.8535309 1.1036549-2.1308594.5058594-.3375434-.743538.4578324-1.9642792 1.2451172-2.1074219z"/><path d="m66.8129501 22.5241623c.2326813-.9796944-.269577-2.0712223-1.1689453-2.5009766-.8438721-.3994141-1.8997765-.1455078-2.5208702.5336914-1.7037315-4.3308601-7.0251007-5.8287973-10.899292-3.9562988.0739212-.344965.2518387-.5752029.3342285-.9553223.3757477-1.6573486-1.351181-3.2223272-3.0302734-2.2949219-.3652344.2021484-.6621094.4980469-.8535156.84375-1.1239281-.3549252-2.1825867.7396793-1.6386719 1.8847656-.9989548.3677616-1.3667831 1.484129-.9013672 2.3613281-1.1604462 1.4521427.2836838 3.9311695 2.7490234 2.6003418-.0655518.5302734-.0482178 1.067627.1085205 1.578125-1.3404198-.2141418-2.209034 1.149683-1.6768799 2.3039551.2922287.6301861 1.0071564 1.0380859 1.4902344 1.0380859.0040283 0 .0065918-.0039063.0106201-.0039063.2019386 7.1275024 7.9674683 9.6733627 11.8596191 3.7207031.4875832.4275742 1.7617874.421463 2.2119141-.6606445 1.3001976.8667984 2.874424-.056509 2.9422569-1.4741211.9676437-.3433571 1.4616699-1.4598961.9355469-2.4384766 1.2143784-.5048521 1.1713868-2.0648954.0478516-2.5800779zm-11.6679649-5.9345703c6.2936897-.4921684 9.8283958 6.0326767 6.3369141 9.9443359-.3554688.3964844-.3554688.3935547-.7763672.0800781-1.6318359-1.2207031-2.6835938-3.2236328-2.7451172-5.2255859-.0058594-.1972656-.1650391-.3564453-.3623047-.3632813-.0039063 0-.0087891 0-.0126953 0-.1923828 0-.3544922.1455078-.3730469.3378906-.0400391.4091797-.5087891.7050781-.9189453.7441406-1.0554237.1083508-2.0908813-.8827457-3.3603516-.9785156-.8687935-.0629559-1.6489983.2865887-2.3583984.7978516-.0650482.0472679-.7662811.6467915-.7519531.7255859 0 0-.0517578-.0498047-.1132813-.25-.3886719-1.2607422.2333984-2.8642578 1.0488281-3.7958984 1.0039063-1.1464843 2.6035157-1.8818359 4.3867188-2.0166015zm-7.8066406 4.0654297c-.8759689-.1790295-1.1727295-1.2966328-.4824219-1.8876953.1572266-.1337891.1767578-.3701172.0429688-.5273438-.5365982-.632967-.0055923-1.6317101.8369141-1.5078125.4039078.0811977.6151466-.5068569.2275391-.7041016-.2867584-.1474171-.4190407-.593854-.2333984-.8837891.1791649-.2833328.6426239-.3483744.8964844-.1416016.2105942.1705809.5249405.0681639.5976563-.1894531.1937523-.6946192 1.0229225-1.1402712 1.6875-.9433594.6376953.1972656 1.0654297.9501953.9150391 1.6123047-.0849113.3820972-.342083.6598797-.3779297 1.1992188-.006958.1196289.0061035.2358398.0128174.3525391-1.1167717.726017-1.8895912 1.6443977-2.3457031 2.9887695-.5803226.3950196-1.1865237.7563477-1.7774661.6323243zm.6572265 3.9521484c-.3166924-.6830616.2277184-1.4854603 1.0665283-1.217041-.2728004 1.2863674-.2233963 1.6734734-.230835 1.8183594-.3620605-.052002-.6890868-.2849121-.8356933-.6013184zm6.6513672 7.6220703c-3.152607-.2900085-6.0089989-3.6992893-4.8103027-8.8652344.6395111-.0846138.9100685-.9120846 2.1237793-1.3505859 1.6782761-.6136208 2.7016373 1.0100117 4.4033203.8398438.328125-.03125.6748047-.1572266.9609375-.3662109.3378906 1.8574219 1.3886719 3.5722656 2.9316406 4.7265625.2346191.1757813.4293213.2705078.6131592.3271484-1.0535736 3.1829452-3.8408623 4.8909568-6.2225342 4.6884765zm7.3759766-3.2255859c-.2373047.2099609-.6357422.2470703-.9072266.078125-.0247803-.0153809-.0523682-.0202637-.0789795-.0292969.2473145-.4648438.4509277-.956543.6082764-1.473877.276123.161377.4758301.3383789.5654297.5324707.133789.2890626.0507812.6806641-.1875.8925782zm4.0790977-4.5634766c-.3952484-.1183529-.6657257.4349842-.3066406.6728516.7405014.4951515.4752884 1.6554756-.4003906 1.7666016-.204071.0260105-.3543167.2155285-.3232422.4248047.1658478 1.1663456-1.382618 1.8361511-2.1114464.7451172-.0439682-.1738682-.0325241-.2927265-.3178711-.6259766-.0942383-.2485352-.1657715-.5036621-.2327881-.7519531 0-.0014648-.0123291-.0498047-.022583-.090332 1.0530548-1.444128 1.4675713-3.2346535 1.0292969-5.1022949.321537-.7966995 1.2672157-1.0842838 1.9053917-.7780762.6742477.319912.9991226 1.2552643.6660156 1.9111328-.1216431.2432995.0470047.5315552.3154297.5439453.339119.0181675.6660004.3992271.609375.7578125-.0549469.3459968-.4728928.6184539-.8105469.5263671z"/><path d="m59.6254539 49.5944748c.1005859-4.1015625-.2109375-8.2099609-.9257813-12.2089844-.2324219-1.3154297-.6083984-2.7304688-1.625-3.2548828-.3198166-.1681328-.3040962-.1720085-5.7021484-.9277344-.5410156-.0771484-1.3583984-.1933594-1.8515625.3935547-.2906227.3596458-.365097.7760201-1.390625 3.1914063-.6236687 1.4672203-1.2437401 2.9619141-1.6806641 4.0097656-.191452.4576187.5022316.7501717.6914063.2890625.0433388-.1026917 2.0860634-4.981678 2.3369141-5.5986328.84729-1.9230919.182415-1.770092 3.4248047-1.3125 1.1777344.1650391 2.3574219.3291016 3.5419922.5244141.9867592.1454163 1.3441315 1.8460236 1.5166016 2.8173828.7060547 3.9501953 1.0136719 8.0068359.9140625 12.0585938-.0674095 2.7538567-.947094 3.3503418-3.09375 3.2324219-3.6915016-.2158508-7.2917557-1.4190102-10.328125-3.4072266-.5039063-.3339844-.9814453-.7109375-1.0615234-1.2001953-.0883369-.5228996.0820045-.7150993 2.0351563-5.4013672.0800781-.1914063-.0107422-.4111328-.2011719-.4902344-.1923828-.0830078-.4111328.0107422-.4902344.2011719-1.9729729 4.7338219-2.2160072 5.02314-2.0839844 5.8125.1269531.7744141.7724609 1.2958984 1.3896484 1.7041016 3.11306 2.0397186 6.8435669 3.3071098 10.6962891 3.5292969 2.8539504.1669844 3.8163909-1.0918466 3.8876952-3.9619142z"/><path d="m46.2934227 51.6472092-4.1790771 5.5717773c-.4841423-.8052483-1.4249344-2.1434937-2.2857666-1.7553711-1.8099098.8338509 1.1751289 5.7467842 2.5820313 4.1308594.3972664-.4559097.2995644-1.0605812.0777588-1.6254883l4.4046631-5.8725586c.2993087-.3982925-.3078691-.8474655-.5996095-.4492187zm-4.6083984 7.4990234c-.1142578-.0205078-.2421875-.1064453-.3388672-.1787109-1.197197-.8927612-1.5272293-2.6795425-1.2050781-2.8212891.0029297-.0019531.0078125-.0029297.0136719-.0029297.0371094 0 .1337891.0292969.2988281.1679688h.0009766c.4072266.3417969 1.4130859 1.6484375 1.4746094 2.4335938.0159262.205387-.0427667.440853-.2441407.4013671z"/><path d="m51.6703758 59.9001389c-.9409981.2620506-1.1022644 1.068222-.7226563 1.6650391.9026756 1.4278679 4.304924 1.3116417 4.2441406-.3847656-.0112305-.3044434-.1378174-.5712891-.3580322-.7871094l-.1859131-6.4521484c-.0058594-.2070313-.2021484-.3613281-.3857422-.3642578-.2070313.0058594-.3701172.1787109-.3642578.3857422l.1730957 6.0090332c-.8663329-.2717287-1.9909667-.1870119-2.4006347-.0715333zm2.7714844 1.3076171c.0102577.2487373-.2314148.3902702-.4658203.4716797-1.209568.4255867-2.6132927-.3082161-2.4560547-.8222656.0933952-.2957535.8932762-.3173828 1.2011719-.3173828.5488281 0 1.7031593.1066017 1.7207031.6679687z"/><path d="m65.534996 44.3879318c.0419464 1.0860023 1.7304153 1.8181038 2.6734619 1.7436523.703125-.0576172 1.3320313-.4970703 1.5644531-1.0957031.2666016-.6884766-.0126953-1.5527344-.6513672-2.0117188-.9140167-.656044-2.6937561-.4311562-3.3712158.6455078-2.9230919-.5270996-5.477047-2.9467773-6.1151085-5.8486328-.1058311-.4868202-.8397903-.3230057-.7324219.1601563.7062989 3.2126465 3.4106446 5.7934571 6.6321984 6.4067383zm3.1490479-.7543945c.3632813.2607422.5341797.7578125.3896484 1.1308594-.1289063.3310547-.5087891.5859375-.9257813.6191406-.4462891.0361328-1.4189453-.2880859-1.765625-.7558594-.5780715-.7760506 1.3892823-1.6495857 2.3017579-.9941406z"/><path d="m56.1908836 27.8073654c-1.9287109.1953125-3.9316406-.5029297-5.2080078-1.8261719-.2096481-.2182045-.5753326-.1069241-.6357422.1826172-.4034233 1.8830376 1.0439415 4.0029297 3.1855469 4.0029297 1.2363281 0 2.46875-.6953125 3.03125-1.8183594.0615234-.1220703.0517578-.2685547-.0263672-.3808594-.0771484-.1132812-.2148437-.1679687-.3466797-.1601562zm-3.4492187 1.4775391c-.9267578-.3261719-1.5996094-1.2617188-1.6992188-2.2382813 1.2167969.9707031 2.8183594 1.5283203 4.4384766 1.5429688-.6875.7089844-1.8037109 1.0224609-2.7392578.6953125z"/><path d="m39.3362694 33.2419357c2.4389076 2.0947685 6.0216179 2.7744865 9.0479736 1.6513672.4573555-.1700706.2157173-.8693962-.2617188-.703125-2.7005615 1.0058594-5.9195557.4245605-8.1577148-1.4121094.4965096-.7587585.1701317-2.2599277-.3442383-2.8994141-.4414063-.5488281-1.1591797-.8222656-1.7841797-.6796875-.7197266.1660156-1.2783203.8837891-1.2988281 1.6689453-.0337028 1.3064691 1.5176163 2.7663194 2.7987061 2.3740235zm-.2996826-2.8925781c.402401.4998684.6961823 2.046711.0595703 2.1875-.3310547.0771484-.7285156-.0537109-1.0927734-.3535156-1.6746216-1.3762474.0032234-3.1128445 1.0332031-1.8339844z"/><path d="m14.9203758 45.9147873c.8183594-1.4023438 1.8554688-2.6523438 3.0830078-3.7158203.3725433-.3236465-.11376-.8907738-.4921875-.5664063-1.2890625 1.1171875-2.3789063 2.4306641-3.2392578 3.9033203-.2478285.4261704.3981447.8030129.6484375.3789063z"/><path d="m13.5258446 42.4196701 2.6552734-1.765625c.171875-.1152344.21875-.3476563.1044922-.5205078-.1142578-.171875-.3466797-.2177734-.5205078-.1044922l-2.6552734 1.765625c-.4100667.2749291-.0025969.8977318.4160156.625z"/><path d="m16.3520164 38.4050217c.4857559-.1079445.3211098-.8410873-.1621094-.7324219-.9746094.2148438-1.9882813.1601563-2.9326172-.1611328-.4690809-.1625519-.7119074.5500755-.2421875.7089844.6464844.2207031 1.3203125.3310547 1.9970703.3310547.4482423-.0000001.897461-.0488282 1.3398438-.1464844z"/><ellipse cx="51.874" cy="23.96" rx=".667" ry=".72"/><path d="m55.9101219 25.7639084c.3685303 0 .6673584-.3222656.6673584-.7199707s-.2988281-.7199707-.6673584-.7199707-.6672363.3222656-.6672363.7199707.298706.7199707.6672363.7199707z"/><path d="m33.1899071 55.8493576c.8476563-.1455078 1.3203125-1.0175781 1.3339844-1.7636719.0136719-.7314453-.3095703-1.4101563-.5683594-1.9550781-.0180664-.0380859-.0450439-.0681152-.072998-.0964355l1.0290527-.1994629c.4765625-.0917969 1.3632813-.2636719 1.7470703-.96875.4375-.8027344-.0361328-1.703125-.4296875-2.3105469-1.3605461-2.0952911-2.3697777-3.2773895-2.6328125-3.640625-.1826172-.2558594-.4335938-.6054688-.8671875-.6806641-1.3714447-.2285728-4.8436108 2.685955-9.6982422.8457031-1.2665253-.4837112-1.968317-.4475784-2.6484375.8037109-.3808594.6982422-.7353516 1.4208984-1.0537109 2.1484375-.5905151 1.3483086-.5221443 2.1756668.7158203 3.0009766 1.0410156.6923828 2.3173828 1.1552734 4.0166016 1.4550781.1696358.0295029.3308048-.0575981.4023438-.2050781 1.852932-3.8075752 1.9519005-4.1275635 2.4296875-4.5166016.3027344-.2460938.7978516-.3847656 1.1201172-.1591797.3134537.2202644.358469.5153084 1.3427734 3.0371094.8706875 2.2551155 1.8522511 1.9081802 3.914917 1.5083008-.0377197.0939941-.0397949.201416.006958.300293.2373047.4990234.5068359 1.0634766.4960938 1.6191406-.0078125.4423828-.2822266.9648438-.7099609 1.0380859-.4222603.073822-.5742378-.0863304-4.6650391-1.9609375-.0391846-.0180664-.0804443-.0244141-.1213379-.0283203-.2988873-.7439346-.9901676-.8461647-1.4978027-.4609375-1.2026253.9181862-1.2662354 4.4873047.4150391 4.4873047 1.1979599-.0598984 1.349287-1.9522858 1.2567139-3.1469727l3.3428955 1.5424805c.4293478.1976357.9034688.3945046 1.3955076.3066407zm-3.1347657-5.4746094c-.8960724-2.0964851-1.0154648-3.6298828-2.4287109-3.6298828-.4423828 0-.8876953.1787109-1.2080078.4404297-.6345501.518074-.7844925.9795151-2.5039063 4.5126953-1.4560547-.2802734-2.5585938-.6933594-3.4541016-1.2900391-.7791328-.5176048-.96805-.8828087-.4443359-2.0751953.3095703-.7080078.6542969-1.4111328 1.0244141-2.0908203.42309-.7747498.6244888-.8776512 1.7841797-.4384766 1.4599609.5546875 3.0761719.7480469 4.6728516.5703125 2.2022781-.250679 4.5273361-1.4254875 5.0888672-1.4033203l.078125-.3671875-.0644531.3691406c.1805573.0321007.3599701.3648071.5322266.5742188.8382111 1.0456352 1.6590195 2.1732254 2.4677734 3.4169922.8919907 1.3768082.5275574 1.8732872-.8310547 2.1347656-3.7150174.7011795-3.9953156 1.1298294-4.7138673-.7236328zm-2.8964843 6.022461c-.0673828.0322266-.1425781-.0419922-.203125-.1132813-.0712891-.0839844-.1289063-.2060547-.1816406-.3867188-.4013901-1.3490181.2559299-2.7050781.6269531-2.7050781.1316376 0 .2111645.264389.2421875.3925781.1639709.6879082.1143608 2.7925416-.484375 2.8125001z"/><path d="m21.0395164 52.339592c.4053631-.285862-.025528-.8973274-.4316406-.6132813-1.3730469.9638672-2.1181641 2.7890625-2.0439453 5.0078125.0591984 1.8010445.5674076 3.4899254.6982422 5.234375.0146484.1962891.1796875.3466797.3740234.3466797.0087891 0 .0185547 0 .0283203-.0009766.2060547-.015625.3613281-.1953125.3457031-.4023438-.1315441-1.7476654-.6410179-3.5093536-.6962891-5.203125-.064453-1.9316405.5800782-3.564453 1.725586-4.3691405z"/><path d="m25.0486717 21.2646408c.3476563 0 .6293945-.4760742.6293945-1.0632324 0-.5874023-.2817383-1.0634766-.6293945-1.0634766-.3475342 0-.6293945.4760742-.6293945 1.0634766 0 .5871582.2818603 1.0632324.6293945 1.0632324z"/><path d="m28.5447655 21.0471115c.3475342 0 .6292725-.4760742.6292725-1.0634766 0-.5871582-.2817383-1.0632324-.6292725-1.0632324-.3476563 0-.6293945.4760742-.6293945 1.0632324-.0000001.5874024.2817382 1.0634766.6293945 1.0634766z"/><path d="m28.2426414 22.2106857c.0488281.1816406-.0439453.4248047-.2265625.5917969-.5374985.4956932-2.383255.8127022-3.9677734-.0029297-.2390785-.1205978-.5213223.0386162-.5439453.2998047-.3299885 3.6328354 3.2666855 4.3277912 4.9541016 2.5429688.8496094-.9003906 1.0683594-2.5966797.4775391-3.7060547-.2081929-.3892308-.8091622-.1547337-.6933595.274414zm-.3291015 2.9160157c-.6455078.6826172-1.7412109.9003906-2.5976563.5263672-.6669922-.2939453-1.0136719-1.1259766-1.0703125-1.9472656 1.318594.4943104 3.3596592.4850197 4.2724609-.3457031.0039063.6591796-.2099609 1.3496093-.6044921 1.7666015z"/><path d="m56.4594383 18.4196701c1.4677734.2197266 2.7822266 1.2470703 3.3496094 2.6181641.1881371.4564667.8837013.1734753.6933594-.2871094-.6660156-1.609375-2.2099609-2.8154297-3.9316406-3.0732422-.496521-.0666618-.5978928.668045-.1113282.7421875z"/><path d="m15.7322655 26.2202072c3.7006283 6.0291138 13.7507439 4.6401443 15.3935547-3.0241699 2.0149536-.3724365 2.2952309-2.6624794.80896-3.2316895.3659668-2.0036621-.1920166-4.1862793-1.5163574-5.7321777-1.3271484-1.5498047-3.4091797-2.4482422-5.4433594-2.3857422.360796-.7771006.6019554-.9451675.4716797-1.2265625-.1903744-.4031439-1.6202545-.4139481-2.390625.5966797-1.975481-1.7757864-5.1604614-1.6128569-6.8789063.6044922-.2325859.2971935.0752869.7206907.4423828.5751953.6279297-.2666016 1.3232422-.3710938 2.0029297-.3134766-3.7169466.8887043-6.2993984 5.2502098-5.8066406 8.9648438.2652587 1.9987793 1.3502197 3.9008789 2.9163818 5.1726074zm12.2701416 1.0129395c-3.2153721 2.9023857-8.5237541 2.6821003-11.3807373-1.059082.1518173-.5826263.8261337-.7436371 1.0102539-1.4685059.3631668.4995728.9677486.779541 1.5296631.779541.9320717 0 1.4446735-.8682747.9277344-1.1240234-.1826172-.0917969-.4091797-.0166016-.5019531.1699219-.1109695.2219372-.4318352.229147-.6757813.1728516-.7676506-.1835194-1.0378284-.9151459-.6894531-1.3144531.0059814-.0068359.0152588-.0102539.0218506-.0166016.587326-.1923637.7704124.2707863 1.0733643-.0791016.2005978-.162447.1685276-.4175282.0181885-.5571289-.3986816-1.1982422-.1934814-2.5849609.5340576-3.6166992 1.2748795 1.0451546 3.2644024.2834091 2.6669922-.359375-.3183594-.3417969-.5009766-.8125-.5185547-1.2841797 1.6640625 1.2158203 4.1904297 1.1787109 5.7587891-.1923828.2411385-.2112637.1220722-.6087265-.1943359-.6533203-.5257511-.0749683-2.0888424-.5321445-2.2148438-.9521484.0048828-.0009766.0097656-.0009766.0146484-.0009766.2871094 0 1.0527344.2558594 1.9638672.7314453 1.2182541.6337585 2.0048523 1.4074554 2.7335205 2.3271484 1.1646098 3.1095924.1392611 6.5072803-2.0772706 8.4970703zm3.2445068-4.8374024c.059082-.4968262.0805664-.9958496.0505371-1.4946289.0046387.001709.0078125.0053711.0125732.0068359.1813965.0546875.368042-.0405273.4442139-.2097168.5835343.3133908.5177079 1.3452454-.5073242 1.6975098zm-10.6634521-9.6958008c.4205074.0191135.5669346-.498436.2314453-.6962891-.8925781-.5273438-1.9599609-.7578125-2.9892578-.6650391 1.6526909-1.013835 3.7570515-.6924076 5.03125.7392578.1847935.207633.5258732.1494093.6289063-.1113281.1621094-.4121094.5673828-.7207031 1.0058594-.8164063l-.4951172.9521484c-.1390953.2676544.0830517.5902081.3847656.5439453 3.6774101-.5069828 7.1629066 2.434926 6.9101563 6.4814453-2.0361481-3.1469183-5.3953743-4.4564886-6.2480469-4.1435547-.4351387.1607046-.544611.6955824-.3095703 1.1015625.3085938.5351563 1.2041016.8867188 1.8896484 1.0849609-1.4658203.7714844-3.4550781.5214844-4.6123047-.6923828-.0908203-.0966797-.2275391-.1386719-.3574219-.1064453-.1289063.0302734-.2333984.1269531-.2724609.2548828-.2285156.7402344-.1132813 1.5673828.2880859 2.2246094-.5517578.1230469-1.1865234-.0751953-1.5332031-.5253906-.1435719-.1866436-.4215698-.1966858-.578125-.0195313-.9854736 1.1186523-1.3765869 2.7211914-1.0703125 4.1762695-.1958008.0178223-.3804932.0910645-.5509033.1972656-1.2461281.4719982-.8776951 1.654829-1.0594482 1.9438477-.1969662.3127079-.5659637.5230923-.8037109.9199219-1.3525391-1.1523438-2.28125-2.8359375-2.5136719-4.59375-.5268203-3.9618318 2.8118514-8.7082555 7.0234374-8.2499998z"/><path d="m7.8223534 26.4548264c2.0517578 3.6035156 5.4221191 6.5266113 9.3050537 8.0371094.46735.1828766.7285194-.5214844.2714844-.6992188-3.7058105-1.4411621-6.9234619-4.2250977-8.8934326-7.6564941.1479492-.1496582.2587891-.3400879.3182373-.5700684.2246094-.8701172-.2675781-2.09375-.7050781-2.5537109-.4863281-.5097656-1.2275391-.7207031-1.8359375-.5283203-.703125.2255859-1.1982422.9873047-1.1533203 1.7724609.0630731 1.1199798 1.3843545 2.4169368 2.6929931 2.1982422zm-.2467041-2.9248047c.435688.459053.856266 1.9597607.2591553 2.1694336-.00354.001709-.0075684.0014648-.0111084.003418-.0010986.0004883-.0015869.0014648-.0025635.0019531-.1000757.0011978-.4735317.1888008-1.1234131-.2607422-.4667969-.3222656-.796875-.8164063-.8203125-1.2304688-.0530567-.9325676.9695873-1.4470978 1.6982422-.6835937z"/><path d="m16.3637352 20.0466232c.0195313 0 .0400391-.0019531.0615234-.0048828.2041016-.0341797.3417969-.2265625.3085938-.4316406-.2460938-1.484375.3076172-3.1064453 1.4091797-4.1318359.1513672-.140625.1601563-.3779297.0185547-.5302734-.1425781-.1513672-.3789063-.1591797-.5302734-.0185547-1.2998047 1.2099609-1.9277344 3.0507813-1.6376953 4.8037109.0302733.1835937.189453.3134765.3701171.3134765z"/><path d="m47.8775291 47.0239182c.1734619-.4626465.0168457-.9492188-.3500977-1.0869141-.3669434-.1374512-.8049316.1257324-.9785156.5883789s-.0168457.9489746.3499756 1.0866699.8050538-.1254883.9786377-.5881347z"/><path d="m51.4013329 48.817131c.1734619-.4626465.0168457-.9492188-.3499756-1.0869141-.3669434-.1376953-.8049316.1257324-.9785156.5883789s-.0168457.9492188.3499756 1.0869141c.3668212.1374512.8049316-.1259765.9785156-.5883789z"/><path d="m55.4256248 49.9638596c.173584-.4626465.0168457-.9489746-.3500977-1.0866699-.3666992-.1376953-.8049316.1257324-.9785156.5881348-.1734619.4626465-.0168457.9492188.3500977 1.0869141.3668213.1376952.8049317-.1257326.9785156-.588379z"/><path d="m27.1703758 36.2155685c.2198086 0 .2782249-.0337219 1.8066406-.4970703.4769058-.1456566.2554264-.8636894-.2167969-.71875l-1.3867188.4208984c-.2100258.0660095-.274786.1277924-.4814453-.3222656l-.5058594-1.1064453c-.2046585-.4511795-.8880463-.1401863-.6816406.3125.4932805.9636498.661955 1.9111328 1.4658204 1.9111328z"/><path d="m34.4598045 11.6984787c.0004883.0288086.0014648.0571289.0026855.0856934 1.086628 2.9033499.957901 2.6149311 1.0227051 2.7224121 1.2600098 1.7924805 3.2897949 3.0239258 5.4570313 3.3117676l.0959473-.0212402c1.8996582-1.088623 3.3098145-2.9943848 3.8056641-5.1320801.8512955-3.7421608-1.9042625-5.7758031-3.8105469-4.6337891-.8551102.5124264-1.2016716 1.5297489-1.5153809 2.1682129-.429512-.2725487-1.1823235-1.2688751-2.2558594-1.4267578-.5274658-.0783691-1.0822754.0322266-1.534668.3212891-.8425292.5456542-1.2836913 1.5942382-1.2675781 2.6044921zm7.682251-1.8666992c.6767578 1.40625.7070313 3.0996094.0820313 4.5283203-.1988297.4544716-.8866806.1538229-.6875-.3007813.5390625-1.2314453.5126953-2.6904297-.0703125-3.9033203-.2151261-.4466238.463314-.772501.6757812-.3242187z"/></g></svg>