<svg id="Layer_1" enable-background="new 0 0 75 75" viewBox="0 0 75 75" xmlns="http://www.w3.org/2000/svg"><g id="Friends_Playing" fill="rgb(0,0,0)"><path d="m67.8630295 14.7864685c1.9789124-2.0097189-.6243896-5.2382879-3.359375-3.7285156-.1572876-2.4267063-3.7967072-3.383872-5.8730507.2197266-.237854.4294434-.312561 1.1132813-.2320557 1.8791504-2.3041992-.1860352-4.5734253.4746094-6.2879639 1.8728027-1.9554024 1.6112461-2.3971367 3.1030769-2.4560547 3.203125-.9690781 2.4755116-.2095718 3.0304089-.190918 3.3662109v.0302734c0 .065918.0218506.1230469.0519409.1748047-.5852661 1.956543-.2869263 3.940918.9373169 5.5253906 2.6653137 3.4238949 8.8548622 3.6018467 11.7512207.5107422.9938736.1279049 1.416687-.4504738 2.1950722-1.4863281 1.2955093-1.728323 1.9205856-2.794632 1.6992798-5.2597656 2.142334-.0514793 3.6971359-1.9997463 3.5844116-3.7685547-.0717772-1.1416016-.8383788-2.1396484-1.8198241-2.5390625zm-16.8173866 12.0830078c-1.7728882-2.2932129-1.0950317-5.0292969.1445923-6.855957 1.6209259-1.0626755 4.6063957-.6438694 6.7396851-1.3930664.1315231 1.6980286 1.8363647 2.3961029 2.625 3.4882813.3793945.5244141.5610352 1.3017578.1743164 1.7714844-.2119484.2584343-.0076485.6629887.3549805.598877.7544785.2124252.9548035 1.1112347.4414063 1.5554199-.2382813.2089844-.6171875.2460938-.8789063.0878906-.1782227-.1064453-.4082031-.0498047-.5146484.1279297-.2639542.4387169.3665848.7177734.8808594.7177734.2495728 0 .4892578-.0805664.7119751-.1970215-.1713333.4070644-.3812027.4760609-.2851563.7575684-2.7336732 2.6174621-8.1276437 2.2518882-10.3941041-.6591798zm12.7543945-.9667969c-.5314827.7071743-.6684456.8523273-.8681641 1.0244141-.1884766.1640625-.3095703.2089844-.5332031.1884766.3646393-.8200359.1630974-1.4996624.152771-1.6696777.0286217-.7370281-.4047737-1.2944355-.9765015-1.572998.2702026-.7353516.019165-1.6069336-.4121094-2.2036133-.5086937-.7029247-1.2061996-1.1607666-1.7539063-1.7207031-.2182617-.2255859-.9130859-1.0244141-.6899414-1.8066406.088932-.3107185-.2338715-.5809822-.5214844-.4414063-2.5336952 1.2078514-6.6703033.14007-8.2570801 2.5009766.0015869-.0837402-.0164185-.1662598-.0080566-.25.0447502-.518858.2724609-1.0668488.4741211-1.5820313.3725586-.9199219 1.1674805-1.9257813 2.1791992-2.7597656 4.2405891-3.4508934 11.7248497-1.6508255 12.6123085 4.2080078.511757 3.2327136.0586473 4.1405238-1.3979529 6.0849608zm2.2179603-5.5761718c-.024353-.2080078-.0458374-.4150391-.0787964-.6240234-.5144043-3.3964844-3.1651039-5.8911133-6.7744789-6.4492188-.0944214-.6743164-.0557251-1.2915039.1187134-1.6064453.4794922-.8310547 1.0551758-1.4169922 1.7094727-1.7412109 1.0556946-.5119801 2.4709091-.2313442 2.7329102.9902344.078125.3652344.0180664.7060547-.1689453.9599609-.2886391.3910627.2898331.8375378.5942421.4570313.5058594-.6308594 1.34375-.9824219 2.0834961-.8632813.7612305.1103516 1.425293.7382813 1.5439453 1.4609375.1220703.7314453-.3662109 1.5283203-1.0444336 1.7050781-.1865234.0488281-.3056641.2314453-.2758789.4208984.0302734.1914063.2114258.3525391.3916016.3164063 1.0234375-.0478516 2.0146484.90625 2.0849609 2.0195313.0853652 1.3508739-1.1206742 2.9520034-2.9168092 2.9541015z"/><circle cx="52.902" cy="21.511" r=".677"/><path d="m22.8558846 23.6622009c.3741455 0 .6774292-.3032227.6774292-.6774902 0-.3740234-.3032837-.6772461-.6774292-.6772461s-.6774902.3032227-.6774902.6772461c-.0000001.3742676.3033446.6774902.6774902.6774902z"/><path d="m57.0514412 22.1504822c-.3741455 0-.6774292.3034668-.6774292.6774902 0 .3742676.3032837.6774902.6774292.6774902.3742065 0 .6774902-.3032227.6774902-.6774902 0-.3740234-.3032837-.6774902-.6774902-.6774902z"/><path d="m51.5212288 52.5276794-2.3374634 7.8215332c-1.2979393-.3925323-2.5031509-.2190475-3.4623413.3708496h-.0004883c-.8781624.5415764-1.0897636 1.2484131-.9130859 1.8017578.3059273.9508018 1.6161728 1.1083984 2.612793 1.1083984.889431 0 2.4579391-.2062531 3.0083008-.9033203.4675484-.5907516.4349976-1.5379105-.5487671-2.0881348l2.3598022-7.8962402c.1419144-.4761695-.5769425-.689083-.71875-.2148437zm-1.6801758 9.734375c-.1552734.1962891-.4394531.2998047-.6967773.3740234-.8740234.2558594-1.8110352.3115234-2.7094727.1650391-2.3271332-.3769569.1156235-2.6168365 2.7092285-1.6716309.0740891.0815239.1574974.126709.2722168.126709.005188 0 .0090942-.0043945.0142822-.0048828.2390747.1191406.4229736.260498.4901123.4189453.0795899.1884766.0468751.4316407-.0795898.5917969z"/><path d="m59.5403328 61.8045349-.7940063-9.2016602c-.0170898-.2060547-.2036133-.3535156-.4057617-.3417969-.206543.0185547-.359375.2001953-.3413086.40625l.7844238 9.0898438c-1.0005493.0161133-2.0194092.3125-2.7277832.6933594h-.0004883c-1.25037.6758766-1.1159935 1.9600296.3984375 2.2070313 1.162159.1894684 3.2812881.143692 4.1264648-.5488281.4072266-.3320313.5952148-.8378906.4794922-1.2861328-.1770668-.6857072-.824604-.9141122-1.5194702-1.0180665zm-3.1289673 1.3061524c1.56036-.8430443 3.753315-.753933 3.9223633-.1005859.3524399 1.3677978-6.0964279 1.2792968-3.9223633.1005859z"/><path d="m56.7639046 25.3577576c-1.3032227.1074219-2.6826172-.4638672-3.5083008-1.4814453-.1640511-.20084-.500988-.1835709-.6274414.0693359-.9413376 1.8936234.348011 4.0839844 2.5419922 4.0839844 1.916851 0 2.690937-1.7007999 1.9033203-2.5537109-.0786133-.084961-.1899414-.1308594-.3095703-.1181641zm-.2431641 1.2822265c-.440937.7764091-2.0993996.9613419-2.9946289-.0996094-.3901367-.4619141-.5341797-1.1054688-.4116211-1.71875.9350586.8710938 2.2016602 1.3369141 3.4921875 1.2978516.0717774.1894531-.0161133.3984375-.0859375.5205078z"/><path d="m61.5036507 17.2610779c1.0717773 1.3164063 1.737793 2.9736328 1.8754883 4.6650391.0393219.4939671.7881889.4352398.7470741-.0605469-.1494179-1.8417969-.8745155-3.6445313-2.0405312-5.0771484-.3112945-.3842011-.8960914.0868453-.5820312.4726562z"/><path d="m27.3926888 49.2181091c.6974144-.841774.7855835-1.8483849.8150635-2.9785156.1287365-4.7276039-.3916531-9.9383698-1.0042114-12.751709 2.3125839-1.9842339 3.7177925-4.6640224 4.1724243-7.4084473.3836975-.3113213.6076527-.8699684.7902832-1.2919922 1.6123466-3.5696259-2.922657-4.3329639-2.6772461-.8203125.0601463.8783264.247179 2.0196953 1.0944824 2.2685547-.4555187 2.3770084-1.6616993 4.6756706-3.598999 6.4453125-.2750568-.8124504-.7262764-1.5039253-1.4573975-1.9658203-1.2104492-.7392578-2.503418-.1904297-3.6435547.2939453-1.2660122.537178-2.4548531.9323921-4.1923828.5771484-1.340374-.2858906-2.1746712-.4196091-2.9995108.4042969-.9722052.9603958-1.0315895 1.8598557-2.0351563 8.0048828-.0332031.2041016.1054688.3974609.3095703.4306641.2021484.0283203.3964844-.1054688.4306641-.3095703.9270449-5.6764717.9916649-6.7724495 1.8237305-7.5947266 1.1228609-1.1258774 2.4113455.5271378 5.5395498-.2978516 1.8538437-.4867535 3.5398006-2.0416031 4.9575195-.3496094.3146973.3764648.5020142.8383789.6405029 1.3364258-1.5440063 1.2231445-3.3811035 2.0603027-5.3123779 2.3881836-.4777412.0822906-.378624.8090439.1259766.7402344 1.9376831-.3295898 3.789917-1.1357422 5.3721313-2.3173828.655592 3.5282669 1.0315514 7.8954926.9140015 12.1982422-.0166016.6396484-.0478516 1.2607422-.2480469 1.8310547-.2045898.5800781-.6005859 1.0234375-1.059082 1.1855469-.409668.1435547-.8833008.0917969-1.4169922.015625l-4.0688477-.5566406c-6.3233452-.8452072-6.8678598-.8628273-7.6528311-1.4101563-1.0004883-.6894531-.7509766-1.9560547-.2890625-3.6689453.1040039-.3837891.203125-.7529297.2675781-1.0888672.0390625-.2041016-.09375-.4003906-.2973633-.4394531-.206543-.0429688-.3999023.09375-.4389648.296875-.0615234.3203125-.1567383.6708984-.2553711 1.0361328-.2935181 1.0898438-.6246338 2.3642578-.2546997 3.387207-.08041.1345749-1.0161419.3443832-2.9205933 5.6206055l-.2666016.7324219c-.5803027 1.5784225.2607574 2.3209419 1.8984375 2.0517578l3.9806519-.6520996-.6188354 9.0178223c-.9706945.6545181-1.0391197 1.9704056.4921875 2.331543 1.2168388.2839279 3.5446882.4127426 3.8359365-.7998047.338398-1.3862076-1.9403877-2.0537796-3.5581045-1.8010254l.6062012-8.8339844c1.5275183-.0776672 1.311408.9005241 2.0163565 1.935791.7610931 1.118576 2.4769802 1.3867989 3.5787964.5297852l-.5371704 6.6276855c-.6747398.4109764-.9421654 1.1337662-.4727783 1.682373h.0004883c.568821.6630707 2.5106544.694046 3.4316406.5898438 1.6935616-.1980362 1.8831501-1.6184769.3579102-2.2353516-.78302-.3105469-1.6762695-.4008789-2.5455933-.2800293l.5289917-6.5266113c.0140381-.1689453-.0894775-.315918-.2400513-.3745117.6047401-.6400566.9802532-1.0961037 2.4651489.1977539.3139648.2714844.6386719.5527344 1.0356445.7509766 1.7768993.8922958 3.9319134-.3018456 5.8989258-1.0761719.1870117-.0761719.2802734-.2861328.2114258-.4765625-.8603515-2.357666-2.052124-4.5744629-3.5303954-6.6025391zm3.00354-26.3378906c.1425781-.2695313.409668-.4541016.6533203-.4541016h.0141602c.3496094.0107422.6303711.3857422.6894531.7275391.098299.5628777-.1950703 1.1361618-.347168 1.5019531-.1328125.3105469-.4160156.9541016-.6416016.8642578-.4249362-.173275-.733263-1.9458293-.368164-2.6396484zm-13.699707 42.4160156c-.7416983.09375-1.4873037.0546875-2.2158194-.1162109-.1967773-.0458984-.4365234-.1171875-.543457-.2578125h-.0004883c-.2290916-.2990265.2019892-.7688675.5424805-.84375 2.1087923-.4567795 4.0511465.9834442 2.2172842 1.2177734zm6.9414062-.3164062c-.6151447.2848663-3.5430202.1963348-3.328125-.4228516.0703125-.2021484.3388672-.4140625.5854492-.4619141 1.7086678-.3311119 3.5706787.5021058 2.7426758.8847657zm1.5107422-8.2763672c-.5005379-.251442-.9454689-.7471619-1.4423828-1.1074219-.7436523-.5419922-1.5239258-.6816406-2.1401367-.3847656-.5228901.2507019-.7901478.7429581-1.1274414 1.0625-.7277126.6858902-2.0671597.5112915-2.6088867-.2841797-.3909874-.5755806-.4866943-1.3749542-1.1479492-1.8818359-.9488382-.730732-1.8627291-.3286705-6.3476553.3652344-.4462891.0732422-1.0117188.0986328-1.1757813-.1962891-.1181641-.2119141-.0092773-.5527344.1025391-.8564453.5046892-1.4054375 1.7383089-4.9799461 2.8572388-5.9384766.8958597 1.0547523 1.9618673 1.093914 8.4459829 1.9570313 4.6114216.6167984 5.3031273.9007072 6.2684326.2856445 1.3441772 1.8569336 2.444458 3.8737793 3.2593994 6.0151367-1.6254559.626545-3.5274716 1.673439-4.9433594.9638672z"/><path d="m11.6386614 32.2789001c1.1148682.0620003 2.3495398-.5045528 2.9709473-1.8039551.0046997.0019531.0089722.0048828.0136719.0068359 6.5214052 2.7330627 12.9883146-3.0564613 10.9053946-10.7607422-.0253296-.2548828-.1136475-.5456543-.208252-.8095703-.4649792-1.7516441-1.8194046-3.7675142-3.6817627-4.9526367-4.4100342-2.8000488-10.7800283-1.0698242-13.0800161 3.5700684-.8499756 1.7099609-1.210022 3.6101074-1.289978 5.5-.0700073 1.6899414.1799927 3.5200195-.6900024 5.0700684-.4199829.75-1.0100098 1.3898926-1.2200317 2.2597656-.1699829.7402344.1199951 1.6901855.8500366 1.8701172.6399536.1499023 1.2399902-.3100586 1.8699951-.4699707 1.1827553-.2987861 2.4012011.4695816 3.5599974.5200195zm3.2133789-2.5185546c.0518799-.2626953.0775146-.5266113.0366211-.7814941-.5431519-.0551758-1.0481567.0126953-1.5154419-.050293-.6273193-.4482422-1.1669312-.9855957-1.6182861-1.5822754-.2262573-.8605957-.0282593-1.8598633.5637207-2.4973145.9500122-1.0300293 2.4799805-.9599609 3.7700186-1.4001465 1.1099854-.3798828 2.0199585-1.1499023 2.8999634-1.8999023.3900146-.3400879.6799927-.6901855 1.2300415-.5800781.5.1000977 1.0499878.5900879 1.3499756.9899902.8200073-.8598633 1.0900269-2.1999512.6799927-3.3100586.0300293.1000977 1.1400146.4001465 1.3099976.4902344.5024967.2618809.8649406.5590973 1.2710571.8793945.1629028.6245117.2696533 1.2397461.3184814 1.8408203-.4859505-.2702103-1.0007935.0999165-1.0007935.5839844 0 .4829712.5240631.8710327 1.0206909.5708008-.0172729.3798828-.0609741.7480469-.1282349 1.1069336-.0751343.0258789-.1447144.0695801-.1919556.1411133-.5664063.8544922-1.6333008 1.3857422-2.6552734 1.3095703-.1450195-.0166016-.277832.0625-.3496094.1845703-.0717773.1230469-.0678711.2763672.0102539.3955078.4260864.6489258 1.1722412 1.0439453 1.9411621 1.0895996-2.0145606 3.0594292-5.6963253 3.9075298-8.9423818 2.519043zm9.3838491-3.2810059c-.4006348.074707-.8299561-.0083008-1.1882935-.2133789.5896606-.1105957 1.1398315-.3781738 1.6137695-.7453613-.1240233.3320312-.2667846.6516113-.425476.9587402zm-15.7572622-5.6303711c.4500122-2.3100586 1.7900391-4.4401855 3.7000122-5.8300781.1600342-.1201172.4000244-.0800781.5200195.0898438.1199951.1601563.0899658.4001465-.0800171.5200195-1.75 1.2800293-2.9899902 3.2299805-3.3999634 5.3601074-.0400391.1799316-.1900024.3000488-.3700562.3000488h-.0699462c-.2100219-.0400391-.3400268-.2399902-.3000488-.4399414z"/><path d="m14.4943743 26.5872498c-.1113281.1582031-.440918.1269531-.6308594-.0087891-.300293-.2138672-.4482422-.640625-.3447266-.9941406s.4594727-.6328125.8271484-.6494141c.4675159-.0220528.496295-.7253265-.0341797-.75-.684082.0322266-1.3198242.53125-1.5126953 1.1884766-.1923828.65625.0722656 1.4199219.6298828 1.8164063 1.0285406.7296486 2.1841373-.2656288 1.5883789-.6904297-.1689452-.1191407-.4038085-.0800782-.5229491.0878906z"/><path d="m16.69701 49.8977966c-.6474609.9951172-1.6860342 1.7050781-2.8496084 1.9492188-.4804134.1018715-.340107.8276596.1542969.734375 1.3569336-.2851563 2.5683584-1.1142578 3.3242178-2.2753906.2712974-.4157525-.3610706-.8250962-.6289063-.4082032z"/><path d="m48.1354866 36.6370544c.4480858.215744.7704926-.4617615.3261719-.6757813-3.2545776-1.5708008-5.819458-4.5466309-6.9239502-7.9897461.1097565-.1062546.2893524-.2545967.7047119-1.2202148.1962891-.4345703.4433594-1.0898438.3261719-1.7626953-.350132-2.0025196-3.1953506-1.808445-3.003418.9433594.0661774.9656849.3027534 2.2123661 1.2705078 2.3054199 1.1727295 3.6196289 3.874939 6.7468262 7.2998047 8.3996582zm-7.6630859-11.7929687c.1425781-.2695313.409668-.4541016.6538086-.4541016h.0141602c.3491211.0097656.6293945.3857422.6889648.7275391.0982895.5628281-.1952171 1.1366367-.3466797 1.5009766-.1130981.2651367-.3239136.7785645-.532959.861084-.0084229.0031738-.0168457.0056152-.0250244.0095215-.0280762.0063477-.0560303.0065918-.0836182-.0053711-.4273567-.1734219-.7330017-1.9498482-.3686523-2.6396485z"/><path d="m32.8620491 23.7112732c.085022 1.2277832.3948364 1.9428711.9342041 2.206543-.4581909 3.6152344-2.6918945 6.9716797-5.8575439 8.7768555-.429903.2446594-.0612812.8973579.3710938.6523438 3.3864746-1.9311523 5.7736206-5.5307617 6.2421265-9.3996582.4725952-.2272949.7575073-.8796387.9170532-1.2546387.238884-.5817699.5296135-1.1593132.3964844-1.9248047-.3473855-1.9924985-3.1961213-1.8194829-3.0034181.9433593zm1.9169922.6875c-.1220703.2871094-.3999023.9697266-.6411133.8652344-.4156151-.1694756-.7434235-1.9301186-.3686523-2.6396484.3968048-.7502708 1.2221413-.5073338 1.3569336.2724609.0983009.5628776-.1950722 1.1361618-.347168 1.5019531z"/><path d="m42.4440804 13.200531c-.4316406 1.0537109-.7250977 2.1572266-.8754883 3.2958984-.0437279.3285065.3341675.5503654.5996094.3466797.8608398-.6601563 1.84375-1.1601563 2.8833008-1.4707031-.8647461 1.1132813-1.9082031 2.1074219-3.0585938 2.9101563-.4080696.2869415.0280228.8969994.4296875.6152344 1.519043-1.0605469 2.809082-2.3779297 3.8349609-3.9160156.1814156-.2715921-.0496254-.6362495-.3789063-.5771484-1.2119141.2197266-2.3793945.6738281-3.4223633 1.3261719.6209564-3.0531368 1.7087212-3.5741396 1.2294922-4.0078125-.128418-.1162109-.3198242-.1298828-.4638672-.0322266-1.5053711 1.0263672-2.8530273 2.2509766-4.0131836 3.6464844-.4282227-1.1806641-.5688477-2.4794922-.3959961-3.7177734.0249023-.1806641-.0839844-.3535156-.2583008-.4091797-.175293-.0556641-.362793.0234375-.4467773.1855469-1.163559 2.2593851-1.8702431 3.7173004-1.9711914 3.7666016-.1311035.0535116-.6825676-.293539-3.855957-1.7548828-.353241-.1666241-.6960697.2553043-.4570313.5673828l2.4575195 3.203125c.3025436.3931885.8969688-.0634174.5947266-.4570313l-1.5170898-1.9775391c3.5597534 1.6746502 2.9045258 1.8702374 4.6503906-1.5175781.0683594 1.0351563.3232422 2.0615234.753418 2.9970703.0546875.1191406.1674805.2011719.2978516.2158203.5356293.0608672.5919876-.9923078 3.3837891-3.2382814z"/><path d="m37.2961311 19.5647888c-.1710701-.4663429-.8746071-.2094669-.7050781.2558594l.6166992 1.6953125c.1706238.4669647.8744392.2090054.7050781-.2558594z"/><path d="m39.7653694 21.1556091.1499023-1.03125c.0712318-.4904308-.6695404-.6014996-.7421875-.109375l-.1499023 1.0332031c-.0714912.4922429.671608.5976468.7421875.1074219z"/><path d="m61.545826 33.2032166c-.3974724-1.242506-.7655983-1.4792843-1.8775635-1.5646973-1.9459839-.1367188-3.9017944-.263916-5.8380127-.4301758-1.5949478-.1327343-3.1236839-1.5819283-3.8436279 1.609375.0811157-.0097656.1654663.0009766.2406616.0478516 2.0175781 1.2363281 4.3334961 1.9316406 6.6987305 2.0107422.4877548.0161057.4755669.75-.0126953.75-.4735184-.0764618-3.4490776.0013924-6.8322144-1.9829102.2525368-.1537476.227829-.4788284.0231323-.621582-1.2539063-.8789063-2.3057251-1.973877-3.1477661-3.2443848.3106041-.3620358.5195732-.9102726.6082153-1.1149902 1.6233978-3.5860138-2.9211159-4.3099289-2.6772461-.8193359.0720329 1.0403004.3790169 2.4097595 1.4189453 2.3120117.8980103 1.364502 2.024292 2.5395508 3.3671875 3.4799805.0457764.0319824.0986938.0383301.1503906.0478516-.3810883 2.4182358.3149376-1.1810493-2.3989258 11.4211426-.2249146 1.0366211-.4595947 2.1025391-.3814087 3.1586914.0880127 1.065918.5183105 2.1513672 1.3788452 2.767334.9974365.7236328 2.3273926.6943359 3.5497437.6455078 8.7467117-.3667221 9.7783203-.1826782 10.9230957-1.2224121.664978-.6159668.9290161-1.5058594 1.0072632-2.4348145-.0693283-.6645204.2353173-6.6259233-2.3567504-14.8151856zm-15.7511597-6.4470215c.1425781-.2695313.409668-.4541016.6538086-.4541016h.0141602c.3496094.0097656.6298828.3847656.6889648.7265625.0625.3583984-.0234375.7792969-.2705078 1.3251953-.439949 1.0535488-.6033211 1.0936947-.7177734 1.0419922-.100586-.0410156-.7434235-1.9301186-.3686524-2.6396484zm12.3183594 17.7763672c-.3163147.3704224-.8947487-.1052322-.5712891-.4863281 1.6435547-1.9306641 2.2055664-4.7382813 1.4316406-7.1523438-.152317-.473362.563446-.6996117.7138672-.2285156.8515625 2.6552734.2333985 5.743164-1.5742187 7.8671875z"/></g></svg>