<svg id="Layer_1" enable-background="new 0 0 75 75" viewBox="0 0 75 75" xmlns="http://www.w3.org/2000/svg"><g id="Girl_Playing" fill="rgb(0,0,0)"><path d="m26.4321995 43.145195c-1.1866474 1.7820702.2026997 3.120945 2.215332 3.8989258 5.5992031 2.1631699 12.3816586 3.3984375 14.0761738 3.3984375 1.0556641 0 2.0683594-.230957 2.8369141-.9726563 1.315815-1.268898 1.1263962-2.5961456 2.2548828-11.3393555.2958298-2.4060287-.2332764-3.1466713-2.0834961-4.0380859-5.9732742-2.828392-7.0859337-3.7160587-8.6074219-3.3144531-1.2799644.3389587-1.5510979.9572849-6.8593769 7.6743164-1.1993809 1.5189591-2.7316341 3.0396347-3.8330078 4.6928711zm10.8842792-11.6425781c1.1533432-.3016224 1.9192734.3341351 8.090332 3.265625 1.5726128.7573967 1.9163704 1.2122574 1.6645508 3.2709961l-.9667969 7.875c-.3766327 3.0569839-1.2662735 4.2633362-5.1791992 3.597168-4.5893555-.7822266-8.5170898-1.8183594-12.0073261-3.1665039-1.1806641-.456543-1.9331055-1.0302734-2.1186523-1.6152344-.1132813-.3569336-.0292969-.7392578.2568359-1.168457 1.0618286-1.5943146 2.5803852-3.1037827 3.7978516-4.644043 5.2373295-6.5748673 5.4118709-7.1353798 6.4624042-7.4145508z"/><path d="m45.0449944 50.9806442c-3.1410217.5323753-13.6107616-1.7948608-17.1352558-2.7963867-.100008.007885-.7851715-.4193268-1.2841797.1801758-.2548828.3012695-.262207.7548828-.2680664 1.1191406-.0061779.3295403-.1148987 1.6962204-.0405273 4.1391602l.0029297.1425781c.0375977 2.3613281.1850586 3.2167969.4819336 3.4848633.2196655.2706299.9829102.6466064 3.277832 1.3088989-.2798309.1666946-.1849174.1564941.1103516 3.1569214.1783371 1.5215225.5529842 2.3428955 2.42383 2.8461914 1.6141205.429306 3.0551224.4253159 4.5928345.1081543-.2888489 1.7024231-1.0538216 4.8342285.680603 4.8342285.4541016 0 .878418-.328125 1.1552734-.9033203.5141602-1.0688477.5249023-2.2783203.4951172-3.328125-.0107422-.3725586-.0327148-.7358398-.1772461-1.0834961-.4275665-1.0221939-1.6408539-1.0746651-1.987793-.3144531-1.4998169.3643799-3.0731201.3587646-4.5654297-.0375977-1.5187798-.4084358-1.7224751-.9420319-1.8745136-2.2246094-.0132675-.1360855-.2695961-2.7865257-.331604-2.9057007 2.8938618.8048096 3.3633442.6679688 3.4942036.406189l1.1069336-.8535156.1000977.0288086.4443359 1.1635742c.0630302.9583931 4.9328766.9453125 6.0966797.9453125 3.8608398 0 3.8725586-.5195313 3.8789063-.8095703 0-.0102539 0-.0205078-.0004883-.0307617l.2929688-7.7475586c.0198629-.5216751-.4503672-.9196892-.9697267-.8291016zm-6.8120118 13.125c.0341797 0 .0683594.0068359.1044922.0209961.4102058.1583481.438076.7391281.4501953 1.1679688.027832.9619141.0200195 2.0644531-.4208984 2.9814453-.1196289.2480469-.328125.4936523-.5097656.4765625-.1253433-.0192337-.7199974-.0086746.1464844-4.3168945.0248146-.193718.0264434-.3300782.2294921-.3300782zm6.7436524-4.6923828c-1.0786133.4086914-7.6162109.2617188-8.5195313-.2026367-.4158173-.9023895-.3756752-1.5091248-.9941406-1.6835938-.6264191-.1779327-.9064522.3740768-1.8930664 1.0444336-.7999992.0363617-5.4635544-1.2925377-6.1171894-1.7441406-.0330238-.0715523-.0847836-.1278801-.1489258-.1669922-.3278503-.8440895-.3526306-7.5378799-.0595703-7.8510742.015625-.0087891.0214844-.0087891.0253906-.0112305.1910725-.0494728 5.4600544 1.7474442 14.1933613 2.8476563 1.2036133.1518555 2.4824219.2827148 3.7080078.0742188 0 0 .0942383.0615234.0947266.0615234z"/><path d="m54.3834343 29.4735641c-.1508789.3442383-.3201904.6793823-.5134277 1.003418 4.9455643-2.2299461 6.8512764-10.4400406 2.1282349-16.2840576.8388824.3279381 1.5441399-.3181429 1.2774048-1.421814.8268433.2268677 1.553894.9591675 1.9241943 1.7687378.5100098 1.0899658.5800171 2.329957.8699951 3.500001 1.0824013 4.3710289 5.1408577 7.3495464 9.6199913 7.0799561-2.9499512-1.9099731-5.0699463-5.0599976-5.7399864-8.5100098-.4799805-2.5199594-.289978-5.3099985-1.7699585-7.3899546-2.0605927-2.8721981-6.3887062-2.9997158-8.5822754-.0755005-.8395729-.1794395-1.4045792.135519-1.6395264.5731201-.3296509.5516968-.1503906 1.034668.1686401 1.4310913-1.9860039-.9556389-4.159893-1.3382998-6.2846069-1.2539673-.1002808.0091515-1.7566185.1603069-1.6513062.1506958-6.4584694 1.1141462-9.3717728 6.9411077-7.854126 11.9240122-.3543815 10.1417075 11.9120217 14.0795775 18.046753 7.5042715zm-4.0122681 1.8664551c-3.1655273 1.2089844-7.0419922.5864258-9.878418-1.5825195-2.9446297-2.2536163-3.9529648-6.147541-3.1640015-9.755249 1.9157104-3.3815918 5.2659912-5.9425058 9.0753784-6.7752085-.7214355 1.7862549-.1809082 3.9921885 1.2714844 5.2460337.142334-1.2089844.7021484-2.3764648 1.5748291-3.2263193-.2045898.4894409.0148926 1.0734873.3641357 1.4674082.3596802.3947144.8339844.6611938 1.2753906.9463501 3.0147743 1.9769287 4.9147758 5.7124996 4.1008911 9.8240356-1.100952 1.7195434-2.7091063 3.1256103-4.6196898 3.8554687zm2.2387696-21.2524423c.1640244-.3028154.6345062-.2877436.9902344-.1791992 1.4801369.4554281 2.5213509 1.6043539 2.9101563 2.8994141.0043945.0141602.012207.0327148.0205078.0507813 0 .0004883.0004883.0009766.0004883.0014648.0825195.2680664.0878906.5874023-.0463867.6582031-.0004883 0-.0009766 0-.0009766.0004883-.3338661.1727686-2.0681496-1.4762154-3.0375977-2.1894531-.7265626-.5356446-1.0566407-.8720704-.8364258-1.2416993z"/><path d="m67.1362991 36.3082809c1.6311111-1.6597214-.4045181-4.2299843-3.1108398-2.7392578 0 0 0 0-.0004883 0-.5184288.2858887-2.275692 1.5429688-2.0479088 2.7769165l-5.5360718 3.3695679c-2.861393 1.7405891-4.4140282 1.9658051-7.5473633-1.7939453-.3188019-.3818588-.893734.099865-.5761719.4804688 1.3970833 1.6759834 2.9294205 3.2709961 5.0693359 3.2709961 1.6479454-.0245247 2.5572968-.7771988 8.9829712-4.6882935.402729.2829094 1.0343552.2903442 1.8231773.2903442 1.0270464 0 2.2256395-.2387581 2.9433595-.9667969zm-4.3969688-.0092773c-.2460938-.6181641.9589844-1.6933594 1.6474571-2.0727539 2.8580627-1.5769463 4.1632614 2.5177002-.5424767 2.2905273-.8330879-.0170364-1.0478896-.0739708-1.1049804-.2177734z"/><path d="m22.1914768 19.1862106c.5614719.7334461 1.9304447 1.9906578 2.6813965 2.1994629.5079346 2.8064575 1.1453857 5.475708 2.9602051 7.4572754 1.6471443 1.8055134 4.165123 2.7685871 6.5507832 2.550293.5006866-.0462723.4174843-.8000298-.0683594-.7470703-2.1733398.1977539-4.4482441-.6860352-5.9292011-2.3095703-1.6936646-1.8495483-2.296875-4.4273071-2.7862549-7.1416626.3028564-.3342896.3646851-.9990845.3331299-2.0189819l-.0043945-.1616211c-.0238171-1.5957623-.4912872-3.7261906-1.8354492-4.6157236-.8598633-.5678711-2.2207031-.5581055-2.8779297.3623047-.8772527 1.227354.0737685 3.2446279.9760741 4.4252938zm-.3657226-3.989747c.3876953-.5424805 1.2993164-.5385742 1.8540039-.1723633.5424805.359375.9501953 1.0224619 1.2109375 1.9707041.3101044 1.1275768.2818489 2.0508537.2929688 2.2045898.0333862 1.0872803-.0535889 1.4060669-.0576782 1.4712524-.0004883.000061-.0009155-.0001221-.0014038-.000061-.0076294.0013428-.0133057.0064087-.020752.0081787-.1043701-.0089111-.3477783-.121521-.9343262-.59021-.1164684-.1010113-.7598038-.5451069-1.3823242-1.3583984-.6617432-.8648243-1.596201-2.6435985-.9614258-3.5336923z"/><path d="m49.2660027 63.8342819c-1.8639526.5001831-3.7948608.8595581-5.7463989 1.0623779-.6635742.0712891-1.4179688.1186523-1.9848633-.203125-.5102539-.2890625-.8779297-.8979492-.984375-1.6323242-.1117096-.7066307.0068436-1.4720726.1108398-2.1875.0645065-.4430923-.671463-.5863914-.7514648-.0444336-.1113281.7641602-.2260742 1.5541992-.1010742 2.3442383.1391602.9575195.6459961 1.7695313 1.3554688 2.171875.7377625.4204025 1.5957451.386673 2.434082.2973633 1.8731689-.1949463 3.7275391-.5349731 5.5254517-.9991455-.0992775 1.7420425-.2766724 2.908371-.0200806 3.5718994.3637581.9482117 1.5345993 1.2179794 2.3232422-.0678711.6708984-1.0942383.8964844-2.4418945.6186523-3.6962891-.4340363-1.9559745-2.2829514-1.7658843-2.77948-.6170654zm.5372924 4.1116944c-.212265-.5492325.0439339-2.3308105.0908203-3.5981445.0234566-.6302147 1.1120338-1.1200638 1.4189453.265625.4732514 2.1364898-1.0357131 4.5636443-1.5097656 3.3325195z"/><path d="m42.8385124 20.8509445c.4483643.0332642.8388062-.3031616.8721313-.7515869.0333252-.4483643-.3031616-.8388062-.7515259-.8721313-.4483643-.0332642-.8388672.3031616-.8721924.7515259-.0332641.4484252.3032228.8388671.751587.8721923z"/><path d="m49.7582512 22.6409225c-.4483643-.0333252-.8388672.3031616-.8721313.7515259-.0333252.4483643.3031616.8388672.7515259.8721924.4483643.0332642.8388672-.3032227.8721313-.7515869.0333252-.4483643-.3031617-.8388062-.7515259-.8721314z"/><path d="m45.0308342 26.6061325c-1.2319336.0356445-2.5424805-.6396484-3.2446289-1.6972656-.2760468-.4140663-.8982201.001709-.625.4150391.8175354 1.2309017 2.3130074 2.0588741 3.8852539 2.0322266.4930038-.0104657.4899063-.7674676-.015625-.7500001z"/><path d="m40.6909904 6.2599406c.6667824.0696487 1.2101707.8128529 1.0727539 1.4702148-.1006241.4867339.6325531.6382976.734375.1533203.3794327-1.82197-2.0391312-2.9712296-2.1411133-2.0356445-.0214843.2060547.1279298.3901368.3339844.4121094z"/><path d="m43.8408928 7.824882.2890625-1.9008789c.0749588-.4907689-.6665878-.6020203-.7412109-.1123047l-.2890625 1.9008789c-.0746651.4888092.666172.6052299.7412109.1123047z"/><path d="m44.9771233 8.1583776.5976563-1.3129878.3735352-.4487305c.3186111-.3818665-.2622337-.8622899-.5761719-.4794922-.7528954.9157028-.1413078.02636-1.0776367 1.9306641-.2048646.4493022.4769553.761724.6826171.3105464z"/><path d="m15.8598728 22.4598312c-4.5483227-1.3502712-8.9800415 2.0310841-8.9800415 6.6499634 0 2.7900391 1.6500244 5.2000122 4.0200195 6.3000488.0599976-.1400146.2200317-.2300415.3900146-.210022 1.1300049.2000122 2.1599731-.8400269 2.4599609-1.9099731.6763573-2.4467106-1.1539717-5.1595173-.4599609-7.8200073.3399659-1.3300171 1.3200074-2.460022 2.5700074-3.0100098z"/><path d="m16.3698826 23.0497971c-1.1500244.4299927-2.0500488 1.4200439-2.3600464 2.6100464-.6261292 2.5045147 1.2232523 5.1588821.460022 7.8299561-.2999878 1.0400391-1.1500244 2.0599976-2.2200317 2.3800049 4.1479893 1.0573502 8.5300293-2.1546326 8.5300293-6.7600098 0-2.8599854-1.7199707-5.3099976-4.1799927-6.3699951-.0100098.1400145-.0900269.2600097-.2299805.3099975z"/><path d="m7.3071995 17.8771286c.2047124.4506836.8884783.143322.6835938-.3085938l-1.5263673-3.3764657 4.0512695 2.0332041c.2271004.1165905.5135269-.0305271.5410156-.2958994l.5517578-5.2709961 2.3061523 4.0566406c.1584835.2762756.570158.2410669.6782227-.0566406l.8364258-2.2856445.9731445 3.3271484c.1379108.4756765.8593006.2664299.7197266-.2109375l-1.293457-4.4213867c-.0980368-.3352242-.583889-.3757887-.7119141-.0234375l-.9501953 2.5961914-2.4833984-4.3681641c-.178772-.3131208-.6608953-.2170362-.6992188.1464844l-.6166992 5.8930664-4.512207-2.2646484c-.3159351-.1585064-.6556191.1681528-.5102539.4892578z"/></g></svg>