<svg id="Layer_1" enable-background="new 0 0 75 75" viewBox="0 0 75 75" xmlns="http://www.w3.org/2000/svg"><g id="Hanging_Down" fill="rgb(0,0,0)"><path d="m32.6664963 40.3245392c.203125-.0400391.3359375-.2363281.296875-.4394531-.0400391-.203125-.2402344-.3378906-.4394531-.296875-5.287962 1.0285645-9.9075909 4.9138184-11.8561993 9.9326172-.8048096-.0302734-1.6905518.5769043-2.1965332 1.1259766h-.0009766c-1.5585995 1.6964035-1.2314568 4.671875.8486328 4.671875 1.3775997 0 2.6634083-1.2498512 2.9287109-2.6796875.1513672-.8291016-.0117188-2.2695313-.8505859-2.875-.0047607-.003418-.0102539-.0043945-.0150146-.0078125 1.864624-4.7656251 6.2573242-8.4533692 11.284544-9.4316407zm-11.1572247 12.1787109c-.3790798 2.0527039-3.2096291 3.0588112-3.2636719.7099609-.0476475-2.0408974 2.0582008-3.3131638 2.7119141-2.8417969.5361328.3876954.6669922 1.506836.5517578 2.131836z"/><path d="m50.9985275 43.1634064c4.1708984 2.5180664 7.3470459 6.6245117 8.7972412 11.3076172-.0046387.0012207-.0095215.0007324-.0140381.0019531-1.1103516.2890625-1.3164063 1.84375-1.1826172 2.8183594.4013023 2.9634438 4.0162125 4.2300529 4.6542969 1.2324219.4052048-1.8816948-.9086761-3.7284508-2.6715088-4.0639648-1.4711914-4.9450684-4.8056641-9.2880859-9.1966553-11.9389648-.4266547-.2536241-.8109664.3861655-.3867187.642578zm10.7070313 16.296875c-.3632813.1142578-.8369141-.0195313-1.2714844-.359375-1.606636-1.2678413-1.2451553-3.6989708-.4628906-3.9013672.6279488-.1674538 1.576458.4350014 1.9941406.9326172.5078125.6054687.5989761 3.0546417-.2597656 3.328125z"/><path d="m43.7520676 54.5557404c-.4980469 0-.9016113.4038086-.9016113.9016113 0 .4980469.4035645.9018555.9016113.9018555s.9017334-.4038086.9017334-.9018555c0-.4978027-.4036866-.9016113-.9017334-.9016113z"/><path d="m37.4164963 56.0198517c.4979248 0 .9017334-.4038086.9017334-.9018555s-.4038086-.9016113-.9017334-.9016113-.9017334.4035645-.9017334.9016113.4038086.9018555.9017334.9018555z"/><path d="m59.231926 31.9280548c-.6240234.1621094-1.3564453-.0634766-1.7792969-.5517578-.3186874-.3745155-.8940201.1131229-.5664063.4902344.4755859.5507813 1.1992188.8642578 1.9228516.8642578 1.211113 0 1.9088478-.84272 1.7822266-1.5595703-.2044678-1.1847191-1.9083519-1.0901909-1.7441406-1.0810547-.4887085 0-.50037.7361431-.0107422.75.3876534.0109863.9498482.0770969 1.0166016.4609375.0458984.2607422-.2910157.540039-.6210938.6269531z"/><path d="m56.1723557 33.7796173c1.6816406.421875 3.2011719 1.4882813 4.1679688 2.9248047.2744904.4062424.9010849-.0056229.6230469-.4179688-1.0703125-1.5888672-2.75-2.7675781-4.609375-3.2333984-.480301-.1212654-.6630098.6073876-.1816407.7265625z"/><path d="m55.75634 35.9798126c.5751953.2412109 1.0058594.8447266 1.0458984 1.46875.0126953.1982422.1777344.3505859.3740234.3505859.0078125 0 .015625 0 .0244141-.0009766.2060547-.0126953.3632813-.1914063.3496094-.3984375-.0585938-.9101563-.6630859-1.7587891-1.5048828-2.1113281-.4578514-.1907691-.7466812.4999543-.2890625.6914063z"/><path d="m52.6079025 61.5784454c-.1824455 1.5844116 1.4098816 2.7896118 3.1856689 2.0029297.0964088.6744461 1.1661415 2.7194748 1.4822998 3.3300781v.0009766c.5145264.9933548.9844284 1.9396515 1.6542969 2.4716797 1.267971 1.0045776 2.8335228.356041 2.8574219-.9345703.8826675-.0339508 1.3303185-.7197876 1.703125-1.4931641.1738281-.3603516.4130859-.8544922.3027344-1.3876953-.0849609-.4179688-.3857422-.7998047-.8251953-1.0478516-.1738281-.0976563-.3603516-.1630859-.5478516-.2255859-.523159-.1743851-.8181458-.4238014-1.4707031-.7421875-2.4486122-1.1900673-2.9459419-1.5442848-3.6049805-1.5617676.6790199-1.6761208-.6211205-3.1588173-2.0161133-2.7995605-.0048447-1.3977623-1.2358093-2.2836914-2.5341797-1.9736328.0369759-.8966522-.4580994-1.7699699-1.2294922-2.1474609-.8300781-.404541-1.6470947-.2058105-2.2384033.2255859.0388184-1.5336914-.1661377-3.0102539-.6317139-4.3105469-2.1669312-6.0057793-8.8074112-7.8670311-13.4765625-3.8369141-1.130127.9692383-2.0284424 2.2150879-2.65979 3.651123-.0065918-.0031738-.0109863-.0087891-.0179443-.0114746-.5712872-.2216797-1.2451153-.1103516-1.7148418.2871094-.8406219.7130432-.8079433 2.0730934.1824951 2.7167969-.9866295-.4276962-2.2061825.0257034-2.6697998 1.1220703-1.0711136-.9051323-2.5939331-.4687881-3.0292969.8525391-1.536932-.929039-3.3813248.4063988-3.0926514 2.4799805-.5245113.1495934-.951767.5952454-1.3155518.949707-1.5724792 1.5446472-3.0844193 3.0305672-3.4326172 4.0166016-.5365944 1.5250549.5906448 2.8044205 1.8144531 2.3964844.319313.8251266 1.1140575 1.0257263 1.9658203 1.125.4836826.057579.9728489.0938721 1.4111328-.1650391.3691406-.2177734.6318359-.6269531.7216797-1.1210938.0736713-.4022141-.0278072-.278656.1259766-1.4189453.1550083-.8463478.4917469-3.6338005.4790039-3.5334473 1.0708542.3157921 2.133976-.217144 2.3195801-1.2910156 1.2676105.5906487 2.5656929-.1541786 2.8322754-1.4353027.3795166.1965332.8205566.2763672 1.2601318.2392578-.9458332 7.165802 6.0409451 12.0893021 13.0543194 9.7158203 4.0796127-1.3809204 5.9249573-4.4544106 6.2210693-8.6999512.2712402.1020508.5637207.1508789.8551025.1413574-.3779944 1.3603516.6669199 2.5798073 2.0791017 2.4121094zm5.5605469 1.4375c2.702507 1.348526 2.3446388 1.1324997 3.1210938 1.5722656.3726921.1868591.3185043.2245331.8925781.4179688 1.0363655.3478241 1.0376091.7882385.6328125 1.6240234-.1640625.3417969-.3349609.6943359-.6074219.9042969-.234375.1806641-.5478516.2207031-.7480469.0966797-.3547554-.2137604-.7421684.2145081-.4980469.5429688.1953506.2653809-.007206.7328949-.3251953.8769531-.4072266.1787109-.9160156.0019531-1.2402344-.2539063-.7135277-.5683746-1.5356979-2.348732-2.5292969-4.4150391-.4521484-.9404297-.4980469-1.2578125.0683594-1.5507813.350586-.1787108.7041016-.0742186 1.2333985.1845704zm-10.1796875-11.7773437c.6174583 1.7224388.6773376 3.3511047.5318604 5.0822754-.0588379.1437988-.1086426.2922363-.1367188.447998-3.1703606.942955-7.265522.8473854-9.2037354 4.2392578-1.5522919-2.3436089-3.5225945-2.3538971-5.3505859-3.6904297-.7949219-.5683594-1.6044922-1.5703125-1.4941406-2.6777344 1.0950699-10.1542815 12.5444298-12.0199241 15.6533203-3.4013671zm-15.7216797.2490234c.0058594.0021973.0118408.0009766.0178223.0029297-.2149658.590332-.3858624 1.2077637-.5106182 1.8500977-.0351563-.0263672-.0737305-.0490723-.1185303-.0620117-.3242188-.0957031-.5888672-.3818359-.6582031-.7128906-.1553765-.7294007.5706958-1.3528977 1.2695293-1.0781251zm-.716795 2.5253906c.0391846 0 .0710449-.0239258.1075439-.0354004-.010498.078125-.0178223.1560059-.0273438.2331543-.130127-.1271973-.277832-.2368164-.4389648-.3276367.1187669.0578156.2331143.1298828.3587647.1298828zm-8.6542968 9.116211c-.0833187.6665459-.2359161 1.1092911-.2294922 1.7324219.0070438 1.0847168-.3891373 1.2383194-1.3300781 1.1289063-.3574219-.0429688-.7636719-.0908203-1.0517578-.2802734-.2460938-.1630859-.3867188-.4472656-.3349609-.6767578.0890102-.3983231-.4400215-.6348419-.6757813-.2939453-.190176.2767868-.7067432.2207184-.9345703-.0205078-.3037109-.3251953-.3007813-.8662109-.1640625-1.2568359.3242073-.9164009 2.2844505-2.7742615 3.3496094-3.8271484.7412109-.7353516 1.0253906-.8847656 1.4882813-.4423828.4944743.4726102.1965617 1.0945852-.1171876 3.9365232zm6.1591797-6.3710938c-.2471809-.3106155-.7548561-.0669861-.65625.3251953.1455078.5820313-.1972656 1.265625-.7529297 1.4941406-.4881592.2094727-1.1585693.0200195-1.491333-.418457-.0332031-.0539551-.0666504-.1074219-.1102295-.1616211-.3113022-.3856392-.8946953.082901-.5839844.4707031.2289124.2817383.1580753.8468857-.1640625 1.1210938-.3187256.276123-.8317871.3242188-1.2879639.1196289-.0624313-.7120323-.455864-1.173748-1.0083008-1.4077148-.133667-.6374512-.0063477-1.4238281.5482178-1.8398438.5395851-.4083366 1.5152702-.2483749 1.7294922.3730469.1593113.4591942.8380604.2398262.7167969-.2177734-.1474609-.5615234.2392578-1.2382813.796875-1.3925781.5673828-.1533203 1.2490234.2265625 1.4101563.7832031.1275234.4395027.7924042.3057785.7324219-.1533203-.1797791-1.3654022 1.7424641-2.1415749 2.4785156-.6923828.4298782.792038.1250229 1.7553787-.6933594 2.0263672-.5957032.2099609-1.2978516.0273437-1.6640625-.4296876zm14.1562481 10.256836c-6.7712364 2.2947922-13.1506958-2.6381683-12.0273418-9.2133789.4939098-.2316132.8220806-.6108818 1.0128155-1.074707.3000488.439209.7021484.847168 1.1932373 1.1982422 2.1065407 1.5403671 3.9240799 1.2887688 5.4570313 3.9726563.0625.1103516.1757813.1806641.3017578.1884766.0078125.0009766.015625.0009766.0234375.0009766.2446747 0 .3431931-.1651001.7158203-.8046875 1.6381378-2.8320351 5.3797531-2.8694229 8.5079346-3.7412109.0712891.3422852.2340088.6826172.5262451.9921875v-.0009768c.0079346.0083008.0179443.0136719.026001.0217285-.1379129 4.1623802-1.9155847 7.1668167-5.7369386 8.4606934zm6.2558593-8.9960938s0 0 0-.0009766c-1.0738525-1.1391602.4231071-2.9291878 1.7685547-2.2734375.6836243.334671 1.0164871 1.2916985.6767578 1.9814453-.1769714.3651505.2699661.7096024.5742188.4560547.4716797-.3857422 1.2480469-.3623047 1.6933594.0498047.4121094.3789063.5185547 1.0634766.2617188 1.5605469-.0371094.0527344-.0703125.109375-.0996094.1669922-.2079887.4137001.3807373.7657814.6435547.3818359.0332031-.0478516.0634766-.0966797.0908203-.1464844.2207031-.28125.6816406-.3945313 1.0410156-.2324219.7910995.358017.9779167 1.5968285.0126953 2.5136719-.5292969.5009766-1.4345703.8105469-2.1445313.4365234-.603981-.3202934-.8755493-1.2904053-.3935547-1.7636719.3411293-.3387909-.1466064-.858223-.5048828-.5546875-.4521484.3779297-1.2431641.3115234-1.6259766-.1376953s-.3251953-1.2402344.1201172-1.6289063c.3487129-.3048325-.0634995-.8467789-.4482422-.5986328-.5048828.317383-1.2539062.2265627-1.6660156-.2099608z"/><path d="m6.8071222 13.3157511c.5024567.2032404.5071497.1094437 8.2382813.9482422 2.0923929.2824926 1.8135939.0770941 3.7529306.5830078 1.9687748.5145311 3.3111801.6786308 6.1230469-.0234375 1.9869099-.4782715 4.0084476-1.2505274 6.0478516-1.3603516 2.0659657-.1299353 3.9843273.4760418 6.1361065 1.0766602-1.8315315 1.3469086-1.5845184 3.2651358-.005249 3.2651358 1.6637878 0 3.0475464-1.9034405 2.8592529-2.5881338.3674316.0698242.7353516.1357422 1.1051025.1943359.144165 1.8344717-.2768555 3.7121572-1.2055664 5.3010244-.0595703.1008301-.0612793.2160645-.0235596.3178711-3.4956932.2792835-4.5998154.0998859-5.0220947.9196777-.3696327.6866207 1.6305122 7.3409348-.2005615 17.0581055-.5957336 3.275589.2579536 3.970665 2.3781738 4.3647461 8.6070175 1.5649147 8.3731499 1.52948 8.9301758 1.6044922 2.6123543.3229294 4.2030602-.4955635 5.0715332-4.5080566 1.2180748-5.5609398 1.4672813-8.9430828 1.7683105-11.0893555.2041016-1.6706543.3842773-3.385498.3137207-5.0229492-.1004219-2.1764908-1.4182587-2.4988976-3.4146729-2.8515625.0584717-.0402832.107666-.0961914.1364746-.1669922.6405029-1.6025391.9383545-3.3532715.9107666-5.0952148 11.2992172.6791687 11.3761826.5712967 12.7210693 1.1948242 1.3672028.6275673 3.1729126.8703957 4.2148438-.2314453.8403244-.9086781.6666641-1.9469671 1.0400391-4.0283194.0947266-.5283203.1923828-1.0742188.2382813-1.6289063.0945587-1.2601604-.2874451-2.3291788-.265625-3.5380859.0041656-.2602019-.2525864-.4466596-.4960938-.3613286-6.4049683 2.1755595-13.1737747 2.4345613-19.9597168 2.3720708-.6089211-.234189-1.1753502-.1745911-1.4396973-.0192871-1.5836334-.0204592-4.39291-.045599-7.1933594-.1635742-.0380859-.0456543-.0723877-.0944824-.1113281-.1394043-.1730385-.1991835-.5143585-.1706343-.6264648.104248-1.5128174-.0751953-3.0270996-.184082-4.5239258-.3688965-.4860497-.0725784-.5900269.6827469-.0917969.7441406 1.6446533.203125 3.3050537.3208008 4.9593506.3964844.9155273 1.1826172 1.5269775 2.5849609 1.7763672 4.0605469-4.1542931-.6837778-6.4021988-1.9433594-9.4124737-1.9433594-2.2981815-.0222054-4.6531067.8837767-6.7939453 1.4023438-2.652174.6625977-3.7970867.3888464-3.9140625.4023438-.6298828-.0595703-1.2177734-.2128906-1.8408203-.3759766-2.0390377-.5310678-1.8401146-.3265333-3.8613291-.6025391-5.8401079-.6328726-5.8293276-.613678-7.4462891-.7802734-.3206234-.0388203-.8390002-.0885477-.8662109-.421875-.0136719-.2011719.1513672-.4511719.3935547-.5957031.2880859-.1708984.6367188-.2304688 1.0341797-.2861328.6879635-.1072016 7.3156519-1.3410778 14.7460947-1.8320313.3370762-.0214701.4755611-.4456577.2158203-.6621094-.8242874-.6858416-1.275692-1.7830744-1.2539063-2.7851567 2.8505859 1.8251953 6.3613281 3.0908208 10.506834 3.7705083.5305672 0 .5132866-.7451172.0507813-.7451172-4.2216778-.6982422-7.8066387-2.0410161-10.6562481-3.9902349-.2314568-.157135-.5389843-.0174618-.5820313.2490234-.2215328 1.3472748.1565361 2.5659976.8671875 3.4716802-7.1852303.5412035-13.3764439 1.6837626-14.0039072 1.7822266-.4560547.0634766-.8994141.140625-1.3076172.3828125-.9471196.5630512-1.07417 1.7984275-.017578 2.2392578zm32.4296866 1.9101562c-.2060547.86621-.9521484 1.6025381-1.8164063 1.7900381-1.529705.3592911-.8144684-1.5483437.6906738-2.2016592.3172836.0773859.4825668.1246605 1.1900635.2741699-.029541.039795-.052124.0859376-.064331.1374512zm6.8300781 21.5390616c-.71875.2558594-1.4794922.3837891-2.2402344.3837891-2.1820259 0-4.1316681-1.0579147-5.3408203-2.6738281-.2982674-.3992577.3060341-.8448067.6015625-.4492188.7509766 1.0058594 1.8271484 1.7587891 3.0292969 2.1220703 1.2001953.3632813 2.5146484.3320313 3.6982422-.0898438.1982422-.0683594.4101563.0322266.4794922.2275391s-.0322266.4101562-.2275391.4794922zm.6015625-7.1650391c-2.3963585.9846172-5.3516769.5365582-7.3544922-1.1591797-.3638992-.3082714.0725937-.8644199.4580078-.5927734l.1572266.1103516c.0351563.0244141.0644531.0537109.0878906.0869141 1.7724609 1.3613281 4.2929688 1.7119141 6.3662109.8613281.4553414-.1905003.7462693.5051517.2851563.6933593zm2.4306641-8.5410156c-.0500488.1264648-.0216064.2607422.0545654.3623047-2.5938416-.4212761-5.8419495-.6653938-8.5844727-.4499512.9309082-1.6450195 1.3706055-3.560791 1.2554932-5.4465322.7449951.1040039 1.4931641.1887207 2.2427979.260498-1.699604 1.4098806-.2301102 3.7488661 1.8284912 2.2883291.9328575-.692255 1.4401894-1.7587471 1.4299316-2.0356445.6007996.0379391 1.2342873.0760365 2.6320801.1599121.0340576 1.6611328-.2471924 3.3327637-.8588867 4.861084zm-3.798584-5.1650381c.4241943.0336914.8480225.0654297 1.2717285.0939941-.2185059.5788565-.6121826 1.1047354-1.1166992 1.4792471-.8979874.6359158-1.5189857.2028961-1.3574219-.4433594.1197281-.5376873.7103424-.8852996 1.2023926-1.1298818zm22.6169433-7.375c.0591049 1.0343733.3297577 1.9955702.2558594 2.9707031-.0862503 1.0370054-.3769989 2.1031084-.4667969 3.1826172-.0664063.7890625-.1630859 1.5371084-.6113281 2.0214834-.7905884.8334351-2.3094177.5418396-3.3535156.0634766-1.6072922-.7456112-2.2194023-.6175404-13.0655518-1.2675772-.1035004-1.4370804-.5067635-3.6011772-1.4301758-4.7072754 6.3615609-.0015516 12.5685273-.2822351 18.6715088-2.2634277zm-27.7731933 2.0910644c2.7143669.0997305 5.2256241.1345568 7.9107666.1599121.1778564.0869141.3449707.1933594.4747314.3212891.8972282.8814526 1.2895355 3.1052227 1.3898926 4.3527832-2.7761078-.1672049-5.5193748-.3075495-8.1729736-.6889648-.2108155-1.4799805-.7647705-2.9074707-1.602417-4.1450196z"/><path d="m38.638176 51.5823517c1.8407822-.5425453 2.0064583.0973701 3.3691406.6191406h.0009766c2.3830681.9092331 3.607235-1.7681007 1.3779297-3.3349609-1.6201172-1.1425781-3.9628906-1.0087891-5.4443359.3115234-.5537109.4951172-.9414063 1.4589844-.6113281 2.0527344.1074218.1904297.4462889.6044922 1.3076171.3515625zm-.1962891-1.84375c1.2060547-1.0761719 3.1884766-1.1904297 4.5126953-.2587891 1.4719276 1.0369263.9197044 2.6235428-.6806641 2.0205078-.612339-.233757-1.1876373-.6742783-1.9345703-.8261719-1.2468605-.2560349-2.2032547.4494057-2.3535156.1923828-.1005859-.1826171.0703125-.7841796.4560547-1.1279296z"/><path d="m40.638176 65.1331329c-.487011-.0859451-.6067619.6666336-.1132813.7421875 2.0093918.3035049 3.6645241-.9372787 5.2255859-2.2080078l-.4765625-.5800781c-1.3191566 1.0750809-2.8797454 2.3224945-4.6357421 2.0458984z"/><path d="m37.1284103 61.7395782c-.0136719.0048828-.0380859.0009766-.0576172 0-1.6445313 0-3.2705078-1.1601563-3.796875-2.71875-.1589737-.4722519-.8696976-.2290459-.7109375.2402344.6028671 1.7826729 2.3978958 3.2285156 4.5712891 3.2285156.4901085-.0069351.4886589-.75-.0058594-.75z"/></g></svg>