<svg id="Layer_1" enable-background="new 0 0 75 75" viewBox="0 0 75 75" xmlns="http://www.w3.org/2000/svg"><g id="Happy_Children" fill="rgb(0,0,0)"><path d="m49.3493042 33.8026161c2.7505951 0 5.1781616-1.8931789 6.1219482-4.338377.0454102.0075684.0847168.0209961.1358643.0209961.1845703 0 .4052734-.0595703.6367188-.2519531.2763672-.2373047.3945313-.5800781.4804688-.9121094.7191658-2.6508961.9764977-3.5394573 1.0566406-4.1679688.0623932-.487587-.6794777-.59622-.7441406-.0957031-.0705109.5502605-.2583313 1.1964169-.7177734 2.8916016-.3546982 1.2870541-.3900986 1.5658817-.5595703 1.7109375-.1132813.0947266-.1669922.0761719-.1933594.0683594-.4779968-.1501408-1.5816498-2.2867813-.7177734-4.0361328.1218834-.243763-.0503998-.5433655-.3535156-.5410156-1.4599609.0605469-2.8476563-1.1357422-2.9951172-2.5791016-.0342369-.3274021-.4447327-.4560146-.6572266-.2070313-1.0342598 1.2016907-2.8396301 1.2742996-3.9794922.2753906-.1832962-.1606445-.4653778-.1048241-.5771484.1044922-.1523438.2832031-.2998047.3642578-.5419922.4990234-.4053154.2249146-.5601196.2669411-1.3564453 1.3583984-.301796-1.8185272.8685646-3.9361839 3.7734375-4.8037109 4.2282867-1.2571812 8.1970139 1.4650612 8.8378906 3.7441406.1355934.4745674.8564796.2758102.7226563-.203125-.2089844-.7441406-.6601563-1.4707031-1.3037109-2.1035156-.1258545-.1225586-.2635498-.2241211-.3944092-.3378906.7005806.2009106 1.0080261-.2324371.8536377-.6765137 4.0312653-.486145 6.9226189-3.6855278 7.2780762-7.4328623.0350037-.3521996-.3943176-.5451345-.6396484-.2998047-1.5006256 1.5150776-4.1059837 1.1172581-6.1064453 1.4326172-3.2322159.503397-4.3419266 2.7445765-3.6514893 4.4509287-.396843.0873051-.6553307.464716-.3557129.9233398-4.0574341-1.5650616-9.3049431.3182278-9.760376 4.220459-.0868187.7379723-.0797119 1.8953667.6235352 2.125-.25354 1.0517578-.3768311 2.1342773-.3920898 2.9501953-.0499843 3.3740026 2.0025212 6.2109357 5.4765622 6.2109357zm5.4931641-18.8310537c1.8702393-2.2594357 5.7313652-.7436504 8.421875-2.3466797-.7406311 3.3265362-3.5673676 5.697854-6.9178467 5.8979502-.4655762-.4511719-1.027832-.7946777-1.6419678-1.0024414-.626831-.71167-.4185791-1.8747568.1379395-2.5488291zm-8.1425782 7.4882822c1.2499275.8526497 2.9402695.8532181 4.2021484-.1220703.4365234 1.3193359 1.6875 2.3623047 3.0654297 2.5400391-.4932747 1.544939.0714455 3.3823929.8497314 4.2072754-.7143555 1.9753418-2.4990234 3.5244122-4.5255127 3.8825665-3.4250946.6240158-5.7184868-1.999115-5.6689453-5.3632793.0194092-1.0717773.2337646-2.7800293.770874-4.0852051.1245117-.1604004.2294922-.2912598.2672119-.3288574.3787576-.3115217.7104455-.3565828 1.0390626-.7304689z"/><path d="m45.5319214 24.8895321c.1914063.078125.4101563-.0068359.4931641-.1962891.0498047-.1181641.2089844-.1962891.3339844-.1679688.125.0302734.2294922.1738281.2207031.3007813-.0146484.2070313.140625.3867188.3466797.4013672.0097656.0009766.0185547.0009766.0273438.0009766.634594 0 .4437447-1.223032-.4169922-1.4316406-.4873048-.1171875-1.5994569.8366489-1.0048829 1.0927734z"/><path d="m50.2545776 25.0867977c.5569534-.6219311.7769966-.5036793.8505859.2841797.0418701.492588.7907562.4266167.7460938-.0693359-.0185547-.2109375-.0400391-.4501953-.1328125-.6835938-.2583656-.6448994-.9136276-.8675175-1.5117188-.4980469-.2119141.1318359-.3710938.3095703-.5117188.4667969z"/><path d="m45.322937 26.7381649c-1.754631 5.8230152 5.957901 7.8137569 6.3623047.609375.0117188-.203125-.1396484-.3779297-.3417969-.3955078l-5.6289063-.4794922c-.1757812-.0166016-.3398437.0957031-.3916015.265625zm4.9365234 3.2001953c-.8570366 1.3634682-2.2154121 1.3211784-2.1152344 1.2900391-.8280029-.0134277-1.6668701-.621582-2.0599365-1.4819336.2618408-.9824219 1.003418-1.8259277 1.9466553-2.2055664.0577393-.0231934.1027832-.0615234.1407471-.1054688l2.7401123.2333984c-.0634766.7519532-.2119141 1.5683594-.6523438 2.2695313zm-3.3651123-2.6118164c-.4359131.3198242-.8044434.7287598-1.0858154 1.190918-.0113525-.3945313.0369873-.8156738.1520996-1.2705078z"/><path d="m47.0494995 46.0262489c0 .0166016.0009766.0332031.0029297.0498047.0986328.7353516.25 1.5722656.8105469 2.1933594.985157 1.0953255 2.5038147.9828491 3.9326172.6308594 2.703125-.6630859 5.2285156-1.8095703 7.5068359-3.4082031.3613281-.2529297 1.4599609-1.0224609 1.3369141-2.1162109-.046875-.4082031-.2597656-.7548828-.4316406-1.0341797-4.676445-7.5868301-4.2189026-6.8154564-4.484375-7.2841797-1.6620178-2.9716339-2.1575165-.540287-6.5136719-.3037109-1.8577499.0938263-1.5438461 1.0051308-1.7998047 1.8554688-1.0879631 5.3592337-.3603516 7.5014647-.3603516 9.416992zm1.0947266-9.2685547c.1966896-.9825363.1586227-1.040844.4189453-1.1494141.5787888-.2384949 2.0843964.0938225 4.7568359-1.0654297.2509766-.1103516.4814453-.2128906.7070313-.2060547.5453148.0157204.9296494.9254761 1.2363281 1.4238281 4.7620125 7.7164154 4.590435 7.3512268 4.6298828 7.6992188.0498047.4384766-.2841797.9023438-1.0214844 1.4189453-2.2011719 1.5439453-4.6425781 2.6523438-7.2548828 3.2929688-2.8152885.7001762-3.5630302-.276722-3.8173828-2.1708984-.0063934-1.9947472-.7150726-3.9946327.3447266-9.2431641z"/><path d="m64.7141724 29.8621883c1.1242676-.4951172.6193848-3.3334961.6126709-3.3603516-.4238205-1.7338219-2.3028412-1.5086479-2.2451172.3818359.0008545.0268555.213501 2.1760254.8977051 2.824707-.5050964 3.3993702-3.4987831 5.7291355-6.8254395 5.5249004-.4827194-.0595398-.5576591.7145729-.0507813.7480469 3.6861306.2487604 7.0245591-2.3477248 7.610962-6.1191386zm-.8082276-3.5664062c.0537109-.1191406.15625-.2099609.2441406-.2158203h.0107422c.078125 0 .1748047.0556641.2431641.1416016.428215.5301723.3498688 2.7908382.0999756 2.956543-.0073242-.0026855-.0146484-.0053711-.0223389-.0073242-.2935791-.2260742-.6345215-1.8151855-.6499023-2.3105469-.0058594-.1748048-.0019532-.3964845.0742187-.5644532z"/><path d="m47.5426636 30.1424618c-.0540733.4960899.6940041.5687428.7460938.0800781.0732422-.6757813.4072266-1.3203125.9169922-1.7695313.3737297-.3270149-.1246872-.8922024-.4941406-.5625-.6503907.5703126-1.076172 1.3916016-1.1689454 2.2519532z"/><path d="m65.9362183 58.175663c-.8659134 1.1940765-.1215286 2.4039192 1.4003906 2.0234375.8310547-.2041016 1.5839844-.6835938 2.1201172-1.3525391.833374-1.0442276.361824-2.1142883-.9219971-2.1303711-2.6276855-1.5512695-4.7407227-3.9458008-5.9520264-6.7573242-.0692139-.1606445-.2354736-.2407227-.4013672-.215332.4105453-.7499542.9483871-1.6844292 1.1855469-2.4995117.0585938-.1962891.0302734-.4072266-.0761719-.5800781-.2029343-.3288269-.4156952-.27528-1.0253906-.4863281-.1010056-.0395584-.906311-.2743416-1.3642578-.6738281-.2592087-.2329597-.4734077-.4062576-.8056641-.2851563-.0009766 0-.0029297.0009766-.0048828.0009766-.3154335.1182899-4.5332794 3.7753677-11.5546875 4.2167969-.2773438.0166016-.4658203.2675781-.8085938.8613281-.5157089.8897591-.942955 1.7042999-1.1191406 3.0664063-.184391 1.1233177-.0141716 1.3960953 1.2792969 1.3173828.4004211-.0212593.2194901-.0031624.8614502.0126953-.0878906.0297852-.1660156.0898438-.2130127.1777344-.9290771 1.7661133-1.4031982 3.8330078-1.3648682 5.8730469-1.1534767-.1931458-2.9693718.2272186-2.9945068 1.3994141-.0101547.4657516.2861443.9809189 1.1123047 1.2646484.7992859.2759438 1.6926956.2853966 2.5146484.0107422 1.3794365-.4620018 1.449707-1.7776566.1306152-2.4304199-.0831299-1.998291.3552246-4.0380859 1.2658691-5.7678223.0936127-.1777649.0394058-.4215431-.1934814-.5175781 3.7536011.1175613 2.504528.4290314 5.4034424-3.0849609l-.2890625-.2382813.3935547.1123047c1.2247772-1.4835281 1.1222878-1.5123177 1.3945313-1.828125.2796364.2029953 1.0824242 1.1149597 3.2197266 1.9189453.3519325.1328049.9237175.4526176 1.3564453.4082031.1738281-.0117188.3339844-.1074219.453125-.2695313.3433838-.4714355.6563721-.9667969.9542236-1.4709473.0004883.0012207.0002441.0026855.0008545.0041504 1.1702881 2.7133789 3.1418457 5.052002 5.5935059 6.6809082-.6343994.2697753-1.1920166.7453613-1.5505371 1.2390136zm-18.3710938 4.5332031c-.65625.2207031-1.3769531.2158203-2.0332031-.0087891-1.9335938-.6689682 1.2134895-1.9395142 2.4199219-.8095703.3778457.3534699.1033935.6543618-.3867188.8183594zm12.796875-11.46875c-.2644844-.0381584-.7816162-.288002-.96875-.3574219-3.5839081-1.3584862-3.1411171-3.1529312-4.4951172-1.0888672-.2610359.3997116-2.0578918 2.5041618-2.7519531 3.5185547-.438427.6351585-.5814934.7372894-1.5175781.703125-.0366783-.0014076-2.4486427-.0947266-2.4853516-.0947266-.1911659 0-.6117744.039814-.8554688.0263672.0029297-.1064453.0292969-.265625.0419922-.3447266.0276146-.139431.0881958-.9667854.5341797-1.9765625.2146873-.4842529.7079468-1.3000145.8261719-1.4482422 3.989975-.2681084 8.0498619-1.6336517 11.5976563-4.2138672.1154175.0952187.521862.5215187 1.5458984.8574219.3333664.1226311.6194916.2338181.8134766.2119141-.2796746.9638825-1.4567337 3.0607262-2.2851563 4.2070313zm8.390625 6.2402344c.5114059.0913239.4413452.4934921.1181641.8974609-.4326172.5400391-1.0410156.9287109-1.7138672 1.0927734-1.9794693.5017091-.056633-2.2852935 1.5957031-1.9902343z"/><path d="m23.9703999 58.0643349c1.7344379 0 3.1483326-1.0472565 4.3719482-2.2575684.3746147.904747 1.1363888 2.1068573 1.9815674 1.6149902.8670559-.5026398.1810188-2.2326202-.4169922-2.96875-.7287407-.8984451-1.8753605-.7281609-1.7756348.5019531-1.3036423 1.3333588-2.940546 2.7197418-4.8181152 2.2871094-1.3271484-.3085938-2.2998047-1.7080078-2.1230469-3.0556641.0057373-.0454102.0003662-.0891113-.0093994-.1311035.5693359-.0344238 1.1442871-.0756836 1.706665-.1628418.3828125-.0615234.7001953-.2841797.8662109-.6064453.2237339-.4144974.1011562-.8486862.0683594-1.0449219-1.540863-8.8201065 1.4443913-12.7670097-.3310547-14.4052734-.6202412-.5644569-1.0317974-.5213127-7.2490234-1.6689453-2.7701597-.5392265-4.1585817.1204033-4.8798838 3.4199219-.4501953 2.0380859-.7988281 4.0400391-1.0351563 5.9492188-.0599461.4841881.6817856.5978394.7441406.0917969.2333984-1.8857422.578125-3.8642578 1.0234375-5.8798828.6511765-2.9730988 1.7367868-3.2925682 4.0078135-2.84375 6.1341038 1.1459541 6.4450836 1.0870056 6.8828125 1.484375 1.3434143 1.2427864-1.4618702 5.0503273.0966797 13.9716797.1470737.9321327.1811638.8228989-3.5126953 1.0478516-2.4649296.198597-5.0833702-.0112-7.2705088-.4404297-1.2783203-.2490234-1.6826172-.6337891-1.7265625-1.6445313-.0584888-1.4099998.1506872-2.9405556.3310547-4.3652344.0605249-.4911804-.6826181-.5906601-.7441406-.09375-.1871424 1.4781036-.3971186 3.0213737-.3369141 4.4912109.0703125 1.5859375.9833984 2.0859375 2.3330078 2.3486328 3.7927275.7434731 6.4695826.5315857 8.2906504.3984375-.2346248 1.8628922 1.2619134 3.9619141 3.5247804 3.9619141zm4.9228515-3.4277344c.0800781-.0234375.2871094.1113281.4316406.2890625.5347195.6577415.7681122 1.7665215.6220703 1.8476563-.1726952.1412964-.9325943-1.0433083-1.0703125-1.75-.0449218-.2285157-.0166015-.3417969.0166016-.3867188z"/><path d="m18.0131245 58.0675087c-1.4068966.9673119-3.8298349-.10886-3.8298349-3.630127 0-.4960136-.75-.4963112-.75 0 0 3.8720512 2.6247759 5.2877274 4.5280771 4.5083008.0583382.9407158.3619118 2.2527428 1.2873535 2.0805664.9867344-.1736832.9465599-2.0324936.6425781-2.9296875-.4038487-1.1761169-1.6107292-1.294815-1.8781738-.0290527zm1.2551269 1.8884277c-.2509212 1.3116341-.8767891-1.7314873-.390625-2.0390625.0595703.0097656.2246094.1904297.3027344.421875.1621094.4736328.1923828 1.0478516.0878906 1.6171875z"/><path d="m13.2974253 31.7506161c-.0368652-.2824707.175293-.7287598.4123535-1.1428223.06604.637207.199707 1.2492676.4061279 1.8295879 1.7109623 4.7924995 7.36588 5.6934891 10.4520273 1.722168 2.1312752.8342628 2.877327-1.7941818 1.2319336-2.3327618.0621338-.1901855.0917969-.395752.140625-.5925293.0162354.1816406.0234375.3640137.0131836.5463867 1.3240147-2.6596794.8487892-6.3168907-1.7642822-8.4882813.7254639-.4697266 1.348877-1.0786133 1.75354-1.746582 1.0345879-1.7073689.1098709-3.3330402-1.3574219-3.4267578-.7568359-.0483398-1.5219727.3984375-1.8515625 1.081543-.130764-2.1882687-1.9831543-3.3872623-3.4642334-2.7243652-.788208.3525391-1.2856445 1.3168945-1.0092773 2.1350098-.6629639-.4421387-1.3455811-.8928223-2.1231689-1.0671387-.7775888-.1743164-1.6829844-.0134277-2.1894541.6018066-.5063477.6152344-.387207 1.7128906.3398438 2.0393066-.9172363-.2070313-1.932251.5151367-2.0375977 1.4494629-.1052246.9343262.7237549 1.8642578 1.6640625 1.8664551-.4348145.1887207-.4829102.8596191-.1546631 1.2016602.0449219.0466309.102417.0744629.1549072.1101074-1.1806955 2.0756531-.9327049 4.5237465-.6169433 6.9377442zm11.6921396 1.7617168c.1943359-.3132324.364624-.6416016.5148926-.9870605.7128944.1293754.5832062 1.3164901-.5148926.9870605zm-6.3590088 2.2834473c-1.6679688-.3828125-3.1621103-1.8007813-3.8076181-3.6103516-.2987061-.836668-.4266357-1.7521954-.4007568-2.7226543.9169827-1.4406776 2.0883245-2.6538334 3.6385508-3.6086426.1955566-.1206055.7183838-.5432129.9481201-.5219727.359375.0334473.2038574.7578125.2502441 1.0664063.227417 1.5120983 1.3264294 2.660635 2.6848145 3.0378418-.809082-1.2277832-.7990723-2.9428711.0245361-4.1611328-.2896729.6809082.1138916 1.4770508.6717529 1.9628906.9300079.8105774 2.0108471.9598198 2.8120117 2.4125977-.2536984 4.2205944-3.6333142 6.8687038-6.8216553 6.1450176z"/><path d="m35.4743042 37.5877724c.0147705-.0175781.0206299-.0390625.0317383-.0583496.0040283.0002441.0081787.001709.012207.001709.2453537 0 .4744377-.0379524 1.3076172-.7011719 2.7825928-2.1173897-.3255615-4.3622208-1.7695313-2.3691406-.5704079.7866516-.6096001 2.0673561-.2005615 2.6904297-2.4177246 2.8359375-6.3518047 4.2915039-10.0289288 3.7177734-.4811211-.0949287-.6145344.6617088-.1171875.7402344 3.8970166.6163673 8.147379-.9106522 10.7646466-4.0214844zm.1894531-2.6855469c0-.0009766 0-.0009766 0-.0009766.8002052-1.1012306 2.5538063-.0689659.7089844 1.3310547-.1519737.1211395-.7179756.5925522-.8603516.5488281 0 0-.0341797-.0224609-.0761719-.1279297-.2021484-.5136718-.1005859-1.2998046.2275391-1.7509765z"/><path d="m5.21454 24.2108212c-.1728516.5097656-.0556641 1.0351563.0478516 1.3876953.005249.0158691.4460449 1.4448242.9807129 1.9423828.2781982 3.9033203 2.0913081 7.6259747 5.0046382 10.2353497.362565.3278008.8718996-.2267075.5-.5585938-2.7427979-2.4570313-4.4558101-5.9531231-4.7459712-9.6259747.2009277-.1877441.3114014-.5654297.4315186-1.2080078l.0175781-.0947266c.2359562-1.1585732.2460675-2.7329407-.9238281-2.9414063-.6083985-.1093749-1.1396485.3564454-1.3125001.8632814zm1.3652344 2.5722656c-.2158203-.3623047-.4941406-1.0419922-.5966797-1.3955078 0 0-.0009766 0-.0009766-.0009766-.1181641-.4033203-.1367188-.7001953-.0576172-.9335938.0674973-.1969452.2720599-.3958454.4726563-.3671875.6994395.125103.3665528 2.0048008.1826172 2.6972657z"/><path d="m18.0376606 29.7589169c.0007324-.3764648-.3037109-.6821289-.6801758-.6828613-.3764648-.0009766-.6821289.3037109-.6828613.6801758s.3037109.6821289.6801758.6828613.6821289-.303711.6828613-.6801758z"/><path d="m22.8989887 29.9412899c-.3764648-.0007324-.6821289.3039551-.6828613.6801758-.0007324.3764648.3037109.682373.6801758.6831055s.6821289-.3037109.6828613-.6801758c.0008545-.3764649-.3037109-.6821289-.6801758-.6831055z"/><path d="m21.3776264 32.503788c-.9379101.8267021-2.4148026.5748596-3.0224609-.5244122-.1670456-.3055172-.6148472-.2341766-.6933594.0947247-.1572266.6689453-.2587891 1.5273438.3554688 2.234375.5757065.6654129 1.5650864.9466591 2.3681641.6240234.7641182-.3088989 1.1978989-.9985275 1.484375-1.7460938l.1025391-.2578125c.0664063-.1611328.0136719-.3476563-.1289063-.4492188-.1425782-.0996092-.3359376-.0927733-.4658204.0244142zm-3.0830078.5722656c.6822586.5924911 1.6138649.8203316 2.5117188.5673828-.1523438.2128907-2.4529362.5010949-2.5117188-.5673828z"/><path d="m38.4655151 34.6854286c.0111084.0864258.0523682.1640625.1130371.2216797.5211182 1.3308105 1.6203613 2.5151367 3.1398926 3.3554688 1.6258621.901268 4.458374 1.6083984 4.6220703 1.6083984.4397583 0 .5171165-.627018.0947266-.7382813-2.8696404-.7462196-6.157402-1.6888885-7.2039795-4.6171875.1076393-.9233894.5134583-1.8520851.1600342-2.8085918-.2333984-.6308594-.7890625-1.0693359-1.3818359-1.0898438-.7119141.0097656-1.4042969.6005859-1.4951172 1.3935528-.1263161 1.0907822.6591606 1.9265404 1.6083984 2.4980469.0498047.0302734.2778854.1329956.3427734.1767578zm-1.2070312-2.5888672c.0410156-.3486309.3505859-.7304668.7089844-.7304668.0048828 0 .0107422.0009766.0166016.0009766.2871094.0097656.5771484.2568359.7041016.5996094.215332.584734.0045738 1.3120975-.1191406 1.9306622-.1799049-.0899506-.5596657-.3432121-.8066406-.5927734-.3603517-.3652345-.5488283-.8164064-.5039064-1.208008z"/><path d="m56.1569214 16.9442196c.3535156-.7871094 1.0908203-1.4091806 1.9267578-1.625001.478344-.1236687.2953987-.8484583-.1875-.7265625-1.0664063.2753906-1.9726563 1.0400391-2.4228516 2.0449228-.2060165.4570256.4852372.7568761.6835938.3066407z"/><path d="m13.7584848 50.9520302c.2070313-2.2509766 1.0263672-4.4013672 2.3691416-6.21875.1230469-.1660156.0878906-.4013672-.0791016-.5244141-.16504-.1230469-.4013681-.0888672-.524415.0791016-1.4238281 1.9277344-2.2919922 4.2080078-2.5117188 6.5957031-.0467958.4937019.701479.5616074.7460938.0683594z"/><path d="m18.3815327 51.425663c.2041016 0 .3720703-.1640625.375-.3691406.0273438-1.6992188.3193359-3.3798828.8662109-4.9960938.1585979-.4687958-.5510483-.7128487-.7109375-.2402344-.5712891 1.6894531-.8759766 3.4472656-.9052734 5.2246094-.0029297.2070313.1621094.3769531.3691406.3808594z"/><path d="m49.604187 40.5301552c1.03125-.1650391 2.0498047-.5380859 2.9462891-1.0771484.4225197-.2530479.0423279-.8985825-.3867188-.6425781-.8154297.4902344-1.7412109.8291016-2.6787109.9794922-.4833756.0763244-.3799439.8115348.1191406.7402343z"/><path d="m41.3942261 20.6082821 1.5400391-4.0244141c.1231842-.3255501-.2228355-.6224689-.5214844-.4677734-4.9899445 2.547123-4.9219856 2.5692654-5.1279297 2.5224609-.1494141-.0380859-.2695313-.2626953-.3574219-.6669922-.3466797-1.6005859-.5625-3.243165-.6396484-4.8818369-.0200844-.390521-.542099-.4882784-.7109375-.1484375l-2.328125 4.6943369-3.2382793-2.399415c-.2813873-.2062073-.666729.0483427-.5888672.3857422l.9335938 4.0507822c.1136894.4902897.8420029.3106976.7304688-.1679688l-.7050781-3.0605469c2.8800297 2.075882 2.7858067 2.1980228 3.0927715 2.1240234.3129234-.0739632.1639862-.1364231 2.1621094-4.0585947.1142578 1.2177734.3017578 2.430665.5595703 3.6201181.240696 1.1204815.8589821 1.5704117 1.9277344 1.0253906l3.7607422-1.9257813-1.1904297 3.1113281c-.1757624.4640143.5226286.7305854.7011717.2675784z"/><path d="m47.0280151 20.5252743c-.4072571.2832069.0234871.9001808.4296875.6152344.8300781-.5810547 1.8808594-.8310547 2.8847656-.6835938.4910889.0730915.5982208-.6720753.1074219-.7421875-1.1923828-.171875-2.4355468.1240234-3.421875.8105469z"/></g></svg>