<svg id="Layer_1" enable-background="new 0 0 75 75" viewBox="0 0 75 75" xmlns="http://www.w3.org/2000/svg"><g id="Hockey_Game" fill="rgb(0,0,0)"><path d="m34.8676224 47.7743912c-2.9787693 1.0749168-5.9768867 1.3785782-8.8310566 1.0537109-2.7582664-.3096466-4.1533775-1.3550797-4.3203125-5.2724609-.0092773-.1787109-.0185547-.3496094-.0092773-.5292969.025032-.4824104-.7222996-.5540695-.7490234-.0390625-.0107422.2060547-.0009766.4023438.0102539.6191406.0654297 1.5458984.3383789 3.7402344 1.9404297 4.9541016 1.9505615 1.4942703 6.6210899 1.245121 9.0366211.7910156 1.0468769-.1953125 2.1157246-.4882813 3.1811543-.8730469 1.9300346-.7199631 2.1953239-1.5523224 2.0566406-3.0039063-.418457-4.3925781-1.1157227-8.7871094-2.0732422-13.0654297-.1459961-.6269512-.4174805-1.79492-1.3979492-2.1738262-1.5257607-.5896378-2.7668304 1.3432693-6.5903339 1.2158203-1.0722504-.0323715-1.8008633-.2476215-2.0302734-.2929688-.5276279-.1794662-1.2327385-.5479813-1.7548828-.0712891-.479044.4263954-.6536522 1.4681454-.8344727 1.9804668-.8548374 2.4124298-1.4482536 5.3480797-1.5546875 8.4033203-.0160713.4867477.7319107.5367279.75.0253906.1549606-4.4770775 1.25774-7.2363358 1.6567383-8.6591797.6291599-2.2453461.3064804-.7411919 3.7431641-.6357422 4.0141869.1294212 5.2220745-1.693964 6.3168964-1.2753887.0058594.0019531.012207.0039063.0185547.0058594.0846977.1000214.5641899.0012875.9462891 1.6445293.9501953 4.2441406 1.6420898 8.6083984 2.0576172 12.9697266.1052205 1.1014292.0489652 1.6242259-1.5688479 2.2285159z"/><path d="m29.1381283 54.397438.0219727.0126953c.5314808.0682144.4096832.3460503.9697266 4.1181641.0214844.1445313.1240234.2626953.2631836.3046875 1.8991566.5698929 4.0061092.7412186 6.0942402.4150391.4609375-.0634766 1.1171875-.2070313 1.4956055-.7167969.5176201-.7279701.2877121-1.5407982-.4516602-5.7714844-.7618256-4.3608971-.6181374-4.2441254-.8857422-4.3779297-.1098633-.0546875-.2382813-.0517578-.3457031.0058594-4.0576172 2.1914063-8.9257832 2.6992188-13.3510761 1.3945313-.2358398-.0732422-.284668-.1298828-.4296875-.2988281-.1929016-.2241821-.3652439-.4688377-.6445313-.3798828-.1318359.0410156-.2294922.1513672-.2553711.2871094-.1264648.6611328-.2285156 1.3798828-.3125 2.1982422-.050602.4966087.6967354.5628738.7460938.0761719.0522461-.5068359.1108398-.9736328.1787109-1.4111328.1186523.0917969.2724609.1757813.4995117.2460938 4.4482422 1.3125 9.3217793.8671875 13.4555683-1.2080078.9998207 6.396801 1.6013641 8.2198601 1.1899414 8.7988281-.2055664.2763672-.6650391.3691406-.9985352.4160156-1.8422852.2861328-3.753418.1738281-5.5410175-.3261719-.4761009-3.2389374-.4139481-3.6624947-.8554688-4.1640625-.5335102-.5824547-1.4660206-.3802032-1.5581055.1220703-.1334343.7255249-.6581039 3.6496887-.6762695 3.7509766-1.8237305-.5986328-3.7597656-.7666016-5.6469727-.4960938-.1822567-1.5649986-.218895-3.1306992-.1416016-4.5146484.0267487-.472538-.7189636-.5740013-.7490234-.0429688-.0887585 1.5745277-.0309296 3.3150101.1938477 5.0390625.0288162.2140617.2279472.3566666.4379883.3203125 2.0249023-.3603516 4.1240234-.1708984 6.0673828.5449219.220993.0813103.4572506-.0579872.4990234-.2841797.0183049-.1021043.6156273-3.4315072.7304688-4.0585939z"/><path d="m25.2792416 58.6640396c-.2060547 0-.3740234.1660156-.375.3730469l-.0437012 7.4901123c-.5395699.1009369-1.0615406.2078629-1.416748.4923096-.7010059.5625534-.6840382 1.6665726.6401367 2.0712891 1.319273.4022827 4.018816.5523453 4.4716797-.7128906.2021484-.5654297-.1010742-1.1308594-.4677734-1.4169922-.6641846-.5181885-1.5862427-.614502-2.4766846-.5374756l.0430908-7.3824463c.0009765-.2080079-.1831055-.3378907-.375-.3769532zm2.3471679 8.8886719c.1645508.1279297.2929688.3779297.2231445.5722656-.0639648.1796875-.2890625.3095703-.6674805.3867188-.9555664.1914063-1.9521484.1445313-2.8789063-.1376953-.8050632-.2458572-.7596684-.7606583.1376953-.9892578 1.0239259-.2597657 2.4062502-.4404298 3.185547.1679687z"/><path d="m35.8749466 69.2314224c1.9583015-.4095001 1.7652626-2.677803-.8777466-2.8166504l-.6002808-6.6520996c-.0461617-.5126419-.790287-.4138412-.7470703.0683594l.5949097 6.5930176c-.587616.0490646-1.7652397.2331848-2.2506733.6188965-.3173828.2519531-.496582.6318359-.4667969.9921875.1133194 1.398529 2.9703007 1.4820709 4.3476582 1.196289zm-3.4145508-1.6005859c.4155731-.3300552 2.7700272-.8377075 3.7353516-.0908203.3872452.299881.3680305.779953-.4736328.9570313-.9658203.1982422-1.9663086.1611328-2.8925781-.1113281-.6436272-.1917192-.6771775-.5114976-.3691407-.7548829z"/><path d="m20.5228939 35.5312271c.3780899.3088608.8605061-.2660942.4726563-.5820313-6.5198965-5.2963848-9.5709219-14.310667-7.6310415-22.4794922.1033478-.0335703.8298626.090065 1.7033081-1.1025391 1.2634821-1.7289743.3674402-3.7520394-1.2167969-3.8476563-.7202148-.0380859-1.4594727.390625-1.8427734 1.0820313-.6805086 1.2295799-.1927977 3.0735683.6383057 3.637207-2.032715 8.4584981 1.1221923 17.8063985 7.8763417 23.2924806zm-6.7177725-27.2636709c.9995956.0616055 1.5590048 1.425066.6572266 2.65625-.8788357 1.2001076-1.6730299 1.020834-1.9682617-.4326172 0-.0009766 0-.0009766 0-.0009766-.2847081-1.3926954.5119362-2.265851 1.3110351-2.2226562z"/><path d="m31.427618 21.9419956c-.4546509.0548096-.7650757.5805664-.6934204 1.1740723.0716553.5936279.49823 1.0301514.9528809.9753418.4546528-.0548096.7650776-.5805664.6934223-1.1740723-.0716553-.5936279-.4982929-1.0301513-.9528828-.9753418z"/><path d="m26.7003841 23.4018345c-.0198975-.5976563-.4070435-1.0695801-.8646851-1.0544434-.4577026.0153809-.812561.512085-.7926636 1.1096191.0198975.5974121.4070435 1.0695801.8646851 1.0541992.4577027-.0151366.8125611-.5119628.7926636-1.1093749z"/><path d="m30.9906673 25.8202915c-.1000252.0272732-2.2840233 1.3073978-4.9995117.3935547-.1586914-.0527344-.3349609.0048828-.4291992.1445313-.0947266.1386719-.0854492.3232422.0224609.4521484 2.1381474 2.5467091 6.1878643 2.2791672 6.7099628-.3164063.0292969-.1455078.1176758-.5859375-.1958008-.8232422-.3310565-.2480468-.7612323-.0273437-1.107912.1494141zm-3.7426757 1.4277344c2.3345718.2442322 3.9854355-.7284145 4.0854492-.7607422.0581055-.0292969.1401367-.0712891.2182617-.1074219-.3031349 1.3476391-2.2947102 2.0625897-4.3037109.8681641z"/><path d="m36.3178177 19.7431431 1.6826172.6357422c.3104095.1118793.5981369-.1905842.480957-.4882813-1.7670898-4.5058603-6.6284199-7.6796885-11.5239277-7.5029306-.2070313.0068359-.3691406.1796875-.362793.3867188.0068359.2070313.1621094.3886719.387207.3632813 4.2895508-.1455078 8.5566425 2.4365234 10.4433613 6.2216806l-1.4248047-.5380859c-.2683678-.1001053-.538456.1232376-.503418.3994141l.15625 1.2548828c-1.3012695-.8330078-2.6005859-1.6708984-3.8945332-2.5068359-.2569695-.1648903-.5838337.025713-.5786133.3222656.0063477.3134766.0151367.6269531.0249023.9414063-.6157227-.3730469-1.2353516-.7460938-1.8554688-1.1142578-.208952-.1257782-.4879227-.0176582-.5537109.2246094-.2094955.8060989-.2747746 1.0575466-.347168 1.3183594-.4624023-.4414063-.8925781-.6523438-1.3266602-.6552734-.003418 0-.0063477 0-.0097656 0-.9157276 0-1.5824947.9304066-2.40625 1.8837891-.3857803-.3026276-.5125618-.5732841-.8022461-.5224609-.7290039.1289063-1.4174805.46875-1.9912109.9824219-.2148438.1923828-.3740234.4375-.5117188.6689453-.3577728-.7075062-1.170517-.9397812-1.8583984-.6142578-.2607422-1.8730469.234375-4.5253906 1.9829102-5.3349609.266964-.1219206.2942581-.494318.0454102-.6552744-.3549805-.2285156-.7099609-.4580078-1.0649414-.6875l1.0932617.1064453c.2468224.0174742.4203472-.1742659.4106445-.3896484l-.0615234-1.4833984c1.1408482.7613506 2.3858452.5185385 3.7285156.3037109.4854965-.0764742.3835754-.8116522-.1142578-.7421875-.701931.1149035-1.3974495.2488756-2.0185547.1982422-.6132813-.0458984-1.375-.3154297-1.6757813-.9316406-.1752243-.3636732-.729269-.2253075-.7114258.1806641l.0859375 2.0761719-2.1914063-.2128906c-.3906994-.0388536-.5676174.4747992-.2412109.6865234.6142578.4023438 1.2294922.7998047 1.8442383 1.1972656-1.8579102 1.3496103-2.2241211 4.4970713-1.7236328 6.4677744.0812473.3227863.502449.3747692.6757813.1142578.1357422-.2038574.4072876-.3078613.6530762-.2775879-.7398682.4042969-1.2012939 1.2757568-1.0769043 2.1184082.1963253 1.331171 1.6982422 1.9615612 2.1544189 1.7081299.2409821.7515125.436697 1.3861542.8109131 1.9832764 3.0137196 4.6880054 9.3402843 3.9431648 12.8154316-.2841797.703804-.8594933 1.0178413-1.8051872 1.2702637-2.8937988 2.9304504-.9627972 2.1063004-4.0641251.2310181-3.7945557-.0093994-.0350342-.010437-.0750732-.0211182-.1091309zm-16.3930683 4.2861328c-.0725708-.4909668.1900024-.9996338.6003418-1.2773438.1141968.9387207.2940674 1.7084961.5634155 2.3769531-.5668335-.0645751-1.0805664-.5336913-1.1637573-1.0996093zm14.4589863 3.0400391c-3.6990032 4.5001202-10.4671612 4.4629631-12.2426777-1.1923828-.3937817-1.2488556-.5602779-1.343298-.7745972-2.5639648.087532-.1003685.1850662-.0676575.6100464-.7944336.1391602-.2373047.2709961-.4619141.4360352-.6103516.4233398-.3789063.9208984-.6416016 1.4482422-.7666016.6053219.5130596.6787548.682354.8994141.6533203.2141819-.0105515.2858925-.1454525.7973633-.7480469.6108398-.7207031 1.0942383-1.2910156 1.5546875-1.2910156.1159019.0470047.4221706-.0836334 1.2148438.8798828.1836071.2261353.5521889.1619587.6455078-.1201172.1650791-.4967766.2929974-.9991512.421875-1.4980469 2.1446629 1.2827587 2.1333141 1.3775558 2.3974609 1.2197266.2575665-.1520061.1831913-.3502274.1557617-1.2539063 1.2868061.8311768 2.5788593 1.6621094 3.8714008 2.4880371.1110877 1.1045933-.2328873 4.1315861-1.4353638 5.5979005zm2.9609375-4.9882813c.1396484.3515625.0415039.8232422-.2436523 1.1728516-.1646729.2015381-.4042969.3608398-.6781006.4997559.0965042-.6839352.1935158-1.4203262.1549683-2.1434326.2921752-.0391847.6437377.1605224.7667846.4708251z"/><path d="m30.9174252 16.5898228c.3533325.3414745.8781223-.1927624.5224609-.5390625-.8754883-.8486338-1.9663086-1.4384775-3.1542969-1.7041025-.4894218-.1032829-.6449451.6232357-.1640625.7324219 1.038086.2314452 2.03125.7685546 2.7958985 1.5107431z"/><path d="m10.6508245 47.694313c-.203125.0390625-.3364258.2353516-.2973633.4384766.0385742.203125.2338867.3388672.4389648.2978516 3.0893106-.5925179 5.1829481.1123047 5.456542.1123047.4411564 0 .5181541-.6393127.0839844-.7402344-1.8530263-.428711-3.81787-.4648438-5.6821279-.1083985z"/><path d="m10.1547308 43.2988052c-.0219727.2060547.1269531.390625.3325195.4130859 4.6420298.4995956 4.002449.4404297 4.105957.4404297.47019 0 .5081053-.6969032.0400391-.7480469l-4.0649414-.4384766c-.2104492-.0205077-.3911133.1259767-.4135742.3330079z"/><path d="m17.3314877 43.0986099c-1.5073233-.4277344-2.8832998-1.3330078-3.8740225-2.5478516-.1313477-.1611328-.3681641-.1835938-.5273438-.0537109-.1606445.1308594-.1845703.3671875-.0537109.5283203 1.0869141 1.3330078 2.5961914 2.3251953 4.249999 2.7939453.4773903.1363984.6824856-.5873107.2050782-.7207031z"/><path d="m67.7334671 29.6772251c-1.75-.6801758-3.3900146.3398438-5.1300049.5098877-1.8999634.1900635-3.3999634-1.289917-4.5799561-2.5899658-2.333313-2.5935059-4.3205566-5.3937988-6.2437134-8.2709961.0862961-.099575.0945816-.0739174.1869507-.2119141.0004883-.0009766.0009766-.0019531.0014648-.0019531.7290611-1.120575.000721-2.9169464-.9106445-3.5634775-.6695557-.463623-1.4033813.0070801-1.6565552.1726074-.150341-.2260685-2.0514641-3.1751442-3.897522-5.8041992-.1099854-.3200684-.4799805-.6800537-.6799927-.9700928-1.5188293-2.2478371-1.7159271-2.5360398-2.210022-2.8900146-.5307693-.3827267-1.3289032-.5948229-1.9899902-.2900391-1.2399902.6101074-.0100098 2.1700439.4299927 2.9400635 2.6192131 4.4575272 4.0564346 6.8731728 7.4235229 11.7615976-3.0255737 5.2246094-7.2242432 9.7388916-12.2119141 13.0771465-.4128113.2759895.0055084.8994637.4169922.6230469 4.9876709-3.3380108 9.1989746-7.8310528 12.2684326-13.027586 1.4458618 2.0738525 2.9396973 4.1313477 4.4829712 6.1557617 2.2399902 2.9200439 4.8400269 5.959959 8.7200317 7.2700176 2.2282639.7318382 5.0761032.8534698 6.6399536-.8499756 1.3661273-1.3655509.6161731-3.3896007-1.0599973-4.039915zm-17.3092041-13.5766601c.5542488 0 1.4824753 1.733036.9150391 2.6015625l.0024414.0019531c-.1613808.1216965-.1001167.2887821-1.0458984.703125-.9083519.4205647-1.0381851.1522331-1.2758789-.3837891-.4784622-1.1573772-.5122604-1.7991791.7875977-2.671875.2944335-.1914062.4853514-.2509765.6166991-.2509765zm15.0592041 16.3865947c-1.1699829-.0100098-2.3399658-.3299561-3.289978-.880003-.4240456-.2594013-.054409-.8913174.3800049-.6500244.8399658.4899902 1.8800049.7700195 2.9099731.7800293.5015335 0 .499382.7499981 0 .7499981z"/><path d="m11.7135077 68.2371597c2.7999878 0 5.169982-1.8399658 5.9400015-4.3800049-.1555729 0-.2693844-.0690689-.3400269-.1799316-.4700317-.7401123-1.4000235-1.2200928-2.5499868-1.3200684-2.1495609-.1771851-4.4639053.9165497-6.6799927.0999756-1-.3599854-2.0300293-1.25-2.210022-2.460083-1.4574947 3.9484329 1.5087438 8.2401123 5.8400269 8.2401123z"/><path d="m6.1934881 59.3171158c.210022-.0100098.3900146.1600342.3900146.3601074.0499878 1.0098877.9400024 1.7799072 1.75 2.079834.9899902.3500977 2.1300049.2700195 3.1099854.1401367.4003.0256157 4.6607389-1.215786 6.3800039 1.2199707.7238579-3.5164108-2.1061058-7.2199707-6.1099844-7.2199707-2.4400024 0-4.5500488 1.3898926-5.5599976 3.4299316.0099488-.0100097.0299684-.0100097.0399781-.0100097z"/></g></svg>