<svg id="Layer_1" enable-background="new 0 0 75 75" viewBox="0 0 75 75" xmlns="http://www.w3.org/2000/svg"><g id="Blowing_Bubbles" fill="rgb(0,0,0)"><path d="m63.1294289 18.3171806c-2.9467964-1.2210217-3.503727-5.2073994-4.3789063-7.8154306-2.7890472-8.1231022-10.9873505-6.0295992-11.1472168-.4086914-.6635818-.0993652-1.3625298-.170825-2.4709473-.0131836-.4927597.0703945-.3839569.814436.1054688.7421875 5.517868-.7780466 9.8716393 4.4087048 7.8261719 9.7089853-.3067589-1.281496-1.3731689-1.5412827-2.6640625-1.6904297-1.9204216-.2245426-2.0114098-.3629494-2.0712891-2.1845703-.0078125-.2314453-.015625-.4453125-.0341797-.6220703-.0345802-.3349705-.4619141-.4555225-.6669922-.1933603-.7469063.938859-1.154007 1.450635-1.4511719 1.8300791-.8457031-.6962891-2.0537109-.9404297-3.109375-.6308594-.0854683-1.768362.1075401-2.1036282-.2255859-2.2880869-.5050201-.2709856-1.2113609.8405199-1.5166016 1.3310556-1.0785637 1.7313786-1.0371857.9200363-2.8789063 1.2011719.2158203-3.2607431 3.0400391-5.5039072 5.7167969-6.2412119.4825401-.1324625.2721939-.8589964-.1992188-.7226563-3.105835.8554688-6.3924561 3.5869141-6.2769775 7.5649424 0 .0004883-.0003662.0009766-.0003662.0014648v.0097656c.0004845.0018215-.001545-.002037.0030518.0151367.0085449.1992188.1704102.3549805.3719482.3549805.1001511 0 .2236328-.0699673.2679443-.1166992-.1827393.9072266-.3435059 1.7648926-.4720459 2.5708008-.1757813 1.0214844-.3935547 2.2919922-.1054688 3.5107422.4980469 2.0839844 2.4960938 3.7832031 4.8603516 4.1337891 3.8192177.550415 8.3623314-2.248518 9.8902588-5.6450195.1147461-.0004883.2282715-.0537109.3011475-.152832 1.5394287-2.0981445 1.9200439-4.907959 1.0587158-7.333375.1618652.065918.3190918.178833.4451904.3284912.5642471.6872587 1.1924667 3.3990088 4.3251953 4.2050791 1.542305.3955479 3.2498856.1047764 4.5654297-.7939453.2433511-.1657315.2080575-.5414315-.0683592-.6562501zm-20.4091797 9.3056641c-2.0673828-.3056641-3.8105469-1.7724609-4.2392578-3.5644531-.2529297-1.0693359-.0488281-2.2568359.1152344-3.2148438.1434326-.8927002.3201904-1.8372803.5301514-2.8565674 1.337883-.0349083 1.7447777.2429752 2.835083-1.5076904.1123047-.1806641.2216797-.3574219.3378906-.5185556.0740166 1.4385118-.0991364 1.7593374.2070313 1.94629.1113281.0664063.2490234.0712891.3642578.0126953.9990234-.5087891 2.3193359-.2705078 3.0683594.5595703.155941.1701183.427887.1645622.5742188-.0214844.3574219-.4589844.71875-.9140625 1.0810547-1.3701172.0994072 1.9446602.6787643 2.2593498 2.71875 2.4980469.986412.1168118 1.8094711.2240086 2.0227051 1.1384277-.6050532 4.1018544-5.7426912 7.457943-9.6154787 6.8986817zm12.7724609-11.4804688c-.1669922-.3603525-.3398438-.7324228-.609375-1.0595713-.3024902-.3605957-.8131104-.6481934-1.348999-.6430664-1.0124512-2.0864258-2.9537354-3.6378174-5.1873779-4.2041016-.005249-1.6477051.9863281-3.2608643 2.4689941-3.9624023 1.3632813-.6435547 3.0664063-.4990234 4.3369141.3691406 4.4531898 3.0685587 2.5685539 9.3225403 7.0527344 12.0439463-2.2918053 1.1286049-5.3436013.4154854-6.7128907-2.5439453z"/><path d="m40.8016701 19.0570488c-.4104004.0654297-.6901855.4512939-.6247559.8616943s.4511719.6901855.8616943.6247559c.4105225-.0653076.6901855-.4511719.6248779-.8615723-.0654296-.4105224-.4512939-.6901855-.8618163-.6248779z"/><path d="m45.5179787 19.4491386c-.4104004.0654297-.6901855.4512939-.6247559.8616943s.4511719.6901855.8615723.6247559c.4105225-.0653076.6901855-.4511719.6248779-.8615723-.0654297-.4105224-.4511719-.6901855-.8616943-.6248779z"/><path d="m51.1959572 50.763958c-.0600586-.8599854.2099609-2.5300293-.5800781-3-.8399658-.5-2.1799316-.1398926-3.0600586.0200195-7.1890602 1.2792435-9.7277794-1.972393-9.9599609 1.3900146-.1803055 2.4723206-.7074318 5.6002121-.8399658 7.3199463 2.7600098-.0699463 5.5300293-.1398926 8.289917-.2099609.0100098-.0400391.0200195-.0899658.0300293-.1300049-.1298828-.0599365-.1999512-.2000732-.1899414-.3599854l.3800049-3.2800293c.0200195-.1999512.2000732-.3399658.4100342-.3299561.2099609.0299072.3499756.2099609.3299561.4200439l-.2999268 2.6599121c1.2279739.0567398 3.8554077.027607 5.8299561.3200684-.038479-.5727156-.2526323-3.6007994-.339966-4.8200682z"/><path d="m40.9018898 56.9626884-.5535889 9.6276817c-.0627441-.0289307-.1177979-.0632324-.1856689-.088623 0-.0009766-.0009766-.0009766-.0009766-.0009766-1.1985245-.4452362-2.5436478-.4463959-3.7011719.1767578-1.4605751.7870865-.705616 3.1982422 2.0302734 3.1982422 1.772274 0 3.6930389-1.4094238 2.5777588-2.7561035l.5814209-10.1140099c.0290299-.4734382-.7206649-.5707091-.7480468-.0429687zm-3.1796875 12.0712853c-1.2708435-.2988586-1.5296173-1.3609924-.9052734-1.6962891 1.5392609-.8326111 3.6281967-.2116013 3.8095703.4853516.1675186.6448288-1.3168869 1.5895157-2.9042969 1.2109375z"/><path d="m48.7828712 66.4283829.1278076-10.0194054c.0070305-.4967918-.7428436-.5108147-.75-.0097656l-.1218262 9.5473595c-.5038948-.2080841-.9971886-.3113251-1.4719238-.3442383-.8183594-.0605469-1.6289063.109375-2.3144531.4804688-1.4571648.7852554-.7101631 3.1982422 2.0302734 3.1982422.8554688 0 1.6650391-.28125 2.3085938-.8164063.6731644-.5614243.823082-1.3853455.1915283-2.0362549zm-3.2686767 2.0108642c-1.3094711-.3079453-1.5032082-1.3751755-.9052734-1.6962891 1.5343666-.8316269 3.6290092-.2133255 3.8095703.4833984.1676178.6475144-1.3168335 1.5907823-2.9042969 1.2128907z"/><path d="m14.0858488 21.7339287c1.7199707.4200439 3.45996-.6298828 3.880126-2.3498535.4299316-1.7200928-.630127-3.460084-2.3500967-3.8801279-1.7199707-.4299316-3.4599609.6201181-3.8800049 2.3400888-.4300537 1.7299805.6199951 3.4699707 2.3499756 3.8898926zm-.1099853-2.8598633c.4300537.4799805 1.0400391.789917 1.6700439.869873.4789438.0684986.4188623.75-.0400391.75h-.0500488c-.8099365-.0999756-1.5898438-.5100098-2.1398926-1.119873-.3264284-.35005.2206421-.8638477.5599366-.5z"/><path d="m26.0298176 10.0349531c0-2.5322266-2.0595703-4.5917969-4.5917969-4.5917969s-4.5917969 2.0595703-4.5917969 4.5917969 2.0595703 4.5917969 4.5917969 4.5917969 4.5917969-2.0595703 4.5917969-4.5917969zm-4.5917969 3.8417969c-2.1181641 0-3.8417969-1.7236328-3.8417969-3.8417969s1.7236328-3.8417969 3.8417969-3.8417969 3.8417969 1.7236328 3.8417969 3.8417969-1.7236328 3.8417969-3.8417969 3.8417969z"/><path d="m59.7358742 17.4499931c-1.4658203-.6904297-2.5302734-2.2402353-2.6503906-3.8544931-.0379829-.5008678-.7851982-.4352427-.7480469.0546875.1416016 1.90625 1.3496094 3.6630869 3.078125 4.47754.4507637.2126255.7677765-.4679851.3203125-.6777344z"/><path d="m50.2261086 15.3435469c.0605469.1445313.2001953.2314453.3466797.2314453.2664032 0 .4488029-.2714376.3466797-.5185547-.3632813-.875-1.0087891-1.6259766-1.8173828-2.1152344-.4259834-.2541771-.8124275.3850489-.3886719.6425781.6738281.4072266 1.2109374 1.0322266 1.5126953 1.7597657z"/><path d="m50.3452492 21.0027275c-.461422-.1893005-.7457504.5001831-.2910156.6914063.2636719.1103516.4619141.3769531.4921875.6611328.0668678.6298618-.5937462 1.0906773-1.1650391.8115234-.1806641-.0908203-.4101563-.0175781-.5019531.1699219-.2157364.4360619.3738976.6611328.8574219.6611328 1.6977958 0 2.17387-2.3369083.6083984-2.9951172z"/><path d="m33.9546242 25.9851494c.2229691.4393768.8931007.1061172.6699219-.3378906l-.9619141-1.9033203c-.2241592-.4436493-.8924179-.1047592-.6699219.3378906z"/><path d="m29.8677082 26.0144463c.4516525-1.7211628-.6266899-3.5440254-2.5419922-3.9892578-1.8496094-.4277344-3.734375.6474609-4.1933594 2.4033203-.2167969.8261719-.0908203 1.6875.3544922 2.4267578 1.5646057 2.5916767 5.6366902 2.0056286 6.3808594-.8408203zm-6.0107422-1.3964844c.5915604-2.2524796 3.8160305-2.6275005 5.0126953-.6435547 1.1672573 1.9298191-.7157917 4.2445545-3.0263672 3.7128906-1.4856262-.3461857-2.3339729-1.7366962-1.9863281-3.0693359z"/><path d="m13.2554045 35.8523369c1.6992188.1640625 3.4033194.0908203 5.0791006-.2158203-.4101563 1.0996094-1.0898438 2.1113281-1.9560547 2.8945313-.3081074.2792931.0030174.7844505.3984375.6240234l3.4824219-1.4765625c.368454-.1517181.0496311-.444912 1.9150391 3.5224609.1639423.3534966.6958561.2529945.7158203-.1396484l.1748047-3.8085938c.0087891-.2070313-.1503906-.3828125-.3574219-.3925781-.1923828.0078125-.3818359.1503906-.3925781.3574219l-.1035156 2.2685547c-1.5132771-3.292923-.961853-3.0293274-4.1972656-1.6699219.5576172-.7792969.9824219-1.6572266 1.2353516-2.5732422.0752945-.2718925-.168457-.5288086-.4414063-.4658203-1.3144531.2880859-2.6494141.4287109-3.9892569.4091797.9267578-.4980469 1.7861319-1.1103516 2.5673819-1.828125.245903-.2286453.0924377-.6385269-.2392578-.6513672-.9980469-.0390625-1.9873037-.2607422-2.906249-.6464844 1.2832031-.2783203 2.5917959-.3642578 3.9111319-.2509766.4859123.059412.5667419-.7052345.0625-.7480469-1.7412109-.1455078-3.4765615.0302734-5.1552725.5283203-.3206663.0953331-.3617649.5252304-.0791016.6855469.9951172.5654297 2.0986328.9394531 3.2324209 1.0996094-.9248037.7333984-1.9501944 1.3222656-3.0576162 1.7548828-.3659031.1441422-.2904083.6851006.1005858.7226563z"/><path d="m23.0034504 33.9431572.5859375-1.6025391c.1697025-.4690342-.5376167-.7229805-.7050781-.2578125l-.5859375 1.6025391c-.1709023.4723549.5360431.7204399.7050781.2578125z"/><path d="m21.4897785 31.0320244-.7363281.6591797c-.3714256.3314629.1332607.8901672.5.5585938l.7363281-.6591797c.3693409-.3319398-.1318359-.8894749-.5-.5585938z"/><path d="m40.1266212 22.8003349c-.4382324 0-.7935791.5119629-.7935791 1.1434326s.3553467 1.1433105.7935791 1.1433105.793457-.5118408.793457-1.1433105-.3552245-1.1434326-.793457-1.1434326z"/><path d="m36.6794777 35.2967949-.0246582.180542c-.0097656.0664063-.0126953.1103516-.0087891.1240234-.0138397.1007385-.6155128 4.4804306-.5771484 4.2011719-.1738281 1.3017578-.4130859 3.0849609.4189453 4.5087891 1.7085457 2.954052 7.2872963 2.9269714 10.6425781 2.2285156 1.5031013-.2996979 3.1251488-1.0395241 3.5195313-2.5283203.2792969-1.0771484-.1835938-2.1357422-.5927734-3.0693359-.0393677-.1238327-1.6824265-3.4343452-1.6542969-7.8789063.0102158-1.9566002-.2059479-2.8054543-.9482422-3.4384766-1.3769646-1.1943436-2.8701172-.1262207-5.9462891-1.3320313-1.7704887-.6987591-3.1942673-.3125992-3.8841553 1.3791504-.1659622-.1801548-.5733643-.3437939-1.8156738-1.4326172 1.7123299-2.4245548.9722862-6.2993221-1.4241943-6.6809082-1.0605469-.1717529-2.1020508.4572754-2.8027363 1.5270996-.8010254-1.3839111-1.43396-2.8522949-1.8746338-4.3823242.8964844-.7736816-.1530762-2.8798838-.2015381-2.9748545-1.4424191-2.7917786-4.5118351-.732419-2.6669922 1.7607431 0 0 0 .0009766.0009766.0009766.4238281.5715332 1.3209229 1.454834 2.1641846 1.4748535.5009766 1.7211914 1.2272949 3.3696289 2.1662598 4.9084473-.8473129 2.0148907-.4537296 4.6691227 1.2552509 5.5412598l-.6002216 3.7503662c-1.3222847-.4128265-2.6455193 1.1364517-1.8292236 2.4940186.2703857.442627.7701416.7333984 1.310791.7731934l-.4505615 2.791748 1.0100098.1601563.5305195-3.3012695c.1859818-.1414146.356308-.3082275.4693604-.5117188v.0009766c.1029053-.1921387.1580811-.3961182.1837158-.6037598 2.013172.3554725 3.2767866.3112602 3.6300047.3284912zm-9.6604023-19.3262949c0-.3496094.1923828-.6796875.4570313-.7851563 1.2516823-.4883242 2.2108536 2.7125921 1.7324219 2.9873056-.5226136.3041535-2.1894532-1.1357268-2.1894532-2.2021493zm14.2158222 13.0195322c4.3212204 1.6963634 6.4420776-.8403358 6.4189453 3.9619141.0099373.1014214-.1700974 3.9433174 1.6367188 8.1083984.6463623 1.4766579.8094292 2.0838394.6337891 2.7607422-.3106461 1.1742134-1.776722 1.7500572-2.9443359 1.984375-2.9138184.6059761-8.3314476.7433205-9.84375-1.8710938-.6503906-1.1123047-.53125-2.484375-.3232422-4.0322266.0137711-.1017609.6401329-4.7304192.6263428-4.6286621 3.7297173-.1363411 7.3100739-1.2574158 9.8883057-2.7873535.4239731-.2515907.0475769-.8981133-.3828125-.6445313-2.4760132 1.4617424-5.8651924 2.5229073-9.4022217 2.6743164.5625266-2.2075423-.1026002-7.019245 3.6922606-5.5258788zm-9.3906269-1.2460938c-1.0589695-2.1816635.3150501-5.4638672 2.1845722-5.4638672.7295723 0 1.2789383.511734 1.6025391 1.1777344.3408203.703125.4492188 1.5888672.3046875 2.4941406-.457325 2.8605767-3.0027657 4.0366631-4.0917988 1.7919922zm-.46875 6.1054688c.7151203 0 1.1682491.735508.83008 1.3671875-.0019531.0039063-.0224609.0380859-.0234375.0419922-.3681164.5597954-1.2039337.5703125-1.5449238.0117188-.3893585-.6489335.0943432-1.3949204.7382813-1.4208985zm1.574831.347168c-.0500488-.1350098-.1132813-.2595215-.1921387-.3745117l.6618652-4.152832c.1001587-.0240765.9342003.0812016 1.9012451-.8609619.5889893.5164795 1.1984863 1.0002441 1.8237305 1.4259033.0644531.0439453.1376953.0644531.2109375.0644531.0231934 0 .0440674-.012085.0667725-.0163574-.1937218.7317772-.1974144 1.1022835-.638916 4.2502441-1.2915039.0080566-2.5771484-.097168-3.8334961-.3359375z"/></g></svg>