<svg id="Layer_1" enable-background="new 0 0 75 75" viewBox="0 0 75 75" xmlns="http://www.w3.org/2000/svg"><g id="Children_Fight" fill="rgb(0,0,0)"><path d="m48.8974304 24.019289c-.3897705-.0061035-.7116699.3681641-.7189941.8361816s.3027344.8522949.6923828.8583984c.3898926.0061035.7116699-.3684082.7189941-.8361816.0073243-.4680175-.3027343-.8522949-.6923828-.8583984z"/><path d="m45.7966003 24.915041c-.3897705-.0061035-.7116699.3684082-.7189941.8361816-.0073242.4680176.3027344.8522949.6923828.8583984.3898926.0061035.7116699-.3681641.7189941-.8361816s-.3027343-.8522949-.6923828-.8583984z"/><path d="m54.752655 25.6792011c.1599655-.4228802.1421471-.8488312-.1015625-1.2404785-.0024414-.0136719-.0067139-.0263672-.0092773-.0400391.0290527-.0495605.0505371-.1037598.053833-.1645508.2714272-.3121395.4756584-.3320789.8144531-.3574219.841095-.0640831-.0780716-1.6590118-.4882813-2.3847656.2617188.0205078.5234375.0488281.6347656.0771484.3127136.2233677.7234039-.1230011.5527344-.4716797-.9990234-2.0400391-3.2128906-3.3486328-5.4580078-3.3876953.3925781-.2666016.7851563-.53125 1.1796875-.7958984.2462578-.166275.2124443-.5404911-.0634766-.6572266-1.7860374-.7513905-3.9694939-.1037121-4.9746094 1.2021484-.1064453.1376953-.2167969.2802734-.3623047.3798828-.1311951-.0349846-.6408958-.6227531-1.8525391-.7392578-.3916321-.0402126-.6644402.078125-.9658203.078125-.5135307 0-.510952.7490234-.0214844.7490234.0908203.0322266.2949219.2080078.4941406.4248047-2.8595085-.0519905-4.6942635 2.4431362-3.5976563 2.5732422.5968056.0736809 1.7775078-.0647278 1.8945313-.0693359-.0654297.0830078-.1416016.1738281-.1943359.2353516-1.0259361 1.2202415-1.289238 3.3892593-.130249 5.236084-1.1800079.9765568-.1153679 2.8654232 1.2956543 2.2526855 2.4682466 6.3027631 11.2076532 3.2923947 11.2998048-2.9001464zm-11.8919677-4.104248c.3027611-.358902.7445412-.8670273.3066406-1.2773438-.3372688-.312418-.817028-.1525135-1.8222656-.1123047.7335358-.7090149 1.9429054-1.1963863 3.0566406-1.0566406.2148438.0644531.6162109.1835938.8076172-.1210938.243885-.3485641-.1388092-.7927818-.4482422-1.1425781.4044304.0631123.823513.2161636 1.15625.4667969 1.0230064.7597008 1.4665985-.4269276 1.8632813-.75.8632813-.7119141 2.0244141-1.0146484 3.0664063-.8427734-.5947266.4023438-1.1884766.8056641-1.7861328 1.2138672-.3477669.2355843-.0978355.7823181.3085938.671875 2.0732422-.5585938 4.4863281.3710938 5.7470703 2.1074219-.203125-.015625-.4453125-.0244141-.734375-.0244141-.1279297 0-.2470703.0654297-.3164063.1738281-.1569443.246624.0219383.4870548.3798828 1.1152344.2226563.3935547.4511719.796875.578125 1.1855469-.310688.0679626-.4942703.1926403-.7001953.3703613-1.0187645-1.1764336-2.6803665-.8590794-3.2275391-1.8439941-.0898438-.1621094-.3310547-.5976563-.8417969-.4189453-.5017281.1840515-.5059509.7177734-1.3183594.7177734-.4941406.0371094-.8476563-.2695313-1.2822266-.6933594-.1847572-.1802521-.4628143-.117487-.5791016.0693359-.6736221 1.0749969-1.1142387 1.3850746-1.9814453 1.9160156-1.1314888.6848488-2.0773048 1.320137-2.3156738 2.6088867-.9700813-1.5632362-.7202568-3.3847732.083252-4.333496zm-.2919922 6.2207031c-.3298569-.328043-.1698151-.9697018.4320068-1.0581055.0423584.3686523.1101074.7470703.2163086 1.1313477-.1884766.1210937-.4824219.0908203-.6483154-.0732422zm1.126709-2.28125c.6629486-1.4024353 2.4204483-1.4068089 3.7658691-3.3535156.8161316.7040253 1.7209892.7394009 2.421875.3603516.2234879-.1066628.3893013-.3132954.5488281-.4648438.0019531.0048828.0048828.0087891.0068359.0136719.5280457.9642563 1.8086472 1.1485672 2.5507813 1.4394531.1593018.065918.3455811.1740723.5244141.3066406-.9674644.0326214-1.511364 1.0880661-.9111328 1.2851563.1943359.0683594.4091797-.0410156.4736328-.2373047.0654297-.1972656.2978516-.3427734.5224609-.3144531.2255859.0283203.4365234.2265625.4921875.4609375.1217117.5095444-.3765106 1.02738-1.0097656.9189453-.5038605-.0709972-.6003494.6622696-.1210938.7402344.3274231.0545712.6329079.0095921.9359131-.1162109-.4016113 2.1601563-2.1136475 4.0537109-4.24646 4.5957031-3.6555595.9146404-6.0438346-1.9264355-5.9543456-5.6347657z"/><path d="m47.6487732 44.2409706c.1386719.7314453.3339844 1.5625.9033203 2.1650391 1.0013771 1.0274773 2.3544083.8451881 3.7011719.3720703 2.4101563-.8457031 4.7060547-2.2167969 6.6376953-3.9628906.6503906-.578125 1.0039063-1.1337891 1.0810547-1.7011719.0273438-.2050781-.1171875-.3935547-.3222656-.421875-.1992188-.0273438-.3945313.1171875-.421875.3222656-.0507813.3808594-.3242188.7861328-.8378906 1.2421875-3.087574 2.7940598-6.7755852 4.1513672-7.9228516 4.1513672-2.0925827.0729942-2.0176544-2.2817726-2.3291016-4.1445313-.5834045-3.5063896-.2651329-5.7240257-.0537109-8.2099609.0380859-.3496094.0576172-.4189453.2167969-.5068359.3716621-.2007866 2.3230515-.1718788 4.3964844-1.4677734.1000175-.0400085.2989769-.1724758.5009766-.180666.0048828 0 .0097656-.0009766.0136719-.0009766.4592323 0 .8951721.8915043 1.1875 1.3515644l3.9677734 6c.2744942.4140663.8992424-.0015259.625-.4140625-3.7617226-5.7007828-3.7567024-5.6456146-4.1298828-6.2675781-.3574219-.6005878-.8447266-1.4199238-1.6484375-1.4199238-.3611145 0-.8851967.2438507-1.0595703.3808594-3.0285683 1.7490559-4.6014748.4843807-4.8164063 2.4443378-.0370445.646389-.4569397 3.0109673-.1884766 6.5986328.0989723 1.2450638.402214 2.3959008.4990234 3.6699219z"/><path d="m68.4120789 53.6723671c-2.4780273-1.3664551-4.512085-3.5688477-5.729126-6.2155762-.0655518-.1430664-.2089844-.2248535-.3555908-.21875.3429756-.7269058.7909355-1.6256371.9776611-2.4111328.0951424-.4068832-.1691055-.802578-.5722656-.8583984-.1826096-.0260887-.3850975-.0922737-.6826172-.1865234-1.5705719-.4680214-1.3328705-1.3505096-2.3339844-.4169922-2.7500763 2.212204-6.2489967 3.7566414-9.9882813 4.171875-.28125.03125-.4462891.3007813-.7304688.8662109-.4383011.8717155-.8061447 1.6775589-.9160156 2.9941406-.1808434 1.5565338.3961487 1.2346764 1.980835 1.2004395-.0632324.0378418-.1192627.0891113-.1517334.1618652-.7905273 1.7614746-1.1324463 3.7536621-1.0194092 5.6699219-1.1093102-.1329956-2.7314758.3761024-2.7091064 1.4833984.0058594.3037109.1533203.6044922.4042969.8242188.4144669.363102 1.1613159.5107422 1.7138672.5107422 2.3702469 0 2.9877625-1.8340034 1.347168-2.6049805-.1561279-1.873291.1700439-3.8442383.9467773-5.5766602.0789795-.175293.0078125-.3752441-.1540527-.4707031l1.392334-.0078125c1.1129303-.0057526 1.4754219-.2498894 1.9775391-1.0888672.6759262-1.1260376 1.557579-2.238636 2.2402344-3.2294922.0957718-.1399803.3056488-.5428047.4736328-.7773438.2118721.1542397 1.0326729 1.0062904 3.0078125 1.6855469.2622528.0891647.8568993.3893929 1.2832031.3359375.1689453-.0195313.3203125-.1220703.4277344-.2890625.2854004-.447998.5452881-.9157715.7913818-1.3911133 1.1773682 2.5263672 3.0620117 4.6604004 5.3603516 6.1022949-.5731201.2885742-1.065918.7675781-1.3753662 1.2556152v.0009766c-.7575455 1.1949997-.0090027 2.3250771 1.4072266 1.8964844 1.1743088-.3578568 2.6851807-1.760704 2.1513672-2.8232422-.1572267-.3115234-.5444719-.6022414-1.1654054-.5930175zm-21.3316651 6.5002441c-.7418785-.6531754 1.5903969-1.5264435 2.5634766-.6552734.1123047.1005859.1796875.234375.1699219.3408203-.0521965.6296272-2.1070328.8675194-2.7333985.3144531zm13.5644531-11.4072265c-.2378426-.0337944-.6720924-.2289276-.8691406-.296875-.7483597-.2566376-1.4608803-.6006546-2.1386719-1.0332031-.2137985-.136055-.7615051-.7578125-1.1630859-.7578125-.0039063 0-.0078125 0-.0126953 0-.4846153.0096626-.7931671.8270035-1.0283203 1.1650391-.2560349.3720131-.5395012.7600288-.8046875 1.125-1.7415733 2.4053535-1.5649414 2.4726982-1.9003906 2.7050781-.325882.2235832-.6905098.1539955-3.1396484.1777344-.1613579 0-.5923004.0618668-.7998047.0634766.0046806-.482151.1393242-1.4301376.4414063-2.2333984.1189156-.3135109.5475769-1.1919785.6962891-1.4111328 4.0318527-.4731026 7.9559975-2.3009682 10.4716797-4.5117188.0749741.0609131.2035599.1774025.2861328.2275391.6545906.4044609 1.1588631.5099907 1.3183594.5673828.203125.0634766.4160156.1328125.5722656.1015625-.2364122.9993704-1.3408662 3.1801375-1.9296877 4.111328zm6.1142579 7.6669922c-.9440613-.1180077.5716248-2.1970673 1.8457031-2.0078125 1.1197128.1577034-.8242417 2.1585197-1.8457031 2.0078125z"/><path d="m51.7933044 36.5700722c-.703125.546875-1.5205078.9492188-2.3623047 1.1630859-.476532.1202888-.3017235.8518028.1835938.7265625.9423828-.2382813 1.8544922-.6875 2.6396484-1.2978516.1630859-.1269531.1923828-.3623047.0654297-.5263672-.1279297-.1640624-.3642578-.1933593-.5263672-.0654296z"/><path d="m68.0119324 14.2126484c2.8439789-4.6369257-.0289154-8.4420452-2.9599609-7.7900386-1.3307419.2826228-2.268589 1.487504-2.9599609 2.1799312-.4888611-.6966677-1.0272636-2.2094193-2.3300781-2.8801265-2.6995583-1.3902273-6.4137726 1.5149169-4.8898926 6.7499995.8459473 2.8720703 2.9238281 5.3608398 5.5893555 6.7265625-2.7085419 1.5407524-2.2858582 5.5160351.6923828 6.5136719.1965904.4805584.5065002.7953873.8435059.9672852-.0892639 3.2297192-2.725193 5.7432156-5.8797607 5.7651386-.4945068.0046654-.4908791.75.0029297.75.100956-.0212402 2.6165123.1077805 4.6796875-1.9570332 1.1673584-1.1682129 1.8597412-2.7617188 1.9388428-4.4084473.3077393-.0131836.6237793-.1235352.9377441-.3151855 1.5193787 1.0474339.2375717 3.339119-.088501 4.6777344-.5273438 2.1123066.1005859 4.501955 1.6015625 6.0878925.3378448.3556252.8869553-.1548538.5449219-.515625-1.3291016-1.4042969-1.8857422-3.5205078-1.4179688-5.39258.2805557-1.1600552 1.6204071-3.6007156.1777344-5.1660156-.0743408-.0793457-.177124-.1303711-.2628174-.1992188.1452637-.2214355.2329102-.4816895.1759033-.7675781-.1251297-.6220741-1.1101913-1.2764664-1.7333984-1.3925781-.7058678-.1260471-1.4814453.2015152-1.6225586 1.0258789-.9505615-.4421387-1.6290283-1.4555664-1.6547852-2.4995117-.0263672-1.0742188.6259766-2.1484375 1.5878906-2.6123047.1865234-.0898438.2646484-.3144531.1748047-.5009766-.0137939-.0290527-.0360107-.050293-.0557861-.0737305 2.8364256-.6699219 5.3867186-2.4853515 6.908203-4.9731445zm-5.4744873 10.3720703c.3754539.0691643 1.0862083.561079 1.1347656.8017578.0662231.3311157-1.1551132 1.3282776-1.7978516.1259766-.1113281-.2089844.0789185-1.0478249.663086-.9277344zm2.654541-12.1721191c-.3499756 1.1298828-1 2.0998535-1.6300049 3.0300293-.1155472.1811705-.358036.2178526-.5200195.1098633-.1699219-.119873-.2199707-.3500977-.0999756-.5200195.5999756-.8999023 1.2200928-1.8198242 1.5300293-2.8398438.3299561-1.0800781.2399902-2.1601563-.2600098-2.9101563-.1099854-.1699219-.0599365-.3999023.1099854-.5200195.1699219-.1098633.4000244-.0600586.5200195.1101074.6300049.9399414.75 2.2299805.3499756 3.5400391z"/><path d="m48.7171326 27.7106953c-.4652252.5349045-1.2581329.6402111-1.8496094.2431641-.2614937-.1757565-.613945.0327702-.5820313.3476563.0809364.8858662.1958351 1.1130314.3671875 1.3378906.7758751 1.0103321 2.174366.9067078 2.7382813-.0761719.2978516-.5205078.2597656-1.3378906-.0849609-1.8232422-.1222268-.1725541-.4044419-.2400704-.5888672-.0292969zm-1.6015625 1.1630859c.603775.1553192 1.2095909.0489273 1.7207031-.2832031.1375503 1.2608948-1.4710007 1.3153152-1.7207031.2832031z"/><path d="m24.1474304 29.0778828c.3596191-.0092773.6435547-.3083496.6341553-.6679688s-.3084717-.6435547-.6680908-.6340332c-.3594971.0092773-.6433105.3083496-.6340332.6679688.0093994.3596191.3084716.6433105.6679687.6340332z"/><path d="m21.797821 29.845705c.3596191-.0092773.6435547-.3083496.6341553-.6679688s-.3084717-.6433105-.6679688-.6340332-.6434326.3083496-.6341553.6679688c.0095216.3596192.3084718.6435547.6679688.6340332z"/><path d="m18.2083435 57.949955-.532959 8.8505821c-.6708164.1205292-1.2829838.3627167-1.4338379 1.0244141-.1015625.4404297.09375.9267578.4970703 1.2392578.8269768.6418381 2.8139305.6505966 3.9912109.4277344 1.4649582-.2791367 1.5636578-1.5359344.3310547-2.1582031-.6881104-.3481445-1.6702881-.607666-2.630249-.6005859l.5257568-8.7382774c.0292607-.4771921-.7184562-.56522-.7480468-.044922zm2.9492188 10.4970665c-.0739365.4981003-3.2020531.6131439-3.9589844.0244141-.3246326-.2510223-.3303776-.6342087.1142578-.8037109 1.5471401-.5970612 3.9151134.3393706 3.8447266.7792968z"/><path d="m26.2454529 66.173584c-.1699219.4355469-.0869141.9482422.2119141 1.3066406.8397369 1.0082626 4.9523716 1.2605362 5.4208984-.3427734.4027672-1.3655701-1.8346786-2.7956238-4.2629395-2.0012207l-2.4382324-7.4431114c-.1549683-.4719467-.8671417-.2377281-.7128906.234375l2.4626465 7.5175743c-.2977295.1787109-.5567627.4138183-.6813965.7285156zm.6982422.274414c.05896-.1494141.2259521-.2861328.4454346-.4035645.0024414 0 .0042725.0021973.0067139.0021973.1182251 0 .2038727-.0473709.2774658-.1320801 2.460228-.9616013 4.8196526 1.0933456 2.6326904 1.513916-.8574219.1630859-1.7558594.1318359-2.6015625-.0898438-.2470703-.0654297-.5205078-.1572266-.6708984-.3388672-.123047-.1464842-.1591798-.3740233-.0898438-.5517577z"/><path d="m32.5686951 47.9782753c1.2311325-.2898369 1.6079826-1.5227165.9746094-2.4619141-.8174896-1.2087021-3.2164631-1.5792732-4.71875.1826172-.1209717.140625-.293457.3430176-.3590088.5756836-.0595703.0161133-.1188965.0314941-.1783447.0473633-1.4829903-6.0479469-1.3484268-5.4310837-1.4987793-6.3046875-.2177734-1.2685547-.4882813-2.8466797-1.4492188-3.4072266-.9193306-.5400352-2.2098408.2041893-2.9697266.2841797-5.6854858.642868-6.1768303.4598541-6.8349609.9248047-.4902344.3378906-.6875.9033203-.8476563 1.4550781-1.0722656 3.7207031-1.7128906 7.5800781-1.9033203 11.46875-.1059361 1.9412003-.2767143 4.2726631 1.1533203 5.5292969.9033203.7783203 2.1152344.8623047 3.3828125.8837891 8.5015984.1026764 9.6346512.3776093 11.0107422-.6767578.8203125-.6201172 1.3330078-1.703125 1.4042969-2.9746094.0616455-1.2874413-.2401123-2.2514267-1.269165-6.4538574.079834-.0212402.159668-.0419922.2397461-.0637207.7959327.7376937 2.8666248 1.226902 3.8634033.9912109zm-3.5830078 5.4873047c-.0595703 1.0478516-.4628906 1.9277344-1.1103516 2.4169922-1.1158543.8557358-2.0704422.6292381-10.5449219.5234375-3.7361021-.0617294-4.0006552-1.5104218-3.8095703-5.3798828.0300465-.285202.1196861-5.4148598 1.8867188-11.5439453.3031759-1.0447922.521512-1.1857681 1.4404297-1.2822266 5.9085999-.5699196 5.6327362-.5129776 6.5429688-.7871094 1.4504204-.4386177 2.0620804-.7430954 2.6582031 2.7314453.1592636.9346924-.000267.1806679 1.5148926 6.362793-2.2546921.5480728-4.7137814.7317696-6.3811035-.8842773-1.2744141-1.2373047-1.5390625-3.1621094-1.7167969-5.1923828-.0437851-.4862442-.7905617-.4339104-.7480469.0644531.1835938 2.0908203.484375 4.2509766 1.9433594 5.6669922 1.8753586 1.8198204 4.551899 1.6902161 7.0804443 1.074707.9189758 3.7550964 1.3002948 5.035923 1.2437744 6.2290039zm.2183837-6.9963379c-.0007324-.0026855.0001221-.005127-.0006104-.0075684-.0013428-.005127-.005249-.0087891-.006958-.0136719.0223389-.0551758.1235352-.1743164.2540283-.3271484.6562023-.7684479 1.6591282-1.019474 2.5117188-.796875 1.512886.3886299 1.6648216 2.2079735-.4238281 1.9335938-1.0316162-.1335449-1.8660888-.4230957-2.3343506-.7883301z"/><path d="m13.9494324 33.9025917c2.8978996 3.3709984 9.1382198 2.9467239 11.6212158-.4379883 1.380127-1.8791523 1.3673096-4.052248.5587158-5.942873.4395523-1.100069-.2830677-2.4724216-.6074219-3.229248-.9073086-1.0653496-.8290081-1.3544426-2.0899658-2.329834-2.4100342-1.8601074-5.7399902-2.0800781-8.3800049-.9101563l.0500488-.0698242c-2.3691521-2.239809-6.2318811-1.5474339-7.6700444 1.3498535-1.3871799 2.8342361.1022859 6.6422138-2.1199951 9.0100098 2.5600586-.4599609 4.8000493-2.4299316 5.5600591-4.9199219-.0100098.0400391-.0100098.0898438-.0200195.1298828-.4072905 3.2593708.0431871 4.1978474 1.5699463 6.0900898.4800062.6219254.9403038 1.2501297 1.5274658 1.2600098zm3.9024658-11.6430683c1.15625-.5410156 2.5664063-.4003906 3.5927734.3574219.402462.2965527-.0516987.8987274-.4453125.6035156-.796875-.5898438-1.9355469-.7011719-2.8291016-.28125-.4560375.2066421-.7643794-.4706154-.3183593-.6796875zm-.7198486 4.953125c.9719944-.6349201 2.435358-.676157 2.9399414-1.7900391 3.4226418.6097393 3.8762093.6506557 4.5328369.940918 1.4224854 1.9326172 1.9283447 4.5229492.3603516 6.6577168-2.2268467 3.0360031-8.1163921 3.4764938-10.6560059.1103516-.249773-.7843666-.0498486-1.545927.4627686-2.0808125.0152073.8305836.6422968 1.5134296 1.5008545 1.5134296.5181446 0 1.1589489-.2971687.8798828-.7353535-.1132813-.1738281-.3457031-.2236328-.5185547-.1142578-.2382813.1523438-.6025391.1269531-.8291016-.0615234-.5107183-.4176636-.3104744-1.2944298.4072266-1.4921875.1992188-.0546875.3164063-.2607422.2617188-.4609375-.0509682-.185667-.2365475-.3298359-.4920654-.2485352-.0092775-.868164.4157714-1.7399902 1.1501464-2.2387695zm-4.8631592 1.3339844c.0986328-1.7773438.7509766-3.5302734 1.8369141-4.9384766.3048983-.3940239.8963041.0679913.59375.4589844-.9941406 1.2880859-1.5917969 2.8935547-1.6826172 4.5205078-.0268279.4999733-.7762785.4553814-.7480469-.0410156z"/><path d="m38.4388123 36.6228065c.2685547.0117188.5205078.0185547.7558594.0185547.9501953 0 1.6029053-.125 1.8372803-.517334 1.8305664-.104248 3.6679688-.2004395 5.4976807-.286377.4943657-.0233192.4640656-.7727966-.0351563-.75-1.8070068.0849609-3.623291.1816406-5.4313965.2844238-.244751-.642334-1.0067139-1.2553711-1.2873535-1.411377-1.5987816-.885479-3.5641136.1066551-3.3847656 1.4003906.0484619.3583984.2840576.6879883.6208496.9116211-.5562744-.1130371-1.1480713-.0344238-1.6472168.2456055l-.0009766.0009766c-.2728271.1540527-1.0539551.8054199-1.1768799 1.4436035l-7.1356201 1.3815918c-.4878941.0938225-.3426933.8333817.1425781.7363281l7.2481689-1.4033203c.4623871.324482 1.5283661.269989 2.1239014.2412109.3384705-.0241776.6896973-.0182152 1.0888672-.2099609.891449-.4251213 1.0491028-1.5118904.0889893-2.1503906.1964111.0356445.3928223.0517578.5828857.0595703zm.9716796-2.0058593h.0009766c.3219872.178997 1.0115891.8558121.9932861 1.1181641-.0710449.0566406-.407959.2094727-1.9317627.1376953l-.1171875-.0048828c-.2861328-.0107422-.5849609-.0371094-.8291016-.1523438-.2148438-.1015625-.3691406-.28125-.3935547-.4560547-.0853156-.6269569 1.215622-1.2336426 2.2773438-.6425781zm-2.0800781 3.415039c-.203125.0976563-.4560547.1210938-.6992188.1318359-.10009.0029182-1.3691597.0721893-1.7236328-.0439453-.0195313-.1875.5175781-.7734375.8251953-.9482422.4169922-.2324219.9541016-.2695313 1.3974609-.0957031.5313188.2076645.7328035.7032891.2001954.9560547z"/><path d="m47.9749451 19.9821796c.7685547-.2285156 1.6503906.0195313 2.1943359.6083984.3359833.3580875.8878059-.1446552.5507813-.5097656-.7324219-.7939453-1.9208984-1.1191406-2.9560547-.8193359-.4753838.1405068-.2663765.8577538.2109375.7207031z"/><path d="m29.7376404 20.6169453c1.5601177-3.8731422 1.8004818-3.1299934-.4345703-3.578125l1.1132813-3.0126953c.1736679-.4670258-.5333958-.7224531-.703125-.2597656-1.6169014 4.5518608-1.8876171 3.7128735.3447266 4.1582031l-1.0117188 2.4013672c-.1926461.4581222.4990901.7469901.6914062.2910156z"/><path d="m32.8860779 18.6403828c1.5050392-3.7066135 1.6515808-3.6287775 1.4931641-3.9150391-.1513329-.2783413-.3475151-.1570663-2.0849609-.4921875l1.4482422-3.9189453c.1733818-.46626-.5327644-.7218399-.703125-.2597656l-1.6054688 4.3447266c-.0818024.2188215.0564232.4607201.2900391.5l1.7968749.2988281-1.3261719 3.1513672c-.192131.4568977.4987908.7477016.6914063.2910156z"/><path d="m37.6497498 18.6950703c1.0103569-2.524086 1.1912231-2.5478745 1.0361328-2.828125-.1460571-.2686424-.4003181-.1718702-1.3994141-.3779297l.9619141-2.6044922c.173378-.4662485-.5327415-.7219057-.703125-.2597656-1.4331589 4.0569649-1.6535149 3.3177528.2832031 3.7148438l-.8701172 2.0644531c-.192131.4568977.4987907.7477016.6914063.2910156z"/><path d="m22.2229919 31.823c.280632.7444172.6082878 1.3427753 1.4609375 1.3427753.6025391 0 1.2167969-.3632813 1.5068359-.9335938.3837891-.7529316-.0507813-1.4599628-.3105469-1.8828144-.1204453-.1948376-.4437904-.2788563-.6279297-.0175781-.3720703.5380859-1.0732422.8212891-1.7216797.6904297-.1298828-.0253906-.2763672.0224609-.3652344.1289063-.1716174.2116622-.0472353.3987102.0576173.671875zm2.2617188-.6367188c.1210938.2724609.1464844.4921875.0380859.7060547-.1933594.3808613-.6542969.6054707-1.0214844.4990253-.2275391-.0634766-.3505859-.2685547-.484375-.5947285.5361329-.040039 1.0615235-.2578124 1.4677735-.6103515z"/></g></svg>