<svg id="Layer_1" enable-background="new 0 0 75 75" viewBox="0 0 75 75" xmlns="http://www.w3.org/2000/svg"><g id="Dancing_Children" fill="rgb(0,0,0)"><path d="m68.9725189 11.6644344c-.3699951-.7602539-1-1.4301758-1.8100586-1.6801758-.8898926-.2800293-1.8499756-.0200195-2.7299805.2900391-.6499062.2199707-1.2900429.4799805-1.8199501.8999023-.6987991.5307331-1.1865807 1.3873186-.9200439 2.2402344-2.0899658-.2001953-4.2800293.3498535-5.9799805 1.7299805-.8900146.7199707-1.7900391 1.7299805-2.2099609 2.8098145-.3614655.8952541-.7416649 1.8756943-.3404541 2.8339844-.8382568 2.1208496-.5872803 4.2854004.7050781 5.9528809 2.5751305 3.3198757 8.8239021 3.6021938 11.6553993.1435547.6118546-.0197144 1.1157837-.7712078 1.5200195-1.3103027 1.4625931-1.9284821 1.9024734-2.8156338 1.4199219-6.1501465-.0800781-.5400391-.2199707-1.0498047-.4100342-1.5200195.0200195 0 .0400391-.0097656.0600586-.0097656.7199707-.170166 1.25-.8400879 1.4499512-1.5600586.3193512-1.1491968-.0607071-3.5831053-.5899658-4.6699221zm-14.5116005 14.6176758c-1.7383499-2.2422981-1.164093-5.1419849.6534424-7.2827148 1.9696007-.7344608 4.3829689-.2812176 6.3881836-1.2351074-.2099609.75.2199707 1.5300293.75 2.0900879.5400391.5600586 1.2099609 1 1.6699219 1.6298828.3637733.5014648.5571327 1.203125.356205 1.7712402-.4950829-.0986557-.6405525.6130619-.1732178.7287598.3193359.0791016.5947266.3339844.6845703.6347656.2106781.7045307-.521637 1.2746124-1.0683632.9375-.4334755-.2520752-.808609.3873692-.3886719.6425781.5222092.314249 1.241787.2474003 1.7119179-.1601563.0706787-.0612793.1226807-.1386719.1799316-.2114258-.0175781.114502-.0460205.2246094-.0821533.3349609-2.4286689 3.3431913-8.3403778 3.1404878-10.6817665.119629zm12.2816201-4.4177246h-.0300293c-.1899414 0-.3599854-.1501465-.3800049-.3400879-.1300049-1.6298828-.7700195-3.2299805-1.7999268-4.5-.130127-.1599121-.1101074-.3999023.0499268-.5300293.1600342-.1298828.4000244-.0998535.5300293.0600586 1.1300049 1.380127 1.8299561 3.130127 1.9699707 4.8999023.0200195.2102051-.1400147.3901368-.3399658.4101563z"/><path d="m19.7861137 38.5028114c-.3056641.9326172-.5488281 2.0195313-.0410156 3.0019531.3798828.7314453 1.1523438 1.2714844 2.1142578 1.4804688.7619667.1789742 1.5782566.1357346 2.4375.0820313 2.8253117-.1876183 7.9566917.0704269 8.9414063-2.7587891.3125-.9013672.0693359-1.8623047-.1816406-2.6914063-.6854248-2.2629395-1.5709229-4.4628906-2.6204834-6.5825176 2.6116943-2.7900391 3.7922363-6.7988281 3.1307373-10.5629883 1.650486-1.3633842 1.3439369-4.2690754-.3569336-5.0185547-1.0508919-.456398-2.1910782.1454144-2.2519531 1.4052734-.0575428 1.0883312.9695263 3.363369 1.87146 3.7509766.6020508 3.4396973-.4404297 7.0871582-2.7563477 9.6953125-.3530273-.6796875-.7182617-1.3535156-1.1072998-2.0136719-.5447216-.920578-1.0593147-1.0727654-2.0585938-.703125-4.6279449 1.7228794-4.258419 1.7021523-5.3349609 1.7675781-.7001953.0449219-1.4931641.0947266-1.9433594.6513672-.7333622.9184151.5136108 2.5455761.7011719 3.2919903.2724609 1.125.2783203 2.3076172.0175781 3.4228516-.1119194.4803238.6149731.6564522.7304688.1708984.2871094-1.2285156.2802734-2.5322266-.0195313-3.7714844-.0664063-.2675781-.2236328-.5957031-.390625-.9423828-.8379021-1.7421131-.7567654-1.9664993.9521484-2.0742168 1.2062054-.0755692.7190285-.0214672 5.5488281-1.8134766.6793137-.2507858.8104095-.1947861 1.1513672.3818359 1.6972656 2.8808594 3.0488281 5.9628887 4.0185547 9.1621075.2275391.7490234.4296875 1.5390625.1904297 2.2275391-.8059025 2.3159561-5.8609791 2.0954895-8.3193359 2.2587891-.7203369.0480232-1.5312424.0849533-2.1845703-.0673828-.7382813-.1611328-1.3417969-.5703125-1.6142578-1.09375-.3789063-.734375-.1816406-1.5996094.0878906-2.4248047.1547107-.4711647-.5583744-.7029953-.7128907-.2324219zm12.725586-22.4453106c1.0384064 0 1.628624 1.5175991 1.3125 2.6396484v.0009766c-.0898438.3251953-.2529297.6376953-.5263672.9726563-.0791016.0966797-.1953125.2333984-.2333984.2138672-.87389-.6877136-2.2214413-3.8271485-.5527344-3.8271485z"/><path d="m34.9001274 47.3175087c.4505615-.4807129 1.3071289-1.098877 1.5804443-1.6938477.4432373-.965332-1.6378174-2.1887207-2.3516846-2.583252-1.0753937-.5949936-1.244812-.7711372-3.0118408.1005859-1.6949863.8361359-3.5823822 1.2485847-5.4573975 1.2290039-.892334-.0095215-1.9217529-.4072266-2.7821045-.324707-.8505859.0817871-.6948242 1.0393066-.8720703 1.6655273-.4341087 1.5344162-.9210739 3.2981949-1.3438721 4.8876953-.1999512.7490234-.3532715 1.6677246.2130127 2.1970215.4884033.4562988 1.107666.3583984 1.7087402.3493652 1.359314-.0198364 3.29245.8200226 4.4619141-.2983398.5446777-.5209961.4714355-1.0979004.5307617-1.7697754.0686035-.7758789.1713867-1.5517578.2199707-2.3288574.1238232-1.3077888.6005096-1.5799026 1.605835-1.3735352 1.4041748.2883301 2.758667.8168945 3.9871826 1.5554199.5036622-.5373533 1.0073243-1.074951 1.5111085-1.6123045z"/><path d="m36.9159966 49.363163c.3623047-.5283203.4873047-1.1298828.3427734-1.6494141-.3362465-1.2097702-1.8914375-1.3011551-1.7802734-.59375.0322266.203125.2158203.3515625.4287109.3115234.2548828-.0429688.546875.1865234.6289063.4833984.2892227 1.0358238-.773735 1.5869141-4.8997803 4.927002-.1630859-.0622559-.326416-.1066895-.487915-.1066895-.0078125 0-.0166016 0-.0253906 0-.8101177.0192909-1.5562534 1.0091171-.8994141 2.3144531.390625.7753906 1.0800781 1.3974609 1.8886719 1.7070313 1.377594.5326729 2.4767456-.4995651 1.5478516-2.0117188-.199707-.3251953-.7169189-1.0183105-1.3291016-1.4992676l3.5039063-2.8181152c.3847655-.3105468.7822264-.6308593 1.0810546-1.064453zm-3.7441407 6.6708984c-.1494141.1689453-.5029297.1337891-.7910156.0224609-.6376953-.2431641-1.1796875-.7333984-1.4873047-1.3447266-.0898438-.1787109-.2802734-.6289063-.1015625-.9521484v-.0009766c.1734333-.3117523.3298931-.2831573.4871826-.2468262.0118408.0236816.019043.048584.0362549.0700684.0742188.0917969.1826172.1396484.2919922.1396484.0247803 0 .0460205-.0200195.0704346-.0249023.561943.3748971 1.938591 1.8319322 1.4940185 2.3374024z"/><path d="m38.2704887 18.653204c1.2990608-2.1521072-.5779343-4.8415442-2.1416016-4.0058594-.4023438.2138672-.6738281.6523438-.7285156 1.1738281-.0439453.4199219.0517578.8242188.1621094 1.1982422.1415291.4812031.8583679.2614422.71875-.2109375-.0878906-.3007813-.1650391-.6191406-.1347656-.9091797.0949516-.9003925.9793282-.7824831 1.4453125-.0615234.4638672.7207031.4785156 1.6962891.0361328 2.4287109-.2544708.4225598.390007.8076706.6425781.3867188z"/><path d="m40.0624809 18.8670712c.0136719.1972656.1787109.3486328.3740234.3486328.0087891 0 .0175781 0 .0263672-.0009766.2060547-.0146484.3623047-.1933594.3476563-.4003906-.1533203-2.1855469.5322266-4.4296875 1.8798828-6.1591797.3027611-.3889294-.2828407-.8541536-.5917969-.4609375-1.4599609 1.8730469-2.2021484 4.3046875-2.0361328 6.6728516z"/><path d="m44.7079887 15.849493c-1.0273438.4111328-1.7773438 1.4277344-1.8671875 2.53125-.0397148.4929161.7060318.5573292.7480469.0605469.0664063-.8261719.6289063-1.5869141 1.3984375-1.8945313.4527817-.1824989.1934853-.8757648-.2792969-.6972656z"/><path d="m16.9472466 27.6834774c.0606689 0 .111084-.0302734.1625977-.0566406 3.1844788 1.9013157 7.3587036.8938637 9.4458008-1.7294922 2.1028004-2.6374645 2.0570621-6.6925411-.2023926-9.1240234-.2441463-1.5983276-1.5178413-2.7104807-3.0769043-2.78125.1025391-.4248047.1630859-.8720703.1816406-1.3652344.1335983-2.934371-.7558384-2.2722187-2.9472656-.4296875-.0957031-1-.6103516-1.9648438-1.4130859-2.5683594-.2184544-.1638412-.5232887-.047081-.5888672.2070313-.8037338 3.1477976-4.8296585 4.4201002-6.7294922 7.1386719-1.3837891 1.984375-1.6015625 4.6748047-.5546875 6.8554688 1.7997283 3.7470587 5.8227214 3.8893031 5.7226562 3.8535155zm9.0224609-2.2529297c-2.1661663 2.7202129-6.7252579 3.4206696-9.5306396.755127-.1161461-.4332867.1412716-.738636.5095215-1.001709-.1380901 1.5664043 1.9942265 2.4149303 2.9849854 1.0522461.2909622-.4035931-.3151512-.8403778-.6074219-.4414063-.4466152.6157875-1.3863583.4308033-1.6035156-.2636719-.1201744-.385004.0801201-.6591625.2861328-.6630859.0456543-.0012207.0880127-.0131836.1280518-.0290527.454525-.0053158.540947-.4243832.3436279-.6340332-.0917969-.4208984-.0517578-2.2021484.015625-3.3984375.0742188-1.2988281 1.5146484-2.7148438 2.8652344-3.3339844 2.34795-1.076416 4.3851318-.0581055 4.5950928-.0161133 1.8208464 2.1178627 1.8768156 5.6361275.0133055 7.9741211zm-13.5751953-8.0263672c1.7660198-2.5307589 5.4185104-3.6437159 6.6542969-6.8027344.5576172.6337891.8310547 1.5234375.6933594 2.3583984-.0558434.3350563.3324909.5649633.6005859.3564453.28578-.2239885 1.7059155-1.4754581 2.3476563-1.8632813.0734425.5009851.0566616 1.826107-.2724609 2.8134766-.086256.258769.1206779.5233297.4033203.4912109 1.1602459-.1520548 2.3445663.5327101 2.7246094 1.7607422-3.8960228-1.2215681-7.655304 1.7412987-7.7978516 4.2451172-.1074219 1.8789063-.0859375 2.8417969-.0263672 3.3486328-1.3970776.1740189-2.5220957 1.3519192-1.8691406 2.6328125-4.2594424-1.1585291-5.7706424-6.0264166-3.4580079-9.3408202z"/><path d="m16.4941216 22.7440243c-1.3964844-1.4580078-1.6455078-3.9384766-.5644531-5.6464844.2642746-.4186306-.3669338-.8196049-.6347656-.4003906-1.2763672 2.0185547-.9941406 4.8408203.6582031 6.5664063.3433074.3570384.8848151-.159361.5410156-.5195313z"/><path d="m25.7968559 18.7562313c-.3831787 0-.6938477.310791-.6938477.6938477 0 .3833008.3106689.6940918.6938477.6940918s.6939697-.310791.6939697-.6940918c.0000001-.3830567-.310791-.6938477-.6939697-.6938477z"/><path d="m56.2403374 21.771368c.3609619 0 .6536865-.2927246.6536865-.6538086s-.2927246-.6538086-.6536865-.6538086c-.361084 0-.6538086.2927246-.6538086.6538086s.2927246.6538086.6538086.6538086z"/><circle cx="60.244" cy="22.389" r=".654"/><path d="m24.2276421 20.1783504c0-.3833008-.3106689-.6938477-.6938477-.6938477-.3833008 0-.6939697.3105469-.6939697.6938477 0 .3830566.3106689.6938477.6939697.6938477.3831787 0 .6938477-.310791.6938477-.6938477z"/><path d="m25.211895 22.3104305c-.4472656.2978516-1.0078125.4306641-1.5478516.3671875-.3756504-.0495358-.5775642.4351463-.2753906.6689453.4980469.3857422.8173828 1.0166016.8320313 1.6464844.0048828.2041016.171875.3662109.375.3662109h.0087891c.1171875-.0029297.2207031-.0595703.2880859-.1455078.1073647-.0937557.6855755-.4987183.7792969-.5947266.7819405-.8042812 1.7901077-2.9169006.8476563-3.3710938-.5055696-.2459525-.7238618.6741983-1.3076173 1.0625001zm-.3408203 1.9824219c-.0869141-.3183594-.2275391-.6220703-.4150391-.8945313.5572567-.0963478 1.1450138-.355629 1.5527344-.7890625-.2312374.6746693-.5629482 1.2664395-1.1376953 1.6835938z"/><path d="m17.7411919 61.9344521c-.9693394 1.7508278 2.370245 4.5298195 3.5996094 3.1328163.79422-.9066772-.3248653-2.3344002-1.2155762-3.1196327 1.9020996-2.1123047 3.0906982-4.9104004 3.260498-7.746582.0289173-.4715576-.7178669-.5755768-.7480469-.0449219-.1618652 2.6938477-1.2989502 5.3535156-3.1195068 7.3474121-.7747307-.4304886-1.4085064-.2364846-1.7769775.4309082zm3.0361328 2.6376991c-.1503906.1689453-.5039063.1328125-.7910156.0244141-.6376953-.2451172-1.1796875-.7353554-1.4873047-1.3466835-.3778458-.7434998-.0466537-1.2169304.2470703-1.2265625h.0097656c.6913204-.0000001 2.5033398 2.0000495 2.0214844 2.5488319z"/><path d="m53.5595512 33.456913c.1542969-1.0644531.3652344-2.522459 1.0195313-2.9267559.5398788-.3364887 1.7364578.2530098 2.5244141.3193359 1.7963333.1531029 3.6567268.2775497 5.6376953.4150391.9260941.0708485 1.1515617.2098408 1.4824257 1.2490215 1.15625 3.6523438 1.8886719 7.4511719 2.1757813 11.2890625.015625.2050781.1767578.3574219.4023438.3457031.2060547-.015625.3613281-.1953125.3457031-.4023438-.2919922-3.8955078-1.0351563-7.7509766-2.2089844-11.4599609-.4284744-1.3404579-.9050369-1.6756229-2.1425819-1.7695293-6.0837593-.4305668-5.6189384-.371418-6.4394531-.59375-.7216797-.1972656-1.5439453-.421875-2.1728516-.0302734-1.2184982.7531166-1.2575188 3.1734333-1.5097656 4.3251934-.3744125 1.7140427-.7804031 3.5706062-1.1988525 5.4936523-.0625-.0151367-.1247559-.0297852-.1875-.045166-.1120338-.3418274-.6976089-1.0464172-1.4935303-1.411377 0 0 0 0-.0009766 0-1.2732849-.5843391-2.9390373-.2624702-3.6113281.7910156-.7432213 1.1647224-.019165 2.7808762 2.171875 2.4355469.8799858-.1378403 2.097084-.4612999 2.7226563-1.09375.0800781.0197754.1599121.0383301.2398682.0576172-.8493233 3.9107895-1.2021523 5.1708679-1.1031494 6.5185547.1054688 1.2705078.6474609 2.34375 1.484375 2.9433594 1.4142342 1.0253639 2.5632362.7148666 11.0703125.3925781 1.2695351-.0556641 2.4824257-.171875 3.3710976-.9775391.6367188-.5908203.9931641-1.4394531 1.0908203-2.59375.0389404-.4833488-.7042313-.5761528-.7480469-.0625-.196434 2.3548126-1.4608231 2.7846451-3.745121 2.8837891-8.336132.3160629-9.431942.5978966-10.6005859-.2509766-.6601563-.4726563-1.0878906-1.3466797-1.1748047-2.3935547-.0897598-1.2154961.2209702-2.299942 1.088501-6.2919922.9113197.1981773 1.9380455.3685493 2.8782959.3466797 1.7236328-.0244141 3.2128906-.59375 4.1933594-1.6035156 1.4121094-1.453125 1.6601563-3.5429688 1.8056641-5.7363281.0312729-.4735298-.7152519-.5805702-.7480469-.0507813-.1367188 2.0498047-.3613281 3.9941406-1.5947266 5.2636719-1.6140137 1.6612015-4.1226082 1.5342979-6.3751221 1.0466309.3024902-1.3894043.6030273-2.779541.9063721-4.1696777.2981374-1.4396401.2840344-1.1400566.4443356-2.2529297zm-6.78125 6.9375c-.3255997-.4752998-.0324783-1.2949944.9833984-1.5869141.8650475-.2460556 1.8444252-.0393524 2.6005859.7988281.0830078.0927734.1982422.21875.1757813.265625-.6470222.6002694-3.1668281 1.3898202-3.7597656.522461z"/><path d="m54.8954887 51.0448036-2.2518311 7.5349121c-3.9475021-1.1794777-6.4472694 3.1965332-1.6925049 3.1965332.6308594 0 1.2636719-.0898438 1.8691406-.265625.3388672-.0986328.7636719-.2568359 1.0439453-.6123047.2910156-.3671875.3603516-.8837891.1767578-1.3154297-.1324463-.3120117-.3979492-.5410156-.7012939-.7124023l2.2745361-7.6108398c.1422349-.4733429-.5747183-.6917954-.7187499-.2148438zm-1.6191406 9.3886719c-.1484375.1875-.4199219.2851563-.6660156.3564453-.8427734.2460938-1.7451172.3017578-2.609375.1591797-2.2243576-.3617439.1114578-2.4928932 2.6063232-1.5883789.0733871.0790977.1559334.1235352.2696533.1235352.0042725 0 .0074463-.0039063.0115967-.0039063.2258301.112793.3991699.2463379.4630127.3955078.0751953.1777344.0439453.40625-.0751953.5576172z"/><path d="m58.4687309 61.8641396c.2227211 1.2456856 2.9021072 1.0948906 4.1289063.8222656.3427734-.0751953.7363281-.1875 1.0605469-.4521484.7801933-.6379852.6340065-1.7440453-.3603516-2.0947266-.2042236-.0727539-.420166-.1176758-.6397705-.1513672l-.7645264-8.8681641c-.0195313-.2060547-.2138672-.3701172-.40625-.3417969-.2060547.0185547-.359375.2001953-.3417969.40625l.7554932 8.7563477c-1.277935.0243149-3.6582451.6660881-3.432251 1.9233399zm4.9296875-.6972657c.3338814 1.2937889-5.8229446 1.2189293-3.765625.1054688 1.4632187-.7848702 3.6052361-.737587 3.765625-.1054688z"/><path d="m40.44627 33.4608192c2.0654449-.3206482 2.6054077-1.0255051 2.7056885-1.0737305 12.3648605.8888168 8.100296.5810242 9.0228271.6479492.4786263 0 .5044594-.7151031.0273438-.7490234l-8.8205566-.6345196c-.1096916-.3430653-.6947556-1.0517769-1.4958496-1.4182129-.6904297-.3144531-1.5068359-.3769531-2.2363281-.1669922-2.4426995.6950761-2.189499 3.8660642.7968749 3.3945294zm.0878906-2.7675762c.3583984 0 .7167969.0751953 1.0410156.2226563v.0009766c.3076172.1396484.5917969.3486328.8798828.6689453.0830078.0927734.1982422.21875.1748047.265625-.6620102.6156063-2.4730988 1.0223103-3.1601563.8808575-1.3129958-.2733346-.7871322-2.0390607 1.0644532-2.0390607z"/><path d="m8.5422173 26.6292782c3.9364529 6.5856838 11.1701183 6.7125874 11.0700684 6.6801739.4839859 0 .5011139-.7263069.0195313-.7490234-4.2645264-.2207031-8.3660889-2.7453594-10.5140381-6.4396954.9946709-2.1016064-.4220819-4.3320122-2.0533447-4.470459-1.3230534-.1142902-2.4990835 1.2337551-1.1386719 3.0595703.5102919.6827507 1.7585515 2.0619221 2.616455 1.9194336zm-1.5393067-4.230957c.9998951.081913 2.1347723 1.5321445 1.5195313 3.2119141-.0429688.1171875-.1005859.2763672-.1513672.2773438-.8678169-.3017807-2.065619-1.7214413-2.2578125-2.3828125-.2059698-.7100545.2808947-1.1532728.8896484-1.1064454z"/><path d="m59.9658012 24.8162899c-1.25.1103516-2.5800781-.4443359-3.375-1.4238281-.1652679-.2035637-.5024529-.1818085-.6269531.0693359-.4882813.9833984-.3613281 2.1826172.3164063 2.9853516 1.1424561 1.355999 3.3816452 1.236578 4.0927734-.0146484.3056641-.5380859.2695313-1.0976563-.0966797-1.4970703-.0791015-.0859376-.1923828-.131836-.3105469-.1191407zm-.9921875 1.7763672c-1.3507309.4096336-2.8136406-.6966419-2.5205078-2.2539063.9013672.8300781 2.1269531 1.2753906 3.3525391 1.2392578.0972328.2793484-.1311112.8043728-.8320313 1.0146485z"/><path d="m27.7730522 32.7625771c.137207-.1337891.0615234-.3666992-.1279297-.394043-1.2254238-.2106552-1.3614197-.1222191-1.4553223-.3127441l-.572998-1.1608868c-.0847168-.171875-.3295898-.171875-.4143066 0l-.5731201 1.1608868c-.0932827.1899605-.2343102.1028709-1.4552002.3127441-.1895752.0273438-.2651367.2602539-.1281738.394043l.9272461.9038086c.1530285.1489143.0252552.2544708-.1523438 1.4804688-.0324707.1887207.1656494.3327637.3352051.2436523l1.1459961-.6025391c.1889515-.0994453.2500057.0547066 1.361084.6025391.1694336.0891113.3675537-.0549316.3352051-.2436523-.1775875-1.2252007-.3045311-1.3324928-.1524658-1.4804688z"/></g></svg>