<svg id="Layer_1" enable-background="new 0 0 75 75" viewBox="0 0 75 75" xmlns="http://www.w3.org/2000/svg"><g id="Dog_Walking" fill="rgb(0,0,0)"><path d="m48.7982368 19.2152233c-.6137695-.1113281-1.229126.4481201-1.3742676 1.2495117-.1452637.8012695.2346191 1.5410156.8483887 1.6520996.6137695.1113281 1.2290039-.4481201 1.3741455-1.2493896.1451417-.8013916-.2346191-1.5411377-.8482666-1.6522217z"/><path d="m56.8990669 19.6361217c-.6210938-.0574951-1.1854248.5532227-1.260498 1.3640137-.0751953.8109131.3673096 1.5148926.9884033 1.5725098s1.1854248-.5532227 1.2606201-1.3640137-.3674316-1.5148926-.9885254-1.5725098z"/><path d="m52.7788277 64.6131744c-1.4499245.3097305-1.6272736 1.6115799-.1923828 2.171875 1.665226.6543198 3.5869827 1.0009766 4.5966797 1.0009766 1.3789635 0 1.8678055-1.008606 1.6132813-1.7099609-.2508545-.6885986-1.1412354-1.0859375-1.8907471-1.3336182-2.4384766-2.8660889-3.6535645-6.6539307-3.3289795-10.4046631.0175781-.2060547-.1357422-.3876953-.3417969-.40625-.203125-.0214844-.3876953.1357422-.40625.3417969-.3133545 3.6286621.7525635 7.2830811 2.918335 10.1945801-.9066163-.1254883-1.9289552-.0787354-2.9681397.1452636zm5.3125 1.71875c.0283203.0771484.0488281.2041016-.0908203.4169922-.1494141.2294922-.5302734.3212891-1.1269531.2714844-1.3759766-.1142578-2.7265625-.4277344-4.0136719-.9335938-.3154297-.1230469-.5097656-.2734375-.5087891-.390625.0070915-.475235 2.6381226-.7557831 4.078125-.3193359 1.2861328.390625 1.59375.765625 1.6621094.9550781z"/><path d="m69.2251129 61.3241119c-.8375702-.4493866-1.3770981.132988-1.9168701.8095703-1.3220215-.869751-2.6705322-1.8341064-3.5499229-3.1777344-.9560547-1.4638672-1.1171875-3.2041016-.4121094-4.4345703.1035156-.1796875.0410156-.4091797-.1386719-.5117188-.1777344-.1044922-.4082031-.0410156-.5117188.1386719-.8447266 1.4726563-.6738281 3.5205078.4355469 5.2177734.9295616 1.421875 2.2974815 2.4222412 3.649044 3.3150635-.4964447.4629059-.9232559.8706398-1.237915 1.4720459-.3378906.6484375-.3789063 1.2265625-.1171875 1.6728516.398262.6800766 1.3041458.6649323 1.2041016.6396484 1.2177658 0 3.0089111-1.4702835 3.2304688-3.5449219.0791015-.7421874-.1582032-1.3388671-.6347657-1.5966796zm-1.8134765 4.1357422c-.9483566.5503616-1.8019028.1865387-1.2050781-.9589844.3482208-.6626587.8673553-1.0382538 1.4521484-1.6230469.4422379-.4422379.7421951-1.1486244 1.2089844-.8935547.5357055.2889672.2762527 2.4738084-1.4560547 3.475586z"/><path d="m5.3901544 39.5702057c1.2548828.3828125 2.6621099.2607422 3.8378911-.3183594.1893311.3955078.2857666.8312988.3106689 1.2668457-.2512207.2441406-.5.5020752-.7432861.7888184-1.3723922 1.6441116-1.711103 5.1365547-.203125 7.9423828.6923075 1.2759056 1.4076338 1.6958542 2.2232666 1.8602295-.1623535 2.6922607.6794434 5.4477539 2.3128662 7.5772705-1.8853073-.0460854-5.0366507.5522919-5.8886724 2.1445313-.4775391.8837891-.1904297 2.1044922.6513672 2.7744141 1.3131862 1.0744247 3.2314601.0366516 3.4423833-1.5205078l.1551514.0202637c.0087891.0072021.0157471.0161133.0251465.0224609-.1405029.8803711-.744751 1.689209-1.5611572 2.0422363-.7130527.3075867-1.5944223.5240402-1.7246094 1.3691406-.1672611.9491043.8748627 1.5712357 1.8242188 1.6210938 2.7029877.0955124 5.0284662-1.9825592 5.1367188-4.7529297 1.1549559-.0625229 1.9326944-.479599 2.7578115-1.1171875 1.8316059.9035912 3.8573799 1.1752815 5.7128906.9003906-.1298828.6503906-.6044922 1.2363281-1.2236328 1.4580078-.8218727.2957344-2.1083946.194809-2.6113281 1.1884766-.4567051.8782806.2210941 1.9680176 1.1455078 2.2441406 1.6887531.493927 3.5050068-1.1451797 4.8007813-2.3144531.8540154-.77528 1.7279072-1.569809 2.3017578-2.6054688.698473.1653137 4.3008633 1.067421 4.8964863 1.6123047.1982422.1796875.3505859.4921875.2607422.7402344-.2053108.5678787-1.4590759.5652771-1.9785175 1.3720703-.4745121.7251587-.0905991 1.7395706.6865234 2.1669922 1.7688656.9430008 4.799654-1.0283356 4.8847675-3.9238281.0529366-1.8070602-.9824638-3.3578987-1.9130859-4.765625-.2732964-.4122581-.8992615-.000843-.625.4140625.8652 1.314167 1.8347359 2.7423668 1.7880859 4.3300781-.0704002 2.4193344-2.5711212 3.923172-3.7773438 3.2861328-.378891-.2086639-.6479874-.7428741-.415041-1.0996094.3619442-.5640717 1.6982059-.5332642 2.0546894-1.5244141.1845703-.5078125 0-1.1298828-.4599609-1.5507813-.3798828-.3466797-.8671875-.5117188-1.2587891-.6455078-1.2691669-.4282227-2.538332-.7861328-3.7857685-1.0869141-.0456543-.0522461-.1008301-.0965576-.1722412-.1171875-.9726563-.2822266-1.8554688-.9267578-2.421875-1.7666016-.2755852-.4110451-.9000607.007328-.6210938.4199219.5299072.7849121 1.2996826 1.4123535 2.1668701 1.8063965-.540987.9577255-1.3553696 1.6832657-2.1141357 2.3811035-.7099609.6416016-1.4433594 1.3046875-2.2666016 1.7705078-1.9743118 1.1095657-2.8049831-.2330704-2.5087891-.8017578.2971191-.588356 1.3715076-.5258331 2.1962891-.8242188 1.0693359-.3818359 1.8066406-1.4892578 1.7539063-2.6328125-.0119991-.2219849-.2122211-.393322-.4472656-.3505859-2.0535755.4031563-4.1177578.0944099-5.9335938-.8642578-.1445313-.0771484-.3242188-.0507813-.4404297.0654297-1.087204 1.1069679-2.5113602 1.0516434-2.6123037 1.0784912-.0614014.0006104-.1208496.0128174-.1826172.010376-.1064453-.0029297-.2050781.0371094-.2792969.1113281-.0050049.0048828-.0067139.012207-.0113525.017334-.3102684.0121956-.6295137-.0570641-2.4116211-.2944336-.2161694-.1511536-.006937-.0264931-1.1053467-.208252-.2406731-.0367126-.4537621.1699944-.4248047.4140625.1210155 1.050415-1.2661505 2.1086197-2.2324219 1.3212891-.5605474-.4462891-.7675786-1.2695313-.4619145-1.8369141.2402349-.4462891.7216802-.7988281 1.5175786-1.1064453 1.421875-.5517578 2.9833984-.7568359 4.5185547-.5888672.1191406.0083008.2259521-.0480957.3057861-.1342773 1.0872803-.1784668 2.1130362-.782959 2.7694082-1.6655273.2975407-.3982849-.309063-.8465538-.6015625-.4472656-.5570059.7489014-1.4395742 1.2353516-2.3653555 1.3653564-1.7202148-2.0250244-2.6320801-4.7480469-2.4797363-7.4180908.1029663.0012016-.0063953.019062.7532959-.015625 2.0672827-.0956345 4.2387171-.223732 5.8958731-1.6241455.152832 1.18396 1.0739746 2.2550049 2.4595947 2.8048096 2.8695602 1.1651535 6.2149658-.9061661 9.03125.1083984 2.283453.7200508 2.425684 3.13414 3.3105488 5.1123047.2028656.4501076.8871918.1482315.6855469-.3066406-.3461914-.7731628-.5901184-1.6792793-.9244385-2.5336914 2.1789551-2.3479195 2.7301292-5.6138458 1.6412354-8.4418945-.1835938-.4755859-.5039063-1.1347656-1.1679688-1.3730469-.2406158-.0871201-.5052071.0940132-.5009766.3603516.0452881 2.4196777-.7225342 4.8051758-2.154665 6.7526855-3.2061291-1.6622314-6.8215427.7665482-9.6412354-.3747559-.9552002-.3786621-1.8914795-1.2133789-1.9952393-2.2662354 1.6851768.7212906 3.3004189 1.3392677 5.1280518 1.2935791 1.9287109-.0664063 4.1162109-1.2226563 4.5644531-3.3046875.300663-1.3939781-.2320423-2.994297.5517578-3.9082031 1.3491173-1.5756111 4.4007587.6005211 7.23633-3.37146 1.3969994.296402 3.6322441-.024929 4.006958-1.178833.4154701-.1510811 3.3075294-3.4208412 9.0311279-5.0307617.0374756-.0107422.0687256-.03125.0997314-.0515137-.4166641 2.2430344-.7117157 5.806324-.8137207 8.0762939-.3708725-.0207405-2.497036.760643-5.7293701.1646729-.1034241-.0587006-.202919-.0509911-.3220215-.0727539-.15271-.2193604-.4294434-.3647461-.7404785-.5258789-1.6443138-.8625183-2.8351517-.9284134-3.4208984-1.0498047-4.5841293-.5166969-2.4928322 5.9802933 2.484375 3.5605469.6183891-.3016548 1.3621674-.6619072 1.6727295-1.2236328 1.9699821.3914337 3.9189224.3894882 6.0244141-.1014404-.0670166 1.9649658-.0600586 3.932251.0440674 5.8955078.1791191 3.3769302 1.2206917 4.283741 4.2843018 4.5932617 3.9614258.4000244 7.9592285.4406738 11.9279747.12146 2.9914474-.2404976 4.1138077-1.3981285 3.3826904-4.8703613-1.1507568-5.4641113-3.3040771-10.7155762-6.320797-15.4147949-2.6901894-4.1892929-3.7075729.2747498-9.7596436-.9077148-.8175545-.1597652-2.0514297-1.1865234-2.5180664.7871094-.0349121.1477051-.0592041.2995605-.0906982.4487305-.0874023-.1269531-.2446289-.1920166-.4077148-.1523438-3.2963867.9274902-6.3709717 2.6252441-8.9251709 4.9075928-.4786835-.8642159-2.3268471-2.0133324-3.7457275-1.8001709-.7503777.1117554-1.4264412.571476-1.8720703 1.1425781-.7237663.9082108-.5988388 1.8697815.9541016 2.4561768-1.4704285 1.9274521-2.8443184 2.0217781-4.1162128 2.1043701-1.0791016.0683594-2.1943359.1396484-2.9365234 1.0048828-1.0373669 1.2120323-.4263992 2.902401-.7138672 4.2382813-.3642578 1.6894531-2.2597656 2.6582031-3.8574219 2.7128906-1.7352295.0721436-3.4549561-.6506348-4.9901123-1.3118896.8781834-1.2184906 1.3243141-2.8369255 1.0234375-4.7496338.4959774.1102142.4806042.0781021.5985107.6054688.2329464.9953156 1.1433353 2.3476563 2.1572266 2.3476563.6858368 0 1.1553116-.5316887 1.0214844-1.2900391-.0330734-.1813354-.0916481-.3436966-.1865234-.6259766-.4310036-1.4103317.4980412-2.0158043.2929688-2.8505859-.1343803-.5350609-.7010956-.993248-1.6552734-.8925781-.1080246-.4765854-.4918575-.8707733-.9667969-.9521484-1.0213833-.1807327-1.7219925.9705162-2.3743896.8537598-.0709038-.1008263-.184763-.312252-.5318604-.6809082-.3352661-.3632088-.8873501.1501083-.546875.5117188 2.1121063 2.2709084 2.0715942 6.2159271-.1923828 8.0966797-1.4801159 1.2375832-3.582921 1.3424492-5.444335 1.4277344-1.4534092.0739021-2.2008114-.0361519-3.0136719-1.5332031-1.3723621-2.5553284-1.043108-5.7109604.1181641-7.1035156.3581333-.4219818.8963528-.9028587.9139404-.9494629 2.0087557-1.8250847 4.1716814-2.0555077 6.0821524-1.0974121.4413319.2241669.7804375-.4476738.3359375-.6699219-1.4683018-.7386246-3.1448565-.8621902-4.762084-.1950684.1767578-.9501953.0531006-1.9597168-.3824463-2.8215332-.4106655-.8169785-1.1440096-.7528305-1.5107422-.1367188-.1648426.3376389-.2064772.4884377-.7421875.3789063l-.1396484-.0302734c-2.1476173-.4780655-1.4721293 1.5041313-3.8242192 2.6035156-.3083155.1434513-.2797954.5984913.0498045.6982418zm9.0177006 22.9691162c-.1871061 2.377182-2.1373529 3.9264679-4.3223877 3.8726807-.4498243-.0251541-1.1958036-.3075714-1.1171875-.7490234.0601082-.3946228.7097731-.5568771 1.2822266-.8037109 1.0560303-.456543 1.817749-1.4605713 2.0024414-2.5878906 1.5979538.2122916 1.7871189.2576712 2.1549072.2679442zm19.0770274-16.4593506c.5180588.8387642.9554253 2.7700081.5742188 4.6191406-.2476807 1.2020264-.8265381 2.342041-1.623291 3.2810059-.4243088-.831131-.7310143-1.1513176-1.2144794-1.5336914 1.3544939-1.8546143 2.1474627-4.0775147 2.2635516-6.3664551zm7.171875-2.7353515c-3.5104332 1.703968-5.2864761-2.1894531-2.6181641-2.1894531 2.0073204 0 3.9014091 1.18433 4.046875 1.2265625 0-.0000001.0607109.2335662-1.4287109.9628906zm21.4033203 3.859375c.4391289-.2360916.7915077.4269791.3554688.6601563-1.3318863.7150955-2.9631996.9688797-4.4726563.6621094-.4968834-.1003342-.3246765-.8476563.1484375-.734375 1.328125.267578 2.774414.0537108 3.96875-.5878907zm-3.2910157-11.921875c.1220703-.1669922.3554688-.2041016.5234375-.0839844.1679688.1210938.2050781.3554688.0839844.5234375-2.1689453 3.0039063-5.6474609 5.3320313-10.3369141 6.9208984-.0400391.0136719-.0800781.0195313-.1201172.0195313-.024292 0-.0444336-.015625-.0675049-.0214844.3660927-.1196785.3328629-.6345406-.0322266-.7165527 4.5283204-1.5368653 7.8754884-3.7712403 9.9493409-6.6418457zm-19.0332031 3.4052734c-.0654297.2128906-.4560547.4628906-.9501953.6083984-.6097412.1774902-1.258667.2030029-1.8902588.1125488.4204102-.7055664.7685547-1.4481201 1.1008301-2.1815186.4614258.1783447.8996582.4351807 1.2210693.7076416.3007813.2548829.5888672.5214845.5185547.7529298zm-4.1582031-1.0849609h.0009766c.387928-.3647232.8624077-.6005859 1.3955078-.6005859.092041 0 .1885986.0251465.2833252.0371094-.3383789.7458496-.6934814 1.4973145-1.1276855 2.1901855-1.0682794-.3524209-1.4956742-.7328225-.5521241-1.626709zm-14.0615254 3.5605468c.0732422.1103516.1015625.2412109.0751953.3496094-.0629177.2536964.1508904.4988098.4257813.4580078.2949219-.0488281.5742188-.0957031.8203125-.0429688.2060547.0429688.3759766.1738281.4111328.3154297.0455761.1834679-.0941219.4743195-.2060547.7460938-.633913 1.6472321.3112259 2.6131668.0566406 2.9892578-.0556641.0800781-.203125.1181641-.3388672.0917969-.1523438-.03125-.3173828-.1328125-.5048828-.3105469-.9561367-.9059372-.7332649-1.8223686-1.1933594-2.2724609-.2255859-.2207031-.5146484-.28125-.8066406-.3417969-.3102951-.0650024-.2757835-.1144409-.3686523-.2145996-.1248779-.4035645-.2894287-.786377-.4788818-1.1501465.8739662-.2250328 1.669117-1.2882881 2.1082763-.6176758zm-13.0976552-4.211914c.4288149-.1150513 1.3127031.4462128 1.9462891-.15625.1098194-.105629.1665335-.1947403.3261719-.4912109.0589743-.0994148.0708065-.1611214.1962891.0898438.4552002.9017334.5115967 1.9975586.1590576 2.9428711-.2781982.168457-.5527344.359375-.8232422.5750732-.0947266-.4799805-.2657471-.9431152-.5252686-1.3636475-.1083984-.1748047-.3388672-.2304688-.5107422-.125-.7919922.4697266-1.7324224.6796875-2.6591802.6044922 1.3078623-.9856759 1.3630762-1.9293976 1.8906255-2.0761719z"/><path d="m15.4526548 47.2684479c-1.0068359-1.8144531-3.1464844-2.9228516-5.2119141-2.6943359-.4796696.0545578-.4292784.7831421.0820313.7460938 1.7646484-.2011719 3.6103516.7548828 4.4736328 2.3115234.2395487.4346084.8976069.0702209.65625-.3632813z"/><path d="m10.4122496 43.9911041c.4862061.1542969 1.0523682-.2631836 1.2646484-.9324951s-.0097656-1.336792-.4958496-1.4909668-1.0522461.2633057-1.2645264.9326172c-.2122802.6691895.0096436 1.336792.4957276 1.4908447z"/><path d="m16.8584156 44.9676666c.2122803-.6693115-.0096436-1.3369141-.4958496-1.4909668-.486083-.1542969-1.0522451.2631836-1.2645254.9324951s.0097656 1.336792.4958496 1.4909668c.486083.1541748 1.0522451-.2633056 1.2645254-.9324951z"/><path d="m10.7094908 47.5555573c-.1552038.3809509-.9083767.4402161-1.3310547-.4755859-.2109032-.4546165-.8866997-.134903-.6816406.3125.3633366.7901459 1.060359 1.3120499 1.8599854 1.130127.2202415 1.0741615 1.5440855 1.5153809 2.6419678 1.5153809.6576948 0 1.6053419-.3478966 1.2373047-.8583984-.1220703-.1689453-.3554688-.2060547-.5234375-.0839844-.5282707.3813324-1.6932049.0954094-2.0966797-.1171875-.5338984-.2772598-.6366234-.7403145-.4667969-.9941406.0503368-.0750313.0512085-.1321449.0682373-.2172852.0432129.0102539.0844727.0279541.1287842.0332031.289093.0336151 1.0679026-.0844154 1.2532959-.3068848.2153034-.2585182.0489225-.5977707-.2165527-.857666-.4279785-.4187012-1.0126953-.7026367-1.6103516-.7626953-.5866699-.0588379-.5717773.8251953-.4013672 1.2093506.0563965.1270752.1418457.2368164.2380371.336792-.0416261.0371092-.0776368.0810545-.0997315.1364745z"/><path d="m25.7749195 23.3065319c-.1914063-.078125-.4101563.0175781-.4853516.2119141-.0761719.1923828.0185547.4101563.2119141.4853516 1.9697266.7744141 3.6914063 2.0722656 4.9775391 3.7529297.2967911.3866081.8996716-.0592117.5957031-.4550781-1.3691406-1.7900392-3.2021484-3.1718751-5.2998047-3.9951173z"/><path d="m32.3364449 24.0047741-3.3095722-3.8974609c-.1347656-.1572266-.3691406-.1767578-.5292969-.0429688-.1572266.1347656-.1767578.3710938-.0429688.5292969l3.3095703 3.8974609c.3220234.3771038.8929997-.1070671.5722676-.4863281z"/><path d="m33.822773 18.3670788c-.2060547.0273438-.3505859.2148438-.3242188.4199219.2988281 2.3037109 1.0488281 4.5947266 2.1689453 6.6259766.2406425.4365997.8963127.0698566.65625-.3613281-1.0742188-1.9501953-1.7939453-4.1494141-2.0810547-6.3603516-.0263671-.2050782-.2148437-.3496094-.4199218-.3242188z"/><path d="m66.233902 14.315321c-.2397537-2.1666622-2.13694-3.7344131-4.1259727-4.6240234-.1621094-.0722656-.3203125-.1425781-.4677734-.2167969.102272-.0627575.4728012-.2554359.984375-.7304688.5216713-.0021553.5091515-.7297115.03125-.7499995-.8173828-.03125-1.7060547.1494136-2.4580078.5166011-.1621094-.6894526-.6044922-1.3105464-1.2548828-1.7304683-.0039063-.0029297-.0078125-.0048828-.0126953-.0078125-.4127083-.2658114-.8194466.3650551-.4013672.6328125.0019531.0019531.0039063.0029297.0068359.0048828.125.0839844.1962891.3994141.2080078.7128901-1.1049385-.7485051-3.3001099-1.4310212-5.6787109-1.2968745-2.3544922.1328125-4.7060547 1.0253906-6.4521484 2.4472651-.2401657.1966715-.150795.5850086.1513672.65625-2.0429688.9511719-3.7265625 2.4882813-4.6376953 4.3105469-.1664391.3307114.2026405.683486.5292969.4892578l.984375-.5966797c-.4394531 1.1435547-.5380859 2.3564453-.2724609 3.515625.0704803.3068066.4795914.4067268.6738281.1298828l.5654297-.8173828c.0192566 1.171526.4436989 2.336792.8681641 2.9140625.0419922.0566406.0947266.125.1259766.1767578.012085.0515137.0443115.0936279.0759277.1352539.7190781 12.5948162 15.5665894 11.6776886 17.4434814 4.1245117 1.6359596.1839638 2.4789009-1.7122231 1.4648399-2.8222656 1.1550217-2.3530045 1.14534-5.0121002-.0174561-7.3515625l1.1279297.5556641c.2598646.1267644.5702818-.079607.5380858-.3779296zm-4.2373009 10.9248047c-2.3452415 5.0013123-12.8866653 6.1407738-15.1875-2.5888672-.3030281-1.1239777-.4182549-2.4066849-.3968506-2.9329834.4646225-1.9931278 1.3094749-3.2626324 2.4378662-4.5855713-.0369034.1020269-.199234.5677643-.2695313.7939453-.1033401.3336945.2688713.6175976.5634766.4248047l4.5341797-2.9628906-.5625.9179688c-.0820313.1337891-.0712891.3046875.0263672.4277344.0976563.1240234.2626953.1738281.4101563.1240234.9873047-.3232422 1.9140625-.8369141 2.6777344-1.4785156.1068802.5503225-.1640739 2.0817385.625 2.1435547.3193359.0195313.5126953-.2792969.6425781-.5019531l.2441406-.3886719c.3535156 1.1318359 1.1318359 2.1269531 2.1650391 2.7207031.265934.1531811.5948334-.062151.5585938-.3691406-.0390625-.3339844-.0507813-.6054688.0214844-.8427734.097374-.3228731.358223-.5462713.6776123-.3930664.608551 1.2421551.6406441 2.0920238.9942627 3.8706055.324688 1.6126785.2275391 1.477623.2921143 1.6171875.172119 1.1567381.2409666 2.5270994-.4542238 4.0039061zm2.0615196-2.0029297c-.1679649.203125-.4306602.328125-.6962852.34375-.0302734-.0217285-.0670166-.0313721-.1026611-.0430908.0852051-.6793213.0646973-1.3162842-.0012207-1.8966064.0306396.0093994.0604248.0213623.0941162.0227051.7941856.0286006 1.2085533.9658755.7060508 1.5732421zm-.2998008-10.3339844c-.3576622-.1698885-.6948624.2444572-.4707031.5556641 1.5051231 2.0995388 1.8872185 4.9452705.7343712 7.5029297-.2539024-.171875-.5556602-.2734375-.8623009-.2900391-.0284653-1.232542-.3866577-4.2806511-1.1582031-5.1982422-.8055801-.9615736-2.1623535-.5512276-2.3046875.8173828-.7841797-.6689453-1.3027344-1.6425781-1.3984375-2.6728516-.0323906-.3541365-.4952126-.4676361-.6884766-.1679688l-.5917969.9228516c-.004879-.2000427.0061569-.4337883-.0087891-.6347656-.1301537-.9614611.0422897-1.3861446-.3398438-1.5214844-.1396484-.0488281-.2949219-.0117188-.3974609.0957031-.5253906.5556641-1.1855469 1.0371094-1.9160156 1.4052734l.8310547-1.3583984c.2082748-.3412189-.1900482-.7261734-.5244141-.5107422l-5.0185547 3.2802734c.1191406-.3535156.2285156-.7158203.2929688-1.0810547.0244141-.1376953-.0302734-.2783203-.140625-.3632813-.4373703-.3299446-1.2380638.6322136-1.6015625 1.0605469-.1039467.1469164-1.6131439 1.6442127-2.3701172 4.2236328-.8708191-1.8999653-.1659355-3.1498375-.5283203-3.4833984-.0849609-.0791016-.2021484-.1103516-.3164063-.0947266-.4076805.0692291-.6068039.5693817-1.0039063 1.1650391-.0439453-1.09375.2636719-2.2089844.8994141-3.2167969.2103577-.334362-.1751366-.7259541-.5117188-.5205078l-.7138672.4316406c1.3125-1.6435547 3.3515625-2.8886719 5.625-3.3789063.437027-.0923615.3675156-.7412109-.0791016-.7412109-.0029297 0-.0058594 0-.0097656 0l-1.1201171.0283205c4.5600891-2.8319607 9.7513351-1.2237716 10.6464844-.0576172.0810547.1054688.2119141.1630859.3417969.1445313.2832184-.0335665.3557854-.3139572.4052734-.59375.1080475.4266567-.0299377.6389189.2509766.7929688.3302917.1799164.3810577-.1467018 1.3164063-.4658203-.485672.3512726-.4671974.700058-.234375.8652344.7591972.5395575 3.6798973 1.3663082 4.5312462 3.8300781z"/><path d="m54.2671089 8.9950085c-1.2636719.3955078-2.4628906.9697266-3.5654297 1.7070313-.4145813.2763872.0103188.8976707.4160156.6230469 1.0429688-.6972656 2.1787109-1.2402344 3.3740234-1.6132813.4617349-.1462918.2674828-.8533583-.2246093-.7167969z"/><path d="m55.5952339 24.7010632c-.1982422-.0273438-.3964844.1074219-.4287109.3115234-.1986961 1.248951-1.7667122 1.7503262-2.6523438.8271484-.3434906-.3575096-.8852081.161293-.5410156.5195313 1.2971344 1.3555641 3.6354408.6486492 3.9335938-1.2294922.0332031-.2041016-.1064454-.3964844-.3115235-.4287109z"/></g></svg>