<svg id="Layer_1" enable-background="new 0 0 75 75" viewBox="0 0 75 75" xmlns="http://www.w3.org/2000/svg"><g id="_Feeling_Hurt" fill="rgb(0,0,0)"><path d="m40.5052261 28.4487267c-1.1717033-.7789173-2.4523811.2926483-4.7558594.4472656-3.2696495.2279758-5.4442787-1.2129745-5.6738262-1.2915039-1.9827232-1.0050545-2.5220852.8338985-3.0107422 3.0126953-.3139305 1.4126892-2.9386311 9.3339806-3.5322266 11.6123047-.1241093.4812164.6024265.6696014.7265625.1894531.5764809-2.2167625 3.184082-10.0673752 3.5380859-11.6376953.775423-3.4672508 1.2321377-2.8601398 2.4638672-2.2397461 7.1913738 3.4372482 9.8920841-2.3020725 10.5664043 2.2050781.0168839.1092987 2.2302666 14.431221 2.5136719 16.2539063.125.8100586.1738281 1.6176758-.3095703 2.0415039-.5351563.4790039-1.4882813.3647461-2.2578125.3935547l-3.3779297.1181641c-5.3067055.213356-7.8689785.2818146-8.8945293.3569336-4.3207455.3119659-5.8425369-.3899384-4.5234375-6.3408203.1070385-.4816742-.6218414-.6479568-.7324219-.1621094-1.2516289 5.652813-.2603092 7.6545181 5.3105469 7.2509766.8803806-.0637131-.5702248.0008659 12.2441387-.4736328.859375-.0297852 1.9609375.1064453 2.7285156-.581543.8564453-.7504883.6523438-2.0786133.5537109-2.7177734-2.766033-17.7924234-2.4823378-17.7419416-3.5771483-18.4370118z"/><path d="m29.2171421 51.7748985-.7913818 14.0539589c-.9461555.1010361-2.9212894 1.0812454-3.362915 1.2648926-.5615234.234375-1.5019531.6264648-1.40625 1.5292969.0553474.5405273.5647068 1.0634766 1.4111328 1.0634766.8544006 0 2.6199303-.4994736 4.0654297-1.6152344h.0009766c1.2472115-.9632263.9378929-1.8693466.0385742-2.1764526l.7924805-14.0779457c.0282515-.4979516-.7223817-.5343133-.748047-.0419923zm-4.4511719 17.1225624c-.1923828-.0571289-.3486328-.2080078-.3632813-.3520508-.0341797-.3222656.4091797-.534668.9492188-.7592773.5305595-.2226486 1.0685978-.5158539 2.3876953-1.0175781.7199612-.2738571.8081875-.2038193.9082031-.2207031.2558594.0053711.5419922.1469727.5605469.2451172.1291161.6848754-3.3598022 2.4283752-4.4423828 2.1044921z"/><path d="m44.6790543 62.6586876c-.5637512-.362278-1.6219673-.3495293-2.28125-.2480469-1.3006401.1961288-2.0779457.7877769-2.2850342.895874l-2.7940674-11.8216553c-.1148949-.4830322-.8428421-.3105888-.7304688.1728516l2.87854 12.1793213c-.3839378.5388603-.1041412 1.1324806.4417725 1.3504677.4880753.1952286 2.1529846.1347427 2.6748047.0727539.9895515-.1195221 2.5561829-.611618 2.6337891-1.6088905.0283203-.375-.1835938-.7646485-.5380859-.9926758zm-.5654297 1.3364258c-.4326172.2680702-.9775391.4428749-1.6191406.5200233-.4362297.0517578-2.0123787.0941238-2.3085938-.0239258-.0878906-.0356445-.1328125-.0893555-.125-.2138672.0006104-.0009155.0023193-.0018311.0028076-.0027466.0584717-.0335083.1074219-.0777588.1398926-.1347046 2.3194961-1.6919479 5.3070679-1.017147 3.9100342-.1447791z"/><path d="m57.2679214 29.7460899c-1.4633827-.5937939-3.9855042-.485014-4.9007568.973938-2.7194824 1.8047485-6.2171631 2.4063721-9.3804932 1.5978394-.4840393-.1198578-.6642609.6039658-.1855469.7265625 3.2041893.817688 6.739872.2864418 9.6085205-1.4675903 1.1016846.7999878 2.5540771 1.0921021 3.7303467 1.0921021 2.8767777-.0000001 3.0043221-2.1601258 1.1279297-2.9228517zm-.6435546 2.1542969c-1.3066406.1044922-2.6835938-.2099609-3.6132813-.8061523.6858253-1.0573082 2.8050423-1.1277313 3.9755859-.652832 1.1092797.4500655 1.0701676 1.3523692-.3623046 1.4589843z"/><path d="m13.8099155 44.4013634c.6756201 0 1.2414646-.358284 1.7705078-.784668.0322266-.0258789 3.2402344-2.6733398 3.1933594-4.2895508-.0059814-.194458-.0646973-.3654175-.1556396-.5184326 3.3936768-1.8990479 6.0805664-4.8896484 7.5814209-8.4932861.1924534-.4588356-.5020142-.7440281-.6914063-.2880859-1.4822998 3.5567017-4.1655273 6.4975586-7.559082 8.3029175-.6456299-.1219482-1.4598389.3408813-1.9829102.6433716-.2735415.1726646-1.3180037.6260376-2.6503906 1.9199219-.3632813.3535156-.7597656.7895508-.9462891 1.3457031-.3583688 1.0616301.226615 2.1621093 1.4404297 2.1621093zm-.7294921-1.9228516c.1357422-.4047852.4599609-.7563477.7587891-1.046875 1.1656046-1.1328545 2.2792377-1.6680908 2.5029297-1.809082.5786438-.3343887 1.6598625-.9376755 1.6816406-.2734375.0299549 1.0259895-2.8468199 3.972168-3.9003906 4.2597656-.3369141.0922852-.6806641.0327148-.8759766-.1484375-.2607422-.2407227-.2695313-.6772461-.1669922-.9819336z"/><circle cx="38.557" cy="18.316" r="1.145"/><path d="m30.3879185 17.65765c-.6323242 0-1.1448975.5125732-1.1448975 1.1448364 0 .6323242.5125732 1.1448364 1.1448975 1.1448364.6322021 0 1.1447754-.5125122 1.1447754-1.1448364 0-.6322632-.5125733-1.1448364-1.1447754-1.1448364z"/><path d="m58.5765152 27.6748009c.125 0 .2275391-.0512695.3056641-.090332.5951462-.2434673 1.0261879-.52841 1.5371094-.8999023 1.3065262-.9498577 2.6766548-1.9988251 3.2666016-3.4282227 1.4526749-3.5268536-3.0016975-5.9210243-5.1845703-3.0429688-.9216003-1.2023849-2.137928-1.5398331-3.265625-1.1728516-1.9417572.6318722-2.3757629 3.1523571-1.5654297 4.7441406.3603516.7119141.9150391 1.34375 1.7978516 2.0483398.0009766 0 .0009766.0004883.0009766.0004883.3164063.2519531.6435547.4902344.9794922.7138672.3492622.2330933 1.8294716 1.1157093 2.1015625 1.1269531.0097654.0004884.0185545.0004884.026367.0004884zm4.4160156-4.7045899c-.5229568 1.2668724-1.8411026 2.2553635-3.0146484 3.1079102-.7074699.5130634-.7796593.5093441-.8798828.5639648l.9755859-2.0708008c.0892563-.1876373.0078354-.4123936-.1816406-.5l-1.1503906-.5317383c.3701172-.4296875.7539063-.8417969.953125-1.0063477.2817764.0979042.6159973-.4671516.2363281-.7163086-.133667-.1295166-.5396729-.541626-.9472656-.9588623 1.558525-2.48818 5.1689758-.6985911 4.008789 2.1121827zm-7.0566406 2.2763672c-.7949219-.6342773-1.2871094-1.1894531-1.5976563-1.8012695-.6093025-1.1978893-.3368683-3.2141724 1.1298828-3.6918945 1.1548233-.375391 2.1623497.3330402 2.7128906 1.3369141.039196.0711231.8146782.8509064.9277344.9624023-.2675781.237793-.6621094.6542969-1.2597656 1.3833008-.0732422.0898438-.1015625.2084961-.0751953.3217773.0688019.3056278.3354034.2688541 1.4609375.8354492l-1.0018311 2.1273193c-.114521-.0708351-1.0862884-.5109367-2.296997-1.473999z"/><path d="m16.0560093 33.4877892c-1.3574219.1347656-2.7353516-.7207031-3.2177734-1.9897461-.0722656-.1933594-.2890625-.2900391-.484375-.2172852-.1933594.0737305-.2900391.2905273-.2167969.4838867.5999985 1.5772285 2.3203583 2.6379242 3.9931641 2.4692383.2060547-.0205078.3564453-.2041016.3359375-.4101563-.0205079-.2055664-.1933594-.3613281-.4101563-.3359374z"/><path d="m11.4007359 35.6591759h1.8652344c.4960136 0 .496314-.75 0-.75h-1.8652344c-.4960137 0-.4963141.75 0 .75z"/><path d="m15.8948765 35.1630821c-1.0595703.4291992-1.9794922 1.1962891-2.5917969 2.1601563-.2685003.4215927.3717642.8135834.6328125.4023438.5292969-.8334961 1.3251953-1.496582 2.2402344-1.8671875.4595718-.185463.1805286-.8790818-.28125-.6953126z"/><path d="m46.1517105 20.9658165c.4640274-1.3559456-.5028305-2.7592564-1.8955078-2.5757446.0186768-.6844482-.0115967-1.3685303-.1342773-2.039856.0174561.0066528.0341797.0144043.0518799.0209961-.0411377-.1253052-.0922852-.2493286-.1369629-.3743896-.2388992-1.0689936-.3018684-1.2347174-.5328369-1.3101196-.0311279-.0678101-.0582275-.1383667-.09021-.2055054 1.9170074-.0872326 3.0182724-2.1223116 1.289917-3.4799805-.4200439-.3300171-.9200439-.5499878-1.4100342-.7600098.9400635-.1699829 1.5600586-1.2399902 1.380127-2.1799927-.3398857-1.7555408-2.6936874-2.5807662-4.6601563-1.0800166.5200195-.3399658.3601074-1.2600098-.1999512-1.5299683-1.3898926-.6800537-2.4799805 1.3199463-2.3999023 2.4599609.0198975.2499995.0499268.480041.0898438.7100215-3.8011093-1.5069623-7.0096264-.3502951-9.8898907 2.5299683-.6987305.706604-1.3334961 1.4741821-1.8186035 2.3342896-.2922802.2280684-1.3077621 2.487114-1.2026367 5.0549316-.6269531.2440796-1.1408691.7753296-1.3265381 1.4239502-.4304161 1.5043964.8308487 2.9900856 2.4244385 2.7533569 3.7505817 7.4103088 14.3184299 7.0214176 17.6459942-.3278809 1.2678336.382351 2.4429664-.3343276 2.8153075-1.4240111zm-.9199219-1.5068359c.8012466.9159107-.1530914 2.6011257-1.6014404 2.2457275.3010254-.8175049.5072021-1.6708984.5966797-2.5372925.3344726-.1043701.7521973.0031128 1.0047607.291565zm-6.3079834-10.4378052c.9899902.6300049 1.9099121 1.3600464 2.75 2.1700439.2461891.229847.083065.6399536-.2600098.6399536-.0900879 0-.1900635-.0299683-.2600098-.0999756-.8000488-.7799683-1.6900635-1.4699707-2.630127-2.0800171-.4183844-.2708082-.0087546-.8942947.4001466-.6300048zm-14.2624492 10.2988281c.135088 1.1335754.3732605 1.8759747.699585 2.668335-1.4822808-.0210038-1.9684811-1.9349804-.699585-2.668335zm16.0548076 5.5515747c-2.546875 2.4125977-6.5839844 3.1494141-9.819334 1.7949219-3.5491581-1.488308-5.8836555-5.2744064-5.519165-9.3532715 1.658596-1.7294807 4.5381641-2.0467558 5.5760498-4.342041-.1530628 2.9368849 4.5448856 4.7347927 7.6099834-.1099854.0300293.5800171.3900146 1.1099854.8601074 1.4699707.5965919.4669952 1.3813477.7246714 3.8413086 1.6790771.7579346 3.1182862-.2158203 6.6503297-2.5489502 8.8613282z"/><path d="m34.5688248 32.713131c.4956055 0 .8974609-.4018555.8974609-.897583s-.4018555-.897583-.8974609-.897583c-.4957275 0-.897583.4018555-.897583.897583s.4018554.897583.897583.897583z"/><path d="m34.4346695 38.893795c.4957275 0 .897583-.4018555.897583-.897583 0-.4956665-.4018555-.897522-.897583-.897522s-.897583.4018555-.897583.897522c0 .4957275.4018555.897583.897583.897583z"/><path d="m33.1452408 45.3967857c0 .4957275.4018555.897583.8974609.897583.4958496 0 .8977051-.4018555.8977051-.897583 0-.4956665-.4018555-.897522-.8977051-.897522-.4956054.0000001-.8974609.4018555-.8974609.897522z"/><path d="m33.3646011 22.9023399c-.3708344.3321075.1326256.8906765.5.5595703.64291-.5741768 1.6302986-.4286499 2.0947266.2578125.2718124.4022045.9028816-.0053234.6210938-.4208984-.3427735-.5053711-2.2485238-1.2602138-3.2158204-.3964844z"/><path d="m57.1615982 13.9160728c.1492348-.0157967.4335251.0886297 2.1186523-.3578491.7697754-.2038574 1.565918-.4748535 2.1599121-1.0477295 1.6008835-1.5441322.1093903-3.8219099-1.791748-3.2852173-.2856445.0806885-.5537109.2233887-.7800293.4153442-.0888214-.9806833-.66119-1.8262148-1.6608887-1.9246211-1.29673-.1276455-2.1893692 1.2808137-2.1235352 2.4142451.0713387 1.2282743 1.0752792 2.7604427 1.8815918 3.6819458.0835953.0953484.0501862.1081057.1732178.1026001.1000062.0056153.1228333.0068971.0228272.0012818z"/></g></svg>