<svg id="Layer_1" enable-background="new 0 0 75 75" viewBox="0 0 75 75" xmlns="http://www.w3.org/2000/svg"><g id="Girl_Teddy" fill="rgb(0,0,0)"><path d="m32.5387726 17.3701725c0-.4682617-.3519287-.8481445-.7860107-.8481445s-.7859497.3798828-.7859497.8481445c0 .4685059.3518677.8481445.7859497.8481445s.7860107-.3796386.7860107-.8481445z"/><path d="m35.5992584 15.5728102c-.434082 0-.7859497.3796387-.7859497.8481436 0 .4682617.3518677.8479004.7859497.8479004s.7860107-.3796387.7860107-.8479004c.0000001-.468505-.3519286-.8481436-.7860107-.8481436z"/><path d="m18.6114655 18.9622135c1.6368885-.7429028 3.0030003-1.9161968 3.9660034-3.2958975l-.0542603-.8444824c.273819 1.2726545.7182255 2.4387026.9788818 3.703124-1.9244823 1.3461227-.4217663 3.8831329 1.4641724 3.1328125 2.6664009 5.0137463 8.7566643 6.412941 12.4049072 1.8818359.3766479.3857422.8477783.7111816 1.4469604 1.0097656-.1816406.6635742-.2861938 1.3603516-.3598633 2.074707-1.4613724-.6554089-2.7858887.2939625-4.1221924.6958008-1.8527336.5516129-4.3449936-.33078-5.5366211 2.21875-.7925701 1.546133-.6926689 1.878458-1.840332 17.4228535-.0151367.2060547.1396484.3857422.3461914.4013672.0097656.0009766.019043.0009766.0283203.0009766.1943359 0 .3588867-.1503906.3735352-.3476563 1.0973244-14.8560982 1.017807-16.2487354 2.0043945-17.5439472 1.1114292-1.6123676 2.9440498-.8691807 4.8388672-1.4335938 1.4461899-.4346256 2.616787-1.3395939 3.8346558-.6049805-.2466469 3.1737061-.1928749 5.7484531 2.1968384 7.7961445-1.6886101 1.2412643-3.2631416 2.4777603-4.2868652 4.3029785-2.4602661-1.8198242-4.4628296-4.2277832-5.7758789-7.0185547-.2113819-.4507904-.8894863-.128952-.6787109.3183594 1.3857422 2.9455566 3.5064697 5.4841309 6.116333 7.3867188-1.7762375 4.0822716 1.0362396 7.730278 5.2181396 9.4296875.0316772.192627.0913086.3791504.163269.5617676-2.6748505-.1941566-5.2329521.0623894-7.9738159 1.2145996-.9882202.4246025-2.0374565.9864235-3.1040039 1.1015625-.8955078.1015625-2.0683594-.2382813-2.5249023-1.2314453-.265625-.59375-.2456055-1.2998047-.1982422-2.0322266.0318527-.4823494-.7152481-.5639191-.7480469-.0488281-.0517578.796875-.0737305 1.6376953.2631836 2.390625.5679493 1.2374115 2.0032234 1.8167343 3.2910156 1.6669922 1.8375549-.1968155 2.7840767-1.2459488 5.8807373-1.9606934-.7250633.2025795.2796555 1.0623283.2042236 5.1784668-.0573616 2.3596497-.8088074 3.7330208-4.1865845 4.2011719-.5528908-.8011398-1.3224735-.8738174-2.1132202-.3173828-1.0885487.7634583-1.3212986 3.5027504.3613281 5.3290977 1.0956154 1.1880569 2.3740959.6778259 2.5683594-.9208984.0535278-.4394531.0175781-2.1435509-.4571533-3.3891563 1.6611557-.2553291 3.2653618-.8492355 4.0523682-2.3344727.9248657-1.7118492.4568939-5.5702248.0361328-7.4697266-.0435791-.1962891-.2346191-.3210449-.4296875-.2856445 2.6292953-.6005211 3.9839363-.3733711 5.5285645-.310791.1142578.1445313.2432251.2785645.3820801.4050293-.0913086.1308594-.0968018.3081055.0058594.4414063 2.6860962 3.4733887 3.237915 8.572998 1.4168091 12.5783653-.963707-.7572365-1.802063-.5396194-2.3469849.3874512-.9716759 1.6543808 1.335022 4.8867188 3.394043 4.8867188.8802681 0 1.5226517-.7774353 1.1040039-2.0957031-.1222534-.3847656-.7496338-1.6938477-1.5784302-2.6308594 1.9730835-4.0839806 1.6094971-9.1210899-.8922729-12.8806114 1.4185982.550972 3.029438.1541519 4.3183594-.6467285.854126-.5297852 1.5749512-1.2143555 2.2558594-1.9165039.0057373.0002441.0103149.0063477.0161133.0063477.2023811 0 .2838745-.1308708.4224854-.282959 3.1638336 2.0158234 7.2696648-2.0740395 7.2884521-4.6369629.0083008-1.1445313-.8583984-2.4296875-2.1162109-2.4443359-1.2442398.0384178-1.9367409.967247-2.8291016 1.2353516l.5708008-2.6484375c.0846367-.3960381.0939026-.589035 1.1435547-.3857422l.1323242.0244141c1.7709961.3193359 3.6743164-.6728516 4.4155273-2.3154297.4702148-1.0419922.4609375-2.46875-.4663086-3.1787109-.3615112-.2768555-.7905273-.4750977-1.2426758-.5893555.779438-1.4076462.6653786-2.959301.4990234-4.5952168-.1162109-1.1584473-.2427368-2.4135742-.5473022-3.6367188h.0018921c.0056763-.0012207.0109863-.0036621.0166626-.0048828.0129395.0014648.0223999.0126953.0355835.0126953.0258789 0 .0517578-.0029297.0776367-.0078125 3.0554733-.6433697 4.2077446-4.4180298 2.0385742-6.6533203-1.9507446-2.0133057-5.624733-1.4230862-6.3974609 1.0966797-.0322266.1044922-.0141602.2109375.0371704.2983398-.1988297.2005386-.118.4714222.0653687.581543 3.125164 1.8942757 3.5826988 4.9721355 3.9257813 8.3886719.1582031 1.5546875.2402344 2.9355488-.3603516 4.0888691-.4936523.9423828-1.4589844 1.6962891-2.7211914 2.1230469-1.1337891.3935547-2.328125.4863281-3.6611328.5605469-2.0507813.1210938-4.0473633.1923828-5.956543-.2929688-2.1049805-.5449219-3.7583008-1.7509766-4.5371094-3.3105469-.7685547-1.5263691-.7182617-3.2919941-.5820313-5.2714863.1225586-1.6396484.296875-3.2167969 1.0722656-4.484375 2.0535393-3.3143959 8.0601273-3.8174858 11.590332-2.4111328.1914063.0742188.4111328-.0175781.4868164-.2099609.0766602-.1923828-.0170898-.4101563-.2094727-.4873047-2.3051147-.918457-5.2426758-1.0324707-8.062561-.3146973-.4637985-1.9334717-2.4349518-3.5006847-4.7481079-2.9377441-.0917358-1.1675291-.3975906-2.6345215-.8660278-3.8581533-.2538452-1.1015625-.7633667-2.1411133-1.4812012-3.0134277l1.7138062 2.0036621c2.280098 1.6045094 5.5067978.7865877 6.7099609-1.7700195-.6199951.579834-1.6699829.4699707-2.3599854-.0300293-1.379406-.9995661-1.5861855-3.0470953-2.8900146-4.1499028-1.8131523-1.5483441-4.6261406-.4126444-4.8899536 1.9399414l1.5171509 1.7736821c-1.8618698-2.0749555-4.7139549-2.7799282-7.1771851-2.11377-.789978.2099609-1.5499878.5600591-2.3399658.7900395-1.1400146.3400879-2.4000244.4299316-3.3600464 1.1398926-.8481445.6240234-1.3287354 1.6669922-1.4639282 2.7192383l-.052124-.8112793c-1.3890457-1.9177246-4.3894711-1.5131626-5.2141724.7141113-.5923347 1.5992889.2415352 3.4740601-.479126 5.0378408-.3563232.7729492-1.2099619 1.3850098-2.0365 1.1813965.1272583.03125.2868652.1889648.4053345.2546387 1.0657759.59144 2.5829801.792465 3.6288462.3173826zm13.1933593 46.6340313c-.2915039.0683594-.6318359-.2587891-.7636719-.4013672-1.3781662-1.4974365-1.1735439-3.7215538-.4819336-4.208004.4868164-.3388672.7089844-.203125.7929688-.1542969.8798676.527176 1.461628 4.538723.4526367 4.7636681zm12.2758789 3.2128906c-1.8675232-.7841339-2.6178627-2.8909531-2.1875-3.6259766h.0004883c.1517258-.2589874.3585815-.5046616.6557617-.4707031.9384766.1054688 2.2397461 2.3544922 2.4799805 3.109375.2839584.8934403-.0260467 1.3704987-.9487305.9873047zm9.5447388-47.8945293c.0569458-.0458984.1053467-.1030273.1281128-.1777344.5630226-1.8356419 3.2736359-2.4559155 4.8833008-.7958984.7929688.8173828 1.1015625 2.0986328.7680664 3.1865234s-1.3071289 1.9765625-2.4228516 2.2109375c-.0177612.0036621-.0313721.0146484-.0479736.020752-.5939827-1.8790589-1.6299629-3.3506489-3.3086548-4.4445801zm-3.3894653 16.3906269c2.4405022-.133606 4.9203987-.4484978 6.4828491-2.314209.4556885.0666504.8966675.2277832 1.2505493.4987793.6108398.4677734.5786133 1.5205078.2387695 2.2744141-.59375 1.3164063-2.1762695 2.1474609-3.5976563 1.8857422-.5599594-.1054497-1.4306374-.3183365-1.9008789.3173828-.2081299.2810402-.1799774.3308334-.9233398 3.7832031-.0475044.2203407.1099434.4385071.3427734.453125.730957.0458984 1.3291016-.3330078 1.9057617-.6992188.4814453-.3076172.9213867-.625 1.4155273-.5917969.7939453.0087891 1.3803711.8994141 1.3745117 1.6884766-.0114822 1.5992432-2.0241585 3.7416725-3.6450195 4.2646484-.8473511.2739258-1.7293701.1777344-2.3937378-.2045898 1.7717476-2.2643051.3940773-4.4015923-2.0588989-4.0083008-.8287735.1318092-1.5296516.4731216-2.2792969.6269531-.7866211.1630859-1.4780273.0244141-1.8510742-.3681641-.3425522-.3589745-.8850174.1580162-.5429688.5175781.5605469.5888672 1.4882813.8007813 2.5454102.5849609.7831993-.1614647 1.523674-.505497 2.2470703-.6210938 1.7832718-.2854424 2.7595825 1.0877037 1.2550049 2.9204102-.0864868.0085449-.1725464.0388184-.2369385.1069336-.8154297.8623047-1.6591797 1.7529297-2.6679688 2.3798828-1.0908203.6767578-2.2407227.9306641-3.234375.7128906-1.1083984-.2421875-1.9970703-1.1689453-2.0673828-2.15625-.0102539-.1445313-.1030273-.2705078-.237793-.3232422-1.6147461-.6289063-2.902832-1.4570313-3.8291016-2.4599609-1.499382-1.6214638-2.1325035-3.7413292-1.2405396-5.9255371.6859741.4597168 1.3977661.8823242 2.1417236 1.2519531-.1060791.6899414.3630371 1.5895996.5914917 1.9753418h.0004883c1.3541298 2.2806396 4.060524 1.2413445 3.7363281-.5283203 1.2650604.6103859 2.5306053.1483116 3.6655273-.6884766 2.0488853-1.5088692 1.8420219-3.3012962.3735352-4.3564453-.5820313-.4179688-1.2504883-.6376953-1.8969727-.8496094-.4712257-.1543465-.705143.5583725-.2333984.7128906.5922852.1943359 1.2045898.3955078 1.6928711.7460938 1.0877419.7824097 1.2211037 1.962719-.3808594 3.1435547-.9067383.6679688-1.7265625.9287109-2.4355469.7841797-1.5238457-.317524-2.864357-2.721035-3.2460938-4.34375-.1145096-.4837456-.8440132-.3103905-.7304688.171875.2183838.927002.6011963 1.8122559 1.1136475 2.6142578-.5752449-.2266502-1.325264-.3626976-1.8465576-.015625-.7733154-.3798828-1.5111694-.8193359-2.2196655-1.3000488.9859505-1.8014717 2.5882034-3.0166359 4.2871094-4.260498.8170166.5639648 1.777771 1.0075684 2.8495483 1.2851563 2.0172657.5126038 4.0918126.4418946 6.1860356.3144532zm-8.3681641 5.4101563c1.418499 1.4149246-.7901802 2.6491127-1.9018555.7773438-.2400475-.4048729-.7912483-1.5383873-.3378906-1.6533203.6484375-.1660157 1.6826172.3183593 2.2397461.8759765zm-4.0246582-35.3264175c1.2200317 0 2.4100342.7900395 2.8900146 1.9201665.1943321.4612989-.5084839.7440577-.6900024.2897949-.3699951-.8598633-1.2700195-1.4599609-2.2000122-1.4599609 0 0 0 0-.0100098 0-.1999512 0-.3699951-.1599126-.3699951-.3698735s.1300049-.3701172.3800049-.380127zm-14.3991699 12.2902827c.0973511-.2106934.3081665-.4006348.5776978-.5776367.140564.6430664.3469238 1.2739258.6139526 1.8833008-.8823471.2861671-1.5182228-.5977783-1.1916504-1.3056641zm1.1090698-2.2446289c.7745552-1.3087692 3.2437248-3.0367107 6.0401001-3.2456045-.2099609-.8200684-.4199829-1.6499023-.6300049-2.4699707 3.1804924 2.1478901 2.8267059 2.1024809 4.1000366 1.6899414 1.2526245-.3898926 2.6529541-.2355957 3.8144531.3796387.3405724 1.0534115.5766182 2.3135557.6342163 3.300292-2.2854691.9890995-3.0106583 3.782095-1.6256714 5.8579102-4.2419967 5.5220489-11.9913463 1.4826736-12.3331298-5.5122071zm18.7245483 2.5546875c-.2384033.0822754-.4701538.1730957-.6940308.2727051-.8418999-2.5173397-4.4926491-2.1065121-4.4442749.0725098.0048828.2041016.1713867.3662109.375.3662109h.0083008c.2070313-.0048828.3710938-.1767578.3666992-.3837891-.0058594-.2480469.1152344-.5087891.3222656-.6962891.7829437-.7124615 2.3521385-.3223629 2.6969604.9829102-1.481945.8365555-2.3608627 1.9364319-2.8548584 3.2270508-3.1240768-1.6132565-2.5155373-5.2777195-.0169067-6.1513672 1.929947-.7356567 3.8418733.5252991 4.2408448 2.3100586zm-19.2844238-8.3803701c.2367954-.4261761.8915749-.0650511.6499634.3701172-.3599854.6298828-.5299683 1.3598633-.4699707 2.0800781.0478191.5015335-.6992321.5668736-.75.0598145-.0700073-.8601075.1300049-1.7600098.5700073-2.5100098z"/><path d="m44.6347809 28.9609928c-.2304688.7167969.1643677 1.4846191.881897 1.715332.7175293.230957 1.4860229-.1630859 1.7164917-.8796387s-.1643677-1.4846191-.881897-1.715332-1.486023.163086-1.7164917.8796387z"/><path d="m53.5798492 31.0952702c.7175293.2307129 1.4860229-.1630859 1.7164917-.8798828.2304688-.7165527-.1643677-1.484375-.881897-1.715332-.7175293-.2307129-1.4860229.1630859-1.7164917.8798828-.2304687.7163085.1643677 1.4843749.881897 1.715332z"/><path d="m49.3830109 30.5278873c-.2597656.0371094-.5513306.0935059-.6948853.3129883-.1361694.2080078-.0805664.4968262.065979.697998s.3662109.3342285.579895.461916c.7412529.4432373 1.2911224.4520912 1.7960815-.5798359.1182251-.2416992.2163086-.5395508.0735474-.7675781-.302124-.4829101-1.3773803-.1887207-1.8206176-.1254883z"/><path d="m50.2017975 34.008358c1.3977089.8062859 2.4766426-1.2098732 1.5961914-1.3398438-.1987305-.0283203-.3950195.1113281-.425293.3164063-.0631828.4322853-.6041832.6087532-.9082031.2871094-.0708008-.0751953-.1689453-.1171875-.2719727-.1171875-.0869141-.0341797-.2045898.0449219-.2758789.1210938-.3451385.3736343-.9861336.2700996-1.1787109-.2207031-.1799965-.4611664-.8795509-.1897812-.6982422.2734375.3067856.7850341 1.3348885 1.2222327 2.1621094.6796874z"/><path d="m34.8018951 20.0991764c.0241585.2415905-1.0817871.2984505-1.9580078-.2246094-.1455078-.0859375-.3344727-.0644531-.4560547.0556641-1.4584007 1.4470959-.2567101 3.6400814 1.5961914 3.484375 1.8489494-.1647358 2.5937462-2.6372414 1.4360352-3.6474609-.1157227-.1035157-.6584396-.0192395-.6181641.3320312zm.303711 1.6025391c-.1586914.5126953-.6582031.9189453-1.1879883.9648438-.5258789.0644531-1.0893555-.265625-1.3198242-.7441406-.1806641-.3759766-.1162109-.8681641.1455078-1.2509766.6702805.3204861 1.8643341.5523129 2.4536133.1103516.0478515.211914.0380859.5048827-.0913086.9199218z"/><path d="m48.9254303 23.7388248c-.01054.9381123-.3759689 1.1508808-.0668945 1.4238281.1142578.1015625.2753906.1259766.4111328.0576172.6337891-.3037109 1.1889648-.7714844 1.6088867-1.3388672-.0864258.5966797-.3227539 1.1728516-.6918945 1.6445313-.3046303.39217.2845154.8523617.5908203.4628906.7807617-.9990234 1.0742188-2.3818359.7661133-3.6103516-.0955429-.3821716-.6198387-.3524647-.7226563-.0185547-.2041016.6728516-.6196289 1.28125-1.1640625 1.7285156.0673828-.7138672-.0537109-1.4453125-.3574219-2.0986328-.1690178-.3629856-.7006836-.2422733-.7148438.1455078-.0429688 1.2490234-.8916016 2.4238281-2.0629883 2.8574219-.4668617.1712608-.2026329.8777046.2597656.703125.9335939-.3447265 1.701172-1.071289 2.1440431-1.9570312z"/><path d="m49.0011139 41.4692955c.2031021-1.239769 1.5340958-1.9487267 2.6674805-1.4482422.4557953.1973534.7550659-.4865494.3017578-.6875-1.5894356-.6975441-3.4275017.2996635-3.7094727 2.0146484-.0806351.488472.6592522.6121979.7402344.1210938z"/><path d="m22.5489655 46.1011314c.105957-.1777344.0473633-.4082031-.1308594-.5136719l-4.5351563-2.6953125c-.4226933-.254776-.8116207.39077-.3828125.6445313l4.5351563 2.6953125c.1757793.1057511.4080314.0479164.5136719-.1308594z"/><path d="m19.7320709 46.6441002c-1.1098633.5625-2.359375.8408203-3.5986328.8154297-.5395174.0489349-.4758549.7391891-.0175781.75 1.425602.0217628 2.7482338-.2851715 3.9550781-.8974609.4440193-.2225953.1014443-.8961945-.3388672-.6679688z"/><path d="m19.4679108 49.2026939-2.3398438 1.390625c-.4267826.2532539-.0382385.8984337.3837891.6445313l2.3388672-1.390625c.1782227-.1054688.2368164-.3359375.1308594-.5136719-.1054688-.1777344-.334961-.2382812-.5136719-.1308594z"/><path d="m30.9137115 41.0444908c-.2270508 1.3984375.0737305 2.8886719.8256836 4.0878906.2605515.4140244.8998871.0241928.6357422-.3984375-.6567383-1.046875-.9194336-2.3476563-.7211914-3.5683594.0794907-.4909782-.6618175-.6103324-.7402344-.1210937z"/><path d="m57.7389069 20.8013248c-.6733398-.5556641-1.7314453-.546875-2.5185547.0224609-.3981628.2878838.0314369.8973694.4404297.6074219.4360352-.3154297 1.1538086-.4208984 1.6000977-.0517578.6812172.5628433.3421974 1.68009-.5288086 1.7753906-.4758949.0542603-.4316521.7815876.0830078.7460938 1.5278472-.1709785 2.1128272-2.1140919.9238281-3.0996094z"/></g></svg>