<svg id="Layer_1" height="512" viewBox="0 0 512 512" width="512" xmlns="http://www.w3.org/2000/svg"><g><path d="m247.6 49.4h16.7v50h-16.7z"/><path d="m166.5 89.4h32.5v16.7h-32.5z" transform="matrix(.383 .924 -.924 .383 203.066 -108.493)"/><path d="m89.4 124.7h50v16.7h-50z" transform="matrix(.707 .707 -.707 .707 127.583 -41.959)"/><path d="m64.5 193.3h30.8v16.7h-30.8z" transform="matrix(.924 .383 -.383 .924 83.261 -15.242)"/><path d="m30.8 266.2h50v16.7h-50z"/><path d="m431.1 266.2h50v16.7h-50z"/><path d="m416.5 192.8h33.3v16.7h-33.3z" transform="matrix(-.924 .383 -.383 -.924 910.342 221.238)"/><path d="m389.2 108h16.7v50h-16.7z" transform="matrix(.707 .707 -.707 .707 210.473 -242.118)"/><path d="m343.1 85.9-15.4-6.4-12.4 30.1 15.4 6.3z"/><path d="m31.1 344.8c10.8 11 30 11.1 41 .1 4.6-4.6 12.8-4.5 17.3-.1 10.8 11 30 11.1 41 .1.6-.6 3.9-3.6 8.7-3.6 3.3 0 6.4 1.3 8.6 3.5 10.8 11 30 11.1 41 .1 4.6-4.6 12.8-4.5 17.3-.1 10.8 11 30 11.1 41 .1 4.6-4.6 12.8-4.5 17.3-.1 10.8 11 30 11.1 41 .1 4.6-4.6 12.8-4.5 17.3-.1 10.8 11 30 11.1 41 .1 2.3-2.3 5.4-3.6 8.7-3.6 4.7 0 8.1 3 8.6 3.5 10.8 11 30 11.1 41 .1 4.6-4.6 12.8-4.5 17.3-.1 5.4 5.5 12.7 8.6 20.5 8.6 7.7 0 15-3 20.5-8.5 4.8-4.8 12.6-4.8 17.4 0l12.4-11.9c-11.3-11.2-29.7-11.2-41 0-4.7 4.7-12.7 4.8-17.5-.1-11.1-10.9-30.1-10.8-40.9.1-4.5 4.5-11.8 4.8-16.8.4 8-18.7 12.3-38.4 12.3-58.9 0-82.8-67.3-150.1-150.1-150.1s-150.1 67.3-150.1 150.1c0 20.5 4.3 40.2 12.3 58.9-4.8 4.2-12.3 4.2-16.9-.4-11.1-10.9-30.1-10.8-40.9.1-4.7 4.7-12.7 4.8-17.5-.1-11.1-10.9-30.1-10.8-40.9 0l11.8 11.8c4.5-4.5 12.8-4.5 17.3 0zm224.9-203.7c73.6 0 133.4 59.9 133.4 133.4 0 17.6-3.4 34.7-10.1 50.8-9.5-2.2-20.1.7-27.1 7.7-4.7 4.7-12.7 4.8-17.5-.1-5.5-5.4-12.8-8.4-20.4-8.4-7.8 0-15 3-20.5 8.4-4.7 4.7-12.7 4.8-17.5-.1-11.1-10.9-30.1-10.8-40.9.1-4.7 4.7-12.7 4.8-17.5-.1-11.1-10.9-30.1-10.8-40.9.1-4.7 4.7-12.7 4.8-17.5-.1-7.2-7-17.7-9.8-27-7.6-6.7-16.1-10.1-33.2-10.1-50.8.2-73.4 60-133.3 133.6-133.3z"/><path d="m469 387.7c-4.7 4.7-12.7 4.8-17.5-.1-11.1-10.9-30.1-10.7-40.9.1-4.7 4.7-12.6 4.9-17.6-.2-1.7-1.6-3.4-2.9-4.8-3.7-10.9-7.1-26.6-5.4-36 3.9-4.7 4.7-12.7 4.8-17.5-.1-11.1-10.9-30.1-10.7-40.9.1-4.7 4.7-12.7 4.8-17.5-.1-11.1-10.9-30.1-10.7-40.9.1-4.7 4.7-12.7 4.8-17.5-.1-11.1-10.9-30.1-10.7-40.9.1-4.7 4.7-12.7 4.8-17.5-.1-5.5-5.4-12.8-8.4-20.4-8.4-5.7 0-11.1 1.6-15 4.2-1.9 1.1-3.8 2.5-5.5 4.2-4.7 4.7-12.7 4.8-17.5-.1-11.1-10.9-30.1-10.7-40.9.1-4.7 4.7-12.7 4.8-17.5-.1-11.1-10.9-30.1-10.7-40.9.1l11.8 11.8c4.6-4.6 12.8-4.5 17.3-.1 10.8 11 30 11.1 41 .1 4.6-4.6 12.8-4.5 17.3-.1 10.8 11 30 11.1 41 .1.6-.6 1.3-1.1 2.4-1.8 4.1-2.7 11-2.1 14.9 1.7 10.8 11 29.9 11.1 41 .1 4.6-4.6 12.8-4.5 17.3-.1 10.8 11 30 11.1 41 .1 4.6-4.6 12.8-4.5 17.3-.1 10.8 11 30 11.1 41 .1 4.6-4.6 12.8-4.5 17.3-.1 10.8 11 29.9 11.1 41 .1 3.9-3.9 10.3-4.8 15.3-1.6.7.4 1.5 1 2 1.5 10.8 11 30 11.1 41 .1 4.6-4.6 12.8-4.5 17.3-.1 5.4 5.5 12.7 8.6 20.5 8.6 7.7 0 15-3 20.5-8.5 4.8-4.8 12.6-4.8 17.4 0l11.7-11.9c-10.4-11.1-28.8-11.1-40.1.2z"/><path d="m469 442.3c-4.7 4.7-12.7 4.8-17.5-.1-11.1-10.9-30.1-10.8-40.9.1-4.7 4.7-12.6 4.9-17.6-.2-1.7-1.6-3.4-2.9-4.8-3.7-10.9-7.1-26.6-5.4-36 3.9-4.7 4.7-12.7 4.8-17.5-.1-11.1-10.9-30.1-10.8-40.9.1-4.7 4.7-12.7 4.8-17.5-.1-11.1-10.9-30.1-10.8-40.9.1-4.7 4.7-12.7 4.8-17.5-.1-11.1-10.9-30.1-10.8-40.9.1-4.7 4.7-12.7 4.8-17.5-.1-5.5-5.4-12.8-8.4-20.4-8.4-5.7 0-11.1 1.6-15 4.2-1.9 1.1-3.8 2.5-5.5 4.2-4.7 4.7-12.7 4.8-17.5-.1-11.1-10.9-30.1-10.8-40.9.1-4.7 4.7-12.7 4.8-17.5-.1-11.1-10.9-30.1-10.8-40.9.1l11.8 11.8c4.6-4.6 12.8-4.5 17.3-.1 10.8 11 30 11.1 41 .1 4.6-4.6 12.8-4.5 17.3-.1 10.8 11 30 11.1 41 .1.6-.6 1.3-1.1 2.4-1.8 4.1-2.7 11-2.1 14.9 1.7 10.8 11 30 11.1 41 .1 4.6-4.6 12.8-4.5 17.3-.1 10.8 11 30 11.1 41 .1 4.6-4.6 12.8-4.5 17.3-.1 10.8 11 30 11.1 41 .1 4.6-4.6 12.8-4.5 17.3-.1 10.8 11 30 11.1 41 .1 3.9-3.9 10.3-4.8 15.3-1.6.7.4 1.5 1 2 1.5 10.8 11 30 11.1 41 .1 4.6-4.6 12.8-4.5 17.3-.1 5.4 5.5 12.7 8.6 20.5 8.6 7.7 0 15-3 20.5-8.5 4.8-4.8 12.6-4.8 17.4 0l11.7-11.9c-10.4-11.1-28.8-11.1-40.1.2z"/></g></svg>