<svg id="Layer_1" height="512" viewBox="0 0 512 512" width="512" xmlns="http://www.w3.org/2000/svg"><g><path d="m468.1 251c.6-5.6.9-10.6.9-15.5 0-81.3-66.1-147.5-147.5-147.5-47.5 0-91.8 22.7-119.5 61.1-9.2-2.5-18.6-3.8-28-3.8-56.1 0-102.2 43.6-106.2 98.7-37 4-65.8 35.3-65.8 73.3 0 40.7 33.1 73.7 73.7 73.7h98.8c18.7 20.9 45.2 32.8 73.3 32.8 20.6 0 40.7-6.5 57.4-18.5 16.6 11.9 36.8 18.5 57.4 18.5 28.1 0 54.6-11.9 73.3-32.8h.5c40.7 0 73.7-33.1 73.7-73.7-.1-28.2-16.7-54.1-42-66.3zm-31.8 123.8h-8.1s-19.1 32.8-65.7 32.8c-35.7 0-57.4-23-57.4-23s-21.3 23-57.4 23c-42.8 0-65.7-32.8-65.7-32.8h-106.3c-31.6 0-57.4-25.7-57.4-57.4 0-31.6 25.7-57.4 57.4-57.4h8.2v-8.2c0-49.7 40.4-90.1 90.1-90.1 17.9 0 34.7 6.8 34.7 6.8s36.9-64.1 112.8-64.1c72.3 0 131.1 58.8 131.1 131.1 0 14-2.6 25.9-2.6 25.9s43.5 14.2 43.5 56c.1 31.7-25.6 57.4-57.2 57.4z"/><path d="m100.3 260.1h16.4c0-36.1 29.4-65.5 65.5-65.5v-16.4c-45.1 0-81.9 36.7-81.9 81.9z"/></g></svg>