<svg id="Layer_1" height="512" viewBox="0 0 512 512" width="512" xmlns="http://www.w3.org/2000/svg"><g><path d="m344.3 160.3v16.4c34.1 0 61.8 27.7 61.8 61.8h16.4c0-43.1-35.1-78.2-78.2-78.2z"/><path d="m457.4 234.7c-2-60.7-52-109.4-113.2-109.4-28 0-54.6 10.2-75.4 28.8-6.8-1.7-13.8-2.5-20.9-2.5-7.5 0-14.7 1-21.6 2.8-15.1-18.2-37.5-29.1-61.3-29.1-19.2 0-37.5 6.8-52 19.4-4.4-1-9-1.5-13.5-1.5-32.6 0-59.4 25.4-61.7 57.4-21.3 8.1-35.8 28.8-35.8 52 0 30.8 25.1 55.9 55.9 55.9h50.6c0 43.1 35.1 78.2 78.2 78.2h245.1c43.1 0 78.2-35.1 78.2-78.2 0-33.4-21.3-62.9-52.6-73.8zm-399.5 57.4c-21.8 0-39.5-17.7-39.5-39.5 0-18 12.2-33.7 29.7-38.2l6.3-1.6-.3-7.9c0-25.1 20.4-45.4 45.4-45.4 10.5 0 18 3.4 18 3.4l3.5-3.4c11.9-11.6 27.5-17.9 44.1-17.9 16.9 0 33 6.9 44.8 18.8-27.8 13.6-47.4 41.6-48.8 74.3-26 9-45.1 31-50.8 57.4zm373.9 78.2h-245.1c-34.1 0-61.8-27.7-61.8-61.8 0-28.1 19.1-52.7 46.5-59.8l6.3-1.6-.2-8.6c0-38.9 31.7-70.6 70.6-70.6 7 0 14 1 20.7 3.1l4.6 1.4 3.5-3.4c18.2-17.7 42.2-27.4 67.4-27.4 53.4 0 96.8 43.4 96.8 97.5l-.2 7.9 6.3 1.6c27.4 7.1 46.5 31.7 46.5 59.8-.1 34.2-27.8 61.9-61.9 61.9z"/></g></svg>