<svg id="Layer_1" height="512" viewBox="0 0 512 512" width="512" xmlns="http://www.w3.org/2000/svg"><g><path d="m469 149c-.3-63-51.6-114.2-114.7-114.2-36.1 0-69.7 16.9-91.4 45.5-15.1-23.1-41.1-37.3-69.2-37.3-25.7 0-49.7 11.7-65.3 31.6-6.7-2.2-13.6-3.3-20.7-3.3-29.2 0-54.7 19.2-62.9 46.4-24.8 5-42.8 26.5-42.8 52.1 0 29.4 24.3 53.4 54.1 53.4h28.3c4.1 36.8 35.4 65.5 73.3 65.5h278.6c40.7 0 73.7-33.1 73.7-73.7 0-28.3-15.9-53.6-41-66zm-412.9 57.8c-20.8 0-37.7-16.6-37.7-37 0-19.1 14.6-34.9 33.9-36.8l6-.6 1.2-5.9c4.5-22.5 24.8-38.9 48.2-38.9 7 0 13.8 1.5 20.3 4.3l6.3 2.8 3.8-5.8c12.3-18.6 33.1-29.7 55.6-29.7 16.5 0 32 6.2 44 16.7-49.2 0-82.9 27.5-93.4 66.5-32.2 5.8-56.4 32-59.9 64.4zm380.2 65.6h-278.6c-31.6 0-57.4-25.7-57.4-57.4 0-29.6 22.2-54.1 51.6-57.1l6-.6 1.2-6c6.8-34.4 37.2-59.3 72.3-59.3 10.5 0 20.7 2.2 30.4 6.6l6.4 2.9 3.8-5.9c18.3-27.9 49-44.6 82.3-44.6 54.2 0 98.3 44.1 98.3 98.3 0 .8-.5 10.2-.5 10.2l5.4 2.2c21.9 8.8 36.1 29.7 36.1 53.2 0 31.8-25.7 57.5-57.3 57.5z"/><path d="m247.8 315.3s-24.6 36.7-24.6 47.2c0 13.6 11 24.6 24.6 24.6s24.6-11 24.6-24.6c0-10.5-24.6-47.2-24.6-47.2zm0 55.4c-4.5 0-8.2-3.7-8.2-8.2.1-2.5 3.5-9.6 8.2-17.6 4.7 7.9 8.1 15.1 8.2 17.6 0 4.5-3.7 8.2-8.2 8.2z"/><path d="m149.5 315.3s-24.6 36.7-24.6 47.2c0 13.6 11 24.6 24.6 24.6s24.6-11 24.6-24.6c0-10.5-24.6-47.2-24.6-47.2zm0 55.4c-4.5 0-8.2-3.7-8.2-8.2.1-2.5 3.5-9.6 8.2-17.6 4.7 7.9 8.1 15.1 8.2 17.6 0 4.5-3.7 8.2-8.2 8.2z"/><path d="m346.1 315.3s-24.6 36.7-24.6 47.2c0 13.6 11 24.6 24.6 24.6s24.6-11 24.6-24.6c0-10.5-24.6-47.2-24.6-47.2zm0 55.4c-4.5 0-8.2-3.7-8.2-8.2.1-2.5 3.5-9.6 8.2-17.6 4.7 7.9 8.1 15.1 8.2 17.6 0 4.5-3.7 8.2-8.2 8.2z"/><path d="m419.9 362.5c0 13.6 11 24.6 24.6 24.6s24.6-11 24.6-24.6c0-10.5-24.6-47.2-24.6-47.2s-24.6 36.7-24.6 47.2zm24.6 8.2c-4.5 0-8.2-3.7-8.2-8.2.1-2.5 3.5-9.6 8.2-17.6 4.7 7.9 8.1 15.1 8.2 17.6-.1 4.5-3.7 8.2-8.2 8.2z"/><path d="m272.4 452.6c0 13.6 11 24.6 24.6 24.6s24.6-11 24.6-24.6c0-10.5-24.6-47.2-24.6-47.2s-24.6 36.8-24.6 47.2zm24.6 8.2c-4.5 0-8.2-3.7-8.2-8.2.1-2.5 3.5-9.6 8.2-17.6 4.7 7.9 8.1 15.1 8.2 17.6 0 4.6-3.7 8.2-8.2 8.2z"/><path d="m174.1 452.6c0 13.6 11 24.6 24.6 24.6s24.6-11 24.6-24.6c0-10.5-24.6-47.2-24.6-47.2s-24.6 36.8-24.6 47.2zm24.5 8.2c-4.5 0-8.2-3.7-8.2-8.2.1-2.5 3.5-9.6 8.2-17.6 4.7 7.9 8.1 15.1 8.2 17.6 0 4.6-3.6 8.2-8.2 8.2z"/><path d="m370.7 452.6c0 13.6 11 24.6 24.6 24.6s24.6-11 24.6-24.6c0-10.5-24.6-47.2-24.6-47.2s-24.6 36.8-24.6 47.2zm24.6 8.2c-4.5 0-8.2-3.7-8.2-8.2.1-2.5 3.5-9.6 8.2-17.6 4.7 7.9 8.1 15.1 8.2 17.6 0 4.6-3.7 8.2-8.2 8.2z"/></g></svg>