<svg id="Layer_1" height="512" viewBox="0 0 512 512" width="512" xmlns="http://www.w3.org/2000/svg"><g><g><path d="m444.5 299.2h-377c-36.1 0-65.5-29.4-65.5-65.5 0-30 20.8-56.2 49.4-63.5 3.4-56.2 49.8-100.4 106.3-100.4 15.1 0 30.1 3.2 43.8 9.4 26.2-46.4 74.6-75 128.3-75 81.3 0 147.5 66.2 147.5 147.5 0 8-.7 16.1-2 24.1 21.3 11.3 34.8 33.3 34.8 57.9-.1 36.1-29.5 65.5-65.6 65.5zm-286.8-213c-49.7 0-90.1 40.4-90.1 90.1v7.1l-7 1.6c-24 3.4-42.2 24.3-42.2 48.6 0 27.1 22.1 49.2 49.2 49.2h376.9c27.1 0 49.2-22.1 49.2-49.2 0-20.1-12-38-30.7-45.5l-6.3-2.6 1.4-6.7c1.9-9 2.8-18.1 2.8-27.1 0-72.3-58.8-131.1-131.1-131.1-50.1 0-95.1 28-117.4 73.1l-3.8 7.7-7.5-4.1c-13.3-7.3-28.3-11.1-43.4-11.1z"/></g><g><path d="m444.5 299.2h-377c-36.1 0-65.5-29.4-65.5-65.5 0-30 20.8-56.2 49.4-63.5 3.4-56.2 49.8-100.4 106.3-100.4 15.1 0 30.1 3.2 43.8 9.4 26.2-46.4 74.6-75 128.3-75 81.3 0 147.5 66.2 147.5 147.5 0 8-.7 16.1-2 24.1 21.3 11.3 34.8 33.3 34.8 57.9-.1 36.1-29.5 65.5-65.6 65.5zm-286.8-213c-49.7 0-90.1 40.4-90.1 90.1v7.1l-7 1.6c-24 3.4-42.2 24.3-42.2 48.6 0 27.1 22.1 49.2 49.2 49.2h376.9c27.1 0 49.2-22.1 49.2-49.2 0-20.1-12-38-30.7-45.5l-6.3-2.6 1.4-6.7c1.9-9 2.8-18.1 2.8-27.1 0-72.3-58.8-131.1-131.1-131.1-50.1 0-95.1 28-117.4 73.1l-3.8 7.7-7.5-4.1c-13.3-7.3-28.3-11.1-43.4-11.1z"/></g><g><path d="m436.3 143.6h-16.4c0-45.2-36.8-81.9-81.9-81.9v-16.5c54.1 0 98.3 44.1 98.3 98.4z"/></g><g><path d="m174.4 507.7 58.6-93.8h-65.2l59-98.3h77.3l-32.8 49.2h81.8zm22.3-110.1h65.9l-23.3 37.3 67.1-53.7h-65.7l32.8-49.2h-37.4z"/></g><g><path d="m75.1 392.6-15.1-6.5 24.6-57.3 15.1 6.4z"/></g><g><path d="m435.6 392.6-15.1-6.5 24.6-57.3 15.1 6.4z"/></g><g><path d="m111.9 474.5-15-6.4 24.6-57.4 15 6.5z"/></g><g><path d="m357.8 474.5-15.1-6.4 24.6-57.4 15 6.5z"/></g><g><path d="m468.4 474.5-15.1-6.4 24.6-57.4 15 6.5z"/></g></g></svg>