<svg id="Layer_1" enable-background="new 0 0 75 75" viewBox="0 0 75 75" xmlns="http://www.w3.org/2000/svg"><g id="Enjoying_Rain" fill="rgb(0,0,0)"><path d="m13.9822721 55.0122032c.1078186-.4851875-.6251659-.6447601-.7324219-.1621094-1.2075901 5.4393158.3559875 6.489872 4.5527334 6.1870117.0037842-.0003052.007019-.0003662.0108032-.0006714-.1318359.0620728-.2207642.1982422-.2149048.3532104l.2436523 6.4417763c-.401001.0701294-.8981934.2402344-.9892578.7608643v.0009766c-.0507813.296875.0898438.6181641.3588867.8178711.5897789.4391022 3.1583538.6816788 3.9526367.206543.3598633-.2158203.5615234-.609375.5014648-.9799805-.1510544-.9252777-1.3296394-.9016647-1.737793-.9165039-.4332886-.019043-.8771973-.0024414-1.3386841.0340576-.3217125-6.5740166-.0817623-6.6027679-.4682007-6.738224.5414104-.0360069 3.5920029-.1370506 6.9926147-.2733765-.2625809.2301254-.0820541.0689507.1126709 6.7337685-.4005127.0701904-.8984985.2400513-.9893188.760376v.0009766c-.0507813.296875.0898438.6181641.3588867.8178711.5895977.4389648 3.1623383.6818619 3.9526367.206543.3603516-.2158203.5615234-.609375.5014648-.9794922-.1510544-.9252777-1.3297367-.90168-1.7373047-.9165039-.430603-.0201416-.8745728-.0036011-1.3389282.0335083-.2936478-6.5548286-.1338043-6.4750481-.3773193-6.6743202l2.5209351-.0877075c.7060547-.0273438 1.668457.0947266 2.3388672-.5058594.7456055-.6538086.5708008-1.7954102.4868164-2.3452148l-1.6243894-10.4993898c1.0209351-.1112061 2.0314941-.3161011 3.0132465-.6290894.0245361.0257568.0549927.0444336.0823975.0669556l-.5525532 1.1205444c-.5267048 1.0532646 1.1082516 1.8733788 1.6400166.8099976l.8598022-1.7432861c.1239624-.0354004.2478638-.0612183.371521-.1193848 1.2327957-.5006485 2.1084938-2.0040321 1.2088013-3.0620728 10.8693771-22.0661507 10.1948166-20.5070934 10.2440186-20.8642578 2.3909302 1.6170654 3.3865967 4.7897949 2.2141724 7.6011353-.1927948.4675274.5043144.737442.6923828.2890625 2.133503-5.1178341 9.3611565-5.2177067 11.4360352-.0493164 1.0587196 2.6351318-.0201187 4.7001495-.0405273 4.8007813-.1915741.4607162.5020256.7440567.6923828.2890625 2.0922852-5.0175781 2.1381836-10.5366211.1289063-15.5400391-1.4955444-3.7247314-3.9994507-6.8287964-7.2156372-9.0233765.1292114-.109375.2373657-.2401733.2918091-.4004517.2567787-.7606134-.6651268-1.9463406-1.2602539-2.4829102-1.6208916-1.4628482-3.3962288-.7183633-3.4536743.642334-9.9835815-3.629272-21.2482319 1.3248291-25.4476948 11.3937988-.1905098.4581604.4989967.7461567.6923828.2890625.0004883-.0014648.0009766-.0029297.0014648-.0039063 1.3359375-3.1967773 4.9736328-4.7314453 8.1152363-3.421875 3.1420898 1.3100586 4.6132813 4.9785156 3.2792969 8.1772461-.1931381.4683552.5039978.7370491.6923828.2890625 1.2648277-3.0340633 4.5910721-4.5824909 7.6367798-3.5985718-.2564087.2630386.6146278-1.303051-10.6398315 21.4002686-.7682419.4215546-1.758297 1.5622597-1.8737793 2.4185791-.9523945.3050537-1.9328632.5048218-2.9235859.6106567-.4297333-2.4941788-.3604279-3.7543297-1.3045654-4.3533936-1.0464001-.6976013-2.0014839.2301407-4.0488281.3671875-2.7827873.1950684-4.5095253-.9973564-4.7602539-1.0854492-1.720871-.8672981-2.1999626.712101-2.6191406 2.5854492-.3357716 1.4913864-2.4269562 7.6636543-2.9785147 9.7924805-.125658.482666.6035929.6659927.7255859.1884766.3362293-1.2945671.7360649-2.4429512 2.8095694-9.1108398.1889286-.5974197.5297527-2.8628693 1.1538086-2.9545898.5605812-.0851135 3.3703251 2.2683792 7.6020508.9960938.4403191-.1328735 1.1617508-.3910446 1.6088867-.1972656.0112305.0048828.0864258.043457.0976563.046875.5700378.3622131.5416508 1.2417908.963562 3.7824097-2.5013428.1409302-5.0341187-.3288574-7.3024292-1.4171753-.4439983-.2161865-.77355.4610901-.3242188.6757813 2.2766571 1.0928154 4.9086342 1.6632919 7.7426147 1.4907837 1.6177292 10.8222504 2.0609035 11.6265755 1.3892212 12.2167358-.4331055.3876953-1.2265625.2939453-1.8681641.3168945-.3254051.0115623-9.2993088.3242836-10.3427734.4003906-2.6631546.1910286-4.2397213-.0106125-4.128417-2.5800781.0288084-.8564454.1440427-1.7133789.3623044-2.6967774zm6.9433585 13.7460976c.0092773.0566406-.0478516.1567383-.1464844.2163086-.488657.2917328-3.1487904.0886154-3.1870117-.2553711.0586948-.2481232 3.2525387-.4549866 3.3334961.0390625zm29.4887714-59.6162148s0 0 0-.0004883c-.1289139-.6737957.9319344-1.3842349 2.2084961-.2333984.387207.3496094.7143555.78125.9458008 1.2485352.0375977.0756836.1508789.3051758.1064453.4370117-.0351563.1040649-.2079468.1756592-.3640747.1569214-.2269287-.1398315-.4511108-.2831421-.6843872-.4141235l-.0853271-.0792236c-.7852936-.7343359-.9868507-.7060137-1.6431274-.7817383-.2368622-.1043797-.0803452-.0528212-.4238892-.194458-.0315552-.0491334-.0521851-.0983277-.0599366-.1390382zm-12.1035767 13.5758667c1.321228-2.3170776 3.1637573-4.3679199 5.3369751-5.885437.1694336-.1186523.2114258-.3525391.0927734-.5224609-.1186523-.168457-.3515625-.2109375-.5224609-.0927734-2.3348389 1.6306763-4.3040771 3.8517456-5.6878052 6.3595581-.315033-5.4660149-6.3505497-8.3754644-10.7980366-5.295105 5.0368042-7.5527954 14.736208-10.8170166 23.3042011-7.3629761.101223.0897446 2.8704567 1.4944124 2.9708862 1.5240479 3.4092407 2.1263428 6.0669556 5.262207 7.6062622 9.0952759 1.4541016 3.621582 1.7905273 7.5234375 1.0126953 11.2910156-.8979034-5.0500431-6.6805267-7.4035587-10.8517456-4.3751221 1.4752197-3.4528198 2.5681152-7.0582275 3.2052612-10.7645264.0846825-.4916325-.6556778-.6110287-.7392578-.1269531-.692627 4.029541-1.9207764 7.9429321-3.6168213 11.6593018.1686747-5.9994946-6.6868666-9.3767148-11.3129271-5.5038453zm-4.4052124 21.7844849c1.2222977-1.1249657 2.1697807-.0743942 1.3408203.9931641-.7330627.9376373-2.1735115.9165726-2.3896484.5927734.0136719-.4311524.5439453-1.1142578 1.0488281-1.5859375zm-5.595705 23.9018593c.0092773.0561523-.0478516.15625-.1469727.2163086-.4852943.2900772-3.1482506.0885849-3.1865234-.2558594.0591717-.2474442 3.2521591-.4568253 3.3334961.0395508z"/><path d="m7.1819177 38.0366173c2.1653028-2.3878708 2.4187045-5.8958168 3.9500127-8.6799927.7249756-1.3181763 1.7910156-2.5129395 3.1732178-3.0914917.0879526.0984402.080965.114275.2137451.1845703.1116943.0575562.2225952.0810547.3311157.0864868-3.822669 4.8405151-2.202529 11.3142776 1.6530142 13.1479492-.2069702-.3636475-.369812-.7470703-.5134878-1.1395874 3.1716032 4.4465408 9.2128782 4.3270683 12.5308218 1.1829834 1.8313599-1.7358398 2.7498169-4.3582764 2.550354-6.8722534.598877-1.9671631.3516846-4.1749268-.6760864-5.9580078-2.3935509-4.1226578-7.8317394-4.8166924-11.7756958-3.2088623.1540527-.3012085.1937256-.6521606-.0477905-1.0560913-.1102333-.161356-.1573391-.1794529-.3081665-.2804565.1667976-2.2567997-2.1541462-4.1976585-5.1010733-3.4552612-2.210022.5500488-3.9000244 2.4300537-4.8099976 4.5100098-1.1392784 2.6166954-1.2253656 4.9455585-2.2199712 14.2300415-.0200195.25-.0300293.5499878.1699829.6999512.2699585.2100218.6499634-.0399782.8800049-.2999879zm9.9385371-15.0576172c.3448219-.1260109.6241455-.1660156.8486328.0986328.2173214.3668671-.6017914.8224545-.9794922 1.1425781-.5551758.4658203-1.1201162.921875-1.7021475 1.3662109-.3056641.2285156-.3994141.2094727-.4267578.1953125-.2331266-.1675586.371481-2.1784305 2.2597647-2.8027343zm10.8842773 16.2045898c-2.1318359 2.019043-5.5126953 2.6352539-8.2202148 1.5024414-1.9327965-.8101654-3.5548458-2.4837494-4.2797842-4.7724609-.0336781-2.8491669 1.4926786-5.3389149 3.6572866-6.696228.3669434-.2266235.7606201-.4373779 1.0623169-.755249.2931519-.3174438.4829102-.7929688.3232422-1.197998.7019043.7119141 1.1417847 1.6791992 1.2384644 2.673584 1.1200562-.9279785 1.6038818-2.5326538 1.2299805-3.9370728.3670845.0118103.6757526-.0116215 1.6127319.2402344 2.7171135 1.1586189 4.8225555 3.4270535 5.3183594 4.8153076.9873046 2.7651366.1884765 6.1069335-1.9423829 8.1274413z"/><path d="m27.0949421 33.3427086c.6900635 0 1.2494507-.5593872 1.2494507-1.2494507 0-.6900024-.5593872-1.2493896-1.2494507-1.2493896-.6900024 0-1.2493896.5593872-1.2493896 1.2493896-.0000001.6900635.5593872 1.2494507 1.2493896 1.2494507z"/><path d="m21.7583942 33.9661217c0-.6900024-.5593872-1.2493896-1.2494507-1.2493896-.6900024 0-1.2493896.5593872-1.2493896 1.2493896 0 .6900635.5593872 1.2494507 1.2493896 1.2494507.6900635 0 1.2494507-.5593872 1.2494507-1.2494507z"/><path d="m27.6141071 34.6533165c-.7689838 2.477726-3.5704002 3.7171516-5.9248047 2.6064453-.4481792-.2118645-.7696323.4663696-.3203125.6787109 2.763731 1.3024712 6.0568695-.1481209 6.9609375-3.0625.1475964-.4744186-.5697441-.6947746-.7158203-.2226562z"/><path d="m47.7498512 5.2973599-1.1757812 1.8579102c-.2673645.4216547.3734207.8133187.6337891.4013672l1.1757813-1.8579102c.1108398-.1748047.0585938-.4067383-.1162109-.5175781-.1762697-.1108398-.4072267-.0585937-.5175783.1162109z"/><path d="m62.2674294 5.5322232-2.2089844 2.2094727c-.3509178.3509164.1794624.881083.5302734.530273.4549751-.454978 2.2407341-2.240736 2.1357422-2.1357417l.0756836-.0761719c.1445313-.1474609.1430664-.3837891-.0039063-.5292969-.145996-.1450196-.3828125-.1445313-.5288085.0014648z"/><path d="m65.3450623 16.3740196c-.3288727.3710136.2329102.8689232.5615234.4970703l2.2827148-2.5776367c.3288956-.3710241-.2323151-.8683033-.5615234-.4970703z"/><path d="m65.7000427 32.5903282c-.3087845.3883209.2815247.8543968.5878906.4648438l2.503418-3.1665039c.3081665-.3875389-.2795486-.8540726-.5878906-.4648438z"/><path d="m43.317234 10.610836c-1.5507813-.2250977-3.1660156-.1040039-4.6674805.3461914-.1982422.0595703-.3110352.269043-.2514648.4672852.0599251.1989517.2695427.3102531.4672852.2514648 1.3979492-.4194336 2.8999023-.5307617 4.3442383-.3227539.4917678.0673333.5977287-.6709757.1074218-.7421875z"/></g></svg>