<svg id="Layer_1" enable-background="new 0 0 75 75" viewBox="0 0 75 75" xmlns="http://www.w3.org/2000/svg"><g id="Holding_Umbrella" fill="rgb(0,0,0)"><path d="m41.6181183 33.2742882c-.6293945 0-1.1395264.5102539-1.1395264 1.1394043 0 .6293945.5101318 1.1394043 1.1395264 1.1394043.6292725 0 1.1394043-.5100098 1.1394043-1.1394043 0-.6291504-.5101319-1.1394043-1.1394043-1.1394043z"/><circle cx="35.612" cy="36.122" r="1.139"/><path d="m40.8870392 36.6776085c.0738144.5462341-.649971 1.5879173-1.8300781 1.8173828-.6347656.125-1.3085938-.0087891-1.8476563-.3623047-.2983856-.1952705-.6722031.0962753-.5625.4296875 1.0342216 3.1707764 4.2461815 3.1271782 5.3583984 1.1728516.6210938-1.0898438.4033203-2.578125-.4960938-3.3867188-.2593917-.2334518-.6695746-.0163955-.6220702.3291016zm-3.1289063 2.5068359c1.5689087.406147 3.1047516-.4212685 3.6914063-1.6357422.9214058 2.2476159-2.1258545 4.0958939-3.6914063 1.6357422z"/><path d="m40.7053986 69.0594406c.9806671.2654953 2.5828972.3790359 3.4150391-.0507813 1.3835754-.7115479.9485092-2.7773438-1.6021729-2.7773438-.0038719-.1026077-.2204247-5.8450432-.2165527-5.7424278l.2503662-.0085449c.640625-.0253906 1.5322266.0869141 2.1533203-.4697266.6953125-.609375.5322266-1.6621094.4541016-2.1689453l-1.612915-10.4296875c1.6323242-.2456055 3.2205811-.7695313 4.6772461-1.557373l1.1137695 2.1687012c.2299805.4399414.7698975.6201172 1.1999512.3901367l.0699463-.0300293c.4400635-.2299805.6099854-.7700195.3800049-1.1999512l-.3068848-.5947266c.0511436-.0186005.1029091-.026226.1722412-.0712891.2978516-.1943359.4736328-.5546875.4599609-.9414063-.0027504-.4219666-.3946152-1.4790573-.8203125-1.9375-.4886208-.5253601-1.2125244-.6057091-1.5273438-.4003906l-3.6622314-7.1245117c.0070801-.159668.0026855-.3181152-.0004883-.4765625.1049805-.0388184.2017822-.1010742.2398682-.2124023 1.295742-3.7818031-.7230835-8.3054161-5.4593506-9.4790058-2.4648666-4.7491474-2.261837-4.5265732-2.5072021-4.7570801 1.7749672-.5519276 3.701313-.3583126 5.376709.6452637.6449242.3872795 1.2062874.9385662 1.8447266 1.3984375.2780609.2031994.6652412-.0521431.5849609-.390625-.3256798-1.6225967-.7637825-2.8112869 0-4.8632813 1.5247917-4.0978804 6.5964813-5.4609051 9.8232422-3.0722647.307991.2303467.4114189.280282.6416016.3671875.1054688.0400391.1884766.0722656.2509766.1240234.3256836.2695293.7775116-.1195621.5634766-.4785156-.8584518-1.4440498-2.776432-3.2600927-4.09375-4.2919922-6.5003471-5.08778-15.6029778-6.2130246-23.2835693-2.0327148.8431358-1.509316-.2712135-3.2819824-1.9223633-3.2819824-1.2209473 0-2.2105713.989502-2.2105713 2.2104492 0 1.2167807.9970798 2.2558479 2.2971191 2.2019043-8.030302 5.5011616-10.9817924 15.5355082-8.0661621 24.3457031l.0566406.1689453c.6896782 2.0992393 1.0176086 2.26651 1.1220703 2.46875.2633343.347599.8113155.0361862.6464844-.3681641-.0019531-.0429688.0029297-.0966797.0058594-.1474609.0216866-.3542137-.0401211-.3742294-.0869141-.7158203-.6917477-5.1535263 4.5305519-9.1358051 9.3699951-6.7636738-3.9719677 4.4849644-2.6583652 11.0785503 1.2999268 12.9599628.2312164.1090622.5412369-.0339661.5205078-.3608398 3.1376877 3.1202278 7.9528465 2.6159821 10.6279297.0854492.7301025-.684082 1.3087158-1.5495605 1.7042236-2.5029297l2.5 4.8674316c-1.3266602-.0551758-2.6523438.2080078-3.8487549.791748-.0926514.045166-.1580811.1235352-.1895752.213623-.1218262-.4746094-.3256836-.9055176-.7420654-1.1696777-.953846-.6226501-1.9353752.2097015-3.7109375.3310547-3.1435127.2234535-4.2911568-1.3626404-5.2763672-1.2099609-1.1764145.1738701-1.3868999 2.4346161-1.6279297 3.1884766-1.8808918 6.0522919-2.2612209 7.1481361-2.5722656 8.3447266-.1245708.4818306.6035938.665451.7265625.1875.317585-1.2259865.7358093-2.4279251 2.5615234-8.3076172.1669731-.5238419.4882164-2.5919724 1.0234375-2.6708984.5163345-.0676155 2.0357285 1.4314232 5.2246094 1.2158203 2.4102783-.1636124 3.422245-1.5195503 3.7675781.7753906l.2012939 1.3017578c-1.4975586.1418457-3.0175781.0534668-4.4854736-.3056641-.4892807-.1090012-.653965.610611-.1777344.7285156 1.6585732.406929 3.2226334.4787521 4.7791748.3266602 1.6375618 10.9030495 1.993763 11.4320412 1.4063721 11.9458008-.3555756.318573-.0145073.2225876-10.2197266.5957031-1.6276779.0816231-3.7469921.4647026-4.4345703-.8925781-.4252605-.8382568-.0646648-2.9179649.1376953-3.8300781.1080818-.4863701-.6251545-.6424866-.7324219-.1621094-1.1111107 4.9948006.3978558 5.9537354 4.09021 5.6889648-.2543144.2290764-.0787315.1135063.088623 5.7873497-.6468506.0500488-1.2668457.2316895-1.7335205.4699707 0 0 0 0-.0009766.0009766-1.2359371.6350861-1.2395611 1.9356079.2724609 2.34375.9829788.2682419 2.5831451.3786011 3.4150391-.0498047 1.1331635-.5827637.9582405-1.9584351-.1298828-2.4755859-.3338623-.1586914-.699585-.2424316-1.0716553-.2790527-.3038902-5.761219-.0528755-5.6190567-.4121094-5.8242149.4402237-.0286407 7.9733162-.303894 8.0749512-.3076172.0742493 1.9757309.2269211 6.0382271.2171631 5.7785606-2.6511422.4307262-2.8604241 2.2766125-1.064209 2.7661144zm8.6269531-25.1660118c.1835938-.0371094.4345703.0654297.6103516.2558594.2119141.2275391.3447266.5566406.4746094.9042969.0962524.244236.2167473.5711327.09375.8017578-.1000977.0007133-.1122322.1756821-.6914063-.1601563-.193325-.1076736-.959095-.4289284-1.0507813-.5585938-.0214844-.1132813.0693359-.5419922.15625-.7880859.0644531-.203125.2011719-.3730469.3398438-.4228516.0234375-.0078124.0458984-.0195312.0673828-.0322265zm-11.4659424-18.2214375c-1.9511452-.0349846-3.4713249.362608-4.7973633 1.0402832.1738472-1.8721085 1.2253532-3.7058296 2.9541016-4.8049316.0143661.3581238.0341301.1824284 1.8432617 3.7646484zm-17.5496826 8.8308125c-2.8717175-8.4171028-.6250916-16.4719563 4.6915283-21.7885742.0117188 2.8205566.6611328 5.6247549 1.9071045 8.1586905.2192669.4418087.8908195.1136189.6738281-.3320313-1.3022461-2.644043-1.9298096-5.5957022-1.8233643-8.5419912 1.5106583-1.3614283 2.9432774-2.3002787 4.5198975-3.0883789-.0321045.1647949.0439453.3359375.2038574.409668 3.2412109 1.5009766 5.9941406 4.0400391 7.7509766 7.1494131.0683594.1220703.1953125.1904297.3261719.1904297.2832069 0 .4696503-.3067722.3261719-.5595703-1.8280029-3.236083-4.6895752-5.8786612-8.0611572-7.4457998 7.9781303-3.6992035 17.6869583-1.8947973 24.0748291 5.1879883-5.4055328-2.8246946-11.8458595 1.7068605-10.4960938 8.1298819-5.4961586-4.4706364-13.2327824-.2441998-11.9648438 7.0966797-.4140625-.3173828-.8447266-.6347656-1.3164063-.8925781-4.8651466-2.6591694-10.7418975.757468-10.8124999 6.3261726zm10.8470459-5.4172382c1.4795494.9587135 1.6690407 1.4605885 2.0592041 1.2033691.4309921-.2830391-.1192017-.7227669-.1761475-2.7111816 3.6018753-2.0657368 9.0737419-1.5006466 11.255249 2.2824707.7324219 1.2753906 1.0087891 2.7919941.7958984 4.2265644-1.375-2.9179707-4.1054688-5.165041-7.203125-5.9072285-.2737503-.0755882-.5473709.2048187-.4375.4970703.3720703.984375.1777344 2.1464844-.4482422 2.9824219-.2011719-.7177734-.5820313-1.3876953-1.09375-1.9082031-.2795105-.2861137-.7620811.0132294-.6181641.3955078.0849609.2265625-.0507813.515625-.2236328.7011719-.5004463.5381126-3.2632408 1.5729504-4.1796875 5.133791-.3716679 1.4782066-.2366962 3.098362.1982422 4.3476563-2.8327865-2.3883745-3.1730365-7.7239305.0716554-11.2434102zm11.2662353 11.765871c-3.1884422 3.0167427-8.7252312 2.4434853-10.9046631-1.8789063-.1606445-.9379883-.1345215-1.8947754.0950928-2.8056641.7525101-2.92453 3.064045-4.0860062 3.1640625-4.1777363.4439697-.2739067.8749504-.54953 1.1181641-1.0292969.2724609.4609375.4482422.9873047.5019531 1.5205097.0290375.2924652.3762283.4468765.6123047.2519531 1.0458984-.8662128 1.5488281-2.3183613 1.3222656-3.6523457 2.6447754.831543 4.9234619 2.8469238 6.1053467 5.4038105.4312973 2.1147463-.2912483 4.7516673-2.0145264 6.367676zm.7545166 4.2670899c.1278076.1542358.297226.1821365.4437256.1088867 2.0551224-1.0024986 3.6744118-.6578979 3.8951416-.7363281l.3553467.6918945c-1.3846436.751709-2.8929443 1.2578125-4.4464111 1.4907227-.1248169-.7881203-.1462479-.9872246-.2478028-1.5551758zm-8.4351806 23.6147422c-.6114311.3140564-2.0271339.2263412-2.8769531-.0058594-1.906208-.5170212 1.1608963-1.8904648 2.7666016-1.1240234.5135917.2433777.6922072.8311768.1103515 1.1298828zm8.9199218-1.5224609c.2802734.1328125.5371094.4541016.4628906.7402344-.2134056.8216095-2.3506432.6233673-3.2294922.3837891-.3574219-.0966797-.5849609-.2480469-.6103516-.4042969-.0302734-.1904297.2294922-.4179688.484375-.5478516.7964288-.4091568 2.0576173-.5700455 2.8925782-.171875z"/><path d="m53.9651642 21.2850285c-.4863434-.1060276-.6418648.6296158-.1582031.7324219.2929688.0634766.5253906.1308594.7089844.2578125.5858078.4029541.1497421.9415684-.5107422.9902344-.6806641.0439453-1.4130859-.3291016-1.7617188-.9248047-.1044922-.1796875-.3349609-.2402344-.5126953-.1337891-.1787109.1044922-.2392578.3339844-.1337891.5126953.5017624.8570042 1.5051537 1.3700352 2.4638672 1.2939453 1.7049446-.1244145 2.2711563-2.2228356-.0957031-2.7285156z"/><path d="m54.2591095 28.4149113c.1976357.4548798.8851013.1544914.6875-.2988281-.8037109-1.8525391-2.3193359-3.3955078-4.15625-4.2353516-.1855469-.0849609-.4111328-.0039063-.4970703.1845703s-.0029297.4111328.1845703.4970703c1.671875.7636719 3.0498047 2.1679688 3.78125 3.8525391z"/><path d="m49.5178986 26.2518253c-.1132813.1728516-.0654297.4052734.1083984.5185547.5585938.3662109.8935547 1.0839844.8154297 1.7470703-.0582657.4917507.6859016.5816689.7441406.0878906.1123047-.9492188-.3496094-1.9384766-1.1494141-2.4619141-.1728515-.1152343-.40625-.0664062-.5185546.1083985z"/></g></svg>