<svg id="Layer_1" enable-background="new 0 0 75 75" viewBox="0 0 75 75" xmlns="http://www.w3.org/2000/svg"><g id="Fishing" fill="rgb(0,0,0)"><path d="m27.7802773 9.5123196c-.460022-.1999512-.9100342-.1800537-1.3900146-.2600098-.5999757-.1101074-.3900147-1.0100098-.6500245-1.5700688-1.3675194-2.866972-5.9753857-2.8667006-7.8099976-1.4299316-.8399658.6499023-1.3399658 1.8000493-1.0099487 2.8000493-2.1023817-2.7593346-6.4853907-2.1477666-7.7400513 1.1098633-.5699463 1.4799805-.2799683 3.25.7300415 4.4700928-1.2200317.2799072-2.1400146 1.4599609-2.2700195 2.7099609-.1966338 1.905777 1.2712946 4.0307064 3.8388062 4.5836182-1.5429478.8704128-.8150377 3.2074318.9674072 3.0244141 1.4597006 5.7903328 10.7279854 7.1736546 14.4922485 2.0063477 1.5435085-2.1191616 2.1722145-5.0555401 1.9720459-7.2437744.6756592-1.0924072 1.1743164-2.4665527 1.4594727-3.6505127.8078842-3.4063866-.6455555-5.8211434-2.5899658-6.550049zm-.0459595 5.6889648c-.0906372-.0640869-.1843872-.1237793-.2818604-.1787109.1259155-.2414551.182251-.4875488.1278076-.7202148.0670777.2915038.1140137.5935058.1540528.8989257zm-15.5340576-.7890625c.3900146-1.1298828 1.1699829-2.0898438 2.2000122-2.7099609.4253912-.2501945.8094797.4014654.3800049.6400146-.8599854.5200195-1.5400391 1.3599854-1.8699951 2.3099365-.1849003.4935675-.8726082.2014161-.710022-.2399902zm.0187378 9.8051758c-.2412109-.0175781-.4799805-.1318359-.6328125-.3164063-.4649544-.5627804-.0765285-1.4220028.6494141-1.4482422.0216064-.0008545.0400391-.010376.0605469-.0146484-.0604248.5756836-.0661011 1.1547852.0056152 1.744873-.0280762.0107422-.0580445.0170899-.0827637.0344239zm15.9458007-3.0341797c-.7634735 10.3643303-12.1856098 9.8153229-14.6347656 4.6064453-1.0763454-2.2892532-.2663498-4.2434216.1166992-6.7177734.0270996-.1755371.0635376-.3596191.1040649-.5454102.2603149-.111084.5090332.0432129.9594727.0358887 1.8008041-.0693264 2.898592-1.6436272 2.7399902-3.1000977.9492168 2.0011539 2.96735 2.5700207 4.2299805 1.6500244.6300049-.4500732.9500122-1.3199463.7300415-2.0499268.5199585 1.0998535 1.8399658 1.7698975 3.0299683 1.5198975.4257202-.0970459 1.0714722-.4818115 1.5480347-.960083.7976246.4132805.8314228.7296772.8518066 1.8354492.0327492 1.7643681.4818955 1.5950547.324707 3.725586z"/><path d="m19.3990517 57.1824837c.017395-.0234375.043335-.0377197.0552979-.0656738.0167847-.0393066.0253906-.081665.0413818-.1212158.012085-.0319824.0365601-.0579834.0469971-.0906982 1.6909714-.0750122 3.4432049-.1960564 5.0878906-.2636719.1337891-.0058594.2543945-.0820313.3168945-.2001953 1.1186523-2.1298828 1.0307617-4.7978516-.2348633-7.1367188-.2005844-.3707733.4009876-.111866-16.4985352-.3759766-.2671995.0288887-.3933525.2035751-.378418.4033203.2407227 3.1289063.6748047 5.7314453 1.3261719 7.9580078.0527344.1787109.2363281.2998047.4116211.265625 2.8076172-.3916016 5.953125-.2226563 8.8579102.4794922.3672142.0871391.7995358-.5206757.9676514-.8522949zm-9.605835-.4123535c-.5600586-2.0087891-.9462891-4.3349609-1.1767578-7.0869141l15.5385742.171875c1.0131836 2 1.0952148 4.2285156.2241211 6.0458984-1.5064621.0651855-2.4282665.1364708-4.5952148.2380371.2473145-.9637451.2891846-1.9852295.109375-2.9597168-.0883541-.4836197-.8277073-.3540382-.7373047.1367188.3222122 1.7478943-.2666187 3.0678139-.2827148 3.1679688-.0488281.3105469-.1914063.5615234-.4433594.7802734-2.8334809-.6635895-5.8826704-.8351174-8.6367188-.4941406z"/><path d="m26.6022987 67.138298c.76968-.5538101.858242-1.7241211-.6967773-2.2763672 0-.0009766 0-.0009766 0-.0009766-1.2266235-.4381256-2.6492863-.6672287-3.9726563-.5400391v-6.5459021c0-.4960136-.75-.4963112-.75 0v6.6770058c-1.7912483.4727249-2.2117882 1.922966-1.5600586 2.7058105.3081055.3691406.777832.4931641 1.1958008.5644531 1.5669861.2721024 3.2844276.2188797 4.9443359-.2275391.2651368-.071289.5703126-.1630859.8393555-.3564453zm-5.65625-.1542968c-.2983398-.0517578-.5957031-.1240234-.7475586-.3066406-.2109375-.2529297-.0834961-.7119141.1625977-.9648438 1.2932167-1.3266678 5.2144737-.3868713 5.8334961.1259766.2720165.2246628.2486038.490715-.0297852.6904297-.4453354.3212661-2.7999134.8691634-5.21875.4550781z"/><path d="m19.3835487 68.9029465c.6718197-.4848175.7270374-1.3307419.0693359-1.8779297-1.1137161-.9215393-4.3350372-1.001358-4.1176758-.9794922-.6575317 0-1.2112427.0894775-1.6809082.2587891l.3605957-7.6347694c.0097656-.2070313-.1499023-.3828125-.3569336-.3925781-.1923828.0048828-.3823242.1503906-.3920898.3574219l-.3825073 8.0987587c-.0939941.0726318-.196228.1368408-.2786255.2215576-.487793.5-.6967773 1.3730469-.2016602 1.9677734.9467488 1.1342925 5.8314362.8032836 6.9804688-.0195313zm-.9506836-1.5703125c.0004883.0009766.0009766.0009766.0014648.0009766.3012314.1071625.7372169.291008.734375.609375-.008791 1.0460892-5.5680923 1.246254-6.1894531.4990234-.2109375-.2529297-.0834961-.7109375.1625977-.9638672 1.0686636-1.0986099 3.8467484-.6630478 5.2910156-.1455078z"/><path d="m16.8234901 20.2935696c-.520874.0883789-.8327637.8117676-.6965332 1.6159668.1362305.8043213.6689453 1.3847656 1.1898804 1.2965088s.8327637-.8117676.6965332-1.6159668c-.1362305-.8043213-.6689453-1.3846436-1.1898804-1.2965088z"/><path d="m24.3808022 19.1602688c-.520874.0883789-.8327637.8117676-.6965332 1.6159668.1362305.8043213.6689453 1.3847656 1.1898804 1.2965088s.8327637-.8117676.6965332-1.6159668c-.1362305-.8043213-.6689454-1.3846436-1.1898804-1.2965088z"/><path d="m21.458744 25.0054836c-.5291748.7427769-1.6841698.6495247-2.0830078-.1806641-.212431-.4458714-.8915825-.123806-.6757813.3242188.6452274 1.3438663 2.5068264 1.5010796 3.3691406.2919922.1206055-.1679688.0810547-.4023438-.0874023-.5234375-.168457-.1201172-.4033202-.0810547-.5229492.0878906z"/><path d="m67.5876465 60.3091927c.0151367-.0878906.0375977-.2197266.0039063-.2871094-.0302734-.3310547-.2260742-.6474609-.5332031-.8535156-.3803329-.2374878-.8578186-.2905426-1.6713867-.4003906-1.5078697-.2312012-3.1061363-.4572754-4.7083092-.6529541l.6210938-46.8990479c.9729614-.7570801 1.9454956-1.5146484 2.9305382-2.263916 1.5767441-1.2129431-.5719795-3.4982686-2.1799889-2.2800298-11.0524902 8.4799805-21.3579102 17.4506836-30.8738403 26.8029766-2.4717617-.6514244-4.5063477-.6049881-4.406189-.5976563-.4946079 0-.4972172.7476692-.0024414.75 1.2709351.0078125 2.539917.1682129 3.7867432.4631348-1.3304443 1.3148193-2.6381836 2.6397705-3.9362793 3.9689941-.0601902-2.3456459.0473557-5.7783165-1.9954834-6.7143536-.9323139-.4668522-1.6203518-.4151382-7.1767578-.8496094l-.8413086-.0664063c-3.0760479-.2475929-4.1366816.3189793-5.4580078 2.8085918-.6083984 1.1533203-1.1523438 2.3388672-1.6166992 3.5244141-.1808767.4597778.5162144.7384911.6982422.2734375.4541016-1.1591797.9863281-2.3193359 1.5810547-3.4472656 1.1563625-2.1788864 1.9237185-2.6402626 4.7353516-2.4111309l.8422852.0654297c5.3636551.4221401 6.4760914.3617096 7.2299805.9804668 1.2942123 1.0050926 1.2022877 3.9832878 1.2507935 5.796875-3.2432251-.4521484-6.3009644-2.3125-8.1150513-5.0449219-.2727585-.4131966-.8999958.0003967-.625.4140625 1.9542847 2.9448242 5.2548828 4.9399414 8.7560425 5.401123.000061.0032959.0001831.0065918.0002441.0098877-1.6975098 1.7496338-3.3693237 3.510376-5.0137329 5.2819824-1.2863541 1.3815918.9031696 3.403923 2.1900024 2.0200195.8748779-.9405518 1.7606812-1.8730469 2.6508789-2.8028564-.1277428 1.4736824-.203392 3.5369186-1.3466187 4.1865234-.738184.4129524-.6679173.2929115-14.4365234-.3164063-1.0048828-.0458984-1.5585938-.5107422-1.7441406-1.4609375-.3034973-1.5411797.9712667-5.7274704 1.4975586-7.2255859.0371094-.0908203.0410156-.1943359.0039063-.2871094-.1240234-.3085938-.6547852-.2539063-.7197266.0615234-.585638 1.6707497-1.8586268 5.8639069-1.5175781 7.5947266.2509766 1.2900391 1.0966797 2.0039063 2.4458008 2.0673828 14.1349525.6253624 13.8676262.762825 14.8388672.2197266 1.5310364-.8701019 1.6179352-3.0883484 1.793457-5.6873779.7857666-.8138428 1.5762329-1.625 2.3737793-2.432373 1.2683563.5055046 2.0575371-.2835579 2.8381348-1.40271.0014648-.0029297.0029297-.0048828.0043945-.0068359.3829384-.5748215.6757507-1.1752281.3364258-1.7819824.2303467-.2285156.4626465-.4570313.6955566-.6851807.9248123.0622749 1.2709084.1661835 1.6193848-.081665.5266418-.3540649.4268112-1.0613327.1744385-1.6640625 8.1051025-7.8404522 16.7672119-15.3901348 25.9736328-22.5954571l-.612122 46.2199714c-3.5583305-.4070663-4.1676979-.2961235-4.5139771-.4165039-.4760742-.1708984-.8764648-.2441406-1.3393555-.2441406-1.339798 0-2.350399.0660286-2.6430664.0966797-.4922256.0513229-.4182816.7897224.0761719.7460938.3674355-.0370331 1.3411064-.0927734 2.5668945-.0927734.9407043 0 .8596191.3044472 2.1235352.3330078.9915543.0229721 2.7397957.2205238 3.7197876.3325195l-.0357056 2.6958008c-.0029297.2070313.1630859.3769531.3701172.3798828h.0048828c.2050781 0 .3720703-.1650391.375-.3701172l.0346069-2.6118164c.412056.0506554 5.6360207.7115631 5.9824791.9282227.1079102.0722656.184082.1865234.2006836.3681641-.1072083.4857216-1.9695892.1420288-2.0859375 1.3867188-.0138016.236454.0522461.3892326.0522461.5175781 0 .1962891-.1972656.3662109-.3984375.4208984-.269043.0810547-.5898399.0244141-.9013634-.0302734-.4261627-.0811729-.6406059.53022-.2202148 1.0058594.2270508.2578125.6230469.4238281.9985313.4238281h.0004883c.409996.019619 1.1010742-.1393051 1.1010742.4160194 0 .1875-.0737305.3779297-.1923828.4902344-.6081161.5903473-1.7169571.1223526-2.5766563.2236328-.543457.0625-1.1948242.3623047-1.3896484 1.0058594-.2967873.9156113.5815392 1.6680832-1.3979492 2.2773438-1.3808594.4238281-2.8125.6376953-4.2587891.6376953-3.3458862.0319748-2.9476624-1.5697632-4.3334961-2.2167969-1.1093216-.5555496-2.3893242.1401749-3.3012695.0058594-.9712601-.1376419-1.2374191-1.0312958-.4897461-1.6582031.331543-.2714844.7460938-.4111328 1.2529297-.5654297.4378738-.1309128.2988892-.7977066-.1699219-.7285194-.2938499.052597-.696106-.2529869-.6020508-.6572266.0332031-.2050781.1704102-.3798828.3496094-.4462891.3752174-.1376534.3008003-.6921654-.0991211-.7255859-3.9465446-.3101845-4.2509079-.2760201-4.7602539-.5166016-.2939453-.1542969-.5869141-.4648438-.5795898-.8076172.0249329-.9349518 2.3339767-1.4099503 3.3139648-1.6298828.1094551-.0215759 1.7296638-.4442482 3.8989258-.6542969.482811-.0457611.4328804-.7805901-.0722656-.7460938-1.6369743.1585083-4.8473282.7285004-6.2978516 1.3232422-.546875.2246094-1.5639648.6435547-1.5927734 1.6894531-.0126953.5849609.3725586 1.1699219.9946289 1.4960938.6321182.300415.9771843.2727242 4.2158203.5292969-.2475281.5236168-.165123 1.095871.2382813 1.5029335-2.1563797 1.0539856-1.4367447 3.7288818 1.203125 3.3164063 1.4993973-.1763992 1.9660912-.5577545 2.9267578.6396484.8539124.9751205 1.4423103 1.577652 3.9067383 1.5996094 1.5185547 0 3.0239258-.2255859 4.4765625-.6708984 2.4968224-.768425 1.7120247-2.2100601 1.8935547-2.7705078.0859375-.2841797.4438477-.4482422.7607422-.4853516.7539978-.0828629 2.0986595.4599304 3.0092735-.4267578.7129288-.6761017.6081161-2.1908951-.8779297-2.2060585.4335938-.2011719.7207031-.6123047.7207031-1.0615234 0-.1085281-.0548859-.4482651-.0541992-.4599609.0180664-.1933597 1.8166733-.1276859 2.0737305-1.3017581zm-36.4672814-22.1181641c-.4382687.6296844-1.0474548 1.4686623-1.8261719 1.1835938-.5211639-.1658249-1.2648087-.7879868-1.1196289-1.2294922.3324261-.9611054 4.4691888-2.2443886 2.9458008.0458984zm2.8540039-2.7519531c-.0048828.0029297-.0097656.0068359-.0151367.0107422-.062851.0457115-.7307701-.0229263-.8046875-.03125-1.0515938-.0696564-1.8626461-.0873375-1.9599609-.2841797-.1486053-.345665 1.1208305-1.7637024 2.1386719-1.2412109.1088867.0498047.4174805.4160156.5947266.9072266.1352538.3730468.1088866.5976561.0463866.6386718z"/><path d="m56.7233925 45.8550911c.3822594 0 .5186768-.506031.1899414-.6982422-1.4125977-.828125-2.5966797-2.0898438-3.3330078-3.5537109-.2247849-.4448586-.892189-.1043167-.6699219.3378906 1.2158051 2.4153023 3.4581566 3.9140625 3.8129883 3.9140625z"/><path d="m51.0813026 44.6050911 2.2490234 2.21875c.3455467.3432274.885704-.1786232.5263672-.5332031l-2.2490234-2.21875c-.3515129-.3491669-.8805809.1836815-.5263672.5332031z"/><path d="m47.6140175 47.9547005c-.378212.1559067-.2661438.7216797.1425781.7216797.2575798 0 2.653019-1.2719078 5.7993164-.2158203.4661407.1611366.7122726-.5509109.2392578-.7109375-1.9892578-.6699219-4.2426758-.5937501-6.1811523.2050781z"/></g></svg>