<svg id="Layer_1" enable-background="new 0 0 75 75" viewBox="0 0 75 75" xmlns="http://www.w3.org/2000/svg"><g id="Flower_Fragrance" fill="rgb(0,0,0)"><path d="m19.1351223 47.3996811c1.4243698.9913979 2.5794678.6585464 13.1400166.1599121 5.1312828-.2691994 3.689991-3.1681252 2.3200684-7.6899414-1.9981918-6.5391235-2.1634178-6.9142303-2.3901367-7.9399414-.2014694-.9723091-.8755531-2.990818-1.7799091-3.4000244-1.1574955-.5789833-4.3863029.8804226-7.3199463.3399658-1.3165703-.2561741-2.8273258-1.3870926-3.6900635 1.9199219-.75 2.960083-1.2800293 5.960083-1.5699463 8.9901123-.2175561 2.5850677-.7857533 6.1413383 1.2899169 7.6199951zm4.6199951-13.0400391 1.6500244-.3800049c.296526-.0887032.2390003-.3568039.8399658-1.7698975.1000977-.2399902.4300537-.2600098.5600586-.0400391l.8699951 1.4499512c.132967.2399254.3888912.1205597 1.9400635.2600098.2600098.0100098.3798828.3200684.2099609.5100098-.9908924 1.2056007-1.2517223 1.2866859-1.1700439 1.5600586l.4200439 1.6398926c.0599365.25-.1900635.4699707-.4300537.3701172-1.4196434-.5646858-1.6304283-.7972107-1.8399658-.6401367l-1.4299316.9100342c-.2200928.1400146-.5-.039917-.4801025-.2999268.0951614-1.6267166.2674618-1.7423668.0300293-1.9500732l-1.2999268-1.0799561c-.2000732-.1600342-.1201172-.4799805.1298828-.5400391z"/><path d="m21.3814602 68.404808c-.0185547.3085938.1337891.6210938.4042969.8369141 1.2237911.9882278 6.0321426.8738251 6.21875-.7753906.0361328-.3261719-.1074219-.6660156-.3847656-.9111328-.9023819-.7910233-3.0240135-.6751328-4.2208252-.4726563l-.2498779-8.1494141c-.0194988-.519165-.763607-.4573326-.75.0234375l.2542725 8.2976074c-1.3636323.4096604-1.2060682 1.050499-1.2718507 1.1506348zm2.7607422-.6748046c2.1137104-.2941437 4.1456184.5237732 2.5625 1.0576172-1.2929688.4365234-2.7236328.4570313-4.0273438.0585938-.2009506-.0606613-.5576763-.187851-.5478516-.3974609.0348797-.5057527 1.9125844-.691292 2.0126954-.7187501z"/><path d="m30.4816799 19.4726791c.6137695-.012207 1.0983887-.6716309 1.0825195-1.4729004-.0158691-.8013916-.5263672-1.44104-1.1401367-1.4289551-.6137695.012207-1.0983887.6717529-1.0823975 1.4730225.0158692.8012696.5262452 1.4410401 1.1400147 1.428833z"/><path d="m23.5030422 19.0099106c.6124268.0411377 1.1524658-.5738525 1.2061768-1.3735352.0535889-.7996826-.3994141-1.4812012-1.0119629-1.5223389-.6124268-.0410156-1.1524658.5739746-1.2060547 1.3735352-.0537109.7996826.3994141 1.4812012 1.0118408 1.5223389z"/><path d="m15.2047024 20.9936752c.6370363.9068794 1.8953209.9747257 2.1651611.6688232 2.2431335 6.6939335 11.2570705 8.1219082 14.8914814 3.0343018.9610329-1.3588486 1.3764992-3.0003624 1.6121826-4.6323242.0902519.1414585.2089958.1782227.3536377.1782227.5 0 .9980469-.2216797 1.375-.6123047 1.2067223-1.2551155.2935143-3.1179905-1.2772217-3.2269287.4726563-1.9263916 1.0585938-4.4874268.071167-6.6090088-1.0678635-2.3477721-3.3975868-3.9829545-5.8710957-4.453125-.476759-.1020045-.6357269.6411161-.140625.7363281 2.255476.4315715 4.367075 1.9133263 5.3310566 4.0302734.8173828 1.7578125.3964844 3.9716797-.0263672 5.7363281-1.1702156-1.0598001-1.4630127-1.187005-1.9209003-2.2958984-.1000957-.2352257-.1084175-.9830837-.5888672-1.2060547-.3691406-.1767578-.8232422.0302734-1.2246094.2148438-.6160278.2794933-1.7435322.5722513-2.9345703.6484375-4.5520668.3150215-6.0155468-1.9749737-7.2705078-1.1357422-1.0501213.6400137-.1998119 1.7823677-1.9146729 3.2038574-.9085541.7362099-.8269844.440237-1.1292725 1.4680176-1.8990898-2.7656384-1.607132-5.1124306-.5214844-6.4433594.8203125-.9951172 2.2871094-1.3818359 3.3398438-.8798828.2122364.1020365.4669914-.0173788.5244141-.2470703.62957-2.4903026 4.3617516-3.3767481 6.7841797-3.2871094.1884766.0087891.3808594-.1552734.3876953-.3623047s-.1552734-.3798828-.3623047-.3876953c-2.6577206-.0885172-6.4025688.8306146-7.4091797 3.4521484-1.3085938-.4033203-2.8955078.0869141-3.84375 1.2363281-.9052734 1.1083984-1.2402344 2.7226563-.8974609 4.3154297.2613525 1.2331543.9080811 2.4831543 1.9676514 3.8154297-1.5739469.1033803-2.3099003 1.838028-1.470581 3.0400391zm18.9921894-1.5019531c-.1075439-.0050049-.1871338.0270996-.2496338.0759277.0915527-.8408203.1025391-1.6463623.0283203-2.4091797.2778969-.0072174.5799103-.0441265.963501.255127 1.0803947.8398838.0649376 2.1793404-.7421875 2.078125zm-7.1279316-5.5380859c.9824219-.0625 1.9414063-.2539063 2.8378906-.5654297.1338692-.0418339.8562317-.3766623.9238281-.3857422.0546875.0605469.109375.3105469.1386719.4453125.1072426.493969.5174942 1.3599911.9952393 1.8336182.3529758.3500099.8775463.8131886 1.1297626 1.0384521.5403824 2.6533203-.224823 6.2163315-1.4443378 7.9423828-1.1230469 1.5712891-3.0771484 2.5927734-5.2285156 2.7333984-5.6235771.3519726-10.1815739-4.9195995-8.4257813-10.890625.8443661-.5901203 1.4766388-1.3613787 1.7246094-2.359375.6135235-2.7865438 1.4365864.604724 7.3486328.2080079zm-10.1820068 4.7358398c.0009766.8052979.0948486 1.6003418.2929688 2.3652344-.050293-.012085-.1031494-.0153809-.1568604-.0043945-.4472656.0839844-.9423828-.1152344-1.2041016-.4873047-.5660648-.8089657.0495434-1.9510575 1.0679932-1.8735352z"/><path d="m24.0191555 22.1958237c.3603516.7314453.7685547 1.5595703 1.5771484 2.0146484 2.1416759 1.2046928 4.3310738-.5169296 3.7558594-2.3183594-.0755424-.2308216-.3395729-.3272934-.5419922-.2119141-1.2939453.7314453-2.9726563.7402344-4.2744141.0214844-.3223819-.177639-.6788844.1674118-.5166015.4941407zm4.6591797.3828125c-.1688461 1.4286919-2.3879776 1.8869629-3.4921875.1972656 1.1435547.3310547 2.4003906.2626953 3.4921875-.1972656z"/><path d="m10.8687649 50.7153549c.4042969-.0009766.8222656-.140625 1.1552734-.4121094 1.0392361-.8488922.9515791-2.229187.8046875-3.4462891-.0449104-.3892288.0030937-1.1568375-.3092041-1.6638184.8081055-4.8731689 2.59729-9.6586914 5.1851807-13.8459473.258646-.4217548-.373745-.8165379-.6386719-.3945313-2.5804443 4.1767578-4.3760986 8.9359131-5.2249756 13.7907715-.8894892-.0366631-2.3806534 1.7822113-2.5797119 3.6174316-.1346683 1.2336085.4179401 2.3544924 1.6074219 2.3544924zm-.8613281-2.2724609c.0301456-.1030197.0566368-1.3567696 1.2636719-2.5654297.5325165-.5342522.7206182-.6543503.7851563.6591797.0293169.6533432.1793461 1.2850189.0888672 1.9755859-.2477333 1.8933869-2.3715726 2.0439148-2.1376954-.0693359z"/><path d="m25.1314602 7.9839096c-.4746513.1349497-.2740173.8552275.2050781.7207031 1.5009766-.4238281 3.2011719-.0214844 4.34375 1.0292969.3696651.3346968.8708591-.2176142.5078125-.5527344-1.3320312-1.2246093-3.3193359-1.6953125-5.0566406-1.1972656z"/><path d="m39.535881 21.1159897c.0844727-.0247803.1589355-.0756836.2069092-.1502686.7044868.5091324 1.1976967 1.2379303 1.4287109 2.0133057.1418152.4798088.8586197.2603474.71875-.2128906-.3040237-1.0311356-1.0139465-1.9973011-1.9453125-2.5761719-.3016052-.1876335-.4955406-.0755196-.7388916.1575928-3.2583084-.4879532-4.8882179 1.8112221-3.5794678 3.8101807-2.1580734.4911652-2.7933617 3.0383949-1.3621826 4.5170898-.0753174.3786621-.1026611.7729492-.0645752 1.1743164.0126953.1328125.0947266.2490234.2158203.3056641 2.2758446 1.0455742 5.1487885.3305492 6.7419434-1.6052246 1.2962646 1.0805664 2.4786377 2.2877197 3.5445557 3.6099854-1.1622849-.5019722-1.2343102-.3956966-1.3929443-.4344482-1.1852837-.0933094-1.8691673.4636269-2.0244141 1.1230469-.2457275 1.0452766.8704185 2.0245285 2.1679688 1.578125 1.0362091-.3604202 1.3982048-1.2847252 1.7646484-1.3056641.0380859.0058594.0761719.0117188.1152344.0166016.0310059.0036621.0562744-.0184326.0865479-.022583.6080322.8284912 1.1806641 1.6893311 1.6992188 2.5985107-.6079063.2834091-1.6284332 1.0405693-1.7176514 1.6845703-4.6853027.2728271-9.4581299-1.925415-12.2458496-5.7106934-.2940979-.399971-.8977051.0460587-.6035156.4453125 2.9528809 4.0090446 8.0923882 6.4262962 13.2137451 5.9941406.640583.5428848 1.9591522 1.1240883 3.0043945 1.0268555 1.5036621 3.798584 2.1335449 7.8925781 1.8111572 11.8657227-.0166016.2060547.1376953.3876953.34375.4042969.1977654.0179787.3863754-.1318932.4042969-.34375.3287354-4.0581055-.309082-8.2385254-1.8302002-12.1195068 2.0086365-.8615913 1.6431961-3.7244873-1.0158691-3.5838623.1994705-.3619919.4982948-.7076454.7191162-1.0749512.8254547-1.2994804.2135353-2.4104118-.6660156-2.5429688-1.3185959-.188921-1.7068787.9388771-1.5811768 2.2541504-.6027832-.9331055-1.2409668-1.8339844-1.9418945-2.6748047.5653572-.3671608.9100113-1.6007175 1.0797119-1.9768066.1464844-.3203125.4511719-.9863281.1367188-1.5595703-.5842781-1.0652103-2.8576546-.778244-2.5897217 2.0333252-.6506348-.6688232-1.3295898-1.3074951-2.0474854-1.9033203.6341553-1.0662842.8859863-2.3619385.6987305-3.6593018-.0292969-.2041016-.2138672-.3535156-.4248047-.3173828-.2050781.0292969-.3466797.2197266-.3173828.4248047.5747299 3.9925098-3.4715729 6.4326687-6.6162109 5.1806641-.0419922-1.4355469.8466797-2.7353516 2.1347656-3.0771484.2599258-.0691757.3630791-.376976.203125-.5888672-.3310547-.4355469-.3359375-1.1210938-.0097656-1.5634766.3173828-.4355469.9658203-.6308594 1.4824219-.4462891.0029297.0009766.0058594.0019531.0087891.0029297.3471451.119276.6455002-.2881832.4199219-.5820313-.0136719-.0449219-.0234375-.1025391-.0332031-.1474609-.0009766-.0039063-.0214844-.09375-.0224609-.0976563-.1356738-.5470678-.0473331-1.3030034.4200436-1.9440919zm4.5223389 11.9997558c-1.7621193 1.9048233-3.1744041-.7986107-.8027344-.6425781.3425827.0252342.7653351.1980019 1.0771484.3457031-.0804443.0816994-.1578483.1684914-.274414.296875zm.328125-4.1005859c.0326843-.10466.1354446-1.0322266.8076172-1.0322266.1452446 0 .3067245.0510273.3769531.1787109.1615143.2923298-.1265869.7756939-.3183594 1.2880859-.0996094.2666016-.3867188 1.0341797-.5898438 1.2402344-.2285155-.2490233-.3642577-1.1748046-.2763671-1.6748046zm4.2539063 7.09375c2.4267235.017334 1.4939384 3.1340408-1.1533203 2.1074219-.6396484-.2480469-1.0869141-.4951172-1.34375-.7392578.015583-.1419831 1.0181198-1.3552704 2.4970703-1.3681641zm-.7607422-3.4541016c.1314316-.1637535.3409576-.183609.5498047-.1542969.3755112.0566521.6420746.6066437.1347656 1.40625-.2028313.3394737-.4749031.64814-.6972656 1.0322266-.2324219-.9414062-.2939454-1.90625.0126953-2.2841797zm-13.3343506-4.8410644c-.8732071-1.4444008.2798576-3.0374794 1.7355957-2.9599609-.0426025.3579102.0036621.7258301.1427002 1.0598145-.8394776.3575439-1.4969483 1.0520019-1.8782959 1.9001464zm3.8079834-4.751709c-.7301598 0-1.3376236.332859-1.6972656.8251953-.0480957.0650635-.0755615.140625-.1147461.2104492-.5194092-.5349121-.8414307-1.3886719-.4458008-2.0317383.2792969-.4541016.7919922-.7998047 1.40625-.9492188.3533936-.0854492.7591553-.0900879 1.1928711-.0583496-.2834625.5450039-.4093552 1.0400829-.3803711 1.6931152.0097656.0986329.0205078.1982423.0390625.310547z"/><path d="m46.8931808 10.3686752c-.9072266 1.8046875-2.2578125 3.3759766-3.9052734 4.5458984-.4062233.2888165.0323029.898818.4335938.6113281 1.7480469-1.2402344 3.1796875-2.9072266 4.1416016-4.8212891.2231864-.4440259-.4495316-.779044-.669922-.3359374z"/><path d="m48.8804855 14.4995346-4.3496094 2.0869141c-.3566628.1699276-.2368507.7128906.1621094.7128906.1613312 0-.037838.0440922 4.5117188-2.1240234.1865234-.0898438.265625-.3134766.1757813-.5-.0898438-.1875-.3154298-.265625-.5000001-.1757813z"/><path d="m45.4781418 17.7690659c-.4837837.1028328-.3337517.8343086.1542969.734375 1.4492188-.3046875 3.0615234.6357422 3.5068359 2.0546875.0498047.1601563.1982422.2626953.3574219.2626953.2515907 0 .434021-.2455387.3574219-.4873047-.5546876-1.7695313-2.5566407-2.9404297-4.3759766-2.5644531z"/><path d="m52.4332199 64.6118393c-.2067871-.1392822-.4191895-.2264404-.6331787-.2861328-.6435547-.3952637-1.4365234-.4851074-2.1383057-.2695313.0372314-1.9994087-1.6817284-2.3810234-2.828125-1.5009766-.3505859.2744141-.6113281.6318359-.8203125.9951172-1.0787086-2.2567673-3.6281929-1.5619431-3.9521484.9472656-1.2930984-.8750267-2.7817993.29599-2.6082764 2.1203613-.1835938-.2681885-.5102539-.4685059-.9678955-.5617676-1.1256104-.2219238-2.0960693.0095215-3.0895996.3056641-1.3192062-9.0723763-1.1503754-8.6656151-1.336792-8.845459 2.5374298-.3789597 3.7572441-.7906952 3.2213135-3.3820801-.2851563-1.3789063-.6416016-2.7597656-1.0585938-4.1054688-.155262-.49683-.3035316-1.7273483-.8730469-1.984375-.5501366-.2511482-1.8057556.2151489-2.2724609.2744141-2.7919941.3691406-5.64258.5361328-8.446291.4990234-4.7919464-.0679131-5.2376385-.5628891-5.9863281-.0332031-.5283203.3769531-.5976563 1.0410156-.5966797 1.6416016.0039063 1.4560547.0644531 2.9375.1806641 4.4033203.0722656.9179688.2099609 1.9550781.9316406 2.6494141 1.1793556 1.1351547 4.1402473 1.0456619 5.765625.7294922 2.2616615-.4499855 2.8307285-1.6590195 2.8466797-4.0517578.1610756-.091423.4438152-.0203438.5869141.1240234.5467396.5488434.2509308 1.7319069.8740234 2.5683594.764204 1.0275459 2.5273571.9547005 4.2469501.7607422-.1228104.2240143-.0825424-.2584305 1.1866455 8.9453125.0012207.0085449.0096436.0126953.0114746.0209961-.1227875.0366592-.407238.1094284-.6364746.284668-.5666656.439827-.5231133 1.3164902.5449219 1.5654297 1.3055458.3054047 2.6787491.2457886 3.9677734-.1816406.4845963-.1601791.885994-.390976 1.0246582-.8825684.0491943.1994629.1029053.3947754.1569824.5817871.0562897.1930008.2571335.3135529.4648438.2558594.1982422-.0576172.3134766-.265625.2558594-.4648438-.1679688-.5800781-.3574219-1.2373047-.2431641-1.8193359.1015625-.4853516.484375-.9755859.9892578-.9619141.3710938.0234375.6914063.3466797.8955078.6132813.2112732.2788849.6773033.1362991.6728516-.2333984-.0117188-.7587891.0986328-1.3066406.3457031-1.7197266.2480469-.4082031.7617188-.7626953 1.2578125-.6582031.7188568.1594658 1.0114746.987793 1.2509766 1.6259766.1172791.3127518.5491371.3226776.6894531.0292969.2470703-.5195313.5263672-1.1083984.9794922-1.4638672.3740234-.2861328.9833984-.4091797 1.3173828-.1005859.3681641.3378906.3232422.9921875.2519531 1.578125-.0384407.3181763.313942.5338058.5810547.3564453.2087402-.1405029.4545898-.2116699.7073975-.2492676-.416626.3754883-.7000732.9172363-.77771 1.4572754-.1347656.9316406.1757813 1.8222656.4511719 2.6074219.1624336.4666367.870903.2225113.7070313-.2480469-.2460938-.7041016-.5244141-1.5019531-.4160156-2.2519531.0898438-.6279297.5800781-1.2988281 1.2177734-1.2988281.1000366.0424805.5312119-.0723724 1.2011719.7167969.2356682.2727661.6841888.0919876.6601563-.2685547-.0644531-.9433594.0380859-1.6318359.3232422-2.1660156.2910156-.5449219.9375-1.0390625 1.5859375-.9335938.9020615.1454926 1.3525772 1.1653824 1.6923828 1.9472656.1289978.3031464.5627518.3024063.6904297-.0048828.2734375-.6621094.5830078-1.4121094 1.1318359-1.8857422.4560547-.3945313 1.2412109-.5839844 1.7109375-.2011719.4824219.3935547.4931641 1.1845703.4335938 1.9804688-.0236168.3220139.3404388.5190125.5986328.3291016.8125-.6074219 2.0595703-.5722656 2.8388672.078125.7783203.6503906 1.0341797 1.8710938.5810547 2.7792969-.220047.4424286.4483109.7787781.671875.3339844.6103516-1.2255859.2792969-2.8115234-.7724609-3.6894531-.8662109-.7226563-2.1171875-.8818359-3.1425781-.4570313-.0058594-.7568359-.1572266-1.4638672-.734375-1.9345703-.8125-.6630859-1.9853516-.3837891-2.6757813.2138672-.4511719.3896484-.7558594.8876953-.9980469 1.3935547-.4121857-.7905846-1.0250206-1.4794579-1.9052734-1.6230469-1.2055093-.1932985-2.6831781.7771566-2.7919923 3.0058592zm-20.8222675-7.6435547c-3.0175953-.0031815-1.4735394-1.9657135-2.7207031-3.2158203-.2675781-.2705078-.6728516-.4140625-1.0517578-.3818359-.373436.0344696-.8164063.3112144-.8164063.6347656-.0023117 2.5967636-.6678295 3.1560364-2.2431641 3.4667969-1.3066998.2556343-4.1461811.3847122-5.1005859-.5341797-.53125-.5117188-.6416016-1.3867188-.703125-2.1669922-.1152344-1.4472656-.1748047-2.9101563-.1787109-4.3466797-.0025997-1.0869446.2778187-1.1919785 1.1113281-1.1123047 5.3314018.5513992 11.9225979.1019287 13.876955-.3828125.3486328-.0849609 1.0722656-.2646484 1.2314453-.2148438.1892471.1666908.4018211 1.2530365.4882813 1.5371094.4101563 1.3222656.7607422 2.6796875 1.0410156 4.0351563.3160744 1.5304642-.0074234 1.9529953-1.2646484 2.2519531-2.0026093.4777451-3.7699643.4355316-3.6699238.4296875zm6.7060566 10.5654297c-1.1503906.3798828-2.3828125.4355469-3.5615234.1621094-.2529297-.0595703-.3222656-.1347656-.3242188-.1445313 0-.1230011.3223915-.2152328.4326172-.2480469h.0019531c1.2150078-.371994 2.2753868-.7509766 3.4716797-.5117188.6639938.1349793.7652092.4775239-.0205078.7421876z"/><path d="m56.0455246 67.8198471c.8837891-.5722656 2.0488281-.7207031 3.046875-.3798828.4661407.1592865.7124214-.5511932.2402344-.7109375-1.2236328-.4140625-2.6064453-.2421875-3.6953125.4619141-.3144035.203125-.1655464.6894531.2041016.6894531.0703124 0 .1406249-.0195313.2041015-.0605469z"/></g></svg>