<svg id="Layer_1" enable-background="new 0 0 75 75" viewBox="0 0 75 75" xmlns="http://www.w3.org/2000/svg"><g id="Feeding_Bird" fill="rgb(0,0,0)"><path d="m69.5925598 52.3878593c-.7880859-.2070313-1.6181641-.2128906-2.4208984-.0205078l-.6416016-1.7451172c-.1081772-.2954063-.5261917-.3449249-.6835938-.0478516-2.0963211 3.9469032-1.5301514 2.9699593-2.1529541 3.9997559-.0568848-.1069336-.1107178-.2163086-.192749-.3063965-.2441406-.2695313-.5996094-.4355469-.9794922-.4609375.0787659-.8424377-.6104774-1.4970322-1.4794922-1.6171875-.5419922-.0742188-1.0693359.0527344-1.4667969.1748047-1.5849648.4852333-2.7640381 1.325882-3.7493896 2.4077148-.5783691-.2089844-1.192627-.420166-1.8267822-.5756836-2.0068359-.4960938-3.7998047-.1933594-4.9257813.8388672-1.0506592.973877-1.4539795 2.6220703-1.0615234 4.1342773-.3327827.0522537-.5554008.3997002-.6660156.5014648-.625145.6059647-1.5004349 1.4338684-1.6218262 1.5732422-.4484062-.1184654-1.0802002.0397835-1.0802002.371582 0 .3806915.8909569.5785103 1.3498535.2460938.4220924-.0275917 1.6100807-.3045807 3.5463867-.1486816 1.7877083 1.7514 4.6991463 2.7537346 7.8696289 2.1416016l.1904297 1.7014198c-.2371902.2463303-.9865036 1.0245209-.8900146.9243164-.2273483.2382507-.0564346.6337891.2714844.6337891.2732086 0 .326252-.2221985 1-.8798828l.5908203.6855469c.1181641.1386719.3007813.125.4570313.03125.2179184-.1280289.2443733-.5666733-.0263672-.6806641-.4087601-.467247-.4677124-.5571899-.6502686-.7397461l-.2053223-1.8330116c.6240234-.1738281 1.2216797-.4282227 1.7949219-.7321777l.0996094 1.9165077-.633667.4606934c-.4012718.2909775.041893.8985977.4414063.6054688l.5665283-.4111328c.0053711 0 .0100098.0029297.0155029.0029297.0058594 0 .0126953 0 .0195313-.0009766.0168457-.0009766.0308838-.0090332.0469971-.012207.4913292.6857071.5205536 1.0356445.8651123 1.0356445.2968407 0 .474617-.3287354.3164063-.5771484-.6850243-1.0670547-.6860809-1.1320801-.8953857-1.2509766l-.1135254-2.1828651c1.7996826-1.2009277 3.458374-3.3312988 3.9804688-5.5441895 5.0747833-4.0590706 5.3044434-3.9023209 5.2139893-4.3334961-.0283206-.1396485-.1347659-.2509766-.2724612-.2861329zm-8.6542969.5439454c.7651443.1069107 1.0205383.7463913.7236328 1.0947266-.0556641.0371094-.1083984.0791016-.1572266.1259766-.3276901.3069229.0781021.9526138.6201172.4697266.2509308-.1320686.6228065-.0689163.8212891.1494141.2402344.2636719.2685547.7353516.0664063 1.0732422-.2021484.3359375-.6191406.5703125-1.0634766.5976563-.4756508.02771-.462883.7397537.0146484.7490234.3246346.0073814.5648918.4496193.4804688.7802734-.1103516.4306641-.5625.6972656-.9619141.7705078-.5078125.0986328-1.0566406-.0351563-1.5283203-.171875-1.421875-.4179688-2.7744141-1.0927734-3.9111328-1.9501953-.4394531-.3327751-.4446793-.4078636-.0654297-.8984375 1.5655938-2.0158274 3.9895668-2.920521 4.9609375-2.7900392zm-12.2801513 7.9824218c-.5048828-.0090332-1.0025635.0092773-1.5010986.0537109.6063728-.5959587.710598-.6592712.9620361-.9482422.0517578.0891114.1422119.4018212.5390625.8945313zm11.3358154 1.1855469c-.6860352.4155273-1.4337158.7128906-2.2070313.9130859-.03479-.0065918-.0594482-.0310059-.0976563-.0292969-.078125.0087891-.1433105.0463867-.1986084.0944824-4.1354408.9153595-7.7517776-1.2536049-8.651001-3.7380371-.4970703-1.3447266-.1914063-2.8886719.7421875-3.7529297 1.3271484-1.21875 3.4042969-.8701172 4.2373047-.6621094.5054932.1235352 1.0001221.2888184 1.479126.4575195-.5203819.7133827-.4902344 1.245636.293335 1.8354492 1.369648 1.034996 4.3540039 2.5704384 6.0273438 2.2626953.7724609-.1425781 1.3818359-.6611328 1.5517578-1.3212891.1742249-.6788177-.2214317-1.1260948-.2666016-1.2265625.5200882-.2795448.8798523-.7148819.9630127-1.3691406.0683594-.0380859.1328125-.0756836.2049561-.1103516.0869141 2.5351565-1.9765625 5.3701174-4.078125 6.6464846zm4.8170166-6.168457c.019165-.3359375.0134277-.6704102-.0308838-1.0004883-.019043-.1420898-.1262207-.2399902-.2565918-.2861328.2586594-.4211655.0689011-.0884056 1.5915527-2.9765625l.4707031 1.2802734c.0673828.1875.2714844.2890625.4648438.2294922.5039063-.15625 1.0244141-.2158203 1.5371094-.1933594z"/><path d="m30.0388489 8.2882519c-1.0943794-.6488981-2.6337948-.3709016-3.6748047.3779297-.6908131-1.9066486-3.7734966-1.0834489-3.3925781 1.7587891-1.4090023-.1998768-2.3283062 1.1827641-1.7763672 2.3691406.230957.5161133.6575928.7275391 1.0355225.9140625-1.8428879 1.4258251-4.7737064 5.4115353-5.340332 7.708252-1.208251.7788086-1.029418 1.8486328-.9249258 3.204834.0142822.1843262.0806875.7233887.222167 1.184082-.0659504 6.1590691 7.0943203 10.7764149 13.0456543 8.5043926 3.654953-1.4206009 5.7753906-5.3055019 5.5042725-8.2656231.2432175-.1558647.2903786-.534647.3029785-.8232422.0983887-.940918-.0706787-1.9091797-.5068359-2.7492676-.1158447-.2231445-.2680664-.4086914-.4130859-.6020508-.6348534-2.4171524-1.6796417-5.3862133-3.3736572-7.2224121 2.0938416-.9890594 1.8815536-3.5606222.1660156-4.027832.3857706-.8735257-.078314-1.860302-.8740236-2.3310547zm-1.0751953 25.3212871c-5.2106228 1.9875946-11.5610352-1.7772942-11.9901123-7.1635723.3349609-.2451172.5795898-.9101563.8171387-1.168457 3.7536392-4.0818405 10.8601627-2.5343246 15.6218262.1989746.144043.0827637.3448486.2497559.5566406.3925781.3826904 2.6967182-1.6020661 6.4186497-5.0054932 7.7404766zm-7.4765625-13.3076152.3544922 1.1835938c.1420784.4728184-.5759945.6916447-.71875.2148438l-.3544922-1.1835938c-.143282-.4768258.5789222-.6879331.71875-.2148438zm8.2148437.2568359c-.1429443-.4757042.5763397-.6907196.71875-.2167969.2080078.6904297.2070313 1.4501953-.0019531 2.1386719-.143013.4748077-.8605328.2582893-.7177734-.2167969.1669921-.5498047.1669921-1.1552734.0009765-1.7050781zm3.3345947.2404785c-1.7321777-1.2175293-4.229126-1.5012207-6.230957-1.6450195-2.9894943-.2147923-6.0946369.337822-8.9498291 1.7368164.6368408-1.6262207 1.8378906-3.2678223 2.9545898-4.6760254 1.1473999-1.4345922 2.5575562-2.7811098 4.3662109-3.0546875 1.9077129-.308548 3.9746265.7321405 5.1582031 2.1357422 1.276003 1.4715652 2.1130067 3.6462593 2.7017823 5.5031738zm-2.8774414-6.7180176c-2.0124645-1.746459-4.7016716-2.389925-7.2355957-.8496094-.5377026-.3130083-.883585-.3871107-1.0457764-.7490234-.1513672-.3251953-.1025391-.75.1142578-1.0078125.3066406-.3554688.9023438-.4267578 1.2734375-.1523438.288681.2132788.6882725-.0661526.5810547-.4140625-.1435547-.4580078-.2617188-1.1308594-.0146484-1.7285156.2226563-.5117188.7451172-.8642578 1.2060547-.7871094.4252968.0568275.7960129.5839529.6132813.9511719-.1906986.3881292.3267975.7416878.6191406.4130859 1.4905376-1.6997356 4.0606632-1.2168436 4.0322266.2333984-.0058594.2265625-.1123047.4599609-.2763672.6162109-1.2506504.2547617-.7376785 1.4353228.3134766.7080078 1.3362846-.1728533 1.8263625 2.0861494-.1805421 2.7666017z"/><path d="m26.1211243 26.9091015c.1072998-.6169434-.1400146-1.1750488-.5523682-1.2468262-.4123535-.0715332-.8336182.3703613-.940918.9870605-.1072998.6169434.1400146 1.1750488.5523682 1.2468262s.8336182-.3701172.940918-.9870605z"/><path d="m30.2032776 26.5255566c-.4123535-.0715332-.8336182.3703613-.940918.9870605-.1071777.6169434.1400146 1.1750488.5523682 1.2468262.4124756.0717773.8336182-.3701172.94104-.9870605.1071778-.6166993-.1401367-1.1750489-.5524902-1.2468262z"/><path d="m22.6307678 38.7740898c.2248535-.4667969.1033936-.9914551-.2714844-1.1723633-.3748779-.1806641-.8612061.0512695-1.0861816.5178223-.2250977.4667969-.1035156.9916992.2713623 1.1723633.3748779.1809082.8612061-.0510254 1.0863037-.5178223z"/><path d="m28.6687317 30.2921581c-.8469181.8206577-2.2570419.3864632-2.5263672-.7314453-.0361328-.1503906-.1611328-.2636719-.3154297-.2841797-.1523438-.0185547-.3037109.0566406-.3779297.1923828-.2792969.5117188-.6298828 1.2841797-.4501953 2.0800781.2281628 1.0018711 1.0734024 1.8486309 2.1640625 1.8486309.53125 0 1.0537109-.2021484 1.4130859-.5761719.5800781-.6064453.6943359-1.5175762.7294922-2.2431622.0150242-.3369368-.3883628-.5236891-.6367187-.2861327zm-2.8769531.2480469c.6291275.8506794 1.7084579 1.1494427 2.6865234.7529297-.4466076 2.4720669-3.2985611 1.1971912-2.6865234-.7529297z"/><path d="m8.6296701 40.0743828c.3913651.2949448.8499393-.2993584.4511719-.5996094-1.0302734-.7763672-2.4384766-1.0419922-3.6875-.6914063-.4821768.1370926-.2656341.8649406.2050781.7216797 1.0205079-.2880859 2.1826172-.0703125 3.03125.569336z"/><path d="m9.4304514 38.4728203c.3462896 0 .5068607-.4316597.2460938-.6582031l-2.5156251-2.1826172c-.15625-.1347656-.3925781-.1181641-.5292969.0371094-.1357422.15625-.1191406.3935547.0371094.5292969 2.6127234 2.2216262 2.5048647 2.274414 2.7617188 2.274414z"/><path d="m10.393342 52.9269218-.7071533 11.2209511c-.7276039.4892273-1.0555334 1.3716431-.555542 2.0466309 0 .0009766.0009766.0009766.0009766.0009766.2753906.3720703.6992188.515625 1.078125.6064453 1.0547857.2537003 2.8455191.344696 3.6640625-.0947266.9412346-.5126648 1.0160437-1.8147125-.4433594-2.4873047-.9129639-.4209023-1.958252-.5373573-2.9754639-.354496l.6864014-10.8916016c.0323305-.4895782-.7172823-.5509491-.7480469-.046875zm2.5371094 13.2773476c-.8515625.1142578-1.7080078.0693359-2.5449219-.1308594-.48664-.1187897-.8789434-.3315125-.703125-.8037109.1132679-.3059616.433382-.5779877.6982422-.6386719 2.5216332-.5744476 4.7628861 1.275322 2.5498047 1.5732422z"/><path d="m17.0036926 55.4737968-.6534424 9.1962929c-.7668953.4043045-1.206789 1.2917023-.6453848 1.9658203.2763672.3339844.6982412.4609375 1.0742178.5419922 1.0491562.222702 2.8348713.3049011 3.6376953-.0849609.9584255-.4588547 1.0472488-1.6943893-.4414063-2.3017578-.8800049-.3603516-1.8822021-.4638672-2.8587646-.324707l.6351318-8.9399452c.0350133-.4925004-.7125453-.5521127-.7480468-.0527345zm2.491211 11.0869179c-.8554688.1025391-1.7167969.0634766-2.5585938-.1162109-.3940277-.084671-.8434753-.2369614-.7099609-.6171875.0917969-.2607422.4082031-.5224609.7060547-.5830078 2.4568519-.4973984 4.7381076 1.0508346 2.5625 1.3164062z"/><path d="m19.2292786 27.4239941c-.0087891.1328125-.1513672.2685547-.3125.296875-.5950909.0854645-1.1641541-.7443333-.8408203-1.4443359.1855469-.4042969.6669922-.6728516 1.1181641-.6083984.4881039.0764771.6007004-.6717205.1074219-.7421875-.7744141-.1103516-1.5771484.3232422-1.9072266 1.0371094-.5279121 1.1487999.3085537 2.5136719 1.4414063 2.5136719.631525 0 1.1087856-.4883633 1.1416016-1.0039063.0309904-.4692784-.7127001-.5815355-.748047-.0488282z"/><path d="m50.7389221 56.3951836c-.4179688 0-.7567139.3388672-.7567139.7568359s.3387451.7568359.7567139.7568359.7568359-.3388672.7568359-.7568359-.3388671-.7568359-.7568359-.7568359z"/><path d="m44.4147034 64.3263397c0-.5483818-1.5136719-.5491142-1.5136719 0 0 .5481186 1.5136719.5486145 1.5136719 0z"/><path d="m45.7276917 64.9845428c0 .5485687 1.5134277.5486298 1.5134277 0 0-.5483398-1.5134277-.5492095-1.5134277 0z"/><path d="m42.5139465 66.281662c0 .5480347 1.5135498.5489578 1.5135498 0 0-.5483475-1.5135498-.5491409-1.5135498 0z"/><path d="m47.0635071 66.0880585c0 .5486145 1.5135498.5486145 1.5135498 0 0-.5483475-1.5135498-.549141-1.5135498 0z"/><path d="m57.2927551 55.9611015 2.8427734-1.0068359c.4663086-.1655388.2206764-.8686752-.25-.7070313l-2.8427734 1.0068359c-.1953125.0693359-.2978516.2832031-.2285156.4785156.0699348.1973191.2862282.2971917.4785156.2285157z"/><path d="m57.7361145 57.4152031c.8886719.046875 1.7568359.2382813 2.5800781.5703125.4613953.1865234.7397957-.5104904.28125-.6953125-.9013672-.3632813-1.8505859-.5732422-2.8222656-.6230469-.4791183-.056736-.5492249.7239838-.0390625.7480469z"/><path d="m41.0134583 57.9620781c.7910156.8798828 1.2900391 2.0117188 1.40625 3.1875.0479126.4992905.795311.4202957.7460938-.0742188-.1318359-1.3330078-.6982422-2.6171875-1.59375-3.6152344-.33107-.368637-.8893586.1313096-.5585938.5019532z"/><path d="m38.8738098 65.8780975c.015625.0019531.03125.0029297.0458984.0029297.1865234 0 .3486328-.1386719.3720703-.3291016.1845703-1.4804688-.0185547-2.9941444-.5869141-4.3759804-.078125-.1914063-.2978516-.2832031-.4892578-.2041016-.1914063.078125-.2832031.2978516-.2041016.4892578.5185547 1.2626953.7041016 2.6455116.5361328 3.9990273-.0253905.2050782.1201173.3925782.326172.4179688z"/><path d="m27.4753723 14.6671581c-.4407959-.2250881-.7805214.447629-.3359375.6699219.9511719.4775391 1.7705078 1.2490234 2.3076172 2.1708984.0693359.1201172.1953125.1865234.3242188.1865234.0644531 0 .1289063-.0166016.1884766-.0507813.1787109-.1044922.2402344-.3339844.1357422-.5126953-.6093751-1.0468749-1.5400392-1.9218749-2.6201173-2.4638671z"/><path d="m36.3368225 45.687664c.7182617.7058105 1.2678223 1.5837402 1.5408936 2.5556641.0556641.1992188-.0605469.40625-.2597656.4628906-.2174835.0559273-.4099045-.0732155-.4628906-.2597656-.3447266-1.2285156-1.1708984-2.3076172-2.2675781-2.9609375-.1931343-.1156693-.263237-.3982124-.0615234-.5898438-.7789307-.6186523-1.3743896-1.4604492-1.9281006-2.2954102-.3901367-.6000977-.920166-2.0900879-1.710083-1.4799805-.460083.3500977-.7299805 2.0500488-1 2.6201172-.1976318.4179688-.4243164.8251953-.6636963 1.2231445-.0878906.0014648-.1765137-.0078125-.2625732.003418-.5904465.0577126-1.0688095.3633804-1.4597168.7971191-.2543945-.0996094-.5037842-.2102051-.7542725-.3190918.3591309-1.2595215.6693115-2.5290527.9071045-3.8095703 1.8472595 1.3916206 1.8385773 1.4995117 2.0705566 1.4995117.3568916 0 .510994-.4527397.2294922-.671875l-2.15625-1.6645508c.2678795-2.1020317-.4241428-2.8998604-1.7724609-3.668457-.0009766 0-.1201172-.0644531-.1210938-.0654297-5.8669567-3.2798996-4.9149475-2.7145042-5.59375-3.1396484-.5214844-.3251953-1.0615234-.6630859-1.6972656-.8007813-1.7705078-.3818359-3.6230459.5634766-4.6142569 2.3369141l-2.3417969 4.0029297c-.2497368.4271202.3934345.8037148.6484375.3779297l2.34375-4.0078125c.8476563-1.515625 2.3398428-2.2900391 3.8046865-1.9775391.7126637.1559372 1.328516.6570435 2.0488281 1.0595703l5.0361328 2.8046875.1826172-.328125-.0673828.3896484c1.1702366.6650238 1.7206955 1.1985855 1.3232422 3.4296875-.2357178 1.3220215-.5574951 2.6318359-.9251709 3.9318848-3.6813965-1.7463379-6.8887939-4.4777832-9.1549072-7.833252-.1162109-.171875-.3496094-.21875-.5205078-.1005859-.171875.1152344-.2167969.3486328-.1005859.5205078 2.3641357 3.5014648 5.7205811 6.347168 9.5718994 8.1479492-.5313721 1.755127-1.1726074 3.4846191-1.9371338 5.1704102-1.5231552 3.311554-2.7814121 3.530735-5.7460938 2.5244141-8.9704847-3.088436-9.9536791-3.0703391-10.3935537-4.3730468-.4210396-1.2631187.7413797-2.8705902 1.4111328-4.0126953l2.1455078-3.6728516c.2522774-.4274673-.3988199-.808815-.6464844-.3789063-2.3366117 3.9920807-2.0509262 3.524971-2.4365234 4.1552734-.6787109 1.1152344-1.5244141 2.5019531-1.2539063 3.8828125.4728522 2.1278381 2.4086952 2.0853195 10.9326162 5.1103516 3.8467903 1.3006058 5.2073402.4054108 6.9171143-3.5158691.1358814 1.0027962 1.2610416 1.3237038 2.2636719 1.6940918-.0512791-.2499924.1328678-.4377632.3446045-.4477539 1.8867188-.0830078 3.7089844-.8125 5.1328125-2.0527344.3704834-.3235855.8685722.237072.4921875.5664063-1.4619141 1.2731934-3.3111572 2.043457-5.2401123 2.2055664 6.310112 2.335083 8.0974007 2.7396126 8.8031006 4.3161621.210083.4799805.5.7299805.8800049 1.1000977.1400146.1298828.3200684.2800293.5100098.2299805.25-.0600586.3100586-.4001465.25-.6501465s-.1799316-.5097656-.1000977-.7597656c.1347351-.4715729.8672142-.5055618 1.1401367-.5800781 1.1398926-.3100586 1.8299561-1.9399414 2.4099121-2.8500977.8500977-1.3398438 1.6999512-2.6799316 2.5500488-4.0200195-1.5300293-1.5800781-3.5100098-2.7099609-5.6500244-3.2299805-.8582764-.2058106-1.7546387-.3327637-2.5909424-.6025391zm-6.2374267.0986328c1.4099083.4728622.860199 2.5135345-.3613281 2.9853516-.79179.32127-1.9238415-.080513-1.9550781-1.0996094-.0270043-1.1167602 1.0733985-2.3119163 2.3164062-1.8857422zm-4.3138428 3.4370118c.3922119-1.0061035.746582-2.0229492 1.0596924-3.050293.1729736.0742188.3449707.1499023.5196533.2197266-.215332.4106445-.3422852.8632813-.3319092 1.2998047.0032959.1040039.0338135.1965332.0510254.2946777-.6568775.6346397-.897522.7886963-1.2984619 1.236084z"/></g></svg>