<?xml version="1.0" encoding="UTF-8" standalone="no"?>
<!-- Created with Inkscape (http://www.inkscape.org/) -->

<svg
   version="1.1"
   id="svg4185"
   xml:space="preserve"
   width="682.66669"
   height="682.66669"
   viewBox="0 0 682.66669 682.66669"
   xmlns="http://www.w3.org/2000/svg"
   xmlns:svg="http://www.w3.org/2000/svg"><defs
     id="defs4189"><clipPath
       clipPathUnits="userSpaceOnUse"
       id="clipPath4199"><path
         d="M 0,512 H 512 V 0 H 0 Z"
         id="path4197" /></clipPath></defs><g
     id="g4191"
     transform="matrix(1.3333333,0,0,-1.3333333,0,682.66667)"><g
       id="g4193"><g
         id="g4195"
         clip-path="url(#clipPath4199)"><g
           id="g4201"
           transform="translate(162.6836,84.6475)"><path
             d="m 0,0 c -12.521,-15.129 -21.435,-33.354 -25.42,-53.354 -2.456,-12.325 7.076,-23.793 19.643,-23.793 h 198.191 c 12.565,0 22.098,11.468 19.642,23.793 -4.01,20.125 -13.009,38.451 -25.654,53.635"
             style="fill:none;stroke:#000000;stroke-width:15;stroke-linecap:round;stroke-linejoin:round;stroke-miterlimit:10;stroke-dasharray:none;stroke-opacity:1"
             id="path4203" /></g><g
           id="g4205"
           transform="translate(276.002,8.1494)"><path
             d="M 0,0 V 51.489"
             style="fill:none;stroke:#000000;stroke-width:15;stroke-linecap:round;stroke-linejoin:round;stroke-miterlimit:10;stroke-dasharray:none;stroke-opacity:1"
             id="path4207" /></g><g
           id="g4209"
           transform="translate(336.002,77.5107)"><path
             d="M 0,0 V -69.361"
             style="fill:none;stroke:#000000;stroke-width:15;stroke-linecap:round;stroke-linejoin:round;stroke-miterlimit:10;stroke-dasharray:none;stroke-opacity:1"
             id="path4211" /></g><g
           id="g4213"
           transform="translate(339.7832,142.3164)"><path
             d="m 0,0 c 6.346,-0.797 12.434,-3.636 17.226,-8.428 l 0.424,-0.425 c 13.361,-13.359 11.095,-35.776 -4.853,-45.906 -59.911,-38.054 -133.238,-38.058 -193.156,-10e-4 -15.949,10.131 -18.215,32.548 -4.855,45.907 l 0.424,0.424 c 4.699,4.7 10.644,7.52 16.855,8.379"
             style="fill:none;stroke:#000000;stroke-width:15;stroke-linecap:round;stroke-linejoin:round;stroke-miterlimit:10;stroke-dasharray:none;stroke-opacity:1"
             id="path4215" /></g><g
           id="g4217"
           transform="translate(276.0264,117.2432)"><path
             d="m 0,0 c -6.545,-0.904 -13.23,-1.371 -20.024,-1.371 -80.082,0 -145,64.918 -145,145 0,8.553 0.74,16.933 2.161,25.08"
             style="fill:none;stroke:#000000;stroke-width:15;stroke-linecap:round;stroke-linejoin:round;stroke-miterlimit:10;stroke-dasharray:none;stroke-opacity:1"
             id="path4219" /></g><g
           id="g4221"
           transform="translate(398.6797,286.8545)"><path
             d="m 0,0 c 1.525,-8.43 2.322,-17.113 2.322,-25.982 0,-62.816 -39.943,-116.302 -95.816,-136.447"
             style="fill:none;stroke:#000000;stroke-width:15;stroke-linecap:round;stroke-linejoin:round;stroke-miterlimit:10;stroke-dasharray:none;stroke-opacity:1"
             id="path4223" /></g><g
           id="g4225"
           transform="translate(201.3428,438.9648)"><path
             d="m 0,0 c -0.588,3.238 -0.895,6.574 -0.895,9.981 0,30.682 24.873,55.554 55.554,55.554 30.681,0 55.553,-24.872 55.553,-55.554 0,-3.391 -0.304,-6.711 -0.886,-9.935"
             style="fill:none;stroke:#000000;stroke-width:15;stroke-linecap:round;stroke-linejoin:round;stroke-miterlimit:10;stroke-dasharray:none;stroke-opacity:1"
             id="path4227" /></g><g
           id="g4229"
           transform="translate(389.5137,357.5352)"><path
             d="m 0,0 c -20.096,41.354 -59.671,91.411 -133.512,91.411 -74.01,0 -113.598,-50.287 -133.65,-91.695"
             style="fill:none;stroke:#000000;stroke-width:15;stroke-linecap:round;stroke-linejoin:round;stroke-miterlimit:10;stroke-dasharray:none;stroke-opacity:1"
             id="path4231" /></g><g
           id="g4233"
           transform="translate(226.002,356.8926)"><path
             d="m 0,0 h 176.337 c 19.259,0 34.871,-15.612 34.871,-34.871 0,-19.259 -15.612,-34.871 -34.871,-34.871 h -292.675 c -19.259,0 -34.871,15.612 -34.871,34.871 0,19.259 15.612,34.871 34.871,34.871 h 86.317"
             style="fill:none;stroke:#000000;stroke-width:15;stroke-linecap:round;stroke-linejoin:round;stroke-miterlimit:10;stroke-dasharray:none;stroke-opacity:1"
             id="path4235" /></g><g
           id="g4237"
           transform="translate(140.916,47.5)"><path
             d="m 0,0 h -4.238 c -28.494,0 -52.449,22.128 -53.871,50.586 -0.044,0.887 -0.068,1.806 -0.068,2.758 0,26.673 18.02,26.673 18.02,53.344 0,26.67 -18.02,26.67 -18.02,53.341 0,11.095 3.118,17.575 6.761,23.278"
             style="fill:none;stroke:#000000;stroke-width:15;stroke-linecap:round;stroke-linejoin:round;stroke-miterlimit:10;stroke-dasharray:none;stroke-opacity:1"
             id="path4239" /></g><g
           id="g4241"
           transform="translate(422.3691,231.0156)"><path
             d="m 0,0 c 3.699,-5.755 6.895,-12.256 6.895,-23.486 0,-26.671 -18.02,-26.671 -18.02,-53.341 0,-26.672 18.02,-26.672 18.02,-53.345 0,-0.952 -0.024,-1.871 -0.068,-2.758 -1.422,-28.458 -25.377,-50.586 -53.871,-50.586 h -4.11"
             style="fill:none;stroke:#000000;stroke-width:15;stroke-linecap:round;stroke-linejoin:round;stroke-miterlimit:10;stroke-dasharray:none;stroke-opacity:1"
             id="path4243" /></g><g
           id="g4245"
           transform="translate(420.1338,291.5449)"><path
             d="m 0,0 c 10.251,-6.364 17.076,-17.723 17.076,-30.676 0,-19.927 -16.154,-36.081 -36.081,-36.081 -1.398,0 -2.777,0.079 -4.135,0.235"
             style="fill:none;stroke:#000000;stroke-width:15;stroke-linecap:round;stroke-linejoin:round;stroke-miterlimit:10;stroke-dasharray:none;stroke-opacity:1"
             id="path4247" /></g><g
           id="g4249"
           transform="translate(114.8506,225.0049)"><path
             d="m 0,0 c -1.307,-0.144 -2.635,-0.217 -3.979,-0.217 -19.927,0 -36.082,16.155 -36.082,36.081 0,12.882 6.751,24.188 16.91,30.572"
             style="fill:none;stroke:#000000;stroke-width:15;stroke-linecap:round;stroke-linejoin:round;stroke-miterlimit:10;stroke-dasharray:none;stroke-opacity:1"
             id="path4251" /></g><g
           id="g4253"
           transform="translate(193.5527,246.3809)"><path
             d="M 0,0 V -12"
             style="fill:none;stroke:#000000;stroke-width:15;stroke-linecap:round;stroke-linejoin:round;stroke-miterlimit:10;stroke-dasharray:none;stroke-opacity:1"
             id="path4255" /></g><g
           id="g4257"
           transform="translate(318.4502,246.3809)"><path
             d="M 0,0 V -12"
             style="fill:none;stroke:#000000;stroke-width:15;stroke-linecap:round;stroke-linejoin:round;stroke-miterlimit:10;stroke-dasharray:none;stroke-opacity:1"
             id="path4259" /></g><g
           id="g4261"
           transform="translate(239.5371,234.7383)"><path
             d="m 0,0 c 4.004,-4.594 9.893,-7.5 16.465,-7.5 6.571,0 12.461,2.906 16.464,7.5"
             style="fill:none;stroke:#000000;stroke-width:15;stroke-linecap:round;stroke-linejoin:round;stroke-miterlimit:10;stroke-dasharray:none;stroke-opacity:1"
             id="path4263" /></g></g></g></g></svg>
