<?xml version="1.0"?>
<svg xmlns="http://www.w3.org/2000/svg" viewBox="0 0 64 64" width="512" height="512"><g id="_10-snow_ball" data-name="10-snow ball"><path d="M23,17a1,1,0,0,0-1,1v1a1,1,0,0,0,2,0V18A1,1,0,0,0,23,17Z"/><path d="M28,20a1,1,0,0,0,1-1V18a1,1,0,0,0-2,0v1A1,1,0,0,0,28,20Z"/><path d="M62.994,46.9l-.026-.258c-.621-5.931-.878-8.387-5.406-11.465a1,1,0,0,0-1.125,1.654c3.76,2.556,3.926,4.137,4.542,10.019l.027.258c.443,4.242-.175,7.66-1.838,10.158a1,1,0,0,0,1.664,1.109C62.761,55.474,63.488,51.614,62.994,46.9Z"/><path d="M57.406,59.234C55.219,61.069,52.068,62,48.041,62H48c-3.886-.006-4.66-1.746-5.731-4.155-.892-2.006-1.9-4.28-4.823-5.74-4.065-2.032-3.96-6.646-3.687-8.7l.372.106a3.371,3.371,0,0,0,.926.129A3.429,3.429,0,0,0,37.8,42.274a3.409,3.409,0,0,0-1.649-5.279l-1.379-.46L40.139,35h3.78a2.5,2.5,0,0,0,2.028-1.039c.013-.018.019-.039.032-.057,1.046-.367,4.212-.04,7.63,1.411a1,1,0,0,0,.782-1.841,18.367,18.367,0,0,0-8.078-1.655c-.01-.036-.01-.074-.022-.109A2.5,2.5,0,0,0,43.919,30H38.6a9.5,9.5,0,0,1-4.687-1.05c1.089-1.977.506-4.751.123-6.237A6.617,6.617,0,0,0,34.764,21H35.5a2.492,2.492,0,0,0,1.491-4.5L36.9,11.5a1,1,0,0,0-.566-.883c-.459-.221-.921-.423-1.385-.613A6.7,6.7,0,0,0,28,4a4,4,0,0,0-8,0v.092a6.645,6.645,0,0,0-2.555,1.03,1,1,0,1,0,1.11,1.664A4.43,4.43,0,0,1,21,6h7a4.813,4.813,0,0,1,4.724,3.219,23.292,23.292,0,0,0-7.71-.932l-.014,0c-.008,0-.014,0-.021,0A30.522,30.522,0,0,0,16.1,10.128a6.284,6.284,0,0,1,.742-1.584,1,1,0,1,0-1.676-1.091,8.055,8.055,0,0,0-1.256,3.525,1.362,1.362,0,0,0-.842,1.487l.714,4.231A2.494,2.494,0,0,0,15.5,21h.532a4.136,4.136,0,0,0,.586,1.843c-1.764-.486-6.421-1.508-9.173.325A11.043,11.043,0,0,1,2,25a1,1,0,0,0-.394,1.919,24.647,24.647,0,0,0,5.231,1.429A1.025,1.025,0,0,0,7,28.361a1,1,0,0,0,.162-1.986c-.408-.068-.8-.143-1.168-.222a13.035,13.035,0,0,0,2.56-1.321c1.676-1.118,4.818-.714,6.823-.243a3.772,3.772,0,0,0-.336,1.061,3.7,3.7,0,0,0-.036.561,18.361,18.361,0,0,1-4.967.46A1.015,1.015,0,0,0,9,27.631a1,1,0,0,0,.96,1.038q.453.019.9.019c.455,0,.9-.016,1.349-.044-.167.179-.339.351-.5.54L8.231,33.36a1.006,1.006,0,0,0-.16,1.012,7.746,7.746,0,0,0,.934,1.512,3.968,3.968,0,0,0-.591,2.3,3.337,3.337,0,0,0,.362,1.332l-.061.184a18.636,18.636,0,0,0-.7,3.027,1,1,0,0,0,.83,1.144A.942.942,0,0,0,9,43.878a1,1,0,0,0,.986-.843,19.569,19.569,0,0,1,.4-1.935,20.333,20.333,0,0,0,8.3,3.671l-1.138,3.413a2.169,2.169,0,0,1-1.367,1.367,4.181,4.181,0,0,0-2.632,2.633L12.445,55.5l-7.6-4.559a12.154,12.154,0,0,0,4.225-4.5,1,1,0,1,0-1.8-.876c-.838,1.717-2.4,2.989-4.831,4.606a1,1,0,0,0,.04,1.689l.4.24L1.071,56.628A1,1,0,0,0,1.4,57.8l6.836,5.127A2.676,2.676,0,0,0,12.069,59.3l-.915-1.374.335-.669,1,.6A1,1,0,0,0,13,58a1.016,1.016,0,0,0,.347-.062,1,1,0,0,0,.6-.622l1.5-4.5a2.169,2.169,0,0,1,1.367-1.367c.038-.013.069-.037.106-.05L17,54.029A1,1,0,0,0,18,55l.077,0,2.049-.158.888,5.326A1,1,0,0,0,22,61q.042,0,.084,0l9.27-.773A2.617,2.617,0,0,0,31.135,55a.861.861,0,0,0-.124.008l-1.358.169-.678-1.018,2.1-.162a1,1,0,0,0,.755-1.552L26.1,43.852l.532-1.6a3.406,3.406,0,0,0,1.483.34,3.367,3.367,0,0,0,1.523-.372l2.172.62c-.512,3.228-.066,8.649,4.74,11.052,2.277,1.138,3.06,2.9,3.889,4.763C41.555,61.158,42.814,63.992,48,64h.043c4.51,0,8.094-1.088,10.65-3.234a1,1,0,0,0-1.285-1.532ZM22,4a2,2,0,0,1,4,0ZM9.612,56.54,7.555,55.168a1,1,0,0,0-1.11,1.664l2.834,1.889,1.126,1.69a.676.676,0,0,1-.968.917L3.213,56.66l1.408-3.521,5.147,3.088Zm26.8-16.732a1.394,1.394,0,0,1-.218,1.266,1.422,1.422,0,0,1-1.514.509l-2.849-.814a6.394,6.394,0,0,0,2.09-2.407l1.592.53A1.4,1.4,0,0,1,36.413,39.808Zm7.981-7.465a.5.5,0,0,1-.475.657H41.387l.333-1h2.2A.5.5,0,0,1,44.394,32.343ZM15.689,16l-.566-3.359a.935.935,0,0,0,.22-.094Q16.692,12.009,18,11.6v3.16l-.087.017-1.13.251A1,1,0,0,0,16,16Zm19.22-3.844.049,2.618a.987.987,0,0,0-.834-.766c-.707-.089-1.416-.159-2.124-.216V11.1A21.742,21.742,0,0,1,34.909,12.156ZM30,13.673c-.333-.012-.667-.011-1-.017V10.462c.335.045.668.1,1,.162Zm-3-.008c-.333.009-.667.01-1,.026V10.273c.335,0,.669,0,1,.015Zm-3,.163c-.334.03-.667.073-1,.11V10.47c.336-.043.668-.075,1-.105ZM21,14.2c-.333.052-.667.1-1,.156V11.041q.5-.123,1-.226Zm-2.355,8.026A2.181,2.181,0,0,1,18,20.675V16.8l.347-.077A45.454,45.454,0,0,1,33,15.891v3.374a4.67,4.67,0,0,1-1.761,3.663A9.49,9.49,0,0,1,25.332,25,9.392,9.392,0,0,1,18.645,22.229ZM35.5,19H35V18h.5a.5.5,0,0,1,0,1ZM15,18.5a.5.5,0,0,1,.5-.5H16v1h-.5A.5.5,0,0,1,15,18.5ZM10.847,38.947a1.2,1.2,0,0,1-.437-.892,1.845,1.845,0,0,1,.062-.55c.34.323.708.653,1.141.995a18.506,18.506,0,0,0,11.474,3.9c.469,0,.941-.025,1.413-.059l-.246.738a18.33,18.33,0,0,1-13-3.814ZM27.471,55.509l-.775.127a1,1,0,1,0,.323,1.973l2.287-.373L31.183,57a.618.618,0,0,1,.507.883.6.6,0,0,1-.5.346l-8.352.7-.707-4.242,4.56-.35Zm-.085-3.234a.976.976,0,0,0-.541.042l-7.876.6L18.88,49.89a4.123,4.123,0,0,0,.568-1.074L20.7,45.064c.612.056,1.227.089,1.846.089.648,0,1.3-.04,1.954-.1l4.722,7.083ZM27.32,40.346l-.135-.093h0c-1.647-1.143-6.077-4.273-6.764-7.019a1,1,0,0,0-1.94.486c.6,2.417,3.048,4.765,5.47,6.643a16.573,16.573,0,0,1-11.1-3.432,11.584,11.584,0,0,1-2.65-2.81l3.047-3.656a11.043,11.043,0,0,1,2.479-2.2,4.808,4.808,0,0,0,2.2,1.494,27.124,27.124,0,0,0,6.388,1.429c.791.083,1.586.109,2.357.136l.8.029h.044a1,1,0,0,0,.042-2l-.82-.03c-.769-.026-1.5-.051-2.219-.126A25.154,25.154,0,0,1,18.6,27.876c-.812-.291-1.745-.861-1.581-1.922a2.587,2.587,0,0,1,.715-1.281l.027-.03c.084-.092.173-.184.266-.276A11.366,11.366,0,0,0,25.332,27a11.5,11.5,0,0,0,7.06-2.44c.239,1.4.31,3.111-.616,3.928a3.318,3.318,0,0,1-1.368.675,1,1,0,0,0,.252,1.967.968.968,0,0,0,.254-.033,5.719,5.719,0,0,0,1.564-.66A11.34,11.34,0,0,0,38.6,32h1.007l-.394,1.184-6.386,1.824A23.715,23.715,0,0,0,29.36,31.8,1,1,0,0,0,28.169,33.4c.847.628,3.2,2.579,3.936,4.044.1.2-.521,1.306-3.291,2.957A1.387,1.387,0,0,1,27.32,40.346Z"/><circle cx="42.995" cy="8.995" r="1.005"/><circle cx="52.995" cy="20.995" r="1.005"/><circle cx="2.995" cy="20.995" r="1.005"/><circle cx="8.995" cy="4.995" r="1.005"/><circle cx="61.995" cy="6.995" r="1.005"/></g></svg>
